<svg version="1.1" xmlns="http://www.w3.org/2000/svg" x="0" y="0" width="12" viewBox="0 0 11.96 12.87" xml:space="preserve"><style>.prefix__st0{fill:#ff0613}</style><circle class="prefix__st0" cx="4.91" cy="4.17" r="1.54"/><circle class="prefix__st0" cx="4.91" cy="8.7" r="1.54"/><circle class="prefix__st0" cx="8.58" cy="6.43" r="1.54"/><path class="prefix__st0" d="M4.84 12.87C1.68 12.87 0 10.45 0 8.7c0-1.02.53-1.81.94-2.27C.53 5.98 0 5.18 0 4.17 0 2.42 1.68 0 4.84 0c2.5 0 5.06 1.97 6.01 2.78V.97h1.1v3.11h-1.33l-.16-.15c-.02-.04-2.98-2.83-5.62-2.83-2.61 0-3.74 2.03-3.74 3.07 0 1.06.96 1.82.97 1.83l.56.44-.57.43c0 .01-.96.77-.96 1.83 0 1.03 1.13 3.06 3.73 3.06 2.64 0 5.6-2.79 5.63-2.82l.16-.15h1.33v3.11h-1.1v-1.82c-.95.82-3.51 2.79-6.01 2.79z"/></svg>
