<svg xmlns="http://www.w3.org/2000/svg" width="12" viewBox="0 0 10.9 10.91"><circle cx="5.45" cy="5.45" r="5.13" fill="#fff"/><path d="M5.45 10.91c-3 0-5.45-2.45-5.45-5.46S2.45 0 5.45 0c3.01 0 5.45 2.45 5.45 5.45s-2.44 5.46-5.45 5.46zm0-10.27C2.8.64.64 2.8.64 5.45s2.16 4.81 4.81 4.81 4.81-2.16 4.81-4.81C10.27 2.8 8.11.64 5.45.64z" fill="#ededed"/><path d="M8.03 4.23c-.56 0-1.03.38-1.17.9h-.44c-.1-.31-.34-.55-.65-.65v-.44c.52-.14.9-.61.9-1.17 0-.67-.55-1.22-1.22-1.22s-1.22.55-1.22 1.22c0 .56.38 1.03.9 1.17v.44c-.31.1-.55.34-.65.65h-.44c-.14-.52-.61-.9-1.17-.9-.67 0-1.22.55-1.22 1.22s.55 1.22 1.22 1.22c.56 0 1.03-.38 1.17-.9h.44c.1.31.34.55.65.65v.44c-.52.14-.9.61-.9 1.17 0 .67.55 1.22 1.22 1.22s1.22-.55 1.22-1.22c0-.56-.38-1.03-.9-1.17v-.44c.31-.1.55-.34.65-.65h.44c.14.52.61.9 1.17.9.67 0 1.22-.55 1.22-1.22s-.54-1.22-1.22-1.22z" fill="#ff0613"/></svg>
