<svg version="1.1" id="prefix__Слой_1" xmlns="http://www.w3.org/2000/svg" x="0" y="0" width="12" viewBox="0 0 10.89 10.89" xml:space="preserve"><style>.prefix__st1{fill:#ff0613}</style><circle cx="5.44" cy="5.44" r="5.13" fill="#fff"/><path class="prefix__st1" d="M8.02 4.22c-.56 0-1.03.38-1.17.9h-.44c-.1-.31-.34-.55-.65-.65v-.44c.52-.14.9-.61.9-1.17 0-.67-.55-1.22-1.22-1.22s-1.22.55-1.22 1.22c0 .56.38 1.03.9 1.17v.44c-.31.1-.55.34-.65.65h-.44c-.14-.52-.61-.9-1.17-.9-.67 0-1.22.55-1.22 1.22s.55 1.22 1.22 1.22c.56 0 1.03-.38 1.17-.9h.44c.1.31.34.55.65.65v.44c-.52.14-.9.61-.9 1.17 0 .67.55 1.22 1.22 1.22s1.22-.55 1.22-1.22c0-.56-.38-1.03-.9-1.17v-.44c.31-.1.55-.34.65-.65h.44c.14.52.61.9 1.17.9.67 0 1.22-.55 1.22-1.22S8.7 4.22 8.02 4.22z"/><path class="prefix__st1" d="M5.44 10.89c-3 0-5.45-2.44-5.45-5.45h.64c0 2.65 2.16 4.81 4.81 4.81s4.81-2.16 4.81-4.81h.64c0 3-2.44 5.45-5.45 5.45z"/></svg>
