<svg xmlns="http://www.w3.org/2000/svg" viewBox="0 0 1239 396">
  <path fill="#7a7ddb" d="M0 0h1239v396H0z"/>
  <path fill="#fff" d="M45.5 330.2h72.7l-12.8 12.9c-.6.5-.6 1.3-.2 1.8l.1.1.1.1c.6.5 1.4.5 2 0l15.2-15.4c.2-.2.3-.4.4-.7v-.4c-.1-.3-.2-.5-.4-.7l-15.2-15.4c-.6-.5-1.4-.5-2 0s-.6 1.3-.2 1.8l.1.1.1.1 12.8 12.9H45.5c-.7 0-1.4.6-1.4 1.3v.1c0 .8.6 1.4 1.4 1.4Z"/>
  <path fill="#fff" d="M106.4 346.5c-.6 0-1.2-.3-1.7-.7-.9-1-.9-2.4 0-3.4l11.1-11.2H45.5c-1.3 0-2.4-1.1-2.4-2.4s1.1-2.4 2.4-2.4h70.3l-11.1-11.2c-.9-1-.9-2.4 0-3.4 1-.9 2.5-.9 3.5 0l15.2 15.4c.3.3.6.7.7 1.2v.5l-.1.5c-.1.5-.3.9-.7 1.2L108.1 346c-.5.3-1.1.5-1.7.5Zm-60.9-18.2c-.2 0-.4.2-.4.4s.2.4.4.4h75.1l-14.5 14.6c-.2.2-.2.5 0 .6.1.2.3.2.5.1l.1-.1 15.2-15.4q.1-.1.1-.2v-.2c0-.1-.1-.1-.1-.2L106.7 313c-.1-.2-.3-.2-.5-.1l-.1.1c-.2.2-.2.5 0 .6l14.5 14.6-75.1.1Zm.3-260v-3.1c0-12.5 7.5-20 18.6-20S83 52.6 83 65.2v3.1c0 12.5-7.5 20-18.6 20s-18.6-7.4-18.6-20Zm29.6 0v-3.1c0-8.6-4.6-13.3-11-13.3s-11 4.4-11 13.3v3.1c0 8.7 4.6 13.3 11 13.3 6.5 0 11-4.5 11-13.3Zm11.2-10.5h25.2v6.1h-9.1v23.9h-7V63.9h-9.1v-6.1Zm40 17.4h-3v12.5h-7v-30h7V69h3l7.2-11.3h8l-9.5 14.2L143 87.8h-8.4l-8-12.6Zm27.6 9.6v15h-7v-42h5.5l.7 4.1c2.1-3.1 5.4-4.6 9.6-4.6 6.9 0 11.9 5 11.9 14.6v1.9c0 9.5-5 14.6-11.9 14.6-3.7-.1-6.7-1.2-8.8-3.6Zm13.3-11.1v-1.9c0-5.5-2.6-8.1-6.7-8.1-3.8 0-6.5 2.7-6.7 7.7v2.3c0 5.3 2.8 8.1 6.7 8.1 4.2 0 6.7-2.4 6.7-8.1Zm13.3-15.9h7v9h4.4c9.2 0 13.2 4 13.2 10.5s-4 10.5-13.2 10.5h-11.4v-30Zm7 14.7v9.6h4.7c3.8 0 5.6-1.7 5.6-4.8s-1.7-4.8-5.6-4.8h-4.7Zm20.8-14.7h7v30h-7v-30Zm11.8 0h25.2v6.1h-9.1v23.9h-7V63.9h-9.1v-6.1Zm43.2 15.9v-1.9c0-9 5.6-14.6 14.1-14.6 7.6 0 11.7 4.1 12.9 10.1h-7.4c-.6-2.2-2.7-3.7-5.8-3.7-3.5 0-6.5 2.3-6.5 8.1v1.9c0 5.6 3.1 8.1 6.5 8.1s5.2-1.7 5.8-4h7.4c-1.2 6.3-5.3 10.4-12.9 10.4-8.6.2-14.1-5.3-14.1-14.4Zm30.3-2.4v-3.1c0-8.9 2.1-16.3 8.2-19.6 5.4-2.9 10.1-1.1 18.2-3.4v6c-6 2-11.2.5-15.2 2.8-2.5 1.4-3.9 3.7-4.6 8 2.2-2.8 5.5-4.2 9.2-4.2 7.7 0 12.9 5.2 12.9 14.3V74c0 8.8-5.5 14.3-14.4 14.3s-14.3-5.5-14.3-17Zm7.3.4V74c0 5 2.8 7.8 7.1 7.8s7.1-2.8 7.1-7.8v-1.9c0-5-2.8-7.8-7.1-7.8-4.2 0-7 2.6-7.1 7.4Zm25.7 2v-1.9c0-9.1 5.5-14.6 14.4-14.6s14.4 5.4 14.4 14.6v1.9c0 9.1-5.5 14.6-14.4 14.6-9 0-14.4-5.4-14.4-14.6Zm21.5 0v-1.9c0-5.4-2.7-8.1-7.1-8.1s-7.1 2.6-7.1 8.1v1.9c0 5.4 2.7 8.1 7.1 8.1 4.5 0 7.1-2.6 7.1-8.1Zm20.3 11.1v15h-7v-42h5.5l.7 4.1c2.1-3.1 5.4-4.6 9.6-4.6 6.9 0 11.9 5 11.9 14.6v1.9c0 9.5-5 14.6-11.9 14.6-3.7-.1-6.7-1.2-8.8-3.6ZM382 73.7v-1.9c0-5.5-2.6-8.1-6.7-8.1-3.8 0-6.5 2.7-6.7 7.7v2.3c0 5.3 2.8 8.1 6.7 8.1 4.2 0 6.7-2.4 6.7-8.1Zm50.5-7.6c0 2.6-1.3 4.8-3.8 6.2 3.1 1.4 4.7 3.8 4.7 6.7 0 5.5-3.7 9.2-12.6 9.2s-12.6-3.8-13.2-10.4h6.7c.6 2.9 2.2 4.6 6.5 4.6s5.9-1.5 5.9-3.6-1.5-3.6-5.9-3.6h-3.3v-5.5h3.3c3.7 0 5-1.3 5-3.3s-1.3-3.3-5-3.3c-3.5 0-5 1.4-5.6 4.3h-6.7c.6-6.5 4.3-10.1 12.3-10.1s11.7 3.6 11.7 8.8Zm4.8 13.1c0-6.3 3.8-10.1 13.8-10.1h5v-1.8c0-2.9-1.5-4.4-5-4.4s-4.7 1.4-5 3.5h-7.6c.3-5.3 4.2-9.2 12.6-9.2s12 4 12 10.1v20.4h-5.5l-.7-4.1c-2.1 3-5.5 4.7-9.7 4.7-6.5 0-9.9-3.4-9.9-9.1Zm18.8-3.7v-.9h-5c-4.7 0-6.5 1.7-6.5 4.4 0 2.2 1.4 3.5 3.8 3.5 4.4 0 7.7-3.3 7.7-7Zm26.2-17.7h11.1v30h-7V78h-4.1c-.7 0-1.3 0-2-.1l-4.9 9.8h-7.8l6.1-11.1c-3.7-1.7-5.2-4.7-5.2-8.8 0-6.3 3.8-10 13.8-10Zm0 14.6h4.1v-9h-4.1c-4.9 0-6.4 1.6-6.4 4.5s1.5 4.5 6.4 4.5Zm18.9-14.6h11.7c9 0 12.3 3.3 12.3 8.5 0 2.4-1.1 4.6-3.7 6 3.4 1.4 4.9 3.9 4.9 6.8 0 5.5-3.3 8.8-12.3 8.8h-12.9V57.8Zm6.7 5.5v6.5h5c3.8 0 5-1.2 5-3.2s-1.2-3.2-5-3.2h-5v-.1Zm0 11.9v7.1h6.2c3.7 0 5-1.3 5-3.5s-1.3-3.5-5-3.5h-6.2v-.1Zm22.7-1.5v-1.9c0-9.1 5.5-14.6 14.4-14.6s14.4 5.4 14.4 14.6v1.9c0 9.1-5.5 14.6-14.4 14.6-9 0-14.4-5.4-14.4-14.6Zm21.5 0v-1.9c0-5.4-2.7-8.1-7.1-8.1s-7.1 2.6-7.1 8.1v1.9c0 5.4 2.7 8.1 7.1 8.1 4.5 0 7.1-2.6 7.1-8.1Zm23.2 1.5h-3v12.5h-7v-30h7V69h3l7.2-11.3h8L581 71.9l10.7 15.8h-8.4l-8-12.5ZM65.8 135.9H54v23.9h-7v-30h25.8v30h-7v-23.9Zm21.8 20.9v15h-7v-42h5.5l.7 4.1c2.1-3.1 5.4-4.6 9.6-4.6 6.9 0 11.9 5 11.9 14.6v1.9c0 9.5-5 14.6-11.9 14.6-3.7-.1-6.7-1.2-8.8-3.6Zm13.3-11.1v-1.9c0-5.5-2.6-8.1-6.7-8.1-3.8 0-6.5 2.7-6.7 7.7v2.3c0 5.3 2.8 8.1 6.7 8.1 4.2 0 6.7-2.4 6.7-8.1Zm11.5 0v-1.9c0-9.1 5.5-14.6 14.1-14.6s14.1 5.6 14.1 15.5v2.3h-21.2c.4 5 2.9 7.1 7.1 7.1s6-1.7 6.6-3.7h7.2c-1.2 5.6-5.4 9.8-13.8 9.8-8.6.1-14.1-5.4-14.1-14.5Zm7.1-4.1h14c-.5-4.4-2.9-6.2-7-6.2-4-.1-6.4 1.9-7 6.2Zm36.4 2.6-2.3-5.8v21.4h-7v-30h10l6.7 15.7 6.8-15.7h9.6v30h-7v-21.4l-2.3 5.8-3.7 8.7h-7l-3.8-8.7Zm51.5-5.6-2.7 5.6-8.6 15.6h-8.8v-30h7V151l2.7-5.6 8.6-15.6h8.8v30h-7v-21.2Zm34.8 0-2.7 5.6-8.6 15.6h-8.8v-30h7V151l2.7-5.6 8.6-15.6h8.8v30h-7v-21.2Zm34.7-6.4h7.4l-7.1 11.9 7.1 12.1h-7.6l-7.1-11.9 7.3-12.1Zm12.3 0h7.4l-7.1 11.9 7.1 12.1H289l-7.1-11.9 7.3-12.1Zm44.6 9.1h-4.2v18.4h-7.2v-18.4h-4.2l-10.5 18.4h-8.4l12.7-21.5-11.5-20.5h8.4l9.3 17.2h4.2v-17.2h7.2V135h4.2l9.4-17.2h8.3l-11.4 20 12.6 22h-8.8l-10.1-18.5Zm43.7-2.7-2.7 5.6-8.6 15.6h-8.8v-30h7V151l2.7-5.6 8.6-15.6h8.8v30h-7v-21.2Zm11.8-8.8h25.2v6.1h-9.1v23.9h-7v-23.9h-9.1v-6.1Zm30 0h7v9h5c9.2 0 13.2 4 13.2 10.5s-4 10.5-13.2 10.5h-12v-30Zm6.9 14.7v9.6h5.3c3.8 0 5.6-1.7 5.6-4.8s-1.7-4.8-5.6-4.8h-5.3Zm38.1-14.7H476c9 0 12.3 3.3 12.3 8.5 0 2.4-1.1 4.6-3.7 6 3.4 1.4 4.9 3.9 4.9 6.8 0 5.5-3.3 8.8-12.3 8.8h-12.9v-30.1Zm6.7 5.5v6.5h5c3.8 0 5-1.2 5-3.2s-1.2-3.2-5-3.2h-5v-.1Zm0 11.9v7.1h6.2c3.7 0 5-1.3 5-3.5s-1.3-3.5-5-3.5H471v-.1Zm33.8-3-2.3-5.8v21.4h-7v-30h10l6.7 15.7 6.8-15.7h9.6v30h-7v-21.4l-2.3 5.8-3.7 8.7h-7l-3.8-8.7Zm29.7 1.5v-1.9c0-9.1 5.5-14.6 14.1-14.6s14.1 5.6 14.1 15.5v2.3h-21.2c.4 5 2.9 7.1 7.1 7.1s6-1.7 6.6-3.7h7.2c-1.2 5.6-5.4 9.8-13.8 9.8-8.6.1-14.1-5.4-14.1-14.5Zm7.1-4.1h14c-.5-4.4-2.9-6.2-7-6.2-4-.1-6.4 1.9-7 6.2Zm25.3 4.1v-1.9c0-9 5.6-14.6 14.1-14.6 7.6 0 11.7 4.1 12.9 10.1h-7.4c-.6-2.2-2.7-3.7-5.8-3.7-3.5 0-6.5 2.3-6.5 8.1v1.9c0 5.6 3.1 8.1 6.5 8.1s5.2-1.7 5.8-4h7.4c-1.2 6.3-5.3 10.4-12.9 10.4-8.7.2-14.1-5.3-14.1-14.4Zm27.9-15.9H620v6.1h-9.1v23.9h-7v-23.9h-9.1v-6.1Zm27 15.9v-1.9c0-9.1 5.5-14.6 14.1-14.6s14.1 5.6 14.1 15.5v2.3h-21.2c.4 5 2.9 7.1 7.1 7.1s6-1.7 6.6-3.7h7.2c-1.2 5.6-5.4 9.8-13.8 9.8-8.6.1-14.1-5.4-14.1-14.5Zm7.1-4.1h14c-.5-4.4-2.9-6.2-7-6.2-4-.1-6.4 1.9-7 6.2Zm32.4 14.6h-7.4l7.1-11.9-7.1-12.1h7.6l7.1 11.9-7.3 12.1Zm12.3 0h-7.4l7.1-11.9-7.1-12.1h7.6l7.1 11.9-7.3 12.1ZM45.2 225.4l13.6-13c5.3-5.1 7.1-7.5 7.1-10.3 0-3.7-2.5-6.1-6.5-6.1s-6.5 2.5-6.5 6.7h-7.6c0-8.2 5.3-13.4 14.1-13.4s14.1 5.3 14.1 12.8c0 4.7-2.9 8.9-9.4 14.8l-9.4 8.6h18.8v6.4H45.2v-6.5Zm34.2-13.1v-3.1c0-14.2 5.8-20 15-20s15 5.6 15 20v3.1c0 14.2-5.8 20-15 20s-15-5.6-15-20Zm22.4 0v-3.1c0-10.4-2.9-13.3-7.4-13.3s-7.4 2.8-7.4 13.3v3.1c0 10.4 2.9 13.3 7.4 13.3s7.4-2.8 7.4-13.3Zm13 13.1 13.6-13c5.3-5.1 7.1-7.5 7.1-10.3 0-3.7-2.5-6.1-6.5-6.1s-6.5 2.5-6.5 6.7h-7.6c0-8.2 5.3-13.4 14.1-13.4s14.1 5.3 14.1 12.8c0 4.7-2.9 8.9-9.4 14.8l-9.4 8.6H143v6.4h-28.2v-6.5Zm31.8-8.8 17.5-26.8h9.5v26.8h4.8v6.4h-4.8v8.8h-7.2V223h-19.8v-6.4Zm19.8 0v-18.8l-12.1 18.8h12.1Z"/>
  <path fill="#7a7dd7" d="M522.9 307.4h-.2c-1-.1-1.6-1-1.5-2l.7-5.1-5.5-3.1.8-6.2-5.5-3.1 1-7.4c.1-1 1-1.6 2-1.5s1.6 1 1.5 2l-.7 5.1 5.5 3.1-.8 6.2 5.5 3.1-.9 7.4c-.3.8-1.1 1.5-1.9 1.5Z"/>
  <path fill="#3a42f6" d="M805.2 302c-4.7 0-21.2-.7-38.7-9.4-27.3-13.7-43-40-43-72.3s15.7-58.6 43-72.3c17.5-8.8 34.1-9.4 38.7-9.4s21.2.7 38.7 9.4c27.3 13.7 43 40 43 72.3s-15.7 58.6-43 72.3c-17.5 8.7-34 9.4-38.7 9.4Zm-.6-79.2Zm-.3-2c.3.1.6.1.9.2.3-.1.6-.1.9-.2v-1c-.3-.1-.6-.1-.9-.2-.3.1-.6.1-.9.2v1Zm181.6 158.7h-82.6c-22.3 0-40.4-18.1-40.4-40.4 0-4.7.7-21.2 9.4-38.7 13.7-27.3 40-43 72.3-43s58.6 15.7 72.3 43c8.8 17.5 9.4 34.1 9.4 38.7.1 22.3-18.1 40.4-40.4 40.4Zm-40.4-39.4Zm-1.8 0Z"/>
  <path fill="#e2e1f6" d="M1001.4 333c-22.3 0-40.4-18.1-40.4-40.4v-.9h-42.2c-16.1 0-30.7-9.6-37.1-24.4s-3.4-32 7.7-43.8l82.6-87.8c15.3-16.3 40.9-17 57.2-1.7 14.8 14 16.8 36.5 5.4 52.7 4.6 6.6 7.3 14.6 7.3 23.2v82.6c-.1 22.4-18.2 40.5-40.5 40.5Z"/>
  <path fill="#e27731" d="M924 214.2h-41.3c-22.3 0-40.4-18.1-40.4-40.4v-41.3c0-22.3 18.1-40.4 40.4-40.4H924c22.3 0 40.4 18.1 40.4 40.4v41.3c0 22.3-18.1 40.4-40.4 40.4Z"/>
  <path fill="#e2e1f6" d="M820.7 379.5c-22.3 0-40.4-18.1-40.4-40.4v-.9h-1.4c-.2.6-.3 1.3-.3 1.8-.5 21.9-18.4 39.5-40.4 39.5s-40.4-18.1-40.4-40.4c0-4.7.7-21.2 9.4-38.7 13.7-27.3 40-43 72.3-43h.5c.2-.6.3-1.3.3-1.8.5-21.9 18.4-39.5 40.4-39.5s40.4 18.1 40.4 40.4V339c0 22.4-18.1 40.5-40.4 40.5Zm-42.2-39.4Zm0-1Zm0-.1s0 .1 0 0c0 .1 0 0 0 0Zm1.7-82.7q0 .1 0 0 0 .1 0 0Zm0 0Z"/>
  <circle cx="858.4" cy="330.6" r="19.7" fill="#e2e1f6"/>
  <path fill="#3a42f6" d="M1027 163.5c0-.2-.1-20.8-10.3-41.1-6-11.9-14.1-21.4-24.3-28.2-12.7-8.5-28.7-12.8-47.4-12.8v-1.1c19 0 35.1 4.4 48.1 13 10.4 6.9 18.7 16.5 24.7 28.6 10.3 20.5 10.4 41.4 10.4 41.6h-1.2Z"/>
  <path fill="#3a42f6" d="M1028.2 204h-1.1c-22.2 0-40.2-17.8-40.4-39.9 0-.9-.6-12.7-6-23.5-2.8-5.6-6.3-9.7-10.6-12.6-6-4-14.4-6-25-6-22.3 0-40.4-18.1-40.4-40.4v-1.1c0-22.3 18.1-40.4 40.4-40.4 27.1 0 50.8 6.7 70.5 19.8 16.3 10.9 29.2 25.7 38.5 44.2 14.2 28.5 14.7 56.5 14.7 59.6-.2 22.2-18.3 40.3-40.6 40.3Zm-41.6-40.5v.5-.5Zm80.9 0Z"/>
  <circle cx="944.7" cy="120.6" r="19.7" fill="#e27731"/>
  <path fill="#e2e1f6" d="M1151.1 379.5h-82.6c-22.3 0-40.4-18.1-40.4-40.4s18.1-40.4 40.4-40.4h42.2v-.9c0-22.3 18.1-40.4 40.4-40.4s40.4 18.1 40.4 40.4V339c.1 22.4-18 40.5-40.4 40.5Z"/>
  <path fill="#e2721b" d="M1082.4 320.7c-5.2 0-10.5-1-15.5-3.1-15.1-6.3-25-21-25-37.4V163.5c0-16.4 9.9-31.1 25-37.4 15.1-6.3 32.5-2.8 44.1 8.8l58.4 58.4c15.8 15.8 15.8 41.4 0 57.2l-58.4 58.4c-7.8 7.7-18.1 11.8-28.6 11.8Z"/>
  <circle cx="856.9" cy="239.4" r="19.7" fill="#3a42f6"/>
  <circle cx="1154.3" cy="277.1" r="19.7" fill="#e2e1f6"/>
  <circle cx="1060" cy="319.6" r="19.7" fill="#e2e1f6"/>
  <circle cx="1005.2" cy="327.3" r="19.7" fill="#3a42f6"/>
  <circle cx="1042.7" cy="222.7" r="19.7" fill="#e2e1f6" transform="rotate(-76.72 1042.664 222.719)"/>
  <circle cx="1042.7" cy="262.6" r="19.7" fill="#e2721b" transform="rotate(-80.01 1042.677 262.609)"/>
  <circle cx="1044.2" cy="136.1" r="19.7" fill="#3a42f6"/>
  <circle cx="781.2" cy="237.3" r="19.7" fill="#3a42f6"/>
  <circle cx="962.2" cy="311.7" r="19.7" fill="#3a42f6"/>
  <circle cx="895.6" cy="143.5" r="2.7" fill="#3a42f6"/>
  <circle cx="913" cy="143.5" r="2.7" fill="#3a42f6"/>
  <path fill="#3a42f6" d="M904.7 166.1h-.4c-7-.2-11.8-5.5-12-5.7-.5-.5-.6-1.2-.3-1.8s.9-1 1.6-1h21.9c.7 0 1.3.4 1.6 1.1.3.6.1 1.4-.4 1.9-3.8 3.6-7.8 5.5-12 5.5Zm-6.1-5.2c1.6.9 3.6 1.6 5.8 1.7 2.1.1 4.1-.5 6.1-1.7h-11.9Z"/>
  <circle cx="810.9" cy="262.6" r="2.7" fill="#3a42f6"/>
  <circle cx="828.3" cy="262.6" r="2.7" fill="#3a42f6"/>
  <path fill="#3a42f6" d="M819.9 288.3q-.1 0 0 0c-1.9 0-3.2-1.2-4.3-2.2-.5-.5-1.1-1-1.5-1.1-.6-.2-1.5-.1-2.4-.1-1.4.1-2.9.2-4.1-.6-2.2-1.4-2.4-2.9-2.6-4-.1-.7-.2-1.1-.7-1.6-.6-.7-.6-1.8.1-2.4.7-.6 1.8-.6 2.4.1 1.2 1.3 1.4 2.5 1.5 3.4.1.8.2 1.1 1.1 1.7.3.2 1.3.1 2 0 1.2-.1 2.5-.2 3.7.2 1 .4 1.9 1.1 2.7 1.8.7.6 1.5 1.3 2 1.3.4 0 1.2-.7 1.7-1.1.9-.7 1.8-1.5 3-1.9 1-.3 2.1-.2 3.2-.1 1 .1 2 .2 2.5-.2.3-.2.6-1.1.8-1.8.4-1.1.9-2.5 1.9-3.4.7-.7 1.8-.7 2.4 0 .7.7.7 1.8 0 2.4-.4.4-.8 1.3-1 2.2-.4 1.3-.9 2.7-2.2 3.5-1.5 1-3.3.9-4.7.7-.7-.1-1.4-.1-1.8 0-.6.2-1.2.7-1.9 1.3-1 .8-2.2 1.9-3.8 1.9Z"/>
  <circle cx="889.4" cy="335.5" r="2.7" fill="#e2e1f6"/>
  <circle cx="906.8" cy="335.5" r="2.7" fill="#e2e1f6"/>
  <path fill="#e2e1f6" d="M898.4 355.9h-.3c-4.4-.1-7.4-3.4-7.5-3.6-.6-.7-.6-1.8.1-2.4.7-.6 1.8-.6 2.4.1 0 0 2.2 2.4 5.1 2.4 1.8 0 3.5-.8 5.2-2.5.7-.7 1.8-.7 2.4 0 .7.7.7 1.8 0 2.4-2.2 2.5-4.7 3.6-7.4 3.6Z"/>
  <circle cx="717" cy="226.8" r="19.7" fill="#e2721b"/>
  <circle cx="1142.5" cy="335.2" r="2.7" fill="#e27731"/>
  <circle cx="1159.9" cy="335.2" r="2.7" fill="#e27731"/>
  <path fill="#e27731" d="M1151.6 359.7h-.5c-9.4-.3-15.9-7.4-16.1-7.7-.6-.7-.6-1.8.1-2.4s1.8-.6 2.4.1c.1.1 5.8 6.3 13.7 6.6 4.9.1 9.7-2.1 14.2-6.6.7-.7 1.8-.7 2.4 0 .7.7.7 1.8 0 2.4-5.1 5.1-10.5 7.6-16.2 7.6Zm-9-16.1c-4.7 0-8.4-3.8-8.4-8.4s3.8-8.4 8.4-8.4 8.4 3.8 8.4 8.4-3.8 8.4-8.4 8.4Zm0-13.4c-2.8 0-5 2.2-5 5s2.2 5 5 5 5-2.2 5-5-2.2-5-5-5Zm17.5 13.4c-4.7 0-8.4-3.8-8.4-8.4s3.8-8.4 8.4-8.4 8.4 3.8 8.4 8.4-3.8 8.4-8.4 8.4Zm0-13.5c-2.8 0-5 2.2-5 5s2.2 5 5 5 5-2.2 5-5-2.3-5-5-5Z"/>
  <circle cx="933.1" cy="73.8" r="2.7" fill="#e2e1f6"/>
  <circle cx="950.6" cy="73.8" r="2.7" fill="#e2e1f6"/>
  <path fill="#e2e1f6" d="M942.1 93.8h-.2c-3.9-.1-6.6-3.1-6.7-3.2-.6-.7-.6-1.8.1-2.4.7-.6 1.8-.6 2.4.1 0 0 1.9 2 4.3 2.1 1.5 0 3-.7 4.4-2.1.7-.7 1.8-.7 2.4 0 .7.7.7 1.8 0 2.4-2 2.1-4.3 3.1-6.7 3.1Zm.1-18.3c-1 0-1.7-.8-1.7-1.7 0-3.8-3.1-6.9-6.9-6.9s-6.9 3.1-6.9 6.9c0 1-.8 1.7-1.7 1.7s-1.7-.8-1.7-1.7c0-5.7 4.7-10.4 10.4-10.4s10.4 4.7 10.4 10.4c-.2.9-1 1.7-1.9 1.7Z"/>
  <path fill="#e2e1f6" d="M959.5 75.5c-1 0-1.7-.8-1.7-1.7 0-3.8-3.1-6.9-6.9-6.9S944 70 944 73.8c0 1-.8 1.7-1.7 1.7-1 0-1.7-.8-1.7-1.7 0-5.7 4.7-10.4 10.4-10.4s10.4 4.7 10.4 10.4c-.2.9-1 1.7-1.9 1.7Z"/>
  <circle cx="1074.5" cy="162.8" r="2.7" fill="#233dce"/>
  <circle cx="1091.9" cy="162.8" r="2.7" fill="#233dce"/>
  <path fill="#233dce" d="M1083.6 187.4h-.5c-9.4-.3-15.9-7.4-16.1-7.7-.6-.7-.6-1.8.1-2.4.7-.6 1.8-.6 2.4.1.1.1 5.8 6.3 13.7 6.6 4.9.1 9.7-2.1 14.2-6.6.7-.7 1.8-.7 2.4 0 .7.7.7 1.8 0 2.4-5 5-10.5 7.6-16.2 7.6Zm-.4-11.8c-1 0-1.7-.8-1.7-1.7v-11.8c0-1 .8-1.7 1.7-1.7 1 0 1.7.8 1.7 1.7v11.8c0 1-.7 1.7-1.7 1.7Z"/>
  <circle cx="977.2" cy="217.5" r="2.7" fill="#3a42f6"/>
  <circle cx="994.6" cy="217.5" r="2.7" fill="#3a42f6"/>
  <path fill="#3a42f6" d="M986.3 239.5h-.4c-6.3-.2-10.7-5-10.8-5.2-.6-.7-.6-1.8.1-2.4.7-.6 1.8-.6 2.4.1.1.1 3.6 3.9 8.4 4 3 .1 5.9-1.3 8.7-4.1.7-.7 1.8-.7 2.4 0 .7.7.7 1.8 0 2.4-3.3 3.5-7 5.2-10.8 5.2Z"/>
  <circle cx="794.5" cy="167.2" r="2.7" fill="#e27731"/>
  <circle cx="811.9" cy="167.2" r="2.7" fill="#e27731"/>
  <path fill="#e27731" d="M803.6 192.7h-.6c-10.6-.3-17.9-8.3-18.2-8.7-.6-.7-.6-1.8.1-2.4.7-.6 1.8-.6 2.4.1.1.1 6.7 7.3 15.7 7.5 5.6.1 11.1-2.4 16.3-7.6.7-.7 1.8-.7 2.4 0 .7.7.7 1.8 0 2.4-5.5 5.8-11.6 8.7-18.1 8.7Z"/>
  <path fill="#3a42f6" d="m687 209.4-7.3-1c-.9-.1-1.6-1-1.5-1.9s1-1.6 1.9-1.5l5 .7 3.1-5.4 6.1.8 3.1-5.4 7.3 1c.9.1 1.6 1 1.5 1.9s-1 1.6-1.9 1.5l-5-.7-3.1 5.4-6.1-.8-3.1 5.4Z"/>
  <path fill="#e27731" d="m997.7 33.7-7.3-1c-.9-.1-1.6-1-1.5-1.9s1-1.6 1.9-1.5l5 .7 3.1-5.4 6.1.8 3.1-5.4 7.3 1c.9.1 1.6 1 1.5 1.9s-1 1.6-1.9 1.5l-5-.7-3.1 5.4-6.1-.8-3.1 5.4Z"/>
  <path fill="#e2721b" d="M928.1 253.8h-.2c-.9-.1-1.6-1-1.5-1.9l.6-5-5.4-3.1.8-6.2-5.4-3.1.9-7.3c.1-.9 1-1.6 1.9-1.5s1.6 1 1.5 1.9l-.6 5 5.4 3.1-.8 6.2 5.4 3.1-.9 7.3c-.1.8-.8 1.5-1.7 1.5Z"/>
  <path fill="#e2e1f6" d="m633.6 337-6.7-3.1c-.9-.4-1.2-1.4-.8-2.3s1.4-1.2 2.3-.8l4.6 2.2 4.6-4.2 5.6 2.7 4.6-4.2 6.6 3.1c.9.4 1.2 1.4.8 2.3s-1.4 1.2-2.3.8l-4.6-2.2-4.6 4.2-5.6-2.7-4.5 4.2Z"/>
  <path fill="#3a42f6" d="M1202.6 169.5c-.8 0-1.5-.6-1.7-1.4-.2-.9.4-1.8 1.3-2l5-1 1.2-6.1 6.1-1.3 1.2-6.1 7.2-1.5c.9-.2 1.8.4 2 1.3.2.9-.4 1.8-1.3 2l-5 1-1.2 6.1-6.1 1.3-1.2 6.1-7.2 1.5c0 .1-.1.1-.3.1Z"/>
  <path fill="#e27731" d="M776.8 127.2h-.2c-.9-.1-1.6-1-1.5-1.9l.6-5-5.4-3.1.8-6.2-5.4-3.1.9-7.3c.1-.9 1-1.6 1.9-1.5s1.6 1 1.5 1.9l-.6 5 5.4 3.1-.8 6.2 5.4 3.1-.9 7.3c-.1.8-.8 1.5-1.7 1.5Zm-10.6 139.2h-.2c-.9-.1-1.6-1-1.5-1.9l.6-5-5.4-3.1.8-6.2-5.4-3.1.9-7.3c.1-.9 1-1.6 1.9-1.5s1.6 1 1.5 1.9l-.6 5 5.4 3.1-.8 6.2 5.4 3.1-.9 7.3c-.1.9-.9 1.5-1.7 1.5Z"/>
  <path fill="#e2e1f6" d="M981.7 83.2c-.7 0-1.3-.4-1.6-1.1-.4-.9.1-1.9 1-2.2l4.7-1.9.1-6.2 5.8-2.3.1-6.2 6.8-2.7c.9-.4 1.9.1 2.2 1 .4.9-.1 1.9-1 2.2l-4.7 1.9-.1 6.2-5.8 2.3-.1 6.2-6.8 2.7c-.1 0-.4.1-.6.1Zm174.5-3.8c-.3 0-.6-.1-.9-.2-.8-.5-1.1-1.5-.6-2.4l2.6-4.3-3.7-5 3.2-5.3-3.7-5 3.8-6.3c.5-.8 1.5-1.1 2.4-.6.8.5 1.1 1.5.6 2.4l-2.6 4.3 3.7 5-3.2 5.3 3.7 5-3.8 6.3c-.3.5-.9.8-1.5.8Z"/>
  <path fill="#7a7dd7" d="m806.4 40.8-6.3-3.8c-.8-.5-1.1-1.5-.6-2.4.5-.8 1.5-1.1 2.4-.6l4.3 2.6 5-3.7 5.3 3.2 5-3.7 6.3 3.8c.8.5 1.1 1.5.6 2.4-.5.8-1.5 1.1-2.4.6l-4.3-2.6-5 3.7-5.3-3.2-5 3.7ZM1200.9 66l-6.3-3.8c-.8-.5-1.1-1.5-.6-2.4.5-.8 1.5-1.1 2.4-.6l4.3 2.6 5-3.7 5.3 3.2 5-3.7 6.3 3.8c.8.5 1.1 1.5.6 2.4-.5.9-1.5 1.1-2.4.6l-4.3-2.6-5 3.7-5.3-3.2-5 3.7Z"/>
  <path fill="#e2e1f6" d="M1158 212.6c-.5 0-1-.2-1.3-.6l-3.3-3.8-5.9 2-4.1-4.7-5.9 2-4.8-5.5c-.6-.7-.5-1.8.2-2.4.7-.6 1.8-.5 2.4.2l3.3 3.8 5.9-2 4.1 4.7 5.9-2 4.8 5.5c.6.7.5 1.8-.2 2.4-.3.3-.7.4-1.1.4Z"/>
  <path fill="#3a42f6" d="M631.6 250.8h-.2c-.9-.1-1.6-1-1.5-1.9l.6-5-5.4-3.1.8-6.2-5.4-3.1.9-7.3c.1-.9 1-1.6 1.9-1.5s1.6 1 1.5 1.9l-.6 5 5.4 3.1-.8 6.2 5.4 3.1-.9 7.3c-.1.8-.9 1.5-1.7 1.5Zm446.6-217.3c-.6 0-1.2-.3-1.5-.9l-2.5-4.4-6.2.8-3.1-5.4-6.2.8-3.6-6.4c-.5-.8-.2-1.9.6-2.3.8-.5 1.9-.2 2.3.6l2.5 4.4 6.2-.8 3.1 5.4 6.2-.8 3.6 6.4c.5.8.2 1.9-.6 2.3-.2.2-.5.3-.8.3Z"/>
  <circle cx="1137.7" cy="116.7" r="19.7" fill="#e27731"/>
  <circle cx="1038.3" cy="76.4" r="13.3" fill="#e2e1f6"/>
  <circle cx="1219" cy="312.1" r="7.7" fill="#3a42f6"/>
  <circle cx="1229.2" cy="194" r="7.7" fill="#7a7dd7"/>
  <circle cx="864.9" cy="44" r="7.7" fill="#3a42f6"/>
  <circle cx="776.1" cy="61.3" r="7.7" fill="#e2e1f6"/>
  <circle cx="817.5" cy="107.5" r="7.7" fill="#e27731"/>
</svg>