<svg xmlns="http://www.w3.org/2000/svg" viewBox="0 0 1236.96 393.88"><defs><clipPath id="a"><path style="fill:none" d="M0 0h1236.96v394H0z"/></clipPath><style>.f,.g,.k,.n,.v,.x,.z{fill:none}.b{clip-path:url(#a)}.c{fill:#6c184d}.e{fill:#ffb609}.f{stroke:#bf9d66}.f,.g,.k,.n,.x,.z{stroke-width:.86px}.g{stroke:#25211e}.h{fill:#dc6b00}.i{fill:#421836}.k,.v{stroke:#91250c}.l{fill:#b54f14}.m{fill:#88004d}.n{stroke:#ffb609}.p{fill:#dc7b00}.s{fill:#f9eac1}.v{stroke-width:1.71px}.w{fill:#251853}.x{stroke:#4f2b08}.z{stroke:#f9eac1}</style></defs><g class="b"><path class="c" d="M-8.16-5.17v424.93h1285.22V-5.17H-8.16z"/><path style="stroke:#251853;fill:none" d="M-8.16-5.17v424.93h1285.22V-5.17H-8.16z"/><path class="e" d="m635.17-11.9 3.24 421.32h660l-3.24-421.32h-660z"/><path class="f" d="m635.17-11.9 3.24 421.32h660l-3.24-421.32h-660z"/><path d="m998.44 164.67 16.89-166.01 6.57-43.46 198.65 47.81.83 137.62-222.94 24.04z"/><path class="g" d="m998.44 164.67 16.89-166.01 6.57-43.46 198.65 47.81.83 137.62-222.94 24.04z"/><path d="m665.1 308.56 58.85-348.2h96.48l-10.49 171.65-86.4 49.54-5.66 83.87-52.78 43.14z"/><path class="f" d="m665.1 308.56 58.85-348.2h96.48l-10.49 171.65-86.4 49.54-5.66 83.87-52.78 43.14z"/></g><path class="h" d="m766.42 227.17 25.88-14.39 43.7 1.65 63.78 39.98L886 303.39l-63.2 3.01-66.03-40.98 9.65-38.25z"/><path class="f" d="m766.42 227.17 25.88-14.39 43.7 1.65 63.78 39.98L886 303.39l-63.2 3.01-66.03-40.98 9.65-38.25z"/><g class="b"><path class="i" d="M846.69-14.15s-10.76 59.63-14.64 84.88-.42 53.91-.42 57.54-37-5.6-37-5.6a334.3 334.3 0 0 1-.11-44.2c1.56-24.25 2.21-98.07 2.21-98.07l49.92 5.45Z"/><path class="g" d="M846.69-14.15s-10.76 59.63-14.64 84.88-.42 53.91-.42 57.54-37-5.6-37-5.6a334.3 334.3 0 0 1-.11-44.2c1.56-24.25 2.21-98.07 2.21-98.07l49.92 5.45Z"/><path class="i" d="M638 298.36s-11.13-62.89-9.51-118.72 6.07-87.39 6.78-116.52-5.67-73-5.67-73h96s3.35 48.74-13.65 116.7-39 152-36.51 192l-37.44-.46Z"/><path class="g" d="M638 298.36s-11.13-62.89-9.51-118.72 6.07-87.39 6.78-116.52-5.67-73-5.67-73h96s3.35 48.74-13.65 116.7-39 152-36.51 192l-37.44-.46Z"/><path class="i" d="M819.42-9.5s.23 58.87-11.16 80.23S790.3 101 781.07 101s-26.66 2.48-40-38.15-20.52-81.25-20.52-81.25l98.87 8.9Z"/><path class="g" d="M819.42-9.5s.23 58.87-11.16 80.23S790.3 101 781.07 101s-26.66 2.48-40-38.15-20.52-81.25-20.52-81.25l98.87 8.9Zm-101.94 37S707 57.85 694.92 105.2s-15.16 57.67-23.31 100.8S658 265.17 658 290.17m42.55-239.58s-5.73 26.41-10.48 50.83-12.9 42-15.68 68.71m-9.71 10.32s-3.24 15.17-11 45.51-17.5 64.33-17.5 64.33M661 232.9s-8.5 47.09-15.17 58M758.74 25.7s9.1 30.45 20.63 45.88l18.21-42.83m-43.69-1.23s-5.84 26.2 6.67 44.06"/><path style="fill:#9a5350" d="m869.69 415.9-261.45-10.91.85-117.29 81.68 1.98 171.14 67.96 7.78 58.26z"/><path class="k" d="m869.69 415.9-261.45-10.91.85-117.29 81.68 1.98 171.14 67.96 7.78 58.26z"/></g><path class="l" d="M822.8 283.3a15.81 15.81 0 0 0 11.38-2.79c5.15-3.92 5.15-5.21 5.15-5.21s20.92 5.31 30.86 12.21l-7.31 5-20.39 3.25-11.9.42-7.79-12.88Z"/><path class="g" d="M822.8 283.3a15.81 15.81 0 0 0 11.38-2.79c5.15-3.92 5.15-5.21 5.15-5.21s20.92 5.31 30.86 12.21l-7.31 5-20.39 3.25-11.9.42-7.79-12.88Z"/><path class="e" d="M711.16 246s-17.47-44.18 4.37-82.54 62.93-53.46 102.11-43.7 64.82 30.52 76.54 66l-16.8 18-71.55-39.81-51 28.16-21.85 54-21.82-.11Z"/><path class="g" d="M711.16 246s-17.47-44.18 4.37-82.54 62.93-53.46 102.11-43.7 64.82 30.52 76.54 66l-16.8 18-71.55-39.81-51 28.16-21.85 54-21.82-.11Z"/><path class="k" d="M673.78 314.56h-40.66"/><g class="b"><path class="m" d="m1039.11 78.5-30.55-98.1 180.84 1.2-10.11 81.12-140.18 15.78z"/><path class="k" d="m1039.11 78.5-30.55-98.1 180.84 1.2-10.11 81.12-140.18 15.78z"/><path class="m" d="m928.05 167.07-37.62-69.76 5.25-107.82 121.27-3.04-12.43 168.66-76.47 11.96z"/><path class="k" d="m928.05 167.07-37.62-69.76 5.25-107.82 121.27-3.04-12.43 168.66-76.47 11.96z"/></g><path class="n" d="M673.78 313.7h-40.66"/><path class="e" d="M1068.74 180.45s-31.82-17-39.59-51 9.94-83 56.32-97.1 106.32 4.86 116 65.06l-46.61 83.39-46.6 14.68-39.55-15.05Z"/><path d="M1068.74 180.45s-31.82-17-39.59-51 9.94-83 56.32-97.1 106.32 4.86 116 65.06l-46.61 83.39-46.6 14.68-39.55-15.05Z" style="stroke:#815310;stroke-width:.86px;fill:none"/><path class="p" d="M1192.64 160.42s-18.21-12.74-29.13-20.94-29.13-34-29.13-34l-45.51-3.93-28.22 29.45 8.56 17.93s-2.19 3.88-1.46 7.52a34.82 34.82 0 0 0 2.18 6.8v8.5l12.61 41.51-9.23 34.22 8.25 8.74 49.52 16.26 61.54-112Z"/><path class="k" d="M1192.64 160.42s-18.21-12.74-29.13-20.94-29.13-34-29.13-34l-45.51-3.93-28.22 29.45 8.56 17.93s-2.19 3.88-1.46 7.52a34.82 34.82 0 0 0 2.18 6.8v8.5l12.61 41.51-9.23 34.22 8.25 8.74 49.52 16.26 61.54-112Z"/><g class="b"><path d="M732 233.36s-50 10.2-59 67.48S708.25 403.77 760.2 405c44.68 1.06 59-19.67 73.31-35.21l-56.06-32.52-51-27.68L758.74 262 732 233.36Z" style="fill:#ffd35f"/><path class="k" d="M732 233.36s-50 10.2-59 67.48S708.25 403.77 760.2 405c44.68 1.06 59-19.67 73.31-35.21l-56.06-32.52-51-27.68L758.74 262 732 233.36Z"/></g><path d="M750 271.49s-19.42-19.19-18.44-51.72 7.44-52.92 39.8-67 70.4 9.71 82.54 21.36a200.33 200.33 0 0 1 19.44 21.37l7.28-1.95s18.91-20.36 43.67-28.87 52-15.76 88.84-14.56 58.74-2.39 58.74-2.39l2.94 41.22-30.59 101.22-158.22.12-3.54-31.68-46.75-28.16-1.53-6.3s-20.11-5-31.75-5-33 8.18-36.89 27.45 3.46 23.66 3.46 23.66l-19 1.23Z" style="fill:#4d1836"/><path class="g" d="M750 271.49s-19.42-19.19-18.44-51.72 7.44-52.92 39.8-67 70.4 9.71 82.54 21.36a200.33 200.33 0 0 1 19.44 21.37l7.28-1.95s18.91-20.36 43.67-28.87 52-15.76 88.84-14.56 58.74-2.39 58.74-2.39l2.94 41.22-30.59 101.22-158.22.12-3.54-31.68-46.75-28.16-1.53-6.3s-20.11-5-31.75-5-33 8.18-36.89 27.45 3.46 23.66 3.46 23.66l-19 1.23Z"/><g class="b"><path d="M1033.64 282.87a131.59 131.59 0 0 0 8.5-36.28c2-21.24 7.34-44 15.35-56.27s15.3-26.26 15.3-26.26l41.79 23s5-4.77 9.48-6.59 6.18-2.43 6.18-2.43 11.12 15.78 14.46 26.09l20.3-1.53s1.21-12.45 10.92-27.31 17.25-19.73 17.25-19.73l24 5.16 28.09 134.93-211.67-12.78Z"/><path class="g" d="M1033.64 282.87a131.59 131.59 0 0 0 8.5-36.28c2-21.24 7.34-44 15.35-56.27s15.3-26.26 15.3-26.26l41.79 23s5-4.77 9.48-6.59 6.18-2.43 6.18-2.43 11.12 15.78 14.46 26.09l20.3-1.53s1.21-12.45 10.92-27.31 17.25-19.73 17.25-19.73l24 5.16 28.09 134.93-211.67-12.78Z"/></g><path class="h" d="M742.72 269.05a112 112 0 0 1 18.64-1.46c8.5.26 17 2.67 22.63 7.28 0 0 7.76-.85 18.44 3.79 0 0 21.61.38 35 15.14l.32 21.37-39.4 10.43-5.83 3-24-1.51-24.76-25.49-12.6-26.44 11.63-6.08Z"/><path class="k" d="M742.72 269.05a112 112 0 0 1 18.64-1.46c8.5.26 17 2.67 22.63 7.28 0 0 7.76-.85 18.44 3.79 0 0 21.61.38 35 15.14l.32 21.37-39.4 10.43-5.83 3-24-1.51-24.76-25.49-12.6-26.44 11.63-6.08Z"/><g class="b"><path class="s" d="m853.41 403.77-26.7-27.51-17-7.68s-28.42 10.1-58.26 4.86-53.5-30.33-50.17-63.12 25.89-46.51 51-43.69c0 0-5.18 0-12.95 10.91 0 0 4.9 27.19 16.29 35.44s16.73 8.25 22.06 10.68 13.34 5.83 17.48-.48 5.87-5.34 11.43-3.89 11.39 1.94 18.67-2.91 15.54-8.71 10.68-23.05c0 0 27.67-7.05 66.51-9.48s66.55-2.68 77.67-3.85 51.46-1.46 92.24 2.43 44.66 1.94 57.29 2.91 68.94-1.23 106.8 1 66.51 2.66 86.9 4.85 64.09.49 64.09.49L1383.07 398l-27.68 5.34-502 .49Z"/><path d="m853.41 403.77-26.7-27.51-17-7.68s-28.42 10.1-58.26 4.86-53.5-30.33-50.17-63.12 25.89-46.51 51-43.69c0 0-5.18 0-12.95 10.91 0 0 4.9 27.19 16.29 35.44s16.73 8.25 22.06 10.68 13.34 5.83 17.48-.48 5.87-5.34 11.43-3.89 11.39 1.94 18.67-2.91 15.54-8.71 10.68-23.05c0 0 27.67-7.05 66.51-9.48s66.55-2.68 77.67-3.85 51.46-1.46 92.24 2.43 44.66 1.94 57.29 2.91 68.94-1.23 106.8 1 66.51 2.66 86.9 4.85 64.09.49 64.09.49L1383.07 398l-27.68 5.34-502 .49Z" style="stroke:#7c5c36;stroke-width:.86px;fill:none"/><path class="f" d="M980.24 279.36s-5.46 9.13-9.1 26.11-15.78 69.77-18.21 98.9m96.39 3.05s-15.07-38-24.17-63.13-22-65.15-22-65.15-3.44-1-9 14.79-14 29.72-18.21 71.6-6.67 51-6.67 51m92.14-135.31s-6.27 16-9 41.25-7.89 83.14-7.89 83.14m34-122.43s-5.46 5.94-7.89 19.88-6.69 35.19-8.8 53.39-3.94 50.37-3.94 50.37m51-121.37s-3.23 6.66-11 26.7-9.61 29.13-13.25 49.76-5.46 44.91-5.46 44.91m49.15-121.56s-3.74 3.25-8.59 20.23-12.24 38.22-14.57 57.64-4.15 46.12-4.15 46.12m12.14.62s-2.86-34.61-.71-56.45 2.15-32.17 2.15-32.17m15.55-36a431 431 0 0 0-1.54 68.76c2.15 38.86 4 55.85 4 55.85m11.43-1.23s6.17-69 15.88-89.44m-228.18-8.86s6.68 64.92 16.39 90.41m-33.43-76.47s10.32 56.42 16.39 81.92m-35.2-121.27s-2.43 10.48-.61 50.1 3 57.81 9.71 73.6m-24.88-123.38s-1.72 29.93 0 64.52 5.46 58.86 5.46 58.86m-39.44-118.33S852 311.18 857.56 335 877 402 877 402m-40.58-99s5.86 29.83 11.43 52.54 12.84 54.27 12.84 54.27m-41.26-90.67s1.82 37.86 7.89 57.28M815.18 371s-9.91-13.73-11-51.85M834 338.83a71.52 71.52 0 0 1-2.43 20.63 53.45 53.45 0 0 0-1.21 21.26m-92.57-98.57s-1.13 24.1 3.73 44.91 12.88 41.44 22.59 47.59m-13.32-66a205.8 205.8 0 0 0 6.75 33.26c4.85 15.79 11.93 28.65 17.5 33.14m-45.8-40s6.43 26.27 27.33 38.65m402.7 33.74s14.57-84.88 28.83-106.8m-16.69 106.8s17.29-33.18 37-62.56 33.88-51.52 43.59-57.59m-54.2 120.13s13-27 35.5-64.33 42.48-54.93 42.48-54.93m-52.8 112 10.92-57.95m-240.41-46.45s22.25 80.7 37.42 103.15"/></g><path class="h" d="M941.3 280.45s-3.64 2.92-14.56 8.26S908 295.64 903.17 303s-6.07 9.53-6.07 9.53l-1.45 16.27s3.64 1.94 4.85-3.4 1.82-10.18 1.82-10.18l7.77-9.48s-4.7 7.24-4.7 12.86a90 90 0 0 1-1 13.84s3.39.93 4.85-3.64 1.09-9 3.28-13.35a21.21 21.21 0 0 1 5.86-7s-4 5.34-4.77 10.92.24 9.95-.73 14.32c0 0 3.72 1.17 4.61-4.12s.85-9.23 3.64-12.63c2-2.47 3.65-4.37 3.65-4.37a28.12 28.12 0 0 0-4.37 11.7c-.73 6.51-1 8.45-1 8.45s2.3.49 3.45-3.4 2.37-8.86 5.77-12 12.86-8.13 18.93-12 6.6-6.07 9.49-11.65 12.6-14.42 12.6-14.42l-28.38 1.31Z"/><path class="k" d="M941.3 280.45s-3.64 2.92-14.56 8.26S908 295.64 903.17 303s-6.07 9.53-6.07 9.53l-1.45 16.27s3.64 1.94 4.85-3.4 1.82-10.18 1.82-10.18l7.77-9.48s-4.7 7.24-4.7 12.86a90 90 0 0 1-1 13.84s3.39.93 4.85-3.64 1.09-9 3.28-13.35a21.21 21.21 0 0 1 5.86-7s-4 5.34-4.77 10.92.24 9.95-.73 14.32c0 0 3.72 1.17 4.61-4.12s.85-9.23 3.64-12.63c2-2.47 3.65-4.37 3.65-4.37a28.12 28.12 0 0 0-4.37 11.7c-.73 6.51-1 8.45-1 8.45s2.3.49 3.45-3.4 2.37-8.86 5.77-12 12.86-8.13 18.93-12 6.6-6.07 9.49-11.65 12.6-14.42 12.6-14.42l-28.38 1.31Z"/><path class="l" d="M780.83 366.63a12.7 12.7 0 0 1-6.8-4.37c-2.42-3.4-4.37-5.56-7-4.6 0 0 1.42 7.36 4.86 12.14s6.56 6.33 9.71 5.55a5.29 5.29 0 0 0 3.88-3.38l-4.61-5.34Z"/><path class="g" d="M780.83 366.63a12.7 12.7 0 0 1-6.8-4.37c-2.42-3.4-4.37-5.56-7-4.6 0 0 1.42 7.36 4.86 12.14s6.56 6.33 9.71 5.55a5.29 5.29 0 0 0 3.88-3.38l-4.61-5.34Z"/><path class="l" d="M787.14 367.37a16.22 16.22 0 0 1-6.07-7.57c-2.18-5.32-5.78-4.58-5.78-4.58s-.74 6.77 2.63 11.41 5.36 7.26 9.44 7.94a9.27 9.27 0 0 0 6.58-1.13l-6.8-6.07Z"/><path class="g" d="M787.14 367.37a16.22 16.22 0 0 1-6.07-7.57c-2.18-5.32-5.78-4.58-5.78-4.58s-.74 6.77 2.63 11.41 5.36 7.26 9.44 7.94a9.27 9.27 0 0 0 6.58-1.13l-6.8-6.07Z"/><path class="l" d="M792.3 366.38s-2-2-3-6.58-2.67-6.28-5.1-6.28a31.54 31.54 0 0 0 .73 10.92c1.45 5.58 4.85 9.35 8.49 10.13s5.26-.54 5.26-.54l-3.31-6.43-3.1-1.22Z"/><path class="g" d="M792.3 366.38s-2-2-3-6.58-2.67-6.28-5.1-6.28a31.54 31.54 0 0 0 .73 10.92c1.45 5.58 4.85 9.35 8.49 10.13s5.26-.54 5.26-.54l-3.31-6.43-3.1-1.22Z"/><path class="l" d="M804.62 371.26s-5.1-3.66-6.55-8.76-2.92-9.47-5.35-9.47v6.77c0 4.88 1.22 10.24 4.62 12.9s6.39 1.33 7.28-1.44Z"/><path class="g" d="M804.62 371.26s-5.1-3.66-6.55-8.76-2.92-9.47-5.35-9.47v6.77c0 4.88 1.22 10.24 4.62 12.9s6.39 1.33 7.28-1.44Z"/><path class="p" d="M1185.72 275.84s-1.9 2.67-12.6 5.1-18.55 5.58-24 12.14-8 17.47-12.63 23.3c0 0 2.67 3 5.34.27s5.57-8.95 8.74-14.35 7.8-9.71 10.46-10.68c0 0-7.56 4.48-10.46 15.54s-2.26 12.89-4.61 16.52c0 0 3.86 3.38 7-3.42s3.93-10.59 7.3-15.29a36.13 36.13 0 0 1 8.48-8 24.17 24.17 0 0 0-8.48 10.2c-2.69 6.55-3.42 16.74-3.42 16.74s2 1.46 4.15-2.67 2.17-7.52 5.56-12.13a18.3 18.3 0 0 1 7-6.07s-6.31 5.1-8.49 12.62-1.68 8.5-1.68 8.5 2.89.74 5.56-4.12 5.1-9.48 9.71-13.36c0 0 8-.24 18.21-8.25s14.32-14.57 26.21-17.72l-17.23-10-9 2.22-11.17 2.88Z"/><path class="k" d="M1185.72 275.84s-1.9 2.67-12.6 5.1-18.55 5.58-24 12.14-8 17.47-12.63 23.3c0 0 2.67 3 5.34.27s5.57-8.95 8.74-14.35 7.8-9.71 10.46-10.68c0 0-7.56 4.48-10.46 15.54s-2.26 12.89-4.61 16.52c0 0 3.86 3.38 7-3.42s3.93-10.59 7.3-15.29a36.13 36.13 0 0 1 8.48-8 24.17 24.17 0 0 0-8.48 10.2c-2.69 6.55-3.42 16.74-3.42 16.74s2 1.46 4.15-2.67 2.17-7.52 5.56-12.13a18.3 18.3 0 0 1 7-6.07s-6.31 5.1-8.49 12.62-1.68 8.5-1.68 8.5 2.89.74 5.56-4.12 5.1-9.48 9.71-13.36c0 0 8-.24 18.21-8.25s14.32-14.57 26.21-17.72l-17.23-10-9 2.22-11.17 2.88Z"/><path class="g" d="M938.37 160.12s-14.26 50.58-20.63 72.78m6.57-41.53s4.05-18.89 11.63-31.37m3.93-.22s2.75 59.83-10.6 121.26m-6.17 1.83s9.43-49.63 13.21-115.78"/><g class="b"><path class="n" d="M864.84 212s.32-3 2.83-3 27 74.19 27 74.19m-39.58-60.54s14.61 16.35 24.67 31.53m-58.21-57.67s51.36 23.29 48.64 28.5m-54.66-27s51.93 20.64 51.93 29.13m-104.63-8s67.54-36.07 73.17-27.66m-69.37 20.95s59.17-32.66 64.93-26.81m-86.47 54.92s17.29-36.91 24.57-40.66M750.78 242s13.52-32.27 21.31-37.41"/><path class="m" d="m1207.81 101.12-1.42-117.09 102.56-2.43 6.27 133.31-107.41-13.79z"/><path class="k" d="m1207.81 101.12-1.42-117.09 102.56-2.43 6.27 133.31-107.41-13.79z"/><path class="g" d="M981.35 160s4.48 37.94-10.5 60.44m-30.76 58.7a200.38 200.38 0 0 1 12-19.48c14.26-20.61 40.39-51.59 74.22-62m-73.73 60.49s59.27 8.46 65.24 20.52"/><path class="c" d="M1392.29 129s-82.53-31.81-130.59-34.46-75.7 2.89-75.7 2.89-4.33-11.91-22.55-20.88c0 0 6.57 35.44-4.86 57.77a37.15 37.15 0 0 0 15.09 13.2c10.38 5 19.56 15 19.56 15s2 5.34 12.18 26.7c0 0-6.24 39.16 0 73.8 0 0-13.5 6.83-19.42 13.36a139.67 139.67 0 0 1 45.42 8.85l159.45 15.65 1.42-171.88Z"/><path class="k" d="M1392.29 129s-82.53-31.81-130.59-34.46-75.7 2.89-75.7 2.89-4.33-11.91-22.55-20.88c0 0 6.57 35.44-4.86 57.77a37.15 37.15 0 0 0 15.09 13.2c10.38 5 19.56 15 19.56 15s2 5.34 12.18 26.7c0 0-6.24 39.16 0 73.8 0 0-13.5 6.83-19.42 13.36a139.67 139.67 0 0 1 45.42 8.85l159.45 15.65 1.42-171.88ZM945.65 28.13l-8.92 127m-30.52-74.21L944.84-16m33.58 171.11 13.15-165m-34.39 154.53 18.21-118.33"/></g><path d="M1097.12 111.73s2.67 3.66 7 3.66 7.06-3.91 7.06-3.91a6.79 6.79 0 0 0 6.53 4.34 18.21 18.21 0 0 0 8.92-2.43s-.18 4.43 5.4 6.13 6.56-1 6.56-1a165.5 165.5 0 0 1 11.43 12.13 19.75 19.75 0 0 0 8 6.31s4.83-3.37 5.8-11.15c0 0 7.29-5.35 7.53-12.39s-4.13-14.08-4.13-14.08 1.44-3.16 1.22-9.22-5.34-10.2-5.34-10.2a9.58 9.58 0 0 0-5.08-8.74s-1.5-8.95-13.86-9.69a23.07 23.07 0 0 0-13.57-7.06c-9-1.44-14.1.49-14.1.49s-6.07-2.9-12.14-1.45a23.51 23.51 0 0 0-10.17 5.58s-7.76 0-13.37 3.88-5.61 7.28-5.61 7.28a8.51 8.51 0 0 0-7.26 3.41 10.79 10.79 0 0 0-2.43 7.29 9.39 9.39 0 0 0-6.53 7c-1.21 5.71 1.1 9 1.1 9a19 19 0 0 0-4 12.38 43 43 0 0 0 1.7 10.45 24.66 24.66 0 0 0 0 14.31c2.31 8.26 10.92 15 10.92 15s-2.45-10.68-1.72-18.45a19.69 19.69 0 0 0 8.23-9.69s6.33 1 11.19-5.6c0 0 4.85 1 10.68-3.66Z" style="fill:#92390d"/><path class="k" d="M1097.12 111.73s2.67 3.66 7 3.66 7.06-3.91 7.06-3.91a6.79 6.79 0 0 0 6.53 4.34 18.21 18.21 0 0 0 8.92-2.43s-.18 4.43 5.4 6.13 6.56-1 6.56-1a165.5 165.5 0 0 1 11.43 12.13 19.75 19.75 0 0 0 8 6.31s4.83-3.37 5.8-11.15c0 0 7.29-5.35 7.53-12.39s-4.13-14.08-4.13-14.08 1.44-3.16 1.22-9.22-5.34-10.2-5.34-10.2a9.58 9.58 0 0 0-5.08-8.74s-1.5-8.95-13.86-9.69a23.07 23.07 0 0 0-13.57-7.06c-9-1.44-14.1.49-14.1.49s-6.07-2.9-12.14-1.45a23.51 23.51 0 0 0-10.17 5.58s-7.76 0-13.37 3.88-5.61 7.28-5.61 7.28a8.51 8.51 0 0 0-7.26 3.41 10.79 10.79 0 0 0-2.43 7.29 9.39 9.39 0 0 0-6.53 7c-1.21 5.71 1.1 9 1.1 9a19 19 0 0 0-4 12.38 43 43 0 0 0 1.7 10.45 24.66 24.66 0 0 0 0 14.31c2.31 8.26 10.92 15 10.92 15s-2.45-10.68-1.72-18.45a19.69 19.69 0 0 0 8.23-9.69s6.33 1 11.19-5.6c0 0 4.85 1 10.68-3.66Z"/><path class="v" d="M773.31 279.48a11.74 11.74 0 0 0 5.09-8m-6.07 17a39 39 0 0 1 .76 8.72 30.87 30.87 0 0 0 1.19 9.21"/><path class="k" d="M778.83 283.3a49.73 49.73 0 0 0 13.41 1.52c8.5 0 9.93 2.36 9.71 4.13a7.58 7.58 0 0 0 .45 3.4m1.33-2.18s3.13 1.79 5.9 7.29 5.74 5.5 5.74 5.5m-10-14a17.26 17.26 0 0 0 5.06-4.12c2.61-3.55 4.94-4.17 4.94-4.17"/><path class="v" d="M778.83 294.53a22.31 22.31 0 0 0 0 10m2.26-24.12a13.21 13.21 0 0 1 3.24-4.73"/><path class="k" d="M823.36 287.7a9.53 9.53 0 0 1-2 10.37"/><path class="v" d="M782.65 245.92s5.63-3.81 8.1-8.42 8.74-9.23 8.74-9.23m-20.66 24a21.19 21.19 0 0 1-1 9.95c-1.87 5.82.12 9.51.12 9.51m15.75-25.19a20.19 20.19 0 0 1 5.45-9.47c4.36-4.2 6.93-4.2 6.93-4.2m-21.47 27.16s-4.66 6.28-2.73 13.21"/><path class="k" d="M797.82 248.43s6.54-5.17 8.26-11.33m-18 26.12s-.55 7.23-2.16 9.82m-2.73-22.93s14.35 11.32 19.57 15.73 5.65 5 7.15 3.69 1.76-3.33 2.71-6.34m5.38 13.15-.73-1a11 11 0 0 0 3.41-4.07 17.24 17.24 0 0 0 1-4.73l2.9-.66m2.42 3.21s-4.15 4.27-4.15 7.54"/><path class="w" d="M798 243.74a1.58 1.58 0 1 0-1.58-1.58 1.58 1.58 0 0 0 1.58 1.58Z"/><path class="g" d="M798 243.74a1.58 1.58 0 1 0-1.58-1.58 1.58 1.58 0 0 0 1.58 1.58Z"/><path class="w" d="M783.22 270.19a1.32 1.32 0 1 0-1.32-1.31 1.31 1.31 0 0 0 1.32 1.31Z"/><path class="g" d="M783.22 270.19a1.32 1.32 0 1 0-1.32-1.31 1.31 1.31 0 0 0 1.32 1.31Z"/><path class="p" d="M1080.88 247.44s17 6.54 26.92 15.29c0 0 2.57-11.89 4.61-31.79s2.92-27.42 2.92-27.42 5.58-3.41 7.52-11.67 1.18-11.16 1.18-11.16-14.45 2.18-26.08-5.34-27.53-29.35-27.53-29.35-3.59 7-1.94 11a35.25 35.25 0 0 0 2.69 5.58s-1.45 3 1.31 7.29c0 0-2.11 4.73 2.77 9.46A10 10 0 0 0 1080 187c4.73 3.13 15.81 12.34 15.81 12.34l2.39 3.4s-1.21 5.26-7.4 21.81-10.32 23.21-10.32 23.21"/><path class="k" d="M1080.88 247.44s17 6.54 26.92 15.29c0 0 2.57-11.89 4.61-31.79s2.92-27.42 2.92-27.42 5.58-3.41 7.52-11.67 1.18-11.16 1.18-11.16-14.45 2.18-26.08-5.34-27.53-29.35-27.53-29.35-3.59 7-1.94 11a35.25 35.25 0 0 0 2.69 5.58s-1.45 3 1.31 7.29c0 0-2.11 4.73 2.77 9.46A10 10 0 0 0 1080 187c4.73 3.13 15.81 12.34 15.81 12.34l2.39 3.4s-1.21 5.26-7.4 21.81-10.32 23.21-10.32 23.21"/><path class="v" d="M1087.17 133.84s4.73-2.91 9.95-6.31 10.32-3.28 15.41-3.4M1094.45 138s1.48-1 5.29-3.16 10.61-2.43 10.61-2.43m-28.52 4.38s-10.79 3.92-12.5 10.76m12.64-4.09s-6.45 2.55-8.4 8.13"/><path class="k" d="M1098 140.51a22.41 22.41 0 0 0 8.13-2.19c3.78-2 4.26-4.12 4.26-4.12m-26.95 11.07s-.25 2.89-3.77 5.56-4.2 2.55-4.2 2.55m9.06-15.06a51.4 51.4 0 0 1 5.58 11.9c2.67 7.77 5.32 12.87 8.38 11.66s3.27-3.16 3.27-3.16a4.92 4.92 0 0 0 3.76-2.55m-.81 18.33-.12-1.82a11.16 11.16 0 0 0 3.6-1.7 28.65 28.65 0 0 0 4.13-4.37l2.36-.81m-12.36-20.56s5.54-.07 8.49-3.25m-35.41 37.73a22.56 22.56 0 0 1 2.94-10 57.39 57.39 0 0 0 3.66-6.55 4.28 4.28 0 0 1 3.38 3.76c.48 3.33-3.06 5.35-3.22 8.38s1.53 4.72 3.52 5.82m-13.41-11.65s2.36-4.22 3.88-6.78a21.52 21.52 0 0 0 2.19-6s4.66 2.31 3.66 6.43m-10.8-.47a48 48 0 0 0 2-5.6 11 11 0 0 0 .41-4.61 5.94 5.94 0 0 1 4.07 5.7"/><path class="w" d="M1101.26 138.72a2 2 0 1 0-2-2.05 2 2 0 0 0 2 2.05Z"/><path class="x" d="M1101.26 138.72a2 2 0 1 0-2-2.05 2 2 0 0 0 2 2.05Z"/><path class="w" d="M1077.65 149.85a1.58 1.58 0 1 0-1.57-1.57 1.57 1.57 0 0 0 1.57 1.57Z"/><path class="x" d="M1077.65 149.85a1.58 1.58 0 1 0-1.57-1.57 1.57 1.57 0 0 0 1.57 1.57Z"/><path class="k" d="M1140.81 165.15a26.7 26.7 0 0 1-17.35 15.42m90.17 10.07s-4.85 11.17 0 48.06M1186 97.43s6.8 9.07 3.4 34.53"/><path d="M761.36 267.13s-8.46-13.13-8.46-23l9.72-21.82 36.79-18.07 24.74-.38 25.62 15.23 2.93 20.31-17.7-9.18-.78-7s-30.52-8.26-43.43-3.15-24.79 15.13-26.46 27.61 1.94 19.45 1.94 19.45Z"/><path d="M761.36 267.13s-8.46-13.13-8.46-23l9.72-21.82 36.79-18.07 24.74-.38 25.62 15.23 2.93 20.31-17.7-9.18-.78-7s-30.52-8.26-43.43-3.15-24.79 15.13-26.46 27.61 1.94 19.45 1.94 19.45Z" style="stroke:#3a131b;stroke-width:.86px;fill:none"/><g class="b"><path class="k" d="M802.19 317.23s8.56 2.9 14.1 1.95 8-2.92 13.09-6.56c5.7-4.05 8-8.38 7.22-13.94a26.1 26.1 0 0 0-2.13-7.82m-55 13a48.26 48.26 0 0 1 2-8.86m3.14-18.43a12.41 12.41 0 0 0-1.39 5.54m-156.17 32.45 116.21 115.88m-128.44-90.39 88.33 90.42"/><path class="n" d="m609.4 298.48 116.2 115.88"/></g><path class="k" d="M816.07 287.91s-2.18 2.27-.86 6.61"/><path class="s" d="M56.74 52.53h12.9q7.44 0 10.77 3a10.41 10.41 0 0 1 3.33 8.19A10 10 0 0 1 82.33 69 9.77 9.77 0 0 1 78 72.69a10.24 10.24 0 0 1 5.28 3.9 11.08 11.08 0 0 1 1.68 6.18q0 5.7-3.33 8.73t-10.77 3H56.74v-42Zm4.2 3.84V71h8.7q5.28 0 7.53-2a6.73 6.73 0 0 0 2.25-5.37 6.73 6.73 0 0 0-2.25-5.37q-2.25-1.95-7.53-2Zm0 18.48v15.84h9.9q5.28 0 7.53-2a7.51 7.51 0 0 0 2.25-5.91 7.51 7.51 0 0 0-2.25-5.91q-2.25-2-7.53-2ZM104.74 95a12.44 12.44 0 0 1-9.42-3.63q-3.48-3.63-3.48-10.47v-2.69q0-6.78 3.51-10.44a12.4 12.4 0 0 1 9.39-3.66 12.4 12.4 0 0 1 9.39 3.66q3.51 3.66 3.51 10.44v2.46H95.92v.18q0 5.22 2.4 7.8a8.35 8.35 0 0 0 6.42 2.58 8.91 8.91 0 0 0 5.67-1.56 9.08 9.08 0 0 0 2.85-3.9h4.08a14.12 14.12 0 0 1-1.44 3.6 10 10 0 0 1-2.52 2.91 12.16 12.16 0 0 1-3.72 2 15.53 15.53 0 0 1-4.92.72Zm0-27.12a8.16 8.16 0 0 0-6.21 2.43 10.76 10.76 0 0 0-2.61 6.93h17.58q-.24-4.68-2.61-7a8.38 8.38 0 0 0-6.15-2.34ZM121.54 91.23h.9a4.11 4.11 0 0 0 2-.51 4.19 4.19 0 0 0 1.62-1.89 13.45 13.45 0 0 0 1.08-3.75 39.25 39.25 0 0 0 .39-6.15v-14.4h20.4v30h-4v-26.4H131.5v10.8a39.88 39.88 0 0 1-.63 7.77 14.15 14.15 0 0 1-1.87 4.92 6.77 6.77 0 0 1-2.88 2.58 9 9 0 0 1-3.72.75h-.9v-3.72ZM178.78 69.09l-3.72 6.24-12 19.2h-4.92v-30h3.96v25.5l3.72-6.3 12-19.2h4.92v30h-3.96V69.09zM202.24 80.73h-5.34v13.8h-3.96v-30h3.96v12.6h5.34l8.58-12.6h4.92l-9.9 14.46 11.1 15.54h-4.92l-9.78-13.8zM244.18 69.09l-3.72 6.24-12 19.2h-4.92v-30h3.96v25.5l3.72-6.3 12-19.2h4.92v30h-3.96V69.09zM279 69.09l-3.72 6.24-12 19.2h-4.92v-30h4V90l3.72-6.3 12-19.2H283v30h-4V69.09Zm-8.34-8.34a8 8 0 0 1-5.94-2.16 8.19 8.19 0 0 1-2.16-6.06h3.84a5.64 5.64 0 0 0 1.11 3.9 4.08 4.08 0 0 0 3.15 1.2 4.26 4.26 0 0 0 3.24-1.2 5.54 5.54 0 0 0 1.14-3.9h3.72a8.19 8.19 0 0 1-2.16 6.06 8 8 0 0 1-5.94 2.16ZM327.58 68.13H312.1v26.4h-3.96v-30h23.4v30h-3.96v-26.4zM353.14 95a14.67 14.67 0 0 1-5.43-1 11.7 11.7 0 0 1-4.17-2.76 12.08 12.08 0 0 1-2.67-4.41 17.73 17.73 0 0 1-.93-6v-2.62a17 17 0 0 1 1-5.91 13 13 0 0 1 2.67-4.44 11.23 11.23 0 0 1 4.14-2.79 15.84 15.84 0 0 1 10.86 0 11.7 11.7 0 0 1 4.17 2.76 12 12 0 0 1 2.67 4.44 17.8 17.8 0 0 1 .93 5.94v2.64a17 17 0 0 1-1 5.91 13 13 0 0 1-2.67 4.44 11.18 11.18 0 0 1-4.17 2.8 14.73 14.73 0 0 1-5.4 1Zm0-3.72a8.66 8.66 0 0 0 6.6-2.67q2.52-2.67 2.52-7.71v-2.69q0-5-2.55-7.68a9.42 9.42 0 0 0-13.17 0Q344 73.17 344 78.21v2.64q0 5 2.55 7.68a8.63 8.63 0 0 0 6.57 2.7ZM384.04 80.73h-5.34v13.8h-3.96v-30h3.96v12.6h5.34l8.58-12.6h4.92l-9.9 14.46 11.1 15.54h-4.92l-9.78-13.8zM411.94 95q-4.5 0-6.9-2.31a8.45 8.45 0 0 1-2.4-6.39 10.74 10.74 0 0 1 .69-3.93 6.91 6.91 0 0 1 2.22-3 11.05 11.05 0 0 1 3.93-1.86 21.94 21.94 0 0 1 5.76-.66h6.84v-2.7a6.35 6.35 0 0 0-1.59-4.77q-1.59-1.53-5.25-1.53a8 8 0 0 0-4.95 1.29 4.93 4.93 0 0 0-1.89 3.51h-4.26a9.56 9.56 0 0 1 .84-3.42 7.61 7.61 0 0 1 2.1-2.7 9.88 9.88 0 0 1 3.42-1.77 16.1 16.1 0 0 1 4.74-.63q5.34 0 8.07 2.64a9.79 9.79 0 0 1 2.69 7.36v20.4h-3l-.6-5.64a11.26 11.26 0 0 1-4.29 4.47 12 12 0 0 1-6.17 1.64Zm.3-3.72a9.88 9.88 0 0 0 3.84-.75 10.18 10.18 0 0 0 3.15-2 9.25 9.25 0 0 0 2.1-3 8.94 8.94 0 0 0 .75-3.63v-1.47h-6.84q-4.62 0-6.57 1.62a5.21 5.21 0 0 0-1.95 4.2 4.79 4.79 0 0 0 1.41 3.63 5.72 5.72 0 0 0 4.11 1.35ZM434.14 74a8.72 8.72 0 0 1 2.86-7q2.85-2.49 9.45-2.49h9.9v30h-4V83.37h-7.44a7.7 7.7 0 0 1-1.38-.12l-6.03 11.28h-4.56l6.72-12.12a7.83 7.83 0 0 1-4.23-3.24 10 10 0 0 1-1.29-5.17Zm4.08 0a5.31 5.31 0 0 0 1.8 4.32q1.8 1.5 6.42 1.5h5.94V68.13h-5.94q-4.62 0-6.42 1.5a5.31 5.31 0 0 0-1.8 4.32ZM487.18 81.03H470.5v13.5h-3.96v-30h3.96v12.9h16.68v-12.9h3.96v30h-3.96v-13.5zM521.98 81.03H505.3v13.5h-3.96v-30h3.96v12.9h16.68v-12.9h3.96v30h-3.96v-13.5zM536.14 64.53h4v10.8h6.66q6.36 0 9.27 2.58a9.81 9.81 0 0 1 0 14q-2.94 2.64-9.24 2.64h-10.69v-30Zm4 14.4v12h6.66q4.44 0 6.27-1.59a6.19 6.19 0 0 0 0-8.82q-1.86-1.59-6.24-1.59Zm24.48-14.4h4v30h-4v-30ZM599.38 69.09l-3.72 6.24-12 19.2h-4.92v-30h4V90l3.72-6.3 12-19.2h4.92v30h-4V69.09ZM591 60.75a8 8 0 0 1-5.94-2.16 8.19 8.19 0 0 1-2.16-6.06h3.84a5.64 5.64 0 0 0 1.11 3.9 4.08 4.08 0 0 0 3.15 1.2 4.26 4.26 0 0 0 3.24-1.2 5.54 5.54 0 0 0 1.14-3.9h3.72a8.19 8.19 0 0 1-2.1 6.06 8 8 0 0 1-6 2.16ZM637.84 80.73h-5.34v13.8h-3.96v-30h3.96v12.6h5.34l8.58-12.6h4.92l-9.9 14.46 11.1 15.54h-4.92l-9.78-13.8zM665.74 95q-4.5 0-6.9-2.31a8.45 8.45 0 0 1-2.4-6.39 10.74 10.74 0 0 1 .69-3.93 6.91 6.91 0 0 1 2.22-3 11.05 11.05 0 0 1 3.93-1.86 21.89 21.89 0 0 1 5.76-.66h6.84v-2.7a6.39 6.39 0 0 0-1.59-4.77q-1.59-1.53-5.25-1.53a8 8 0 0 0-4.95 1.29 4.86 4.86 0 0 0-1.89 3.51h-4.26a9.56 9.56 0 0 1 .84-3.42 7.61 7.61 0 0 1 2.1-2.7 9.88 9.88 0 0 1 3.42-1.77 16.1 16.1 0 0 1 4.74-.63q5.34 0 8.07 2.64a9.79 9.79 0 0 1 2.73 7.38v20.4h-3.06l-.6-5.64a11.26 11.26 0 0 1-4.29 4.47 12 12 0 0 1-6.15 1.62Zm.3-3.72a9.88 9.88 0 0 0 3.84-.75 10.18 10.18 0 0 0 3.15-2 9.25 9.25 0 0 0 2.1-3 9.11 9.11 0 0 0 .75-3.63v-1.47H669q-4.62 0-6.57 1.62a5.21 5.21 0 0 0-2 4.2 4.79 4.79 0 0 0 1.41 3.63 5.7 5.7 0 0 0 4.16 1.35ZM710.38 81.03H693.7v13.5h-3.96v-30h3.96v12.9h16.68v-12.9h3.96v30h-3.96v-13.5zM735.94 95a14.68 14.68 0 0 1-5.44-1 11.79 11.79 0 0 1-4.17-2.76 12.08 12.08 0 0 1-2.67-4.41 17.73 17.73 0 0 1-.93-6v-2.62a17 17 0 0 1 1-5.91 12.83 12.83 0 0 1 2.68-4.44 11.19 11.19 0 0 1 4.13-2.79 15.87 15.87 0 0 1 10.87 0 11.75 11.75 0 0 1 4.16 2.76 12.19 12.19 0 0 1 2.68 4.44 18.06 18.06 0 0 1 .93 5.94v2.64a17.28 17.28 0 0 1-1 5.91 13 13 0 0 1-2.68 4.44 11.1 11.1 0 0 1-4.17 2.8 14.72 14.72 0 0 1-5.39 1Zm0-3.72a8.65 8.65 0 0 0 6.59-2.67c1.68-1.78 2.53-4.35 2.53-7.71v-2.69c0-3.32-.86-5.88-2.56-7.68a9.42 9.42 0 0 0-13.17 0c-1.67 1.78-2.52 4.35-2.52 7.71v2.64q0 5 2.56 7.68a8.6 8.6 0 0 0 6.57 2.7ZM778.17 81.03h-16.68v13.5h-3.96v-30h3.96v12.9h16.68v-12.9h3.96v30h-3.96v-13.5zM67.54 167a13.86 13.86 0 0 1-5.25-1 11.52 11.52 0 0 1-4.08-2.76 12.3 12.3 0 0 1-2.64-4.41 17.73 17.73 0 0 1-.93-6v-2.64a17.54 17.54 0 0 1 .93-5.91 12.6 12.6 0 0 1 2.64-4.44 11.34 11.34 0 0 1 4.08-2.79 15.12 15.12 0 0 1 9.72-.3 11.2 11.2 0 0 1 3.42 1.83 10 10 0 0 1 2.4 2.73 13.35 13.35 0 0 1 1.41 3.3H75a9 9 0 0 0-2.61-3.42 7.61 7.61 0 0 0-4.89-1.38 8.28 8.28 0 0 0-6.33 2.67q-2.49 2.67-2.49 7.71v2.64a13.72 13.72 0 0 0 .66 4.41 9.15 9.15 0 0 0 1.86 3.27 8.09 8.09 0 0 0 2.79 2 8.72 8.72 0 0 0 3.51.69 7.37 7.37 0 0 0 4.92-1.44 9.12 9.12 0 0 0 2.58-4h4.2a12.16 12.16 0 0 1-3.78 6.54q-2.84 2.7-7.88 2.7ZM86.74 136.53h11.1q5.46 0 8 2.22a7.59 7.59 0 0 1 2.52 6 6.82 6.82 0 0 1-1 3.54 7.54 7.54 0 0 1-2.88 2.7 8.13 8.13 0 0 1 3.78 2.85 7.08 7.08 0 0 1 1.26 4.11 8.07 8.07 0 0 1-2.52 6.3q-2.52 2.28-8 2.28H86.74v-30Zm4 3.6v9.3h7.14q3.54 0 5-1.23a4.29 4.29 0 0 0 1.44-3.45 4.22 4.22 0 0 0-1.44-3.39q-1.44-1.23-5-1.23Zm0 12.9v9.9H99q3.54 0 5-1.26a4.68 4.68 0 0 0 1.44-3.72 4.6 4.6 0 0 0-1.44-3.66q-1.42-1.29-5-1.29ZM113.74 136.53h24v3.6h-10.02v26.4h-3.96v-26.4h-10.02v-3.6zM140.74 167a3.16 3.16 0 0 1-2.37-1 3.41 3.41 0 0 1 0-4.68 3.41 3.41 0 0 1 4.74 0 3.41 3.41 0 0 1 0 4.68 3.16 3.16 0 0 1-2.37 1ZM191.8 154.35h-18.3l-4.44 12.18h-4.32l15.6-42h4.8l15.6 42h-4.44l-4.5-12.18Zm-16.86-3.84h15.48l-4.26-11.58-3.48-9.6-3.48 9.6-4.26 11.58ZM227.98 153.03H211.3v13.5h-3.96v-30h3.96v12.9h16.68v-12.9h3.96v30h-3.96v-13.5zM264.88 166.53h-23v7.8h-4v-11.4h3.18a20.69 20.69 0 0 0 1.74-3.12 15.6 15.6 0 0 0 1-3.45 37.09 37.09 0 0 0 .51-4.53q.15-2.58.15-6.3v-9h20.1v26.4h4.2v11.4h-4v-7.8Zm-16.38-21q0 3.72-.15 6.39a43.53 43.53 0 0 1-.48 4.65A19.25 19.25 0 0 1 247 160a28.41 28.41 0 0 1-1.26 2.91h14.94v-22.8H248.5v5.4ZM288.58 167a12.45 12.45 0 0 1-5.52-1.17 9.69 9.69 0 0 1-4-3.63v16.38h-4v-42h3.06l.48 5a10.27 10.27 0 0 1 4.05-4.11 13.16 13.16 0 0 1 10.59-.45 10.05 10.05 0 0 1 3.72 2.67 12.48 12.48 0 0 1 2.43 4.41 19.56 19.56 0 0 1 .87 6.12v2.64a19.35 19.35 0 0 1-.87 6.06 12.81 12.81 0 0 1-2.43 4.44 9.91 9.91 0 0 1-3.72 2.7 12.2 12.2 0 0 1-4.74.9Zm-.9-3.72a8.06 8.06 0 0 0 6.24-2.55q2.34-2.55 2.34-7.83v-2.64q0-5.22-2.37-7.8a8.62 8.62 0 0 0-12.24-.06q-2.43 2.52-2.55 7.38v3.12q0 5 2.4 7.71a7.93 7.93 0 0 0 6.18 2.67ZM319.84 167a12.44 12.44 0 0 1-9.42-3.63q-3.48-3.63-3.48-10.47v-2.64q0-6.78 3.51-10.44a13.88 13.88 0 0 1 18.78 0q3.51 3.66 3.51 10.44v2.46H311v.18q0 5.22 2.4 7.8a8.35 8.35 0 0 0 6.42 2.58 8.91 8.91 0 0 0 5.67-1.56 9.08 9.08 0 0 0 2.85-3.9h4.08a14.12 14.12 0 0 1-1.44 3.6 10 10 0 0 1-2.52 2.91 12.16 12.16 0 0 1-3.72 1.95 15.53 15.53 0 0 1-4.92.72Zm0-27.12a8.16 8.16 0 0 0-6.21 2.43 10.76 10.76 0 0 0-2.61 6.93h17.58q-.24-4.68-2.61-7a8.38 8.38 0 0 0-6.15-2.34ZM339.34 146a8.72 8.72 0 0 1 2.85-6.93q2.85-2.49 9.45-2.49h9.9v30h-4v-11.21h-7.44a7.7 7.7 0 0 1-1.38-.12l-6.06 11.28h-4.56l6.72-12.12a7.83 7.83 0 0 1-4.23-3.24 10 10 0 0 1-1.29-5.22Zm4.08 0a5.31 5.31 0 0 0 1.8 4.32q1.8 1.5 6.42 1.5h5.94v-11.69h-5.94q-4.62 0-6.42 1.5a5.31 5.31 0 0 0-1.8 4.32ZM397.9 146.85h-6.66v19.68h-4.2v-42h4.2v18.48h6.6l13.56-18.48h5.04l-15.06 20.34 16.26 21.66h-5.16l-14.58-19.68zM438.28 167a12.45 12.45 0 0 1-5.52-1.17 9.69 9.69 0 0 1-4-3.63v16.38h-4v-42h3.06l.48 5a10.27 10.27 0 0 1 4.05-4.11A13.16 13.16 0 0 1 443 137a10.05 10.05 0 0 1 3.72 2.67 12.48 12.48 0 0 1 2.43 4.41 19.56 19.56 0 0 1 .87 6.12v2.64a19.35 19.35 0 0 1-.87 6.06 12.81 12.81 0 0 1-2.43 4.44 9.91 9.91 0 0 1-3.72 2.7 12.2 12.2 0 0 1-4.74.9Zm-.9-3.72a8.06 8.06 0 0 0 6.24-2.55q2.34-2.55 2.34-7.83v-2.64q0-5.22-2.37-7.8a8.62 8.62 0 0 0-12.24-.06q-2.43 2.52-2.55 7.38v3.12q0 5 2.4 7.71a7.93 7.93 0 0 0 6.18 2.67ZM479.08 141.09l-3.72 6.24-12 19.2h-4.92v-30h3.96v25.5l3.72-6.3 12-19.2h4.92v30h-3.96v-25.44zM489.64 136.53h24v3.6h-10.02v26.4h-3.96v-26.4h-10.02v-3.6zM530.14 167a13.86 13.86 0 0 1-5.25-1 11.52 11.52 0 0 1-4.08-2.76 12.3 12.3 0 0 1-2.64-4.41 17.73 17.73 0 0 1-.93-6v-2.64a17.54 17.54 0 0 1 .93-5.91 12.6 12.6 0 0 1 2.64-4.44 11.34 11.34 0 0 1 4.08-2.79 15.12 15.12 0 0 1 9.72-.3 11.2 11.2 0 0 1 3.39 1.85 10 10 0 0 1 2.4 2.73 13.35 13.35 0 0 1 1.41 3.3h-4.2a9 9 0 0 0-2.61-3.42 7.61 7.61 0 0 0-4.89-1.38 8.28 8.28 0 0 0-6.33 2.67q-2.49 2.67-2.49 7.71v2.64a13.72 13.72 0 0 0 .66 4.41 9.15 9.15 0 0 0 1.86 3.27 8.09 8.09 0 0 0 2.79 2 8.72 8.72 0 0 0 3.51.69 7.37 7.37 0 0 0 4.92-1.44 9.12 9.12 0 0 0 2.58-4h4.2a12.16 12.16 0 0 1-3.78 6.54q-2.88 2.58-7.92 2.58ZM558.64 152.73h-5.34v13.8h-3.96v-30h3.96v12.6h5.34l8.58-12.6h4.92l-9.9 14.46 11.1 15.54h-4.92l-9.78-13.8zM590.14 167a14.67 14.67 0 0 1-5.43-1 11.7 11.7 0 0 1-4.17-2.76 12.08 12.08 0 0 1-2.67-4.41 17.73 17.73 0 0 1-.93-6v-2.64a17 17 0 0 1 1-5.91 13 13 0 0 1 2.67-4.44 11.23 11.23 0 0 1 4.14-2.79 15.84 15.84 0 0 1 10.86 0 11.7 11.7 0 0 1 4.17 2.76 12 12 0 0 1 2.67 4.44 17.8 17.8 0 0 1 .93 5.94v2.64a17 17 0 0 1-1 5.91 13 13 0 0 1-2.67 4.44 11.18 11.18 0 0 1-4.17 2.79 14.73 14.73 0 0 1-5.4 1Zm0-3.72a8.66 8.66 0 0 0 6.6-2.67q2.52-2.67 2.52-7.71v-2.64q0-5-2.55-7.68a9.42 9.42 0 0 0-13.17 0q-2.52 2.67-2.52 7.71v2.64q0 5 2.55 7.68a8.63 8.63 0 0 0 6.57 2.7ZM611.74 136.53h19.2v3.6H615.7v26.4h-3.96v-30zM647.74 167a14.67 14.67 0 0 1-5.43-1 11.7 11.7 0 0 1-4.17-2.76 12.08 12.08 0 0 1-2.67-4.41 17.73 17.73 0 0 1-.93-6v-2.64a17 17 0 0 1 1-5.91 13 13 0 0 1 2.67-4.44 11.23 11.23 0 0 1 4.14-2.79 15.84 15.84 0 0 1 10.86 0 11.7 11.7 0 0 1 4.17 2.76 12 12 0 0 1 2.67 4.44 17.8 17.8 0 0 1 .93 5.94v2.64a17 17 0 0 1-1 5.91 13 13 0 0 1-2.67 4.44 11.18 11.18 0 0 1-4.17 2.79 14.73 14.73 0 0 1-5.4 1Zm0-3.72a8.66 8.66 0 0 0 6.6-2.67q2.52-2.67 2.52-7.71v-2.64q0-5-2.55-7.68a9.42 9.42 0 0 0-13.17 0q-2.52 2.67-2.52 7.71v2.64q0 5 2.55 7.68a8.63 8.63 0 0 0 6.57 2.7ZM77.08 225.03H60.4v13.5h-3.96v-30h3.96v12.9h16.68v-12.9h3.96v30h-3.96v-13.5zM98.44 239q-4.5 0-6.9-2.31a8.45 8.45 0 0 1-2.4-6.39 10.74 10.74 0 0 1 .69-3.93 6.91 6.91 0 0 1 2.22-3 11.05 11.05 0 0 1 3.95-1.88 21.94 21.94 0 0 1 5.76-.66h6.84v-2.7a6.35 6.35 0 0 0-1.59-4.77q-1.59-1.53-5.25-1.53a8 8 0 0 0-4.95 1.29 4.93 4.93 0 0 0-1.89 3.51h-4.28a9.56 9.56 0 0 1 .84-3.42 7.61 7.61 0 0 1 2.1-2.7 9.88 9.88 0 0 1 3.42-1.77 16.1 16.1 0 0 1 4.74-.63q5.34 0 8.07 2.64a9.79 9.79 0 0 1 2.73 7.38v20.4h-3.06l-.6-5.64a11.26 11.26 0 0 1-4.29 4.47 12 12 0 0 1-6.15 1.64Zm.3-3.72a9.88 9.88 0 0 0 3.84-.75 10.18 10.18 0 0 0 3.15-2 9.25 9.25 0 0 0 2.1-3 8.94 8.94 0 0 0 .75-3.63v-1.38h-6.84q-4.62 0-6.57 1.62a5.21 5.21 0 0 0-2 4.2 4.79 4.79 0 0 0 1.41 3.63 5.72 5.72 0 0 0 4.11 1.35ZM150.88 239a12.45 12.45 0 0 1-5.52-1.17 9.69 9.69 0 0 1-4-3.63v16.38h-4v-42h3.06l.48 5a10.27 10.27 0 0 1 4.05-4.11 13.16 13.16 0 0 1 10.59-.45 10.05 10.05 0 0 1 3.72 2.67 12.48 12.48 0 0 1 2.43 4.41 19.56 19.56 0 0 1 .87 6.12v2.64a19.35 19.35 0 0 1-.87 6.06 12.81 12.81 0 0 1-2.43 4.44 9.91 9.91 0 0 1-3.72 2.7 12.2 12.2 0 0 1-4.74.9Zm-.9-3.72a8.06 8.06 0 0 0 6.24-2.55q2.34-2.55 2.34-7.83v-2.64q0-5.22-2.37-7.8a8.62 8.62 0 0 0-12.24-.06q-2.43 2.52-2.55 7.38v3.12q0 5 2.4 7.71a7.93 7.93 0 0 0 6.18 2.67ZM178.66 238.53l-12.42-30h4.44l10.14 25.08 9.42-25.08h4.2l-16.2 42h-4.2l4.62-12zM210.94 239a13.86 13.86 0 0 1-5.25-1 11.52 11.52 0 0 1-4.08-2.76 12.3 12.3 0 0 1-2.64-4.41 17.73 17.73 0 0 1-.93-6v-2.64a17.54 17.54 0 0 1 .93-5.91 12.6 12.6 0 0 1 2.64-4.44 11.34 11.34 0 0 1 4.08-2.79 15.12 15.12 0 0 1 9.72-.3 11.2 11.2 0 0 1 3.42 1.83 10 10 0 0 1 2.4 2.73 13.35 13.35 0 0 1 1.41 3.3h-4.2a9 9 0 0 0-2.61-3.42 7.61 7.61 0 0 0-4.89-1.38 8.28 8.28 0 0 0-6.33 2.67q-2.49 2.67-2.49 7.71v2.64a13.72 13.72 0 0 0 .66 4.41 9.15 9.15 0 0 0 1.86 3.27 8.09 8.09 0 0 0 2.79 2 8.72 8.72 0 0 0 3.51.69 7.37 7.37 0 0 0 4.92-1.44 9.12 9.12 0 0 0 2.58-4h4.2a12.16 12.16 0 0 1-3.78 6.54q-2.86 2.7-7.92 2.7ZM241.24 239a13.86 13.86 0 0 1-5.25-1 11.52 11.52 0 0 1-4.08-2.76 12.3 12.3 0 0 1-2.64-4.41 17.73 17.73 0 0 1-.93-6v-2.64a17.54 17.54 0 0 1 .93-5.91 12.6 12.6 0 0 1 2.64-4.44 11.34 11.34 0 0 1 4.08-2.79 15.12 15.12 0 0 1 9.72-.3 11.2 11.2 0 0 1 3.42 1.83 10 10 0 0 1 2.4 2.73 13.35 13.35 0 0 1 1.41 3.3h-4.2a9 9 0 0 0-2.61-3.42 7.61 7.61 0 0 0-4.89-1.38 8.28 8.28 0 0 0-6.33 2.67q-2.49 2.67-2.49 7.71v2.64a13.72 13.72 0 0 0 .66 4.41 9.15 9.15 0 0 0 1.86 3.27 8.09 8.09 0 0 0 2.79 2 8.72 8.72 0 0 0 3.51.69 7.37 7.37 0 0 0 4.92-1.44 9.12 9.12 0 0 0 2.58-4h4.2a12.16 12.16 0 0 1-3.78 6.54q-2.88 2.58-7.92 2.58ZM269.74 224.73h-5.34v13.8h-3.96v-30h3.96v12.6h5.34l8.58-12.6h4.92l-9.9 14.46 11.1 15.54h-4.92l-9.78-13.8zM301.24 239a14.67 14.67 0 0 1-5.43-1 11.7 11.7 0 0 1-4.17-2.76 12.08 12.08 0 0 1-2.67-4.41 17.73 17.73 0 0 1-.93-6v-2.64a17 17 0 0 1 1-5.91 13 13 0 0 1 2.67-4.44 11.23 11.23 0 0 1 4.14-2.79 15.84 15.84 0 0 1 10.86 0 11.7 11.7 0 0 1 4.17 2.76 12 12 0 0 1 2.67 4.44 17.8 17.8 0 0 1 .93 5.94v2.64a17 17 0 0 1-1 5.91 13 13 0 0 1-2.67 4.44 11.18 11.18 0 0 1-4.17 2.79 14.73 14.73 0 0 1-5.4 1Zm0-3.72a8.66 8.66 0 0 0 6.6-2.67q2.52-2.67 2.52-7.71v-2.64q0-5-2.55-7.68a9.42 9.42 0 0 0-13.17 0q-2.52 2.67-2.52 7.71v2.64q0 5 2.55 7.68a8.63 8.63 0 0 0 6.57 2.7ZM330.04 219.33l-3.24-6.48v25.68h-3.96v-30h5.52l9.84 18.54 9.84-18.54h5.4v30h-3.96v-25.68l-3.24 6.48-6.12 11.7h-3.96l-6.12-11.7zM376.84 218a8.72 8.72 0 0 1 2.85-6.93q2.85-2.49 9.45-2.49H399v30h-4v-11.21h-7.44a7.7 7.7 0 0 1-1.38-.12l-6.06 11.28h-4.56l6.72-12.12a7.83 7.83 0 0 1-4.23-3.24 10 10 0 0 1-1.29-5.22Zm4.08 0a5.31 5.31 0 0 0 1.8 4.32q1.8 1.5 6.42 1.5h5.94v-11.69h-5.94q-4.62 0-6.42 1.5a5.31 5.31 0 0 0-1.8 4.32ZM418.54 208.11q5.22 0 7.86 2.4a7.9 7.9 0 0 1 2.64 6.12 7.48 7.48 0 0 1-1 3.78 6.91 6.91 0 0 1-2.94 2.7 7.39 7.39 0 0 1 3.7 2.89 7.72 7.72 0 0 1 1.14 4.17 8.09 8.09 0 0 1-2.79 6.36q-2.79 2.46-8.61 2.46t-8.67-2.49a10 10 0 0 1-3.33-6.63h4.08a6.53 6.53 0 0 0 2.22 4q1.74 1.44 5.7 1.44t5.64-1.41a4.89 4.89 0 0 0 0-7.38q-1.68-1.52-5.64-1.52h-3.3v-3.6h3.3q3.42 0 4.92-1.32a4.79 4.79 0 0 0 0-7q-1.5-1.32-4.92-1.32t-5 1.32a6.16 6.16 0 0 0-2 3.48h-4.08a9.24 9.24 0 0 1 3.15-6.12q2.73-2.4 8-2.4ZM438.34 208.53h4v10.8H449q6.36 0 9.27 2.58a9.81 9.81 0 0 1 0 14q-2.94 2.64-9.24 2.64h-10.69v-30Zm4 14.4v12H449q4.44 0 6.27-1.59a6.19 6.19 0 0 0 0-8.82q-1.86-1.59-6.24-1.59Zm24.48-14.4h4v30h-4v-30ZM490.24 224.73h-5.34v13.8h-3.96v-30h3.96v12.6h5.34l8.58-12.6h4.92l-9.9 14.46 11.1 15.54h-4.92l-9.78-13.8zM521.44 239a12.44 12.44 0 0 1-9.42-3.63q-3.48-3.63-3.48-10.47v-2.64q0-6.78 3.51-10.44a13.88 13.88 0 0 1 18.78 0q3.51 3.66 3.51 10.44v2.46h-21.72v.18q0 5.22 2.4 7.8a8.35 8.35 0 0 0 6.42 2.58 8.91 8.91 0 0 0 5.67-1.56 9.08 9.08 0 0 0 2.85-3.9H534a14.12 14.12 0 0 1-1.44 3.6 10 10 0 0 1-2.52 2.91 12.16 12.16 0 0 1-3.72 1.95 15.53 15.53 0 0 1-4.92.72Zm0-27.12a8.16 8.16 0 0 0-6.21 2.43 10.76 10.76 0 0 0-2.61 6.93h17.58q-.24-4.68-2.61-7a8.38 8.38 0 0 0-6.15-2.34ZM57 338.42h72.7l-12.8 12.9a1.34 1.34 0 0 0 0 2 1.45 1.45 0 0 0 2 0l15.2-15.4a2.51 2.51 0 0 0 .4-.7v-.4a1.61 1.61 0 0 0-.4-.7l-15.2-15.4a1.45 1.45 0 0 0-2 0 1.34 1.34 0 0 0 0 2l12.8 12.9H57a1.37 1.37 0 0 0-1.4 1.4 1.43 1.43 0 0 0 1.4 1.4Z"/><path class="z" d="M57 338.42h72.7l-12.8 12.9a1.34 1.34 0 0 0 0 2 1.45 1.45 0 0 0 2 0l15.2-15.4a2.51 2.51 0 0 0 .4-.7v-.4a1.61 1.61 0 0 0-.4-.7l-15.2-15.4a1.45 1.45 0 0 0-2 0 1.34 1.34 0 0 0 0 2l12.8 12.9H57a1.37 1.37 0 0 0-1.4 1.4 1.43 1.43 0 0 0 1.4 1.4Z"/><path class="s" d="M117.94 354.72a2.41 2.41 0 0 1-1.7-.7 2.48 2.48 0 0 1 0-3.4l11.1-11.2H57a2.4 2.4 0 1 1 0-4.8h70.3l-11.1-11.2a2.48 2.48 0 0 1 0-3.4 2.61 2.61 0 0 1 3.5 0l15.2 15.4a2.4 2.4 0 0 1 .7 1.2v.5l-.1.5a2.13 2.13 0 0 1-.7 1.2l-15.2 15.4a2.86 2.86 0 0 1-1.7.5ZM57 336.52a.4.4 0 0 0 0 .8h75.1l-14.5 14.6c-.2.2-.2.5 0 .6a.37.37 0 0 0 .6 0l15.2-15.4c.1-.1.1-.1.1-.2v-.2c0-.1-.1-.1-.1-.2l-15.2-15.3a.37.37 0 0 0-.6 0c-.2.2-.2.5 0 .6l14.5 14.6-75.1.1Zm76.6.4Z"/><path class="z" d="M117.94 354.72a2.41 2.41 0 0 1-1.7-.7 2.48 2.48 0 0 1 0-3.4l11.1-11.2H57a2.4 2.4 0 1 1 0-4.8h70.3l-11.1-11.2a2.48 2.48 0 0 1 0-3.4 2.61 2.61 0 0 1 3.5 0l15.2 15.4a2.4 2.4 0 0 1 .7 1.2v.5l-.1.5a2.13 2.13 0 0 1-.7 1.2l-15.2 15.4a2.86 2.86 0 0 1-1.7.5ZM57 336.52a.4.4 0 0 0 0 .8h75.1l-14.5 14.6c-.2.2-.2.5 0 .6a.37.37 0 0 0 .6 0l15.2-15.4c.1-.1.1-.1.1-.2v-.2c0-.1-.1-.1-.1-.2l-15.2-15.3a.37.37 0 0 0-.6 0c-.2.2-.2.5 0 .6l14.5 14.6-75.1.1Zm76.6.4Z"/></svg>