<svg version="1.1" xmlns="http://www.w3.org/2000/svg" xmlns:xlink="http://www.w3.org/1999/xlink" x="0" y="0" viewBox="0 0 1237 394" style="enable-background:new 0 0 1237 394" xml:space="preserve"><style>.st2{fill:#a67c31}.st3{fill:#6d292d}.st4{fill:#c4c1a9}.st8{fill:#333}.st9{fill:#42210b}</style><defs><path id="SVGID_1_" d="M1238 395H-1V-1h1239v396z"/></defs><clipPath id="SVGID_00000072276934035620076160000001891823555679183033_"><use xlink:href="#SVGID_1_" style="overflow:visible"/></clipPath><path style="clip-path:url(#SVGID_00000072276934035620076160000001891823555679183033_);fill:#160b56" d="M-12-13h1261v419H-12z"/><g style="clip-path:url(#SVGID_00000072276934035620076160000001891823555679183033_)"><path class="st2" d="m927 301.1 8.6 7.9 102.8-92.9 210.1 55.9 1.2-132.3-29.4-108-32.6-26s-22.7 1-33.3 12.2c0 0-17.1-2-30.3 9.2 0 0-9.9-5.9-19.8-2.6s-9.2 5.3-9.2 5.3-7.2-1.3-13.2 2c0 0-14.5-4-27 5.9 0 0-13.8-2-23.7 3.3-9.9 5.3-17.8 12.5-17.8 12.5s-14.5 2-25.7 11.9-16.5 25.7-16.5 25.7-16.5 9.2-21.1 22.4-6.6 21.7-2.6 41.5L927 301.1z"/><path class="st3" d="m935.6 309.8-9.2-8.5 20.5-146.5c-3.9-19.6-2.1-28.1 2.7-41.7 4.4-12.6 19.2-21.5 21.2-22.6.7-2 6.1-16.5 16.6-25.7 10.5-9.3 24.1-11.7 25.8-12 1.1-1 8.6-7.6 17.8-12.5 9.3-5 21.8-3.6 23.8-3.4 11.7-9.1 25.1-6.4 27.1-5.9 5.1-2.7 10.9-2.3 12.8-2 .5-1.1 2.5-2.8 9.5-5.2 9.1-3 18 1.4 19.9 2.5 12.2-10.1 27.8-9.3 30.1-9.1 5.6-5.8 14.3-8.8 20.7-10.3 7-1.6 12.7-1.9 12.8-1.9h.2l.2.1 32.8 26.1.1.2 29.5 108.1v.1l-1.2 133.1-.7-.2-209.8-55.8-103.2 93.1zm-7.9-8.9 7.9 7.3 102.6-92.8.3.1 209.3 55.7 1.2-131.5-29.4-107.8-32.3-25.8c-2.4.1-22.9 1.7-32.6 12l-.2.2h-.3c-.2 0-17-1.8-29.9 9.1l-.3.3-.4-.2c-.1-.1-9.8-5.7-19.3-2.6-8 2.7-8.7 4.4-8.8 4.6l.3.9-1-.2c-.1 0-7.1-1.2-12.8 1.9l-.2.1-.2-.1c-.1 0-14.4-3.8-26.5 5.8l-.2.2h-.3c-.1 0-13.8-1.9-23.4 3.2-9.7 5.2-17.6 12.4-17.7 12.4l-.1.1h-.2c-.1 0-14.5 2.1-25.4 11.7-10.9 9.7-16.2 25.3-16.3 25.4l-.1.2-.2.1c-.2.1-16.3 9.3-20.8 22.1-4.7 13.4-6.5 21.9-2.6 41.2v.2l-20.1 146.2zm167.9-271.4z"/></g><g style="clip-path:url(#SVGID_00000072276934035620076160000001891823555679183033_)"><path class="st4" d="M867.4 470.8s-15.2-9.2-21.7-40.2-8.6-47.4-7.9-54.7c0 0 5.3 5.3 9.9 20.4 0 0 4-29.7 2.6-43.5l-4-7.9 7.9-29.7s-21.7-31-17.8-68.5c4-37.6 5.9-39.5 5.9-39.5s.7 21.1 12.5 44.1l8.6-43.5s3.3 0 9.9 7.2c0 0 6.6-.7 11.2 3.3 0 0 4.6-3.3 11.2-4l23.1-27.7 43.5 24.4s-5.3 25-15.2 51.4c-9.9 26.4-13.8 38.9-13.8 38.9s21.1-34.9 45.5-58 36.9-31 63.3-36.2c0 0 50.1-115.3 65.9-123.2 15.8-7.9 44.1-18.5 85-.7 0 0 5.9 41.5-2.6 67.2 0 0 29.7 90.3 42.2 101.5 12.5 11.2 13.8 31 13.8 31l3.4 201.7s-311.8 3.2-340.8-.1c-29.1-3.2-41.6-13.7-41.6-13.7z"/><path d="M1013.3 486.7c-52 0-94.6-.4-104.4-1.5-23-2.6-37.4-10.2-41.8-13.9-1.1-.7-15.5-10.2-22-40.6-6-28.2-8.7-46.7-7.9-54.9l.1-1.3.9.9c.2.2 4.8 4.9 9.2 18.1.9-7.6 3.3-29.3 2.3-40.5l-4-8 7.9-29.6c-2-2.9-21.5-33.1-17.7-68.7 3.8-35.9 5.7-39.5 6.1-39.9l1-1v1.4c0 .2.8 20.3 11.7 42.3l8.3-42.3h.5c.1 0 3.6.1 10.1 7.2 1.4-.1 6.8-.2 11 3.2 1.2-.8 5.3-3.2 10.9-3.8l23.2-27.9 44.3 24.8-.1.4c-.1.3-5.4 25.4-15.2 51.5-6.4 17-10.3 28.3-12.3 34.2 6.4-10 23.7-35.8 42.9-53.9 23.7-22.4 36.3-30.9 63.2-36.3 3.4-7.8 50.5-115.4 66.1-123.2 10-5 40.5-20.3 85.5-.7l.3.1v.3c.1.4 5.8 41.7-2.6 67.3 1.5 4.6 30 90.3 41.9 101 12.6 11.2 14 31.2 14 31.4l3.4 202.4h-.6c-1.9.1-136.3 1.5-236.2 1.5zM838.2 377.4c-.3 8.7 2.4 26.5 8 53 6.5 30.4 21.3 39.7 21.5 39.8l.1.1c.1.1 12.8 10.5 41.2 13.7 28 3.2 324.6.3 340.1.1l-3.4-201.1c0-.2-1.5-19.6-13.6-30.5-12.5-11.2-41.1-98-42.3-101.7l-.1-.2.1-.2c8-24.1 3.2-62.6 2.7-66.6-44.3-19.2-74.3-4.2-84.2.8-15.4 7.7-65.1 121.8-65.6 122.9l-.1.3-.3.1c-26.9 5.4-39.3 13.7-63 36.1-24 22.7-45.2 57.5-45.4 57.9l-2.6 4.3 1.5-4.8c0-.1 4.1-12.8 13.8-38.9 9.1-24.1 14.3-47.5 15-50.9l-42.7-23.9L896 215h-.2c-6.4.6-10.9 3.8-10.9 3.8l-.4.3-.4-.3c-4.4-3.7-10.7-3.2-10.8-3.2h-.3l-.2-.2c-4.9-5.3-7.9-6.6-9-7L855 253l-.8-1.5c-9.1-17.7-11.7-34.5-12.3-41.3-.9 4-2.6 13.6-5 36.4-3.9 36.9 17.5 67.8 17.7 68.1l.2.2-7.9 29.7 3.9 7.9c1.3 13.7-2.6 43.3-2.6 43.6l-.4 2.7-.8-2.6c-3.3-10.8-7.1-16.5-8.8-18.8z" style="fill:#668745"/></g><path style="clip-path:url(#SVGID_00000072276934035620076160000001891823555679183033_);fill:#668745" d="M937.6 411.8c0-.3-1.8-28.7-38.4-39s-39.5-11.8-39.7-11.9l-.1-.1-10.4-13.6 1-.7 10.3 13.5c.6.3 5.5 2.3 39.3 11.8 19.6 5.5 29.2 16.1 33.9 24 5 8.6 5.4 15.8 5.4 16.1l-1.3-.1z"/><path transform="rotate(-9.46 854.125 377.215)" style="clip-path:url(#SVGID_00000072276934035620076160000001891823555679183033_);fill:#668745" d="M853.7 355.5h1.2v43.4h-1.2z"/><path style="clip-path:url(#SVGID_00000072276934035620076160000001891823555679183033_);fill:#668745" d="M910.6 485.3c-1.2 0-1.7-.1-1.8-.1l.3-1.2s3.1.7 11.5-1.5c7.7-2 21.5-7 43.7-19.1 19.8-10.8 35.4-27.7 47.7-51.8 12.2-23.8 19.1-51.2 23.2-69.7 10.4-46.6-.5-67.9-.6-68.1l1.1-.6c.1.2 11.2 21.8.7 68.9-4.1 18.6-11 46-23.3 70-12.4 24.3-28.2 41.4-48.2 52.3-34.8 18.9-49.6 20.9-54.3 20.9z"/><path style="clip-path:url(#SVGID_00000072276934035620076160000001891823555679183033_);fill:#668745" d="m989.5 435.2-1-.7c20.3-30.2 27.5-55.5 36.2-90.7 8.4-34.4 4-62.7 3.9-63l1.2-.2c0 .3 4.5 28.9-4 63.5-8.7 35.3-15.9 60.8-36.3 91.1z"/><path style="clip-path:url(#SVGID_00000072276934035620076160000001891823555679183033_);fill:#668745" d="m944.7 474.4-.7-1c16.9-12.6 24-22.7 41.8-50.1 18.2-27.9 28.2-76.4 28.2-76.9l1.2.2c-.1.5-10.1 49.2-28.4 77.3-17.9 27.6-25 37.8-42.1 50.5zM928.1 364.3l-.9-.7c.1-.1 11.4-14.5 32.2-49.6 10.9-18.4 22-30.4 29.4-37.2 8-7.4 13.4-10.3 13.6-10.5l.6 1.1c-.2.1-21.9 12.2-42.6 47.2-20.8 35.2-32.2 49.6-32.3 49.7z"/><path style="clip-path:url(#SVGID_00000072276934035620076160000001891823555679183033_);fill:#668745" d="m902.5 374.8 1.1-1.4c.2-.3 24.6-32.8 52-68.6 41.2-54 61.7-64.3 71.7-63.5 15.9 1.3 31.4 16.7 32 17.3l-.8.8c-.2-.2-15.8-15.7-31.3-17-13.7-1.2-38.7 21.2-70.6 63-24.1 31.6-45.9 60.5-50.9 67.2l10-2.9 34.9-19.1.6 1.1-35 19.2-13.7 3.9z"/><path transform="rotate(-52.272 933.44 323.336)" style="clip-path:url(#SVGID_00000072276934035620076160000001891823555679183033_);fill:#668745" d="M872.8 322.7H994v1.2H872.8z"/><path transform="rotate(-58.445 912.38 335.542)" style="clip-path:url(#SVGID_00000072276934035620076160000001891823555679183033_);fill:#668745" d="M872.3 334.9h80v1.2h-80z"/><path style="clip-path:url(#SVGID_00000072276934035620076160000001891823555679183033_);fill:#668745" d="m876.1 365.4-1.1-.5c19.7-45.2 36.3-75.3 46.7-92.6 11.3-18.7 18-26.9 18.1-27l.9.8c-.1.1-6.8 8.2-18 26.9-10.4 17.2-26.9 47.2-46.6 92.4zM901.3 252.3v-1.2c.2 0 17.1-.1 31.9-11.1 14.9-11 25.5-26.7 25.6-26.9l1 .7c-.1.2-10.8 16-25.8 27.2-15.2 11.1-32.5 11.3-32.7 11.3zM1103.7 519.3c-1.9-15.8-5.1-28.8-8.6-42.6-5-20.1-10.7-42.8-13.8-80.7-2.1-25.5-3.3-46.6-4.2-63.6-1.4-25.8-2.5-44.5-5.6-59.5-5.2-24.7-29.7-65-29.9-65.4l1-.6c.2.4 24.8 40.9 30.1 65.8 3.2 15.1 4.2 33.8 5.7 59.7.9 17 2.1 38.1 4.2 63.6 3.1 37.8 8.8 60.5 13.8 80.5 3.4 13.8 6.7 26.8 8.6 42.7l-1.3.1z"/><path style="clip-path:url(#SVGID_00000072276934035620076160000001891823555679183033_);fill:#668745" d="M1070.7 305.9c-8.4-30.5-30.6-52.9-30.8-53.1l.8-.8c.2.2 22.6 22.9 31.1 53.6l-1.1.3z"/><path transform="rotate(-10.035 1074.53 366.29)" style="clip-path:url(#SVGID_00000072276934035620076160000001891823555679183033_);fill:#668745" d="M1074.1 282.7h1.2v167.6h-1.2z"/><path transform="rotate(-11.577 1066.996 370.931)" style="clip-path:url(#SVGID_00000072276934035620076160000001891823555679183033_);fill:#668745" d="M1066.4 274.1h1.2v193.7h-1.2z"/><path style="clip-path:url(#SVGID_00000072276934035620076160000001891823555679183033_);fill:#668745" d="M889.4 276.7h-1.2c0-.1.1-14.8 6.6-36.4 6.5-21.6 21-42.1 21.2-42.3l1 .7c-.1.2-14.5 20.6-21 42s-6.6 35.9-6.6 36zM879.5 267.6l-1.2-.2c3.9-28.8 15.1-46.8 15.2-47l1 .6c0 .2-11.1 18.1-15 46.6zM1087.9 310.9l-.3-1.2c.1 0 8.9-2.2 38.7-20.4 30-18.3 71.5-33.5 71.9-33.7l.4 1.1c-.4.2-41.8 15.3-71.7 33.6-30 18.4-38.6 20.5-39 20.6z"/><path transform="rotate(-84.255 1222.317 269.65)" style="clip-path:url(#SVGID_00000072276934035620076160000001891823555679183033_);fill:#668745" d="M1221.7 247.8h1.2v43.9h-1.2z"/><path style="clip-path:url(#SVGID_00000072276934035620076160000001891823555679183033_);fill:#668745" d="m1130.1 299.1-.2-1.2c.7-.1 66.8-13.7 99.4-28.2l.5 1.1c-32.8 14.5-99 28.1-99.7 28.3z"/><path style="clip-path:url(#SVGID_00000072276934035620076160000001891823555679183033_);fill:#668745" d="M1079 323c-1.2 0-1.9-.1-1.9-.1l.1-1.2c.2 0 18.9 1.6 56.5-13.3 37.8-15 64.7-27.6 64.9-27.7l.5 1.1c-.3.1-27.2 12.8-65 27.8-31.1 12.3-49.4 13.4-55.1 13.4zM1125.5 324.7l-.4-1.1c.1 0 12.3-4.2 48-23 36.1-19.1 54.5-7.7 55.3-7.2l-.6 1c-.2-.1-18.6-11.4-54.1 7.3-35.8 18.8-48 23-48.2 23z"/><path transform="rotate(-5.981 1122.79 324.758)" style="clip-path:url(#SVGID_00000072276934035620076160000001891823555679183033_);fill:#668745" d="M1085 324.2h76.2v1.2H1085z"/><path style="clip-path:url(#SVGID_00000072276934035620076160000001891823555679183033_);fill:#668745" d="m1127 355.6-29.3-22 3.5 1.2c.1 0 2.4.7 22.3 3.9 20.5 3.3 25.9 12.4 26.1 12.8l-1 .6c-.1-.1-5.4-9-25.3-12.2-11.3-1.8-16.9-2.8-19.8-3.4l24.2 18.1-.7 1zM1112.7 428.4c-12.5 0-25.8-1.8-26.7-1.9l.2-1.2c.3 0 32 4.3 43.6-.2 1.6-.6 3.5-1.3 5.7-2 13.1-4.6 35-12.3 59.4-36 27.9-27.2 35.4-52.9 35.4-53.1l1.2.3c0 .1-1.9 6.6-7.2 16.4-4.9 9.1-13.8 22.9-28.5 37.2-24.5 23.9-46.6 31.7-59.8 36.3-2.1.8-4 1.4-5.6 2-4.4 1.6-10.9 2.2-17.7 2.2z"/><path style="clip-path:url(#SVGID_00000072276934035620076160000001891823555679183033_);fill:#668745" d="m1115.3 428-.5-1.1c.3-.1 31.1-15.2 59.7-36.7 28.5-21.4 45.8-56.8 45.9-57.1l1.1.5c-.2.4-17.5 36-46.3 57.5-28.8 21.6-59.6 36.7-59.9 36.9z"/><g style="clip-path:url(#SVGID_00000072276934035620076160000001891823555679183033_)"><path class="st2" d="m864.4 210.8-2.6-26.4s3.3-7.9 0-17.1l-.7-12.5s1.3-5.9 2.6-7.9-.7-4.6-3.3-4c-2.6.7-5.3 3.3-5.3 9.2s-.7 14.5-.7 14.5l-15.8-2s-9.2-5.9-15.8-13.2-9.2-9.9-11.9-7.9c-2.6 2 .7 4.6 2 5.9 1.3 1.3 15.2 15.8 15.2 15.8s-9.7-4.9-17.1-12.5c-2.9-3-5.3-5.3-6.6-4s-2 4.6 4.6 10.5c0 0-3.3 2.6-.7 5.9l2.6 3.3s-2 3.3 0 5.9c2 2.6 7.9 9.9 13.8 13.2l5.9 3.3 9.9 5.3.7 23.1 14.5 40.2 8.7-48.6z"/><path class="st3" d="m855.3 259.8-14.5-40.2v-.2l-.6-22.7-9.6-5.1-5.9-3.3c-6.6-3.6-12.8-11.8-14-13.3-1.8-2.4-.7-5.2-.2-6.2l-2.4-3c-1.6-1.9-1.3-3.7-.7-4.8.3-.6.7-1.1 1-1.5-3.4-3.1-5.1-5.9-5.2-8.2 0-1.4.5-2.3 1-2.8.4-.4.8-.6 1.3-.6 1.6 0 3.5 1.9 6.1 4.5 4.6 4.7 10 8.3 13.5 10.4-4.1-4.3-11.4-12-12.4-12.9l-.4-.4c-1.1-1.1-2.8-2.7-2.7-4.4 0-.8.5-1.5 1.2-2 3.2-2.4 6.4 1.1 12.7 8 6.1 6.7 14.5 12.3 15.6 13L854 166c.1-2.1.6-8.9.6-13.8 0-7.8 4.4-9.5 5.7-9.8 1.5-.4 3 .2 3.9 1.4.8 1.1.8 2.4.1 3.5-1.2 1.7-2.4 6.9-2.5 7.6l.7 12.4c3.1 8.7.5 16.2 0 17.3l2.6 26.2v.2l-8.6 48.8h-1.2zm-13.4-40.5 13.7 38 8.2-46.5-2.6-26.3v-.3c0-.1 3.2-7.8 0-16.7v-.2l-.7-12.5v-.2c.1-.2 1.4-6.1 2.7-8.1.4-.7.4-1.5-.1-2.2-.4-.6-1.4-1.2-2.6-.9-1.4.4-4.8 1.9-4.8 8.6 0 5.9-.7 14.5-.7 14.5l-.7.5-15.8-2-.2-.1c-.1-.1-9.4-6.1-15.9-13.3-6.6-7.2-8.9-9.5-11.1-7.8-.5.4-.7.7-.8 1.2-.1 1.1 1.4 2.5 2.3 3.4l.5.5c1.3 1.3 14.6 15.2 15.2 15.8l-.7 1c-.1 0-9.9-5-17.3-12.6-1.7-1.8-4-4.1-5.2-4.2-.2 0-.3.1-.5.2-.3.3-.7.9-.7 1.9 0 1.4 1 3.9 5.3 7.8v.9c-.3.2-2.8 2.4-.6 5.1l2.6 3.3v.7s-1.7 3 0 5.3c.7 1 7.2 9.4 13.6 13l5.9 3.3 9.9 5.3.3.5.8 23.1z"/></g><path style="clip-path:url(#SVGID_00000072276934035620076160000001891823555679183033_);fill:#6d292d" d="M828.5 175.7c-.1-.1-12-8-19.9-15.9l.8-.8c7.8 7.8 19.6 15.7 19.7 15.7l-.6 1zM831.8 185c-.1-.1-12.7-6.7-21.2-15.9l.9-.8c8.4 9 20.8 15.6 20.9 15.7l-.6 1z"/><g style="clip-path:url(#SVGID_00000072276934035620076160000001891823555679183033_)"><path class="st2" d="M870.3 357.8s2-22.4 6.6-34.9 5.3-15.2 5.3-15.2l-1.3-13.8 4.6-12.5s-3.3-14.5-2-22.4c1.3-7.9 5.1-13 1.5-14.7s-7.5 5.5-8.8 10.8c-1.3 5.3-1.3 13.2-1.3 13.2l-14.5-7.2s-6.9-7.6-11.9-13.2c-4-4.6-7.6-10.2-9.9-9.2-2.6 1.1 0 4.6 2.3 8.2 2.3 3.6 13.2 17.8 13.2 17.8l-9.6-8.2s-9.9-10.5-11.9-11.9-3-.3-4 .7c-.7.7-.7 2.6-.7 2.6s-2.3-1-3.3 1.3c-.7 1.7 2 5.3 3.6 7.6 2.2 3 3.6 5.6 3.6 5.6s-4 1.3.7 7.2c4.6 5.9 2.6 10.5 11.2 18.5 8.6 7.9 18.5 13.8 18.5 13.8s2.6 50.7 4 52.7 4.1 3.2 4.1 3.2z"/><path class="st3" d="M870.1 358.3c-.1-.1-2.8-1.4-4.2-3.5-1.3-2-3.6-43.5-4-52.7-1.7-1-10.6-6.6-18.3-13.7-5.3-4.9-6.6-8.5-7.9-12-.8-2.2-1.6-4.3-3.4-6.5-2-2.5-2.7-4.6-2.2-6.2.3-.8.8-1.3 1.2-1.6-.5-.9-1.7-2.8-3.3-5l-.4-.5c-1.8-2.6-4.1-5.8-3.3-7.7.6-1.5 1.7-1.8 2.5-1.9h.8c.1-.7.3-1.8.8-2.3 1-1 2.3-2.3 4.7-.7 2 1.3 11.6 11.5 12 12l5.2 4.4c-3.4-4.5-8.3-11-9.7-13.3l-.6-.9c-1.8-2.7-3.3-5.1-2.8-6.8.2-.6.6-1.1 1.3-1.4 2.2-.9 4.6 2.1 7.7 5.9.9 1.1 1.9 2.3 2.9 3.4 4.6 5.2 11 12.3 11.8 13.1l13.5 6.8c0-2.3.3-8.1 1.3-12.4 1.1-4.4 3.9-9.8 6.8-11.2 1-.5 1.9-.5 2.8 0 2.8 1.4 1.8 4.4.6 8.3-.6 2.1-1.4 4.4-1.8 7.1-1.3 7.7 1.9 22 2 22.2v.3l-4.6 12.4 1.3 13.7v.2c0 .1-.7 2.8-5.3 15.2-4.5 12.3-6.5 34.5-6.6 34.8l-.8.5zm-43-110.2c-.6 0-1.2.2-1.6 1.2-.5 1.3 1.8 4.5 3.2 6.5l.4.5c2.2 3 3.6 5.6 3.7 5.7l-.3.9s-.8.3-1.1 1.2c-.2.8-.1 2.4 2 5.1 1.9 2.4 2.7 4.6 3.5 6.9 1.2 3.4 2.5 6.8 7.6 11.5 8.4 7.8 18.3 13.7 18.4 13.8l.3.5c1 20.1 2.9 50.6 3.9 52.4.8 1.2 2.1 2.1 2.9 2.6.4-4.4 2.5-23.1 6.5-34.1 4.1-11.1 5.1-14.4 5.2-15l-1.3-13.7v-.3l4.6-12.4c-.4-1.7-3.2-14.9-1.9-22.5.5-2.8 1.2-5.2 1.9-7.3 1.2-4 1.8-5.9 0-6.8-.6-.3-1.2-.3-1.8 0-2.5 1.2-5.1 6.2-6.1 10.4-1.3 5.1-1.3 13-1.3 13l-.9.5-14.7-7.4c-.1-.1-7-7.6-11.9-13.2-1-1.1-2-2.3-2.9-3.5-2.4-3-5-6.2-6.3-5.6-.5.2-.6.5-.7.6-.4 1.2 1.2 3.5 2.6 5.8l.6.9c2.2 3.5 13 17.6 13.1 17.7l-.9.8-9.6-8.2c-3.4-3.7-10.3-10.8-11.8-11.8-1.6-1-2.2-.4-3.2.6-.3.3-.5 1.5-.5 2.2l-.8.6c-.1 0-.4-.1-.8-.1z"/></g><g style="clip-path:url(#SVGID_00000072276934035620076160000001891823555679183033_)"><path class="st2" d="M1060.1 184.5s-1.3 9.9 7.9 14.5c9.2 4.6 22.4 7.2 34.9 3.3 0 0 6.6-12.5 22.4-21.7 0 0 11.9-11.9 13.8-27 2-15.2 2.6-20.4 0-27-2.6-6.6-4-17.8-10.5-24.4s-14.5-15.8-20.8-18.1-14.8.3-21.4 5.6-7.9 15.8-7.9 15.8-4.6 4.6-6.6 11.9c-2 7.2-1.3 9.2-1.3 9.2s-5.3 8.6-6.6 19.1c-1.2 10.4-3.9 38.8-3.9 38.8z"/><path class="st3" d="M1090.1 204.8c-7.6 0-15.3-1.8-22.3-5.3-9.3-4.7-8.3-14.6-8.2-15.1.1-.6 2.7-28.5 4-38.9 1.2-9.6 5.7-17.7 6.5-19.1-.1-.8-.3-3.3 1.4-9.3 1.8-6.7 5.8-11.1 6.6-12 .2-1.5 1.8-11 8.1-16 7.2-5.7 15.8-8 22-5.7 5.2 1.9 11.2 8.1 17 14.2 1.4 1.4 2.7 2.8 4 4.1 4.8 4.8 6.8 11.9 8.6 18.1.7 2.4 1.3 4.6 2.1 6.5 2.7 6.8 2 12.4 0 27.3-2 15.2-13.9 27.2-14 27.4l-.1.1c-15.5 9-22.1 21.4-22.2 21.5l-.1.2-.2.1c-4.3 1.2-8.7 1.9-13.2 1.9zm12.8-121c-5.1 0-11 2.3-16.1 6.3-6.3 5.1-7.7 15.3-7.7 15.4v.2l-.1.1s-4.5 4.6-6.4 11.6c-1.9 6.8-1.3 8.9-1.3 8.9l.1.3-.1.2c-.1.1-5.2 8.6-6.5 18.9-1.3 10.4-3.9 38.6-4 38.9-.1.4-1.1 9.5 7.6 13.9 10.8 5.4 23.6 6.6 34.2 3.3 1-1.7 7.9-13.2 22.4-21.7.9-.9 11.8-12.4 13.6-26.6 1.9-14.7 2.6-20.2 0-26.7-.8-1.9-1.4-4.2-2.1-6.6-1.7-6.1-3.7-13-8.3-17.6-1.3-1.3-2.6-2.7-4-4.1-5.5-5.7-11.6-12.1-16.5-13.9-1.5-.6-3.1-.8-4.8-.8z"/></g><g style="clip-path:url(#SVGID_00000072276934035620076160000001891823555679183033_)"><path class="st2" d="m853.2 360.4-6.9-15.5s-9.2-11.2-10.9-19.4c0 0-.7-5.3-5.3-13.2-4.6-7.9-2.6-17.1-2.6-17.1s-3.3-2-4.9 1c-1.4 2.6-2.3 5.6-.3 13.5 2 7.9 2.6 10.5 2.6 10.5l-15.8.7s-9.2-3.3-15.8-8.6c-6.6-5.3-9.9-7.2-11.5-6.9-2.7.5-2.3 3.6 1 6.3 3.3 2.6 7.9 5.9 7.9 5.9s-6.6-3.9-9.9-5.3c-2.3-1-4.6 0-4.6 2s.7 2.6 2 3.3c0 0-3 3 2.6 7.2 0 0-1.6 2.3 3.3 7.2 4 4 7.9 9.9 23.1 15.2l18.1 6.3s10.9 14.2 16.8 32l4.6 14.5 4.6-2 1.9-37.6z"/><path class="st3" d="m846.3 400.8-4.8-15.1c-5.5-16.5-15.5-30.1-16.6-31.6l-17.9-6.2c-13.2-4.6-18.1-9.8-21.7-13.6-.6-.6-1.1-1.2-1.6-1.7-4-4-3.9-6.5-3.6-7.5-2.1-1.7-3.2-3.4-3.3-5-.1-1 .2-1.7.5-2.2-1.1-.7-1.7-1.6-1.7-3.5 0-1 .5-1.8 1.3-2.4 1.1-.7 2.7-.8 4.2-.2.7.3 1.4.7 2.3 1.1-.3-.2-.6-.5-.9-.7-2.2-1.8-3.3-3.8-2.9-5.4.2-1 1-1.7 2.2-1.9 1.9-.4 5.1 1.5 12 7 6.1 4.8 14.5 8 15.5 8.4l15-.6-2.5-9.8c-1.9-7.6-1.3-11 .4-13.9.5-1 1.3-1.6 2.2-1.8 1.7-.5 3.5.6 3.6.6l.4.2-.1.4c0 .1-1.9 9.1 2.6 16.7 4.6 7.9 5.3 13.2 5.3 13.4 1.6 7.9 10.6 19 10.7 19.1l.1.1 7 15.6v.1l-2 37.9-5.7 2.5zm-67.4-88.3c-.5 0-1.1.1-1.5.4-.3.2-.7.6-.7 1.4 0 1.7.5 2.2 1.6 2.8l.7.4-.6.6s-.7.7-.6 1.9c.1 1.4 1.2 2.9 3.2 4.4l.5.4-.3.5s-1.2 2 3.2 6.5c.5.5 1.1 1.1 1.6 1.7 3.7 3.9 8.2 8.8 21.2 13.3l18.3 6.3.1.1c.1.1 11 14.5 16.9 32.1l4.4 13.9 3.7-1.6 1.9-37-6.8-15.3c-.8-1-9.3-11.6-10.9-19.6 0-.1-.7-5.3-5.2-13-4.1-7.1-3.1-15.1-2.8-17.1-.5-.2-1.4-.5-2.3-.3-.6.2-1.1.6-1.5 1.2-1.3 2.3-2.3 5.1-.3 13.1l2.8 11.3-16.7.7h-.1c-.1 0-9.4-3.4-16-8.7-4.2-3.4-9.2-7.2-11-6.8-.7.1-1.2.5-1.3 1-.2.9.5 2.6 2.5 4.2 3.2 2.6 7.8 5.9 7.9 5.9l-.7 1c-.1 0-6.6-3.9-9.8-5.2-.3-.4-.9-.5-1.4-.5z"/></g><g style="clip-path:url(#SVGID_00000072276934035620076160000001891823555679183033_)"><path class="st2" d="M1129.3 287.9s5.3-12.5 6.6-29.7.7-28.3.7-28.3-5.9-5.9-7.2-9.9 0-7.2 2-15.2c2-7.9 5.3-14.5 13.8-20.4s9.2-7.2 9.2-7.2.7-6.6 6.6-11.2c5.9-4.6 13.2-13.8 25-17.8 11.9-4 29-5.9 39.5 2.6 10.5 8.6 21.7 22.4 21.7 22.4l-2 67.2-7.9 3.3s-2 8.6-12.5 9.9c-10.5 1.3-12.5-1.3-12.5-1.3s-4 3.3-9.2 3.3-7.9-3.3-7.9-3.3l-6.6.7-4.6 8.9s-44.1 19.4-54.7 26z"/><path class="st3" d="m1128 289.4.7-1.7c.1-.1 5.2-12.6 6.5-29.5 1.2-15.6.8-26.4.7-28-1-1-6-6.2-7.2-10-1.2-3.5-.4-6.5 1.1-12 .3-1.1.6-2.2.9-3.5 1.7-6.9 4.6-14.2 14.1-20.8 7.1-4.9 8.7-6.6 9-7 .1-1.1 1.2-7.1 6.8-11.5 1.5-1.2 3.2-2.7 5-4.4 5.1-4.7 11.4-10.6 20.3-13.5 24.2-8.1 36.8.1 40.1 2.7 10.5 8.5 21.7 22.4 21.8 22.5l.1.2v.2l-2 67.6-8 3.3c-.5 1.6-3.3 8.8-12.9 10-8.4 1.1-11.6-.4-12.6-1.1-1.2.9-4.7 3.1-9.2 3.1-4.7 0-7.4-2.5-8.2-3.3l-6 .6-4.6 8.8-.2.1c-.4.2-44.2 19.5-54.6 26l-1.6 1.2zm77.6-143.9c-6.7 0-13.6 1.4-19.4 3.3-8.6 2.9-14.8 8.6-19.8 13.3-1.8 1.6-3.5 3.2-5 4.4-5.6 4.4-6.4 10.7-6.4 10.8l-.1.2c-.1.2-1.1 1.7-9.4 7.5-9.1 6.3-11.9 13.4-13.6 20.1-.3 1.3-.6 2.5-.9 3.5-1.4 5.4-2.1 8.2-1.1 11.3 1.3 3.8 7 9.6 7.1 9.6l.2.2v.2c0 .1.6 11.4-.7 28.4-1 13.5-4.6 24.2-6 28.2 12.1-7 50-23.7 53.1-25.1l4.7-9 7.2-.7.2.3s2.5 3.1 7.4 3.1c5 0 8.8-3.1 8.8-3.2l.5-.4.4.5s2.1 2.3 12 1.1c10-1.2 11.9-9.1 12-9.4l.1-.3 7.8-3.3 2-66.6c-1.3-1.6-11.8-14.2-21.5-22.1-5.3-4.3-12.3-5.9-19.6-5.9z"/></g><g style="clip-path:url(#SVGID_00000072276934035620076160000001891823555679183033_)"><path class="st2" d="M916.5 214.8s20.4 4.6 34.9 1.3l14.5-3.3s13.8 2 25-13.8c0 0 9.9 2.6 16.5 6.6 6.6 4 20 5.5 27.2 3.8 0 0 13.7 2.2 20.3-14.3 0 0 13.8-9.9 13.8-28.3 0 0 7.2-22.4-8.6-42.2-15.8-19.8-31.6-28.3-50.1-25.7s-27.7 11.9-34.3 20.4c0 0-4-.7-6.6 5.3-2.6 5.9-8.6 7.2-14.5 13.8-5.9 6.6-9.2 13.2-9.2 13.2s-4.6-1.3-11.9 7.2c-7.1 8.5-21 21.7-17 56z"/><path class="st3" d="M939.3 217.9c-11.6 0-22.8-2.5-22.9-2.5l-.4-.1v-.4c-3.7-32.2 8-45.7 15.7-54.7.5-.6 1.1-1.2 1.5-1.8 6.2-7.3 10.6-7.6 12-7.5.8-1.5 4-7.3 9.1-12.9 2.6-2.9 5.2-4.8 7.5-6.4 2.9-2.1 5.5-4 6.9-7.2 2.3-5.3 5.7-5.7 6.9-5.6 6.7-8.6 16.1-17.8 34.5-20.4 18.3-2.6 34.4 5.6 50.6 25.9 15.3 19.1 9.2 41 8.7 42.6 0 17.5-12.5 27.5-13.9 28.6-3.5 8.6-8.9 12.1-12.9 13.5-3.9 1.4-7.2 1.1-7.8 1-7.6 1.8-21.2 0-27.5-3.8-5.7-3.4-14-5.9-15.9-6.4-5.8 8.1-12.3 11.4-16.8 12.7-4.5 1.4-7.8 1.1-8.5 1l-14.4 3.3c-4 .8-8.3 1.1-12.4 1.1zm-22.3-3.6c3 .6 21.2 4.2 34.2 1.2l14.6-3.3h.1c.1 0 13.6 1.7 24.5-13.6l.2-.3.4.1c.4.1 10 2.7 16.6 6.7 6.1 3.7 19.4 5.5 26.7 3.7h.2c.5.1 13.3 1.9 19.6-13.9l.1-.2.1-.1c.1-.1 13.6-9.9 13.6-27.8v-.2c.1-.2 7-22.3-8.5-41.6-15.9-19.9-31.7-28-49.5-25.5-18.2 2.6-27.3 11.7-33.9 20.2l-.2.3-.4-.1c-.1 0-3.5-.5-5.9 4.9-1.6 3.5-4.2 5.5-7.3 7.7-2.2 1.6-4.8 3.5-7.3 6.3-5.8 6.4-9.1 13-9.1 13l-.2.4-.5-.1s-4.4-1-11.2 7.1l-1.5 1.8c-7.5 8.7-18.9 21.9-15.4 53.3z"/></g><path style="clip-path:url(#SVGID_00000072276934035620076160000001891823555679183033_);fill:#6d292d" d="m1073.6 114.4-1.2-.1c0-.3 3.3-32.5-20.5-48.5-12.4-8.4-22.2-11.2-28.2-12-6.5-.9-10.1.2-10.1.2l-.4-1.1c.6-.2 15.1-4.5 39.4 11.9 24.3 16.4 21 49.2 21 49.6z"/><path style="clip-path:url(#SVGID_00000072276934035620076160000001891823555679183033_);fill:#6d292d" d="M1127.8 75.7c-.1-.3-12.4-26.4-38-28.3-27-2-38.1 4.6-48 12.1l-.7-1c10.1-7.7 21.5-14.4 48.8-12.3 26.4 2 38.9 28.7 39 29l-1.1.5z"/><path style="clip-path:url(#SVGID_00000072276934035620076160000001891823555679183033_);fill:#6d292d" d="m1070.3 47.2-1.2-.2c.9-6.1 3.6-9.1 5.7-10.5 1.7-1.2 3.3-1.5 4.1-1.6 1.4-3.2 4-4.5 4.1-4.6l.5 1.1s-2.5 1.3-3.7 4.3l-.1.4h-.4c-.4.1-7.5.3-9 11.1z"/><path style="clip-path:url(#SVGID_00000072276934035620076160000001891823555679183033_);fill:#6d292d" d="M1070 46.8c-5.7-9.5-16.7-8.6-16.8-8.6l-.1-1.2c.1 0 11.8-1 17.9 9.2l-1 .6zM1205.3 144.8l-1.1-.4c.1-.3 9.4-27.1 38.6-21.2l-.2 1.2c-11.8-2.4-21.6.3-29.2 8-5.8 5.8-8.1 12.3-8.1 12.4zM1122.7 182.3c-3.1-9.7 1.9-16.1 3.3-17.7-.8-1.3-3.1-5.8-2.5-9.9.6-4.1 4-7.6 5.1-8.6-.4-1-1.6-3.6-3.1-8.2-.9-2.7-.9-5.2-.9-7.3 0-2.8 0-5.2-1.7-7.7-2.6-3.7-2.9-5.8-2.8-6.7-3.4-3-3.8-7.4-3.9-8.5-.4-.4-1.8-1.5-5.7-4.4-4.7-3.5-7.8-8.5-8.6-9.8-13 .2-16.9 8.8-16.9 8.9l-.1.3-.3.1c-3.7.6-6.5 4-6.6 4.1l-.9-.8c.1-.2 3-3.6 7-4.4.9-1.6 5.6-9.3 18.2-9.3h.4l.2.3c0 .1 3.3 5.9 8.4 9.7 5.2 3.9 5.9 4.6 6 4.7l.2.2v.2c0 .1.1 5 3.7 8.1l.3.3-.1.4s-.4 1.8 2.6 6.1c2 2.8 1.9 5.5 1.9 8.4 0 2.2 0 4.4.8 7 1.9 5.8 3.2 8.5 3.3 8.5l.2.4-.4.3s-4.4 3.9-5.1 8.2c-.6 4.3 2.5 9.4 2.6 9.5l.3.4-.4.3c-.3.3-6.6 6.3-3.3 16.8l-1.2.1zM1192.5 199h-1.2s-.1-2.5-3.2-6.9c-3.3-4.6-4.6-9.2-4.7-9.4l1.2-.3s1.3 4.6 4.5 9c3.4 4.7 3.4 7.4 3.4 7.6zM1171 173.6s-2.7-3.6-7-5.1c-3-1-3.7-1.7-3.9-1.8l.8-.8s.7.6 3.4 1.5c4.6 1.5 7.4 5.3 7.5 5.5l-.8.7zM1186 200.3c-.6-8.1-6-10.6-6.2-10.7l.5-1.1c.3.1 6.3 2.9 6.9 11.7l-1.2.1zM1165 178.8c0-.1-3.1-5.4-8.3-8.1l.6-1.1c5.4 2.9 8.6 8.3 8.7 8.6l-1 .6zM1151.5 201.5c-1.4-.5-3.3-2-4-4-.5-1.4-.4-2.8.4-4.1 1.4-2.3 4.8-2.6 9.1-3 2.6-.2 5.6-.5 8.4-1.3 6.9-1.9 10.1-9.5 10.1-9.5l1.1.5c-.1.3-3.5 8.2-10.9 10.2-2.9.8-5.9 1.1-8.6 1.3-3.8.3-7.2.6-8.2 2.4-.6 1-.7 2-.3 3.1.6 1.6 2.1 2.9 3.3 3.3l-.4 1.1z"/><path style="clip-path:url(#SVGID_00000072276934035620076160000001891823555679183033_);fill:#6d292d" d="M1112.4 133.4c0-.1-3.9-5.2-9-7.7-5.3-2.7-7.4-5.3-7.5-5.4l1-.7s2 2.6 7 5.1c5.3 2.7 9.3 7.9 9.4 8.1l-.9.6zM1072.3 117.7l-.7-.9c6.1-4.8 11.6-2.8 11.8-2.7l-.4 1.1c-.2-.1-5.1-1.8-10.7 2.5zM1181.5 78.4l-.9-.8c.1-.2 3.2-3.9 10-6.7 6.2-2.6 16.9-4.9 32.4-1.1l-.3 1.2c-15.1-3.7-25.5-1.5-31.6 1-6.5 2.8-9.6 6.4-9.6 6.4zM998 102c-3.2-7.6-10.7-7.9-11-7.9v-1.2c.1 0 8.5.2 12.1 8.6l-1.1.5zM992.7 104.6c-1.2-3.8-8.4-5.2-8.4-5.2l.2-1.2c.3.1 8 1.5 9.4 6l-1.2.4zM1005.5 154.2s-.7-4.5-6.4-10.2c-6.1-6.1-5.5-10.9-5.4-11.1l1.2.2-.6-.1.6.1s-.5 4.4 5.1 10c6 6 6.7 10.7 6.8 10.9l-1.3.2zM996.8 159.6l-1.2-.3c0-.1 1.8-8.2-1.8-11.3-4-3.3-6-6.6-6.1-6.7l1-.6s2 3.3 5.8 6.4c4.3 3.5 2.4 12.1 2.3 12.5zM981.1 125.4c0-.1-1.9-5.5-5.4-5.5v-1.2c4.3 0 6.4 6.1 6.5 6.3l-1.1.4zM975.8 133.1c0-.3-.6-6.8-7.2-6.4l-.1-1.2c7.8-.4 8.5 7.4 8.5 7.5l-1.2.1zM961.3 158.7c-1.6 0-6.5-4.2-7.2-7-.7-2.7 3.9-5.1 16.2-8.6 8.9-2.5 12.9-7 12.9-7.1l.9.8c-.2.2-4.2 4.8-13.5 7.4-4 1.1-16 4.6-15.4 7.2.6 2.5 5.1 6.1 6 6.1.8 0 2-.2 3.5-2.4l1 .7c-1.3 2-2.7 2.9-4.4 2.9zM1046.2 109.3l-.9-.8c4.9-5.2 5.8-11.5 3-19.3-3-8.4-11.1-16.1-21.4-20.7-11.6-5.1-29.8-2-30-1.9l-.4.1-3.1-6.2 1.1-.5 2.7 5.4c3-.5 19.2-2.8 30.2 2.1 10.7 4.7 18.9 12.7 22.1 21.4 3 8 1.9 14.9-3.3 20.4zM1038.6 164l-.4-1.1c18.3-5.7 14.8-19.6 14.8-19.7l1.2-.3s3.8 15-15.6 21.1zM1027.8 173.2V172c13.9 0 17.2-5.6 17.3-5.6l1 .6c-.1.2-3.6 6.2-18.3 6.2zM952.5 169.9c-3.5-1.4-4.9-6.1-5-6.3l1.2-.3s1.3 4.3 4.3 5.5l-.5 1.1z"/><path style="clip-path:url(#SVGID_00000072276934035620076160000001891823555679183033_);fill:#6d292d" d="M969.1 177.9h-1.2c0-14.6-5.5-19.2-5.6-19.2l.7-.9c.3.1 6.1 4.8 6.1 20.1zM953.7 154s-2-1.3-8.3-1.9l.1-1.2c6.7.7 8.8 2 8.8 2.1l-.6 1zM989.9 158.6c-7.5-6.8-2.8-14.5-2.7-14.6l1 .6c-.2.3-4.2 6.9 2.5 13.1l-.8.9zM969.5 136.8c-3.5-2.8-3.5-8.4-3.5-8.6h1.2c0 .1.1 5.3 3.1 7.7l-.8.9zM1046.1 187.5l-.9-.8c9.5-10.1 5.9-17 5.8-17.1l1.1-.6c.2.3 4 7.8-6 18.5zM1029.4 202.2l-.4-1.1c3.7-1.5 6.2-3.7 7.2-6.6 1.8-5-.9-10.3-1-10.3l1.1-.6c.1.2 3 5.9 1 11.3-1.2 3.2-3.9 5.6-7.9 7.3zM993.9 186.4c-.5 0-.9 0-1.4-.1-5.7-.7-9.2-5.9-9.3-6.1l1-.7s3.3 4.9 8.5 5.6c3.2.4 6.5-.8 9.7-3.7l.8.9c-3.1 2.7-6.2 4.1-9.3 4.1zM963.1 117.8c-.7-.2-7.1-2.2-6.3-5.3.5-1.9 1.8-2.6 4.5-4 1.5-.8 3.6-1.9 6.3-3.6 7-4.5 10.3-10.3 10.3-10.3l1 .6c-.1.2-3.5 6.1-10.7 10.8-2.7 1.7-4.9 2.8-6.4 3.7-2.5 1.3-3.5 1.8-3.9 3.2-.4 1.6 3.5 3.3 5.5 3.9l-.3 1zM977.9 89.9s-2.3-3.1-4.7-3.4l.1-1.2c3 .4 5.4 3.7 5.6 3.8l-1 .8zM975.2 94.3s-.9-3.1-3.7-4.2l.5-1.1c3.4 1.4 4.4 4.9 4.4 5l-1.2.3zM1005 195.6l-.5-1.1c11.9-5.3 19.9-2.8 20.2-2.7l-.4 1.1s-7.8-2.4-19.3 2.7zM1011.7 181.7l-.6-1c12-7.3 18-5.4 18.3-5.3l-.4 1.1.2-.6-.2.6c-.1 0-5.9-1.8-17.3 5.2zM957.9 180.8l-1-.6c6.3-11.3.4-17.5.1-17.7l.8-.8c.1.1 1.8 1.8 2.6 5 .8 3 1 7.8-2.5 14.1zM953.1 159.3c-.1 0-7-3.7-13.2 0l-.6-1c6.8-4.1 14.1-.2 14.4 0l-.6 1zM1194.5 241.1c-5.3 0-10.5-1.9-10.8-2l.4-1.1c.1 0 5.2 1.9 10.3 1.9 3.4 0 7.5-1.8 9.5-4.1.6-.7 1.3-1.9 1.1-3.1-.5-3.3-7.8-2.2-7.9-2.1l-.2-1.2c.3-.1 8.5-1.4 9.3 3.1.2 1.3-.3 2.7-1.4 4.1-2.1 2.6-6.4 4.5-10.3 4.5zM1146 211.9c-4.7-4.7-5.4-8.7-5.4-8.9l1.2-.2s.7 3.8 5.1 8.2l-.9.9zM1142.7 213.9c-2.1-2.1-2.8-5.4-2.8-5.6l1.2-.2s.7 3.1 2.5 5l-.9.8zM1182.3 200.7c-4.1-4.1-4.1-9.4-4.1-9.6h1.2c0 .1.1 5.1 3.8 8.8l-.9.8zM1161.5 178.5c-4.1-.7-6.5-3-6.6-3.1l.8-.8s2.2 2.2 5.9 2.8l-.1 1.1z"/><path transform="rotate(-61.197 1155.475 181.19)" style="clip-path:url(#SVGID_00000072276934035620076160000001891823555679183033_);fill:#6d292d" d="M1154.9 177.2h1.2v8h-1.2z"/><path style="clip-path:url(#SVGID_00000072276934035620076160000001891823555679183033_);fill:#6d292d" d="M1178.9 209.2c-3.3-5.3-4.6-13.1-4.7-13.4l1.2-.2c0 .1 1.3 7.9 4.5 13l-1 .6zM1218.9 222c-1.8 0-4-.4-6.8-1.4l.4-1.1c9.8 3.7 12.3-1.4 12.4-1.7l.2-.4h.4c15.1.6 16.5-10.2 16.5-10.7l1.2.1c0 .1-1.6 12.2-17.4 11.7-.5 1.1-2.4 3.5-6.9 3.5zM1215.1 228.3c-5.7 0-11.3-3-11.6-3.1l.6-1.1c.1.1 9.7 5.1 15.9 2l.5 1.1c-1.7.8-3.5 1.1-5.4 1.1zM1231.7 235.9c-.7 0-1-.1-1.1-.2l.4-1.1-.2.6.2-.6s3.3 1 12-5.2l.7 1c-6.7 4.8-10.3 5.5-12 5.5zM1109.1 137.4s-1.4-1.3-5.8-3.9c-4.7-2.7-6.1-5.4-6.2-5.5l1.1-.5s1.3 2.5 5.7 5c4.6 2.6 6 4 6.1 4.1l-.9.8zM1071.3 122.9l-.5-1.1c5.1-2.2 9.1-1.2 9.2-1.2l-.3 1.2s-3.7-.9-8.4 1.1z"/><path style="clip-path:url(#SVGID_00000072276934035620076160000001891823555679183033_);fill:#6d292d" d="M1104.4 134.8c-1.2 0-3.7-.1-5.7-1.1-2.9-1.5-3-3.7-3-3.8h1.2-.6.6c0 .1.1 1.6 2.3 2.8 2.5 1.2 5.8 1 5.8 1l.1 1.2c0-.2-.2-.1-.7-.1zM1101.6 141.9c-5.8 0-9-5.2-9.1-5.3l1-.6c.2.3 3.8 6.2 10.5 4.3l.3 1.2c-.9.3-1.8.4-2.7.4zM1081.9 148.8c-.8 0-5.9-.5-5.9-2.6 0-1.6 2.1-6.9 6.1-11.6 3.9-4.5 7.1-11 7.2-11.1l1.1.5c-.1.3-3.4 6.7-7.3 11.3-3.8 4.5-5.8 9.6-5.8 10.8 0 .5 2.8 1.4 4.7 1.4v1.3zM1092.3 176.6l-1.2-.1c0-.1.6-6.4-3.8-12.1-4.7-6-4.7-9.5-4.7-9.6h1.2-.6.6s.1 3.2 4.5 8.9c4.7 6 4.1 12.6 4 12.9zM1086.4 178.1l-1.1-.4c.1-.2 1.8-5.7-3.1-10.6-5.3-5.3-6.7-8.6-6.7-8.8l1.1-.4s1.4 3.3 6.5 8.4c5.3 5.4 3.4 11.5 3.3 11.8zM1133.2 119.8c-6.7-1.2-8.1-6.2-8.3-7.5-4-2.8-4-8-4-8.3h1.2s.1 5 3.7 7.4l.2.2v.3c0 .2.7 5.5 7.4 6.7l-.2 1.2zM1137 133.3c-6.2-2.8-6.3-7-6.3-7.1h1.2-.6.6c0 .1.1 3.6 5.6 6l-.5 1.1zM1137 152.1c-7.5-3.4-7.6-12.3-7.6-12.4h1.2c0 .1.1 8.2 6.9 11.3l-.5 1.1z"/><path style="clip-path:url(#SVGID_00000072276934035620076160000001891823555679183033_);fill:#6d292d" d="M1079.7 165.9c-7-1.7-10.3-4.3-10.4-4.4l.7-.9s3.3 2.6 10 4.2l-.3 1.1zM1119.1 129.6c-11.3-8-11.5-18.5-11.5-18.9h1.2c0 .1.2 10.3 10.9 18l-.6.9zM1120.2 146.5c-2.7-6.8-3.5-11.2-2.2-13.1.6-.8 1.3-.9 1.4-.9v1.2s-.3 0-.5.4c-.4.7-1.1 3.4 2.3 12l-1 .4zM1107 165.9c-.7 0-1.4-.1-1.9-.2-3.2-.6-5.1-2.5-5.2-2.6l.8-.8c.3.3 7 6.7 16.3-2.6l.8.8c-4.2 4.2-8 5.4-10.8 5.4zM1113.8 189.5l-1.1-.4c5.5-15.6 1.7-20.7 1.7-20.7l.9-.8c.2.2 4.2 5.5-1.5 21.9zM994.4 172.4l-7.9-8.6c-8.1-8.7-5.5-15.5-5.4-15.8l1.1.4-.6-.2.6.2c0 .1-2.4 6.4 5.2 14.5l7.9 8.6-.9.9zM1025.1 170l-1.2-.1c0-.1.6-5.2-1.9-12.2-2.7-7.5 2.5-14.7 2.7-15.1l1 .7c-.1.1-5 7.1-2.6 13.9 2.7 7.3 2.1 12.6 2 12.8zM1016.4 178.2c-3-9.9.9-16.2 1.1-16.5l1 .6c0 .1-3.8 6.2-1 15.5l-1.1.4zM1121.9 65.4l-1-.7c10.6-16.1 29.3-14.6 29.5-14.6l-.1 1.2c-.1 0-18.1-1.4-28.4 14.1z"/><path style="clip-path:url(#SVGID_00000072276934035620076160000001891823555679183033_);fill:#6d292d" d="M1123.8 61.6c-.4-7.5 4-13.3 15.1-20 10.1-6.1 19 .6 19.1.7l-.7 1c-.3-.3-8.4-6.3-17.8-.6-10.7 6.4-14.9 11.9-14.5 18.9h-1.2z"/><path style="clip-path:url(#SVGID_00000072276934035620076160000001891823555679183033_);fill:#6d292d" d="m1144 40.7-1.1-.4c0-.1 4.6-12.7 17.5-9.3l-.3 1.2c-11.8-3.1-15.9 8-16.1 8.5zM1168.3 39.7c0-.1-.7-1.8.5-3.4 1.7-2.2 6.2-2.9 13.3-2l-.1 1.2c-8.7-1.1-11.3.5-12.2 1.6-.8 1-.4 2.2-.4 2.2l-1.1.4zM1208.5 61.4c-1-3.1-3-4.5-5.9-6.5-2.4-1.7-5.5-3.9-9.1-7.8-2.8-3.1-5.6-4.7-8.2-4.7-2.5-.1-4.1 1.4-4.1 1.4l-.8-.8c.1-.1 1.9-1.8 5-1.8 3 .1 6 1.8 9.1 5.1 3.5 3.8 6.5 5.9 8.9 7.6 3 2.1 5.2 3.7 6.4 7.1l-1.3.4zM1213.8 58.2c-6.4-14.1-21.3-20.7-21.4-20.8l.5-1.1c.2.1 15.4 6.8 22.1 21.4l-1.2.5z"/><path style="clip-path:url(#SVGID_00000072276934035620076160000001891823555679183033_);fill:#6d292d" d="m1162.8 38.9-1.2-.2c.1-.4 1.4-8.9 8.9-13 7.6-4.1 13.8-5.3 24.7-4.7l-.1 1.2c-10.8-.6-16.6.5-24.1 4.5-6.8 3.9-8.1 12.2-8.2 12.2zM1142.9 36.7c-9.3-9.5-21.3-6.5-21.4-6.5l-.3-1.2c.1 0 12.7-3.1 22.5 6.8l-.8.9zM1098.8 34.7l-.8-.8c.1-.1 7.7-7.5 19.8-2.1l-.5 1.1c-11.4-5.1-18.5 1.7-18.5 1.8zM1080.1 126.3c-6-.1-8.2-4.3-8.3-4.5l1.1-.5c.1.2 1.9 3.7 7.2 3.8v1.2z"/><path style="clip-path:url(#SVGID_00000072276934035620076160000001891823555679183033_);fill:#668745" d="M1173.2 154.9c-6.2-33.8-19.2-56.2-19.4-56.5l1-.6c.1.2 13.3 22.9 19.5 56.9l-1.1.2zM1182.2 149.8c-5.1-36.2-17.6-55.1-17.8-55.3l1-.7c.1.2 12.8 19.3 18 55.8l-1.2.2z"/><path transform="rotate(-42.456 1146.16 100.805)" style="clip-path:url(#SVGID_00000072276934035620076160000001891823555679183033_);fill:#668745" d="M1145.5 74h1.2v53.6h-1.2z"/><path style="clip-path:url(#SVGID_00000072276934035620076160000001891823555679183033_);fill:#668745" d="m1189.7 147.2-1.2-.1c0-.1.7-10.2-1.8-26.4-2.6-16.4-2-21.7-2-21.9l1.2.1c0 .1-.6 5.4 2 21.6 2.6 16.3 1.9 26.6 1.8 26.7zM1116.6 200l-.9-.8c14.9-17.4 17.2-29.7 17.2-29.8l1.2.2c-.1.5-2.4 12.7-17.5 30.4zM1086.6 258.2l-.3-1.2c18.1-4.5 46.2-30.1 46.4-30.4l.8.9c-1.1 1.1-28.5 26.1-46.9 30.7zM1086.7 223.3l-.4-1.1c19-6.6 32.4-6 32.5-6l-.1 1.2c-.1-.1-13.3-.6-32 5.9zM1075.2 289.7l-.6-1.1c34.1-18.3 60.7-42.8 61-43.1l.8.9c-.2.3-26.9 24.9-61.2 43.3zM1075.8 299.3l-.5-1.1c25-10.7 48.7-34.2 48.9-34.4l.8.8c-.1.3-24 23.9-49.2 34.7z"/><path style="clip-path:url(#SVGID_00000072276934035620076160000001891823555679183033_);fill:#6d292d" d="m851.9 273.6-3.1-2.4c0-.1-4.3-5.5-8.7-8.1l-.1-.1-.1-.2c0-.1-4.6-8.5-12-14.6l.8-.9c7 5.8 11.6 13.7 12.3 14.9 4.4 2.6 8.4 7.6 8.9 8.2l2.9 2.3-.9.9zM850.2 283.1c-.3-.2-6.7-4.7-9.4-9.4-.5-.9-1-1.9-1.6-2.9-2-3.9-4.5-8.7-7-8l-.3-1.2c3.4-.9 6 4.1 8.4 8.6.5 1 1 2 1.5 2.9 2.5 4.4 9 9 9 9l-.6 1zM807.5 328c-.3-.1-8-3.3-12-6-4-2.6-5.3-4-5.4-4l.8-.8s1.3 1.3 5.2 3.9c3.9 2.6 11.7 5.8 11.8 5.9l-.4 1zM804.2 339.2c-.1 0-5.3-2.7-9.9-4.6l-.1-.1-.1-.1c-.1-.1-5.9-6.6-8.5-8.5-2.8-2.1-3.6-1.6-4.5-.7l-.8-.8c1.9-1.9 3.8-1.1 6.1.6 2.5 1.9 7.8 7.7 8.6 8.5 4.5 2 9.7 4.5 9.8 4.6l-.6 1.1zM1142.4 34.8l-1.2-.3c4-13.6 12.5-17.1 12.8-17.3l.5 1.1s-8.2 3.5-12.1 16.5zM1182.7 77.2c-16.2-5.2-20.8-14.3-21.5-16.1-5.9-1.5-7.9-6.7-8-6.9l1.1-.4s1.9 5 7.5 6.2l.3.1.1.3c0 .1 3.8 10.2 20.9 15.7l-.4 1.1z"/><g style="clip-path:url(#SVGID_00000072276934035620076160000001891823555679183033_)"><ellipse transform="rotate(-25.912 989.542 147.894)" class="st8" cx="989.6" cy="147.9" rx="2.6" ry="1"/><path class="st3" d="M988 150c-.6 0-1.1-.2-1.3-.6-.5-1 .8-2.1 2.2-2.8 1.4-.7 3.1-1 3.6 0s-.8 2.1-2.2 2.8c-.8.3-1.6.6-2.3.6zm-.1-1.3c.3 0 1-.1 1.9-.5.9-.4 1.4-.9 1.6-1.2-.3 0-1 .1-1.9.5-1 .5-1.5 1-1.6 1.2z"/></g><g style="clip-path:url(#SVGID_00000072276934035620076160000001891823555679183033_)"><ellipse transform="rotate(-49.55 1098.554 130.989)" class="st9" cx="1098.6" cy="131" rx="1.2" ry="1"/><path class="st3" d="M1098.4 132.7c-.4 0-.7-.1-1-.3-.3-.3-.5-.7-.5-1.2 0-.4.2-.9.5-1.2.3-.3.7-.6 1.1-.7.5-.1.9 0 1.3.3.7.6.7 1.6 0 2.4-.3.3-.7.6-1.1.7h-.3zm.4-2.2c-.2 0-.4.1-.5.3-.1.1-.2.3-.2.4 0 .1 0 .2.1.3.1.1.2.1.3.1.1 0 .3-.1.4-.3.2-.3.2-.6.1-.7-.1-.1-.1-.1-.2-.1z"/></g><g style="clip-path:url(#SVGID_00000072276934035620076160000001891823555679183033_)"><ellipse transform="rotate(-49.55 1075.493 122.423)" class="st9" cx="1075.6" cy="122.4" rx="1.2" ry="1"/><path class="st3" d="M1075.4 124.1c-.4 0-.7-.1-1-.3-.3-.3-.5-.7-.5-1.2 0-.4.2-.9.5-1.2.6-.8 1.7-.9 2.4-.3.3.3.5.7.5 1.2 0 .4-.2.9-.5 1.2s-.7.6-1.1.7c-.2-.1-.2-.1-.3-.1zm.3-2.2c-.2 0-.3.1-.5.3-.1.1-.2.3-.2.4 0 .1 0 .2.1.3.1.1.2.1.3.1.1 0 .3-.1.4-.3.1-.1.2-.3.2-.4 0-.1 0-.2-.1-.3 0-.1-.1-.1-.2-.1z"/></g><g style="clip-path:url(#SVGID_00000072276934035620076160000001891823555679183033_)"><ellipse transform="rotate(-25.912 970.435 128.127)" class="st8" cx="970.5" cy="128.1" rx="2.6" ry="1"/><path class="st3" d="M968.9 130.2c-.6 0-1.1-.2-1.3-.6-.5-1 .8-2.1 2.2-2.8 1.4-.7 3.1-1 3.6 0 .1.3.2.9-.5 1.6-.4.4-1 .9-1.7 1.2-.8.3-1.6.6-2.3.6zm-.1-1.2c.3 0 1-.1 1.9-.5.9-.4 1.4-.9 1.6-1.2-.3 0-1 .1-1.9.5-1 .4-1.5.9-1.6 1.2z"/></g><g style="clip-path:url(#SVGID_00000072276934035620076160000001891823555679183033_)"><ellipse transform="rotate(-25.912 988.884 103.09)" class="st8" cx="989" cy="103.1" rx="2.6" ry="1"/><path class="st3" d="M987.3 105.1c-.9 0-1.2-.4-1.3-.6-.1-.3-.2-.9.5-1.6.4-.4 1-.9 1.7-1.2 1.4-.7 3.1-1 3.6 0 .1.3.2.9-.5 1.6-.4.4-1 .9-1.7 1.2s-1.4.6-2 .6h-.3zm-.1-1.2c.3 0 1-.1 1.9-.5.9-.4 1.4-.9 1.6-1.2-.3 0-1 .1-1.9.5-.9.5-1.4 1-1.6 1.2z"/></g><g style="clip-path:url(#SVGID_00000072276934035620076160000001891823555679183033_)"><ellipse transform="rotate(-25.912 1181.92 193.821)" class="st9" cx="1182" cy="193.8" rx="2.3" ry="1.7"/><path class="st3" d="M1181.5 196.2h-.5c-.7-.1-1.3-.5-1.5-1.1-.3-.6-.2-1.3.1-1.9.3-.6.8-1.1 1.5-1.4 1.4-.7 3-.3 3.6.8.3.6.2 1.3-.1 1.9-.3.6-.8 1.1-1.5 1.4-.6.2-1.1.3-1.6.3zm1-3.6c-.3 0-.6.1-1 .2-.4.2-.8.5-1 .9-.1.2-.2.5-.1.8s.5.4.7.5c.4.1.9 0 1.3-.2s.8-.5 1-.9c.1-.2.2-.5.1-.8-.2-.3-.5-.5-1-.5z"/></g><g style="clip-path:url(#SVGID_00000072276934035620076160000001891823555679183033_)"><ellipse transform="rotate(-25.912 1157.54 173.396)" class="st9" cx="1157.6" cy="173.4" rx="2.3" ry="1.7"/><path class="st3" d="M1157.1 175.8c-.9 0-1.7-.4-2.1-1.2-.6-1.1.2-2.6 1.6-3.3 1.4-.7 3-.3 3.6.8.6 1.1-.2 2.6-1.6 3.3-.5.3-1 .4-1.5.4zm1-3.6c-.3 0-.6.1-1 .2-.8.4-1.3 1.2-1 1.7.3.5 1.2.6 2 .2.8-.4 1.3-1.2 1-1.7-.1-.2-.5-.4-1-.4z"/></g><g style="clip-path:url(#SVGID_00000072276934035620076160000001891823555679183033_)"><ellipse transform="rotate(-25.912 971.753 92.547)" class="st8" cx="971.8" cy="92.5" rx="2.6" ry="1"/><path class="st3" d="M970.2 94.6c-.6 0-1.1-.2-1.3-.6-.5-1 .8-2.1 2.2-2.8.7-.3 1.4-.6 2-.6 1.1-.1 1.5.3 1.6.6.1.3.2.9-.5 1.6-.4.4-1 .9-1.7 1.2-.8.4-1.6.6-2.3.6zm-.1-1.2c.3 0 1-.1 1.9-.5.9-.4 1.4-.9 1.6-1.2-.3 0-1 .1-1.9.5s-1.5.9-1.6 1.2z"/></g><path style="clip-path:url(#SVGID_00000072276934035620076160000001891823555679183033_);fill:#6d292d" d="M805.2 333.6s-4.8-2-9.6-5c-2.3-1.4-4.9-3.4-7.4-5.3-3.6-2.8-7.8-6-9.3-5.7-.2 0-.3.1-.3.3l-1-.6c.2-.4.6-.7 1.1-.8 1.9-.4 5.1 2 10.2 5.9 2.4 1.9 5 3.8 7.3 5.2 4.7 2.9 9.4 4.9 9.5 4.9l-.5 1.1z"/><path transform="rotate(-19.7 881.581 405.567)" style="clip-path:url(#SVGID_00000072276934035620076160000001891823555679183033_);fill:#668745" d="M881 384.3h1.2v42.6H881z"/><path style="clip-path:url(#SVGID_00000072276934035620076160000001891823555679183033_);fill:#668745" d="m855.8 436.4-1.2-.4 27.1-70.1 9.6 25.9-1.1.4-8.6-22.9zM1091.5 418.6c-5.2 0-7.7-1.1-7.9-1.2l.5-1.1c.1.1 14.8 6.4 52.8-13.6 38.2-20.1 57.5-58.7 57.7-59l1.1.5c-.2.4-19.6 39.3-58.2 59.6-23.4 12.2-37.9 14.8-46 14.8z"/><path style="clip-path:url(#SVGID_00000072276934035620076160000001891823555679183033_);fill:#6d292d" d="M959.9 125.1c-5.6-.7-6.4-4.3-6.4-4.4l1.2-.2c0 .1.7 2.9 5.4 3.5l-.2 1.1zM956.5 128.4c-4.7-1.8-6-.8-6-.8l-.8-.9c.3-.3 1.9-1.5 7.2.5l-.4 1.2zM1081.4 183.6c-7.3-8-6.8-15.9-6.7-16.3l1.2.1c0 .1-.5 7.8 6.4 15.4l-.9.8zM1076.7 191.2c-2.1-6.4-4.4-8.6-6-9.3-1.1-.5-1.8-.2-1.8-.2l-.5-1.1c.1-.1 1.2-.5 2.8.2 2.6 1.1 4.8 4.5 6.6 10l-1.1.4z"/><path transform="rotate(-19.831 1072.7 149.784)" style="clip-path:url(#SVGID_00000072276934035620076160000001891823555679183033_);fill:#6d292d" d="M1069.7 149.3h5.7v1.2h-5.7z"/><path style="clip-path:url(#SVGID_00000072276934035620076160000001891823555679183033_);fill:#6d292d" d="M1156.1 243c-13.1-6.5-19.8-12.6-19.9-12.6l.8-.9c.1.1 6.7 6 19.6 12.4l-.5 1.1z"/><g style="clip-path:url(#SVGID_00000072276934035620076160000001891823555679183033_)"><path d="m1103.6-151.6 2 13.2s33.6 14.5 47.4 57.3c13.8 42.8 12.5 55.4 12.5 55.4s44.8 63.3 60 114c15.2 50.7 22.9 67.4 22.9 67.4l8-318.5-152.8 11.2z" style="fill:#b98820"/><path class="st3" d="m1249 158.3-1.1-2.3c-.1-.2-8-17.3-23-67.5-7.8-26.2-23.7-55.7-35.6-75.9-12.9-21.9-24.2-37.8-24.3-37.9l-.1-.2v-.2c0-.1 1.1-13-12.5-55.1s-46.8-56.8-47.1-57l-.3-.1-2.1-14.1h.6l153.5-11.3v.7l-8 320.9zm-82.8-184.2c2.6 3.8 45.3 65.1 59.9 114 11.8 39.6 19.2 58.5 21.8 64.9l8-315.1-151.6 11.1 1.8 12.2c3.4 1.6 34.4 17.1 47.5 57.6 12.9 39.8 12.7 53.4 12.6 55.3z"/></g><g style="clip-path:url(#SVGID_00000072276934035620076160000001891823555679183033_)"><path class="st4" d="m53.7 56.7-2.6-6.3v35.7h-5.6v-42h8l11.6 24.3 11.5-24.3h7.9v42h-5.6V50.4l-2.7 6.4-8.3 17.7h-5.6l-8.6-17.8zM92 72.3V70c0-8.9 5.5-14.3 13.8-14.3 8.4 0 13.8 5.4 13.8 14.3v2.3c0 8.9-5.5 14.3-13.8 14.3-8.4 0-13.8-5.4-13.8-14.3zm21.9 0V70c0-6-3.2-9.2-8.2-9.2-5 0-8.2 3.1-8.2 9.2v2.3c0 6 3.2 9.2 8.2 9.2 5.1 0 8.2-3.2 8.2-9.2zM122.6 81.5h.9c2.6 0 4.8-2.2 4.8-10.6V56.1h21.6v30h-5.4v-25h-10.8v9.8c0 11.8-4 15.7-10.2 15.7h-.9v-5.1zM179.2 62.6l-3.3 6.2-10.1 17.4h-7v-30h5.4v23.6l3.3-6.2 10.1-17.4h7v30h-5.4V62.6zM190.4 56.1H215V61h-9.6v25.1H200v-25h-9.6v-5zM220.7 56.1H232c8.1 0 11.4 3.3 11.4 8.3 0 2.5-1.2 4.6-3.7 6.1 3.4 1.4 4.9 4 4.9 6.9 0 5.4-3.3 8.7-11.4 8.7h-12.6v-30zm5.3 5v7.4h6c4.4 0 5.8-1.4 5.8-3.7 0-2.3-1.4-3.7-5.8-3.7h-6zm0 12.1v8h7.2c4.3 0 5.8-1.4 5.8-4.1 0-2.5-1.4-4-5.8-4H226zM250 72.3V70c0-8.8 5.6-14.3 13.5-14.3 8 0 13.5 5.5 13.5 14.3v2.9h-21.4c.2 5.8 3.4 8.8 7.9 8.8 4.7 0 6.5-1.7 7.7-4.9h5.5c-1.2 5.9-5.1 9.8-13.2 9.8-8 0-13.5-5.4-13.5-14.3zm5.7-4.1h15.5c-.5-5.3-3.2-7.6-7.7-7.6-4.2 0-7.2 2.5-7.8 7.6zM304.6 73.3h-15v12.8h-5.4v-30h5.4v12.2h15V56.1h5.4v30h-5.4V73.3zM339.4 73.3h-15v12.8H319v-30h5.4v12.2h15V56.1h5.4v30h-5.4V73.3zM352 72.3V70c0-8.9 5.5-14.3 13.8-14.3 8.4 0 13.8 5.4 13.8 14.3v2.3c0 8.9-5.5 14.3-13.8 14.3-8.4 0-13.8-5.4-13.8-14.3zm22 0V70c0-6-3.2-9.2-8.2-9.2-5 0-8.2 3.1-8.2 9.2v2.3c0 6 3.2 9.2 8.2 9.2 5.1 0 8.2-3.2 8.2-9.2zM385 72.3V70c0-8.8 5.6-14.3 13.5-14.3 8 0 13.5 5.5 13.5 14.3v2.9h-21.4c.2 5.8 3.4 8.8 7.9 8.8 4.7 0 6.5-1.7 7.7-4.9h5.5c-1.2 5.9-5.1 9.8-13.2 9.8-8 0-13.5-5.4-13.5-14.3zm5.7-4.1h15.5c-.5-5.3-3.2-7.6-7.7-7.6-4.2 0-7.2 2.5-7.8 7.6zM453.4 61.1h-13.8v25.1h-5.4v-30h24.6v30h-5.4V61.1zM466 72.3V70c0-8.9 5.5-14.3 13.8-14.3 8.4 0 13.8 5.4 13.8 14.3v2.3c0 8.9-5.5 14.3-13.8 14.3-8.4 0-13.8-5.4-13.8-14.3zm22 0V70c0-6-3.2-9.2-8.2-9.2-5 0-8.2 3.1-8.2 9.2v2.3c0 6 3.2 9.2 8.2 9.2 5.1 0 8.2-3.2 8.2-9.2zM499 72.3V70c0-9.1 5.3-14.3 13.5-14.3 7 0 11.1 4.1 12.3 9.2H519c-.9-2.1-2.8-4-6.8-4-4.5 0-7.6 3.1-7.6 9.2v2.3c0 6.1 3.1 9.2 7.6 9.2 4.1 0 5.9-1.9 6.8-4.6h5.8c-1.2 5.8-5.3 9.8-12.3 9.8-8.2-.2-13.5-5.4-13.5-14.5zM526.9 81.5h.9c2.6 0 4.8-2.2 4.8-10.6V56.1h21.6v30h-5.4v-25H538v9.8c0 11.8-4 15.7-10.2 15.7h-.9v-5.1zM561.4 72.3V70c0-8.8 5.6-14.3 13.5-14.3 8 0 13.5 5.5 13.5 14.3v2.9H567c.2 5.8 3.4 8.8 7.9 8.8 4.7 0 6.5-1.7 7.7-4.9h5.5c-1.2 5.9-5.1 9.8-13.2 9.8-8 0-13.5-5.4-13.5-14.3zm5.7-4.1h15.5c-.5-5.3-3.2-7.6-7.7-7.6-4.2 0-7.2 2.5-7.8 7.6zM617.2 86.1h-20.7v7.8h-5.4V81.2h3.2c2.5-3.5 3.2-7.2 3.2-16.1v-9h21.1v25.1h3.9v12.7h-5.4v-7.8zm-17-4.9h13.1V61.1h-10.4v4.1c0 9.5-1.1 13.3-2.7 16zM626.2 72.3V70c0-8.9 5.5-14.3 13.8-14.3 8.4 0 13.8 5.4 13.8 14.3v2.3c0 8.9-5.5 14.3-13.8 14.3-8.4 0-13.8-5.4-13.8-14.3zm22 0V70c0-6-3.2-9.2-8.2-9.2-5 0-8.2 3.1-8.2 9.2v2.3c0 6 3.2 9.2 8.2 9.2 5.1 0 8.2-3.2 8.2-9.2zM661 56.1h11.4c8.1 0 11.4 3.3 11.4 8.3 0 2.5-1.2 4.6-3.7 6.1 3.4 1.4 4.9 4 4.9 6.9 0 5.4-3.3 8.7-11.4 8.7H661v-30zm5.4 5v7.4h6c4.4 0 5.8-1.4 5.8-3.7 0-2.3-1.4-3.7-5.8-3.7h-6zm0 12.1v8h7.2c4.3 0 5.8-1.4 5.8-4.1 0-2.5-1.4-4-5.8-4h-7.2zM690.1 77.7c0-6.1 3.7-9.8 13.2-9.8h6v-2.2c0-3.4-1.9-5.3-6-5.3-4 0-5.7 1.7-6 4.1h-6c.3-5.1 4.1-8.9 12-8.9 7.5 0 11.4 3.9 11.4 10.1v20.4h-4.2l-.7-4.9c-2.2 3.4-5.8 5.4-10.1 5.4-6.2 0-9.6-3.3-9.6-8.9zm19.2-4.1v-1.1h-6c-5.5 0-7.6 2-7.6 5.1 0 2.5 1.7 4.2 4.6 4.2 5.3 0 9-3.8 9-8.2zM743.8 73.3h-15v12.8h-5.4v-30h5.4v12.2h15V56.1h5.4v30h-5.4V73.3zM778.6 62.6l-3.3 6.2-10.1 17.4h-7v-30h5.4v23.6l3.3-6.2L777 56.2h7v30h-5.4V62.6zM791.2 72.3V70c0-8.8 5.6-14.3 13.5-14.3 8 0 13.5 5.5 13.5 14.3v2.9h-21.4c.2 5.8 3.4 8.8 7.9 8.8 4.7 0 6.5-1.7 7.7-4.9h5.5c-1.2 5.9-5.1 9.8-13.2 9.8-8 0-13.5-5.4-13.5-14.3zm5.7-4.1h15.5c-.5-5.3-3.2-7.6-7.7-7.6-4.2 0-7.2 2.5-7.8 7.6zM45.2 128.1h11.4c8.1 0 11.4 3.3 11.4 8.3 0 2.5-1.2 4.6-3.7 6.1 3.4 1.4 4.9 4 4.9 6.9 0 5.4-3.3 8.7-11.4 8.7H45.2v-30zm5.4 5v7.4h6c4.4 0 5.8-1.4 5.8-3.7 0-2.3-1.4-3.7-5.8-3.7h-6zm0 12.1v8h7.2c4.3 0 5.8-1.4 5.8-4.1 0-2.5-1.4-4-5.8-4h-7.2zM113.6 158.1H92.9v7.8h-5.4v-12.7h3.2c2.5-3.5 3.2-7.2 3.2-16.1v-9H115v25.1h3.9v12.7h-5.4v-7.8zm-17.1-4.9h13.1V133H99.2v4.1c0 9.6-1.1 13.4-2.7 16.1zM122.6 144.3V142c0-8.8 5.6-14.3 13.5-14.3 8 0 13.5 5.5 13.5 14.3v2.9h-21.4c.2 5.8 3.4 8.8 7.9 8.8 4.7 0 6.5-1.7 7.7-4.9h5.5c-1.2 5.9-5.1 9.8-13.2 9.8s-13.5-5.4-13.5-14.3zm5.6-4.1h15.5c-.5-5.3-3.2-7.6-7.7-7.6-4.2 0-7.2 2.5-7.8 7.6zM177.1 145.3h-15v12.8h-5.4v-30h5.4v12.2h15v-12.2h5.4v30h-5.4v-12.8zM191.5 128.1h5.4v9.6h5.7c9.1 0 12.9 3.8 12.9 10.2 0 6.4-3.8 10.2-12.9 10.2h-11.1v-30zm5.4 14.6v10.6h6c5.2 0 7.1-1.9 7.1-5.3s-1.9-5.3-7.1-5.3h-6zM255.7 133.1h-13.8v25.1h-5.4v-30h24.6v30h-5.4v-25.1zM268 149.7c0-6.1 3.7-9.8 13.2-9.8h6v-2.2c0-3.4-1.9-5.3-6-5.3-4 0-5.7 1.7-6 4.1h-6c.3-5.1 4.1-8.9 12-8.9 7.5 0 11.4 3.9 11.4 10.1v20.4h-4.2l-.7-4.9c-2.2 3.4-5.8 5.4-10.1 5.4-6.2 0-9.6-3.3-9.6-8.9zm19.2-4.1v-1.1h-6c-5.5 0-7.6 2-7.6 5.1 0 2.5 1.7 4.2 4.6 4.2 5.3 0 9-3.8 9-8.2zM309.7 140.7l-2.9-6.5v23.9h-5.4v-30h7.9l8.1 17 8.1-17h7.7v30h-5.4v-23.9l-3 6.5-4.8 10.2h-5.4l-4.9-10.2zM353.2 128.1h10.5v30h-5.4v-10.4h-5.1c-.9 0-1.7 0-2.5-.1l-5.6 10.5h-6l6.5-11.6c-3.8-1.6-5.3-4.5-5.3-8.6 0-6.2 3.6-9.8 12.9-9.8zm0 14.7h5.1v-9.7h-5.1c-5.6 0-7.3 1.7-7.3 4.9.1 3.1 1.8 4.8 7.3 4.8zM369.4 128.1H394v4.9h-9.6v25.1H379V133h-9.6v-4.9zM420.1 134.6l-3.3 6.2-10.1 17.4h-7v-30h5.4v23.6l3.3-6.2 10.1-17.4h7v30h-5.4v-23.6zM473.5 145h-4.2v13.1h-5.4V145h-4.2l-7.3 13.1h-6.5l9-15.4-7.9-14.6h6.5l6.1 11.9h4.3v-11.9h5.4V140h4.1l6.3-11.9h6.4l-7.8 14.2 9 15.8h-6.6l-7.2-13.1zM489.7 144.3V142c0-8.8 5.6-14.3 13.5-14.3 8 0 13.5 5.5 13.5 14.3v2.9h-21.4c.2 5.8 3.4 8.8 7.9 8.8 4.7 0 6.5-1.7 7.7-4.9h5.5c-1.2 5.9-5.1 9.8-13.2 9.8-8 0-13.5-5.4-13.5-14.3zm5.7-4.1H511c-.5-5.3-3.2-7.6-7.7-7.6-4.3 0-7.3 2.5-7.9 7.6zM529.3 154.7v15.4h-5.4v-42h4.2l.5 4.3c2.1-3.2 5.5-4.8 9.8-4.8 6.8 0 11.8 5 11.8 14.3v2.3c0 9.2-5.1 14.3-11.9 14.3-3.7.1-6.9-1.2-9-3.8zm15.4-10.4V142c0-6.2-2.9-9.2-7.7-9.2-4.3 0-7.6 3.1-7.7 8.8v2.7c0 5.9 3.2 9.2 7.7 9.2 4.8 0 7.7-2.9 7.7-9.2zM553 128.1h24.6v4.9H568v25.1h-5.4V133H553v-4.9zM583.3 128.1h11.4c8.1 0 11.4 3.3 11.4 8.3 0 2.5-1.2 4.6-3.7 6.1 3.4 1.4 4.9 4 4.9 6.9 0 5.4-3.3 8.7-11.4 8.7h-12.6v-30zm5.4 5v7.4h6c4.4 0 5.8-1.4 5.8-3.7 0-2.3-1.4-3.7-5.8-3.7h-6zm0 12.1v8h7.2c4.3 0 5.8-1.4 5.8-4.1 0-2.5-1.4-4-5.8-4h-7.2zM43.4 216.3V214c0-9.1 5.3-14.3 13.5-14.3 7 0 11.1 4.1 12.3 9.2h-5.8c-.9-2.1-2.8-4-6.8-4-4.5 0-7.6 3.1-7.6 9.2v2.3c0 6.1 3.1 9.2 7.6 9.2 4.1 0 5.9-1.9 6.8-4.6h5.8c-1.2 5.8-5.3 9.8-12.3 9.8-8.3-.2-13.5-5.4-13.5-14.5zM73.7 216.3V214c0-8.9 5.5-14.3 13.8-14.3 8.4 0 13.8 5.4 13.8 14.3v2.3c0 8.9-5.5 14.3-13.8 14.3-8.4 0-13.8-5.4-13.8-14.3zm21.9 0V214c0-6-3.2-9.2-8.2-9.2-5 0-8.2 3.1-8.2 9.2v2.3c0 6 3.2 9.2 8.2 9.2 5.1 0 8.2-3.2 8.2-9.2zM108.5 200.1h11.4c8.1 0 11.4 3.3 11.4 8.3 0 2.5-1.2 4.6-3.7 6.1 3.4 1.4 4.9 4 4.9 6.9 0 5.4-3.3 8.7-11.4 8.7h-12.6v-30zm5.4 5v7.4h6c4.4 0 5.8-1.4 5.8-3.7 0-2.3-1.4-3.7-5.8-3.7h-6zm0 12.1v8h7.2c4.3 0 5.8-1.4 5.8-4.1 0-2.5-1.4-4-5.8-4h-7.2zM137.9 216.3V214c0-8.8 5.6-14.3 13.5-14.3 8 0 13.5 5.5 13.5 14.3v2.9h-21.4c.2 5.8 3.4 8.8 7.9 8.8 4.7 0 6.5-1.7 7.7-4.9h5.5c-1.2 5.9-5.1 9.8-13.2 9.8s-13.5-5.4-13.5-14.3zm5.6-4.1H159c-.5-5.3-3.2-7.6-7.7-7.6-4.2 0-7.2 2.5-7.8 7.6zM167.6 200.1h24.6v4.9h-9.6v25.1h-5.4V205h-9.6v-4.9zM194.9 216.3V214c0-9.1 5.3-14.3 13.5-14.3 7 0 11.1 4.1 12.3 9.2h-5.8c-.9-2.1-2.8-4-6.8-4-4.5 0-7.6 3.1-7.6 9.2v2.3c0 6.1 3.1 9.2 7.6 9.2 4.1 0 5.9-1.9 6.8-4.6h5.8c-1.2 5.8-5.3 9.8-12.3 9.8-8.3-.2-13.5-5.4-13.5-14.5zM236.5 217h-4.1v13.1H227v-30h5.4V212h4.2l8-11.9h6.4l-10 14.3 11.2 15.7h-6.6l-9.1-13.1zM277.9 206.6l-3.3 6.2-10.1 17.4h-7v-30h5.4v23.6l3.3-6.2 10.1-17.4h7v30h-5.4v-23.6zM302.8 218.7l-8 11.5h-6.1l10.7-15.4-10.1-14.6h6.1l7.4 10.9 7.5-10.9h6l-10.1 14.7 10.7 15.3h-6.2l-7.9-11.5zM342.7 226.7v15.4h-5.4v-42h4.2l.5 4.3c2.1-3.2 5.5-4.8 9.8-4.8 6.8 0 11.8 5 11.8 14.3v2.3c0 9.2-5.1 14.3-11.9 14.3-3.7.1-6.9-1.2-9-3.8zm15.4-10.4V214c0-6.2-2.9-9.2-7.7-9.2-4.3 0-7.6 3.1-7.7 8.8v2.7c0 5.9 3.2 9.2 7.7 9.2 4.8 0 7.7-2.9 7.7-9.2zM369.1 216.3V214c0-8.8 5.6-14.3 13.5-14.3 8 0 13.5 5.5 13.5 14.3v2.9h-21.4c.2 5.8 3.4 8.8 7.9 8.8 4.7 0 6.5-1.7 7.7-4.9h5.5c-1.2 5.9-5.1 9.8-13.2 9.8-8 0-13.5-5.4-13.5-14.3zm5.7-4.1h15.5c-.5-5.3-3.2-7.6-7.7-7.6-4.2 0-7.2 2.5-7.8 7.6zM422.5 205.1h-13.8v25.1h-5.4v-30h24.6v30h-5.4v-25.1zM442.3 226.7v15.4h-5.4v-42h4.2l.5 4.3c2.1-3.2 5.5-4.8 9.8-4.8 6.8 0 11.8 5 11.8 14.3v2.3c0 9.2-5.1 14.3-11.9 14.3-3.7.1-6.9-1.2-9-3.8zm15.4-10.4V214c0-6.2-2.9-9.2-7.7-9.2-4.3 0-7.6 3.1-7.7 8.8v2.7c0 5.9 3.2 9.2 7.7 9.2 4.8 0 7.7-2.9 7.7-9.2zM468.7 216.3V214c0-8.8 5.6-14.3 13.5-14.3 8 0 13.5 5.5 13.5 14.3v2.9h-21.4c.2 5.8 3.4 8.8 7.9 8.8 4.7 0 6.5-1.7 7.7-4.9h5.5c-1.2 5.9-5.1 9.8-13.2 9.8-8 0-13.5-5.4-13.5-14.3zm5.7-4.1H490c-.5-5.3-3.2-7.6-7.7-7.6-4.3 0-7.3 2.5-7.9 7.6zM501.1 216.3V214c0-9.1 5.3-14.3 13.5-14.3 7 0 11.1 4.1 12.3 9.2h-5.8c-.9-2.1-2.8-4-6.8-4-4.5 0-7.6 3.1-7.6 9.2v2.3c0 6.1 3.1 9.2 7.6 9.2 4.1 0 5.9-1.9 6.8-4.6h5.8c-1.2 5.8-5.3 9.8-12.3 9.8-8.2-.2-13.5-5.4-13.5-14.5zM531.4 216.3V214c0-9.1 5.3-14.3 13.5-14.3 7 0 11.1 4.1 12.3 9.2h-5.8c-.9-2.1-2.8-4-6.8-4-4.5 0-7.6 3.1-7.6 9.2v2.3c0 6.1 3.1 9.2 7.6 9.2 4.1 0 5.9-1.9 6.8-4.6h5.8c-1.2 5.8-5.3 9.8-12.3 9.8-8.2-.2-13.5-5.4-13.5-14.5zM583.9 206.6l-3.3 6.2-10.1 17.4h-7v-30h5.4v23.6l3.3-6.2 10.1-17.4h7v30h-5.4v-23.6zM618.7 206.6l-3.3 6.2-10.1 17.4h-7v-30h5.4v23.6l3.3-6.2 10.1-17.4h7v30h-5.4v-23.6zm-15.9-18.5h4.7c0 3.1 1.4 4.6 3.7 4.6 2.4 0 3.8-1.4 3.8-4.6h4.6c0 5.2-3.1 8.3-8.4 8.3s-8.4-3.1-8.4-8.3z"/></g><path style="clip-path:url(#SVGID_00000072276934035620076160000001891823555679183033_);fill:#6d292d" d="M956.2 168.6c-7.6-5.1-7.7-9-7.7-9.2h1.2-.6.6s.2 3.5 7.2 8.2l-.7 1zM1056.4 62.5l-.8-.9c.3-.2 6.3-5.2 16.5-3.1l-.2 1.2c-9.6-2-15.5 2.7-15.5 2.8zM1110.9 74.7c-4.8-12.4-11.4-12.6-11.4-12.6v-1.2c.3 0 7.5.2 12.6 13.4l-1.2.4zM1076 79.8c-2.6-4.5-3.2-8.6-1.8-12 2.1-5.1 7.9-6.9 8.2-6.9l.3 1.2c-.1 0-5.6 1.6-7.4 6.2-1.2 3-.6 6.7 1.8 10.9l-1.1.6zM1063 74.5l-1.2-.1c.9-8.4 10.2-11.3 10.6-11.5l.4 1.1c-.2.1-9 2.9-9.8 10.5zM1240 143.9c-6.7-7.7-21.3-5.8-21.5-5.8l-.2-1.2c.6-.1 15.4-1.9 22.5 6.2l-.8.8zM1211.1 116.9c-8-9-10.1-25.6-10.1-26.3l1.2-.1c0 .2 2.1 16.9 9.9 25.7l-1 .7zM1208.1 136.3c-8-9.6-9.1-25.1-9.2-25.7l1.2-.1c0 .2 1.1 15.7 8.9 25.1l-.9.7zM1061.1 109.6l-1.2-.2c1.9-14.6-4.8-23.5-4.9-23.6l.9-.7c.4.4 7.2 9.4 5.2 24.5zM1090.2 47.2l-.8-.9c8.3-6.8 21.5-8.3 22-8.4l.1 1.2c-.1 0-13.3 1.6-21.3 8.1zM1027.3 53.7l-.9-.7c6.4-8.2 14.6-10 15-10.1l.2 1.2c-.1 0-8.1 1.8-14.3 9.6z"/><g style="clip-path:url(#SVGID_00000072276934035620076160000001891823555679183033_)"><path class="st4" d="M44.5 329.2h72.7l-12.8 12.9c-.6.6-.6 1.5 0 2 .3.3.6.4 1 .4s.7-.1 1-.4l15.2-15.4c.2-.2.3-.5.4-.7v-.4c-.1-.3-.2-.5-.4-.7l-15.2-15.4c-.3-.3-.6-.4-1-.4s-.7.1-1 .4c-.6.6-.6 1.5 0 2l12.8 12.9H44.5c-.8 0-1.4.6-1.4 1.4 0 .7.6 1.4 1.4 1.4z"/><path class="st4" d="M105.4 345.5c-.7 0-1.3-.3-1.7-.7-.9-1-.9-2.5 0-3.4l11.1-11.2H44.5c-1.3 0-2.4-1.1-2.4-2.4 0-1.3 1.1-2.4 2.4-2.4h70.3l-11.1-11.2c-.9-1-.9-2.5 0-3.4.9-.9 2.5-.9 3.5 0l15.2 15.4c.3.3.6.7.7 1.2v.5l-.1.5c-.1.4-.3.9-.7 1.2L107.1 345c-.4.3-1 .5-1.7.5zm-60.9-18.2c-.2 0-.4.2-.4.4s.2.4.4.4h75.1l-14.5 14.6c-.2.2-.2.5 0 .6.2.2.4.2.6 0l15.2-15.4c.1-.1.1-.1.1-.2v-.2c0-.1-.1-.1-.1-.2L105.7 312c-.2-.2-.4-.2-.6 0-.2.2-.2.5 0 .6l14.5 14.6H44.5zm76.6.4z"/></g></svg>
