<svg xmlns="http://www.w3.org/2000/svg" viewBox="0 0 749.88 240.95"><defs><clipPath id="a"><path fill="none" stroke-width="0" d="M0 0h749.88v240.95H0z"/></clipPath><clipPath id="b"><path fill="none" stroke-width="0" d="M0 0h749.88v240.95H0z"/></clipPath><clipPath id="c"><path fill="none" stroke-width="0" d="M0 0h749.88v240.95H0z"/></clipPath><clipPath id="d"><path fill="none" stroke-width="0" d="M0 0h749.88v240.95H0z"/></clipPath><clipPath id="e"><path fill="none" stroke-width="0" d="M0 0h749.88v240.95H0z"/></clipPath></defs><g clip-path="url(#a)"><path fill="#2e0035" d="M-4.46-3.75V244.7H753.4V-3.75H-4.46z"/><path fill="none" stroke="#af601d" d="M-4.46-3.75V244.7H753.4V-3.75H-4.46z"/><path d="M508.72 157.43c48.09 0 87.07-38.98 87.07-87.07s-38.98-87.07-87.07-87.07-87.07 38.98-87.07 87.07 38.98 87.07 87.07 87.07Z" fill="#bb7c29"/><path d="M508.72 157.43c48.09 0 87.07-38.98 87.07-87.07s-38.98-87.07-87.07-87.07-87.07 38.98-87.07 87.07 38.98 87.07 87.07 87.07Z" fill="none" stroke="#7c4c00" stroke-width="2"/></g><path d="M490.53 155.69s-6.24-3.05-9.07-8.75c-2.84-5.71-4.25-9.82-8.79-13.08-4.54-3.25 2.27-8.35-4.82-13.39-7.09-5.04-2.55-11.14-7.09-18.01-4.54-6.87 1.98-10.56-2.84-20.19s.26-15.59 2.84-23.81c2.57-8.22 9.92-15.31 21.26-22.68 11.34-7.37 18.4-10.24 30.33-10.24s9.16-3.65 16.18-3.65 18.68 7.94 18.68 7.94l-19.56 45.92 41.67 69.45s-78.52 11.39-78.8 10.49Z" fill="#7c4c00"/><path d="M490.53 155.69s-6.24-3.05-9.07-8.75c-2.84-5.71-4.25-9.82-8.79-13.08-4.54-3.25 2.27-8.35-4.82-13.39-7.09-5.04-2.55-11.14-7.09-18.01-4.54-6.87 1.98-10.56-2.84-20.19s.26-15.59 2.84-23.81c2.57-8.22 9.92-15.31 21.26-22.68 11.34-7.37 18.4-10.24 30.33-10.24s9.16-3.65 16.18-3.65 18.68 7.94 18.68 7.94l-19.56 45.92 41.67 69.45s-78.52 11.39-78.8 10.49Z" fill="none" stroke="#7c4c00" stroke-width="2"/><path d="M42.62 31.34H29.66v22.6H26.2V28.18h19.87v25.76h-3.46v-22.6ZM50.68 45.43v-1.4c0-5.37 3.42-8.8 8.28-8.8s8.28 3.39 8.28 8.8v1.77h-13.1c.11 3.57 2.06 5.41 4.82 5.41 2.91 0 3.98-1.07 4.71-2.98h3.39c-.74 3.61-3.13 6-8.1 6s-8.28-3.35-8.28-8.8Zm3.5-2.5h9.53c-.29-3.24-1.99-4.67-4.75-4.67-2.61 0-4.45 1.55-4.78 4.67ZM70.55 45.43v-1.4c0-5.56 3.24-8.8 8.28-8.8 4.31 0 6.81 2.5 7.54 5.63h-3.53c-.55-1.29-1.73-2.47-4.2-2.47-2.76 0-4.64 1.88-4.64 5.63v1.4c0 3.72 1.91 5.63 4.64 5.63 2.5 0 3.64-1.14 4.2-2.83h3.53c-.74 3.53-3.24 6-7.54 6-5.08 0-8.28-3.2-8.28-8.8ZM102.75 46.06h-9.2v7.88h-3.31v-18.4h3.31v7.51h9.2v-7.51h3.31v18.4h-3.31v-7.88ZM110.47 45.43v-1.4c0-5.45 3.35-8.8 8.46-8.8s8.46 3.31 8.46 8.8v1.4c0 5.45-3.35 8.8-8.46 8.8s-8.46-3.31-8.46-8.8Zm13.47 0v-1.4c0-3.68-1.95-5.63-5.01-5.63s-5.01 1.91-5.01 5.63v1.4c0 3.68 1.95 5.63 5.01 5.63s5.01-1.91 5.01-5.63ZM143.59 38.55h-8.46v15.38h-3.31v-18.4h15.09v18.4h-3.31V38.55ZM151.32 45.43v-1.4c0-5.37 3.42-8.8 8.28-8.8s8.28 3.39 8.28 8.8v1.77h-13.1c.11 3.57 2.06 5.41 4.82 5.41 2.91 0 3.98-1.07 4.71-2.98h3.39c-.74 3.61-3.13 6-8.1 6s-8.28-3.35-8.28-8.8Zm3.5-2.5h9.53c-.29-3.24-1.99-4.67-4.75-4.67-2.61 0-4.45 1.55-4.78 4.67ZM184.8 46.06h-9.2v7.88h-3.31v-18.4h3.31v7.51h9.2v-7.51h3.31v18.4h-3.31v-7.88ZM206.15 39.47l-2.02 3.79-6.22 10.67h-4.27v-18.4h3.31v14.46l2.02-3.79 6.22-10.67h4.27v18.4h-3.31V39.47ZM221.78 35.53h6.44v18.4h-3.31v-6.4h-3.13c-.55 0-1.07 0-1.55-.04l-3.42 6.44h-3.68l3.98-7.1c-2.32-.96-3.24-2.76-3.24-5.26 0-3.86 2.17-6.04 7.91-6.04Zm0 8.98h3.13v-5.96h-3.13c-3.42 0-4.45 1.03-4.45 3.02s1.03 2.94 4.45 2.94ZM38.54 90.22h-9.2v7.88h-3.31V79.7h3.31v7.51h9.2V79.7h3.31v18.4h-3.31v-7.88ZM46.08 92.94c0-3.75 2.25-6 8.1-6h3.68v-1.36c0-2.06-1.18-3.24-3.68-3.24s-3.5 1.03-3.68 2.5h-3.68c.18-3.13 2.5-5.45 7.36-5.45 4.6 0 6.99 2.39 6.99 6.18v12.51h-2.58l-.41-3.02c-1.32 2.1-3.53 3.31-6.22 3.31-3.83 0-5.89-2.06-5.89-5.45Zm11.78-2.54v-.66h-3.68c-3.39 0-4.64 1.25-4.64 3.13 0 1.55 1.03 2.58 2.8 2.58 3.2 0 5.52-2.32 5.52-5.04ZM78.93 96v9.46h-3.31V79.7h2.58l.33 2.65c1.29-1.95 3.39-2.94 6.04-2.94 4.16 0 7.25 3.09 7.25 8.8v1.4c0 5.67-3.13 8.8-7.29 8.8-2.39 0-4.31-.81-5.59-2.39Zm9.42-6.4v-1.4c0-3.79-1.8-5.63-4.71-5.63-2.65 0-4.64 1.88-4.71 5.37v1.66c0 3.61 1.99 5.63 4.71 5.63 2.94 0 4.71-1.77 4.71-5.63ZM100.72 98.1l-7.43-18.4h3.61l5.59 14.24 5.3-14.24h3.53l-9.9 25.76h-3.53l2.83-7.36ZM112.78 89.6v-1.4c0-5.56 3.24-8.8 8.28-8.8 4.31 0 6.81 2.5 7.54 5.63h-3.53c-.55-1.29-1.73-2.47-4.2-2.47-2.76 0-4.64 1.88-4.64 5.63v1.4c0 3.72 1.91 5.63 4.64 5.63 2.5 0 3.64-1.14 4.2-2.83h3.53c-.74 3.53-3.24 6-7.54 6-5.08 0-8.28-3.2-8.28-8.8ZM131.36 89.6v-1.4c0-5.56 3.24-8.8 8.28-8.8 4.31 0 6.81 2.5 7.54 5.63h-3.53c-.55-1.29-1.73-2.47-4.2-2.47-2.76 0-4.64 1.88-4.64 5.63v1.4c0 3.72 1.91 5.63 4.64 5.63 2.5 0 3.64-1.14 4.2-2.83h3.53c-.74 3.53-3.24 6-7.54 6-5.08 0-8.28-3.2-8.28-8.8ZM156.9 90.04h-2.54v8.06h-3.31V79.7h3.31v7.32h2.58l4.93-7.32h3.9l-6.11 8.76 6.85 9.64h-4.05l-5.56-8.06ZM167.98 89.6v-1.4c0-5.45 3.35-8.8 8.46-8.8s8.46 3.31 8.46 8.8v1.4c0 5.45-3.35 8.8-8.46 8.8s-8.46-3.31-8.46-8.8Zm13.47 0v-1.4c0-3.68-1.95-5.63-5.01-5.63s-5.01 1.91-5.01 5.63v1.4c0 3.68 1.95 5.63 5.01 5.63s5.01-1.91 5.01-5.63ZM194.43 87.42l-1.8-3.97V98.1h-3.31V79.7h4.86l4.97 10.45 4.97-10.45h4.71v18.4h-3.31V83.41l-1.84 4.01-2.94 6.26h-3.31l-2.98-6.26ZM230.35 79.69h6.44v18.4h-3.31v-6.4h-3.13c-.55 0-1.07 0-1.55-.04l-3.42 6.44h-3.68l3.98-7.1c-2.32-.96-3.24-2.76-3.24-5.26 0-3.86 2.17-6.04 7.91-6.04Zm0 8.98h3.13v-5.96h-3.13c-3.42 0-4.45 1.03-4.45 3.02s1.03 2.94 4.45 2.94ZM255.19 84.66c0 1.77-.77 3.2-2.36 4.05 1.99.88 2.91 2.39 2.91 4.23 0 3.17-2.28 5.45-7.36 5.45s-7.36-2.28-7.73-6h3.39c.37 1.84 1.44 2.91 4.34 2.91s3.98-1.07 3.98-2.54c0-1.55-1.07-2.54-3.98-2.54h-2.02V87.2h2.02c2.47 0 3.42-.88 3.42-2.36s-.96-2.36-3.42-2.36-3.42.96-3.79 2.54h-3.39c.37-3.42 2.58-5.63 7.18-5.63s6.81 2.21 6.81 5.26ZM260.15 79.69h3.31v5.89h3.5c5.56 0 7.91 2.36 7.91 6.26s-2.36 6.26-7.91 6.26h-6.81V79.7Zm3.31 8.91v6.48h3.68c3.2 0 4.34-1.14 4.34-3.24s-1.14-3.24-4.34-3.24h-3.68Zm13.99-8.91h3.31v18.4h-3.31v-18.4ZM292.13 90.04h-2.54v8.06h-3.31V79.7h3.31v7.32h2.58l4.93-7.32h3.9l-6.11 8.76 6.85 9.64h-4.05l-5.56-8.06ZM303.12 89.6v-1.4c0-5.37 3.42-8.8 8.28-8.8s8.28 3.39 8.28 8.8v1.77h-13.1c.11 3.57 2.06 5.41 4.82 5.41 2.91 0 3.98-1.07 4.71-2.98h3.39c-.74 3.61-3.13 6-8.1 6s-8.28-3.35-8.28-8.8Zm3.5-2.5h9.53c-.29-3.24-1.99-4.67-4.75-4.67-2.61 0-4.45 1.55-4.78 4.67Z" fill="#fcf0be"/><path fill="none" stroke="#fcf0be" stroke-width="3" d="M28.23 205.71h63.42"/><path fill="none" stroke="#fcf0be" stroke-width="2.85" d="m77.42 219.7 13.99-13.99-13.99-13.99"/><g clip-path="url(#b)"><path d="M434.41 251.5s10.77-20.47 19.27-40.32c8.5-19.84 25.56-62.3 46.51-60.03 20.95 2.27 50.73-16.5 50.73-16.5l58.67 38.61-32.86 77.67-142.32.57Z" fill="#835b6d"/><path d="M434.41 251.5s10.77-20.47 19.27-40.32c8.5-19.84 25.56-62.3 46.51-60.03 20.95 2.27 50.73-16.5 50.73-16.5l58.67 38.61-32.86 77.67-142.32.57Z" fill="none" stroke="#d6a14d" stroke-width="2"/></g><path d="M529.65 159.65s16.61 6.32 27.38 3.4c0 0 2.43-18.16 1.28-31.46l-19.75.57-8.9 27.5Z" fill="#c28a66"/><path d="M529.65 159.65s16.61 6.32 27.38 3.4c0 0 2.43-18.16 1.28-31.46l-19.75.57-8.9 27.5Z" fill="none" stroke="#ad6a3f" stroke-width="2"/><path d="M479.2 116.22c-3.92-7.34-7.35-19.21-1.68-29.98s10.89-18.27 17.01-22.11c10.82-6.8 10.84-4.54 14.19 1.98 3.36 6.52 6.19 8.22 11.29 9.64 5.1 1.42 9.07 18.14 9.07 18.14l20.72 41.67s-5.48 13.45-12.5 21.18c-7.35 8.09-20.67 11.64-28.04 6.89-8.65-5.58-9.66-11.38-17.88-21.48-11.62-14.29-9.92-21.67-12.19-25.92Z" fill="#c28a66"/><g clip-path="url(#c)"><path d="M479.2 116.22c-3.92-7.34-7.35-19.21-1.68-29.98s10.89-18.27 17.01-22.11c10.82-6.8 10.84-4.54 14.19 1.98 3.36 6.52 6.19 8.22 11.29 9.64 5.1 1.42 9.07 18.14 9.07 18.14l20.72 41.67s-5.48 13.45-12.5 21.18c-7.35 8.09-20.67 11.64-28.04 6.89-8.65-5.58-9.66-11.38-17.88-21.48-11.62-14.29-9.92-21.67-12.19-25.92Zm20.13-15.53s4.82-7.14 14.6-7.14c12.73 0 15.59 2.6 15.59 2.6" fill="none" stroke="#ad6a3f" stroke-width="2"/><path d="M614.97 164.32c51.89 0 93.96-42.07 93.96-93.96S666.86-23.6 614.97-23.6s-93.96 42.07-93.96 93.96 42.07 93.96 93.96 93.96Z" fill="#bb7c29"/><path d="M614.97 164.32c51.89 0 93.96-42.07 93.96-93.96S666.86-23.6 614.97-23.6s-93.96 42.07-93.96 93.96 42.07 93.96 93.96 93.96Z" fill="none" stroke="#925e35" stroke-width="2"/></g><path d="M596.66 147.51s-4.25 3.4-3.68 9.92c0 0-5.21-.7-8.5 3.68-3.13 4.17-.57 9.92-.57 9.92s-10.74 5.06-2.83 17.58l19.3-9.92 9.33-25.23-8.22-9.92-4.82 3.97Z" fill="#954523"/><path d="M596.66 147.51s-4.25 3.4-3.68 9.92c0 0-5.21-.7-8.5 3.68-3.13 4.17-.57 9.92-.57 9.92s-10.74 5.06-2.83 17.58l19.3-9.92 9.33-25.23-8.22-9.92-4.82 3.97Z" fill="none" stroke="#93100f" stroke-width="2"/><g clip-path="url(#d)"><path d="M470.12 176.34s27.24 39.73 102.61 32.36l9.92-15.71s-33.52 8.2-62.64-2.57c-33.43-12.36-39.12-28.49-39.12-28.49s.28-2.27-10.77 14.41Z" fill="#d6a14d"/><path d="M751.89 156.82s-2.83-3.34-4.82-7.09c-1.98-3.75-2.29-10.43-10.49-14.17-8.2-3.75-10.23-4.53-11.34-8.5-1.11-3.97-9.31-7.37-16.7-7.94-7.39-.57-14.17-2.83-14.17-2.83s5.67-13.24 1.42-26.99c-4.25-13.76-10.16-14.05-6.97-24.74 3.19-10.69.83-11.34-4.37-15.59s-10.51-15.45-17.6-18.28c-7.09-2.83-15.61-10.2-20.98-10.2s-27.78-1.13-41.1 4.25c-13.32 5.39-24.95 11.06-29.48 17.01-4.53 5.95-11.9 15.59-11.9 21.26s.05 11.97-.83 17.01c-.87 5.04 1.11 7.98 1.11 7.98s-6.52 9.37 1.98 20.93 18.12 25.8 26.65 28.91c8.53 3.12 28.63 26.58 28.63 26.58l66.61 7.72 69.45 12.19-5.1-27.5Z" fill="#954523"/><path d="M751.89 156.82s-2.83-3.34-4.82-7.09c-1.98-3.75-2.29-10.43-10.49-14.17-8.2-3.75-10.23-4.53-11.34-8.5-1.11-3.97-9.31-7.37-16.7-7.94-7.39-.57-14.17-2.83-14.17-2.83s5.67-13.24 1.42-26.99c-4.25-13.76-10.16-14.05-6.97-24.74 3.19-10.69.83-11.34-4.37-15.59s-10.51-15.45-17.6-18.28c-7.09-2.83-15.61-10.2-20.98-10.2s-27.78-1.13-41.1 4.25c-13.32 5.39-24.95 11.06-29.48 17.01-4.53 5.95-11.9 15.59-11.9 21.26s.05 11.97-.83 17.01c-.87 5.04 1.11 7.98 1.11 7.98s-6.52 9.37 1.98 20.93 18.12 25.8 26.65 28.91c8.53 3.12 28.63 26.58 28.63 26.58l66.61 7.72 69.45 12.19-5.1-27.5Z" fill="none" stroke="#93100f" stroke-width="2"/><path d="M540.42 257.17s13.61-21.1 30.05-47.4c16.44-26.3 15-39.9 36.85-59.53l70.3-19.63s17.58 18.72 40.25 28.14c22.68 9.42 44.27 23.59 47.36 29.26l.83 62.93-225.64 6.24Z" fill="#6f4c6c"/><path d="M540.42 257.17s13.61-21.1 30.05-47.4c16.44-26.3 15-39.9 36.85-59.53l70.3-19.63s17.58 18.72 40.25 28.14c22.68 9.42 44.27 23.59 47.36 29.26l.83 62.93-225.64 6.24Z" fill="none" stroke="#e9843c" stroke-width="2"/></g><path d="M643.35 167.24s12.73 3.24 28.61 2.33c0 0 10.49-28.85 4.96-39.12-.4-.74-13.75 0-13.75 0l-19.82 36.79Z" fill="#bb7c4f"/><path d="M643.35 167.24s12.73 3.24 28.61 2.33c0 0 10.49-28.85 4.96-39.12-.4-.74-13.75 0-13.75 0l-19.82 36.79Z" fill="none" stroke="#af601d" stroke-width="2"/><path d="M628.01 171.56s-7.97-3.54-17.17-11.9c-9.2-8.36-16.99-14.6-20.96-21.12-3.97-6.52-5.1-10.49-5.1-10.49s-5.55-3.08-8.22-9.62c-2.67-6.53 1.58-17.17 1.58-17.17l21.8 7.93 25.36 29.06 1.19 14.66 1.51 18.65Z" fill="#af601d"/><path d="M628.01 171.56s-7.97-3.54-17.17-11.9c-9.2-8.36-16.99-14.6-20.96-21.12-3.97-6.52-5.1-10.49-5.1-10.49s-5.55-3.08-8.22-9.62c-2.67-6.53 1.58-17.17 1.58-17.17l21.8 7.93 25.36 29.06 1.19 14.66 1.51 18.65ZM585.77 64.13" fill="none" stroke="#954523" stroke-width="2"/><path d="M664.3 143.78c-2.83 6.46-7.65 20.69-15.87 25.51-8.22 4.82-14.17 7.37-21.54 2.55-7.37-4.82-3.64-7.09-7.63-11.06-3.99-3.97-9.69-10.14-11.93-16.72 0 0 2.74.4 4.84-1.92 2.1-2.33 2.95-4.03 4.8-4.17 0 0-.71-5.1-5.24-1.28-4.54 3.83-7.37 3.97-8.79-.14-1.42-4.11-.99-7.65-3.12-13.75-2.13-6.09-4.54-11.06-10.06-12.05-5.53-.99-8.24.49-10.63 1.56-2.39 1.07-4.11-.85-3.4-7.09.71-6.24 1.02-9.5 3.98-18.85 2.96-9.35 6.93-22.25 6.93-22.25s4.51 9.07 19.28 12.47c14.76 3.4 24.38 4.54 33.73 9.35 9.35 4.82 14.89 9.44 18.14 5.67 7.09-8.22 14.17-2.54 15.31 8.37.5 4.79 1.18 14.59-4.23 16.58l8.34 14.46" fill="#bb7c4f"/><path d="M664.3 143.78c-2.83 6.46-7.65 20.69-15.87 25.51-8.22 4.82-14.17 7.37-21.54 2.55-7.37-4.82-3.64-7.09-7.63-11.06-3.99-3.97-9.69-10.14-11.93-16.72 0 0 2.74.4 4.84-1.92 2.1-2.33 2.95-4.03 4.8-4.17 0 0-.71-5.1-5.24-1.28-4.54 3.83-7.37 3.97-8.79-.14-1.42-4.11-.99-7.65-3.12-13.75-2.13-6.09-4.54-11.06-10.06-12.05-5.53-.99-8.24.49-10.63 1.56-2.39 1.07-4.11-.85-3.4-7.09.71-6.24 1.02-9.5 3.98-18.85 2.96-9.35 6.93-22.25 6.93-22.25s4.51 9.07 19.28 12.47c14.76 3.4 24.38 4.54 33.73 9.35 9.35 4.82 14.89 9.44 18.14 5.67 7.09-8.22 14.17-2.54 15.31 8.37.5 4.79 1.18 14.59-4.23 16.58l8.34 14.46" fill="none" stroke="#af601d" stroke-width="2"/><path d="M475.23 103.81s2.55-2.27 10.49 0 7.13 9.4 7.39 14.62c.26 5.22.02 12.61 1 13.44 2.66 2.27 6.21.53 9.75-1.31 3.45-1.79 4.84 1.03 4.84 1.03s-10.77 3.77-4.83 18.45c1.53 3.77 3.1 9.33 8.34 13.58-7.5.84-12.61-12.92-16.86-17.56-15.87-17.33-13.67-29.65-17.01-32.86-4.25-4.09-3.12-9.4-3.12-9.4Z" fill="#ad6a3f"/><path d="M475.23 103.81s2.55-2.27 10.49 0 7.13 9.4 7.39 14.62c.26 5.22.02 12.61 1 13.44 2.66 2.27 6.21.53 9.75-1.31 3.45-1.79 4.84 1.03 4.84 1.03s-10.77 3.77-4.83 18.45c1.53 3.77 3.1 9.33 8.34 13.58-7.5.84-12.61-12.92-16.86-17.56-15.87-17.33-13.67-29.65-17.01-32.86-4.25-4.09-3.12-9.4-3.12-9.4Z" fill="none" stroke="#ad6a3f"/><path d="M608.74 103.53s2.1-9.92 30.05-8.9M484.36 118.3c.55 0 1-.45 1-1s-.45-1-1-1-1 .45-1 1 .45 1 1 1Z" fill="none" stroke="#954523" stroke-width="2"/><path d="M616.53 109.48s3.58 1.01 9.24-1.54c5.67-2.55 8.5-2.27 8.5-2.27s-1.88 5.1-6.84 6.3c-4.96 1.2-10.91-2.49-10.91-2.49Z" fill="#af601d"/><path d="M616.53 109.48s3.58 1.01 9.24-1.54c5.67-2.55 8.5-2.27 8.5-2.27s-1.88 5.1-6.84 6.3c-4.96 1.2-10.91-2.49-10.91-2.49Z" fill="none" stroke="#af601d" stroke-width="2"/><path d="M479.48 116.28s6.19.41 9.02-3.4" fill="none" stroke="#954523" stroke-width="2"/><path d="M615.16 152.86s-.23-2.4 3.51-3.4c3.62-.96 5.74.16 8.94 1.73 1.52.75 1.07 2.59.53 3.02-.59.47-2.77 2.16-5.74 2.38-2.98.22-7.57.05-7.23-3.73Z" fill="#954523"/><path d="M615.16 152.86s-.23-2.4 3.51-3.4c3.62-.96 5.74.16 8.94 1.73 1.52.75 1.07 2.59.53 3.02-.59.47-2.77 2.16-5.74 2.38-2.98.22-7.57.05-7.23-3.73Z" fill="none" stroke="#954523"/><path d="M597.97 121.77s-6.8-1.24-12.47 5.43c0 0 4.16 1.34 7.26-.2 5.67-2.82 5.22-5.23 5.22-5.23Z" fill="#954523"/><path d="M597.97 121.77s-6.8-1.24-12.47 5.43c0 0 4.16 1.34 7.26-.2 5.67-2.82 5.22-5.23 5.22-5.23Z" fill="none" stroke="#954523" stroke-width="2"/><g clip-path="url(#e)"><path d="M502.3 144.85c.1-1.2 1.49-2.26 3.8-2.45 2.85-.23 5.47-.07 6.85 1.24 2.33 2.2 2.27 4.96-1.35 4.96-7.91 0-9.41-2.37-9.3-3.75Z" fill="#954523"/><path d="M582.66 186.58s17.86 23.24 79.94 23.53c62.08.28 84.19-20.98 90.71-32.03l-12.76-7.37s-21.83 23.14-66.48 24.09c-44.21.95-72.15-7.23-83.13-22.96 0 0-3.01.81-8.28 14.74Z" fill="#e9843c"/><path d="M574.68 202.74s29.57 20.42 71.49 21.2c41.93.77 96.97-2.71 119.06-31.12" fill="none" stroke="#e9843c" stroke-width="2"/></g><path d="M462.75 192.21s17.66 32.83 96.86 32.83" fill="#835b6d"/><path d="M462.75 192.21s17.66 32.83 96.86 32.83" fill="none" stroke="#d6a14d" stroke-width="2"/><path d="M582.66 49.67s4.78 6.8 19.26 7.37c14.48.57 29.22 6.8 29.78 13.32m-32.72-6.24s5.74 7.65 24.31 9.35c18.57 1.7 26.26 8.71 29.52 14.39m29.62 30.06s37.56 3.79 41.1 17.89M664 80.12s25.38-4.08 21.85 25.8" fill="none" stroke="#93100f" stroke-width="2"/><path d="M491.96 56.69s-18.44 12.25-18.7 32.37m-3.14-8.21s-12.15 12.11-.57 32.36 17.29 37.66 17.29 37.66" fill="none" stroke="#925e35" stroke-width="2"/><path d="M660.69 90.71s8.59-1.9 5.88 15.35" fill="#bb7c4f"/><path d="M660.69 90.71s8.59-1.9 5.88 15.35" fill="none" stroke="#af601d" stroke-width="2"/><path d="M605.08 139.95s4.51 1.77 8.76-4.39" fill="none" stroke="#954523" stroke-width="2"/><path d="M616.53 109.48s3.12.74 8.79-1.81c5.67-2.55 8.96-2 8.96-2" fill="#954523"/><path d="M616.53 109.48s3.12.74 8.79-1.81c5.67-2.55 8.96-2 8.96-2" fill="none" stroke="#93100f" stroke-width="2"/><path d="M598.98 120.68s-7.82-.14-13.49 6.52" fill="#954523"/><path d="M598.98 120.68s-7.82-.14-13.49 6.52" fill="none" stroke="#93100f" stroke-width="2"/><path d="M626.31 110.64c.84 0 1.52-.62 1.52-1.37s-.68-1.38-1.52-1.38-1.51.62-1.51 1.38.68 1.37 1.51 1.37Z" fill="#93100f"/><path d="M626.31 110.64c.84 0 1.52-.62 1.52-1.37s-.68-1.38-1.52-1.38-1.51.62-1.51 1.38.68 1.37 1.51 1.37Z" fill="none" stroke="#93100f" stroke-width="2"/><path d="M591.37 126.84c.84 0 1.51-.61 1.51-1.37s-.68-1.37-1.51-1.37-1.51.61-1.51 1.37.68 1.37 1.51 1.37Z" fill="#93100f"/><path d="M591.37 126.84c.84 0 1.51-.61 1.51-1.37s-.68-1.37-1.51-1.37-1.51.61-1.51 1.37.68 1.37 1.51 1.37Z" fill="none" stroke="#93100f" stroke-width="2"/><path d="M505.56 106.65s9.35 6.23 15.59-2.84" fill="none" stroke="#ad6a3f" stroke-width="2"/><path d="M514.38 109.11c.55 0 1-.45 1-1s-.45-1-1-1-1 .45-1 1 .45 1 1 1Zm-8.83-2.46s8.83 1.46 15.59-2.84" fill="none" stroke="#954523" stroke-width="2"/></svg>