<?xml version="1.0" standalone="no"?>
<!DOCTYPE svg PUBLIC "-//W3C//DTD SVG 20010904//EN"
 "http://www.w3.org/TR/2001/REC-SVG-20010904/DTD/svg10.dtd">
<svg version="1.0" xmlns="http://www.w3.org/2000/svg"
 width="512.000000pt" height="512.000000pt" viewBox="0 0 512.000000 512.000000"
 preserveAspectRatio="xMidYMid meet">
<metadata>
Created by potrace 1.11, written by Peter Selinger 2001-2013
</metadata>
<g transform="translate(0.000000,512.000000) scale(0.100000,-0.100000)"
fill="#000000" stroke="none">
<path d="M2387 4935 c-157 -54 -285 -181 -344 -340 -16 -45 -18 -95 -23 -460
l-5 -410 -100 -6 c-150 -8 -254 -53 -354 -151 -105 -104 -151 -206 -160 -358
l-6 -105 -410 -5 -410 -5 -68 -27 c-156 -63 -280 -193 -328 -348 -26 -83 -28
-224 -4 -307 49 -171 193 -320 360 -374 29 -9 156 -15 450 -19 l410 -5 6 -100
c9 -154 55 -259 157 -359 108 -106 199 -146 352 -155 l105 -6 5 -410 c5 -392
6 -413 28 -469 29 -77 56 -120 117 -185 110 -118 232 -171 394 -171 241 0 423
131 519 374 14 35 17 106 22 451 l5 410 100 6 c151 8 242 47 347 147 111 105
157 207 167 367 l6 100 410 5 c452 6 452 6 562 73 167 102 263 269 264 459 2
240 -134 431 -375 526 -35 14 -106 17 -451 22 l-410 5 -7 100 c-9 147 -52 249
-146 347 -106 112 -209 158 -367 167 l-100 6 -6 405 c-4 293 -9 416 -18 445
-39 118 -132 241 -231 305 -128 82 -320 105 -463 55z m239 -311 c86 -41 110
-169 44 -229 -23 -21 -25 -69 -10 -210 92 -832 766 -1479 1604 -1541 89 -6 99
-5 119 13 77 71 193 53 240 -37 43 -83 -17 -191 -115 -206 -27 -5 -49 0 -84
16 -42 21 -55 22 -155 17 -678 -39 -1301 -522 -1528 -1185 -39 -112 -77 -297
-86 -413 -7 -81 -6 -87 19 -123 73 -108 -13 -250 -140 -231 -110 16 -160 148
-89 233 23 28 24 30 14 133 -58 618 -434 1158 -991 1423 -205 98 -369 146
-574 167 -110 11 -112 11 -143 -12 -42 -31 -128 -33 -168 -3 -36 26 -63 79
-63 123 0 43 34 103 70 124 43 26 118 22 162 -8 47 -32 109 -33 279 -4 385 64
750 267 1007 559 251 285 411 668 429 1025 6 108 5 111 -22 150 -23 35 -26 48
-23 97 3 44 10 64 29 84 48 52 114 67 175 38z"/>
<path d="M2650 3259 l0 -376 38 -11 c83 -26 192 -142 209 -224 l6 -28 396 0
396 0 -140 69 c-372 184 -663 471 -850 838 l-55 108 0 -376z"/>
<path d="M2431 3553 c-126 -257 -329 -502 -560 -677 -116 -87 -206 -140 -345
-207 l-101 -48 392 0 391 -1 32 68 c38 82 112 155 181 179 l49 18 0 367 c0
203 -1 368 -3 368 -1 0 -18 -30 -36 -67z"/>
<path d="M2474 2701 c-18 -11 -45 -36 -60 -57 -25 -32 -29 -47 -29 -99 0 -52
4 -67 29 -99 42 -55 81 -76 146 -76 65 0 104 21 146 76 25 32 29 47 29 99 0
52 -4 67 -29 99 -42 55 -81 76 -146 76 -37 0 -66 -6 -86 -19z"/>
<path d="M1575 2397 c369 -192 636 -459 829 -828 l66 -124 0 376 0 376 -64 32
c-76 37 -133 97 -167 176 l-24 55 -380 0 -380 -1 120 -62z"/>
<path d="M2881 2405 c-34 -79 -91 -139 -167 -176 l-64 -32 0 -371 0 -371 58
110 c101 193 183 305 337 464 157 162 313 276 525 383 l95 47 -380 1 -380 0
-24 -55z"/>
</g>
</svg>
