<svg version="1.1" id="prefix__Слой_1" xmlns="http://www.w3.org/2000/svg" x="0" y="0" viewBox="0 0 13 13" width="13" height="13" xml:space="preserve"><style>.prefix__st0{fill:#ff0613}</style><circle class="prefix__st0" cx="5.4" cy="4.2" r="1.5"/><circle class="prefix__st0" cx="5.4" cy="8.8" r="1.5"/><circle class="prefix__st0" cx="9.1" cy="6.5" r="1.5"/><path class="prefix__st0" d="M5.4 12.9C2.2 12.9.6 10.5.6 8.7c0-1 .5-1.8.9-2.3C1 6 .5 5.2.5 4.2.5 2.4 2.2 0 5.3 0c2.5 0 5.1 2 6 2.8V1h1.1v3.1h-1.3L11 4S8 1.2 5.4 1.2c-2.6 0-3.7 2-3.7 3.1s1 1.8 1 1.8l.6.4-.7.4s-1 .8-1 1.8 1.1 3.1 3.7 3.1C8 11.8 11 9 11 9l.2-.1h1.3V12h-1.1v-1.8c-1 .8-3.5 2.7-6 2.7z"/></svg>
