<svg xmlns="http://www.w3.org/2000/svg" viewBox="0 0 13 13" width="13"><circle cx="6.5" cy="6.5" r="5.1" fill="#fff"/><path d="M6.5 12c-3 0-5.4-2.4-5.4-5.5s2.5-5.4 5.4-5.4c3 0 5.4 2.5 5.4 5.4S9.5 12 6.5 12zm0-10.3c-2.7 0-4.8 2.2-4.8 4.8s2.2 4.8 4.8 4.8 4.8-2.2 4.8-4.8-2.1-4.8-4.8-4.8z" fill="#ededed"/><path d="M9.1 5.3c-.6 0-1 .4-1.2.9h-.4c-.1-.3-.4-.6-.7-.7v-.4c.5-.1.9-.6.9-1.2 0-.7-.6-1.2-1.2-1.2s-1.2.6-1.2 1.2.4 1 .9 1.2v.4c-.3.1-.6.4-.7.7h-.4c-.1-.5-.6-.9-1.2-.9-.7 0-1.2.6-1.2 1.2s.6 1.2 1.2 1.2 1-.4 1.2-.9h.4c.1.3.3.6.7.7v.4c-.5.2-.9.6-.9 1.2 0 .7.6 1.2 1.2 1.2s1.2-.6 1.2-1.2-.4-1-.9-1.2v-.4c.3-.1.6-.3.7-.7h.4c.1.5.6.9 1.2.9.7 0 1.2-.6 1.2-1.2s-.5-1.2-1.2-1.2z" fill="#ff0613"/></svg>
