<svg id="Слой_1" data-name="Слой 1" xmlns="http://www.w3.org/2000/svg" viewBox="0 0 750.38 428"><defs><clipPath id="clip-path"><path fill="none" d="M0 0h749.88v428H0z"/></clipPath><style>.cls-2{clip-path:url(#clip-path)}.cls-3{fill:#748285}.cls-4{fill:#e9b862}.cls-5{fill:#bf9d66}.cls-8{fill:#4e1d07}.cls-9{fill:#cd381f}.cls-10{fill:#de4614}.cls-11{fill:#963409}.cls-12{fill:#723120}.cls-14{fill:#4f461f}.cls-15{fill:#131f11}.cls-17{fill:#3a131b}.cls-19{fill:#1a1a17}.cls-20{fill:#1d2a21}.cls-21{fill:#25211e}.cls-22{fill:#1d252f}.cls-25{fill:#734610}.cls-26{fill:#4f2b08}.cls-27{fill:#1d375d}.cls-28{fill:#c67521}.cls-29{fill:#92390d}.cls-30{fill:#dab882}.cls-31{fill:#adaeb3}.cls-32{fill:#33190f}.cls-33{fill:#8f5c07}.cls-34{fill:#8c500c}.cls-35{fill:#a47017}.cls-36{fill:#69481f}.cls-37{fill:#5d3c10}.cls-40{fill:#51637d}.cls-42{fill:#9f2515}.cls-44{fill:#e9e8de}</style></defs><g class="cls-2"><path class="cls-3" d="M57.61 167.23h1v89.29h-1z"/><g class="cls-2"><path class="cls-4" d="M-8.24-9.44V434.6h765.3V-9.44H-8.24z"/><path class="cls-5" d="M757.56 435.1H-8.74v-445h766.3zm-765.3-1h764.3v-443H-7.74z"/><path fill="#ca5705" d="M755.86-5.4H552.64v227.9h202.08l1.14-227.9z"/><path class="cls-5" d="M755.22 223H552.14V-5.9h204.22v.5zm-202.08-1h201.09l1.12-226.9H553.14z"/><path fill="#be480d" d="M589.75-3.7v219.97h141.47l-4.84-198.43L689.53-3.7h-99.78z"/><path class="cls-8" d="M731.73 216.77H589.25V-4.2h100.41l.12.07 37.09 21.68zm-141.48-1h140.46l-4.83-197.64L689.39-3.2h-99.14z"/><path class="cls-9" d="M720 219.1l10.77-.42-5.1-200.84-8.22 5.67-10.49 12.76.57 144L720 219.1z"/><path class="cls-10" d="M426.75 51.29l25.52 48.19 47.9 2.83 40.82-42.23V-5.4H425.62l1.13 56.69z"/><path class="cls-11" d="M500.27 102.57h-.11l-48.05-2.84-.11-.13-25.5-48.24v-.06l-1.13-56.95h115.87v65.83zm-47.85-3.33l47.65 2.82L540.74 60V-5.15H425.88L427 51.23z"/></g><path class="cls-12" d="M344.55 33.15v89.86h31.75v-77.1l-31.75-12.76z"/><path class="cls-8" d="M376.8 123.51h-32.75v-91.1l32.75 13.16zm-31.75-1h30.75V46.24l-30.75-12.35z"/><g class="cls-2"><path d="M-3.55 112l24.1-19.84h29.76V13.31l-4.82-.57s-1.44-7.37-5.1-9.07l9.07-6.24 167.25-3.1v51.29h38l91.84 98.08v-9.07l-7.93-14.74h55l18.71 14.74-10.77 11.91V180h40.82l20.4 16.45v15.3H753.9v220H-3.83L-3.55 112z" fill="#51637f"/><path class="cls-14" d="M754.4 432.2H-4.33L-4 111.72l24.37-20.11h29.44V13.75l-4.74-.56-.07-.35c0-.07-1.43-7.14-4.82-8.72l-.79-.37 9.91-6.81h.15l167.76-3.12v51.3h37.7l.15.16 91 97.16v-7.68l-8.27-15.37h56L413 134.57l-11 12.16v32.75h40.49l.14.11 20.59 16.6v15H754.4zm-757.73-1H753.4v-219H462.25v-15.54l-20.08-16.18H401v-34.14l10.54-11.65-18.15-14.3h-54L347 134.5V145l-92.53-98.88h-38.26V-5.16L49.62-2.07l-8.29 5.7c2.91 2 4.25 7.22 4.58 8.66l4.9.57v79.75H20.73L-3 112.19z"/></g><path class="cls-15" d="M241.03 67.32h1v94.38h-1z"/><g class="cls-2"><path class="cls-11" d="M494.09 94.28l-1-.8.66-.83a62.58 62.58 0 004.86-7H483.3c-16.25 0-24-3.47-24.36-3.62l.54-1.18c.08 0 7.89 3.5 23.82 3.5h16.08c2.49-4.18 5.95-10.5 11-20.56 11.54-23.08 16.92-38.38 17-38.53l1.22.43c0 .15-5.46 15.52-17 38.68-10.72 21.44-14.36 26-16.77 29.05zm2.73-24.54l-40.94-1.07-11.05-18.73 1.12-.66 10.68 18.11 39.38 1c1.66-3.48 14.27-29.67 24.9-46.11L522 23c-11.3 17.48-24.86 46.06-25 46.35zM490 58.64l-.72-1.08c.17-.13 4.24-3.24 13.71-27A181.77 181.77 0 01484.9 41c-14.91 7.73-22.42 9.23-22.73 9.28l-.25-1.28c.08 0 7.67-1.54 22.38-9.17 13.43-7 18.74-10.85 19.61-11.52C514.11 2.19 516-3 516-3l1.22.43c0 .05-1.89 5.26-12.17 31.54C494.7 55.39 490.22 58.52 490 58.64zm9-32.43L478.39-4.61l1.08-.73 20.67 30.83zm26.35-1.74l-1.3-.07 1.42-28.35 1.3.07z"/><path d="M281.05-1.42S302.6 26.2 346 41.37c26.25 9.18 35.29 13.89 77.95 14.17 47.36.32 83.91-53 87-60.66l-229.9 3.7z" fill="#7c5c36"/><path class="cls-3" d="M424.35 56.19h-.43c-38.88-.25-49.73-4.11-71.36-11.8L345.75 42c-43.05-15-65-42.72-65.21-43l-.8-1 232.18-3.78-.38.91c-2.54 6.24-38.46 61.06-87.19 61.06zM282.42-.79c4.41 5.14 25.8 28.27 63.76 41.55l6.81 2.4c21.49 7.64 32.28 11.48 70.93 11.73h.41c24.61 0 45.79-14.76 59.25-27.18C497.75 14.65 507.41.56 509.92-4.45z"/></g><path class="cls-12" d="M538.46 195.01l.71-178.02h20.55l1.42 176.6-22.68 1.42z"/><path class="cls-17" d="M538 195.54V195l.71-178.52h21.55l1.42 177.57zm1.71-178l-.71 177 21.68-1.36-1.45-175.69z"/><path class="cls-12" d="M665.43 11.34v144.27l24.38 6.8-.85-151.65-23.53.58z"/><path class="cls-17" d="M690.31 163.07L664.93 156V10.85l24.53-.61zm-24.38-7.84l23.37 6.52-.84-150.48-22.53.56z"/><path d="M138.19 137.11s2.12-73.67 4.6-97.43 18.9-21.61 21.62-21.61 17.83 1.76 19.49 23.37.23 96.38.23 96.38l-45.94-.71z" fill="#727f91"/><path class="cls-19" d="M184.62 138.33l-47-.73v-.5c0-.74 2.15-74 4.61-97.47 1.57-15.11 8.82-22.54 21.49-22.08h.62c.74 0 18.18.27 20 23.83 1.64 21.39.26 95.68.24 96.43zm-45.92-1.71l44.94.69c.12-6.57 1.32-75.41-.24-95.83-1.74-22.65-18.29-22.91-19-22.91h-.66c-12.05-.45-18.95 6.69-20.46 21.19-2.28 22.41-4.38 90.29-4.58 96.86z"/><path class="cls-5" d="M186.67 147.54l-51.09-.79v-.37c0-.81 2.36-80.93 5-106.64 1.72-16.43 9.59-24.53 23.36-24h.69c.81 0 19.76.3 21.72 25.92 1.8 23.4.28 104.68.26 105.5zM136.35 146l49.58.76c.11-6.05 1.46-82.5-.26-105-1.91-24.94-20.2-25.23-21-25.23H164c-13.32-.5-20.92 7.36-22.59 23.33C138.8 64.59 136.53 140 136.35 146z"/><path class="cls-20" d="M165.12 138.53s2-81.11 2-93.18-5.9-14.91-12.63-15.25-10.52 4.61-11.7 22-4 86.46-4 86.46z"/><path class="cls-5" d="M165.48 138.9h-27.09v-.39c0-.69 2.85-69.3 4-86.46 1.12-16.45 4.48-22.7 12.08-22.32 5.58.28 13 2.2 13 15.62 0 11.93-2 92.38-2 93.19zm-26.31-.75h25.58c.15-5.94 2-81.29 2-92.8 0-12.63-6.56-14.59-12.28-14.87-5.87-.3-10.05 3.26-11.3 21.62-1.12 16.48-3.77 80.43-4 86.05z"/><path class="cls-21" d="M650.9 154.83s-1.06-32.25-1.06-64.85 2.24-49.25 2.83-53.85 3-10.28 13.82-8.15v131.45l-15.59-4.6z"/><g class="cls-2"><path class="cls-5" d="M750.8 31.24L694.94-2.07l.51-.86 55.87 33.31zm0-10.62l-43.11-23 .47-.88 43.11 23z"/></g><path class="cls-19" d="M264.18 319.07V138.29L304.51 183v133.16h-.46zm1-178.18V318l38.33-2.76V183.37z"/><path class="cls-12" d="M526.25 214.02v-11.34h5.67v-11.64h36.28v10.49h6.81v12.75l-48.76-.26z"/><g class="cls-2"><path class="cls-5" d="M575.51 214.79l-49.76-.28v-12.33h5.67v-11.64h37.28V201h6.81zm-48.76-1.27l47.76.26V202h-6.81v-10.46h-35.28v11.64h-5.67z"/><path class="cls-15" d="M-.76 149.22l-.61-.8 38.4-29.17h72.81v1H37.37L-.76 149.22z"/></g><path d="M301.77 320.3V183.17l-22.68-24.8v162.99l22.68-1.06z"/><path class="cls-3" d="M278.59 321.89V157.08L302.27 183v137.8zm1-162.23v161.18l21.68-1V183.37z"/><g class="cls-2"><path class="cls-22" d="M560.55 21s2-.42 2-3.26-1.13-3.83-1.13-3.83 3.68-1.7 3.68-7.37a9 9 0 00-4.25-7.92l-21.26-.15s-5.81 2.4-5.81 8.64 3.12 7 3.12 7-2.13.12-2.13 3a3.24 3.24 0 002.13 3.4l23.67.57z"/><path class="cls-22" d="M560.6 21.46l-23.85-.58a3.8 3.8 0 01-2.5-3.89 3.31 3.31 0 011.43-3.06c-1-.79-2.42-2.65-2.42-6.86 0-6.49 6.06-9.08 6.12-9.11h.2l21.42.12.11.06a9.44 9.44 0 014.51 8.36c0 4.66-2.35 6.78-3.44 7.52a6.63 6.63 0 01.82 3.68c0 2.56-1.55 3.57-2.38 3.75zM537 19.9l23.53.56c.27-.09 1.54-.6 1.54-2.76 0-2.53-.95-3.45-1-3.45l-.55-.51.67-.32c.14-.06 3.39-1.66 3.39-6.92a8.5 8.5 0 00-3.88-7.42l-21-.15c-.74.33-5.42 2.66-5.42 8.14 0 5.77 2.7 6.45 2.73 6.46l-.08 1c-.17 0-1.66.2-1.66 2.48A2.8 2.8 0 00537 19.9zM689.67 13.59h-24.38s-2.41-.14-2.41-3.54c0 0-1.7-1.28-1.7-5a13 13 0 011.7-6.38l27.35.14a10.68 10.68 0 011.42 5.53 7.23 7.23 0 01-2.12 5.24 2.52 2.52 0 01.85 2.13c0 1.56-.71 1.84-.71 1.84z"/><path class="cls-22" d="M689.76 14.09h-24.47c-.06 0-2.8-.21-2.91-3.82-.48-.48-1.7-2-1.7-5.18a13.38 13.38 0 011.78-6.65l.15-.23 27.89.14.15.22a11.2 11.2 0 011.5 5.81 7.81 7.81 0 01-1.93 5.24 3.4 3.4 0 01.66 2.13c0 1.84-.92 2.26-1 2.3zM663.17-.79a12.83 12.83 0 00-1.49 5.88c0 3.35 1.49 4.55 1.5 4.56l.2.15v.25c0 2.89 1.86 3 1.94 3h24.19a1.79 1.79 0 00.37-1.34 2.07 2.07 0 00-.64-1.72l-.51-.36.47-.42a6.85 6.85 0 001.95-4.87 10.77 10.77 0 00-1.2-5z"/><path fill="#ab6427" d="M491.38 325.4H390.47v-60.94h-18.42v79.93h-48.76l-28.61 40.54 37.4 48.77h161.03l-1.73-108.3z"/><path d="M493.62 434.2H331.83l-.15-.19-37.62-49.07 29-41.05h48.51V264H391v60.9h100.88zm-161.3-1H492.6l-1.71-107.3H390V265h-17.46v79.93h-49l-28.25 40z" fill="#3c4a59"/><path d="M101.93 384.09v-41.4H78.38v92.7l23.55-51.3z"/><path class="cls-5" d="M78.83 435.59l-1-.2v-93.2h24.55l-.05 42.11zm0-92.4v89.91l22.6-49.1v-40.81z"/></g><path class="cls-25" d="M489.68 360H355.6v10.47h134.08V360z"/><path class="cls-26" d="M490.18 371H355.1v-11.5h135.08zm-134.08-1h133.08v-9.5H356.1z"/><g class="cls-2"><path class="cls-5" d="M40.04 287.7h-1V121.39h69.95v1H40.04V287.7z"/><path class="cls-15" d="M36.98 120.02h1v312.87h-1z"/></g><path class="cls-3" d="M253.77 177.72h-1l.32-77.87 62.07 71.3-.75.66-60.33-69.3-.31 75.21z"/><path class="cls-20" d="M76.67 238.94l.57-62.36 46.49 2.84-11.34 63.49-35.72-3.97z"/><path class="cls-5" d="M112.7 243.32h-.35l-36-4 .57-63.1 47.3 2.89zm-35.65-4.71l35 3.89 11.21-62.73L77.61 177z"/><g class="cls-2"><path class="cls-21" d="M681.02 12.74V182.4h8.38V12.74h-8.38z"/><path class="cls-15" d="M120 343l-5.1-1.43s-2.22 4.53-4.51 5.1-3.14-7.08-3.14-7.08-2 12.78-6.24 10.5l-1.84-3.84s-2.41 10.34-5.79 12.89-4-4.8-4-4.8-3.4 14.44-6 20.11-5.67 8.49-6 4.82c0 0-2.56 13.89-5.67 28.06s-5.39 20.13-7.37 20.13S62.22 417 62.22 417l-4.54 15.59-29.45 2 10.18-36.29 22.67-42 19.28-43.07 45.64-4.55-6 34.32z"/><path d="M27.55 435.08L38 398l22.67-41.95L80 312.76h.29l46.32-4.62-6.19 35.51-5.24-1.47c-.61 1.14-2.54 4.47-4.65 5a1.5 1.5 0 01-1.24-.25c-1-.71-1.68-2.77-2.06-4.53-.68 2.91-2 7.16-4.14 8.22a2.39 2.39 0 01-2.29-.07l-.15-.08-1.31-2.74c-.79 2.93-2.87 9.74-5.64 11.83a2.28 2.28 0 01-2.37.48c-1-.47-1.66-1.91-2-3.22-1.08 4.33-3.47 13.53-5.42 17.86-1.48 3.3-3.85 7-5.64 6.74a1.16 1.16 0 01-.6-.29c-.79 4.18-2.9 15.22-5.35 26.33-4 18-6.12 20.52-7.85 20.52s-2.36-4.42-2.62-8L58.07 433zm11.32-36.64L28.9 434l28.4-1.91 4.44-15.26 1 .13c.15 5.72 1.06 10 1.77 10 1.68 0 4-6.64 6.88-19.73 3.08-14 5.64-27.91 5.66-28.05l1 .05c.07.83.28 1.16.44 1.19.69.14 2.67-2 4.56-6.17 2.5-5.57 5.89-19.88 5.92-20l1 .07c.13 1.6.75 4.33 1.83 4.81.14.06.55.25 1.36-.37 3.2-2.41 5.58-12.51 5.6-12.61l.33-1.38 2.38 5a1.39 1.39 0 001.24 0c2.26-1.13 3.74-7.75 4.12-10.2h1c.23 2.14 1 5.81 2.09 6.56a.52.52 0 00.43.1c1.7-.42 3.59-3.64 4.18-4.84l.19-.38 5 1.4 5.77-33.12-44.79 4.41-19.16 42.8z"/></g><path class="cls-5" d="M109.47 97.78h.75v36.85h-.75zM238.91 67.32h1v91.54h-1z"/><g class="cls-2"><path class="cls-15" d="M106.72 186.22s-14.17 1.73-21 .87-9.36-3.15-5.39-3.7 7.94-1.14 7.94-1.14-18.14-2.25-24.92-4.53-11.86-6-8.19-6 20.38-.56 19.53-.85-24.09-1.13-31.75-3.68-12.49-8.49-7.93-8.49S60 160.14 60 160.14 13.79 155.59 4.13 148s-5.43-9.07-.59-7.37 29.48 9.36 53.58 5.67l59.81 2.57 6.52 22.68-16.73 14.72z"/></g><path class="cls-25" d="M490.82 397.69h-128.7v11.05h128.41l.29-11.05z"/><path class="cls-26" d="M491 409.24H361.62v-12.06h129.71zm-128.4-1h127.45l.25-10.06H362.62z"/><path class="cls-27" d="M494.79 331.07l-21.26 35.43 21.82.59-.56-36.02z"/><path class="cls-19" d="M495.86 367.6l-23.2-.62 22.6-37.67zM474.4 366l20.44.54-.53-33.74z"/><path class="cls-28" d="M220.39 286.57s12.19-2.84 21.26-11.34 11.93-13 11.93-13S279.92 261.05 289 237s-9.64-54.68-49-79.64-42.35-20-86.46-22.41c-42.23-2.26-64.34-3.1-87.59-15.59 0 0-.3 5.1 7.94 8.51S99.12 136.05 109 138c0 0-54.19-2.27-66.07-17.57 0 0-3.12 5.38 4 9.35s26.55 13 60 14.74c0 0-84.07-1.42-89.46-19.27 0 0-3.68 1.13-1.7 7.37s22.68 18.14 91 19.27c0 0-23 2-38 3.4 0 0 4.82 7.12 22.11 6.25s17.57-.58 17.57-.58-13 3.4-19.25 4c0 0 2.53 5.39 25.77 2.83l-14.17 4.82s.83 1.7 10.2 2.84l109.39 111.12z"/><path class="cls-29" d="M220.23 287.12l-.19-.2-109.3-111c-9-1.11-10.26-2.76-10.42-3.09l-.25-.51 10.69-3.63c-19.44 1.49-21.94-3.3-22-3.52l-.3-.64.71-.07a130.44 130.44 0 0015.19-3c-2.54.07-6.69.24-13.45.57-17.37.87-22.34-6.17-22.55-6.47l-.47-.7.84-.07c9-.85 21-1.92 29.06-2.63-60.6-2-80.44-12.95-82.5-19.4-.81-2.55-.81-4.61 0-6.13a3.8 3.8 0 012.05-1.87l.48-.15.15.48c3.66 12.15 45.59 16.56 70.57 18.11-22.49-3.35-36.26-9.88-41.81-13-2.54-1.42-4.12-3.19-4.68-5.25a6.64 6.64 0 01.52-4.79l.37-.65.46.59c9.17 11.82 44.59 15.8 59.27 17-9.61-2.32-22.08-6-29-8.82-8.48-3.5-8.26-8.77-8.25-9v-.78l.69.37c22.45 12.06 44.19 13.23 83.65 15.33l3.73.2c7.67.42 14 .61 19.67.77 26.4.79 34.36 1 67 21.72 39.57 25.07 58.43 55.81 49.24 80.24-8.6 22.84-32.82 25.34-35.6 25.55-.68 1-3.84 5.38-11.87 12.9-9.06 8.5-21.36 11.44-21.48 11.46zM101.8 172.79c1 .52 3.39 1.46 9.23 2.16h.18l.12.13L220.55 286c1.83-.47 12.63-3.53 20.76-11.15 8.9-8.34 11.82-12.88 11.85-12.92l.14-.22h.26c.26 0 26.12-1.43 35-24.92 9-24-9.69-54.25-48.84-79-32.43-20.55-40.33-20.79-66.52-21.57-5.63-.17-12-.36-19.69-.77l-3.73-.2c-39.13-2.09-60.89-3.25-83.25-15 .31 1.52 1.67 4.74 7.54 7.16 8.48 3.5 25.52 8.26 35.08 10.18l-.12 1c-2.19-.09-53.08-2.39-65.91-17.12a5.63 5.63 0 00-.12 3.34c.49 1.79 1.9 3.34 4.2 4.63 6.87 3.84 26.44 13 59.75 14.67v1c-.21 0-21.29-.38-42.76-2.94-28.3-3.38-44.09-8.8-47-16.14-.8.53-2.33 2.15-.93 6.52 1.92 6.06 23.33 17.82 90.52 18.93v1c-.23 0-22.15 1.91-37 3.31 1.75 1.72 7.54 6 21 5.35 17.52-.88 17.77-.63 18-.44l.61.62-.84.22c-.12 0-11.81 3.08-18.32 3.87 1.62 1.25 7.21 3.86 24.66 2l.21 1z"/><g class="cls-2"><path class="cls-28" d="M127.41 292l-23.24-24.66s10.51-26.64-12.16-34-49.3 17-59.53 68-2.86 91.54-20.72 129h7.09l7.09-18.7-6.24 18.7 14.46-.34 8.24-28.91-2 30 4.84-.28s8.51-43.67 14.18-64.35c0 0-2.25 28.63 1.41 28.35s2.58-6.52 7.09-27.21S75 332.77 75 332.77s-2 17.29 1.39 17.58 6.52-34 6.52-34 1.7 10.77 3.69 10.49 5.67-10.49 5.67-10.49.42 9.78 2.83 9.64c3.4-.2 6.83-10.77 6.83-10.77s1.3 7.95 3.54 7.95 6.92-12.49 6.92-12.49.47 9.39 3 9.65 8.06-10.78 8.06-10.78l4-17.58z"/><path class="cls-29" d="M39.85 431.67l1.74-25.91-7.05 24.73-15.54.31h-8l.34-.71c10.66-22.44 12.25-45.55 14.08-72.31C26.64 340 27.9 321.59 32 301.21c6.34-31.66 19.56-55.42 36.25-65.18 7.91-4.63 16.18-5.74 23.92-3.23 6.12 2 10.43 5.55 12.8 10.59 4.59 9.74.56 21.7-.21 23.79L128 291.8l-4.07 17.95c-.94 1.9-5.78 11.38-8.55 11.06-2.12-.22-3-4.92-3.27-7.93-1.61 4-4.61 10.77-6.6 10.77s-3.12-4-3.68-6.55c-1.18 3.14-3.81 9.2-6.66 9.37a1.45 1.45 0 01-1.09-.42c-1.29-1.16-1.86-4.92-2.11-7.42-1.31 3.33-3.58 8.44-5.26 8.68s-2.85-3.82-3.6-7.36c-1.14 11.49-3.53 30.89-6.66 30.9h-.06a1.6 1.6 0 01-1.13-.64c-1.15-1.4-1.39-5.3-1.31-9.07-1.21 6.19-3.08 15.49-5.51 26.61-1.65 7.56-2.55 13.18-3.2 17.29-1.18 7.36-1.62 10.11-4.34 10.32a1.21 1.21 0 01-1-.4c-2.15-2.15-1.74-15.56-1.31-23.27-5.54 21.74-12.79 58.85-12.86 59.31l-.08.38zM41.92 401l1 .17-2 29.48 3.89-.23c.85-4.35 8.78-44.56 14.11-64l1 .17c-.79 10.08-1.27 25.77.67 27.71.11.11.17.1.21.1 1.84-.14 2.26-2.24 3.42-9.48.66-4.12 1.56-9.76 3.21-17.34 4.46-20.45 7.06-34.71 7.09-34.85l1 .15c-.45 3.93-1.25 14.6.5 16.74a.65.65 0 00.44.28c1.58 0 4.3-15.32 6-33.56h1c.93 5.89 2.38 10.16 3.12 10.07 1-.15 3.54-5.39 5.27-10.16l1 .15c.09 2.1.61 7.8 1.94 9a.51.51 0 00.36.16c2.23-.13 5.1-6.47 6.38-10.43l1 .08c.59 3.62 1.93 7.53 3 7.53s4.26-6.31 6.45-12.16l1 .15c.19 3.72 1.11 9 2.55 9.18s5.3-6 7.53-10.46l3.9-17.26-23.28-24.7.12-.29c.05-.13 5.1-13.22.35-23.3-2.26-4.77-6.36-8.16-12.21-10.06-7.46-2.42-15.45-1.34-23.11 3.14C52.3 246.51 39.26 270 33 301.41c-4.07 20.31-5.33 38.68-6.55 56.44-1.82 26.58-3.4 49.57-13.87 71.93h5.92l7-18.38.94.33-6 18 13.38-.26z"/></g><path class="cls-3" d="M476.61 365.03l18.31-30.8.86.51-17.4 29.27 12.43-.13.01 1-14.21.15z"/><path class="cls-30" d="M169.37 285.64A72.35 72.35 0 1097 213.29a72.35 72.35 0 0072.35 72.35z"/><path class="cls-31" d="M169.37 286.14a72.85 72.85 0 1172.85-72.85 72.93 72.93 0 01-72.85 72.85zm0-144.7a71.85 71.85 0 1071.85 71.85 71.93 71.93 0 00-71.85-71.85z"/><path class="cls-30" d="M656.36 295.42a71.5 71.5 0 10-71.5-71.5 71.5 71.5 0 0071.5 71.5z"/><path class="cls-31" d="M656.36 295.92a72 72 0 1172-72 72.08 72.08 0 01-72 72zm0-143a71 71 0 1071 71 71.08 71.08 0 00-71-71z"/><g class="cls-2"><path class="cls-32" d="M565.39 266.46s6.83-7.11 19.84-12.21 24.36-9.64 24.36-9.64l1.7 1.14 5.12-1.7s-2-8.37-1.15-21c1.41-21 .57-20.83 10.2-31.73 7.73-8.74 15.92-15.32 36.31-15.32s38.27 22.11 36.85 38.55-4.56 29.48-28.94 57.26l.59 9.07s8.63 6.66 9.19 12.33a42.38 42.38 0 002.7 12c1.13 2.83 1.13 4.8 1.13 8.5s3.54 8.5 3.54 12.47.12 8.77 1 11.34.56 6.83 1.7 12.49 2.83 8.19 2.83 11.89-.57 8.49 1.13 12.47 1.71 8.21 0 9.64l1.14 2.27 1.16 6.8 1.67 1.13v8.51l2.58 1.13-.88 5.1 2.27 2.27 2.84 9.07 2.26.57 1.7 7.94-87.3 3.41-55.56-68.61v-97.21z"/><path class="cls-15" d="M620.7 432.79l-55.83-68.94v-97.59l.14-.15c.07-.07 7.05-7.24 20-12.32s24.24-9.59 24.35-9.64l.25-.1 1.71 1.15 4.47-1.49a80.59 80.59 0 01-1.03-20.71c.12-1.8.22-3.44.32-4.95 1-16 1.08-17 10-27.08 7.22-8.17 15.46-15.49 36.68-15.49 9.4 0 19.14 4.73 26.71 13 7.27 7.92 11.34 17.93 10.64 26.11-1.37 15.83-4.24 29.23-28.92 57.39l.56 8.64c1.28 1 8.66 7.11 9.2 12.54a42.77 42.77 0 002.66 11.91c1.17 2.92 1.17 5 1.17 8.69 0 1.72.82 3.72 1.69 5.83s1.85 4.52 1.85 6.64c0 3.89.11 8.67 1 11.18a23.5 23.5 0 01.78 5.2 58.45 58.45 0 00.9 7.39 50.2 50.2 0 001.58 5.85 19.33 19.33 0 011.26 6.14v2.26c-.09 3.24-.2 6.9 1.13 10 1.72 4 1.75 8.15.15 9.93l1 2.08 1.12 6.6L698 394v8.44l2.64 1.16-.9 5.23 2.17 2.17 2.79 8.93 2.3.57 1.89 8.82zm-54.83-69.3l55.29 68.28 86.46-3.38-1.51-7.05-2.24-.56-2.87-9.22-2.36-2.36.85-5-2.49-1.09v-8.56l-1.63-1.1-1.18-6.95-1.32-2.5.3-.25c1.52-1.28 1.45-5.34-.14-9.06-1.41-3.32-1.31-7.1-1.21-10.44v-2.23a18.75 18.75 0 00-1.21-5.84 50.22 50.22 0 01-1.61-5.95 61.92 61.92 0 01-1-7.47 22.13 22.13 0 00-.73-5c-.9-2.65-1-7.54-1-11.5 0-1.92-.9-4.13-1.78-6.26s-1.76-4.29-1.76-6.21c0-3.71 0-5.57-1.1-8.32a43.22 43.22 0 01-2.63-12.19c-.54-5.39-8.92-11.92-9-12l-.18-.13-.62-9.51.14-.15c24.66-28.11 27.42-40.81 28.81-57 .68-7.91-3.29-17.62-10.38-25.34-7.38-8.05-16.85-12.66-26-12.66-20.81 0-28.87 7.16-35.93 15.15-8.7 9.84-8.74 10.46-9.76 26.49-.1 1.51-.2 3.15-.32 4.94a76.79 76.79 0 001.14 20.83l.11.45-5.8 1.92-1.68-1.12c-1.72.68-12.29 4.9-24.11 9.54a60.68 60.68 0 00-19.53 11.94z"/><path class="cls-8" d="M622.06 429.43l-38-60.09s-3.36-18.68-5.93-47.61-4.85-58.41-24.69-59.54-48.71 24.41-58.93 70.88-6.26 54.44 1.67 97.8l125.86-1.44z"/><path class="cls-5" d="M496 431.12v-.21c-.91-4.94-1.78-9.51-2.54-13.54-6.14-32.26-8.21-43.12.86-84.35 9.79-44.46 37.31-71.12 57.87-71.12h1.33c19.71 1.13 22.29 30.17 24.78 58.26l.14 1.51c2.48 27.88 5.72 46.46 5.91 47.54l38.2 60.43h-.45zm56.14-168.72c-20.36 0-47.64 26.51-57.37 70.72-9 41.13-7 52-.86 84.15.75 4 1.61 8.48 2.5 13.34l125.2-1.42-37.77-59.76v-.05c0-.18-3.39-19-5.93-47.63l-.13-1.5c-2.48-27.88-5-56.71-24.32-57.81-.46-.03-.88-.04-1.32-.04z"/><path class="cls-15" d="M495.79 431.37l-.08-.41c-.9-4.94-1.75-9.42-2.54-13.55C487 385.12 485 374.24 494 333c9.27-42.13 33.36-66.09 51.82-70.52l.23 1c-18.16 4.36-41.89 28-51.08 69.77-9 41.08-7 51.9-.86 84.05.77 4 1.59 8.36 2.47 13.13l17.84-.2v1z"/><path class="cls-5" d="M498.83 431.12v-.21c-.9-4.93-1.77-9.51-2.54-13.54-6.14-32.26-8.21-43.12.87-84.35 9.25-42 33.25-65.93 51.63-70.34l.12.49c-18.24 4.37-42.06 28.13-51.27 69.95-9.05 41.13-7 52-.86 84.16.76 4 1.61 8.48 2.51 13.33l18-.2v.5z"/></g><path d="M539.29 260.49s-16.44 20.14-20.41 35.73-5.1 31.17 4.53 43.07 21.24 8.51 21-7.37 4.54-34.55 9.64-47 5.1-21 5.1-21l-19.84-3.4z"/><path class="cls-33" d="M547.93 254s4.59-7.37 1.87-12.19-6.57-8.5-6.83-13.32-1-13 .15-17.15 4-9.36 6-8.93c.75.16.91.79.78 1.66-.21 1.42 1.91-4.78 2.76-6.76s3.4-.85 3 1.7c0 0 .68-7.23 3.82-6.66s.71 6.23.43 10.91-.28 15.31-.28 15.31 1.27-11 1.7-14.45.85-8.52 2.83-8.37 1.56 6.36 1.56 10.2-.12 11.43 0 13.2a34.37 34.37 0 003.83 11.32c2.41 4.52 4.39 6.52 5.53 4.11s2.12-8.22 5.52-9.07 3.81 0 1.42 2.84-4.39 11.33-7.09 14.73-10.34 7.22-14 13.89l-.71 1.85-12.29-4.82z"/><path class="cls-26" d="M560.41 259.44l-13.22-5.23.32-.51c0-.07 4.39-7.17 1.86-11.67-.82-1.45-1.75-2.81-2.64-4.12-2.09-3-4.07-5.93-4.26-9.43 0-.67-.08-1.42-.13-2.21-.29-4.85-.7-11.48.29-15.1s3.89-9.86 6.54-9.28a1.46 1.46 0 01.93.57c.24-.62.51-1.34.75-2 .48-1.3 1-2.64 1.3-3.39a1.9 1.9 0 012.31-1.24 2.15 2.15 0 011 .7c.36-1.54 1-3.4 2.14-4.26a2.33 2.33 0 011.86-.46 2.21 2.21 0 011.48.91c.9 1.31.47 3.62 0 6.3a35.33 35.33 0 00-.61 4.23c-.09 1.53-.16 3.71-.2 5.94.25-2.1.48-4 .62-5.17l.11-.89c.45-3.79 1-8.09 3.26-7.92s2.1 4.61 2 8.93V210.42c0 3.5-.06 7.47 0 8.65a34.19 34.19 0 003.77 11.13c2.34 4.38 3.49 4.87 3.89 4.87.26 0 .5-.26.73-.74s.53-1.34.81-2.17c.93-2.72 2.21-6.46 5-7.17 2-.5 3-.44 3.4.21s0 1.67-1.48 3.43c-1.12 1.33-2.17 4-3.29 6.88s-2.37 6.06-3.78 7.85a29.47 29.47 0 01-4.64 4.13c-3.15 2.47-7.07 5.56-9.35 9.69zm-11.75-5.72l11.18 4.42.53-1.37c2.4-4.37 6.41-7.53 9.64-10.06a28.26 28.26 0 004.46-4c1.32-1.66 2.5-4.68 3.64-7.59s2.23-5.7 3.46-7.16c1.52-1.8 1.4-2.24 1.39-2.26s-.31-.26-2.3.24c-2.32.57-3.45 3.88-4.35 6.53-.29.85-.57 1.66-.85 2.26-.41.86-1 1.3-1.61 1.32-1.35 0-2.83-1.68-4.81-5.4a35.17 35.17 0 01-3.89-11.53c-.08-1.22 0-5 0-8.73v-4.5-1.79c0-2.73.12-7.83-1.11-7.91s-1.88 4.37-2.2 7l-.11.9c-.42 3.41-1.7 14.43-1.7 14.43l-1-.05c0-.11 0-10.7.28-15.34a36.47 36.47 0 01.63-4.35c.44-2.36.85-4.59.19-5.55a1.18 1.18 0 00-.83-.49 1.32 1.32 0 00-1.08.27c-1.29 1-1.93 4.06-2.12 5.57a3.05 3.05 0 010 .41l-1-.13v-.36a1.62 1.62 0 00-1-1.77c-.46-.14-.87.12-1.11.67-.31.73-.81 2.06-1.28 3.35-1.51 4.05-1.51 4.05-2.06 3.91-.21 0-.45-.23-.37-.76.15-1-.19-1.06-.4-1.1-1.33-.29-4.13 4.11-5.36 8.57-1 3.45-.55 10-.26 14.77 0 .79.1 1.54.13 2.22.18 3.21 2.07 6 4.08 8.92.91 1.33 1.85 2.7 2.69 4.19 2.51 4.38-.49 10.44-1.5 12.25z"/><path class="cls-34" d="M549.85 204c-.21 1.42-1.19 3.47-1.63 5.14-.71 2.69-1.28 4.52-.85 7.51a35.06 35.06 0 01.28 5.83"/><path class="cls-26" d="M548.15 222.54h-1a33.87 33.87 0 00-.28-5.74 16.18 16.18 0 01.73-7.21l.14-.5c.19-.73.48-1.54.77-2.32a15.91 15.91 0 00.85-2.76l1 .14a17 17 0 01-.9 3c-.28.75-.57 1.54-.75 2.23l-.13.5a15.25 15.25 0 00-.71 6.81 34.06 34.06 0 01.28 5.85z"/><path class="cls-28" d="M558.56 272.39a77.09 77.09 0 005.25-15.3L547.08 250a27.09 27.09 0 00-5.67 6.52c-2.4 4-4.67 7.1-4.67 7.1a231.67 231.67 0 0021.82 8.77z"/><path class="cls-32" d="M558.82 273l-.42-.14a233 233 0 01-21.87-8.8l-.55-.25.35-.49s2.29-3.17 4.66-7.07a26.84 26.84 0 015.79-6.65l.23-.19 17.37 7.37-.08.4a79.75 79.75 0 01-5.3 15.43zm-21.33-9.59c2.26 1 11.24 5.1 20.81 8.36a77.84 77.84 0 004.93-14.39l-16.06-6.81a26.74 26.74 0 00-5.33 6.2c-1.84 3.04-3.61 5.61-4.35 6.65z"/><path d="M624.33 227.32a80.76 80.76 0 01-4-12.33c-1.28-6-.85-7.65-.85-7.65a7.67 7.67 0 014.39-3.55c3.4-1.27 4.11-1 4.11-1a39.1 39.1 0 0116.3-6.8s8.08 6.93 16.59 8.22c0 0 5.38 3.69 9.63 3.69 0 0 1.7 14 5.39 21.82 0 0-3.26 9.36-.85 19.14 0 0-.28 4.83-8.65 6.25a70.65 70.65 0 01-14.88 1l-24.66-5.95-2.55-22.82z"/><path class="cls-33" d="M622.91 258.5s8.36 10.24 11.48 19.29c0 0 12.19.27 15-1.71a33.44 33.44 0 011.42-11.2c1.84-6.09 7.37-17.86 7.37-17.86l.73-1.56a7.17 7.17 0 004.8-1.41s.28-2.27.43-6-.29-7.65-.29-11.62-.42-9.21-6.8-12.75-9.5-6.24-12.62-7.23-11.62-3.12-13.74 1.13-4 8.22-4.4 11.06a21.86 21.86 0 01-2.27 6.94c-1 2-2.4 5.81-1.55 12.76s2 11.89 3.82 14.31l-3.4 5.81z"/><path class="cls-26" d="M635.9 278.31H634l-.11-.33c-3-8.87-11.31-19-11.4-19.14l-.22-.27 3.42-5.83c-1.66-2.39-2.82-6.83-3.73-14.28-.65-5.31-.12-9.58 1.61-13a21.89 21.89 0 002.22-6.8c.41-2.75 2.07-6.47 4.44-11.2s11.58-2.27 14.35-1.39a28.52 28.52 0 016.2 3.35c1.81 1.15 3.85 2.45 6.5 3.92 6.21 3.45 7.06 8.38 7.06 13.19 0 1.72.08 3.45.16 5.13.11 2.27.21 4.41.13 6.51-.15 3.67-.43 6-.43 6v.19l-.15.13a7.51 7.51 0 01-4.8 1.55l-.59 1.26c-.06.11-5.54 11.8-7.35 17.79a33.31 33.31 0 00-1.4 11v.28l-.24.17c-2.31 1.59-10.37 1.77-13.77 1.77zm-1.15-1c3.48.05 11.68-.12 14.15-1.49a34 34 0 011.45-11.07c1.84-6.06 7.35-17.81 7.4-17.93l.88-1.88h.35a6.83 6.83 0 004.28-1.18c.07-.63.28-2.71.4-5.72.08-2.06 0-4.18-.13-6.42-.08-1.69-.16-3.44-.16-5.18 0-4.51-.79-9.12-6.54-12.32a91.65 91.65 0 01-6.56-4 27.89 27.89 0 00-6-3.24c-1.83-.58-11.07-3.27-13.15.89-2.32 4.64-3.95 8.28-4.34 10.9a22.75 22.75 0 01-2.32 7.1c-1.64 3.28-2.13 7.36-1.51 12.47.92 7.45 2.1 11.92 3.73 14.07l.2.27-3.39 5.8c1.35 1.75 8.35 10.79 11.26 18.92z"/><g class="cls-2"><path class="cls-8" d="M410.6 429.43l-.29-83.9-20.41.3.57 83.04 20.13.56z"/><path class="cls-17" d="M411.1 430l-21.13-.6v-.48l-.57-83.54 21.41-.31zm-20.1-1.62l19.12.54-.31-82.92-19.4.28z"/><path class="cls-8" d="M359.51 428.87v-23.25l-19.28-1.13v26.08l19.28-1.7z"/><path class="cls-17" d="M339.73 431.11V404l20.27 1.15v24.17zm1-26.09v25l18.27-1.61v-22.32z"/></g><path d="M400.11 354.6c5.12 0 9.92-5.67 9.92-5.67a9.61 9.61 0 005.13-4.54c1.67-3.4.3-4.81-1.42-4.81 0 0 3.09-2.27 4.79-8.51H381.4s1.7 6.66 6 9.21c0 0-3.14.14-1.13 4.68s4.82 5.39 4.82 5.39 4 4.25 9.07 4.25z"/><path d="M400.11 355.1c-4.9 0-8.72-3.68-9.35-4.32-.62-.24-3.15-1.43-5-5.62-.82-1.86-.93-3.29-.33-4.26a2.3 2.3 0 01.81-.78c-3.75-2.91-5.26-8.66-5.32-8.92l-.16-.63h38.43l-.17.63a18.53 18.53 0 01-4.2 8.06 2.41 2.41 0 011.21 1c.44.71.73 2-.43 4.39a10.06 10.06 0 01-5.28 4.75c-.71.76-5.24 5.7-10.21 5.7zm-18-23.53c.53 1.68 2.26 6.32 5.54 8.28l1.42.86-1.66.07a1.46 1.46 0 00-1.09.65c-.41.67-.27 1.82.4 3.33 1.87 4.24 4.48 5.1 4.5 5.11h.13l.09.09s3.89 4.1 8.71 4.1 9.49-5.44 9.54-5.49l.09-.11.13-.05a9.18 9.18 0 004.84-4.28c.74-1.5.91-2.72.47-3.42a1.64 1.64 0 00-1.44-.67h-1.51l1.21-.91s2.78-2.11 4.43-7.6z"/><path class="cls-35" d="M203.67 285.43s-11.2-13.05-14-22.39-2.13-12.19-2.13-12.19l8.22-3.4 10.2-22.11.29-30.62-13.32-5.95-26.65 4.82-17.89 28.91 7.09 18.15-7.66 42 55.85 2.83z"/><path class="cls-36" d="M204.8 286l-57.57-2.92L155 240.7l-7.12-18.25.13-.21 18-29.1 27-4.89 13.76 6.15-.33 31.15-10.34 22.29-8.1 3.36c-.08.85-.15 4.1 2.15 11.69 2.78 9.13 13.83 22.09 13.94 22.22zm-56.38-3.86l54.13 2.75c-2.57-3.12-11-13.66-13.39-21.7-2.85-9.36-2.17-12.33-2.14-12.45l.07-.25 8.27-3.42 10.08-21.83.28-30.18-12.89-5.76-26.27 4.7L149 222.55l7.05 18z"/><path class="cls-37" d="M156.33 220.8c2.83-3.4 3.12-6 2.83-8.78 0 0 3.4-1.7 4-7.37 0 0 4.87-.57 5.41-4.82 0 0 4-1.14 5.08-3.12a7 7 0 006.26-2s4.28 2 5.67-2c0 0 4.51 2.83 7.35-.28 0 0 3.11 2 4.81-.57a15.23 15.23 0 006.52 5.12 76.21 76.21 0 01-.26 11c-.59 5.1.26 11.62-1.15 18.42s-4.79 14.8-9.07 19.85c-2.41 2.83-3.83 3.25-3.83 3.25a4.28 4.28 0 012.72 1.56c1.11 1.42 4.22 4 6.77 1.7s2-6.25.86-6.23c0 0 5.14 1.13 6.54-2.84s-1.44-5.1-1.44-5.1 3.68-.87 4.53-5.67-2-6.23-2-6.23a5.85 5.85 0 002.55-3.69 4.21 4.21 0 00-.83-3.4 3.48 3.48 0 001.68-3.12 4.17 4.17 0 00-2-3.4 5.71 5.71 0 002.26-5.1 4.2 4.2 0 00-3.11-4 4.51 4.51 0 002.83-4.54 4.84 4.84 0 00-3.4-4.25s2-2.27.85-4.53-4-1.71-7.37-7.09-10.49-19-32-19-26.93 13.9-26.93 13.9-5.95.54-8.51 5.94a20.57 20.57 0 00-1.41 11.34s-6.81 3.1-6.81 9.92 4 9.07 4 9.07-1.93 4.54 2 9.64 5.36 4.53 5.36 4.53.29 7.09 7.09 9.36a7 7 0 001.42 5.38 12.21 12.21 0 003.14 2.84 13 13 0 01-1.73 3.68c-.85.85-1.72 4.26-1.41 6.81a4 4 0 00-3.12 4.25v4.25s-1.7.55-1.14 2.83 4.26 2.27 6.81.86 4.82-2.84 4.53-6a8.07 8.07 0 002-7.65s4-4.54 2.27-10.21a8.58 8.58 0 003.14-6.8c0-4.53 0-6.77-2.84-7.64s-2-4-2.29-5.68 1.42-4.54 1.42-4.54z"/><path class="cls-26" d="M144.43 270.75a5.16 5.16 0 01-2-.36 3 3 0 01-.5-5.12v-3.93a4.58 4.58 0 013.08-4.62c-.19-2.64.67-5.86 1.6-6.79a10.7 10.7 0 001.48-3.11 16.13 16.13 0 01-2.92-2.73 7.35 7.35 0 01-1.59-5.37c-5.67-2.12-6.78-7.57-7-9.2-.85-.17-2.49-1.09-5.3-4.73-3.45-4.46-2.61-8.49-2.22-9.74-1-.75-3.87-3.38-3.87-9.27 0-6.24 5.32-9.45 6.76-10.21a20.76 20.76 0 011.51-11.26 11.44 11.44 0 018.62-6.19c.93-2 7.34-13.94 27.27-13.94 20.59 0 28.18 12.31 31.83 18.23l.62 1a13.53 13.53 0 005.05 5 5.4 5.4 0 012.35 2.16 4.58 4.58 0 01-.52 4.54 5.24 5.24 0 013.12 4.43 4.86 4.86 0 01-2.18 4.51 4.77 4.77 0 012.46 4 6.18 6.18 0 01-1.95 5.12 4.48 4.48 0 011.67 3.42 4 4 0 01-1.47 3.24 5.16 5.16 0 01.62 3.34 5.9 5.9 0 01-2.2 3.62c.87.77 2.28 2.62 1.63 6.33a7.42 7.42 0 01-4 5.7c.84.76 1.84 2.32.85 5.15s-3.72 3.4-5.77 3.32a5.92 5.92 0 01-1.76 6 3.81 3.81 0 01-3 1 7.37 7.37 0 01-4.55-2.78 3.74 3.74 0 00-2.37-1.37l-.09-1s1.34-.47 3.59-3.11c3.92-4.61 7.44-12.32 9-19.62a59 59 0 00.89-11.78 59.76 59.76 0 01.26-6.6c.14-1.27.23-2.59.28-3.87l-.3.31a5.79 5.79 0 00-4.54-1.41 17.43 17.43 0 00-7.12 3.28l-.65-.76a18.38 18.38 0 017.63-3.52 6.72 6.72 0 015 1.38c.08-2.79 0-5.21 0-6.05a15.7 15.7 0 01-6.05-4.64c-1.44 1.49-3.51 1-4.72.37-2.47 2.34-5.89 1-7.18.36a3.77 3.77 0 01-2 2 5.54 5.54 0 01-3.85-.1 7.43 7.43 0 01-6.13 1.95c-1.18 1.64-3.94 2.65-4.87 3-.65 3.58-4.2 4.61-5.4 4.86-.59 4.67-3 6.65-3.9 7.21.25 3-.2 5.5-2.95 8.81-.46.78-1.54 2.94-1.34 4.17a9.32 9.32 0 01.09 1.45c0 1.92.17 3.32 1.86 3.84 3.15 1 3.16 3.44 3.19 7.95v.16a9.15 9.15 0 01-3.07 7 12 12 0 01-2.3 10.15 8.57 8.57 0 01-2 7.72c.18 3.42-2.58 5-4.81 6.19a8.3 8.3 0 01-3.87.91zm-6.85-42.47v.72c0 .28.36 6.78 6.75 8.9l.41.14-.08.43a6.59 6.59 0 001.3 5 12.35 12.35 0 003 2.72l.38.19-.12.41c-.1.3-.94 3-1.85 3.89-.71.7-1.57 3.91-1.28 6.39l.06.46-.46.09a3.55 3.55 0 00-2.71 3.76V266l-.35.12c-.12 0-1.23.48-.8 2.23a1.72 1.72 0 001.05 1.17 6.34 6.34 0 005-.63c2.66-1.48 4.52-2.74 4.28-5.47v-.25l.19-.17a7.53 7.53 0 001.83-7.17l-.06-.25.17-.19s3.77-4.4 2.17-9.73l-.11-.34.29-.21a8 8 0 002.94-6.4v-.16c0-4.75-.15-6.28-2.48-7-2.52-.77-2.55-3.08-2.57-4.78a10 10 0 00-.07-1.3c-.31-1.86 1.41-4.75 1.48-4.87v-.07c2.65-3.18 3-5.57 2.73-8.41v-.35l.31-.15c.13-.07 3.16-1.68 3.69-7v-.4h.4c.19 0 4.49-.58 5-4.39l.05-.32.31-.09s3.77-1.11 4.79-2.89l.18-.32.37.08a6.4 6.4 0 005.78-1.85l.25-.25.32.15a4.78 4.78 0 003.37.21 3 3 0 001.62-1.91l.2-.58.53.33c.17.1 4.2 2.57 6.72-.2l.28-.31.35.22c.11.07 2.73 1.69 4.14-.42l.42-.62.41.62a14.69 14.69 0 006.29 4.93l.3.12v.27a75.75 75.75 0 01-.26 11.12 60.3 60.3 0 00-.25 6.5 59.73 59.73 0 01-.91 12c-1.56 7.46-5.16 15.34-9.18 20.07a16.7 16.7 0 01-2.92 2.79 4.65 4.65 0 011.82 1.4 6.44 6.44 0 003.85 2.39 2.8 2.8 0 002.2-.76 5.05 5.05 0 001.55-4.62 1.31 1.31 0 00-.33-.72h-.14l.1-1a.74.74 0 01.33.05c.94.16 4.65.56 5.75-2.55 1.21-3.44-1.06-4.43-1.16-4.48l-1.43-.59 1.5-.36c.14 0 3.38-.87 4.16-5.26s-1.62-5.66-1.72-5.71l-.77-.4.73-.47A5.39 5.39 0 00210 223a3.72 3.72 0 00-.7-3l-.46-.49.6-.31a3 3 0 001.4-2.67 3.64 3.64 0 00-1.73-3l-.69-.4.66-.45a5.19 5.19 0 002.05-4.64 3.69 3.69 0 00-2.72-3.52l-1.69-.36 1.61-.6a4 4 0 002.51-4 4.34 4.34 0 00-3-3.81l-.77-.21.52-.6s1.75-2.05.78-4a4.49 4.49 0 00-2-1.75 14.65 14.65 0 01-5.37-5.29c-.2-.31-.41-.65-.63-1-3.55-5.76-10.95-17.75-31-17.75-20.92 0-26.41 13.45-26.47 13.58l-.11.29h-.31s-5.7.59-8.09 5.65a20.25 20.25 0 00-1.38 11l.07.39-.35.16c-.07 0-6.52 3.06-6.52 9.47s3.57 8.55 3.72 8.64l.38.22-.17.4c-.07.18-1.76 4.35 2 9.14 3.47 4.49 4.83 4.37 4.84 4.36zm31.56-19.07l-.76-.65c.2-.24 5.06-5.87 11.62-5.29a9.81 9.81 0 016.19 2.84l-.7.71a8.81 8.81 0 00-5.58-2.55c-6.03-.54-10.72 4.88-10.77 4.94z"/><path class="cls-36" d="M192.11 229.66a2.43 2.43 0 01-.74-.12 2.73 2.73 0 01-1.51-1.18 4 4 0 01-2.35 1.16 1.71 1.71 0 01-1.46-1.11 3.53 3.53 0 01.22-3.52c.94-1.2 1.5-1.45 1.81-1.45v1a5.87 5.87 0 00-1 1.07A2.57 2.57 0 00187 228c.17.33.38.54.56.54a4.17 4.17 0 002.18-1.39l.75-.82.12 1.1a1.58 1.58 0 001.11 1.18 1.17 1.17 0 001.28-.32c.91-1 .65-6.24-.54-10.74a75.65 75.65 0 01-1.69-9.86l1-.1a72.39 72.39 0 001.66 9.71c1 3.73 1.77 10 .31 11.65a2.07 2.07 0 01-1.63.71z"/><path class="cls-26" d="M175.48 214.41l-.6-.79c.28-.22 6.89-5.19 10.84-1.55l-.68.74c-3.33-3.08-9.5 1.56-9.56 1.6z"/><path class="cls-36" d="M181.74 216.29a12.59 12.59 0 01-4.92-1.28l.45-.89s5.29 2.61 7.14 0l.81.59a4.05 4.05 0 01-3.48 1.58z"/><path class="cls-27" transform="rotate(-.95 356.316 235.163)" d="M353.86 191.75h1.5v85.04h-1.5z"/><path class="cls-26" d="M194.58 211.87L194 211c.54-.35 5.31-3.33 7.65-2.51a1.92 1.92 0 011.18 1.21l-1 .32a.86.86 0 00-.56-.58c-1.51-.54-5.34 1.56-6.69 2.43z"/><path class="cls-36" d="M199.61 213.79a9 9 0 01-4-1.2l.52-.86s2.56 1.51 4.42.93a2.43 2.43 0 001.53-1.42l.91.42a3.49 3.49 0 01-2.15 2 4.25 4.25 0 01-1.23.13z"/><path class="cls-27" d="M354.64 237.47s2.66-10.15 6.07-10.7 13 1.43 18.7-.55c0 0-4.25-7.65-11.62-5.39s-9.35 4.54-9.35 4.54l-3.69 6.6"/><path class="cls-20" d="M355.12 237.6l-1-.26c.28-1.07 2.86-10.48 6.48-11.06a31.42 31.42 0 015.82.09c3.91.25 8.73.57 12.2-.43-1.09-1.65-4.85-6.43-10.71-4.63-6.61 2-8.82 4.08-9.1 4.36l-3.65 6.55-.87-.49 3.74-6.69c.09-.1 2.17-2.4 9.59-4.68 7.67-2.37 12.16 5.54 12.2 5.62l.29.52-.56.19c-3.7 1.3-9 .95-13.19.67a30.86 30.86 0 00-5.6-.09c-2.5.4-4.92 7.59-5.64 10.33z"/><path d="M190.57 238.94a11 11 0 01-3.8-.81l.39-.92c.05 0 4.32 1.8 5.91-.27l.79.61a3.94 3.94 0 01-3.29 1.39zm-5.51-3.1l-.48-.88 1.71-.93h.18a23.93 23.93 0 004.83.42 4.12 4.12 0 002.25-.58l.69.72c-.12.12-.8.71-2.87.85a22.79 22.79 0 01-4.91-.4z" fill="#792422"/><path class="cls-36" d="M183.92 251.74a48.56 48.56 0 01-9.13-1.11l.22-1c.08 0 8.28 1.84 12.22.73l.27 1a13.92 13.92 0 01-3.58.38z"/><path class="cls-35" d="M334.37 312.93a47.61 47.61 0 0012.16-15.29c4.26-9.09 6.24-17.88 7.37-19.86s8.22-6.52 9.36-6.8 1.51 2.12-.29 4c-3.26 3.39-4.81 4.52-5.38 8.49s.28 3.4.28 3.4a80.27 80.27 0 005.67-6.52c3.12-4 8-7.75 9.36-6.79 1.13.84-2.58 5.09-4.26 7.36a42 42 0 00-5.93 10.77s2.82-.54 3.67.3 0 3.67 0 3.67a2 2 0 012.55 1.41c.56 2-.57 2.59-3.12 6.26s-5.95 9.34-10.49 10.47-12.19 5.67-15.87 9.92-9.33 11.62-9.33 11.62v-13.6l4.25-8.79z"/><path class="cls-26" d="M329.62 336.8l.05-15.3 4.3-8.89.09-.07c.08-.07 7.87-6.25 12-15.11a121.59 121.59 0 005.62-15 33.79 33.79 0 011.77-4.92c1.22-2.14 8.47-6.74 9.67-7a1.15 1.15 0 011.31.59c.55.94.28 2.78-1.12 4.23l-1.08 1.12c-2.53 2.58-3.69 3.75-4.17 7.09a11.89 11.89 0 00-.17 2.58c.77-.81 2.84-3 5.24-6.08 2.89-3.68 8.25-8.2 10-6.88a1 1 0 01.41.7c.16 1.17-1.34 3.21-3.48 6-.4.51-.77 1-1.07 1.4a39.93 39.93 0 00-5.54 9.85c1-.11 2.52-.13 3.22.56s.54 2.44.31 3.45a2.37 2.37 0 012.37 1.86c.49 1.74-.15 2.59-1.56 4.45-.45.6-1 1.31-1.63 2.22-.28.4-.56.82-.85 1.25-2.54 3.73-5.7 8.37-9.93 9.43s-11.9 5.48-15.62 9.76-9.25 11.52-9.31 11.6zm1-15v12c1.74-2.26 5.67-7.28 8.45-10.49 3.83-4.41 11.67-9 16.13-10.08 3.86-1 6.9-5.42 9.34-9 .3-.44.58-.86.86-1.26.64-.92 1.19-1.65 1.65-2.25 1.35-1.78 1.75-2.32 1.4-3.58a1.54 1.54 0 00-.68-1 1.9 1.9 0 00-1.25-.11l-.89.26.27-.89c.3-1 .56-2.74.13-3.16s-2.19-.37-3.22-.17l-.9.17.34-.85a42.36 42.36 0 016-10.88c.31-.42.69-.9 1.09-1.42 1.08-1.38 3.6-4.62 3.27-5.24-.81-.59-5.31 2.43-8.67 6.7a81.24 81.24 0 01-5.7 6.56.71.71 0 01-.83.07c-.41-.26-.73-.91-.31-3.89.53-3.66 1.92-5.08 4.44-7.65l1.08-1.12a3 3 0 001-3c-.08-.15-.14-.13-.2-.12-1 .24-8 4.73-9 6.57a36.15 36.15 0 00-1.69 4.73 124.15 124.15 0 01-5.73 15.15c-4 8.56-11.31 14.66-12.22 15.4z"/><g class="cls-2"><path class="cls-9" d="M514.25 383.55l-.94-.36c.05-.13 5-13.25 9.2-27.25 4-13.36 8-23.38 8.37-24.39 0-.65.15-4.79.47-10.92.47-8.94 2.8-18.15 7.13-28.17 4.82-11.17 10.49-24.16 15.95-35.8a98.59 98.59 0 017.43-13.15 36.76 36.76 0 003.89-7 37.62 37.62 0 001.6-6c.38-1.84.52-2.52 1.14-2.57s.85.67 1 1.15l-.91.34c-.09.37-.19.84-.28 1.28a38.48 38.48 0 01-1.64 6.12 37.35 37.35 0 01-4 7.19 97.62 97.62 0 00-7.36 13c-5.45 11.63-11.11 24.61-15.94 35.77-4.27 9.9-6.58 19-7 27.82-.35 6.65-.47 10.95-.47 11v.17c0 .1-4.17 10.4-8.37 24.39s-9.22 27.25-9.27 27.38zM626.19 431.63c-5.71-8.38-19.69-47.55-23.12-57.58-4.26-12.44-9.57-41.61-14.21-68.51-1.15-6.69-2.12-12-2.9-16.33-1.63-8.95-2.53-13.88-2.77-18.46-.22-4.13-1.54-9-2.71-13.3-.69-2.54-1.34-4.94-1.66-6.83a35.62 35.62 0 00-3.06-9.2l1.33-.69a36.13 36.13 0 013.21 9.64c.31 1.82 1 4.18 1.63 6.69 1.18 4.37 2.53 9.32 2.75 13.61.24 4.48 1.13 9.38 2.75 18.27.78 4.3 1.76 9.65 2.91 16.35 3 17.61 9.36 54.27 14.15 68.27 5.28 15.44 17.83 49.73 22.94 57.22z"/></g><path class="cls-9" d="M515.2 379.54a56.26 56.26 0 011.13 9.36c0 4-2 6.23-3.69 8.78s-5.36 10.78-5.36 10.78 1.11-6.81 1.4-10.49-2-2.81.28-8.21a47.56 47.56 0 016.24-10.22z"/><path class="cls-9" d="M507.74 408.66l-.95-.28c0-.07 1.11-6.83 1.39-10.45a5.51 5.51 0 00-.37-2.62c-.42-1.19-.79-2.22.69-5.74a47.68 47.68 0 016.31-10.35l.66-.8.21 1a55.08 55.08 0 011.15 9.46c0 3.6-1.57 5.87-3.09 8.07l-.68 1c-1.66 2.5-5.28 10.63-5.32 10.71zm7.17-27.94a46.14 46.14 0 00-5.49 9.24c-1.33 3.16-1 4-.67 5a6.43 6.43 0 01.42 3c-.15 1.93-.52 4.74-.85 7a74.72 74.72 0 013.91-7.58c.22-.34.45-.67.68-1 1.5-2.16 2.92-4.21 2.92-7.5a50.25 50.25 0 00-.92-8.16z"/><path d="M680.74 332.17c-.18-.21-18.78-21-26-27.75a129.49 129.49 0 01-13.06-14.22l.59-.46a128.55 128.55 0 0013 14.13c7.3 6.73 25.92 27.59 26.1 27.8zm-21.56-11.62s-3.43-4.32-9-10.49c-3.33-3.67-8.1-12.55-13.16-21.95-3.65-6.79-7.43-13.81-11-19.49a133.4 133.4 0 00-16.7-21.74l.53-.53a133.72 133.72 0 0116.81 21.88c3.55 5.69 7.34 12.72 11 19.52 5 9.36 9.79 18.2 13.06 21.81 5.61 6.19 9 10.48 9.06 10.52z" fill="#c69540"/><g class="cls-2"><path class="cls-19" d="M630.09 432.32c-2.21-21.27-21.36-113.54-21.56-114.47l1-.2c.2.93 19.36 93.24 21.58 114.57zm27.26-1.19c0-.07-4.05-6.73-8-19.12a65.6 65.6 0 00-9.26-18.58c3.29 17.27 5.89 32 6.27 37.4l-1 .07C644.25 415 623.48 316 623.27 315l1-.21c.14.65 9.07 43.21 15.55 77.06l.22-.18a64 64 0 0110.3 20c3.9 12.26 7.85 18.83 7.89 18.9zm-18.77-1l-24.07-117.95 1-.2 24.05 117.92zM683 348.77c-.3-.21-30.35-21.24-56.73-44.25s-36.86-42.47-37-42.66l.89-.47c.1.19 10.45 19.45 36.73 42.37s56.36 44 56.66 44.19zm.64-9c-27.54-12.93-76.19-63.66-76.68-64.17l.72-.69c.49.51 49 51.11 76.39 64z"/></g><path class="cls-40" d="M372.33 344.68s-8.79 7.37-9.36 17H338a38.29 38.29 0 00-9-17.29"/><path class="cls-3" d="M363.45 362.18h-25.84l-.07-.41a38.18 38.18 0 00-9-17l.74-.68a39.38 39.38 0 019.1 17.13h24.08c.81-9.5 9.14-16.58 9.5-16.89l.64.77c-.09.07-8.63 7.35-9.18 16.65zM315.85 326h-1V205.5h1z"/><g class="cls-2"><path class="cls-19" d="M705.41 428.7c-8.36-6.13-19.95-11.5-20.06-11.55l.42-.91c.11.05 11.79 5.46 20.23 11.66zm-8.17-26s-1.23-.57-6.68-1.66a90.34 90.34 0 00-14.07-1.12v-1a91.45 91.45 0 0114.27 1.08c5.67 1.13 6.88 1.72 6.93 1.74zm.22-6.75c-.15 0-1.46-.08-7-2.31-5.76-2.32-12.43-13.34-12.71-13.81l.86-.51c.06.11 6.78 11.2 12.23 13.4s6.57 2.23 6.62 2.23v1zm10.91-358.69l-22-15.61.58-.81 21.12 15 5.22-8.08L689 11.17l.56-.83 25.29 17.26a19.83 19.83 0 014.69-5.89 46.18 46.18 0 016.31-4.31l.48.88a45.6 45.6 0 00-6.16 4.2 19.71 19.71 0 00-4.68 6.06l-.25.54-1.1-.75z"/><path class="cls-15" d="M335.19 430.85l-17.85-22.66-8.51-5.67-7.06-19.52A56 56 0 00319 369.34c7.93-9.34 8.24-14.46 8.24-14.46l4.23-5.1a10.58 10.58 0 005.43-6.78 13.24 13.24 0 00-.29-7.95s4.82-5.36 1.7-10.47c0 0 1.14-12.76 1.14-15.59s-1.7-2.85-4.82-1.15-9.36 4.25-9.36 4.25-.87-2-5.1 0-7.39 0-22.11 1.7-28 .85-36 1.7c0 0-5.67-8.24-14.17-8.79 0 0-19.53-19.27-46.77-20.12 0 0-26.1-17.28-54.73-5.94l-13.89 6.5-7.66 7.66-2.84 17.56.57 15.31-42.78 102.61 255.4.57z"/><path class="cls-19" d="M336.23 431.35h-1L79 430.78l43.05-103.2-.56-15.2 2.87-17.83 7.91-7.87 13.89-6.5c27.56-10.93 53.11 4.64 55.09 5.89 25.87.87 45 18.44 46.84 20.14 7.81.6 13.16 7.34 14.19 8.74 3.26-.32 7.36-.38 12.07-.45a227.51 227.51 0 0023.65-1.22 107.8 107.8 0 0114.85-.75c3.26 0 5 .06 7.11-.9s3.48-1.16 4.6-.74a2.23 2.23 0 01.88.58c1.38-.57 6.32-2.65 8.95-4.08 2.21-1.21 3.61-1.5 4.53-.95a2.7 2.7 0 011 2.54c0 2.68-1 13.92-1.12 15.47 2.73 4.7-.75 9.55-1.64 10.68a14.33 14.33 0 01.19 8 11 11 0 01-5.55 7.07l-4.07 4.9c-.12 1-1.09 6.05-8.34 14.58a57.7 57.7 0 01-17 13.54l6.86 19 8.48 5.68zm-255.69-1.56l253.62.56L317 408.56l-8.57-5.72-7.28-20.16.42-.19A56 56 0 00318.66 369c7.69-9.05 8.12-14.11 8.12-14.16v-.16l4.51-5.36a10.15 10.15 0 005.11-6.45 12.92 12.92 0 00-.25-7.63L336 335l.22-.24c.05-.06 4.53-5.15 1.65-9.88l-.09-.14v-.17c0-.12 1.14-12.76 1.14-15.54q0-1.37-.54-1.68c-.56-.34-1.75 0-3.54 1-3.11 1.69-9.15 4.17-9.41 4.27l-.45.19-.19-.45c-.26-.5-1.52-1.12-4.44.25-2.26 1.06-4.24 1-7.54 1a105.85 105.85 0 00-14.72.75 234.77 234.77 0 01-23.71 1.22c-4.84.07-9 .13-12.27.48h-.3l-.17-.25c-.05-.08-5.64-8-13.79-8.57h-.19l-.13-.13c-.19-.19-19.72-19.15-46.44-20H201l-.12-.08c-.25-.17-26.22-17-54.27-5.89l-13.78 6.46-7.5 7.4-2.81 17.41.58 15.32v.1z"/></g><path d="M652.67 281.27l-17-.27v-.75l10.66.17-.06-.12 4.73-2.48-.29-.29 25-24.1.52.54-24.12 23.28 6.66-3.49.34.67-11.48 6 5.08.08zm-34.1-28.52c0-.23-3.1-22.44-1.27-33.71l.74.12c-1.81 11.16 1.24 33.26 1.27 33.48zm57.88-2.9a17.35 17.35 0 01-.88-12.46l.7.27a17 17 0 00.87 11.89zm.27-20.94c-4-7.88-5-19.86-5.12-21.95-6.6-.82-10.06-3.29-10.7-3.79-7.68-.34-15.52-7.59-16.6-8.62-6.06.12-15.84 6.38-15.94 6.44l-.15.06a28.14 28.14 0 00-8.37 2.93l-.37-.65a27.89 27.89 0 018.55-3c1-.62 10.36-6.51 16.43-6.52h.16l.11.11c.08.08 8.49 8.24 16.33 8.52h.13l.1.09s3.56 2.91 10.71 3.74h.32v.32c0 .13.75 13.49 5.06 22z" fill="#e7af60"/><path class="cls-28" d="M56.55 328s-5.1 15 0 15.88 5.1-10.21 5.1-10.21"/><path class="cls-29" d="M57.1 344.37a3.35 3.35 0 01-.63-.05 2.72 2.72 0 01-1.94-1.32c-2.27-3.81 1.39-14.72 1.55-15.18l.94.32c-1 3-3.32 11.51-1.63 14.35a1.7 1.7 0 001.24.87 2.28 2.28 0 002-.53c2.51-2.12 2.54-9.11 2.54-9.18h1c0 .31 0 7.52-2.89 9.94a3.26 3.26 0 01-2.18.78z"/><path class="cls-28" d="M38.69 326s-1.7 12.18 1.13 13.31 6-8.79 6-8.79"/><path class="cls-29" d="M40.29 339.88a1.64 1.64 0 01-.65-.13c-3-1.21-1.74-11.74-1.44-13.83l1 .13c-.69 4.9-.88 12.1.82 12.78a.87.87 0 00.7-.05c1.87-.9 3.95-6.39 4.59-8.43l1 .3c-.25.8-2.51 7.79-5.12 9a2 2 0 01-.9.23z"/><path class="cls-28" d="M38.41 367.09s-4.85 21.24.28 21 2.84-7.09 6-17"/><path class="cls-29" d="M38.59 388.55a2 2 0 01-1.59-.76c-2.93-3.47.52-19.05.92-20.81l1 .22c-1.07 4.66-3.34 17.33-1.13 19.95a1.06 1.06 0 00.89.4c2.65-.15 3-2.19 3.57-6.8a52.31 52.31 0 011.94-9.86l.95.3a51.21 51.21 0 00-1.89 9.68c-.53 4.34-.91 7.48-4.51 7.68z"/><g class="cls-2"><path class="cls-19" transform="rotate(-33.45 27.573 101.499)" d="M27.08 89.82h1v23.36h-1z"/><path class="cls-15" d="M.66 137.15l-.61-.79 33.44-25.97h.17l75.47-.34v1l-75.3.34L.66 137.15z"/></g><path class="cls-19" d="M347 182.25h-1v-39.1h1zm54.56-2.33h-18.11v-46.58l10-14.3.82.57-9.86 14v45.27h17.08z"/><g class="cls-2"><path class="cls-19" d="M304.01 182.89h41.95v1h-41.95z"/><path class="cls-15" transform="rotate(-30.97 60.247 5.945)" d="M47.01 5.44h26.45v1H47.01z"/><path class="cls-14" d="M106.66 93.32l-56.64-.57.01-1 55.63.56V-3.7h1v97.02z"/><path class="cls-30" d="M396.14 2.26a8.57 8.57 0 008.57-8.57 8.57 8.57 0 00-8.57-8.57 8.57 8.57 0 00-8.57 8.57 8.57 8.57 0 008.57 8.57z"/><path class="cls-29" d="M396.14 2.64a9 9 0 01-8.95-8.95 9 9 0 018.95-8.94 9 9 0 018.95 8.94 9 9 0 01-8.95 8.95zm0-17.14a8.2 8.2 0 00-8.2 8.19 8.21 8.21 0 008.2 8.2 8.21 8.21 0 008.2-8.2 8.2 8.2 0 00-8.2-8.19z"/></g><path class="cls-10" d="M382.82 8.59s1.18 3.41 5.67 7.07 4 9.07 5.95 9.07 1.7-5.38-.28-8.78c0 0 1.74-3.12-.26-7.94"/><path class="cls-29" d="M394.44 25.11c-1.14 0-1.58-1.23-2.15-2.78a13.39 13.39 0 00-4-6.38c-4.57-3.71-5.74-7.1-5.79-7.24l.71-.24s1.17 3.34 5.55 6.9a14 14 0 014.24 6.71c.53 1.45.86 2.28 1.44 2.28.16 0 .39-.05.61-.42.75-1.31.37-5.08-1.22-7.81l-.11-.18.11-.19s1.63-3-.28-7.61l.69-.29c1.8 4.31.7 7.3.34 8.07 1.51 2.73 2.06 6.74 1.12 8.38a1.41 1.41 0 01-1.26.8z"/><path class="cls-10" d="M398.69 8s-2.86 2.83-.28 7.37c0 0-.57 9.35 1.42 9.07s.28-2.8 2.55-7.35A85.77 85.77 0 01407.76 8l-2.83-3.12L398.69 8z"/><path class="cls-29" d="M399.74 24.83a1 1 0 01-.68-.28c-1.4-1.29-1.1-7.89-1-9.08-2.59-4.68.37-7.7.4-7.73l.09-.07L405 4.43 408.24 8l-.17.24a89.26 89.26 0 00-5.36 9 12.94 12.94 0 00-1.34 5.1c-.11 1.27-.19 2.28-1.49 2.46zm-.82-16.52c-.34.37-2.45 2.9-.19 6.88l.06.1v.11c-.17 2.88-.11 7.77.79 8.6.09.08.15.09.2.08.65-.09.73-.4.85-1.78a13.85 13.85 0 011.37-5.37A87.26 87.26 0 01407.29 8l-2.45-2.69z"/><path class="cls-10" d="M376 3.76s-9.07 7.37-13.89 8.5-6.26 2.55-1.41 2.55a20.61 20.61 0 007.93-1.42s1.14 1.42 5.67-.56c0 0 7.09 2.55 12.19-5.39L376 3.76z"/><path class="cls-29" d="M360.71 15.19c-2.87 0-3.31-.48-3.37-.95-.09-.8 1.49-1.59 4.7-2.34 4.68-1.11 13.65-8.36 13.74-8.43l.16-.14 11.13 3.92-.25.39c-4.8 7.46-11.41 5.9-12.49 5.59-3.67 1.58-5.22 1-5.75.6a21.63 21.63 0 01-7.87 1.36zm-2.58-1a6.25 6.25 0 002.58.3 20.34 20.34 0 007.78-1.39l.26-.12.19.23s1.1 1.13 5.22-.68l.14-.06.14.05c.27.1 6.64 2.27 11.48-4.83l-9.83-3.46c-1.29 1-9.33 7.38-13.88 8.45-2.84.61-3.86 1.22-4.08 1.46z"/><path class="cls-10" d="M416.27 2.92a33.92 33.92 0 0015.89 10.47c9.92 2.84.26 1.71-3.71.57s-5.66-.85-5.66-.85S418 14.25 415.7 12c0 0-6.52 1.7-11.34-4.82L410 3.47l6.24-.55z"/><path class="cls-29" d="M435.73 15.53a38.55 38.55 0 01-7.38-1.21c-3.8-1.08-5.49-.84-5.51-.84s-4.82 1.11-7.26-1.1a11.65 11.65 0 01-11.52-5l-.24-.32 6.18-4 6.44-.57.12.16A33.79 33.79 0 00432.27 13c4.44 1.27 4.52 1.61 4.59 1.89l.05.21-.17.21a1.65 1.65 0 01-1.01.22zm-12.35-2.82a19.35 19.35 0 015.18.89 40.43 40.43 0 006.75 1.19c-.6-.23-1.59-.56-3.25-1a34.62 34.62 0 01-16-10.44l-5.94.53-5.22 3.37c4.57 5.86 10.45 4.43 10.71 4.36h.2l.15.15c2.1 2.1 6.69 1 6.74 1a3.74 3.74 0 01.68-.05z"/><g class="cls-2"><path class="cls-10" d="M391.06-3.33a40 40 0 00-13.91 1.13 148.22 148.22 0 01-17.27 3.41c-4.25.56-6 2.29-.59 3.13a17.73 17.73 0 008.79-.58s2.27 2.26 6.8 1.7c0 0 3.83 2.12 7.09.71-.14.71.85 3 7.37 1.56a21 21 0 007.08 2.27 7.74 7.74 0 005.39-1.42s3.12 1.69 5.67-2.28A4.12 4.12 0 00412 6a11.27 11.27 0 008.51-2.26l1.41-1.42a21.68 21.68 0 006.24.28c4-.28 7.37-2.55.28-2.83s-13.54-3.1-17.54-3.38a46.31 46.31 0 00-9.09.56L395.86.09l-4.8-3.42z"/><path class="cls-29" d="M397.16 10.41h-.77a20.76 20.76 0 01-7.11-2.26c-4.43.94-6.32.19-7.13-.6a2 2 0 01-.51-.83c-3 1-6.19-.51-6.83-.85A8.91 8.91 0 01368 4.19a18.64 18.64 0 01-8.77.52c-2.49-.39-3.69-1-3.69-1.83 0-1.37 3.29-1.91 4.29-2a145.93 145.93 0 0017.23-3.39 40.61 40.61 0 0114.05-1.19l.17.07 4.61 3.28 5.86-3.07a47.13 47.13 0 019.18-.58 36.86 36.86 0 016.12 1.3 51.77 51.77 0 0011.42 2.1c3 .13 4.46.6 4.47 1.49 0 1.2-2.82 2-4.74 2.1a24.18 24.18 0 01-6.15-.25L420.78 4a11.55 11.55 0 01-8.67 2.4 4.5 4.5 0 01-4.51.37c-2.26 3.26-5 2.54-5.74 2.23a8.12 8.12 0 01-4.7 1.41zm-7.77-3.08l.13.07a20.51 20.51 0 006.93 2.23 7.48 7.48 0 005.12-1.32l.19-.17.23.12c.11.06 2.85 1.46 5.17-2.15l.2-.31.32.19a3.73 3.73 0 004.11-.27l.13-.09h.16a11.08 11.08 0 008.2-2.19l1.54-1.55.18.11a21.84 21.84 0 006.11.27c2.47-.18 4.05-1 4.05-1.34 0 0-.24-.61-3.75-.75A53.6 53.6 0 01416.85-2a35.86 35.86 0 00-6-1.28 46.51 46.51 0 00-8.95.55L395.83.53 390.92-3a40.62 40.62 0 00-13.68 1.14 148 148 0 01-17.31 3.41c-2.56.34-3.63 1-3.64 1.31 0 0 .08.62 3.06 1.08a17.57 17.57 0 008.58-.56l.23-.09.18.17s2.22 2.13 6.49 1.6h.12l.11.06s3.71 2 6.76.69l.66-.28-.15.7a.93.93 0 00.35.74c.56.55 2.16 1.34 6.58.38z"/><path d="M542.69 435.67s7.37-36.28 16.44-51.59 5.67-6 5.67-6L596.34 433l-53.65 2.69z"/><path class="cls-14" d="M542.07 436.2l.13-.63c.08-.36 7.49-36.54 16.5-51.75 5.66-9.55 6.28-9.25 6.83-9 .28.13.81.38-.18 3.18l31.83 55.42zm22.76-60a67.09 67.09 0 00-5.27 8.1c-8.27 14-15.22 45.91-16.25 50.81l52.19-2.62-31.25-54.39.08-.22a14 14 0 00.5-1.65z"/><path class="cls-8" d="M544.6 326c5.67 14.17 3.76 41.1 3.76 41.1a278 278 0 0118.14 28.35c8.81 15.87 25.82 35.45 25.82 35.45l11.34 1.75"/><path class="cls-14" d="M603.58 433.12l-11.52-1.79-.12-.14c-.17-.19-17.14-19.79-25.88-35.53A282.06 282.06 0 00548 367.37l-.11-.15V367c0-.27 1.84-27-3.72-40.89l.93-.37c5.4 13.5 4 38.72 3.8 41.14a282.73 282.73 0 0118.07 28.25c8.3 15 24.1 33.45 25.64 35.23l11.16 1.73z"/><path class="cls-26" d="M634.55 242.78l-.84-1.2a23.29 23.29 0 01-5-.3c-1.25-.28-2-2-2.25-2.83h-.34v-1h1.09l.1.37c.21.74.87 2.31 1.61 2.48a23.94 23.94 0 005 .27h.28l1.15 1.64zm1.08-7.18a3.42 3.42 0 01-1.74-.51 3.74 3.74 0 01-3.67-1.19c-1.77-1.89.13-4.1 2.76-7.15.68-.79 1.41-1.64 2.16-2.57a41.47 41.47 0 005.31-8.39l.92.39a41.49 41.49 0 01-5.45 8.62c-.76.94-1.5 1.8-2.18 2.6-2.6 3-3.9 4.64-2.79 5.82a2.69 2.69 0 002.84.86l.26-.09.22.16a2.31 2.31 0 002 .35l.31.95a2.93 2.93 0 01-.95.15zm13.81-5.12a7 7 0 01-5.38-2.43l.79-.61a6.2 6.2 0 006.43 1.81l.24 1a8.39 8.39 0 01-2.08.23zm1.3-3.11a8.79 8.79 0 01-5.34-1.94l.66-.75a7.55 7.55 0 006.88 1.32l.32.94a7.54 7.54 0 01-2.52.43zm4.26-1.63l-1-.23.49.11H654s-.14-.61-2.17-1.84c-2.36-1.43-6.25-.52-6.29-.51l-.23-1c.17 0 4.32-1 7 .63 2.57 1.55 2.79 2.44 2.69 2.84zm-22.47-1.18a11.86 11.86 0 01-6.1-2.37l.62-.79a11.07 11.07 0 005.52 2.16zm1.1-2.41a8.29 8.29 0 01-6-3.2l.83-.55a7.38 7.38 0 005.31 2.76zm25.23-.2s-.59-1.58-3.61-3.41a10.18 10.18 0 00-7.8-.81l-.32-.94a11 11 0 018.64.89c3.38 2.06 4 3.88 4 4zm-24.36-2.06c-1.55-3.47-5.86-3.4-5.91-3.41v-1c.2 0 5-.07 6.85 4zm3.08-5.59a3.38 3.38 0 00-1.21-2.21c-1.35-1.19-3.69-1.68-6.75-1.42l-.09-1c3.41-.29 6 .28 7.52 1.69a4.38 4.38 0 011.53 2.91z"/><path class="cls-15" d="M714 434l-1.13-143.42h1L715 434zm-16.3-24.39h-1v-103.2h1zM463.32 212.23h-21.48v-32.81h1v31.81h20.48z"/></g><path class="cls-21" d="M552.26 21.18v169.66h8.38l-.71-169.66h-7.67z"/><path class="cls-36" d="M189.14 223.51a104.41 104.41 0 00-.71-10.56 12.09 12.09 0 00-2.16-5.58l.78-.63a13.08 13.08 0 012.37 6 101.89 101.89 0 01.72 10.71z"/><path d="M181.84 214.37a1.06 1.06 0 10-1.06-1.06 1.06 1.06 0 001.06 1.06z"/><path class="cls-19" d="M181.84 214.87a1.56 1.56 0 111.56-1.56 1.56 1.56 0 01-1.56 1.56zm0-2.12a.56.56 0 10.56.56.56.56 0 00-.56-.56z"/><path d="M200.41 211.94a1.06 1.06 0 10-1.06-1.06 1.06 1.06 0 001.06 1.06z"/><g class="cls-2"><path class="cls-19" d="M200.41 212.44a1.56 1.56 0 111.56-1.56 1.56 1.56 0 01-1.56 1.56zm0-2.12a.56.56 0 10.56.56.56.56 0 00-.56-.56z"/><path class="cls-3" d="M20.22 450h-1V160.85h1zM484 326h-73.7v-43.24H484zm-72.7-1H483v-41.24h-71.7zM198.81 137.11h-1V-5h1zM121 132.87h-1L124.6-5h1z"/><path class="cls-36" d="M178.37 219a7.94 7.94 0 01-5.25-2.36l.72-.69s2.41 2.49 5.36 2l.18 1a5.88 5.88 0 01-1.01.05zm19.56-2.88a6.77 6.77 0 01-4.54-1.72l.71-.71a5.89 5.89 0 004.42 1.4l.09 1z"/><path class="cls-5" d="M35.55 109.33l-11.04-15.9 83.54.57-.57-96h.75l.57 96.75-82.85-.56 10.21 14.71-.61.43z"/><path class="cls-3" d="M731.72 433.68h-1V232.42h1zM336.53 153.41l-81.07-88.6.73-.68 81.08 88.6z"/><path class="cls-5" d="M302 314.65h-1V183.53h1zM529.36 214.5l-89.78-.29v-31.6h-58.4v-50.14l8-10.08h-47.75v-1h49.79l-9 11.43v48.79h58.4v31.61l88.78.28zm-183.77-31.91l-104-115.92L254 47.06l.84.53-12 19 103.5 115.33z"/><path class="cls-8" d="M584.08 369.34s4.53 32 17.57 64.06"/><path class="cls-5" d="M601.42 433.5c-12.9-31.7-17.54-63.81-17.59-64.13l.49-.07c0 .32 4.69 32.37 17.56 64z"/><path class="cls-42" d="M336.33 429.18s-2.27-13-9.64-19.27a53.53 53.53 0 00-16.44-9.08l-9.9-18.14s-21.85-1.7-38.29-8.5-28.91-13.61-28.91-13.61-6-14.74-34.59-15.87c0 0-5.66-9.64-19.84-22.11s-22.42-21.55-25.51-31.75-4-10.77-1.7-23.81c0 0-4.54-4-11.34 14.17 0 0-1.13-2.82-7.94 4 0 0-7.93 0-9.07 14.17 0 0-9.59 9.63-1.39 26.63a219.07 219.07 0 00-13.35 31.19c-5.67 17-30 74.85-30 74.85l258-2.84z"/></g><path d="M349.35 418c4.33 0 8.39-5.67 8.39-5.67a8.61 8.61 0 004.33-4.54c1.41-3.4.26-4.82-1.2-4.82 0 0 2.61-2.26 4.05-8.5h-31.37s1.43 6.66 5 9.21c0 0-2.66.14-1 4.68s4.07 5.39 4.07 5.39S345 418 349.35 418z"/><path d="M349.35 418.53c-4.17 0-7.41-3.67-8-4.34-.57-.27-2.69-1.5-4.23-5.63-.74-2-.79-3.44-.17-4.4a2.16 2.16 0 01.61-.6c-3.2-2.91-4.48-8.69-4.53-8.95l-.13-.61h32.62l-.14.61a19.7 19.7 0 01-3.57 8.08 2.17 2.17 0 01.92.78c.47.7.81 2-.23 4.55a9.09 9.09 0 01-4.47 4.74c-.6.85-4.44 5.77-8.68 5.77zM334.19 395c.44 1.67 1.9 6.33 4.68 8.31l1.17.83-1.44.07a1.14 1.14 0 00-.79.52c-.3.46-.49 1.44.28 3.48 1.57 4.22 3.75 5.09 3.77 5.1l.13.05.09.11s3.26 4.06 7.27 4.06 7.94-5.41 8-5.46l.09-.12.13-.06a8.16 8.16 0 004.06-4.26c.91-2.19.59-3.2.32-3.6a1.22 1.22 0 00-1.06-.53h-1.33l1-.87s2.35-2.12 3.75-7.63z"/><path class="cls-40" d="M338.11 393.63s-1.45-10.18 4.81-13.87c0 0-3.66-2.3-3.66-10.22s2.81-7.64 2.81-7.64h20.7s4.25 10.46-1.7 17.56c0 0 5.38 5.12 3.68 14.47l-26.64-.3z"/><path class="cls-3" d="M365.17 394.44l-27.5-.31-.06-.42c-.06-.42-1.33-9.94 4.47-14-1.09-1-3.32-3.91-3.32-10.17 0-3.85.65-6.39 1.92-7.54a1.94 1.94 0 011.44-.59h21l.13.31c.18.44 4.17 10.5-1.5 17.72 1.18 1.31 5 6.32 3.51 14.59zm-26.61-1.3l25.77.29c1.4-8.7-3.56-13.56-3.61-13.61l-.34-.32.3-.36c5.13-6.11 2.37-15 1.74-16.74h-20.35a1.2 1.2 0 00-.77.39c-.57.56-1.54 2.17-1.54 6.75 0 7.56 3.4 9.78 3.43 9.8l.7.43-.71.42c-5.18 3.06-4.8 11.02-4.62 12.95z"/><path class="cls-40" d="M333.59 393.63s-1.44-10.18 4.82-13.87c0 0-3.66-2.3-3.66-10.22a10.82 10.82 0 012.81-7.64h20.7s4.25 10.46-1.71 17.56c0 0 5.39 5.12 3.69 14.47l-26.65-.3z"/><g class="cls-2"><path class="cls-3" d="M360.66 394.44l-27.5-.31-.06-.42c-.06-.42-1.33-9.94 4.47-14-1.09-1-3.32-3.91-3.32-10.17a11.21 11.21 0 013-8l.15-.14h21.22l.13.31c.17.44 4.16 10.5-1.5 17.72 1.18 1.31 5 6.32 3.51 14.59zm-26.66-1.3l25.78.29c1.4-8.7-3.56-13.56-3.61-13.61l-.34-.32.3-.36c5.12-6.11 2.36-15 1.74-16.74h-20.1a10.68 10.68 0 00-2.52 7.14c0 7.5 3.4 9.78 3.43 9.8l.68.44-.69.41c-5.19 3.06-4.8 11.02-4.67 12.95z"/><path class="cls-32" d="M100.63 429.45s26.93-106.64 36.14-119.75l-.83 9.21s-21 73-27.52 110.2l-7.79.34zM110.9 429.45s3.55-19.12 11.7-50.3 13.34-51.75 13.34-51.75l-.59 11.71S129.68 362.46 124 394s-5.67 38.63-5.67 38.63h2.84s.83-13.82 6.26-42.87 8.5-40.75 8.5-40.75a333.75 333.75 0 01-5.66 54.99l-5.55 28.7-5.67 2.47-5.78-2.47-2.37-3.2zM97.67 429.11l40.16-139.61-56.34 139.95 16.18-.34zM272.12 430.17S280.27 405 304 405s30.48 36.48 30.48 36.48l-62.37-11.33z"/><path class="cls-32" d="M266.45 429.11s8.51-13.85 7.09-26.59-2.13-12.76-2.13-12.76 6.26-8.48 14.77-6 14.17 13.11 14.17 13.11a100.19 100.19 0 01-18.66-6.74s-.24 1.78 5.91 6 7.91 4.94 7.91 4.94-18.07 3.21-26.93 27.66l-2.13.35z"/></g><path class="cls-32" d="M221.1 389.76s-8.39-.69-22.8-6.71-20.31-7.44-25.51-6.73-21.14 6.73-21.14 6.73a495.29 495.29 0 0069.45 6.71zM266.34 377.38s-9.1 3.9-15.12 3.9-27.88.7-34-1.78-43.58-12.75-69.45-36.85c0 0 3.9.34 24.45 13.81 21 13.73 37.92 18.79 59.18 19.15s35 1.77 35 1.77z"/><g class="cls-2"><path class="cls-32" d="M270.59 382.34s-10.87 2.83-17.95 3.9-16.66 1.06-19.49 3.89c0 0 25.51-1.78 37.44-7.79zM154.84 427.69l8-11.69s46.77 5 68-5.67c0 0-1.3 7.76.48 21.95M143.5 428.76s8.51-9.23 16.3-13.48c0 0-3.07 7.42-12.52 14.17l-3.78-.69zM140.67 428.76L154.84 416l-13.46-2.13s.47 2.48 5.31 2.84a14.63 14.63 0 00-7.79 12.05z"/></g><path class="cls-32" d="M143 385.17a221 221 0 0042.52 6c22.09.73 45.12.73 45.12.73l-.71 2.83a461.18 461.18 0 01-47.48-1.42c-26.69-2.14-41.1-7.08-41.1-7.08l1.65-1.07z"/><path class="cls-32" d="M228.9 397.22s-34.73 2.83-84-7.09c0 0-3.19-1.78-4.61-.37s1.3 2.85 1.3 2.85-4.84 7.44-.94 11c0 0 0-2.84 2.83-6.38s1.89-2.87 10.87-1.79a151.11 151.11 0 0115 2.5s-16.42-1.77-19.25-.35a24.84 24.84 0 00-4.85 3.18l12.76-.71s-2.84 2.5-9.92 4.61-8.15 3.19-4.25 3.19 10.63-2.13 15.23-4.25 13.11-1.08 13.11-1.08a52.5 52.5 0 01-14.53 3.91 62 62 0 0018 .71 254.15 254.15 0 0127.4-1.79c8.86 0 10.63-1.75 13.11-3.52s11.93-1.78 12.76-4.61z"/><g class="cls-2"><path class="cls-8" d="M262.35 428.78h-1l.25-5.25.26-.13c.34-.17 8.17-4.25 6.81-15.8a118.82 118.82 0 00-3.24-17.77 96 96 0 01-15.07 8.6 76.07 76.07 0 00-19 12.31l-.69-.72A76.84 76.84 0 01250 397.47a88.49 88.49 0 0019-11.61l.65.76s-1.2 1-3.31 2.54a118.83 118.83 0 013.37 18.28c.75 6.39-1.28 10.62-3.11 13a14.2 14.2 0 01-4 3.63z"/></g><path class="cls-27" d="M373.48 250.07s3.95-5.1 6.22-5.1 3.4 3.12 3.26 4.68-2.55 6.66-2.55 6.66l-1.85-5.81-8.64 5.24 3.56-5.67z"/><path class="cls-20" d="M380.31 257.67l-2-6.41-8.1 4.91-.69-.69 3.6-5.71c.42-.54 4.16-5.3 6.61-5.3a3.08 3.08 0 012.31 1.1 6 6 0 011.45 4.13c-.15 1.6-2.35 6.29-2.6 6.82zm-1.46-7.93l1.64 5.19a27.92 27.92 0 002-5.32 5.07 5.07 0 00-1.19-3.37 2.09 2.09 0 00-1.57-.77c-1.47 0-4.33 3-5.81 4.89l-2.42 3.86z"/><g class="cls-2"><path class="cls-8" d="M248.17 428.78h-1c.23-4.5-.84-8.26-2-12.24-.55-1.91-1.11-3.89-1.57-6.06-1.3-6.17-2.58-7.1-2.6-7.11l.48-.88c.27.14 1.71 1.15 3.1 7.79.45 2.13 1 4.09 1.55 6 1.2 4 2.29 7.84 2.04 12.5zm12-13.09v-.23c-.08-1.18-.16-2.21-5.66-5.77a115.72 115.72 0 01-11-8.21l.65-.76a116.16 116.16 0 0010.84 8.13c5.93 3.83 6 5.09 6.12 6.54v.22zm-71.24-5c-10.13 0-15.78-2.36-15.86-2.39l.39-.92c.13.05 12.53 5.2 33.7 0 14.6-3.6 20.76-6.69 26.18-9.41a77.8 77.8 0 018.14-3.68c2.1-.78 4.06-1.46 6-2.11 6.8-2.36 12.67-4.39 21.48-9.89l.53.85c-8.9 5.56-14.82 7.61-21.68 10-1.89.65-3.84 1.33-5.93 2.11a75.72 75.72 0 00-8 3.63c-5.47 2.75-11.68 5.87-26.39 9.49a76.82 76.82 0 01-18.56 2.33z"/></g><path class="cls-15" d="M261.14 373.48s-31.83.1-48.54-3.19c-16.3-3.2-34-10.66-53.51-25.88L147 337.69l.24-54.92 6.14 21.62 45.71 43.22s8.15 0 26.22 8.86 35.79 17 35.79 17z"/><path class="cls-32" d="M154.37 354.7s-7.21 8.86-9.92 14.53a23.84 23.84 0 012.59-7.44c2.13-3.9-.23-4.64-1.18-3.21s-4.72 1.08-2.36-2.11 10.87-1.77 10.87-1.77z"/><path class="cls-42" d="M251.36 372.16c-.14-.07-14.55-6.79-26.35-12.76a90.65 90.65 0 00-11-4.86c3.67 1.88 9.18 4.78 13.76 7.53a57.34 57.34 0 0012.6 5.93l-.27 1a58.05 58.05 0 01-12.88-6.07c-7.57-4.54-17.69-9.51-17.8-9.56l.22-.95c.16 0 3.92.07 15.82 6.1s26.18 12.68 26.32 12.75zm-30.57-5.73c-.13-.1-13.23-10.38-22.34-18.44l.66-.75c9.1 8.05 22.17 18.3 22.3 18.41zm-17.12-3.1h-1c-.23 0-5.79-.06-15.83-5.73l.49-.87c7.29 4.12 12.21 5.21 14.26 5.5a368.34 368.34 0 00-31.86-36.58l.7-.72a371 371 0 0132.64 37.61zm-21.1-12.46c-.11-.07-11.39-7-25.25-7v-1c14.15 0 25.66 7.09 25.78 7.17z"/><path class="cls-8" d="M293.78 401.29l-.22-1a45.78 45.78 0 0116.81-.15l-.19 1a45 45 0 00-16.4.15z"/><g class="cls-2"><path d="M317 345.47l-.93-.39c.06-.14 6.05-14.33 12.8-25 3.73-5.91 5.6-8.77 6.53-10.15l-15.21 4.91c-.79.71-8.2 7.82-10.81 26l-1-.14c2.8-19.53 10.89-26.39 11.23-26.68l.16-.09 16.73-5.4.51.82s-.81 1-7.3 11.28C323 331.21 317 345.33 317 345.47zm-44.54-1.13l-.29-1c.31-.09 30.45-9.53 37.66-25.42-3.36-.09-17.54-.42-28.13.32-2.52.18-4.72.21-6.66.23-7.52.11-11.66.17-19.64 8.13l-.7-.71c8.26-8.25 12.8-8.31 20.32-8.42 1.93 0 4.12-.05 6.62-.23 12.07-.84 28.79-.3 29-.3h.72l-.27.67c-6.93 16.8-37.38 26.33-38.68 26.73zm-40.74-22.15l-.45-.89c.15-.07 14.16-7.1 26.54-6.41a24.64 24.64 0 00-5.91-3.68v.55l-30.9 1.42v-1l29.75-1.37a4.12 4.12 0 00-1.29-.19H249.23c-.15-.05-1.25-.54-7.23-5.18s-8.95-5.87-9-5.88l-.13-.08c-.06 0-6.37-5.07-22.74-8.42-16.16-3.3-22.1 5.93-22.15 6l-.86-.53c.07-.1 6.34-9.92 23.21-6.48 16 3.27 22.4 8 23.11 8.58.5.21 3.41 1.54 9.15 6a66.84 66.84 0 006.88 5c.84 0 4.69.31 12.12 7.23l-.68.73c-.61-.57-1.2-1.1-1.77-1.58-12.45-1.35-27.32 6.11-27.47 6.18zm-32.7-36c-22.89-8.09-39-7.07-39.21-7.06l-.07-1c.17 0 16.51-1 39.61 7.12z" fill="#314532"/><path class="cls-5" d="M344.84 145.09l-90.88-97.68-39.02-.27V-2h.75v48.4l38.6.27.11.11 90.99 97.8-.55.51z"/></g><path class="cls-37" d="M630.42 219.45a1.2 1.2 0 10-1.2-1.2 1.2 1.2 0 001.2 1.2z"/><path class="cls-17" d="M630.42 220a1.7 1.7 0 111.7-1.7 1.7 1.7 0 01-1.7 1.7zm0-2.4a.7.7 0 000 1.4.7.7 0 000-1.4z"/><path class="cls-37" d="M648.85 225.69a1.27 1.27 0 10-1.27-1.27 1.27 1.27 0 001.27 1.27z"/><path class="cls-17" d="M648.85 226.19a1.77 1.77 0 111.77-1.77 1.77 1.77 0 01-1.77 1.77zm0-2.54a.77.77 0 100 1.54.77.77 0 100-1.54z"/><path class="cls-34" d="M555.73 198.55l-1.42 7.09-1.13 6.38.42 7.37"/><path class="cls-26" d="M553.1 219.41l-.42-7.42.01-.06 1.13-6.38 1.42-7.1.98.2-1.42 7.09-1.12 6.31.42 7.31-1 .05z"/><path class="cls-27" d="M354.75 245.78s1.68-4 4.82-4.84 5.67-3.65 5.67-9.62c0 0-3.4-1.4-5.1 3.4a28 28 0 01-5.1 8.51"/><path class="cls-20" d="M355.21 246l-.92-.38a11.6 11.6 0 011.33-2.26l-.21.24-.74-.68a28 28 0 005-8.33 5.72 5.72 0 012.86-3.59 3.94 3.94 0 012.9-.11l.31.13v.33c0 7.4-3.78 9.51-6 10.11-2.9.73-4.51 4.48-4.53 4.54zm8.9-14.34a2.79 2.79 0 00-1.19.26 4.82 4.82 0 00-2.31 3 27.87 27.87 0 01-4.31 7.61 6.72 6.72 0 013.14-2c2.37-.63 5.19-2.66 5.3-8.76a3.34 3.34 0 00-.63-.14z"/><path class="cls-27" d="M356.5 242.39a53.06 53.06 0 00-8.5-5.67c-4.82-2.55-6.81-2.27-9.92 6.8 0 0 2.83-6.23 8.22-3.11s8 4.81 8 4.81l2.24-2.83z"/><path class="cls-20" d="M354.37 245.89l-.39-.25s-2.63-1.73-7.93-4.8a4.73 4.73 0 00-3.89-.62c-2.34.75-3.62 3.48-3.63 3.51l-.93-.37c1.8-5.23 3.22-7.55 5.06-8.28 1.58-.62 3.3 0 5.57 1.2a54.31 54.31 0 018.59 5.73l.37.31zm-11-6.86a6.4 6.4 0 013.17.94c4.18 2.42 6.69 4 7.6 4.59l1.65-2.09a53.32 53.32 0 00-8-5.31c-2-1.07-3.51-1.63-4.73-1.15s-2.14 1.8-3.27 4.48a5.94 5.94 0 012.09-1.22 5 5 0 011.5-.27z"/><path class="cls-27" d="M354.53 230.17s-2.33-5.37-5.16-8.2a4 4 0 00-5.67-.29 14.8 14.8 0 004.25 3.69s-4.25-2.84-8.79 2.55c0 0 10.21-4.25 15.31 4"/><path class="cls-20" d="M354.05 232.15c-4.82-7.75-14.29-3.93-14.7-3.77l-.57-.78c2.45-2.91 4.85-3.55 6.63-3.45a11.79 11.79 0 01-2.13-2.19l-.24-.36.32-.29a4.57 4.57 0 016.36.31c2.87 2.86 5.17 8.13 5.27 8.35l-.92.4c0-.05-2.32-5.32-5.06-8.05a3.44 3.44 0 00-4.6-.54 17 17 0 003.81 3.17l-.55.84c-.34-.22-3.27-1.87-6.74 1.09 3.31-.81 10.1-1.51 14 4.77z"/><path class="cls-27" d="M354.9 266.47s-6.81-10.06-14.74-8.36c0 0 .89-3.26 5.55-2.55s9.47 9.21 9.47 9.21l-.28 1.7z"/><path class="cls-20" d="M355.18 267.79l-.7-1c-.06-.1-6.71-9.77-14.22-8.15l-.8.17.21-.79s1.08-3.69 6.11-2.92c4.84.74 9.63 9.11 9.83 9.47l.09.15zM342 257.41c5.9 0 10.8 5.52 12.59 7.81l.06-.35c-.67-1.13-5-8.2-9-8.82-2.73-.42-4 .63-4.58 1.41.3-.03.62-.05.93-.05z"/><path class="cls-27" d="M353.76 210.91s.57-6.94-7.23-12.19-10.06-2.55-16.3-3.4c0 0 2.27 4 8.65 5.25s10.35 1.41 14.88 10.34z"/><path class="cls-20" d="M354.12 212.71l-.8-1.57c-4.1-8.07-7.72-8.77-13.2-9.82l-1.34-.26c-6.52-1.31-8.88-5.32-9-5.49l-.5-.88 1 .14a24 24 0 004.89.1c3.29-.17 6.13-.32 11.62 3.38 7.95 5.35 7.47 12.35 7.45 12.64zm-22.79-16.77a13.44 13.44 0 007.65 4.14l1.33.26c5.05 1 8.83 1.7 12.72 8.2a15.14 15.14 0 00-6.78-9.4c-5.21-3.51-7.77-3.38-11-3.21a28.1 28.1 0 01-3.92.01z"/><path class="cls-27" d="M354.15 212.19a25.78 25.78 0 018.24-11.34 116.92 116.92 0 0011.34-10.49s-.59 5-5.69 11.48-9.5 2.69-13.75 12.19l-.14-1.84z"/><path class="cls-20" d="M354.75 214.24l-1-.17-.15-1.94v-.09a26.08 26.08 0 018.41-11.58A116 116 0 00373.36 190l1.05-1.13-.18 1.53c0 .21-.67 5.19-5.8 11.73a14.28 14.28 0 01-6.4 4.69c-2.64 1.18-4.93 2.18-7.28 7.42zM372.83 192a122.4 122.4 0 01-10.12 9.21 26 26 0 00-8 10.73 12.1 12.1 0 016.88-6.05 13.44 13.44 0 006-4.39 29.83 29.83 0 005.24-9.5z"/><path class="cls-27" d="M355.39 254.7c-3.39-2.18-9.2-3.57-9.2-3.57v-3.58a48.9 48.9 0 018.48 4.54"/><path class="cls-20" d="M355.12 255.12c-3.28-2.11-9-3.49-9.05-3.5l-.39-.1v-4.68l.66.24a48.29 48.29 0 018.58 4.59l-.53.84a57.88 57.88 0 00-7.72-4.22v2.45a35.24 35.24 0 019 3.54z"/><path class="cls-27" d="M355.32 265.34a231.48 231.48 0 0016.87-21.12A34.48 34.48 0 01389.9 231s-6.23 8.1-12.89 17.31-21.55 18.13-21.55 18.13"/><path class="cls-20" d="M355.72 266.89l-.51-.86c.14-.09 14.87-9 21.39-18 5-7 9.87-13.35 11.91-16a34.61 34.61 0 00-15.91 12.47 230.77 230.77 0 01-16.91 21.17L355 265a229.78 229.78 0 0016.82-21.06 35.31 35.31 0 0118-13.4l1.42-.38-.9 1.17c-.06.08-6.31 8.19-12.89 17.29s-21.58 18.18-21.73 18.27z"/><path class="cls-27" d="M355.46 264s6.81-10.63 7.66-12.9-3.69-.42-3.69-.42 2.84-4.68 4.54-5.39 4.37 2.13 5.1 4.4-13.89 15-13.89 15"/><path class="cls-20" d="M355.51 265.12l-.66-.76.48-.41-.29-.19c.07-.1 6.79-10.61 7.61-12.8a.72.72 0 00.07-.38c-.2-.22-1.62 0-3.1.59l-1.4.57.78-1.29c.3-.49 3-4.84 4.77-5.59a2.42 2.42 0 012 .14 8.35 8.35 0 013.8 4.56c.75 2.44-10.57 12.51-14.06 15.56zm6.75-15.61a1.61 1.61 0 011.15.36 1.24 1.24 0 01.17 1.44c-.64 1.71-4.44 7.84-6.46 11 6.11-5.51 11.78-11.37 11.47-12.48a7.47 7.47 0 00-3.27-4 1.45 1.45 0 00-1.16-.12c-1 .4-2.52 2.46-3.54 4a6.82 6.82 0 011.64-.2z"/><path class="cls-3" d="M338.17 379.04h23.39v1h-23.39z"/><path class="cls-40" d="M381.07 330.58s4.23-10.19 10.49-13.87c0 0-3.66-2.3-3.66-10.22a10.79 10.79 0 012.81-7.64h20s5 10.45-1 17.56a30.21 30.21 0 019.36 14.47l-38-.3z"/><path class="cls-3" d="M419.73 331.38l-39.4-.31.28-.68c.17-.41 4.1-9.76 10.1-13.74-1.09-1-3.31-3.92-3.31-10.16a11.24 11.24 0 013-8l.15-.13H411l.14.28c.2.43 4.85 10.46-.74 17.7a31.11 31.11 0 019.13 14.41zm-37.89-1.29l36.54.28a30.09 30.09 0 00-9-13.57l-.41-.31.33-.4c5.14-6.13 1.77-15 1.05-16.74h-19.43a10.68 10.68 0 00-2.52 7.14c0 7.5 3.4 9.77 3.43 9.79l.68.44-.69.42c-5.12 3.01-8.91 10.62-9.98 12.95z"/><path class="cls-44" d="M338.7 246.71s-5.55 2.29-7.7 2.49a26.23 26.23 0 00-5.17 1.42 4.81 4.81 0 012.44-2.75 9.58 9.58 0 01-4.66-8.24 23.65 23.65 0 014.77-1.24l-.08-1.37a9.6 9.6 0 013.06 1.27s1.4-5 3.16-4.29.4 5.44 4.22 12.71z"/><path class="cls-3" d="M325.23 251.24l.2-.72a5.17 5.17 0 012.08-2.67 10 10 0 01-4.32-8.23v-.25l.24-.09a25.7 25.7 0 014.52-1.22l-.09-1.52.49.12a11.64 11.64 0 012.76 1c.34-1.06 1.22-3.38 2.42-4a1.3 1.3 0 011.09-.06c1 .38 1.16 1.6 1.45 3.43a28.13 28.13 0 003 9.45l.19.37-.38.16c-.23.09-5.62 2.26-7.84 2.52a25.48 25.48 0 00-5.07 1.39zm-1.29-11.35a9.27 9.27 0 004.47 7.65l.64.35-.66.32a4.42 4.42 0 00-1.88 1.75 22.93 22.93 0 014.41-1.13 43.8 43.8 0 007.25-2.32 29.22 29.22 0 01-2.85-9.31c-.24-1.58-.41-2.62-1-2.85a.58.58 0 00-.48 0c-1 .5-1.91 3.06-2.18 4l-.16.56-.44-.37a7.59 7.59 0 00-2.41-1.06l.06 1.2h-.35a22.85 22.85 0 00-4.42 1.21z"/><path class="cls-31" d="M352.27 251.48c.51-1.86-3-1.69-9.49-6.46s-7.37-10-7.37-10a6.84 6.84 0 00-1.33 3.47c-.05 1.82 0 2.88 0 2.88a20.62 20.62 0 00-5.16-3.79s2.22 7.39 7.26 8.55c0 0-6.11 1-10.11 4.17 0 0 4.52-1.28 14.06.62s11.85 1.76 12.18.58z"/><path class="cls-3" d="M350.05 252.74a60.12 60.12 0 01-10-1.47c-9.32-1.86-13.85-.64-13.89-.63l-.34-.65a23.65 23.65 0 018.94-4c-4.25-2-6.13-8-6.21-8.34l-.23-.75.73.3a18.32 18.32 0 014.64 3.25v-2a7.18 7.18 0 011.41-3.69l.52-.67.15.83s1 5.16 7.22 9.78a41 41 0 007 4.15c1.93.92 3 1.43 2.63 2.73-.19.72-.77 1.16-2.57 1.16zm-19.48-3.26a49.39 49.39 0 019.6 1.05c8.06 1.61 11.46 1.86 11.73.85.18-.62-.26-.9-2.22-1.85a41.26 41.26 0 01-7.12-4.21c-5.05-3.72-6.76-7.69-7.3-9.4a5.77 5.77 0 00-.81 2.56c-.05 1.8 0 2.86 0 2.86v.92l-.65-.65a22.77 22.77 0 00-4.23-3.31c.75 1.94 2.91 6.57 6.68 7.44v.74a26.91 26.91 0 00-8.6 3.15 27.63 27.63 0 012.92-.15z"/><path class="cls-27" d="M354.3 201.58a10.72 10.72 0 011.06-4.76c1.51-2.87.4-5.74-3.44-10.32 0 0-1.91.42-.13 5.19a35.62 35.62 0 012 9.71"/><path class="cls-20" d="M353.8 201.6v-.2h-.51a35.32 35.32 0 00-2-9.55c-.86-2.33-1-4-.46-5.05a1.51 1.51 0 01.95-.8l.3-.07.19.23c3.5 4.17 5.31 7.45 3.5 10.87a10.35 10.35 0 00-1 4.52zm-2-14.43a1.42 1.42 0 00-.11.18c-.21.44-.42 1.56.55 4.17a34.77 34.77 0 011.8 7.49 9.74 9.74 0 01.85-2.42c1.34-2.5.51-5.08-3.07-9.42z"/><path class="cls-44" d="M367.33 218.31s-4.44-7.73-3.38-7.83 2.87-.76 5.9 2.43c0 0 1.89-3.06.7-5.47s-3.34-4.36-2.63-5.1 3.42-.76 5.71 1.73 4.16 4.71 2.69 8a31.75 31.75 0 004.39-3.9c2-2.16 4-3.61 4.79-3.11s1.37 3.82-.45 6.49a39.51 39.51 0 01-4.4 5.18s.45-.46 4.61.95 7 3.21 6.91 4.87-2.42 2.47-6.47 3.56-7.64 1.86-7.64 1.86a26.75 26.75 0 015 4.65c3.33 3.66 3.95 5.31 3.67 6.29s-3.92-1.11-4.74-2.17-12-8.43-12-8.43l-2.68-10z"/><path class="cls-3" d="M386.34 239.55c-1.28 0-3.94-1.72-4.61-2.57s-7.45-5.4-11.93-8.35l-.12-.08-2.7-10.1c-1.52-2.64-4-7.16-3.49-8a.52.52 0 01.42-.29h.35c1.08-.15 2.86-.39 5.5 2.21.44-.89 1.29-3 .46-4.67a18.67 18.67 0 00-1.58-2.52c-.91-1.3-1.63-2.33-1-3a2.36 2.36 0 011.7-.55 6.32 6.32 0 014.56 2.29c1.82 2 3.86 4.18 3.16 7.21a28.62 28.62 0 003.36-3.11c.87-1 3.82-4 5.26-3.17a2.27 2.27 0 01.83 1.48 7.48 7.48 0 01-1.16 5.54 37.11 37.11 0 01-3.78 4.56 22.18 22.18 0 013.81 1c2.73.93 7.29 2.85 7.15 5.25-.11 2-2.75 2.82-6.75 3.89-2.87.77-5.53 1.39-6.82 1.68a36 36 0 014.4 4.22c3 3.31 4.15 5.3 3.76 6.64a.7.7 0 01-.58.51zm-16-11.46c1.6 1 11.18 7.38 12 8.43s3.67 2.49 4.12 2.27c.26-1-.91-2.94-3.62-5.91a26.62 26.62 0 00-4.95-4.58l-.82-.48.93-.21s3.62-.78 7.62-1.86 6.11-1.87 6.19-3.21-2.47-3.07-6.65-4.49c-3.58-1.22-4.28-1-4.31-1l-.07-.2-.38-.38a39.4 39.4 0 004.35-5.12 6.66 6.66 0 001-5c-.14-.65-.36-.93-.47-1-.5-.3-2.18.66-4.32 3a31.62 31.62 0 01-4.45 3.95l-1.12.81.56-1.26c1.33-3-.18-5-2.62-7.6a5.84 5.84 0 00-4-2.05 1.78 1.78 0 00-1.15.32c-.22.23.5 1.25 1.07 2.06a21 21 0 011.63 2.62c1.27 2.56-.64 5.69-.73 5.82l-.25.42-.34-.36c-2.57-2.71-4.15-2.49-5.2-2.35h-.21c.07.86 1.81 4.35 3.49 7.28v.09z"/><path class="cls-4" d="M373 225.17l-.28-1 3.44-1 .28 1zm-.54-.89l-.79-.61 1.07-1.38v-.14l.19-.06.8-1 .7.55 1.57-.5.3 1-2.77.87zm-.48-2.2l-.52-.86 2.65-1.59.51.85zm.61-2.05l-.78-.62 1.92-2.38.78.62z"/><path class="cls-31" d="M359.43 226.43c-.55-1.29-.67-1.82 1.6-3.52s4.79-6.55 4.79-6.55a10.2 10.2 0 00-1.94-3.83 1.71 1.71 0 01-.43-2.26s-.11.94 2.83 3.78 2.6 4.94 2.6 4.94a3.38 3.38 0 013.45 2.78c.6 2.93-.86 6.9-.86 6.9s7.31 2.21 10.87 6.71 4.17 4 4.17 4-1.71.45-6-3.31-10.73-7.66-15.27-8.27-5.33-.21-5.82-1.35z"/><path class="cls-3" d="M386.43 239.75h-.05c-.62 0-2.49-.24-6.1-3.42-4-3.5-10.4-7.55-15.07-8.18-1.35-.18-2.39-.27-3.14-.34-1.86-.16-2.55-.22-3-1.23-.64-1.5-.66-2.19 1.72-4 2-1.48 4.19-5.52 4.61-6.3a9.38 9.38 0 00-1.8-3.52 2.08 2.08 0 01-.47-2.75l.67.26s.11.95 2.72 3.48c2.31 2.24 2.68 4.06 2.72 4.85a3.69 3.69 0 013.44 3.06 15 15 0 01-.75 6.73c1.55.52 7.51 2.71 10.69 6.72 2.68 3.39 3.6 3.8 3.76 3.85l1.39-.27-1.06.92a.49.49 0 01-.28.14zm-21.63-26.69a13.55 13.55 0 011.39 3.2v.14l-.07.13c-.11.2-2.59 5-4.9 6.68-2.12 1.59-2 1.93-1.48 3.08.24.57.49.61 2.35.78.77.07 1.81.16 3.17.34 4.83.64 11.41 4.78 15.47 8.36a18.64 18.64 0 003.71 2.65 32.83 32.83 0 01-2.43-2.8c-3.45-4.36-10.62-6.57-10.69-6.59l-.38-.11.14-.38s1.42-3.9.84-6.69a3 3 0 00-3.07-2.48h-.46l.07-.46s.26-2-2.48-4.61c-.44-.44-.85-.86-1.18-1.24zm-1.07-1.31a2 2 0 00.3.4z"/><path class="cls-31" d="M353.84 191.08s.38-1.85-4.38-4.86-3.46-8.62-3.46-8.62-7.52-1.08-9.61 4.31.19 13.16.19 13.16a40.69 40.69 0 019-2.38c4.19-.43 7.81-.32 8.19-1.61z"/><path class="cls-3" d="M336.37 195.57l-.12-.4c-.09-.32-2.29-7.95-.18-13.4 2.18-5.6 9.94-4.56 10-4.54l.4.05-.09.4c0 .22-1.21 5.4 3.26 8.23 4.84 3.06 4.59 5 4.55 5.24-.37 1.25-2.5 1.41-5.74 1.65-.87.07-1.8.14-2.77.24a40.11 40.11 0 00-8.94 2.35zm8.17-17.68c-2.22 0-6.35.51-7.77 4.16-1.76 4.53-.33 10.88.09 12.52a39.37 39.37 0 018.76-2.25c1-.1 1.91-.17 2.79-.24 2.46-.18 4.79-.36 5.06-1.08 0-.18-.06-1.83-4.21-4.46s-3.87-7.21-3.66-8.61c-.26-.02-.6-.04-1.06-.04z"/><path class="cls-44" d="M344.73 188.77s-6.72-1.63-7.39 2.18-.59 5.55-1 7.94 1.63 5.56 1.63 5.56-4.9 2.17-6.05-4 1.73-7.73 1.73-7.73-3.36 1.31-4.89 3.48-3.07 4.71-2.12 8.83c0 0-3.26-4.59-.47-9.37a11.67 11.67 0 016.92-5.66s-3.76-1.72-2.8-4.56a54.58 54.58 0 001.92-7.31c.29-1.63 1.35-2.08 3.17-1.74 0 0-.39-4.44 1.82-7.28s4.51-5.13 7.2-2.73c0 0-4.7-1.42-3.65 3.7l1.06 5.11a11.12 11.12 0 012.88-3.26c1.73-1.2 8-.65 8-.65s-4.12-.11-5.08 2a10.07 10.07 0 00-1 6 2.7 2.7 0 013.26 1.31c1.15 2.07.48 2.72-2.11 2.07s-4.9-.74-5.38 1.75 1.44 3 2.31 4.45z"/><path class="cls-3" d="M326.38 205.22c0-.05-3.37-4.85-.5-9.78a12.61 12.61 0 016.3-5.57c-1.35-.86-2.9-2.51-2.2-4.58a53.58 53.58 0 001.9-7.25 2.53 2.53 0 011-1.74 3 3 0 012.16-.38c0-1.25.06-4.67 1.93-7.07 1.48-1.91 3.1-3.7 4.93-3.87a3.72 3.72 0 012.81 1.09l-.36.64s-1.82-.53-2.74.32c-.58.53-.72 1.52-.43 2.94l.87 4.21a10.74 10.74 0 012.48-2.59c1.82-1.26 8-.74 8.22-.72l-.05.75s-3.89-.08-4.73 1.74a10.42 10.42 0 00-1 5.37 3 3 0 013.31 1.59c.4.72.87 1.75.37 2.4s-1.31.61-2.9.21c-1.25-.31-3-.66-4 0a2.1 2.1 0 00-.89 1.47 2.87 2.87 0 001.2 3 6.24 6.24 0 011.06 1.22l.47.77-.88-.21s-4-.95-5.92.33a2.22 2.22 0 00-1 1.54c-.4 2.25-.53 3.78-.65 5.14-.08.93-.16 1.82-.31 2.8-.34 2.23 1.56 5.26 1.58 5.29l.23.37-.4.18a5 5 0 01-4-.06c-1.31-.69-2.18-2.12-2.57-4.24-.63-3.38-.1-5.44.57-6.64a9.57 9.57 0 00-3.07 2.54c-1.6 2.27-3 4.63-2.05 8.53zm7.18-12.88l.31.68s-2.62 1.52-1.54 7.33c.35 1.89 1.09 3.14 2.19 3.72a4 4 0 002.93.17c-.53-1-1.75-3.39-1.44-5.4.15-1 .22-1.84.3-2.76.12-1.37.26-2.92.66-5.2a2.94 2.94 0 011.34-2c1.57-1 4.08-.84 5.48-.63l-.32-.31a3.56 3.56 0 01-1.41-3.65 2.84 2.84 0 011.22-2c1.24-.79 3.11-.45 4.61-.08 1.69.43 2.05.15 2.13.06s.2-.42-.44-1.58a2.32 2.32 0 00-2.81-1.13l-.38.13-.1-.39a10.32 10.32 0 011-6.24 3.26 3.26 0 011.71-1.56c-1.68 0-3.38.21-4.1.71a10.75 10.75 0 00-2.76 3.14l-.5.88-1.25-6.11c-.36-1.7-.13-2.93.65-3.65a2.81 2.81 0 011.71-.66 2.4 2.4 0 00-.84-.08c-1.54.14-3 1.81-4.41 3.58-2.09 2.69-1.75 7-1.75 7v.49l-.48-.09a2.74 2.74 0 00-2.06.18 1.85 1.85 0 00-.67 1.26 56.09 56.09 0 01-1.93 7.36c-.84 2.49 2.56 4.08 2.6 4.1l1 .47-1.1.24a11.37 11.37 0 00-6.68 5.48 8.12 8.12 0 00-.52 7 10.88 10.88 0 012.48-6.82c1.68-2.27 5.02-3.58 5.17-3.64z"/><path class="cls-4" d="M339.61 187.17l-3.07-.42.13-1 3.08.42zm.16-1.4l-3-.22.07-1h.36l-1.36-2.55.89-.46 1.42 2.72-.65.34 2.34.17zm-.88-2.07l-1.84-2 .74-.68 1.83 2zm-.16-1.79l-.52-2.6 1-.19.53 2.59z"/></g></svg>
