<svg version="1.1" xmlns="http://www.w3.org/2000/svg" x="0" y="0" viewBox="0 0 512 512" width="512" height="512" xml:space="preserve"><style>.st1{fill:#fff}</style><path d="M467.7 256c0-29.2-23.7-53-52.9-53h-52.9c0-29.2-23.7-53-52.9-53V97.3c0-29.2-23.7-53-52.9-53s-52.9 23.8-52.9 53V150c-29.2 0-52.9 23.8-52.9 53H97.2c-29.2 0-52.9 23.8-52.9 53 0 29.3 23.7 53 52.9 53h52.9c0 29 23.7 52.8 52.9 52.8v53c0 29.2 23.7 53 52.9 53s52.9-23.8 52.9-53v-53c29.2 0 52.9-23.8 52.9-52.8h52.9c29.4 0 53.1-23.8 53.1-53z" fill="#3d6ae2"/><path class="st1" d="M256 474.3c-32.8 0-59.5-26.7-59.5-59.6V368c-27.6-3-49.5-24.9-52.6-52.4H97.2c-32.8 0-59.5-26.7-59.5-59.6 0-32.9 26.7-59.6 59.5-59.6h46.7c3-27.6 25-49.6 52.6-52.6V97.3c0-32.9 26.7-59.6 59.5-59.6s59.5 26.7 59.5 59.6v46.5c27.6 3.1 49.5 25 52.6 52.6h46.7c32.8 0 59.5 26.7 59.5 59.6 0 32.9-26.7 59.6-59.5 59.6h-46.7c-3.1 27.5-25 49.4-52.6 52.4v46.8c0 32.8-26.7 59.5-59.5 59.5zM97.2 209.6c-25.6 0-46.3 20.8-46.3 46.4s20.8 46.4 46.3 46.4h59.5v6.6c0 25.5 20.8 46.2 46.3 46.2h6.6v59.6c0 25.6 20.8 46.4 46.3 46.4 25.6 0 46.3-20.8 46.3-46.4v-59.6h6.6c25.6 0 46.3-20.7 46.3-46.2v-6.6h59.5c25.6 0 46.3-20.8 46.3-46.4s-20.8-46.4-46.3-46.4h-59.5V203c0-25.6-20.8-46.4-46.3-46.4h-6.6V97.3c0-25.6-20.8-46.4-46.3-46.4-25.6 0-46.3 20.8-46.3 46.4v59.3H203c-25.6 0-46.3 20.8-46.3 46.4v6.6H97.2z"/><path class="st1" d="M420.7 243.7c-4.3 0-8 2-10.2 5.2-78.3-.6-142.4-62.2-146.7-139.5v-8.1c3-2.3 5-5.9 5-10 0-7-5.6-12.8-12.5-12.8s-12.5 5.7-12.5 12.8c0 3.9 1.8 7.3 4.5 9.6v9.1c-4.7 76.1-67.1 136.8-143.8 138.6-2.3-2.9-5.8-4.8-9.9-4.8-7 0-12.5 5.5-12.5 12.5 0 6.9 5.6 12.5 12.5 12.5 3.8 0 7.2-1.7 9.5-4.3 78.3 3.2 141.4 66.4 144.3 144.8v5.8c-3 2.3-5 5.9-5 10 0 7 5.5 12.5 12.5 12.5s12.5-5.5 12.5-12.5c0-3.9-1.8-7.4-4.6-9.7v-5c2.2-80.1 67.5-144.7 147.8-145.6 2.3 2.4 5.5 4 9.2 4 6.9 0 12.5-5.6 12.5-12.5 0-7.1-5.5-12.6-12.6-12.6zm-67.6 6.8h-65.9c-2.2-12.3-11.5-22.1-23.5-25.1v-61.5c17 39.5 49.3 70.9 89.4 86.6zm-97.1 22c-8.9 0-16.2-7.3-16.2-16.2S247.1 240 256 240c8.9 0 16.2 7.3 16.2 16.2s-7.3 16.3-16.2 16.3zm-7.8-108.6v61.5c-12 3-21.2 12.9-23.5 25.1h-66.4c40.4-15.5 72.9-47 89.9-86.6zm-88 100.3h65c2.9 11.2 11.8 20.1 23 22.9v64.7c-16.6-39.6-48.4-71.2-88-87.6zm138.3 35.4c-15 15-26.7 32.4-34.7 51.4v-64c11.2-2.8 20.1-11.7 23-22.9h64.7c-19.6 8.1-37.6 20.1-53 35.5z"/></svg>
