<svg xmlns="http://www.w3.org/2000/svg" viewBox="0 0 749.88 427.67"><defs><clipPath id="clip-path"><path fill="none" d="M0-.33h749.88v428H0z"/></clipPath><style>.cls-2{clip-path:url(#clip-path)}.cls-5{fill:#8d611f}.cls-6{fill:#d6d4ca}.cls-7{fill:#b27b20}.cls-9{fill:#02020a}.cls-10{fill:#bc8720}.cls-12{fill:#1d3732}.cls-13{fill:#367271}.cls-14{fill:#36657e}.cls-15{fill:#5f9bbe}.cls-16{fill:#d5b56d}.cls-17{fill:#d42636}.cls-18{fill:#9c6b23}.cls-19{fill:#712a1e}.cls-20{fill:#5d4533}.cls-21{fill:#40020a}.cls-22{fill:#a83530}.cls-23{fill:#1e2551}.cls-24{fill:#1d374e}.cls-25{fill:#66251c}</style></defs><g class="cls-2"><path fill="#af8f4f" d="M-9.19-9.77V435.7h766.25V-9.77H-9.19z"/><path d="M757.56 436.2H-9.69V-10.27h767.25zm-766.25-1h765.25V-9.27H-8.69z" fill="#a16e46"/><path class="cls-5" d="M584.64-2a19.46 19.46 0 002.27 9.35c2.55 4.82-.56 7.66 2.55 10.21s3.1 1.7 2.27 7.37-1.48 9.92 1 15 4.13 15 4.13 15-19.86 29.48-6.1 48.75L765.49 7.3l-2.83-12.47L584.64-2z"/><path class="cls-6" d="M590.58 104.33l-.26-.36c-5.72-8-6.47-19.1-2.17-32a79.79 79.79 0 018.16-17.1c-.25-1.41-1.85-10.11-4.06-14.7-2.49-5.19-1.85-9.58-1-15.14l.12-.84c.6-4.05.6-4.05-1.21-5.47-.29-.22-.61-.48-1-.78-1.82-1.48-1.74-3.12-1.67-4.85a9.61 9.61 0 00-1-5.5 19.81 19.81 0 01-2.33-9.62v-.46h.46l178.44-3.19 3 13.24-.33.18zM585.14-1.56a19.46 19.46 0 002.21 8.63 10.63 10.63 0 011.13 6c-.07 1.66-.13 2.86 1.3 4l1 .76c2.26 1.78 2.22 2 1.58 6.41l-.12.84c-.82 5.6-1.41 9.64.95 14.55 2.46 5.11 4.11 14.75 4.18 15.16v.2l-.11.16a78.51 78.51 0 00-8.16 17c-2.88 8.7-4.88 21 1.79 30.78l174-96-2.63-11.59z"/><path class="cls-7" d="M704.27-8.84S680.45 3.9 672 11.84a165.52 165.52 0 00-14.43 15.31l14.43.31c-.26 0-5.83 12.73-11.91 21.16s-32.36 22.18-63.54 42.59-51.59 40.28-59 53l7.37.25s2.83 13.06-4.54 21.56-38.55 36.32-49.89 66.07L760.39 153l-.56-161-55.56-.84z"/><path class="cls-6" d="M489.71 232.87l.36-.94c9.26-24.31 31.65-47.26 43.68-59.59 2.76-2.82 4.93-5.05 6.29-6.62 6.43-7.42 4.88-18.56 4.5-20.75l-7.8-.27.42-.72c10-17.2 37.06-38.75 59.12-53.19 10.53-6.9 20.51-13 29.32-18.46 17.45-10.74 30.06-18.5 34-24 4.42-6.13 8.6-14.6 10.61-18.67.38-.77.65-1.33.86-1.72l-13.59-.29h-1l.64-.79A167.9 167.9 0 01671.6 11.5c8.46-7.92 32.19-20.65 32.4-20.78l.11-.06 56.18.84v.5l.56 161.39-.36.1zm48.74-89.11l6.92.24.08.38c.12.54 2.8 13.4-4.65 22-1.38 1.6-3.57 3.84-6.33 6.67-11.83 12.12-33.7 34.54-43.1 58.3l268.52-78.71-.56-160.15-54.94-.83c-1.8 1-24 13-32.1 20.54a171 171 0 00-13.73 14.47l11.15.24c1 0 1.65 0 2 .07a.58.58 0 01.19 0c.51.06.51.18.5.46V28h-.24c-.19.36-.61 1.2-1.08 2.15-2 4.09-6.22 12.6-10.69 18.8-4.09 5.67-16.77 13.47-34.32 24.27-8.8 5.42-18.77 11.56-29.3 18.45-32.77 21.41-51.48 40.8-58.32 52.09z"/><path d="M609 186.61s-21.88-11-64.64 20.82c0 0-6.78-.27-20.39 5.53s-28.34 5.13-49.32 26.31c0 0-35.27-2.36-50 25.42 0 0-29.34-5.1-53.15 20.41l-34-11.34-13.32-19-55 12.18-43.39 34-28.93 133.26 430.3 6.24L609 186.61z" fill="#1d252f"/><path class="cls-9" d="M628.24 441.45h-1.09l-431.52-6.26 29.25-134.77L268.73 266h.22l55.63-12.32 13.51 19.25 33.1 11c21.74-22.89 48.21-20.91 52.89-20.34 14.14-25.67 45.95-25.5 50.18-25.36 15.67-15.71 27.93-19.37 38.75-22.61a96.66 96.66 0 0010.58-3.6c12.06-5.14 18.84-5.59 20.45-5.61 42.59-31.61 64.5-21.17 65.42-20.71l.51.25v.57zm-430.14-8.23l428 6.2-18-252.13c-3.5-1.31-24.94-7.47-63.09 20.94l-.29.21h-.35c-.06 0-6.78-.17-20 5.45a100.09 100.09 0 01-10.8 3.68c-10.66 3.19-22.75 6.8-38.21 22.41l-.32.33h-.46c-.34 0-34.8-2-49.08 24.89l-.34.64-.71-.12c-.29-.05-29.11-4.7-52.25 20.1l-.44.47-34.93-11.69-13.12-18.7-54.1 12-42.93 33.66z"/><path class="cls-10" d="M754.72 45.85s-31.49 29.66-55.56 58.48h6.55s8.19 5.67-3.71 14.39-49.33 25.21-94.11 61.5-88.39 66.89-118.18 93l2.52.38s1.7 3.86 1.7 13.8l267-4.95-6.21-236.6z"/><path class="cls-6" d="M493.43 287.88v-.51c0-8.31-1.21-12.35-1.56-13.35l-3.3-.49.81-.71c16.62-14.56 38-30.84 60.55-48.07 18.6-14.2 37.83-28.87 57.64-44.92 31.32-25.38 58.79-40.91 77-51.19 7.6-4.3 13.61-7.7 17.17-10.32 4.19-3.09 6.3-6.08 6.26-8.89a6.3 6.3 0 00-2.42-4.6h-7.45l.69-.82c23.81-28.52 55.28-58.22 55.6-58.52l.81-.77 6.28 238.19H761zm-2.58-15l1.73.26.11.25c.07.16 1.69 3.93 1.74 13.49l266-4.93L754.25 47c-5 4.81-32.49 31.19-54 56.84h5.63l.13.09a7.23 7.23 0 013 5.48c0 3.15-2.19 6.43-6.67 9.72-3.61 2.66-9.63 6.07-17.27 10.39-18.14 10.26-45.56 25.77-76.82 51.09-19.82 16.06-39.06 30.74-57.66 44.94-22.26 16.94-43.26 32.96-59.74 47.31z"/><path class="cls-5" d="M205-5s8.62 9.72 9.75 17.1a46.34 46.34 0 004.79 13.9s5.67 0 7.37 3.42 1.13 5.37-2 7.92c0 0 4.53.85 9.92 5.95l13.06 17s4.8-.28 5.36 3.69a6.77 6.77 0 01-2.83 6.23s5.64 6.24 6.52 10.49-.85 6.8-4 9.92a42.93 42.93 0 01-6.8 5.4l20.69 15.89 27.8 6.49s3.95 2.55 3.1 6.24-5.95 6-5.95 6 4.4 4.18 3.4 9.07c-.85 4.14-6.52 6.8-6.52 6.8a13.47 13.47 0 013.4 9.93 13.62 13.62 0 01-3.4 8.5s6.75 13 8.22 19.56-.57 9.92-4 13a71.09 71.09 0 012.91 15.5 232.9 232.9 0 0115.31 18c6.8 9.07 17.29 28.63 17.29 28.63s-10.49.55-25.79 2.83-21.26 4.54-28.6 11.87-27.24 26.08-33.74 34.3c0 0 9.93 14.74 13.61 25.51 0 0-7 11.34-11.6 20.12s-4.56 9.93-6.83 19.28-4.77 30-5.92 39.68c0 0 14.76 12.19 18.42 17.58l-256.3 5.4 4-442.5L205-5z"/><path class="cls-6" d="M-8.87 436.71v-.51l4-443h.5L205.2-5.48l.15.17c.35.4 8.72 9.91 9.87 17.36a46.07 46.07 0 004.62 13.47c1.25.06 5.91.49 7.52 3.68s1.3 5.45-1.39 7.91a24.94 24.94 0 019.22 5.83l13 16.86c1.88 0 5.14.79 5.62 4.13a7.06 7.06 0 01-2.6 6.37c1.27 1.47 5.51 6.57 6.28 10.32.9 4.37-.75 7-4.11 10.38a42.91 42.91 0 01-6.29 5.08l20.05 15.38L295 118c.18.11 4.23 2.79 3.32 6.77-.73 3.12-4.17 5.23-5.61 6 1.16 1.29 3.91 4.88 3.06 9-.73 3.56-4.68 6-6.21 6.85a14.14 14.14 0 013.1 9.8 14.31 14.31 0 01-3.3 8.56c1.06 2.07 6.75 13.34 8.1 19.37 1.48 6.55-.46 10.09-3.88 13.3a72.21 72.21 0 012.75 15.1 232.2 232.2 0 0115.22 17.9c6.75 9 17.23 28.49 17.33 28.69l.38.69h-.79c-.11 0-10.65.57-25.75 2.83-15.67 2.33-21.23 4.64-28.35 11.76-1.81 1.81-4.36 4.29-7.3 7.15-8.94 8.7-21.14 20.56-26.17 26.82 1.44 2.18 10.09 15.47 13.46 25.32l.08.23-.12.2c-.07.11-7.09 11.42-11.58 20.09-4.08 7.86-4.48 9.54-6.17 16.6l-.62 2.57c-2.32 9.4-4.83 30.24-5.95 39.4 1.89 1.57 14.85 12.41 18.31 17.51l.52.76zM-3.9-5.8l-4 441.49 254.8-5.37c-4.32-5.58-17.63-16.6-17.77-16.71l-.21-.17v-.28c1.09-9 3.63-30.22 5.94-39.74l.61-2.56c1.72-7.16 2.12-8.86 6.26-16.83s10.52-18.39 11.49-19.95c-3.68-10.57-13.37-25-13.47-25.17l-.2-.31.22-.28c4.92-6.23 17.38-18.35 26.48-27.2 2.94-2.87 5.49-5.34 7.29-7.15 7.22-7.22 13.17-9.7 28.91-12 12.8-1.91 22.34-2.62 25.06-2.79-1.93-3.55-10.89-19.9-16.88-27.88a232.47 232.47 0 00-15.27-17.95l-.13-.14V213a70.53 70.53 0 00-2.81-15.32l-.09-.31.23-.21c3.4-3.12 5.23-6.31 3.82-12.56s-8.11-19.31-8.18-19.44l-.17-.33.26-.26a13.62 13.62 0 000-17.71l-.52-.5.65-.31c.06 0 5.46-2.61 6.25-6.45.93-4.57-3.22-8.57-3.26-8.61l-.54-.51.68-.31c.05 0 4.89-2.21 5.67-5.6.7-3-2.32-5.32-2.81-5.66l-27.82-6.5-.08-.07L245.31 96l.61-.38a42.31 42.31 0 006.72-5.33c3.18-3.18 4.64-5.52 3.83-9.47s-6.35-10.19-6.4-10.25l-.39-.43.48-.32a6.24 6.24 0 002.62-5.75c-.5-3.46-4.67-3.27-4.84-3.26h-.26l-13.23-17.2c-5.14-4.87-9.57-5.76-9.62-5.77l-1.05-.2.83-.68c3-2.42 3.42-4.2 1.85-7.31s-6.87-3.14-6.92-3.14h-.29l-.14-.25a47 47 0 01-4.88-14.06c-1-6.64-8.36-15.37-9.48-16.68z"/><path d="M760.39 130.89S757 138.83 732 149l-83 43.38s-70.34 81.94-113.12 150.24l4 .26.56 16.75 68.48-4.5 23.57 34.49 131.3-39.32-3.4-219.41z" fill="#c99320"/><path class="cls-6" d="M632.27 390.25l-23.62-34.56-68.71 4.51-.57-16.81-4.37-.29.44-.71c42.31-67.55 112.47-149.47 113.17-150.29l.15-.12 83-43.39c24.39-10 28.09-17.82 28.12-17.9l1 .2 3.41 219.78-.36.1zm-23.12-35.6l23.53 34.43 130.61-39.15-3.37-217.38c-2.14 2.77-8.75 9.2-27.69 16.95l-82.9 43.32c-2.45 2.86-70.81 82.92-112.57 149.39l3.58.24.57 16.68z"/><path class="cls-12" d="M379.13-2.33S390 66 393.9 75.05l13 .2s12.77-57.71 15.6-78.42l-43.37.84z"/><path class="cls-6" d="M407.71 76.26L393.24 76l-.26-.59C389 66.37 378.59.62 378.14-2.18L378-3.31l45.69-.88-.2 1.19c-2.81 20.51-15.47 77.92-15.6 78.5zm-13.13-2.2l11.53.18c1.51-6.89 12.35-56.44 15.24-76.39l-41.05.79c1.4 8.76 10.54 65.36 14.28 75.42z"/></g><path class="cls-13" d="M391.77 109.63l-16.18 129.56 20.83-127.57-4.65-1.99z"/><g class="cls-2"><path class="cls-14" d="M404.86 71.83l-1-.2L419-3.25l1 .2zm-9.22-.1L382.18-2.71l1-.18 13.46 74.44z"/></g><path class="cls-13" d="M398.12 111.76l1.42 150.94 3.4-151.62-4.82.68zM404.93 111.76l16.72 124.58-11.62-125.26-5.1.68z"/><path class="cls-12" d="M401.53 114.52a23.31 23.31 0 10-23.32-23.31 23.31 23.31 0 0023.32 23.31z"/><path class="cls-6" d="M401.53 115.52a24.31 24.31 0 1124.31-24.31 24.35 24.35 0 01-24.31 24.31zm0-46.62a22.31 22.31 0 1022.31 22.31 22.34 22.34 0 00-22.31-22.31z"/><path class="cls-6" d="M398 79.32a58.88 58.88 0 01-5.6 5.38c-3.4 2.89-4.15 4.54-3 6s4-1.79 4-1.79a15.85 15.85 0 013.7 3s-.05.78-2 1.48-4.42 1.78-3.57 3.69a8 8 0 01.85 2.76l1.35-2.19s.71-2.11 5.81-3.25a4.47 4.47 0 01-.28 3.74s-2.65-.56-2.74 1.21 4.63 4 12.47 1.13c0 0-6.58.27-8.11-1.91 0 0 .85-2.7 0-4.54 0 0 2.63 1.27 4.33-3.33s1.66-5.85 3.95-7.64a7.45 7.45 0 01-4.8-2 17.44 17.44 0 01-2.46 5.44 16 16 0 00-2.36 5.05l-1.28-.3L394 87.1l4-7.78z"/><path class="cls-6" d="M402 102.29a8.51 8.51 0 01-5-1.28 2.08 2.08 0 01-1-1.75 1.7 1.7 0 01.65-1.3 3.3 3.3 0 012.28-.43 4.42 4.42 0 00.27-2.6c-4.3 1.06-5 2.81-5 2.83v.09l-2.28 3.7v-1.77a8.23 8.23 0 00-.8-2.56 2.13 2.13 0 01-.06-1.76c.54-1.25 2.28-2 3.91-2.6a3.39 3.39 0 001.62-.94 15.74 15.74 0 00-3-2.41c-.63.64-2.12 2-3.33 2h-.05A1.41 1.41 0 01389 91c-1.59-2 .09-4.09 3.09-6.65a62.71 62.71 0 005.52-5.35l.82.56-3.8 7.44 3.82 3.75.66.16a19.84 19.84 0 012.3-4.71 17.53 17.53 0 002.39-5.27l.2-.93.67.62a6.84 6.84 0 004.45 1.85h1.49l-1.17.92c-1.68 1.31-2 2.27-2.88 4.84-.25.72-.54 1.57-.91 2.57-.71 1.91-1.67 3.12-2.86 3.6a3 3 0 01-1.2.22 8.57 8.57 0 01-.19 3.76c1.34 1.45 5.86 1.6 7.54 1.53l.19 1a21.15 21.15 0 01-7.13 1.38zm-3.66-3.79a1.87 1.87 0 00-1.08.26.63.63 0 00-.26.55c0 .28.2.6.6.9 1.06.78 3.83 1.61 8.22.62-2-.19-4.43-.71-5.37-2l-.14-.2.07-.23s.78-2.54 0-4.18l-.58-1.26 1.25.6a1.82 1.82 0 001.37 0 4.92 4.92 0 002.27-3c.37-1 .65-1.83.9-2.54.74-2.16 1.14-3.35 2.33-4.54a8 8 0 01-3.33-1.47 21.55 21.55 0 01-2.31 4.82 16.15 16.15 0 00-2.3 4.86l-.09.52-1.93-.45-4.56-4.56 2.6-5.13c-.9.87-2 1.92-3.31 3-3.54 3-3.75 4.27-3 5.26a.46.46 0 00.35.17c.8 0 2.18-1.21 2.87-2l.28-.31.35.21a16.17 16.17 0 013.84 3.11l.11.15v.18c0 .26-.23 1.16-2.36 1.93-.87.3-2.89 1-3.33 2a1.19 1.19 0 00.05 1 14.77 14.77 0 01.62 1.63l.67-1.08c.17-.44 1.23-2.42 6.15-3.52l.38-.08.18.34a5 5 0 01-.28 4.18l-.16.36-.4-.08a4.46 4.46 0 00-.72-.02z"/><path class="cls-7" d="M286.18 119.65l-4.25 3.35 6.07 1.12s7.51-4.39 7.65-7.51a32.71 32.71 0 00-.28-5.81s2.69 0 4.25-3.55-1.13-6.66-4.11-7.22-5.95-.71-9.07 3a32.31 32.31 0 00-10.18.43c-5.13 1.13-9.19 3.86-15.59 9.65l2.83-.3"/><g class="cls-2"><path class="cls-6" d="M-3.8 173.52l-.62-.78c.23-.19 23.55-18.46 27.45-22.36a35.33 35.33 0 006.26-8.38c.68-1.12 1.47-2.43 2.46-4 4.41-7 12.68-16.35 18.89-19.73.53-.3 1-.56 1.47-.8 4.54-2.44 4.54-2.44 4.79-7.86a30.92 30.92 0 011.74-9.33 132.46 132.46 0 00-16.74 1.63l-1.15.2.64-1c21.35-32.3 43.28-38.66 45.73-39.28 8.77-15.16 19.59-21.31 21.41-22.27l1.06-16.51-5.74-.3.5-.73c6.5-9.58 23.42-24.33 23.59-24.48l.65.76c-.16.14-16.14 14.07-22.9 23.54l3.91.21v-.23l9.9 1.63c.95-1.3 5.34-7.07 10.72-10.64l.55.83c-5.8 3.85-10.59 10.58-10.64 10.65l-.18.25L110.6 23l-1.11 17.21-.26.12c-.12.06-11.94 5.82-21.35 22.19l-.11.2h-.22c-.23 0-22.61 5.09-44.69 38a136.82 136.82 0 0119.4-1.53 107.7 107.7 0 0114.66-14.32l.64.77C67.53 94 62.94 100 62.9 100l-.15.19h-3.03a30 30 0 00-1.82 9.41c-.27 5.87-.37 6-5.32 8.7l-1.46.78c-6.07 3.31-14.18 12.46-18.52 19.39-1 1.57-1.77 2.87-2.45 4a36.41 36.41 0 01-6.41 8.58C19.79 155-2.84 172.77-3.8 173.52zm291.89-48.9l-7.35-1.36 5.13-4 .62.79-3.38 2.64 4.79.88c2.13-1.27 7.15-4.73 7.25-7a31.05 31.05 0 00-.28-5.71l-.09-.58h.59c.09 0 2.4-.07 3.79-3.25a4.29 4.29 0 00-.08-3.86 5.34 5.34 0 00-3.66-2.67c-2.82-.54-5.61-.73-8.6 2.81l-.18.21h-.27a32.1 32.1 0 00-10 .42c-4.5 1-8.2 3.18-14.22 8.5l1.3-.13.1 1-4.35.46 1.13-1c6.86-6.21 10.85-8.67 15.82-9.77a33 33 0 0110.09-.47c3.27-3.73 6.42-3.5 9.36-2.93a6.39 6.39 0 014.4 3.1 5.34 5.34 0 01.11 4.73 5.91 5.91 0 01-4.15 3.77 32.49 32.49 0 01.22 5.4c-.15 3.3-7.11 7.46-7.9 7.92zm-164.53-14h-.41c-9.19-.65-19.7-.2-19.81-.19h-.78l.3-.73a57.67 57.67 0 0117.75-23.46l.57.82a56.46 56.46 0 00-17.09 22.31c2.58-.09 11-.32 18.73.19.43-1.42 2-6.24 4.54-8.55l.68.74c-2.7 2.48-4.35 8.41-4.37 8.47zm-106.8-3.2l.5-1.12c4.8-11 19-23.58 19.12-23.71l.66.75c-.14.12-13.23 11.72-18.37 22.27a89.74 89.74 0 0113.48-3.25 45.35 45.35 0 0110.19-11.82l.64.77a43.89 43.89 0 00-10.06 11.75l-.11.22h-.25C22.82 105 18 107 17.9 107zm78.32-6.34h-.29c-10.91-.53-25.31-.31-25.45-.31h-1.07l.67-.83a84.53 84.53 0 0115.45-14.53l.57.82a84.41 84.41 0 00-14.57 13.54c3.52 0 15-.12 24.18.31.85-1.18 5-6.45 14.48-11.3l.45.89c-10.23 5.25-14.23 11.14-14.27 11.2zm-116.43-1.44l-.06-1L8.38 97c5.68-7.6 16.81-18.51 16.92-18.62l.7.71c-.11.11-11.37 11.15-17 18.67l-.09.24zM-4 48.45l-.75-.66C-4.54 47.56 15.57 25 31 18.89c-.3-1.91-1.36-9.85.83-15a29.29 29.29 0 00-5.68 1.32l-1.45.58 5-7.82.84.54-3.36 5.34a41.34 41.34 0 015.24-1.05l.18-.3.35.22A90.63 90.63 0 0144.73 2l5.38-5.12h7.08l-5 5.05c2.72-.12 9.42-.34 17.56.06l6.82-5.41 7.51 1-6.8 10.67c2.85.09 12 .25 15.53-1.08l8.57-10.57H109L99.6 7.37c3.08 0 11.85-.47 14.7-3.78a99.94 99.94 0 006.46-8.45l.84.55a100.53 100.53 0 01-6.54 8.55c-3.77 4.38-16 4.14-16.57 4.13h-1.06l9.33-10.77h-4.9L93.42 8l-.12.05C89 9.77 76.88 9.24 76.37 9.22h-.86l6.84-10.88-5.53-.72L70 3h-.19a179.61 179.61 0 00-18.9 0l-1.32.09 5.19-5.21h-4.27L45.13 3h-.2a88.12 88.12 0 00-11.88.73c-2.7 5.37-1 15.29-.95 15.39l.07.41-.39.15C16.49 25.52-3.79 48.23-4 48.45zM153 32l.63-1.09c5.06-8.71 14.05-16.38 17.32-19-15.19 1.09-29.15 14.31-29.3 14.45l-.15.14-18.4-.29.5-.75c3.87-6 11.42-11.52 11.74-11.76l.59.81c-.07.05-7.07 5.21-11 10.73l16.16.26c1.66-1.5 16.09-14.5 31.39-14.73h1.55l-1.25.92c-.11.09-11.37 8.55-17.66 18.66a95 95 0 0125.88-2 40.43 40.43 0 019.05-10l.6.8a40.48 40.48 0 00-9 10l-.15.26h-.3c-16.43-.84-26.94 2.21-27.05 2.24z"/></g><path class="cls-7" d="M208.63 25.9l-4.11 6.1 12.75.31s11.67-11.35 8-17.59c0 0 3.1-3.68-.3-5.95s-15-3-23.25 4.82A135.32 135.32 0 00189.78 26l8.78-.28 4.26-6"/><path class="cls-6" d="M217.47 32.76l-13.88-.33L208 25.9l-6.95-.27 4.82-7.58.84.53-3.89 6.12 4.74.18 3.67-6.14.86.51-3.83 6.42.75.51-3.59 5.29 11.62.28c1.32-1.33 11-11.36 7.73-16.82l-.18-.31.23-.27a5 5 0 001.18-3.29 2.82 2.82 0 00-1.35-1.92c-3.09-2.07-14.52-2.93-22.65 4.76a156.81 156.81 0 00-11.16 11.58l7.43-.24 4.11-5.8.82.57-4.4 6.21-10.11.33.67-.85a137.28 137.28 0 0112-12.52c8.32-7.91 20.13-7.37 23.86-4.88a3.75 3.75 0 011.78 2.62 5.69 5.69 0 01-1.16 3.8c3.36 6.54-7.73 17.43-8.21 17.9z"/><path class="cls-7" d="M211.48 54.93a74 74 0 00-10.36 6.23l-8.48-2.27a44.76 44.76 0 0120.66-12.75c12.76-3.4 15.6-4.82 15.6-4.82a13.35 13.35 0 0113-2.84 49.75 49.75 0 009.36 2c6.24.85 6.22 5.67 3.82 7.37a8.39 8.39 0 01-4.39 1.69s5.1 3.13 1.42 6.81-17 12.76-17 12.76L220.67 66l11.06-7.09"/><path class="cls-6" d="M280.08 122.37l-8.51-1.89 8.93-5.88.54.84-7 4.58 5.67 1.26 4.06-4.06.7.7zm-63.72-2.12l-.38-.13c-3.87-1.29-14.76-2.32-14.87-2.33l-.85-.09 6-8.64.82.58-5.06 7.23c2.58.27 10.28 1.11 13.85 2.18l3.77-6.27.86.51zm53-6.7h-6.18v-1H269l4.11-3.85.68.73zM201 111.07l-.33-.11a49.93 49.93 0 00-11.94-2h-1.25l8.23-7.35.67.74-6.4 5.72a49.16 49.16 0 0110.68 1.83l5.3-6.53.78.63zm-17.1-3.42l-.27-.09c-4.82-1.68-16.41-2.24-16.52-2.25h-1.07l.72-.78c3.06-3.35 6.38-5.61 10.23-8.23A117.41 117.41 0 00190.31 86c9.16-8.22 9.54-21.43 9.48-24.69l-8-2.16.51-.6a45.86 45.86 0 0120.93-12.92c11.51-3.07 14.94-4.53 15.43-4.75A14 14 0 01242.08 38a50.75 50.75 0 009.28 2c3.06.42 5.11 1.86 5.62 4a4.13 4.13 0 01-1.58 4.32 10.25 10.25 0 01-3.43 1.6 5.56 5.56 0 012 3.31 4.23 4.23 0 01-1.46 3.54c-3.67 3.67-16.51 12.44-17.05 12.81l-.18.12-15.88-3.42 11.54-7.39a21.47 21.47 0 00-5.31-1.23l-11.93 6.93-9.79-1.95 7.29-5.49.6.8-5.52 4.05 7.22 1.45 11.88-6.9h.16c.88.08 8.65.86 9 4.54l-1 .08a2.61 2.61 0 00-1.54-1.84l-10 6.42 13.08 2.81c1.59-1.08 13.36-9.19 16.74-12.57a3.31 3.31 0 001.18-2.71c-.22-1.9-2.48-3.31-2.5-3.32l-1.5-.91h1.74a8 8 0 004.1-1.6 3.12 3.12 0 001.16-3.28c-.41-1.68-2.15-2.85-4.79-3.21a49.14 49.14 0 01-9.46-2 12.91 12.91 0 00-12.51 2.72l-.13.1c-.12 0-3 1.47-15.69 4.85a44.84 44.84 0 00-19.87 12l7.08 1.9h.12l.24.07a74.58 74.58 0 0110.25-6.14l.44.89a74.86 74.86 0 00-10.28 6.19l-.2.15-.43-.12c0 3.83-.61 16.92-9.81 25.17a117.76 117.76 0 01-13.46 10.32 57.8 57.8 0 00-9.32 7.29c3 .18 11.24.78 15.46 2.15l7.77-6.34.63.77zm-14-14.59l-.48-.87c.15-.08 14.76-8.13 14.76-15.15 0-3.52-1.26-5.88-3.55-6.65l.31-1c2.7.9 4.24 3.67 4.24 7.6-.01 7.66-14.66 15.73-15.29 16.07zm2.57-17.59c-2.51-7.23 2.46-13 9.34-21 1.35-1.57 2.75-3.2 4.19-4.95 8.5-10.32 4.22-23.33 4.18-23.46l1-.32c0 .14 4.5 13.66-4.36 24.42-1.45 1.76-2.85 3.39-4.2 5-6.66 7.74-11.47 13.34-9.15 20zM57.61 29l-.42-.91c16.3-7.49 23.24-18.94 23.31-19l.86.51c-.07.08-7.15 11.79-23.75 19.4zM296.36 109.92s-3.12 2.38-4.82-1.22 2.53-4.86 4.25-3.6-.31 4.64-2.14 3.6c0 0 .15 1.52 2.71 1.22z"/><path class="cls-6" d="M229.79 413.13c-10.37-9.16-29.34-22.82-29.53-23l.58-.81c.19.14 19.21 13.83 29.61 23zm-16.41-15.28l-.74-1.19c0-.06-4-6.31-14.17-14.29l.62-.79c7.95 6.23 12.09 11.33 13.66 13.48a150 150 0 015.39-22.52 51.36 51.36 0 00-11.09-8.91l.49-.87a51.78 51.78 0 0111.54 9.33l.2.21-.1.28a146.88 146.88 0 00-5.62 23.88zm6.81-30.24l-12.89-11.84.7-.77 11.79 10.83a145.58 145.58 0 019.06-18.83c-6.35-5.83-14.34-11.7-14.42-11.76l.59-.81c.08.06 8.37 6.14 14.81 12.1l.29.28-.2.34a142.71 142.71 0 00-9.48 19.75zm332.08-24.25c-6.74 0-12.52-.2-13-.22v-1c.23 0 23.43.82 31.71-.8l11.22-17.11.84.54-11.45 17.47h-.21c-4.13.9-12.13 1.12-19.11 1.12zm-319.81-.7l-12.79-9.52.6-.8 11.91 8.87 14-22.57.85.53zm383.3-1.5c-10.6-1.39-35.38-.3-35.63-.29l-1 .05 12-17 .82.57-10.85 15.34c4.81-.19 25.34-.9 34.79.34zM239.9 309c-20.15-21.23-30-30.37-30.12-30.46l.68-.73c.09.09 10 9.24 30.17 30.51zm278.91-35h-27.12v-1h26.7L533 258.1l.71.7zm39.37-1.49l12.22-12.12.71.7-10.45 10.37c3.45-.1 13.06-.48 16.43-1.83 4.1-1.64 13.61-11.75 13.71-11.85l.73.68c-.4.43-9.76 10.38-14.07 12.1s-17.48 1.92-18 1.93zm-14.77-.51a135.54 135.54 0 01-14.1-.82l-1.07-.13L541 259.22l.68.73-11.13 10.31c3.29.34 13.37 1.23 20.76.27L565 258.84l.65.76-14 11.88h-.15a62.35 62.35 0 01-8.09.52zm-292.53-2l-10.95-9.92.67-.74 11 9.92zm4.75-3.62l-.39-.2a96.19 96.19 0 01-15-10l.64-.76a93 93 0 0014.41 9.65 44.15 44.15 0 0112.8-11.69c-7-3.12-15.88-10.34-16.27-10.66l.63-.77c.1.08 10 8.12 17 10.91l1 .41-1 .5A42 42 0 00255.88 266zm15.85-14.58l-.29-.15c-.1 0-10.8-5.42-17.87-13.57l.76-.65c6.3 7.26 15.56 12.28 17.28 13.18 3.31-2.5 9.44-3.54 11.8-3.86-6.6-7.4-15.55-16.36-15.64-16.45l.71-.71c.09.1 9.65 9.66 16.32 17.21l.64.73-1 .09c-.09 0-8.75.92-12.49 4zm19.23-4.67l-12.93-14.37.74-.67 12.58 14a201.44 201.44 0 0129.24-1v1a203.37 203.37 0 00-29.34 1.02zM223.94 198l.23-.67a53.24 53.24 0 017.75-13.4l.8.61a56.79 56.79 0 00-7.34 12.46l15.91-.14c1.53-4.27 6-10.17 6.22-10.42l.8.61c-.05.06-4.84 6.34-6.18 10.46l-.11.34zm-17.23-1.17v-1l13.49-.05a30.91 30.91 0 015.86-9.4l.73.69a30.2 30.2 0 00-5.77 9.37l-.12.33zm433.57-43.62h-.15c-11.74-1.68-29.54-2.54-29.71-2.55l-1.42-.06 13.32-9.82.59.8-11.06 8.16c4.43.24 18.4 1.07 28.26 2.46a32.1 32.1 0 009.16-6.89l.76.65a32.88 32.88 0 01-9.62 7.21zm-39-4.54h-.2a228.18 228.18 0 00-31.11-1.43l-1.3.05 14-13.65.7.72-12.12 11.85a234.34 234.34 0 0129.77 1.45 125.47 125.47 0 0011.13-10l.71.7a122 122 0 01-11.4 10.26zm-38.48-1.95l-.3-.06c-5.26-1.11-18-1.68-18.08-1.69v-1c.52 0 12.47.56 18 1.65 1.22-1.42 8-9.11 15.5-13.49l.51.87c-8 4.71-15.37 13.4-15.44 13.49zm-284.58-31.58l-7.68-1.25 5-5.17.72.69-3.71 3.8 5.28.86 3.39-3.32.7.72zm-134.39-2.72l-16.53-.76 4.64-11.16.92.38-4.09 9.84 15.11.71zm150.33-1.23a2.92 2.92 0 01-.71-.08 3.62 3.62 0 01-2.36-2.2 3.09 3.09 0 01.58-4 3.87 3.87 0 014.42-.27 2.48 2.48 0 01.33 3.43 2.7 2.7 0 01-1.56 1.21 3.44 3.44 0 001.44.09l1.81-.21-1.45 1.1a4.47 4.47 0 01-2.5.93zm0-6.07a3 3 0 00-1.84.61c-.76.63-.87 1.58-.32 2.76a2.7 2.7 0 001.69 1.64 1.89 1.89 0 00.62.06 2.09 2.09 0 01-.47-.3 1.72 1.72 0 01-.67-1.14l-.09-1 .83.47c.67.38 1.32-.13 1.68-.68a1.54 1.54 0 00-.08-2.08 2.36 2.36 0 00-1.36-.34z"/><path class="cls-15" d="M468.92 343.36h-1c.82-64.81 17.05-80.37 17.74-81l.68.73c-.17.15-16.6 16.02-17.42 80.27z"/><path class="cls-14" d="M474.59 338.4h-1c.82-34.84 7.91-52.17 8-52.34l.92.39c-.09.15-7.1 17.32-7.92 51.95zm-11.34-4.61h-1a165.21 165.21 0 017.4-47.86l1 .32a163.85 163.85 0 00-7.4 47.54z"/><path class="cls-15" d="M439 366.18c-.88-28.81 3.73-49.61 7.76-62 4.37-13.43 9-20.14 9.08-20.21l.82.58c-.19.26-18.34 26.78-16.66 81.58z"/><path class="cls-14" d="M433.91 360.2c-1.13-45.31 11.86-65.22 12-65.41l.83.56c-.13.19-12.94 19.88-11.82 64.82zm12-8.2h-1c0-26.44 11-54.58 11.14-54.86l.93.36c-.11.28-11.07 28.26-11.07 54.5z"/><path class="cls-15" d="M415.06 348.38l-1-.1c2.64-26.56 8.53-44.93 13-55.66 4.86-11.65 9-16.94 9.21-17.16l.79.63c-.16.21-16.97 21.77-22 72.29z"/><g class="cls-2"><path class="cls-14" d="M288.92 429.14l-1-.05c1.13-26.43 9.5-38.9 9.59-39l.82.56c-.08.1-8.33 12.35-9.41 38.49zm121.6-92.93l-1-.17c7.93-45.89 17.92-54.1 18.34-54.42l.61.79-.3-.4.31.39c-.09.08-10.12 8.48-17.96 53.81zm12.56-2.35l-1-.08c1.61-21 11.77-43.53 11.87-43.75l.91.41c-.1.22-10.18 22.56-11.78 43.42z"/><path class="cls-15" d="M283.84 429.13l-1-.06c1.4-24.77 6.8-34.73 7-35.14l.88.48c-.02.1-5.48 10.21-6.88 34.72z"/><path class="cls-14" d="M278.72 430.23h-1c0-16.33 3.2-26.14 3.23-26.23l.95.31c-.03.1-3.18 9.77-3.18 25.92z"/><path class="cls-15" d="M264.83 430.23h-1c0-23.68 9-38.18 9.06-38.33l.85.53c-.09.15-8.91 14.43-8.91 37.8z"/><path class="cls-14" d="M259.75 429.1h-1c.26-24.2 6.05-32.27 6.29-32.6l.81.59c-.06.07-5.85 8.2-6.1 32.01z"/><path class="cls-6" d="M226.36 431.08l-.75-.66 10-11.55.75.65zm478.28-326.25l-.18-1c.15 0 15-2.61 27.63-2.09a85 85 0 0111-11.75l.66.75a83.49 83.49 0 00-11 11.81l-.16.21h-.26c-12.57-.55-27.54 2.04-27.69 2.07zm30.8-2.4l1.1-1.09c5.91-5.89 12.11-11.65 12.17-11.71l.68.73c-.06.06-5.52 5.14-11.08 10.63a168.86 168.86 0 0117-1.49v1a169.22 169.22 0 00-18.31 1.69zm0-69.82c-4.22 0-9.39-.41-10.25-.48l-1-.08.63-.74a115.61 115.61 0 0110.55-10l.64.77a127.46 127.46 0 00-9.78 9.18c4.13.3 12.45.74 14.06 0 2.19-1.05 12-8.88 12.1-9l.62.78c-.41.33-10 8-12.29 9.08a16.5 16.5 0 01-5.27.49zm-18.47-1l-25.65-1.49.65-.77a84.81 84.81 0 0115.7-13.7l.54.84a85.36 85.36 0 00-14.81 12.77l23.1 1.34a34.73 34.73 0 0111.36-9.4l.43.9a34.31 34.31 0 00-11.15 9.31zm-30.29-3.42H671.1v-1h15.35c.9-1.1 5.64-6.47 16.45-12.13l.46.89c-11.64 6.1-16.23 12-16.27 12l-.15.19zm-28.14-10.42l-.28-.05a114.26 114.26 0 00-15.51-1.55h-1.32l1-.87a163.27 163.27 0 0117.26-12.93A36.32 36.32 0 00651.42 1l-14.19 10.79-10.39-1 9.91-9 .67.74-8.23 7.47 7.75.73L651.09 0h.17a39.11 39.11 0 019.79 1.72l1 .33-.92.57a162.23 162.23 0 00-17.08 12.57 122.84 122.84 0 0114.07 1.49c5.29-6.26 8.39-7.51 8.52-7.56l.36.93-.18-.46.18.46s-3.1 1.29-8.3 7.5zm-35.26-8.29l-.28-.15a27.87 27.87 0 00-13.9-2.08l-1.72.17 13-10.15.61.79-10.36 8.07a28.7 28.7 0 0112.48 2.16c3.9-3.43 8.81-7 8.86-7.06l.59.81s-5.13 3.75-9 7.22zm-20.39-5.57l-.21-.05A154.94 154.94 0 00584.1 1l.07-1a153.06 153.06 0 0118.51 2.82L611-2.75l.56.83z"/></g><path class="cls-16" d="M337.62 387.21a59.44 59.44 0 10-59.45-59.44 59.44 59.44 0 0059.45 59.44z"/><path class="cls-6" d="M337.62 388.21a60.44 60.44 0 1160.44-60.44 60.51 60.51 0 01-60.44 60.44zm0-118.88a58.44 58.44 0 1058.44 58.44 58.51 58.51 0 00-58.44-58.44z"/><path class="cls-17" d="M337.62 387.21a59.44 59.44 0 1159.44-59.44 59.51 59.51 0 01-59.44 59.44zm0-117.88a58.44 58.44 0 1058.44 58.44 58.51 58.51 0 00-58.44-58.44z"/><g class="cls-2"><path class="cls-18" d="M314.79 432.5a39.59 39.59 0 018.78-24.38c9.38-11.72 12.48-15.87 12.48-15.87l3.87-6.77s-7.25-5.67-9.74-10.72c-.58-1.17-1.18-4.07-2-5a84.87 84.87 0 00-12.8-11.51l-9.33-13-.41-17.42 6.34-9.13 21-1.61 23.52 15 17.48 28.2 21.64 15.89 7.09 4a17.91 17.91 0 008.24 4.82c5.67 1.71 14.24 7.5 15.9 16.36s.49 20.21.49 20.21l.31 9.63-112.86 1.3z"/><path class="cls-19" d="M314.31 433v-.49a40.51 40.51 0 018.89-24.71c9.26-11.58 12.43-15.82 12.46-15.86l3.64-6.35c-1.49-1.2-7.32-6.1-9.55-10.62A16.42 16.42 0 01329 373a10.48 10.48 0 00-1.25-3 85.86 85.86 0 00-12.71-11.44l-.12-.12-9.42-13.16-.42-17.74 6.57-9.46 21.37-1.64.15.09 23.62 15 17.49 28.21 21.56 15.84 7.17 4.05a17.77 17.77 0 008 4.66c5.58 1.69 14.52 7.55 16.24 16.75 1.65 8.83.51 20.23.5 20.35l.33 10.08h-.51zm1.4-75.14a87.76 87.76 0 0112.82 11.54 10.58 10.58 0 011.45 3.32 15.9 15.9 0 00.65 1.81c2.41 4.88 9.53 10.49 9.6 10.54l.34.27-4.09 7.15c-.06.09-3.24 4.34-12.52 15.93a39.94 39.94 0 00-8.68 23.58l111.81-1.4-.3-9.13c0-.18 1.14-11.44-.48-20.12s-10.2-14.36-15.55-16a18.66 18.66 0 01-8.42-4.91l-7-3.92-21.82-16.07-17.42-28.1-23.3-14.81-20.57 1.58-6.11 8.8.4 17.11z"/></g><path class="cls-20" d="M321.3 362.2s-4.84 0-12.18-8.79-8.51-11.86-8.51-17.2a62 62 0 011.14-10.86s.21-7.45 3.36-11c0 0 4.05-7.92 9.42-11.07s9.33-7.67 15.56-7.67 12.48 1.72 18.43 1.72 10.49 3.1 12.19 6.52 1.42 5.67 3.68 5.67 4 2.08 4.54 4.82a33.73 33.73 0 01.49 6.23 15.23 15.23 0 012.63 7.24c.28 4.1 1.18 9.22-.83 13.47a24.71 24.71 0 01.54 7.92s3.17 4.84 5.13 7.94a20.79 20.79 0 009.92 8.23c4.51 1.69 4.2 4.15 7.06 6.79s3.17 3.4 7.11 4.25 4.44 2.27 6.5 4a5.35 5.35 0 011.13 6.24s.05-2.55-3.38-2.55-5.4-4.25-5.4-4.25-3.69 1.15-6.53-.27a19.25 19.25 0 01-5.38-4.75 15 15 0 010 7.58c-1.13 3.67-.57 5.66 1.13 7.36s2 3 1.42 4.47-1.13 2.9.57 4.31a3.51 3.51 0 01-3.12-3.68c0-3.4-3.12-.85-5.1-4s-1.42-5.38-1.42-8.22-3.4-5.1-9.92-9.64-8.51-13.6-9.64-18.14-3.82-9.16-5.39-13.89c0 0-3.11-3.24-8.5-8.2s-4.82-6-8.79-6.82-3.08-3.12-6.52-3.69-7.37 1.14-12.75 2.27-11.62 1.7-11.62 1.7a82.93 82.93 0 00-.57 11.91A27.14 27.14 0 00312 352c3.12 5.1 9.35 10.2 9.35 10.2z"/><path class="cls-21" d="M392.59 399.13L391 399a4 4 0 01-3.57-4.18c0-1.36-.45-1.44-1.55-1.62a4.49 4.49 0 01-3.47-2.08c-1.7-2.67-1.62-4.76-1.54-7v-1.51c0-2.48-3.22-4.72-9.07-8.79l-.64-.44c-6.38-4.43-8.52-13.12-9.67-17.78l-.16-.65a50.47 50.47 0 00-2.9-7.69c-.87-2-1.76-4-2.44-6.05-.52-.53-3.56-3.64-8.41-8.11-1.75-1.61-2.89-2.83-3.73-3.72-1.76-1.87-2.29-2.43-4.82-3a6.27 6.27 0 01-3.76-2.15 4.17 4.17 0 00-2.74-1.53c-2.27-.38-4.78.28-7.95 1.13-1.45.38-2.95.78-4.62 1.13-4.57 1-9.8 1.52-11.27 1.67a81.06 81.06 0 00-.52 11.42 26.7 26.7 0 004.18 13.66c3 5 9.18 10 9.24 10.07l1.09.89h-1.4c-.21 0-5.17-.1-12.58-9s-8.62-12-8.62-17.52a63.24 63.24 0 011.15-11c0-.22.24-7.52 3.43-11.22.41-.78 4.33-8.14 9.58-11.22 1.47-.87 2.85-1.85 4.19-2.79 3.58-2.55 7-4.95 11.63-4.95a68 68 0 019.5.88 65.41 65.41 0 008.93.84c6.39 0 11 3.41 12.63 6.79a24.17 24.17 0 011.2 2.95c.64 1.82.92 2.45 2 2.45 2.4 0 4.37 2 5 5.21a33.13 33.13 0 01.5 6.18 15.63 15.63 0 012.62 7.37c0 .63.11 1.29.17 2 .33 3.71.7 7.91-1 11.59a24.36 24.36 0 01.54 7.75c.57.86 3.29 5 5 7.78a20.41 20.41 0 009.67 8 9 9 0 015.06 4.2 13.84 13.84 0 002.17 2.69l1.07 1a9.28 9.28 0 005.81 3.13 9.34 9.34 0 015.46 2.92c.38.37.77.75 1.25 1.15a5.87 5.87 0 011.22 6.91l-.94 1.3v-1.6a2 2 0 00-.57-1.3 3.17 3.17 0 00-2.31-.74c-3.1 0-5.06-3.07-5.66-4.17a10 10 0 01-6.49-.41 16.5 16.5 0 01-4.31-3.43 14.29 14.29 0 01-.37 6c-1.15 3.71-.43 5.42 1 6.85 1.74 1.75 2.2 3.25 1.53 5-.58 1.52-1 2.58.42 3.75zm-61.38-77.51a9.54 9.54 0 011.52.12 5 5 0 013.29 1.84 5.35 5.35 0 003.25 1.85c2.84.61 3.52 1.33 5.34 3.27.82.87 1.95 2.08 3.68 3.67 5.33 4.92 8.49 8.19 8.53 8.23l.11.18c.67 2 1.57 4.09 2.44 6.07a52.28 52.28 0 013 7.86l.16.65c1.12 4.53 3.21 13 9.27 17.2l.64.44c6.32 4.4 9.5 6.61 9.5 9.61v1.55c-.08 2.14-.15 4 1.38 6.4a3.49 3.49 0 002.8 1.63c1.11.19 2.38.4 2.38 2.61a3 3 0 001.17 2.6 4.56 4.56 0 01.33-3.4c.45-1.19.4-2.3-1.29-4-2-2-2.37-4.27-1.26-7.86a14.49 14.49 0 000-7.29l.88-.44a18.72 18.72 0 005.21 4.6c2.62 1.31 6.11.25 6.15.24l.41-.13.19.39s1.89 4 5 4a4.1 4.1 0 013 1.05 2.81 2.81 0 01.35.44 4.92 4.92 0 00-1.46-4.29c-.51-.42-.92-.82-1.31-1.2a8.43 8.43 0 00-5-2.67 10.18 10.18 0 01-6.29-3.37l-1.06-1a14.73 14.73 0 01-2.32-2.87 8.22 8.22 0 00-4.58-3.82 21.41 21.41 0 01-10.17-8.43c-1.93-3.07-5.08-7.89-5.12-7.94l-.1-.16v-.19a24.16 24.16 0 00-.54-7.72v-.17l.08-.16c1.63-3.47 1.27-7.59.94-11.23-.06-.69-.12-1.35-.16-2a14.82 14.82 0 00-2.53-7l-.11-.14v-.17a32.76 32.76 0 00-.48-6.12c-.56-2.69-2.15-4.42-4.05-4.42s-2.37-1.38-3-3.12a23.45 23.45 0 00-1.15-2.83c-1.55-3.11-5.78-6.24-11.74-6.24a66.38 66.38 0 01-9.07-.85 68.14 68.14 0 00-9.36-.87c-4.34 0-7.6 2.31-11 4.76-1.35 1-2.75 2-4.26 2.84-5.17 3-9.18 10.79-9.22 10.87l-.07.1c-3 3.41-3.24 10.65-3.24 10.72a62.37 62.37 0 00-1.14 10.85c0 5.22 1.16 8.23 8.39 16.88 4.38 5.25 7.86 7.3 9.87 8.1a45.74 45.74 0 01-7.85-8.93 27.54 27.54 0 01-4.32-14.12 85.49 85.49 0 01.57-12l.05-.4h.4a114.69 114.69 0 0011.55-1.69c1.64-.35 3.13-.74 4.56-1.12a28.3 28.3 0 016.86-1.26z"/><path class="cls-6" d="M295.51 213.31a201.21 201.21 0 00-25.32-21.91l.57-.82a202.25 202.25 0 0125.46 22z"/><path class="cls-17" d="M294.3 367.93l-.41-.91 20.13-9 .4.91zm-2-2.37l-.41-.91 19.57-8.84.41.91zm80.15-26.65l-.25-1 24.08-6.24.25 1zm-92.93-2l-.33-.94 22-7.69.33.94zm92.93-1.72l-.25-1 24-6.22.25 1zm-9.89-26.94l-.3-.95 26.74-8.47.31.95zm-51.08-2.86l-8.65-24.93.95-.33 8.64 24.93zm2.57-2l-8.81-24.92.95-.33 8.81 24.93zm28.88-6l-8.07-28.32 1-.27 8.08 28.31z"/><path class="cls-19" d="M329.16 365.83c-1.61 0-4.49-5.23-5.35-7.59a42.24 42.24 0 00-3.63-8c-1.15-1.64-1.83-2.08-3.4-1.25a4 4 0 00-2.34 2.74l-1-.1a4.93 4.93 0 012.87-3.52c2.43-1.28 3.6 0 4.69 1.55 1.49 2.14 3.25 6.86 3.75 8.26 1.16 3.22 3.75 6.78 4.4 6.93.8-.25.94-.69 1.18-1.41a4.3 4.3 0 01.88-1.69 2.54 2.54 0 011-.58c.69-.27.72-.34.6-.71s-.34-.5-.49-.53a.8.8 0 00-.33 0l-.3-1a1.8 1.8 0 01.83 0 1.64 1.64 0 011.24 1.21c.42 1.3-.62 1.72-1.17 1.94a1.91 1.91 0 00-.58.31 3.41 3.41 0 00-.68 1.34 2.62 2.62 0 01-1.93 2.07.63.63 0 01-.24.03zm-5.58-21.1l-.87-.49a13 13 0 014.43-4.09 6.16 6.16 0 016.49 0l-.56.83a5.18 5.18 0 00-5.41 0 12.21 12.21 0 00-4.08 3.75z"/><path class="cls-21" d="M316.45 356l-.92-.39a4.56 4.56 0 013.38-2.86l.12 1-.06-.5.06.5a3.55 3.55 0 00-2.58 2.25zm10.91-7.65l-.92-.4c.06-.13 1.48-3.28 7.41-2.75l-.09 1c-5.15-.52-6.35 1.99-6.4 2.1z"/><path class="cls-19" d="M332 368.22h-1V366h.49a5.2 5.2 0 003.41-1.81l.1-.19h.18a19.79 19.79 0 002.88-.7l.35.94a19.69 19.69 0 01-2.9.72 6.14 6.14 0 01-3.53 2zm14.64-.29h-1c0-2.6-3.72-5.91-5.13-5.93a38.56 38.56 0 00-6 1.14l-.26-1a39.33 39.33 0 016.25-1.17c2.03.03 6.13 3.88 6.13 6.96zm-26-8.28l-.91-.42a8.17 8.17 0 00.74-3.57 4.94 4.94 0 01-2.28 2.89l-.52-.85a3.67 3.67 0 001.93-2.85h1v.06l.78-.17a8.49 8.49 0 01-.75 4.91zm12.3-7.32a5.91 5.91 0 01-4.09-1.73 5.07 5.07 0 01-.7-.15l.32-.95-.16.47.16-.47c.12 0 3 .93 5.51-2l.76.65a6.78 6.78 0 01-4.37 2.47c1.05.68 3.07 1.4 5.7-.3l.55.84a6.78 6.78 0 01-3.69 1.17z"/><path class="cls-22" d="M333 368.79l-.28-1a6.24 6.24 0 003.38-2.73l.88.48a7.15 7.15 0 01-3.98 3.25z"/><path class="cls-19" d="M362.73 413.21a28.33 28.33 0 01-8-1.21l.31-.95c.14.05 14 4.59 19.41-4.6l.86.51c-2.94 5.04-8.14 6.25-12.58 6.25zm-7.61-8.73a35 35 0 01-7-.69l.21-1c.15 0 15.22 3.24 21.61-5.18l.11-.16h.2c.06 0 6.58-1.22 7.24-5.35l1 .16c-.72 4.44-6.68 5.89-7.86 6.14-3.9 4.97-10.47 6.08-15.51 6.08zm-.76-9.31a14.26 14.26 0 01-8.13-2.24l.6-.8s3.59 2.61 9.57 1.92a16.67 16.67 0 009.87-5.24l.15-.18h.23c.06 0 5.59-.05 8.24-4.28l.84.53c-2.65 4.25-7.69 4.7-8.85 4.74a17.3 17.3 0 01-10.37 5.38 18.07 18.07 0 01-2.15.17z"/><path class="cls-21" d="M387.85 375.09c-1.5-1.75-2.36-2.06-4.43-2.81a62.29 62.29 0 01-8.18-3.61c-9.17-4.78-15.55-18.62-15.82-19.21l.91-.41c.07.14 6.51 14.12 15.37 18.73a59.1 59.1 0 008.06 3.56 9.09 9.09 0 014.85 3.1z"/><g class="cls-2"><path class="cls-23" d="M759.68 371.02l-44.51-15.85 20.06-97.41 26.58.58-2.13 112.68z"/><path class="cls-6" d="M760.17 371.72l-45.58-16.22 20.24-98.25 27.49.6v.5zm-44.42-16.87l43.45 15.46 2.1-111.48-25.66-.56z"/></g><path class="cls-19" d="M352.9 347.34a6.38 6.38 0 01-1.06-.08l.16-1s2.64.39 3.84-.92c.63-.69.77-1.79.41-3.26l1-.24c.45 1.82.23 3.22-.65 4.18a5 5 0 01-3.7 1.32z"/><path class="cls-16" d="M160.69 222.9a57.63 57.63 0 10-57.63-57.63 57.63 57.63 0 0057.63 57.63z"/><path class="cls-6" d="M160.69 223.9a58.63 58.63 0 1158.63-58.63 58.69 58.69 0 01-58.63 58.63zm0-115.26a56.63 56.63 0 1056.63 56.63 56.7 56.7 0 00-56.63-56.63z"/><path class="cls-18" d="M185.81 181.21l2.69-10.49-8.93-10.35-31.89 1.56-25.68 23.4-20.27 17-3.12 19.13 26 37.9 5.79-5 4.82-30.94s12.19 4 17.86-1.21 7.79-10.08 10.34-13.91 4.54-5.91 5.82-8.08 4.53-3.26 6.8-5.1S185 184 185 184l.85-2.75z"/><path class="cls-19" d="M124.51 260.1l-26.39-38.52 3.18-19.52.14-.12 20.27-17 25.77-23.51 32.31-1.58 9.26 10.73-2.76 10.77-.92 2.89c-.28.38-6.73 9.37-9 11.24a24.73 24.73 0 01-2.86 1.88c-1.59.94-3.1 1.83-3.83 3.08a35.05 35.05 0 01-2.48 3.49c-1 1.28-2.09 2.73-3.35 4.62-.6.9-1.18 1.86-1.79 2.87a46.28 46.28 0 01-8.63 11.12c-5.18 4.81-15.28 2.24-17.79 1.5l-4.76 30.55zm-25.34-38.76l25.53 37.27 5.23-4.53 4.88-31.34.56.19c.12 0 12 3.89 17.36-1.11a45.17 45.17 0 008.45-10.91c.62-1 1.21-2 1.82-2.91 1.28-1.92 2.4-3.38 3.39-4.66a35.93 35.93 0 002.4-3.39c.87-1.48 2.48-2.43 4.19-3.44a23 23 0 002.73-1.8c2.1-1.7 8.19-10.14 8.8-11l.82-2.67 2.67-10.19-8.6-10-31.46 1.53-25.57 23.32-20.14 16.89z"/><g class="cls-2"><path class="cls-12" d="M-6.66 250.8s23.81-22.39 41.1-32 45.05-24.27 65.48-27.16c0 0 7.37 13.84 5.67 19.79s-3 7.93-3 7.93 3.88-.28 9 6 12.8 12.7 14.48 32.6c0 0 4.23-10.28 5.08-19.28s1.11-14.74 5.1-17.57a156.76 156.76 0 014 30.78c.26 15.7.5 17.4.5 17.4a21.28 21.28 0 016.28 6.24c2.84 4.25 4 4 6.52 7.09a22.38 22.38 0 006.68 5.1s5.8-2.13 17.42 2.13 14.74 7.22 20.69 6.94 12.76.57 16.16 7.37-10.5 26.01-22.17 33.1-24.05 9.1-35.13 5.4-12.78-4.55-12.78-4.55 8.51 6.23 6 19-5.7 19.2-9.36 23.21c0 0 24.38 14.49 27.78 49.07l-171.75 1.7-3.75-180.29z"/><path class="cls-9" d="M-3.44 431.59l-3.73-181 .16-.16c.24-.22 24.06-22.54 41.21-32.1C52.71 208 79.65 194 99.85 191.11l.35-.05.16.31c.31.58 7.45 14.09 5.71 20.16a41.26 41.26 0 01-2.7 7.37c1.47.25 4.69 1.34 8.56 6.07.61.75 1.25 1.49 1.92 2.27 4.78 5.52 10.68 12.34 12.46 28.48 1.25-3.41 3.68-10.66 4.29-17.16l.17-1.78c.74-8.05 1.23-13.38 5.14-16.15l.6-.43.18.72a157.82 157.82 0 014 30.89c.22 12.86.42 16.3.48 17.12a22 22 0 016.22 6.25 18.31 18.31 0 003.76 4.3 20.15 20.15 0 012.73 2.75 21.76 21.76 0 006.33 4.88c1.17-.34 7-1.67 17.55 2.2 4.14 1.51 7.22 2.87 9.69 4 4.57 2 7.08 3.12 10.81 3 5.37-.26 12.93.26 16.63 7.65 1.66 3.32-.33 9.51-5.46 17-4.78 7-11.23 13.41-16.84 16.83-11.84 7.22-24.46 9.16-35.55 5.45-5.41-1.81-8.59-2.94-10.44-3.62a18.76 18.76 0 012.19 3.06 20.7 20.7 0 012.08 14.63c-2.25 11.22-5.06 18.35-9.09 23 3.54 2.35 24.41 17.47 27.52 49.13v.55h-.54zM-6.16 251l3.7 179.57 170.71-1.69c-3.54-33.53-27.24-48-27.48-48.15l-.53-.32.41-.45c4.11-4.49 7-11.58 9.24-23 2.45-12.27-5.68-18.43-5.76-18.49l.51-.85c.08 0 1.89.91 12.72 4.52s23.13 1.71 34.71-5.35c13.28-8.1 24.75-26.86 21.92-32.52-3.43-6.86-10.59-7.33-15.68-7.09-4 .2-6.71-1-11.26-3-2.46-1.09-5.53-2.44-9.63-3.94-11.27-4.13-17-2.15-17.08-2.13l-.2.07-.19-.09a22.69 22.69 0 01-6.84-5.24 20.18 20.18 0 00-2.61-2.63 18.7 18.7 0 01-3.94-4.49 20.81 20.81 0 00-6.12-6.08l-.21-.12v-.25c0-.07-.25-1.91-.51-17.47a157.81 157.81 0 00-3.79-29.9c-3 2.65-3.46 7.63-4.14 15l-.16 1.78c-.85 9-5.07 19.31-5.12 19.42l-1-.15c-1.46-17.35-7.54-24.39-12.42-30-.68-.78-1.33-1.54-1.95-2.29-4.83-5.91-8.53-5.77-8.56-5.77l-1 .06.55-.83s1.32-2 3-7.8c1.49-5.21-4.41-17-5.47-19.11-20 2.95-46.62 16.84-65 27C18.39 228.29-4 249-6.16 251z"/><path class="cls-16" d="M705.54 256.68a59.6 59.6 0 10-59.54-59.6 59.6 59.6 0 0059.59 59.6z"/><path class="cls-6" d="M705.54 257.68a60.6 60.6 0 1160.6-60.6 60.67 60.67 0 01-60.6 60.6zm0-119.19a58.6 58.6 0 1058.6 58.59 58.65 58.65 0 00-58.6-58.59z"/><path class="cls-22" d="M682.16 247.11s11.31 7.37 32.31-5.66c0 0 11.06 6.56 19.28 8.24s20.41 8.48 20.41 8.48v7.95s-6.9 6-9.48 13.88-5.29 23.52 6.92 37.7v4s-3.4 2.29-6.52 8.23a24.76 24.76 0 00-14.73 7.92l-18.43-9.34-29.76-81.37z"/><path class="cls-19" d="M730.46 338.44l-18.94-9.6-.07-.18-30.28-82.77 1.26.8c.11.08 11.34 7 31.78-5.67l.25-.16.27.16c.11.06 11.07 6.54 19.12 8.18s20 8.25 20.55 8.53l.26.15v8.47l-.18.15c-.06.06-6.82 6-9.32 13.65-2.59 7.94-5.15 23.32 6.82 37.22l.12.14v4.42l-.22.15s-3.34 2.32-6.35 8.05l-.13.24h-.27a24.51 24.51 0 00-14.41 7.75zm-18.14-10.31l17.91 9.07a25.14 25.14 0 0114.54-7.76 24.76 24.76 0 016.33-8v-3.53c-12.15-14.23-9.54-29.93-6.89-38 2.39-7.32 8.33-12.94 9.45-13.94v-7.43c-1.8-1-12.62-6.78-20-8.29-7.61-1.55-17.41-7.12-19.17-8.15-17.3 10.64-28 7.64-31.41 6.12z"/></g><path class="cls-20" d="M667.41 242s6.52-11 11.91-13.32l-1.42 17.86-10.49-4.54z"/><path class="cls-6" d="M678.35 247.28l-11.65-5 .28-.49c.27-.46 6.67-11.23 12.15-13.53l.75-.32zm-10.21-5.5l9.32 4 1.29-16.28c-4.37 2.5-9.36 10.26-10.61 12.28z"/><path class="cls-18" d="M676.49 245.44a50.36 50.36 0 00.56-11.93 36.81 36.81 0 010-8.9s-3.72-.57-6.56-1.13-5.36-4-3.79-7.26a10 10 0 015-4.54s-2.39-1.7-1.2-4a2.94 2.94 0 010-3.4c1.2-2 .29-1.7-.85-2.55s-3-.28-3-1.42 2.83-3.41 5-5.67a13.19 13.19 0 003.91-7.65c.3-2.76-.31-9.33 12.75-15s27.5 13.6 27.5 13.6l-5.1 40.25 3.68 19.59-28.91 5.36-9.07-5.36z"/><path class="cls-19" d="M685.46 251.32l-9.53-5.62.06-.35a50.24 50.24 0 00.57-11.79 39.59 39.59 0 01-.07-8.53c-1.11-.17-3.89-.62-6.1-1.06a6 6 0 01-4.08-3.24 5.26 5.26 0 01-.06-4.73 10.2 10.2 0 014.57-4.46 3.44 3.44 0 01-.86-3.78 3.48 3.48 0 01.15-3.71c.52-.85.49-1.08.48-1.12s-.26-.19-.43-.29a5.52 5.52 0 01-.78-.48 3.27 3.27 0 00-1.45-.47c-.73-.12-1.73-.28-1.73-1.35s1.27-2.25 3.35-4.23c.61-.59 1.24-1.19 1.82-1.79a12.61 12.61 0 003.77-7.36c0-.21 0-.46.06-.72.23-3 .71-9.35 13-14.7 5.52-2.41 12.15-.77 19.16 4.73a55.29 55.29 0 018.94 9l.12.16-5.12 40.38 3.76 20zm-8.46-6.13l8.61 5.08 28.28-5.27-3.61-19.17v-.08l5.08-40c-1.42-1.81-14.85-18.49-26.78-13.29-11.73 5.12-12.16 10.81-12.39 13.86 0 .28 0 .54-.07.77a13.61 13.61 0 01-4 7.94c-.6.61-1.24 1.22-1.85 1.81-1.36 1.29-3 2.9-3 3.51 0 .16.07.23.89.37a4.12 4.12 0 011.89.65 6.05 6.05 0 00.66.41c.39.21.8.43.92.91s0 1-.6 1.89a2.42 2.42 0 000 2.82l.21.26-.15.3c-1 1.84 1 3.27 1 3.32l.76.55-.87.33a9.54 9.54 0 00-4.76 4.28 4.31 4.31 0 00.05 3.85 5.11 5.11 0 003.39 2.71c2.79.55 6.5 1.12 6.54 1.13l.5.07-.08.5a36.14 36.14 0 000 8.77 49.73 49.73 0 01-.62 11.72z"/><path class="cls-7" d="M685.56 249.11s20.29-.62 30.85-11.51l17.05 12s-12.26 17.91-31.18 20.18l-16.72-20.68z"/><path class="cls-19" d="M702.07 270.32l-17.54-21.67h1c.2 0 20.22-.74 30.51-11.36l.3-.31 17.8 12.55-.27.41c-.13.18-12.62 18.12-31.54 20.39zm-15.51-20.76l15.94 19.7c16.75-2.15 28.32-16.9 30.26-19.53l-16.29-11.48c-9.3 9.26-25.73 11.01-29.91 11.31z"/><path class="cls-20" d="M675.64 187.48a17.51 17.51 0 013.4-14.35c5.38-6.83 19-6.83 19-6.83s8.79-2.73 16.16-.5 7.13 4.64 9.94 4.64 6.26 3.81 8.51 7.23a14.76 14.76 0 012.81 8.5c.28 3.4 1.7 4 2.83 8.79s-.28 6.5-.56 9.07-2 3.67-2.84 5.95-.57 4.52-4 7.65a15.06 15.06 0 01-7.37 3.69s.33 2-3.4 2.83-4.37 2.27-3.73 4.54 1.37 2.83 0 5.1c0 0 2.88-.39 4.3 1.86a13.8 13.8 0 011.7 5.21 3.46 3.46 0 013.68.87 8.21 8.21 0 011.7 3.71s3.12-1.7 5.11.07a4 4 0 011.15 4.16s-11.28-.81-16.14-4.23-2-4.61-6.84-7.84-3.15-6.08-4-7.49-2.54-1.7-3.11-4.26-4.25-2.26-2.55-5.66 1.7-4.69 4.11-6 3.09-5.67 1.55-8.22 0-8.22 0-8.22a10.47 10.47 0 01-2.54-5.37c-.57-3.42-.28-6.25-2.83-8.8s-7.66-7.94-8.23-12.19c0 0-17 .74-17.85 16z"/><g class="cls-2"><path class="cls-21" d="M734.4 250.19h-.38c-.47 0-11.48-.85-16.39-4.31a8.69 8.69 0 01-3.61-4.19 7.28 7.28 0 00-3.23-3.65c-3.64-2.45-3.79-4.78-3.89-6.33a3.2 3.2 0 00-.24-1.32 4.78 4.78 0 00-1.07-1.14 5.52 5.52 0 01-2.1-3.26 3.28 3.28 0 00-1.45-1.83c-1-.79-2.26-1.76-1.06-4.17.4-.8.71-1.48 1-2.07.88-2 1.37-3 3.36-4.1a4.11 4.11 0 001.85-2.64 6.52 6.52 0 00-.5-4.88c-1.46-2.4-.42-7.15-.12-8.34a11.08 11.08 0 01-2.48-5.43c-.13-.74-.21-1.45-.29-2.14-.28-2.42-.53-4.51-2.41-6.39-4.88-4.88-7.66-8.91-8.28-12a24.56 24.56 0 00-8 2.22 14.83 14.83 0 00-8.93 13.32l-1 .1a17.9 17.9 0 013.49-14.78c5.33-6.75 18.09-7 19.32-7 .92-.28 9.21-2.64 16.37-.48a21.1 21.1 0 017.22 3.51 3.82 3.82 0 002.58 1.11c3.74 0 7.78 5.7 8.92 7.45a15.27 15.27 0 012.9 8.74 10.21 10.21 0 001.12 3.85 23.36 23.36 0 011.7 4.86 13 13 0 01-.13 7.22 14 14 0 00-.43 2 8.11 8.11 0 01-1.61 3.8 11.18 11.18 0 00-1.25 2.27c-.2.54-.33 1.07-.48 1.63a10.89 10.89 0 01-3.62 6.22 15.72 15.72 0 01-7.23 3.74c-.11.77-.74 2.21-3.77 2.9-1.79.41-2.87 1-3.3 1.69a2.76 2.76 0 00-.06 2.23c.13.44.26.82.37 1.16a4 4 0 010 3.55 4.74 4.74 0 013.87 2.11 13.64 13.64 0 011.7 4.86 3.69 3.69 0 013.65 1.17 8.66 8.66 0 011.67 3.32c1.08-.44 3.39-1.1 5.08.41a4.51 4.51 0 011.3 4.69zm-40.47-79.28l.06.45c.39 2.93 3.11 6.94 8.08 11.9 2.13 2.13 2.4 4.49 2.69 7 .08.68.16 1.38.28 2.1a10.09 10.09 0 002.4 5.1l.2.2-.07.28c0 .06-1.47 5.49-.06 7.83a7.41 7.41 0 01.61 5.67 5.07 5.07 0 01-2.35 3.26c-1.68.88-2.06 1.74-2.9 3.61-.27.61-.58 1.3-1 2.12-.84 1.67-.23 2.15.77 2.93a4.2 4.2 0 011.82 2.41 4.53 4.53 0 001.77 2.71 5.54 5.54 0 011.28 1.39 3.9 3.9 0 01.38 1.77c.1 1.51.22 3.39 3.45 5.56a8.3 8.3 0 013.59 4.08 7.71 7.71 0 003.27 3.72c4.17 2.93 13.39 3.91 15.47 4.1a3.45 3.45 0 00-1.11-3.25c-1.69-1.51-4.5 0-4.53 0l-.63.34-.1-.71a7.94 7.94 0 00-1.59-3.46 3 3 0 00-3.13-.72l-.61.22-.06-.64a13.12 13.12 0 00-1.63-5 4 4 0 00-3.8-1.63l-1 .13.54-.89a3.18 3.18 0 00.34-3.49c-.13-.35-.26-.75-.39-1.22a3.64 3.64 0 01.16-3c.58-1 1.84-1.68 3.94-2.15 3.17-.73 3-2.22 3-2.28l-.06-.49.48-.08a14.62 14.62 0 007.1-3.56 9.86 9.86 0 003.33-5.72 16.87 16.87 0 01.51-1.73 11.6 11.6 0 011.36-2.48 7.34 7.34 0 001.45-3.36 14.36 14.36 0 01.45-2.17 12 12 0 00.13-6.73 23 23 0 00-1.64-4.68 11 11 0 01-1.21-4.18 14.36 14.36 0 00-2.73-8.27c-2.12-3.23-5.51-7-8.09-7a4.78 4.78 0 01-3.18-1.3 19.54 19.54 0 00-6.91-3.36c-7.13-2.16-15.77.47-15.86.5h-.15c-.13 0-13.43.08-18.6 6.64a16.91 16.91 0 00-3.63 9.94c3.33-11.68 17.51-12.44 17.67-12.45z"/><path class="cls-22" d="M732 231.39c-3.25 0-3.6-3.42-4-7.74-.15-1.49-.32-3.18-.62-5-.73-4.55-3.48-4.55-8.69-4.16-1.19.09-2.41.19-3.64.19a5 5 0 01-4.34-1.86c-1.66-2.25-.63-5.66-.58-5.8l1.9.6-.95-.3.95.29c-.22.72-.59 2.84.29 4a3.19 3.19 0 002.73 1c1.15 0 2.34-.09 3.49-.18 4.58-.35 9.77-.74 10.82 5.84.3 1.88.48 3.6.63 5.11.45 4.32.74 5.95 2.06 5.95 2.69 0 5.54-.54 8.15-7l1.85.75c-2.93 7.31-6.54 8.31-10.05 8.31zm6.34-17.86a3.11 3.11 0 01-1.52-.4c-1.91-1.08-2.11-3.91-2.13-4.23l2-.11c0 .53.3 2.14 1.12 2.6.44.25 1.09.15 1.94-.31a30.49 30.49 0 004.12-2.83c2.6-2 5.3-4.09 8.57-4.09v2c-2.59 0-4.9 1.78-7.35 3.67a33.16 33.16 0 01-4.39 3 5.12 5.12 0 01-2.32.7z"/></g><path class="cls-19" d="M675.19 209.06c-.27-.53-2.64-1.07-4.7-1.25l.09-1c1.13.1 4.86.52 5.5 1.81zm8.37-10.74a10.65 10.65 0 01-3.88-.78l.4-.92s3.25 1.38 5.84.25l.4.91a6.82 6.82 0 01-2.76.54zm3.13-1a4.69 4.69 0 00-5.38-2.45l-.28-1a5.73 5.73 0 016.53 2.93zm4.64-4.71s-.73-1.53-4.19-2.56c-4-1.18-5.1-3.28-5.14-3.36l.88-.47-.44.23.44-.23s1 1.82 4.54 2.87c4 1.19 4.8 3.06 4.83 3.14z"/><path class="cls-21" d="M720.74 180.24c-4-5-10.49-2.64-10.77-2.53l-.36-.94c.08 0 7.49-2.77 11.91 2.85zm-14.8-7c-2.81-6-7.33-6.39-7.52-6.4l.07-1c.21 0 5.29.41 8.35 7z"/><path class="cls-16" d="M657.93 360.58A59.89 59.89 0 10598 300.7a59.88 59.88 0 0059.89 59.88z"/><path class="cls-6" d="M657.93 361.58a60.89 60.89 0 1160.88-60.88 61 61 0 01-60.88 60.88zm0-119.77a58.89 58.89 0 1058.88 58.89 59 59 0 00-58.88-58.89z"/><path class="cls-18" d="M672.52 358.25l.85-10.22-4.25-4.25s-7.4 3.54-14.46-.36-14.17-10.87-14.17-10.87l-11.06-10.88-1.73-21 25.83-9.93 28.34 10.79L698 324.26l16.44 9.89-19 29.75-17.86.27-5.1-5.92z"/><path class="cls-19" d="M677.39 364.67l-5.39-6.25.85-10.2-3.85-3.85c-1.54.65-8.14 3.05-14.58-.51-7-3.89-14.21-10.89-14.28-11l-11.19-11v-.18l-1.76-21.35 26.36-10.13.17.07 28.49 10.84 16.19 22.75L715.17 334l-.28.43-19.14 30zm-4.39-6.59l4.82 5.59 17.35-.26 18.57-29.09-16.15-9.77L681.55 302l-28-10.67-25.32 9.67 1.68 20.41 10.93 10.75c.07.07 7.14 7 14.06 10.79 6.75 3.73 13.93.38 14 .34l.32-.15 4.67 4.67z"/><g class="cls-2"><path class="cls-12" d="M752.17 350.3s-19-15.6-30.33-20.41-13-5.11-13-5.11-15 17.86-15.31 34.3c0 0-8.22.57-14.45 4.25l3.68 33.45 20.41 36.57 49.83-2.27-.85-80.78z"/><path class="cls-9" d="M702.85 433.86l-20.62-37-3.73-33.77.28-.17c5.5-3.25 12.39-4.1 14.23-4.28.54-16.3 15.26-34 15.41-34.16l.18-.22.28.05c.08 0 1.89.35 13.16 5.14s30.26 20.32 30.45 20.48l.18.15v.23l.86 81.27zm-19.64-37.23l20.21 36.21 49.1-2.24-.85-80.07c-2-1.59-19.47-15.7-30-20.18-8.95-3.8-11.86-4.77-12.66-5-1.77 2.18-14.74 18.69-15 33.74v.46h-.46c-.08 0-7.94.59-14 4z"/><path class="cls-23" d="M671.17 367.3s-8.58-1.15-13.24 6.24c0 0-3.91-.54-8.27 3.13 0 0-4.1-2.87-12.29 2.38 0 0-3.69-4.06-10.2-15.13s-11.63-19-24.95-16.74-20.14 15.59-19.14 41.67 5.25 40.53 5.25 40.53h83.9l-1.06-62.08z"/><path class="cls-9" d="M672.74 429.88H588l-.11-.36c0-.14-4.28-14.81-5.27-40.65-1-25.62 5.6-39.81 19.55-42.19s19.36 6.59 25.47 17c5.41 9.22 8.9 13.59 9.87 14.74 6.93-4.31 11-2.92 12.14-2.33a12.12 12.12 0 018.06-3.05c4.81-7.3 13.48-6.23 13.57-6.21l.42.05v.43zm-84-1h83l-1.05-61.12c-1.75-.09-8.48-.05-12.33 6.05l-.17.27-.32-.05s-3.76-.44-7.88 3l-.29.24-.32-.22s-4-2.59-11.73 2.39l-.36.23-.28-.31c-.15-.17-3.8-4.23-10.26-15.22-6.84-11.64-11.68-18.67-24.44-16.5-13.38 2.28-19.68 16.13-18.72 41.16.89 23.51 4.47 37.69 5.12 40.08z"/></g><path class="cls-24" d="M99.92 191.61s7.37 13.84 5.67 19.79-3 7.93-3 7.93 3.88-.28 9 6 12.8 12.7 14.48 32.6c0 0 4.23-10.28 5.08-19.28s1.11-14.74 5.1-17.57a156.76 156.76 0 014 30.78c.26 15.7.5 17.4.5 17.4s2.84 3 6.28 6.24a54.08 54.08 0 016.52 7.09 22.38 22.38 0 006.68 5.1s5.8-2.13 17.42 2.13 14.74 7.22 20.69 6.94 12.76.57 16.16 7.37-10.5 26.04-22.17 33.13-24.05 9.1-35.13 5.4-12.78-4.55-12.78-4.55-11.6-13.21-27.48-16.34-17.5 1.69-17.5 1.69-10.77-7.29-17.1-12.13c-3-2.34-2.83-13.78-4.53-29s-5.65-46.78-5.65-46.78l16.7-35.21 2.56-7.83 8.5-.87z"/><g class="cls-2"><path class="cls-9" d="M168.5 345a36 36 0 01-11.5-1.87c-11-3.67-12.77-4.54-12.84-4.58l-.15-.11c-.12-.13-11.68-13.12-27.21-16.18-15.07-3-16.91 1.32-16.93 1.37l-.23.58-.52-.34c-.11-.07-10.86-7.35-17.12-12.15-2.36-1.8-2.86-8-3.62-17.34-.29-3.59-.62-7.67-1.11-12-1.68-15.07-5.6-46.45-5.64-46.76v-.15l.06-.13 16.7-35.22L91 192l9.16-.93.16.29c.31.58 7.45 14.09 5.71 20.16a41.26 41.26 0 01-2.7 7.37c1.47.25 4.69 1.35 8.56 6.07.61.75 1.25 1.49 1.92 2.27 4.78 5.52 10.68 12.34 12.46 28.48 1.25-3.41 3.68-10.66 4.29-17.16l.17-1.78c.74-8.05 1.23-13.38 5.14-16.15l.6-.43.18.72a157.82 157.82 0 014 30.89c.23 13.29.43 16.52.49 17.19.57.6 3.14 3.24 6.14 6.1a52 52 0 015.86 6.27l.7.86a21.76 21.76 0 006.33 4.88c1.17-.34 7-1.67 17.55 2.2 4.14 1.51 7.22 2.87 9.69 4 4.57 2 7.08 3.12 10.81 3 5.37-.26 12.93.26 16.63 7.65 1.66 3.32-.33 9.51-5.46 17-4.78 7-11.23 13.41-16.84 16.83-7.87 4.73-16.13 7.22-24.05 7.22zm-23.77-7.27c.44.2 2.89 1.23 12.63 4.48 10.8 3.62 23.13 1.71 34.71-5.35 13.28-8.1 24.75-26.86 21.92-32.52-3.43-6.86-10.59-7.33-15.68-7.09-4 .2-6.71-1-11.26-3-2.46-1.09-5.53-2.44-9.63-3.94-11.27-4.13-17-2.15-17.08-2.13l-.2.07-.19-.09a22.69 22.69 0 01-6.84-5.24l-.7-.86a50.27 50.27 0 00-5.78-6.18c-3.41-3.25-6.27-6.22-6.3-6.25l-.11-.12v-.16c0-.07-.25-1.91-.51-17.47a157.81 157.81 0 00-3.79-29.9c-3 2.65-3.46 7.63-4.14 15l-.16 1.78c-.85 9-5.07 19.31-5.12 19.42l-1-.15c-1.46-17.35-7.54-24.39-12.42-30-.68-.78-1.33-1.54-1.95-2.29-4.83-5.9-8.53-5.76-8.56-5.77l-1 .06.55-.83s1.32-2 3-7.8c1.49-5.22-4.43-17.09-5.48-19.12l-7.84.8-2.45 7.52-16.67 35.01c.29 2.34 4 32.08 5.63 46.63.48 4.38.82 8.46 1.11 12.06.71 8.76 1.22 15.09 3.23 16.63 5.52 4.23 14.56 10.41 16.63 11.82 1-1.26 4.69-4.05 17.75-1.47 15.22 3 26.68 15.3 27.7 16.42z"/><path class="cls-10" d="M590.11 430.93c-4-14.38-7.5-53-1.68-68.06 2.91-7.51 7.25-12.2 12.56-13.55 5.13-1.31 10.86.57 16.58 5.41 11.34 9.63 14.87 26.76 14.9 26.93l-1 .2c0-.17-3.5-17-14.57-26.36-5.45-4.63-10.87-6.43-15.68-5.21-5 1.27-9.09 5.74-11.88 12.94-5.75 14.87-2.28 53.16 1.72 67.43zm2.27-1.42a159.19 159.19 0 01-4.27-46.65c1.55-22.47 9-28.61 14.66-31.15a2.77 2.77 0 01.41-.18l.37.93-.15.06a6.76 6.76 0 00-1.11.68c-9.07 9.21-6.15 33.09-6.12 33.33l-1 .13c-.1-.84-2.14-17.47 2.69-28.49-4.66 7.49-9.59 24.25-3.38 60.64l-1 .17c-6.45-37.83-1.12-54.7 3.83-62.05-7 7.65-7.84 20.49-8.22 26a158 158 0 004.24 46.32zm49.46-24.13c-.24-.23-5.83-5.71-5.54-12.3.24-5.39 1.6-11.75 10.05-13.23l.18 1c-6.14 1.08-8.9 4.75-9.23 12.29-.27 6.14 5.18 11.49 5.24 11.54zm-4.54-1.53c-.28-.31-6.87-7.71-4.16-15.92s7.48-9.38 11.32-9.38v1c-3.72 0-7.85 1-10.37 8.69s3.89 14.87 4 14.94zm12-.17c-.23-.22-5.59-5.47-4.23-15.66l1 .13c-1.3 9.7 3.87 14.76 3.93 14.81zm6.93-.06c-5.43-7.1-10.26-17.28-2.45-25.41l.72.69c-7.31 7.62-2.67 17.32 2.52 24.12zm-3.43 0c-4.05-6.28-9.35-18.25.64-27.86l.7.72c-9.48 9.12-4.38 20.58-.5 26.6zm9.89-.07V403l-.36.26a2.25 2.25 0 00-.29-.25c-6.92-5.69-7.11-13.67-6-19.36 2.75-14.69 13.31-14.61 13.39-14.6v1c-.38 0-9.8 0-12.39 13.78-1 5.43-.85 13 5.69 18.41.41.33.66.54.53.91l-.12.33zm-16.6-.2a20.1 20.1 0 01-2.92-17.71c-2.61 2.83-3.42 6.32-2.42 10.4a19.6 19.6 0 003 6.42l-.75.54a20.42 20.42 0 01-3.15-6.79 11.92 11.92 0 014.34-12.87l.75.63c0 .08-4.69 8.94 2.05 18.74zm-13.49-1.64c0-.25-2.43-16.08-7.93-29.5 1.81 6.22 3.07 14.49 3 25.46h-1c.23-28.68-9-38.7-12.57-41.46a14.65 14.65 0 00-1.36-.91l.46-.88a12.54 12.54 0 013.22 2.45c12.19 11.57 17 43.25 17.19 44.7zm34.12-.62c-.12-.15-11.11-14.42-2.37-27.1a15.17 15.17 0 00-4.13 6.22c-1.77 5.13-.87 11.31 2.68 18.36l-.9.45c-3.68-7.31-4.59-13.76-2.72-19.15a16 16 0 017.62-8.9l.57.8c-12.31 12.68-.09 28.54 0 28.7zm2.3-2.81c-.27-.3-6.4-7.36-4.67-16l1 .2c-1.63 8.17 4.37 15.08 4.44 15.15zm-49.29-7.7l-1-.06c1-17.23-2.55-26.22-6.14-30.85 4.47 9.86 3.82 28.24 3.78 29.23h-1c0-.28.89-24.9-5.85-32.28a12 12 0 00-2.34-1.39l-.88-.31.26-1a7.49 7.49 0 01.83.26l.09-.24a6.68 6.68 0 012 1.19c5.64 3 9.69 9.17 11.81 18.06a62 62 0 011.58 14.94h-1c0-.22.54-16.72-6.75-26.68 3.03 5.21 5.54 14.12 4.63 29.1zm-8.81-6.78h-1c0-.18.68-16.34-4.3-24.7 1.14 3.45 2.25 9.53 1.18 19.06l-1-.11c1.43-12.65-1.13-19.12-2.22-21.21-2.09 7.45 0 22.07 0 22.22l-1 .15c-.07-.54-1.66-11.52-.64-19.4-1 3.06-2.25 9.27-2.1 21.46h-1c-.26-21.84 3.78-24.95 4-25.08l.56-.39.46-.43.06.06.08-.06v.1c7.83 6.88 7 27.42 6.94 28.3z"/><path class="cls-22" d="M705.12 428.53l-7.12-7.94s-4.54-15.11-11.06-23.81c0 0 1.48-32.17-14.23-45.25 0 0-4.45 18-3.33 47.8 0 0-5.29 1-13.88 6.05 0 0-5.21.66-14.12-1.52s-14.65-8.89-23.58-15.77-14.28-7-20.33-2.09-10.17 14.47-1.82 22.12c0 0-.69 9.92 6.61 13.61 0 0-.36 6.52.21 9.07l102.62-2.27z"/><path class="cls-19" d="M602.1 431.31l-.09-.4c-.51-2.29-.3-7.52-.23-8.89-6.67-3.6-6.67-12.11-6.61-13.69a13.49 13.49 0 01-4.69-10.33c.13-4.43 2.64-9.06 6.7-12.36 6.49-5.26 12.16-4.7 21 2.08 2.32 1.79 4.4 3.55 6.42 5.25 5.62 4.74 10.47 8.84 17 10.43 8.05 2 13.09 1.6 13.84 1.52 7.25-4.21 12.11-5.61 13.53-5.95-1.06-29.25 3.31-47.35 3.36-47.53l.19-.78.61.51c15.1 12.58 14.5 42.86 14.42 45.49 6.15 8.3 10.57 22.34 11 23.71l7.73 8.67zm3.63-48.24c-2.7 0-5.21 1.12-7.91 3.32-3.85 3.12-6.22 7.46-6.34 11.62-.11 3.6 1.42 6.88 4.54 9.74l.17.17v.24c0 .09-.57 9.63 6.34 13.12l.29.15v.33a58.5 58.5 0 00.12 8.53L704 428.06l-6.47-7.32c0-.15-4.59-15.13-11-23.66l-.1-.14v-.18c0-.31 1.25-31.21-13.42-44.31-.82 3.82-4.11 21-3.14 46.87v.42l-.42.08s-5.33 1.09-13.73 6l-.19.07c-.21 0-5.4.64-14.3-1.54-6.72-1.64-11.66-5.81-17.38-10.64-2-1.69-4.08-3.44-6.38-5.22-4.65-3.64-8.34-5.42-11.74-5.42z"/></g><path class="cls-20" d="M642.47 334.42s-9.31-.27-16.13-10.48-5-21.12-3.17-24.95a20.67 20.67 0 002.58-9.34c0-5 .56-6.39 3.54-9.94a42.39 42.39 0 0112.47-9.78 9.62 9.62 0 017.9-.45s.73-3 5.79-1.36l.65.24s1-2.71 4.8-2 6.51.14 10.27 1.56a11.48 11.48 0 015.6 5.26s4.82 2 7.23 3.1 5.1 6.21 5.1 10.06-.57 3.86-.57 3.86a6.56 6.56 0 012.55 4.65c.29 3.12.29 8.22-1.55 10.91 0 0 2.83 3.26 1.27 8.79 0 0 6.8.42 9.21 6.09 0 0 5.86-1.67 8.53 2.55 0 0 5.59-2.19 9.37 1s2.12 8.55.4 9.61c0 0 .82-5.71-3.14-6.4s-1.83 2.58-6.65 2.86-7.94.59-10.49-1.13-2.69-3.69-2.69-3.69-5.77.71-8.06-2.12-2.29-4.11-2.29-4.11-4.18.7-6.48-2.27 0-6.24 0-6.24l-3.3-3.26a15.51 15.51 0 01-8.79-3.1c-3.95-3.13-3.95-4.05-3.95-4.05s-7.53.92-11.5-3.9a33.9 33.9 0 01-7.37 3c-4.51 1.29-8.36 2.76-13.88 1.85a64.93 64.93 0 00-.57 13.18c.57 5.52 2.4 9 4.46 11.21s8.43 4.94 8.86 8.77z"/><path class="cls-21" d="M643 334.94h-.57c-.39 0-9.65-.4-16.54-10.7-6.54-9.79-5.43-20.81-3.2-25.45a20.27 20.27 0 002.53-9.12c0-5 .54-6.55 3.66-10.26a42.78 42.78 0 0112.63-9.91 10.33 10.33 0 017.85-.64 3.09 3.09 0 011.23-1.22c1.2-.67 2.88-.66 5 0l.26.09c.51-.83 1.93-2.46 5.13-1.84a33.32 33.32 0 004.06.45 19.55 19.55 0 016.3 1.13 11.75 11.75 0 015.78 5.34c.89.36 5 2 7.08 3 2.67 1.27 5.39 6.58 5.39 10.51a11.53 11.53 0 01-.39 3.77 7.06 7.06 0 012.37 4.69c.21 2.27.46 7.77-1.44 10.94a10.25 10.25 0 011.29 8.37c1.73.25 6.67 1.33 8.87 5.95 1.41-.28 6-.9 8.44 2.53 1.37-.44 6.07-1.66 9.5 1.24a6.92 6.92 0 012.44 5.95c-.14 1.95-1 3.79-2.1 4.47l-.91.56.15-1.06s.69-5.24-2.74-5.83c-1.66-.3-2 .14-2.5.85s-1.37 1.85-4 2l-.85.05c-4.47.27-7.41.45-10-1.27a6.47 6.47 0 01-2.81-3.56c-1.46.11-6 .21-8.05-2.35a11.76 11.76 0 01-2.3-3.87c-1.23.09-4.48.08-6.48-2.52a5.82 5.82 0 01-.24-6.46L675 308a15.87 15.87 0 01-8.89-3.21c-2.64-2.1-3.62-3.27-4-3.91-1.59.12-7.63.28-11.29-3.8a35.25 35.25 0 01-7.12 2.82l-1.57.46c-3.75 1.11-7.29 2.15-12 1.48a62.65 62.65 0 00-.49 12.56c.47 4.62 1.93 8.29 4.33 10.92a18.22 18.22 0 003 2.3c2.68 1.85 5.72 3.95 6 6.76zm3.3-65.58a10 10 0 00-4.35 1 41.76 41.76 0 00-12.28 9.64c-2.94 3.51-3.42 4.86-3.42 9.62a20.89 20.89 0 01-2.65 9.59c-1.41 2.95-3.92 13.84 3.15 24.42 5.58 8.33 12.91 9.91 15.09 10.2-.63-2.08-3.19-3.85-5.47-5.43a19.42 19.42 0 01-3.13-2.44c-2.55-2.79-4.09-6.66-4.59-11.5a64.45 64.45 0 01.57-13.31l.07-.5.51.08c4.76.79 8.32-.26 12.09-1.37l1.58-.46a34.71 34.71 0 007.25-2.92l.37-.22.27.33c3.74 4.55 11 3.73 11 3.73l.56-.07v.56s.35 1 3.76 3.66a15 15 0 008.48 3h.21l3.74 3.7-.25.35c-.08.12-2 3 0 5.64s6 2.09 6 2.08l.58-.09v.59s.09 1.2 2.18 3.79 7.55 1.95 7.61 1.95l.52-.07v.53c0 .06.18 1.75 2.47 3.3s5.07 1.36 9.33 1.1l.85-.05c2.19-.13 2.75-.88 3.29-1.61s1.2-1.64 3.47-1.24c2.82.49 3.6 3.3 3.64 5.5a6.62 6.62 0 00.79-2.73 6 6 0 00-2.09-5.1c-3.52-3-8.81-1-8.87-.94l-.38.15-.22-.35c-2.44-3.87-7.91-2.35-8-2.34l-.42.13-.18-.41c-2.25-5.31-8.72-5.79-8.78-5.79h-.62l.17-.6c1.46-5.18-1.06-8.2-1.17-8.32l-.25-.29.21-.32c2-2.92 1.64-8.84 1.48-10.59a6.1 6.1 0 00-2.34-4.27l-1.33-.92h1.38a11 11 0 00.3-3.36c0-3.87-2.69-8.6-4.82-9.61-2.36-1.13-7.15-3.07-7.2-3.09l-.18-.07-.08-.17a11 11 0 00-5.33-5 19.06 19.06 0 00-6-1.08 30.57 30.57 0 01-4.19-.46c-3.32-.65-4.2 1.55-4.23 1.65l-.18.47-.47-.18-.63-.22c-1.78-.59-3.22-.63-4.17-.12a1.94 1.94 0 00-1 1.13l-.16.58-.54-.26a8.08 8.08 0 00-2.97-.6z"/><path class="cls-25" d="M657.93 337.49v-1c.1 0 2.31-.05 4.09-3.67l.9.44c-2.03 4.13-4.73 4.23-4.99 4.23zm-2.23-1.61l-.35-.94a6.06 6.06 0 003.13-3.13v-.12l1.92-1.49.61.79-1.72 1.34a7 7 0 01-3.59 3.55zm-4-1a1.32 1.32 0 01-.39-.06c-1.28-.36-2.45-2.49-4.6-7.12a13.16 13.16 0 00-6.44-6.57c-4.62 3-5.23 5.48-5.24 5.5l-1-.21c0-.12.67-2.94 5.89-6.27l.21-.13.22.08a13.61 13.61 0 017.24 7.18c1.48 3.18 3 6.31 4 6.58a.46.46 0 00.41-.08 4.87 4.87 0 001.47-1.9 8.11 8.11 0 011-1.55 4.3 4.3 0 001-1.87l1 .13a5.07 5.07 0 01-1.21 2.38 7.69 7.69 0 00-.87 1.38 5.56 5.56 0 01-1.81 2.26 1.49 1.49 0 01-.89.23zm-11.85-5.91l-1-.22a4.29 4.29 0 012.77-3.24l.27 1-.14-.49.14.48a3.28 3.28 0 00-2.05 2.43zm-2.26-.11l-1-.14c.45-3.3 3.77-5.5 3.91-5.59l.54.84s-3.04 2.03-3.46 4.85zm11.18-10.4c0-.17 0-1.77 3.37-3.43l.45.89c-2.73 1.36-2.82 2.51-2.82 2.52zm-1.77 0l-.82-.56a19.62 19.62 0 015.69-5.37l.5.87a19.19 19.19 0 00-5.37 5zm-2.69-2.12l-.82-.57c.18-.27 4.64-6.62 10.09-6.16l-.08 1c-4.89-.44-9.16 5.61-9.2 5.67z"/><path class="cls-20" d="M179 191c4.25-4.81 6.94-13.61 6.94-18.41s-3.24-6.54-3.24-6.54-3.28-.14-10.51-.77a37.6 37.6 0 01-11.51-2.61c-5 1.86-7.74 1.12-7.74 1.12-.26 2.41-8.1 5.67-12.76 10.06s-5.95 4.68-5.95 4.68c.74 4.81 0 5.44-6.68 14s-23.41 9.92-23.41 9.92a23.23 23.23 0 01-5.06 8.08c-4 4.4-7.82 3.82-10.93 3.12s-6.81 4-6.81 4 .19-8.22 5-9.21 8.34.71 10-4 1.3-6.67 4.53-7.93a24.72 24.72 0 01-6.23-.57c-2.13-.69-3.12 2-6 2.69s-5.81-1-8.78 1.14a15.65 15.65 0 01-4.82 2.55s1.18-4.11 4.13-5.81a9.86 9.86 0 016.07-1.14 12.38 12.38 0 017.37-4.32c5.1-1.06 7.65 0 7.65 0s3.41-5 7.52-6.59 6.52-.47 6.52-.47a6.93 6.93 0 014.11-1.66s-.1-1.41 1.86-3.54a10.24 10.24 0 011.82-7.94 3.21 3.21 0 011.21-3.85s-1.75-8.93 4.74-13.47a6.23 6.23 0 013.2-4.53s4-15.88 26.36-17c0 0 3-1.57 10.92-.5s20.27 10.7 22.67 20.34 4.68 22.07-2.12 30.63-9.36 13.35-17.29 15.53a54.63 54.63 0 007.23-7z"/><path class="cls-21" d="M80.82 219.12v-1.5c0-.35.26-8.63 5.39-9.69a24.21 24.21 0 013.91-.41c2.81-.14 4.66-.23 5.76-3.24.42-1.18.72-2.18 1-3.06.55-1.89.94-3.23 2.14-4.21a17.9 17.9 0 01-4.5-.59c-.88-.28-1.51.16-2.54 1a8.13 8.13 0 01-3.14 1.74 10.8 10.8 0 01-3.49.11c-1.77-.13-3.44-.26-5.12.94a15.63 15.63 0 01-5 2.63l-.83.19.24-.81c0-.18 1.27-4.33 4.36-6.11a10.26 10.26 0 016.1-1.23 13.1 13.1 0 017.49-4.27 16 16 0 017.56-.11c.83-1.15 3.87-5.08 7.53-6.47a10.17 10.17 0 016.6-.57 7.43 7.43 0 013.75-1.57 6.86 6.86 0 011.78-3.21 10.67 10.67 0 011.8-7.86 3.72 3.72 0 011.16-3.95c-.23-1.59-1-9.32 4.8-13.55a6.76 6.76 0 013.25-4.58c.58-1.91 5.64-16.07 26.66-17.18.62-.27 3.83-1.47 11.1-.5 8.35 1.12 20.65 10.9 23.1 20.72 2.66 10.63 4.47 22.64-2.22 31.06-1 1.32-2 2.54-2.87 3.68-4.86 6.32-7.8 10.14-14.68 12l-.43-.88a55.6 55.6 0 007.15-7c4-4.55 6.82-13.18 6.82-18.08 0-4-2.37-5.73-2.88-6-.67 0-4-.21-10.41-.77a39.11 39.11 0 01-11.49-2.57 16 16 0 01-7.36 1.15c-.59 1.42-2.9 2.9-5.74 4.73a48.06 48.06 0 00-7 5.12c-3.36 3.17-5 4.26-5.75 4.62.63 4.46-.22 5.56-5.85 12.77l-1 1.26c-6.3 8.09-21 9.84-23.43 10.08a24.53 24.53 0 01-5.06 7.95c-4 4.48-8 4-11.41 3.27-2.31-.51-5.33 2.56-6.3 3.79zM100.9 196l.19 1c-2.18.85-2.51 2-3.25 4.52-.26.9-.55 1.91-1 3.12-1.33 3.64-3.8 3.76-6.66 3.9a23.1 23.1 0 00-3.75.39c-3.17.66-4.16 5-4.46 7.27 1.38-1.4 3.91-3.54 6.29-3 3.26.73 6.76 1.11 10.45-3a22.88 22.88 0 005-7.88l.09-.34h.35c.16 0 16.58-1.42 23-9.73l1-1.27c5.79-7.42 6.26-8 5.6-12.38l-.07-.46.46-.1s1.35-.44 5.71-4.56a50.91 50.91 0 017.18-5.24c2.73-1.75 5.3-3.4 5.42-4.51l.07-.58.56.15s2.66.66 7.43-1.1l.2-.07.19.08a37.33 37.33 0 0011.35 2.57c7.13.62 10.45.77 10.49.77l.21.06c.14.08 3.5 1.93 3.5 7s-2.84 14-7.07 18.75a69.72 69.72 0 01-5.29 5.4c4.87-2 7.47-5.34 11.71-10.85.88-1.14 1.83-2.37 2.88-3.69 6.42-8.09 4.63-19.8 2-30.2-2.32-9.29-14.38-18.91-22.26-20-7.62-1-10.59.44-10.62.45l-.2.06c-21.74 1.1-25.86 16.47-25.9 16.63v.2l-.19.11a5.64 5.64 0 00-3 4.14v.24l-.19.13c-6.15 4.3-4.54 12.87-4.52 13v.29l-.23.19a2.74 2.74 0 00-1 3.23l.13.27-.18.24a9.74 9.74 0 00-1.73 7.52l.06.26-.18.2C119 181 119 182.31 119 182.32v.51h-.51a6.55 6.55 0 00-3.78 1.53l-.24.22-.3-.13s-2.3-1-6.14.48-7.24 6.36-7.27 6.4l-.23.34-.38-.15s-2.5-1-7.36 0a12 12 0 00-7.06 4.12l-.18.26-.32-.06A8.21 8.21 0 0076 201.5a19.69 19.69 0 003.69-2.13c2-1.41 3.92-1.27 5.79-1.12a10.13 10.13 0 003.17-.09 7.26 7.26 0 002.77-1.56c1-.82 2-1.59 3.46-1.13a24.33 24.33 0 006.02.53z"/><path class="cls-19" d="M160.92 203.55a1.48 1.48 0 01-1.14-.62 8.82 8.82 0 00-2.32-2.14l-.27-.17c-1.13-.75-1.24-1.5-.43-2.85l.85.51c-.6 1-.43 1.13.13 1.5l.26.18a9.26 9.26 0 012.55 2.33c.11.13.26.27.39.26.75-.11 1.94-2.88 2.72-4.72a53.77 53.77 0 014.43-7.66l.07-.08 3.79-3.51.29.12a14.45 14.45 0 014.28 2.66c1.81 1.79.16 4.73.08 4.85l-.86-.49s1.34-2.4.08-3.65a13 13 0 00-3.66-2.32l-3.28 3a54.25 54.25 0 00-4.3 7.44c-1.36 3.19-2.28 5.14-3.49 5.32zm-.64-3.91a3.36 3.36 0 00-1.43-1.14l.34-.94a4.3 4.3 0 011.9 1.5zm7.72-14.95s-3.32-2.1-5.71-3.94-4.26-1.59-7.88-1.31l-.07-1c3.6-.27 6-.46 8.56 1.52 2.35 1.81 5.6 3.86 5.63 3.88z"/><path class="cls-21" d="M165.91 187.08c-.08 0-2-.26-6-2.69-3.5-2.13-4.8-1.12-4.81-1.11l-.67-.74c.17-.16 1.84-1.53 6 1 3.77 2.29 5.58 2.55 5.6 2.55z"/><path class="cls-19" d="M160.23 192.11c-2.39 0-3.34-2.78-3.38-2.9l.94-.32s.77 2.22 2.44 2.22zm.29-3.06a5.65 5.65 0 01-4.12-6.23l1 .18c0 .15-.63 3.71 3.46 5.11z"/><path class="cls-21" d="M173.72 196.2c-.46-2.16-3.69-2.73-3.73-2.73l.17-1c.16 0 3.93.7 4.54 3.5z"/><path class="cls-19" d="M159 207.15h-1v-1.29a6.69 6.69 0 01-4-3.32 18.84 18.84 0 01-5.52-1.31l.39-.92a17.63 17.63 0 005.44 1.23h.32l.13.29s1.29 2.74 3.85 3.12l.43.06zm10.7-8.15c-2.66-2-1.69-4.06-1.65-4.15l.9.43-.45-.21.45.21c0 .06-.63 1.46 1.34 2.92z"/><path class="cls-22" d="M156.8 207.64c-2.31-.47-4.35-3.69-4.44-3.82l.85-.54s1.9 3 3.78 3.38z"/><path class="cls-18" d="M150 223.9s-5.62 2.38-8 6.92a49.91 49.91 0 01-5.95 8.5 22.88 22.88 0 00-.37-9.78c-3-10.42-1.45-20.34-1.45-22.39"/><path class="cls-19" d="M135.19 241l.38-1.82a22.5 22.5 0 00-.36-9.54c-2.54-8.73-1.86-17.24-1.57-20.87.06-.75.1-1.33.1-1.66h1c0 .36 0 .94-.11 1.74-.28 3.57-.95 12 1.54 20.51a22.23 22.23 0 01.63 8.25 46.38 46.38 0 004.77-7.07c2.47-4.64 8-7 8.28-7.14l.39.92c-.05 0-5.49 2.37-7.78 6.69a50.55 50.55 0 01-6 8.6z"/><path class="cls-13" d="M78.6 310.12A159.64 159.64 0 0157.26 284c-9.61-15-8.59-40.29-8.58-40.54h1c0 .25-1 25.25 8.42 40a158.82 158.82 0 0021.19 26z"/><path class="cls-18" d="M209.78 303.43s9.48 1.74 21.38 4.82 16.23 3.21 22.16 1.44 11.29-3.19 14.69-4.24 8.21-1.69 10.36 0 1.83 3.55 1.83 3.55a27.72 27.72 0 016.24 2.34c2 1.27 6.28 4.3 4.88 5.19s-2.5 2.12-4.31 2.12-3.81-2.12-6.52-2.12h-4a11.2 11.2 0 014 2.62c2 2 4.68 4.87 4.68 6.51s-1.3 1.42-2.72 0-2-3.15-4.8-3.7a14.55 14.55 0 00-8.41.57c-3.23 1.13-10.5 2.3-13.89 1.71s-6.63-3.41-6.63-3.41a102 102 0 01-16.73.28c-9.92-.57-31.46.3-31.46.3s5.17-5.91 6.75-10.22 2.48-7.75 2.48-7.75z"/><path class="cls-19" d="M284.42 327.3a3.63 3.63 0 01-2.3-1.3 13.32 13.32 0 01-1-1.17 5.29 5.29 0 00-3.52-2.39 14.06 14.06 0 00-8.16.55c-3.2 1.12-10.55 2.35-14.13 1.74a16.23 16.23 0 01-6.71-3.39 108.21 108.21 0 01-16.59.26c-9.79-.56-31.21.29-31.42.3h-1.16l.76-.87c.05-.06 5.13-5.89 6.66-10.06s2.45-7.67 2.46-7.71l.12-.44.46.08c.09 0 9.63 1.77 21.42 4.82 12.15 3.15 16.3 3.12 21.89 1.46 2.88-.86 5.63-1.64 8.09-2.33s4.85-1.38 6.6-1.92c3.54-1.1 8.49-1.74 10.81.09a4.77 4.77 0 012 3.54 25.41 25.41 0 016 2.31c2.46 1.58 5.39 3.76 5.38 5.14a1 1 0 01-.51.89c-.33.21-.64.44-.95.67a6 6 0 01-3.62 1.53 6.71 6.71 0 01-2.84-1 8.17 8.17 0 00-3.68-1.16h-1.85a12.68 12.68 0 012.22 1.76c3.34 3.34 4.83 5.46 4.83 6.87 0 1-.43 1.41-.79 1.56a1.28 1.28 0 01-.47.17zm-10.11-6.21a17.53 17.53 0 013.46.37 6.25 6.25 0 014.11 2.74c.3.37.6.75.94 1.1.87.86 1.5 1.06 1.69 1s.18-.22.18-.63c0-1.08-1.52-3.15-4.53-6.16a11 11 0 00-3.8-2.5l.16-1h4a9 9 0 014.13 1.27 5.91 5.91 0 002.39.85 5 5 0 003-1.34c.33-.24.66-.48 1-.7.16-.42-1.32-2.06-4.88-4.35a27.39 27.39 0 00-6.09-2.28l-.45-.11.08-.46a3.54 3.54 0 00-1.65-3.06c-1.88-1.48-6.33-1-9.9.09-1.75.54-4 1.18-6.62 1.92-2.45.69-5.2 1.47-8.08 2.32-6.22 1.86-10.83 1.56-22.42-1.44-10.31-2.67-18.88-4.34-20.9-4.72-.3 1.07-1.14 3.95-2.37 7.34s-4.6 7.69-6.11 9.51c4.58-.17 21.86-.75 30.38-.26a102.2 102.2 0 0016.64-.28h.22l.17.15s3.18 2.75 6.38 3.3c3.38.58 10.61-.63 13.64-1.7a15.53 15.53 0 015.23-.97z"/><path class="cls-15" d="M122.44 394.81l-.82-.59c.06-.08 1.49-2.19 6.18-14.1a249.2 249.2 0 008.2-25.41l1 .24a247.6 247.6 0 01-8.24 25.54c-4.82 12.14-6.26 14.23-6.32 14.32zM142.9 361l-.92-.39a8.22 8.22 0 00.55-2.64c0-.66-1.52-2.18-4-4.7-1.81-1.81-4.29-4.3-7.48-7.72a103.92 103.92 0 00-18-14.86c-.48-.32-.81-.54-1-.67-.42-.31-2.41.89-4.18 2.52l-.68-.73c.94-.87 4.1-3.6 5.46-2.59.16.12.48.33.94.64a104.67 104.67 0 0118.12 15c3.18 3.41 5.65 5.89 7.46 7.7 3.14 3.15 4.32 4.32 4.32 5.4a8.9 8.9 0 01-.59 3.04zm-60.17-46.53c-5-2-5.62-8.4-6.69-20-.21-2.24-.43-4.68-.71-7.32-1.42-13.49-3.61-36.11-4.28-43l-13.82 34.71-.53-.8c-.12-.18-3-4.57-1.47-8.45 1.34-3.47 12.81-28.19 14.44-31.69a2.5 2.5 0 01-1.09-2 4 4 0 011.77-2.78L87 198.38l.9.44-16.76 35-.12.08c-.4.26-1.44 1.15-1.44 2 0 .49.33 1 1 1.39l.36.24-.18.39c-.13.28-13.19 28.37-14.58 32-1 2.45.16 5.26.87 6.66l13.85-34.79 1 .14c0 .29 2.79 29.08 4.47 45 .28 2.65.51 5.09.71 7.33 1 11.22 1.61 17.4 6.07 19.19z"/><path class="cls-22" d="M127.7 363.26l-26.65-37.06s-1.7-1.07-4.53 1.1a11.15 11.15 0 00-3.69 4.57l26.1 37.22s1.51 3.05 6.45-.13c4.54-2.92 2.32-5.7 2.32-5.7z"/><path class="cls-25" d="M121.44 370.91a3.9 3.9 0 01-1-.14 3.09 3.09 0 01-1.91-1.46L92.28 332l.08-.25a11.59 11.59 0 013.85-4.8c3.08-2.35 5-1.18 5.11-1.12l.14.13 26.64 37a3.52 3.52 0 01.6 2.59q-.34 2.08-3 3.83a8.06 8.06 0 01-4.26 1.53zm-28-39.1l25.94 37a2.13 2.13 0 001.35 1c1.13.3 2.66-.14 4.42-1.27 1.54-1 2.41-2 2.6-3.13a2.5 2.5 0 00-.4-1.84l-26.57-37c-.32-.14-1.7-.58-3.9 1.11a11.34 11.34 0 00-3.48 4.13z"/><path class="cls-18" d="M135.64 353.7s-2.39-3.94-10.26-11-10.15-8.22-10.15-8.22l-11.08 5.93a6.34 6.34 0 01-3.38 1.42v2.13l-.5-1.26a2.36 2.36 0 00-2.33 2.3c0 2.21 0 4.76 4 5 0 0-.26 3.2 1.41 3.95a8.34 8.34 0 003.89.45s-1.19 2.12 0 3.54 3.46 1.13 3.46 1.13-.57 3.68 2.27 3.68 7.39-1.78 12.42-4c8-3.46 10.26-5.1 10.26-5.1z"/><path class="cls-19" d="M113 363.26a2.54 2.54 0 01-2-.86 4.21 4.21 0 01-.78-2.79 4.36 4.36 0 01-3.3-1.34 3.36 3.36 0 01-.39-3.3 8 8 0 01-3.32-.56c-1.55-.69-1.73-2.94-1.73-4-4-.5-4-3.49-4-5.49a2.8 2.8 0 012.81-2.81v-.87h.5a5.9 5.9 0 003.06-1.3l.08-.06 11.3-6.05.23.11c.1.05 2.45 1.23 10.28 8.3s10.24 11 10.34 11.15l.24.39-.37.27c-.1.07-2.4 1.72-10.35 5.16-5.6 2.45-9.84 4.05-12.6 4.05zm-1.68-4.75l-.09.65a3.78 3.78 0 00.5 2.59 1.57 1.57 0 001.27.51c2.78 0 7.52-1.89 12.22-3.92a79.68 79.68 0 009.76-4.79c-.82-1.16-3.6-4.83-9.89-10.52s-9.1-7.58-9.83-8l-10.79 5.78a7.33 7.33 0 01-3.16 1.47v1.66l-1 .18-.36-.89a1.72 1.72 0 00-1.51 1.77c0 2.11 0 4.29 3.52 4.54h.5v.5c-.07.79 0 3 1.12 3.45a8 8 0 003.62.42l1-.13-.48.87s-1 1.84 0 3a3.83 3.83 0 003 1zm-10.23-13.46v-1c2.19 0 3.72-.82 6.75-2.46l1-.52c3.64-1.95 7-4.21 7-4.23l.56.83s-3.44 2.31-7.13 4.28l-1 .52c-3.08 1.66-4.77 2.58-7.22 2.58z"/><path class="cls-17" d="M121.28 369.52a1.57 1.57 0 01-1.21-.45 1.27 1.27 0 01-.31-1 4.94 4.94 0 012.39-2.84c3.14-2.06 4.41-1.63 4.93-.91a1.36 1.36 0 01.24 1.08c-.22 1.22-1.76 2.37-2.4 2.8a7.63 7.63 0 01-3.64 1.32zm4.49-4.82a6.43 6.43 0 00-3.07 1.3c-1.25.82-1.89 1.68-1.94 2.13a.27.27 0 000 .23c.33.36 2.06-.06 3.55-1.06a4.48 4.48 0 002-2.14.35.35 0 00-.06-.32c-.05-.07-.25-.14-.48-.14zM95.4 335.49v-1a8.18 8.18 0 007.2-5.2l.94.35c-2.11 5.62-8.08 5.85-8.14 5.85zm-1.37-2l-.13-1a10.27 10.27 0 007.27-5.44l.9.45a11.09 11.09 0 01-8.07 6z"/><path class="cls-15" d="M44.85 300.75a84.69 84.69 0 01-13-18.75L2.53 270l.37-1 28.3 11.59a104.77 104.77 0 01-7.74-20.42l1-.22a103.51 103.51 0 008.17 21.22h.06a83.22 83.22 0 0012.93 18.78z"/><g class="cls-2"><path class="cls-13" d="M22.58 432.32l-.66-.74a129.92 129.92 0 0018.9-22l24.44-24.72.72.7-24.38 24.61a129.85 129.85 0 01-19.02 22.15zm39.7-2.58l-.69-.72c.08-.07 7.83-7.51 21.57-18.73l.63.77c-13.71 11.19-21.43 18.61-21.51 18.68zm-9.9 0l-.73-.68c.14-.15 14.62-15.5 26.7-25l.62.79c-11.97 9.43-26.45 24.72-26.59 24.87zm-37.11-.59l-.78-.63c.08-.1 8.42-10.38 24.12-26.66s21.81-22.09 21.87-22.14l.69.72c-.06.06-6.16 5.86-21.84 22.11S15.35 429 15.27 429.13zM9.12 429l-.95-.3c0-.16 1.36-4 18.53-22.57S56 378.89 56.14 378.8l.57.82c-.12.08-12.22 8.69-29.27 27.16C10.65 425 9.17 428.82 9.12 429zM11 412.26c-.16-.49-.91-5.41 20.54-26 4.59-4.41 8.46-8 11.69-10.82-4.68-6-13.25-12.17-13.33-12.24l.58-.81c.09.07 8.73 6.31 13.5 12.39l1-.85c-5.33-9-17.71-15.44-17.84-15.51l.46-.89c.52.27 12.63 6.55 18.15 15.74 6.54-5.58 9.83-7.55 10.69-7.26l-.15.47-.05.5c-.14 0-3.53.36-24 20C11.35 407 11.93 411.79 12 412zM46.76 369c-6.51-12-19.9-21.44-22.6-23.25a54.46 54.46 0 00-8.16 4.12C7.1 355.32-2.21 367-2.3 367.06l-.79-.62c.1-.12 9.52-11.88 18.56-17.42a56 56 0 018.7-4.39v-.08h.06c1-.41 1.94-.74 2.77-1a16.75 16.75 0 005.07-2.43l.63.77a17.5 17.5 0 01-5.36 2.6l-2.11.77C29 347.82 41.4 357 47.63 368.48zm101-6.13l-1-.14c1.73-12.06-.5-17.58-10.82-26.83s-19.12-11.25-19.2-11.27l.2-1c.36.08 9 2 19.67 11.51s12.96 15.21 11.17 27.69zm-150.71-6.51l-.62-.79c.12-.1 12.35-9.73 22.49-14.51 10-4.72 11.85-6.38 13-9.65l.94.35c-1.31 3.56-3.25 5.33-13.56 10.2-9.99 4.74-22.13 14.3-22.25 14.4zm38.17-26.54A42.65 42.65 0 0019 321a15 15 0 00-16.07 4.65l-.8-.65a16.32 16.32 0 0117.14-5 42.94 42.94 0 0116.65 9.06zm13.42-.35c-4.94 0-10.93-5-16.22-9.41-1.59-1.32-3.09-2.57-4.52-3.67a25.43 25.43 0 00-19.19-4.93 68.54 68.54 0 01-12 .51l.06-1a69.87 69.87 0 0011.81-.51 26.43 26.43 0 0119.93 5.13c1.45 1.1 2.95 2.36 4.55 3.69 5.16 4.3 11 9.18 15.58 9.18zm-50.34-1.88l-.86-.51A22.13 22.13 0 0112 317.49a26.72 26.72 0 0117.64 3.19l-.53.84a26.31 26.31 0 00-16.94-3 21.52 21.52 0 00-13.87 9.07zm11.78-22.47a36.45 36.45 0 00-13.75-8.2l.25-1c.28.07 7 1.85 14.17 8.43zm4.22-.37l-16.51-18.18.74-.67L15 304.08zm28.39-1c-16.34-9.52-30.28-24.09-30.42-24.24l.73-.69c.14.15 14 14.62 30.19 24.07zm-14.06-29.58a148.44 148.44 0 00-18.21-10.23l.42-.91a148.89 148.89 0 0118.36 10.32z"/><path class="cls-19" d="M403.47 430.71c-7.79-19.82-4.92-25.69-4.79-25.93l.88.46-.44-.23.45.23c0 .05-2.73 5.86 4.83 25.11zm-292.79-71l-.34-.94 6.26-2.26.34.94zm-3.91-4.52l-.37-.93 6.8-2.71.37.93zm-5.68-4.8l-.08-1a30.58 30.58 0 008.63-2.51l.4.92a31.11 31.11 0 01-8.95 2.57z"/></g><path class="cls-6" d="M232.86 289.19A55.1 55.1 0 01220 276l.84-.55A53.64 53.64 0 00233 288.08c6.73-9.37 17.75-18.72 17.87-18.81l.64.76c-.11.1-11.37 9.64-18 19l-.41-.29z"/><path class="cls-6" d="M233.09 288.42l7.54-8.9 10.21-9.71-5.39-5.49-8.79 8.96-9.52 10.42 5.95 4.72zM248.23 261.32l6.06-6.54 3.75-3.78 2.49-2.45 6.24 3.58 1.83 1.14-4.16 3.21-4.87 4.16-4.2 4.99-7.14-4.31zM271.3 251l-4.87-2.45-4.03-3.05 6.52-1.77 6.49-1.75 2.98-.8 4.48 4.44 1.36 1.53-7.88 1.68-5.05 2.17zM290.92 246.52l-4.14-4.36-3.91-4.38 17.86-.56 6.8-.85 6.8-.3 3.52 5.52 1.36 1.85.7 2.06-9.49-.06-10.15.4-9.35.68zM268.98 113.07l2.59-2.29h-8.2l-2.39 1.99 8 .3zM273.76 111.48l4.29 1.08 1.61.28-1.61 1.76-6.48-1.05 2.19-2.07zM276.63 117.87l4.88 2.27-1.85 1.42-6.43-1.46 3.4-2.23zM284.8 120.72l6.51 1.25-3.25 2.15-6.09-1.19 2.83-2.21zM225.44 63.01l13.6 3.4-3.97 2.7-13.77-3.27 4.14-2.83zM209.28 58.98l10.57 1.53-6.66 3.4-7.6-1.75 3.69-3.18zM206.1 57.78l-8.78-3.22-4.37 4.08 8.11 2.44 5.04-3.3zM181.16 28.86l5.27-6.67-7.76.51-8.99.85-7.46.68-3.32.11-3.65 4.81-.74 1.71 7.83-1.3 8.9-.79 9.92.09zM193.41 21.91h7.75l-2.65 3.83-8.79.16 3.69-3.99zM203.21 22.41l6.35.29-1.69 2.61-5.68-.29 1.02-2.61zM206.32 29.71h12.6l-1.82 2.51-12.64-.27 1.86-2.24zM171.94 100.37l6.39.96 5.95 1.02 4.42.74-5.04 4.01-5.96-1.4-5.55-.63-4.94-.34 4.73-4.36zM192.92 104.45l3.55.62 5.61.97h2.1l-3.38 4.25-6.03-1.49-5.62-.44 3.77-3.91zM203.5 113.8h4.36l5.33.86 5.61.56-2.77 4.43-7.15-1.42-7.88-1.03 2.5-3.4zM223.79 190.03h-10.63l-3.68 6.23h10.91l.99-3.11 2.41-3.12z"/><g class="cls-2"><path class="cls-6" d="M227.9 190.99l8.22.07 7.94.95-2.69 5.39h-16.58l1.41-3.83 1.7-2.58zM227.76 428.56l5.6-5.67 1.42-2.48.99-2.07-5.72-4.59-.52-1.56-8.36 10.56-6.52 6.1 13.11-.29z"/></g><path class="cls-6" d="M205.86 387.88l4.11-7.57 1.94-8.37.62-5.1 6.18 5.53-3.25 11.19-2.42 12.33-3.92-4.6-3.26-3.41zM214.3 361.24l4.41-9.92 4.66-9.64 5.88 5.03-4.58 9-4.7 10.76-5.67-5.23zM224.72 336.08l7.88-9.49 3.67-4.82h8.57l-3.19 5.03-5.6 8.64-3.96 6.24-7.37-5.6zM75.83 93.06h26.73l-4.62 3.57-3.41 3.74H69.27l6.56-7.31zM46.77 93.93l13.09-.67 5.62-1.31h3.79l-7.03 7.69h-8.5l-6.12.73-5.81.74 4.96-7.18z"/><g class="cls-2"><path class="cls-6" d="M36 97.46L32.31 103l-9.21 1.7-5.39 1.94 2.7-5.53 1.7-2.66 7.76-1.73H36v.74zM8.5 97.33l7.23-8.32-7.23.81-9.64 1.14-.56 6.5 1.58.99 8.62-1.12z"/></g><path class="cls-6" d="M106.16 103.73h12.04l7.23.72-2.41 5.84h-9.35l-10.33-1.23 2.82-5.33zM130.39 105.27h11.34l15.31 1.83-11.91 1.96-7.23 2.73-6.94-.68-2.92-.47 2.35-5.37zM149.53 19.49l-10.49-.45h-9.07l-4.11 4.82-1.56 1.88 16.72.16 4.68-3.99 3.83-2.42zM124.3 17.82l-9.07-.71-5.75-.42-4.72 5.5 5.79.51 9.59 1.16 4.16-6.04zM117.07.39l-8.93 1.12-4.39.71-5.11 5.11h1.14l3.26.57 7.79-1.56 3.7-2.26 2.54-3.69zM98.64.39L86.6 2.5l-6.95.58-3.12 5.98h9.81l6.49-1.16L98.64.39z"/><g class="cls-2"><path class="cls-6" d="M74.41-1.17L69.73 2.5l-13.89-.28h-4.82l3.26-3.67-5.24-.14-4.11 3.81-7.8.28-8.36 1.65h-2.41l3.69-6.88 44.36 1.56z"/></g><path class="cls-6" d="M569.48 139.46l-12.62-.9-14.03-2.07-5.24 7.47 12.76 1 12.21 1.13 6.92-6.63zM577.27 139.46l15.31 1.32 15.02 1.63-6.66 6.29-21.97-1.95h-8.78l7.08-7.29zM619.25 144.08l11.46.59 9.49 2.08 6.52 1.95-6.66 4.54-13.46-2.05-16.16-1.13 8.81-5.98zM498.75 265.4h13.94l13.84-.28-8.5 8.86-27.78-1.04 8.5-7.54zM535.6 265.12h22.58l-7.41 5.84h-21.26l6.09-5.84zM567.07 264.01h12.04l6.38-.71-7.34 6.24-6.12 1.42-12.62 1.01 7.66-7.96zM541.56 333.79h17.85l18-1.24-6.35 9.27-11.57.84h-23.46l5.53-8.87zM585.33 332.55l16.32-.93 4.39-.71 3.29 4.96 3.94 4.39h-33.16l5.22-7.71zM707.38 94.63h31.26l-6.6 7.8h-11.33l-9.64.71-7.71 1.19h-4.2l8.22-9.7z"/><g class="cls-2"><path class="cls-6" d="M743.71 96.03l7.61-1.67-.26 5.67-13.91 1.41 4.82-5.41h1.74z"/></g><path class="cls-6" d="M730.91 25.76h17.29l-5.38 4.25-3.26 1.62h-14.32l5.67-5.87zM700.01 21.65l11.91 2.69 10.49 1.42-4.25 2.93-1.42 2.94-11.34-1.33-13.04-.85 7.65-7.8zM693.49 21.26h-16.13l-12.76-2.02-7.39 7.7h11.65l11.88 1.27 6.49-1.27 6.26-5.68zM663.19 11.87l-14.48-1.42-5.67 5.22 15.02 1.3 5.13-5.1zM643.04 6.77l-8.51-2.27-5.95 4.98v.97l8.51.57 5.95-4.25zM628.58 4.5l-6.23-2.83L617.24 0l-7.37 6.48 9.36 1.28 3.97 1.12 5.38-4.38z"/><g class="cls-2"><path class="cls-6" d="M608.74-1.17l-5.95 4.55-17.86-2.8-.29-3.45 24.1 1.7z"/></g><path class="cls-22" d="M132.8 61.45s1.28-2.53 15.31-9c9-4.16 13.89-12.76 14.45-19.65l-13.86 2.5s3.4-12.45 11.47-17.44a34.56 34.56 0 00-12.49 9.36c-5.81 6.8-9.49 11-9.49 11l10.2-1.7a14.24 14.24 0 01-2.55 12.19c-4.23 5.84-10.77 6.52-13 12.73z"/><path class="cls-6" d="M206.12 381.86a1.18 1.18 0 10-1.18-1.17 1.17 1.17 0 001.18 1.17zM224 415.65a1.18 1.18 0 100-2.35 1.18 1.18 0 000 2.35zM219.89 420.52a1.18 1.18 0 10-1.18-1.18 1.17 1.17 0 001.18 1.18zM214.65 425.81a1.18 1.18 0 000-2.35 1.18 1.18 0 100 2.35zM208.47 375.94a1.18 1.18 0 100-2.35 1.18 1.18 0 000 2.35zM209.65 371a1.18 1.18 0 10-1.18-1.18 1.18 1.18 0 001.18 1.18zM213.46 357.1a1.18 1.18 0 10-1.17-1.18 1.18 1.18 0 001.17 1.18zM216.53 351.5a1.18 1.18 0 10-1.18-1.18 1.18 1.18 0 001.18 1.18zM218.5 345.31a1.18 1.18 0 10-1.18-1.18 1.17 1.17 0 001.18 1.18zM225.61 331.72a1.18 1.18 0 000-2.35 1.18 1.18 0 100 2.35zM230.12 325.81a1.18 1.18 0 10-1.18-1.18 1.18 1.18 0 001.18 1.18zM229.65 278.26a1.18 1.18 0 10-1.18-1.18 1.18 1.18 0 001.18 1.18zM234.78 272.37a1.18 1.18 0 10-1.18-1.17 1.17 1.17 0 001.18 1.17zM239.93 267a1.18 1.18 0 10-1.18-1.17 1.17 1.17 0 001.18 1.17zM249.66 256.54a1.18 1.18 0 10-1.18-1.17 1.17 1.17 0 001.18 1.17zM254.5 250.9a1.18 1.18 0 10-1.18-1.18 1.18 1.18 0 001.18 1.18zM266.58 242a1.18 1.18 0 000-2.35 1.18 1.18 0 100 2.35zM272.14 239.63a1.18 1.18 0 10-1.18-1.18 1.18 1.18 0 001.18 1.18zM240.27 190a1.18 1.18 0 10-1.18-1.18 1.17 1.17 0 001.18 1.18zM234.42 189.43a1.18 1.18 0 100-2.35 1.18 1.18 0 000 2.35zM220.49 188.72a1.18 1.18 0 10-1.17-1.18 1.18 1.18 0 001.17 1.18zM291.61 235.17a1.18 1.18 0 10-1.18-1.17 1.17 1.17 0 001.18 1.17zM300.21 235a1.18 1.18 0 10-1.18-1.17 1.17 1.17 0 001.18 1.17zM306.69 233.87a1.18 1.18 0 10-1.18-1.18 1.18 1.18 0 001.18 1.18zM237.35 64.52a1.18 1.18 0 10-1.18-1.17 1.17 1.17 0 001.18 1.17zM216.18 58.92a1.18 1.18 0 100-2.35 1.18 1.18 0 000 2.35zM203.89 55.74a1.18 1.18 0 10-1.17-1.18 1.18 1.18 0 001.17 1.18zM215 28.88a1.18 1.18 0 10-1.18-1.18 1.17 1.17 0 001.18 1.18z"/><path class="cls-6" d="M214.91 28.82a1.18 1.18 0 000-2.35 1.18 1.18 0 100 2.35zM210.51 28.82a1.18 1.18 0 10-1.18-1.17 1.17 1.17 0 001.18 1.17zM199.53 20.67a1.18 1.18 0 10-1.18-1.18 1.18 1.18 0 001.18 1.18zM183.24 20.67a1.18 1.18 0 10-1.18-1.18 1.17 1.17 0 001.18 1.18zM175.87 21.35a1.18 1.18 0 10-1.18-1.18 1.17 1.17 0 001.18 1.18zM166.94 21.85a1.18 1.18 0 10-1.18-1.18 1.18 1.18 0 001.18 1.18zM144.89 17.82a1.18 1.18 0 10-1.18-1.17 1.17 1.17 0 001.18 1.17zM138.09 17.87a1.18 1.18 0 10-1.18-1.18 1.18 1.18 0 001.18 1.18zM121.92 16.65a1.18 1.18 0 10-1.17-1.18 1.18 1.18 0 001.17 1.18zM115.89 15.94a1.18 1.18 0 10-1.18-1.18 1.18 1.18 0 001.18 1.18zM145.77 103.29a1.18 1.18 0 10-1.18-1.18 1.17 1.17 0 001.18 1.18zM138 103.1a1.18 1.18 0 10-1.18-1.18 1.18 1.18 0 001.18 1.18zM119.82 101.92a1.18 1.18 0 100-2.35 1.18 1.18 0 000 2.35zM113.92 101.61a1.18 1.18 0 10-1.18-1.18 1.18 1.18 0 001.18 1.18zM96.84 91.19A1.18 1.18 0 1095.66 90a1.17 1.17 0 001.18 1.18zM87.09 90.72a1.18 1.18 0 10-1.18-1.18 1.18 1.18 0 001.18 1.18zM63.15 90.72A1.18 1.18 0 1062 89.54a1.18 1.18 0 001.18 1.18zM55.07 91.19A1.18 1.18 0 1053.9 90a1.18 1.18 0 001.17 1.18zM34.11 95.42a1.18 1.18 0 10-1.18-1.18 1.18 1.18 0 001.18 1.18zM29.61 95.61a1.18 1.18 0 000-2.35 1.18 1.18 0 100 2.35zM8.19 87.77A1.18 1.18 0 107 86.59a1.18 1.18 0 001.18 1.18zM216.69 113.8a1.18 1.18 0 000-2.35 1.18 1.18 0 100 2.35zM209.64 112.64a1.18 1.18 0 000-2.35 1.18 1.18 0 100 2.35zM203 104.45a1.18 1.18 0 10-1.18-1.18 1.18 1.18 0 001.18 1.18zM199.08 104a1.18 1.18 0 10-1.18-1.18 1.18 1.18 0 001.18 1.18zM184.58 100.68a1.18 1.18 0 10-1.17-1.18 1.18 1.18 0 001.17 1.18zM179.84 100.37a1.18 1.18 0 10-1.18-1.18 1.17 1.17 0 001.18 1.18zM289.47 120.83a1.18 1.18 0 10-1.18-1.18 1.18 1.18 0 001.18 1.18zM280.84 118.94a1.18 1.18 0 10-1.18-1.18 1.17 1.17 0 001.18 1.18zM278.48 111.48a1.18 1.18 0 10-1.18-1.18 1.18 1.18 0 001.18 1.18zM269.66 109.88a1.18 1.18 0 10-1.18-1.18 1.17 1.17 0 001.18 1.18zM565.75 330.91a1.18 1.18 0 10-1.18-1.18 1.18 1.18 0 001.18 1.18zM552.63 330.91a1.18 1.18 0 100-2.35 1.18 1.18 0 000 2.35zM597.87 329.81a1.18 1.18 0 10-1.18-1.18 1.18 1.18 0 001.18 1.18zM581.37 262.83a1.18 1.18 0 10-1.18-1.18 1.17 1.17 0 001.18 1.18zM577 262.83a1.18 1.18 0 10-1.18-1.18 1.17 1.17 0 001.18 1.18zM555.94 262.83a1.18 1.18 0 10-1.17-1.18 1.18 1.18 0 001.17 1.18zM546.65 262.83a1.18 1.18 0 10-1.18-1.18 1.17 1.17 0 001.18 1.18zM520.74 262.6a1.18 1.18 0 10-1.18-1.18 1.17 1.17 0 001.18 1.18zM510.34 262.82a1.16 1.16 0 001.11-1.23 1.18 1.18 0 10-1.11 1.23zM643.77 144.73a1.18 1.18 0 10-1.18-1.18 1.18 1.18 0 001.18 1.18zM636.21 144.08a1.18 1.18 0 100-2.35 1.18 1.18 0 000 2.35zM628.66 142.9a1.18 1.18 0 10-1.18-1.17 1.17 1.17 0 001.18 1.17zM606.91 139.86a1.18 1.18 0 10-1.18-1.18 1.18 1.18 0 001.18 1.18zM597.9 139.86a1.18 1.18 0 10-1.18-1.18 1.17 1.17 0 001.18 1.18zM587.72 138.1a1.18 1.18 0 10-1.18-1.18 1.18 1.18 0 001.18 1.18zM565.91 136.85a1.18 1.18 0 10-1.17-1.18 1.18 1.18 0 001.17 1.18zM557.3 136.49a1.18 1.18 0 10-1.17-1.18 1.18 1.18 0 001.17 1.18zM550 134.83a1.18 1.18 0 10-1.18-1.18 1.18 1.18 0 001.18 1.18zM734.27 92a1.18 1.18 0 10-1.18-1.18 1.17 1.17 0 001.18 1.18zM725.79 92a1.18 1.18 0 10-1.18-1.18 1.18 1.18 0 001.18 1.18zM717.72 93.16a1.18 1.18 0 100-2.35 1.18 1.18 0 000 2.35zM747 24.83a1.18 1.18 0 10-1.18-1.18 1.17 1.17 0 001.18 1.18zM739.91 24.49a1.18 1.18 0 10-1.18-1.18 1.17 1.17 0 001.18 1.18zM715.92 22.82a1.18 1.18 0 10-1.17-1.17 1.17 1.17 0 001.17 1.17zM709.06 21.65a1.18 1.18 0 10-1.18-1.18 1.17 1.17 0 001.18 1.18zM682 19.33a1.18 1.18 0 10-1.18-1.18 1.18 1.18 0 001.18 1.18zM672.28 18.59a1.18 1.18 0 10-1.18-1.18 1.18 1.18 0 001.18 1.18zM691.75 18.94a1.18 1.18 0 10-1.18-1.17 1.17 1.17 0 001.18 1.17zM661.56 10.45a1.18 1.18 0 10-1.17-1.17 1.17 1.17 0 001.17 1.17zM656.4 10.06a1.18 1.18 0 100-2.35 1.18 1.18 0 000 2.35z"/><g class="cls-2"><path class="cls-6" d="M640.93 4.76a1.18 1.18 0 10-1.18-1.18 1.17 1.17 0 001.18 1.18zM627.6 1.87a1.18 1.18 0 10-1.17-1.18 1.17 1.17 0 001.17 1.18z"/><path class="cls-22" d="M681.17 310.52a3.56 3.56 0 01-2.71-1 3.86 3.86 0 01-1-2.71l2 .11a2 2 0 00.42 1.24 1.67 1.67 0 001.25.41c1.15 0 1.43-.55 2.16-2.32a16.84 16.84 0 011.54-3.06c1.18-1.78 3.54-4.74 5.87-4.75a2.74 2.74 0 012.33 1.43c.38.61.73 1.26 1.06 1.88 1 1.86 2 3.61 3.25 3.69a1 1 0 00.51-.05 4.84 4.84 0 000-1.58 15.57 15.57 0 010-2c.12-2.11 1.25-5.13 2.85-6.34a2.63 2.63 0 012.19-.55 4.61 4.61 0 012.67 2.32c.63.95 1 1.39 1.47 1.36s1.19-2.51 1.48-3.69a12.27 12.27 0 011.11-3.35 4.63 4.63 0 013.71-2.32v2a2.68 2.68 0 00-2 1.37 12.31 12.31 0 00-.87 2.77c-.57 2.38-1.22 5.08-3.29 5.21-1.68.13-2.57-1.19-3.27-2.25-.46-.69-.9-1.35-1.43-1.47-.06 0-.23-.05-.55.19-1.07.81-2 3.23-2.06 4.86a12.28 12.28 0 000 1.72c.08 1.21.15 2.36-.62 3.13a2.47 2.47 0 01-2 .63c-2.41-.14-3.67-2.48-4.88-4.74-.33-.6-.67-1.22-1-1.77s-.55-.48-.66-.49c-.78 0-2.41 1.21-4.17 3.86a14.58 14.58 0 00-1.35 2.72c-.72 1.74-1.47 3.54-4.01 3.54zm1.47-11.11a3.21 3.21 0 01-.92-.14 1.89 1.89 0 01-1.15-.94c-.51-1-.05-2.33.48-3.86a12.44 12.44 0 00.82-3.15.93.93 0 00-.25-.8 3.33 3.33 0 00-2.26-.3l-.36-2c.26-.05 2.57-.43 3.94.77a2.84 2.84 0 01.92 2.4 13.82 13.82 0 01-.92 3.71 8.71 8.71 0 00-.6 2.23 1.35 1.35 0 001.13-.23c1-.65 1.73-2.21 1.94-4.17.34-3.06 2.22-3.92 3.74-4.61a6.23 6.23 0 001.93-1.17c2.18-2.24 5.32-2.79 7.17-1.26a2.08 2.08 0 002.35-.05 2.83 2.83 0 001-3.32c-1.25-4.79-.62-8.54 1.66-9.78l1 1.76c-1.11.61-1.8 3.22-.68 7.51a4.76 4.76 0 01-1.86 5.52 4.06 4.06 0 01-4.71-.1c-1-.86-3-.36-4.45 1.11a7.82 7.82 0 01-2.53 1.6c-1.43.65-2.36 1.08-2.58 3-.28 2.58-1.32 4.63-2.83 5.62a3.52 3.52 0 01-1.98.65z"/><path class="cls-14" d="M304.1 430.85c-.58-18.36 2.71-27.2 2.85-27.57l.93.36c0 .08-3.35 9.05-2.78 27.17z"/><path class="cls-15" d="M308.36 428.85c-.26-15.21 4.34-29.73 4.39-29.88l.95.31c0 .14-4.6 14.51-4.34 29.56z"/><path class="cls-14" d="M313.87 429.41h-1c0-16.61 6.19-36.23 6.26-36.43l.95.3c-.08.2-6.21 19.72-6.21 36.13z"/></g><path class="cls-17" d="M354.83 239.73l-.44-.9s1.22-.71 3-4.48l.29-.59v-.08c-.68-2.05-1.63-2.06-1.67-2.05l-.1-1c.07 0 1.45-.14 2.43 2 1.38-2.34 2.25-2.53 2.61-2.49l-.14 1 .07-.49v.5s-.75.17-2.11 2.72c.84 2.4 2.08 5.19 2.09 5.22l-.91.4s-1-2.2-1.79-4.39c-1.88 3.83-3.16 4.56-3.33 4.63zm-8.15-.13h-.06a1.6 1.6 0 01-1.44-1.23 10.58 10.58 0 01.48-6.48 2.27 2.27 0 012.91-1.36l-.39.92.2-.46-.19.46c-.17-.06-1-.33-1.63.88a9.58 9.58 0 00-.42 5.73c.11.35.28.53.52.54a.82.82 0 00.68-.42l.93.37a1.76 1.76 0 01-1.59 1.05zm-5-.32h-1l.14-9.41h1zm23.36-.53a1.39 1.39 0 01-.4-.06c-.51-.14-1.24-.62-1.82-2.1a6.57 6.57 0 01.47-6.22 1.66 1.66 0 011.5-1c1.2 0 2.1 1.61 2.2 1.79l-.88.48c-.23-.41-.85-1.26-1.34-1.27-.2 0-.42.17-.63.51a5.57 5.57 0 00-.39 5.34c.48 1.22 1 1.46 1.16 1.5a.39.39 0 00.35 0l.6.79a1.33 1.33 0 01-.86.24zm4.28-1.67h-1c0-.24-.44-.46-.64-.53l.29-1c.47.2 1.32.68 1.32 1.53zm-17.58 0h-1v-1h1zm-15.73 0h-1v-1h1zm24.82-9.23c-.05-.58-.2-.77-.27-.82a.17.17 0 00-.13 0l-.25-1a1.18 1.18 0 011 .19 2 2 0 01.7 1.57zm-16.95 0a2.09 2.09 0 01.74-2.63l.58.81-.29-.4.3.4c-.09.06-.82.64-.45 1.36zm-2.7-.8h-1c0-.71-.91-.93-.95-.94l.21-1a2.09 2.09 0 011.71 1.89zm24.49-.64c-.32 0-.45-.31-.5-.42a6.23 6.23 0 00-1.78-2.24c-2-1.71-3-1.88-4.14-.74s-.52 2.06-.44 2.16l-.76.65a2.54 2.54 0 01.49-3.52c2-2 3.79-.74 5.49.68a7.15 7.15 0 012.05 2.6.54.54 0 00-.5-.16l.09.41h.53l-.41.58zm-15.84-.78c-1.32-2-3.2-4.17-4.66-3.26s-1.13 1.77-1.12 1.8l-.92.38c0-.07-.66-1.67 1.52-3 1.71-1.07 3.73.13 6 3.55z"/><path class="cls-14" d="M136.79 325.81a46.34 46.34 0 01-11.88-19.07l.83-.5 11.59 12.05-.72.69-10-10.4a45.18 45.18 0 0010.85 16.48zm56.73-1.71l-.69-.72c8.6-8.24 11.76-15.72 11.79-15.8l.93.39c-.13.31-3.26 7.74-12.03 16.13zm-4.26-.36l-.67-.75a84.74 84.74 0 0011.83-13.21c4.57-6.77 7.14-7.37 7.42-7.42l.16 1-.08-.49.09.49s-2.43.58-6.76 7c-4.57 6.74-11.92 13.31-11.99 13.38zm-1.69-2.28l-.69-.73A139.78 139.78 0 00199 307.18c7-8.73 10.85-6.74 11-6.65l-.48.88.24-.44-.24.44s-3.4-1.58-9.74 6.39a144.64 144.64 0 01-12.21 13.66zM177.3 321l-.51-.86c4.39-2.6 7.43-6 11.65-10.58.92-1 1.9-2.08 3-3.22 6-6.45 11.11-7.48 11.32-7.52l.19 1s-5 1-10.78 7.22c-1.06 1.14-2 2.21-2.95 3.21-4.31 4.64-7.41 8.03-11.92 10.75zm-.17-3.45l-.68-.73c.05 0 4.55-4.16 10.08-9.55s9.34-7.33 9.5-7.41l.44.9s-3.76 1.89-9.24 7.22-10.06 9.49-10.1 9.53zm-20.19-2.66l-.66-.75c7.42-6.53 18.82-7 19.31-7v1c-.08-.05-11.5.42-18.65 6.71zm-1.81-4.28l-.44-.9c6-2.94 14.32-3.08 14.67-3.08v1c-.07-.04-8.45.1-14.23 2.94zm-10.9-1.5l-.18-1 10.55-2a83.85 83.85 0 0117.63-1.65v1a82.92 82.92 0 00-17.4 1.64zm10.69-5.77l-.46-.89a36.49 36.49 0 0120.36-2.63c11.24 1.61 15.37-3.46 15.41-3.51l.79.62c-.17.23-4.48 5.58-16.34 3.88a36.08 36.08 0 00-19.76 2.49zm-3.67-1.34l-.61-.79c.33-.26 8.3-6.35 20.82-4.08l-.17 1c-12.1-2.25-19.96 3.76-20.04 3.87zm-20.57-5.39l-.81-.57c7.71-11 5.87-19 5.85-19.11l1-.24c.05.31 1.96 8.5-6.04 19.87zm4.83-.05l-.88-.47c5.5-10.5 3.68-19.08 3.66-19.17l1-.22c.06.3 1.91 8.96-3.78 19.81zm-28.77-27.16l-1-.19c2.1-11.27 6.47-16.45 6.66-16.67l.76.65c-.03 0-4.37 5.18-6.42 16.16zm12.1-4.62l-1-.08c1.91-23.87-5-30.32-5.06-30.38l.66-.75c.32.21 7.37 6.68 5.4 31.16zm-20.27-5.47l-.9-.45c.25-.5 6.26-12.43 11.23-13.6l.23 1c-4.52.99-10.5 12.88-10.56 13zm8.15-.32l-.94-.35a26.12 26.12 0 014.79-8.39l.72.69a25.7 25.7 0 00-4.57 8zm-15.65-1.47l-1-.3c.17-.54 4.17-13.24 13.92-16.58l.32.95c-9.23 3.12-13.2 15.75-13.24 15.88zm14.68-3.32l-.89-.46a20.66 20.66 0 016.7-7.84l.53.86a19.84 19.84 0 00-6.34 7.39zm-8.11-.23l-.82-.57c.28-.4 6.85-9.72 13.76-11.26l.22 1c-6.53 1.38-13.09 10.69-13.16 10.78zM91.56 249l-.85-.53a20.92 20.92 0 019.43-8.38 15.71 15.71 0 00-11.78 8.64l-.92-.4a17 17 0 0116.74-9.33v1c-.06 0-7.45.74-12.62 9zm20.67-10.33c-3.55-7.31-12.76-8.55-12.85-8.56l.12-1c.4 0 9.85 1.32 13.62 9.11zm-2.15-9.29c-7-11.2-19.31-9.78-19.43-9.77l-.12-1c.13 0 13-1.5 20.4 10.23zM401.53 110.3a19 19 0 1119-19 19 19 0 01-19 19zm0-37a18 18 0 1018 18 18 18 0 00-18-17.98z"/><path class="cls-6" d="M399.83 262.7h-2V113.89h2zm-24-23.37l-2-.27 17.6-127.44 2 .28zm44.17-2.87L405.35 114l2-.24 14.6 122.45zM211.87 139l-.53-.84 1-.65c5.52-3.49 8.57-5.41 22.7-8.1 15.09-2.87 17.22-4.58 21.44-8 4-3.23 6.52-8.82 6.54-8.88l.92.4c-.11.24-2.62 5.87-6.83 9.26-4.65 3.75-7.13 5.38-21.88 8.18-13.95 2.66-16.94 4.54-22.35 8z"/><path class="cls-21" d="M172 196.59a.78.78 0 01-.53-.2.84.84 0 01-.26-.56 1.45 1.45 0 01.41-1 1 1 0 111.37 1.24 1.39 1.39 0 01-.94.51zm-11-9.53a.73.73 0 01-.53-.2c-.4-.35-.33-1 .14-1.55s1.13-.66 1.53-.3.32 1-.15 1.54a1.44 1.44 0 01-.99.51zM330 347.19c-.23-.48-.66-.75-1-.61s-.36.66-.12 1.13.66.75 1 .61.36-.66.12-1.13z"/><path class="cls-21" d="M317.76 356.26a1.24 1.24 0 01-1-.79 1.61 1.61 0 01-.18-.78.88.88 0 01.46-.75.87.87 0 01.87.1 1.67 1.67 0 01.51.62 1.11 1.11 0 01-.28 1.53.8.8 0 01-.38.07zm11.92-7.4a1.48 1.48 0 01-1.24-.93 1.66 1.66 0 01-.13-1.24 1 1 0 01.48-.56 1.31 1.31 0 011.63.84 1.32 1.32 0 01-.34 1.8.93.93 0 01-.4.09zm-.49-1.81c.05 0 0 .2.15.44a.7.7 0 00.33.37c-.05 0 0-.21-.15-.46a.6.6 0 00-.33-.35z"/><path class="cls-18" d="M276.8 311.9s5.24.44 7.37 1.43a47 47 0 016.1 4.12"/><path class="cls-19" d="M290 317.84a45.86 45.86 0 00-6-4c-2-1-7.15-1.39-7.2-1.39l.08-1c.22 0 5.36.46 7.54 1.48a46.74 46.74 0 016.2 4.17z"/><path class="cls-18" d="M276.94 308.23s.54-.14 3.55.71"/><path class="cls-19" d="M280.35 309.42a13 13 0 00-3.32-.7l-.22-1c.21-.05 1-.09 3.81.71z"/><path class="cls-25" d="M639.1 328a1.5 1.5 0 01-.84-.28 1.38 1.38 0 01-.63-.86.82.82 0 01.11-.6.8.8 0 01.52-.33 1.36 1.36 0 011 .26c.59.4.82 1 .52 1.46a.81.81 0 01-.68.35zm10.13-10.22a1.5 1.5 0 01-.84-.28 1 1 0 111-1.53c.59.4.81 1 .52 1.46a.82.82 0 01-.68.39zM682.36 196.77h-.05c-.53 0-.89-.6-.84-1.31s.49-1.2 1-1.18.89.6.84 1.31c-.04.69-.45 1.18-.95 1.18z"/><g class="cls-2"><path class="cls-14" d="M477.57 439.63h-1c1.69-57.36 17.06-73.53 17.72-74.19l.71.7c-.16.13-15.76 16.61-17.43 73.49z"/><path class="cls-15" d="M485.93 432.25h-1c0-48.93 18.95-70.74 19.14-70.95l.75.67c-.19.21-18.89 21.76-18.89 70.28z"/><path class="cls-14" d="M491.6 432.86l-1-.09c4.5-46.69 14.18-57.58 14.59-58l.73.68c-.09.08-9.87 11.19-14.32 57.41z"/></g><path class="cls-18" d="M339.92 385.62A16.21 16.21 0 00345 388c3.39.95 9.47 2 11 1.48 3.45-1.24 5.72-10.79 6.32-15.51a46.93 46.93 0 00-1.18-15.97"/><path class="cls-19" d="M354.66 390.09a45.73 45.73 0 01-9.8-1.64 16.14 16.14 0 01-5.24-2.44l.61-.79a15.53 15.53 0 004.9 2.27c3.74 1.05 9.4 1.94 10.67 1.49 2.94-1.05 5.28-9.47 6-15.1a46.83 46.83 0 00-1.14-15.72l1-.27a47.53 47.53 0 011.13 16.11c-.5 3.95-2.68 14.5-6.65 15.92a4.79 4.79 0 01-1.48.17z"/><path class="cls-13" d="M30 277.21c-12.31-6-23.25-10.42-23.36-10.47l.38-.92c.11 0 11.07 4.46 23.42 10.49z"/><path class="cls-6" d="M180.77 69.92a6 6 0 00-4.88.6c-3.4 2-3.69 4.25-2.55 5.38s5.38.57 5.67-2.27-1.72-2.55-1.72-2.55 1.5-1.84 3.13-1.27"/><path class="cls-6" d="M175.14 77a3.13 3.13 0 01-2.16-.69 2.57 2.57 0 01-.72-2.19c.18-1.41 1.38-2.82 3.38-4a6.69 6.69 0 014.22-.88 2.81 2.81 0 01.73.13l.35.1-.31 1a4.64 4.64 0 00-.82-.19 2.34 2.34 0 00-1.46.58 1.92 1.92 0 01.49.33 3 3 0 01.67 2.57 3.53 3.53 0 01-2.51 2.87 5.33 5.33 0 01-1.86.37zm2-6.48a5.15 5.15 0 00-1 .48c-2.32 1.35-2.8 2.62-2.89 3.25a1.6 1.6 0 00.44 1.35 3.25 3.25 0 002.93.14 2.61 2.61 0 001.89-2.11 2.16 2.16 0 00-.36-1.74 1.06 1.06 0 00-.79-.26l-1.22.14.77-1a2.61 2.61 0 01.27-.3z"/><g class="cls-2"><path class="cls-13" d="M711 420.86a77.16 77.16 0 01-11.24-.71l.15-1c10.21 1.58 25.09 0 25.24 0l.11 1c-.13.01-6.8.71-14.26.71zm-12.74-1.21l-.4-.91 22.67-9.93.4.92zm-.72-3.76l-.62-.79c7.59-6 27.28-25.84 27.28-45.57 0-10.34-2.92-16.28-5.37-19.44a13.58 13.58 0 00-5.35-4.43l.34-.94c.46.17 11.38 4.31 11.38 24.81-.03 20.13-19.99 40.29-27.69 46.36zm-10.75-42.07a36.24 36.24 0 011.73-12.08l.94.36a36 36 0 00-1.67 11.72zm28.83-4l-.84-.53c3.4-5.41 4.5-10.25 3.25-14.38a13.19 13.19 0 00-6.57-7.56l.41-.92a14.05 14.05 0 017.12 8.19c1.3 4.44.17 9.56-3.4 15.22zm-21.31-.73l-1-.07c1.69-24.16 12.21-36.21 12.31-36.33l.75.66c-.13.14-10.43 11.96-12.09 35.76z"/><path class="cls-12" d="M141.78 380.31s-16.35 29.83-33.92 49.1"/><path class="cls-9" d="M108.23 429.75l-.74-.67c17.33-19 33.69-48.72 33.86-49l.87.48c-.16.29-16.58 30.09-33.99 49.19z"/><path class="cls-12" d="M58.24 343s27.21 27.5 44.78 94.4"/><path class="cls-9" d="M102.54 437.48c-9.06-34.48-20.72-58.25-28.91-72.12-8.87-15-15.68-22-15.75-22.06l.71-.7c.27.28 27.51 28.36 44.92 94.62z"/></g><path class="cls-24" d="M140.74 269.27s-7.49-8.07-14.6-11.78"/><path class="cls-9" d="M140.37 269.61c-.07-.08-7.51-8.05-14.46-11.67l.46-.89c7.11 3.7 14.66 11.8 14.73 11.88z"/><path class="cls-21" d="M392.59 399.13L391 399a4 4 0 01-3.57-4.18c0-1.36-.45-1.44-1.55-1.62a4.49 4.49 0 01-3.47-2.08c-1.7-2.67-1.62-4.76-1.54-7v-1.51c0-2.48-3.22-4.72-9.07-8.79l-.64-.44c-6.38-4.43-8.52-13.12-9.67-17.78l-.16-.65a50.47 50.47 0 00-2.9-7.69c-.87-2-1.76-4-2.44-6.05-.52-.53-3.56-3.64-8.41-8.11-1.75-1.61-2.89-2.83-3.73-3.72-1.76-1.87-2.29-2.43-4.82-3a6.27 6.27 0 01-3.76-2.15 4.17 4.17 0 00-2.74-1.53c-2.27-.38-4.78.28-7.95 1.13-1.45.38-2.95.78-4.62 1.13-4.57 1-9.8 1.52-11.27 1.67a81.06 81.06 0 00-.52 11.42 26.7 26.7 0 004.18 13.66c3 5 9.18 10 9.24 10.07l1.09.89h-1.4c-.21 0-5.17-.1-12.58-9s-8.62-12-8.62-17.52a63.24 63.24 0 011.15-11c0-.22.24-7.52 3.43-11.22.41-.78 4.33-8.14 9.58-11.22 1.47-.87 2.85-1.85 4.19-2.79 3.58-2.55 7-4.95 11.63-4.95a68 68 0 019.5.88 65.41 65.41 0 008.93.84c6.39 0 11 3.41 12.63 6.79a24.17 24.17 0 011.2 2.95c.64 1.82.92 2.45 2 2.45 2.4 0 4.37 2 5 5.21a33.13 33.13 0 01.5 6.18 15.63 15.63 0 012.62 7.37c0 .63.11 1.29.17 2 .33 3.71.7 7.91-1 11.59a24.36 24.36 0 01.54 7.75c.57.86 3.29 5 5 7.78a20.41 20.41 0 009.67 8 9 9 0 015.06 4.2 13.84 13.84 0 002.17 2.69l1.07 1a9.28 9.28 0 005.81 3.13 9.34 9.34 0 015.46 2.92c.38.37.77.75 1.25 1.15a5.87 5.87 0 011.22 6.91l-.94 1.3v-1.6a2 2 0 00-.57-1.3 3.17 3.17 0 00-2.31-.74c-3.1 0-5.06-3.07-5.66-4.17a10 10 0 01-6.49-.41 16.5 16.5 0 01-4.31-3.43 14.29 14.29 0 01-.37 6c-1.15 3.71-.43 5.42 1 6.85 1.74 1.75 2.2 3.25 1.53 5-.58 1.52-1 2.58.42 3.75zm-61.38-77.51a9.54 9.54 0 011.52.12 5 5 0 013.29 1.84 5.35 5.35 0 003.25 1.85c2.84.61 3.52 1.33 5.34 3.27.82.87 1.95 2.08 3.68 3.67 5.33 4.92 8.49 8.19 8.53 8.23l.11.18c.67 2 1.57 4.09 2.44 6.07a52.28 52.28 0 013 7.86l.16.65c1.12 4.53 3.21 13 9.27 17.2l.64.44c6.32 4.4 9.5 6.61 9.5 9.61v1.55c-.08 2.14-.15 4 1.38 6.4a3.49 3.49 0 002.8 1.63c1.11.19 2.38.4 2.38 2.61a3 3 0 001.17 2.6 4.56 4.56 0 01.33-3.4c.45-1.19.4-2.3-1.29-4-2-2-2.37-4.27-1.26-7.86a14.49 14.49 0 000-7.29l.88-.44a18.72 18.72 0 005.21 4.6c2.62 1.31 6.11.25 6.15.24l.41-.13.19.39s1.89 4 5 4a4.1 4.1 0 013 1.05 2.81 2.81 0 01.35.44 4.92 4.92 0 00-1.46-4.29c-.51-.42-.92-.82-1.31-1.2a8.43 8.43 0 00-5-2.67 10.18 10.18 0 01-6.29-3.37l-1.06-1a14.73 14.73 0 01-2.32-2.87 8.22 8.22 0 00-4.58-3.82 21.41 21.41 0 01-10.17-8.43c-1.93-3.07-5.08-7.89-5.12-7.94l-.1-.16v-.19a24.16 24.16 0 00-.54-7.72v-.17l.08-.16c1.63-3.47 1.27-7.59.94-11.23-.06-.69-.12-1.35-.16-2a14.82 14.82 0 00-2.53-7l-.11-.14v-.17a32.76 32.76 0 00-.48-6.12c-.56-2.69-2.15-4.42-4.05-4.42s-2.37-1.38-3-3.12a23.45 23.45 0 00-1.15-2.83c-1.55-3.11-5.78-6.24-11.74-6.24a66.38 66.38 0 01-9.07-.85 68.14 68.14 0 00-9.36-.87c-4.34 0-7.6 2.31-11 4.76-1.35 1-2.75 2-4.26 2.84-5.17 3-9.18 10.79-9.22 10.87l-.07.1c-3 3.41-3.24 10.65-3.24 10.72a62.37 62.37 0 00-1.14 10.85c0 5.22 1.16 8.23 8.39 16.88 4.38 5.25 7.86 7.3 9.87 8.1a45.74 45.74 0 01-7.85-8.93 27.54 27.54 0 01-4.32-14.12 85.49 85.49 0 01.57-12l.05-.4h.4a114.69 114.69 0 0011.55-1.69c1.64-.35 3.13-.74 4.56-1.12a28.3 28.3 0 016.86-1.26z"/><path class="cls-19" d="M338.59 372.72a7.74 7.74 0 01-4.2-1.59l.62-.79s2.95 2.28 5.17.94a2 2 0 001-1.26 4.69 4.69 0 00-.65-2.95l.85-.52a5.59 5.59 0 01.77 3.71 3 3 0 01-1.42 1.88 4 4 0 01-2.14.58zm-183-162.46l-1-.09.16-1.81a7.35 7.35 0 01-3.38-3.13l-3.43-.39.11-1 4 .45.12.24a6.39 6.39 0 003.3 3l.39.12z"/></svg>
