<svg version="1.1" id="Слой_1" xmlns="http://www.w3.org/2000/svg" xmlns:xlink="http://www.w3.org/1999/xlink" x="0" y="0" viewBox="0 0 749.9 428" xml:space="preserve"><style>.st2{fill:#263796}.st2,.st3,.st4,.st5{clip-path:url(#SVGID_2_)}.st3{stroke:#1e2551;stroke-width:3.6033;fill:none}.st4,.st5{fill:#b08852}.st5{fill:none;stroke:#655244;stroke-width:12.6116}.st10,.st11{clip-path:url(#SVGID_4_);fill:#a16e46}.st11{fill:none;stroke:#655244;stroke-width:3.6033}.st16{fill:#a16e46}.st17{stroke-width:3.6033}.st17,.st20,.st23{fill:none;stroke:#655244}.st20{clip-path:url(#SVGID_8_);stroke-width:3.6033}.st23{stroke-width:2.5223}.st24{fill:#806f59}.st25{clip-path:url(#SVGID_10_);fill:none;stroke:#655244;stroke-width:3.6033}.st27{fill:#b63530}</style><defs><path id="SVGID_1_" d="M0 0h749.9v428H0z"/></defs><clipPath id="SVGID_2_"><use xlink:href="#SVGID_1_" overflow="visible"/></clipPath><path clip-path="url(#SVGID_2_)" fill="#1e2551" d="M-257-358.1v788.8h1364.8v-788.8H-257z"/><path clip-path="url(#SVGID_2_)" fill="none" stroke="#806f59" stroke-width="3.603" d="M-257-358.1v788.8h1364.8v-788.8H-257z"/><path class="st2" d="M-121-358.2s-15.3 301.3-137.9 533.7l-15.3 263 143-10.2s4.7-43.4 3.6-71.5-3.6-33.2-3.6-33.2 13.3-14.8 12.3-26.5c-1-11.8-6.1-16.8-7.1-24.5-1-7.7-10.2-16.3-10.2-16.3s329.4-364.1 472.4-614.4H-121v-.1z"/><path class="st3" d="M-121-358.2s-15.3 301.3-137.9 533.7l-15.3 263 143-10.2s4.7-43.4 3.6-71.5-3.6-33.2-3.6-33.2 13.3-14.8 12.3-26.5c-1-11.8-6.1-16.8-7.1-24.5-1-7.7-10.2-16.3-10.2-16.3s329.4-364.1 472.4-614.4H-121v-.1zm-136.2 688.6S3.3 52.9 23.7-352.2m-273.8 675.8S-81.8 190.8 39.1-147.9M-49.5 53.5S144.4-263.7 192.2-359M10.1 49.5s-141.3 228.1-277.5 304.7"/><path class="st2" d="M436.3-360.8s38.3 112.4 97 237.5 209.4 469.8 467.3 561.8l109.8-5.1v-286s-64.9-71.5-109.8-171.1c-44.9-99.6-74.1-171.1-68.9-339.6l-495.4 2.5z"/><path class="st3" d="M436.3-360.8s38.3 112.4 97 237.5 209.4 469.8 467.3 561.8l109.8-5.1v-286s-64.9-71.5-109.8-171.1c-44.9-99.6-74.1-171.1-68.9-339.6l-495.4 2.5zm110.7 3.5s91.9 481.8 238.3 645.2"/><path class="st4" d="M207.4 69.1c116.6 0 211.5-90.4 211.5-201.6 0-111.1-94.9-201.6-211.5-201.6C90.8-334-4.1-243.6-4.1-132.5c0 111.2 94.9 201.6 211.5 201.6z"/><path class="st5" d="M207.4 69.1c116.6 0 211.5-90.4 211.5-201.6 0-111.1-94.9-201.6-211.5-201.6C90.8-334-4.1-243.6-4.1-132.5c0 111.2 94.9 201.6 211.5 201.6z"/><path class="st4" d="M659.8 74.4c117.8 0 213.6-91.6 213.6-204.2S777.6-334 659.8-334s-213.6 91.6-213.6 204.2S542 74.4 659.8 74.4z"/><path class="st5" d="M659.8 74.4c117.8 0 213.6-91.6 213.6-204.2S777.6-334 659.8-334s-213.6 91.6-213.6 204.2S542 74.4 659.8 74.4z"/><path d="M511.8 197.5c40.6 0 73.7-32.5 73.7-72.4 0-39.9-33.1-72.4-73.7-72.4s-73.7 32.5-73.7 72.4c0 39.9 33.1 72.4 73.7 72.4z" fill="#b08852"/><path d="M511.8 197.5c40.6 0 73.7-32.5 73.7-72.4 0-39.9-33.1-72.4-73.7-72.4s-73.7 32.5-73.7 72.4c0 39.9 33.1 72.4 73.7 72.4h0z" fill="none" stroke="#655244" stroke-width="12.612"/><defs><path id="SVGID_3_" d="M0 0h749.9v428H0z"/></defs><clipPath id="SVGID_4_"><use xlink:href="#SVGID_3_" overflow="visible"/></clipPath><path d="M-46.5 450.7s1.3-10.6-1.3-57c-2.7-46.4-15.9-122-10.6-196.2C-53.1 123.3-29 76.9 15.8 43.7 60.7 10.6 71.1 9.2 76.6-1.4 82.1-12 87.2-22.6 87.2-22.6s1.5-42.4 6.9-62.3c5.3-19.9 1.3-34.5 11.9-62.3 10.6-27.8 22.5-42.4 37.1-50.4 14.6-8 29-22.5 50.2-22.5s53 1.3 69 13.3c15.9 11.9 42.7 29.2 48 67.6 5.3 38.4-11.4 80.1-11.4 80.1s-20.2 24.9-39 36.5c0 0-18.6 21.2-30.5 31.8-11.9 10.6-9.5 31.8-9.5 31.8s11 14.5 21.4 26.5c10.4 12 33.2 26.5 41.1 47.7 8 21.2 17.2 46.4 17.2 46.4s14.1 27.8 26.3 53c12.2 25.2 21.2 42.4 47.7 50.4 26.5 8 66.5 10.6 66.5 10.6l5.3 14.6-177.8 164.5-314.1-4z" clip-path="url(#SVGID_4_)" fill="#b63530"/><path d="M-46.5 450.7s1.3-10.6-1.3-57c-2.7-46.4-15.9-122-10.6-196.2C-53.1 123.3-29 76.9 15.8 43.7 60.7 10.6 71.1 9.2 76.6-1.4 82.1-12 87.2-22.6 87.2-22.6s1.5-42.4 6.9-62.3c5.3-19.9 1.3-34.5 11.9-62.3 10.6-27.8 22.5-42.4 37.1-50.4 14.6-8 29-22.5 50.2-22.5s53 1.3 69 13.3c15.9 11.9 42.7 29.2 48 67.6 5.3 38.4-11.4 80.1-11.4 80.1s-20.2 24.9-39 36.5c0 0-18.6 21.2-30.5 31.8-11.9 10.6-9.5 31.8-9.5 31.8s11 14.5 21.4 26.5c10.4 12 33.2 26.5 41.1 47.7 8 21.2 17.2 46.4 17.2 46.4s14.1 27.8 26.3 53c12.2 25.2 21.2 42.4 47.7 50.4 26.5 8 66.5 10.6 66.5 10.6l5.3 14.6-177.8 164.5-314.1-4h0z" clip-path="url(#SVGID_4_)" fill="none" stroke="#655244" stroke-width="9.008"/><path class="st10" d="M104.7 17.3s13.3-16 17.2-29.2c4-13.2 11.9-39.8 13.3-47.7 1.3-8 1.3-14.6 1.3-14.6s-6.6-1.3 0-21.2l15.9-14.6s9.3-2.7 17.2-6.6c8-4 18.6-10.6 23.9-10.6 5.3 0 11.5-2.7 26.3-1.4 14.8 1.4 34.3 6.7 42.4 14.6 8.2 8 28.1 22.6 29.4 33.2 1.3 10.6.5 27.9-.8 31.9s-8.7 9.3-17.8 17.2c-9.1 8-17.2 10.5-29.2 21.2C232 .1 218.7 6.7 209.4 8c-9.3 1.3-23.9 5.3-23.9 5.3s2.4 15.9-8.2 27.8c-10.6 12-22.3 17.3-22.3 17.3S129.2 46 121.9 39.9c-8-6.7-17.2-22.6-17.2-22.6z"/><path class="st11" d="M104.7 17.3s13.3-16 17.2-29.2c4-13.2 11.9-39.8 13.3-47.7 1.3-8 1.3-14.6 1.3-14.6s-6.6-1.3 0-21.2l15.9-14.6s9.3-2.7 17.2-6.6c8-4 18.6-10.6 23.9-10.6 5.3 0 11.5-2.7 26.3-1.4 14.8 1.4 34.3 6.7 42.4 14.6 8.2 8 28.1 22.6 29.4 33.2 1.3 10.6.5 27.9-.8 31.9s-8.7 9.3-17.8 17.2c-9.1 8-17.2 10.5-29.2 21.2C232 .1 218.7 6.7 209.4 8c-9.3 1.3-23.9 5.3-23.9 5.3s2.4 15.9-8.2 27.8c-10.6 12-22.3 17.3-22.3 17.3S129.2 46 121.9 39.9c-8-6.7-17.2-22.6-17.2-22.6z"/><path class="st10" d="M779.1-61.7l-21.2-7.4-4.2-6.4s4.2-17 4.2-27.6c0 0 7.4-4.2 4.2-21.2s-6.9-23.4-6.9-34c0-10.6-5.8-18-10.6-20.2-4.8-2.1-9.1-3.2-9.1-3.2s3.3-12.7-12.2-19.1c-15.4-6.4-21.2-7.4-21.2-7.4s-7.5-6.4-14.4-9.6c-6.9-3.2-15.9-8.5-30.8-9.6-14.9-1.1-28.7 1.1-28.7 1.1s-6.4-1.1-10.6 6.4c0 0-12.7-1.1-23.4 4.2-10.6 5.3-23.4 12.7-23.4 12.7s-12.7 15.9-21.2 29.7c-8.5 13.8-8.5 18-8.5 26.5s-7.4 39.2-1.1 49.9c6.4 10.6 16.4 20.2 20.2 26.6 3.8 6.4 14.4 17 14.4 17s3.7 10.6 11.1 23.4c7.4 12.7 17.5 35 19.1 46.7 1.6 11.7 22.3 35.1 42.5 35 20.2 0 20.2 1 29.7-10.6 9.6-11.6 15.9-10.6 15.9-10.6l6.4 4.3 30.8 56.3 14.4 1.1 44-109.3-9.4-44.7z"/><path d="M779.1-61.7l-21.2-7.4-4.2-6.4s4.2-17 4.2-27.6c0 0 7.4-4.2 4.2-21.2s-6.9-23.4-6.9-34c0-10.6-5.8-18-10.6-20.2-4.8-2.1-9.1-3.2-9.1-3.2s3.3-12.7-12.2-19.1c-15.4-6.4-21.2-7.4-21.2-7.4s-7.5-6.4-14.4-9.6c-6.9-3.2-15.9-8.5-30.8-9.6-14.9-1.1-28.7 1.1-28.7 1.1s-6.4-1.1-10.6 6.4c0 0-12.7-1.1-23.4 4.2-10.6 5.3-23.4 12.7-23.4 12.7s-12.7 15.9-21.2 29.7c-8.5 13.8-8.5 18-8.5 26.5s-7.4 39.2-1.1 49.9c6.4 10.6 16.4 20.2 20.2 26.6 3.8 6.4 14.4 17 14.4 17s3.7 10.6 11.1 23.4c7.4 12.7 17.5 35 19.1 46.7 1.6 11.7 22.3 35.1 42.5 35 20.2 0 20.2 1 29.7-10.6 9.6-11.6 15.9-10.6 15.9-10.6l6.4 4.3 30.8 56.3 14.4 1.1 44-109.3-9.4-44.7h0z" clip-path="url(#SVGID_4_)" fill="none" stroke="#655244" stroke-width="10.81"/><path d="M718.4 83.5h18s6.4-18 21.2-56.2c14.8-38.2 20.1-91.2 20.1-91.2l14.4-5.3 42.4 25.4s17.9-3.2 46.1 10.6c28.1 13.8 72.1 27.6 105 78.5 32.9 50.9 29.7 61.5 41.4 97.6 11.7 36 17.6 56.4 19.7 65.7 2.1 9.3 5.8 26.9 7.4 33.7 1.5 6.5 1.6 10.8 1.6 10.8L899.8 303 728.5 200.1 718.4 83.5z" clip-path="url(#SVGID_4_)" fill="#57679b"/><path class="st11" d="M718.4 83.5h18s6.4-18 21.2-56.2c14.8-38.2 20.1-91.2 20.1-91.2l14.4-5.3 42.4 25.4s17.9-3.2 46.1 10.6c28.1 13.8 72.1 27.6 105 78.5 32.9 50.9 29.7 61.5 41.4 97.6 11.7 36 17.6 56.4 19.7 65.7 2.1 9.3 5.8 26.9 7.4 33.7 1.5 6.5 1.6 10.8 1.6 10.8L899.8 303 728.5 200.1 718.4 83.5z"/><path d="M712.7 40s6.3 9.5 11.1 36.1c4.8 26.5 4.2 70 4.2 70s6.4 43.4 28.6 59.4c22.3 15.9 125.1 70 138.9 71.1 13.8 1.1 69.4 1.1 78.5-1.1 9.1-2.1 42.4-22.3 59.4-27.6 17-5.3 26.5-7.4 26.5-3.2s2.6 23.4 10.6 37.1c8 13.8 35 40.3 35 40.3l-.5 137.8-477.1-11.6s-18.1-10.7-40.9-46.7c-22.8-36-46.7-159.1-46.7-159.1l42.4-12.7 57.3-2.1s22.8-20.1 26.5-37.1c3.8-17 18-30.8 18-30.8s-1.1-27.6 3.2-48.8c4.2-21.2 11.7-45.6 10.6-57.3-1.1-11.7-1.1-20.1-1.1-20.1l15.5 6.4z" clip-path="url(#SVGID_4_)" fill="#ae5b33"/><path class="st11" d="M712.7 40s6.3 9.5 11.1 36.1c4.8 26.5 4.2 70 4.2 70s6.4 43.4 28.6 59.4c22.3 15.9 125.1 70 138.9 71.1 13.8 1.1 69.4 1.1 78.5-1.1 9.1-2.1 42.4-22.3 59.4-27.6 17-5.3 26.5-7.4 26.5-3.2s2.6 23.4 10.6 37.1c8 13.8 35 40.3 35 40.3l-.5 137.8-477.1-11.6s-18.1-10.7-40.9-46.7c-22.8-36-46.7-159.1-46.7-159.1l42.4-12.7 57.3-2.1s22.8-20.1 26.5-37.1c3.8-17 18-30.8 18-30.8s-1.1-27.6 3.2-48.8c4.2-21.2 11.7-45.6 10.6-57.3-1.1-11.7-1.1-20.1-1.1-20.1l15.5 6.4zM593.9 335.3s5.6 48.6 20.5 84.6"/><path d="M345.3 453.6s18-17 35-41.4 18-28.6 18-28.6 71.1 9.5 106.1-7.4c35-17 51.4-24.4 68.9-68.9 17.5-44.5 11.8-92.3 1.6-101.8-10.1-9.5-34.5-19.1-34.5-19.1s22.3-24.3 15.4-56.1-43.5-38.6-56.7-35.5c-12 2.8-20.7 8.3-25.5 18-3 6-8.3 25.7 3.2 49.3 6.6 13.6 12.5 21.5 12.5 21.5s-8.2.7-23.1 23c-14.9 22.3-36.6 43.5-32.9 60.4l3.8 17s-37.7-12.7-62.1-1.1c-24.4 11.7-33.4 22.2-44 60.4-10.6 38.2-56.8 111.4-56.8 111.4l71.1-1.1z" clip-path="url(#SVGID_4_)" fill="#b6b0ac"/><path class="st11" d="M345.3 453.6s18-17 35-41.4 18-28.6 18-28.6 71.1 9.5 106.1-7.4c35-17 51.4-24.4 68.9-68.9 17.5-44.5 11.8-92.3 1.6-101.8-10.1-9.5-34.5-19.1-34.5-19.1s22.3-24.3 15.4-56.1-43.5-38.6-56.7-35.5c-12 2.8-20.7 8.3-25.5 18-3 6-8.3 25.7 3.2 49.3 6.6 13.6 12.5 21.5 12.5 21.5s-8.2.7-23.1 23c-14.9 22.3-36.6 43.5-32.9 60.4l3.8 17s-37.7-12.7-62.1-1.1c-24.4 11.7-33.4 22.2-44 60.4-10.6 38.2-56.8 111.4-56.8 111.4l71.1-1.1z"/><path class="st16" d="M559.4 299.8s10.6-10.7 8.5-20.2c-2.1-9.5-16-11.7-13.8-20.2 2.1-8.5 13.8 2.4 13.8 2.4s-8.2-8-5.1-13.3 7.2-.9 7.2-.9-4-4.4-.3-8.7c3.5-4 9 2.9 9 2.9s-3-8 1.9-8 20.3 20.1 15.5 40.3C591.3 294.5 586 302 586 302l-26.6-2.2z"/><path class="st17" d="M559.4 299.8s10.6-10.7 8.5-20.2c-2.1-9.5-16-11.7-13.8-20.2 2.1-8.5 13.8 2.4 13.8 2.4s-8.2-8-5.1-13.3 7.2-.9 7.2-.9-4-4.4-.3-8.7c3.5-4 9 2.9 9 2.9s-3-8 1.9-8 20.3 20.1 15.5 40.3C591.3 294.5 586 302 586 302l-26.6-2.2z"/><path class="st16" d="M609.4 284.8s-11.7 12.8-30.8 13.8c-19.1 1.1-36.9-2.9-52.8 8.8-15.9 11.7-18.8 18.3-28.9 20.9-5.2 1.3-6.6 9.6 2.1 9.6 8.8 0 17.8-5.5 24.4-12.4 6.2-6.4 9.1-7.8 9.1-7.8s-1.6 19.1-17.6 37.2c-15.9 18-40.3 25.5-48.8 30.8-8.5 5.3-8.5 12.7-1.1 10.6 7.4-2.1 15.9-4.2 15.9-4.2s20.6-2.1 30.8-4.2c0 0 13.8 2.1 23.3-4.2 0 0 13.3-3.2 23.9-13.8s19.6-18 28.1-26.5 10.6-14.8 10.6-14.8l40.1-6.9-28.3-36.9z"/><path class="st17" d="M609.4 284.8s-11.7 12.8-30.8 13.8c-19.1 1.1-36.9-2.9-52.8 8.8-15.9 11.7-18.8 18.3-28.9 20.9-5.2 1.3-6.6 9.6 2.1 9.6 8.8 0 17.8-5.5 24.4-12.4 6.2-6.4 9.1-7.8 9.1-7.8s-1.6 19.1-17.6 37.2c-15.9 18-40.3 25.5-48.8 30.8-8.5 5.3-8.5 12.7-1.1 10.6 7.4-2.1 15.9-4.2 15.9-4.2s20.6-2.1 30.8-4.2c0 0 13.8 2.1 23.3-4.2 0 0 13.3-3.2 23.9-13.8s19.6-18 28.1-26.5 10.6-14.8 10.6-14.8l40.1-6.9-28.3-36.9z"/><defs><path id="SVGID_5_" d="M0 0h749.9v428H0z"/></defs><clipPath id="SVGID_6_"><use xlink:href="#SVGID_5_" overflow="visible"/></clipPath><path d="M771.5 138.7l-15.9 42.4s-29.7 50.9-36.1 59.4c-6.4 8.5-47.6 25.4-70.5 31.8-22.8 6.4-47.2 4.8-47.2 16.5 0 0 15.4-.8 26 34.2l-22.8 4.4s24.9 48.8 37.1 61.5c12.2 12.7 35 25.4 46.7 22.3 11.7-3.2 13.3-7.4 13.3-7.4s17.5 11.7 42.4 7.4c24.9-4.3 47.1-9.6 67.3-36.1 20.1-26.5 49.3-68.9 57.3-94.3 8-25.4 50.9-141 56.2-200.4" clip-path="url(#SVGID_6_)" fill="#57679b"/><path d="M771.5 138.7l-15.9 42.4s-29.7 50.9-36.1 59.4c-6.4 8.5-47.6 25.4-70.5 31.8-22.8 6.4-47.2 4.8-47.2 16.5 0 0 15.4-.8 26 34.2l-22.8 4.4s24.9 48.8 37.1 61.5c12.2 12.7 35 25.4 46.7 22.3 11.7-3.2 13.3-7.4 13.3-7.4s17.5 11.7 42.4 7.4c24.9-4.3 47.1-9.6 67.3-36.1 20.1-26.5 49.3-68.9 57.3-94.3 8-25.4 50.9-141 56.2-200.4" clip-path="url(#SVGID_6_)" fill="none" stroke="#655244" stroke-width="3.603"/><path class="st16" d="M514.2 186.9s11.2-10.7 12-25.4c1.2-22.2-10-44.1-41.4-50.5 0 0-17.1 16.2-1.6 45.5 14 26.5 31 30.4 31 30.4z"/><path class="st17" d="M514.2 186.9s11.2-10.7 12-25.4c1.2-22.2-10-44.1-41.4-50.5 0 0-17.1 16.2-1.6 45.5 14 26.5 31 30.4 31 30.4z"/><path class="st16" d="M317.7 362.3s11-5.4 27.6-22.3c13.3-13.5 19.1-17.7 33.5-20.2 11.1-1.9 20-5.3 30.2-10 9-4.2 13.8.1 6.9 6.8-7.7 7.5-18.1 10.2-31.8 13.8 0 0 15.3 14.1 35.5 15.1 20.2 1.1 29.7-2.1 41.4-6.4 11.7-4.2 18.8-6.3 20.2-1.4.8 3.1-3.2 5.3-3.2 5.3s6.9-3.9 9.3 0c2.4 3.9-2.3 7.9-2.3 7.9s2.2 6.6-3.5 11c-8.8 6.6-14.6 8.5-14.6 8.5s-6.6 13-23.9 16.1c-19.1 3.5-42.4 5.4-64.7 7.5-22.3 2.1-62.6 29.7-62.6 29.7l-7.4-32.9 9.4-28.5z"/><g><defs><path id="SVGID_7_" d="M0 0h749.9v428H0z"/></defs><clipPath id="SVGID_8_"><use xlink:href="#SVGID_7_" overflow="visible"/></clipPath><path class="st20" d="M317.7 362.3s11-5.4 27.6-22.3c13.3-13.5 19.1-17.7 33.5-20.2 11.1-1.9 20-5.3 30.2-10 9-4.2 13.8.1 6.9 6.8-7.7 7.5-18.1 10.2-31.8 13.8 0 0 15.3 14.1 35.5 15.1 20.2 1.1 29.7-2.1 41.4-6.4 11.7-4.2 18.8-6.3 20.2-1.4.8 3.1-3.2 5.3-3.2 5.3s6.9-3.9 9.3 0c2.4 3.9-2.3 7.9-2.3 7.9s2.2 6.6-3.5 11c-8.8 6.6-14.6 8.5-14.6 8.5s-6.6 13-23.9 16.1c-19.1 3.5-42.4 5.4-64.7 7.5-22.3 2.1-62.6 29.7-62.6 29.7l-7.4-32.9 9.4-28.5z"/><path d="M258.4 375s-11.2 31.9 4.3 72.2c0 0 46.2-6.8 53.7-21.8 0 0-9.6-36.6 2.7-64.2-.1 0-26.7-7.4-60.7 13.8z" clip-path="url(#SVGID_8_)" fill="#ae5b33"/><path class="st20" d="M258.4 375s-11.2 31.9 4.3 72.2c0 0 46.2-6.8 53.7-21.8 0 0-9.6-36.6 2.7-64.2-.1 0-26.7-7.4-60.7 13.8zm144.2-19s35.3 11.2 77.2-13.6m-71.6 26.9s47.7 4 76.1-18.2M-22.5 219.2S25.7 398.4 80.4 451.4m-8.6-316s26.1 37.1 26.1 61.5 5.8 64.6 24.9 93.3c19.1 28.7 18.1 43.5 18.1 43.5m-16.6-22.3s27 46.7 49.3 61.6c0 0 68.1 6.7 84.5 2.5m-154.4-3.6s35 2.2 60.4-7.6m-38.2 22.5s30.8-13.9 50.4-13.9M-18.2 105.7s63.6-14.9 141 14.9c77.4 29.7 182.3 53.1 182.3 53.1M2.5 120.6s13.5-7.3 40.8-6.1c21.4 1 51.4 7.2 90.2 26.4m-18.1 31.7s-15.9-48.8-62.6-57.3M36.9 53.8s28.7-4.4 66.3 3.2m77.9 70S123.8 77.1 66.5 52.7m186.7 79.6s-39.3-50.9-96.5-73.2m137.8 149.5s22.6 98.6-5.8 153.7M48.5 67.5S66 69.6 82 83.4c15.9 13.8 57.8 25.5 77.9 45.7M24.2 143.9s-26.8 30.8-4.3 116.7m626.5 12.1s21.3 10 23.9 62c2.6 52 21.2 67.9 21.2 67.9m39.8 1.1s-36.7-22.8-60.5-57.8m18 2.6s28.8 35 50.5 47.8m29-7.4s-30.5 5.3-49.6-8.6m-9.2-132.1l67.4-31.2m-56.3 25.4s26.5-10.6 72.1 18.2m19.1-4.2S782.6 234 745 231.9M160.9-1.3S163 11.5 178.4 12l16.5-.5"/><path d="M628.4-226.1s-6.4-1.1-10.6 6.4c0 0-12.7-1.1-23.3 4.2-10.6 5.3-23.3 12.7-23.3 12.7s-12.7 15.9-21.2 29.7c-8.5 13.8-8.5 18-8.5 26.5s-7.4 39.2-1.1 49.8c2.5 4.2 5.6 8.2 8.7 12l.4-.7s1.1-10.6 1.1-27.6 5.8-22.8 9-24.9c3.2-2.1 17.5 1.6 24.4-7.4 6.9-9 17.1-17.5 30.8-15.9 13.7 1.6 25.9-6.7 37.1 3.7 11.1 10.5 17.1 19.1 16 29.7-1.1 10.6-1.7 21.2 11.1 21.2 12.8 0 18.6 9.5 19.6 17 1.1 7.4 2.2 24.9-4.2 36.1-6.4 11.1-14.9 22.8-21.8 27-6.9 4.2-23.9 4.2-29.7 9.5-5.8 5.3-2.2 14.7-13.8 14.9C617.3-2 612-4.3 604-.1c-1.3.7-2.3 1.4-3.1 2.1 2.1 5.6 3.6 10.8 4.1 14.7 1.6 11.7 22.3 35 42.4 35 20.2 0 20.2 1 29.7-10.6 5.2-6.3 9.4-8.9 12.2-9.9v-.7s7.4.6 8.5-10.6c0 0 16.9 0 13.3-21.2 0 0 19.1-5.3 19.1-21.2 0 0-.5-9.5-7.4-13.8 0 0 13.8 1 9.5-15.4l22-22.7-.8-1.2s4.2-16.9 4.2-27.5c0 0 7.4-4.2 4.2-21.2s-6.8-23.3-6.8-33.9c0-10.6-5.8-18-10.6-20.2-4.8-2.1-9.1-3.2-9.1-3.2s3.3-12.7-12.2-19.1c-15.4-6.4-21.2-7.4-21.2-7.4s-7.5-6.4-14.4-9.5c-6.8-3.2-15.9-8.5-30.8-9.5-14.6-1.1-28.4 1-28.4 1z" clip-path="url(#SVGID_8_)" fill="#976741"/><path class="st20" d="M628.4-226.1s-6.4-1.1-10.6 6.4c0 0-12.7-1.1-23.3 4.2-10.6 5.3-23.3 12.7-23.3 12.7s-12.7 15.9-21.2 29.7c-8.5 13.8-8.5 18-8.5 26.5s-7.4 39.2-1.1 49.8c2.5 4.2 5.6 8.2 8.7 12l.4-.7s1.1-10.6 1.1-27.6 5.8-22.8 9-24.9c3.2-2.1 17.5 1.6 24.4-7.4 6.9-9 17.1-17.5 30.8-15.9 13.7 1.6 25.9-6.7 37.1 3.7 11.1 10.5 17.1 19.1 16 29.7-1.1 10.6-1.7 21.2 11.1 21.2 12.8 0 18.6 9.5 19.6 17 1.1 7.4 2.2 24.9-4.2 36.1-6.4 11.1-14.9 22.8-21.8 27-6.9 4.2-23.9 4.2-29.7 9.5-5.8 5.3-2.2 14.7-13.8 14.9C617.3-2 612-4.3 604-.1c-1.3.7-2.3 1.4-3.1 2.1 2.1 5.6 3.6 10.8 4.1 14.7 1.6 11.7 22.3 35 42.4 35 20.2 0 20.2 1 29.7-10.6 5.2-6.3 9.4-8.9 12.2-9.9v-.7s7.4.6 8.5-10.6c0 0 16.9 0 13.3-21.2 0 0 19.1-5.3 19.1-21.2 0 0-.5-9.5-7.4-13.8 0 0 13.8 1 9.5-15.4l22-22.7-.8-1.2s4.2-16.9 4.2-27.5c0 0 7.4-4.2 4.2-21.2s-6.8-23.3-6.8-33.9c0-10.6-5.8-18-10.6-20.2-4.8-2.1-9.1-3.2-9.1-3.2s3.3-12.7-12.2-19.1c-15.4-6.4-21.2-7.4-21.2-7.4s-7.5-6.4-14.4-9.5c-6.8-3.2-15.9-8.5-30.8-9.5-14.6-1.1-28.4 1-28.4 1zm60.9 256.7s7.4.6 8.5-10.6c0 0 16.9 0 13.3-21.2 0 0 19.1-5.3 19.1-21.3 0 0-.5-9.5-7.4-13.8 0 0 13.8 1 9.6-15.4"/></g><path class="st23" d="M477.2 135.1s4.1-2.5 8.9.4c3 1.8 4.3 5.6 4.3 11.2 0 5.1.4 8.1 1.6 9.3 1.4 1.4 3.6 1.2 4.6.5 1.1-.7 3.8-2 4.8 0m-7.9 8.4l1.9-.7s2.6 1.6 6.4-.4l4.6 1.2m-8.9 4.7c.7.1 1.6.2 2.4.2 1.3 0 2-.6 3-1m-2.9-35.5s8.3-3.6 14.7 2.3m-34.6 5.4s3.9-3.9 9.7.3m12.8-3s6.3-3.8 11.6 2.7"/><path class="st24" d="M482.1 140.1s.8 2.5 1.4 3.1c1.4 1.2.8-3.6.8-3.7"/><path class="st23" d="M482.1 140.1s.8 2.5 1.4 3.1c1.4 1.2.8-3.6.8-3.7"/><path class="st24" d="M504.9 137.6s.5 3.1 1.5 3.3c.8.2 1.6-3.1 1.6-3.1"/><path class="st23" d="M504.9 137.6s.5 3.1 1.5 3.3c.8.2 1.6-3.1 1.6-3.1M503.9 145.3s6.9 1.7 10.4-1M483 147.9s3.3 1.5 7.6.1"/><g><defs><path id="SVGID_9_" d="M0 0h749.9v428H0z"/></defs><clipPath id="SVGID_10_"><use xlink:href="#SVGID_9_" overflow="visible"/></clipPath><path class="st25" d="M567.7 261.4s9.9 6.1 11.5 18.3c1.2 9.3-5.9 19.1-5.9 19.1m-4-52.3s18.9 16.3 17.6 28.7c-1.3 12.4-6.9 23-6.9 23m-1.5-56.7s15.2 13.4 10.7 31c-3.5 13.8-9.4 25.7-9.4 25.7m-165 81.5s29.4 1.9 52.2-9.4m71.4-23.3s-10.9 28-58.4 45.7m67.4-39.6s-10.1 21-37.5 34.8m44.6-29.3s-5.3 15.9-20.2 25.5M549-84.8l.4-.7s1.1-10.6 1.1-27.6 5.8-22.8 9-24.9c3.2-2.1 17.5 1.6 24.4-7.4s17.1-17.5 30.8-15.9c13.7 1.6 25.9-6.7 37.1 3.7 11.1 10.5 17.1 19.1 16 29.7-1.1 10.6-1.7 21.2 11.1 21.2 12.8 0 18.6 9.5 19.6 17 1.1 7.4 2.2 24.9-4.2 36.1-6.4 11.1-14.9 22.8-21.8 27.1-6.9 4.2-23.9 4.2-29.7 9.5-3.4 3.4-2.4 12-14.9 15.1C617.3.2 609.6-6 598.5 2.8"/><path d="M617.5-27s27.9-6.7 41.8 4.4c0 0-27 6.2-39.8 8.9 0 0-10.2 8.3-16.6 14.6 0 0-.2-7.3 5.3-21.9" clip-path="url(#SVGID_10_)" fill="#ad7f55"/><path class="st25" d="M617.5-27s27.9-6.7 41.8 4.4c0 0-27 6.2-39.8 8.9 0 0-10.2 8.3-16.6 14.6 0 0-.2-7.3 5.3-21.9m76.6 164.3s-2.7 42.4 21.8 91.2c0 0-1.1 8.9 0 15.1m21.2-113.7s-4.4 24.4-4.4 46.7c0 22.3 2.2 24.4 2.2 24.4M605.5 328.4s17.4 78.8 47.6 118M614 360.8s18.3 51.8 64 88.9m-13.9-31.9s17 21.3 35.1 28.7m-87-63.7s13.9 41.5 35.7 67.9m-10.2-217.4s24.8-1.5 36 0m-35-5.3s19.2-5.3 35.6-5.3m47.3 14.7s35-37.1 52-64.7 27.6-45.6 27.6-45.6M20.8 346S-5.8 369.1-27 414.8M27.7 365S5.9 383-5.8 423.4m449.5-186s13.1-6.1 30.5-5.5c33.4 1.2 64.1-21.3 64.1-21.3M437 248s13.3-8.1 38.2-8.1c31.8 0 56.2-15.3 56.2-15.3M454 251.1s13.3-3.7 27.6 4.8 24.9 18.5 24.9 18.5m-69.5 9.5s25.5 13.9 64.2 5.9c0 0 6.9 13.3 21.2 20.2m-7.4-34s17.5-2.8 32.3 2.2m-4.7-33.1s-9.6 13.1-13.9 29.2m-87.9 35.6s44.8-3.3 65 13.8m-21.6-148.4s8.5 15 20 23.3M273.3 367.1s-11.7 10.6-8.5 43.5c3.2 32.9 12.2 34.5 12.2 34.5m32.2-84.9s-8.9 13.2-7.3 43c1.4 26.5 7.6 29 7.6 29m-27.6-20.5c3.5 0 6.3-3.9 6.3-8.7s-2.8-8.7-6.3-8.7-6.3 3.9-6.3 8.7 2.8 8.7 6.3 8.7z"/></g><path class="st27" d="M81.7 126s31.8 19.4 46 91.9c0 0 21.2 60.2 54.8 95.5"/><path class="st17" d="M81.7 126s31.8 19.4 46 91.9c0 0 21.2 60.2 54.8 95.5"/><path class="st27" d="M147.1 205.4s12.4 39 37.2 81.5"/><path class="st17" d="M147.1 205.4s12.4 39 37.2 81.5"/><path class="st27" d="M156.1 193.2s16.2 40.7 42.5 76"/><path class="st17" d="M156.1 193.2s16.2 40.7 42.5 76"/><path class="st27" d="M233.7 290.2s15.8-21.4 24.9-47.8"/><path class="st17" d="M233.7 290.2s15.8-21.4 24.9-47.8"/><path class="st27" d="M224.8 320.4s25.3-28.6 32.1-62"/><path class="st17" d="M224.8 320.4s25.3-28.6 32.1-62"/><path class="st27" d="M270.7 198.5s32.1 51.2 7.1 152"/><path class="st17" d="M270.7 198.5s32.1 51.2 7.1 152"/></svg>
