<svg version="1.1" id="Слой_1" xmlns="http://www.w3.org/2000/svg" xmlns:xlink="http://www.w3.org/1999/xlink" x="0" y="0" viewBox="0 0 749.9 428" xml:space="preserve"><style>.st1{fill:#1a1a17}.st1,.st3{clip-path:url(#SVGID_2_)}.st3,.st9{fill:#25211e}.st10{clip-path:url(#SVGID_4_);fill:#344186}.st11{fill:#1a1a17}.st11,.st12{clip-path:url(#SVGID_4_)}.st12,.st13{fill:#bf9d66}.st14{fill:#c69540}.st18{fill:#1a1a17}.st19{fill:#8f5c07}.st23{fill:#92390d}.st29{fill:#a47017}.st31{fill:#3a131b}</style><defs><path id="SVGID_1_" d="M0 0h749.9v428H0z"/></defs><clipPath id="SVGID_2_"><use xlink:href="#SVGID_1_" overflow="visible"/></clipPath><path clip-path="url(#SVGID_2_)" fill="#d1a142" d="M-8.1-9.9V437h770V-9.9h-770z"/><path class="st1" d="M762.4 437.5h-771V-10.4h771v447.9zm-770-1h769V-9.4h-769v445.9z"/><path clip-path="url(#SVGID_2_)" fill="#8f834b" d="M664.5-23.5v364.6h108.1V-23.5H664.5z"/><path class="st3" d="M773.1 341.6H664V-24h109.1v365.6zm-108.1-1h107.1V-23H665v363.6z"/><path clip-path="url(#SVGID_2_)" fill="#4f461f" d="M697.7-13.6v327.8h67V-13.6h-67z"/><path class="st1" d="M765.2 314.7h-68V-14.1h68v328.8zm-67-1h66V-13.1h-66v326.8z"/><path clip-path="url(#SVGID_2_)" fill="#918346" d="M-33.3 318.9L-20 394l791.7-5.1 1.9-58.6-1.9-18-805 6.6z"/><path class="st3" d="M-20.4 394.5l-13.5-76.1 806.1-6.6 1.9 18.4-1.9 59.1h-.5l-792.1 5.2zm-12.3-75.1l13.2 74.1 790.8-5.1 1.9-58.1-1.8-17.4-804.1 6.5z"/><path clip-path="url(#SVGID_2_)" fill="#636731" d="M-25.6 445.6l8.4-59.6 820.1-2.8-26.3 70.3-802.2-7.9z"/><path class="st1" d="M776.9 454h-.4l-802.8-8 8.5-60.5h.4l820.9-2.8-.3.7-26.3 70.6zm-802-8.9l801.3 8 26-69.3-819 2.8-8.3 58.5z"/><path d="M84.4 430.6l3.1-296.9s8.2-2 12.2-18.1l4.1-1-5.6-18.5-.5-99.8-38.8-2L60 432.1l24.4-1.5z" clip-path="url(#SVGID_2_)" fill="#4f2b08"/><path class="st1" d="M59.5 432.6v-.5L58.4-6.3l39.8 2.1.5 100.2 5.7 19-4.3 1.1c-3.7 14.1-10.5 17.4-12.2 18l-3.1 297-25.3 1.5zM59.4-5.2l1.1 436.8 23.5-1.5 3-296.8.4-.1c.1 0 7.9-2.2 11.9-17.7l.1-.3 3.9-.9-5.4-18.2-.7-99.4-37.8-1.9z"/><path d="M42.6-4.3L38.9 96l-8.2 13.5 4.2 2s-2.1 7 6.1 16.1l-1 304.5 23.6 2.5 3.1-329.1-1-16.1 1-102.3-24.1 8.6z" clip-path="url(#SVGID_2_)" fill="#7c5c36"/><path class="st3" d="M64.1 435.2l-24.6-2.6 1-304.8c-7.1-7.9-6.5-14.3-6.2-16l-4.3-2.1 8.4-13.9L42.1-4.7l25.1-8.9-1 103.1 1 16-3.1 329.7zm-23.6-3.5l22.6 2.4 3.1-328.6-1-16 1-101.7L43.1-4 39.4 96.1l-8 13.2 4 2-.1.4c0 .1-1.9 6.9 6 15.6l.1.1v.2l-.9 304.1z"/><path class="st1" d="M102.5 115.9l-36.8-11.5-33.7 6.4-.2-1 34-6.5h.1l36.9 11.5-.3 1.1zM98 98.1l-33-7.7-25.5 5.8-.2-1L65 89.4l33.2 7.8-.2.9z"/><path class="st3" d="M151 38.3v396.3l30.8-1.1-3.1-399.2-27.7 4z"/><path class="st3" d="M150.5 435.1V37.8l28.7-4.2 3.1 400.3-31.8 1.2zm1-396.4V434l29.8-1-3.1-398.2-26.7 3.9z"/><path class="st9" d="M250.1 20.8l-1.2 231.1 33.8-3.5-3.9-230.1-28.7 2.5z"/><path class="st9" d="M248.4 252.5l1.2-232.1 29.7-2.6v.5l3.9 230.5-34.8 3.7zm2.2-231.2l-1.2 230.1 32.8-3.4-3.8-229.1-27.8 2.4zM491.4 44.3l-1.3 146 32.4-5-2.6-144-28.5 3z"/><path class="st9" d="M489.6 190.9v-.6l1.3-146.5 29.5-3.1 2.6 145-33.4 5.2zm2.3-146.1l-1.3 145 31.3-4.9-2.5-143-27.5 2.9zM601.5 37.3l-1 178.1 32.8 10 1-188.1h-32.8z"/><path class="st9" d="M633.8 226.1l-.6-.2-33.2-10.1v-.4l1-178.6h33.8v.5l-1 188.8zM601 215l31.8 9.8 1-186.9H602L601 215z"/><defs><path id="SVGID_3_" d="M0 0h749.9v428H0z"/></defs><clipPath id="SVGID_4_"><use xlink:href="#SVGID_3_" overflow="visible"/></clipPath><path class="st10" d="M179.9 40.5s-.3-9.3.5-16.8.8-13 3.8-13 1.3 2.3 3.3 2.3c2 0 10.6-4.6 4.6-13.3l-55-1.3s-3.8 8.2-1.5 11.7c3.1 4.8 6.1 5.2 7.6 3.5 1.5-1.7 4.8-2.4 6.1 2.5 1.1 5 1.7 24.9 1.7 24.9l28.9-.5z"/><path class="st11" d="M150.5 41.5V41c0-.2-.5-19.9-1.8-24.7-.5-1.9-1.4-3.1-2.5-3.4-1.1-.3-2.2.4-2.8 1-.7.8-1.6 1.2-2.7 1.1-1.3-.1-3.4-1-5.7-4.6-2.4-3.8 1.3-11.9 1.5-12.2l.1-.3 55.6 1.3.1.2c3 4.3 2.4 7.5 1.4 9.4-1.6 3-5 4.6-6.4 4.6-1.3 0-1.5-.8-1.7-1.3-.2-.6-.3-1-1.6-1-2.2 0-2.5 4-3 9.5-.1 1-.2 2-.3 3.1-.7 7.4-.5 16.7-.5 16.8v.5l-29.7.5zm-4.8-29.7c.3 0 .5 0 .7.1 1 .3 2.5 1.2 3.2 4.1 1.2 4.5 1.7 21.3 1.8 24.4l27.9-.5c0-2.1-.1-9.9.5-16.4.1-1.1.2-2.1.3-3 .5-6 .9-10.4 4-10.4 1.9 0 2.3.8 2.6 1.7.2.5.2.6.7.6 1 0 4.1-1.4 5.5-4.1 1.2-2.4.8-5.2-1.2-8.2l-54.4-1.3c-.6 1.5-3.3 8-1.4 10.9 2.3 3.5 4.1 4.1 5 4.2.7.1 1.3-.2 1.8-.7.8-.8 2-1.4 3-1.4z"/><path class="st12" d="M163 8.8l-1-.1s.4-2.8-1-4.3c-.7-.8-1.6-1.1-2.9-1.1-1.3 0-2.3.4-3 1.2-1.4 1.5-1.2 4.2-1.2 4.2l-1 .1c0-.1-.3-3.1 1.4-4.9.9-1 2.1-1.5 3.7-1.5s2.8.5 3.6 1.5c1.9 1.7 1.4 4.7 1.4 4.9zm3.5-.1c0-.2-.1-4 1.7-5.9.6-.6 1.4-.9 2.2-.9 3.2 0 4.1 3.9 4.1 6h-1c0-.1 0-5-3.1-5-.6 0-1.1.2-1.5.6-1.5 1.5-1.4 5.1-1.4 5.1l-1 .1zm-27-.1c0-.2-.3-3.9 1.6-5.9.8-.8 1.8-1.3 3.1-1.3s2.3.4 3.1 1.3c1.9 2 1.8 5.5 1.8 5.6h-1s.1-3.3-1.5-4.9c-.6-.7-1.4-1-2.4-1s-1.7.3-2.3.9c-1.6 1.7-1.3 5.1-1.3 5.2l-1.1.1zm41.1-.1h-1c0-.1.2-3.7 2.2-5.5.9-.8 2-1.2 3.2-1.1 4.1.2 4.9 4.3 4.8 6.4h-1c0-.2.2-5.1-3.9-5.3-1-.1-1.8.2-2.5.8-1.7 1.5-1.8 4.7-1.8 4.7z"/><path class="st10" d="M279.1 40.8s-.3-9.3.5-16.8.8-13 3.8-13 1.3 2.3 3.3 2.3c2 0 10.6-4.6 4.6-13.3l-55-1.3s-3.8 8.2-1.5 11.7c3.1 4.8 6.1 5.2 7.6 3.5 1.5-1.7 4.8-2.4 6.1 2.5s1.8 24.8 1.8 24.8l28.8-.4z"/><path class="st11" d="M249.7 41.9v-.5c0-.2-.5-19.9-1.8-24.7-.5-1.9-1.4-3.1-2.5-3.4-1.1-.3-2.2.4-2.8 1-.7.8-1.6 1.2-2.7 1.1-1.3-.1-3.4-1-5.7-4.6-2.4-3.8 1.3-11.9 1.5-12.2l.1-.3 55.6 1.3.1.2c3 4.3 2.4 7.5 1.4 9.4-1.6 3-5 4.6-6.4 4.6-1.3 0-1.5-.8-1.7-1.3-.2-.6-.3-1-1.6-1-2.2 0-2.5 4-3 9.5-.1 1-.2 2-.3 3.1-.7 7.4-.5 16.7-.5 16.8v.5l-29.7.5zm-4.8-29.7c.3 0 .5 0 .7.1 1 .3 2.5 1.2 3.2 4.1 1.2 4.6 1.7 21.3 1.8 24.4l27.9-.5c0-2.1-.1-9.9.5-16.4.1-1.1.2-2.1.3-3 .5-6 .9-10.4 4-10.4 1.9 0 2.3.8 2.6 1.7.2.5.2.6.7.6 1 0 4.1-1.4 5.5-4.1 1.2-2.4.8-5.2-1.2-8.2L236.5-.8c-.6 1.5-3.3 8-1.4 10.9 2.3 3.5 4.1 4.1 5 4.2.7.1 1.3-.2 1.8-.7.9-.8 2-1.4 3-1.4z"/><path class="st12" d="M248.2 8.7h-1s.1-3.3-1.5-4.9c-.6-.7-1.4-1-2.4-1s-1.8.3-2.4 1c-1.5 1.6-1.2 4.6-1.2 4.6l-1 .1c0-.1-.3-3.5 1.5-5.4.8-.9 1.9-1.3 3.2-1.3 1.3 0 2.3.4 3.1 1.3 1.9 1.9 1.7 5.5 1.7 5.6zm14-.1l-1-.2s.3-2.4-.9-3.8c-.7-.8-1.7-1.1-3-1.1-1.4 0-2.4.4-3.1 1.2-1.3 1.4-1.1 3.7-1.1 3.7l-1 .1c0-.1-.3-2.7 1.3-4.5.9-1 2.2-1.5 3.8-1.5 1.6 0 2.9.5 3.8 1.5 1.7 1.8 1.3 4.5 1.2 4.6zm26.8 0h-1c0-.2.2-5-3.9-5.2-1-.1-1.9.2-2.6.8-1.6 1.5-1.8 4.4-1.8 4.4h-1c0-.1.1-3.3 2.1-5.1.9-.8 2-1.2 3.3-1.1 4.2.1 5 4.1 4.9 6.2zm-16.2 0c0-.1 0-5.3-3.1-5.3-.7 0-1.2.2-1.6.7-1.4 1.4-1.3 4.5-1.3 4.5h-1c0-.1-.1-3.5 1.6-5.2.6-.7 1.4-1 2.4-1 4.1 0 4.1 6 4.1 6.3h-1.1z"/><path class="st10" d="M519.9 45.2s-.3-9.3.5-16.8.8-13 3.8-13 1.3 2.3 3.3 2.3c2 0 10.3-4.2 3.7-17.8L480-.6s-8.6 7.1-4.4 15.5c2.6 5.1 6.1 5.2 7.6 3.5 1.5-1.7 4.8-2.4 6.1 2.5 1.3 4.9 1.8 24.8 1.8 24.8l28.8-.5z"/><path class="st11" d="M490.5 46.2v-.5c0-.2-.5-19.9-1.8-24.7-.5-1.9-1.4-3.1-2.5-3.4-1.1-.3-2.2.4-2.8 1-.8.9-2 1.3-3.2 1.1-1.1-.2-3.4-1-5.2-4.7-4.3-8.7 4.5-16.1 4.6-16.2l.1-.1 51.7.5.1.3c3.8 7.8 2.7 12.5 1.1 15-1.5 2.5-4 3.6-5.2 3.6-1.3 0-1.5-.8-1.7-1.3-.2-.6-.3-1-1.6-1-2.2 0-2.5 4-3 9.5l-.3 3c-.7 7.3-.5 16.6-.5 16.7v.5l-29.8.7zm-4.8-29.5c.3 0 .5 0 .7.1 1 .3 2.5 1.2 3.2 4.1 1.2 4.5 1.7 21.2 1.8 24.4l27.9-.5c0-2-.1-9.9.5-16.4.1-1.1.2-2.1.3-3 .5-6 .9-10.4 4-10.4 1.9 0 2.3.8 2.6 1.7.2.5.2.6.7.6.8 0 3-.9 4.4-3.1 1.4-2.3 2.4-6.5-1-13.7L480.1 0c-1.1.9-7.8 7.4-4.2 14.8 1.7 3.3 3.5 4 4.4 4.2.9.1 1.8-.2 2.3-.8.9-1 2.1-1.5 3.1-1.5z"/><path class="st12" d="M506.5 13.5c0-.2-.1-4 1.7-5.9.6-.6 1.4-.9 2.2-.9 4.1 0 4.1 6.4 4.1 6.7h-1c0-.1 0-5.7-3.1-5.7-.6 0-1.1.2-1.5.6-1.5 1.5-1.4 5.1-1.4 5.1l-1 .1zm14.1-.1h-1c0-.2.2-3.7 2.2-5.6.9-.8 1.9-1.2 3.2-1.1 4.1.2 4.9 4.3 4.8 6.4h-1c0-.2.2-5.2-3.9-5.4-1-.1-1.8.2-2.5.8-1.7 1.6-1.8 4.9-1.8 4.9zm-27.6 0c0-.1-.3-3.1 1.4-4.9.9-1 2.1-1.5 3.7-1.5s2.8.5 3.7 1.5c1.6 1.9 1.2 4.8 1.2 4.9l-1-.1s.4-2.6-.9-4.1c-.7-.8-1.6-1.1-2.9-1.1s-2.3.4-3 1.2c-1.4 1.6-1.2 4.1-1.2 4.2l-1-.1zm-4-.3h-1s.1-3.3-1.5-4.9c-.6-.7-1.4-1-2.4-1s-1.8.3-2.4 1c-1.5 1.6-1.2 4.6-1.2 4.6l-1 .1c0-.1-.3-3.5 1.5-5.4.8-.9 1.9-1.3 3.2-1.3 1.3 0 2.3.4 3.1 1.3 1.8 1.9 1.7 5.5 1.7 5.6z"/><path class="st10" d="M634.7 44.4V27.3c0-7.1-.5-13 2.5-13s1.3 2.3 3.3 2.3c2 0 10.3-4.2 3.7-17.8L593-1.7s-8.6 7.1-4.4 15.5c2.5 5.1 6.1 5.2 7.6 3.5 1.5-1.7 3.5-2.4 4.8 2.5 1.3 4.9.5 24.8.5 24.8l33.2-.2z"/><path class="st11" d="M600.9 45.1v-.5c0-.2.7-19.8-.5-24.6-.5-2-1.2-3.2-2-3.4-.7-.2-1.5.5-2 1.1-.8.9-2 1.3-3.2 1.1-1.1-.2-3.4-1-5.2-4.7-4.3-8.7 4.5-16.1 4.6-16.2l.1-.1 51.7.5.1.3c3.8 7.8 2.7 12.5 1.1 15-1.5 2.5-4 3.6-5.2 3.6-1.3 0-1.5-.8-1.7-1.3-.2-.6-.3-1-1.6-1-.4 0-.7.1-.9.4-1.2 1.2-1.1 4.9-1.1 9.3V45l-34.2.1zm-2.7-29.6c.2 0 .3 0 .5.1 1.2.3 2.1 1.6 2.7 4.1 1.2 4.5.7 21.2.5 24.4l32.2-.2V27.3v-2.8c0-4.8-.1-8.5 1.4-10 .4-.4 1-.7 1.7-.7 1.9 0 2.3.8 2.6 1.7.2.5.2.6.7.6.8 0 3-.9 4.4-3.1 1.4-2.3 2.4-6.5-1-13.7l-50.7-.5c-1.1.9-7.8 7.4-4.2 14.8 1.7 3.3 3.5 4 4.4 4.2.9.1 1.8-.2 2.3-.8 1-1.2 1.9-1.5 2.5-1.5z"/><path class="st13" d="M626.6 12.7c0-.1 0-6.1-3.1-6.1-.6 0-1.1.2-1.5.6-1.5 1.5-1.4 5.1-1.4 5.1h-1c0-.2-.1-4 1.7-5.9.6-.6 1.4-.9 2.2-.9 4.1 0 4.1 6.8 4.1 7.1h-1zm-10.6-.3l-1-.1s.4-2.7-1-4.3c-.7-.8-1.6-1.1-2.9-1.1-1.3 0-2.3.4-3 1.2-1.4 1.5-1.2 4.2-1.2 4.2l-1 .1c0-.1-.3-3.1 1.4-4.9.9-1 2.1-1.5 3.7-1.5s2.8.5 3.6 1.5c1.9 1.7 1.4 4.7 1.4 4.9zm-14-.4h-1s.1-3.3-1.5-4.9c-.6-.7-1.4-1-2.4-1s-1.8.3-2.4 1c-1.5 1.6-1.2 4.6-1.2 4.6l-1 .1c0-.1-.3-3.5 1.5-5.4.8-.9 1.9-1.3 3.2-1.3 1.3 0 2.3.4 3.1 1.3 1.9 1.9 1.7 5.4 1.7 5.6zm31.6 0h-1c0-.1.2-3.5 2.1-5.3.9-.8 2-1.2 3.3-1.1 4.1.2 4.9 3.8 4.8 5.7l-1-.1c0-.2.2-4.4-3.9-4.6-1-.1-1.9.2-2.5.8-1.7 1.5-1.8 4.5-1.8 4.6z"/><path class="st14" d="M209 393.5c58 0 105.1-47 105.1-105.1 0-58-47-105.1-105.1-105.1-58 0-105.1 47-105.1 105.1.1 58.1 47.1 105.1 105.1 105.1z"/><path class="st9" d="M209 394c-58.2 0-105.6-47.4-105.6-105.6 0-58.2 47.4-105.6 105.6-105.6 58.2 0 105.6 47.4 105.6 105.6 0 58.2-47.3 105.6-105.6 105.6zm0-210.2c-57.7 0-104.6 46.9-104.6 104.6S151.4 393 209 393c57.7 0 104.6-46.9 104.6-104.6S266.7 183.8 209 183.8z"/><path class="st14" d="M486.8 263.1c58 0 105.1-46.7 105.1-104.4 0-57.6-47-104.4-105.1-104.4-58 0-105.1 46.7-105.1 104.4.1 57.7 47.1 104.4 105.1 104.4z"/><path class="st9" d="M486.8 263.6c-58.2 0-105.6-47-105.6-104.9 0-57.8 47.4-104.9 105.6-104.9 58.2 0 105.6 47 105.6 104.9 0 57.9-47.3 104.9-105.6 104.9zm0-208.8c-57.7 0-104.6 46.6-104.6 103.9s46.9 103.9 104.6 103.9S591.4 216 591.4 158.7 544.5 54.8 486.8 54.8z"/><path class="st14" d="M427.3 278c25.6 0 46.3-20.7 46.3-46.3 0-25.6-20.7-46.3-46.3-46.3-25.6 0-46.3 20.7-46.3 46.3 0 25.6 20.8 46.3 46.3 46.3z"/><path class="st9" d="M427.3 278.5c-25.8 0-46.8-21-46.8-46.8s21-46.8 46.8-46.8 46.8 21 46.8 46.8-21 46.8-46.8 46.8zm0-92.6c-25.2 0-45.8 20.5-45.8 45.8 0 25.2 20.5 45.8 45.8 45.8 25.2 0 45.8-20.5 45.8-45.8 0-25.2-20.5-45.8-45.8-45.8z"/><defs><path id="SVGID_5_" d="M0 0h749.9v428H0z"/></defs><clipPath id="SVGID_6_"><use xlink:href="#SVGID_5_" overflow="visible"/></clipPath><path d="M217.3 431.1s-6-32.3-8.2-48.5c-2.2-16.2-2-21.8 12.2-31.2s43.7-20.7 45.9-34c2.3-13.3 6.1-41.1-.9-61-7-19.8-28-32.9-45-34-17-1.1-24.4-1.1-36.3 6.2-11.9 7.4-23.2 17.6-31.2 34.9-7.9 17.3-4 21.9-9.1 36.9s-11.3 25.2-22.7 33.2c-11.3 7.9-21.5 13.6-21.5 13.6l2.3 7.4s-8.5 6.8-16.4 14.2c-7.9 7.4-6.2 12.5-6.2 12.5s-5.6 5.1-15 22.7-13.9 28.9-13.9 28.9l166-1.8z" clip-path="url(#SVGID_6_)" fill="#3a131b"/><path d="M49.7 433.9l.6-1.4c0-.1 4.7-11.6 14-29 8-15.1 13.3-21 14.8-22.5-.2-1.7-.1-6.6 6.6-12.9 6.7-6.3 14-12.2 16-13.8l-2.3-7.5.7-.4c.1-.1 10.3-5.7 21.5-13.6 10.4-7.3 16.9-16.8 22.3-32.7 2.2-6.3 2.7-10.8 3.2-15.2.7-6 1.3-11.8 5.9-21.8 6.9-15 16.9-26.2 31.6-35.3 12.4-7.7 20.2-7.5 36.9-6.4 16.7 1.1 38.5 13.6 45.9 34.7 5.1 14.5 5.4 35.2 1 61.5-1.7 10.2-17.9 18.9-32.2 26.6-5.3 2.9-10.3 5.6-14.2 8.1-13.9 9.2-13.9 14.6-11.8 30.2 2.2 16 8.2 48.1 8.2 48.4l.2 1.2h-1.2l-167.7 1.8zm52-86.2l2.2 7.3-.5.4c-.1.1-8.6 6.9-16.4 14.1-7.3 6.8-6 11.4-6 11.4l.2.6-.5.4c-.1 0-5.6 5.3-14.8 22.4-7.4 13.8-11.8 23.9-13.3 27.4L216 430c-1.1-5.9-6-33.1-8-47.3-2.3-16.5-1.8-22.6 12.6-32.2 3.9-2.6 9-5.3 14.3-8.2 13.9-7.5 29.6-16 31.2-25.2 4.3-25.6 4-46.5-.9-60.5-6.9-19.5-27.8-32.3-44.1-33.3-16.6-1.1-23.8-1.3-35.7 6.1-14.3 8.8-24.1 19.8-30.8 34.4-4.5 9.7-5.1 15.3-5.8 21.2-.5 4.5-1 9.1-3.3 15.6-5.5 16.3-12.2 26.1-23.1 33.6-9.4 6.9-18.2 12.1-20.7 13.5z" clip-path="url(#SVGID_6_)" fill="#1a1a17"/><path fill="#344186" d="M176.5 314.1l-12-15.6 23-18.4 2.6-18.5 22.6-3.6 43.7 18.7 7.1 40.8-23.5 5.6 6.8-33.1-23.9-11.9-46.4 36z"/><path class="st18" d="M239.3 323.8l6.9-33.6-23.2-11.5-46.6 36.2-12.5-16.4 23.2-18.6 2.6-18.7 23.2-3.8.1.1 43.9 18.9 7.2 41.5-24.8 5.9zm-16.4-46.3l24.4 12.2-6.7 32.8 22.3-5.3-7-40.1-43.3-18.6-22.2 3.6-2.5 18.3-.2.1-22.6 18.1 11.3 14.8 46.5-35.9z"/><path class="st19" d="M178.9 378.8s15.2-17 21.3-24.1c6-7.1 6.7-7.8 6.7-7.8s11.1-1.4 21.1-9.2c10-7.8 14.8-14.5 19.8-18.8 5.1-4.3 8.5-10.7 9.9-14.5 1.4-3.9 3-13.8-13.3-23.7-16.3-9.9-30.4-4.5-35.4-2.5-5.1 2.1-12 6-20.2 16.7 0 0-8 2.1-4.3 11.7 0 0-3.9 13.5-11.3 27.6-7.4 14.2-8.5 15.6-8.5 15.6l1.1 11 13.1 18z"/><defs><path id="SVGID_7_" d="M0 0h749.9v428H0z"/></defs><clipPath id="SVGID_8_"><use xlink:href="#SVGID_7_" overflow="visible"/></clipPath><path d="M196.9 431.6c-3.2-23.8-15-46.3-25.1-61.9l-6.4-8.8-.1-.6c-5.6-7.7-9.6-12.2-9.8-12.4l.7-.7c.1.1 3.7 4.2 8.8 11.1l-.8-8.8.1-.2s.1-.1.2-.3c.4-2.3 1.3-11.5-4.4-23.6l-.1-.3 11.2-17-7.7-9.7 21.7-17.7.6.8-20.9 17 12.1 15.2-.8.6-4.4-5.5L161 325c4.6 9.7 4.9 17.6 4.7 21.6 1.2-2.1 3.3-6 7-13 6.9-13.1 10.8-25.8 11.3-27.4-1.3-3.3-1.3-6-.2-8.3 1.4-2.7 4-3.7 4.7-3.9 8.5-11 15.6-14.8 20.3-16.7 4.7-1.9 19.1-7.7 35.9 2.5 16.6 10.1 15 20.4 13.6 24.3-1.5 4.2-5.1 10.6-10.1 14.8-1.9 1.6-3.8 3.6-6 5.9-3.4 3.6-7.7 8.1-13.9 12.9-9.3 7.2-19.7 9.1-21.2 9.3-.4.4-1.8 1.9-6.6 7.6-6 7-21.1 23.9-21.3 24.1l-.4.4c8.3 14.6 16.4 32.8 18.9 52l-.8.5zm-24.4-62.5l6.5 8.9c2.5-2.8 15.4-17.3 20.8-23.6 6-7 6.7-7.8 6.8-7.8l.1-.1h.2c.1 0 11.1-1.5 20.9-9.1 6.1-4.8 10.4-9.2 13.7-12.8 2.2-2.3 4.1-4.3 6.1-6 4.6-3.9 8-9.7 9.6-13.8-1-.8-4.2-2.9-11-3-.8 1.2-4.8 7.2-8.7 14.8-4.2 8.1-6 10.7-7.8 11-1 .2-1.9-.4-2.6-1-.6-.5-1.4-.8-2.1-1.1-.9-.3-1.8-.7-2.1-1.5-.2-.6-.1-1.3.3-2.3l.9.4c-.3.7-.4 1.2-.3 1.5.2.4.8.6 1.5.9.7.3 1.6.6 2.3 1.2.8.6 1.3.9 1.8.8 1.6-.3 3.8-4.1 7.1-10.5 4.4-8.6 8.9-15.1 8.9-15.2l.1-.2h.3c6.8 0 10.2 1.9 11.6 3 .4-1.3.8-3.1.6-5.3-6-1.3-11.4-.6-11.4-.6l-.1-1c.2 0 5.4-.7 11.4.5-.8-4.6-4-10.5-13.7-16.4-16.4-10-30.4-4.3-35-2.4-4.6 1.8-11.6 5.6-20 16.5l-.1.1h-.2s-2.9.8-4.2 3.4c-1 2-.9 4.6.3 7.6l.1.2v.2c0 .1-4 13.7-11.4 27.7-5.4 10.2-7.4 13.8-8.2 15.1 0 .2-.1.4-.1.4h-.1v.1l1 10.1c1.9 2.8 4 5.9 6.2 9.3zm.3 62c-.2-.3-15.9-27.8-31.3-43.4 12.6 23 21.7 42.8 21.8 43l-.9.4c-.1-.2-9.9-21.6-23.3-45.8-.3-.3-.6-.5-.9-.8l.3-.3-3.9-6.9c-2.3-3.9-4.5-7.3-6.7-10-.3-.1-.6-.3-.8-.4l.2-.4c-5.4-6.6-10.4-10-14-11.7-5.7-2.7-9.5-2.1-9.6-2.1l-.2-1c.6-.1 11.9-1.9 25.1 14.8 17.7 9.2 35.9 27 36.1 27.2l-.7.7c-.2-.2-17-16.6-33.9-26 1.8 2.4 3.6 5.2 5.4 8.4 1.5 2.6 3 5.3 4.5 7.9 16.2 15.1 33.6 45.6 33.8 46l-1 .4zm-34.3-1.1c-.1-.2-4.4-8.5-10.1-17.9l-13.7-4.7-18.1.4-14.1 9.2-.5-.8 14.3-9.4 18.5-.4 12.8 4.3c-5.6-9-12.3-18.7-17.6-23a88.5 88.5 0 00-11.8-3.6c-16.5-3.7-18.5-3.6-18.7-3.6l-.1-.4-.5-.4c.2-.3.7-.8 19.4 3.4 3.1.7 6.3 1.7 9.5 2.8l.3-.6c.8.4 1.6.9 2.4 1.5 14 5.3 26.1 12.9 26.3 13l-.5.8c-.1-.1-10.8-6.8-23.6-11.9 11.3 10.9 26 39.3 26.7 40.7l-.9.6zm84-93.4l-.7-.7c.1-.1.1-.2.1-.3 0-.1-.2-.2-.8-.3-1.9-.3-3.5-2.5-3.8-3l-4.2-2.6.5-.9 4.4 2.8s1.6 2.4 3.2 2.7c.9.2 1.4.5 1.6 1 .2.7-.3 1.2-.3 1.3zm8.4-34.6c-1.9 0-4.9-.6-7.4-4l.8-.6c3.4 4.7 7.9 3.5 8.1 3.4l.3 1c0 .1-.7.2-1.8.2zm5.2-4c-4.5-8.4-15.9-6.6-16-6.6l-.2-1c.1 0 12.2-1.9 17.1 7.1l-.9.5zm2.6-4c-5.5-9.2-21.7-9-21.9-9v-1c.7 0 17-.2 22.8 9.5l-.9.5z" clip-path="url(#SVGID_8_)" fill="#1a1a17"/><path class="st13" d="M212.8 301.4c-1.1-5.3 0-9.1 0-9.2l1 .3s-1 3.7 0 8.8l-1 .1z"/><defs><path id="SVGID_9_" d="M0 0h749.9v428H0z"/></defs><clipPath id="SVGID_10_"><use xlink:href="#SVGID_9_" overflow="visible"/></clipPath><path d="M421.4 433.4l-.6-75.4 100.7-34.9s.2-7.7.2-36 .7-37.4 6.3-37.4 18.3 2.8 22.8 31.7c4.4 28.9 8.9 82.2 8.9 82.2l-119 14.9s-2.6 15.1-.6 22.5c2 7.3-.9 16.5.6 22.8 1.4 6.2 1.4 11.3 1.4 11.3l-20.7-1.7z" clip-path="url(#SVGID_10_)" fill="#344186"/><path d="M443.1 436.2l-22.7-1.9-.6-77 .7-.2 100-34.6c0-2.4.2-11.8.2-35.3 0-29 .6-38.4 7.3-38.4 7 0 19.4 4.2 23.8 32.6 4.4 28.6 8.8 81.7 8.9 82.3l.1 1-119.2 14.9c-.5 3.1-2.2 15.2-.5 21.3 1.1 4.1.8 8.6.5 13-.3 3.6-.5 7.1.1 9.8 1.5 6.3 1.5 11.3 1.5 11.6v.9zm-20.7-3.7l18.7 1.5c-.1-1.8-.4-5.6-1.4-10-.7-3-.4-6.6-.2-10.4.3-4.2.6-8.6-.4-12.3-2-7.5.4-22.3.5-22.9l.1-.7.7-.1 118-14.8c-.6-7.3-4.7-54.8-8.8-81.2-4.1-26.9-15.4-30.9-21.8-30.9-4.6 0-5.3 8.6-5.3 36.4 0 28-.2 36-.2 36v.7l-.7.2-100 34.6.8 73.9z" clip-path="url(#SVGID_10_)" fill="#1a1a17"/><path class="st13" d="M217.2 303.7c-1.3-6.4 0-9.8 0-9.9l.9.4s-1.2 3.3 0 9.4l-.9.1z"/><path class="st23" d="M427.3 275c-23.9 0-43.4-19.5-43.4-43.4s19.5-43.4 43.4-43.4 43.4 19.5 43.4 43.4-19.5 43.4-43.4 43.4zm0-85.8c-23.4 0-42.4 19-42.4 42.4s19 42.4 42.4 42.4 42.4-19 42.4-42.4-19-42.4-42.4-42.4z"/><path class="st18" d="M207.6 347.7c-12.2 0-17.2-6.7-17.4-7l.8-.6c0 .1 5 6.5 16.6 6.5v1.1z"/><path class="st13" d="M199.3 384.2h-.4c-8.7 0-18.6-2.1-18.7-2.1l.2-1c.1 0 9.6 2 18.1 2.1l5.1-22.1.1-.1c.1-.1 11.3-10.2 42.9-30 3.1-2 5.9-3.4 8.3-4.6 2.9-1.5 5.1-2.6 6.7-4l.7.7c-1.7 1.5-4 2.7-6.9 4.2-2.4 1.2-5.1 2.6-8.2 4.6-29.8 18.8-41.4 28.7-42.7 29.8l-5.2 22.5z"/><path class="st19" d="M603.7 214l-34.3-40.8-53.6-31.4-47.9-7.1-42 18.7 6.8 26.1s9.6 10.6 14.5 12.5c4.8 1.8 5.4 1.8 5.4 1.8s2.3 3 6.5 4.1l5.4 2v1.1l4 .9s7.7 8.8 14.8 12.2c0 0-.3 6.6 2.5 14.2l1.1-6.7s.9 8.2 5.7 13.8c4.8 5.6 5.8 6.4 8.2 7.2 2.4.7 5.7 0 6.5 5.8.8 5.8 3.4 9.5 8.8 9.5s6.2-.6 7.9 4c1.7 4.5 4 5.9 6.5 6 3.7.1 6.2-1.4 8.5-4s2.8-2.2 3.7 1.1c.9 3.4.6 6 4 5.1 3.4-.9 5.7.7 5.7.7l22.1 58.9 10.5-3.1L603.7 214z"/><path class="st18" d="M574.1 330l-.2-.4-22-58.7c-.5-.3-2.5-1.2-5.1-.5-1.1.3-2 .2-2.6-.2-1-.6-1.3-1.9-1.6-3.6-.1-.5-.2-1.1-.4-1.7-.4-1.6-.7-2.4-1-2.4-.1 0-.6.1-1.8 1.5-2.7 3-5.4 4.2-8.9 4.1-3.2-.1-5.4-2.1-7-6.3-1.4-3.7-1.9-3.7-5.9-3.7H516c-5.2 0-8.3-3.3-9.3-9.9-.6-4.3-2.6-4.7-4.7-5l-1.5-.3c-2.5-.8-3.6-1.7-8.4-7.3-3.1-3.6-4.6-8.3-5.3-11.2l-1 5.7-.7-1.8c-2.5-6.8-2.6-12.6-2.6-14.1-6.6-3.3-13.5-10.9-14.5-12l-4.2-.9v-1.2l-5-1.9c-3.8-1-6.1-3.5-6.6-4.1-.7-.2-2.6-.8-5.3-1.8-4.9-1.8-14.3-12.2-14.7-12.6l-.1-.1v-.1l-6.9-26.5 42.5-18.9h.1l48 7.1 53.8 31.6 34.5 41v.2l-18.8 112.6-11.2 3.4zm-25.4-60.9c2.3 0 3.8 1 3.9 1l.1.1.1.2 21.9 58.4 9.8-2.9 18.6-111.7-34.1-40.6-53.4-31.4-47.7-7.1-41.4 18.5 6.7 25.5c.9 1 9.7 10.6 14.2 12.3 4.5 1.7 5.2 1.8 5.3 1.8h.2l.1.2s2.3 2.9 6.3 3.9l5.7 2.1v1.1l3.7.8.1.1c.1.1 7.7 8.8 14.6 12.1l.3.1v.3c0 .1-.2 5.5 1.9 12.1l.8-4.7h1c0 .1.9 8.1 5.6 13.5 4.7 5.5 5.7 6.3 8 7 .4.1.9.2 1.4.3 2.1.4 4.8.8 5.5 5.9.9 6.1 3.6 9 8.3 9h1.6c4.2 0 5.2.1 6.8 4.3 1.8 4.9 4.2 5.6 6.1 5.6 3.2.1 5.6-1 8.1-3.8 1.2-1.3 2-2 2.8-1.8.8.2 1.2 1.2 1.7 3.2.2.6.3 1.2.4 1.8.3 1.4.5 2.5 1.1 2.9.4.2 1 .3 1.8 0 .7 0 1.5-.1 2.1-.1z"/><defs><path id="SVGID_11_" d="M0 0h749.9v428H0z"/></defs><clipPath id="SVGID_12_"><use xlink:href="#SVGID_11_" overflow="visible"/></clipPath><path d="M757.6 249.8s-36-31.2-85.9-48.2c-49.8-17-68.6-19.5-68.6-19.5s-21.2 40-24.9 91.8 2.2 178.9 2.2 178.9l189.6-9.6-12.4-193.4z" clip-path="url(#SVGID_12_)" fill="#804700"/><path d="M579.4 453.9v-1c-.1-1.3-5.9-127.9-2.2-179.1 3.7-51.3 24.8-91.8 25-92.2l.3-.6.7.1c.2 0 19.4 2.7 68.8 19.5 49.5 16.9 85.8 48.1 86.2 48.4l.3.3v.4L771 444.2l-1 .1-190.6 9.6zm24.2-270.7c-2.7 5.3-21.1 43.3-24.5 90.7-3.5 48.7 1.7 165.7 2.2 177.8l187.6-9.5-12.3-192c-3.7-3.1-38.6-31.8-85.2-47.7-44-15-63.9-18.7-67.8-19.3z" clip-path="url(#SVGID_12_)" fill="#1a1a17"/><path transform="rotate(-17.565 197.976 266.289)" class="st18" d="M182.1 265.8h31.7v1h-31.7z"/><defs><path id="SVGID_13_" d="M0 0h749.9v428H0z"/></defs><clipPath id="SVGID_14_"><use xlink:href="#SVGID_13_" overflow="visible"/></clipPath><path d="M556.2 365.4s-13.5-99.7-18.8-108.1c-5.3-8.3-9.6-11.3-9.6-11.3l3.4-2.1s16.7 14.9 25.4 29.4c8.7 14.5 21.5 35.8 24.7 79.4 3.2 43.6-1.4 38.3-1.4 38.3s9.9 22 9.9 43.6l-153.4 6.7 1.3-70.5 118.5-5.4z" clip-path="url(#SVGID_14_)" fill="#8c500c"/><path d="M435.4 442.2l1.3-72.5 118.3-5.3c-4.7-34.7-14.4-100.2-18.5-106.6-5.1-8-9.3-11-9.3-11.1l-1.2-.9 5.3-3.3.6.5c.2.2 16.9 15.2 25.6 29.6 8.6 14.3 21.6 36 24.8 79.8 2.5 33.6.3 38.2-1 39.2 2.1 5 9.5 24.1 9.5 42.7v1l-155.4 6.9zm3.3-70.6l-1.3 68.5 151.4-6.6c-.3-20.9-9.7-42-9.8-42.2l1.7-1.1s-.1-.1-.3-.1c-.1 0-.3 0-.3.1.5-.4 2.7-4.2.2-37.5-3.2-43.3-16-64.7-24.5-78.9-7.7-12.8-21.7-26-24.7-28.7l-1.6 1c1.6 1.5 4.9 4.7 8.7 10.7 5.4 8.4 18.4 104.4 18.9 108.5l.1 1.1-118.5 5.2z" clip-path="url(#SVGID_14_)" fill="#1a1a17"/><path d="M486.4 441.4l-2-.1c.6-20-6.1-44.9-6.1-45.1l1.9-.5c.1.2 6.8 25.3 6.2 45.7zm9.4-4.5c-1.4-16.5-6.4-32.5-8-37.1l-3.8-2.6 1.1-1.6 3.5 2.4.5-.2s.1.3.3.8l30 21-1.1 1.6-27.8-19.5c2.1 6.6 6 20.6 7.3 35l-2 .2zm56.3-1.4l-1.8-.8c8.1-18.9 9.8-46.2 9.9-46.4l2 .1c-.1.3-1.9 27.9-10.1 47.1zm151.7-1.1l-1.8-.8c9.4-21.2 18.7-57.9 9.5-112.5-5.5-32.7-15.1-56.6-15.2-56.8l1.9-.8c.1.2 9.8 24.3 15.3 57.2 5.1 30.4 7.5 74.8-9.7 113.7zm-140.3-.7l-1.9-.5c5.5-19.9 3.4-34.7 3.4-34.8l2-.3c0 .5 2.2 15.2-3.5 35.6zm48.1-.3c0-.1-1.1-1.7-3-4.4h-.2v-.2c-5.7-8.3-18.1-25.7-27.3-34.6l1.4-1.4c9.2 8.9 21.4 25.9 27.3 34.5 1.6.2 5.1.3 7.8-1.8 2.3-1.9 3.5-5.1 3.5-9.5 0-14.5-12.8-21.7-12.9-21.8l-1.2-.7 1-.9s4.6-4.7 4.6-12.3c-.1-8.6-8.1-10.6-10.7-11.1-.7 2.4-1.2 3.7-1.2 3.7l-1.9-.6c.1-.3 10-30.8 18.4-72.3l.6-3c3-15.1 5.7-28.3 8.3-39.3v-.1c4.5-19.2 8.7-31.9 14.1-36.7l1.3 1.5c-4.5 4-8.3 14.7-12.1 30.2 3-4 8.1-9.8 15.7-15.1v-.3h.4c7.1-4.8 16.3-9.2 27.9-11.1l.3 2c-9.8 1.7-17.9 5.1-24.3 9 58-1 104 51.3 104.5 51.8l-1.5 1.3c-.5-.5-47.7-54.1-106.2-51-11.6 8-17.2 17.3-18.1 19.1-2.6 11.1-5.3 24.4-8.2 39.1l-.6 3c-6.3 31.2-13.5 56.2-16.7 66.9.6.1 1.3.3 2.1.5 2.7-3.1 38.6-43.6 53-68.1l1.7 1c-13.9 23.7-47.5 62-52.7 67.9l1.2.6c1 .5 1.8 1.1 2.6 1.8 2.1-.9 20.7-9.3 41.3-10.4l.1 2c-8.2.4-16.1 2-22.7 3.9 16.2 5.8 25.2 15.3 25.6 15.7l-1.5 1.4c-.1-.1-10.1-10.6-27.5-16.1-6.9 2.1-11.9 4.2-13.8 5.1 1.7 2.1 2.6 4.8 2.7 7.8.1 6.5-2.8 11-4.3 12.8 3.3 2.1 12.9 9.6 12.9 22.9 0 5.1-1.4 8.8-4.3 11.1-2.4 1.9-5.3 2.3-7.4 2.3h-.2c1.3 1.8 2 3 2 3l-1.8.9zm-156.7-22.5l-1.3-1.5 24.7-22.1 1.3 1.5-24.7 22.1zm133.5-32.2l-1.9-.5c.1-.3 7.7-27.3 12.6-60.8.3-2.1.6-4.3.9-6.5 3.6-25.2 7.9-54.9 16.9-74.7-4.1 5.7-7.6 11.4-10.3 16.3-6.7 12.1-10.5 21.9-10.5 22l-1.9-.7c.1-.3 11.3-29.2 29.8-49.5 1.3-1.7 2.7-3.1 4.2-4.4l.1.1c1.9-1.8 3.9-3.6 5.9-5.2l1.2 1.6c-3.5 2.7-6.8 5.9-9.9 9.3-13.7 17.4-19.1 54.9-23.5 85.6-.3 2.2-.6 4.4-.9 6.5-4.9 33.5-12.6 60.6-12.7 60.9zM601.3 239l-1.6-1.2c.2-.3 23.6-32 46.8-44.5l1 1.8c-22.8 12.3-45.9 43.6-46.2 43.9z" clip-path="url(#SVGID_14_)" fill="#4f2b08"/><path class="st29" d="M571 373.9s4 2.9 9.9 1.7c6-1.1 11.9-3.4 14.8-3.7 1.9-.2 3.4-.1 3.9 1.2 0 0 3.4-.1 2.3 2.8 0 0 4.1 1.7.3 4.5-3.5 2.6-6.5 4.6-13.8 6.9-9.9 3-8.1 6.7-12.6 8.4-4.5 1.7-7.6-1.1-10.3-4.7-2.2-2.9-5.2-3.5-5.2-3.5l4-7.1 6.7-6.5z"/><path class="st18" d="M573.2 396.6c-3.5 0-6-2.6-8.1-5.4-2.1-2.7-4.9-3.3-4.9-3.3l-.7-.1 4.4-7.8 7.1-6.8.3.2s3.9 2.7 9.5 1.6c2.9-.6 5.9-1.4 8.5-2.2 2.6-.8 4.9-1.4 6.4-1.5 1.8-.2 3.5-.1 4.3 1.2.6 0 1.8.2 2.4 1.1.4.5.4 1.2.2 1.9.6.3 1.6 1.1 1.8 2.2.1 1-.5 2-1.8 3-3.6 2.7-6.7 4.7-13.9 6.9-5.9 1.8-7.5 3.7-8.9 5.4-.9 1.1-1.8 2.2-3.7 2.9-1.1.6-2 .7-2.9.7zm-12.2-9.4c1.1.3 3.2 1.2 4.9 3.5 2.5 3.3 5.5 6.1 9.8 4.5 1.7-.6 2.4-1.5 3.3-2.6 1.4-1.7 3.2-3.9 9.4-5.8 7.1-2.2 10.1-4.2 13.6-6.8.7-.5 1.5-1.3 1.4-2.1-.1-.8-1.2-1.4-1.6-1.6l-.4-.2.2-.5c.2-.6.2-1.1 0-1.4-.4-.6-1.5-.7-1.9-.7h-.3l-.1-.3c-.4-.8-1.3-1.1-3.4-.9-1.4.1-3.6.8-6.2 1.5-2.6.8-5.6 1.6-8.6 2.2-5.1 1-8.8-.9-10-1.6l-6.5 6.2-3.6 6.6z"/><path class="st23" d="M573.9 373.8s-.2-3.2-12.6-14.9-21.6-20.2-29.1-23c0 0-7.3-19.9-22.1-28.4L499.6 288s5.5-1.1-.4-9.6-22.5-30.8-47.2-29.8l-22.7 11s-5.2 2.5-8 7.1-7.4 9.2-8.9 18.1c-1.4 8.8-1.7 16.8-.5 26.1s1.3 16 6.5 24.9l.9 3.5s-4.1 3.9-3.8 11c.4 7.1.4 11.7 6.7 18.8 6.4 7.1 15.5 13.8 19.7 15.2 4.3 1.4 7.9 11.7 13.6 11.3 5.7-.4 11.1-.7 14.8-4.3 3.7-3.5 3.7-3.9 3.7-3.9s2.6 6.4 9.1 12.1c6.5 5.7 15.7 8.9 24.9 5.7s14.9-8.2 26.6-12.4c11.7-4.3 15.9-6 15.9-6s7.8 2.5 10.3 1.4c2.6-.9 4.7-8.7 13.1-14.4z"/><path class="st18" d="M500.6 407.6c-6.3 0-12.7-2.5-18.1-7.2-4.8-4.2-7.5-8.7-8.7-11-.6.6-1.5 1.5-2.7 2.8-3.9 3.8-9.8 4.2-15.4 4.5-3.8.3-6.7-3.4-9.2-6.7-1.6-2.1-3.3-4.2-4.8-4.7-4.3-1.4-13.4-8-20.2-15.5-6.4-7.1-6.6-11.9-7-18.6v-.8c-.3-6.2 2.6-10 3.7-11.3l-.8-2.9c-4.5-7.7-5.2-13.8-6.1-21.4-.1-1.2-.3-2.4-.5-3.7-1.2-8.9-1-17.1.5-26.4 1.1-7.1 4.2-11.5 6.9-15.4.7-1.1 1.5-2.1 2.1-3.1 3-4.8 8.2-7.4 8.5-7.5l22.9-11.1h.2c17.4-.7 33.5 9.4 48 30.2 2.6 3.7 3.5 6.7 2.6 8.8-.4.9-1 1.5-1.6 1.9l9.9 18.3c13.7 8 20.9 25.3 22.1 28.3 7.3 3 15.9 10.7 29 23.1 12.1 11.4 12.9 14.9 13 15.5v.6l-.5.3c-5 3.4-7.7 7.6-9.7 10.6-1.3 2-2.3 3.5-3.5 4-2.5 1.1-8.7-.7-10.6-1.3-1.2.5-5.9 2.3-15.6 5.9-6 2.2-10.3 4.5-14.5 6.8-3.9 2.1-7.5 4.1-12 5.6-2.6 1-5.2 1.4-7.9 1.4zM475 387.2c0 .1 2.6 6.3 8.8 11.7 7.1 6.2 16 8.2 23.9 5.5 4.4-1.5 8-3.5 11.8-5.5 4.3-2.3 8.7-4.7 14.8-6.9 11.5-4.2 15.9-6 15.9-6l.3-.1.3.1c2.9.9 8 2.1 9.6 1.5.7-.3 1.6-1.7 2.6-3.3 1.9-2.9 4.6-7.2 9.6-10.7-.6-1.3-3-5.2-12.1-13.8-13.2-12.4-21.7-20.1-28.7-22.8l-.4-.2-.2-.4c-.1-.2-7.4-19.6-21.6-27.8l-.2-.1-11.3-20.9 1.3-.3s1-.2 1.3-1.2c.3-.8.4-2.8-2.4-6.8-14-20.1-29.6-30-46.1-29.3l-22.5 10.9c-.1 0-5 2.4-7.6 6.7-.6 1-1.4 2.1-2.1 3.2-2.6 3.7-5.5 7.9-6.6 14.5-1.5 9.1-1.6 17.1-.5 25.8.2 1.3.3 2.5.5 3.8.9 7.4 1.6 13.3 5.9 20.7l.1.2 1.1 4.1-.4.4s-3.8 3.7-3.5 10.2v.8c.3 6.5.5 10.8 6.4 17.4 6.5 7.2 15.4 13.6 19.3 15 2.1.7 3.9 3 5.7 5.4 2.3 2.9 4.6 5.9 7.3 5.9h.2c5.5-.3 10.7-.7 14.1-4 3-2.9 3.4-3.5 3.5-3.6l.5.3 1.4-.4z"/><path d="M431.3 155.6s1.1 3.7 4.5 6c0 0-4-3.4 5.4-7.1 9.4-3.7 26.4-10.5 43.4-8.2 17 2.3 15.7 7.7 22.9 9.1 7.2 1.4 10.7 2 13 7.9 2.3 6 .3 8 .3 8s10.2-3 20.7 5.3c10.5 8.4 11.3 15 24.4 18.1 13 3.1 19.2 15.6 28.7 15.6s11.5-1.2 16.6 4.8c5.1 6 7.7 6.1 15 3.6 7.4-2.5 9.6-4.1 11.3 0 1.7 4.1 3.5 10.8 9.6 7.7s10-6.3 10-2.5.6 7.5 5.1 5.7c0 0-.5-1 .2-6 .7-4.9-2.6-9-6.7-8.2-4.1.8-8.5 5.7-8.5-1.4s-3.4-13-11.6-11.6c-8.2 1.4-10.8 4.1-13-2.3-2.3-6.4-4.8-6.4-4.8-6.4s4.8-2 12 0c6.8 1.9 8.2.2 11.3-1.8 3.1-2 5.3 1.7 11.3 0s8.2-7.7 11.6-5.4c3.4 2.3 6.4.9 9.4-2.8 3-3.7 5-2.1 5-2.1s-1.8-7.6-6.8-3.3c-6.7 5.7-7.9-.9-12.8 1.7-4.8 2.6-4.3.3-4.8-2.3-.6-2.6-2.8-4.5-8.5-2.8-5.7 1.7-10.3-.6-15.8-4.8-5.5-4.3-9-5.7-19.4-3.4-10.3 2.3-15.9.6-21.5-3.7-5.7-4.3-10.8-1.7-17.6-2.3-6.8-.6-9.3-3.4-11.2-7.4-1.9-4-10.7-8.8-22.3-10.5 0 0 7.3 1.4 12.2-6.5 0 0-4 5.4-13.9 2.6 0 0 6.8 3.1 11.6-6.5l-2.2-2.8s-6.8 8.4-11.6-.3c-4.8-8.7-11.1-14.1-23.5-18.7-12.4-4.5-19.3-3.7-19.3-3.7s5.5-3.5 1.4-4.5c-4.4-1.1-12.8 1.4-12.8 1.4s.6-3.5-4.8-1.9c0 0-2.2-2.9-13-2.3 0 0 6.8 3.4 4.2 5.7-2.6 2.3-14.7 3.4-24.1 11.1-9.4 7.7-14.8 13-16.7 22.4 0 0-3.7.6-3.9-3.4-.3-4-3.7-3.9-4.8-1.1-1.1 2.8-2.5 9.6 3.1 11 0 0-4.3 6 1.7 10.5 0 0-.8 8.2 2.6 13.3 3.4 5.1 4.5 7.2 4.5 9.9 0 0-3.1-1.9-3.1 2.7 0 4.7 6.5 4.9 6.5 4.9s3.1 3.8 6.2 1.1c3.1-2.7 1.1-6.8-3.1-7.7 0 0 .6-3.9-1.4-6 0 0-2.6-1.8-2.3-8.2.4-7.1.1-10.2.1-10.2z" fill="#815310"/><path class="st18" d="M554.1 239.9c0-.2-.5-4.4.6-11.6.5-3.4-.3-6.7-2.2-8.9-1.4-1.7-3.4-2.7-5.4-2.7-3.3 0-4-.6-4.3-1.1-.1-.3-.1-.5-.1-.7-1.1-9.8-8.1-12.8-8.2-12.9l.4-.9c.3.1 7.7 3.3 8.8 13.8V215.2c.1.1.8.5 3.4.5 2.3 0 4.5 1.1 6.1 3 2.1 2.5 3 6 2.4 9.7-1.1 7-.6 11.2-.6 11.3l-.9.2zm106.1-9.3c-.6 0-1.2-.2-1.7-.5-1.6-1.1-1.8-3.7-1.8-6.2 0-.4-.1-1-.3-1.1-.7-.4-3 .8-5.4 2.2-1.1.6-2.3 1.3-3.5 1.9-1.7.9-3.3 1.1-4.6.6-2.6-1-4-4.4-5.1-7.2-.2-.5-.4-.9-.5-1.3-1.2-3-2.4-2.7-7.9-.7-.8.3-1.8.6-2.8 1-7.6 2.6-10.3 2.4-15.6-3.7-4.2-4.9-6-4.8-12.2-4.7-1.2 0-2.5.1-4 .1-5 0-9.1-3.3-13.5-6.8-4.2-3.4-9-7.3-15.4-8.8-8.7-2.1-12.1-5.7-16.4-10.4-2.2-2.4-4.6-5-8.2-7.9-10.1-8.1-20.1-5.3-20.2-5.2l-1.8.5 1.3-1.4s1.7-2-.4-7.5c-2.1-5.6-5.3-6.2-12.2-7.5l-.5-.1c-2.9-.6-4.4-1.7-6.2-3-2.8-2.1-6.3-4.6-16.7-6-16.6-2.2-33.6 4.5-42.8 8l-.4.1c-4.5 1.8-5.7 3.4-5.9 4.5-.2 1.1.6 1.8.6 1.8l-.6.8c-1.7-1.2-2.9-2.6-3.6-3.9 0 1.7 0 4.2-.1 7.7-.3 6 2.1 7.8 2.1 7.8 1.8 1.8 1.7 4.8 1.6 6 2.2.6 4 2.1 4.5 4 .4 1.6-.1 3.2-1.6 4.4-.9.8-2 1.2-3 1.1-1.8-.2-3.3-1.6-3.8-2.1-2.5-.2-6.8-1.5-6.8-5.4 0-1.8.4-2.9 1.3-3.4.6-.3 1.3-.3 1.8-.1-.2-2.2-1.4-4.3-4.4-8.9-3.1-4.7-2.8-11.9-2.7-13.4-4.9-3.9-2.8-8.8-1.9-10.4-1.4-.5-2.5-1.4-3.1-2.7-1.8-3.5.1-8.3.3-8.8.6-1.6 2-2.5 3.3-2.3 1.4.2 2.3 1.5 2.4 3.5.1 1.1.4 1.9 1 2.4.7.5 1.5.6 2 .6 2.1-9.7 8.1-15.1 16.8-22.3 6.1-5 13.2-7.2 18.4-8.8 2.7-.8 4.9-1.5 5.7-2.2.4-.4.4-.7.4-.9-.2-1.3-2.9-3.1-4.5-4l-1.7-.8 1.9-.1c9.2-.5 12.3 1.5 13.2 2.3 2.1-.5 3.5-.4 4.4.3.5.5.7 1 .7 1.5 2.1-.6 8.6-2.2 12.4-1.2 1.1.3 1.8.8 1.9 1.5.2 1-.9 2.2-1.8 3 2.7 0 8.8.5 17.8 3.8 12 4.4 18.7 9.7 23.8 18.9 1.3 2.3 2.8 3.5 4.5 3.7 3.3.3 6.3-3.4 6.3-3.5l.4-.5 2.8 3.6-.1.3c-2 3.9-4.3 5.8-6.3 6.6 5.4-.1 7.6-3 7.7-3.2l.8.6c-2.6 4.2-5.9 5.9-8.5 6.5 10.1 2.2 17 6.6 18.6 10 1.9 4 4.3 6.5 10.7 7.1 2.1.2 4.1 0 6-.1 4-.3 7.8-.5 11.8 2.5 5.2 3.9 10.6 5.9 21.1 3.6 10.7-2.4 14.4-.6 19.8 3.5 5.3 4.1 9.8 6.4 15.3 4.7 3-.9 5.3-.9 7 .1 1.1.6 1.9 1.7 2.2 3.1.1.4.1.8.2 1.1.1.9.3 1.6.6 1.8.5.2 1.6-.1 3.3-1 2.2-1.2 3.8-.6 5.3 0 1.9.8 3.7 1.5 7.4-1.7 1.5-1.3 2.8-1.7 4.1-1.3 2.5.8 3.4 4.7 3.5 4.8l.3 1.4-1.1-.9c-.1 0-1.7-1.2-4.3 2-2.2 2.7-5.6 5.9-10.1 2.9-1.5-1-2.7-.1-4.9 1.7-1.6 1.3-3.6 3-6.3 3.8-3.2.9-5.4.3-7.2-.2-1.5-.4-2.7-.7-4 .1-.3.2-.6.4-1 .6-2.5 1.7-4.5 3-10.7 1.3-4.8-1.4-8.6-.9-10.4-.4 1.1.7 2.5 2.4 3.8 6.1 1.6 4.5 3.1 4.1 7.6 3 1.4-.3 3-.7 4.9-1.1 3.4-.6 6.2 0 8.3 1.8 2.5 2.1 3.8 5.7 3.9 10.3 0 1.7.3 2.8.8 3.1.7.4 2.1-.2 3.5-.9 1.1-.5 2.4-1.1 3.6-1.3 1.9-.3 3.7.2 5 1.5 1.8 1.7 2.6 4.4 2.2 7.2-.6 4.6-.2 5.7-.2 5.7l.2.5-.4.2c-.6.5-1.3.7-2 .7zm-4.2-8.9c.3 0 .6.1.8.2.6.3.8 1 .8 2 0 2.1.2 4.5 1.4 5.4.6.4 1.5.4 2.6 0-.1-.7-.2-2.3.3-5.7.3-2.5-.4-4.9-1.9-6.4-1.2-1.1-2.6-1.5-4.2-1.3-1.1.2-2.3.7-3.4 1.3-1.8.8-3.3 1.5-4.5.8-.9-.6-1.3-1.8-1.3-4 0-4.3-1.3-7.7-3.5-9.6-1.9-1.6-4.4-2.1-7.5-1.5-1.9.3-3.4.7-4.8 1-4.6 1.1-6.9 1.7-8.8-3.6-2.1-5.9-4.3-6.1-4.4-6.1l-.2-1c.2-.1 5.1-2.1 12.3 0 5.8 1.7 7.4.6 9.9-1.1.3-.2.6-.4 1-.6 1.7-1.1 3.1-.7 4.8-.2 1.7.5 3.7 1 6.7.2 2.5-.7 4.4-2.2 6-3.6 2.1-1.7 3.8-3.2 6.1-1.7 2.9 1.9 5.6 1.1 8.8-2.7 2-2.4 3.6-2.7 4.6-2.6-.4-1.1-1.2-2.8-2.5-3.2-.9-.3-2 .1-3.1 1.1-4.1 3.5-6.4 2.6-8.4 1.8-1.4-.6-2.6-1-4.5-.1-2.1 1.1-3.4 1.4-4.2 1-.8-.4-1-1.4-1.2-2.5-.1-.3-.1-.7-.2-1.1-.3-1.1-.8-2-1.7-2.5-1.4-.8-3.5-.8-6.2 0-5.9 1.8-10.8-.7-16.2-4.9-5.2-4.1-8.6-5.6-19-3.3-10.9 2.4-16.5.3-22-3.8-3.7-2.8-7.2-2.5-11.1-2.3-1.9.1-4 .3-6.2.1-6.9-.6-9.6-3.5-11.6-7.7-1.7-3.7-10.3-8.5-21.8-10.2h-.2l.2-1h.3c1.1.1 5.3.3 9-3.4-2.1 1-5.2 1.7-9.7.7-1-.1-1.6-.4-1.7-.4l.3-.9c.6.2 1.2.3 1.8.4 2.2.2 6-.5 9.1-6.4l-1.7-2.1c-1 1.1-3.7 3.6-6.8 3.4-2.1-.2-3.8-1.6-5.3-4.2-4.9-9-11.5-14.1-23.3-18.4-12.2-4.4-19-3.7-19-3.7l-.3-.9c1.2-.7 2.8-2.2 2.7-2.9-.1-.4-.7-.6-1.1-.7-4.2-1-12.4 1.4-12.5 1.4l-.8.2.1-.8s.1-.8-.4-1.3c-.4-.4-1.5-.7-3.8 0l-.3.1-.2-.3s-2.1-2.4-10.8-2.2c1.4.9 3.3 2.4 3.5 3.8.1.5 0 1.1-.7 1.8-1 .9-3.1 1.5-6.1 2.5-5.1 1.6-12.1 3.8-18.1 8.6-10 8.2-14.7 13.3-16.6 22.1l-.1.3-.3.1c-.1 0-1.8.3-3.1-.8-.8-.7-1.3-1.7-1.4-3.1-.1-1.5-.7-2.5-1.6-2.6-.9-.1-1.8.6-2.3 1.7-.7 1.8-1.6 5.5-.4 8 .6 1.2 1.7 2 3.1 2.4l.7.2-.4.6c-.2.2-3.9 5.6 1.6 9.8l.2.2v.3c0 .1-.8 8.1 2.5 13 3.5 5.3 4.6 7.4 4.6 10.2v.9l-.8-.5c-.3-.2-1.1-.5-1.6-.2s-.8 1.2-.8 2.5c0 4.1 6 4.4 6.1 4.4h.2l.1.2s1.5 1.7 3.2 1.9c.8.1 1.6-.2 2.3-.8 1.1-1 1.6-2.2 1.2-3.4-.4-1.6-2-2.9-4.1-3.3l-.5-.1.1-.5s.5-3.7-1.2-5.5c-.4-.3-2.7-2.4-2.5-8.6.3-7 0-10.1 0-10.1l1-.2s.7 2.3 2.7 4.3v-.6c.3-1.9 2.5-3.7 6.5-5.2l.4-.1c9.2-3.6 26.4-10.4 43.3-8.1 10.7 1.4 14.2 4.1 17.1 6.2 1.7 1.3 3.2 2.4 5.8 2.9l.5.1c6.8 1.3 10.6 2.1 12.9 8.2 1.5 3.9 1.2 6.2.8 7.5 3-.5 11.5-1.2 20 5.6 3.6 2.9 6.1 5.6 8.3 8 4.2 4.5 7.4 8.1 15.9 10.1 6.6 1.6 11.5 5.5 15.8 9 4.4 3.5 8.2 6.6 12.9 6.6 1.5 0 2.8 0 4-.1 6.2-.1 8.6-.2 13 5.1 5 5.8 7.3 5.9 14.5 3.4 1-.3 1.9-.7 2.8-1 5.2-1.8 7.5-2.7 9.2 1.3.2.4.4.9.5 1.3 1.1 2.7 2.3 5.8 4.5 6.6 1.1.4 2.4.3 3.8-.5 1.3-.6 2.5-1.3 3.5-1.9 3.2-1.7 5-2.7 6.2-2.7zm-163.9 6.7c-.2-.4-3.7-9.7-1.5-15.9 1.6-4.4.8-5.9.4-6.3-.2-.1-.3-.2-.3-.2l.5-.8c.1 0 .2.1.4.3.7.4 2.7 1.1 6.9-.7 6.6-2.8 12.9-3.1 14.7-3.1v1c-1.7 0-7.8.2-14.3 3-3.1 1.4-5.2 1.4-6.5 1.1.3 1.1.3 3-.9 6.1-2.2 5.9 1.4 15.1 1.4 15.2l-.8.3zm2.8-13.8c-.5 0-.8-.1-.8-.1l.2-1-.1.5.1-.5c.2 0 4.1.9 6.2-5.3l.9.3c-1.7 5.4-4.9 6.1-6.5 6.1zm-8-8.6c-.8 0-1.8-.2-2.8-.6-1.6-.7-3.3-2.7-5.6-5.6-1.7-2-3.5-4.2-5.9-6.6-3.5-3.6-5.9-6.1-7.3-7.4.1 1.3-.6 1.9-1.9 2.8-.6.4-1.3.9-2.1 1.7-2.8 2.6-1.9 5.7-1.9 5.7l-1 .3c0-.2-1.2-3.7 2.1-6.8.9-.8 1.6-1.3 2.2-1.8 1.5-1.1 1.8-1.3 1.2-3.4l.8-.5s2.8 2.9 8.4 8.6c2.3 2.4 4.2 4.7 5.9 6.7 2.2 2.6 3.9 4.7 5.3 5.3 2.8 1.2 4.6.2 5.3-.9.3-.6.3-1 .3-1.6 0-.6 0-1.4.6-2.2 1.3-1.7 2.1-2.1 2.2-2.1l.4.9s-.6.3-1.8 1.8c-.4.5-.4 1-.4 1.6 0 .6 0 1.3-.5 2.1-.4 1.1-1.7 2-3.5 2zm49.7-5.9c-1.1-2-3.3-2.3-7.3-3-1.7-.3-3.7-.6-6-1.1l-1-.2c-7.1-1.5-9.5-2-9.5-8.8 0-6.4-1.6-8.7-1.6-8.8l.8-.6c.1.1 1.8 2.6 1.8 9.4 0 6 1.7 6.3 8.7 7.8l1 .2c2.3.5 4.2.8 5.9 1 4.2.7 6.7 1 8.1 3.5l-.9.6zm-70.4-1.1l-.5-.9c2.4-1.4 3-5.3 3.1-5.4l1 .2c-.1.2-.8 4.5-3.6 6.1zm78.8-.4c-.1-.2-5.4-16.7-15-20.7-3.6-1.5-6.5-1.8-8.4-.7-1.8.9-2.2 2.6-2.2 2.7l-1-.1s.1-3.2-1.7-8.6l1-.3c1 3.1 1.4 5.5 1.6 7 .4-.5 1-1.1 1.8-1.6 2.2-1.2 5.4-.9 9.3.7 10 4.2 15.4 20.6 15.6 21.3l-1 .3zm-92.7-5.7c-1.2-5.1 5.9-9.4 6.2-9.6l.5.9c-.1 0-6.8 4.2-5.7 8.5l-1 .2zm28.7-14.7l-.2-1s4.7-1.1 6.8-4.7l.9.5c-2.4 4-7.3 5.2-7.5 5.2zm-8.8-.5c0-.2-.2-4.3 5.1-7.5 5.1-3.1 9.3-4.4 9.4-4.5l.3 1s-4.2 1.3-9.2 4.4c-4.7 2.9-4.6 6.5-4.6 6.6h-1zm-5.8-4.9l-.4-.9s2.6-1.2 7.8-5.9c5-4.5 10.1-6.3 17.3-6.3v1c-7 0-11.8 1.8-16.7 6.1-5.4 4.8-7.9 5.9-8 6z"/><path class="st19" d="M528.5 218.7s4.8 2.2 6 7.7c1.1 5.2 1 5.7 4.2 5.6 4.1-.1 8.4 1.9 8.4 6.6 0 3.8-.6 4 3 3.8 2.5-.2 5.7-.1 6.9 5.8.3 1.5-.6 5 1.3 5.5 0 0-4.8 2.5-5.7-.9-.8-3.4-.6-3.6-5.5.9s-10.1 0-9.6-4.5c.3-3-.9-2.7-3.9-2.7s-6.5-.2-9.3-3.3c-3.6-3.9-1.7-11.5-1.7-11.5"/><path class="st18" d="M542.9 256.1c-.8 0-1.6-.2-2.4-.6-2.3-1.1-3.7-3.8-3.5-6.3.1-1 0-1.6-.2-1.9-.3-.4-1.2-.3-2.4-.3h-.8c-3.1 0-6.7-.3-9.7-3.4-3.8-4-1.9-11.6-1.8-11.9l1 .2c0 .1-1.8 7.4 1.6 11 2.7 2.9 6 3.1 8.9 3.1h.7c1.5 0 2.5 0 3.2.7.5.5.6 1.3.5 2.6-.2 2.1 1 4.4 2.9 5.4 1.9.9 4 .5 5.9-1.3l.1-.1c3.1-2.8 4-3.6 4.9-3.4.7.2.9 1 1.2 2.4l.1.5c.2.6.5 1 .9 1.2.9.4 2.3.1 3.2-.3-.7-.8-.7-2.4-.7-3.6 0-.6 0-1.3-.1-1.7-1.2-5.3-3.8-5.6-6.4-5.4-1.6.1-2.5.2-3.1-.3-.5-.5-.5-1.2-.5-2.5v-1.4c0-1.7-.6-3-1.6-4.1-1.4-1.4-3.7-2.1-6.2-2-3.3.1-3.5-.8-4.5-5.1l-.2-.9c-1.2-5.2-5.7-7.4-5.7-7.4l.4-.9c.2.1 5 2.3 6.3 8.1l.2.9c.9 4.3.9 4.4 3.4 4.3 2.8-.1 5.3.8 6.9 2.3 1.3 1.2 1.9 2.9 2 4.8v1.4c0 .9 0 1.6.1 1.8.2.2 1.4.1 2.3.1 2.1-.2 6-.4 7.5 6.2.1.5.1 1.2.1 1.9 0 1.7 0 3 .9 3.2l1.2.3-1.1.6c-.1.1-3 1.6-4.9.7-.8-.3-1.3-1-1.5-1.9l-.1-.5c-.2-.7-.4-1.5-.5-1.6-.4 0-1.9 1.4-3.9 3.2l-.1.1c-1.4 1.1-3 1.8-4.5 1.8zm-33-21.2c-1.6 0-2.7-.3-2.7-.3l.2-1c.1 0 6.7 1.6 10.6-3.4 4-5 1.8-15.5 1.8-15.6l1-.2c.1.4 2.3 11.1-2 16.4-2.7 3.4-6.4 4.1-8.9 4.1zm-26.2-20.4h-1l.1-7.6h1l-.1 7.6zm7.5-2.6l-.2-1s2.8-.6 4.5-3l1.9-2.6.8.6-1.9 2.6c-1.9 2.7-5 3.3-5.1 3.4zm23.2-13s-1.6-1.5-7.3-2.5c-5.9-1.1-12 1.2-12.1 1.3l-.4-.9c.3-.1 6.5-2.4 12.6-1.3 6.2 1.1 7.8 2.8 7.9 2.8l-.7.6zm5-26.5c-.3 0-.7 0-1.1-.2-3.3-.9-2.5-7.3-2.4-7.5l1 .1c-.2 1.6-.3 5.9 1.7 6.4s2.4-.7 2.4-.8l1 .3c-.3.7-1.1 1.7-2.6 1.7z"/><path class="st13" d="M464.7 168.9l-.6-.8c.1 0 7.3-5 9.5-8.6l.9.5c-2.3 3.7-9.5 8.7-9.8 8.9zm-21.6-8.7h-1l.1-1s4.9.5 8.7-2.2l.6.8c-3.1 2.1-6.7 2.4-8.4 2.4zm-1.1-2.6c-1.6 0-2.7-.2-2.9-.2l.2-1c.1 0 6.9 1.2 10.3-2.3l.7.7c-2.3 2.4-5.8 2.8-8.3 2.8z"/><path class="st18" d="M492.6 176.7c-.8-4.9-2.7-7.9-2.7-7.9l.8-.6c.1.1 2.1 3.2 2.9 8.3l-1 .2zm26.7-7.8l-1-.1c0-.3.4-7.8-5.1-8.7l.2-1c6.4 1.1 5.9 9.7 5.9 9.8zm-74.8-3.2c-3.1 0-5.6-1-5.7-1.1l.4-.9s4.4 1.9 8.7.5l.3 1c-1.3.4-2.6.5-3.7.5z"/><path class="st13" d="M660.6 227.1l-.9-.4c0-.1 2.1-5.5-.2-7.7-1.5-1.4-2.4-.9-4.2-.1-.9.4-1.9.9-3.2 1.2-1.9.4-3.8.7-5.3-.4-1.4-1-2.1-3-2.4-6.1-.5-6.6-2-7.5-5.6-8.2-1.1-.2-2.7.1-4.5.4-2.5.5-5.7 1.1-8.8.5-4.3-.8-5.4-3.7-6.4-6.5-.6-1.7-1.2-3.2-2.4-4.4-3.2-3.2-13.9-1.4-14-1.3l-.2-1c.5-.1 11.3-1.9 14.9 1.6 1.4 1.3 2 3.1 2.6 4.8 1 2.7 1.9 5.2 5.6 5.9 2.9.6 5.9 0 8.5-.5 1.9-.4 3.6-.7 4.9-.4 4.2.8 5.8 2.2 6.4 9.1.2 2.8.9 4.6 2 5.4 1.2.9 2.8.6 4.5.2 1.2-.3 2.2-.7 3-1.2 1.8-.9 3.4-1.6 5.3.3 2.7 2.7.5 8.6.4 8.8zm-162.8-10.4l-.1-1 .1.5-.1-.5c.1 0 3.3-.4 3.3-5h1c.1 5.5-4.1 6-4.2 6zm126.8-7.1c-4.1-1-6.1-2.9-9.2-6.8-2.8-3.6-4.8-5.2-11.2-5.2-6.8 0-8.7 0-13.3-3-4.4-2.8-14.4-4.2-14.5-4.2l.1-1c.4.1 10.4 1.5 14.9 4.4 4.4 2.8 6 2.8 12.8 2.8 6.9 0 9 1.8 12 5.6 2.9 3.7 4.9 5.5 8.7 6.5l-.3.9zm30-24.8c-2.2 0-4.4-1.2-7.7-4.4-2.4-2.3-6-2-9.8-1.6-4.1.4-8.3.9-12-1.8-5.3-3.9-8.9-2-13.2.1-1 .5-2.1 1-3.2 1.5-5.8 2.5-11 1.6-16.7-2.9-5.5-4.3-9-7-15.5-5-6.8 2.2-15.1 1.3-15.5 1.3l.1-1c.1 0 8.5.9 15.1-1.2 7-2.2 11 .8 16.4 5.1 5.6 4.3 10.3 5.2 15.8 2.8 1.1-.5 2.1-1 3.1-1.5 4.3-2.2 8.4-4.2 14.2 0 3.3 2.4 7.3 2 11.3 1.6 4-.4 7.9-.8 10.6 1.9 5 4.9 7.1 4.8 10.5 3.2 2.5-1.1 4-.8 5.7-.5.9.2 1.9.4 3.2.4v1c-1.4 0-2.4-.2-3.4-.4-1.6-.3-2.9-.6-5.1.4-1.4.6-2.7 1-3.9 1zM603 169.6c-3.1 0-9-.5-14.9-3.6-5.4-2.8-6.3-3.4-13.5-.8-7.5 2.6-12 1.4-12.2 1.4l.3-1s4.4 1.2 11.6-1.3c7.6-2.7 8.9-2 14.3.9 6.6 3.5 13.1 3.6 15.6 3.5v1c-.3-.1-.8-.1-1.2-.1zm-67-18.1c-9.6-3-31.8-2.5-32.1-2.5v-1c.9 0 22.6-.5 32.4 2.6l-.3.9zm-61.4-6.1l-.9-.3c.1-.2 1.8-4.6 13.3-6.1 11.2-1.4 16.8-2.4 16.8-2.4l.2 1c-.1 0-5.7 1-16.9 2.4-10.8 1.3-12.5 5.3-12.5 5.4zm-41.2-.2l-.7-.7c.1-.1 3.3-3.5 11-6.1 7.5-2.5 10.9-4.7 11-4.7l.5.8c-.1.1-3.6 2.3-11.2 4.8-7.5 2.6-10.6 5.8-10.6 5.9zm57.9-1.5l-.7-.7c.1-.1 2.9-2.5 13.3-2.5 10.3 0 18 1.1 18 1.1l-.1 1c-.1 0-7.7-1.1-17.9-1.1-9.9 0-12.5 2.2-12.6 2.2zm-26.7-.4l-.3-1c.1 0 5.4-1.5 9.9-5 3.5-2.7 7.6-3.1 11.9-3.5 1.6-.2 3.2-.3 4.9-.6 5.8-1 8-2.4 8-2.4l.5.8c-.1.1-2.4 1.5-8.4 2.6-1.7.3-3.3.5-5 .6-4.2.4-8.1.8-11.4 3.3-4.6 3.7-9.9 5.2-10.1 5.2zm5.5-8.8l-.6-.8c.3-.2 7.4-5.5 16.5-5.8v1c-8.7.3-15.9 5.6-15.9 5.6z"/><path class="st18" d="M536.8 139.6c-4-1-10.5-2.5-10.6-2.5l.2-1c.1 0 6.5 1.5 10.6 2.5l-.2 1zM434 136.8l-.8-.5c.2-.3 4.4-6.6 13.3-11.5 8.8-4.8 15.2-7.1 15.2-7.1l.3.9c-.1 0-6.3 2.3-15.1 7.1-8.6 4.7-12.9 11.1-12.9 11.1zm89.7-9v-1c-.1 0-.2.1-.3.2-.1.2-.1.3 0 .4-.6-1-11.4-7.7-23.8-9.1-13.3-1.6-22.6 1.5-22.7 1.6l-.3-.9c.1 0 9.6-3.2 23.2-1.6 12.3 1.5 24.8 8.5 24.7 10-.2.1-.4.4-.8.4zM478.8 111l-.6-.8c.2-.1 4.5-3 13.2-3.9l.1 1c-8.4.8-12.6 3.6-12.7 3.7zm-9.1-.9l-.4-.9c.1 0 6.6-2.7 10.3-5.9l.7.7c-3.9 3.4-10.4 6-10.6 6.1zm-5.7-3.3l-.2-1c.1 0 5.8-1.1 8.1-2.6 2.2-1.4 2.5-1.8 2.5-1.8l.7.7c-.2.3-1.8 1.3-2.7 1.9-2.4 1.7-8.2 2.7-8.4 2.8z"/><path class="st13" d="M440.1 333.5s-3.8-7.7-.1-9.8c3.7-2.1 6.4 1.7 9.5 6.1 3.1 4.4 4.3 10.9 1.3 12.5-3.1 1.5-8.5-1.9-10.7-8.8z"/><path class="st18" d="M449.1 343.1c-.7 0-1.4-.2-2.2-.5-3.1-1.3-5.9-4.7-7.3-9-.3-.6-3.9-8.1.1-10.4 4.1-2.3 7 1.8 10.1 6.2 2.4 3.4 3.6 7.9 3 10.7-.3 1.2-.9 2.1-1.8 2.6-.6.3-1.2.4-1.9.4zm-7.1-19.5c-.6 0-1.2.2-1.8.5-3.2 1.9.3 9 .3 9.1v.1c1.6 4.8 4.5 7.5 6.7 8.4 1.2.5 2.3.5 3.2.1.6-.3 1.1-1 1.3-1.9.6-2.5-.6-6.8-2.8-9.8-2.6-3.9-4.6-6.5-6.9-6.5zm159.2-132.4c-4.3 0-6.9-1.3-10.2-2.9-2.1-1-4.5-2.2-7.8-3.3-7-2.3-10.5-1-15 .6-1.7.6-3.5 1.3-5.7 1.8-8 2-14.9-4.8-15.2-5.1l.7-.7c.1.1 6.9 6.6 14.3 4.8 2.1-.5 3.9-1.2 5.5-1.8 4.5-1.7 8.3-3.1 15.6-.7 3.4 1.1 5.8 2.3 7.9 3.3 4.1 2 6.8 3.3 12.8 2.6 3.6-.4 6.3-1.5 8.7-2.4 3.8-1.5 6.9-2.6 11.1-.4 6.4 3.4 10.5 3.2 15.3 1.7l.3 1c-5 1.5-9.4 1.8-16.1-1.8-3.8-2-6.5-1-10.2.4-2.5.9-5.2 2-9 2.4-1.1.4-2.1.5-3 .5zm52.1-4.2c-.1 0-1.7 0-5-1.4-.6-.3-1.2-.6-1.7-.9-2.2-1.2-3.8-2-7.7.2-5.3 3-8.6 1.6-14.4-1.3-5.2-2.6-9.8-2.6-18.9 0-6.8 2-9.5.2-13.8-2.5-1.4-.9-3-1.9-4.9-2.9-5.5-2.8-9.5-1.5-14.6.2-1.8.6-3.7 1.2-5.8 1.8-6 1.4-10.1-1.6-15.3-5.4-2.2-1.6-4.7-3.5-7.7-5.2-9.6-5.6-22.3-5.4-22.5-5.4v-1c.1 0 13.1-.2 23 5.6 3 1.8 5.5 3.6 7.8 5.3 5.2 3.8 9 6.6 14.5 5.3 2.1-.5 3.9-1.1 5.7-1.7 5.1-1.7 9.5-3.2 15.4-.2 2 1 3.6 2 5 2.9 4.1 2.6 6.7 4.2 13 2.4 8.2-2.4 13.5-3 19.6 0 5.6 2.8 8.5 4 13.4 1.3 4.4-2.4 6.4-1.4 8.7-.2.5.3 1.1.6 1.7.8 3.1 1.3 4.6 1.4 4.6 1.4l-.1.9zm-115.1-43.6s-3.8-.9-7.7-2.5c-3.7-1.6-11.2-2.8-11.3-2.8l.2-1c.3 0 7.7 1.2 11.5 2.8 3.7 1.6 7.4 2.4 7.5 2.4l-.2 1.1z"/><path class="st29" d="M458.2 374.4s5.4 1.4 13.6 1.1c8.2-.3 9.1 0 11.6 3.1 2.6 3.1 6 11.3 14.5 13 8.5 1.7 14.2 1.4 16.2 5.7 2 4.3 3.1 6.5 7.4 7.4 4.3.9 10.8 1.2 15.3 0s5.6-1.6 6.3-2.9c.3-.6 2.9-1.3 3.7-2.7.4-.7 0-1.2.6-1.4 1.7-.6 2.3-1.9 2.5-2.9.4-2.3 0-2-.4-2.7-1-2.3-4.1-2.7-11.6-2.9-9.9-.3-17.6-.6-17.6-.6s-8.8-7.4-13.9-13.6c-5.1-6.2-15.6-13-15.6-13s.3-5.2-6.5-4.8c0 0-4.3-4-8.9-4.6-4.5-.6-11.8.6-11.8.6s1.2 2.3-.3 4.8l-3.6 1.1-4.9 2.8s1.7 4.3 1.7 7.7c0 3.4 1.7 4.8 1.7 4.8z"/><path class="st18" d="M529.7 406.1c-3 0-6-.3-8.4-.8-4.6-.9-5.8-3.4-7.7-7.6-1.4-3-5-3.6-10.4-4.4-1.6-.3-3.5-.5-5.4-.9-6.9-1.4-10.6-7-13-10.7-.6-1-1.2-1.8-1.7-2.5-2.4-2.9-2.9-3.2-11.2-2.9-8.2.3-13.5-1.1-13.8-1.2l-.2-.1c-.1-.1-1.9-1.6-1.9-5.2 0-3.3-1.6-7.4-1.6-7.5l-.2-.4 5.3-3.1 3.4-1.1c1.1-2.2.2-4.1.2-4.2l-.3-.6.7-.1c.3 0 7.5-1.1 12-.6 4.2.5 8.1 3.8 9 4.5 2.4-.1 4.2.4 5.4 1.6 1.2 1.2 1.4 2.8 1.5 3.4 1.6 1 10.7 7.2 15.5 13 4.7 5.7 12.6 12.5 13.7 13.4 1.2 0 8.4.3 17.4.6 7.3.2 10.9.6 12 3.2.1.1.1.2.2.3.4.5.5.9.2 2.7-.3 1.5-1.3 2.8-2.8 3.3v.2c0 .2 0 .6-.3 1-.5.9-1.7 1.6-2.7 2.1-.4.2-.9.5-1 .6-.8 1.5-2.1 1.9-6.6 3.2-2.2.5-4.7.8-7.3.8zM475.8 375c4.8 0 5.9.7 8.1 3.4.6.7 1.1 1.5 1.8 2.6 2.5 3.8 5.9 9 12.4 10.3 2 .4 3.8.7 5.4.9 5.5.9 9.5 1.5 11.1 5 1.9 4 2.9 6.3 7 7.1 4.4.9 10.7 1.2 15.1 0s5.4-1.6 6-2.7c.2-.4.7-.6 1.4-1 .8-.4 1.9-1 2.3-1.7.1-.2.1-.4.1-.6 0-.3.1-.8.7-1.1 1.7-.6 2.1-2 2.2-2.6.3-1.5.1-1.7 0-1.9-.1-.1-.2-.3-.3-.5-.8-2-4-2.4-11.1-2.6-9.8-.3-17.5-.6-17.6-.6h-.4c-.1-.1-8.9-7.5-14-13.7-5-6.1-15.4-12.9-15.5-12.9l-.2-.2v-.3s.1-1.7-1.2-3c-1-1-2.6-1.4-4.8-1.3-2.4.6-5.1 3-5.1 3l-.7-.7c.1-.1 2.3-2.1 4.7-2.9-1.4-1.1-4.6-3.4-7.9-3.8-3.6-.5-9.2.2-11.1.5.3.9.6 2.7-.5 4.7l-.1.2-3.8 1.2-4.5 2.6c.4 1.2 1.6 4.6 1.6 7.4 0 2.7 1.1 4.1 1.4 4.4.8.2 6 1.4 13.3 1.1 1.8-.3 3.1-.3 4.2-.3z"/><path class="st29" d="M485 284.1s.1 2.7 2.9 8.1c2.8 5.4 3.4 7.1 3.4 7.1s-2.8 4.5-7.9 8.2c-5.1 3.7-12.2 7.1-15.6 8.5-3.4 1.4-14 5.7-16.8 7.1-2.5 1.2-3.2 2.3-3.2 4.5 0 0-.4 1.3.2 2.3.7 1.1 1.6 1.3 1.6 1.3s0 2 2.1 2c0 0-.4 1.5.7 2.1 1.1.6 3.8-.7 4.9-1.1 1.1-.4 3.2-.2 6.9-1.8s5.5-2.4 7.8-4.3c2.3-1.8 3.4-4.5 3.4-4.5s7.9-2.3 14.3-5.7c6.4-3.4 10.1-5.8 13.3-8.6 3.2-2.8 4.9-3.5 7.1-4.7 2.1-1.1 2.1-3.7.6-5.4-1.6-1.7-2.6-3.9-4.8-7.7-2.7-4.5-4.1-6.2-4.1-6.2l-3.6-1.4-11.8-.7-1.4.9z"/><path class="st18" d="M453.2 336c-.4 0-.7-.1-1-.2-.9-.5-1.1-1.4-1.1-2.1-.5-.1-.9-.3-1.3-.6-.5-.5-.7-1.1-.7-1.5-.4-.2-1-.6-1.5-1.4-.6-1-.3-2.3-.2-2.6 0-2.4.9-3.6 3.5-4.9 2.3-1.1 9.4-4 14.1-6l2.7-1.1c3.1-1.3 10.3-4.7 15.5-8.4 4.4-3.1 7.1-7 7.7-7.9-.2-.6-1.1-2.6-3.3-6.8-2.9-5.4-3-8.2-3-8.3v-.3l1.7-1 12.1.7 3.7 1.5.1.1c.1.1 1.5 1.8 4.2 6.3.6 1 1.1 1.9 1.6 2.8 1.2 2.2 2.1 3.6 3.2 4.8 1 1 1.4 2.4 1.2 3.6-.2 1.1-.9 2-1.9 2.5-.3.2-.7.4-1 .5-1.7.9-3.3 1.7-6 4.1-3.2 2.8-7 5.3-13.4 8.7-5.8 3.1-12.8 5.2-14.2 5.6-.3.7-1.5 2.9-3.4 4.5-2.3 1.8-4.1 2.7-7.9 4.3-2.5 1.1-4.4 1.3-5.6 1.5-.6.1-1 .1-1.3.3-.2.1-.4.2-.7.3-1.5.5-2.8 1-3.8 1zm-.8-3.3l-.2.7s-.3 1.2.5 1.5c.7.4 2.7-.4 3.8-.8.3-.1.5-.2.7-.3.4-.2.9-.2 1.5-.3 1.2-.2 2.9-.4 5.3-1.4 3.8-1.6 5.5-2.4 7.7-4.2 2.1-1.7 3.2-4.3 3.3-4.3l.1-.2.2-.1c.1 0 8-2.3 14.2-5.6 6.4-3.4 10.1-5.8 13.3-8.6 2.8-2.4 4.4-3.3 6.2-4.2.3-.2.6-.3 1-.5.8-.4 1.2-1 1.4-1.8.2-.9-.2-2-.9-2.8-1.2-1.3-2.1-2.8-3.3-5-.5-.8-1-1.7-1.6-2.7-2.3-3.8-3.7-5.7-4-6.1l-3.4-1.3-11.6-.6-.9.5c.1.8.6 3.4 2.9 7.6 2.8 5.4 3.4 7.1 3.4 7.2l.1.2-.1.2c-.1.2-2.9 4.7-8.1 8.4-5.2 3.8-12.3 7.2-15.7 8.6l-2.7 1.1c-4.4 1.8-11.8 4.9-14 6-2.5 1.2-2.9 2.1-2.9 4.1v.2s-.3 1.1.1 1.8c.5.9 1.2 1 1.2 1l.4.1v.4s0 .7.5 1.1c.3.3.7.4 1.2.4l.4-.3z"/><path class="st29" d="M426.8 351.3s4.1-2 7.5-4.1c3.4-2.1 6-3.3 6.8-4.1 2-2-.2-3.1-.2-3.1s2.4-2.3.2-3.8c0 0 1.8-3.1-1.2-3.4 0 0 1-4.1-10.1.1-2 .8-6.1 3.2-6.9 6-.1.1-.8 2.8 3.9 12.4z"/><path class="st18" d="M426.5 352l-.2-.4c-4.6-9.5-4.1-12.4-4-12.7 1-3.3 5.7-5.8 7.2-6.4 5.4-2.1 8.8-2.5 10.1-1.3.4.4.6.8.6 1.2.7.2 1.2.5 1.5 1 .5.9.1 2-.2 2.6.5.4.8 1 .8 1.5.1.9-.5 1.8-.9 2.3.3.3.7.7.8 1.3.1.7-.2 1.5-1 2.2-.5.5-1.5 1.1-2.9 1.8-1.1.6-2.5 1.4-4 2.3-3.4 2.1-7.5 4.1-7.6 4.1l-.2.5zm-3.2-12.8s-.5 2.7 3.7 11.5c1.2-.6 4.3-2.2 7-3.8 1.5-1 2.9-1.7 4-2.4 1.3-.7 2.3-1.3 2.7-1.7.5-.5.7-.9.7-1.3-.1-.6-.8-.9-.8-.9l-.6-.3.5-.5c.3-.3 1-1.2 1-2 0-.4-.3-.8-.7-1.1l-.4-.3.2-.4c.2-.4.7-1.5.3-2.1-.2-.3-.6-.5-1.2-.6l-.6-.1.1-.6s.1-.4-.3-.8c-.5-.4-2.4-1.1-9.1 1.5-1.6.8-5.7 3.2-6.5 5.9z"/><path class="st29" d="M460.3 254.7s-1.5 3.4-2.7 6.2c0 0-4.5 1.6-8.5 4s-6.3 4.4-6.3 4.4-3.1-2-8.2-1.3-6.3 2-7.9.7c0 0 .6-.9.7-4.8.1-4 .3-7.2 1.1-9.5.9-2.3.3-5.2-.9-6-1.1-.7-8.8-3.1-8.8-3.1l-7.1-11.2-5.7-13.2 8.8-12.5 9.4-2.6s3.1-1.7 8.5-.6 5.7 2.4 7.2 4.1c1.6 1.7 3.3 2.7 3.5 3.5.3.9 1 2.6 1 2.6s.7.1 1.3 2.4c.6 2.3 1.3 2 3.1 4.3s3.5 4.3 4.1 6.7c.6 2.4 1.4 3.4 1.7 6.1.4 3.7-.7 6.5-1.7 7.5 0 0 1 5.5 2 7.9 1 2.4 3 3.8 3 3.8l2.4.6z"/><path class="st18" d="M443 269.9l-.3-.2s-3-1.9-7.9-1.2c-1.8.3-3.1.6-4.2.8-1.8.5-2.9.7-4.1-.2l-.4-.3.3-.4s.5-.9.6-4.6c.2-4.4.3-7.4 1.2-9.7.8-2.2.2-4.8-.6-5.4-.9-.6-6.6-2.4-8.7-3.1l-.2-.1-.1-.2-7.1-11.2-5.8-13.5 9.1-12.8 9.5-2.6c.5-.2 3.6-1.7 8.8-.6 4.8 1 5.7 2.1 6.9 3.6.2.2.4.5.6.7.7.7 1.4 1.3 2 1.9.9.7 1.5 1.3 1.7 1.9.2.7.7 1.9.9 2.3.4.2.9.9 1.4 2.7.3 1.3.7 1.6 1.4 2.3.4.4.9.9 1.6 1.7l.3.4c1.7 2.1 3.3 4.1 3.9 6.5.2.9.5 1.7.8 2.4.4 1.1.8 2.1 1 3.8.4 3.4-.5 6.4-1.7 7.7.2 1.1 1.1 5.5 1.9 7.6.8 2 2.4 3.3 2.7 3.5l2.8.5-.3.6s-1.5 3.4-2.7 6.2l-.1.2-.2.1s-4.5 1.6-8.4 3.9c-3.9 2.4-6.2 4.3-6.2 4.4l-.4.4zm-15.6-1.4c.7.4 1.4.2 2.9-.2 1-.3 2.4-.6 4.3-.9 4.3-.6 7.3.7 8.2 1.2.7-.6 2.8-2.3 6.1-4.2 3.5-2.1 7.4-3.6 8.4-3.9.8-2.1 1.9-4.4 2.3-5.5l-1.8-.4c-.1-.1-2.1-1.5-3.1-4-.7-1.8-1.5-5.3-1.8-7-2 1.7-5.1 2.8-5.2 2.9l-.3-.9s3.5-1.3 5.3-3.1v-.1l.2-.2c.8-.8 2-3.5 1.6-7.1-.2-1.5-.5-2.5-.9-3.5-.3-.7-.6-1.5-.8-2.5-.5-2.2-2-4-3.7-6.1l-.3-.4c-.6-.8-1.1-1.3-1.5-1.6-.8-.7-1.3-1.2-1.7-2.8-.4-1.8-.9-2.1-1-2.1l-.3-.1v-.2c0-.1-.7-1.7-1-2.6-.1-.3-.7-.9-1.4-1.4-.6-.5-1.3-1.2-2.1-1.9-.2-.3-.4-.5-.6-.7-1.1-1.3-1.9-2.3-6.3-3.2-5.1-1.1-8.1.5-8.2.5h-.1l-9.2 2.5-8.5 12.1 5.6 12.9 7 11c1.3.4 7.6 2.4 8.7 3.1 1.4.9 1.9 4.2 1.1 6.6-.9 2.3-1 5.7-1.1 9.3-.3 2.6-.6 3.9-.8 4.5z"/><path class="st31" d="M445.8 234.1l-.3-1 .1.5-.1-.5s.9-.3 1.7-1.2c.3-.3.6-.6.9-.8.5-.3.8-.6 1-1.1l1 .3c-.2.8-.8 1.2-1.3 1.6-.3.2-.6.4-.8.7-1 1.2-2.1 1.5-2.2 1.5z"/><path class="st18" d="M448.4 236.4l-.5-.9s1.4-.8 2-1.6l.1-.2 1.3-.2.1 1-.9.1c-.7 1-2 1.8-2.1 1.8zm-18.9-4.6l-1-.3c0-.1.8-2.6 2.4-4.5 1.4-1.7 1.6-3.4 1.6-3.4l1 .1c0 .1-.2 2-1.8 4-1.5 1.7-2.2 4.1-2.2 4.1zm3.8-.4h-1c.2-5.2 2.9-6.5 3-6.5l.4.9-.2-.5.2.5s-2.2 1.1-2.4 5.6zm11.6-1.8c-.3 0-.6-.1-.9-.1l.3-1c.2.1 1.1.2 1.3-.2.2-.5.7-1 1.1-1.4.4-.4.7-.7.8-1 .1-.2 0-.4-.1-.6-.3-.6-1.2-1.5-3-2-2.5-.7-3.9-2.4-3.9-2.4l.8-.6s1.2 1.5 3.4 2.1c1.8.5 3.1 1.5 3.6 2.5.2.5.3 1 .1 1.4-.2.4-.6.9-1 1.3s-.8.8-1 1.1c-.2.7-.9.9-1.5.9zm-4.9-12.3l-.7-.7 2.5-2.5c.8-.9 1.6-1.3 1.6-1.4l.5.9s-.7.4-1.4 1.2l-2.5 2.5z"/><path class="st23" d="M404.6 268l-.8-.7 15.9-18.1.8.7-15.9 18.1zm-4-3l-.7-.7 15.9-16.5.7.7-15.9 16.5zm-4.6-12.3c-.5 0-1-.1-1.5-.3-2.2-.9-2.3-3.5-2-4.8l1 .2c0 .1-.6 2.9 1.4 3.7.9.3 1.8.3 2.8-.2 1.4-.7 2.6-2.1 3.3-4.1-1.8-1-3.1-3.1-3.1-3.2l.9-.5s2.5 4.1 5 3c.6-.3 1.3-.7 1.4-1.6 0-1.1-1.3-2.5-3.2-3.5l.4-.9c2.4 1.1 3.8 2.8 3.8 4.4 0 1.1-.7 1.9-2 2.5-.8.3-1.5.3-2.2.1-.8 2.2-2.1 3.8-3.8 4.6-.8.5-1.5.6-2.2.6zm-9.2-7.8l-.6-.8 18.1-13.2.6.8-9.8 7.1 1.7 1.4-.6.8-1.9-1.6-7.5 5.5zm-1.4-5.1l-.6-.8 19.3-13.1.6.8-19.3 13.1zm21.9-21.1l-17.6-7.3.4-.9 17.6 7.3-.4.9zm38.4-2.7l-.7-.8 14-12.3.7.8-14 12.3zm-36.4-2.7l-16.9-6.3.3-.9 16.9 6.3-.3.9zm24.5-6.6l-.8-.6 10.1-14.6.8.6-10.1 14.6zm-4-.7l-.8-.5 9.9-15.9.8.5-9.9 15.9z"/><path class="st18" d="M441.3 218.7l-.8-.6c.1-.1 1.9-2.7 4.3-3.2l.2 1c-2 .4-3.6 2.8-3.7 2.8zM433.1 232.9v-.8s2.9 0 4.4-1.9l.6.5c-1.7 2.2-4.8 2.2-5 2.2zm3.2-2.1l-.6-.5c2-2.3 1.8-3.6 1.8-3.6l.7-.1c.1.2.3 1.6-1.9 4.2zm6.8-10.3v-.7c.1 0 2-.2 2.4-1.8l.7.2c-.5 1.6-2.2 2.2-3.1 2.3z"/><path class="st19" d="M421.8 237.4s-.4-2-2.4-2.4c0 0-.4-2.1-3.1-2.5 0 0-.3-.9-3.1-2.3-2.8-1.4-3.4-3.4-3.5-4.7-.1-1.3 1.6-3.3 1.7-5.2.1-2 1.4-1.8 2.1-4.4.7-2.6 2.3-1.8 2.8-3.5.6-1.7 2.7-4.4 1.8-5.4-.8-1 1.3 1.4 4.8 1.1 3.6-.3 7.9-.8 11.1 0 3.1.9 6.7 2.1 6.7 2.1s1.1-1.1-1.2-3c-2.3-1.8-8.6-2.7-12-2.8-3.4-.1-7.4.3-10.6 1.8-3.3 1.6-4.1 1.3-4.1 1.3s-2.7 1.1-4.4 4.3c-1.7 3.1-1.6 5.8-3.3 8.1-1.7 2.3-1.8 1-1.8 5s-.4 8.2 1.8 12.8c2.3 4.5 3.3 5.7 5.8 5.7 2.6 0 3.4.7 3.4 2.3 0 1.6-1.1 1.7-.4 3.1.7 1.4-1.6 2.4-.6 3.3 1 .8 3 .6 4.5.8 1.6.3 3.4-.8 4-2.6.6-1.7 1.3-2.6 3.4-2.4 2.1.1 3.2-.3 3.7-.7.4-.4-1-1.8-1-1.8s-3.4.6-5.5-.1-3.5-3.3-2.8-4.8c.7-1.6 2.3-1.8 2.3-1.8v-1.3h-.1z"/><path class="st18" d="M542.3 402c-1-1.9-4.5-.8-4.5-.8l-.3-1c.2-.1 4.3-1.4 5.7 1.2l-.9.6zm5-2.6l-.9-.4c.1-.2.1-.6-.1-.9-.1-.1-.1-.2-.2-.2-1.4-.4-3.5.1-3.5.1l-.2-1c.1 0 2.4-.6 4 0 .4.1.6.4.8.8.3.4.3 1.1.1 1.6zm2.7-3.5l-1-.2c0-.2.1-.7-.2-1.1-.2-.2-.5-.3-.9-.4-2.1-.1-3.7.2-3.7.2l-.2-1c.1 0 1.7-.3 3.9-.2.7 0 1.3.3 1.7.8.6.8.4 1.8.4 1.9zm-98.7-6.9c-2.8-.4-4.7-2.6-8.1-7-3.4-4.4-2-12.7-1.9-13l1 .2c0 .1-1.3 8.2 1.7 12.2 3.3 4.3 5 6.2 7.5 6.6l-.2 1zm93.1-2.5c-1.3 0-2.4-.7-3.5-1.4s-2.3-1.4-3.8-1.6c-1.6-.2-3.6-.1-5.7-.1-2.7.1-5.8.2-8.6-.2-5.1-.7-9.2-5.1-9.4-5.3l.7-.7s4.1 4.3 8.8 4.9c2.7.4 5.8.3 8.4.2 2.2-.1 4.2-.1 5.9.1 1.8.2 3.1 1 4.3 1.7 1.3.8 2.4 1.5 3.8 1.1l.2 1c-.5.3-.8.3-1.1.3zm-103.1-4c-5-3.6-7.8-12-9.8-18.1-2.2-6.7-5.4-13-5.5-13.1l.9-.5c0 .1 3.3 6.5 5.5 13.2 2 6 4.7 14.2 9.5 17.6l-.6.9zm101.8-1.2c-3.2 0-4.4-.4-5.8-.8-.5-.2-1.1-.3-1.8-.5-2.4-.5-5.5.5-5.6.6l-.4.1-.2-.4s-.8-1.5-2.2-3c-1.1-1.2-4.4-2.2-5.6-2.6l.3-1c.2 0 4.6 1.2 6.1 2.9 1 1.1 1.8 2.3 2.1 2.8 1-.3 3.6-.9 5.7-.5.7.2 1.3.3 1.8.5 1.3.4 2.5.8 5.5.8 4.6 0 11.1-2.3 15.9-5.6l.6.8c-4.8 3.6-11.6 5.9-16.4 5.9zm52.5-2.8l-.6-.8c.1 0 .6-.4 2.8-1.3.4-.1.7-.3 1-.4 1.5-.6 2.4-1 3.9-.3l-.4.9c-1.1-.5-1.6-.3-3.1.3-.3.1-.7.3-1.1.4-2 .8-2.5 1.1-2.5 1.2zm-.8-3.3l-.4-.9s.4-.2 1.7-.9c2.2-1.2 3.9-.9 4-.9l-.2 1s-1.5-.2-3.4.8c-1.3.7-1.7.9-1.7.9zm-66.1-6.7c-2.1-2.7-4.4-3.4-6.7-4-1.5-.4-2.9-.8-4.1-1.7l-.8-.6c-2.3-1.8-3.3-2.6-7.9-3.6-5.5-1.2-6.8-6.1-6.9-6.3l1-.3c0 .2 1.3 4.5 6.1 5.6 4.9 1.1 6 1.9 8.3 3.7l.8.6c1.1.8 2.4 1.2 3.8 1.5 2.3.6 5 1.3 7.2 4.4l-.8.7zm9.7-4.4c-1-.3-2.1-.8-3.5-1.4-3.2-1.3-7.1-3-11.3-3.6-3.3-.5-5.8-2.2-8.5-4.1-2.3-1.7-4.8-3.4-7.9-4.2-5.3-1.5-8.5-3.8-12.9-7.1-1.2-.9-2.6-1.9-4.1-3-6.8-4.8-12.8-6.8-19-6.4-6.4.4-7.3-1.2-7.5-1.5l.9-.4s.8 1.3 6.5.9 11.3 1.3 17.4 5.1c.8-1.3 3.7-6 4.7-10 1.1-4.8 5.5-16 5.7-16.5l.9.4c0 .1-4.5 11.6-5.6 16.4-1 4.2-4 9-4.8 10.3.4.3.9.6 1.4.9 1.1.8 2.1 1.5 3 2.2.8-1.5 4.1-7.3 6.1-14.1.7-2.3 1.5-4.5 2.2-6.7 1.9-5.5 3.8-10.6 2.9-13.9l1-.3c1 3.6-.9 8.9-2.9 14.5-.8 2.2-1.6 4.4-2.2 6.7-2.1 7.1-5.5 13.1-6.3 14.4.1.1.2.1.3.2 4.3 3.2 7.5 5.6 12.6 7 3.3.9 5.8 2.7 8.2 4.4 2.6 1.8 5 3.5 8.1 4 4.3.6 8.3 2.3 11.6 3.6 1.3.6 2.5 1 3.4 1.3l-.4.9zm-12.8-16.7s-4.6-.6-12.4-.3c-8 .3-13.4-3.3-13.6-3.5l.6-.8c.1 0 5.3 3.6 13 3.3 7.9-.3 12.5.3 12.6.3l-.2 1zm-91.9-4.5l-.1-1s1.1-.2 3.7-1.4c2.9-1.4 4.6-.6 4.7-.6l-.4.9.2-.5-.2.5s-1.4-.6-3.8.6c-2.9 1.3-4.1 1.5-4.1 1.5zm-.5-3.4l-.3-1s2.8-.9 4.7-1.8c2.1-1 4-.9 4.1-.9l-.1 1s-1.7-.1-3.6.8c-2 1-4.7 1.9-4.8 1.9zm-.3-3.7l-.3-.9s3.5-1.3 5.4-2c1.9-.7 2.6-.5 2.8-.3l-.3.4-.2.4s-.5-.1-2 .4c-1.9.7-5.4 2-5.4 2zm19-2.1l-.6-.8c.2-.1 3.8-2.8 7-3.6l.3 1c-3.1.8-6.7 3.4-6.7 3.4zm59.8-1.7l-6.3-.1v-1l6 .1c.8-.5 5.4-2.9 8.6-1.2l-.5.9c-3-1.5-7.7 1.2-7.7 1.2l-.1.1zm-61.9-.6l-.9-.5c0-.1.9-1.4 3.3-2.8 2.1-1.3 4.7-1.7 4.8-1.7l.2 1s-2.5.4-4.5 1.6c-2.1 1.1-2.9 2.3-2.9 2.4zm-12.2-2.5c-1.7-12.7-14.5-25.2-14.6-25.3l.7-.7c.5.5 11.3 10.9 14.3 22.8.2-1 .6-3.1.7-4.3.5-4.6 1.2-7.9 3.1-10.4-.3-.7-2.4-5.2-6.9-8.8-5.2-4-8-11.8-8.1-12.1l.9-.3c0 .1 2.8 7.8 7.8 11.7 4.2 3.3 6.3 7.2 7 8.7l.3-.3c-.7-2.2-3.1-9.8-5.2-15.5-2.6-6.9-1.5-13.3-1.4-13.6l1 .2c0 .1-1.1 6.5 1.4 13.1 2 5.4 4.3 12.5 5.1 15.1.4-.3.8-.6 1.3-.9 2.3-1.5 3.2-1.4 4-1.3.6.1 1.2.1 2.5-.7l.7-.4c1.3-.8 2.2-1.4 3-1.6.4-1.3 1.6-4.8 3.5-10.5 2.5-7.2 2.8-20.4 2.8-20.5h1c0 .5-.3 13.5-2.9 20.8-1.8 5.2-2.9 8.6-3.4 10.1.5.1 1.1.3 1.8.6l-.5.9c-1.8-.9-2.3-.6-4.8 1l-.7.4c-1.6 1-2.4.9-3.1.9-.7-.1-1.4-.1-3.4 1.1-.5.3-1 .7-1.5 1.1h-.1c-2.5 2.2-3.5 5.3-4.1 11.2-.2 1.6-.8 4.8-.9 4.9l-.7-.2c.2.8.4 1.7.5 2.5l-1.1.3zm10.6-.1l-1-.2c0-.2.4-1.5 4.1-3.6 1.6-.9 4-1.6 4.1-1.6l.3 1s-2.4.7-3.9 1.5c-3.3 1.8-3.6 2.9-3.6 2.9zm8.8-7.7l-.9-.4s1.4-3.2 3.7-10.4c2.2-7.2 2.5-20.2 2.5-20.3h1c0 .5-.3 13.2-2.6 20.6-2.3 7.2-3.7 10.3-3.7 10.5zm8.9-12c-.8-3.8.2-5.3 2.2-8.4.4-.6.8-1.2 1.2-1.9 1.3-2 2.2-4.3 2.9-6.2-2.2.4-4.3 0-4.8-1.1-.1-.3-.4-1.1.6-1.9.1-.1.3-.2.4-.3 0-.2.1-.5.1-.8.8-4.8 1.3-17.2 1-21.2-.3-4.4 1.4-6.8 1.5-6.9l.8.6s-1.6 2.2-1.3 6.2c.3 4-.2 16.6-1 21.4v.2c.8-.2 1.9-.3 3-.4 1.8-.2 3.9-.4 5.9-1.2 3.2-1.4 5.1-2.7 7.2-4.3.5-.3 1-.7 1.5-1.1 2.9-2 7.6-3.1 7.8-3.2l.2 1s-4.7 1.1-7.5 3c-.1.1-.3.2-.4.3l11.1.5 3.4 1.4-.4.9-3.3-1.4-12-.3c-2 1.5-4 2.8-7.1 4.2-1.5.6-3 .9-4.4 1.1-.4 1.6-1.8 6.3-4.2 10.1-.4.7-.9 1.3-1.2 1.9-2 3-2.8 4.2-2.1 7.6l-1.1.2zm6.7-17.6l.1.3c.3-1 .6-1.8.7-2.4-.2 0-.5 0-.7.1-1.7.2-3.2.3-3.9.9-.2.2-.4.4-.3.7.2.4 1.8 1 4.1.4zm-32 5.3h-1c0-2.3.9-3.4 1.9-4.5.2-.2.3-.4.5-.6.7-.9.4-6.6-.1-10.4l1-.1c.2 1.6 1.1 9.7-.1 11.2-.2.2-.4.4-.5.6-1 1-1.7 1.8-1.7 3.8zm13.9-1.4l-1-.1s.3-4.3.3-5.9c0-1.8.9-3.1.9-3.1l.8.6s-.8 1.1-.8 2.5c.1 1.7-.2 5.8-.2 6zm2.5-9.7l-.2-.2.4-.4-.4-.3c.1-.1.4-1.1 1.3-8.3 1.1-8.9 4.3-11.3 4.5-11.4l.6.8-.3-.4.3.4s-3 2.3-4.1 10.7c-1.1 8.7-1.4 8.8-1.7 8.9l-.4.2zm-38.7-32.5c-.2 0-.4 0-.6-.1-.5-.1-1-.1-1.6-.2-1.2-.1-2.4-.1-3.2-.8-.8-.7-.3-1.5.1-2.1.4-.6.6-.9.4-1.4-.5-1-.2-1.6 0-2.1.2-.3.3-.7.3-1.2 0-1-.2-1.8-2.9-1.8-2.9 0-4-1.3-6.3-5.9-2-4-2-7.8-1.9-11.4v-1.6c0-2.9.1-3.2.9-4.1.3-.3.6-.6 1-1.2.9-1.1 1.2-2.4 1.6-3.9.4-1.2.8-2.7 1.6-4.2 1.7-3.2 4.5-4.4 4.6-4.5l.2-.1.2.1c.2 0 1.2-.1 3.7-1.3 3.9-1.9 8.5-2 10.9-1.9 3.7.2 10 1.1 12.3 2.9 1 .8 1.6 1.7 1.6 2.5s-.4 1.2-.4 1.2l-.2.2-.3-.1s-3.6-1.3-6.6-2.1c-2.6-.7-6.2-.4-9.3-.1-.5 0-1 .1-1.6.1-1.4.1-2.8-.2-4.2-.8-.1.8-.6 1.8-1.2 2.9-.4.7-.7 1.3-.9 1.8-.3.9-.9 1.3-1.4 1.6-.6.4-1.1.7-1.4 1.9-.4 1.3-.9 2-1.3 2.6-.4.5-.7.9-.8 1.7-.1 1.1-.6 2.2-1 3.1-.4.8-.7 1.6-.7 2.1.2 1.9 1.3 3.3 3.3 4.3 2.1 1.1 2.9 1.9 3.2 2.3 2.2.4 3 1.9 3.2 2.6 2.1.6 2.5 2.6 2.5 2.7v1.5l-.4.1c-.1 0-1.3.3-1.9 1.6-.2.5-.2 1.2.1 1.9.5 1.1 1.4 1.9 2.4 2.3 2 .7 5.3.1 5.3.1h.3l.2.2c.2 0 .5-.1.6-.2.2-.2.3-.5.3-.9 0-1.5-1-1.6-1.1-1.6l.1-1c.7.1 2 .7 2 2.6 0 .7-.2 1.3-.7 1.6-.2.1-.3.2-.5.3.2.4.5.7.4 1.1 0 .2-.1.4-.2.6-.4.4-1.5 1-4.1.8-1.9-.1-2.4.5-2.9 2.1-.3 2-2 3.2-3.7 3.2zm-5.5-45.2c-.5.3-2.7 1.4-4 4-.8 1.4-1.1 2.7-1.5 4-.4 1.5-.8 2.9-1.8 4.2-.5.6-.8 1-1.1 1.3-.6.6-.7.7-.7 3.4v1.6c0 3.5-.1 7.1 1.8 10.9 2.3 4.5 3.1 5.4 5.4 5.4 1.9 0 3.9.3 3.9 2.8 0 .8-.2 1.3-.4 1.7-.2.4-.3.6 0 1.2.5 1-.1 1.8-.4 2.4-.4.6-.4.6-.3.7.5.5 1.5.5 2.6.6.6 0 1.2.1 1.7.2 1.3.2 2.9-.8 3.4-2.2.6-1.8 1.5-2.9 3.9-2.8 1.7.1 2.8-.2 3.2-.5-.1-.2-.3-.5-.6-.9h-.2v-.1c-.9.1-3.6.4-5.5-.2-1.3-.4-2.4-1.5-3-2.8-.4-1-.5-1.9-.1-2.7.6-1.3 1.6-1.8 2.2-2v-.6c-.1-.3-.5-1.7-2-2l-.3-.1-.1-.3c0-.1-.4-1.8-2.7-2.1h-.3l-.1-.3s-.4-.8-2.9-2c-2.3-1.1-3.6-2.8-3.8-5.1-.1-.8.3-1.6.8-2.6.4-.9.9-1.8.9-2.7.1-1.2.5-1.7 1-2.3.4-.5.8-1.1 1.2-2.2.4-1.6 1.2-2.1 1.9-2.5.5-.3.8-.5 1-1.1.2-.6.6-1.3.9-2 .5-1 1.3-2.5 1-2.9-.2-.2-.4-.5-.3-.8-.1.1-.3.1-.4.2-2.6 1.1-3.8 1.2-4.3 1.2zm17.1-.9c1.5 0 3 .1 4.3.5 2.5.7 5.3 1.6 6.3 2v-.2c0-.4-.3-.9-1.2-1.7-2.1-1.7-8.3-2.6-11.8-2.7-2.1-.1-5.9 0-9.4 1.3.1 0 .2.1.3.1.5.3 2.2 1.4 4.5 1.2.5 0 1-.1 1.5-.1 1.8-.2 3.7-.4 5.5-.4z"/><g><defs><path id="SVGID_15_" d="M0 0h749.9v428H0z"/></defs><clipPath id="SVGID_16_"><use xlink:href="#SVGID_15_" overflow="visible"/></clipPath><path d="M193.8 430.6c-2.3-21.3-21.4-54.1-25.2-60.4-7.8-13.1-15.7-21.1-15.8-21.2l-.1-.1v-.2c0-4.2.6-7.7.6-7.8l1 .2s-.5 3.3-.6 7.4c1.1 1.2 8.5 9 15.8 21.2 3.8 6.4 23 39.4 25.3 60.9h-1zm-30.7-77.1h-1c0-.1 0-7.4-.8-14.4-.8-6.9-5-15.6-5.1-15.7l-.1-.3 11.2-17 .8.6-10.9 16.5c.7 1.5 4.2 9.3 5 15.8.9 7 .9 14.4.9 14.5zm86.1-90.8l-2.3-4 .9-.5 2.3 4-.9.5zm-7.4-1.2l-.9-.3 1.1-3.4.9.3-1.1 3.4zm-9-3.1l-.4-.9 6.5-3.1.4.9-6.5 3.1zm20-1.4l-3.1-1.4.4-.9 3.1 1.4-.4.9zm-8.2-3.6l-.9-.4.5-1.3-1.8-.7.4-.9 1.8.7.6-1.6.9.4-.6 1.5 1.8.7-.4.9-1.8-.7-.5 1.4zm-7.5-2l-2.3-.3.1-1 2.3.3-.1 1zm14.7-1.5l-.4-.9 2.6-1.2.4.9-2.6 1.2zm-11.1-2.5l-2.8-4.5.8-.5 2.8 4.5-.8.5zm6.3-.7l-1-.2.5-2.8 1 .2-.5 2.8z" clip-path="url(#SVGID_16_)" fill="#bf9d66"/></g><path fill="#bf9c6e" d="M175.3 299.9h-1v-6.2l9.8-8.4.6.8-9.4 8.1z"/><path class="st18" d="M217.2 338.4c-3.1-.4-4.3-3.4-4.4-3.5l.9-.4s1.1 2.6 3.6 2.9l-.1 1zm-29.3-31.9c-1.4-6.8 2-9.2 2.2-9.3l.6.8-.3-.4.3.4c-.1.1-3.1 2.2-1.8 8.3l-1 .2z"/><path class="st31" d="M194.6 242.9s-11.1 15-13 29.5l39.4-10.8"/><path class="st18" d="M246.9 322.2l-.2-1 16.3-4.1-7.3-40.1-34.6-15v.1l-40.1 11 .1-.8c2-14.4 13-29.6 13.1-29.7l.8.6c-.1.1-10.6 14.6-12.8 28.5l37.5-10.3-6.2-2.7.2-.5c8-17.9 19.5-19.8 20-19.9l.1 1c-.1 0-11.3 1.9-19 18.8l41.7 18 7.5 41.5-17.1 4.6z"/><path class="st31" d="M167.7 263.9s-7.9 23.8-3.7 34.6"/><path class="st18" d="M163.5 298.7c-4.3-10.8 3.3-33.9 3.7-34.9l.9.3c-.1.2-7.8 23.8-3.7 34.2l-.9.4z"/><path class="st13" d="M573.7 210.1c-.5-3.6-3.5-4.9-3.7-5l.4-.9c.1.1 3.7 1.6 4.3 5.8l-1 .1zm-5.3-.6l-1-.2c.5-3.1-1.7-4.8-1.8-4.9l.6-.8c.2.2 2.8 2.3 2.2 5.9z"/><path class="st18" d="M532.7 260.8h-1v-5.5c0-4.2-4.2-5.3-7.6-6.3-.5-.1-.9-.3-1.3-.4-3.1-1-3.3-2.8-3.4-4.9 0-.4-.1-.8-.1-1.3-.3-2.5-.4-3.3-4.5-3.3-4.5 0-6-.7-6-.7l.4-.9-.2.5.2-.5s1.4.6 5.6.6c4.6 0 5.1 1.1 5.5 4.2.1.5.1.9.1 1.3.1 2.1.2 3.2 2.7 4 .4.1.8.2 1.3.4 3.5 1 8.4 2.3 8.4 7.2v5.6z"/><path class="st13" d="M436.6 262.7c-2.2 0-3.8-.3-3.9-.3l.2-1s4.5.8 8.6-.3l.3 1c-1.9.5-3.7.6-5.2.6zm-4.1-9.1l-.2-1c.1 0 5.4-.9 8.9-2.5l.4.9c-3.6 1.7-8.9 2.6-9.1 2.6zm108.7-7l-1-.2c1.3-5.4-2.9-7.9-3-7.9l.5-.9c.1 0 4.9 2.9 3.5 9zm-8.5-9.8l-1-.2c2.7-11.2-3.7-15.2-4-15.4l.5-.9c.1 0 7.4 4.6 4.5 16.5zm16.6-6.9c-.2-2.6-.9-4.4-2.1-5.2-1.2-.8-2.4-.4-2.5-.4l-.3-.9c.1 0 1.8-.6 3.4.5 1.5 1 2.4 3 2.6 6h-1.1zm2.5-2.5c-.2-3.3-1.1-5.6-2.8-6.9-2.1-1.6-4.7-.9-4.8-.9l-.2-1c.1 0 3.1-.8 5.6 1.1 2 1.4 3.1 4 3.3 7.6l-1.1.1zm-13.8-2.7h-1c0-15.7-7.7-18.6-7.8-18.6l.3-.9c.4 0 8.5 3.1 8.5 19.5zm2.6-6.4h-1c.5-11.8-6.8-14.7-7.1-14.8l.3-.9c.2-.1 8.4 3.1 7.8 15.7zm-7.9-24.1s-4.5 0-10.8-.9c-6.7-1-7.3-4.2-7.3-4.3l1-.2s.6 2.6 6.5 3.5c6.3.9 10.6.9 10.6.9v1zm-4.4-8.8c-6.3-1.3-8.4-3.4-8.5-3.5l.7-.7s2 2 8 3.2l-.2 1zm2-3.7c-3.9-2-8.3-2.9-8.4-3l.2-1c.2 0 4.6.9 8.6 3l-.4 1z"/><path class="st18" d="M475.1 386.6l-.8-.6c3.6-5.4 7.9-3.6 8-3.6l-.4.9c-.2 0-3.7-1.3-6.8 3.3zm-25.7-13h-1V370l2.5-2.8 5-.6.1 1-4.6.5-2 2.3v3.2zm-3.3-5.4l-.1-2.5c-3.8 1-10.6 2.1-10.9 2.2l-.2-1c.1 0 9-1.4 12.1-2.5l7.9-2.9.3.9-8.3 3 .1 2.7-.9.1zM476.6 173.9c1.2-1.2 2.6-1.4 4.6-1.1 1.5.3 1.6 1.3.2 2.4-1 .8-2.6 1.1-4.2.7-1.5-.4-1.1-1.4-.6-2z"/><path class="st18" d="M478.7 176.6c-.5 0-1-.1-1.5-.2-.9-.2-1.4-.6-1.5-1.2-.1-.5.1-1.1.6-1.6 1.3-1.3 2.8-1.6 5-1.2 1.2.2 1.5.8 1.6 1.2.1.4.1 1.2-1.1 2.1-.8.5-2 .9-3.1.9zm1-3.4c-1.1 0-2 .3-2.8 1.1-.2.2-.4.5-.3.7 0 .2.3.3.8.5 1.3.3 2.8.1 3.7-.6.6-.5.8-.9.8-1.1 0-.2-.3-.3-.8-.4-.5-.2-.9-.2-1.4-.2zM461.3 195c-.5-1.3-.3-2.3.8-3.2 1.1-.9 2.3-.5 2.6.6.2 1 .2 1.6-.6 2.9-.6 1.1-2.3.7-2.8-.3z"/><path class="st18" d="M462.9 196.4h-.2c-.8-.1-1.5-.6-1.8-1.3-.6-1.5-.3-2.7 1-3.7.7-.6 1.5-.8 2.2-.5.6.2 1 .7 1.2 1.4.2 1.2.2 1.8-.7 3.3-.4.5-1 .8-1.7.8zm-1.1-1.6c.1.3.5.6 1 .6.2 0 .6 0 .9-.4.8-1.2.8-1.7.6-2.6-.1-.3-.2-.5-.5-.6-.4-.1-.8 0-1.2.3-1 .9-1.2 1.6-.8 2.7zM435.4 229.1c.4 0 .8-.5.8-1.1 0-.6-.3-1.1-.8-1.1-.4 0-.8.5-.8 1.1 0 .6.4 1.1.8 1.1z"/><path class="st18" d="M435.4 229.6c-.7 0-1.3-.7-1.3-1.6s.6-1.6 1.3-1.6c.7 0 1.3.7 1.3 1.6s-.6 1.6-1.3 1.6zm0-2.1c-.1 0-.3.2-.3.6s.2.6.3.6c.1 0 .3-.2.3-.6s-.2-.6-.3-.6zM443.8 218.4c.4 0 .6-.3.6-.7s-.3-.7-.6-.7-.6.3-.6.7.2.7.6.7z"/><path class="st18" d="M443.8 218.9c-.6 0-1.1-.5-1.1-1.2s.5-1.2 1.1-1.2c.6 0 1.1.5 1.1 1.2s-.5 1.2-1.1 1.2zm0-1.4c-.1 0-.1.1-.1.2 0 .2.3.2.3 0l-.2-.2zM233.9 297.8c.7-1.1.7-2.4 0-2.8-.7-.4-1.8.2-2.5 1.3s-.7 2.4 0 2.8 1.9-.2 2.5-1.3z"/><path class="st18" d="M231.9 299.7c-.3 0-.5-.1-.8-.2-.4-.2-.6-.6-.7-1-.2-.7 0-1.7.5-2.5.8-1.4 2.2-2 3.2-1.5.4.2.6.6.7 1 .2.7 0 1.7-.5 2.5-.6 1.1-1.5 1.7-2.4 1.7zm1.5-4.4c-.4 0-1.1.4-1.6 1.2-.4.6-.5 1.3-.4 1.7 0 .2.1.3.3.4.4.2 1.3-.2 1.8-1.1.4-.6.5-1.3.4-1.7 0-.2-.1-.3-.3-.4 0 0-.1-.1-.2-.1zM255 305.8c.7-1.3.8-2.5.2-2.8-.5-.3-1.5.5-2.1 1.8-.7 1.3-.8 2.5-.2 2.8.4.2 1.4-.6 2.1-1.8z"/><path class="st18" d="M253 308.1c-.2 0-.3 0-.4-.1-.2-.1-.4-.3-.5-.6-.2-.7 0-1.7.5-2.8.7-1.3 1.9-2.5 2.8-2 .2.1.4.3.5.6.2.7 0 1.7-.5 2.8-.6 1.1-1.5 2.1-2.4 2.1zm2-4.6c-.2 0-.9.4-1.5 1.6-.6 1.1-.6 2-.4 2.1.2 0 .9-.4 1.5-1.6.5-1.2.5-2 .4-2.1z"/><path class="st13" d="M230.3 297.5l-1-.3c.6-2.4 1.8-3.1 1.9-3.2l.5.9-.3-.4.3.4s-.9.6-1.4 2.6zM251.8 306.5l-1-.2c.4-2.6 1.6-3.5 1.7-3.5l.6.8-.3-.4.3.4s-.9.7-1.3 2.9zM522.7 37h-34.6v-1h34.6v1zm113.3-.3h-36.4v-1H636v1zm-452.2-2.6h-35.7v-1h35.7v1zm101.5-.2H248v-1h37.3v1z"/><path class="st18" d="M253.8 310.2c-4.6 0-6.9-2.2-7-2.3l.7-.7s2.6 2.5 7.7 2l.1 1c-.5-.1-1 0-1.5 0z"/><path class="st13" d="M264.5 312.2c-.3-2-.6-4.5-.9-7.2-1.3-10.8-3.4-28.9-5.7-30.2-3-1.8-42.4-18-42.8-18.1l.4-.9c1.6.7 39.9 16.3 43 18.2 2.5 1.5 4.3 14.9 6.2 31 .3 2.7.6 5.2.9 7.2h-1.1zm-100.9-17.8l-.5-.9c11.5-6.7 20-15.3 20.1-15.4l.7.7c-.1.1-8.7 8.8-20.3 15.6zm18.9-24l-.3-1 34.6-9.1.3 1-34.6 9.1z"/><path class="st23" d="M447.1 219.4l-.7-.7 14.9-13.3.7.7-14.9 13.3zm-1.4-11.7l-5.7-4.1.6-.8 2.5 1.8 1.9-3.1-2.3-1.6.6-.8 6.2 4.3-.6.8-3.1-2.1-1.9 3.2 2.3 1.7-.5.7z"/></svg>
