<svg version="1.1" id="Слой_1" xmlns="http://www.w3.org/2000/svg" xmlns:xlink="http://www.w3.org/1999/xlink" x="0" y="0" viewBox="0 0 749.9 428" xml:space="preserve"><style>.st1{fill:#1b150e}.st3{fill:#9e5d1b}.st4{fill:#939475}.st6{fill:#cbad70}.st8,.st9{clip-path:url(#SVGID_4_);fill:#1b150e}.st9{fill:#ba7f05}.st14,.st15{clip-path:url(#SVGID_6_);fill:#1b150e}.st15{fill:#a5760e}.st19{fill:#50420f}.st21{clip-path:url(#SVGID_8_);fill:#1b150e}.st25,.st26{clip-path:url(#SVGID_12_);fill:#cbad70}.st26{fill:#1b150e}.st27{fill:#153826}.st28{fill:#693b04}.st31{clip-path:url(#SVGID_16_);fill:#1b150e}</style><defs><path id="SVGID_1_" d="M0 0h749.9v428H0z"/></defs><clipPath id="SVGID_2_"><use xlink:href="#SVGID_1_" overflow="visible"/></clipPath><g clip-path="url(#SVGID_2_)"><path d="M319.6 58.1l82.8-52.4L454.2 17l67.3 65.2 75.9 63.8 35.4 38.2L355 331.6l-126.1-70.8L236 129l83.6-70.9z"/><path class="st1" d="M355 332.2l-.2-.1-126.4-71 7.1-132.4.2-.1 83.7-70.9 83-52.6 52.2 11.4.1.1 67.2 65.2 75.9 63.8 35.9 38.8L355 332.2zm-125.6-71.7L355 331.1l277-147-35-37.8-75.9-63.7L454 17.5 402.5 6.2l-82.6 52.3-83.4 70.7-7.1 131.3z"/><path fill="#5c440b" d="M300.9 269.2l185.2-88.6 57.1 53.9-179.7 85.7-71.3-44.4 8.7-6.6z"/><path class="st1" d="M363.5 320.8l-72.2-44.9 9.4-7.1L486.2 180l.2.2 57.6 54.4-.7.3-179.8 85.9zm-70.4-45l70.5 43.9 178.8-85.3-56.4-53.2-184.9 88.5-8 6.1z"/><path class="st3" d="M548.4 138.3l35.4 48.8-55.8 31.2-55.6-37.4-6.2-2.4s-3.4 5.5-6 9.2l-17.3 7.7s-6-2-6-6.5 4-10.3 4-10.3-.6-1.3.3-4.7c0 0 0-7.1.9-13.6.8-6.5 0-6.2 0-6.2s-3.1.6-7.1.6c-4 0-5.7.6-5.7.6s3.1-2.2 5.1-4.8c2-2.6 4.3-2.8 4.3-2.8s6.2-3.7 12.2-4.8c6-1.1 13-.3 13-.3s5.1-.9 9.6 3.1c0 0 5.9 0 8.5-1.4 2.6-1.4 5.7-1.4 5.7-1.4s3.1-4.5 16.7-4.5c13.6-.4 30.6-.9 44-.1z"/><path class="st1" d="M527.9 218.8l-.3-.2-55.5-37.4-5.8-2.2c-.8 1.3-3.6 5.7-5.7 8.9l-.1.1-17.6 7.8-.2-.1c-.3-.1-6.3-2.2-6.3-7 0-4.2 3.2-9.3 3.9-10.4-.1-.6-.3-2 .3-4.7 0-.7.1-7.5.9-13.6.5-3.9.4-5.2.3-5.6-.9.2-3.6.5-6.9.5-3.8 0-5.5.5-5.5.5l-.4-.9s3.1-2.2 5-4.7c1.9-2.4 4-2.9 4.5-3 .8-.5 6.6-3.8 12.3-4.8 5.7-1.1 12.3-.4 13.1-.3.7-.1 5.5-.6 9.8 3.1 1 0 5.9-.2 8.1-1.4 2.3-1.2 4.9-1.4 5.7-1.5.8-.9 4.8-4.6 17-4.6 3.7 0 7.6 0 11.7-.1 11.1-.1 22.6-.2 32.3.4h.2l35.9 49.4-27.9 15.6c-.6 1.2-1.3 2.5-2.1 3.8l-.8-.6c.5-.8 1-1.6 1.4-2.4L534.8 215l-.7.7-.3-.3-5.9 3.4zm-61.9-41l6.7 2.6 55.3 37.2 5.1-2.9c-14.8-14.7-4.8-34.8-4.7-35l.9.5c-.1.2-9.8 19.8 4.8 34.1l21.8-12.2c3.4-7.4 2-13.2 2-13.2l1-.2c.1.3 1.3 5.6-1.5 12.7l25.8-14.4-34.9-48.1c-9.7-.6-21-.5-32-.4-4 0-8 .1-11.7.1-13.1 0-16.3 4.3-16.3 4.3l-.1.2h-.3s-3 0-5.4 1.4c-2.7 1.5-8.5 1.5-8.7 1.5h-.2l-.1-.1c-4.3-3.8-9.2-3-9.2-3h-.2c-.1 0-7.1-.8-12.9.3-5.8 1.1-12 4.7-12 4.8l-.2.1s-2.1.3-3.9 2.6c-1.1 1.4-2.5 2.7-3.6 3.6.9-.1 2.2-.2 3.8-.2 3.9 0 6.9-.6 7-.6h.2l.3.2c.3.2.9.7.1 6.7-.8 6.4-.9 13.5-.9 13.5v.1c-.8 3.1-.3 4.3-.3 4.4l.1.2-.1.2c0 .1-3.9 5.7-3.9 10.1 0 3.7 4.5 5.6 5.4 6l17-7.5c2.5-3.6 5.8-9 5.9-9.1l-.1-.5zm-23.8-23.4h-.1.1zm84.8 57.4c-18.7-20.1-12.6-34.8-12.3-35.4l.9.4c-.1.1-6.1 14.7 12.1 34.3l-.7.7z"/><path class="st3" d="M283.1 273l1.9 83.3 89.9-17.2 138.7-86.5-27.1 2.5-122.3 60.2-73.6-44.4-7.5 2.1z"/><path class="st1" d="M284.5 356.9l-1.9-84.3 8.1-2.3 73.6 44.4 122.1-60.2h.1l27.1-2.5.3.9-138.8 86.5-90.6 17.5zm-.8-83.5l1.9 82.4 89.2-17.1 136.8-85.3-24.9 2.3L364.3 316l-.2-.1-73.4-44.4-7 1.9z"/><path class="st4" d="M365.5 232.4s2.3-3.1 2.8-5.1c.6-2 .5-3.6-1.4-8.5-1.9-4.8-4-9.7-4.9-11.9-.8-2.3-.5-17.3-.5-17.3s2.5 1.1 3.5 0-1-2.8-1.6-5.4c-.6-2.6-1.7-7.4-6.8-7.4s-9.9-.5-11.3-.5c-1.4 0-2.3-.1-3.7.8-1.4.9-2.8 1.6-4 .9-1.1-.7-2.8-.7-4.3.7 0 0-5.7 1.1-10.2 4.3-4.5 3.1-9.3 6-14.4 11.1s-10.2 11-15.3 21.8c-5.1 10.8-.5 21.8-.5 21.8s-2.4 11.9 1.3 32.3l70.6-34.9.7-2.7z"/><path class="st1" d="M294 270.9l-.1-.7c-3.4-19.1-1.6-30.9-1.3-32.4-.5-1.3-4.3-11.9.5-22.1 5.2-11 10.5-17 15.4-22 4.2-4.2 8.2-6.9 12.1-9.5.8-.6 1.6-1.1 2.5-1.7 4.2-2.9 9.3-4.1 10.2-4.3 1.7-1.6 3.6-1.4 4.8-.7.8.4 1.8.2 3.4-.9 1.4-.9 2.3-.9 3.5-.9h.5c.5 0 1.4.1 2.6.1 2.2.1 5.4.4 8.8.4 5.6 0 6.8 5.4 7.3 7.8.2 1 .7 1.9 1.1 2.6.6 1.2 1.2 2.3.4 3.2-.9 1-2.4.7-3.4.4-.1 4.6-.2 14.7.5 16.4.4 1 1 2.6 1.8 4.5.9 2.3 2 4.8 3 7.4 1.9 5 2 6.8 1.4 8.8-.5 1.9-2.5 4.6-2.8 5.2l-.6 3-.2.1-71.4 35.3zm42.1-92.7c-.7 0-1.5.3-2.3 1l-.1.1h-.1c-.1 0-5.6 1.2-10 4.2-.8.6-1.6 1.1-2.5 1.7-3.8 2.5-7.7 5.2-11.9 9.3-5.6 5.6-10.4 11.5-15.2 21.7-4.9 10.5-.5 21.3-.4 21.4l.1.1v.2c0 .1-2.3 11.8 1.2 31.5l69.8-34.4.6-2.8s2.2-3.1 2.8-5c.5-1.9.5-3.4-1.4-8.2-1-2.6-2.1-5.1-3-7.4-.8-1.9-1.5-3.5-1.8-4.5-.8-2.3-.5-16.9-.5-17.5v-.7l.7.3c.6.2 2.3.8 2.9.1.3-.4 0-1-.5-2.1-.4-.8-.9-1.7-1.2-2.9-.5-2.4-1.6-7-6.3-7-3.4 0-6.6-.2-8.8-.4-1.1-.1-2-.1-2.5-.1h-.5c-1.1 0-1.8 0-2.9.7-1.4.9-3.1 1.8-4.5 1-.7-.2-1.1-.3-1.7-.3z"/><path d="M536.5 218.8L488 171.5s-127.5 65-207.6 99.9l85.7 49.3 125.1-63.8 37.4-34.4-162.8 85.1-60.2-35.3c65.8-29.7 151.3-73.8 151.3-73.8l28.7-12.8 39.5 39 4.9 2.1 9.4-6.4-2.9-1.6z" fill="#caa03f"/><path class="st1" d="M366 321.2l-86.8-49.9.9-.4c79.2-34.5 206.3-99.2 207.6-99.9l.3-.2 48.8 47.5 3.5 1.9-10.3 7-4.1-1.8-34.5 31.8-125.4 64zm-84.6-49.7l84.7 48.6 124.8-63.6 34-31.3-.2-.1-159 83.1-61.3-35.9.9-.4c65-29.3 150.4-73.3 151.3-73.8l29-13 .2.2 39 38.5 3.4-1.8.6.8-2.2 2 3.2 1.4 8.5-5.8-2.2-1.2-48.3-47.1c-7.1 3.6-129.1 65.6-206.4 99.4zm25.1.8l59.2 34.6 158.2-82.7-38.6-38-28.4 12.8c-.8.4-85.5 44-150.4 73.3z"/><path class="st6" d="M445.2 223.4s-1.9-16.6 8.2-27.5c10-10.9 27.1-16.6 43.5-8.1 13.1 6.8 20.2 21.5 17 37.6-3.2 16.1-20.6 27.9-40.3 25.7-19.8-2.2-28.4-27.7-28.4-27.7z"/><path class="st1" d="M478.2 251.8c-1.5 0-3.1-.1-4.7-.3-8.2-.9-15.8-6-21.9-14.8-4.6-6.6-6.8-13.1-6.8-13.1v-.1c0-.2-1.8-16.9 8.3-27.9 9.6-10.5 27-17.1 44.1-8.2 13.5 7 20.4 22.3 17.3 38.1-3.2 15.3-18.7 26.3-36.3 26.3zm-32.5-28.5c.4 1.3 9.1 25.2 27.9 27.3 19.1 2.1 36.5-9 39.8-25.3 3.1-15.6-3.5-30.2-16.8-37-16.6-8.6-33.5-2.1-42.9 8-9.5 10.2-8.1 25.9-8 27z"/><path class="st4" d="M309.7 274.7s5.4-2.3 11.6-2.3c6.2 0 13.6-.5 13.6-.5s4.8-1.8 10.8-4.9c6-3.1 14.7-8.5 23.5-13.6s11.9-9.1 19.3-9.9c7.4-.8 10.8-.9 20.9-6 10-5.1 21.9-9.4 30.4-12.8 8.5-3.4 19.8-3.1 19.8-3.1s4-12 9.5-13.6c8.9-2.5 12.3-3.8 18-.7 5.7 3.1 6 8.1 7.7 10.9 1.7 2.9.3 6.8-3.1 10.2-3.4 3.4-3.7 4.3-3.1 8.2.6 4-.5 6.8-9.6 13.6s-46.8 27.9-62.4 26.4c-15.6-1.5-21.2-2.2-22.7-4 0 0-4.6 4.8-13.1 7.7-8.5 2.8-34.3 2.6-34.3 2.6s-7.2 4.9-12.2 6.3l-24.6-14.5z"/><path class="st1" d="M334.3 289.8l-.2-.1-25.5-15.1.9-.4c.2-.1 5.6-2.3 11.8-2.3 5.8 0 12.7-.4 13.5-.5.6-.2 5.2-2 10.6-4.8 3.8-2 8.8-4.9 14.1-8.1 3-1.8 6.2-3.7 9.4-5.5 2.7-1.6 4.9-3.1 6.9-4.4 4.3-2.9 7.4-5 12.6-5.6l1.8-.2c6.1-.7 9.8-1.1 18.9-5.7 7.8-4 16.6-7.4 24.3-10.4 2.2-.8 4.3-1.7 6.2-2.4 7.6-3.1 17.6-3.2 19.7-3.2.7-2 4.5-12.1 9.7-13.6l1.7-.5c7.7-2.2 11.2-3.2 16.7-.2 4.3 2.4 5.6 5.8 6.7 8.5.4 1 .7 1.9 1.2 2.6 1.8 2.9.5 7.1-3.2 10.8-3.3 3.3-3.5 3.9-3 7.8.6 4.2-.7 7.2-9.8 14.1-9.3 6.9-44.5 26.5-61 26.5-.6 0-1.2 0-1.7-.1-15.1-1.5-20.7-2.1-22.6-3.8-1.3 1.2-5.6 5-12.9 7.4-8.2 2.7-31.9 2.6-34.3 2.6-1 .7-7.5 5-12.2 6.3l-.3.3zm-23.5-15l23.6 13.9c4.9-1.5 11.8-6.2 11.9-6.2l.1-.1h.2c.3 0 25.8.2 34.1-2.5 8.3-2.8 12.8-7.5 12.9-7.5l.4-.4.4.4c1.3 1.7 7.4 2.3 22.3 3.8 8.4.8 22.8-5 33.4-10 12.3-5.8 24-12.7 28.7-16.3 8.8-6.6 10-9.3 9.4-13.1-.6-4.2-.2-5.2 3.3-8.6 3.4-3.4 4.6-7.1 3-9.6-.5-.8-.8-1.7-1.2-2.7-1.1-2.7-2.2-5.8-6.2-8-5.1-2.8-8.3-1.9-15.9.3l-1.7.5c-5.2 1.5-9.1 13.2-9.2 13.3l-.1.4h-.4c-.1 0-11.3-.2-19.6 3.1-1.9.8-4 1.6-6.2 2.4-7.7 3-16.4 6.4-24.2 10.3-9.3 4.7-13 5.1-19.3 5.8l-1.8.2c-5 .6-8 2.6-12.2 5.5-1.9 1.3-4.2 2.8-6.9 4.4-3.2 1.8-6.3 3.7-9.4 5.5-5.3 3.1-10.3 6.1-14.1 8.1-5.9 3.1-10.8 4.9-10.8 4.9h-.1c-.1 0-7.5.5-13.6.5-4.8-.2-9 1-10.8 1.7zm-14.6-10.9h-1c0-16.3 5.6-32.8 5.7-33l.9.3c0 .2-5.6 16.5-5.6 32.7zm4.3-1c0-.4-.9-10.9.5-13.7 1.3-2.5 1.1-6 1.1-6h1c0 .2.2 3.7-1.2 6.5-1.1 2.1-.6 10.2-.4 13.1l-1 .1zm9.9-4.5l-1-.2s.7-3.2.7-6c0-2.6 1.1-4.2 1.5-4.7 0-.6-.1-2.3-.1-6.1 0-2.1.5-3.9 1-5.7.6-2.4 1.3-4.6.7-7.1-.5-1.9-.6-4-.6-6-.1-2.8-.2-5.6-1.4-8.4-2-4.9-1.1-10.2-1.1-10.4l1 .2c0 .1-.9 5.2 1 9.8 1.2 2.9 1.3 5.9 1.4 8.7.1 2 .2 4 .6 5.8.7 2.7 0 5.2-.7 7.6-.5 1.7-1 3.5-1 5.5 0 4.6.1 6.2.1 6.2v.2l-.2.2s-1.4 1.4-1.4 4.1c.2 3-.5 6.2-.5 6.3zm4.5-2.6l-1-.2c2.6-11.5 7.6-12.8 7.8-12.9l.2 1-.1-.5.1.5s-4.6 1.3-7 12.1zm-19.2-2.8h-1c0-.1 0-5.8 1.7-17.8 1-7.5 2.6-10.9 4.1-14 .9-1.9 1.6-3.6 2.1-5.9 1.2-6.2 4.4-8.9 4.5-9l.6.8s-3 2.6-4.2 8.4c-.5 2.5-1.3 4.2-2.2 6.1-1.4 3-3 6.4-4 13.7-1.6 12-1.6 17.7-1.6 17.7zm-2.5-16l-1-.1c.5-8.6 2.2-12.4 4.6-17.5.6-1.3 1.2-2.6 1.9-4.2 3.5-7.9 11.1-15.7 11.2-15.7l.7.7c-.1.1-7.6 7.7-11 15.4-.7 1.6-1.3 3-1.9 4.2-2.5 5.3-4.1 8.7-4.5 17.2zm67-2.5l-.1-.6s-.6-3-2.6-6.3l1.4 4.3-.2.2c-.1.1-1.6 2.1-3.4 2.1-.9 0-1.7-.4-2.4-1.3-2-2.6-2.1-7.8-2.1-9.3-1.1-.3-4.1-1.5-5.6-4.7-.7-1.5-1.1-1.6-2.2-1.7-1.3-.1-3.2-.4-6.8-2.9-6.9-5-4.5-13.2-4.4-13.3l1 .3c-.1.3-2.3 7.6 4.1 12.2 3.4 2.4 5.1 2.6 6.3 2.8 1.3.2 2 .3 2.9 2.3 1.6 3.4 5.3 4.2 5.3 4.2l.4.1v.4c0 .1-.3 6.3 1.9 9 .5.6 1 .9 1.6.9 1.1 0 2.1-1.1 2.5-1.5l-2.2-6.9.9-.5c3 3.7 4.2 7.5 4.5 8.9 2.5-.9 4.4-1.8 4.4-1.8l.4.9c-.1 0-2.2 1.1-5 2l-.6.2zm6.4-12.9c-5.1-6.9-6.9-14.7-6.9-14.7v-.1l1.2-3.5.9.3-1.1 3.2c.3 1 2.1 8 6.7 14.2l-.8.6zm-70.2-11.2l-.7-.7s3.4-3.3 9.1-8.9c3.4-3.3 6.8-5.5 10.1-7.7 2.3-1.5 4.5-2.9 6.6-4.7 5.3-4.4 9.9-2.4 10.1-2.3l-.4.9c-.2-.1-4.2-1.8-9 2.2-2.1 1.8-4.4 3.2-6.7 4.7-3.3 2.1-6.7 4.3-10 7.6-5.7 5.6-9.1 8.9-9.1 8.9zm56.3-.9c-1.7-2.2-2.5-3.8-2.5-3.8l-.2-.5.5-.2c.1 0 2-.7 4.4 0 2.5.7 2.8 2.9 2.5 4l-1-.2c0-.2.4-2.1-1.8-2.8-1.3-.4-2.5-.3-3.2-.1.3.6 1 1.7 2.1 3.1l-.8.5zm5.9-16.7l-1-.1c.7-6.2-.2-8.8-1.1-10-.6-.7-1.1-.8-1.2-.8l.1-1c.1 0 1 .1 1.8 1.1 1.1 1.3 2.2 4.2 1.4 10.8zm-9.7-.6l-.7-.7c7.4-7.2 5.2-10.2 5.2-10.2l.8-.6s2.8 3.6-5.3 11.5zm-3.6-.1l-.9-.5c5.1-8.9 2.3-13.1 2.3-13.2l.8-.6c.2.2 3.2 4.8-2.2 14.3zm15.8-.3c-.2-.1-2-.9-2-6.3 0-2.5-.6-3.5-1.1-3.9-.4-.3-.8-.3-.9-.3l-.2-1c.1 0 .9-.2 1.7.5 1 .8 1.5 2.3 1.5 4.7 0 4.6 1.3 5.3 1.4 5.3l-.4 1z"/><path class="st4" d="M335.5 187.9s4.4-1.7-.6-7.5-8.5-11.7-8.5-11.7-2.7 11.9 1.1 16.3c3.9 4.3 8 2.9 8 2.9z"/><path class="st1" d="M363.5 230.9l-2.9-5.6 1 .1c.1 0 2.1.3 2.8 1.7.4.8.3 1.8-.4 3l-.5.8zm-1.1-4.2l1 2c.1-.4.1-.8 0-1.1-.1-.4-.5-.7-1-.9zm-28.6-38.1c-1.6 0-4.2-.6-6.7-3.4-4-4.5-1.4-16.2-1.2-16.7l.3-1.2.6 1.1c0 .1 3.5 6 8.5 11.7 2 2.3 2.8 4.3 2.4 6-.4 1.7-2 2.3-2 2.3-.1 0-.8.2-1.9.2zm-7.2-18.6c-.6 3.1-1.7 11.3 1.3 14.6 3.5 4 7.1 2.9 7.4 2.8.1 0 1.1-.5 1.4-1.7.3-1.3-.4-3-2.2-5.1-3.7-4.2-6.6-8.6-7.9-10.6z"/><path class="st4" d="M348.5 165.2s2 4.1 5.2 7.4c3.2 3.2 3.1 9.1 1.6 9.9-1.6.9-6.3-1.7-6.8-6.7-.4-4.9 0-10.6 0-10.6z"/><path class="st1" d="M354.6 183.2c-.6 0-1.4-.2-2.2-.6-1.9-1-4-3.3-4.3-6.7-.4-5 0-10.6 0-10.7l.1-1.8.8 1.7s2 4.1 5.1 7.2c2.3 2.4 3 6 2.7 8.3-.2 1.2-.6 2-1.2 2.4-.3.1-.7.2-1 .2zm-5.7-16.2c-.1 2-.2 5.6.1 8.8.3 3 2.2 5 3.8 5.9 1 .6 1.9.6 2.2.4.3-.1.6-.6.7-1.6.3-2.1-.3-5.4-2.4-7.5-2-2.1-3.5-4.5-4.4-6z"/><defs><path id="SVGID_3_" d="M0 0h749.9v428H0z"/></defs><clipPath id="SVGID_4_"><use xlink:href="#SVGID_3_" overflow="visible"/></clipPath><path d="M579 192.3s-17.1-35.5-37.7-55.7c-20.6-20.2-40.8-38.3-74.8-44.2l6.1-5.9L450.3 68l-40.6-.4-3.4-22.9 26-16.4s-10.5-6.8-22.7-.4c-12.1 6.4-11.9 8.6-11.9 8.6l-6.5 1.7-1.4 1.4-5.1-1.1-15 4.8-.2 2.6h-4.4l-8.4 8-4.5 8.5h-3l-6.8 7.9L303 40.5 297.8-15l510.1-6.2 9.2 237.4L579 192.3z" clip-path="url(#SVGID_4_)" fill="#693b04"/><path class="st8" d="M817.6 216.7l-.6-.1-238.4-23.9-.1-.3c-.2-.4-17.3-35.7-37.6-55.5-21.9-21.5-41.3-38.3-74.6-44.1l-1-.2 6.4-6.2-21.7-18-40.8-.4-3.5-23.6 25.6-16.2c-2.5-1.3-11.5-5.2-21.5 0-11.2 5.9-11.6 8.1-11.6 8.2l.1.4h-.4l-6.4 1.7L390 40l-5.2-1.2-14.5 4.7-.2 2.7h-4.7l-8.2 7.8-4.6 8.7h-3l-7 8.1-40-30.2-5.5-56.3h.5l510.6-6.2v.5l9.4 238.1zm-238.3-24.9l237.3 23.8-9.2-236.3-509.1 6.2 5.3 54.8 38.9 29.3 6.6-7.8h2.9l4.5-8.4 8.5-8.1h4.1l.1-2.4 15.5-5 5 1.1 1.3-1.3 6.4-1.7c.4-1 2.4-3.6 12-8.7 12.3-6.4 23.1.4 23.2.4l.7.4L406.9 45l3.3 22.1 40.3.4 22.8 18.9-5.8 5.6c32.9 6 53 23.6 74.1 44.2 19.5 19.2 36.1 52.4 37.7 55.6z"/><path class="st9" d="M292.2 346.7s-21.5-74.4 6.4-125.1l-15.7-28.8-95.6 5.2-91.2 70.8-51.7 173.7-31.7 40.3 287.7 2.8-8.2-138.9z"/><path class="st8" d="M300.9 486.1h-.5l-288.8-2.8 32.3-41 51.7-173.7.1-.1 91.3-70.9h.2l95.9-5.2 16 29.3-.1.2c-14.3 26.1-15.3 58.6-13.6 81.3 1.9 24.6 7.2 43.3 7.2 43.5v.1l8.3 139.3zm-287.3-3.9l286.2 2.8-8.1-138.3c-.7-2.4-20.8-75.5 6.3-125.2l-15.4-28.2-95.2 5.1-90.9 70.7-51.7 173.6-.1.1-31.1 39.4z"/><path class="st9" d="M768.9 518.8L624.6 172.6l-26.4-22.1-6.5-2.8-8.8-10.3-12.2-5.9-.2-6.8-7.7-2-.1-4.5-9.1-4.8 5.5-2.8-13.6-8 8.1-2.6-17.7-4 4.3-4.8-33.9-.3-4.8.3s-20.8-.6-35.1.9L493.7 72l6.2-6.8-.6-2.3s7.7-7.1 12.8-13.9c5.1-6.8 16.5-17 16.5-17l-.3-6.8s-13.3 8.2-26.6 22.4C488.3 61.8 484 68.3 484 68.3l-25.8-19.8-51.9-3.4 27.5-17.6 23.5-9.1.6-5.7 10.2-4.8 2.8-8.8-25.2-1.4L421 7.1l10.8-19-5.4-.3-5.4 9.6-13 2.3-23.2 5.4-4.5 6.2-3.1-1.4-19.6 9.6L338 33.7l-3.4 1.7-78.2 9.1-47.9 24.7-208.6 98-34.3-6.2 8.2-205.8L815.4-36l-46.5 554.8z"/><path class="st8" d="M768.4 518.9l-144.2-346-26.3-22-6.6-2.9-8.7-10.2-12.4-5.9-.2-6.7-7.7-2-.1-4.6-9.6-5.1 5.5-2.9-13.8-8.1 7.4-2.3-16.7-3.8 4.1-4.6-32.8-.3-4.8.3c-.3 0-21-.5-35.1.8l-1.8.2 28.7-21.2 6-6.5-.6-2.3.2-.2c.1-.1 7.7-7.1 12.7-13.8 4.7-6.3 14.9-15.6 16.4-16.9l-.3-5.7c-3 1.9-14.5 9.8-25.8 21.8-13.1 14-17.5 20.6-17.6 20.6l-.3.4-26-20.1-53.2-3.5L433.7 27l23.2-8.9.6-5.7 10.3-4.8 2.6-8-24.5-1.4L420 8l11-19.5-4.2-.2-5.4 9.6L408.1.2l-23 5.4-4.7 6.4-3.3-1.5-19.3 9.5-19.5 14.1-3.6 1.8-78.2 9.1-47.8 24.6L-.1 167.7h-.2l-34.8-6.3v-.4l8.2-206.3h.5l842.1 8.8-46.5 555.3-.8.1zM592 147.3l6.5 2.9 26.5 22.2v.1l143.5 344.3 46.3-552.2-840.6-8.8-8.2 204.9 33.7 6.1 208.5-98 48-24.7h.1l78.1-9.1 3.3-1.7 19.5-14.1L377 9.4l3 1.4 4.4-6 23.4-5.5 13-2.3 5.4-9.7 6.5.3-10.5 18.5 23.5-8.9h.1l25.9 1.5-3.1 9.6-10.1 4.8-.6 5.7-23.8 9.1-26.2 16.7 50.5 3.3 25.5 19.6c1.2-1.7 6.1-8.3 17.4-20.3 13.2-14.1 26.6-22.4 26.7-22.5l.7-.4.4 7.9-.2.2c-.1.1-11.4 10.3-16.4 16.9-4.6 6.1-11.3 12.5-12.6 13.8l.6 2.3-6.4 7-25.8 19.1c14.1-1.2 33.2-.7 33.4-.7l4.8-.3 35 .3-4.5 5 18.7 4.2-8.8 2.8 13.4 7.8-5.4 2.8 8.5 4.5.1 4.4 7.7 2 .2 6.9 12.1 5.8 8.5 10.3z"/><path d="M35.8 474.8l43.5-21.3h7.1l42.6-14.9 17.8-29 4.2-11.3s11.5 0 13.3-19.1c0 0 10-26.2 23.5-44.3l.4-18.1h-6.4s1.8-5 8.9-9.9c0 0 1.4-8.6 12.4-15.5l.3-5.4s7.9-10.3 14.3-10.3c0 0 4.3.5 4.3 8.1l23.4 1.7-5.8 2.3 13.5 18.1 5.8 9.2 20.5 22.3 3.7 4.6 11.9 14.4L194.5 455l-51 28.3-107.7-8.5z" clip-path="url(#SVGID_4_)" fill="#c89324"/><path class="st8" d="M143.6 483.8h-.1L34 475.2 79.1 453h7.1l42.4-14.8 17.7-28.9 4.3-11.6h.3c.4 0 11-.3 12.9-18.7v-.1c.1-.3 10.2-26.4 23.5-44.3l.4-17.4h-6.6l.2-.7c.1-.2 1.9-5.1 8.9-10 .3-1.4 2.3-9.1 12.4-15.5l.3-5.3.1-.1c.3-.4 8.1-10.5 14.7-10.5.2 0 4.6.6 4.7 8.1l22.9 1.7.1 1-5.2 2 13.1 17.5 5.8 9.2 20.4 22.3 3.7 4.6 12.2 14.8-.3.3-100.3 98.7h-.1l-51.1 28.5zm-106-9.4l105.7 8.3 50.8-28.2 99.8-98.2-11.6-14.1-3.7-4.6-20.5-22.3-5.8-9.3-13.8-18.6 4.3-1.7-21.6-1.6v-.5c0-7-3.7-7.6-3.8-7.6-5.6 0-12.8 8.9-13.7 10l-.3 5.5-.2.1c-10.7 6.7-12.2 15-12.2 15.1v.2l-.2.1c-5.4 3.7-7.6 7.5-8.4 9h6.2l-.4 18.7-.1.1c-13 17.4-22.9 42.7-23.4 44.1-1.7 17.4-11.5 19.3-13.5 19.5l-4.1 11-17.9 29.3-.2.1L86.4 454h-7.1l-41.7 20.4z"/><path d="M147.5 474.2s2.3-4.8 17.3-13 26.9-12.5 26.9-12.5 9.1-35.7 45.1-62.9c36-27.2 74.2-43.9 130.1-53.6 0 0 4.2-3.7 9.4-4.5 5.2-.9 6.8-2.6 14.4-4.5 7.6-1.9 23.8-8.8 23.8-8.8s6.5-6 16.4-12.5c9.9-6.5 24.1-18.7 34.6-26.5 10.5-7.9 31.7-25.3 38.6-31.3 6.8-6 10.7-13.7 13.6-14.2 2.9-.5 3.6-1.2 12.1-9.6 8.6-8.4 25.6-22.7 42.9-31.6 17.3-8.9 60.7-27.4 73.7-24.5l75.1 2.3s46.2-1.7 76 19.6L793.8 291s2.9 34.9-21.5 80.2c-25.3 46.8-42 77.1-103.2 104.3l-521.6-1.3z" clip-path="url(#SVGID_4_)" fill="#d04119"/><path class="st8" d="M669.2 475.9h-.1l-522.4-1.1.3-.7c.1-.2 2.5-5.1 17.5-13.3 13.7-7.5 25-11.8 26.8-12.4.9-3.3 11.1-37.2 45.2-62.9C274 357.1 313 341 366.7 331.7c.7-.6 4.7-3.8 9.5-4.6 2.6-.4 4.2-1.1 6.3-1.9 2-.8 4.3-1.7 8-2.6 7.2-1.8 22.4-8.2 23.7-8.7.7-.6 7.1-6.3 16.4-12.5 6.1-4 13.9-10.2 21.4-16.2 4.7-3.8 9.2-7.3 13.2-10.3 10.7-8 31.8-25.4 38.5-31.3 3.2-2.8 5.7-6 7.8-8.6 2.5-3.2 4.3-5.4 6.1-5.7 2.6-.4 3.3-1 10.8-8.5l1-1c9.4-9.3 26.3-23.1 43-31.7 18.8-9.7 61.2-27.4 74-24.6l75 2.3c.4 0 46.7-1.5 76.2 19.7l.2.2v.3l-3.7 104.9c0 .3 2.7 35.5-21.6 80.4-24.8 46.4-41.3 77-103.3 104.6zm-520.7-2.2l520.5 1.1c61.5-27.3 77.9-57.9 102.9-104.1 19.3-35.7 22.5-67.9 21.5-79.9l3.7-104.7c-29.3-20.8-75-19.3-75.4-19.3l-75.2-2.3c-12.7-2.8-54.8 14.9-73.5 24.5-16.6 8.5-33.4 22.3-42.7 31.5l-1 1c-7.6 7.5-8.4 8.3-11.4 8.8-1.4.2-3.2 2.5-5.5 5.3-2.1 2.6-4.7 5.9-7.9 8.7-6.7 6-27.9 23.4-38.6 31.4-4 3-8.5 6.5-13.2 10.3-7.5 6-15.3 12.2-21.4 16.2-9.8 6.4-16.3 12.4-16.4 12.4l-.1.1c-.1 0-6.5 2.7-13.1 5.2 10.2-2.1 20.4-3 27.5-3.1h.3c9.8 0 18.3 0 37.4-2.5 8.1-1.1 18.9-2.6 28.7-4.1 1.2-2.1 14.1-25.4 38.8-52.4 3.2-3.5 6.3-6.9 9.2-10.1 21.3-23.4 36.6-40.4 54.1-47.9l.4.9c-17.3 7.4-32.6 24.3-53.8 47.6-3 3.3-6 6.6-9.2 10.1-23 25.1-35.8 47.1-38.3 51.5 12.8-1.9 23.5-3.6 23.7-3.6l.2 1c-.3.1-34.5 5.4-53.7 7.9-19.2 2.5-27.7 2.5-37.5 2.6h-.3c-10 0-26 1.9-39.4 6.1l-.1-.2c-3 .8-5 1.6-6.7 2.3-2.1.8-3.8 1.5-6.5 2-3.8.6-7.1 2.9-8.5 3.9 9-.8 28.6-2.3 48.9-1.5 27.5 1.1 35.8.7 89.9-7.6l.2 1c-53.8 8.3-62.9 8.8-90 7.7-27.4-1.1-53.5 2-53.8 2v-.2c-51.6 9.3-89.4 25.2-125.9 52.8-35.4 26.8-44.8 62.3-44.9 62.7l-.1.3-.3.1c-.1 0-12 4.3-26.9 12.4-11.4 6.2-15.4 10.5-16.6 12.1zm83-38l-.7-.7c.2-.2 21.1-22.6 43.9-28.5l.2 1c-22.5 5.9-43.2 28-43.4 28.2zm-6.7-7.1l-.8-.5c.2-.3 5.3-8.3 20.9-18.6 26-17.2 60.3-27.1 84.5-32.4l.2 1c-24.1 5.2-58.2 15.1-84.1 32.2-15.4 10.1-20.7 18.2-20.7 18.3zm-4.6-6l-.8-.5c.1-.1 6.6-10.3 21-23.2 13.3-11.9 36.3-28.5 70.2-40.2l.3.9c-18.6 6.4-45.9 18.6-69.9 40-14.2 12.8-20.7 22.9-20.8 23zm21.5-18.3l-.7-.7c.2-.2 24-23.5 57.1-36.7l.4.9c-32.9 13.1-56.5 36.3-56.8 36.5zm287.7-199.1c-2.6-4.4-1-8.3-.6-9.2-3-10.7 4.4-16.5 4.5-16.6l.6.8c-.3.2-7.1 5.5-4.1 15.7l.1.2-.1.2c-.1.2-2.1 4.1.5 8.4l-.9.5zm-5.3-12.9h-1c.3-13.1 6.3-16.2 6.6-16.3l.4.9-.2-.4.2.4c-.1 0-5.8 3-6 15.4zm-12-5.9c-1-8.5.9-10.6 1.1-10.8l.7.7s-1.7 2-.8 10l-1 .1zm10.7-1.4l-1-.1c.3-5.1 2.7-7.6 2.8-7.7l.7.7s-2.3 2.4-2.5 7.1zm-46.9-29.5c-1.1 0-2.1-.2-2.8-.9-1.6-1.6-1.4-2.7-1.3-3.1 0-1.4.6-2.5 1.5-3.2 1.5-1.1 3.9-1 7.2.1 3.6 1.3 4.2 2.4 4.7 3.3.4.7.7 1.3 2.7 2l1.1.4-1.1.5c-.1 0-2.3 1-5.8.5-1.3-.2-2.7 0-4 .1-.7.2-1.4.3-2.2.3zm-3.1-3.6c0 .1-.2.8 1 2.1.8.8 2.4.6 4.2.4 1.3-.1 2.8-.3 4.3-.1 1.7.2 3.1.1 4-.1-1.2-.7-1.6-1.3-1.9-1.9-.4-.8-.9-1.7-4.2-2.8-2.9-1-5.1-1.1-6.3-.3-.9.7-1.1 1.7-1.1 2.5v.2zm-30.8 2.4l-.7-.7c.1-.1 2.2-2 .5-4-1.7-2.1-4.2-1.3-4.3-1.3l-.3-.9s3.2-1.1 5.4 1.6c1.8 2.1.4 4.4-.6 5.3z"/><path d="M488.1 222.6s2.3-2.8 2-6.8c-.3-4-3.9-8-8.2-9.3-4.4-1.3-8-.4-10.6 1-2.6 1.4-2.7 2.5-3 3.4-.3.9-1.9 1.3-3.9 4.9-2 3.6-2 5.1-1 6.1s3.3 3.2 3.3 3.2l-.1 1.7s2.4 1.1 5.1 1.6c2.7.4 7.4.5 7.4.5s-.7-1.5 2.7-2.6c3.3-1.1 4.9-1.9 6.3-3.7z" fill="#be8b58"/><path class="st1" d="M479 229.5c-.2 0-4.7-.1-7.4-.5s-5.1-1.6-5.2-1.6l-.3-.1.1-1.8c-.6-.5-2.3-2.2-3.2-3.1-1.3-1.3-1-3.2.9-6.7 1.3-2.3 2.4-3.3 3.2-4 .4-.3.6-.6.7-.8l.1-.2c.3-.9.6-2.1 3.2-3.5 1.9-1 5.8-2.6 11-1 4.6 1.4 8.3 5.6 8.6 9.8.3 4.1-2 7-2.1 7.2-1.6 2-3.3 2.7-6.6 3.8-1.7.6-2.2 1.2-2.3 1.5-.1.3-.1.4-.1.4l.3.7-.9-.1zm-11.9-2.9c.7.3 2.6 1.1 4.7 1.4 2.1.3 5.4.4 6.7.5 0-.1.1-.3.1-.5.4-.8 1.3-1.6 3-2.1 3.4-1.2 4.8-1.9 6.1-3.5 0 0 2.1-2.7 1.9-6.5-.3-3.8-3.6-7.6-7.9-8.9-4.6-1.4-8.1-.2-10.2 1-2.2 1.2-2.5 2.1-2.7 2.9l-.1.2c-.1.5-.5.8-1 1.2-.7.6-1.8 1.6-3 3.8-2 3.7-1.7 4.9-1.1 5.5 1 1 3.3 3.2 3.3 3.2l.2.2v1.6zm-29.3-36.4l2-6.4 1 .3-1.3 4.1.6-.3.5.9-2.8 1.4zm20-3.1l-.8-.6c1.8-2.1 3-12.9 3.3-16.9l1 .1c-.1.6-1.2 14.6-3.5 17.4zm8.9-8.1l-.5-.8c6-3.9 7.3-9.9 7.3-10l1 .2c-.1.3-1.4 6.5-7.8 10.6zm-17-8.3c-1 0-2-.4-2.6-.8-1.2-.9-1-2.6-1-2.6v-.3l.3-.1c.1 0 2.1-.7 3.5-.4 1 .2 2.2.8 2.5 1.7.2.5.1 1-.2 1.4-.5.6-1.2 1-2 1.1h-.5zm-2.6-3.1c0 .4.1 1 .7 1.4.5.4 1.5.7 2.4.6.6-.1 1-.3 1.3-.7.2-.2.1-.4.1-.5-.2-.5-.9-.9-1.8-1.1-.8-.1-2 .1-2.7.3zm22.2-19.3c-.9 0-1.9-.3-2.9-.7-2.8-1.4-2.7-5.1-2.7-5.3h1s-.1 3.3 2.1 4.4c1.3.7 2.6.8 3.6.5.7-.2 1.2-.7 1.5-1.3l.9.4c-.4.9-1.1 1.5-2.1 1.9-.4 0-.9.1-1.4.1zm-13.4-.3c-3.8-1.4-3.8-5.7-3.8-5.8h1c0 .2 0 3.7 3.1 4.8l-.3 1zm14.1-1.6c-.5 0-1.1-.1-2-.6-1.6-.9-1.7-2.7-1.5-3.6l1 .2-.5-.1.5.1c0 .1-.4 1.7 1 2.5 1.3.7 1.7.5 1.7.5l.6.8s-.3.2-.8.2zm-13.3-.7c-2.4-2.1-1.5-3.7-1.4-3.8l.8.5-.4-.3.4.3s-.5 1 1.2 2.5l-.6.8z"/><path class="st3" d="M473.4 146.4s.4-2.2 1.7-5.1c1.3-2.8 1.3-3.3 1.3-3.3s-3.4-7.2-10.8-7.2v-2.3s5.5-1.7 12 2.1 5.8 7.4 5.8 7.4l-1 5.7s-1.1 2.9-4.5 3.3c-3.4.6-4.5-.6-4.5-.6z"/><path class="st1" d="M478.2 224.8c0-.1-.1-.4.1-.7.5-.8 2.1-1.3 4.8-1.6l.1 1c-3.8.4-4.1 1.2-4.1 1.2v-.1l-.9.2zm-11.8-4.3v-.3l-1.6-1.4-.5-1.3.9-.3.4 1 1.7 1.5.1.7-1 .1zm7.7-1.4l-.9-.5s.1-.4-.4-1.5l-.6.8-.8-.6.3-.3-.8-.6c.1-.1.7-1 1.6-.9.3 0 .8.2 1.2 1 .8 1.6.5 2.4.4 2.6zm-3.4-.2h-1V217h1v1.9zm-2.9-.6s-1-.5-1.7-1.5c-.4-.6-.3-1-.2-1.3.2-.6.9-1 2.1-1.3.8-.2 1.4-.4 1.8-.5 0-.7-.2-1.2-.5-1.6l-.6.7.3.3-.4.9c-1.3-.6-1.2-2.1-1.2-2.1h.8-.3.3l.3-.3c-.3-.1-.5-.1-.5-.1l-.1-1s1-.1 1.8.6c.7.6 1.1 1.6 1.1 3v.4l-.3.1s-1 .3-2.3.6c-1.1.3-1.3.6-1.4.7 0 0-.1.2.1.4.5.8 1.3 1.2 1.3 1.2l-.4.8zm7.3-.6c-.2-3-2.8-4.1-3-4.2l.4-.9c.1.1 3.3 1.4 3.6 5l-1 .1zm57.9-31.1l-.9-.3c1.1-3.1 3.2-5 3.3-5.1l.7.7c-.2 0-2.1 1.8-3.1 4.7zm-23.4-2.5c-.4-8.3 1.8-10.8 1.9-10.9l.7.7s-2.1 2.4-1.7 10.1l-.9.1zm-28.1-31c-3.5-1.7-5.1-1.5-5.7-1.3-.4.1-.5.3-.5.3l-.9-.3c0-.1.2-.6.9-.9 1.3-.6 3.5-.1 6.6 1.3l-.4.9zm-47.9 0c-.7 0-1.2 0-1.2-.1l.1-1s2.6.2 4.1-.4c1.9-.8 3.1-.2 3.1-.2l-.5.9.2-.4-.2.4s-.8-.4-2.3.2c-.9.5-2.3.6-3.3.6zm12.5-3.3c0-.1-.1-1.7 1.2-3.8 1.1-1.7.8-2.8.8-2.8l1-.3c0 .1.5 1.5-.9 3.7-1.1 1.7-1.1 3.1-1.1 3.1l-1 .1zm30.3-2.1c-2.4 0-3.3-.9-3.4-1l-.2-.2v-.3c0-.1.5-2.3 1.7-5.2.9-1.9 1.1-2.7 1.2-3-.5-1-3.9-6.8-10.2-6.8h-.5v-3.1l.4-.1c.2-.1 5.8-1.7 12.4 2.2 6.8 4 6.1 7.7 6 7.9l-1 5.8c-.1.1-1.3 3.2-4.9 3.6-.5.2-1 .2-1.5.2zm-2.5-1.5c.4.3 1.6.8 3.9.5 2.9-.4 4-2.6 4.1-3l1-5.7s.5-3.3-5.6-6.9c-5.3-3.1-10-2.4-11.3-2.2v1.4h.3c.2 0 5.1-.6 9 2.7 2.1 1.7 2.9 2.8 3.5 3.7.5.7.9 1.3 1.8 1.9l.2.1.3 4.2-1 .1-.3-3.7c-1-.7-1.4-1.3-1.9-2-.6-.8-1.3-1.9-3.4-3.5-1.1-.9-2.3-1.5-3.4-1.9 3.7 2.2 5.5 5.9 5.5 5.9v.2c0 .3-.5 1.6-1.3 3.5-.7 2.1-1.2 4-1.4 4.7zm33.3-2.7l-.9-.4c.3-.8 3.4-4.5 40.6-1.4l-.1 1c-36.5-3-39.5.6-39.6.8z"/><path class="st3" d="M446.1 144.3s-3.2-1.4-1.8-5.7c1.4-4.2 2.6-6.5 2.6-6.5l-1.5-.7s-6.6 3.4-7 7.5c-.4 4.1.1 9.6.1 9.6s5.6.1 7.6-4.2z"/><path class="st1" d="M480.3 230c-.8 0-1.4-.1-1.5-.1l.2-1s2.6.5 4-.6l.6.8c-1 .8-2.3.9-3.3.9zm-41.8-81h-.5v-.4c0-.2-.6-5.6-.1-9.7.5-4.3 7-7.8 7.3-7.9l.2-.1 2.2 1.1-.2.5s-1.1 2.3-2.5 6.4c-1.3 3.7 1.4 5 1.5 5l.5.2-.2.5c-2.2 4.3-7.7 4.4-8.2 4.4zm6.9-17.1c-1.1.6-6.2 3.7-6.5 7-.4 3.3 0 7.6.1 9 1.3-.1 4.8-.6 6.5-3.6-.9-.6-2.8-2.4-1.6-6 1.1-3.2 2-5.2 2.4-6.1l-.9-.3z"/><path d="M342.3 285.9c-4.2 0-5.2-1-8.3-4l-.4-.4c-3-2.9-6.4-.1-6.5 0l-.7-.8s4.2-3.6 7.9 0l.4.4 1 1c.5-5.4-1.7-9.4-1.8-9.4l.9-.5c.1.2 2.6 4.7 1.8 10.8.7.6 1.3 1.1 2 1.3-.3-9.7-1.3-12.9-1.3-12.9l1-.3c0 .1 1.1 3.3 1.4 13.5.7.2 1.5.2 2.6.2v1.1zm4.6-2.2l-.9-.5c0-.1 1.2-2.1 0-5.2-1.4-3.4-2.1-10.1-2.1-10.4l1-.1c0 .1.7 6.8 2 10.1 1.4 3.6 0 6 0 6.1zm4.6-.9l-1-.2c.6-2.5.5-3 0-6.2-.1-.9-.3-2-.5-3.3-.9-6.2-.4-8.8-.4-9l1 .2s-.3 1.8.1 5.9c2.6-.8 12.3-3.8 23.5-9.6l.5.9c-4.7 2.4-9.1 4.4-12.9 5.9-.6 1.1-3.3 6.1-5.2 15.3l-1-.2c1.5-7.6 3.6-12.4 4.7-14.6-4.7 1.8-8.2 2.9-9.5 3.3.1.6.1 1.1.2 1.8.2 1.4.4 2.4.5 3.3.5 3.1.6 3.9 0 6.5zm23.9-1.6l-1-.2c0-.1 1.1-7.1 1.1-17.2 0-10.2 1.8-16.6 1.9-16.6l1 .3c0 .1-1.8 6.3-1.8 16.3-.1 10.3-1.2 17.3-1.2 17.4zm3.4-.1l-.9-.4c1.8-3.6 2.8-10.2 3-21.3.3-10.5 3.4-15.1 3.5-15.3l.8.6s-3.1 4.6-3.3 14.8c-.3 11.3-1.2 17.8-3.1 21.6zm45-5.3l-.5-.9c2.1-1.2 1.1-7.6.2-13.9-.3-2.3-.7-4.6-.9-6.8-.8-8.2-2.3-19.5-2.3-19.7l1-.1c0 .1 1.4 11.4 2.3 19.7.2 2.1.6 4.5.9 6.7 1.1 7.3 2 13.5-.7 15zm4.5-.4l-1-.3c2.3-7.2-1-10.7-1.1-10.8l-.8-.8h.8c.1-.6.4-2.6.6-8.9.3-9.2-1.4-17.3-1.4-17.4l1-.2c0 .1 1.7 8.4 1.4 17.7-.2 5.9-.4 8.3-.6 9.2.8.8 3.3 4.6 1.1 11.5zm-27-.2c-.4-2.6-.2-4.2.6-9.5.2-1.3.4-2.8.6-4.6 1.1-8.4-.5-14.1-.7-14.8 0 1.7 0 3.7-.2 5.9-.4 4.8-.2 5.9-.1 7 0 .4.1.8.1 1.4h-1c0-.6-.1-1-.1-1.3-.1-1.2-.2-2.3.1-7.2.5-6.3 0-10.9 0-11l1-.1s.2 2 .2 5.2l.9-.3c.1.2 2 6.2.8 15.4-.2 1.8-.5 3.3-.6 4.6-.7 5.3-1 6.7-.6 9.2l-1 .1zm21.1-.1l-1-.2s.1-.9-1.1-3.9c-.7-1.7-.5-3.9-.3-6.8.2-3.2.4-7.1-.2-12-1.2-9.4-1.2-13-1.2-13.1h1s0 3.6 1.2 13c.6 5 .4 9 .2 12.2-.2 2.8-.3 4.9.3 6.4 1.2 3.2 1.2 4.3 1.1 4.4zm-2.5 0l-.8-.5c0-.1 1.1-1.9-2.1-4.1-1.8-1.2-2.8-2.4-2.9-3.5-.1-.7.2-1.1.2-1.2l.8.6-.4-.3.4.3s-.7 1.1 2.5 3.3c4 2.7 2.4 5.3 2.3 5.4zm-26.4-.9l-1-.1c0-.1.8-7.2.5-15.6-.3-8.6 1.1-15.7 1.1-15.8l1 .2c0 .1-1.4 7.1-1.1 15.6.4 8.4-.4 15.6-.5 15.7zm17.3-1.2c-1.4-.4-1.4-2-1.4-3.1 0-.5 0-1-.1-1.3-.4-1-.2-2.7-.1-3.3-2.2-3-1.3-5.9-.9-6.9-2.3-2.5-2.3-6.6-2.3-6.7h1s0 4.1 2.2 6.3l.3.3-.2.3c-.1.1-1.6 3.3.8 6.4l.1.2v.2c-.1.6-.3 2.2 0 3 .2.5.2 1 .2 1.7 0 1.2 0 2 .7 2.2l-.3.7zm26.6-.5l-1-.3s.5-1.6.5-7.2c0-3.1.4-3.8 1.1-4.4.3-.3.6-.6.6-2.3 0-3.6.9-5.6 1.3-6.2-.9-2.7-1.6-5.3-2-7.9l-9.2-14.2.8-.5 8.1 12.4c-1-9.2.7-16.6.8-16.7l1 .2c0 .1-3.2 13.4 1.5 26.6l.1.2-.2.2s-1.2 1.8-1.2 5.9c0 2-.4 2.6-.9 3.1-.4.4-.8.8-.8 3.7 0 5.8-.5 7.4-.5 7.4zm-41.1-3.3l-1-.2c0-.1 1.8-9 .9-14.6-1-5.8.1-10.3.1-10.5l1 .2s-1 4.5-.1 10.1c1 5.9-.8 14.7-.9 15zm-4.6-1l-1-.2s.5-2.5.5-9.8c0-7.3.8-14.2.8-14.3l1 .1c0 .1-.8 6.9-.8 14.2 0 7.4-.4 9.9-.5 10zm58.3-2.3c-2.3-3.8-8.8-10.9-8.9-10.9l.7-.7c.3.3 6.6 7.2 9 11.1l-.8.5zm3-1.4c-6.2-8.2-11.2-13.1-11.2-13.2l-.2-.2.6-11 1 .1-.6 10.5c.9.9 5.6 5.7 11.2 13.1l-.8.7zm1.6-1.7s-.9-4.5-3.9-11.6c-3.1-7.3-3.2-10.6-3.2-10.8h1s.1 3.3 3.1 10.4c3.1 7.2 4 11.7 4 11.8l-1 .2zm-40.7-4.2c-7.1-8.7-10.8-17.9-10.8-18l.9-.4c0 .1 3.7 9.1 10.7 17.7l-.8.7zm49.2-.3c-1.7-15.7.3-33.7.3-33.8l1 .1c0 .2-2 18-.3 33.6l-1 .1zm15-7.3c-.1-.1-3.6-1.9-7.6-9.4-3.9-7.4-6.5-11.1-6.6-11.1l.8-.6s2.7 3.8 6.6 11.3c3.8 7.2 7.1 9 7.2 9l-.4.8zm-26.1-3.1l-.8-.5c.1-.1 1.7-2.7 0-6.7-1.9-4.4 1.2-18.8 1.3-19.4l1 .2c0 .1-3.1 14.6-1.3 18.8 1.7 4.5-.1 7.5-.2 7.6zm-16-1.5c-5.1-6-10.8-16.2-10.9-16.3l.9-.5c.1.1 5.7 10.1 10.8 16.1l-.8.7zm36.4-9c-1 0-1.8 0-2.2-.1l.1-1c2.9.2 7.4 0 7.8-1.1.1-.4.2-.6 0-.8-.4-.4-1.6-.4-2.9 0l-.3-1c1.4-.4 3.1-.6 3.9.2.3.3.6.9.2 1.8-.6 1.8-4.1 2-6.6 2zm.3-4c-.2-.1-4.7-2.4-7.2-5.2l.7-.7c2.4 2.6 6.9 5 6.9 5l-.4.9zm11.7-.1l-5.8-1-2.1.2-.1-1 2.2-.2 5.4 1 2.3-2.9c-1.4-1-1.6-2.5-1.6-2.5l1-.1c0 .1.1 1.3 1.5 2l.6.3-3.4 4.2z" fill="#697656"/><defs><path id="SVGID_5_" d="M0 0h749.9v428H0z"/></defs><clipPath id="SVGID_6_"><use xlink:href="#SVGID_5_" overflow="visible"/></clipPath><path class="st14" d="M688.1 419.7l-.5-.9c25.8-14.4 30.6-27.9 30.7-28.1l.9.3c-.2.6-4.9 14-31.1 28.7zm49.7-7.8l-.8-.6c.1-.1 8.2-10.9 13-22.8 1.7-4.2 4.2-9 6.8-14.2 5.1-9.8 10.8-20.9 13-32 1.9-9.3 3.5-16.4 5.2-23.9 1.4-6.3 2.9-12.7 4.7-21.1.6-2.7 1.1-5.2 1.5-7.3-5.7 13.5-18.7 46.8-25.4 65.1-7.3 19.9-15.2 41.2-15.3 41.4l-.9-.3c.1-.2 8-21.5 15.3-41.4 7.5-20.4 22.8-59.4 27.1-69 1.3-8.2 1-10 .9-10.1l1-.3c0 .1.5 2-.9 10.5 0 0 0 .1-.1.1-.5 2.9-1.2 6.7-2.2 11.4-1.8 8.4-3.3 14.9-4.7 21.2-1.7 7.5-3.3 14.6-5.2 23.9-2.3 11.2-8 22.4-13.1 32.2-2.6 5.1-5.1 9.9-6.8 14.1-4.8 12.1-13 23-13.1 23.1zm-63.1-1.6l-.4-.9c12.3-5.2 14.4-10.7 14.4-10.8l.9.3c0 .3-2.1 6-14.9 11.4zm-222.8-93.4l-.9-.5c.1-.2 9.5-15.4 26.8-30.8 5.8-5.2 13-11.1 20.1-16.8 14-11.3 28.4-23 29.6-27.9l1 .2c-1.3 5.2-15.2 16.5-29.9 28.4-7 5.7-14.3 11.6-20 16.7-17.2 15.5-26.6 30.6-26.7 30.7zm26.6-3.3l-.7-.7c.2-.2 23-24.6 37.2-48.6l.9.5c-14.3 24.1-37.1 48.5-37.4 48.8zm23.5-24.4l-.8-.6c17.8-24.4 52.8-51.9 53.1-52.2l.6.8c-.3.3-35.1 27.7-52.9 52zm-40.4-141.7l-.7-.7c.7-.8 1.1-1.5 1-2.3-.1-1.1-1-1.8-1-1.9l.6-.8c.1 0 1.2 1 1.3 2.6.2 1.1-.2 2.1-1.2 3.1z"/><path class="st15" d="M336.3 34.9s-1.1-13.3-3.4-27.5l9.6-7.4 7.7-1.1 15.6-9.1-15-.6L321 5.1l-13.5 3.4-17.8 7.9 17.8 4.5 11-5.1 10.5.3s4.5 6.8 7.3 18.8z"/><path class="st14" d="M335.8 35c-2.5-10.5-6.4-17.1-7.2-18.3l-10.1-.3-11 5.1-19.4-4.9L307.3 8l13.5-3.4 29.8-15.9 16.9.6-17.3 10-7.5 1.1-9.3 7.1c2.2 13.9 3.3 27.1 3.3 27.2l-.9.3zm-17.4-19.6l10.9.3.1.2c0 .1 3.2 4.9 5.9 13.4-.5-5.2-1.5-13.4-2.8-21.8v-.3l10-7.6 7.7-1.2 14-8.2-13.2-.5-29.9 15.9L307.6 9l-16.4 7.3 16.2 4.1 11-5z"/><path class="st15" d="M282.1 15.6V3.1l27.9-13-9.6-2-28.5 20.1s0-6.5-12.7-18.7L-35-11.9l-4 211.2 36.9 26.1 156.7-53.7 70.1-91.5 25.8-27.4 31.6-37.2z"/><path class="st14" d="M-2.2 225.9l-.2-.1-37.1-26.3v-.3l4-211.7L259.4-11l.1.1c10.2 9.8 12.3 16 12.8 18.2l27.9-19.8 11.3 2.3-28.9 13.6v12.4l-31.8 37.3L225 80.5l-70.1 91.6h-.1l-157 53.8zM-38.5 199L-2 224.8l156.3-53.6 70-91.4 25.8-27.5 31.5-37V2.8l26.8-12.5-8-1.7-29 20.6v-1c0-.1-.2-6.5-12.4-18.2l-293.5-1.4-4 210.4z"/><path d="M165.7 35.2s-10.4 1.7-21.2-2.5c0 0 1.1-1.6 7.1-2.9 0 0-5.1 1.3-14.2-1.9 0 0 .8-2.4 5.1-3.5 0 0-9.6 1.7-11.1-6.5 0 0 6.2.6 9.6 3.1 0 0-3.9-3.7-3.7-8.8 0 0 7.6 3.6 14.2 9.9 0 0-.2-3.5-1.7-7.1 0 0 4.5.8 10.2 3.4l1.7-3.1s-6.3-1.7-8.2-6c0 0-6.5 2.3-10.5-6 0 0 .8-2.2 5.3-.2 0 0 .1-1.8.7-4.6 0 0 7.2-.2 11.1 6.5 0 0-1.7-1.1 0-5.1 0 0 5.7 2.5 5.7 7.9 0 0-1.4-4.3.5-7.1 0 0 2.6.2 5.1 2.3 0 0-.6-2 1.4-7.4 0 0 5.6 1.2 7.1 9.4l17.9-16.5 58.1 2.8s-45.5 12.9-59.6 36.9l-30.6 7z" clip-path="url(#SVGID_6_)" fill="#153826"/><path class="st14" d="M160.4 36c-4.1 0-10.1-.5-16.1-2.9l-.6-.2.4-.5c.1-.1.7-.9 3.2-1.9-2.4-.1-5.8-.7-10-2.2l-.5-.2.2-.5c0-.1.6-1.5 2.7-2.7-1.7-.1-3.7-.5-5.5-1.7-1.7-1.2-2.8-3-3.2-5.3l-.1-.6.7.1c.2 0 4.2.4 7.5 1.9-1.1-1.6-2.3-4.1-2.1-7.1v-.7l.7.3c.1 0 7 3.3 13.3 9.1-.2-1.3-.6-3.4-1.5-5.6l-.4-.9.9.2c.2 0 4.4.8 9.9 3.2l1.2-2.2c-1.6-.5-6-2.3-7.8-5.7-1.6.4-7.1 1-10.6-6.3l-.1-.2.1-.2c0-.1.3-.7 1.2-1.1 1-.4 2.4-.3 4.1.3.1-.8.3-2.1.6-4l.1-.4h.4c.3 0 5.8-.1 9.9 4.5.1-.7.3-1.7.7-2.8l.2-.5.5.2c.2.1 2.9 1.3 4.6 3.8.1-1 .4-1.9 1-2.8l.2-.2h.3c.1 0 2.2.2 4.5 1.7 0-1.2.3-3.2 1.5-6.5l.1-.4.4.1c.2 0 5.6 1.2 7.3 8.9l17.4-16 58.1 3 .1 1c-.5.1-45.4 13.1-59.4 36.7l-.1.2-30.7 6.8s-2 .3-5.3.3zm-15-3.5c10.1 3.7 19.8 2.3 20.2 2.2l30.2-6.7C208.1 7.6 243-4.9 253-8.1l-55.1-2.7-18.4 16.9-.2-.9c-1.2-6.6-5-8.4-6.3-8.9-1.7 4.8-1.2 6.6-1.2 6.6l.4 1.5-1.2-.9c-1.9-1.5-3.8-2-4.5-2.1-.7 1.2-.8 2.6-.7 3.8.3.8.5 1.8.5 2.8l-1 .2c0-.1-.4-1.2-.5-2.7-1-2.6-3.5-4.1-4.5-4.7-.6 1.7-.6 2.7-.4 3.3.2.3.4.6.5.9l-.7.7s-.5-.3-.7-1.1c-3.3-4.7-8.2-5.3-9.7-5.4-.5 2.5-.6 4.1-.6 4.1V4l-.7-.3c-2.2-.9-3.3-.9-3.9-.6-.3.1-.5.3-.6.4 3.7 7.4 9.5 5.5 9.7 5.5l.4-.1.2.4c1.8 4 7.9 5.7 7.9 5.7l.6.2-2.2 4.1-.4-.2c-4.1-1.8-7.6-2.8-9.2-3.2 1.2 3.3 1.4 6.2 1.4 6.4l.1 1.3-.9-.9c-5.2-5.1-11.3-8.4-13.3-9.5.2 4.4 3.5 7.6 3.5 7.6l-.6.8c-2.6-1.9-7-2.7-8.7-2.9.4 1.7 1.3 3.1 2.6 4 3.1 2.2 7.6 1.4 7.7 1.4l.2 1c-2.8.7-4 2.1-4.5 2.7 7.8 2.6 12.5 1.9 13.2 1.7h.1l.2 1h-.2c-3.4.6-5.1 1.5-5.9 2z"/><path d="M595.7 264.3s-14.4-22.9-6-48.5 22.4-44 55-57.1c32.6-13.1 68.3-2.4 86.7 14.5 18.4 16.9 42.3 40.7 30.9 81.3-11.4 40.5-34.3 60-49.3 66.7l-88.1-11.4-29.2-45.5z" clip-path="url(#SVGID_6_)" fill="#cbad70"/><path class="st14" d="M713.1 321.7h-.1l-88.4-11.5-.1-.2-29.2-45.5c-.1-.2-14.4-23.4-6-48.9 9.5-28.8 25.5-45.5 55.3-57.4 32.6-13.1 68.6-2.5 87.3 14.6 16.1 14.8 42.9 39.5 31.1 81.8-13.3 47.5-41.4 63.3-49.6 67l-.3.1zm-87.9-12.4l87.8 11.4c8.3-3.8 35.8-19.5 48.9-66.3 11.7-41.7-14.9-66.2-30.8-80.8-18.4-16.9-54-27.3-86.2-14.4-29.5 11.8-45.3 28.2-54.7 56.8-8.3 25 5.7 47.7 5.9 48.1l29.1 45.2z"/><path class="st6" d="M253.6 139.7s38.1 8.6 63.9-9.5c25.8-18.1 36.3-42 28.5-71.6-8.2-30.8-37.1-45.6-63.5-44.8-26.4.9-42.7 11.6-54.1 28.6C217 59.4 216.8 76 216.8 76l27.2 62.5 9.6 1.2z"/><path class="st1" d="M274.9 142.2c-11.9 0-20.8-1.9-21.4-2l-9.9-1.2-27.3-62.8v-.1c0-.2.4-16.9 11.7-33.9 12.7-18.9 30-28.1 54.5-28.9 24.8-.8 55.5 13 64 45.2 7.7 29-1.9 53.3-28.7 72.1-13.3 9.4-29.9 11.6-42.9 11.6zm-30.6-4.1l9.4 1.1c.4.1 38.2 8.4 63.5-9.4 26.4-18.5 35.9-42.4 28.3-71-8.4-31.6-38.5-45.2-63-44.4-24.2.8-41.2 9.8-53.7 28.4-10.7 16-11.5 31.8-11.6 33.2l27.1 62.1z"/><path d="M216.2 210s15.2-.2 34.8-4.4c19.6-4.2 38.3-11.6 43.7-20.7 5.4-9.1 6.8-14.8-2.6-21.6 0 0 6.6-4.6 5.1-10.5-1.5-6-6.2-6.2-25.2-8.8s-23.3-.5-23.3-.5l15.3-29.6-6.2-.2-9.1 7.6-8.8 35.4-23.7 28.2V210z" fill="#d04119"/><path class="st1" d="M215.7 210.5v-25.8l23.8-28.2 8.8-35.5 9.4-7.8 7.2.3-15.1 29.2c2.3-.5 8.4-1.1 22.4.8l3.7.5c16.2 2.2 20.5 2.8 22 8.7 1.3 5.2-3.1 9.4-4.7 10.7 8.9 6.8 7.8 12.5 2.2 21.9-4.9 8.2-21.4 16-44 20.9-19.4 4.2-34.7 4.4-34.9 4.4l-.8-.1zm1-25.4v24.4c2.8-.1 16.8-.7 34.2-4.4 22.4-4.8 38.6-12.5 43.4-20.4 5.5-9.2 6.5-14.4-2.4-21l-.6-.4.6-.4c.1 0 6.3-4.5 4.9-10-1.3-5.2-5.5-5.8-21.1-7.9l-3.7-.5c-18.5-2.5-22.9-.6-23-.5l-1.3.6.7-1.3 14.9-28.9-5.2-.2-8.8 7.4-8.8 35.4-.1.1-23.7 28z"/><path class="st19" d="M213.3 70.3s-.8-9.6 10.5-24.4c11.3-14.7 10.7-23.5-5.3-24.4-16-.9-59.1 7.7-83.2 32.3-24.1 24.6-35.4 36.3-35.4 36.3L92 141.4l22.7-4.2L160 81.5l53.3-11.2z"/><path class="st1" d="M91.4 142l8-52.1.1-.1s11.3-11.6 35.4-36.3c24-24.5 66.9-33.4 83.5-32.5 6.9.4 11.3 2.3 12.8 5.7 2 4.3-.4 10.7-7.1 19.5-11.1 14.4-10.4 23.9-10.4 24v.4l-53.5 11.3-45.2 55.7-23.6 4.4zm9-51.6l-7.8 50.4 21.8-4L159.8 81h.2l52.9-11.1c0-2.1.5-11.1 10.6-24.3 6.4-8.4 8.8-14.6 7-18.5-1.4-3-5.4-4.7-12-5.1-16.5-.9-59 7.9-82.8 32.2-22.7 23.2-34.1 34.9-35.3 36.2z"/><path class="st3" d="M250.7 121l10.2-6.2s8.5-1.6 12.2-1.6c3.7 0 4.8-.7 6-2.1 0 0 1.2-.3 2.1-.3.9 0 2 .4 2.4-.5 0 0 1.6.2 2.3-.9.7-1.1.9-1.4.9-1.4s4 .7 6-.9 2.8-2.4 3.4-3.3c0 0 3-.7 6.7-6l4.3-4.8-1-7.7L289.5 74l-27.4 7.4-10.2 8.6H237l3.3 17.9 10.4 13.1z"/><path class="st1" d="M250.6 121.7l-10.9-13.5v-.1l-3.4-18.4h15.2l10.3-8.6 27.6-7.4 17.1 11.6 1.1 8.1-4.4 5c-3.2 4.6-6 5.8-6.7 6-.6.9-1.6 1.8-3.4 3.2-1.8 1.4-5 1.2-6 1-.1.2-.3.6-.7 1.1-.7 1-1.8 1.2-2.4 1.1-.5.7-1.4.6-2.1.5h-.6c-.6 0-1.5.2-1.8.3-1.2 1.5-2.5 2.2-6.2 2.2-3.4 0-11.1 1.4-12 1.6l-10.7 6.3zm-9.9-13.9l10.2 12.6 10-6.1c.3-.1 8.6-1.6 12.3-1.6 3.8 0 4.6-.8 5.6-1.9l.1-.1h.2c.1 0 1.3-.3 2.2-.3h.7c.8.1 1.1.1 1.3-.3l.2-.3.4.1s1.2.2 1.8-.7c.7-1.1.8-1.4.8-1.4l.2-.3.3.1s3.8.6 5.6-.8c1.8-1.4 2.7-2.3 3.3-3.1l.1-.2h.2s2.9-.8 6.4-5.8l4.1-4.7-.9-7.2-16.3-11.1-27 7.3-10.3 8.7h-14.3l2.8 17.1zm53.4-9.1l-.8-.6s.3-.8-1.4-3.1c-1.9-2.5-7.3-2.3-7.4-2.3v-1c.2 0 6-.2 8.2 2.7 2.2 2.9 1.5 4.1 1.4 4.3z"/><path class="st3" d="M284.4 106s1.3-.1 1.7 1c.4 1.1 2.1 2.5 3.2.9 1.1-1.7 1.9-3.4 3.7-5.3 1.8-1.8 4.1-2.4 4.1-2.4"/><path class="st1" d="M279.2 111.6l-.9-.5s.2-.5-.4-1.8c-.6-1.2-2.6-.4-2.6-.4l-.4-.9c.1 0 2.8-1.1 3.9.8.9 1.8.5 2.7.4 2.8zm4.8-.9c-.5 0-1.5-.5-1.4-2-.1-.2-.4-.9-1.2-1.5l.6-.8c1.3.9 1.6 2 1.6 2.1v.2c0 1 .5 1.1.5 1.1l-.1.9zm4.2-1.6h-.2c-1-.1-1.9-1.1-2.3-2-.3-.7-1.2-.7-1.2-.7l-.1-1c.6-.1 1.8.1 2.3 1.3.2.6.8 1.2 1.4 1.3.1 0 .5.1.9-.5.2-.4.4-.7.7-1.1.8-1.4 1.7-2.8 3.2-4.3 1.9-1.9 4.3-2.5 4.4-2.5l.2 1s-2.2.6-3.9 2.3c-1.4 1.4-2.2 2.8-3 4.1-.2.4-.4.7-.7 1.1-.6.9-1.3 1-1.7 1zm-.1-9.9c-.5 0-1.1-.2-1.7-.5l.5-.9c.7.3 1.3.4 1.8.3.3-.1.5-.3.7-.5-.2-.5-1.1-2-3.7-2h-1.5v-1h1.5c3.8 0 4.7 2.7 4.7 2.8l.1.2-.1.2c-.3.6-.7 1-1.3 1.2-.4.2-.7.2-1 .2z"/><path class="st19" d="M208.2 187.1s9.3-1.6 13.3 4-1.3 22.1-13.4 33.2L190 190.9c.1-.1 17.9-3.8 18.2-3.8z"/><path class="st1" d="M208 225l-18.7-34.6.7-.1c7.8-1.6 17.2-3.5 18.2-3.7.4-.1 9.7-1.6 13.8 4.2 4.2 5.9-1.2 22.7-13.5 33.8l-.5.4zm-17.2-33.9l17.5 32.3c5.3-5 9.7-11.5 12.1-18 2.3-6.1 2.6-11.5.7-14.1-3.7-5.3-12.7-3.8-12.8-3.8h-.1c-.6.2-10.5 2.2-17.4 3.6zM288.1 99l-.7-.7 1.6-1.7.7.7-1.6 1.7z"/><path class="st6" d="M195.5 196.1s24.1-1.4 43.6-25.5c19.6-24.1 17.6-72-13.9-93.3s-65.4-15.1-84.6.9c-17.3 14.4-25.7 32.8-22.3 62.3l36.6 38.3 40.6 17.3z"/><path class="st1" d="M195.4 196.6h-.1l-40.7-17.3-.1-.1-36.7-38.4v-.2c-3.2-27.8 3.7-47.2 22.4-62.8 19.3-16.1 53.1-22.6 85.2-.9 14 9.4 23.2 24.8 25.9 43.3 2.8 18.8-1.8 38.2-12 50.7s-21.6 18.8-29.4 21.9c-8.4 3.4-14.4 3.7-14.6 3.8h.1zm-40.2-18.2l40.4 17.2c1.8-.2 24.7-2.5 43.2-25.3 10-12.3 14.5-31.5 11.8-50-2.7-18.2-11.8-33.3-25.5-42.6-31.7-21.4-65-15-84 .9-18.4 15.3-25.2 34.4-22.1 61.7l36.2 38.1z"/><path class="st3" d="M158 170.9s6.8-4 11.2-6.5c0 0 8 .1 17.7-3.4 9.8-3.5 15.5-5.8 19.4-11.8l6-7.9-13.5-14.8-28.3-1.6-14.6 15.4L139 145l-7.1 13.7 1.6 11.8 23.8 4.1.7-3.7z"/><path class="st1" d="M157.7 175.2l-24.7-4.3-1.6-12.3 7.3-14.1 16.9-4.6 14.7-15.5h.2l28.6 1.6 13.9 15.3-6.2 8.2c-3.9 6-9.7 8.3-19.6 11.9-9 3.3-16.7 3.4-17.8 3.4-4 2.3-9.7 5.7-10.9 6.3l-.8 4.1zm-23.7-5.1l23 4 .7-3.4.2-.1s6.8-4 11.2-6.5l.1-.1h.1c.1 0 8 .1 17.6-3.4 9.7-3.5 15.3-5.8 19.1-11.6l5.8-7.6-13-14.4-27.9-1.5-14.5 15.4-16.8 4.5-6.9 13.4 1.3 11.3z"/><defs><path id="SVGID_7_" d="M0 0h749.9v428H0z"/></defs><clipPath id="SVGID_8_"><use xlink:href="#SVGID_7_" overflow="visible"/></clipPath><path d="M135.6 169.5l-1.7-11.3 7.4-12s-11.5-6.3-29-4.1-66.1 5.6-148.5 141.5l99.8-24.3 49-16.8 23-73z" clip-path="url(#SVGID_8_)" fill="#9e5d1b"/><path class="st21" d="M-37.2 284.3l.6-1C44.2 149.9 92.8 143.9 111.2 141.6l1.1-.1c17.4-2.2 29.2 4.1 29.3 4.2l.5.3-7.5 12.3 1.7 11.3v.1l-23 73.1-.2.1-49 16.8-101.3 24.6zM119.6 142c-2.3 0-4.7.1-7.2.5l-1.1.1c-18.1 2.2-66.2 8.1-146.4 140.1l98.6-24 48.8-16.7 22.9-72.5-1.7-11.4 7.2-11.7c-2-1-9.8-4.4-21.1-4.4z"/><path d="M106.4 144.6s2-4.2-1.7-9.7c0 0 .3-4.6-3.7-5.4 0 0 2.3-4.8-.1-8.8 0 0 2.9-13 5.1-24.9 2.2-11.9 3.8-20.4-19.1-17.9-23 2.6-49.6 21-66.9 47.3-17.3 26.4-39.1 53.8-46.5 60.7l1.4 38.8s10.8-15.6 15.9-22.7 22.1-27.5 22.1-27.5 2.3 4.2 8.5-3.7 23-24.7 23-24.7 6 1.1 13.9-5.9l6.8-2.3s.9 1.6-1.4 2.3c-2.3.7-3.4 3.7-.3 3.1 3.1-.6 9.6-4.5 9.6-4.5s-1.1 4.8-4.3 6.2l9.1-1.1s-6.8 4-2.3 5.8l14.7 4.1 16.2-9.2z" clip-path="url(#SVGID_8_)" fill="#50420f"/><path class="st21" d="M-25.5 226.3l-1.5-40.6.2-.2c6.9-6.4 28.5-33.2 46.4-60.6C36.8 98.6 63.2 80 86.9 77.3c10-1.1 15.9-.2 18.8 2.8 3.2 3.4 2.1 9 1 15.4v.2c-2 11-4.7 23.1-5 24.8 1.9 3.3.8 7.1.3 8.5 2.9.9 3.6 3.9 3.5 5.6 3.7 5.5 1.7 9.8 1.6 10l-.1.1-16.5 9.5-14.9-4.1c-1.2-.5-1.9-1.2-1.9-2-.1-1.3 1.2-2.6 2.4-3.6l-7.1.9-.3-1c1.9-.9 3.1-3.2 3.6-4.7-2 1.2-6.3 3.5-8.7 3.9-1.9.3-2.4-.5-2.5-.9-.3-1.1 1-2.6 2.5-3.1.6-.2 1-.5 1.2-.8.1-.1.1-.3.1-.4l-6.2 2.1c-7.1 6.3-12.7 6.2-14 6-1.8 1.8-16.9 17.1-22.7 24.4-2.7 3.5-5.1 5.2-7.1 5-.8-.1-1.4-.5-1.8-.8-2.6 3.1-17.1 20.6-21.7 27-5 7-15.8 22.5-15.9 22.7l-1 1.5zm-.5-40.2l1.4 37.1c2.7-3.8 10.8-15.6 15-21.4 5.1-7 22-27.3 22.1-27.5l.5-.6.4.7s.4.8 1.4.9c1.1.1 3.1-.6 6.2-4.6 6.2-7.9 22.8-24.5 23-24.7l.2-.2h.3c.1 0 5.8 1 13.5-5.8l.2-.1 7.2-2.4.2.4c0 .1.4.8.1 1.6-.3.6-.9 1.1-1.8 1.4-1.3.4-2 1.5-1.9 1.9.1.3.6.3 1.3.2 3-.5 9.4-4.4 9.5-4.5l1-.6-.3 1.2c0 .2-.8 3.4-2.8 5.4l7.1-.9.3.9c-1.4.9-3.7 2.6-3.6 3.8 0 .4.5.8 1.2 1.1l14.5 4 15.8-9.2c.3-.8 1.4-4.4-1.7-9l-.1-.1v-.2c0-.2.2-4.2-3.3-4.9l-.6-.1.3-.6s2.2-4.6-.1-8.3l-.1-.2v-.2c0-.1 2.9-13.2 5.1-24.9v-.2c1.1-6.2 2.1-11.6-.7-14.6-2.6-2.8-8.3-3.6-17.9-2.5-23.3 2.6-49.4 21.1-66.5 47.1-17.8 27.2-39.2 53.9-46.4 60.6z"/><path class="st6" d="M84.3 246.6s-6.8-27 7.1-47.5c13.9-20.4 36.6-35.8 73.2-26.2 36.2 9.5 51.3 54.2 41.7 82.9-8.9 26.5-28.1 48.9-84.4 46.1l-37.6-55.3z"/><path class="st1" d="M131.5 302.6c-3.1 0-6.3-.1-9.7-.3h-.2l-.1-.2-37.6-55.3v-.1c-.1-.3-6.7-27.4 7.2-47.9 17.5-25.8 42.3-34.7 73.8-26.4 15 3.9 27.7 14.4 35.9 29.5 9.2 17.1 11.6 37.8 6.1 54.1-10.8 32-34.2 46.6-75.4 46.6zm-9.3-1.2c59.6 2.9 76-22.9 83.7-45.8 5.4-16 3.1-36.5-6.1-53.3-8-14.8-20.5-25.1-35.3-29-31-8.1-55.5.6-72.7 26-13.3 19.6-7.4 45.3-7 47l37.4 55.1z"/><defs><path id="SVGID_9_" d="M0 0h749.9v428H0z"/></defs><clipPath id="SVGID_10_"><use xlink:href="#SVGID_9_" overflow="visible"/></clipPath><path d="M71.6 248.3s.8-6.8-1.4-9.4c0 0 3.4-3.6-2.2-8.8 0 0 .8-5.7-4.6-8.8 0 0 8.5-10.3 11.1-22.7 2.6-12.3.6-18.1-16.7-17.6-17.3.6-47.4 8.3-81.6 59.8l-1.4 40 6.2-7.4s2 2.6 14.5-10.8c12.5-13.3 22.1-20.4 22.1-20.4s-.2 5.9 11.3-3.4c0 0-2.6 3.8-1.4 5.3 1.1 1.5 15.6-5.3 15.6-5.3s-10.7 7.4-9 8.5c1.7 1.1 11-1.4 11-1.4s-4.8 4-3.7 4.8c1.1.8 4-.3 4-.3l.6 7.4 25.6-9.5z" clip-path="url(#SVGID_10_)" fill="#50420f"/><path d="M-25.9 282.3l1.5-41.5.1-.1c25.9-38.9 53.5-59.1 82-60.1 8.6-.3 13.6.9 16.1 4 2.9 3.4 2.2 8.8 1.1 14.2-2.2 10.9-9.2 20.3-10.8 22.4 4.4 2.9 4.4 7.5 4.3 8.7 2.1 1.9 3.2 3.9 3.2 5.9.1 1.5-.5 2.6-.9 3.1 2 2.9 1.3 9.1 1.3 9.4v.3l-26.7 10-.6-7.4c-1 .3-2.8.7-3.8 0-.2-.2-.4-.4-.4-.7 0-.9 1.3-2.4 2.5-3.5-3 .7-8.1 1.8-9.4.8-.3-.2-.4-.4-.4-.7 0-1.2 2.8-3.7 5.4-5.7-5.1 2.2-10.8 4.3-11.7 3.2-.7-.9-.3-2.5.2-3.8-4.4 3.3-7.4 4.5-9.1 3.7-.6-.3-.9-.8-1-1.2-2.4 1.8-10.9 8.6-21.4 19.8-8.7 9.3-12.6 11.2-14.3 11.1-.2 0-.3 0-.4-.1l-6.8 8.2zm2.4-41.2l-1.4 38.4 5.7-6.7.4.5h.2c.8 0 4.1-.8 13.5-10.8C7.3 249.2 17 242 17.1 242l.8-.6v1s0 .9.6 1.2c.7.3 3 .5 9.9-5l.7.7c-.8 1.2-2.1 3.8-1.4 4.7.9.5 8.5-2.4 15-5.5l.5.9c-4.4 3-9 6.9-9 7.8 1 .6 6.8-.5 10.5-1.6l.5.9c-2 1.7-3.8 3.6-3.7 4.1.7.5 2.6-.1 3.5-.4l.6-.3.6 7.4 24.9-9.3c.1-1.3.5-6.6-1.3-8.7l-.3-.3.3-.3s1-1.1.9-2.8c-.1-1.7-1.1-3.5-3.1-5.3l-.2-.2v-.3c0-.2.7-5.4-4.3-8.3l-.5-.3.4-.5c.1-.1 8.5-10.4 11-22.5 1.4-7 1.2-10.9-.9-13.4-2.3-2.7-7.2-3.9-15.3-3.6-28.3 1-55.6 21.1-81.3 59.6z" clip-path="url(#SVGID_10_)" fill="#1b150e"/><path class="st19" d="M131.1 308.7s33.2-15.8 43.7-6c10.5 9.7-18.4 44.5-45.6 50.3l-17.3-24.1.6-11.3 18.6-8.9z"/><path class="st1" d="M128.9 353.5L111.3 329l.6-11.8.3-.1 18.7-8.8c.1 0 8.4-4 18-6.7 12.9-3.7 21.7-3.4 26.2.7 2.4 2.2 3 5.7 1.7 10.1-4.1 14.8-26.9 36.6-47.6 41l-.3.1zm-16.6-24.8l17 23.7c20.3-4.5 42.5-25.8 46.5-40.2.8-2.8 1.2-6.7-1.5-9.1-10.1-9.4-42.8 6-43.1 6.1l-18.4 8.7-.5 10.8z"/><defs><path id="SVGID_11_" d="M0 0h749.9v428H0z"/></defs><clipPath id="SVGID_12_"><use xlink:href="#SVGID_11_" overflow="visible"/></clipPath><path class="st25" d="M139.9 348l-.7-.7c22-21.5 27.6-37 29-42l-5.7 6c.4 1.4-.6 4.8-9.4 16.2-5.2 6.7-10.6 12.9-10.7 13l-.8-.7c7.7-8.8 19.2-23.2 19.9-27.5l-28.4 29.9-.7-.7 36.6-38.6c-15.6-7.6-37.7 11.9-37.9 12.1l-.7-.7c.1-.1 5.8-5.2 13.4-9.2 10.2-5.4 19.1-6.4 25.9-2.9l.1.1c.1.1 2 1.7 2.3 5.4.4 4.4-1.5 12.3-12.4 24.9l-.8-.7c10.7-12.3 12.5-19.9 12.1-24.1-.2-2.4-1.1-3.8-1.6-4.4v.3c.1.7-2.4 17.8-29.5 44.3zm-3.3-15.5l-.8-.7 18-20.5c-4.3.1-13.2 8.8-16.4 12.3l-.7-.7c.5-.6 12.5-13.7 18-12.6l5.1-5.8c-13.3.6-33.2 21.7-33.4 21.9l-.7-.7c.9-.9 21.6-22.8 35.3-22.2h1l-25.4 29z"/><path class="st26" d="M52.6 226.7l-.6-.8c12-9.2 16.6-19.1 18.4-25.7 1.7-6.4 1.1-11.1 1-12.2-35-17.7-79.5 36.6-79.9 37.1l-.8-.6c.1-.1 11.5-14.1 27-25.6 20.7-15.3 39.5-19.3 54.4-11.7l.2.1v.2c.1.3 3.8 21.2-19.7 39.2z"/><path class="st25" d="M-21 243.5l-.8-.6c.1-.2 14.5-17.7 32.3-33.1 24.1-20.8 42.8-27.9 55.6-21.1l.2.1c.1.1.9 1.2 1.4 3.2.1 0 .1-.1.2-.1l.5.8-.5.4c.2 1 .2 2.2.1 3.5l.4.4c-.2.2-.4.4-.6.7 0 .2-.1.3-.1.5-1.2 6.5-6.8 16.9-27.2 29.9l-.5-.8c19-12 25-21.8 26.5-28.1-8.8 9.4-33.5 30.5-34.6 31.5l-.6-.8c.3-.2 28.1-24 35.6-32.6.2-1.3.2-2.4 0-3.3l-28.8 24.8-.7-.8 27.3-23.5c-15.4 8.3-42.8 32-43.1 32.3l-.7-.8c.3-.3 30.7-26.6 45.7-33.6-.4-1.6-1-2.6-1.2-2.9-29.5-15.5-85.8 53.3-86.4 54zM18.3 222l-.7-.8c1.3-1.1 29.8-25.5 45.4-31.1-4.9.1-18.6 2.9-44.4 26.7l-.7-.7c19.8-18.3 32.5-24.4 39.7-26.3-16.1 1.2-32.2 15.4-32.4 15.5l-.7-.7c.1 0 5.6-4.9 13.3-9.2 6.9-3.8 16.9-7.9 26.4-6.3.7.1 1.1.2 1.2.3l-.1.2.2.7c-14.4 3.8-46.9 31.5-47.2 31.7z"/><path class="st26" d="M-23 259.9l-.8-.6c9.3-13.8 30.5-33.2 30.7-33.4l.7.7c-.2.3-21.4 19.6-30.6 33.3zm.9-6.5l-.9-.5c10.4-17.4 37.8-42.1 38.1-42.4l.7.7c-.3.3-27.6 24.9-37.9 42.2z"/><path class="st25" d="M-23.6 272.5l-.8-.7c30-34.2 39.5-40.5 39.9-40.8l.5.8c0 .1-9.7 6.6-39.6 40.7zm.3-7.1l-.8-.7c18.2-21.3 35.1-36.5 35.3-36.6l.7.7c-.1.2-17 15.3-35.2 36.6z"/><path class="st26" d="M-4 259.9l-.8-.6c15.2-20.5 25.4-28.6 25.5-28.7l.6.8c0 .1-10.2 8.2-25.3 28.5zm-18.4-173l-.3-1c.1 0 5.2-1.4 13-4.2 8.9-3.1 17.7-6 22.7-6.1 1.4-.8 13.1-7.7 18.5-7.8.2-.1.5-.4.9-.7l-.8-.6c6.6-9 8.1-17 8.1-17.1l1 .2c-.1.3-1.5 8.2-8.1 17.3 2.5-1.6 9-4.8 20.9-5 2.3-8.2 8.3-15 8.6-15.3l.7.7c-.1.1-5.9 6.7-8.3 14.6h.1c1.1-.7 9.2-5 23.3-4 5.4-9.9 9.6-11.7 9.8-11.7l.4.9-.1-.4.2.5s-4 1.7-9.1 10.9h.3c1.1-.6 8.3-4.3 14.8-3.4 1-.4 7.3-2.7 18.3-2.7 1.6-1.5 15.8-14.2 40.1-19.3l.2 1c-25.4 5.3-39.6 19-39.7 19.1l-.1.1h-.2c-11.7 0-18.2 2.7-18.2 2.7l-.1.1h-.1c-6.8-1-14.6 3.3-14.6 3.3l-.1.1h-.2c-15.5-1.5-24.3 3.8-24.4 3.8l-.1.1h-.1c-16 0-22.7 5.6-22.8 5.7l-.1.1h-.2c-5.3 0-18.2 7.7-18.3 7.8l-.1.1h-.1c-4.9 0-13.7 2.9-22.5 6-8 2.8-13.2 4.2-13.2 4.2zm-1.4-.7l-.8-.7c.2-.2 3.8-4.4 14.5-13.4C.4 63.3 2.5 55.2 2.5 55.1l1 .2c-.1.3-2.1 8.5-12.9 17.5-10.7 9.1-14.4 13.4-14.4 13.4zM608.2 254.9s13.1-14.5 18.2-24.1c5.1-9.6 13-22.1 31.4-27.5 18.4-5.4 38.8-2.1 49.9 12.6 11.1 14.6 11.9 41.8 2.6 55.7-9.4 14-11.3 17.8-18.4 16-7.1-1.8-8.5.9-8.5.9s6.2.1 22.7 12.6c16.4 12.5 26.1 26.1 31.1 47.6 4.9 21.5-1.6 35.1-1.6 35.1s-17 20.8-74.3 16.7c0 0 11.6 5.5 23.8 12.6 12.2 7.1 23.2 16.6 12.2 29.1-11.1 12.5-23.5-2-36.6-2.8-13-.9-28.3 5.7-39.9 9.1-11.6 3.4-21.3 4.8-30.1 5.7 0 0-10.8 14.2-18.7 23.2L212.3 480s8.2-14.2 21-27.2 22.4-21.8 22.4-21.8 7.4-23 33.4-32.3c26.1-9.4 44.2-13 62.4-15.1 18.1-2.1 20.4-1.6 28.9-4s33.2.3 51-2.1c17.9-2.4 28.9-.3 28.9-.3l10.8-10.2s9-15.5 21.3-30.4c12.2-15 36-46.6 51.6-55.3 15.6-8.7 15.3-11.5 26.6-14.2 11.2-2.8 35.9-8.8 37.6-12.2z"/><path class="st26" d="M211.3 480.4l.4-.8c.1-.1 8.4-14.4 21.1-27.3 12-12.2 21.3-20.8 22.3-21.8.7-1.9 8.7-23.5 33.7-32.5 28.6-10.2 46.9-13.3 62.5-15.1 5.6-.6 9.6-1 12.9-1.4 7.2-.7 10.1-1 16-2.6 4.3-1.2 12.5-1.1 22-1.1 9.5.1 20.2.1 29.1-1.1 16.3-2.2 27.1-.6 28.8-.3l10.5-10c.6-1.1 9.6-16.1 21.3-30.4 1.8-2.2 3.9-4.8 6.1-7.6 12.8-16.1 32.2-40.3 45.6-47.7 5.9-3.3 9.5-5.7 12.4-7.6 4.7-3.2 7.3-4.9 14.4-6.6 8.8-2.1 35.8-8.6 37.4-11.9l.1-.1c.1-.1 13.1-14.6 18.1-24 5.7-10.8 13.9-22.5 31.7-27.7 20.3-6 40.1-1 50.4 12.8 11 14.5 12.2 41.9 2.6 56.3l-1.6 2.5c-7.9 11.9-10.3 15.5-17.3 13.7-4.3-1.1-6.3-.5-7.3.1 2.4.5 9.1 2.8 21.9 12.5 17.4 13.3 26.5 27.2 31.3 47.9 4.9 21.5-1.5 35.3-1.6 35.5l-.1.1c-.2.2-4.5 5.4-15.9 10-10.2 4.2-28.1 8.7-56.3 7 4 2 12.7 6.4 21.6 11.5 6.6 3.9 15.6 9.9 16.8 17.6.6 4-.9 8.1-4.5 12.3-7.5 8.4-15.8 4.8-23.9 1.4-4.3-1.8-8.7-3.7-13.1-4-10-.7-21.4 3.1-31.4 6.4-2.9 1-5.7 1.9-8.4 2.7-12.2 3.6-22 4.9-29.9 5.7-1.3 1.7-11.2 14.7-18.6 23.1l-.1.2h-.2l-360.8 2.3zm184.6-101.5c-6.7 0-12.3.2-15.5 1.1-5.9 1.7-8.9 2-16.2 2.7-3.2.3-7.3.7-12.8 1.3-15.5 1.8-33.8 4.8-62.2 15-25.5 9.2-33.1 31.8-33.1 32v.1l-.1.1c-.1.1-9.8 8.9-22.4 21.8-10.9 11.1-18.6 23.3-20.4 26.4l358.6-2.5c7.8-9 18.4-22.9 18.5-23l.1-.2h.2c7.9-.8 17.7-2.1 30-5.7 2.6-.8 5.4-1.7 8.3-2.6 10.1-3.3 21.6-7.1 31.8-6.4 4.6.3 9.1 2.2 13.4 4.1 8.1 3.5 15.8 6.8 22.8-1.1 3.4-3.9 4.9-7.7 4.3-11.4-1.2-7.3-9.9-13.1-16.4-16.8-12.1-7-23.7-12.6-23.8-12.6l.3-1c29.4 2.1 47.9-2.5 58.3-6.8 10.6-4.4 15.1-9.2 15.5-9.7.4-1 6.2-14.4 1.5-34.8-4.7-20.5-13.6-34.2-30.9-47.4-16-12.2-22.3-12.5-22.4-12.5h-.8l.4-.7c.1-.1 1.7-3 9.1-1.2 6.3 1.6 8.2-1.3 16.2-13.3l1.6-2.5c9.5-14.1 8.2-40.9-2.5-55.2-10.1-13.4-29.5-18.3-49.3-12.4-17.5 5.2-25.6 16.7-31.1 27.2-4.9 9.3-17.4 23.3-18.2 24.2-1.8 3.3-20.2 8.1-38 12.4-6.9 1.7-9.5 3.4-14.1 6.5-2.9 1.9-6.5 4.4-12.4 7.7-13.2 7.3-32.5 31.5-45.3 47.5-2.3 2.8-4.3 5.4-6.1 7.6-12 14.7-21.1 30.2-21.2 30.4l-.1.1-11 10.4h-.3c-.1 0-11.2-2.1-28.8.3-9 1.2-19.8 1.1-29.3 1.1-2.1-.2-4.2-.2-6.2-.2z"/><path class="st6" d="M648.2 396.5c0-.2-1.1-23.6-2.7-41.8-1.4-17.1-4.2-30-9.5-44.7-4.8-13.2-14.1-31.7-14.1-31.9l.9-.4c.1.2 9.4 18.8 14.2 32 5.3 14.8 8.1 27.8 9.5 45 1.5 18.2 2.7 41.6 2.7 41.9l-1-.1zm.1-55.2l-.8-.6c.1-.1 5.6-7.5 19.3-21.3 13.6-13.6 18.2-28.5 18.2-28.7l1 .3c0 .2-4.7 15.3-18.5 29.1-13.7 13.7-19.2 21.1-19.2 21.2z"/><path class="st3" d="M686 290.3s-6.5-.6-15.2-.7c-8.6-.1-14.5-.3-16.3 1.2-1.8 1.5-14 14.4-12 16.1 2 1.7 4.1-1 5.8-3.3 1.7-2.3 7.2-7.8 7.2-7.8s-4 5-5.8 8.5c-1.8 3.5-4.8 6.8-3.5 7.7 1.3.8 2.2.4 2.2.4s.4 1.7 2.3 1.1c1.8-.5 1.3-.5 1.3-.5s1.5.7 4.1-.9c2.7-1.6 7.8-4.8 7.8-4.8s6.6-.6 9.5-2.3c2.9-1.7 6.5-6.2 10.1-6.8l2.5-7.9z"/><path class="st1" d="M650 314.1c-.4 0-.7-.1-1-.3-.4-.2-.7-.6-.8-.9-.5.1-1.3 0-2.2-.6-1.3-.8-.1-2.7 1.4-5.1.6-1 1.3-2.1 1.9-3.2.5-.9 1-1.8 1.6-2.7-.9 1-1.7 1.9-2.2 2.6-1.2 1.6-2.9 3.8-4.6 4-.7.1-1.3-.1-1.9-.7-.2-.2-.4-.5-.4-1 .1-3.4 11-14.7 12.5-15.9 1.9-1.6 7.5-1.5 15.9-1.3h.7c8.6.1 15.1.7 15.2.7l.6.1-2.8 8.8h-.3c-2.1.3-4.4 2.3-6.5 4.1-1.2 1-2.3 2-3.4 2.6-2.7 1.6-8.6 2.2-9.6 2.3-.7.5-5.3 3.3-7.7 4.8-2 1.2-3.4 1.2-4.1 1l-.1-.1c-.3.1-.7.3-1.3.4-.4.4-.6.4-.9.4zm-1.1-1.8c0 .1.2.5.6.7.3.2.6.2 1.1 0 .8-.2 1.1-.3 1.2-.4.9-1 3.7-4.2 5.3-5.7 1.8-1.8 4.5-4.1 4.6-4.1l.6.8s-2.7 2.3-4.5 4.1c-1.3 1.3-3.4 3.6-4.6 5 .6 0 1.6-.2 2.8-1 2.6-1.5 7.7-4.8 7.8-4.8l.1-.1h.1c.1 0 6.6-.6 9.3-2.2 1-.6 2.1-1.5 3.3-2.5 2-1.8 4.4-3.8 6.7-4.3l2.3-7.1c-1.8-.1-7.5-.5-14.5-.7h-.7c-7.9-.1-13.6-.2-15.3 1.1-2 1.6-12 12.5-12.1 15.1v.2c.4.3.7.5 1.1.4 1.3-.1 2.9-2.2 3.9-3.6 1.7-2.3 7-7.6 7.3-7.8l.7.7s-4 5-5.8 8.4c-.6 1.2-1.3 2.3-2 3.3-.9 1.4-2.2 3.4-1.7 3.7.7.4 1.2.5 1.5.4l-.1-.1s3.7-4.3 5.5-6.6c1.8-2.4 5.6-6.3 5.7-6.4l.7.7s-3.8 4-5.6 6.3c-1.5 2.1-4.4 5.4-5.3 6.5z"/><path class="st3" d="M627.9 284.7s7.4-11.1 14-18.6c6.6-7.5 7.9-7.9 7.9-7.9s-3-1.3-.6-4.1c2.3-2.8 7-4 10.6-4.8 3.6-.8 8.4-4.3 14.5-4 6.1.3 13.3 5.4 16.9 10.1 3.5 4.7 5.5 9.6 2.1 14.5-3.4 4.8-2.9 1.3-7.9 6.4-5 5.1-17.1 11.2-27 11.8l-4.6.5s-7.4 6.3-18.3 12.5l-7.6-16.4z"/><path class="st1" d="M635.3 301.7l-8-17 .2-.2c.1-.1 7.5-11.2 14.1-18.6 4.3-4.9 6.4-6.8 7.4-7.6-.4-.3-.9-.8-1-1.5-.2-.9.1-1.9.9-2.9 2.5-3 7.3-4.1 10.9-5 1.1-.3 2.5-.8 3.8-1.4 2.9-1.2 6.6-2.8 10.8-2.6 6.4.3 13.6 5.5 17.2 10.3 2.5 3.3 5.4 8.1 3.2 13.2-.3.6-.6 1.2-1.1 1.8-1.7 2.5-2.5 2.9-3.6 3.3-.9.3-1.9.7-4.3 3.2-5.2 5.3-17.4 11.3-27.3 11.9l-4.4.5c-1 .8-8.2 6.7-18.3 12.5l-.5.1zm-6.9-16.9l7.3 15.6c10.5-6.1 17.7-12.2 17.8-12.2l.1-.1 4.8-.5c9.7-.6 21.6-6.5 26.7-11.6 2.5-2.6 3.7-3 4.7-3.4.7-.3 1.2-.5 2.2-1.7h-.1c-.9-3.1-4.2-2.9-4.3-2.9l-.1-1s3.8-.2 5.1 3c.1-.1.2-.3.3-.4.3-.4.6-.9.8-1.4-1.3-3.3-4.8-3.4-4.9-3.4v-1s3.7 0 5.4 3.1c1-3.2-.1-6.9-3.4-11.2-3.5-4.6-10.6-9.6-16.5-9.9-4-.2-7.4 1.2-10.4 2.5-1.4.6-2.8 1.2-4 1.5-3.4.8-8.1 1.9-10.4 4.7-.6.8-.9 1.5-.7 2 .2.8 1.2 1.3 1.2 1.3l1.2.5-1.3.4s-1.5.7-7.7 7.8c-5.9 6.8-12.6 16.6-13.8 18.3zm48-7.2h-.1c-.4 0-.8-.2-1.2-1-.7-1.5-1.3-1.6-1.3-1.6v-1c.2 0 1.2.1 2.2 2.1.2.4.3.4.4.4 1 .1 3.6-3.3 4.6-4.6 2.9-3.8 5.3-6.7 5.3-6.7l.8.6s-2.4 2.9-5.3 6.6c-2.8 3.8-4.2 5.2-5.4 5.2zm-3.2-13.9c-2.8-1.8-3.6-4.7-3.6-4.8l1-.2s.7 2.7 3.2 4.2l-.6.8zm5.6-1.9c-4.4-.9-6-6.2-6-6.4l.6-.2v-.7c.3 0 6.9 0 8 4.8l-1 .2c-.7-3.3-5.1-3.9-6.6-4 .4 1.2 2 4.7 5.2 5.4l-.2.9zm5.6-3.7c-.1-.3-2.5-7.6-12.7-6.5l-.1-1c11-1.2 13.7 7.1 13.7 7.2l-.9.3z"/><path class="st1" d="M672.3 281.3l-.5-.8c-.4.1-1 0-1.9-.6-.9-.7-.9-1.7-.9-2.2l-1.3-1.5.8-.6 1.5 1.7.1.5s-.2.9.5 1.4c.8.6 1.2.4 1.2.4l.7.1.7 1.1-.9.5zM667.2 282.7c-.5-3.3-4.2-3.7-4.3-3.7l.1-1s4.6.5 5.2 4.5l-1 .2z"/><path class="st6" d="M627.8 279.8l-.9-.4c7.3-15.8 1.7-23.3 1.6-23.4l-.2-.3.3-.3c8.2-9.5 21.7-16.8 21.8-16.9l.5.9c-.1.1-13.2 7.2-21.3 16.4 1 1.6 4.9 9.4-1.8 24zm-2.9-3.7l-.9-.5c0-.1 4.5-9.1 1.7-17.3l.9-.3c3.1 8.6-1.5 17.7-1.7 18.1zm84-16.9l-32.5-28.5.7-.8 32.5 28.5-.7.8zm-4-6.1l-25.8-24.2.7-.7 25.8 24.2-.7.7zm-60.3-15.7l-.8-.6c.3-.3 3-3.1 17.3-1.3l-.1 1c-13.8-1.8-16.4.9-16.4.9zm2.6-3.9l-.2-1c.1 0 7.5-1.1 14.1 0l-.2 1c-6.3-1.1-13.6 0-13.7 0z"/><path class="st1" d="M593.4 137.9l-23.6-6.4 9.4-9.1.7.7-8.1 7.9 21.6 5.9c35.2-9.5 69.1-4.6 72.1-4.1 16.5-12.8 30.7-19.5 39.8-22.9 6.2-2.3 10.8-3.4 13.4-4l-53-12.2.2-1 55.5 12.8-.1 1c-.2 0-23.8 2.8-55.4 27.2l-.2.1h-.2c-.3-.1-35.5-5.8-72 4.1h-.1z"/><path class="st27" d="M666 93.3s3-3.6 9.8-2.2c6.8 1.3 13.1.8 13.1.8s-3.8-4.8-15.9-6.4c0 0 8.8-6.4 24.5 7.9 0 0-7.3-13.6-18.3-15.7 0 0 3.2-4.2 21.6 2.2 0 0-.4-5.5-10.8-8.4l6.6-3.4s-8.8-2.2-17.9.2c0 0 1.2-3.6 6.2-4.9 0 0-5.9-3.6-14.6 3.9l1.4-4.3-6.8 1.5s11.9-16 6.1-22.8c0 0 1.6 2.2-3.9 6.9 0 0 4.2-25.5-12.8-36.5 0 0 5.8 6.9 7.6 17l-5.1-2.4 4.1 19.6s-2.2.2-5.9-5.1c0 0-2.2 4.5-.2 11 0 0-2.1-1.9-5.8 3.2 0 0 3.9-6.9 1.2-16.2 0 0-.4 3.1-5.4 7.3 0 0 5.6-15.1-1-23.2l-1.6 5s-.3-7.6-12.3-16.7c0 0 3.9 7.4 5.1 15.3 0 0-2.6-3.9-13.5-4.8 0 0 10.3 4.7 12.8 16.1 0 0-3-2.2-11-3.1 0 0 8.9 7.6 10.9 18.1 0 0-2.5-2.8-9.2-3.4 0 0-.4 4.5 2.9 8.6l-4.1-.7s-3.8 14.1 8.4 22.2l-.4 7.4 34.2 6z"/><path class="st1" d="M666.2 93.8h-.3l-34.7-6.1.4-7.6c-12.2-8.2-8.4-22.4-8.4-22.6l.1-.4 3.4.5c-2.6-3.9-2.3-7.8-2.2-8v-.5h.5c4.3.4 7 1.7 8.3 2.6-2.4-9.5-10.3-16.4-10.4-16.5l-1.2-1.1 1.6.2c5.5.6 8.7 1.9 10.2 2.6-2.8-10.2-12.2-14.6-12.3-14.6l.2-1c7.3.6 11 2.6 12.7 3.9-1.5-7.1-4.8-13.5-4.8-13.6l.7-.6c8.6 6.5 11.3 12.2 12.1 15.1l1.3-4 .6.7c5.4 6.6 2.9 17.6 1.7 21.9 3.5-3.3 3.8-5.7 3.9-5.7l1-.1c1.7 5.9.8 10.8-.1 13.8 1-.9 2-1.4 2.9-1.5h.6c-1.5-6.1.5-10.2.5-10.4l.4-.8.5.7c2.3 3.3 4 4.3 4.8 4.7l-4.1-19.8 5.1 2.4c-1.9-9.3-7.3-15.7-7.3-15.8l.7-.7c14.7 9.6 13.7 30.2 13.1 35.6 3.8-3.7 2.8-5.3 2.8-5.4l.8-.6c5.2 6.1-2.7 18.6-5.3 22.4l6.4-1.4-1.2 3.5c8.1-6.2 13.6-3 13.8-2.8l1 .6-1.1.3c-3.2.8-4.7 2.6-5.4 3.6 8.8-1.9 17 .1 17.1.1l1.3.3-6.7 3.4c9.4 3.1 9.9 8.3 10 8.5l.1.8-.7-.3c-13.1-4.6-18.4-3.7-20.2-2.9 10.4 2.7 17.2 15.1 17.5 15.7l-.8.6c-11.7-10.7-19.5-9.6-22.5-8.5 10.9 1.8 14.5 6.2 14.6 6.4l.6.7-.9.1c-.1 0-6.4.6-13.2-.8-6.4-1.3-9.2 1.9-9.4 2l-.1.4zm-34-7l33.6 5.9c.8-.8 4-3.4 10.1-2.2 5 1 9.8.9 11.8.8-1.6-1.4-6-4.3-14.8-5.5l-1.2-.2 1-.7c.3-.3 8.3-5.9 22.6 5.8-2.8-4-8.6-11.3-16.2-12.6l-.8-.1.5-.6c.1-.2 3.5-4.3 21.3 1.7-.6-1.6-2.7-5-10.2-7.2l-1.2-.3 6.4-3.3c-2.8-.5-9.5-1.3-16.3.5l-.9.2.3-.9c0-.1 1.2-3.2 5.2-4.8-2.1-.6-6.7-1-12.8 4.3l-1.4 1.2 1.7-5.2-7.3 1.6.8-1.1c.1-.1 9.9-13.5 7-20.6-.4 1.2-1.4 3-4.1 5.4l-1 .9.2-1.4c0-.2 3.5-22.6-10-34.1 1.9 2.9 4.7 8.1 5.8 14.6l.2.9-5.1-2.4 4 19.2h-.6c-.3 0-2.4 0-5.8-4.5-.5 1.5-1.3 5.2.1 9.9l.5 1.8-1.3-1.3s-.3-.3-1-.2c-.8.1-2.2.7-4.1 3.3l-.8-.5c0-.1 3.3-6.1 1.5-14.2-.7 1.4-2.1 3.5-5 5.9l-1.4 1.2.6-1.7c.1-.1 5-14-.4-21.9l-1.3 4.1-1-.1c0-.1-.4-6.8-10.4-15 1.2 2.7 3.4 8 4.3 13.5l-.9.4s-2.3-3.1-10.7-4.3c3.2 2.1 9.1 6.9 11 15.2l.3 1.3-1.1-.8s-2.7-1.8-9.3-2.8c2.5 2.5 8.3 8.9 9.9 17.3l.3 1.7-1.2-1.3s-2.4-2.5-8.3-3.2c0 1.3.3 4.7 2.8 7.7l.8 1-4.9-.8c-.5 2.4-2.3 14.2 8.3 21.2l.2.2-.3 7.1zM225.6 394.1c0-.2-.7-5.8 2.3-12.6v-4.4h1v4.7c-3 6.6-2.3 12.1-2.3 12.2l-1 .1zm-1.2-14.5l-.9-.3s1.5-4.5 1.5-13.6v-.1l.1-.1s2.8-4.6 2.8-17h1c0 11.7-2.4 16.6-2.9 17.4 0 9.1-1.5 13.5-1.6 13.7zm22.8-27.3c-6.4-12.2-16.4-18.5-16.5-18.5l.5-.9c.1.1 10.4 6.5 16.9 18.9l-.9.5zm32.2-14c-4.4-22.9-4.6-41.9-4-53.8.3-6.6 1.6-11.1 3.3-16.8 1.1-3.8 2.4-8.2 3.6-14.1 3.2-14.9 7.8-26.3 7.8-26.4l.9.4c0 .1-4.6 11.5-7.8 26.3-1.3 6-2.5 10.3-3.6 14.2-1.6 5.6-2.9 10.1-3.2 16.6-.6 11.8-.4 30.7 4 53.5l-1 .1zM219 320.1h-20.2l8.5-13.4-8.7 10.1h-.1c-3.7 1.2-10.4.3-10.7.3l.1-1c.1 0 6.6.8 10.1-.2l12.9-14.9.8.6-11.1 17.5h17.7l3.1-7.9 1.4-1.3 8-16 8.6-6.3.6.8-8.4 6.2-8 16-1.3 1.3-3.3 8.2zm36.5-11.6l-1-.3c2-6.5 2.4-14.8 2.9-25.4.1-2.8.3-5.7.4-8.8.7-13.1 2.6-20.2 4.5-27.6.3-1.1.6-2.2.9-3.4 1.2-4.8 2.3-8.3 3.7-12.4 1.2-3.7 2.5-8 4.3-14.1 3.7-13 13.4-19.3 13.5-19.4l.5.8c-.1.1-9.5 6.2-13.1 18.8-1.7 6.1-3.1 10.4-4.3 14.1-1.3 4.1-2.5 7.7-3.6 12.4-.3 1.2-.6 2.3-.9 3.4-1.9 7.4-3.8 14.4-4.5 27.4-.2 3.1-.3 6-.4 8.8-.5 10.7-.9 19.1-2.9 25.7zm-4.9-22.5l-1-.2c.7-3.4 1-7.7-1.1-15.6-.7-2.7-1.3-4.9-1.7-6.7-.9-3.7-1.4-5.8-2.5-7.5-1.8-2.7-1.2-14.9-1.2-16.3l1 .1c-.2 3.7-.4 13.7 1 15.7 1.2 1.8 1.7 3.9 2.7 7.8.4 1.8 1 4 1.7 6.7 2.2 8.1 1.9 12.5 1.1 16zm-6.4-54.1l-1-.1.5-10.5-1.7-1.7-.6-9 1-.1.6 8.7 1.7 1.7-.5 11zm-21.8-8.1l-.5-.8s3.2-2 6.1-6.1c3.1-4.2 7.9-8.8 7.9-8.8l.7.7s-4.8 4.5-7.8 8.7c-3.1 4.2-6.3 6.2-6.4 6.3z"/><path class="st28" d="M141.2 146.3s17.7 1.4 25.5-5.8c0 0 6 2.1 8.5-5.7 0 0 5 4.4 9.5-1.1 0 0 5.1 2.3 7.4-1.4 0 0 1.6 3.5 5.2 2.3 0 0 0 3.5 3.7 3.7 0 0-.3 4.7 4.1 5.1 0 0-1.6 4 2.8 6.6 0 0-1.2 4.5 2.4 4.8 3.6.3 6.3-4.6 5.4-8.6-.9-4-1.1-4-1.1-4s4.8-4.8 1.1-9.1c0 0-.6-3.4-2.3-5.4 0 0 2.8-5.5-1.6-9.5 0 0 1.1-3.5-3.3-5.5 0 0 1.8-6.5-6.4-7.1 0 0-2.1-6-9.2-4.1 0 0-4.2-4.5-8.3-.9 0 0-2.6-3.5-6.7-.4 0 0-3.7-2-5.8 2 0 0-6.2-2.6-7.1 3.8 0 0-7.8 1.3-6.1 11.1 0 0-5.6 4.1-.1 9.8 0 0-3.8 2.3-2 6.7 0 0-5.1-.7-6.2 4.8 0 0-4.4-1.1-6.9 2.9 0-.3-4.8.1-2.5 5z"/><path class="st1" d="M172.1 164.9c-.1 0-5.1-.8-5.8-6.1-.7-5.2 2.5-8.2 2.6-8.3l.7.7c-.1.1-3 2.7-2.3 7.4.6 4.6 4.8 5.2 5 5.3l-.2 1zm8.3-1.4c-1.6-3.3-3.8-3.7-3.9-3.8l.2-1c.1 0 2.8.5 4.6 4.3l-.9.5zm4-2.3l-2.6-.2-.1-.3c-.3-1-1.6-2.2-2.1-2.6l.7-.8c.1.1 1.7 1.4 2.3 2.8l2 .1-.2 1zm2.9-2.5c-.3 0-.6-.1-.9-.2-.5-.2-.8-.7-.8-1.3 0-.8-.8-1.5-1.2-1.7l.5-.8c.1 0 1.6 1.1 1.6 2.6 0 .2.1.3.2.4.5.2 1.7.1 3.2-1.1 2.1-1.8 5.3-8 5.3-8.1l.9.4c-.1.3-3.3 6.5-5.6 8.4-1 .9-2.2 1.4-3.2 1.4zm23.3-3.6h-.3c-1-.1-1.8-.5-2.4-1.2-.9-1.2-.7-3-.6-3.8-3.4-2.1-3.2-5.1-2.9-6.4-3.1-.6-3.9-3.3-4-5.1-2.5-.3-3.4-2.1-3.6-3.5-2.4.5-4-.8-4.9-2-2 2.3-5.3 1.8-7.2 1.1-1.4 1.6-3 2.5-4.8 2.7-2.1.2-3.8-.8-4.6-1.3-.9 2.4-2.3 4.1-4 5-2 1-3.9.6-4.6.5-8 7.1-25 5.8-25.7 5.8h-.3l-.1-.3c-.8-1.7-.9-3.1-.2-4.2.8-1.3 2.3-1.7 3-1.8 2.2-3.2 5.6-3.1 6.8-2.9 1.1-4.1 4.4-4.7 5.9-4.8-1-3.3 1-5.4 2-6.2-1.5-1.8-2.3-3.6-2.1-5.4.2-2.4 1.8-4 2.4-4.5-.5-3.3 0-6 1.4-8 1.6-2.2 3.9-3 4.8-3.2.3-1.8 1.1-3.1 2.3-3.8 1.8-1.1 4.1-.5 5-.2 2-3.2 5-2.3 6-2 1.4-1 2.7-1.4 4-1.2 1.3.2 2.3 1 2.8 1.5 3.8-2.9 7.5.1 8.4 1 6.3-1.5 8.8 3 9.4 4.2 2.7.2 4.6 1.1 5.7 2.7 1.2 1.7 1 3.7.9 4.6 3.6 1.8 3.4 4.7 3.2 5.6 3.7 3.6 2.1 8.4 1.6 9.6 1.4 1.9 2 4.6 2.2 5.2 3.3 3.9 0 8.2-1 9.4.2.6.6 1.7 1 3.8.5 2.5-.2 5.5-1.9 7.4a4.6 4.6 0 01-3.6 1.7zm-12.8-21.3v.7c0 .1.1 3.1 3.2 3.2h.5v.5c0 .2-.2 4.2 3.7 4.6l.7.1-.2.6c-.1.1-1.3 3.7 2.6 5.9l.3.2-.1.4s-.5 2.1.3 3.3c.4.5.9.8 1.6.8 1.1.1 2.3-.4 3.2-1.5 1.5-1.7 2.2-4.3 1.7-6.5-.5-2.4-.8-3.3-.9-3.6h-.9l.9-.9c.2-.2 4.5-4.5 1.1-8.4l-.1-.1v-.1s-.6-3.3-2.2-5.1l-.2-.3.2-.3c.1-.2 2.6-5.3-1.4-8.9l-.2-.2.1-.3c0-.1.9-3.2-3-4.9l-.4-.2.1-.4s.6-2.3-.7-4.2c-1-1.4-2.7-2.1-5.3-2.3h-.3l-.1-.3c-.1-.2-2.1-5.5-8.6-3.8l-.3.1-.2-.2c-.2-.2-3.9-4.1-7.6-.8l-.4.4-.3-.4s-.9-1.2-2.5-1.5c-1.1-.2-2.3.2-3.5 1.1l-.3.2-.3-.1c-.1-.1-3.3-1.7-5.1 1.8l-.2.4-.4-.2s-2.7-1.1-4.5 0c-1 .6-1.6 1.7-1.9 3.4v.4l-.4.1s-2.8.5-4.5 2.9c-1.3 1.9-1.7 4.4-1.2 7.6l.1.3-.2.2s-2.1 1.6-2.3 4c-.1 1.6.6 3.3 2.2 5l.4.5-.5.3c-.1.1-3.4 2.1-1.8 6l.3.8-.9-.1c-.2 0-4.7-.6-5.7 4.4l-.1.5-.5-.1c-.2 0-4.1-.9-6.4 2.6l-.1.2h-.2s-1.7.1-2.4 1.3c-.4.7-.4 1.7.2 3 2.3.1 17.8.8 24.8-5.7l.2-.2.3.1s2 .7 4.1-.3c1.7-.8 2.9-2.5 3.8-5l.2-.7.6.5s2 1.7 4.5 1.5c1.6-.1 3-1 4.3-2.6l.2-.3.3.2c.2.1 4.7 2 6.7-1.2l.5-.8.4.9c.1.1 1.4 3.1 4.6 2l.4-.5zm4.8 19.9l-1-.2c.3-1.4.1-2.5-.5-3.3-.8-1-2-1.2-2-1.2l.1-1c.1 0 1.7.2 2.7 1.6.8 1 1 2.4.7 4.1zm-11.7-7.5c-1.1-2.1-4-1.5-4.1-1.4l-.2-1c.2 0 3.8-.8 5.2 1.9l-.9.5zm2.7-1.9c-1.5-4.4-7-2.9-7.2-2.8l-.3-1c2.3-.7 7-.9 8.4 3.4l-.9.4z"/><path class="st6" d="M202.1 66.3l-.8-.6C219.9 40.5 215.9 34 215.8 34l.8-.6c.2.3 4.8 6.8-14.5 32.9zm-20.3-3l-.5-.9c.1-.1 10.8-6.6 22.5-21.4l.8.6c-11.9 15-22.7 21.7-22.8 21.7zm8.8-.4l-.6-.8c.1-.1 13.9-10.2 16.3-19.7l1 .2c-2.5 9.9-16.1 19.9-16.7 20.3zm9.7-2.8l-.7-.7c.1-.1 9-9.6 11.8-21.3l1 .2c-2.9 12-12 21.7-12.1 21.8z"/><g><defs><path id="SVGID_13_" d="M0 0h749.9v428H0z"/></defs><clipPath id="SVGID_14_"><use xlink:href="#SVGID_13_" overflow="visible"/></clipPath><path d="M-24.5 114.3l-.6-.8c9.5-7 15-6.8 16.3-6.7 8.7-9.5 15.7-8.6 17.3-8.2 13.9-16 47.6-19.6 49.6-19.8 9.4-4.6 22.2-4.8 23.4-4.8 12.5-4.1 25.4-3.9 27.4-3.9 14.5-18.3 27.6-26.9 36.1-30.8 9.2-4.3 15-4.2 15.2-4.2v1c-.1 0-5.8-.1-14.8 4.1-8.4 3.9-21.4 12.4-35.8 30.7l-.2.2h-.3c-.1 0-14-.6-27.3 3.8h-.2c-.1 0-13.4.1-23.1 4.8h-.2c-.4 0-35.3 3.3-49.2 19.7l-.2.3-.3-.1c-.1 0-7.4-2.3-16.7 8.1l-.2.2-.3-.1c-.2.1-5.5-1.1-15.9 6.5zm142-36.6l-.8-.7c31.1-36 72.8-49 73.2-49.2l.3 1c-.4.2-41.8 13.1-72.7 48.9zM179.1 54l-.5-.9c.1 0 9.7-5 23.9-19.2l.7.7C188.9 49 179.2 54 179.1 54z" clip-path="url(#SVGID_14_)" fill="#1b150e"/></g><path class="st6" d="M212.8 54.9l-.9-.5C217 45 223 42 223.3 41.9l.4.9c0 .1-6 3-10.9 12.1z"/><path class="st1" d="M51.5 125.6l-.8-.6c17.1-20.8 45-35.1 45.3-35.3l.5.9c-.3.1-27.9 14.4-45 35zm-1.2-4.8l-.7-.7c.2-.2 15.8-17.1 30.6-25.9 14.4-8.5 16.2-10.6 16.3-10.7l.8.6c-.1.1-1.8 2.1-16.6 10.9-14.7 8.8-30.3 25.6-30.4 25.8zm69-28.9l-.8-.6c.2-.3 22.3-31.2 51.5-44.5l.4.9c-28.9 13.3-50.9 43.9-51.1 44.2zM185 38.6l-.5-.8c11-6.9 20-9.3 20.1-9.3l.3 1c-.2-.1-9.1 2.3-19.9 9.1z"/><path class="st6" d="M53.9 110.3l-.7-.7c13.1-14.4 27.2-20.4 27.3-20.4l.4.9c-.2.1-14.1 6-27 20.2z"/><path class="st1" d="M68.8 124.7l-.9-.5C80 103.8 91.7 98 92.2 97.8l.4.9c0 .1-11.8 6-23.8 26z"/><path class="st6" d="M114.5 179.4h-1c.3-18 3.9-31 3.9-31.1l1 .3c-.1.1-3.7 13-3.9 30.8zm4.8-2.8l-1-.1c.9-15.9 3.4-30.3 3.4-30.4l1 .2c-.1.1-2.5 14.5-3.4 30.3zm5.3-4.6l-.9-.3 2-21.3 1 .1-1.8 19.1 6.9-11.2.9.5-8.1 13.1zM83 129.9l-.7-.8c.1-.1 9.6-8.6 13.2-21.2l-11.6 13.2-.8-.7 13-14.8.9.4c-3.2 14.2-13.9 23.8-14 23.9z"/><path class="st1" d="M79.2 205.1l-1-.1c3.4-29.1 14.4-40.3 19.1-43.9-16.2 3.5-23.4 15.6-23.4 15.8l-.9-.5c.1-.1 8.1-13.9 26.6-16.7l.3.9c-.2.1-16.6 8.5-20.7 44.5zm18.6-17l-.9-.3c6.1-16.7 3.7-26.4 3.7-26.5l1-.3c0 .4 2.5 10-3.8 27.1zm7.5-4.1l-1-.1c0-.1.5-6.9.3-17.2-.3-9.9-10.8-11-10.9-11.1l.1-1c.1 0 11.5 1.2 11.8 12 .2 10.4-.3 17.3-.3 17.4zm-73.1-69.3l-.7-.7C47.8 98.6 59 91.6 59.1 91.5l.5.8c-.1.1-11.2 7.1-27.4 22.4z"/><path class="st6" d="M30.3 122.5l-.8-.6c.1-.2 13.3-15.8 31.8-28.7 18.7-13 31-11 31.5-10.9l-.2 1c-.1 0-12.5-2-30.7 10.7-18.4 12.8-31.5 28.3-31.6 28.5z"/><path class="st1" d="M36.2 122.8l-.8-.6C49.8 104.8 62.9 96 63.1 95.9l.5.8c-.1.2-13.1 8.8-27.4 26.1z"/><path class="st27" d="M105.3 307.6s7.3-7.9 6-21.3c-1.3-13.3-8.9-26.3-14.4-32.9-5.5-6.7-8.6-6.7-8.6-6.7l-28.1 8.9-22.4 18.1-.3 55.3 19 41.7 30.6-12.1 18.6-19.5-.4-31.5z"/><path class="st1" d="M56.3 371.4L37 329.2v-.1l.3-55.5.2-.1 22.6-18.2 28.2-9c.1 0 3.4.1 9 6.8 5.9 7.2 13.3 20.2 14.5 33.2 1.2 12.4-5 20.3-6 21.5l.5 31.6-19 19.8-31 12.2zM38 329l18.8 41.1 30-11.9 18.4-19.3-.5-31.6.1-.1c.1-.1 7.1-7.9 5.9-20.9-1.2-12.8-8.5-25.6-14.3-32.7-4.8-5.8-7.7-6.4-8.2-6.5L60.3 256l-22 18-.3 55z"/><g><defs><path id="SVGID_15_" d="M0 0h749.9v428H0z"/></defs><clipPath id="SVGID_16_"><use xlink:href="#SVGID_15_" overflow="visible"/></clipPath><path d="M172.7 367.9s-.8-11-10.2-13.3c-9.3-2.3-30.9-5.1-30.9-5.1l-13.9-32.9s1.1-9.7-.5-16.5c-1.5-6.8-6-12.6-6-12.6s-6.8 8.1-8 30.5l-2 2-.4 25.7s-30.3 7.6-41.3 20.7c0 0-11.9-15.1-16.2-40.3 0 0 3.5-39.3-.5-53.8 0 0 18.6-17.9 47.3-25 0 0-12.1.4-29.5 4.3-17.3 3.9-18.4 3.9-18.4 3.9s-2-3.1-17.5 4.3-17.4 9.3-17.4 9.3l-.4 3.2-21.2 8.2-.3 3.1-10.2 6.8-2.8 185.1 75.4 3.1 90.1-40.8 32.6-62.7 2.2-7.2z" clip-path="url(#SVGID_16_)" fill="#5d5a15"/><path class="st31" d="M48.2 479.3l-76-3.1 1-65.7-.5-.6c.2-.1.3-.3.5-.4l1.8-119.1 9.9-6.6-.5-1.3.9.6.2-2.8 21.2-8.2.3-3 .1-.1c.1-.1 2.2-2.1 17.5-9.4 5.3-2.5 9.1-3.8 11.8-4.5v-.1l.2.1c3.9-.9 5.4-.2 5.9.2.7-.1 4-.7 18.1-3.9 17.2-3.9 29.4-4.3 29.6-4.3l.1 1c-7.1 1.8-13.6 4.2-19.3 6.9 3.8 1.4 7.1 3.2 9.7 5l.2-.1.2.4c6.7 4.7 9.8 9.7 9.8 9.7l-.9.5c0-.1-2.6-4.2-8.2-8.5l18.1 42.6-.9.4-18.8-44.1c-2.8-1.9-6.2-3.8-10.3-5.3l.1-.3c-10.5 5-18.5 10.7-22.9 14.2-.1.3-.1.7-.2 1l-.9-.1c-1.4 1.1-2.3 1.9-2.7 2.3 3.9 14.5.6 51.2.4 53.6v.1h.2l-.1.5c3.8 21.9 13.6 36.1 15.6 38.9C69.9 354 95 346.9 99.8 345.6c-5.4-8-11.1-17.6-15.9-26.3h-.3v-.6c-7.7-13.9-13.4-25.6-13.5-25.8l.9-.4c.1.2 5.4 11 12.6 24.2 0-7.6-.3-29-2.7-36.3-2.9-8.8-10.9-11.8-11-11.8l.3-.9c.3.1 8.6 3.3 11.6 12.5 2.7 8.3 2.8 33.3 2.7 38.4 4.8 8.6 10.3 18.1 15.7 26l.3-24.5 2-2c1.2-22.2 7.8-30.3 8.1-30.6l.4-.5.4.5c.2.2 4.6 6 6.1 12.8 1.4 6.4.6 15.3.5 16.5l14 32.2c2.6.3 22 2.9 30.6 5.1 9.6 2.4 10.6 13.7 10.6 13.8v.1l-2 7.6-32.7 62.8-.2.1-90.1 40.8zm-75-4.1l74.8 3.1 89.9-40.7 32.5-62.5 1.9-7.2c-.1-1-1.3-10.7-9.8-12.8-9.2-2.3-30.6-5.1-30.8-5.1h-.3l-14.1-33.3v-.1c0-.1 1-9.7-.5-16.3-1.2-5.4-4.4-10.2-5.5-11.8-1.4 2.1-6.5 10.8-7.5 29.7v.2l-2 2-.4 25.9-.4.1c-.3.1-30.2 7.7-41.1 20.5l-.4.5-.4-.5c-.1-.1-10.9-14.1-15.6-37l-1.1 7.3-1-.2 1.5-10.1c0-.2-.1-.4-.1-.5v-.2c0-.4 3.5-39.3-.5-53.6l-.1-.3.2-.2c-1.4-5.2.2-7 .2-7.1l.8.7-.4-.3.4.3s-1.1 1.5-.1 5.7c.6-.6 1.6-1.4 3-2.5 1.5-6.4 5.3-11 5.5-11.2l.8.6s-3.3 4-4.9 9.6c6.8-5.3 20.1-14.3 37.5-19.5-5.1.5-13.8 1.5-24.3 3.9-16.9 3.8-18.4 3.9-18.5 3.9h-.3l-.1-.2s-.1-.1-.4-.2C40 266.8 29.4 290 28.9 291l-.9-.4c.1-.2 11-24.2 12.7-35.1-.7-.1-1.8 0-3.4.3-2.2 5.8-11.5 19-11.9 19.5l-.8-.6c.1-.1 9-12.7 11.5-18.7-2.5.7-6 1.9-10.9 4.2-13.3 6.5-16.6 8.8-17.2 9.3l-.3 2.8.2-.2c.1.2 11.3 15.4 20.9 26.5l-.8.7c-2-2.3-4-4.7-6-7.1 7.3 35.4 33.7 78.5 34 79l-.8.6c-.4-.5-41-50.2-42.6-91.6-2.8-3.7-4.8-6.4-5.4-7.2l-20.9 8-.2 2.7c2.9 2.1 17 12.2 25.7 19.8l-.7.8c-8-7-20.7-16.2-24.8-19.1 22.8 58.5 67.6 85.6 68.1 85.9l-.5.9c-.1-.1-2.5-1.5-6.3-4.3-1.3.3-9.3 2.3-19 8.3l-.5-.9c.3-.2.7-.4 1-.6-.2-.2-.4-.3-.6-.5-6.1-4.9-23-6.3-23.1-6.3l.1-1c.7.1 17.3 1.5 23.7 6.5.3.2.5.4.7.6l-.5.5c8-4.7 14.7-6.7 17.1-7.4-13.9-10.5-44.1-37.1-61.4-82l-9.2 6.2-1.8 117.7c17-13.3 44.4-29.4 44.7-29.5l.5.9c-.3.2-28.3 16.6-45.2 29.9l-.9 65.1zm40.6-193.7c1.9 32.1 26.9 69 37.6 83.4-7.8-13.8-25-46.3-30.4-73.7l.3-.1c-2.8-3.4-5.3-6.7-7.5-9.6zM6.6 474.7l-.9-.3c.2-.5 18.7-50.6 48.5-95.6-.8-2.6-1.2-4.3-1.2-4.3l1-.2c0 .1 2.6 11.2 8.5 21.5l.1.1v.1s.1 4.2 2.2 8.4c.3-.1.5-.2.8-.3l.4.9-.6.3c.3.5.6 1 1 1.5.2.2.3.2.4.2 2.8-.3 10-15 16.4-28 4.1-8.4 8.4-17.1 11.9-22.9-4.4 1.7-7.3 3-7.4 3.1l-.4-.9c.2-.1 16.2-7.3 29.6-9.8.1-.2.2-.3.2-.3l.3.2c2.5-.4 5-.7 7.2-.7v1c-2.2 0-4.6.3-7.1.7-2.7 4.4-17.8 28.8-21.7 36.5l-.9-.4c3.7-7.3 17.5-29.8 21.2-35.8-3.3.6-6.7 1.6-10 2.6l.7.4-37 65.9c2.1 0 7.9.1 12.8 1.1 5.3 1 8.3 2.6 8.9 4.8l-1 .3c-.5-1.8-3.2-3.2-7.9-4.1l16.8 19.9 3-61.1c1.9-6.2 6.2-10.2 6.4-10.3l.7.7s-4.3 4-6.1 9.8l-3.1 63.6-10.2 4.1 8.2 2.2-.3 1-11.1-2.9 12.4-5 .1-1.5-.5.4L81 420.3c-3.8-.6-7.8-.8-10.2-.8 2 2.4 14 17.7 7.5 34.8l-.9-.4c6.9-17.9-7.4-33.9-7.6-34.1l.4-.4h-2.3l37.7-67.2c-3.3 1-6.5 2.2-9.2 3.2-3.6 5.7-8.1 15-12.5 23.9-8.6 17.6-14.1 28.3-17.2 28.6-.4 0-.9 0-1.3-.6s-.8-1.2-1.2-1.7c-16 7-28.7 22.8-28.8 23l-.8-.6c.1-.2 13-16.2 29.1-23.3-2-4-2.3-7.8-2.3-8.6-3.3-5.8-5.6-11.9-6.9-16.2-29.4 44.7-47.8 94.3-47.9 94.8zm-13.1-.3l-1-.3c12.1-37.1 33.6-69.3 33.8-69.6l.8.6c-.1.3-21.5 32.4-33.6 69.3zm34.6-.6l-1-.3c11-34 30.5-62.9 30.7-63.2l.8.6c-.1.2-19.6 29.1-30.5 62.9zm-30-.2l-.9-.4c11.2-28.3 41.6-77.1 47.3-86.2-11.3 2.9-20 10.7-20.1 10.8l-.7-.7c.1-.1 9.6-8.5 21.6-11.2.1-.2.2-.2.2-.3l.3.2c.7-.2 1.4-.3 2.2-.4l.1 1c-.7.1-1.4.2-2.1.4-4.1 6.1-36.3 57.5-47.9 86.8zm103.7-24.9l-.9-.5c0-.1 4.9-9.1 13.9-36.5 9-27.5 14.2-36.3 14.2-36.4l.9.5c-.1.1-5.2 8.8-14.1 36.2-9.1 27.5-14 36.6-14 36.7zm6.2-2.4l-.9-.4c6.6-15.7 12.9-28.5 16.7-36l-.9-.2c3.4-18 9.5-32.8 9.6-32.9l.9.4c-.1.1-6.1 14.7-9.5 32.4 2.3-4.5 3.7-7 3.8-7.1l.9.5c-.1.2-9.9 17.9-20.6 43.3zm43.3-46.9l-.9-.5 5.3-8.8.9.5-5.3 8.8zm-75.9-13.3l-.8-.5c5.1-8.1 11.3-18.3 14.8-24-8.3 8.6-21 20.1-21.2 20.2l-.7-.7c.2-.2 17.2-15.5 24.6-24l.8.6c.1 0-10 16.4-17.5 28.4zm75.7-4.2c-.1-.4-1.7-6.3-6.8-9.5-.8-.1-1.3-.1-1.3-.1v-.6c-2.5-1.2-5.8-1.8-9.9-1-14.7 2.8-18.8 3.7-18.9 3.7l-1 .2.3-.6-.6-.8c.5-.4 1.1-.9 1.6-1.3 2.5-5 9.6-18.9 14.6-23.1l.6.8c-4.2 3.6-10.3 14.9-13.4 20.8 18-14.2 23-14.1 23.2-14v1c-.1 0-5.3.1-24.2 15.2-.1.2-.2.5-.3.6 1.9-.4 7-1.4 17.9-3.5 5-1 8.8 0 11.7 1.7 1.6.2 4.2.8 6.2 2.5 2.4 2 4.8 1.2 5.5 1 .3-.7 1.3-3.8-.1-7.8-1.5-4.4-7.7-3.5-7.7-3.5l-.2-1c.1 0 7.1-1 8.8 4.2 1.7 5 0 8.6 0 8.8l-.1.2-.2.1c-.1.1-3.5 1.6-6.7-1.1-1.1-.9-2.4-1.5-3.6-1.8 4.2 3.6 5.6 8.7 5.6 8.8l-1 .1zM28 365.8l-39.7-20.4.5-.9 39.7 20.4-.5.9zm40-19.2l-.2-1c.2 0 15.2-3.2 30.3-1.6l-.1 1c-14.9-1.5-29.9 1.6-30 1.6zm-5.1-6.9l-.2-1c11.9-2.7 23.4-3 27.9-3h.1c-6.7-3.6-18-5.8-18.1-5.8l.2-1c.5.1 13.5 2.6 20 6.9l1.5 1-1.8-.1c-.1 0-14.5-.5-29.6 3zm303-10.5l-.2-.1-82.1-47.5.5-.9 81.8 47.3 92-47.8.5.9-92.5 48.1zM324.1 273l-.4-.9 122.2-60.7.4.9L324.1 273zm275-121.8l-.5-.9c13.6-8.4 35.3-5.3 37.6-4.9 13-8.3 31.1-5.4 32.7-5.1 1.5-.4 18.3-5.1 28.9-12.1 9.8-6.4 18.8-7.9 21.2-8.2-3.2-11.3.2-14 .3-14.1l.6.8s-3.1 2.6.2 13.6l.2.6h-.6c-.1 0-10.2.9-21.3 8.1-11.3 7.3-29.2 12.2-29.3 12.3h-.2c-.2 0-19-3.5-32.2 5l-.2.1h-.2c-.4 0-23.3-3.8-37.2 4.8zm194.3-7l-11.4-5.4-12.1-9.8-9.8.3-8.2-2.8c-4.4 3.5-20.5.9-21.2.7l.2-1c4.8.8 17.9 2.2 20.7-.8l.8-8.9-8.8-6.6.6-.8 9.3 7-.8 9.5 7.8 2.7 10-.3 12.3 10 11.3 5.4-.7.8zM504 91l-.9-.5c.2-.4 5.7-9.5 12.8-14.9l-25.5-.4v-1l28.7.4-1.3.9c-7.5 5-13.7 15.4-13.8 15.5zm-46.6-42.5l-.7-.7c.1-.1 6.8-6.5 14.2-13.2-20.1-3.2-40.5-4.1-40.7-4.1v-1c.2 0 21 .9 41.4 4.2-.2-.5-.4-1.4-.1-2.6.5-2.5 2.7-5 6.5-7.5l.5.8c-8.2 5.3-5.9 9.1-5.8 9.2v.1c3.5.2 20.3 1.2 34.8 6.2l-.3.9c-15.3-5.3-33.1-6.1-35.1-6.2-7.5 7.1-14.6 13.9-14.7 13.9zm-80.2-38.4c-3.6-10.4-4.6-20.7-4.6-20.8v-.5l6.4-.7-.9 21.8-.9.2zm-3.5-20.4c.2 1.9 1.1 9.4 3.6 17.5l.7-17.9-4.3.4z"/><path d="M566.8-2.8S611-8.2 685.3 17.6c74.3 25.8 108.3 49.9 108.3 49.9l-2-76-224.8 5.7z" clip-path="url(#SVGID_16_)" fill="#50420f"/><path class="st31" d="M794.1 68.4l-.8-.6c-.3-.2-34.9-24.3-108.2-49.8C646.8 4.7 616.7-.1 598.2-1.8c-5.9-.5-11.1-.8-15.4-.9l-16 .4-.1-1c.1 0 5.7-.7 16-.4L792.1-9v.5l2 76.9zM595.4-3.1c.9.1 1.9.2 2.8.2C616.8-1.2 647 3.7 685.4 17c67.3 23.4 102 45.6 107.6 49.4l-2-74.5-195.6 5z"/></g><path class="st3" d="M102.5 283.7s2.1 2.6 8 3.8c0 0 2.8-12.5 18.4-20.2 0 0 3.7 4.3 11.9 2.2 8.2-2.2 12.9-5.1 15.5-7.1 2.6-2 4.3-.9 7.5-4.9 3.1-3.9 5.9-7.6 5.9-7.6L162 238l-11.8-4.6-14.7 1.1-11.6 8.8-19 4.8-13.1 2.3 5.7 24.6 5 8.7z"/><path class="st1" d="M110.9 288.2l-.5-.1c-6.1-1.3-8.2-3.9-8.3-4v-.1l-5.2-8.8-5.8-25.1 13.6-2.4 18.8-4.8 11.7-8.8h.1l14.9-1.1 12.1 4.7 7.9 12.3-.2.3s-2.8 3.7-5.9 7.6c-2 2.6-3.5 3.1-5 3.6-.8.3-1.7.6-2.6 1.3-4.2 3.1-9.3 5.5-15.7 7.2-7.3 1.9-11.1-1.1-12.1-2-14.9 7.5-17.7 19.6-17.8 19.7v.5zm-8-4.8c.2.2 2.2 2.4 7.2 3.5.3-1 1.2-3.7 3.3-6.9 2.4-3.8 7.1-9.1 15.2-13.1l.3-.2.3.3c.1.2 3.6 4 11.4 2 6.3-1.6 11.3-3.9 15.3-7 1.1-.8 2-1.1 2.9-1.5 1.4-.5 2.7-1 4.5-3.3 2.6-3.3 5-6.4 5.7-7.3l-7.4-11.5-11.6-4.5-14.5 1.1-11.7 8.8-19 4.8-12.5 2.4 5.5 24 5.1 8.4z"/><path class="st28" d="M148.4 236.1s1.9 2.4 6 1.7c0 0 1.4 3 5.5 2.7 0 0-.3 4.2 4.1 5 0 0-1.7 3.1 2.3 5.1 0 0-1.8 2.8.2 5.2 2 2.4 5.7 2.4 7.6-.7 1.8-3.1-.4-5.8-.4-5.8s4.7-3.5 2.7-9.1c0 0 1.5-15-4.9-20.4 0 0-1.8-9.5-13.8-13 0 0-2.3-6.2-9.6-2h-4.7s-1-4-6.2-1.6c0 0-2.7-.6-3.5 2.4 0 0-4.7-.5-5 3.9 0 0-6.1-2.6-7.7 5.2 0 0-6.2.6-4.7 7.5 0 0-4.5 2.3-.8 8.2 0 0-3.8 3.4-1.1 7.8 0 0-4.5-.8-7.4 3.5 0 0-2-3.5-5.8-1.1 0 0-5.4-1.4-6.5 3.5 0 0-3.6-.2-3.6 3.5s4.6 4.8 7.1 2.8c0 0 4.8 1.8 8.1-.7 0 0 4.4 1.4 6.7-1.8 0 0 5.4 2.5 9.5-1.8 0 0 5.4 2.1 9.2-4.9 0 0 3.9-1.3 3.1-5.8 0 0 1.9 1.6 4.5-.4 0 .1 3.8 3.9 9.1 1.1z"/><path class="st1" d="M170.1 258c-1.5 0-2.9-.7-4-1.9-1.6-1.9-1.1-4.1-.5-5.4-1.2-.7-1.9-1.6-2.3-2.6-.3-.9-.2-1.8 0-2.3-3.3-.9-3.8-3.6-3.9-4.8-3.3 0-4.8-1.9-5.3-2.7-3.2.4-5.1-1-5.8-1.6-4.5 2.2-7.9-.1-9-1-1.7 1.1-3 1-3.9.7.2 3.6-2.6 5-3.4 5.3-3.4 6.1-8.2 5.4-9.4 5-3.6 3.6-8.1 2.3-9.5 1.8-2.2 2.7-5.7 2-6.7 1.8-3 2.2-7 1.1-8.1.7-1.5 1-3.7 1.2-5.4.4-1.5-.7-2.4-2.1-2.4-3.8 0-1.2.4-2.2 1.1-2.9.9-.8 2-1 2.6-1 .4-1.3 1.1-2.3 2.1-2.9 1.8-1.1 4-.8 4.7-.6 1.3-.7 2.5-1 3.6-.7 1.1.3 1.9 1 2.3 1.5 2.2-2.8 5-3.2 6.5-3.2-1.6-3.5.5-6.4 1.3-7.3-1.2-2.1-1.6-4-1.2-5.6.4-1.5 1.5-2.4 2-2.8-.4-2.2-.1-4 .9-5.4 1.2-1.7 3.1-2.2 4-2.3.6-2.5 1.7-4.2 3.3-5.1 1.7-.9 3.4-.6 4.3-.4.2-1.1.7-2 1.4-2.6 1.2-1 2.8-1.2 3.6-1.2.8-2.3 2.8-2.6 3.8-2.5 1.9-.9 3.6-1 4.8-.4 1.1.5 1.6 1.5 1.8 2h4.2c2.5-1.4 4.8-1.8 6.7-1.2 2.1.7 3.1 2.6 3.4 3.2 11 3.4 13.5 11.8 13.9 13.2 6.2 5.4 5.1 19.1 5 20.6 1.7 4.8-1.4 8.2-2.5 9.2.6.9 1.8 3.3.2 6-.9 1.6-2.4 2.5-4 2.7 0 .1-.1.1-.2.1zm-9.7-18v.6c0 .2-.2 3.8 3.7 4.4l.7.1-.3.6s-.5 1-.2 2.2c.3.9 1 1.6 2.2 2.2l.5.2-.3.5c-.1.1-1.6 2.6.2 4.7.9 1.1 2.2 1.6 3.5 1.5 1.3-.1 2.5-.9 3.2-2.2 1.6-2.8-.3-5.1-.4-5.2l-.3-.4.4-.3c.2-.1 4.4-3.4 2.5-8.5v-.2c0-.1 1.4-14.8-4.8-20l-.1-.1v-.2c0-.1-1.9-9.2-13.4-12.7l-.2-.1-.1-.2s-.8-2.1-2.9-2.9c-1.6-.6-3.6-.2-5.9 1.2l-.1.1h-5.2l-.1-.4s-.3-1.2-1.4-1.7c-1-.5-2.4-.3-4.1.5l-.2.1h-.2c-.2 0-2.3-.4-2.9 2.1l-.1.4h-.4s-2-.2-3.3.9c-.7.6-1.1 1.4-1.1 2.5v.7l-.6-.3s-2.2-.9-4.1.1c-1.4.8-2.4 2.3-2.8 4.7l-.1.4h-.4s-2.3.2-3.6 2c-.9 1.2-1.1 2.9-.6 4.9l.1.4-.3.2s-1.4.7-1.8 2.3c-.4 1.5 0 3.2 1.3 5.2l.2.4-.3.3c-.1.1-3.4 3.2-1 7.2l.6.9-1.1-.2c-.2 0-4.3-.6-6.9 3.3l-.4.7-.4-.7s-.7-1.3-2.1-1.6c-.9-.2-1.9 0-3 .7l-.2.1-.2-.1s-2.4-.6-4.1.5c-.9.5-1.5 1.4-1.8 2.6l-.1.4h-.4s-1.4-.1-2.3.8c-.5.5-.8 1.2-.8 2.2 0 1.7 1.1 2.5 1.8 2.9 1.4.7 3.3.5 4.5-.4l.2-.2.3.1s4.6 1.7 7.6-.6l.2-.2.3.1c.2.1 4.1 1.3 6.1-1.6l.2-.3.4.2c.2.1 5.1 2.3 8.9-1.7l.2-.2.3.1c.2.1 5.1 1.8 8.6-4.6l.1-.2.2-.1c.1 0 3.5-1.2 2.8-5.2l-.3-1.4 1.1 1c.1.1 1.6 1.3 3.9-.4l.3-.3.3.3c.1.1 3.6 3.5 8.5.9l.4-.2.3.3c.1.1 1.8 2.2 5.5 1.5l.4-.1.2.3c.1.1 1.3 2.7 5 2.4v-.2z"/><path class="st28" d="M244.9 91.8s4.4 1.4 6.7-1.8c0 0 5.4 2.5 9.5-1.8 0 0 5.4 2.1 9.2-4.9 0 0 3.9-1.3 3.1-5.8 0 0 1.9 1.6 4.5-.4 0 0 3.8 3.8 9.1 1 0 0 1.9 2.4 6 1.7 0 0 1.4 3 5.5 2.7 0 0-.3 4.2 4.1 5 0 0-1.7 3.1 2.3 5.1 0 0-1.8 2.8.2 5.2 2 2.4 5.7 2.4 7.6-.7 1.8-3.1-.4-5.8-.4-5.8s4.7-3.5 2.7-9.1c0 0 1.5-15-4.9-20.4 0 0-1.8-9.5-13.8-13 0 0-2.3-6.2-9.6-2H282s-1-4-6.2-1.6c0 0-2.7-.6-3.5 2.4 0 0-4.7-.5-5 3.9 0 0-6.1-2.6-7.7 5.2 0 0-6.2.6-4.7 7.5 0 0-4.5 2.3-.8 8.2 0 0-3.8 3.4-1.1 7.8 0 0-4.5-.8-7.4 3.5 0 0-5.3.4-4.4 5.9 0 .1 1.6 1.5 3.7 2.2z"/><g><defs><path id="SVGID_17_" d="M0 0h749.9v428H0z"/></defs><clipPath id="SVGID_18_"><use xlink:href="#SVGID_17_" overflow="visible"/></clipPath><path d="M36 469.3l-1-.3c10.4-32.9 30.1-58.5 30.3-58.7l.8.6c-.1.2-19.7 25.7-30.1 58.4zm11.4-10.5l-.9-.4c.1-.2 10.9-23.2 19.3-44.5l.9.4c-8.4 21.3-19.2 44.3-19.3 44.5zm-14.7-79.6l-.4-.9c.6-.3 15-6.5 22.7-7l.1 1c-7.7.4-22.3 6.8-22.4 6.9zM221 333.4l-1-.2c2.2-10.5-.9-15.7-.9-15.8l.9-.5c.1.2 2.1 3.6 1.8 10.5 1-2.5 2.3-5.1 4-6.6l.6.8c-3.4 3-5.3 11.6-5.4 11.8zm17.5-5.2l-1-.2c2.1-11.9 1.4-15.5 1.4-15.5l1-.2c0 .1.7 3.7-1.4 15.9zm-109.9-60c-2.1-2.6-3.4-5.5-3.5-5.6l.9-.4s1.3 2.9 3.3 5.4l-.7.6zm11.3-2.7c-.1-.8-.4-1.4-1-1.7-1.2-.7-3-.2-3-.2l-.3-1c.1 0 2.3-.7 3.8.3.8.5 1.3 1.3 1.4 2.4l-.9.2zm4.3-.1l-1.4-1.3v-.2c-.1-1-1.8-2-2.4-2.3l.4-.9c.3.1 2.6 1.3 2.9 2.9l1.1 1-.6.8zm4.9-1.5h-.3c-1-.1-1.8-.7-2.5-1.9-.9-1.5-1.8-1.8-1.8-1.8l.3-.9c.1 0 1.2.4 2.3 2.2.5.9 1.1 1.3 1.8 1.4.7.1 1.5-.3 2.3-1.2.5-.5 1-1 1.5-1.6 1.8-2 3.6-4 5.7-4.8l.4.9c-.1 0-.2.1-.3.1.7.7 1.7 1.8 1.7 3.3h-1c0-1.3-1-2.4-1.6-2.8-1.4.9-2.7 2.4-4 3.8-.5.6-1 1.1-1.5 1.6-1.1 1.2-2.1 1.7-3 1.7zm-37.6-1.4l-1-.1c0-.4.9-9.4 5.5-13.7l.7.7c-4.4 4.1-5.2 13-5.2 13.1zm10.5-4.2l-1-.1c0-.3.7-8 8.1-13.8l.6.8c-7 5.5-7.7 13-7.7 13.1zm40.8-.1c-1.3-2.9-4.2-3.1-4.2-3.1l.1-1c.1 0 3.5.3 5.1 3.7l-1 .4zm-6.1-5.6l-1-.1c.4-2.8-.5-4.9-2.7-6.3-1.7-1.1-3.5-1.4-3.5-1.4l.1-1c.2 0 3.8.6 5.8 3.3 1.2 1.5 1.6 3.3 1.3 5.5zm-4-.8c-.1-.5-.2-1-.3-1.4l-1.4.6-.4-.9 1.4-.6c-1.4-2.1-3.9-2-4-2v-1c.1 0 5.2-.2 5.9 5.2l-1.2.1zm82.8-53.5l-.8-.7c.1-.1 10.1-11.7 20.5-20 1-.8 1.9-1.5 2.8-2.1-12.8-1.6-21.3 3-26.3 7.3-5.6 4.8-7.9 10.2-8 10.2l-.9-.4c.1-.2 2.5-5.6 8.2-10.6 5.3-4.5 14.4-9.5 28.2-7.4 10.3-6.6 19.7-5.9 30.5 2.1-.2-1.7-1.5-5.6-7-11.2l-.3-.3.3-.4c0-.1 4.4-5.4 7.5-10.7-4.7-.1-27.6-.9-38.8-4.6l.3-.9c12.4 4.1 39.1 4.5 39.4 4.5h.8l-.4.7c-2.7 4.9-6.6 9.9-7.7 11.3 7.7 7.8 7.1 12.5 7.1 12.7l-.1.8-.7-.5c-12.1-9.4-22.4-9.4-34.2.2-10.4 8.4-20.3 19.9-20.4 20zm73.2-98.3c-1.5 0-2.9-.7-4-1.9-1.6-1.9-1.1-4.1-.5-5.4-1.2-.7-1.9-1.6-2.3-2.6-.3-.9-.2-1.8 0-2.3-3.3-.9-3.8-3.6-3.9-4.8h-.1c-3.2 0-4.7-1.9-5.2-2.7-3.3.4-5.1-1-5.8-1.6-4.5 2.2-7.9-.1-9-1-1.7 1.1-3 1-3.9.7.2 3.6-2.6 5-3.4 5.3-3.4 6.1-8.2 5.4-9.4 5-3.6 3.6-8.1 2.3-9.5 1.8-2.5 3.1-6.9 1.7-7 1.7-2.2-.7-3.8-2.1-3.9-2.2l-.1-.1v-.2c-.3-1.8 0-3.2.9-4.4 1.2-1.5 3-1.9 3.7-2 2.2-3.2 5.3-3.6 6.8-3.6-1.6-3.5.5-6.4 1.3-7.3-1.2-2.1-1.6-4-1.2-5.6.4-1.5 1.5-2.4 2-2.8-.4-2.2-.1-4 .9-5.4 1.2-1.7 3.1-2.2 4-2.3.6-2.5 1.7-4.2 3.3-5.1 1.7-.9 3.4-.6 4.3-.4.2-1.1.7-2 1.4-2.6 1.2-1 2.9-1.2 3.6-1.2.8-2.3 2.8-2.6 3.8-2.5 1.9-.9 3.6-1 4.8-.4 1.1.5 1.6 1.5 1.8 2h4.2c2.5-1.4 4.8-1.8 6.7-1.2 2.1.7 3.1 2.6 3.4 3.2 11 3.4 13.5 11.8 13.9 13.2 6.2 5.4 5.1 19.1 5 20.6 1.7 4.8-1.4 8.2-2.5 9.2.6.9 1.8 3.3.2 6-.9 1.6-2.4 2.5-4 2.7 0 .2-.2.2-.3.2zM299 81.9v.6c0 .2-.2 3.8 3.7 4.4l.7.1-.3.6s-.5 1-.2 2.2c.3.9 1 1.6 2.2 2.2l.5.2-.3.5c-.1.1-1.6 2.6.2 4.7.9 1.1 2.2 1.6 3.5 1.5 1.3-.1 2.5-.9 3.2-2.2 1.6-2.8-.3-5.1-.4-5.2l-.3-.4.4-.3c.2-.1 4.4-3.4 2.5-8.5v-.2c0-.1 1.4-14.8-4.8-20l-.1-.1v-.2c0-.1-1.9-9.2-13.4-12.7l-.2-.1-.1-.2s-.8-2.1-2.9-2.9c-1.6-.6-3.6-.2-5.9 1.2l-.1.1h-5.2l-.1-.4s-.3-1.2-1.4-1.7c-1-.5-2.4-.3-4.1.5l-.2.1h-.2c-.2 0-2.3-.4-2.9 2.1l-.1.4h-.4s-2-.2-3.3.9c-.7.6-1.1 1.4-1.1 2.5v.7l-.9-.3s-2.2-.9-4.1.1c-1.4.8-2.4 2.4-2.9 4.7l-.1.4h-.4s-2.3.2-3.6 2c-.9 1.2-1.1 2.9-.6 4.9l.1.4-.3.2s-1.4.7-1.8 2.3c-.4 1.5 0 3.2 1.3 5.2l.2.4-.3.3c-.1.1-3.4 3.2-1 7.2l.5.9-1.1-.2c-.2 0-4.3-.6-6.9 3.3l-.1.2h-.2s-2.1.2-3.2 1.7c-.7.9-.9 2-.7 3.4.4.3 1.7 1.3 3.4 1.9.2.1 4.1 1.3 6.1-1.6l.2-.3.4.2c.2.1 5.1 2.3 8.9-1.7l.2-.2.3.1c.2.1 5.1 1.8 8.6-4.6l.1-.2.2-.1c.1 0 3.5-1.2 2.8-5.2l-.3-1.4 1.1 1c.1.1 1.6 1.3 3.9-.4l.3-.3.3.3c.1.1 3.6 3.5 8.5.9l.4-.2.3.3c.1.1 1.8 2.2 5.5 1.5l.4-.1.2.3c.1.1 1.3 2.7 5 2.4l.4-.1zm238.4 14.3l-.7-.7c.3-.3 8.3-8.4 31.3-9.9l18.3-13 .6.8-12.3 8.8 20.9 6c5.7-7.2 16.7-12.3 17.2-12.5l.4.9c-.1.1-11.5 5.2-17 12.4l-.2.3-22.3-6.4-5.1 3.6h-.1c-22.9 1.5-30.9 9.6-31 9.7z" clip-path="url(#SVGID_18_)" fill="#1b150e"/></g><path class="st1" d="M353.4 208.9c-.2 0-.4-.1-.6-.2-.5-.6.1-1.5.8-2.2.2-.2 1-.9 1.7-.9.3 0 .4.1.5.2.1.1.2.3.2.5 0 .7-.8 1.5-1 1.7-.5.4-1.1.9-1.6.9zm1.4-2.2c-.2.1-.3.2-.5.4s-.3.4-.4.5c.2-.1.3-.2.5-.4.1-.2.3-.3.4-.5zM448.3 170c-.5 0-.7-.5-.7-1.4 0-.9.3-1.4.7-1.4s.7.5.7 1.4c.1.9-.2 1.4-.7 1.4z"/><g><defs><path id="SVGID_19_" d="M0 0h749.9v428H0z"/></defs><clipPath id="SVGID_20_"><use xlink:href="#SVGID_19_" overflow="visible"/></clipPath><path d="M423.9 201.2c-.1-.1-2.5-1.9-5.4-6.1-.5 1.4-1 3.1-1.5 5.3l-1-.2c.6-2.7 1.2-4.7 1.8-6.2-2-2.9-2.9-2.8-2.9-2.8l-.5-.8c.1-.1.4-.2.8-.1.9.2 1.9 1 3 2.7 1.3-2.7 2.3-3.3 2.5-3.4l.4.9-.1-.5.2.5s-1 .6-2.3 3.4l.1.1c2.8 4.4 5.4 6.3 5.4 6.3l-.5.9zm-10.8-.4c-.3 0-1.3-.1-2.2-.9-1-.9-1.5-2.5-1.5-4.6 0-2 .5-3.5 1.4-4.4.9-.9 2-.9 2-.9v1s-.7 0-1.3.6c-.7.7-1.1 2-1.1 3.7 0 1.8.4 3.1 1.2 3.8.7.7 1.5.7 1.5.7v1c.1 0 .1 0 0 0zm15.1-.3c-.3 0-1.3-.1-2.2-.9-1-.9-1.5-2.4-1.5-4.4 0-1.9.5-3.4 1.4-4.2.9-.9 2-.9 2-.9v1s-.7 0-1.3.6c-.7.7-1.1 1.9-1.1 3.5 0 1.7.4 3 1.2 3.7.7.7 1.5.6 1.5.6v1zm-24.6 0l-1-.2v-9.7h1v7.1l2.9-7.2 1 .2v9.6h-1v-7l-2.9 7.2z" clip-path="url(#SVGID_20_)" fill="#d04119"/><path clip-path="url(#SVGID_20_)" fill="#1b150e" d="M526.5 22.6l-.5-.9 20.7-14.6.3-4.1 15.9-6 .4.9L548 3.7l-.3 3.9z"/></g><path class="st6" d="M706.8 240.8h-1l.2-5.9h1l-.2 5.9zm1.8-4.2l-.1-1c.1 0 2.6-.4 3.1-3l1 .2c-.6 2.7-2.9 3.7-4 3.8zm-4.4 0c-3-.6-4-3.6-4-3.7l.9-.3s.9 2.6 3.3 3l-.2 1zm10.3-4.6l-5.8-.1v-1l5.8.1v1zm-7.6-.2h-1v-1.3h1v1.3zm-2.9 0h-8.4v-1h8.4v1zm7.7-1.8c-.2-2.7-3-3.4-3.1-3.4l.2-1c1.3.3 3.7 1.5 3.9 4.3l-1 .1zm-10.1-.1l-.9-.3c0-.1 1-2.7 4.2-4l.4.9c-2.9 1.1-3.7 3.4-3.7 3.4zm5.9-1.8h-1l.3-6h1l-.3 6z"/><path class="st1" d="M100.8 292.3c-.9-26.5-7.3-37.8-10.5-40.1l.6-.8c.4.3 9.8 7.2 10.9 40.9h-1zm-35-21.3l-11.3-.1v-1l11.3.1v1zm5.9-5.5H60v-1h11.7v1zM66 180.8l-.9-.4c8.1-19.4 18.9-24.5 19.4-24.7l.4.9c-.2.1-11 5.2-18.9 24.2zm-8.5 0l-.9-.5c9.9-16.9 18.5-22.7 18.9-23l.5.8c0 .1-8.7 6-18.5 22.7zm472.2-116l-29.8-.4v-1l29.2.4 1.9-3.9.9.4-2.2 4.5z"/><g><defs><path id="SVGID_21_" d="M0 0h749.9v428H0z"/></defs><clipPath id="SVGID_22_"><use xlink:href="#SVGID_21_" overflow="visible"/></clipPath><path d="M9.9 169.5c-.3 0-.5-.1-.6-.3-1.4-1.9-.7-3.8-.1-4.6l.8.6c0 .1-1.1 1.5.1 3.2 2.1-.3 14.4-13.8 25.1-26.5l.8.6c-3.9 4.6-23 27-26.1 27zm16-22.6c-.5 0-.9-.1-1.3-.4-.4-.3-.7-.8-.8-1.5-.4-3.8 7.1-12.4 7.4-12.7l.8.7c-2.1 2.4-7.4 9.2-7.2 12 0 .3.2.6.4.8.3.2.6.3 1 .2 2.6-.5 6.8-6.4 8.2-8.7l.8.5c-.2.3-5.4 8.5-8.9 9.2-.1-.1-.2-.1-.4-.1z" clip-path="url(#SVGID_22_)" fill="#cbad70"/><path d="M181.9 386.7l9.7-20 .9.4-9 18.5 14.1-.1 4.7-14.3 1 .3-4.9 15-16.5.2zM-26.5 209.3l-.7-.7c12.3-10.9 31.5-38.5 31.7-38.8l.8.6c-.1.2-19.4 27.9-31.8 38.9zm22.2-38c-.3 0-.6-.1-.9-.2-.6-.3-1-.7-1.1-1.4-.6-3.2 6.4-10.5 7.2-11.3l.7.7c-2.1 2.1-7.3 8.1-6.9 10.4.1.3.2.5.5.6 2.4 1.1 9.1-6.8 12.7-12l.8.6c-.8 1.4-8.8 12.6-13 12.6zM56.6 136c-.2 0-.4 0-.6-.1-1-.2-1.3-.7-1.3-.8l.9-.5s.2.2.7.3c1.3.2 5.4-.5 16.3-10.6l.7.7c-9.6 8.9-14.4 11-16.7 11z" clip-path="url(#SVGID_22_)" fill="#1b150e"/></g><path class="st6" d="M698.2 284.4l-1-.2 5.6-25.2 1 .2-5.6 25.2zm4.8-6.7l-1-.2 3.8-16.4 1 .2-3.8 16.4z"/><path class="st1" d="M357.1 205.8c-3.7-3.2-8.1-1-8.2-.9l-.5-.9c.1 0 5.1-2.7 9.4 1l-.7.8zm97.6-38.6c-2.7-2.6-8.4-1.4-8.5-1.4l-.2-1c.3-.1 6.3-1.3 9.4 1.7l-.7.7z"/><path d="M487.5 221.7c-2-1.5-3.7-1.2-3.8-1.2l-.4-.9c5-4.4 1.5-9.3 1.4-9.6l.8-.6c0 .1 3.7 5.2-.6 10 .9.1 2 .4 3.3 1.4l-.7.9z" fill="#a57835"/><path class="st1" d="M366.5 332.8h-1v-12h1v12zm76-138.1l-.9-.4c1.4-3 4.1-3.7 4.3-3.7l.2 1c-.1 0-2.4.5-3.6 3.1zm-253-48.2l-.7-.7 1.1-1.3.7.7-1.1 1.3z"/><path class="st6" d="M295.8 103.9s0-1.3-1.6-2.1"/><path class="st1" d="M334.3 289.8l-.2-.1-25.5-15.1.9-.4c.2-.1 5.6-2.3 11.8-2.3 5.8 0 12.7-.4 13.5-.5.6-.2 5.2-2 10.6-4.8 3.8-2 8.8-4.9 14.1-8.1 3-1.8 6.2-3.7 9.4-5.5 2.7-1.6 4.9-3.1 6.9-4.4 4.3-2.9 7.4-5 12.6-5.6l1.8-.2c6.1-.7 9.8-1.1 18.9-5.7 7.8-4 16.6-7.4 24.3-10.4 2.2-.8 4.3-1.7 6.2-2.4 7.6-3.1 17.6-3.2 19.7-3.2.7-2 4.5-12.1 9.7-13.6l1.7-.5c7.7-2.2 11.2-3.2 16.7-.2 4.3 2.4 5.6 5.8 6.7 8.5.4 1 .7 1.9 1.2 2.6 1.8 2.9.5 7.1-3.2 10.8-3.3 3.3-3.5 3.9-3 7.8.6 4.2-.7 7.2-9.8 14.1-9.3 6.9-44.5 26.5-61 26.5-.6 0-1.2 0-1.7-.1-15.1-1.5-20.7-2.1-22.6-3.8-1.3 1.2-5.6 5-12.9 7.4-8.2 2.7-31.9 2.6-34.3 2.6-1 .7-7.5 5-12.2 6.3l-.3.3zm-23.5-15l23.6 13.9c4.9-1.5 11.8-6.2 11.9-6.2l.1-.1h.2c.3 0 25.8.2 34.1-2.5 8.3-2.8 12.8-7.5 12.9-7.5l.4-.4.4.4c1.3 1.7 7.4 2.3 22.3 3.8 15.3 1.5 52.5-19.1 62-26.3 8.8-6.6 10-9.3 9.4-13.1-.6-4.2-.2-5.2 3.3-8.6 3.4-3.4 4.6-7.1 3-9.6-.5-.8-.8-1.7-1.2-2.7-1.1-2.7-2.2-5.8-6.2-8-5.1-2.8-8.3-1.9-15.9.3l-1.7.5c-5.2 1.5-9.1 13.2-9.2 13.3l-.1.4h-.4c-.1 0-11.3-.2-19.6 3.1-1.9.8-4 1.6-6.2 2.4-7.7 3-16.4 6.4-24.2 10.3-9.3 4.7-13 5.1-19.3 5.8l-1.8.2c-5 .6-8 2.6-12.2 5.5-1.9 1.3-4.2 2.8-6.9 4.4-3.2 1.8-6.3 3.7-9.4 5.5-5.3 3.1-10.3 6.1-14.1 8.1-5.9 3.1-10.8 4.9-10.8 4.9h-.1c-.1 0-7.5.5-13.6.5-4.7-.2-8.9 1-10.7 1.7zm379.2-1.6c-2.9-1.2-3.4-4.1-3.4-4.2l1-.2c0 .1.5 2.4 2.8 3.5l-.4.9zm.7-2l-.7-.7 1.5-1.5.7.7-1.5 1.5zM678 259.6l-.6-.8 2.7-1.9.6.8-2.7 1.9zm-519.9-.5l-.6-.8.9-.6.6.8-.9.6zm42.2-105.3l-1-.2c.1-.4.1-.8-.1-1.1l-1.1.8-.6-.8 1-.7c-.7-.4-1.7-.4-1.7-.4v-1c.1 0 2 0 3 1.2.5.5.7 1.3.5 2.2zm94.2-48.9l-.4-.9 1.2-.5c-.1-.4-.5-.8-1.2-1.2l.5-.9c1.8.9 1.8 2.5 1.8 2.5h-.8l.2.4-1.3.6z"/><path class="st6" d="M599.2 329.6l-2.5-5.4.9-.4 2.5 5.4-.9.4zm-4.6-2.9c-2.3 0-3.9-1.6-4-1.7l.7-.7s1.9 1.9 4.3 1.3l.3 1c-.4.1-.8.1-1.3.1zm-7.3-1.3l-.4-.9 6.3-3 .4.9-6.3 3zm12.5-.7l-.5-.8c.1-.1 2.2-1.5 1.4-4l1-.3c.7 2.6-.9 4.4-1.9 5.1zm-10.2-2.9c0-.1-.3-2.9 2.1-5.4l.7.7c-2.1 2.2-1.8 4.5-1.8 4.6l-1 .1zm5.7-.3l-.6-1.2.9-.4.6 1.2-.9.4zm2.5-1.2l-.4-.9 5.9-2.7.4.9-5.9 2.7zm-3.6-2.4l-2.4-5.5.9-.4 2.4 5.5-.9.4zm5.5-.6c-1.4-2.4-4.3-1.7-4.3-1.7l-.2-1c1.3-.3 4-.2 5.4 2.2l-.9.5z"/><path class="st3" d="M507.3 235.6l-14.5-6.4.4-.9 14.5 6.4-.4.9zm3.4-6.5l-14.2-6.4.4-.9 14.2 6.4-.4.9zm-49.6-14.2l-13-5.9.4-.9 13 5.9-.4.9zm3.1-5.7l-13.2-6.4.4-.9 13.2 6.4-.4.9zm26.2-1.4l-.9-.5 8.5-16.8.9.5-8.5 16.8zm-6-3.1l-.9-.5 8.5-16.6.9.5-8.5 16.6z"/></g></svg>
