<svg xmlns="http://www.w3.org/2000/svg" viewBox="0 0 750 428"><defs><clipPath id="clippath"><path class="cls-1" d="M0-.03h750v428.07H0z"/></clipPath><clipPath id="clippath-1"><path class="cls-1" d="M0-.03h750v428.07H0z"/></clipPath><clipPath id="clippath-2"><path class="cls-1" d="M0-.03h750v428.07H0z"/></clipPath><clipPath id="clippath-3"><path class="cls-1" d="M0-.03h750v428.07H0z"/></clipPath><clipPath id="clippath-4"><path class="cls-1" d="M0-.03h750v428.07H0z"/></clipPath><clipPath id="clippath-5"><path class="cls-1" d="M0-.03h750v428.07H0z"/></clipPath><clipPath id="clippath-6"><path class="cls-1" d="M0-.03h750v428.07H0z"/></clipPath><clipPath id="clippath-7"><path class="cls-1" d="M0-.03h750v428.07H0z"/></clipPath><clipPath id="clippath-8"><path class="cls-1" d="M0-.03h750v428.07H0z"/></clipPath><clipPath id="clippath-9"><path class="cls-1" d="M0-.03h750v428.07H0z"/></clipPath><clipPath id="clippath-10"><path class="cls-1" d="M0-.03h750v428.07H0z"/></clipPath><clipPath id="clippath-11"><path class="cls-1" d="M0-.03h750v428.07H0z"/></clipPath><clipPath id="clippath-12"><path class="cls-1" d="M0-.03h750v428.07H0z"/></clipPath><clipPath id="clippath-13"><path class="cls-1" d="M0-.03h750v428.07H0z"/></clipPath><style>.cls-1,.cls-10,.cls-11,.cls-12,.cls-14,.cls-17,.cls-4,.cls-9{fill:none}.cls-20{fill:#7f5121}.cls-23{fill:#90551d}.cls-25{fill:#af601d}.cls-28{fill:#434b71}.cls-32{fill:#48100f}.cls-4{stroke-width:1px}.cls-4,.cls-9{stroke:#48100f}.cls-17{stroke:#e88237}.cls-10{stroke:#86869e}.cls-11{stroke:#90551d}.cls-12{stroke:#000}.cls-14{stroke:#422624}</style></defs><g style="clip-path:url(#clippath)"><path style="fill:#e88237" d="M-4.84-17.64V432.9h765.23V-17.64H-4.84z"/><path style="stroke:#424047;fill:none" d="M-4.84-17.64V432.9h765.23V-17.64H-4.84z"/><path style="fill:#be3c22" d="m467.67-16.35 5.55 452.21 305.25 4.24-1.77-457.85-309.03 1.4z"/><path class="cls-17" d="m467.67-16.35 5.55 452.21 305.25 4.24-1.77-457.85-309.03 1.4z"/><path d="m482.39 198.42 27.81 34.02m-11.08-26.67 18.43 23.83m-32.71-20.31 18.43 23.83m3.51-29.05 18.63 23.98m-18.72-33.62 28 34.18m-12.04-25.56 18.63 23.98m-9.21-23.6 18.63 23.98m-14.38-27.56 18.63 23.98m-13.46-25.43 18.63 23.98m-10.41-23.98 18.63 23.98m-84.49 197.99 10.8 13.04m-9.66-23.25 18.63 21.41m-11.25-27.65 28 34.18m-18.92-34.18 18.82 24.14m-2.01-36.28 18.82 24.14m-9.31-24.13 18.82 24.14m-36.27-10.22 14.43 18.12m-8.65-24.06 14.36 17.64M469.35 52.42l11.91 11.91m-10.4-17.95 11.91 11.91m-9.07-17.95 11.91 11.91m-8.7-17.95 11.91 11.91m-9.07-17.95 17.03 16.41m-12.87-20.91 17.03 16.41M491 22.45l17.03 16.41m-6.91-16.41 17.03 16.41" style="stroke:#e88237;stroke-width:.5px;fill:none"/><path class="cls-17" d="M467.67 5.62h74.54m-74.54 13.47h79.5m-76.55 216.18h116.95m-116.95 14.19h116.95M472.04 367.81H574.1m-102.06 14.9h95.68m-7.8-233.2v85.89"/><path class="cls-28" d="M-14.76-18.35V299.5h213.11V-18.35H-14.76z"/><path style="stroke:#d5cd98;stroke-width:.25px;fill:none" d="M-14.76-18.35V299.5h213.11V-18.35H-14.76z"/><path class="cls-23" d="m199.87-16.32 4.97 99.65 105.3-13.68-9.74-88.1-100.53 2.13zM90.16-41.43l4.97 99.65 105.3-13.68-9.74-88.09-100.53 2.12z"/><path d="M118.24 42.59s2.13-13.28 19.14-26.22 31.73-23.35 31.73-23.35l53.43 138.27 8.4 155.24-75.01-1.63-55.4-163.44 17.72-78.87Z" style="fill:#98610c"/><path class="cls-9" d="M118.24 42.59s2.13-13.28 19.14-26.22 31.73-23.35 31.73-23.35l53.43 138.27 8.4 155.24-75.01-1.63-55.4-163.44 17.72-78.87Z"/><path d="M75.55.59s-51.03 37.08-58.4 103.94C9.78 171.4-.26 232.92 8.38 238.79l-9.94 51.95-9.64 144.96h233.61l-10.02-165.22-15.5-18.97s-25.26-96.44-37.42-123.45c-12.17-27.02-44.75-97.37-46.19-108.19 0 0-25.26-26.87-37.73-19.28Z" style="fill:#822522"/><path class="cls-9" d="M75.55.59s-51.03 37.08-58.4 103.94C9.78 171.4-.26 232.92 8.38 238.79l-9.94 51.95-9.64 144.96h233.61l-10.02-165.22-15.5-18.97s-25.26-96.44-37.42-123.45c-12.17-27.02-44.75-97.37-46.19-108.19 0 0-25.26-26.87-37.73-19.28Z"/><path d="M391.46 141.66s-9.14-77.43-29-113.63c-19.86-36.2-37.99-49.61-37.99-49.61S281.38-7.31 268.33 2.34c-13.04 9.65-42.83 25.89-52.17 51.47-9.33 25.59-16.44 64.1-3.97 94.05l-3.95 114.45-2.87 6.45 5.68 12.68s-1.7 70.98-1.7 72.54-2.27 50.01-2.27 50.01l189.75-78.01-5.39-183.25" style="fill:#131629"/><path class="cls-12" d="M391.46 141.66s-9.14-77.43-29-113.63c-19.86-36.2-37.99-49.61-37.99-49.61S281.38-7.31 268.33 2.34c-13.04 9.65-42.83 25.89-52.17 51.47-9.33 25.59-16.44 64.1-3.97 94.05l-3.95 114.45-2.87 6.45 5.68 12.68s-1.7 70.98-1.7 72.54-2.27 50.01-2.27 50.01l189.75-78.01-5.39-183.25"/><path d="M359.06 245.04s-25.52-4.54-74.28 36.86c-48.76 41.39-117.63 106.6-120.47 147.42l285.47 2.27s7.37-18.14 0-37.42-21.81-51.87-21.81-51.87l-68.92-97.26Z" style="fill:#8a1915"/><path class="cls-9" d="M359.06 245.04s-25.52-4.54-74.28 36.86c-48.76 41.39-117.63 106.6-120.47 147.42l285.47 2.27s7.37-18.14 0-37.42-21.81-51.87-21.81-51.87l-68.92-97.26Z"/></g><path class="cls-23" d="m349.71 259.5 15.31-11.91 2.01-57.84 28.35-24.38 34.56 3.69s2.98 6.69 4.68 11.64c1.7 4.95 2.98 7.5 2.13 10.05 0 0 .14 2.69 2.55 6.38 2.41 3.69 5.67 9.64 5.67 13.33s-6.24 3.12-6.24 3.12.43 1.87 1.56 3.42c1.13 1.54 1.84 2.25 1.84 2.25s-.31 1.28-1.56 3.12c0 0 1.3.99 1.58 1.98s-.05 2.27-1.73 2.84c-1.68.57-2.08 1.56-1.11 3.26.97 1.7 3.1 2.27 3.1 6.8s-3.09 6.38-8.99 11.62c-5.9 5.24-8.31 9.21-9.16 14.6-.85 5.39-1.98 12.21-1.98 12.21l-60.39 6.79-12.19-22.96Z"/><path class="cls-11" d="m349.71 259.5 15.31-11.91 2.01-57.84 28.35-24.38 34.56 3.69s2.98 6.69 4.68 11.64c1.7 4.95 2.98 7.5 2.13 10.05 0 0 .14 2.69 2.55 6.38 2.41 3.69 5.67 9.64 5.67 13.33s-6.24 3.12-6.24 3.12.43 1.87 1.56 3.42c1.13 1.54 1.84 2.25 1.84 2.25s-.31 1.28-1.56 3.12c0 0 1.3.99 1.58 1.98s-.05 2.27-1.73 2.84c-1.68.57-2.08 1.56-1.11 3.26.97 1.7 3.1 2.27 3.1 6.8s-3.09 6.38-8.99 11.62c-5.9 5.24-8.31 9.21-9.16 14.6-.85 5.39-1.98 12.21-1.98 12.21l-60.39 6.79-12.19-22.96Z"/><path class="cls-28" d="M398.68 404.66s3.54-12.4 30.12-25.16c26.58-12.76 55.28-29.43 66.27-38.27 0 0 5.74 2.2 14.25-6.31s12.76-10.21 12.76-10.21 11.6-29.77 17.58-49.61c5.98-19.85 15.31-55.54 2.84-53.28-12.47 2.25-38.56 18.7-38.56 18.7s-31.19 11.94-43.94 23.83c0 0-5.98.54-14.74 7.36 0 0-22.14-3.98-50.18 5.67 0 0-20.96-12.19-39.38-11.34l-5.67-8.77s-22.22 24.65-31.78 35.99c0 0 23.81 24.98 49.33 70.33 25.52 45.35 31.11 41.09 31.11 41.09Z"/><g style="clip-path:url(#clippath-1)"><path class="cls-9" d="M398.68 404.66s3.54-12.4 30.12-25.16c26.58-12.76 55.28-29.43 66.27-38.27 0 0 5.74 2.2 14.25-6.31s12.76-10.21 12.76-10.21 11.6-29.77 17.58-49.61c5.98-19.85 15.31-55.54 2.84-53.28-12.47 2.25-38.56 18.7-38.56 18.7s-31.19 11.94-43.94 23.83c0 0-5.98.54-14.74 7.36 0 0-22.14-3.98-50.18 5.67 0 0-20.96-12.19-39.38-11.34l-5.67-8.77s-22.22 24.65-31.78 35.99c0 0 23.81 24.98 49.33 70.33 25.52 45.35 31.11 41.09 31.11 41.09Zm27.71-216.46s-2.82 3.68-9.21 5.53c-4.11 1.19-6.21 6.83-6.21 6.83m15.5-2.85s-2.7-1.15-5.68.62c-2.98 1.77-5.39 5.39-5.39 5.39m24.9 18.5s-2.03-.21-4.11 1.13c-2.08 1.35-3.88 1.5-3.88 1.5"/><path class="cls-25" d="M593.95 215.95s-4.84-46.96-1.06-82.75V-7.14l108.8-1.77 2.84 167.62-110.57 57.24Z"/><path class="cls-12" d="M593.95 215.95s-4.84-46.96-1.06-82.75V-7.14l108.8-1.77 2.84 167.62-110.57 57.24Z"/></g><path class="cls-25" d="M594.77 127.08s-.96 2.99-1.91 8.21c-.96 5.22-1.91 12.68-1.91 21.61 0 17.86 1.59 35.61 1.59 35.61s26.65-6.73 29.87-35.31c2.79-24.75 5.14-29.1 5.14-29.1l-32.78-1.02Z"/><path class="cls-9" d="M594.77 127.08s-.96 2.99-1.91 8.21c-.96 5.22-1.91 12.68-1.91 21.61 0 17.86 1.59 35.61 1.59 35.61s26.65-6.73 29.87-35.31c2.79-24.75 5.14-29.1 5.14-29.1l-32.78-1.02Z"/><g style="clip-path:url(#clippath-2)"><path d="M623.07 108.04s.65-34.73-2.89-64.5c-3.54-29.77-4.61-36.5-4.61-36.5l2.36-13.82h-72.18S527.68 7.4 519.17 15.19c-8.51 7.8-11.27 10.69-11.84 14.39 0 0-13.89 8.22-16.16 9.64-2.27 1.42-1.98 4.82-1.98 4.82s-4.84 1.15-8.22 6.53c0 0-5.85 2.54-9.64 9.06 0 0-7.94 2.25-11.34 9.92 0 0-11.18 8.01-13.04 23.25-1.86 15.24-3.12 23.25 2.55 36.86s6.5 24.12 20.13 35.59c13.63 11.47 23.81 12.89 23.81 12.89s2.58 9.16 13.92 9.97c0 0 3.71 7.33 9.92 6.19 6.21-1.13 27.19-9.89 35.13-20.68 7.94-10.79 24.66-39.99 24.66-39.99l45.99-25.59Z" style="fill:#8b0000"/><path class="cls-17" d="M623.07 108.04s.65-34.73-2.89-64.5c-3.54-29.77-4.61-36.5-4.61-36.5l2.36-13.82h-72.18S527.68 7.4 519.17 15.19c-8.51 7.8-11.27 10.69-11.84 14.39 0 0-13.89 8.22-16.16 9.64-2.27 1.42-1.98 4.82-1.98 4.82s-4.84 1.15-8.22 6.53c0 0-5.85 2.54-9.64 9.06 0 0-7.94 2.25-11.34 9.92 0 0-11.18 8.01-13.04 23.25-1.86 15.24-3.12 23.25 2.55 36.86s6.5 24.12 20.13 35.59c13.63 11.47 23.81 12.89 23.81 12.89s2.58 9.16 13.92 9.97c0 0 3.71 7.33 9.92 6.19 6.21-1.13 27.19-9.89 35.13-20.68 7.94-10.79 24.66-39.99 24.66-39.99l45.99-25.59Z"/></g><path class="cls-25" d="M538.53 226.06s13.33-4.84 21.83-19.01c8.51-14.18 18.43-33.17 22.68-38.84 4.25-5.67 10.54-11.34 13.63-12.47 3.09-1.13 6.67-1.87 9.5-1.73 2.83.14 2.46 3.26-.83 3.83-3.28.57-6.29 1.16-8.84 3.57s-6.95 5.39-9.64 12.62c0 0 1.42-1.42 3.12-1.42s3.29 1.86 2.86 3.84c-.43 1.98-1.25 3.33-1.25 3.33s2.21.09 3.2 2.07c.99 1.99-.37 4.85-1.96 8.25 0 0 3.28-.68 2.83 3.15-.35 2.99-3.99 9.55-7.25 12.38s-9.64 1.84-14.46 10.35-30.9 43.24-46.5 61.95c0 0 2.98-15.45 3.97-23.96.99-8.51.99-23.96 7.09-27.91Z"/><path class="cls-9" d="M538.53 226.06s13.33-4.84 21.83-19.01c8.51-14.18 18.43-33.17 22.68-38.84 4.25-5.67 10.54-11.34 13.63-12.47 3.09-1.13 6.67-1.87 9.5-1.73 2.83.14 2.46 3.26-.83 3.83-3.28.57-6.29 1.16-8.84 3.57s-6.95 5.39-9.64 12.62c0 0 1.42-1.42 3.12-1.42s3.29 1.86 2.86 3.84c-.43 1.98-1.25 3.33-1.25 3.33s2.21.09 3.2 2.07c.99 1.99-.37 4.85-1.96 8.25 0 0 3.28-.68 2.83 3.15-.35 2.99-3.99 9.55-7.25 12.38s-9.64 1.84-14.46 10.35-30.9 43.24-46.5 61.95c0 0 2.98-15.45 3.97-23.96.99-8.51.99-23.96 7.09-27.91Z"/><g style="clip-path:url(#clippath-3)"><path class="cls-28" d="M337.51 165.24c-3.64-6.39-13.61-31.53-27.68-71.23s-42.62-82.32-42.62-82.32l8.5-14.54 72.34 41.43 2.65 5.02s.51 53.56 6.77 96.18c8.54 58.09 17.97 48.11 17.97 48.11l-21.98 3.42s-5.4-7.58-15.94-26.07Z"/><path d="M337.51 165.24c-3.64-6.39-13.61-31.53-27.68-71.23s-42.62-82.32-42.62-82.32l8.5-14.54 72.34 41.43 2.65 5.02s.51 53.56 6.77 96.18c8.54 58.09 17.97 48.11 17.97 48.11l-21.98 3.42s-5.4-7.58-15.94-26.07Z" style="stroke:#131629;fill:none"/></g><path class="cls-10" d="M461.41 265.81s29.77-16.79 41.11-22.18m-14.07 43.27 15.51-42.13m-52.19 46.53s1.44-10.33 8.61-19.51m-4.32 21.44s1.1-9.64 3.65-14.92m-55.28 23.79s10.69-9.98 19.85-15.52c0 0-9.3 7.76-13.43 16.85m16.54-6.54s13.36-19.04 24.26-25.11m-15.25 25.11s2.39-8.16 13.67-20.41m-102.06 23.35s7.78-9.33 13.67-11.71m-13.77 4.26s-1.61-4.68 4.63-6.63c6.24-1.96 18.77-6.2 24.69-3.16m133.22-39.09s6.5 13.72 10.21 19.11m-7.09-22.47 13.89-8.71m3.4-.11s-3.72 10.77-3.53 27.93m-1.29 9.33s-2.51 28.04-8.22 45.91c0 0-11.72 9.15-13.98 16.44-2.26 7.3 2.98 4.89 6.5.04 3.52-4.86 8.05-9.68 8.05-9.68m-158.46-7.08s2.81-16.02 16.42-23.83c13.61-7.81 39.98-15.88 39.98-15.88m-65 45.36s.08-16.83 9.44-24.9"/><path d="M400.74 302.03s8.2-8.51 21.26-17.58c13.07-9.07 17.83-13.04 23.09-12.47m-7.78 7.65s3.69-4.64 6.52-6.24m5.1 19s.28-7.97 4.25-15.89c3.97-7.92 7.09-12.17 7.09-12.17m28.63 26.93s17.62-40.84 18.45-43.66c.83-2.82-2.58-7.37-2.58-7.37m2.83 75.7v-41.39c0-19.28.13-28.35.13-28.35m8.95 19.55s-2.83-3.41-5.39-12.18c-2.55-8.77-3.82-8.22-3.82-8.22m-7.24 67.91s6.77-19.82 7.19-27.37m-3.59 27.41s-4.45 9.8-6.72 17.39c-2.27 7.58-2.55 10.77-2.55 10.77m24.95-22.4s4.66-16.85 6.24-26.65c1.58-9.79 1.58-14.38 1.58-14.38m-177.07 11.26s16.44-7.33 26.93-4.82m-25.78 15.33s6.99-10.58 23.51-15.33m-17.86 29.77s1.37-14.46 12.47-23.53c11.11-9.07 17.01-10.98 17.01-10.98m-43.95-6.42s13.9-1.06 25.24 3.21c11.34 4.27 12.81 6.1 12.81 6.1m42.22 11.51s5.87-10.1 13.44-16.24m52.48 53.1s-30.51 21.8-43.69 34.29m36.15-36.29s-4.2 6.52-20.78 16.44c-16.58 9.92-30.89 19.94-30.89 19.94m13.64-38.01s-14.25 14.98-18.87 22.05m30.24-23.26s-5.18 9.36-15.1 19.28c-9.91 9.92-28.83 25.52-36.49 34.3m11.34-61.8s-6.7 10.49-13.7 27.22c-7 16.73-11.53 26.81-10.97 34.67" style="stroke:#434b71;fill:none"/><path class="cls-9" d="M632.11 108.25s7.91-15.75 20.67-18.85c12.76-3.11 29.24 4.15 35.03 12.76m-30.78-45.85s.28 8.22 7.94 10.68c7.66 2.46 21.55 2.46 21.55 2.46"/><path class="cls-17" d="m553.17 159.28-5.29 9.22s-9.66 7.09-18.71 14.18-9.92 9.07-9.92 9.07m26.37-32.49s1.96-9 13.04-20.52c11.08-11.52 13.92-17.86 13.92-17.86m-51.62-51.32c18.43 12.76 42.24 44.53 42.24 44.53 5.95-1.12 9.49 2.82 9.49 2.82s6.1-2.28 13.76 3.12m-49.9-49.05s27.49 30.34 36.14 41.39M520.1 60.2s17.72 7.36 25.39 13.61m-1.01-9.07s-1.98-5.67-20.41-7.09-32.91-2.27-42.53 1.42c-9.62 3.69-15.23 7.57-14 14.84m18.81-3.02s-23.81 22.2-27.78 43.74m77.87-20.81s-8.98-8.95-30.52-7.54c-21.55 1.42-30.05 8.5-30.05 8.5m70.59 28.35s-17.58 8.59-25.23 16.91m17.29-4.72s-6.41 5.1-10.99 18.57-17.19 31.33-17.19 31.33m34.13-49.99s-7.78 14.56-5.88 32.98m1.06-22.11s-4.14 4.25-7.88 11.34-10.9 12.19-10.9 12.19M494.01 63.6s-12.99 3.97-23.51 14.18c-10.51 10.21-15.05 17.38-15.05 17.38m44.51-59.63s13.37 1.17 27.24 4.84 20.82 6.71 27.41 11.32m-62.3-6.8s.85-3.12 9.07-5.39c8.22-2.27 12.48-1.7 12.48-1.7m29.2-1.42s3.69-2.15 12.48 10.77c8.79 12.93 19.85 32.61 23.53 44.51 3.69 11.89 5.1 20.78 5.1 20.78M557.8 66.99s17.29 28.46 24.66 50.76m-17.29-87.31L576.82 86m1.42-31.19s1.05 10.25 7.06 29.5c6.02 19.25 6.02 33.48 6.02 33.48m-6.58-128.11s-.71 94.98 20.2 117.3M593.95-8.2s-1.5 97.53 15.5 111.76m-143.19-1.12s-3.17 57.55 14.72 68.04m-6.27-30.35s4.57 30.07 20.45 34.03m195.06-42.59s21.24 111.2 62.37 155.99m-116.81 50.79s-26.65 27.73-39.69 59.78m44.42-69.24s-25.03 10.27-34.78 45.43m30.14-6.1s-24.47 8.63-32.98 45.22m27.81-116.47s-26.82 8.43-47.02 48.14" style="clip-path:url(#clippath-4)"/><path class="cls-10" d="M729.89 4.93s8.34 64.71 4.17 135.12"/><g style="clip-path:url(#clippath-5)"><path d="M531.93 429.47s17.48-80.65 29.3-113.76c0 0-2.01-19.85 2.95-48.55 4.96-28.71 6.17-41.81 16.66-52.62 10.48-10.81 35.79-16.48 46.07-29.95 10.28-13.47 40.87-44.99 64.14-53.5 0 0-6.38-28.72-7.44-63.1-1.06-34.38-.59-64.11.95-74.41l2.84-22.68 30.24 10.26S732.17-8.21 739.97 4.2c7.8 12.4 13.47 46.07 13.47 46.07l6.38 382.75-227.87-3.56Z" style="fill:#223f71"/><path class="cls-9" d="M531.93 429.47s17.48-80.65 29.3-113.76c0 0-2.01-19.85 2.95-48.55 4.96-28.71 6.17-41.81 16.66-52.62 10.48-10.81 35.79-16.48 46.07-29.95 10.28-13.47 40.87-44.99 64.14-53.5 0 0-6.38-28.72-7.44-63.1-1.06-34.38-.59-64.11.95-74.41l2.84-22.68 30.24 10.26S732.17-8.21 739.97 4.2c7.8 12.4 13.47 46.07 13.47 46.07l6.38 382.75-227.87-3.56Z"/></g><path d="M422.66 202.28c2.25-1.31 2.65-3.44 1.71-3.97-.94-.53-1.85.1-3.19.84-1.34.73-2.11 1.59-1.4 2.63.71 1.04 1.97 1.04 2.88.51Z"/><path class="cls-9" d="M422.66 202.28c2.25-1.31 2.65-3.44 1.71-3.97-.94-.53-1.85.1-3.19.84-1.34.73-2.11 1.59-1.4 2.63.71 1.04 1.97 1.04 2.88.51Zm19.19 16.96s-1.28.28-3.4 1.56c-2.13 1.28-3.83 3.43-3.83 3.43m5.75 2.88s-2.27.74-4.9-.2"/><path class="cls-25" d="M329.07 158.83s3.4-5.94 8.22-13.03c4.82-7.09 4.87-10.79 6.55-16.18 1.68-5.39 5.08-10.49 6.21-14.18 1.13-3.69 1.42-5.95 1.13-6.8 0 0 1.7-.14 2.41 2.84.71 2.98-2.55 10.35-2.55 10.35l-.43 5.54s8.08-.03 11.91-1.43 12.19-7.23 14.18-9.78c1.98-2.55 6.24-7.09 6.95-8.08.71-.99 1.42-.71 1.84-.07.43.64-.99 2.2-3.83 6.03s-12.05 14.03-12.05 14.03 7.37-4.96 12.19-8.93c4.82-3.97 7.66-7.51 8.93-6.8 1.28.71-.28 2.13-2.69 4.82-2.41 2.69-16.16 14.88-16.16 14.88s7.37-3.83 11.06-6.52c3.69-2.69 6.08-6.38 7.23-5.95 1.15.43 0 2.14-1.42 3.56s-7.94 8.06-14.88 12.32c0 0 .62.28 3.99-.57 3.38-.85 5.93-1.99 7.49-2.98 1.56-.99 3.4-.99 3.69-.43.28.57-1.7 1.84-4.39 3.4-2.69 1.56-10.91 4.68-10.91 4.68s-13.33 6.09-19.42 10.49c-6.1 4.39-12.62 11.91-13.75 19.56 0 0-3.97-3.42-6.52-5.81-2.55-2.39-4.96-4.96-4.96-4.96Z"/><path class="cls-14" d="M329.07 158.83s3.4-5.94 8.22-13.03c4.82-7.09 4.87-10.79 6.55-16.18 1.68-5.39 5.08-10.49 6.21-14.18 1.13-3.69 1.42-5.95 1.13-6.8 0 0 1.7-.14 2.41 2.84.71 2.98-2.55 10.35-2.55 10.35l-.43 5.54s8.08-.03 11.91-1.43 12.19-7.23 14.18-9.78c1.98-2.55 6.24-7.09 6.95-8.08.71-.99 1.42-.71 1.84-.07.43.64-.99 2.2-3.83 6.03s-12.05 14.03-12.05 14.03 7.37-4.96 12.19-8.93c4.82-3.97 7.66-7.51 8.93-6.8 1.28.71-.28 2.13-2.69 4.82-2.41 2.69-16.16 14.88-16.16 14.88s7.37-3.83 11.06-6.52c3.69-2.69 6.08-6.38 7.23-5.95 1.15.43 0 2.14-1.42 3.56s-7.94 8.06-14.88 12.32c0 0 .62.28 3.99-.57 3.38-.85 5.93-1.99 7.49-2.98 1.56-.99 3.4-.99 3.69-.43.28.57-1.7 1.84-4.39 3.4-2.69 1.56-10.91 4.68-10.91 4.68s-13.33 6.09-19.42 10.49c-6.1 4.39-12.62 11.91-13.75 19.56 0 0-3.97-3.42-6.52-5.81-2.55-2.39-4.96-4.96-4.96-4.96Z"/><g style="clip-path:url(#clippath-6)"><path class="cls-25" d="m276.3-5.82 3.1 16.93s14.81 14.6 21.72 29.2c0 0 22.84 10.17 27.64 13.55l21.81-6.25s-4.25-22.5-8.79-31.24c-4.54-8.74-16.73-26.54-15.31-42.32 1.42-15.78.28-21.04.28-21.04l-53.28 2.92 2.84 38.25Z"/><path class="cls-9" d="m276.3-5.82 3.1 16.93s14.81 14.6 21.72 29.2c0 0 22.84 10.17 27.64 13.55l21.81-6.25s-4.25-22.5-8.79-31.24c-4.54-8.74-16.73-26.54-15.31-42.32 1.42-15.78.28-21.04.28-21.04l-53.28 2.92 2.84 38.25Z"/></g><path class="cls-12" d="m247.35 221.72-26.07 24.08M232.9 30.66s18.4 60.43 45.08 96.92c26.67 36.49 31.75 43.83 31.75 43.83m-12.76 6.6s-36.28 21.39-41.67 42.69m9.35 18.07s-1.72-21.43 1.42-35.45M257 183.27s15.31-7.29 28.91-6.38m-28.96-32.71 23.63 24.84m-33.15 57.76s-12.51 14.09-14.66 36.92M212.5 147.85s14.78 64.13 38.39 90.93c23.61 26.81 58 15.34 72.18-12.06 14.18-27.41 21.81-47.15 21.81-47.15m-19.85-22.97 22.67 24.35M235.45 99.23s18.07 15.19 31.65 32.71c13.58 17.52 38.09 35.63 38.09 35.63m-58.5-124.93s22.77 50.78 44.05 84.06c21.28 33.28 27.33 39.7 27.33 39.7"/><path d="M48.08 53.98s18.55 4.34 40.16 21.12c21.62 16.78 31.3 21.53 37.8 20.43 0 0 13.7 85.22 21.74 87.85 0 0 11.41-12.35 14.25-16.9 2.84-4.55 6.24-12.92 9.07-12.92s3.69 2.03 3.69 2.03 20.98 37.05 23.25 47.72c2.27 10.66 1.7 17.87 1.42 35.43s1.13 39.74-16.73 41.2c0 0-16.16 22.48-29.48 22.18-13.33-.29-26.08-15.76-31.75-22.77-5.67-7.01-9.62-13.14-9.62-13.14s-8.51 2.08-18.43-14.87-36.31-62.49-39.15-78.54c-2.84-16.06-6.8-32.99-9.36-48.17-2.55-15.18-9.62-43.18 3.14-70.67Z" style="fill:#4b4d72"/><path class="cls-9" d="M48.08 53.98s18.55 4.34 40.16 21.12c21.62 16.78 31.3 21.53 37.8 20.43 0 0 13.7 85.22 21.74 87.85 0 0 11.41-12.35 14.25-16.9 2.84-4.55 6.24-12.92 9.07-12.92s3.69 2.03 3.69 2.03 20.98 37.05 23.25 47.72c2.27 10.66 1.7 17.87 1.42 35.43s1.13 39.74-16.73 41.2c0 0-16.16 22.48-29.48 22.18-13.33-.29-26.08-15.76-31.75-22.77-5.67-7.01-9.62-13.14-9.62-13.14s-8.51 2.08-18.43-14.87-36.31-62.49-39.15-78.54c-2.84-16.06-6.8-32.99-9.36-48.17-2.55-15.18-9.62-43.18 3.14-70.67Z"/><g style="clip-path:url(#clippath-7)"><path class="cls-25" d="M145.29 23.08s3.69-8.73 13.04-18.38c9.36-9.65 12.91-11.88 12.91-11.88v-14.54l34.01 17.06 5.84 18.98 4.8 46.17-1.98 42.01-14.06-2.35s-20.25-32.39-32.16-48.46c-11.91-16.08-22.4-28.61-22.4-28.61Z"/><path class="cls-9" d="M145.29 23.08s3.69-8.73 13.04-18.38c9.36-9.65 12.91-11.88 12.91-11.88v-14.54l34.01 17.06 5.84 18.98 4.8 46.17-1.98 42.01-14.06-2.35s-20.25-32.39-32.16-48.46c-11.91-16.08-22.4-28.61-22.4-28.61Z"/></g><path class="cls-10" d="M118.36 221.65s3.38-13.24 11.91-20.66c8.53-7.43 17.57-17.62 17.57-17.62m9.64-10.56s-4.82 14.1-4.82 17.24 10.2 17.66 15.31 30.69c5.1 13.03 11.9 18.01 11.9 18.01m-27.34-60.72s-4.13 6.44-5.83 14.34c0 0-9.35 8.73-15.87 17.08m15.58-26.17s-18.66 15.2-24.64 20.03c-5.97 4.83-9.38 10.96-9.38 10.96m-50.47-74.15s.05 17.28 20.15 55.47c20.1 38.19 28.89 45.56 28.89 45.56m-51.31-82.94s8.5 23.24 22.96 53.14c14.46 29.9 22.96 35.56 22.96 35.56"/><path class="cls-25" d="M171.38 165.3s4.37-14.73 8.58-25.18c4.2-10.45 6.17-17.77 6.17-27.42s1.11-16.62 4.54-20.43c3.43-3.81 10.77-13.74 10.77-13.74s2.74 1.93 1.42 4.98c-1.32 3.04-6.52 10.2-6.52 10.2s3.5 2.92 7.01-1.17 8.85-13.44 9.72-19.27c.87-5.82 1.56-9.94 3.54-10.8 0 0 .05 4.4.05 7.97s-1.04 11.88-2.74 16.11c-1.7 4.24-2.81 4.68-2.81 4.68s3.52-3.36 5.08-8.61 2.84-9.93 4.25-11.53c1.42-1.61 2.69-.65 2.69-.65s-1.42 3.57-2.84 9.26c-1.42 5.69-2.69 10.22-5.81 15.18 0 0 2.41-2.92 4.11-7.44 1.7-4.52 2.25-6.71 3.96-7.59 1.71-.88 2.84.75 2.84.75s-2.15 1.58-3.97 5.96c-1.82 4.38-2.13 6.43-4.4 9.78 0 0 2.14-2.75 3.83-7.14s2.66-5.7 3.69-5.99c1.03-.29 1.03.58 1.03.58s-1.49 1.97-3.02 7.59-6.51 12.55-11.05 18.68c-4.54 6.13-9.62 11.68-10.63 16.05-1.02 4.38-3.4 12.45-3.69 31.53-.28 19.08 3.12 48.46-9.07 67.14 0 0-3.26-14.71-8.15-29.78-4.89-15.07-8.58-29.7-8.58-29.7Z"/><path class="cls-9" d="M171.38 165.3s4.37-14.73 8.58-25.18c4.2-10.45 6.17-17.77 6.17-27.42s1.11-16.62 4.54-20.43c3.43-3.81 10.77-13.74 10.77-13.74s2.74 1.93 1.42 4.98c-1.32 3.04-6.52 10.2-6.52 10.2s3.5 2.92 7.01-1.17 8.85-13.44 9.72-19.27c.87-5.82 1.56-9.94 3.54-10.8 0 0 .05 4.4.05 7.97s-1.04 11.88-2.74 16.11c-1.7 4.24-2.81 4.68-2.81 4.68s3.52-3.36 5.08-8.61 2.84-9.93 4.25-11.53c1.42-1.61 2.69-.65 2.69-.65s-1.42 3.57-2.84 9.26c-1.42 5.69-2.69 10.22-5.81 15.18 0 0 2.41-2.92 4.11-7.44 1.7-4.52 2.25-6.71 3.96-7.59 1.71-.88 2.84.75 2.84.75s-2.15 1.58-3.97 5.96c-1.82 4.38-2.13 6.43-4.4 9.78 0 0 2.14-2.75 3.83-7.14s2.66-5.7 3.69-5.99c1.03-.29 1.03.58 1.03.58s-1.49 1.97-3.02 7.59-6.51 12.55-11.05 18.68c-4.54 6.13-9.62 11.68-10.63 16.05-1.02 4.38-3.4 12.45-3.69 31.53-.28 19.08 3.12 48.46-9.07 67.14 0 0-3.26-14.71-8.15-29.78-4.89-15.07-8.58-29.7-8.58-29.7Z"/><g style="clip-path:url(#clippath-8)"><path class="cls-25" d="M48.07 54.61S58.3 30.08 66.5 17.82C74.7 5.56 84.91-9.91 84.91-9.91s34.62-4.44 46.92 1.03c12.3 5.47-10.35 13.85-10.35 13.85s-8.92 23.34-5.1 47.29c3.82 23.96 9.36 43.21 9.36 43.21l-8.79 10.8-53.02-31.82-15.85-19.84Z"/><path class="cls-9" d="M48.07 54.61S58.3 30.08 66.5 17.82C74.7 5.56 84.91-9.91 84.91-9.91s34.62-4.44 46.92 1.03c12.3 5.47-10.35 13.85-10.35 13.85s-8.92 23.34-5.1 47.29c3.82 23.96 9.36 43.21 9.36 43.21l-8.79 10.8-53.02-31.82-15.85-19.84Zm-18.42 172.1s7.09 6.23 14.17 9.59c7.09 3.36 35.8 14.17 52.14 15.05m-53.86-9.08s16.42 11.37 33.17 15.2 26.93 3.83 26.93 3.83m-72.63-22.58s17.86 16.09 33.19 23.56m-33.27-5.71s32.46 18.73 63.92 26.9m-65.49-13.46s.61-1.77 10.23 1.16 32.91 16.4 60.95 18.14c28.04 1.74 31.63 1.15 31.63 1.15M21.14 97s.09 69.27 20.88 117.33m27.31 6.72s-11.36-19.76-14.76-46.5M120.2 70.44s4.53 9.33 10.56 28.72 10.93 28.72 10.93 28.72M112.3 290.65s-10.66 14.36-23.7 61.96-22.11 73.87-22.11 73.87m39.12-135.91s-14.22 10.66-22.99 42.77c-8.76 32.11-26.91 88.75-26.91 88.75m13.74-75.31s2.67-11.7 9.83-19.27c7.16-7.58 11.58-17.8 11.58-17.8m42.23 27.71s-10.55 3.9-18.98 15.19-20.66 18.7-20.66 18.7m60.06-16.95s-18.79-5.8-33.31 1.96m18.29 2.22s15.36 3.52 27.23 22.17m-10.79 2.84 10.9 25.43m-63.63-18.14s20.41-7.02 48.19 19.88m.09-94.3 21.17 57.81m-18.11-60.13s9.58 29.46 27.18 53.42M46.15 275.67s-8.59 10.77-10.29 69.64c-1.7 58.87.87 74.44.87 74.44m-3.71-133.1s-8.5 39.33-7.94 84.76c.57 45.43 3.97 49.52 3.97 49.52m-6.8-119.68s7.35-20.08 12.9-25.67M12.76 144.12s7.14 58.38 8.26 76.66c1.12 18.28-1.06 35.58-1.88 45.17-.83 9.59-2.41 12.44 5.8 11.69s15.76-4.76 15.76-4.76m-23.81-9.16s-3.78 11.84-9.45 18.27-6.38 13.13-2.48 13.87m0-7.46s1.77 24.59-8.5 61.82m23.74-72.36s-6.02 27.84-4.6 85.49c1.42 57.65 7.79 60.21 7.79 60.21m-6.37-136.9s-7.8 48.96-9.92 90.56c-2.13 41.6-8.86 55.11-8.86 55.11M185.59 288.4s-2.58 15.31-10.51 52.43"/></g><path class="cls-25" d="M553.27 159.14s20.84-10.63 30.76-16.02c9.92-5.39 14.46-6.21 21.26-6.36 6.8-.16 11.39-.3 16.89-4.55s7.49-5.1 7.91-7.8-.26-3.24-.26-3.24 2.26-3.56 1.39-6.82c0 0 1.5-3.67.32-7.23 0 0 1.52-1.56 1.24-4.68-.28-3.12-2.15-3.12-2.84-2.69 0 0 .69-1.86 0-4.39 0 0-2.29 1.4-6.89 2.98-4.59 1.58-7.45 3.54-11.97 5.95-4.51 2.41-7.47 3.83-11.6 8.22-4.13 4.39-12.36 9.21-22.85 10.49 0 0-5.1 1.28-10.06 10.63-4.96 9.36-6.78 17.01-13.33 25.52Z"/><path class="cls-9" d="M553.27 159.14s20.84-10.63 30.76-16.02c9.92-5.39 14.46-6.21 21.26-6.36 6.8-.16 11.39-.3 16.89-4.55s7.49-5.1 7.91-7.8-.26-3.24-.26-3.24 2.26-3.56 1.39-6.82c0 0 1.5-3.67.32-7.23 0 0 1.52-1.56 1.24-4.68-.28-3.12-2.15-3.12-2.84-2.69 0 0 .69-1.86 0-4.39 0 0-2.29 1.4-6.89 2.98-4.59 1.58-7.45 3.54-11.97 5.95-4.51 2.41-7.47 3.83-11.6 8.22-4.13 4.39-12.36 9.21-22.85 10.49 0 0-5.1 1.28-10.06 10.63-4.96 9.36-6.78 17.01-13.33 25.52Z"/><path class="cls-25" d="M613.11 108.11s2.27-1.43 6.52-1.56c0 0 6.47-2.98 10.18-6.8"/><path class="cls-9" d="M613.11 108.11s2.27-1.43 6.52-1.56c0 0 6.47-2.98 10.18-6.8"/><path class="cls-25" d="M620.77 113.07s6.92-2.51 10.89-6.01"/><path class="cls-9" d="M620.77 113.07s6.92-2.51 10.89-6.01"/><path class="cls-25" d="M621.48 120.03s6.07-2.14 9.62-5.83"/><path class="cls-9" d="M621.48 120.03s6.07-2.14 9.62-5.83"/><path class="cls-25" d="M622.44 125.83s3.84-1.32 7.46-4.68"/><path class="cls-9" d="M622.44 125.83s3.84-1.32 7.46-4.68m21.17-62.93s.61 7.16-5.22 9.91-11.79 4.35-11.79 4.35"/><path class="cls-10" d="M354.74 268.55s17.71-.2 36.72 9.46m112.97-18.75v26.9l-6.21 25.53m-66.86-37.65s-19.43 10.06-32.04 24.54"/><g style="clip-path:url(#clippath-9)"><path class="cls-9" d="M439.01 213.59s-1.13-.16-2.69-.57c-1.56-.41-3.26.41-3.41 1.98M232.47 355.05s79.86 67.3 111.87 72.63m-54.46-106.67s31.82 23.16 54.48 53.51c22.66 30.35 36.72 46.07 52.43 54.58M253.62 310.38s73.83 69.46 111.4 114.82M260.83 304.02s85.05 81.85 119.43 121.89m-92.49-108.8S325.34 338.73 359 377m-129-29.96s52.8 15.81 97.46 53.36c44.65 37.55 65.56 37.55 65.56 37.55M242.76 361.4s46.78 11.37 114.47 71.6m-71.27-33.07s-18.74 16.64-34.62 34.79m-20.98-5.1s24.78-15.29 44.14-19.21"/><path class="cls-10" d="M292.73 35.7s14.2 10.85 19.29 24.75m16.74 13.61s8.48 5.13 11.6 9.39m-90.98 125.94s12.45-21.02 31.15-31.58m18.71 2.23s-19.56 10.01-29.19 26.37m3.96 14.34s-3.46-13.05 2.09-23.13m-14.56-45.24 19.13 19.12m5.53-109.3-.28 45.24M246.8 38.83l18.71 31.57m1.6-33.58 1.67 33.64m82.92-19.08s9.64 18.2 12.47 34.63m-6.23-2.48s5.66 14 9.63 15.04m-95.38-73.46s21.78 33.26 25.35 56.35m-28.64 0 11.15 15.48m-32.61 141.83s-9.67 22.19-10.83 41.82m-3.96-33.65s-8.98 11.9-10.22 28.72m16.41-48.97-21.25 19.19m19.56-197.7s22 67.77 35.78 88.46m2.71-91.32 1.49 40.74m380.75 135.5s36.86 114.78 36.29 205.77m-53.56-163.11s36.6 80.59 42.53 166.78m-3.71-185.75s29.48 95.03 23.81 184.05M687.94-7.85s11.06 79.16 13.61 139.4c2.55 60.24 26.65 94.24 53.87 131.37m-128.15 9.92s-20.55 7.06-27.29 21.96m23.09-63.47s-45.3 67.16-49.08 75.87m141.73-70.21s6.28 104.44-4.23 193.46M721.96-5.58s5.97 69.7 2.83 140.75M695.31 4.86l26.32 21.77m-24.31.1 11.15 9.02"/></g><path class="cls-32" d="M361.47 246.89s2.13 6.24 7.23 6.52c5.1.28 9.5-3.83 9.5-3.83s3.26 1.6 6.09-.57c2.84-2.17 2.58-4.68 2.58-4.68s5.22 0 6.36-5.39c1.13-5.39-1.84-7.94-1.84-7.94s3.26-6.38-.99-10.92c0 0 3.52-3.83 1.42-9.64 0 0 2.55-1.7 3.26-6.95.71-5.24-1.7-6.66-1.7-6.66s4.96-.57 6.52-4.82c1.56-4.25.12-7.23.12-7.23s3.85-.28 3-4.68c0 0 3.69 1.12 6.09-1.28 2.41-2.39 1.56-4.82 1.56-4.82s4.8 2.98 8.93 1.13c4.13-1.84 3.83-4.11 3.83-4.11s3.69 2.23 5.67-.02c0 0 2.69 5.69 6.8 5.4 4.11-.28 5.1-3.18 3.69-5.63-1.42-2.45-8.93-11.66-12.19-13.22-3.26-1.56-6.66-1.42-6.66-1.42s-3.12-5.24-13.04-5.67c0 0-9.07-6.2-22.54-.13 0 0-12.21 1.26-18 9.06 0 0-6.24-.28-10.77 6.38s-5.24 13.48-5.24 13.48-9.5 2.96-7.66 13.59c0 0-1.98 2.41.57 6.24 0 0-2.27 2.69-.71 7.66 1.56 4.96 4.82 5.95 4.82 5.95s-5.53 1.85-3.83 8.86c1.7 7.02 6.8 5.9 6.8 5.9s-.99 5.23 3.97 7.92c0 0-2.69.43-3.26 3.69-.57 3.26 1.7 7.09 4.68 7.09s4.39-.27 4.39-.27l.57.98Z"/><path class="cls-9" d="M361.47 246.89s2.13 6.24 7.23 6.52c5.1.28 9.5-3.83 9.5-3.83s3.26 1.6 6.09-.57c2.84-2.17 2.58-4.68 2.58-4.68s5.22 0 6.36-5.39c1.13-5.39-1.84-7.94-1.84-7.94s3.26-6.38-.99-10.92c0 0 3.52-3.83 1.42-9.64 0 0 2.55-1.7 3.26-6.95.71-5.24-1.7-6.66-1.7-6.66s4.96-.57 6.52-4.82c1.56-4.25.12-7.23.12-7.23s3.85-.28 3-4.68c0 0 3.69 1.12 6.09-1.28 2.41-2.39 1.56-4.82 1.56-4.82s4.8 2.98 8.93 1.13c4.13-1.84 3.83-4.11 3.83-4.11s3.69 2.23 5.67-.02c0 0 2.69 5.69 6.8 5.4 4.11-.28 5.1-3.18 3.69-5.63-1.42-2.45-8.93-11.66-12.19-13.22-3.26-1.56-6.66-1.42-6.66-1.42s-3.12-5.24-13.04-5.67c0 0-9.07-6.2-22.54-.13 0 0-12.21 1.26-18 9.06 0 0-6.24-.28-10.77 6.38s-5.24 13.48-5.24 13.48-9.5 2.96-7.66 13.59c0 0-1.98 2.41.57 6.24 0 0-2.27 2.69-.71 7.66 1.56 4.96 4.82 5.95 4.82 5.95s-5.53 1.85-3.83 8.86c1.7 7.02 6.8 5.9 6.8 5.9s-.99 5.23 3.97 7.92c0 0-2.69.43-3.26 3.69-.57 3.26 1.7 7.09 4.68 7.09s4.39-.27 4.39-.27l.57.98Z"/><g style="clip-path:url(#clippath-10)"><path class="cls-32" d="M173.65-13.06s-6.8 2.85-5.67 10.77c0 0-1.04 7.97 2.88 11.36 3.92 3.38 9.69 3.38 9.69 3.38s-1.8 4.78 3.3 7.48c5.1 2.71 9.64.11 9.64.11s-.31 7.16 6.93 7.72c7.24.55 8.38-2.93 8.38-2.93s6.53 2.38 11.91-2.74 2.23-10.77 2.23-10.77 2.88-.11 5.7-3.99c2.82-3.88 2.27-8.49 2.27-8.49l-57.27-11.91Z"/><path class="cls-9" d="M173.65-13.06s-6.8 2.85-5.67 10.77c0 0-1.04 7.97 2.88 11.36 3.92 3.38 9.69 3.38 9.69 3.38s-1.8 4.78 3.3 7.48c5.1 2.71 9.64.11 9.64.11s-.31 7.16 6.93 7.72c7.24.55 8.38-2.93 8.38-2.93s6.53 2.38 11.91-2.74 2.23-10.77 2.23-10.77 2.88-.11 5.7-3.99c2.82-3.88 2.27-8.49 2.27-8.49l-57.27-11.91Z"/></g><path class="cls-23" d="M394.7 211.9s-2.86-5.83-7.03-5.71-4.64 5.36-4.05 9.17c.6 3.81 1.31 6.79 4.52 10.24 3.22 3.45 5.37 7.26 7.26 6.79 1.89-.48 2.36-3.43 1.19-5.46"/><path class="cls-9" d="M395.35 219.42s1.99 8.48 11.34 8.48c0 0 3.08 7.69 12.31 4.85 0 0 5.01 5.67 10.65 2.55 0 0 5.81 3.69 9.42-.85m-43.85-9.09s1.54 6.82 9.48 6.25c0 0 2.91 7.12 12.5 5.26 0 0 3.52 5.92 11.32 2.96m1.98.95s5.9 2.99 8.67-2.37m-37.02-2.55s2.55 7.35 12.19 4.92m1.98 1.58s5.5 5.03 12.23 2.03c0 0 3.64 2.12 7.18 0m-33.71-3s2.99 5.67 10.89 4.07m2.07.41s5.92 5.31 11.67 2.45m-31.44-17.01s.74 7.29 4.4 7.29"/><path class="cls-11" d="M388.27 231.31s3.52 6.72-3.97 10.64c0 0-.43 6.2-6.52 3.93 0 0-8.32 7.15-13.59-.95m33.05-61.24s1.44 7.77-5.78 10.62m-5.75 36.94s2.34 7.04-4.93 10.09m.96-30.17s3.99 6.89-2.27 10.53m-6.26.11s7.84-1.45 6.2-7.82m-24.67-35.69s7.31 7.4 14.52 0m-7.26-.09s9.41-1.37 7.35-9.43m41.15.73s7.18 5.57 10.33-.76m-6.45-7.75s5.85-4.25 10.96-1.13"/><path class="cls-23" d="M442.84 419.15c-1.99 2.41-4.01 4.43-10.83 5.79-6.82 1.36-8.77 2.3-11.08.86-2.31-1.45-2.28-2.32-2.28-2.32s-4.17-.63-6.06-3.42c0 0-3.75-1.28-5.67-4.5 0 0-2.17.12-4.34-2.14-2.17-2.26-.94-3.67-.17-3.91 0 0-1.85-.7-3.32-2.88 0 0 2.56-.81 6.77-3.24 4.2-2.43 7.56-3.3 12.34-5.12 4.78-1.82 7.85-2.46 13.82-3.36 3.31-.5 12.35 22.39 10.82 24.25Z"/><path class="cls-4" d="M442.84 419.15c-1.99 2.41-4.01 4.43-10.83 5.79-6.82 1.36-8.77 2.3-11.08.86-2.31-1.45-2.28-2.32-2.28-2.32s-4.17-.63-6.06-3.42c0 0-3.75-1.28-5.67-4.5 0 0-2.17.12-4.34-2.14-2.17-2.26-.94-3.67-.17-3.91 0 0-1.85-.7-3.32-2.88 0 0 2.56-.81 6.77-3.24 4.2-2.43 7.56-3.3 12.34-5.12 4.78-1.82 7.85-2.46 13.82-3.36 3.31-.5 12.35 22.39 10.82 24.25Z" style="clip-path:url(#clippath-11)"/><path class="cls-23" d="M419.77 402.28s-2.57.77-5.45 3.9c0 0-6.49 2.93-11.81 3.22"/><path class="cls-4" d="M419.77 402.28s-2.57.77-5.45 3.9c0 0-6.49 2.93-11.81 3.22"/><path class="cls-23" d="M418.5 411.32s-6.43 3.58-11.68 4.28"/><path class="cls-4" d="M418.5 411.32s-6.43 3.58-11.68 4.28"/><path class="cls-23" d="M423.29 416.42s-5.6 3.18-10.71 3.43"/><path class="cls-4" d="M423.29 416.42s-5.6 3.18-10.71 3.43"/><path class="cls-23" d="M427.02 420.95s-3.51 2.04-8.43 2.56"/><path class="cls-4" d="M427.02 420.95s-3.51 2.04-8.43 2.56"/><path class="cls-20" d="M587 187.81s4.43-7.6 5.73-10.86"/><path class="cls-14" d="M587 187.81s4.43-7.6 5.73-10.86"/><path class="cls-20" d="M582.92 182.39s2.11-4.76 4.31-9.24"/><g style="clip-path:url(#clippath-12)"><path class="cls-14" d="M582.92 182.39s2.11-4.76 4.31-9.24"/><path class="cls-9" d="M422.44 394.39s2.32-3.73 12.32-6.57c10-2.83 15.31 24.67 12.47 44.23"/></g><path d="M434.23 188.8s-.37.99 1.07 4.11 8.99 14.46 7.82 17.44" style="stroke:#af601d;stroke-width:.5px;fill:none"/><path class="cls-9" d="M135.99 45.34s26.03 67.76 49 80.23m-23.25-41.11s12.95 22.11 23.49 23.53"/><path class="cls-25" d="M612.98 158c1.01 0 1.83-1.2 1.83-2.68s-.82-2.68-1.83-2.68-1.83 1.2-1.83 2.68.82 2.68 1.83 2.68Z"/><path d="M612.98 158c1.01 0 1.83-1.2 1.83-2.68s-.82-2.68-1.83-2.68-1.83 1.2-1.83 2.68.82 2.68 1.83 2.68Z" style="stroke-width:1.25px;stroke:#af601d;fill:none"/><path class="cls-25" d="M613.12 158.63s-.69 6.35.07 12.71"/><path d="M613.12 158.63s-.69 6.35.07 12.71" style="stroke-width:1.5px;stroke:#af601d;stroke-linecap:round;fill:none"/><g style="clip-path:url(#clippath-13)"><path class="cls-10" d="M628.37 293.3s-39.56 15.65-60.6 61.74m25.42-23.36s-17.47 19.77-21.5 51.53m47.53-36.61s-18.87-13.04-30.33 8.51c-11.47 21.55-20.63 41.96-28.31 85.62M717.16 63.12s6.5 43.22 7.06 84.08c.57 40.86 10.21 58.3 30.62 102.52"/><path class="cls-9" d="M691.05 131.42s7.65 75.77 63.22 133.04"/><path class="cls-10" d="M688.23 138.75s-38.4 13.22-79.65 80c-41.25 66.78-44.25 75.86-45.38 88.5m108.34-151.93s-35.22 20.87-61.76 84.6m-11.83-28.75s-9.54-1.04-18.28 10.53c-8.74 11.57-11.16 56.54-11.16 56.54m38.21-64.47s-5.58 2.52-13.61 4.98c-8.03 2.45-11.91 4.63-14.03 14.52m-16.37 92.72s-16.82 51.3-20.48 109.14m67.56-77.83s13.44 8.39 23.56 22.74m-13.81-4.44s15.69 22.68 24.76 64.64"/></g><path d="M606.85 150.23s6.5.98 10.21 5.51c0 0-5.81-.42-10.21-5.51Z" style="fill:#a41612"/><path d="M606.85 150.23s6.5.98 10.21 5.51c0 0-5.81-.42-10.21-5.51h0Zm5.1 4.1v2.71m3.14-1.71v3.98" style="stroke-linecap:round;stroke:#8a1915;stroke-linejoin:round;fill:none"/></svg>