<svg xmlns="http://www.w3.org/2000/svg" xmlns:xlink="http://www.w3.org/1999/xlink" xml:space="preserve" x="0" y="0" style="enable-background:new 0 0 1238 394" version="1.1" viewBox="0 0 1238 394"><style>.st17{fill:none;stroke:#5f100f;stroke-width:3}.st20{fill:#bb7c29}.st21{fill:none;stroke:#7c451c;stroke-width:3}.st29{fill:#c4c1a9}</style><defs><path id="SVGID_1_" d="M0 0h1238v397.8H0z"/></defs><clipPath id="SVGID_00000120542604130040504130000015113160486099953596_"><use xlink:href="#SVGID_1_" style="overflow:visible"/></clipPath><path d="M-12-199v737.8h1265.2V-199H-12z" style="clip-path:url(#SVGID_00000120542604130040504130000015113160486099953596_);fill:#2c2a3c"/><path d="M-12-199v737.8h1265.2V-199H-12z" style="clip-path:url(#SVGID_00000120542604130040504130000015113160486099953596_);fill:none;stroke:#e9843c"/><path d="m486.6 261.5 300.8 273.4" style="clip-path:url(#SVGID_00000120542604130040504130000015113160486099953596_);fill:none;stroke:#e9843c;stroke-width:2;stroke-dasharray:70,3.7465,20,58.7465,15,8.7465;stroke-dashoffset:73"/><path d="m511.3 194 374.4 340.9" style="clip-path:url(#SVGID_00000120542604130040504130000015113160486099953596_);fill:none;stroke:#e9843c;stroke-width:2;stroke-dasharray:40,4.2986,20,6.2986,15,3.2986;stroke-dashoffset:44"/><path d="m731.4 314.9 298 217.7" style="clip-path:url(#SVGID_00000120542604130040504130000015113160486099953596_);fill:none;stroke:#e9843c;stroke-width:2;stroke-dasharray:40,0,55,19.1643,10,62.1643;stroke-dashoffset:40"/><path d="m823.4 311.2 324.3 219" style="clip-path:url(#SVGID_00000120542604130040504130000015113160486099953596_);fill:none;stroke:#e9843c;stroke-width:2;stroke-dasharray:95.8621,10.8621,0,10.8621,15.8621,10.8621;stroke-dashoffset:106"/><path d="m886.2 265.9 364.5 238.6" style="clip-path:url(#SVGID_00000120542604130040504130000015113160486099953596_);fill:none;stroke:#e9843c;stroke-width:2;stroke-dasharray:10,2.8227,20,12.8227,5,12.8227;stroke-dashoffset:12"/><path d="m920.8 242.8 336.9 186.8" style="clip-path:url(#SVGID_00000120542604130040504130000015113160486099953596_);fill:none;stroke:#e9843c;stroke-width:2;stroke-dasharray:33.7598,8.7598,48.7598,30.7598,3.7598,73.7598;stroke-dashoffset:42"/><path d="m1037.8 189.5 225.5-66.4" style="clip-path:url(#SVGID_00000120542604130040504130000015113160486099953596_);fill:none;stroke:#e9843c;stroke-width:2;stroke-dasharray:5,12.8994,20,12.8994,5,12.8994;stroke-dashoffset:17"/><path d="m998.2 156.3 268.9-82.4" style="clip-path:url(#SVGID_00000120542604130040504130000015113160486099953596_);fill:none;stroke:#e9843c;stroke-width:2;stroke-dasharray:8.3331,15,8.3331,37,13.3331,80;stroke-dashoffset:23"/><path d="m962.8 115.9 304.3-170.7" style="clip-path:url(#SVGID_00000120542604130040504130000015113160486099953596_);fill:none;stroke:#e9843c;stroke-width:2;stroke-dasharray:18.5717,15,18.5717,37,23.5717,80;stroke-dashoffset:33"/><path d="M985.1 30.6 1260-204.5" style="clip-path:url(#SVGID_00000120542604130040504130000015113160486099953596_);fill:none;stroke:#e9843c;stroke-width:2;stroke-dasharray:40,0,55,17.699,10,60.699;stroke-dashoffset:40"/><path d="m835.3 64.7 306.4-273.9" style="clip-path:url(#SVGID_00000120542604130040504130000015113160486099953596_);fill:none;stroke:#e9843c;stroke-width:2;stroke-dasharray:40,5.6351,55,27.6351,10,70.6351;stroke-dashoffset:45"/><path d="m950.5 94.3 323.6-207.6" style="clip-path:url(#SVGID_00000120542604130040504130000015113160486099953596_);fill:none;stroke:#e9843c;stroke-width:2;stroke-dasharray:5,17.3121,7,39.3121,3,42.3121;stroke-dashoffset:22"/><path d="m1094.1 213.3 345.6-47.2" style="clip-path:url(#SVGID_00000120542604130040504130000015113160486099953596_);fill:none;stroke:#e9843c;stroke-width:2;stroke-dasharray:18.5717,15,18.5717,37,23.5717,80;stroke-dashoffset:33"/><path d="M681.3 534.9S528.4 378.1 487.9 270.5c0 0 39-81.1 49.9-99.8 10.9-18.7 25-78 25-78l-70.2-304.2H-23.8l-3.1 751.9 708.2-5.5z" style="clip-path:url(#SVGID_00000120542604130040504130000015113160486099953596_);fill:#891814"/><path d="M681.3 534.9S528.4 378.1 487.9 270.5c0 0 39-81.1 49.9-99.8 10.9-18.7 25-78 25-78l-70.2-304.2H-23.8l-3.1 751.9 708.2-5.5z" style="clip-path:url(#SVGID_00000120542604130040504130000015113160486099953596_);fill:none;stroke:#5f100f;stroke-width:3"/><path d="M700.3 328.2s96.8 15.7 187.2-50.3c90.4-66 150.3-113.6 150.3-113.6l-65.1-29.6-141.3 88-131.1 105.5z" style="fill:#891814"/><path d="M700.3 328.2s96.8 15.7 187.2-50.3c90.4-66 150.3-113.6 150.3-113.6l-65.1-29.6-141.3 88-131.1 105.5z" class="st17"/><defs><path id="SVGID_00000137121072530677212690000011587520772344990616_" d="M0 0h1238v397.8H0z"/></defs><clipPath id="SVGID_00000164481889991357611490000004493401002630006204_"><use xlink:href="#SVGID_00000137121072530677212690000011587520772344990616_" style="overflow:visible"/></clipPath><path d="M1245.4 274s-68.6-18.5-101.4-23c-32.8-4.5-111.4-9-147.9 14.8s-52.4 47-60.4 62.4c-8 15.4-7.7 19.9-4.2 20.7 3.5.8 11.5-7.5 15.2-14.8 3.7-7.3 5.1-10.8 9.8-14.3 4.7-3.5 16.8-12.2 19.9-15.2l2.8 2.1s-1.2 5.6-5.4 11.5c-4.2 5.8-9.1 17.3-11.5 27.1-2.3 9.8-5.1 18.3-7.3 22.5-2.1 4.2-1.4 7 1.4 8.2 2.8 1.2 7.7-.7 10.3-6.9 0 0-2 5.7 1.7 6.9 3.7 1.2 9.8-1.6 14.2-10.8 0 0-.5 3.1 2.6 3.9 3 .8 8-2 13.8-7.6 5.8-5.6 8.9-7.5 15.9-11.8 7-4.3 9.6-6.4 18.7-10.7 9.1-4.3 30.7-13.8 40.7-21.5 10.1-7.7 92.4 1.8 110 10.6 17.5 8.8 63.6 41.3 63.6 41.3l-2.5-95.4z" style="clip-path:url(#SVGID_00000164481889991357611490000004493401002630006204_);fill:#bb7c29"/><path d="M1245.4 274s-68.6-18.5-101.4-23c-32.8-4.5-111.4-9-147.9 14.8s-52.4 47-60.4 62.4c-8 15.4-7.7 19.9-4.2 20.7 3.5.8 11.5-7.5 15.2-14.8 3.7-7.3 5.1-10.8 9.8-14.3 4.7-3.5 16.8-12.2 19.9-15.2l2.8 2.1s-1.2 5.6-5.4 11.5c-4.2 5.8-9.1 17.3-11.5 27.1-2.3 9.8-5.1 18.3-7.3 22.5-2.1 4.2-1.4 7 1.4 8.2 2.8 1.2 7.7-.7 10.3-6.9 0 0-2 5.7 1.7 6.9 3.7 1.2 9.8-1.6 14.2-10.8 0 0-.5 3.1 2.6 3.9 3 .8 8-2 13.8-7.6 5.8-5.6 8.9-7.5 15.9-11.8 7-4.3 9.6-6.4 18.7-10.7 9.1-4.3 30.7-13.8 40.7-21.5 10.1-7.7 92.4 1.8 110 10.6 17.5 8.8 63.6 41.3 63.6 41.3l-2.5-95.4z" style="clip-path:url(#SVGID_00000164481889991357611490000004493401002630006204_);fill:none;stroke:#7c451c;stroke-width:3"/><path d="m993.9 133.8 100 72.3s32.2 8.8 57.3 43.9l-2.3 7s15.2 25.8 24 49.7c8.8 23.9 14 45.7 3.5 50.3-10.5 4.7-23-1.4-23-1.4s-3.2 12.6-15.4 12.6-20.6.4-30-4.2c0 0-10.8 1.8-19.7-8.8-8.9-10.5-18.9-35.1-28.2-60.8-9.4-25.7-11.7-31.8-11.1-43.1 0 0-21.6-.7-51.5-4.3-29.8-3.5-115.4-11.1-115.4-11.1l78-81.9 33.8-20.2z" class="st20"/><path d="m993.9 133.8 100 72.3s32.2 8.8 57.3 43.9l-2.3 7s15.2 25.8 24 49.7c8.8 23.9 14 45.7 3.5 50.3-10.5 4.7-23-1.4-23-1.4s-3.2 12.6-15.4 12.6-20.6.4-30-4.2c0 0-10.8 1.8-19.7-8.8-8.9-10.5-18.9-35.1-28.2-60.8-9.4-25.7-11.7-31.8-11.1-43.1 0 0-21.6-.7-51.5-4.3-29.8-3.5-115.4-11.1-115.4-11.1l78-81.9 33.8-20.2z" class="st21"/><defs><path id="SVGID_00000111167480377383157280000008766178977993676182_" d="M0 0h1238v397.8H0z"/></defs><clipPath id="SVGID_00000091001474722013655270000010416226680689463459_"><use xlink:href="#SVGID_00000111167480377383157280000008766178977993676182_" style="overflow:visible"/></clipPath><path d="M448.9-225.6S481.7-43.1 516 81.7c34.3 124.8 46.6 206.4 174.7 241.4 128.1 35.1 269.9-158.7 269.9-158.7l76.4-1.6s-1.6-25.7-73.3-63.2c0 0-7.9-26.7-43.7-48.4-35.8-21.8-57.7-24.1-57.7-24.1S859 5.3 796.8-49.3c0 0-48.2-101.3-62.2-150.5l-285.7-25.8z" style="clip-path:url(#SVGID_00000091001474722013655270000010416226680689463459_);fill:#891814"/><path d="M448.9-225.6S481.7-43.1 516 81.7c34.3 124.8 46.6 206.4 174.7 241.4 128.1 35.1 269.9-158.7 269.9-158.7l76.4-1.6s-1.6-25.7-73.3-63.2c0 0-7.9-26.7-43.7-48.4-35.8-21.8-57.7-24.1-57.7-24.1S859 5.3 796.8-49.3c0 0-48.2-101.3-62.2-150.5l-285.7-25.8z" style="clip-path:url(#SVGID_00000091001474722013655270000010416226680689463459_);fill:none;stroke:#5f100f;stroke-width:3"/><path d="M1100.5 335.1s6.1 15.9 7.5 29.5" class="st20"/><path d="M1100.5 335.1s6.1 15.9 7.5 29.5" class="st21"/><path d="M1122.4 328.2s3.3 31.9 4.7 41.4" class="st20"/><path d="M1122.4 328.2s3.3 31.9 4.7 41.4" class="st21"/><path d="M1148.2 330.7s0 18.9 5.1 25.4" class="st20"/><path d="M1148.2 330.7s0 18.9 5.1 25.4" class="st21"/><path d="M982.8 366.5s8-13.1 12.6-18.7c4.7-5.6 5.6-7.7 8.9-9.8 3.3-2.1 7.7-7.6 8.2-8.7" class="st20"/><path d="M982.8 366.5s8-13.1 12.6-18.7c4.7-5.6 5.6-7.7 8.9-9.8 3.3-2.1 7.7-7.6 8.2-8.7" class="st21"/><path d="M966.1 369.7s7.6-15.3 14.5-29.3c6.9-14.1 13.6-20.1 13.6-20.1" class="st20"/><path d="M966.1 369.7s7.6-15.3 14.5-29.3c6.9-14.1 13.6-20.1 13.6-20.1" class="st21"/><defs><path id="SVGID_00000149372172883198911960000000697347936385491379_" d="M0 0h1238v397.8H0z"/></defs><clipPath id="SVGID_00000074414752261813978100000014780620412950205110_"><use xlink:href="#SVGID_00000149372172883198911960000000697347936385491379_" style="overflow:visible"/></clipPath><path d="M879.6 193.9s2.7-13.4 28.1-19.3c25.3-5.9 55-10.2 55-10.2M652.8-34.9s11.1-14.8 32.8-9.3c21.6 5.5 156.5 41.5 175.3 69.6M689.1 102s-6.2-14.1 22-34.5C739.4 47 794 18.4 863 27.3m-85 255.5s29.8-80.7 53.2-119.9c23.4-39.2 100-81.9 131-63.2m-254.4 89s-19.9-4-.6-49.2c19.3-45.2 44.1-91 91.1-110.3M645.8 232.3s1.2 11.3 14.6 9.6c13.5-1.7 70.8-18.1 70.8-18.1m-36.4 29.7s7.2 6.8 24.8-6.9c17.5-13.7 81.9-67.8 81.9-67.8M599 251s-1.2 13.6 28.7 20.1c29.8 6.4 75.5 14 91.8 4.1m-25.3 36.7s80.7-64.8 103.8-101.1m-153 50.7s-5.6 4.6-33.7-33.7c-28.1-38.3-61.2-81.9-67.3-111.7M224.4 356.6S408 313.8 487 273m-74 251.4s49.5-178.8 75.3-249.2M356.8 525.5l116.1-245M331.1 523.2l120.5-234M215.8 417.9l231-126.9M113.5 522l326.6-210.1M177.6 523.2S338.1 394 415.8 358.4M293.7 525.6s47-99.1 103.9-158" style="clip-path:url(#SVGID_00000074414752261813978100000014780620412950205110_);fill:none;stroke:#5f100f;stroke-width:3"/><path d="M278.2-30.6s38 77.2 52.1 101.1c14.1 23.9 97.8 201.9 97.8 201.9M364.8-37.4s55 231.8 88.4 301.8M170.8 85.7s194.2 173.2 237.3 189" style="clip-path:url(#SVGID_00000074414752261813978100000014780620412950205110_);fill:none;stroke:#78100f;stroke-width:3"/><path d="M245.7 280.8S231.9 295 263.2 295c31.4 0 201-25.3 233.3-44" class="st17"/><defs><path id="SVGID_00000177456221390074217800000007464625152318833061_" d="M0 0h1238v397.8H0z"/></defs><clipPath id="SVGID_00000073721844561959593740000006168228030957122999_"><use xlink:href="#SVGID_00000177456221390074217800000007464625152318833061_" style="overflow:visible"/></clipPath><path d="M870.2 133.8s-31.6 30.9-47.5 70.2c-15.9 39.3-26.9 64.1-26.9 64.1m110.4-100.5s-18.9 3.4-27.1 14.9c-8.3 11.5-5.1 18.4-.7 18.4 4.4 0 11-7 21.3-11.8 10.3-4.8 21-6.6 40.2-8.4l-29 29m-95.4 36.9 122.6-65M828.6 205l53.4-25.6m-77.8 93.9 88-54.3m-342.6-49.1s16 59.8 39.8 87.7c23.8 27.9 70.1 68.2 152.1 59.7 0 0 81.5-15.9 159.2-96.4m-220.5 83.8 28.5-19.2s-75.7-2-98.2-15c-22.5-12.9-15.9-22.1-11.7-26m-26.4-26.2 57.7 43.7-66.4-92.4m117 40.7s13.5-73.4 33.7-104.9M664.8 194s14.1-63.7 44-89.1M646 178.8s11.3-58 62.7-88.5m-20.5 172.4s4.2 5.9 29.9-8.1c25.8-14 64.6-44.2 64.6-44.2M651.7 12.5S749 26 750 26s-24.9-14.3-24.9-14.3m-10 177.1s-9.2 9.4-17.6-.3c-8.4-9.7 0-44.3 0-44.3m77.7 39.7s24.3-33.1 35.6-42.1m8 17.3s26.2-34.2 58-47.3m-122.7 83.8s54.3-82.1 54.3-83.3M715.1 175s4.9-53.6 33-78.9M643.5 226.5s-4.5 14.6 1.6 17.4c6.2 2.7 35.6.9 53.8-6.6m-35.1 60.8 29.5-13.5m11 27.3s76.9-64 93.8-93.5c0 0-23.4 45.3-24.8 62.9m11.7 2.5s-1.9 11.2-12.6 11.2M647 291.3l19.4-7.7m-6.7-15.1s3.8-4.1 3.8-15.3m13.7 15.9v-15.9m-71.9-140.9 46.3 113.9m-75.4-107.8 28.3 39.3m-38.3 30.8 39 38.1m-427.1 57.2 47.7-32.8m-54.3 81.4s20.1-41.5 73-69.7m-4.7 11.9s-8.4 10-3.7 20.4c4.7 10.4 45.9 3.9 45.9 3.9m-130.1 92.3 118.9-33.7M143.4 409l90.4-24.3m97.8-39.3-206.8 117m311-157.1L124.3 479.6m293.4-144.5-45.9 31.4m-34.6 17.4L166.8 498.4m97.1-601.9S374.9-20.2 451.6-.7m97.2 66.5" style="clip-path:url(#SVGID_00000073721844561959593740000006168228030957122999_);fill:none;stroke:#af601d"/><path d="m1029.8 217.9 18.4 8.6m-14.2-16.7 20.1 8.6m27.2 61.5 23-10.8m-15.6 20.6 15.9-9.1m53.5 54.2 9.4-4.5m-35.7 5.2 10.3-3m-33.3 3.8 5.3-.8m-164.3-23s7.9-11.3 14-14.4m7 71 4.5 2.4m-18-1.1 3.3 1.9" style="clip-path:url(#SVGID_00000073721844561959593740000006168228030957122999_);fill:none;stroke:#fff1be"/><path d="M491.2-15.2 538 166.6" style="clip-path:url(#SVGID_00000073721844561959593740000006168228030957122999_);fill:none;stroke:#78100f;stroke-width:3"/><path d="M45.5 329.2h72.7l-12.8 12.9c-.6.6-.6 1.5 0 2 .3.3.6.4 1 .4s.7-.1 1-.4l15.2-15.4c.2-.2.3-.5.4-.7v-.4c-.1-.3-.2-.5-.4-.7l-15.2-15.4c-.3-.3-.6-.4-1-.4s-.7.1-1 .4c-.6.6-.6 1.5 0 2l12.8 12.9H45.5c-.8 0-1.4.6-1.4 1.4 0 .7.6 1.4 1.4 1.4z" class="st29"/><path d="M106.4 345.5c-.7 0-1.3-.3-1.7-.7-.9-1-.9-2.5 0-3.4l11.1-11.2H45.5c-1.3 0-2.4-1.1-2.4-2.4s1.1-2.4 2.4-2.4h70.3l-11.1-11.2c-.9-1-.9-2.5 0-3.4s2.5-.9 3.5 0l15.2 15.4c.3.3.6.7.7 1.2v.5l-.1.5c-.1.4-.3.9-.7 1.2L108.1 345c-.4.3-1 .5-1.7.5zm-60.9-18.2c-.2 0-.4.2-.4.4s.2.4.4.4h75.1l-14.5 14.6c-.2.2-.2.5 0 .6.2.2.4.2.6 0l15.2-15.4c.1-.1.1-.1.1-.2v-.2c0-.1-.1-.1-.1-.2L106.7 312c-.2-.2-.4-.2-.6 0s-.2.5 0 .6l14.5 14.6-75.1.1zm76.6.4zM70 50.1H50.8v35.6h-7.2v-42h33.6v42H70V50.1zM83.5 71.7v-1.9c0-9.1 5.5-14.6 14.4-14.6 9 0 14.4 5.4 14.4 14.6v1.9c0 9.1-5.5 14.6-14.4 14.6-9 0-14.4-5.4-14.4-14.6zm21.5 0v-1.9c0-5.4-2.7-8.1-7.1-8.1-4.5 0-7.1 2.6-7.1 8.1v1.9c0 5.4 2.7 8.1 7.1 8.1 4.5 0 7.1-2.5 7.1-8.1zM116.5 71.7v-1.9c0-9 5.6-14.6 14.1-14.6 7.6 0 11.7 4.1 12.9 10.1H136c-.6-2.2-2.7-3.7-5.8-3.7-3.5 0-6.5 2.3-6.5 8.1v1.9c0 5.6 3.1 8.1 6.5 8.1s5.2-1.7 5.8-4h7.4c-1.2 6.3-5.3 10.4-12.9 10.4-8.6.2-14-5.2-14-14.4zM144.7 79.8h.9c2.2 0 4.5-2 4.5-9.9V55.8h22.8v30h-7V61.9H157v8c0 12.2-4.4 16.4-11.5 16.4h-.9v-6.5zM178.9 71.7v-1.9c0-9.1 5.5-14.6 14.1-14.6 8.7 0 14.1 5.6 14.1 15.5V73h-21.2c.4 5 2.9 7.1 7.1 7.1s6-1.7 6.6-3.7h7.2c-1.2 5.6-5.4 9.8-13.8 9.8-8.6.1-14.1-5.4-14.1-14.5zm7.1-4.1h14c-.5-4.4-2.9-6.2-7-6.2-4 0-6.4 1.9-7 6.2zM234.2 85.8h-18.7v7.8h-6.7V79.8h3.2c1.8-2.9 3.1-6.9 3.1-15v-9h22.3v24h3.6v13.8h-6.7v-7.8zm-14.9-6h11.1V61.9h-8.6v2.9c0 8.4-1.2 12.4-2.5 15zM243.7 71.7v-1.9c0-9.1 5.5-14.6 14.4-14.6 9 0 14.4 5.4 14.4 14.6v1.9c0 9.1-5.5 14.6-14.4 14.6-9 0-14.4-5.4-14.4-14.6zm21.4 0v-1.9c0-5.4-2.7-8.1-7.1-8.1-4.5 0-7.1 2.6-7.1 8.1v1.9c0 5.4 2.7 8.1 7.1 8.1 4.6 0 7.1-2.5 7.1-8.1zM278.5 55.8h11.7c9 0 12.3 3.3 12.3 8.5 0 2.4-1.1 4.6-3.7 6 3.4 1.4 4.9 3.9 4.9 6.8 0 5.5-3.3 8.8-12.3 8.8h-12.9V55.8zm6.7 5.5v6.5h5c3.8 0 5-1.2 5-3.2s-1.2-3.2-5-3.2h-5zm0 11.9v7.1h6.2c3.7 0 5-1.3 5-3.5s-1.3-3.5-5-3.5h-6.2zM307.6 77.3c0-6.3 3.8-10.1 13.8-10.1h5v-1.8c0-2.9-1.5-4.4-5-4.4-3.4 0-4.7 1.4-5 3.5h-7.6c.3-5.3 4.2-9.2 12.6-9.2 8 0 12 4 12 10.1v20.4h-5.5l-.7-4.1c-2.1 3-5.5 4.7-9.7 4.7-6.5-.1-9.9-3.5-9.9-9.1zm18.8-3.8v-.9h-5c-4.7 0-6.5 1.7-6.5 4.4 0 2.2 1.4 3.5 3.8 3.5 4.4.1 7.7-3.2 7.7-7zM360.9 73.5h-13.1v12.2h-7v-30h7v11.6h13.1V55.8h7v30h-7V73.5zM395.7 64.6l-2.7 5.6-8.6 15.6h-8.8v-30h7V77l2.7-5.6 8.6-15.6h8.8v30h-7V64.6zM408.7 71.7v-1.9c0-9.1 5.5-14.6 14.1-14.6 8.7 0 14.1 5.6 14.1 15.5V73h-21.2c.4 5 2.9 7.1 7.1 7.1s6-1.7 6.6-3.7h7.2c-1.2 5.6-5.4 9.8-13.8 9.8-8.6.1-14.1-5.4-14.1-14.5zm7-4.1h14c-.5-4.4-2.9-6.2-7-6.2-4 0-6.4 1.9-7 6.2zM477.9 73.5h-13.1v12.2h-7v-30h7v11.6h13.1V55.8h7v30h-7V73.5zM490.9 71.7v-1.9c0-9.1 5.5-14.6 14.4-14.6 9 0 14.4 5.4 14.4 14.6v1.9c0 9.1-5.5 14.6-14.4 14.6-9 0-14.4-5.4-14.4-14.6zm21.4 0v-1.9c0-5.4-2.7-8.1-7.1-8.1-4.5 0-7.1 2.6-7.1 8.1v1.9c0 5.4 2.7 8.1 7.1 8.1 4.6 0 7.1-2.5 7.1-8.1zM542.1 76.3c-1.6.3-3.4.5-5.6.5-8.9 0-12.6-3.7-12.6-12.1v-9h7v9c0 4.5 1.4 5.9 5.6 5.9 2.2 0 4.1-.2 5.6-.5V55.8h7v30h-7v-9.5zM576.9 73.5h-13.1v12.2h-7v-30h7v11.6h13.1V55.8h7v30h-7V73.5zM589.9 71.7v-1.9c0-9.1 5.5-14.6 14.4-14.6 9 0 14.4 5.4 14.4 14.6v1.9c0 9.1-5.5 14.6-14.4 14.6-9 0-14.4-5.4-14.4-14.6zm21.4 0v-1.9c0-5.4-2.7-8.1-7.1-8.1-4.5 0-7.1 2.6-7.1 8.1v1.9c0 5.4 2.7 8.1 7.1 8.1 4.6 0 7.1-2.5 7.1-8.1zM624.7 55.8h21v6.1h-14v23.9h-7v-30zM647.5 71.7v-1.9c0-9.1 5.5-14.6 14.4-14.6 9 0 14.4 5.4 14.4 14.6v1.9c0 9.1-5.5 14.6-14.4 14.6-9 0-14.4-5.4-14.4-14.6zm21.4 0v-1.9c0-5.4-2.7-8.1-7.1-8.1-4.5 0-7.1 2.6-7.1 8.1v1.9c0 5.4 2.7 8.1 7.1 8.1 4.6 0 7.1-2.5 7.1-8.1zM70 122.1H50.8v35.6h-7.2v-42h33.6v42H70v-35.6zM83.2 149.3c0-6.3 3.8-10.1 13.8-10.1h5v-1.8c0-2.9-1.5-4.4-5-4.4-3.4 0-4.7 1.4-5 3.5h-7.6c.3-5.3 4.2-9.2 12.6-9.2 8 0 12 4 12 10.1v20.4h-5.5l-.7-4.1c-2.1 3-5.5 4.7-9.7 4.7-6.5-.1-9.9-3.5-9.9-9.1zm18.8-3.8v-.9h-5c-4.7 0-6.5 1.7-6.5 4.4 0 2.2 1.4 3.5 3.8 3.5 4.4.1 7.7-3.2 7.7-7zM114.7 143.7v-1.9c0-9 5.6-14.6 14.1-14.6 7.6 0 11.7 4.1 12.9 10.1h-7.4c-.6-2.2-2.7-3.7-5.8-3.7-3.5 0-6.5 2.3-6.5 8.1v1.9c0 5.6 3.1 8.1 6.5 8.1s5.2-1.7 5.8-4h7.4c-1.2 6.3-5.3 10.4-12.9 10.4-8.7.2-14.1-5.2-14.1-14.4zM156.6 147.7l-6.8 10.1H142l10.4-15.2-9.9-14.8h8l6.3 9.5 6.4-9.5h7.7l-9.9 14.6 10.4 15.4h-8l-6.8-10.1zM172.9 149.3c0-6.3 3.8-10.1 13.8-10.1h5v-1.8c0-2.9-1.5-4.4-5-4.4-3.4 0-4.7 1.4-5 3.5h-7.6c.3-5.3 4.2-9.2 12.6-9.2 8 0 12 4 12 10.1v20.4h-5.5l-.7-4.1c-2.1 3-5.5 4.7-9.7 4.7-6.5-.1-9.9-3.5-9.9-9.1zm18.8-3.8v-.9h-5c-4.7 0-6.5 1.7-6.5 4.4 0 2.2 1.4 3.5 3.8 3.5 4.4.1 7.7-3.2 7.7-7zM202.9 151.8h.9c2.2 0 4.5-2 4.5-9.9v-14.2h22.8v30h-7v-23.9h-8.9v8c0 12.2-4.4 16.4-11.5 16.4h-.9v-6.4zM238.9 127.8h7v9h5c9.2 0 13.2 4 13.2 10.5s-4 10.5-13.2 10.5h-12v-30zm6.9 14.7v9.6h5.3c3.8 0 5.6-1.7 5.6-4.8 0-3.1-1.7-4.8-5.6-4.8h-5.3zM288.9 145.5h-13.1v12.2h-7v-30h7v11.6h13.1v-11.6h7v30h-7v-12.2zM301.9 143.7v-1.9c0-9.1 5.5-14.6 14.4-14.6 9 0 14.4 5.4 14.4 14.6v1.9c0 9.1-5.5 14.6-14.4 14.6-9 0-14.4-5.4-14.4-14.6zm21.4 0v-1.9c0-5.4-2.7-8.1-7.1-8.1-4.5 0-7.1 2.6-7.1 8.1v1.9c0 5.4 2.7 8.1 7.1 8.1 4.6 0 7.1-2.5 7.1-8.1zM336.7 127.8h21v6.1h-14v23.9h-7v-30zM359.5 143.7v-1.9c0-9.1 5.5-14.6 14.4-14.6 9 0 14.4 5.4 14.4 14.6v1.9c0 9.1-5.5 14.6-14.4 14.6-9 0-14.4-5.4-14.4-14.6zm21.4 0v-1.9c0-5.4-2.7-8.1-7.1-8.1-4.5 0-7.1 2.6-7.1 8.1v1.9c0 5.4 2.7 8.1 7.1 8.1 4.6 0 7.1-2.5 7.1-8.1zM41.5 213.3v-3.1c0-8.9 2.1-16.3 8.2-19.6 5.4-2.9 10.1-1.1 18.2-3.4v6c-6 2-11.2.5-15.2 2.8-2.5 1.4-3.9 3.7-4.6 8 2.2-2.8 5.5-4.2 9.2-4.2 7.7 0 12.9 5.2 12.9 14.3v1.9c0 8.8-5.5 14.3-14.4 14.3s-14.3-5.4-14.3-17zm7.3.5v2.3c0 5 2.8 7.8 7.1 7.8s7.1-2.8 7.1-7.8v-1.9c0-5-2.8-7.8-7.1-7.8-4.2-.1-7 2.6-7.1 7.4zM74.5 215.7v-1.9c0-9.1 5.5-14.6 14.4-14.6 9 0 14.4 5.4 14.4 14.6v1.9c0 9.1-5.5 14.6-14.4 14.6-9 0-14.4-5.4-14.4-14.6zm21.5 0v-1.9c0-5.4-2.7-8.1-7.1-8.1-4.5 0-7.1 2.6-7.1 8.1v1.9c0 5.4 2.7 8.1 7.1 8.1 4.5 0 7.1-2.5 7.1-8.1zM109.3 199.8h21v6.1h-14v23.9h-7v-30zM132.1 215.7v-1.9c0-9.1 5.5-14.6 14.4-14.6 9 0 14.4 5.4 14.4 14.6v1.9c0 9.1-5.5 14.6-14.4 14.6-9 0-14.4-5.4-14.4-14.6zm21.4 0v-1.9c0-5.4-2.7-8.1-7.1-8.1-4.5 0-7.1 2.6-7.1 8.1v1.9c0 5.4 2.7 8.1 7.1 8.1 4.6 0 7.1-2.5 7.1-8.1zM165.1 215.7v-1.9c0-9 5.6-14.6 14.1-14.6 7.6 0 11.7 4.1 12.9 10.1h-7.4c-.6-2.2-2.7-3.7-5.8-3.7-3.5 0-6.5 2.3-6.5 8.1v1.9c0 5.6 3.1 8.1 6.5 8.1s5.2-1.7 5.8-4h7.4c-1.2 6.3-5.3 10.4-12.9 10.4-8.7.2-14.1-5.2-14.1-14.4zM193.3 223.8h.9c2.2 0 4.5-2 4.5-9.9v-14.2h22.8v30h-7v-23.9h-8.9v8c0 12.2-4.4 16.4-11.5 16.4h-.9v-6.4zM237.7 229.8l-12.1-30h7.6l8.2 21.5 7.7-21.5h7.2l-15.9 42h-7.2l4.5-12zM285.8 217.2h-2.9v12.5h-7v-12.5h-3l-6.8 12.5h-8l8.8-15.4-7.8-14.6h8l5.7 11.3h3.1v-11.3h7V211h3l5.8-11.3h7.9l-7.6 14 8.7 16h-8.4l-6.5-12.5zM301.9 215.7v-1.9c0-9.1 5.5-14.6 14.1-14.6 8.7 0 14.1 5.6 14.1 15.5v2.3h-21.2c.4 5 2.9 7.1 7.1 7.1s6-1.7 6.6-3.7h7.2c-1.2 5.6-5.4 9.8-13.8 9.8-8.6.1-14.1-5.4-14.1-14.5zm7-4.1h14c-.5-4.4-2.9-6.2-7-6.2-4 0-6.4 1.9-7 6.2zM356.1 217.5H343v12.2h-7v-30h7v11.6h13.1v-11.6h7v30h-7v-12.2zM390.9 208.6l-2.7 5.6-8.6 15.6h-8.8v-30h7V221l2.7-5.6 8.6-15.6h8.8v30h-7v-21.2zM417.4 199.8h11.1v30h-7v-9.7h-4.1c-.7 0-1.3 0-2-.1l-4.9 9.8h-7.8l6.1-11.1c-3.7-1.7-5.2-4.7-5.2-8.8 0-6.4 3.7-10.1 13.8-10.1zm0 14.6h4.1v-9h-4.1c-4.9 0-6.4 1.6-6.4 4.5-.1 3 1.5 4.5 6.4 4.5z" class="st29"/></svg>