<svg xmlns="http://www.w3.org/2000/svg" xmlns:xlink="http://www.w3.org/1999/xlink" viewBox="0 0 750 428"><defs><style>.a{fill:none;}.b{clip-path:url(#a);}.c{fill:#ac1917;}.d{fill:#ce6a48;}.e{fill:#8f5900;}.f{fill:#59120f;}.g{fill:#881811;}</style><clipPath id="a"><rect class="a" width="750" height="428"/></clipPath></defs><g class="b"><rect class="c" width="750" height="428"/><path class="d" d="M566.92-1.37,555.44,14.17l-4.72,116.49s37.8-52.91,52-86.93c12.23-29.33,13.91-35.48,19-45.1Z"/><path class="e" d="M549,135.63l5-122,18.72-25.33,54.23,4L625.73-5.6c-5,8.73-6.6,12.76-11.39,24.73C612,25,608.81,33,604.08,44.31,590,78.09,552.32,131,551.94,131.53Zm7.91-120.94-4.5,110.93c9.14-13.15,37.23-54.5,48.89-82.46C606,31.83,609.22,23.84,611.55,18,615.89,7.18,617.73,2.57,622-5L574.11-8.57Z"/><path class="d" d="M752,311.81s-28.35-7.83-69-22.68-47-17.68-79.26-15.79-56.29-4.1-67.79-3.78c-11.34.31-18.68,1.15-28.35,4-10.6,3.09-12.64,4.8-21.26,13s-20,18.44-14.18,21.73c3.67,2.08,11.7-2.65,21.27-12.1s33.64-12.47,33.64-12.47l.95,2.57s-17.5,6.61-27.41,14.17c-11.15,8.51-19.09,19-16.82,21.26,4,4,9.38,1.42,9.38,1.42s-.24,8.5,8.38,5.67c0,0,2.91,4.23,10.59,1.4s12.66-7.07,22.11-9.91,18.34,1.22,33.46,1.22,30.24-1.89,43.47-2.84,44.65,6.08,69.1,18.63,79.27,40.9,79.27,40.9L752,311.81Z"/><path class="e" d="M761.38,380.84l-2.5-1.29c-.55-.28-55.09-28.49-79.26-40.89-23.53-12.08-54.9-19.42-68.32-18.47-3.84.27-7.79.62-12,1-10.23.91-20.82,1.85-31.59,1.85a117.35,117.35,0,0,1-16.19-1.31c-6.48-.86-11.59-1.54-16.84,0a68,68,0,0,0-12.88,5.6,75.37,75.37,0,0,1-9.14,4.28c-6.5,2.4-10.11.22-11.57-1.11-2.7.7-4.92.43-6.6-.82a7.37,7.37,0,0,1-2.62-4.54,9.37,9.37,0,0,1-9.15-2.37,3,3,0,0,1-.81-2.46c.3-4.43,8.12-13.67,17.79-21.05,8.45-6.45,22-12.1,26.4-13.84l0-.05c-4.88.75-23.68,4.06-31.6,11.88-6.1,6-17.22,15.65-23.06,12.33a4.31,4.31,0,0,1-2.31-3.29c-.55-4.52,5.68-10.84,14.55-19.27l1.64-1.56c8.73-8.33,11-10.2,21.88-13.39,10.29-3,18-3.73,28.73-4,4.15-.1,9.74.55,16.82,1.4,12.72,1.52,30.15,3.6,50.92,2.38,31.42-1.84,39,1,75.69,14.36l4.18,1.52c40.11,14.66,68.58,22.57,68.87,22.65l1,.26ZM613.73,317.11c14.95,0,44.7,7.3,67.26,18.88,21.2,10.88,65.76,33.91,76.77,39.61L750.63,313c-5.34-1.51-32.06-9.26-68.12-22.44L678.33,289c-37-13.54-43.68-16-74.49-14.18-21,1.24-38.61-.86-51.44-2.39-7-.83-12.44-1.5-16.38-1.38-10.45.29-18,1-28,3.91-10.28,3-12.19,4.61-20.64,12.68l-1.65,1.57c-5.93,5.64-14.05,13.36-13.64,16.73a1.33,1.33,0,0,0,.81,1c2.36,1.34,9.3-1.8,19.47-11.85,9.82-9.7,33.51-12.77,34.51-12.9l1.19-.14,1.87,5.08-1.39.52c-.18.07-17.41,6.63-27,14-11.77,9-17,17.45-16.62,19.05,3.16,3.12,7.44,1.16,7.62,1.07l2.21-1-.06,2.43c0,.79.24,3.09,1.62,4.11,1,.77,2.65.8,4.8.09l1.06-.35.64.93c.08.11,2.45,3.2,8.83.84a71.51,71.51,0,0,0,8.78-4.12,70.82,70.82,0,0,1,13.42-5.81c5.87-1.76,11.53-1,18.09-.14a113,113,0,0,0,15.8,1.29c10.64,0,21.16-.93,31.33-1.83,4.19-.38,8.16-.73,12-1Q612.32,317.11,613.73,317.11Z"/><path class="f" d="M4.49,438.69s-9.57-13.23,11.34-103S61.19,200.58,61.19,200.58s-24.57-12-9.45-57.63,33.19-84.1,31.18-154L431.64-15.8s20.23,44.34,61.81,42.71S557.52,9.34,557.52,9.34s22.37,132.66-38,189.35c0,0-34.85,101.78-116.24,133l51,108.93L4.49,438.69Z"/><path class="e" d="M456.69,441.81l-453-1.9-.45-.62c-3.7-5.12-5.53-32.83,11.1-104.21,16.15-69.35,36-117.25,44.83-134.22a29.11,29.11,0,0,1-9.75-11.61c-7.26-14.85-3.53-33.79.86-47.06,2.27-6.82,4.62-13.57,6.9-20.1C70.54,83.93,83.13,47.9,81.43-11.31l-.05-1.52L432.6-17.59l.41.89c.19.42,19.6,41.87,58.25,41.87.7,0,1.41,0,2.13,0,32.48-1.27,55.58-11.87,63.26-17.3l2-1.38.4,2.36a385.79,385.79,0,0,1,3.66,73.73c-1.79,36.9-10.5,87.05-41.84,116.71A288.43,288.43,0,0,1,493.19,254c-17.14,26.64-46.24,61.67-87.86,78.18ZM5.44,436.91,452,438.79,401.25,330.55l1.5-.58c23-8.81,56.89-29.4,87.88-77.52a282.58,282.58,0,0,0,27.48-54.53l.12-.35.27-.25c30.81-28.94,39.39-78.43,41.16-114.86a390.73,390.73,0,0,0-3.27-70.89c-6.4,3.89-27.82,15.19-62.88,16.56-38.79,1.48-59.59-36.36-62.8-42.7L84.46-9.87C85.92,49,73.35,85,60.05,123.08c-2.28,6.51-4.63,13.26-6.89,20-14.48,43.7,7.74,55.35,8.69,55.82l1.39.69L62.51,201C54.08,216.65,33.78,265,17.29,335.76,6.78,380.88,4.18,406.08,3.84,419.27,3.56,430.57,4.84,435.33,5.44,436.91Z"/><path class="d" d="M522.34,155.9s-10.39,6.89-25.51,31.19C486.18,204.2,482.66,211,482.66,211s32,17,56.69,25.51,24.57,12.28,28.35,18.9,1.89,17.27,6.61,31.18,11.58,20.78,12.4,26.45,2.84,23.09,5.67,27.14S602.66,343,602.66,343s5.67,2.84,10.39-2.83c0,0,10.16,2,14.76-4.84s7-24.86,3.38-34.58,12.47,14.49,17.88,31.75c3.06,9.75,7.44,11,11.22,7.93s2.13-13.9-5.55-28.34-15-36.44-25.51-51.29-10.63-19.17-29.41-34-33-28.35-77.48-70.87Z"/><path class="e" d="M606,345.2a9.46,9.46,0,0,1-3.57-.67c-1.82.22-8.36.66-11.28-3.51-2.45-3.51-4.14-14.69-5.52-24.91-.16-1.13-.29-2.11-.4-2.87-.34-2.33-2-5.13-4-8.67a92.58,92.58,0,0,1-8.32-17.52,85.1,85.1,0,0,1-3.75-18.79c-.57-5.1-1-9.12-2.75-12.13-.37-.65-.7-1.27-1-1.88-2.86-5.33-4.75-8.85-26.5-16.34-24.51-8.45-56.59-25.44-56.91-25.61l-1.31-.7.69-1.32c.14-.27,3.67-7,14.23-24,15.11-24.29,25.52-31.35,25.95-31.64l1-.66.87.83c43.7,41.73,58.42,55.79,77.37,70.77,14.66,11.6,18.1,16.85,23.79,25.56,1.65,2.53,3.52,5.38,5.92,8.77,6.74,9.52,12,21.62,17.17,33.32,2.9,6.63,5.65,12.88,8.44,18.13,7.86,14.8,9.85,26.38,5.18,30.21-2.55,2.09-4.78,2-6.2,1.6-3.07-.91-5.56-4.36-7.41-10.24-3.09-9.86-9.63-21.82-13.85-28.35,2,10.56-.53,25.3-4.73,31.57-4.32,6.46-12.7,6-15.43,5.61A10.35,10.35,0,0,1,606,345.2ZM604.25,342c1.54.4,4.77.68,7.65-2.77l.16-.2a52.37,52.37,0,0,0,4.22-24.21c-.75-7.9-.76-15.92-.76-16h3c0,.08,0,8,.75,15.71a56.19,56.19,0,0,1-3.9,24.41c3,.15,8.37-.2,11.2-4.42,4.3-6.43,6.68-24,3.22-33.22-.68-1.81-.9-2.88-.22-3.68a1.66,1.66,0,0,1,1.6-.54c3.5.71,15.85,23.86,19.34,35,2,6.39,4.24,7.92,5.4,8.27a3.71,3.71,0,0,0,3.43-1c2.82-2.32,1.7-12.16-5.92-26.49-2.85-5.35-5.61-11.66-8.54-18.33-5.07-11.57-10.31-23.52-16.87-32.79-2.43-3.44-4.32-6.32-6-8.87-5.53-8.45-8.86-13.55-23.14-24.84-18.93-15-33.6-29-76.66-70.08-2.86,2.3-12,10.48-24.13,30-7.93,12.74-11.91,19.77-13.4,22.47,6.32,3.3,33.68,17.33,55.14,24.72,22.86,7.88,25.08,12,28.17,17.76.31.59.63,1.19,1,1.81,2,3.54,2.53,8.06,3.12,13.28a82,82,0,0,0,3.61,18.16,89.11,89.11,0,0,0,8.08,17c2.21,3.82,4,6.84,4.39,9.75.11.77.24,1.76.4,2.9.9,6.62,2.77,20.39,5,23.59,1.56,2.22,5.38,2.48,7.65,2.33.38-4.72.88-14.39,0-17.82-.87-3.17-1-21.77-1-23.88l3,0c0,8.13.32,21,.89,23.11C605.27,327.31,604.53,338.34,604.25,342Z"/><path class="g" d="M604.58,276.06a5.34,5.34,0,1,0-5.34-5.34,5.34,5.34,0,0,0,5.34,5.34Z"/><path class="e" d="M604.58,277.28a6.84,6.84,0,1,1,6.83-6.84A6.85,6.85,0,0,1,604.58,277.28Zm0-10.67a3.84,3.84,0,1,0,3.83,3.83A3.84,3.84,0,0,0,604.58,266.61Z"/><path class="e" d="M21.22,430.62l-5-.07c0-.59,1.24-59.25,36.19-126.09,35.24-67.4,51.06-82.21,84.64-79.25,25.16,2.22,50.25,31.44,76.7,89.33,11.73,25.67,22.91,40,34.19,44,9.81,3.4,18.92-1.27,28.56-6.22l.92-.47,2.28,4.45-.92.47c-10.15,5.21-20.65,10.59-32.48,6.49-12.81-4.45-24.6-19.26-37.1-46.62-25.63-56.1-49.38-84.37-72.59-86.42-31.23-2.76-45.39,10.85-79.77,76.59S21.23,430.05,21.22,430.62Z"/><path class="e" d="M113.38,417.6c-6.87,0-13.18-.32-18.83-.81C65.81,414.27,47.92,407,47.18,406.7l-1.86-.76.35-2c.06-.37,6.67-37.43,18-65.69,4-9.87,6.43-16.85,8.61-23,4.15-11.68,7.42-20.9,17.92-42.36,16.59-33.87,35.56-33.56,36.36-33.52l-.16,5h0c-.39,0-16.79.3-31.69,30.73C84.29,296.3,81.05,305.4,77,316.93c-2.2,6.2-4.69,13.23-8.68,23.2-9.6,24-15.77,54.56-17.31,62.66,5.3,1.89,21.4,7.06,44.22,9a219.49,219.49,0,0,0,109.58-19.15l2.07,4.55A225.52,225.52,0,0,1,113.38,417.6Z"/><path class="e" d="M238.56,338c-19.34-48.45-52.27-86.79-52.6-87.17l3.09-3.83a140.58,140.58,0,0,0,32.12,12.4c37.82,9.71,73.66,4.39,74,4.33l1.75,4.57a71.4,71.4,0,0,1-18,7.64,46.26,46.26,0,0,1,6.71,9.24l-4.45,2.27,2.22-1.14-2.22,1.14a45.87,45.87,0,0,0-7.86-10.11c-2.64.57-5.47,1.05-8.47,1.4-2.09.24-4.31.42-6.65.51,9.75,11,13.87,19.4,14.11,19.88l-4.5,2.18c-.06-.12-4.9-9.86-16.41-22.08a89.63,89.63,0,0,1-18.23-2.67,281.19,281.19,0,0,1,25,39.54l-4.47,2.26c-.15-.3-12.71-24.91-29-44.38a107.56,107.56,0,0,1-23.56-11.9c11.6,15.74,29.63,42.84,42.1,74.06Z"/><path class="e" d="M208.72,260.9c2.51,1.49,5.16,2.92,7.92,4.25-.91-.9-1.83-1.77-2.75-2.61C212.15,262,210.42,261.47,208.72,260.9Z"/><path class="e" d="M334.71,322.85c-.8,3.44-19.67,84.51-22.61,108.93l5,.6c2.9-24.15,22.31-107.56,22.51-108.4Z"/><rect class="e" x="210.88" y="344.41" width="181.79" height="5" transform="translate(-119.09 532.06) rotate(-72.73)"/><path class="e" d="M378.87,432.44l-2.19-4.5,16.64-8.14c-1.77-3.68-3.61-7.74-5.47-12l-31.73,14.3-2.05-4.55,31.82-14.35c-1.45-3.43-2.9-7-4.33-10.56L361,403.12l-2.27-4.45,21-10.74c-1.34-3.42-2.65-6.86-3.91-10.24L362,385.15l-2.37-4.41L374.05,373c-6.09-16.63-10.74-31.25-11.5-36.42-1.46-9.89,2.2-38,2.35-39.23l1.12-8.54,3.63,7.81c.44,1,44.48,95.83,52.85,111.65l1.21,2.28Z"/><path class="e" d="M429.13,298.23l-2.32-4.43L428,296l-1.17-2.21c.09-.05,8.8-4.73,20.68-16.7,11-11.05,26.95-30.76,40.83-61.86l4.57,2c-14.25,31.93-30.74,52.18-42.06,63.55C438.45,293.26,429.51,298,429.13,298.23Z"/><path class="e" d="M265.21,237.84l-5-.77c-28.86-4.44-68.75-13.44-69.15-13.53l1.1-4.88c.38.09,35.72,8.06,63.8,12.67-8.19-14.94-35.1-63.65-51.63-88.89-22.94-18.25-44.44-21.11-68.32-9.53-2.48,1.2-5,2.44-7.47,3.67-23.82,11.77-48.39,23.9-61,10.2-6.84,22.92-1.33,32.17,1,34.81,2.2-1,7.88-4,20.83-12,5.65-3.49,10.38-6.53,14.56-9.22,19.6-12.59,26.2-16.84,47.3-15.21,25.75,2,34.79,21.42,35.16,22.25l1.81,4-4.38-.52c-15.87-1.87-32.88-3.76-33.05-3.78l.55-5c.15,0,13.77,1.53,28,3.19-3.86-5.31-12.53-14-28.48-15.22-19.43-1.5-24.68,1.88-44.21,14.44-4.2,2.69-9,5.75-14.64,9.26-18.81,11.62-22.91,12.95-23.32,13.07l-1.09.3-1-.62c-.48-.31-4.71-3.3-6.56-11.71-2.35-10.67.14-25,7.39-42.62C83.52,93.2,91.7,62.15,94.65-8.61l5,.21c-3,71.5-11.27,103-27.59,142.58-1,2.4-1.86,4.68-2.63,6.86,2.94,4.59,7.13,6.67,12.5,6.86l-.9-.5C113.4,89.13,112.61-5.37,112.6-6.32l5-.06c0,1,.79,94.47-31,154,10.09-1.33,23.45-7.49,39.76-15.55,2.51-1.24,5-2.48,7.51-3.69,29.46-14.28,56.49-7.83,85.05,20.31,31.22,30.77,64.86,85.22,65.19,85.77l-4.26,2.61c-.32-.52-31.66-51.25-61.63-82,19.53,32.14,44.31,77.76,44.61,78.3Z"/><path class="e" d="M231.76,210.1l-4.6-.7c-36.91-5.59-75.06-9.13-75.44-9.16l.46-5c.36,0,35.5,3.29,71,8.5-1.67-3.32-4.28-8.34-7.59-14.16-21.08-4.07-48.1-6.28-48.38-6.31l.41-5c.25,0,24.09,2,44.64,5.59-10.71-17.87-26.63-40-42.23-45.2l1.58-4.74c29,9.68,57,69.38,58.17,71.92Z"/><path class="e" d="M347.67,193.14a44.27,44.27,0,0,1-8.16-.76c-26.68-5.07-41-21.91-55.15-47.46a200.8,200.8,0,0,1-35.65-30.48A432.22,432.22,0,0,0,277,165.86l-4.16,2.77c-.21-.32-21.3-32.26-35.4-67.84a160,160,0,0,1-10-15.17c-22-37.68-31.08-57.55-36-72.44,12,72.18,40.91,128,41.23,128.61l-4.43,2.31c-.35-.67-35.29-68.19-44.68-151.11l2.45-.28c-.07-.28-.13-.57-.2-.86l-.32-1.43,4.88-1.09.32,1.43c4.43,19.79,7.93,35.43,41.1,92.34C265,140.16,326.94,161.83,327.56,162L326,166.78c-.3-.1-14.16-4.94-32.34-15.94,14,22.72,27.36,32.93,46.84,36.63,28,5.31,51.33-23.13,51.56-23.42l3.89,3.14C395,168.35,374.67,193.14,347.67,193.14Z"/><path class="e" d="M531.36,168.44c-.05-.12-1.51-2.9-12.53-12.25-16.88-14.34-27.2-22-42.82-33.57-6.57-4.88-14-10.41-23.21-17.37-34.31-26-70.77-57.83-94.89-78.91l-5.28-4.61C323.37-3.81,223-.37,222-.34l-.18-5C226-5.49,325.17-8.87,355.91,18l5.29,4.61,4,3.51-4.1-31.16,5-.65,4.83,36.78q4.21,3.68,8.75,7.6L376-2.61l5-.45,4.12,46.41,6.1,5.24-2.57-51,5-.25,2.8,55.75c18.61,15.87,39.38,33.05,59.4,48.21,9.17,6.94,16.61,12.46,23.17,17.33,15.14,11.23,26.07,19.34,43.08,33.78,4.94,4.2,13.34,11.67,14,14.54l-4.86,1.18A2,2,0,0,0,531.36,168.44Z"/><path class="e" d="M157.13,110.65C157,110.13,140,57.56,140-6.35h5c0,63.08,16.71,114.93,16.88,115.45Z"/><path class="e" d="M503.05,328.74l-2.75-1.19c.16-.39,4.31-9.66,20.59-17.1,15.82-7.24,20.82-7.25,21.36-7.22l-.13,3s-4.86,0-20,7S503.08,328.66,503.05,328.74Zm-8.91-4.8-2.56-1.58c.6-1,15-24,41.84-28.77l.52,3C508.49,301.09,494.28,323.71,494.14,323.94Z"/><path class="e" d="M402.46,119.32c-36-25.51-88.69-95.61-88.69-95.61,14.67,2.81,24.89,6.37,32.82,12.53C374.94,58.24,428,107.1,428,107.1a210.27,210.27,0,0,1-29.83,15.66Z"/><path class="e" d="M188,380.31a235.55,235.55,0,0,1-82,12.58l-.06,2.49.06-2.49-.63,0q.11-7.94.3-15.44c43.22.78,71.22-7.13,71.56-7.23l-1.39-4.81c-11,3.19-36.9,7.63-70,7q.3-9,.73-17.39a348.87,348.87,0,0,0,59.67-3.9l-.87-4.92A342.17,342.17,0,0,1,106.81,350q.45-7.59,1-14.62a361.29,361.29,0,0,0,50.15-2.9l-.73-4.95a359.85,359.85,0,0,1-49,2.86q.69-7.57,1.53-14.46a223.73,223.73,0,0,0,42.58-2.36l-.84-4.93a224.77,224.77,0,0,1-41.1,2.3q1.17-8.69,2.61-16.17c16.51,1.78,34.44,0,35.38-.08l-.5-5c-.22,0-17.89,1.75-33.87.12q1.24-5.82,2.69-10.83c.37-1.32.75-2.55,1.12-3.71a134.31,134.31,0,0,0,26.73.74l-.4-5a132.93,132.93,0,0,1-24.64-.56c4.22-11,7.76-12.79,7.8-12.81l-.15.06L126,252.92c-1.84.32-18.52,4.64-36,58.39C85,326.89,80.89,337.89,77.6,346.72c-6,16-9.57,25.68-12.11,44.12l-.3,2.22,2.18.55c.61.15,15.28,3.76,38.49,4.27h0c1.89.05,3.77.07,5.64.07A239.65,239.65,0,0,0,189.61,385Z"/><path class="e" d="M495.83,157.32c-.76.6-18.24,15-35,47.52-4.86.73-30.36,4.75-47.3,11.06.59-2.52,1.16-5.2,1.78-8.06,1.75-8.1,3.92-18.18,7.36-30.19,4.54-15.9,10.68-27.05,16.31-34.66l17.28,12.7a172.31,172.31,0,0,0-22.49,15.58l3.22,3.82c.24-.19,23.7-19.8,45.42-25.26l5.22-1.32-34.84-25.06-1.36.71c-.9.46-22.07,11.86-33.57,52.11-3.48,12.18-5.67,22.35-7.44,30.52-4.09,18.94-6.14,28.45-17.08,36A29.64,29.64,0,0,1,385,247l-7.64-2.42c-11.88-3.76-25.34-8-36.56-11.38-24-7.18-40-10.56-44.4-11.44-1.11-2.11-3.78-7.11-7.63-13.67l64.72,21.11,1.55-4.76-70.2-22.9c-2.85-4.64-6.13-9.73-9.72-14.94,18,8.7,60,27.52,101.35,35.39l.94-4.92c-53.67-10.2-108.48-39.14-109-39.43l-3.18,3.7a341.35,341.35,0,0,1,27.29,43.78l.56,1.1,1.22.23c.17,0,17.11,3.18,45.09,11.54,11.18,3.34,24.62,7.6,36.48,11.36l8.38,2.65,0,.25a3.89,3.89,0,0,0,.55-.07c18.61,5.87,26.81,8.32,29,8.32,3.5,0,12.45-5.48,20.82-12.76a125.72,125.72,0,0,0,29.6-38.43c16.53-33,34.57-47.91,34.75-48.06Zm-82,98.13c-1.62-.07-10.75-2.83-21.5-6.2a42.54,42.54,0,0,0,3.88-2.39c9.21-6.31,13-14.14,16-25.33l.11.25c13.62-5.73,36.3-9.87,45.73-11.43C441.4,241.23,417,255.08,413.82,255.45Z"/><path class="e" d="M429.67,105.26c-.54-.48-53.44-49.19-81.54-71-7.82-6.06-17.95-9.95-33.89-13L307.88,20l.09.13c-4.24-.69-8.57-1.29-12.93-1.79l-.14-.17-.16.13c-33-3.77-66.89-2.62-67.29-2.61l.18,5a524.07,524.07,0,0,1,59.59,1.85c-14.68,6-38.4,7.52-38.69,7.53l.3,5C250.24,35,282,33,296.12,23.53c5.52.66,11,1.48,16.24,2.46,1,1.3,3.16,4.14,6.26,8.1-45.19,9.84-80.17,10-80.57,10v5c.41,0,37.1-.14,84-10.62,4,5,8.93,11.16,14.5,17.83a253,253,0,0,1-42,8.23,325,325,0,0,1-37.73,2.23l-.08,5h1.67c8.63,0,47.53-.62,81.62-11.27l2.62,3.09q6.87,8,13.27,15.14a237.7,237.7,0,0,1-34.76,7.78,371.44,371.44,0,0,1-38.95,3.88l.17,5c2.26-.07,44.33-1.62,77.26-12.55q8.3,9,15.76,16.41c-33.69,12.62-69.9,12-70.37,11.93l-.12,5c.23,0,.94,0,2.07,0,8.62,0,41.6-.86,72.42-13.06a211.72,211.72,0,0,0,18.89,16.3l-1.44,1.14c-39.15,14.53-62.61,17-62.84,17.07l.5,5c1-.1,24.4-2.6,64.45-17.5l-.28-.77.43.71a212.52,212.52,0,0,0,30.14-15.82l2.77-1.74Z"/><path class="e" d="M531.23,161.93l-4.55-2.07c12-26.46,16-60.71,17.14-84.78a398.47,398.47,0,0,0-.35-46.53l5-.41a407.28,407.28,0,0,1,.36,47.12C547.62,99.78,543.6,134.73,531.23,161.93Z"/><path class="e" d="M445.36,83.34c-4.81,0-9.11-4-12.74-8-8.93-9.82-12.11-28.46-15.48-48.2-.4-2.29-.79-4.6-1.2-6.9-3.75-21.33-4.6-31-4.63-31.41l5-.42c0,.1.87,9.89,4.58,31q.6,3.47,1.19,6.93c3.25,19,6.32,36.94,14.26,45.68,4.26,4.69,7.34,6.68,9.7,6.26,3.24-.58,6.88-5.84,10.81-15.64a239.62,239.62,0,0,0,12-39.6l4.91.94a245,245,0,0,1-12.3,40.53c-4.81,12-9.3,17.74-14.57,18.69A9,9,0,0,1,445.36,83.34Z"/><polygon class="e" points="441.39 58.58 429.18 -1.12 434.08 -2.12 442.66 39.84 451.95 13.35 456.67 15 441.39 58.58"/><polygon class="e" points="496.83 54.55 521.51 49.32 524.47 38.96 496 43.78 496.83 54.55 496.83 54.55"/><path class="e" d="M529,32.36c-15.59,4.62-36.56,7.83-36.77,7.86l-1.95.3-.17,2c-.06.73-1.43,18.33,10.06,42.67,18.8,39.79,5.56,54.5,5.42,54.64l1.8,1.74,1.78,1.75c.66-.67,16-17-4.48-60.27a103.89,103.89,0,0,1-8.41-25.78l24.2-5.12c-5.7,14.78-8.85,22.2-8.89,22.3l4.6,2c.05-.14,5.81-13.68,15.87-40.74l1.74-4.69Z"/></g></svg>