<svg xmlns="http://www.w3.org/2000/svg" xmlns:xlink="http://www.w3.org/1999/xlink" viewBox="0 0 750 428"><defs><style>.a,.d,.f,.j,.k,.l,.m,.n,.o,.p,.q{fill:none;}.b{clip-path:url(#a);}.c{fill:#891814;}.d{stroke:#f9d5ca;}.e{fill:#8f531e;}.f{stroke:#e78338;}.f,.j,.k,.l,.m,.n,.o,.p,.q{stroke-linejoin:bevel;}.f,.k{stroke-width:3px;}.g{fill:#d2593f;}.h{fill:#85869f;}.i{fill:#af601d;}.j,.k,.l,.m,.n,.o,.p,.q{stroke:#4c0f10;}.j{stroke-width:3px;}.l{stroke-width:3px;}.m{stroke-width:3px;}.n{stroke-width:3px;}.o{stroke-width:3px;}.p{stroke-width:3px;}.q{stroke-width:3px;}.r{fill:#bc3e23;}</style><clipPath id="a"><rect class="a" x="0.06" width="749.88" height="428"/></clipPath></defs><g class="b"><polygon class="c" points="-18.58 -10.63 -18.58 436.24 768.46 436.24 768.46 -10.63 -18.58 -10.63 -18.58 -10.63"/><polygon class="d" points="-18.58 -10.63 -18.58 436.24 768.46 436.24 768.46 -10.63 -18.58 -10.63 -18.58 -10.63"/><polygon class="e" points="49.66 431.07 62.42 402.73 87.93 414.06 165.88 263.83 425.25 394.22 528.72 217.06 671.16 300.47 683.92 279.42 711.55 297.84 633.6 430.87 49.66 431.07 49.66 431.07"/><polygon class="f" points="49.66 431.07 62.42 402.73 87.93 414.06 165.88 263.83 425.25 394.22 528.72 217.06 671.16 300.47 683.92 279.42 711.55 297.84 633.6 430.87 49.66 431.07 49.66 431.07"/></g><path class="g" d="M261,248.8s-2.72,8.62-16.29,23-24.44,21.78-27.15,27.62,0,13.28,0,13.28S215,318.51,222,327c3.75,4.58,8.66,9.54,11.92,9.25,1,3.4,6.09,6.95,10.06,3.55,2.91-2.5,7.63-8.9,10.35-14.75s4-16.1,8.85-29.38,11.88-19.55,14.55-22.77c4.94-5.95,6.08-8.37,6.63-15.48a111.31,111.31,0,0,0,0-11.68"/><g class="b"><path class="f" d="M261,248.8s-2.72,8.62-16.29,23-24.44,21.78-27.15,27.62,0,13.28,0,13.28S215,318.51,222,327c3.75,4.58,8.66,9.54,11.92,9.25,1,3.4,6.09,6.95,10.06,3.55,2.91-2.5,7.63-8.9,10.35-14.75s4-16.1,8.85-29.38,11.88-19.55,14.55-22.77c4.94-5.95,6.08-8.37,6.63-15.48a111.31,111.31,0,0,0,0-11.68m-59.07,56.64a26.9,26.9,0,0,0-8.1,11.62M229,311.31s-6.38,4.25-7.92,15m14.18-10.27s-7.68,7.72-7.82,17.36m14.9-13.11s-7.82,6.87-7.82,17.08m25-25.37,165.13,82.44-39.11,72.42m-270.1-39.2L181,304.88l40.45,21.17m24.81,12.47,133.91,67.07L320,516.63M86.37,413.15,348.86,529.57M94,418.23l74.3-143.78,50,24.64M257,320.2,414.1,397.7l-28.65,53.59m-59,68.6,63.33-116.81L250.66,332.26m-33.47-17.13-39-20.08L110,423.13M198.73,421l24.38-46.3,74.83,36.82-21.66,46L198.73,421Z"/></g><path class="h" d="M257.89,199.2l-6,51.53,33.79-5.81,1.59,7.4,11.62,3.06,15.31-8.88,45.95,6.88,12.67-8.46,43.31,6.34-4.67-18,24.74-6.35.52,18.52L459,234.87l44.28,1,.52-17.57,18.49-9.93,40.13,2.12s15.69-85.88,18.86-115.09"/><path class="f" d="M257.89,199.2l-6,51.53,33.79-5.81,1.59,7.4,11.62,3.06,15.31-8.88,45.95,6.88,12.67-8.46,43.31,6.34-4.67-18,24.74-6.35.52,18.52L459,234.87l44.28,1,.52-17.57,18.49-9.93,40.13,2.12s15.69-85.88,18.86-115.09"/><path class="g" d="M527.25,210.09s1.62,13.94-.53,21.44-5.38,19.84,1.07,19.84,26.35-1.07,34.41.54,22,13.94,32.79,15,18.73,1.07,20.43-1.61a11.35,11.35,0,0,0,1.88-4.52s1.7-3.11-4.56-10.49c-8.37-9.86-18.82-13.41-32.26-16.62a72.94,72.94,0,0,0-24.19-13.94L558,209.55"/><g class="b"><path class="f" d="M527.25,210.09s1.62,13.94-.53,21.44-5.38,19.84,1.07,19.84,26.35-1.07,34.41.54,22,13.94,32.79,15,18.73,1.07,20.43-1.61a11.35,11.35,0,0,0,1.88-4.52s1.7-3.11-4.56-10.49c-8.37-9.86-18.82-13.41-32.26-16.62a72.94,72.94,0,0,0-24.19-13.94L558,209.55m42.54,43,16.15,7.09M597.18,245.2l15,4.26M392,179.35l-1.54,58.58,20.89-4.86m23.41-5.81,23.15-6.18-33.6-55.33m78.86,53.37-16.78,5.58L508.74,138m-135.3,107-29.34-3.79,9.58-52.42m260,77.75,57.52,34L591.79,439.58M389.54,514.17l39.62-66.48L537.93,262.22,654.74,328,584.6,364.92m-38.85,66,9.74,82.66L427.24,448.18l76.3-38.91m-.93,1.36L543,340.16l42.24,24.09L545.2,432.9l-42.59-22.27Zm35.93-146.31L543.38,341m-362-34.42L223.76,376m72.54,35.53,82.06-4.47M117.27,425.78l81.42-4.55"/><path class="i" d="M289.33-15.67S252.18,76.94,257,204.3c0,0,210.33-16.08,326.55-107,0,0,11.34-51,14.17-70.86s2.84-28.76-25.51-62.57"/><path class="f" d="M289.33-15.67S252.18,76.94,257,204.3c0,0,210.33-16.08,326.55-107,0,0,11.34-51,14.17-70.86s2.84-28.76-25.51-62.57M411.79,432.49l114.1-197m75.54,32.13,65.76,39.11M429.51,431.78,535.1,252.49l123.31,69.26M332.46,194S399.14,182.44,461,137.13M256.69,203.24S373.46,178.5,446.31,122.8m-174.16,54S460.54,154,598.65,18.63M434.87,161.88s86.64-33,148.14-103.3m-325,88s8.34,12.14,28.36,17m-19.57-9s72.51,2.51,113.46-16.93m-67.06,15.12s209.6-67.18,285.12-134M341.49,143.15S505.7-113.42,525-158.08M320.25,150.25S493-100.5,520.82-183.38M453.18,99.23A721.85,721.85,0,0,1,477,30.06M449.59,59.5s37.64-69,119.56-143.94M386.87,126.44S453.46.4,560.65-93.19L520-78.23M402,71.94S477.13-32.37,552.21-90.86M504.2,76s3.47-85.74,56.64-151.77M323.62,117.89S414.27-3.19,444.49-56.57M277.24,124.53l20.17,18.55,20-32.46m-4.28-51.09s33.47,19.84,70.79-25m220.35,398L686,290.05,700.92,300,621.55,436.54M116.87,433.7l-51-22.47L56,433.9"/></g><path class="j" d="M104.4,265.1a75.33,75.33,0,0,1,.29-37.89c5.57-20.3,16.38-28.09,16.38-28.09a14.42,14.42,0,0,1-4.11-13.7c1.89-8.61,12-10.5,12-10.5s-8.78,12.19,1.54,18.63c0,0,10-2.82,7.46-17.91,0,0,8.21,6.42,5.76,16.65-1.63,6.82-6.11,9.33-6.11,9.33s6.72,10.78,4.6,31.78C140.28,252.06,129,268.87,129,268.87s4-16.5,4.51-29c1-23.06-5.54-33.2-5.54-33.2A72.57,72.57,0,0,0,111,235a194.35,194.35,0,0,0-6.64,30.13Z"/><path class="k" d="M177.22,36.16s49.26,37,61.56,44.15l-6.47,7.78S184.62,50.17,173,42.39c0,0-4.73,3.56-4.08,13.29l-11.65-8.43s9.06-12.32,14.88-18.8,18.34-7.78,28.59,5.18c0,0-17.66-11.09-23.49,2.53ZM52.7,150.89A48.53,48.53,0,0,0,33.6,139.3c-11.46-3.5-16,0-17.57,7.45s8.41,12.42,8.41,12.42m68.87-37.41s2.21-8.62,14-7.85a225.67,225.67,0,0,0,24.34,0M112.4,99s-8.24-.75-6.41,9,8.24,9.78,13.74,24.83"/><path class="j" d="M54.7,337.88s15.59-12.66,21.83,6.26c5.19,15.75-7.09,18.61-7.09,18.61a108.74,108.74,0,0,0,4.08,15.78l-7.94,1.25-3.72-21s11.82.16,8.1-13.08-15.26-7.86-15.26-7.86Z"/><path class="l" d="M85.25,58.14l16.29-11.41s-1-3.91.14-13.83,7.11-10.36,8.61-9.63c3.3,1.6,5,7.08,2.2,12.14C109.16,41.47,102.25,47,102.25,47l9,21.26"/><path class="k" d="M14.66,271l5,1.13c4.25-11.48,13.32-18.71,28.06-18.28l.85-4.4-1,4.4c11.48,3.82,18,12.6,18.71,25.37l5,.42-5-.42c-4.4,14.45-18.43,17.43-29.34,17.29l-1,4.39,1-4.39c-6.95-2.84-17.72-13.75-17.29-24.38l-5-1.13ZM43.29,102.25l-8.15,3.47L13,52.28l4.76-2.19,25.36,52.57H62.3"/><path class="m" d="M705.7,73.57s5.8-14.64,17.21-3.68c8,7.65,4.85,24.52,4.85,24.52S709.43,104.78,701,98.56s-1-15.21-1-15.21M686.25,61.83l31,17L710,89.09,682,69.31l-10.31-3.5,10.67-1.11-1.79-11,5.73,8.08Z"/><path class="k" d="M223,235l-13,13.65M199.43,225.2l17.14,17.14"/><path class="n" d="M57.21,223.22l-16.4-9.32M61,198,48.53,218.76"/><path class="k" d="M165.72,127a54,54,0,0,0,17.44,8.8c10.62,3.15,20.48,7.64,22,20.34s3,14.2,6.07,15.69-6.07,12-13.65,7.48S193,166.63,190,156.17,171,139,165.72,127Zm534.12,29.43s2.26-9.06,14.29-8.26a223,223,0,0,0,24.82,0M719.4,133.13s-8.62-.77-6.7,9.24,8.62,10,14.37,25.39m-86.73-17.09-5.75,6.65-16.43-16.55,5.66-6.12,16,16.72s4.54-5,7.66-8.61c4.1-4.7,15.94-5.3,16.58,4.64s3.19,15.23,7.65,19.2M409.85,345.12l-.61-21.67s-4.87-1.25-10.83-7.6c-6.46-6.87-4.36-10.92-3.05-12,2-1.65,6.74,0,11.44,5.25s4.58,13.52,4.58,13.52l22.13,6.75"/><polyline class="o" points="456.58 297.64 452.28 306.04 400.81 276.79 403.29 272.13 456.01 298.22 472.17 286.53"/><path class="j" d="M326.6,312.75l-18.73,2.1m7-24.75L317,314.24"/><path class="p" d="M669.1,21.42c1.1-3.9-.36-7.74-3.26-8.59s-6.16,1.64-7.26,5.54.36,7.74,3.26,8.59,6.16-1.64,7.26-5.54Z"/><path class="n" d="M656.09,44.09c3.1-2.71,4-6.67,2-8.83s-6.14-1.72-9.24,1-4,6.67-2,8.84,6.13,1.71,9.23-1Z"/><path class="m" d="M641.2,50.27c1.39-3.81.21-7.73-2.63-8.76s-6.28,1.21-7.67,5-.21,7.73,2.64,8.76,6.27-1.21,7.66-5Z"/><path class="q" d="M636.73,73.24c1.81-3.63,1.06-7.64-1.66-8.94s-6.39.58-8.2,4.21-1,7.64,1.67,8.95,6.39-.58,8.19-4.22Z"/><path class="k" d="M633.46,67.76l2-15.32m2-6.79,15-5.1m3.69-3.7,6.8-14.44"/><polygon class="r" points="536.51 127.76 524.33 208.36 562.59 210.54 582.46 98.09 536.51 127.76 536.51 127.76"/><polygon class="f" points="536.51 127.76 524.33 208.36 562.59 210.54 582.46 98.09 536.51 127.76 536.51 127.76"/><polyline class="r" points="287.02 201.82 284.19 245.11 286.45 253.05 297.79 256.45 313.1 246.25 322.03 197.35"/><path class="f" d="M287,201.82l-2.83,43.29,2.26,7.94,11.34,3.4,15.31-10.2,8.93-48.9m-7.18-.42c-1.71,46.69-18.15,58.19-18.15,58.19s-7.63-18.87-7.63-54.79"/><path class="k" d="M665.72,204.77,640.45,225.1l19.76,27.1L688.28,230s-13.11-15.24-22.61-25.64-18-15.75-26.1-9.94c-7.41,5.33-4.69,13.64-4.69,13.64m28.25,19.35a1.5,1.5,0,1,0-1.5-1.5,1.5,1.5,0,0,0,1.5,1.5Zm.12-1.1,4.54,5.25"/><path class="k" d="M38.42,275.73a1.5,1.5,0,1,0-1.13-1.8,1.51,1.51,0,0,0,1.13,1.8Zm7-3.33a1.5,1.5,0,1,0-1.12-1.8,1.5,1.5,0,0,0,1.12,1.8Zm-6.66,2.29L42,280.82m3.78-9.46L49,277.49"/><path class="j" d="M712.09,403c.53-3.73-2.47-7.23-6.7-7.82s-8.1,2-8.63,5.69,2.47,7.23,6.7,7.82,8.1-2,8.63-5.69Z"/><path class="m" d="M704.79,396.25l9.44-57.94m-5,28.24,10.9-3,7.24,6.53m-13.2-27.59,8.2,6.73,8.5-4.54m-18.75,10,17.53,2.63"/><path class="j" d="M128.71,201.88a1.63,1.63,0,1,0-1.23-1.81,1.56,1.56,0,0,0,1.23,1.81Z"/></svg>