<svg id="_Слой_1" xmlns="http://www.w3.org/2000/svg" viewBox="0 0 749 428"><defs><clipPath id="clippath"><path class="cls-2" d="M-.44 0h749.88v428H-.44z"/></clipPath><clipPath id="clippath-1"><path class="cls-2" d="M-.44 0h749.88v428H-.44z"/></clipPath><clipPath id="clippath-2"><path class="cls-2" d="M-.44 0h749.88v428H-.44z"/></clipPath><clipPath id="clippath-3"><path class="cls-2" d="M-.44 0h749.88v428H-.44z"/></clipPath><clipPath id="clippath-4"><path class="cls-2" d="M-.44 0h749.88v428H-.44z"/></clipPath><clipPath id="clippath-5"><path class="cls-2" d="M-.44 0h749.88v428H-.44z"/></clipPath><clipPath id="clippath-6"><path class="cls-2" d="M-.44 0h749.88v428H-.44z"/></clipPath><clipPath id="clippath-7"><path class="cls-2" d="M-.44 0h749.88v428H-.44z"/></clipPath><clipPath id="clippath-8"><path class="cls-2" d="M-.44 0h749.88v428H-.44z"/></clipPath><clipPath id="clippath-9"><path class="cls-2" d="M-.44 0h749.88v428H-.44z"/></clipPath><clipPath id="clippath-10"><path class="cls-2" d="M-.44 0h749.88v428H-.44z"/></clipPath><style>.cls-10,.cls-2,.cls-6,.cls-7,.cls-9{fill:none}.cls-12,.cls-13,.cls-15,.cls-16,.cls-17,.cls-19,.cls-2,.cls-20,.cls-21,.cls-22,.cls-23,.cls-24,.cls-25,.cls-26{stroke-width:0}.cls-7{stroke:#353500}.cls-6{stroke:#6e7f94}.cls-9{stroke:#cc9b5d}.cls-10{stroke:#90551d}.cls-13{fill:#50617f}.cls-15{fill:#4e4682}.cls-16{fill:#731933}.cls-17{fill:#9d302b}.cls-19{fill:#353500}.cls-20{fill:#c54800}.cls-21{fill:#c5862b}.cls-22{fill:#dca661}.cls-23{fill:#af7047}.cls-24{fill:#d8b885}.cls-25{fill:#7f4f60}.cls-26{fill:#e6bc9f}</style></defs><g style="clip-path:url(#clippath)"><path class="cls-19" d="M-9.15-9.44v448.29h765.77V-9.44H-9.15z"/><path class="cls-9" d="M-9.15-9.44v448.29h765.77V-9.44H-9.15z"/></g><path class="cls-19" d="m109.12 202.95 30.05-6.8s3.68 14.46 1.13 24.38c-2.55 9.92-7.09 10.77-10.77 11.06-3.68.28-10.44 1.12-13.87 3.12-3.43 2-18.73 5.1-18.73 5.1l12.19-36.85Z"/><g style="clip-path:url(#clippath-1)"><path class="cls-9" d="m109.12 202.95 30.05-6.8s3.68 14.46 1.13 24.38c-2.55 9.92-7.09 10.77-10.77 11.06-3.68.28-10.44 1.12-13.87 3.12-3.43 2-18.73 5.1-18.73 5.1l12.19-36.85Z"/><path d="M16.45-4.27s-4.49 36.87 7.2 53.87m0 0-.12 70.87M42.43-7.1s-5.67 37.2 9.92 60.94m0 0-1.77 58.11m63.07-81.85-2.24-34.72m71.69 37.91s-2.13-26.22-14.53-39.33m66.97 62.36s1.54-50.68.59-62.72m48.19 64.5s5.08-46.77 3.31-62.36m35.43 79.71s6.38-19.49 6.73-29.41m0 0c.36-9.92-.71-48.54-.71-48.54m42.52 54.21s4.25-36.87 4.25-57.76l14.76-.35m34.02 46.08s6.5-23.37 6.14-45.35m49.61 38.96s6.73-19.46 6.02-37.54m20.55 34.71s5.67-20.55 3.54-40.39m17.01 33.31S542.15 4.23 540.85-7.8m37.68 38.27s7.09-16.98 7.09-36.13m31.89 46.76s12.76-21.28 9.92-46.77m35.43 58.82s17.48-27.65 14.05-58.82" style="stroke:#d8b885;stroke-width:2px;fill:none"/><path class="cls-12" d="m727.94 450.71-30.35-155.45-115.28-143.62-161.57-2.84-157.68-12.28-53.03 135.61-26.46 51.48 74.65 123.78 469.72 3.32z"/><path class="cls-9" d="m727.94 450.71-30.35-155.45-115.28-143.62-161.57-2.84-157.68-12.28-53.03 135.61-26.46 51.48 74.65 123.78 469.72 3.32z"/><path class="cls-15" d="M662.86 53.13s17.48-27.65 14.05-58.82l14.17-.71 1.54 67.32-29.76-7.8ZM617.51 41.09s12.76-21.28 9.92-46.77l12.64-2.83s.83 38.25 17.13 50.31l-36.97 12.76-2.72-13.46ZM578.53 30.46s7.09-16.98 7.09-36.13h4.96s2.13 28.33 6.38 37.54l-18.43-1.42ZM527.51 23.37s14.65-19.15 13.35-31.18h8.62s1.42 18.43 9.21 31.18h-31.18ZM506.96 30.46s5.67-20.55 3.54-40.39l7.68-.71s4.49 21.97 3.66 43.94l-14.88-1.42v-1.42ZM480.39 33.29s6.73-19.46 6.02-37.54l10.63-1.79s2.48 13.11 1.77 41.1l-18.42-1.77ZM424.64 39.68s6.5-23.37 6.14-45.35l14.88-1.43s0 27.64 10.28 42.52l-24.21 9.92-7.09-5.65ZM371.61 51.72s4.25-36.87 4.25-57.76l14.76-.35s-1.42 33.29 2.83 48.9l-22.56 10.28.71-1.06ZM323.06 75.46s6.38-19.49 6.73-29.41c.36-9.92-.71-48.54-.71-48.54l29.76-3.9s-9.92 18.81-11.69 27.65c-1.77 8.84 1.42 46.4 1.42 46.4l-25.51 7.8ZM284.32 58.11s5.08-46.77 3.31-62.36l26.93-1.79s-2.36 21.61-5.67 34.72-3.54 37.91-3.54 37.91l-20.9-6.73-.12-1.76ZM235.54 56.32s1.54-50.68.59-62.72l21.26-.71s.47 37.91 5.43 59.17l-27.28 4.25ZM183.1 33.29s-2.13-26.22-14.53-39.33l32.13-3.19 1.42 47.13-19.02-4.61ZM113.65 30.1l-2.24-34.72 17.48-1.77 1.77 34.74-17.01 1.75zM73.61 132.86V73.33S80.7 46.4 80.34-1.08c-.35-47.48-.35-1.42-.35-1.42h-6.02s.12 43.97-6.73 43.6c-6.85-.37-2.6-48.56-2.6-48.56h-7.09s1.42 30.83 0 38.98c0 0-8.74-6.04-7.68-37.91l-7.44-.71s-5.67 37.2 9.92 60.94l-1.77 58.11 23.03 20.9ZM33.57 110.55 34.99-4.27l-7.8-1.06-2.24 38.98s-3.31-8.86-2.83-37.2l-5.67-.71s-4.49 36.87 7.2 53.87l-.12 70.87 10.04-9.92ZM31.16 326.54l-2.55-39.12s-7.04-6.52-7.91-20.69c-.87-14.17-.59-18.39-5.13-21.53 0 0 3.4-2.28 7.65 1.97s0 29.48 11.91 35.72c0 0 .57-6.21-1.13-10.76-1.7-4.55-2.27-31.76.28-58.41l8.5-.85s-3.4 41.95.28 55.28l8.81-56.62 9.69.35-14.88 120.47-15.52-5.81Z"/><path class="cls-21" d="m-20.4 364.24 60.35-56.69 76.54-246.62 24.68-26.22 56.1 20.55 34.72 11.34 77.24 6.38 98.39-25.51 126.26-12.05L556.56 34l73.7 22.69 75.83 32.58 48.9 4.27 4.13 341.56-67.2-3.4-29.17-66.03-42.52-42.82 7.06-8.2-40.61-17.01-29.41-11.36-17.84-2.82 8.98-15.59 17.01-15.25-35.79-14.88-28.35-9.21 26.93-51.02-64.84 3.19-74.17-10.98 4.37-15.22s-40.39-2.83-80.79 12.76l-17.01-8.5-14.17-7.46 13.47 43.58-46.77 32.95 11.34 10.98-40.51 35.43 55.28 26.24 12.87 59.53 109.84 60.93 2.84 38.28-420.24-4.27-.12-90.71Z"/></g><path class="cls-22" d="m166.8 130.39 15.8-11.34 21.71-.4 10.68-5.26 12.76-5.67.2 14.17-14.38 11.34 6.97 4.94-10.51 4.25.71 5.67-13.26 12.76-10.84-3.54-12.75 7.79-7.09-34.71zM232 129.67l40.39-10.62 14.18-.48-2.84 5.54 7.68-.01 19.96-8.6-19.84 20.93-22.8 5.3-21.85-5.3h-18.43l3.55-6.76zM287.98 150.22l21.26-7.97.18 8.44 4.78.01 6.38-8.45 14.17-.72-3.66 9.67 16.42-5.02 3.43-5.19 14.29-.27.01 5.38 17.7-9.67 16.3 3.16.1 2.66 28.96-3.35 40.82 8.5.1 18.5-19.07-6.33-12.21-2.83h-14.18l-3.97-5.49-25.51 5.49 2.27-5.49-9.07 2.66-27.21 1.13-25.52 5.1-23.02 6.45-9.86-.69-6.23-9.73-7.66-5.95zM338.72 112.52h9.38l15.57-5.57 10.77-.47.02 3.02 16.99-.01 4.84 3.53 6.5.4 3.4-3.48 22.67-3.98-14.17 9.08-6.23.42-3.97 3.59-13.61.38-20.98.49-9.07-3.43-24.94 2.56 2.83-6.53zM519.01 79.64l15.87-2.84 10.21-.49-24.07 7.3 18.4.47 13.04-3.88h16.74l-13.91 2.27-9.64 2.12-18.71 4.12 9.08 9.64 19.84 3.4 6.8 3.72h10.77l17.58 3.65 10.77-3.65h23.24l-6.8 17.25-73.13 9.07-32.32-26.32 6.24-25.83z"/><g style="clip-path:url(#clippath-2)"><path class="cls-22" d="m514.47 216.27 20.98 2.83 11.34.5 16.74.5-6.54 3.84-17.14.43 10.91 2.4 10.2 5.37 13.91 3.97 11.6-1.7 10.77 2.21-18.71 5.73-13.04-1.7-14.73-5.11-3.97-6.23h-19.85l-17.26-9.07 4.79-3.97zM538.28 283.73l5.67-5.67 2.83-6.8 6.3-3.4 18.08-.44 5.1 8.08 11.34-3.38s5.36-.57 6.24 1.4c.87 1.97 9.38 5.1 9.38 5.1l-4.27 7.94 18.45 9.64 11.34.44 8.76 5.23-5.93 11.91L646 314l15.87.5 5.1 6.65 8.5-5.67.28-6.8 5.39-10.21 13.04 9.64 3.97 9.64 9.07-3.97 15.31-1.13 28.09 8.5 9.33 6.8-47.62-7.37-15.87 7.86-15.31-2.46-19.84 7.07-12.22-5.1-19.53-.57-9.64-4.24 5.84-8.24-24.55-14.66h-14.17l-27.78-13.12-20.98-3.4ZM651.41 341.56l9.9 6.8 2.83 8.51 7.94 1.7 8.5 18.44 13.61 33.15 10.2 23.81 12.21-.57-6.54-32.31-6.23-13.27-12.48-10.54 1.7-20.11-4.79-16.02-11.08-4.69-5.67-.46-8.5-.5-8.51-.5-3.09 6.56zM666.97 265.02c.57 1.89 11.91-5.1 11.91-5.1l-3.97 5.93 13.35 1.07 13.3-3.46 11.34-3.96.16-4.68 28.75-3.4 22.11 5.1-7.37-32.31-33.45-.11-15 5.21-16.75 8.81-19.28 12.17-12.17 13.61 7.06 1.13ZM199.26 433.7l7.11-24.68-3.56-10.2 22.53-17.01-41.65-40.82 21.03-51.86 33.66-32.61 21.85-18.14-14.18-10.77-6.54-4.54-3.97 10.21-11.34 10.5-9.33 19.54-36.59 47.62-51.02 39.12-90.71 3.4-10.2 7.37-.3-8.5-8.78 6.8 2.27-7.37L4.24 358l-14.74-4.54 1.44 9.64 15.56-.56 5.67-1.14-2.27 5.67 22.68-2.83 14.74-3.97 87.31 35.71 18.71 44.22 45.92-6.5z"/></g><path class="cls-22" d="m248.01 207.76 1.14-6.8 8.24-9.07-2.57 11.34-6.81 4.53zM258.3 199.48l2.73-3.89 8.65-13.34.42 11.92-9.07 8.51-2.73-3.2zM277.23 190.15l.83-13.17 6.8-11.08 3.71 11.08-11.34 13.17z"/><path d="M96.18 225.58c0 1.2 51.76-5.93 51.76-5.93v-62.03l-36.56 4.56-15.2 63.4Z" style="fill:#513171;stroke-width:0"/><path class="cls-9" d="M96.18 225.58c0 1.2 51.76-5.93 51.76-5.93v-62.03l-36.56 4.56-15.2 63.4Z"/><g style="clip-path:url(#clippath-3)"><path class="cls-13" d="m49.02 437.37-2.83-32.02 24.38-115.39L89.85 231l55.56-5.67 28.35 65.76-7.37 64.06s-1.13 9.64-.57 18.14c.57 8.5-.57 16.44-.57 16.44s1.13 8.54-1.7 12.77l1.13 30.32-115.65 4.54Z"/><path class="cls-9" d="m49.02 437.37-2.83-32.02 24.38-115.39L89.85 231l55.56-5.67 28.35 65.76-7.37 64.06s-1.13 9.64-.57 18.14c.57 8.5-.57 16.44-.57 16.44s1.13 8.54-1.7 12.77l1.13 30.32-115.65 4.54Z"/><path class="cls-6" d="M104.44 235.97s9.68 25.16 11.22 53.5c0 0-5.91-8.15-10.87-10.98m-10.98-11.34s4.96 6.73 15.59 5.32c0 0-2.13-19.49-9.21-27.99l-6.38 22.68Zm30.83-36.85 4.25 201.61m9.45-175.75 2.83 176.12M98.65 278.13s15 10.63 16.06 39.33c1.06 28.7 8.15 83.61-6.73 88.58-14.88 4.98-26.93 9.57-26.93 9.57m19.84-1.76s-8.74 6.01-9.33 18.76m18.54-26.58s-1.42 4.61-3.9 9.92-1.77 20.2-1.77 20.2m-21.38-68.03s-.94 31.18 19.25 34.37m-21.97-9.92s3.66 12.76 15.94 13.11m10.98.35s-2.83-8.52-5.32-35.08c-2.48-26.56-2.36-36.5-6.38-41.46l13.46 8.5s2.48 18.1 2.48 38.99.35 26.93-4.25 29.04Zm-15.24-86.1 15.59 11.69 1.06 11.34m-16.65-30.12 17.36 12.05m-12.76-41.46s9.21 8.86 11.34 29.76l-11.69-5.32m-1.89-6.01 12.87 1.76m37.56-35.08.71 53.15m11.69-27.64s-2.83-9.57-11.34-3.19m9.45 9.21s-4.73-3.19-9.92-.35m9.33 25.87s7.21 20.89 6.73 45.36c-.47 24.46 1.77 31.18-7.44 29.05-9.21-2.13-8.62-20.91-8.62-20.91m7.56-21.26 7.44-7.09s3.54 25.87 2.48 36.85-6.38 1.77-7.44-8.86c-1.06-10.63-2.48-19.84-2.48-19.84m-.35 46.06s-4.96 15.94-7.09 29.41m10.28-21.95-5.32 24.09m8.5-22.69.71 19.13m-69.57-87.15 2.24 35.77 6.26-.34"/></g><path class="cls-13" d="m108.55 200.73 30.05-5.09 10.77 20.19-2.84 9.75-13.77 6.57-37.08 4.54 12.87-35.96z"/><path class="cls-6" d="m108.55 200.73 30.05-5.09 10.77 20.19-2.84 9.75-13.77 6.57-37.08 4.54 12.87-35.96z"/><path class="cls-17" d="m317.46 79.29 13.63-3.07 7.09 5.4 9.9-2.77 6.23 1.64 5.43-4.27 9.62-2.82 5.08-7.74 10.49 1.62 5.69 4.7 9.61-1.7-13.03 9.01-9.64 2.88-11.91 8.95-9.35 8.99-8.79 3.62-6.5.46-9.92 4.36-7.11.46-.85 5.78-10.77 1.95-8.2 6.57-14.17 9.05-11.65.42-13.32 6.1-3.4-2.89h-5.97l-6.42-3.91-18.22-1.12 7.93-6.25-16.72 7.37 6.87-9.92-1.54-10.21-1.41 10.21-14.09 8.8 6.16 8.51-8.57 1.62-.09 4.03 13.83-4.03 2.76 1.76 12.24-1.76h5.16l17.51 4.7 2.38 2.45 8.14-.84 12.25 12.74-1.79-6.8-4.93-8.22 11.47-6.24 17.27-11.34 19.62-8.95 6.46 7.82 11.62-8.07 14.74 1.1 1.46-2.7 5.91 5.74 26.93-3.89 6.81 1.7 7.36-.85 2.84-2.7 27.66-8.76-7.53-1.41 7.53-6.46V89.05l7.34-9.76-1.47-5.32L435 85.21v9.9l-9.25 12.61-17.86 5.77-3.69 3.25h-6.51l-5.11-2.75-23.22 4.6-6.54-4.6h-6.21l-7.09-.5-3.71 3.25-9.92-3.25 10.79-4.94 26.1-13.12 7.61-8.4 27.78-10.81 2.55-3.39 10.21-1.41 11.34-.29 2.73-1.68 4.49 1.68 6.35 5.09 60.62-13.67 15.98-12.39 32-4.25 3.42-10.3h-13.82l-34.24 5.53-74.8 8.17-61.27 10.49-34.13 5.86-22.14 7.46v6.17z"/><path class="cls-17" d="m171.55 135.99 10.82-11 14.26-.35 2.88 1.77 25.26-2.27-7.05 8.79-8.68-2.99h-5.3l-19.99-2.11-4.29 6.8 1.25 6.46 2.29 18.77-16.02 5.67 4.57-29.54z"/><g style="clip-path:url(#clippath-4)"><path class="cls-17" d="M190.08 207.21h7.09l18.42.5 9.92.5 9.21-17.47.45 17.99 19.4 4.86.12 7.1 4.01.01-9.8 7.06-18.55-12.05-40.27-3.52v-4.98zM698.89 429.79l-9.1-17.35-12.04-34.02-3.55-4.62-.39-5.31-5.28-8.15-7.79-4.25-.24-7.09-7.91-1.76-3.9-5.67 9.92-6.39 2.01 3.9 7.91-4.62 9.1-3.88 4.37 4.25 3.9-4.85 10.15-.31 3.28-4.41 21.29-3.9 27.99 1.42 1.3-5.3-29.29-.12-21.35 5.77-6.05 4.61-13.7-1.77-17.01 8.52-17.01-6.4-27.28-6.02 11.22 14.53 26.69 23.74 20.55 38.62 13.82 32.95 8.39-2.12z"/></g><path class="cls-17" d="m558.69 260.79 19.28-4.84 14.74-6.23 8.5-13.61-21.11 6.8-21.53-7.7-7.25-.47-6.8-4.3-14.17-.42-18.71-12.62-15.88 12.21 28.35 6.5 20.98 10.21 7.93 3.4 9.64 3.4-3.97 7.67z"/><g style="clip-path:url(#clippath-5)"><path class="cls-17" d="m416.39 176.98-29.48-7.77 6.55-11.9 4.79-2.27 20.98-.45 5.67 2.15 12.47-.83 11.9 5.66 22.12-.86.01 16.27-24.96 4.7-30.05-4.7zM665.58 258.22l20.31 11.07 39.22-7.75 25.51 2.92v5.1l-29.79-3.97-34.94 7.94s-25.72-11.65-25.72-9.64 5.41-5.67 5.41-5.67Z"/></g><path class="cls-12" d="M35.7 218.82s-.22.02-.62.03c-2.94.13-15.34.28-18.08-5.7-3.12-6.8-.54-13.04-.54-13.04s-8.81-3.68-9.94-10.77c-1.13-7.09 3.4-12.19 3.4-12.19s-6.8-5.1-6.24-12.19c.57-7.09 4.28-10.47 4.28-10.47s-6-8.5.54-15.59 9.38-5.97 9.38-5.97l-3.43-7.94s-8.5-5.1-4.82-13.32c3.68-8.22 16.75-4.54 16.75-4.54s1.16-7.65 7.09-10.49c0 0-.87-7.34 5.36-10.19 6.24-2.85 13.61.83 18.14 7.07 0 0 9.64 0 9.92 11.91 0 0 12.52-.57 10.51 11.05-2.01 11.62-5.67 7.94-5.67 7.94s7.09 7.65 5.67 16.16c-1.42 8.5-4.25 10.49-4.25 10.49s6.83 9.67 2.83 19.01c-3.99 9.34-9.92 8.2-9.92 8.2s.54 3.4-1.44 6.52c0 0 5.15 4.82.02 13.04-5.13 8.22-11.08 19.84-11.08 19.84l-17.86 1.13Z"/><path class="cls-21" d="m210.62 69.15 11.34 3.97 8.48 5.67 9.35-.29 10.49-7.08 12.78-2.27 13.3-27.5-15.59-2.55-20.13 7.37-18.99 13.06-11.03 9.62z"/><g style="clip-path:url(#clippath-6)"><path class="cls-21" d="m259.92 66.03 8.22 16.73 11.93 1.7 20.67-.84 2.55 4.81 20.98-8.23 1.98-20.69-11.62-2.27-10.21-.28-15.3-9.07-7.63-5.1-9.66 1.41-11.91 21.83zM756.76 85.02s-25.87-6.7-33.66-7.07c-7.8-.37-10.75.34-10.75.34s-5.79-4.96-14.17-13.46c-8.39-8.5-11.22-10.97-11.22-10.97l-8.15-2.83s1.77-8.17-3.19-9.58c-4.96-1.42-10.16-4.93-12.87-6.01-2.72-1.08-8.03-1.08-8.03-1.08s-15.24 1.45-23.03 5.33c-7.8 3.88-16.65 4.94-16.65 4.94s-11.75-10.64-16.65-14c-7.47-5.12-17.58-1.13-17.58-1.13s-6.24-5.67-18.14-2.27l-5.38 1.95 5.67-14.46-3.69-3.12h-19.82l-13.63 10.2-11.34 3.69-6.52.02-8.79 7.64-5.95-6.8-5.39 1.7-18.99-2.55-8.22 4.54-5.1.28-12.45 6.54-4.56-2-11.91.58-1.98-7.67-32.03.58-6.8 15.29-12.47 1.13-1.11-7.65-17.03 9.65-5.1-1.15-10.46 10.77-3.42 4.54-5.08-1.13-4.84 3.12 6.52 6.52 19.58 4.27 41.65-12.76-.28 8.77 3.12 3.12 18.14-5.67 31.46-.85 43.39-5.95 18.4-14.17 22.96-1.98 9.35-6.24 5.39 3.69 10.49-4.8 63.8 27.76 22.09.28 2.01 6.52 18.43 5.67 6.78 15.31-.85 5.39 9.92 3.97v3.12l31.18 2.85 5.41 5.65 24.35-12.74 22.39 2.54-5.17-18.14Z"/></g><path class="cls-17" d="m209.46 71.13 22.42 8.51 25.21-8.97 11.9-3.5 38.55 2.28 20.98-2.79.06 4.47-2.33 9.04-10.75 5.7-12.75 6.81-4.85-1.97 3.43-4.84 13.02-6.21-2.84-3.12-7.35 3.12-7.96-2.29-5.67 2.29-.54-2.86 6.21-2.26 9.64.56 6.8-3.4-24.37-1.7-19.08 5.67-7 9.64-24.64 6.23-9.92-2.83-22.68 9.64 4.51-27.22z"/><path class="cls-24" d="M152.07 130.46c32.84 0 59.47-27.19 59.47-60.73S184.92 9 152.07 9 92.6 36.19 92.6 69.73s26.62 60.73 59.47 60.73Z"/><path class="cls-9" d="M152.07 130.46c32.84 0 59.47-27.19 59.47-60.73S184.92 9 152.07 9 92.6 36.19 92.6 69.73s26.62 60.73 59.47 60.73Z"/><g style="clip-path:url(#clippath-7)"><path class="cls-16" d="M110.82 102.74s-14.53 12.43-27.28 36.16c-12.76 23.72-23.15 57.39-30.24 96.36-7.09 38.98-15.47 95.67-17.95 131.1s-3.9 57.42-3.9 57.42 2.83 2.11 10.98 2.11c0 0 4.25 4.98 10.28 4.98l2.83-14.17s-5.1-.87-4.82-3.98c.28-3.12 3.97-3.12 5.95-4.25s6.57-8.24 6.54-11.34c-.02-3.1-5.13-8.22-.87-8.5 4.25-.28 7.94.28 10.49-.85s7.65-.28 7.94-5.39c.28-5.1-1.72-17.29.28-27.21 2.01-9.92 5.1-15.31 5.39-23.53.28-8.22 2.81-18.14 3.97-25.23 1.16-7.09 2.27-20.69 6.52-41.1s10.2-43.05 15.59-58.38 19.84-36.02 19.84-36.02l11.05 15.59s-2.5 10.77-2.24 21.54c.26 10.77-1.75 22.11-9.38 23.53 0 0 5.65 12.76 11.05 20.98 5.41 8.22 9.92 15.59 9.92 15.59l6.24.28s-.28 22.95 2.27 37.42c2.55 14.47 4.25 47.91 3.68 61.23l11.34-13.04 8.81-52.14 32.57-35.43-7.65-56.69-5.39-14.17s-11.62-4.55-17.86-4.55l-6.8-14.46s2.27-17.86-.28-29.76c-2.55-11.91-12.76-30.33-12.76-30.33l-22.39 2.55-5.1-18.71-28.04 3.12"/><path class="cls-7" d="M110.82 102.74s-14.53 12.43-27.28 36.16c-12.76 23.72-23.15 57.39-30.24 96.36-7.09 38.98-15.47 95.67-17.95 131.1s-3.9 57.42-3.9 57.42 2.83 2.11 10.98 2.11c0 0 4.25 4.98 10.28 4.98l2.83-14.17s-5.1-.87-4.82-3.98c.28-3.12 3.97-3.12 5.95-4.25s6.57-8.24 6.54-11.34c-.02-3.1-5.13-8.22-.87-8.5 4.25-.28 7.94.28 10.49-.85s7.65-.28 7.94-5.39c.28-5.1-1.72-17.29.28-27.21 2.01-9.92 5.1-15.31 5.39-23.53.28-8.22 2.81-18.14 3.97-25.23 1.16-7.09 2.27-20.69 6.52-41.1s10.2-43.05 15.59-58.38 19.84-36.02 19.84-36.02l11.05 15.59s-2.5 10.77-2.24 21.54c.26 10.77-1.75 22.11-9.38 23.53 0 0 5.65 12.76 11.05 20.98 5.41 8.22 9.92 15.59 9.92 15.59l6.24.28s-.28 22.95 2.27 37.42c2.55 14.47 4.25 47.91 3.68 61.23l11.34-13.04 8.81-52.14 32.57-35.43-7.65-56.69-5.39-14.17s-11.62-4.55-17.86-4.55l-6.8-14.46s2.27-17.86-.28-29.76c-2.55-11.91-12.76-30.33-12.76-30.33l-22.39 2.55-5.1-18.71-28.04 3.12"/></g><path class="cls-25" d="M175.45 86.16s5.2-9.14 6.14-15.64c.04-.27.07-.54.09-.8 0 0 3.12-1.13.57-5.1-2.55-3.97-5.67-9.92-7.37-11.91-1.7-1.98-2.55-3.37-5.1-3.1s-4.54-1.42-7.94-2.83c-3.4-1.42-7.68-2.82-11.34-1.42s-7.39.55-10.49 2.54c-3.1 1.98-5.67 2.83-7.09 5.95s-3.12 4.82-4.82 6.8c-1.7 1.98-2.55 3.67-2.27 6.24.28 2.57-1.99 4.54-.85 7.37 1.13 2.83.59 6.24.59 6.24s-7.11-1.42-10.8 3.12c-3.68 4.54-3.68 11.06-3.68 11.06s-6.8 4.55-4.54 8.8c2.27 4.25 7.7 6.22 11.93 5.65 4.23-.57 11.88-2.8 18.4-2.82 0 0-5.1 4.8 1.13 12.17 0 0-5.39 2.27-2.27 6.52 3.12 4.25 2.03 9.64 5.41 11.62 3.38 1.98 7.09-2.27 7.09-2.27s1.11 5.95 4.79 6.24c3.68.28 5.39-5.67 5.39-5.67s3.12 1.99 4.82 1.13c1.7-.85 2.55-8.49 2.55-8.49s3.95-.58 4.54-6.25c.59-5.67-.28-7.37-.28-7.37s3.12-6.8-1.13-10.2c0 0 5.39-6.52 6.52-17.57Z"/><path class="cls-13" d="m186.22 203.79 13.32-4.82s3.4 14.17 3.68 22.11c.28 7.94-3.97 11.34-5.95 11.9-1.99.57-13.04 5.1-13.04 5.1l-4.25-16.99 6.24-17.31Z"/><path class="cls-6" d="m186.22 203.79 13.32-4.82s3.4 14.17 3.68 22.11c.28 7.94-3.97 11.34-5.95 11.9-1.99.57-13.04 5.1-13.04 5.1l-4.25-16.99 6.24-17.31Z"/><path class="cls-21" d="m196.71 440.79 4.53-28.46-3.38-5.56 9.93-8.23 57.29-5.46 9.32 9.14-8.46 11.6 12.97-10.47.32 8.98-6.1 11.08 8.33-9.59 12.5 1.16 2.57-2.65 5.15 1.49-6.21 10.67 6.96-6.11 8.44-1.67 7.32-4.38 6.02 1.49 3.62 7.63-4.98 6.58 32.8-14.21h45.72l-3.97 37.44-202.96 6.53 2.27-17z" style="clip-path:url(#clippath-8)"/><path class="cls-21" d="m198.41 400.52 17.33 1.42v5.38l7.64.87.05 2.53 15.8.02 5.67-3.97 6.52-1.14 3.14-2.56 5.36.57 13.21-16.96 4.69-1.69 1.09-6.57-16.69-7.01-32.61 13.58-4.27 6.06h-5.11l-2.02 4.93h-10.42l-9.38 4.54z"/><path class="cls-23" d="M197.86 202.09s3.52-3.4 7.21-5.38c3.68-1.99 7.65-3.4 11.9-7.37s8.08-4.82 10.35-6.8c2.27-1.98 4.39-3.68 4.39-3.68s1.98 1.56 0 4.54c-1.99 2.98-6.1 5.81-6.1 5.81s.26 3.26-1.7 5.67c0 0 5.39 2.87 8.22 3.56 2.83.69 8.08 1.97 12.61 1.83 4.53-.14 9.92-1.13 10.35.43.43 1.56-2.27 2.13-2.27 2.13s1.42 1.59-.71 2.71c-2.13 1.12-2.98.55-2.98.55s.14 1.68-1.7 2.69c0 0-.87 1.98-5.39 2.69-4.51.71-10.18 2.83-17.27 1.42 0 0-6.12.99-10.09.57 0 0-6.69.43-9.64.14l-7.09 5.24s-1.84-6.8-.12-16.73Z"/><path class="cls-10" d="M197.86 202.09s3.52-3.4 7.21-5.38c3.68-1.99 7.65-3.4 11.9-7.37s8.08-4.82 10.35-6.8c2.27-1.98 4.39-3.68 4.39-3.68s1.98 1.56 0 4.54c-1.99 2.98-6.1 5.81-6.1 5.81s.26 3.26-1.7 5.67c0 0 5.39 2.87 8.22 3.56 2.83.69 8.08 1.97 12.61 1.83 4.53-.14 9.92-1.13 10.35.43.43 1.56-2.27 2.13-2.27 2.13s1.42 1.59-.71 2.71c-2.13 1.12-2.98.55-2.98.55s.14 1.68-1.7 2.69c0 0-.87 1.98-5.39 2.69-4.51.71-10.18 2.83-17.27 1.42 0 0-6.12.99-10.09.57 0 0-6.69.43-9.64.14l-7.09 5.24s-1.84-6.8-.12-16.73Zm8.62 3.97s7.8-1.56 10.77-8.5m11.34 5.1s-.85 6.1-.43 10.49m5.95-10.63s9.21 2.27 18.85.43m-18.57 2.98s9.5.85 14.6.28m-14.88 2.27s6.24 1.28 13.46.43"/><path class="cls-23" d="m371.89 329.65 20.41 22.04 2.27 40.9s-15.05 1.68-20.13 1.68l-15.59-48.47 13.04-16.16Z"/><path class="cls-9" d="m371.89 329.65 20.41 22.04 2.27 40.9s-15.05 1.68-20.13 1.68l-15.59-48.47 13.04-16.16Z"/><path class="cls-24" d="M230.47 388.46c34.79 0 62.99-28.59 62.99-63.85s-28.2-63.86-62.99-63.86-62.99 28.59-62.99 63.86 28.2 63.85 62.99 63.85Z"/><path class="cls-9" d="M230.47 388.46c34.79 0 62.99-28.59 62.99-63.85s-28.2-63.86-62.99-63.86-62.99 28.59-62.99 63.86 28.2 63.85 62.99 63.85Z"/><g style="clip-path:url(#clippath-9)"><path class="cls-16" d="M373.73 326.82s4.94 27.78 9.5 43.65c4.56 15.87 10.77 26.11 5.67 61.81l315.5-.58v-7.92l-13.32-26.94s-9.92 6.79-19.28-3.69c-9.35-10.47-18.66-19.56-24.64-23.81s-18.73-5.67-18.73-5.67-4.54-9.64-14.74-10.49c-10.21-.85-24.4-9.09-35.15-11.05-10.75-1.97-22.96-7.65-28.06-12.19-5.1-4.54-5.39-5.37-10.2-5.37s-17.01-6.83-33.17-6.25c-16.16.58-35.72.32-57.83.58-22.11.27-66.33-3.99-66.33-3.99l-9.21 11.91Z"/><path class="cls-7" d="M373.73 326.82s4.94 27.78 9.5 43.65c4.56 15.87 10.77 26.11 5.67 61.81l315.5-.58v-7.92l-13.32-26.94s-9.92 6.79-19.28-3.69c-9.35-10.47-18.66-19.56-24.64-23.81s-18.73-5.67-18.73-5.67-4.54-9.64-14.74-10.49c-10.21-.85-24.4-9.09-35.15-11.05-10.75-1.97-22.96-7.65-28.06-12.19-5.1-4.54-5.39-5.37-10.2-5.37s-17.01-6.83-33.17-6.25c-16.16.58-35.72.32-57.83.58-22.11.27-66.33-3.99-66.33-3.99l-9.21 11.91Z"/></g><path class="cls-23" d="M219.12 305.56s8.2-5.35 16.7-6.5 15.31 2.25 15.31 2.25 3.97-.67 9.92 2c5.95 2.67 9.92 5.37 12.76 7.07 2.83 1.7 5.1 2.55 4.25 5.1-.85 2.55-.06 3.68.68 10.77 0 0 3.26 1.7 9.24-4.82 5.98-6.52 8.2-7.94 12.19-14.17 3.99-6.24 11.62-14.74 22.96-16.16 11.34-1.42 27.78-5.67 37.42-7.65 9.64-1.98 21.83-.85 26.93 1.7 5.1 2.55 9.92 3.58 9.07 8.45-.85 4.87-2.55 12.81-6.52 19.33-3.97 6.52-23.24 31.75-23.24 31.75s1.21 3.4 5.99 17.01c4.78 13.61 9.03 29.76 9.32 40.82.28 11.05-3.12 18.74-7.65 18.44-4.54-.3-18.99-2.85-30.61-5.68-11.62-2.84-19.84-7.65-31.46-10.49-11.62-2.83-24.94-11.05-28.35-18.43-3.4-7.37-5.1-15.81-7.09-25.23-1.98-9.42-5.95-21.26-5.95-21.26l-38.55 5.95-16.16-15.59 2.86-24.66Z"/><path class="cls-25" d="M220.54 314.49s4.65-3.12 3.94-8.93c0 0 3.02 1.56 5.98-1.98 0 0 5.79 1.42 8.34-2.27 0 0 2.84.42 3.97-4.68 0 0 3.4-.57 4.25-4.11.85-3.54-3.4-4.39-3.4-4.39s1.84 2.46-1.84 3.97c-3.68 1.51-4.82 2.84-4.82 2.84s-5.1-4.11-9.21-.28c0 0-1.37-3.36-5.79-1.04 0 0-2.29 2.65-4.25 1.33-1.97-1.33-3.99-2.13-4.99.14-.99 2.27.14 3.98.14 3.98s-3.4.98-3.83-1.72c0 0-1.83.91-1.85 4.75v.49c.14 4.25-2.55 3.69-3.26 2.55-.71-1.13-3.54-3.12-3.83-.71-.28 2.41.28 5.67.28 5.67s-.86 1.82-.86 4.81-.41 5.4-2.82 6.25c0 0 2.69 2.55 5.81-.43 0 0 3.06 3.84-1.84 5.26 0 0 .57 5.07 5.53 3.95 0 0-1.84 4.68 1.84 6.52 0 0 .28-3.54 3.26-2.83 2.98.71 2.55 4.96-.43 6.52 0 0 3.38-2.85 5.81-.71 2.43 2.14 1.84 6.24-2.41 7.51 0 0 2.41 2.25 5.81-.14 0 0 1.48 3.66-1.88 5.59 0 0 5.57 1.21 10.25-3.46 0 0 2.13 2.27-1.42 4.54 0 0 4.23 3.83 8.79-.43 0 0 1.7 4.96 5.39 3.26 0 0-1.56-2.15.71-3.91 0 0 1.54 6.61 7.09 4.76 0 0-2.84-2.42-.71-5.46 0 0 2.69 4.89 6.66 1.63 0 0 3.54 1.82 6.52-.93 0 0 2.13.24 3.54 2.92 1.42 2.67 3.68 6.38 8.5 3.54 0 0 3.87-.28 3.71-5.24 0 0 .97-6.09-3.71-5.39 0 0 3.83-2.13 1.98-5.67 0 0 3.12-3.97-1.28-7.23 0 0-.8 5.95-6.92 5.67 0 0-2.43-6.38-6.97-1.27 0 0-2.83-3.26-7.09-1.42 0 0-1.84-2.55-6.38-3.12 0 0-.57 3.26-4.39 4.11 0 0 1.84-3.97-2.69-6.09-4.54-2.13-6.38 2.55-6.38 2.55s-1.13-4.39-5.38-3.12c0 0 2.38-2.27.28-6.24 0 0-.71 2.58-4.11 2.43 0 0 1.42-3.98-.99-5.83 0 0 2.55-6.66-2.67-8.5Z"/><g style="clip-path:url(#clippath-10)"><path class="cls-9" d="M329.78 327.53s2.4 2.55 0 8.5m4.55-10.72s5.1 3.63 1.98 12.98m-7 1.84s2.74 8.36-3.63 18.71m9.5-18.86s3.95 6.14-1.7 14.34m-20.98-11.26s2.84 5.5-3.97 13.65m-2.09-15.15s2.23 3.88-4.01 13.59m-2.13-13.84s2.13 2.95-.28 10.37m-5.25-15.48s2.24 2.68.71 10.95m20.27-19.5s2.41 2.54 1.84 6.66m7.65 9.92s.14 5.53-3.83 12.19"/><path class="cls-17" d="m752.04 121.89-26.81.34-7.21-9.57-2.83-.3-3.78-6.08-12.76 2.85-7.44-3.41-11.45 1.27-.06-5.67-6.91-1.77-3.55-3.54 9.1-.36 6.49-7.79 4.96-.32v6.34l8.39-8.86 4.73 4.96 7.15-5.68 7.37 6.39 6.26-7.04 10.04-4.28 21.14-11.34-22.67 7.78-10.52 2.14H711.6l-9.76 7.07-.35-3.54-9.57 3.9h-9.21l-5.79 5.67-8.84-.36-6.28-8.49 2.48-6.03-8.62-1.05-9.09-5.33 7.79-4.25 9.8 2.49 3.31-12.42-7.8-.12-4.95 6.15-13.23 4.25-16.18.35-7.8-3.88-37.56-16.67-12.04-3.54-12.41-4.96-11.81 5.33-2.83-4.27-6.62 5.32-23.74 3.54-.07-8.15-11.27.72 5.32-7.08-6.37-.3-3.49 7.37 7.97 3.19 2.83 5.67-16.53 10.63-41.58 7.79h-25.04l-17.48 4.25-9.92.36 16.07 1.42 28.7-3.55 38.97 5.69 35.32-21.28 7.56-3.9 20.9-2.48 11.7-2.48 2.12-3.18 6.73 1.77 16.66 8.87L626.37 79l5.31-8.13 9.22-1.44 10.51 10.28 7.08-2.45 4.73 12.37-2.83 5.67 13.81 8.15 1.07 5.67 19.13 1.06 16.54.37 10.39 9.91 4.25 4.96 27.28-.71-.82-2.82z"/></g><path class="cls-7" d="M238.8 316.54s.14 7.16 5.24 13.96m16.87-11.2c.71-1.56.28-2.78.57-4.54.28-1.76.85-4.38-2.13-5.24-2.98-.87-4.39.14-4.39.14s-5.95 1.13-9.36.99c-3.4-.14-5.81-1.85-5.81-1.85s-.57-6.08 2.69-7.78m2.98 16.02s-.85 3.51 2.41 8.28m.41-21.88s-2.4 1.67-2.54 5.37m25.65 4.69s-2.13 2.87.14 6.52m-6.09 2.27-.71-3.68s1.2-2.86.36-5.4m-16.81 4.51s1.86 1.6 1.86 5m.6-18.55s.09 3.08-.88 4.65m3.68-5.09s1.42 1.32 1.13 3.83m-4.04 17.43c0 .34 2.56-3.72 2.56-3.72m19.47 2.61s-1.86 4.22-10.46 10.03m45.04 34.58s9.35 4.24 13.89 11.34c0 0 13.61 4.73 21.54 9.84 7.94 5.11 11.34 5.75 11.34 5.75s2.55-4.93 2.83-16.16c.28-11.23-2.55-18.39-3.68-24.93-1.13-6.54-5.62-12.77-7.91-17.02s-2.29-11.9-1.73-16.72c.57-4.82 2.69-6.94 4.25-8.22 0 0 2.55-2.85 5.1-2.41 0 0 1.41-.95 3.4-.55 1.99.4 2.27.97 3.83 1.4 1.56.43 3.12 1.26 2.13 5.39-.99 4.13-2.41 13.04-1.13 16.02 1.28 2.98 5.24 5.33 5.53 12.76.28 7.43 11.76 23.21 15.17 51.02m-18.99-83.05s2.11-7.94 4.33-12.76c2.22-4.82 5.05-9.35 5.05-9.35m-42.26 25.24s27.21-8.8 34.3-9.09m-15.73 36.57s-5.81 1.99-10.49 9.64c-4.68 7.65-10.49 12.33-12.76 17.43-2.27 5.1-1.13 9.64.42 10.63 1.56.99 10.39 4.82 10.39 4.82s3.36-4.65 6.2-9.05c2.83-4.41 5.1-8.37 7.37-12.13 2.27-3.76 4.25-7.16 4.25-7.16m-4.96-26.02s-2.93-11.12-.83-19.34m4.23 16.53s-2.58-10.51.14-18.8m4.11 19.99s-1.56-11.34 1.27-19.56m-22.81 53.73s-7.38 5.65-10.35 15.29m13.61-12.46s-5.76 4.8-9.92 15.29m13.32-12.9s-6.33 8.36-9.36 15.31"/><path class="cls-23" d="m133.92 197.98 3.12-3.54s-.28-2.98 1.42-7.23 4.11-7.37 5.81-9.64c1.7-2.27 3.12-3.83 3.12-5.39 0 0 1.56 2.11 1.13 4.25-.42 2.14-3.1 6.39-3.1 6.39s5.65-.73 7.49-1.29c1.84-.57 5.39-1.56 8.5-2.41 3.12-.85 13.04-3.4 14.6-3.83 1.56-.43 2.98.71 2.55 2.13 0 0 2.69.71 1.98 2.84 0 0 2.13 2.41.99 4.25-1.13 1.84-3.12 1.98-3.12 1.98s2.13 1.13 0 2.84c-2.13 1.7-17.86 4.82-17.86 4.82s-9.06 4.34-17.41 6.65l-.57.15-8.24 9.07s-2.13-2.69-.43-12.05Z"/><path class="cls-10" d="m133.92 197.98 3.12-3.54s-.28-2.98 1.42-7.23 4.11-7.37 5.81-9.64c1.7-2.27 3.12-3.83 3.12-5.39 0 0 1.56 2.11 1.13 4.25-.42 2.14-3.1 6.39-3.1 6.39s5.65-.73 7.49-1.29c1.84-.57 5.39-1.56 8.5-2.41 3.12-.85 13.04-3.4 14.6-3.83 1.56-.43 2.98.71 2.55 2.13 0 0 2.69.71 1.98 2.84 0 0 2.13 2.41.99 4.25-1.13 1.84-3.12 1.98-3.12 1.98s2.13 1.13 0 2.84c-2.13 1.7-17.86 4.82-17.86 4.82s-9.06 4.34-17.41 6.65l-.57.15-8.24 9.07s-2.13-2.69-.43-12.05Zm27.92-15.45 16.72-5.1m-16.02 8.93s12.34-3.87 18.01-5.64m-16.45 9.47s8.94-3.26 16.45-4.68"/><path class="cls-23" d="m169.44 104.33.1-1.96c5.89-7.2 5.92-16.36 5.92-16.36 4.71-6.67 6.22-16.28 6.22-16.28s-3.07-3.95-6.5-5.95-3.99-2.83-3.99-2.83-2.69 2.24-6.1.41c0 0-3.26.12-6.8-1.15 0 0-5.06 2.56-8.62 2 0 0-.02 4.96-4.42 9.07 0 0 1.58 4.25-2.67 9.07 0 0 2.6 1.56 1.11 5.53 0 0 3.54 5.53-.57 8.79 0 0 5.39 3.54 3.97 9.5 0 0 2.98 1.7 1.7 8.22 0 0 3.86-.28 8.5 3.83 0 0 1.42-2.55 6.66-2.41 0 0 3.01-2.95 6.09-.14 3.05-5.92-.62-9.32-.62-9.32Z"/><path class="cls-25" d="M145.68 106.57s3.12-4.56 7.79-5.67c0 0 3.47-3.42 8.47-2.27 0 0 7.81-1.42 7.04 5.1 0 0 5.11 4.3.55 11.37l-18.18 5.39-6.69-7.02 1.01-6.9Z"/><path class="cls-7" d="M152.63 113.23s3.4-6.39 4.09-10.2c0 0 2.93-.03 5.23-1.36 0 0 1.45 2.07 3.58 2.64 0 0-.93 5.1.81 8.36"/><path d="M475.92 119.94s-8.97.88-15.73 8.46-11.2 7.94-11.2 7.94 3.54 2.05 8.93-1.13c5.39-3.18 17.29-3.68 17.29-3.68l2.69-8.09-1.99-3.5Z" style="fill:#3c1028;stroke-width:0"/><path d="M475.92 119.94s-8.97.88-15.73 8.46-11.2 7.94-11.2 7.94 3.54 2.05 8.93-1.13c5.39-3.18 17.29-3.68 17.29-3.68l2.69-8.09-1.99-3.5Z" style="stroke:#3c1028;fill:none"/><path class="cls-26" d="M453.83 126.34s2.79 3.92 4.37 2.85c1.58-1.07-1.7-5.04-1.7-5.04"/><path class="cls-7" d="M453.83 126.34s2.79 3.92 4.37 2.85c1.58-1.07-1.7-5.04-1.7-5.04"/><path class="cls-26" d="M457.8 123s3.36 4.23 5.22 2.84c1.87-1.4-1.62-5.24-1.62-5.24"/><path class="cls-7" d="M457.8 123s3.36 4.23 5.22 2.84c1.87-1.4-1.62-5.24-1.62-5.24"/><path class="cls-26" d="M463.19 119.44s2.81 4.82 4.8 3.55c1.99-1.27-.48-5.8-.48-5.8"/><path class="cls-7" d="M463.19 119.44s2.81 4.82 4.8 3.55c1.99-1.27-.48-5.8-.48-5.8"/><path class="cls-26" d="M463.31 135.34s-4.05-4.74-2.98-5.1c1.07-.37 5.41 4.53 5.41 4.53"/><path class="cls-7" d="M463.31 135.34s-4.05-4.74-2.98-5.1c1.07-.37 5.41 4.53 5.41 4.53"/><path class="cls-26" d="M467.84 133.35s-4.63-4.32-2.95-5.67c1.68-1.35 6.07 3.4 6.07 3.4"/><path class="cls-7" d="M467.84 133.35s-4.63-4.32-2.95-5.67c1.68-1.35 6.07 3.4 6.07 3.4"/><path class="cls-26" d="M472.83 129.87s-5.64-4.24-3.57-6.05c2.07-1.81 7.37 3.12 7.37 3.12"/><path class="cls-7" d="M472.83 129.87s-5.64-4.24-3.57-6.05c2.07-1.81 7.37 3.12 7.37 3.12M148.1 77.22s4.39-1.42 7.65-1.42c0 0 3.47 1.89 6.2.7 0 0 1.45 3.27 1.17 8.23-.28 4.96-.28 4.82-.28 4.82s-1.42-.85-2.27 1.42m15.31-14.44s-4.11.72-6.94 0c0 0-1.7 2.47-1.7 7.5s-.5 6.38-.5 6.38 1.11 4.55-.47 5.97-4.27 1.33-5.41.37c-1.13-.96-3.97.04-3.97.04m-6.52-16s6.27-3.39 9.78 0m9.07.44s4-2 6.75 0m-24.6.96s3.85 2.35 8.07 0m10.09 1.04s3.09.49 5.36 0m-22.53 1.93s1.41 2.27 4.37 1.13m14.22.66s3.08 1.17 4.05-2.06"/><path class="cls-19" d="M156.01 82.67c.67 0 1.21-.55 1.21-1.22s-.54-1.22-1.21-1.22-1.21.55-1.21 1.22.54 1.22 1.21 1.22Z"/><path class="cls-7" d="M156.01 82.67c.67 0 1.21-.55 1.21-1.22s-.54-1.22-1.21-1.22-1.21.55-1.21 1.22.54 1.22 1.21 1.22Z"/><path class="cls-20" d="M689.94 124.42s11.39 2.55 16.75 16.16c5.36 13.61 4.79 27.81-3.99 40.83-8.79 13.02-11.6 18.98-11.6 18.98s-.59-9.49 4.79-22.68c5.39-13.19 7.96-26.88 3.71-34.3-4.25-7.42-6.26-7.42-6.26-7.42"/><path class="cls-10" d="M689.94 124.42s11.39 2.55 16.75 16.16c5.36 13.61 4.79 27.81-3.99 40.83-8.79 13.02-11.6 18.98-11.6 18.98s-.59-9.49 4.79-22.68c5.39-13.19 7.96-26.88 3.71-34.3-4.25-7.42-6.26-7.42-6.26-7.42"/><path class="cls-20" d="M430.85 114.8c1.7-5.97 8.58-8.52 9.53-17.59.95-9.07-2.23-12.19.5-21.54 2.72-9.35 10.14-15.59 14.94-18.14 4.8-2.55 8.48-1.13 10.75-5.39 0 0 1.98 3.88 3.97 1.82 0 0 4.74 2.25 2.55-2.9l6.62 2.9v-8.05s1.03 5.66 6.7 6.51c5.67.85 20.15.85 24.09 13.04 0 0 5.45 8.79 11.94 8.79l-2.59 3.12s2.31 4.25 8.24 4.25c0 0-.52 2.83-5.66 2.55 0 0 8.75 1.98 10.74 6.52 0 0 8.22 1.7 6.24 4.82 0 0 5.67 6.5 11.06 9.35 5.39 2.85 16.21 8.17 37.16 9.12 20.95.95 37.72-4.3 52.44-5.15 14.72-.85 29.76-.85 43.94 8.79 14.17 9.64 23.22 30.33 19.53 45.92-3.68 15.59-17.29 36.3-10.49 43.09 8.66 8.65 13.32 5.39 13.89 12.47.57 7.09-3.12 7.09-9.92 13.61s-15.31 12.47-24.1 25.51c-8.79 13.04-12.76 26.65-25.79 23.53 0 0-5.95 2.84-11.34-1.13-5.39-3.97-3.68-10.49-3.68-10.49s.28-4.82 8.5-10.21c8.22-5.39 12.19-7.65 18.71-17.86 6.52-10.21 11.62-20.13 11.62-20.13s-5.39-1.98-10.49-7.23c0 0-8.79 2.39-24.66 18.57-15.87 16.17-22.68 20.13-22.68 20.13s-3.4 15.89-20.98 10.22c0 0-4.54-.84-8.5-5.67 0 0-7.09-1.68-4.82-9.92 2.27-8.24 15.02-8.52 15.02-8.52s13.61-16.16 32.31-33.45c0 0-16.72-3.68-34.87-13.32 0 0-21.83 4.85-41.67 7.1 0 0-16.47 6.22-33.17 18.98-16.7 12.76-23.81 16.44-34.87 17.29 0 0-.31 1.28-4.54 4.25-4.23 2.98-5.1 3.26-5.1 3.26s-1.13 1.98.28 4.82c0 0-4.54-.71-5.53-5.24l3.68-6.1s-3.12-.85-4.11-3.12l-4.25.71s-2.27 2.27.28 5.39c0 0-5.08 0-5.81-4.68-.73-4.68 1.98-5.24 1.98-5.24l5.24-3.97-9.92 2.98s-2.27-.43-4.96 2.69c0 0-1.13-2.98 1.13-6.38 2.27-3.4 8.69-7.09 11.5-7.51 2.81-.43 13.02-.39 17.55-2.54 4.54-2.14 19.13-14.05 19.13-14.05s-12.61-1.28-24.52-6.95c0 0-7.94.27-15.02 2.84-7.09 2.57-19.82 1.98-19.82 1.98s-7.09 1.42-12.76.28c0 0-4.42 3.1-8.95 4.54 0 0-.87 1.98-.15 5.1 0 0-4.24-2.69-4.1-6.09.14-3.4 5.81-8.08 5.81-8.08s-4.82 2.13-9.07 2.27c0 0-2.41 1.56-2.55 5.1 0 0-2.13-2.27-.5-7.65 1.63-5.38 5.6-7.09 5.6-7.09s-5.95 1.7-9.78.28l-3.68 3.12 2.69-8.65s.28-5.39 5.95-9.64c5.67-4.25 12.9-2.69 20.55-.43 7.65 2.27 12.95 2.58 19.44.58s14.72-5.67 14.72-5.67.57-4.69 3.26-13.2c2.69-8.5-4.38-8.61-6.94-12.32-2.57-3.7.14-6.11 2.98-7.81 2.84-1.7 6.8-2.11 6.8-2.11s.68-1.83 4.11-2.84c3.42-1.01 3.42-5.4 3.42-5.4s-5.55-5.78-10.79-3.1c-5.24 2.68-12.33 12.17-24.66 8.21 0 0-5.91 0-8.48-4.54-2.57-4.54-.87-9.34-.87-9.34Z"/><path class="cls-10" d="M430.85 114.8c1.7-5.97 8.58-8.52 9.53-17.59.95-9.07-2.23-12.19.5-21.54 2.72-9.35 10.14-15.59 14.94-18.14 4.8-2.55 8.48-1.13 10.75-5.39 0 0 1.98 3.88 3.97 1.82 0 0 4.74 2.25 2.55-2.9l6.62 2.9v-8.05s1.03 5.66 6.7 6.51c5.67.85 20.15.85 24.09 13.04 0 0 5.45 8.79 11.94 8.79l-2.59 3.12s2.31 4.25 8.24 4.25c0 0-.52 2.83-5.66 2.55 0 0 8.75 1.98 10.74 6.52 0 0 8.22 1.7 6.24 4.82 0 0 5.67 6.5 11.06 9.35 5.39 2.85 16.21 8.17 37.16 9.12 20.95.95 37.72-4.3 52.44-5.15 14.72-.85 29.76-.85 43.94 8.79 14.17 9.64 23.22 30.33 19.53 45.92-3.68 15.59-17.29 36.3-10.49 43.09 8.66 8.65 13.32 5.39 13.89 12.47.57 7.09-3.12 7.09-9.92 13.61s-15.31 12.47-24.1 25.51c-8.79 13.04-12.76 26.65-25.79 23.53 0 0-5.95 2.84-11.34-1.13-5.39-3.97-3.68-10.49-3.68-10.49s.28-4.82 8.5-10.21c8.22-5.39 12.19-7.65 18.71-17.86 6.52-10.21 11.62-20.13 11.62-20.13s-5.39-1.98-10.49-7.23c0 0-8.79 2.39-24.66 18.57-15.87 16.17-22.68 20.13-22.68 20.13s-3.4 15.89-20.98 10.22c0 0-4.54-.84-8.5-5.67 0 0-7.09-1.68-4.82-9.92 2.27-8.24 15.02-8.52 15.02-8.52s13.61-16.16 32.31-33.45c0 0-16.72-3.68-34.87-13.32 0 0-21.83 4.85-41.67 7.1 0 0-16.47 6.22-33.17 18.98-16.7 12.76-23.81 16.44-34.87 17.29 0 0-.31 1.28-4.54 4.25-4.23 2.98-5.1 3.26-5.1 3.26s-1.13 1.98.28 4.82c0 0-4.54-.71-5.53-5.24l3.68-6.1s-3.12-.85-4.11-3.12l-4.25.71s-2.27 2.27.28 5.39c0 0-5.08 0-5.81-4.68-.73-4.68 1.98-5.24 1.98-5.24l5.24-3.97-9.92 2.98s-2.27-.43-4.96 2.69c0 0-1.13-2.98 1.13-6.38 2.27-3.4 8.69-7.09 11.5-7.51 2.81-.43 13.02-.39 17.55-2.54 4.54-2.14 19.13-14.05 19.13-14.05s-12.61-1.28-24.52-6.95c0 0-7.94.27-15.02 2.84-7.09 2.57-19.82 1.98-19.82 1.98s-7.09 1.42-12.76.28c0 0-4.42 3.1-8.95 4.54 0 0-.87 1.98-.15 5.1 0 0-4.24-2.69-4.1-6.09.14-3.4 5.81-8.08 5.81-8.08s-4.82 2.13-9.07 2.27c0 0-2.41 1.56-2.55 5.1 0 0-2.13-2.27-.5-7.65 1.63-5.38 5.6-7.09 5.6-7.09s-5.95 1.7-9.78.28l-3.68 3.12 2.69-8.65s.28-5.39 5.95-9.64c5.67-4.25 12.9-2.69 20.55-.43 7.65 2.27 12.95 2.58 19.44.58s14.72-5.67 14.72-5.67.57-4.69 3.26-13.2c2.69-8.5-4.38-8.61-6.94-12.32-2.57-3.7.14-6.11 2.98-7.81 2.84-1.7 6.8-2.11 6.8-2.11s.68-1.83 4.11-2.84c3.42-1.01 3.42-5.4 3.42-5.4s-5.55-5.78-10.79-3.1c-5.24 2.68-12.33 12.17-24.66 8.21 0 0-5.91 0-8.48-4.54-2.57-4.54-.87-9.34-.87-9.34Z"/><path class="cls-20" d="M653.65 203.79s-20.13-7.22-30.05-23.24c-9.92-16.02-7.65-40.82-4.53-55.56 3.12-14.74 5.15-29.2-.26-42.24-5.41-13.04-13.42-15.87-21.04-16.44 0 0-1.66 6.52-12.15 7.94-10.49 1.42-7.81 6.24-7.81 6.24s-3.52-3.98 1.01-8.22c0 0-5.1 4.85-10.77 4.27-5.67-.58-5.39 3.95-5.39 3.95s-3.4-4.82 2.84-8.22c6.24-3.4 4.3-6.15 2.29-7.94-2.01-1.78-5.69.57-5.13 3.12 0 0-2.83-4.82.85-7.37s6.24-2.83 5.1-6.8c-1.13-3.97 2.27-2.55 4.25-3.69 1.98-1.13.85-4.98-2.55-3.77 0 0 .24-3.07 7.49-1.9s8.95-1.98 14.9-2.27c5.95-.28 15.31 2.83 19.27 9.92 3.97 7.09.57 5.67 6.52 15.02 5.95 9.35 12.45 23.81 8.5 51.31-3.95 27.5-11.34 58.68 23.24 76.82"/><path class="cls-10" d="M653.65 203.79s-20.13-7.22-30.05-23.24c-9.92-16.02-7.65-40.82-4.53-55.56 3.12-14.74 5.15-29.2-.26-42.24-5.41-13.04-13.42-15.87-21.04-16.44 0 0-1.66 6.52-12.15 7.94-10.49 1.42-7.81 6.24-7.81 6.24s-3.52-3.98 1.01-8.22c0 0-5.1 4.85-10.77 4.27-5.67-.58-5.39 3.95-5.39 3.95s-3.4-4.82 2.84-8.22c6.24-3.4 4.3-6.15 2.29-7.94-2.01-1.78-5.69.57-5.13 3.12 0 0-2.83-4.82.85-7.37s6.24-2.83 5.1-6.8c-1.13-3.97 2.27-2.55 4.25-3.69 1.98-1.13.85-4.98-2.55-3.77 0 0 .24-3.07 7.49-1.9s8.95-1.98 14.9-2.27c5.95-.28 15.31 2.83 19.27 9.92 3.97 7.09.57 5.67 6.52 15.02 5.95 9.35 12.45 23.81 8.5 51.31-3.95 27.5-11.34 58.68 23.24 76.82m-14.17-43.37s-2.55 18.71 3.4 30.33c5.95 11.62 13.04 13.91 13.04 13.91s.09 3.55 1.51 8.04c1.12 3.53 3.06 7.64 6.43 11.08"/><path class="cls-7" d="M462.9 87.29s11.88-1.72 20.95 7.94M450.4 84.46s-5.59-2.23-10.02 2.22"/><path class="cls-26" d="M461.61 95.57s3.97 1.78 7.09 1.5c3.12-.28 4.65.71 4.39 3.4-.26 2.69-2.79 4.39-5.58 4.11-2.78-.28-4.08-4.9-2.93-7.74"/><path class="cls-7" d="M461.61 95.57s3.97 1.78 7.09 1.5c3.12-.28 4.65.71 4.39 3.4-.26 2.69-2.79 4.39-5.58 4.11-2.78-.28-4.08-4.9-2.93-7.74"/><path class="cls-26" d="M440.91 92.13s1.85.44 4.4 0c2.55-.44 3.16 2.54 2 4.52-1.16 1.98-4.42 3.48-5.13.25s-.26-4.59-.26-4.59"/><path class="cls-7" d="M440.91 92.13s1.85.44 4.4 0c2.55-.44 3.16 2.54 2 4.52-1.16 1.98-4.42 3.48-5.13.25s-.26-4.59-.26-4.59m1.25 27.44s2.74.32 5.2-.69m-12.99-2s1.96 2.39 4.11 2.39"/><path class="cls-16" d="M199.28 196.14s-17.88 9.35-10.23 45.07l-14.79 9.35-6.75-41.73 11.95-12.41 19.82-.28Z"/><path class="cls-6" d="M196.63 199.84s-7.72 14.24-4.6 35.27m5.38-16.57s-1.56 3.82.57 14.16m-75.83-33.1s-3.54 20.69 4.61 32.25m4.49-34.5s-1.76 2.13-4.49 6.8m-10.51 6.64s-2.46 14.36 5.34 22.01"/><path d="M26.37 176.98s-4.28-3.09-5.83-.82c-1.56 2.27 2.86 5.67 2.86 5.67s-6.71-4.65-8.24-.41c-1.54 4.24 4.54 3.81 4.54 3.81s-1.98.71-1.28 3.26c.71 2.55 7.51-1.42 7.51-1.42m14.7-8.49s-2.51-4-4.21-2c-1.7 2-.38 3.69-.38 3.69s-4.6-4.34-5.71.31c-1.11 4.65 3.12 3.52 3.12 3.52s-2.93 2.55.02 3.83m18.97-10.95s.57-4.5 3.12-3.94c2.55.57 2.13 2.83 2.13 2.83s3.52-1.5 3.83 1.17c.31 2.66-1.11 3.81-3.94 4.36 0 0 .47 3.69-2.57 3.83-3.05.14-3.14-2.27-2.41-3.68m-4.54 18.57s2.41-5.53 6.24-9.07 5.95-3.62 7.23-2.66c1.28.96 1.52 3.74-1.56 5.45 0 0 1.84 2.59-2.27 4.72 0 0 2.69 1.7-1.13 3.4 0 0 1.96 1.42.33 2.69-1.63 1.28-4.01-.85-4.01-.85m-11.8 6.66s-2.39 4.25-5.71 1.84.65-4.53.65-4.53m7.23-97.79s-4.11-3.83-5.24-8.22c-1.13-4.39-.14-5.53.71-6.09.85-.57 2.78-.43 3.83 8.5 0 0-1.13-11.2.71-11.05 1.84.14.79 7.65.57 10.77 0 0 .85-7.65 3.83-7.51 2.98.14.49 6.66-2.41 9.78m1.7 86.74s-2.27-4.68-2.27-9.78-.32-10.06-3.7-11.2c-3.38-1.13-6.4-.96-10 .58 0 0-1.47-4.27 1.65-6.54 0 0-4.68-1.13-4.25-4.25.43-3.12 2.41-3.65 4.39-2.96 1.98.69 2.61 3.67 2.61 3.67m7.87 5.67s-2.58-5.95-2.58-14.17-1.52-11-6.62-11.91c-5.1-.91-6.2-4.54-6.2-4.54M41.45 143s-.77-5.5-4.43-6.93c-3.67-1.43-6.85-1.98-6.03-3.68.82-1.7 5.16-.57 5.16-.57s-4.77-2.71-1.95-5.54c2.82-2.83 6.48 1.7 6.48 1.7s.89-.7 2.16 4.33c1.28 5.02 1.98 8.3 1.98 8.3m-18.85-11.92s-2.09-3.03-.62-5.1c0 0-5.67-2.41-3.35-5.81 2.32-3.4 7.34-2.91 8.35 1.28 0 0-2.58-5.67.63-6.24 3.21-.57 4.57 6.1 4.57 6.1m-4.19 90.01s-6.4 1.67-7.94-.44 1.3-3.4 1.3-3.4-4.7-.96-3-3.81c1.7-2.85 5.66.27 5.66.27s-2.85-4.57 0-4.82 3.61 4.83 3.61 4.83m12.16 3.53s-.83-1.84-.85-6.52c-.02-4.68-3.87-7.53-8.24-7.23-4.37.3-7.88-1.12-7.88-1.12m-3.31-22.27s-5.67 1.54-6.24-1.42c-.57-2.96.73-2.96.73-2.96s-5.08-.65-4.25-3.12c.83-2.47 6.07-1.01 6.07-1.01m5.95.72s-7.65.24-6.94-3.56 4.81-3.12 4.81-3.12m-3.75 1.21s-4.18 1.76-5.46-3.76c0 0-2.69-.42-2.69-3.4s3.69-4.82 7.23-2.69c0 0-1.93-2.69.57-4.39 2.5-1.7 5.1 2.62 5.1 2.62m8.5 15.44s-5.27.21-4.64-3.05c.64-3.27 2.5-3.27 2.5-3.27s-5.8-1.6-3.53-4.69c2.27-3.09 5.69 1.73 5.69 1.73s1.12-2.14 3.53-1.27m10.63 16.72s-1.84-7.09 1.42-15.59m3.19 21.47s2.2-6.24 12.97-6.24m-9.64-1.9s4.04-4.51 7.09 1.9m-11.62-1.86s1.94-5.68 7.45-1.8m-13.81-43.61s3.96-6.38 3.38-13.18m-15.46 3.97S42 110.42 42 128.96m9.92 14.1s4.68-5.69 11.48-3.52c6.8 2.17 7.09-1.37 6.66-3.07-.43-1.7-4.25-1.7-4.25-1.7s5.24-3.4 1.13-5.81c-4.11-2.41-5.99 3.83-5.99 3.83m-9.42 3.4s7.05-12.21 11.87-7.23m-11.87-1.05s.61-8.3 6.66-5.04m-9.25-4.71s1.88-3.41 4.77-.84c2.89 2.57 1.02 4.84 1.02 4.84m0 30.03s-.21-5.38 3.08-5.65c3.29-.27 2.82 3.13 2.82 3.13s3.4-1.55 3.9 2.82m-33.04 43.06s5.39-.88 4.72 4.42" style="stroke:#e6bc9f;fill:none"/><path class="cls-10" d="M590.94 192.56s21.81-1.23 32.95-10.09m-132.1-62.17s8.2-1.54 11.62 5.83m-14.74.21s7.94-.21 10.21 6.03m-13.61.17s4.95.11 8.73 4.65m23.58-6.52s11.03-.23 17.86 6.84m-17.87-14.5s12.63-.62 18.23 6.18m-25.87 22.1s9.69 2.83 12.5 17.36m-12.64-8.87s3.33 2.64 6.56 13.69M494 168.75s8.61 10.21 8.58 22.87m-10.89-11.59s7.65 6.81 7.65 17m-12.09-15.04s5.6 6.27 6.37 15.04m-9.4-11.64s3.28 3.69 4.44 13.32m-9.62-10.37s1.99 2.83 2.27 8.73m168.09-17.04s14.15 9.65 31.46 1.62m-18.42 13.37s12.19 1.22 21.54-5.66M569.67 155.2s3.4 9.27-11.12 30.15M468.29 73.14s-4.61-3.97-.79-14.46m8.41 16.72s-5.66-6.86-2.31-16.9m11.65 17.21s-8.58-3.72-6.81-15.63"/><path class="cls-19" d="M247.03 321.53a1.071 1.071 0 0 0 0-2.14 1.071 1.071 0 0 0 0 2.14Z"/><path class="cls-7" d="M247.03 321.53a1.071 1.071 0 0 0 0-2.14 1.071 1.071 0 0 0 0 2.14Z"/><path class="cls-19" d="M248.02 307.06a1.071 1.071 0 0 0 0-2.14 1.071 1.071 0 0 0 0 2.14Z"/><path class="cls-7" d="M248.02 307.06a1.071 1.071 0 0 0 0-2.14 1.071 1.071 0 0 0 0 2.14Z"/><path class="cls-19" d="M172.88 83.2c.57 0 1.03-.47 1.03-1.04s-.46-1.04-1.03-1.04-1.03.47-1.03 1.04.46 1.04 1.03 1.04Z"/><path d="M172.88 83.2c.57 0 1.03-.47 1.03-1.04s-.46-1.04-1.03-1.04-1.03.47-1.03 1.04.46 1.04 1.03 1.04Z" style="stroke:#353500;stroke-width:.85px;fill:none"/><path class="cls-19" d="M466.45 101.3c1.15 0 2.07-.91 2.07-2.02s-.93-2.02-2.07-2.02-2.07.91-2.07 2.02.93 2.02 2.07 2.02Z"/><path class="cls-7" d="M466.45 101.3c1.15 0 2.07-.91 2.07-2.02s-.93-2.02-2.07-2.02-2.07.91-2.07 2.02.93 2.02 2.07 2.02Z"/><path class="cls-19" d="M443.48 95.86c.9 0 1.64-.72 1.64-1.6s-.73-1.6-1.64-1.6-1.64.72-1.64 1.6.73 1.6 1.64 1.6Z"/><path d="M443.48 95.86c.9 0 1.64-.72 1.64-1.6s-.73-1.6-1.64-1.6-1.64.72-1.64 1.6.73 1.6 1.64 1.6Z" style="stroke-width:.79px;stroke:#353500;fill:none"/></svg>