
<svg xmlns="http://www.w3.org/2000/svg" xmlns:xlink="http://www.w3.org/1999/xlink" viewBox="0 0 2125.98 1213.23"><defs><style>.a,.g{fill:none;}.b{clip-path:url(#a);}.c{fill:#724d1c;}.d{fill:#493075;}.d,.e,.f,.g,.h,.j{stroke:#8e6710;stroke-miterlimit:10;}.d,.e{stroke-width:5px;}.e{fill:#5c3f92;}.f{fill:#bc8e4d;}.f,.j{stroke-width:7px;}.g,.h{stroke-width:9px;}.h{fill:#a87843;}.i,.j{fill:#8e6710;}</style><clipPath id="a"><rect class="a" width="2125.98" height="1213.23"/></clipPath></defs><g class="b"><rect class="c" width="2125.98" height="1213.23"/><path class="d" d="M1806.68,1082.71l-119.1-37.52-288.16,21.46,81-4.87c-81.94-709.34-256.35-890.43-256.35-890.43L976.84-74S694-41,515.16,208.67c-134.6,188-168.36,436.48-168.36,436.48C292,978.82,305.17,1074.82,330.38,1304.9l1226.4,55.85c178.62-94.75,254.65-255.51,254.65-255.51"/><polygon class="e" points="1449.94 495.79 1500.93 401.51 1891.16 357.92 1968.85 1011.42 1915.07 1048.89 1605.74 1081.8 1449.94 495.79"/><polygon class="f" points="1534.2 1101.84 1898.43 1052.45 1819.22 457.2 1449.94 495.79 1534.2 1101.84"/><line class="g" x1="1874.85" y1="875.27" x2="1945.89" y2="824.89"/><line class="g" x1="1869.72" y1="843.27" x2="1943.46" y2="794.34"/><line class="g" x1="1841.18" y1="614" x2="1915.6" y2="561.37"/><line class="g" x1="1835.87" y1="582.33" x2="1910.86" y2="531.12"/><line class="g" x1="1681.48" y1="472.59" x2="1675.99" y2="386.84"/><line class="g" x1="1652.41" y1="474.63" x2="1648.53" y2="389.5"/><polyline class="g" points="1898.43 1052.45 1968.85 1011.42 1891.16 357.92 1500.93 401.51 1449.94 495.79"/><path class="g" d="M803,266.43s-104.2,337.36,207.87,818.28"/><path class="g" d="M636.26,599.87s-5.4,189,200.51,404.92"/><path class="g" d="M691.84,670.41S792.3,916,931.23,1082.71"/><path class="g" d="M704.4,479s77.74,292,233.23,532.57c73.66,114,169.15,99.37,169.15,99.37l154.09-63.41,18.52,310.17L1382.77,1112"/><path class="g" d="M1106.78,1111C850.29,835.22,852.14,345.52,852.14,345.52s346.55,96.41,254.64,765.43"/><path class="g" d="M931.23,319.87s294.29,145.27,202.38,773.68"/><path class="g" d="M535.18,730.16s113.91,434,520,654.15"/><path class="g" d="M1028.43,1459s82.11,78.62,115.87-40.67,116.57-370.83,116.57-370.83"/><line class="g" x1="1195.75" y1="1073.67" x2="1224.06" y2="266.43"/><path class="g" d="M820.08,176.66S347.71,240.79,612.75,1192l228.71,177.4L599.93,993.16"/><path class="g" d="M1106.78,1111s-204.87,54.13-184.85,188.5"/><path class="g" d="M1106.78,1111S997.43,1222,1051,1299.45"/><path class="g" d="M895.61,406.9s173.13,108.3,178.6,403.27"/><path class="g" d="M877.19,98.86s-400.82,34-439.71,656c-23.05,368.65,47,516.19,47,516.19s98.33-17.1,166.72,29.92,106.88,64.13,190.24,68.4"/><path class="g" d="M935.24,19.77S717,7.32,540.08,257.88C375.15,491.46,372.41,916,372.41,916c-4.39,299.47,35.72,360.49,35.72,360.49"/><path class="g" d="M1382.77,1112s4,199.08-115.72,316.91c-41.69,41-182.17,107.13-236.55,94.31S813.67,1347.8,813.67,1347.8"/><path class="g" d="M1252.86,330.31S1328.64,613,1227.28,1014"/><path class="g" d="M1769,1114.52S1544.29,1367.41,1385,1368"/><path class="h" d="M1017.8-293.57,967.57-24.26,820.08,176.66s95.15,29,160.46,85.07c28.25,24.26,34.05,66.69,34.05,66.69s68.4,109,132.52,98.32,77-160.31,77-160.31l36.81-323.95"/><rect class="i" x="1656.42" y="751.35" width="43.5" height="43.5" transform="translate(788.22 -846.14) rotate(36.47)"/><ellipse class="i" cx="1657.46" cy="609.52" rx="16.63" ry="34.98" transform="translate(-57.99 190.09) rotate(-6.45)"/><ellipse class="i" cx="1694.24" cy="933.48" rx="16.63" ry="34.98" transform="translate(-94.16 196.28) rotate(-6.45)"/><ellipse class="i" cx="1784.39" cy="760.38" rx="21.89" ry="21.88" transform="translate(-39.22 99.56) rotate(-3.16)"/><ellipse class="i" cx="1566.67" cy="788.95" rx="21.89" ry="21.88" transform="translate(-41.13 87.6) rotate(-3.16)"/><path class="g" d="M1620.8,1097.14c-38.47,34.21-162.1,139.87-257.45,173.07"/><circle class="j" cx="1830.13" cy="723.57" r="5.93"/><circle class="j" cx="1826.48" cy="693.63" r="5.93"/><circle class="j" cx="1822.87" cy="661.98" r="5.93"/><circle class="j" cx="1819.21" cy="632.04" r="5.93"/><circle class="j" cx="1814.87" cy="601.33" r="5.93"/><circle class="j" cx="1811.22" cy="571.39" r="5.93"/><circle class="j" cx="1807.61" cy="539.74" r="5.93"/><circle class="j" cx="1802.95" cy="510.8" r="5.93"/><circle class="j" cx="1798.53" cy="482.89" r="5.93"/><circle class="j" cx="1865.46" cy="997.13" r="5.93"/><circle class="j" cx="1551.42" cy="1042.18" r="5.93"/><circle class="j" cx="1869.56" cy="1026.99" r="5.93"/><circle class="j" cx="1861.81" cy="966.19" r="5.93"/><circle class="j" cx="1858.2" cy="935.55" r="5.93"/><circle class="j" cx="1855.55" cy="904.61" r="5.93"/><circle class="j" cx="1850.2" cy="873.89" r="5.93"/><circle class="j" cx="1846.55" cy="843.95" r="5.93"/><circle class="j" cx="1547.02" cy="1011.85" r="5.93"/><circle class="j" cx="1542.36" cy="981.91" r="5.93"/><circle class="j" cx="1537.76" cy="950.27" r="5.93"/><circle class="j" cx="1535.1" cy="920.33" r="5.93"/><circle class="j" cx="1529.76" cy="889.61" r="5.93"/><circle class="j" cx="1527.1" cy="859.67" r="5.93"/><circle class="j" cx="1842.94" cy="813.3" r="5.93"/><circle class="j" cx="1839.29" cy="783.36" r="5.93"/><circle class="j" cx="1833.86" cy="753.45" r="5.93"/><circle class="j" cx="1522.29" cy="791.08" r="5.93"/><circle class="j" cx="1519.63" cy="761.14" r="5.93"/><circle class="j" cx="1516.02" cy="729.49" r="5.93"/><circle class="j" cx="1513.37" cy="699.55" r="5.93"/><circle class="j" cx="1507.03" cy="668.83" r="5.93"/><circle class="j" cx="1504.37" cy="638.89" r="5.93"/><circle class="j" cx="1500.76" cy="607.25" r="5.93"/><circle class="j" cx="1491.69" cy="551.39" r="5.93"/><circle class="j" cx="1525.02" cy="824.95" r="5.93"/><circle class="j" cx="1616.75" cy="1064.26" r="5.93"/><circle class="j" cx="1584.33" cy="1068.75" r="5.93"/><circle class="j" cx="1553.6" cy="1072.1" r="5.93"/><circle class="j" cx="1650.32" cy="1061.74" r="5.93"/><circle class="j" cx="1688.64" cy="1055.18" r="5.93"/><circle class="j" cx="1718.5" cy="1051.71" r="5.93"/><circle class="j" cx="1750.53" cy="1047.43" r="5.93"/><circle class="j" cx="1780.39" cy="1043.96" r="5.93"/><circle class="j" cx="1810.42" cy="1036.61" r="5.93"/><circle class="j" cx="1840.28" cy="1033.14" r="5.93"/><circle class="j" cx="1550.72" cy="511.8" r="5.93"/><circle class="j" cx="1580.57" cy="508.33" r="5.93"/><circle class="j" cx="1482.09" cy="518.44" r="5.93"/><circle class="j" cx="1520.95" cy="514.97" r="5.93"/><circle class="j" cx="1612.11" cy="504.86" r="5.93"/><circle class="j" cx="1641.97" cy="501.39" r="5.93"/><circle class="j" cx="1672.5" cy="497.22" r="5.93"/><circle class="j" cx="1702.36" cy="493.75" r="5.93"/><circle class="j" cx="1733.9" cy="489.29" r="5.93"/><circle class="j" cx="1764.75" cy="485.82" r="5.93"/><circle class="j" cx="1620.95" cy="779.97" r="5.93"/><circle class="j" cx="1560.83" cy="740.86" r="5.93"/><circle class="j" cx="1572.6" cy="834.91" r="5.93"/><circle class="j" cx="1669.45" cy="717" r="5.93"/><circle class="j" cx="1664.8" cy="674.32" r="5.93"/><circle class="j" cx="1616.15" cy="611.52" r="5.93"/><circle class="j" cx="1696.17" cy="601.34" r="5.93"/><circle class="j" cx="1684.95" cy="565.63" r="5.93"/><circle class="j" cx="1692.43" cy="643.85" r="5.93"/><circle class="j" cx="1626.6" cy="649.6" r="5.93"/><circle class="j" cx="1622.35" cy="570.33" r="5.93"/><circle class="j" cx="1650.93" cy="540.57" r="5.93"/><circle class="j" cx="1684.11" cy="828.01" r="5.93"/><circle class="j" cx="1687.39" cy="864.13" r="5.93"/><circle class="j" cx="1658.96" cy="896.4" r="5.93"/><circle class="j" cx="1723.67" cy="887.97" r="5.93"/><circle class="j" cx="1735.14" cy="923.83" r="5.93"/><circle class="j" cx="1654.61" cy="935.92" r="5.93"/><circle class="j" cx="1791.18" cy="805.6" r="5.93"/><circle class="j" cx="1733.6" cy="765.83" r="5.93"/><circle class="j" cx="1777.17" cy="714.06" r="5.93"/><path class="h" d="M1260.87,1047.54c64.79-87.67,97.24-190.24,123.68-308.76,11.31-53.63,62.6-164.45,106.3-219.42,12-15.13,32.47-5,24.19,9.4-36.32,62.92-47.42,61.57-86.71,178.11l9,2.14c46.5-109.65,46.86-100.64,98.41-180.83,8.83-13.75,31.82-4.55,18.85,18.36C1514.44,608.75,1495,651,1463.09,740l7.81,1.36,28-67.78,24.26,25.2-27.87,74.7s26.23-78.13,27.87-74.7c4.39,7,17.09,24.15,16.09,44.45-2.8,21.3-41.78,229.75-123.1,261-10.1,43.18-20.44,77.5-33.43,107.8Z"/><path class="h" d="M1809,1096.11a57.47,57.47,0,0,0,19.16,10.7c8.66,3,17.49-7.41,21.56-15.11s6.17-24.11-11.45-20-19.66,1.83-19.66,1.83"/><path class="h" d="M1758.5,1122.22s17.64,7.24,30.19,3.31,22.33-21.85,28.89-43.4,4.41-37.34-10.12-79.13c-14.18-40.76-10.64-53.91-25.14-53.85-16.34.07-15.32,25.74-12.52,40.16s16.67,44.41,12.35,68.58-10.87,33-10.87,33"/><path class="h" d="M1725.94,1094.22s10.41-25.37,3-67c-3.37-19-6.72-37.77-10.88-50.66a67.73,67.73,0,0,0-4.31-10.7c-6-11.24.63-24.69,9.37-26.23,15.68-2.76,18.92,8.81,22.86,21.37s11,38.2,21.53,61.06,13.7,48.16,7,71-20.23,34.71-33.82,38c-16.76,4.09-28.5-1.82-28.5-1.82"/><path class="h" d="M1668.81,1127.46s13.09,10.41,27,8.54,25.63-12.51,36-37.4c7.47-17.86,5.43-40.91-2.83-71.36s-4.7-64-20.25-65.67-20.24,27.35-19.68,45.52"/><path class="h" d="M1653.45,1086.67c7.68-10.68,7.69-26.25,10.84-47.3s8.65-39.4,20.45-40,8.14,19.89,9.73,45.34c2,31.61,5.24,46.74-11.07,67.26-10.48,13.2-25.11,20.61-37.85,14.23s-17-33.16-17-33.16"/></g></svg>
