<svg xmlns="http://www.w3.org/2000/svg" viewBox="0 0 279.78 96.62"><defs><clipPath id="clip-path"><path class="cls-1" d="M0 0h279.78v96.84H0z"/></clipPath><style>.cls-1,.cls-12,.cls-17,.cls-18,.cls-21,.cls-23,.cls-7{fill:none}.cls-23,.cls-7{stroke:#f0daa4}.cls-10,.cls-12,.cls-16,.cls-17,.cls-18,.cls-21,.cls-23,.cls-7{stroke-miterlimit:10}.cls-8{fill:#fff}.cls-16{fill:#faf3e1}.cls-10{fill:#e1b74d}.cls-10,.cls-21{stroke:#e7c571}.cls-12{stroke:#626162}.cls-16,.cls-18{stroke:#faf3e1}.cls-17{stroke:#fff}.cls-18{stroke-width:.75px}.cls-23{opacity:.2}</style></defs><g clip-path="url(#clip-path)"><path fill="#aa945f" d="M0 0h279.78v96.84H0z"/><path d="M202.66-5.76c0-1.6-.65-4.22-.94-6.48s-2-3.09-1.87-4.6-1.79-4.5-2.44-5.34-2.54-4.32-4.13-4.89-2.44-2.15-4.69-2.25-4.51-3-5.82-3.09a51.78 51.78 0 01-5.45-1.32c-.47-.09-1.5 0-3.75-.28s-3.38-.75-4.51-.75-2 1-3.47 1a5.11 5.11 0 00-2.81.85 9.88 9.88 0 00-1.79 2 2.81 2.81 0 00-1.31 2.72l.28 1.78s-2.35 1.69-3.66 2.91a40.32 40.32 0 00-4.13 5.44c-.75 1.13-2.51 3.36-2.72 5.19L148 .43a6.14 6.14 0 00-1 1.41 8.43 8.43 0 00-.43 3.24c0 .84-.14 2.11-.28 3.66a41 41 0 000 4.15c0 1.34.14 2.61.14 2.61S145 16.62 145 17.4s-.35 3.87-.35 5.49 1.27 1.48 1.55 2.74 2 2.26 3 3.38a22.19 22.19 0 003 2.4c.71.56 2.47 2.32 2.89 2.74a12.15 12.15 0 002.53 2.32 11.26 11.26 0 011.62 1.06l.28.14.22 6.26 3 3.31 2.89-2.05V40c.06.3.12.58.15.84a26.38 26.38 0 01.37 2.82c0 .84.19 2.72.19 3.66a7.6 7.6 0 01-.37 2.81c-.38 1-.57 2.91-.94 3.85a13.23 13.23 0 00-.56 3.57c-.1 1.22 0 4.5 0 5.35a11 11 0 001 2.91 15.71 15.71 0 001.78 2.62 1.13 1.13 0 001 .57s2.44-.47 3.85-.85a39.21 39.21 0 006-2.34 47.77 47.77 0 004.69-2.82 9.94 9.94 0 001.88-2.35 18.59 18.59 0 001.31-2.72 13.67 13.67 0 00.56-3.66 16.62 16.62 0 01.36-4.26c.37-1.41.56-3.57.84-4.51a7.64 7.64 0 00.38-2.81 22.25 22.25 0 01-.38-2.54 28 28 0 00-.09-3.84 17.41 17.41 0 00-1.13-3.38c-.17-.39-.38-.91-.56-1.37l2.27-.06 5.92-3a12.57 12.57 0 002.11-2.89c.21-.84 1-1.33 1.34-2.25a9.54 9.54 0 001.05-2.89c0-.91.49-1.47.92-2.81a11.41 11.41 0 00.35-3.87c0-1.62.77-2.11 1.19-2.82a15.85 15.85 0 00.92-3.1 43.43 43.43 0 00.91-6c0-1.8-.28-6.02-.28-7.62zM173.1 48.3c-.28-.56-.66-2-1-2.91s-.28-2.25-.66-2.82a14.24 14.24 0 01-1.22-2.44 14.52 14.52 0 01-.56-2.62c-.06-.41-.23-1.29-.35-2.08l.57-.13a23.67 23.67 0 011.09 2.39 29.86 29.86 0 01.94 3c.19 1.22.94 2.91.94 3.56s.75 5.26.75 5.26a8.3 8.3 0 00-.5-1.21zm6.38-4a11.3 11.3 0 01-.84-1.59c-.1-.38-.75-2.25-.85-2.72a9 9 0 00-.84-1.69s-1.13-2.72-1.5-3.38c-.12-.2-.27-.49-.45-.8l.89-.21a7 7 0 01.4 1c.38 1.22 1.78 4.5 1.78 4.5l1.54 4.52zm1.33-11.56l1.08-.25c.28.46.53.87.69 1.11a12.27 12.27 0 01.75 2.54c.12.31.33 1.3.51 2.11z" opacity=".4" fill="#f0daa4"/><path d="M84.27 32a24.24 24.24 0 01-2.36-6.48 22 22 0 01-.32-5.21 16 16 0 01.57-3.37c.28-.43-.14-1.27-1.27-1.41s-3.66 1.26-4.37 3.38a23.6 23.6 0 00-.7 6.61 27.83 27.83 0 00.56 4.09l-.14.28s-.84-1.69-1.69-3.1A18.86 18.86 0 0173 22a38.33 38.33 0 00-1.12-4 21.51 21.51 0 01-1.27-4.79c0-1-.14-3.37-.84-4.08s-.91-2-2-2.39-1.8 0-1.94.7a25.68 25.68 0 000 4.65c.14 1.12.28 2.67.28 3.38a16.75 16.75 0 00.81 3.66 21.47 21.47 0 011.13 4.36 10.52 10.52 0 01-.11 1.83h-.42s-.71-2.25-.85-3.1a16.38 16.38 0 00-.84-3.09c-.29-.57-.85-2.54-1.27-3.38a15.84 15.84 0 01-.71-3.24c-.14-.7-1.12-2.81-1.4-3.8a6.84 6.84 0 00-1.69-2.82 2.37 2.37 0 00-3.1-.7c-.84.56 0 3.94 0 3.94-.84-.42-1.83-1-2.39-.7s-.71 1.44-.57 2.57a32.66 32.66 0 00.3 4.05 11.91 11.91 0 01.4 2c-.21-.31-.4-.6-.55-.86a2.16 2.16 0 00-2.67-1c-.84.42-.56 1.69-.56 2.25a23.5 23.5 0 00.7 3.94c.28.84.85 1.83 1 2.53s.42 2.26.7 3.24a16.65 16.65 0 01.56 3.66 12.16 12.16 0 00.85 3.24 21 21 0 01.82 3.95 28.41 28.41 0 002.54 7c1 1.83 3.52 6.91 3.52 6.91l.7 1.47s3.48.89 3.94 2.18a7.7 7.7 0 01.42 2.53l7-1.87a1.53 1.53 0 01.75-1.89c1.22-.65 5.49-3.7 5.49-3.7l1.59-1 .07-.28a56.14 56.14 0 001.43-7.61 38.88 38.88 0 01.71-6.19c.42-1.89.59-2.55-.14-3.55zM55.39 17.06" opacity=".55" fill="#f0daa4"/><path d="M155.74 2.4s-1-.23-1.32-.28-1.45-.23-1.73-.28-.9-.42-.85-.75a.8.8 0 01.85-.75 4.16 4.16 0 011.69.19 9.78 9.78 0 011.17.7 2 2 0 01.61.85c0 .18-.42.32-.42.32z" opacity=".8" fill="#f0daa4"/><path class="cls-7" d="M185.7 31.55l2.53-.07 5.92-3a12.57 12.57 0 002.11-2.89c.21-.84 1-1.33 1.34-2.25a9.54 9.54 0 001.05-2.89c0-.91.49-1.47.92-2.81a11.41 11.41 0 00.35-3.87c0-1.62.77-2.11 1.19-2.82a15.85 15.85 0 00.92-3.1 43.43 43.43 0 00.91-6c0-1.78-.28-6-.28-7.6s-.65-4.22-.94-6.48-2-3.09-1.87-4.6-1.79-4.5-2.44-5.34-2.54-4.32-4.13-4.89-2.44-2.15-4.69-2.25-4.51-3-5.82-3.09a51.78 51.78 0 01-5.45-1.32c-.47-.09-1.5 0-3.75-.28s-3.38-.75-4.51-.75-2 1-3.47 1a5.11 5.11 0 00-2.81.85 9.88 9.88 0 00-1.79 2 2.81 2.81 0 00-1.31 2.72l.28 1.78s-2.35 1.69-3.66 2.91a40.32 40.32 0 00-4.13 5.44c-.75 1.13-2.51 3.36-2.72 5.19"/><path class="cls-8" d="M194.22 27.82s-4.79 1.9-5.78 2.25a5.82 5.82 0 00-2.18 1.27 28.51 28.51 0 001.2 3.23l2.32-.63 2.38-1.49z"/><path d="M191.47 32.53a19.3 19.3 0 01-3.24 1.62c-.63.07-.77.77-.77.77l.3 3.1v1.13l1.71-2.61 1.72-2.4z"/><path d="M159.3 37.53l4.09-.49 3.05-2.91 1.22-.85.34-1-1-4.43.94-2.35 1.87-.84 1 .25v-2.8L173.1 20l2.32 3 .73.8.14-2.27.86-1 1 .65 3.85 4.88 6.18-2.22 1.82-3.56-.53-1.28-2-1.27-1.2-4.86V8.6l.75-4 3.68-7.4 2.37-1.83-1.95-1.88-3.66-.1 1.13 2-.45 3.52-2.09 3.23-5.4 4-6.85 4.5-3.94 4.08h-4.64l-2.82-2.81-2.82-3.52-1.54-3-3.8-1.06-4 .29-1.83-.29-1.4-2.46-.53 4.93s.29 8.21 0 8.73S145 17.4 145 17.4l-.35 5.49L145 24l1.25 1.65 2.64 3 5.22 4.46 2.6 2.65z" opacity=".48" fill="#faf3e1"/><path class="cls-7" d="M165.52 36.32l.19 6.1v2.77l-2.89 2.05-3-3.31-.22-6.26-.28-.14a11.26 11.26 0 00-1.62-1.06 12.15 12.15 0 01-2.53-2.32c-.42-.42-2.18-2.18-2.89-2.74a22.19 22.19 0 01-3-2.4c-1.06-1.12-2.75-2.11-3-3.38s-1.55-1.12-1.55-2.74.35-4.72.35-5.49 1.48-1.9 1.48-1.9-.14-1.27-.14-2.61a41 41 0 010-4.15c.14-1.55.28-2.82.28-3.66a8.43 8.43 0 01.43-3.24 6.14 6.14 0 011-1.41"/><path d="M161.27 46.89a26.36 26.36 0 01-1.9-4.79A25.79 25.79 0 01159 38l-.66 2.18-.52 2.82.92 2.11z"/><path class="cls-8" d="M163.1 46.54l-.77-2.61-1.33-2.67-1-1.76-.71-2-.29.5a24.75 24.75 0 00.35 4.15c.32 1.14 1.9 4.79 1.9 4.79z"/><path class="cls-10" d="M69.3 135.86l-2.63-.56-1.36 1.68.09-32.59-.61-20.33 4.23 15.11.28 36.69z"/><path d="M105 126.57s-14.4-2.57-17.21-3.38a31.9 31.9 0 00-6.76-1.4 3.12 3.12 0 01-3.1-2c-.84-1.69-6.19-11-7-13.8s-4.22-15.49-4.22-17.18v-1.66l-.33-.78-.51-1.19a2.48 2.48 0 002.11.85c1.55 0 3.8-1.13 5.49-1.55l1.69-.42a3 3 0 001.55-.43l.56-.42A6.7 6.7 0 0079.48 85a8.28 8.28 0 004.52-.1c1.26-.42 4.22-1.41 4.64-2s1.69-3.24 1.69-3.24a14.25 14.25 0 011.13 2.68c.28 1.12.42 2.39 1.26 2.95s1.27 2.12 1.69 3 2 2 2.12 3a3.73 3.73 0 001.12 2.67c1 1 2.54 2.11 3.94 2.11s1.83-.42 3.1.14a52.85 52.85 0 014.93 2.26 14 14 0 002.25 1.12 13.5 13.5 0 00-.84 3.24c-.29 2-1.83 9.43-2.4 11.4s-2.67 9.58-2.67 9.58z" fill="#1d1d1b" stroke="#e7c571" stroke-miterlimit="10"/><path class="cls-12" d="M94.34 90.25A43.92 43.92 0 0187.79 105M96.52 94s-.43 7.2-3.52 12.69a51.79 51.79 0 01-5.78 8M92.58 86.54a115.74 115.74 0 01-8 8.78 21 21 0 01-8.34 4.68M98.63 96.4a59.46 59.46 0 01.7 11.45 15.09 15.09 0 01-1.55 6.62"/><path class="cls-10" d="M65.31 137l.52-14.07-1-43.08a22.91 22.91 0 00-1.55 7c-.37 4.51-1.88 17.65-1.69 24s1.88 28.52 1.88 28.52M69.67 136.88s0-5.71-.18-14.16S69 99.17 69 99.17l1.61 5.83 3.57 7.87 3.75 6.92 1.32 1.4s.75 9 2.06 12.77 6.2 11.73 6.2 11.73z"/><path d="M159.12 11.88s-2.73-2.34-4-2.72-3.29-.94-3.85-1a3.39 3.39 0 00-2.25.66 23.22 23.22 0 00-.47 3.47c0 .28-.47 1.31-.28 1.88a1.29 1.29 0 001.59.75c.75-.19.94-.66 1.6-.66a30.78 30.78 0 013.19-.47c1.41 0 3.1-1 3.47-1s1-.91 1-.91z" stroke="#e1b74d" stroke-width=".5" fill="#e1b74d" stroke-miterlimit="10"/><path d="M231.52 193.72s1.83-7.18 3-11.4a107.75 107.75 0 002.39-16c0-2.11-.42-7.88-.42-7.88a98.43 98.43 0 01.7-10.42c.57-3.1 3-10.13 3.38-13.09s1.27-8 1.27-10a52.91 52.91 0 00-1-7.32c-.28-1.55-2-4.36-2.39-6.33s-.42-7-.67-10.7.25-5.35 0-7.46.14-3.38 0-5.21-2.25-5.49-3.24-6.9v-.14s.7-6 0-9.86-2.25-8.44-2.25-9.57-2.4-2.25-3-3.1a31 31 0 00-5.35-6c-2.11-1.55-4.64-4.64-6.62-5.21a16.3 16.3 0 01-4.5-2.11c-1.69-1-4.22-2.25-4.22-2.25s-1-.85-2.68-2.54-3.38-2.67-3.94-3.52-1-2.67-1.69-3.94-2.39-3-2.67-3.52-2.26-3.09-2.26-3.09-.84 2-1.69 3.66-3.67 6.37-3.67 6.37l-2.11 2.4.24 4.08L186.9 50l-.85 7.88a49.69 49.69 0 007 9.85c4.19 4.41-2.53 33-2.53 33s-1.27 12-1.69 19.15-.83 23.12-.53 28.37-1.12 9.15-1.12 14.22-2.63 28.31-2.63 32.25-.75 20.68-.75 20.68" stroke="#e7c571" stroke-miterlimit="10" fill="#f0daa4"/><path fill="#1d1d1b" d="M74.37 56.28l-8.07 1.87 1.47 13.52 4.34 14.87 8.45-2.29-6.19-27.97z"/><path class="cls-16" d="M90.32 79.69a81.22 81.22 0 01-2.67-9.85c-.43-3.1-2.12-8.31-2.4-10s-1.55-5.21-1.69-6.33-1-3.1-1-3.8-.42.28-2 1a41.49 41.49 0 00-5.07 2.54 3.49 3.49 0 00-1.69 2.25c-.14 1.13-.7 2.11 0 2.67s1.41.71 1.41 2-.14 2.12-.14 3.1.7 2 .7 2.82v3.38c0 1.4 1 3.23 1 4.64s.56 4.65.56 5.35a22.91 22.91 0 010 3.1A1.36 1.36 0 0078 84a5.35 5.35 0 002.77 1c1.41.22 4.12-.6 5.51-.93a4.08 4.08 0 002.79-2c.55-.97 1.25-2.38 1.25-2.38z"/><path class="cls-17" d="M89.05 82.09s-.84 4.78-5.06 6.75a33.8 33.8 0 01-8.73 1.83 15.2 15.2 0 01-8.59-3.52"/><path class="cls-10" d="M84.27 54.77s12 2.12 17.6 2.68 23.93 3.38 28.29 3.8 27.88 2.53 30.27 2.53h3.94l1.41 2.82a9.34 9.34 0 001.83 2.4s-.7.94-.42 1.5 1.26 1.55 1.26 2.25c0 0-1 1.27-.28 2a17.16 17.16 0 012.11 3.37c.71 1.27 2.25 5.4 2.95 6.94a36 36 0 003.25 5.94c.84 1 3.66 5.63 3.94 6.89s.56 4.09 1 5.28-.57 1.34-.57 1.34a43.47 43.47 0 00-7-.7c-2.25.14-6.75 1.4-8.44 1.4s-7.46-.28-8.59-.28-5.07.85-7.6.85-8.73-.71-9.58-.71-2.53-.84-3.8-.84h-4.36c-1.41 0-2.54-1.13-3.94-1.06s-4.93.21-5.63.21-5.49-2.67-6.48-2.67a23 23 0 01-4-1l-6.66-3.48s-5.27-.06-5.9-1.12l-2.26-3.8-3.81-5.92s-2-4.4-2.39-5.63-5.18-20.42-5.18-20.42z"/><path class="cls-18" d="M62.73 26.34s-.85-2.82-1.27-3.66a6.37 6.37 0 01-1-2.54 16.7 16.7 0 00-.43-3.8 19.87 19.87 0 01-.7-3.1c-.14-.84-.85-3.66-1.69-4.08s-1.83-1-2.39-.7-.69 1.41-.55 2.54a32.66 32.66 0 00.3 4.05 11.91 11.91 0 01.4 2"/><path class="cls-18" d="M59.63 29.15a13.17 13.17 0 00-1-3.09c-.29-.57-1.13-2.54-1.55-3.52a9 9 0 01-.45-3.1c0-.7-1.24-2.25-1.81-3.24a2.16 2.16 0 00-2.67-1c-.84.42-.56 1.69-.56 2.25a23.5 23.5 0 00.7 3.94c.28.84.85 1.83 1 2.53s.42 2.26.7 3.24a16.65 16.65 0 01.56 3.66 12.16 12.16 0 00.85 3.24 21 21 0 01.85 3.94 28.41 28.41 0 002.54 7c1 1.83 3.52 6.91 3.52 6.91l.7 1.47M57.66 9.16s-.84-3.38 0-3.94a2.37 2.37 0 013.1.7 6.84 6.84 0 011.69 2.82c.28 1 1.26 3.1 1.4 3.8a15.84 15.84 0 00.71 3.24c.42.84 1 2.81 1.27 3.38a16.38 16.38 0 01.84 3.09c.14.85.85 3.1.85 3.1h.42a10.52 10.52 0 00.11-1.83 21.47 21.47 0 00-1.13-4.36 16.75 16.75 0 01-.81-3.66c0-.71-.14-2.26-.28-3.38a25.68 25.68 0 010-4.65c.14-.7.84-1.12 1.93-.7s1.3 1.69 2 2.39.84 3.1.84 4.08A21.51 21.51 0 0071.88 18 38.33 38.33 0 0173 22a18.86 18.86 0 001.54 4.79c.85 1.41 1.69 3.1 1.69 3.1l.14-.28a27.83 27.83 0 01-.56-4.09 23.6 23.6 0 01.7-6.61c.71-2.12 3.24-3.52 4.37-3.38s1.55 1 1.27 1.41a16 16 0 00-.57 3.37 22 22 0 00.32 5.21A24.24 24.24 0 0084.27 32c.7 1 .56 1.69.14 3.66a38.88 38.88 0 00-.71 6.19 60.36 60.36 0 01-1.5 7.89"/><path d="M115.38 100.67s-6.85-5.73-10.79-8.54-13-10.51-13-10.51l-.18 1.73 3.86 6.08L98.78 95l2 .84 3.94.28 6 3.52z" fill="#e7c571"/><path d="M125.14 60.62s2-3.31 2.63-3.69 1.59-1 2.25-1.31a10.66 10.66 0 012.35-.38c.65-.09 1.22-.65 2-1.4s2.16-3 3.19-3.29 3.1-1.78 4.6-2.16 2.63-2.06 4.41-2a19.37 19.37 0 014.34 1 8.42 8.42 0 011.67-2.25c.84-.66 1.59-1.88 2.53-2.44a32.22 32.22 0 002.63-1.88 3 3 0 00.65-.75 16.82 16.82 0 00-.28 1.88c0 .47-.37.94 0 1.5a15.35 15.35 0 001.79 2l1.4 1.41a14.78 14.78 0 002.44 2.63 7.81 7.81 0 011.79 1.69l-.57 2.16a5.25 5.25 0 00-1.68 1 9.61 9.61 0 00-2.16 2.44c-.47.75-.75.94-1.32 1.78a7.05 7.05 0 00-1.12 2.54 11.37 11.37 0 01-1.32 2.44s-8.73-.7-12.11-1-20.11-1.92-20.11-1.92z" stroke-width=".75" stroke="#e7c571" stroke-miterlimit="10" fill="#f0daa4"/><path class="cls-21" d="M193.23 67.73s6.2 5.21 8.31 6.33 5.21 5.07 6.9 6.2a25.5 25.5 0 015.2 5.06c1.13 1.55 7 7.75 7 7.75l2.82 2.11M237.72 94.9s-4.79-4.09-6.2-5.07-7.32-5.91-8-6.34-9.29-6.75-9.29-6.75"/><path class="cls-21" d="M229.56 88.28a42 42 0 01-8-2 39.88 39.88 0 00-8.6-1.83M229.27 75.89s2.49 2.16 4.1 3.8M224.2 92.93s5.92 7 8.45 9.29 5.49 7.88 5.49 7.88M224.63 96.45s4.08 14.5 4.22 17.31a53.92 53.92 0 001.83 8.59M187 50.56s6.36-3.67 7.91-4.65 6.23-3.74 6.23-3.74l3.06-3M167.76 73.78S143 72 140.3 71.67s-22.53-2.11-24.36-2.25-13-2.82-14.5-3-11.12-2.39-11.82-2.53l-3.24-.71"/><path class="cls-17" d="M159.58 63.6s3.67-6.29 4.51-8.26L165.5 52"/><path class="cls-8" d="M163.1 46.54a8 8 0 011.13-2.61c.63-.63 1.48-1.51 1.48-1.51l.63 4.85V48a7.77 7.77 0 00-1.34-.71c-.7-.29-1.9-.75-1.9-.75z"/><path d="M189 9.64s.26 2 .83 2a7 7 0 002.12-.51 7 7 0 002.12-1.29c.52-.38 1.74-1 2.06-1.22a7.22 7.22 0 001.8-2.31A15.13 15.13 0 01199 4.24a6.85 6.85 0 00.58-2.12c-.07-.64-.19-2.05-.19-2.05a6.8 6.8 0 00-.92-2.25c-.6-.73-.86-1.59-2-1.59s-1.72-.77-3 .18a5.77 5.77 0 01-1.72 1" stroke-width=".91" opacity=".49" stroke-miterlimit="10" stroke="#f0daa4" fill="none"/><path class="cls-23" d="M191.77 3.4a1.42 1.42 0 010 1.14c-.28.45-.9.22-.85.85a1.85 1.85 0 001.31 1.41 6.67 6.67 0 001.53-.11c.34-.11 1.47-.28 1.47-1.19s.46-.91.46-1.53-.12-1.65-.63-1.87-1.24-.51-1.24-.51M193.84 0s.72-2.29 1.5-2.29A2 2 0 01197-.57c0 .78.45 1.43.45 2.54a11.31 11.31 0 01-.39 2.55"/><path class="cls-7" d="M151.14 3.39a9.56 9.56 0 00-1.83-2A2.54 2.54 0 01148-.83a3 3 0 01.7-1.83c.57-.57.89-.28 2.14-1.55s2.79-2.82 3.21-3.38a14.7 14.7 0 001.1-2.11"/><path d="M157.33 11.88a6.5 6.5 0 00-2.91-1.5c-1.31-.09-2.34-.65-3.19-.65s-1.22.37-1.31.75-.28 1.78-.28 1.78l-.38.47a2.47 2.47 0 011.62-.47c1.1 0 2-.19 3-.19h2.3a4.12 4.12 0 001.15-.19z" fill="#ae841a"/><path class="cls-18" d="M70.58 43.51s-2-7.45.86-10A14.64 14.64 0 0176 30.33"/><path class="cls-16" d="M67.37 58.15a3.59 3.59 0 00-.37-2.53 5.5 5.5 0 00-2.39-2.11 10.36 10.36 0 01-2.25-1.41s-.14 4.22 0 5.63a29.6 29.6 0 01.14 3.52 68.4 68.4 0 00.84 7c.28 1.69 1 6.19 1.13 7.18s.41 3.24.42 4.36.7 2.12.84 3.38-.28 1.69 1 2.25a3.77 3.77 0 003.84 0c1.51-.83 2.78-1.67 2.78-2.66A16.51 16.51 0 0072 77.58c-.7-1.41-2.39-6.47-2.82-7.6s-1.47-2.82-1.44-4.08a7 7 0 00-.39-2.82c-.28-.84-.84-.42-.7-1.69a5.63 5.63 0 01.56-2.25 1.4 1.4 0 00.16-.99z"/><path class="cls-17" d="M73.43 56.75s-5.07.56-5.35 1.26-.57 5.49.7 5.92 3.8.56 5.07 1.83 1.83 4.92 1.13 6.33-2.54 2-2.54 3.52-.27 4.22 1.06 5.49.35 0 1.34 1.27-4 2.95-5.21 3.38-3.29.62-3 1.4c.26.61 4.52 1.69 6.83 1.69A29.25 29.25 0 0083 86.59a16.88 16.88 0 006-4.5"/><circle cx="163.21" cy="49.46" r="3.06" fill="#e1b74d"/><path d="M181.17 98.89a5.38 5.38 0 003.57 2 26.54 26.54 0 005.07.1c1.45-.28 1.59-7.46 1.59-7.46s2.25-11.83 2.25-12.95.43-6.62.43-7.75a25.38 25.38 0 00-.85-5.06c-.28-.71-1.83-1.83-2.67-2.82s-2.68-3.24-2.68-3.24l-1.83-3.8s-1 3.1-2.53 4.36a36.28 36.28 0 01-8 4.65 73.29 73.29 0 01-7.21 2.08l-.7.09a2.62 2.62 0 000 2.63c.84 1.12 0 2.46.56 3.1a35.91 35.91 0 013.07 5.49c.65 1.58 1.72 4.33 2.49 5.87a70.49 70.49 0 004.44 7.36 21.41 21.41 0 012.25 4.36z" stroke="#e7c571" fill="#faf3e1" stroke-miterlimit="10"/><path d="M193.65 80.54a4 4 0 01-2 0c-1-.28-1.83-.71-1.83-1.55v-2.53c0-.43 0-.57 1-1.13s1.55-1 1.69-1.69.28-.85-.14-1.41a12.68 12.68 0 00-1.83-2c-.57-.42-.57-.84-.71-1.55s-.84-1.26-.84-2a1 1 0 01.63-1.13 2.17 2.17 0 011.2 0l1 .56 1.83 1.89a14.22 14.22 0 01.43 2.53c0 1.13.14 2.72.14 3.94s-.57 6.07-.57 6.07z" fill="#e7c571" stroke="#e7c571" stroke-miterlimit="10"/><path class="cls-18" d="M186.05 57.87a13.67 13.67 0 00.56-3.66 16.62 16.62 0 01.29-4.21c.37-1.41.56-3.57.84-4.51a7.64 7.64 0 00.38-2.81 22.25 22.25 0 01-.38-2.54 28 28 0 00-.09-3.84 17.41 17.41 0 00-1.13-3.38c-.37-.85-.94-2.35-.94-2.35l-2.16-2.81c-.28-.38-1.57-1.69-1.91-2.16s-1.18-1.41-1.56-2-1.5-2.44-1.5-2.44l-.94-.76a1.46 1.46 0 00-.94.57 4 4 0 00-.56 1.78 10.08 10.08 0 00.28 1.69 18.17 18.17 0 011.78 2.16c.29.56 1.6 2.35 2.16 3.19s1.88 3 2.35 3.75a12.27 12.27 0 01.75 2.54c.19.47.56 2.53.75 3.1a5 5 0 001 2 8.33 8.33 0 01.66.56M176.29 24.74s-1.22-2.06-1.69-2.62a14.44 14.44 0 01-1.12-1.79l-.66-.09s-.75.56-1 .84a8.87 8.87 0 00-.94 1.32 4.69 4.69 0 00-.1 1.5 11.14 11.14 0 001.32 3.75 25.16 25.16 0 012.25 3.48 30.88 30.88 0 012 4c.38 1.22 1.78 4.51 1.78 4.51l1.54 4.51-.13.37a11 11 0 01-.84-1.6c-.1-.37-.75-2.25-.85-2.72a9 9 0 00-.84-1.69s-1.13-2.72-1.5-3.38-1.22-2.25-1.6-2.81a25 25 0 00-2.06-3.48 8 8 0 01-1.32-2.81c-.28-.66-.09-1.32-.66-1.13a8.16 8.16 0 00-1.87.85c-.57.37-.66 1.31-.94 2.34s.47 2.07.47 3.1 2.25 3.66 2.34 4.22.94 1.69 1.13 2.54a28.8 28.8 0 01.94 3c.19 1.22.94 2.91.94 3.57s.75 5.25.75 5.25a8.79 8.79 0 00-.47-1.22c-.28-.56-.66-2-1-2.91s-.28-2.25-.66-2.81a14.61 14.61 0 01-1.22-2.44 14.44 14.44 0 01-.56-2.63 32.55 32.55 0 01-.47-3.29 2.56 2.56 0 00-.38-1.31 2.2 2.2 0 00-1.12.38 6.42 6.42 0 00-1.22.84 5.56 5.56 0 00-.75 1.69 5.83 5.83 0 00-.29 2.35 20.05 20.05 0 00.38 2.62 27.07 27.07 0 01.37 2.82c0 .84.19 2.72.19 3.66a7.68 7.68 0 01-.37 2.82c-.38 1-.57 2.91-.94 3.84a13.23 13.23 0 00-.56 3.57c-.1 1.22 0 4.51 0 5.35a10.86 10.86 0 001 2.91 16.22 16.22 0 001.78 2.63"/><path id="Контур_368" data-name="Контур 368" class="cls-1" d="M-171.5 0h440.66c5.87 0 10.62 3.46 10.62 7.73v81.16c0 4.27-4.75 7.73-10.62 7.73H-171.5c-5.87 0-10.62-3.46-10.62-7.73V7.73c0-4.27 4.75-7.73 10.62-7.73z"/></g></svg>
