<svg xmlns="http://www.w3.org/2000/svg" viewBox="0 0 748.14 428"><defs><clipPath id="a"><path fill="none" d="M-.7 0h749.88v428H-.7z"/></clipPath><style>.b{clip-path:url(#a)}.c{fill:#909b94}.d{fill:#61512b}.e{fill:#acb6a3}.f{fill:#a69258}.g{fill:#c0c9b9}.h{fill:#105e6a}.i{fill:#556561}.m{fill:#503222}.o{fill:#3b3e3f}.p{fill:#6b9884}.r{fill:#1d2a30}</style></defs><g class="b"><path class="c" d="M-4.67-3.27V432.7h757.69V-3.27H-4.67z"/><path class="d" d="M754 433.7H-5.67v-438H754zm-757.69-2H752v-434H-3.67z"/></g><path class="e" d="M131.85 148.45c-.1-.59-10.09-59.18-33.48-70.06-8.24-3.84-16.49-3.59-23.23.71A21.72 21.72 0 0065 97.13c0 7.38 3.24 13.71 8.24 16.13a8.6 8.6 0 009.49-1.13c4.58-3.63 3.79-9.79 1.46-12.83-.63-.82-1.86-2.06-3.08-1.17a3.58 3.58 0 00-1.63 2.51c-.2 1.9 1.33 4.07 1.93 4.75l-3 2.68c-.34-.38-3.34-3.82-2.94-7.81a7.52 7.52 0 013.23-5.34c2.73-2 6.2-1.24 8.63 2 3.34 4.35 4.45 13.16-2.14 18.39a12.58 12.58 0 01-13.72 1.6C65.08 113.78 61 106 61 97.13a25.76 25.76 0 0112-21.4c7.93-5.06 17.54-5.4 27.07-1 10.73 5 20 18.87 27.59 41.24a228.59 228.59 0 018.14 31.8z"/><g class="b"><path class="e" d="M131.1 219.67v-99.21c0-54.57 6.15-110.55 69.34-110.55s67.44 60.26 69.56 95 5 121.88 5 121.88l-143.9-7.12z"/><path class="f" d="M-12 25.5S31.89 29 54.57 82.19s37.56 96.38 124.72 154.49L-11.34 407.46-12 25.5z"/><path class="d" d="M-13.33 411.93L-14 23.33l2.17.17c.46 0 11.56 1 25.6 8.66 12.88 7 30.75 21.26 42.69 49.24l3.47 8.17C80.46 138.22 98.24 180.24 180.4 235l2.15 1.43zM-10 27.81L-9.34 403 176 236.91C94.72 182.17 76.85 140 56.19 91.13L52.73 83C33.68 38.32-1 29.39-10 27.81z"/><path class="g" d="M78.35 289.42c-35.19-20.86-42.88-15.21-43-15.15a.59.59 0 00.11-.1l-3-2.7c.41-.45 2.84-2.67 10.07-1.7 9 1.22 21.68 6.67 37.78 16.21zm12.88-8.23c-.32 0-8.12-.88-29.21-12.15-12.52-6.68-17.27-6.15-18.73-5.6a1.68 1.68 0 00-.94.67l-.06.94-.82.26c-10.58 6.75-17.31 3.93-17.59 3.8l-.46-.2-4.89-6.31 31.4-10.18h.25c19.65-1.4 54.77-6.49 55.12-6.54l.58 4c-.35.05-35.33 5.12-55.18 6.55l-25.52 8.28.72.93c1.33.34 5.86 1 12.89-3.32a5.53 5.53 0 012.59-2.35c4.26-2 11.84-.1 22.53 5.61C84 276.27 91.55 277.2 91.62 277.21zM42.35 264zm-49.77 4.08l-2.17-3.36c49.11-31.75 92-37.83 119.38-37.34 29.75.54 47.62 8.53 48.36 8.87l-1.65 3.64c-.18-.08-18-8-47-8.51C82.74 231 40.75 237-7.42 268.12zm7.68-22l-2.16-3.37C63.18 201 134.84 211.91 135.55 212l-.63 3.94c-.7-.08-70.92-10.69-134.66 30.22zm20.84-41.39h-1.06l.3-4-.15 2 .14-2c.29 0 28.44 1.47 52.3-38.68l3.44 2c-22.87 38.51-49.32 40.68-54.97 40.68zm.09-15.82a64.19 64.19 0 01-25.73-5.66l1.76-3.59c.19.1 20 9.52 38.71 2.8 10.82-3.87 19.31-12.37 25.22-25.24l3.63 1.67C58.4 172.75 49.14 182 37.25 186.2a47.69 47.69 0 01-16.06 2.67zm.74-9.44l-3.63-1.69c.1-.21 9.59-21.31 9.59-70 0-48-33.41-65.39-33.75-65.55l1.8-3.58c.36.18 36 18.59 36 69.13-.05 49.73-9.6 70.81-10.01 71.69z"/><path class="h" d="M378.79 242.35L342.16 202l-41-9.37s30-20.39 81.64-35.27c0 0 25.63-25.53 47.34-27.64 0 0 24.8-36.85 34-54.57s23.38-62.36 57.4-81.49l57.4.72s-2.13 11.34 5.67 31.18c0 0-15.59 46.76 22.68 64.47 0 0 31.18 27.64 41.81 41.81s18.89 22.68 41.69 28.35 39.09 20.55 39.09 20.55l44.65 236-21.38 24.09-382.52 15.55 8.16-214z"/><path class="i" d="M368.55 458.46l8.21-215.38-35.66-39.32-44.84-10.26 3.8-2.58c10.44-7.08 40.91-23.56 81.71-35.39 3.33-3.24 26.49-25.14 47.25-27.75 3.6-5.38 25.06-37.59 33.38-53.6 1.67-3.21 3.51-7.34 5.65-12.11 9.65-21.62 24.23-54.28 52.55-70.21l.47-.26 60.31.76-.44 2.34c0 .1-1.88 11.13 5.57 30.08l.26.67-.23.69a73.9 73.9 0 00-2.9 25c1.16 17.61 9.41 30.08 24.53 37.08l.26.12.22.2c1.28 1.13 31.46 27.93 42.09 42.1 10 13.4 17.79 21.94 40.57 27.61 23 5.73 39.28 20.39 40 21l.49.45 45 237.6-22.6 25.47h-.85zM306.34 191.7l36.88 8.44 37.6 41.47v.81l-8.08 211.87 379.55-15.48 20.16-22.73-44.36-234.34c-2.86-2.45-17.88-14.72-37.74-19.66-24-6-32.54-15.39-42.81-29.08-9.93-13.24-38.54-38.85-41.32-41.33-36.48-17.12-25.46-60-23.69-66.08-5.72-14.84-6-25-5.76-29.29l-54.68-.69C495.23 11 481.08 42.69 471.7 63.7c-2.16 4.83-4 9-5.75 12.33-9.16 17.61-33.88 54.39-34.13 54.76l-.53.78-.94.09c-20.73 2-45.87 26.81-46.12 27.06l-.37.37-.49.14c-40.03 11.54-67.24 26.58-77.03 32.47z"/></g><path class="f" d="M460.38 342.27s11.09 2.39 18.68 4.74 13.41 7.2 18.14 7.72c10.24 1.14 9.63-2.54 4.81-5.3s-7.83-4.28-11.33-7.56-18-6.69-18-6.69 11.8 1.45 20.58 2.14 18.23 3.87 22.68 7.93 9.52 16.35 12.47 20.42 11.62 5.68 7.38-3.16c-3.53-7.38-7.3-14.46-9.34-19.52-2.86-7.07-12.12-12.76-12.12-12.76s5.86-3.47 6.57-6.67-2.84-8.7-2.84-8.7 3.74-3.06 0-9.55-9.84-12.63-23.7-16.58l-33.95 53.54z"/><path class="d" d="M534.36 370a9.33 9.33 0 01-6.79-3.7 70.87 70.87 0 01-4.12-7.25c-2.47-4.72-5.56-10.59-8.22-13-4.18-3.82-13.26-7-22.08-7.67-2.88-.23-6.11-.54-9.13-.85 3.09 1.1 6 2.39 7.34 3.67 3 2.78 5.53 4.23 9.39 6.42l1.76 1c2.91 1.67 4.27 3.55 3.75 5.16-.65 2-3.64 2.62-9.17 2-2.66-.3-5.48-1.78-8.75-3.5a56.88 56.88 0 00-9.58-4.27c-7.46-2.3-18.48-4.69-18.59-4.71l-1.4-.31 35.12-55.38.72.2c15.36 4.39 21 11.41 24.29 17.05s1.43 8.85.38 10.18c1 1.66 3.21 5.87 2.57 8.79-.58 2.61-3.83 5.16-5.72 6.46 2.72 1.88 8.9 6.64 11.22 12.38 1.32 3.26 3.41 7.48 5.63 11.95 1.2 2.42 2.46 4.94 3.69 7.51 2.34 4.88.83 6.71-.27 7.37a4 4 0 01-2.04.5zm-61.59-35.77c.11 0 11.88 1.45 20.54 2.14 9.22.72 18.79 4.09 23.27 8.18 2.92 2.67 6 8.46 8.65 13.57a68.35 68.35 0 004 7c1.59 2.2 4.94 3.4 6.18 2.65.87-.51.68-2.31-.51-4.79s-2.47-5.07-3.67-7.48c-2.24-4.5-4.35-8.75-5.7-12.09-2.7-6.68-11.63-12.24-11.72-12.29l-1.41-.87 1.43-.85c1.52-.9 5.6-3.74 6.1-6s-1.77-6.51-2.7-7.94l-.48-.75.69-.57c.12-.1 3-2.67-.23-8.28-3-5.22-8.27-11.72-22.4-15.91L462 341.6c3.24.73 11.42 2.61 17.37 4.45a58.12 58.12 0 019.92 4.41c3.09 1.62 5.76 3 8 3.28 6.41.71 7-.63 7.05-.64.11-.35-.61-1.52-2.84-2.8l-1.75-1c-3.85-2.18-6.63-3.76-9.77-6.7-2.72-2.53-13.61-5.51-17.58-6.45z"/><g class="b"><path class="f" d="M425.91 387.48a29.14 29.14 0 0018.3-10.06 45.13 45.13 0 009.34-19.42 16.24 16.24 0 013.4 19.47c-3.57 7.37-12.74 14.64-12.74 14.64l14.56 7.89s4.18-3.34 10.12-7.92 14.14-5.12 20.37 0c4.87 4 14.14 7.54 14.14 7.54s-.59 5-9.07 4.59-11.59-6.76-17.32-5.67c-2.15.41-12.88 12.49-12.88 12.49s3.63 3.42 10.7.65 17.55 5 22.37 7.85 11.62 2.84 11.62 2.84 1.42 8.52-3.54 8.52-97.09 3.52-97.09 3.52l-10.41-9.19 28.13-37.72z"/><path class="d" d="M407.83 435.41l-11.4-10.07 28.94-38.81h.45a28.43 28.43 0 0017.63-9.71 44.49 44.49 0 009.11-19l.28-1.75 1.35 1.15c.1.08 9.62 8.36 3.66 20.66-2.91 6-9.25 11.8-11.86 14l12.67 6.9c1.3-1 4.93-3.91 9.62-7.52 6.66-5.13 15.35-5.13 21.62 0 4.68 3.84 13.77 7.34 13.86 7.37l.72.28-.09.77c0 .25-.82 6-10.11 5.48-4.51-.24-7.52-2-10.18-3.57-2.47-1.44-4.42-2.59-6.91-2.12-1.17.33-6.75 6-11.56 11.33 1.33.72 4.26 1.69 8.83-.1 6.56-2.58 15.58 3.11 21 6.51.85.54 1.62 1 2.28 1.41 4.5 2.67 11 2.7 11.11 2.7h.85l.14.84c.09.57.87 5.68-1.31 8.25a4.09 4.09 0 01-3.22 1.44c-4.89 0-96.13 3.49-97 3.52zm-8.7-10.35l9.42 8.32c7.45-.29 91.92-3.51 96.73-3.51a2.08 2.08 0 001.69-.73c1.13-1.34 1.13-4.17 1-5.82-2.06-.1-7.25-.58-11.25-2.95-.67-.4-1.46-.89-2.33-1.44-5.07-3.2-13.56-8.55-19.17-6.34-7.57 3-11.58-.7-11.74-.86l-.71-.66.65-.73c3.29-3.71 11.2-12.38 13.43-12.8 3.22-.61 5.68.83 8.29 2.36 2.46 1.44 5.25 3.08 9.27 3.29 5.48.29 7.25-1.84 7.79-3-2.45-1-9.43-4-13.54-7.36-5.54-4.54-13.23-4.53-19.13 0s-10.07 7.88-10.11 7.92l-.52.41-16.46-9 1.18-.94c.09-.07 9-7.22 12.46-14.3 4-8.35.23-14.47-1.92-17a46.72 46.72 0 01-9.16 18.14 30.11 30.11 0 01-18.53 10.37z"/></g><path class="f" d="M401.86 276.06L374.18 214l-43.94 75 71.46 66.19 18.68-16.42S431.7 347 445 347s18.19 2.11 27.52-9.57 20.08-20.24 22.8-32.86 1-12.63 1-12.63a15.77 15.77 0 005.4-7.79s5.44-5.53 4.85-17.72l5.78-12.19.91-20.41L473.39 214l-53 13.81-13.29 30.84 5.9 20.56"/><path class="d" d="M401.68 356.49L329 289.14l45.33-77.32 28.47 63.83-1.83.81-26.89-60.28-42.54 72.58 70.2 65 18.61-16.35.65.48c.11.08 11.22 8.09 24.07 8.09 1.92 0 3.67 0 5.28.08 9.46.24 13.78.35 21.46-9.27 2.49-3.12 5.08-6 7.58-8.81 6.73-7.52 13.08-14.63 15-23.64 1.73-8.05 1.58-10.65 1.42-11.42h-2.56l2.51-1.81a15 15 0 005-7.26l.07-.24.18-.18c.05 0 5.12-5.43 4.56-17v-.25l5.8-12.23.87-19.56-39-19.39-52.14 13.65-12.94 30.06 5.84 20.22-1.92.56-6-20.91.14-.33L419.65 227l53.85-14 40.79 20.3-.93 21.26-5.77 12.15c.47 11.2-4 16.9-5 18a16.78 16.78 0 01-5 7.51c.35 1.16.5 4.15-1.33 12.62-2.05 9.53-8.57 16.83-15.48 24.55-2.48 2.78-5.05 5.65-7.51 8.73-8.3 10.39-13.54 10.26-23.07 10-1.59 0-3.32-.08-5.23-.08-11.83 0-21.94-6.23-24.59-8z"/><g class="b"><path d="M-8.5 411s26.56-101.64 119.05-154.48S291 179 342.17 191.32s51 12.36 51 12.36-15.45 13.32-27.5 28.75-16.22 29.08-19.09 38.09 0 21.45 0 21.45a287.45 287.45 0 0134.68 23.37c19.14 14.88 26.22 47.51 35.44 64.5 0 0 12-4.94 20.55 0 0 0-20.08 19.81-32.72 56.68L-12 435.1l3.5-24.1z" fill="#835f32"/><path class="d" d="M406 438.52l-420.32-1.43 3.92-26.59c.07-.25 6.92-26 25-57.91 16.73-29.43 46.79-70.29 95-97.81 45.51-26 91.07-45.78 131.77-57.23s75.87-14.32 101.31-8.17l44.6 10.79 5.62 1.37c.94.23 2.53.62 2.32 2.38l-.09.77-.59.51c-.16.13-15.47 13.38-27.25 28.46-11.54 14.75-15.76 28-18.56 36.81l-.21.66c-2.25 7.08-.69 16.66-.13 19.54a300.05 300.05 0 0134.14 23.09c13.76 10.7 21.26 29.72 27.87 46.5 2.49 6.31 4.85 12.3 7.3 17.12 3.84-1.24 13.25-3.53 20.59.73l2.26 1.32-1.86 1.83c-.2.2-19.91 20-32.23 55.91zm-415.73-5.41l412.84 1.4c10.46-29.75 25.42-48.08 30.77-54-7.32-2.48-16.32 1.15-16.43 1.19l-1.66.68-.85-1.58a184.06 184.06 0 01-8.3-19.06c-6.42-16.3-13.71-34.78-26.61-44.81a289.36 289.36 0 00-34.41-23.2l-.79-.43-.2-.87c-.12-.53-3-13.07 0-22.5l.21-.66c2.88-9.06 7.24-22.74 19.22-38.07A232.43 232.43 0 01389 204.72l-47.3-11.45c-50.45-12.19-138.64 12.71-230.15 65-47.39 27.07-77 67.31-93.47 96.31C.79 385-6.06 409.64-6.54 411.41z"/><path d="M186.38 447.15c-9.64-9.65-14.87-23.53-15.11-40.14a88.28 88.28 0 012.37-21.62c-10.2-24.92 4.8-59.27 5.45-60.73l3.66 1.63c-.15.34-15.2 34.81-5.16 58.17l.28.65-.19.68c-.11.36-10 37 11.53 58.53zm-132.69-6.67l-3.91-.84c.14-.65 3.55-16.17 15-39.63 10.55-21.59 30.2-54.18 63.93-86.82 44.64-43.18 66-51.23 66.91-51.55l1.38 3.76c-7.3 2.68-30.4 16.73-65.48 50.67-33.27 32.18-52.65 64.29-63 85.56-11.35 23.05-14.8 38.7-14.83 38.85zm24.69-.32l-3.68-1.58c.18-.41 18-41.61 38.41-74 9.61-15.22 29.63-35.81 56.36-58 24.43-20.26 51.79-39.66 75.06-53.23l2 3.46c-57.44 33.49-113.62 83.86-130 109.89-20.3 32.14-37.98 73.05-38.15 73.46zM253.15 439c-4-23.16.88-59.88 1.76-66.1l-10.26-13.1 3.14-2.47 11.33 14.42-.13.86c-.06.41-6.05 41.5-1.9 65.7zm24.7-1.31c-11.33-50.32 2.88-90.93 3-91.34l3.76 1.35c-.14.4-13.95 40-2.88 89.11zm-123.77-.34c-15.25-34.12 1.48-52.67 2.19-53.45l2.93 2.73-1.46-1.36 1.47 1.35c-.65.7-15.59 17.52-1.48 49.1zm-135.23-2.17l-3.68-1.58c.11-.26 11.42-26.47 28.46-56.41 22.94-40.34 44.8-67.9 64.95-81.92 47.59-33.09 141.05-79.54 142-80l1.78 3.59c-.94.46-94.14 46.78-141.48 79.7-47 32.68-91.59 135.59-92.03 136.62zm197.54-2.93c-14.51-39.45-6.2-72.25 3.34-92.83 10.31-22.27 23.87-35 24.45-35.58l2.72 2.93c-.13.13-13.63 12.87-23.61 34.48-9.17 19.86-17.16 51.53-3.14 89.62zm151.15-.3c-12.83-19.59-44.44-25.74-44.76-25.8l-1.14-.21L307 363.49l3.78-1.31 13.93 40.28c6.07 1.31 33.73 8.24 46.22 27.29zm17-34.92c-17.92-3.79-20.73-23.61-20.84-24.46l4-.52a32.6 32.6 0 003.21 9.5c3.33 6.34 8.21 10.23 14.5 11.56zm9.2-8.55c-2.43 0-4.45-2.33-4.71-2.64l3.08-2.55a4.31 4.31 0 001.55 1.18c.23-.25 1.13-1.59 1.13-7.05 0-10.31-4.64-12.36-18.39-18.45-3.65-1.61-7.78-3.44-12.53-5.75-17.24-8.38-25.48-20-30.41-27a31.16 31.16 0 00-4-5.1c-2.34-2-5.16-1.77-10.81-1.19a101.82 101.82 0 01-10.7.66c-13.11 0-14.91-5-20.23-19.91l-.43-1.19c-3.18-8.89-1.29-15.34.85-19.19a19.06 19.06 0 015.62-6.36l2.18 3.35c-.41.27-9.92 6.78-4.88 20.85l.43 1.19c5.22 14.63 6.17 17.26 16.46 17.26a95.66 95.66 0 0010.25-.59c5.84-.6 10.05-1 13.8 2.11a33 33 0 014.72 5.85c5 7.08 12.57 17.78 28.89 25.71 4.69 2.29 8.78 4.1 12.39 5.7 13.84 6.12 20.78 9.19 20.78 22.1 0 6.56-1.17 9.9-3.77 10.84a3.67 3.67 0 01-1.28.17zm-11.33-15.18a91.85 91.85 0 01-61.71-37.21c-4.64.21-22 .82-32.73-1.07-13-2.26-30-49.44-31.9-54.81l3.77-1.33c6.88 19.44 20.79 50.8 28.81 52.2 11.8 2.07 32.77 1 33 1l1.17-.06.63 1c.19.3 19.88 30.89 59.52 36.36zm18.77-18c-.05-.17-5-17.43-21.78-21.29-30.92-7.12-29.91-28.47-29.9-28.68l4 .25-2-.12 2 .12a19.05 19.05 0 002.92 9.82c4.18 7 12.44 12.08 23.87 14.71 19.14 4.4 24.52 23.33 24.74 24.14zm-77.13-47.2c-8.54-32.05-2.28-51.73 4.47-62.6 7.41-11.94 16.87-16.12 17.27-16.29l1.58 3.67c-.08 0-8.85 4-15.59 14.95-9 14.61-10.3 35.09-3.86 59.24z" fill="#b39f7f"/></g><path class="f" d="M329 184.86s-32.34 19.07-49.9 31.3-42.37 17.07-48.75 31.68-8 20.92-7.21 27.9.24 14.47 7.21 16.47 5.67 1 5.67 1 1.41 7.74 2.12 14.59 2.58 9.19 8.11.1.27-14 5.53-23.13S279.07 258 279.07 258a53.09 53.09 0 0118.57-.72c10.27 1.42 11.06 3.86 11.06 3.86s-7.63 10.77-15.13 17.29c-5.56 4.83-5.85 14.67-2.31 20.43a158.1 158.1 0 0114.06-16.1c7.2-7 21.53-15.15 18.54-28.46s-3.95-21.81-3.95-21.81 26.74-5.24 44.82-15.38"/><path class="d" d="M240.67 314.87a2.22 2.22 0 01-.51-.06c-1.67-.38-2.58-2.44-3-6.91-.55-5.27-1.53-11.16-1.94-13.49a39.77 39.77 0 01-5.14-1.24c-6.55-1.88-7.09-8.1-7.61-14.11-.09-1.07-.18-2.14-.31-3.21-.85-7.15.78-13.53 7.28-28.41 4.17-9.56 15.8-15 28.1-20.79 7.16-3.36 14.57-6.84 21-11.31 17.4-12.12 49.65-31.15 50-31.34l1 1.72c-.33.19-32.51 19.19-49.84 31.26-6.56 4.57-14.05 8.08-21.29 11.48-12 5.61-23.25 10.91-27.12 19.78-6.32 14.5-7.92 20.64-7.12 27.38.12 1.08.22 2.18.31 3.27.51 5.82.94 10.85 6.17 12.36 2.19.62 3.47.93 4.22 1.08l-.28-1.5 2.07 1.59a1.15 1.15 0 01.46 1.13c.33 1.86 1.45 8.36 2.05 14.15.49 4.8 1.39 5.14 1.49 5.16s1.36.13 4.77-5.48c2.65-4.36 2.68-7.66 2.72-11.16s.06-7.19 2.79-11.94c5.3-9.22 26.65-26.38 27.56-27.11l.17-.13.21-.06a53.91 53.91 0 0119-.74c10.1 1.39 11.64 3.83 11.87 4.54l.15.48-.29.41c-.31.44-7.78 10.94-15.29 17.46-4.77 4.16-5.32 12.41-2.81 17.85a156 156 0 0113.21-15c1.43-1.39 3.12-2.8 4.91-4.3 7.32-6.14 15.62-13.1 13.35-23.22-3-13.21-3.95-21.83-4-21.92l-.1-.91.9-.18c.27-.05 26.79-5.33 44.52-15.28l1 1.75c-16.13 9-39.33 14.27-44.2 15.3.33 2.53 1.43 10.15 3.82 20.81 2.53 11.3-6.65 19-14 25.18-1.76 1.48-3.42 2.87-4.8 4.21a159.12 159.12 0 00-13.95 16l-.88 1.18-.77-1.25c-3.7-6-3.58-16.42 2.5-21.72 6.29-5.47 12.77-14.1 14.52-16.48-.8-.64-3.21-2-9.93-2.92a53.38 53.38 0 00-18 .65c-2.08 1.68-22 17.94-26.9 26.4-2.47 4.3-2.5 7.54-2.53 11 0 3.61-.07 7.35-3 12.18-2.82 4.42-4.77 6.41-6.51 6.41z"/><path class="c" d="M157.92 196.28s-5.67-52.44-2.84-95 12.92-72.21 44.06-70.1 41 27.35 43.82 82.05 1 79.51 1 79.51l-86 3.54z"/><path class="e" d="M272 163.11l-4-.27a328 328 0 015.54-38.84c5.73-27.73 13.89-46.11 24.25-54.64 11.83-9.74 25.65-11.44 37-4.55 9.49 5.78 14.43 16.36 12.3 26.34-1.62 7.55-5.8 12.91-11.48 14.7a11.83 11.83 0 01-11.66-2.28 9.84 9.84 0 01-2.74-9.75c1.06-4.49 3.1-7.39 6.06-8.62 4.33-1.81 8.8.88 9 1l-2.1 3.41s-2.94-1.73-5.37-.7c-1.7.71-2.94 2.68-3.68 5.83a5.88 5.88 0 001.56 5.91 8 8 0 007.74 1.4c4.26-1.35 7.46-5.62 8.77-11.73C345 82 340.74 73.08 332.7 68.19c-3.7-2.19-16.88-8.54-32.37 4.22-23.16 19.07-28.28 89.99-28.33 90.7z"/><g class="b"><path d="M750.36 409.59s-13.94-14.19-14.06-43.23-48.25-57.45-70.54-49.61l-19.46-37.54 33.19-24L771 285.58l-20.67 124z" fill="#684134"/><path class="m" d="M751.68 413.8l-2.75-2.8c-.59-.6-14.51-15.11-14.63-44.62 0-11.71-8.92-24.95-23.75-35.4C695 320 676.89 315 666.42 318.63l-1.64.58-21-40.61 35.37-25.6 94.13 31.27zm-77.37-100.36c11.3 0 25.64 5.16 38.55 14.26 16.11 11.37 25.39 25.46 25.44 38.65.08 20 6.92 32.79 10.83 38.45l19.64-117.87-88.94-29.54-31 22.43 17.9 34.53a29.4 29.4 0 017.58-.91z"/></g><path class="g" d="M561.26 366.36l165.59-19.69s4.21 6 4.21 15.84-4.21 7.44-4.21 7.44l-160.67 17.53s-8.58-7.64-4.92-21.12z"/><path class="i" d="M565.85 388.53l-.33-.3c-.37-.33-9-8.21-5.22-22.13l.17-.65.67-.08 166.19-19.76.34.49c.18.26 4.39 6.4 4.39 16.41 0 4.53-.86 7.24-2.62 8.27a3.16 3.16 0 01-2.75.19zm-3.79-21.26c-2.67 10.92 3.07 17.7 4.49 19.17l160.51-17.52.28.16a1.23 1.23 0 001.1 0c.49-.3 1.62-1.53 1.62-6.54a29.83 29.83 0 00-3.72-14.77z"/><g class="b"><path class="f" d="M671.81 266s-16.3 22-26.22 31.92-20.08 19.11-20 34.1-4.13 27.36-9.8 40.29-12.76 28.07-9.21 36.57 6.67 17.52 11.33 15.59c3.69-1.53.57-13-2.24-18.53 0 0 1.68-7.09 2.24-10.87l7.68-9.82s.4 11.23 2.84 18.94c5.97 18.75 17.57 30.81 23.26 26.69 4.22-3-9.78-17.08-11.77-34-.27-2.32.41-11.62.41-11.62s3.14 17.25 6.68 23.63 8.65 8.13 14.32 9.53 11.29-4.55 11.29-4.55 6.75-4.3 6.87-15.34-.59-22.35-.59-22.35-3.95-3.29-9.62 4.54l-1.13-18.2a48 48 0 00-7.68-30.52s35.44-21.6 64.53-52.79L671.81 266z"/><path class="d" d="M649.17 432.67a7.34 7.34 0 01-2.29-.39c-6.86-2.28-15-14-19.37-27.79a79.38 79.38 0 01-2.73-16.49l-5.88 7.52c-.52 3.37-1.79 8.88-2.13 10.34 2.42 4.93 4.89 13.54 3.43 17.49a3.42 3.42 0 01-1.86 2.09 4.14 4.14 0 01-3.22 0c-3.38-1.41-5.73-7.14-8.44-13.77l-1-2.38c-3.51-8.44 2.75-22.66 8.28-35.21l.94-2.15c5.92-13.49 9.84-25.44 9.72-39.88-.11-14.62 9-23.67 18.68-33.26l1.58-1.56c9.75-9.72 26-31.58 26.12-31.8l.4-.54 55.44 13.78-1.16 1.24c-26.3 28.25-58.21 48.9-63.83 52.44a48.6 48.6 0 017.29 30.22l1 15.53c1.93-2.12 3.87-3.31 5.81-3.55a4.83 4.83 0 013.61.87l.33.28v.43c0 .11.71 11.47.59 22.42s-6.3 15.46-7.23 16.1c-.77.79-6.32 6.19-12.17 4.75s-11.2-3.25-15-10c-2.07-3.72-4-10.89-5.24-16.42a34.35 34.35 0 000 3.8c1 8.69 5.37 16.8 8.56 22.73 3.32 6.18 5.51 10.26 2.79 12.21a5.24 5.24 0 01-3.02.95zm-22.64-50.2l.1 2.74c0 .11.42 11.19 2.79 18.67 4.75 15 12.69 24.7 18.09 26.5a3.82 3.82 0 003.59-.31c1.3-.93-1-5.16-3.38-9.65-3.26-6.06-7.73-14.37-8.79-23.44-.28-2.39.37-11.42.4-11.81l2-.1c0 .17 3.15 17.17 6.57 23.33s8.19 7.68 13.69 9c5 1.24 10.27-4.21 10.32-4.27l.19-.16c.26-.16 6.3-4.19 6.41-14.5.1-9.55-.42-19.41-.56-21.76a3.22 3.22 0 00-1.81-.23c-1.31.19-3.42 1.17-6 4.78l-1.64 2.25-1.3-21.08v-.11a47.47 47.47 0 00-7.52-29.8l-.57-.86.88-.53c.35-.22 34.71-21.33 63.12-51.4l-50.85-12.64c-2.57 3.45-16.92 22.53-25.92 31.49l-1.58 1.57c-9.36 9.28-18.2 18.05-18.09 31.82.12 14.8-3.87 27-9.88 40.7l-1 2.16c-5.36 12.18-11.44 26-8.26 33.63l1 2.39c2.33 5.7 4.74 11.59 7.36 12.68a2.09 2.09 0 001.68 0c.12-.05.48-.2.75-.93 1.12-3-1-11.21-3.5-16.23l-.17-.33.09-.35c0-.07 1.67-7.09 2.23-10.79v-.26z"/><path d="M645 273s23.72-20.34 40.14-39.74 18.54-20.31 18.54-20.31 0-31 16.3-37.47A53.72 53.72 0 00682.37 163a32.67 32.67 0 00-23.31-10l-10.75-22-43.64-39.6s-36.32-19.84-21.44-63.78c0 0-5.9-19.13-5.79-31.89l180.83-6.38L762.52 411l-24.8-103.2L645 273z" fill="#854744"/><path class="m" d="M760.58 411.49L736 309.3l-94.87-35.63 2.57-2.2c.23-.2 23.79-20.46 39.91-39.51 9-10.69 15.33-17.63 18.09-20 .14-5.19 1.49-28.67 14.62-36.86A52.45 52.45 0 00682.5 165l-1 .07-.65-.75a31 31 0 00-21.8-9.26h-1.25l-11.13-22.76L603.48 93c-3.12-1.83-36.45-22.69-22.35-65.43-1-3.46-5.8-20.11-5.69-31.88v-1.91l184.79-6.52L764.52 411zm-111.73-139.2l90.56 34 20.93 87.1-4.05-402-176.82 6.27c.43 12.24 5.62 29.19 5.67 29.37l.19.62-.21.61c-14.17 41.86 20.16 61.2 20.5 61.39l.21.11.18.16 43.93 39.94 10.38 21.23a34.75 34.75 0 0122.86 9.91 55.32 55.32 0 0138.19 13l2.3 2.16-2.93 1.16c-14.84 5.9-15 35.31-15 35.61v1.7l-1.12.12c-.73.6-4.48 3.93-17.89 19.78-13.23 15.6-31.29 31.94-37.88 37.76zm55.88-57.64z"/><path class="d" d="M376.16 431.06l-4-.42c5.06-47.78 47.35-54.15 47.78-54.21l.54 4-.27-2 .27 2a54.78 54.78 0 00-20.48 8.42c-13.82 9.3-21.85 23.5-23.84 42.21z"/></g><path class="o" d="M474.6 275.44s-2.73-3.38-10.51-5.17a16.22 16.22 0 00-15.46 4.48l-1.51-1.32a18.27 18.27 0 0117.42-5.11c8.56 2 11.53 5.74 11.65 5.9z"/><path class="d" d="M480.49 314.73a10 10 0 01-5-1.51 13.06 13.06 0 01-4.34-4.51c-1.08-1.62-1.65-2.4-2.87-2.4v-2c2.34 0 3.46 1.67 4.53 3.3a12 12 0 003.31 3.64c-2.86-5.67-1.35-13.47-1.12-14.55v-11.92h2V297c0 .1-2.19 10.07 2.13 15.15l-.36.31a5 5 0 003.57-.14c1.36-.66 2.24-2.17 2.55-4.37a21.17 21.17 0 00-.34-7.9 54.29 54.29 0 01-.8-5.48c-.55-6-.14-10.59 3.54-17.53 3.78-7.12 15.47-2.57 16-2.37l-.74 1.86c-.1-.05-10.52-4.1-13.46 1.45-3.47 6.54-3.84 10.65-3.32 16.41.2 2.21.51 3.85.77 5.3a22.62 22.62 0 01.36 8.54c-.51 3.65-2.27 5.22-3.66 5.89a6.07 6.07 0 01-2.75.61z"/><path class="o" d="M457.35 292a13.63 13.63 0 01-3.46-.46l.51-1.94a10.86 10.86 0 008.19-1c-8.73-.6-10.59-9.1-10.59-9.19l.4-1c8.44-5.92 16.41 0 16.49 0l-1.2 1.6a12.23 12.23 0 00-13.56-.37c.63 2 3.2 8 11.46 6.93l.86 1.67a13.14 13.14 0 01-9.1 3.76zM497.2 293.5h-7.94v-2h7.94zm3.12-8.19c-3.49-5.58-12.88-2.18-13-2.14l-.69-1.88c.45-.16 11-4 15.37 2.95z"/><path class="d" d="M474.45 321.91a6.48 6.48 0 01-5-2.45h-13.2v-2h14.25l.3.46c.23.36 2.44 3.47 6.57 1.12l1 1.74a7.89 7.89 0 01-3.92 1.13z"/><path class="h" d="M378.79 242.35L342.16 202l-41-9.37s45.4-40.91 116.44-49.42"/><path class="i" d="M377.31 243.69l-36.21-39.93-44.1-10.09 2.85-2.58c.46-.41 46.69-41.43 117.55-49.91l.47 4c-59.31 7.1-101 37.37-112.29 46.38l37.65 8.61 37 40.86z"/><path class="d" d="M513.88 331.32L503 326.38l.82-1.82 10.9 4.94zm-45-4.56c-8.95 0-9.51-6.19-9.51-6.25l2-.15-1 .08 1-.09c0 .18.5 4.41 7.52 4.41zM235.17 294c-4.51-16 20.77-38.08 21.85-39l1.31 1.51c-.26.22-25.4 22.19-21.24 37zm-11.09-6.55c-1.05-8.44 2-17.61 8.91-26.5a64 64 0 0110.78-11l1.21 1.6c-.22.16-21.31 16.43-18.91 35.62z"/><g class="b"><path class="p" d="M537.67 329.14l.08-3.43c0-.41 1-41.06 1-50 0-8.08 16.4-32.44 22.64-41.42l-20.23.92 3-33.38a19.89 19.89 0 00-3.61-.41h-46.22v-4h46.26c10.81 0 45.51 15.14 47 15.78l-1.59 3.7c-.29-.13-23.84-10.41-37.84-14.13l-2.6 28.23 66.49-3 .59 1.12c.07.14 7.79 14.34 28.09 23.26l-1.61 3.66c-18.5-8.13-27.06-20.2-29.37-23.94l-43.31 2c-9.66 13.61-23.69 35.56-23.69 41.65 0 7.41-.68 36.58-.92 46.64l29.53-15.8h-15.11v-4h34.58l11.24-5.59 1.77 3.59-12.08 6h-11.92zm48.22-48.4c-5-4.21-6.9-8.27-7.63-10.79l-25.73 8-1.19-3.82 30.5-9.51v2.74c0 .17.18 4.86 6.64 10.3zm72-69.09c-5.72 0-13-1.34-21.5-5.79-28.24-14.8-25.84-36.53-25.72-37.45l4 .5c-.1.81-2.06 20 23.61 33.41 18.92 9.91 30.87 3.06 31.37 2.76l2.07 3.42c-.34.21-5.34 3.15-13.79 3.15zm15.86-27.42c-38.21 0-61.6-27.33-61.86-27.64L615 154c.28.33 28.25 32.88 72.65 25l.71 3.93a82.11 82.11 0 01-14.57 1.3zm-238.4-1.74l-3.35-2.15c.55-.87 14-21.1 57.82-7.94l-1.15 3.83c-40.89-12.3-53.16 6.08-53.28 6.26zm242.09-10c-17.25 0-29.41-5.31-37.13-10.43-10.86-7.22-15.46-15.49-15.65-15.83l3.51-1.92c.7 1.27 17.69 31 64.85 22.77l.69 3.94a93.88 93.88 0 01-16.23 1.46zm-221.91-7.27c-.09-.08-9.63-9-27.92-12.55-17.95-3.55-35.59 11.7-35.77 11.86l-2.64-3c.78-.68 19.28-16.71 39.18-12.78 19.51 3.85 29.49 13.19 29.91 13.59zm60.62-15.45l-3.79-1.29C528.19 102 540.26-7.17 540.38-8.26l4 .43c-.15 1.1-12.26 110.72-28.19 157.59zm-24.87-9.63c-24.33 0-44.5-13.11-45.45-13.74l2.2-3.34c.25.17 25.3 16.42 52.09 12.44l.59 3.95a63.39 63.39 0 01-9.39.68z"/></g><path class="d" d="M414.26 283.57s7-1.51 3.5-12c0 0 15.52-5.15 6-20.38 0 0 10.76-.74 11.35-13.47 0 0 14.48 6.31 16.75-7.65 0 0 5.08 8.24 14.23 3.16a16.2 16.2 0 0019.74 1.66s.81 7.79 8.49 6.37 7.68-6 7.68-6-.16 3.52 4.57 3.52c0 0-3.07 7.76 3.66 11.34s11-3.19 11-6.73-.63-7-4.25-10.16c0 0 5-9-2.67-11.81 0 0 3.55-7.37-.95-14.51S502 199.79 502 199.79s.93-7.21-4.81-7.21c0 0-.28-13.86-14.6-12.24 0 0-14.52-6.52-25-1.13 0 0-8-4-12-.63 0 0 1.26-6.74-6.75-8.16s-8.84 5.05-8.84 5.05-7.68-.76-9.8 6.48c0 0-9.27-3-13.14 2.3 0 0-7.38-3.67-11.65 2.94s0 11.23 0 11.23-9.46 1.4-9.35 8.85c0 0-7.81 4.84-5.55 13.83s6 12.15 6 12.15-9.27-.47-11 6.62a31.94 31.94 0 005 25 13.15 13.15 0 00-1.76 14.44s-6.13-6.2-9.85-.1-1.14 12 2.05 13c0 0 0 7.5 9.45 6.6 0 0 3.77 6.47 13.22-.89l20.6-14.35z"/><g class="b"><path class="m" d="M385.54 302.44a7.18 7.18 0 01-1.47-.14 7 7 0 01-4.11-2.45c-3.2.2-5.72-.51-7.49-2.12a8 8 0 01-2.47-4.83 7.08 7.08 0 01-3.3-3.94 11.79 11.79 0 011.35-10.27 5.93 5.93 0 014.38-3.13 7.35 7.35 0 014.27 1 14.37 14.37 0 012.57-11.74 32.93 32.93 0 01-4.69-25.2c1.24-5.11 6.15-6.91 9.81-7.3a30.74 30.74 0 01-4.85-11c-2.07-8.25 3.8-13.32 5.53-14.61.23-5.38 5.13-8.05 8.69-9-1.11-2-2.43-6.07.81-11.1 3.46-5.36 9.11-4.84 12.2-3.62 3.66-4.07 10.31-2.91 12.79-2.29 2.15-5.55 7.52-6.23 9.65-6.28a7.4 7.4 0 012.63-3.81c1.81-1.33 4.23-1.74 7.17-1.22a9.2 9.2 0 016.29 3.6 8 8 0 011.33 3.78c4-1.6 9.35.56 10.95 1.29 10.05-4.84 23.1.35 25.14 1.22 4.48-.46 8.12.51 10.81 2.86 3.49 3 4.35 7.53 4.56 9.45a5.11 5.11 0 013.26 1.69 8.44 8.44 0 011.68 5.55 15.67 15.67 0 0111.12 7.53 16.67 16.67 0 011.4 14.51 6.72 6.72 0 013.55 3.76c1.17 3.17-.23 6.83-.94 8.36 3.53 3.39 4 7.14 4 10.38a9.94 9.94 0 01-4.54 7.7 7.65 7.65 0 01-7.91-.09c-5.2-2.76-5.36-8-4.53-11.31a5.14 5.14 0 01-3-1.46l-.15-.17c-1 1.57-3.15 3.38-7.54 4.19a7.9 7.9 0 01-6.39-1.2 8.78 8.78 0 01-3-4.63 17 17 0 01-13.76 1.11 18.05 18.05 0 01-5.43-3.09c-6.71 3.38-11.38.09-13.55-2.15a10.29 10.29 0 01-4.88 6.58c-4.08 2.23-9.15 1-11.5.25-1 9.37-7.62 12.05-10.66 12.79 2.52 4.52 3.14 8.63 1.84 12.24-1.72 4.75-6.25 7.16-8.21 8 1.1 3.74 1 6.8-.32 9.1a7 7 0 01-4 3.21l-20.46 14.25c-3.08 2.5-6.01 3.75-8.63 3.75zm-4.54-4.68l.32.55a4.88 4.88 0 003.19 2c2.35.43 5.3-.68 8.56-3.22l20.8-14.5h.19a4.8 4.8 0 002.91-2.34c1.1-2 1.06-4.77-.14-8.34l-.32-1 .95-.31c.06 0 6.05-2.08 7.88-7.18 1.19-3.32.39-7.27-2.4-11.74l-.88-1.41 1.66-.11c.4 0 9.88-.87 10.42-12.52l.07-1.44 1.33.57c.06 0 6.53 2.78 11.05.31 2.29-1.25 3.73-3.67 4.31-7.2l.43-2.65 1.41 2.29c.18.3 4.71 7.35 12.89 2.81l.66-.37.54.53c.32.32 8 7.75 18.52 1.51l1.35-.8.16 1.55a7.44 7.44 0 002.49 4.67 6 6 0 004.82.83c6.55-1.21 6.85-4.74 6.86-5v-.05l2 .05v.05a2.38 2.38 0 00.66 1.56 4 4 0 002.91.91h1.47l-.54 1.37c-.11.28-2.65 7 3.2 10.09a5.72 5.72 0 005.94.13 7.84 7.84 0 003.57-6c0-3.11-.47-6.41-3.91-9.41l-.61-.53.4-.71s2.33-4.24 1.16-7.4a5.1 5.1 0 00-3.31-3l-1-.38.48-1c0-.07 3.24-7-.9-13.55s-10.42-6.67-10.49-6.67h-1.13l.14-1.13s.39-3.3-1.13-5a3.35 3.35 0 00-2.69-1.06h-1v-1c0-.06-.18-5.63-4-8.92-2.3-2-5.51-2.8-9.53-2.35h-.27l-.25-.11c-.14-.06-14.21-6.25-24.1-1.15l-.45.23-.45-.23c-.08 0-7.46-3.66-10.91-.75l-2.14 1.8.51-2.75c0-.23.94-5.77-5.95-7-2.38-.42-4.28-.13-5.64.86a5.59 5.59 0 00-2 3.34l-.12 1-1-.09c-.28 0-6.88-.57-8.74 5.77l-.29 1-1-.31c-.08 0-8.63-2.71-12 1.93l-.5.68-.76-.37c-.26-.13-6.63-3.18-10.36 2.58s-.25 9.85-.1 10l1.25 1.38-1.84.28c-.35.06-8.6 1.37-8.5 7.84v.57l-.48.3c-.29.18-7.16 4.59-5.11 12.74 2.14 8.49 5.67 11.6 5.71 11.63l2.21 1.9-2.91-.14c-.35 0-8.47-.34-10 5.85a30.92 30.92 0 004.81 24.2l.47.66-.56.6a12.06 12.06 0 00-1.59 13.31l-1.58 1.2s-2.79-2.77-5.39-2.47a4 4 0 00-2.9 2.18 9.86 9.86 0 00-1.18 8.53 4.81 4.81 0 002.68 3l.7.22v.74a6 6 0 001.85 4.06c1.43 1.3 3.63 1.82 6.5 1.55z"/><path d="M760.79 271.07c-.36-.18-8.82-4.55-19.58-16-6.15-6.54-7.21-11.23-8-14.66-.6-2.69-.9-4-3.23-5.48-6.16-3.82-18.16-4.78-18.28-4.79l.31-4c.53 0 13.09 1 20.08 5.38 3.76 2.33 4.37 5.09 5 8 .7 3.15 1.58 7.06 7 12.8 10.24 10.87 18.4 15.12 18.49 15.16zm-6.95-21.85c-.11-.15-11.08-14.67-21-22.65-5.29-4.28-10.7-5.7-14.65-6.74-3.66-1-6.83-1.8-7.29-4.81a6.8 6.8 0 011.81-5.43c2.08-2.43 7.73-6.5 22.13-6.5 18.16 0 22.44 14.49 22.48 14.64l-3.85 1.09c-.14-.48-3.58-11.73-18.63-11.73-13.65 0-18.07 3.91-19.1 5.11a2.94 2.94 0 00-.89 2.21c.31.48 2.65 1.1 4.35 1.55 4.06 1.07 10.2 2.68 16.15 7.5 10.27 8.3 21.18 22.74 21.64 23.35zm5.82-48.72c-16.26-17-39.59-3.08-40.58-2.47l-2.08-3.41c.27-.17 27.06-16.25 45.56 3.12zm-22.43-33.29a5.29 5.29 0 01-2.55-.63c-3.84-2-4.62-8.46-4.62-17.46 0-5.57 1.08-15.39 2.23-25.78 1.61-14.67 3.63-32.94 2.11-37.69-2.65-8.29-5.21-20-1.47-37 3.6-16.38 18.08-34.93 18.69-35.71l3.14 2.47c-.14.18-14.52 18.62-17.92 34.1-3.54 16.08-1.13 27.11 1.37 34.92 1.77 5.57-.12 22.74-2 39.35-1.13 10.28-2.2 20-2.2 25.34 0 8.36.84 13 2.5 13.94.88.46 2.66-.14 5-1.71a81.07 81.07 0 0013.8-11.75l3 2.66a83.7 83.7 0 01-14.57 12.42c-2.48 1.69-4.65 2.53-6.51 2.53zm-23.37-10.16l-4-.49c.32-2.57 7.82-63.09 15.18-77.41l3.59 1.85c-7.04 13.68-14.69 75.43-14.77 76.05zm-7.44-.09l-4-.3c.43-5.82 11.14-142.57 50-161.3L754.18-1c-36.8 17.7-47.65 156.55-47.76 158zm-46.89-10.57c-.34-.51-8.52-12.64-8.52-28.12 0-11.92-5.15-14-14.5-17.71-1.3-.51-2.65-1-4.06-1.65A61.7 61.7 0 01612 84.21l3-2.63a58.82 58.82 0 0019 13.65c1.38.58 2.71 1.11 4 1.62 9.51 3.79 17 6.79 17 21.42 0 14.21 7.75 25.75 7.82 25.86zm9-3.26c-.5-.49-4.81-5.27-4.81-21.24 0-14.83-1.85-22.17-19.57-30.19a190.49 190.49 0 01-31.92-18.26l.45-.61a23.26 23.26 0 01-4.41-.22l.68-3.94c.15 0 15.14 2.31 34.84-12.19C658.11 46 675.38 25 688 9.71 693.66 2.82 698.57-3.14 702.25-7l2.91 2.74c-3.59 3.81-8.46 9.71-14.09 16.55-7.66 9.31-16.39 19.91-25.21 29.3l36.48-17.1C708.63 9.6 715.73-1 723.6-7.25l2.49 3.13c-33.77 26.79-43.56 136.41-43.65 137.52l-4-.34a540.07 540.07 0 019.17-59.35q5.52-25.57 12.53-43.81l-42.33 19.85a118.67 118.67 0 01-11.61 10c-11.59 8.53-21.64 11.62-28.48 12.66a197.47 197.47 0 0028.12 15.69c18.87 8.54 21.92 17 21.92 33.83 0 14.24 3.63 18.41 3.67 18.45zm23.92-12.64a230.89 230.89 0 014.38-49.64c5-25.57 16.61-61.59 43.71-87.95l2.78 2.86c-50.49 49.14-46.91 133.69-46.87 134.53zm-79-66.85c-8.91 0-14.09-3.63-16.86-6.68a17.66 17.66 0 01-4-6.88l3.87-1c.12.43 3 10.55 17 10.55 14.92 0 32.12-16.16 47-32 4-4.25 7.75-8.54 11.38-12.7 9.94-11.38 18.53-21.21 26.9-24L700-5.2c-7.33 2.41-15.58 11.86-25.14 22.8-3.65 4.18-7.43 8.51-11.47 12.81-15.48 16.43-33.48 33.23-49.93 33.23zm2.85-20.5l-3.8-1.24A162.74 162.74 0 01623 16.4c-13.11 1.43-30.67 10.08-30.86 10.18L590.4 23c.87-.43 20.81-10.27 34.94-10.78 13-22.62 26-27.34 26.69-27.59l1.3 3.78-.65-1.89.66 1.89c-.22.07-22.01 8.3-37.03 54.73z" fill="#b19283"/></g><path class="f" d="M414.26 284.86l-1.26-5.65s.13-7.33-5.93-11.34-11.28-2.14-13.91 2.82-6.52 18-.31 24.32 3.9 9.57 3.9 9.57"/><path class="d" d="M397.59 305.16L396 304s1.62-2.73-3.8-8.28c-6.55-6.7-2.73-20.06.14-25.48a9.83 9.83 0 016.23-5.26c2.82-.72 6 0 9.11 2.07 6.08 4 6.37 11 6.38 12.06l1.2 5.55-2 .42-1.26-5.77v-.12c0-.07 0-6.84-5.48-10.48-2.66-1.76-5.26-2.38-7.52-1.8a7.9 7.9 0 00-4.95 4.25c-2.55 4.8-6.2 17.3-.48 23.15 6.64 6.77 4.31 10.45 4.02 10.85z"/><path class="r" d="M463.17 285.21c.71.26 1.71-.69 2.23-2.11s.36-2.8-.35-3.06-1.71.69-2.23 2.11-.37 2.8.35 3.06z"/><path class="r" d="M463.41 286.25a1.65 1.65 0 01-.58-.1 2.15 2.15 0 01-1.29-1.91 5.33 5.33 0 01.34-2.43 5.42 5.42 0 011.29-2.07 2.15 2.15 0 012.22-.64c1.3.47 1.69 2.29.95 4.34a5.32 5.32 0 01-1.3 2.07 2.38 2.38 0 01-1.63.74zm1.26-5.17a3.17 3.17 0 00-.91 1.42 3.08 3.08 0 00-.21 1.67 3.26 3.26 0 00.91-1.42 3.18 3.18 0 00.21-1.67zM494.89 289.63c.71.26 1.71-.68 2.23-2.11s.36-2.8-.35-3.06-1.71.69-2.23 2.12-.37 2.79.35 3.05z"/><path class="r" d="M495.14 290.68a1.71 1.71 0 01-.59-.11c-1.29-.47-1.69-2.29-.94-4.34a5.42 5.42 0 011.29-2.07 2 2 0 013.51 1.28 5.59 5.59 0 01-.34 2.42c-.64 1.73-1.8 2.82-2.93 2.82zm1.25-5.17a3.14 3.14 0 00-.91 1.41 3.08 3.08 0 00-.21 1.67 3.26 3.26 0 00.91-1.42 3.15 3.15 0 00.21-1.66z"/><path class="m" d="M408.05 310.71l-1.9-.63 5.2-15.74c-4.73-7.92 1.34-15 1.41-15l1.5 1.32c-.22.26-5.34 6.24-1 13l.25.4z"/><path class="d" d="M402.34 292.52a7.29 7.29 0 01-5.37-3.21c-2.12-2.94-1.87-8.91-.24-12.08 1.11-2.16 2.54-2.61 3.55-2.61a3 3 0 012.78 1.3c1.11 1.78-.2 4.56-.35 4.87l-1.8-.88c.4-.82.82-2.33.45-2.93-.15-.24-.52-.36-1.08-.36-.82 0-1.41.83-1.77 1.52-1.44 2.81-1.4 7.95.08 10s3.61 2.61 4.16 2.3c.15-.09.15-.58-.17-1.32l1.84-.79c1.11 2.59-.25 3.6-.69 3.85a2.78 2.78 0 01-1.39.34z"/><path class="m" d="M390.44 264.61c-10.42 0-12.61-10.59-12.63-10.7l2-.38c.08.37 1.92 9.08 10.67 9.08zM410 259.5c-3.35 0-5.65-3.38-5.75-3.53l1.66-1.11s1.82 2.64 4.09 2.64a3.5 3.5 0 002.76-1.37 5.78 5.78 0 00.66-5c-.89-3.49-5-4.34-5.09-4.35l.38-2c.22 0 5.44 1.09 6.65 5.82a7.72 7.72 0 01-1 6.73 5.48 5.48 0 01-4.36 2.17zm12.22-11.65a21.25 21.25 0 01-3.07-.25c-5.07-.74-7-5.53-7.36-8l2-.26-1 .13 1-.13c0 .22.82 5.53 5.66 6.24 5.16.76 6.62-.35 9.83-2.8l.17-.12 1.21 1.59-.17.12c-2.74 2.09-4.57 3.48-8.32 3.48zm-12.26-4.46a9.65 9.65 0 01-5.05-3.3 9.4 9.4 0 01-7.13 2.29c-1.94-.24-4.62-1.29-6.32-5-1.12-2.44-1.27-4.62-.45-6.48a7.38 7.38 0 014.19-3.69l.61 1.91a5.42 5.42 0 00-3 2.61 5.83 5.83 0 00.45 4.81 5.92 5.92 0 004.74 3.85 7.44 7.44 0 005.87-2.08c-1.66-4 0-8.39.08-8.58l1.86.72s-1.55 4.15.06 7.43a7.19 7.19 0 004.66 3.6zm6.12-6.23c-7.42-9.79 0-16.83.12-16.9l1.35 1.47c-.25.24-6.18 5.91.12 14.23zm15.91-3.52c-.16-.37-3.84-9.18-.65-15.3a10.14 10.14 0 017.38-5.15l.41 2a8.25 8.25 0 00-6 4.11c-2.75 5.28.69 13.52.72 13.6zm55.66-5.16l-1.9-.62c.1-.32 2.46-7.8-3.4-10.7-6.15-3-10.26-1-10.43-.9l-.93-1.77c.2-.11 5.13-2.64 12.25.88 5.89 2.94 5.43 9.86 4.36 13.11zm18.59-2.36a6.49 6.49 0 01-4.91-2c-2.93-3.13-1.33-7.25-.08-9l1.62 1.17-.81-.59.82.58c-.11.16-2.62 3.75-.09 6.45s7.29.5 7.34.47l.87 1.8a11.7 11.7 0 01-4.81 1.12zm-56.72-.81a10.15 10.15 0 01.78-7.51c1.25-2.1 3.45-3.47 6.51-4.06 9.95-1.94 12.47 6.71 12.49 6.8l-1.93.53c-.08-.28-2.08-6.95-10.18-5.37-2.48.48-4.21 1.53-5.17 3.12a8.22 8.22 0 00-.59 5.9zm-49.28-3.94c-6.35 0-8.67-4.56-8.77-4.77l1.79-.88-.89.44.89-.45c.09.18 2.27 4.34 8.52 3.56s6.22-5 6.22-8.78a7.11 7.11 0 00-2.48-5 8.52 8.52 0 00-2.56-1.58c-.1.16-.15.26-.17.28l-1.45-.75a11.39 11.39 0 00-3.41-.12l-.21-2a13.12 13.12 0 014.49.25 8.56 8.56 0 018.56-2.77 10.68 10.68 0 012.53.94c-6.39-4.7-3.73-12.8-3.7-12.88l1.89.64c-.1.32-2.29 7.12 3.37 10.9a11.91 11.91 0 0011.91.56l1 1.74c-.28.16-6.66 3.65-13.24-.17a7.43 7.43 0 012.91 5.55h-2c0-.17-.11-4.15-5.1-5.33a6.39 6.39 0 00-6 1.55 10.52 10.52 0 012.56 1.69 9.16 9.16 0 013.14 6.49c0 3.65 0 9.77-8 10.76a14.16 14.16 0 01-1.85.13zm104.18-8c-3.13-7.42-8.8-5.67-9-5.59l-.63-1.89c.07 0 7.64-2.47 11.51 6.7zm-56-.39a14.12 14.12 0 01-3-3.82 9.64 9.64 0 01-6.36 3 6.71 6.71 0 01-6.87-3.51 6.28 6.28 0 01-.63-2.14c-9.79-4.63-15.23 3.61-15.47 4l-1.68-1.08a13.73 13.73 0 0117.3-5 8.64 8.64 0 012.17-3.9c5.07-5.49 10.21-2.06 10.26-2l-1.13 1.64.56-.82-.56.83c-.15-.1-3.79-2.46-7.67 1.73-1.75 1.9-2.27 4.11-1.36 5.91a4.74 4.74 0 004.86 2.41c3.69-.4 5.24-2.42 5.73-3.25a9.47 9.47 0 01-.3-2 11.48 11.48 0 012.73-7.68l1.47 1.36-.74-.68.74.68a9.56 9.56 0 00-2.28 6.21c.11 2.33 1.3 4.54 3.55 6.6zm16.34-3c0-.19-.87-4.78 1.89-7.7 1.79-1.88 4.59-2.58 8.33-2.07l-.27 2c-3.05-.41-5.28.08-6.6 1.46-2.06 2.17-1.4 5.92-1.39 6zm25.15-3.87a13.45 13.45 0 01-6.33-1.56 14.13 14.13 0 01-4.81-4.18l1.67-1.1-.83.55.83-.55c.23.34 5.68 8.29 16.34 3.09l.88 1.8a17.58 17.58 0 01-7.77 1.92zm-2.52-11.29a17.31 17.31 0 01-6.41-1.28q-3.19-1.27-3.74-3.8a6 6 0 01.57-3.72c-.53-.8-2.83-3.88-6.64-3.06-4.13.89-4.42 5.65-4.43 5.86l-2-.1c.1-2.24 1.49-6.74 6-7.71a8.31 8.31 0 018.16 3.12 12.41 12.41 0 011.15-1.41l1.44 1.39c-.78.81-2.72 3.31-2.3 5.22.21 1 1.05 1.77 2.51 2.35 6.35 2.51 10.59.09 10.64.06l1 1.73a12.55 12.55 0 01-5.97 1.32zm-34.32-3l-1.39-1.44s2.71-2.66 2.38-5.24a4.59 4.59 0 00-2.67-3.25c-6.15-3.49-11 1.5-11 1.55l-1.51-1.44c.06-.06 6-6.15 13.48-1.92 2.19 1.24 3.42 2.84 3.66 4.76.46 3.57-2.83 6.78-2.97 6.92zm-41.61-4.25l-.94-.32.94.32z"/><path class="d" d="M668.8 415.71a8.37 8.37 0 01-2.88-.53c-3.64-1.34-7.08-5.31-9.21-10.62-2.88-7.19-2.34-17.52-2.31-18l2 .12c0 .1-.54 10.32 2.18 17.09 1.92 4.8 4.93 8.35 8 9.49a6.18 6.18 0 005.2-.39l.94 1.77a8.46 8.46 0 01-3.92 1.07zm2.2-11.52h-2v-11.61a129.39 129.39 0 00-1.4-15l2-.3a126.82 126.82 0 011.4 15.3zm-251.21-64.66a95.24 95.24 0 01-8.74-7.68l1.39-1.44a98.48 98.48 0 008.53 7.51zm53.86-4.53h-2c0-.11-.18-3.12-5.81-4.62a16.14 16.14 0 00-10.77.76l-.93-1.77a17.91 17.91 0 0112.22-.92c7.2 1.89 7.29 6.33 7.29 6.55zm-34.59-36.22c-10.57-6.94-8.6-19.47-8.58-19.6l2 .33c-.07.46-1.76 11.39 7.7 17.6zm66.81-31.81c-7.51-2.73-12.51-.09-12.56-.06l-1-1.75c.23-.13 5.79-3.13 14.21-.07zm-23.31-1.67c-.08-.09-8.2-9.1-19-9.1s-18.58 7.24-18.65 7.31L443.5 262a31.14 31.14 0 0120-7.87c11.74 0 20.16 9.37 20.52 9.77z"/><path class="e" d="M178.92 195.32c0-1-1.09-99.2 0-132 .31-9.25 3.54-16.46 9.59-21.42 12.62-10.34 32.88-7.13 33.73-7l-.65 3.94c-.19 0-19.35-3-30.55 6.15-5.12 4.2-7.85 10.4-8.12 18.44-1.09 32.68 0 130.8 0 131.79z"/><g class="b"><path class="f" d="M472.65 422.36s5.27-3.38 26.82 8.52"/><path class="d" d="M499 431.76c-20.31-11.23-25.78-8.56-25.83-8.54l-1-1.7c.59-.38 6.39-3.37 27.84 8.49z"/></g><path class="g" d="M723.55 351.5s-1.9 11.13 3.3 18.45"/><path class="i" d="M726 370.53c-5.39-7.57-3.56-18.73-3.48-19.2l2 .33c0 .11-1.76 10.83 3.14 17.71z"/><path class="p" d="M452.14 392.71l-.55-4c37.42-5.17 65.43-33.81 65.71-34.1l2.88 2.78c-1.18 1.26-29.18 29.96-68.04 35.32zm71.94-14.32c-7.15 0-10.4-2.57-10.65-2.77l2.53-3.11s2.42 1.83 7.82 1.89c5.15.07 14-1.46 27.27-9.07l2 3.47c-13.16 7.55-22.61 9.59-28.97 9.59zm-33.47-3.93c-6.82-12.07-6-22.85-6-23.3l4 .34-2-.17 2 .16a40.59 40.59 0 005.45 21zm83.13-161.59c-6.39-10.26-10-27.08-10.58-50a278.68 278.68 0 011-31.24l4 .4c-.05.55-5.38 55.58 9 78.73zm-38.51-15.49a230 230 0 01-4-48.64l4 .19a225.11 225.11 0 003.92 47.67z"/></svg>
