<svg xmlns="http://www.w3.org/2000/svg" id="_Слой_1" viewBox="0 0 750 428"><defs><clipPath id="clippath"><path d="M.06 0h749.88v428H.06z" class="cls-1"/></clipPath><clipPath id="clippath-1"><path d="M.06 0h749.88v428H.06z" class="cls-1"/></clipPath><clipPath id="clippath-2"><path d="M.06 0h749.88v428H.06z" class="cls-1"/></clipPath><clipPath id="clippath-3"><path d="M.06 0h749.88v428H.06z" class="cls-1"/></clipPath><clipPath id="clippath-4"><path d="M.06 0h749.88v428H.06z" class="cls-1"/></clipPath><clipPath id="clippath-5"><path d="M.06 0h749.88v428H.06z" class="cls-1"/></clipPath><clipPath id="clippath-6"><path d="M.06 0h749.88v428H.06z" class="cls-1"/></clipPath><clipPath id="clippath-7"><path d="M.06 0h749.88v428H.06z" class="cls-1"/></clipPath><clipPath id="clippath-8"><path d="M.06 0h749.88v428H.06z" class="cls-1"/></clipPath><style>.cls-1,.cls-11,.cls-12,.cls-14,.cls-17,.cls-3,.cls-5,.cls-7,.cls-8{fill:none}.cls-17,.cls-3{stroke:#82705a}.cls-17{stroke-linejoin:bevel}.cls-19{fill:#003e8e}.cls-24{fill:#d8b48d}.cls-27{fill:#d9bcb9}.cls-29{fill:#071d20}.cls-30{fill:#18140d}.cls-17,.cls-3,.cls-5,.cls-7,.cls-8{stroke-width:2px}.cls-5{stroke:#18140d}.cls-7{stroke:#281100}.cls-8{stroke:#b15d4a}.cls-11{stroke:#003352}.cls-11,.cls-12,.cls-14{stroke-width:3px}.cls-12{stroke:#24272b}.cls-14{stroke:#2d5137}</style></defs><path d="M0 0h750v428H0z" class="cls-29"/><g style="clip-path:url(#clippath)"><path d="M-3.9-3.27V432.7h757.68V-3.27H-3.9z" class="cls-29"/><path d="M-3.9-3.27V432.7h757.68V-3.27H-3.9z" style="stroke:#a1a67f;stroke-width:2px;fill:none"/></g><path d="M134.59 148.13s-9.98-60.1-34.61-71.55c-19.84-9.23-36.25 5.36-36.25 20.56s12.19 23.54 20.97 16.57c8.78-6.97 1.48-21.27-4.06-17.17-5.53 4.09 0 10.2 0 10.2" class="cls-12"/><g style="clip-path:url(#clippath-1)"><path d="M131.87 219.67v-99.21c0-54.57 6.14-110.55 69.33-110.55s67.44 60.27 69.57 94.98c2.13 34.71 4.96 121.87 4.96 121.87l-143.86-7.09Z" style="fill:#24272b"/><path d="M-11.28 25.5s43.94 3.54 66.61 56.69c22.68 53.15 37.56 96.38 124.72 154.49L-10.57 407.46l-.71-381.96Z" style="fill:#ad875f"/><path d="M-11.28 25.5s43.94 3.54 66.61 56.69c22.68 53.15 37.56 96.38 124.72 154.49L-10.57 407.46l-.71-381.96Z" style="stroke:#3f261e;stroke-width:3px;fill:none"/><path d="M136 214S65.14 202.65-.06 244.47m158.15-6.36S86.51 205.5-7.74 266.44m114.09-18.6s-35.31 5.14-55.28 6.56l-28.46 9.23 2.83 3.66s5.91 2.59 15.71-3.66c0 0 1.59-7.55 22.57 3.66 20.97 11.21 28.46 11.92 28.46 11.92m-57.4-6.38s7.09-7.8 45.35 14.88M-2.89 181.42s45.65 22.29 66.62-23.4m-42.77 44.64s29.29 2.21 54.16-39.64M-4.19 40.38s34.84 17.45 34.84 67.34-9.77 70.87-9.77 70.87" style="stroke:#bf9f68;stroke-width:3px;fill:none"/><path d="m379.55 242.35-36.63-40.39-40.98-9.38s30.04-20.39 81.63-35.27c0 0 25.64-25.53 47.34-27.64 0 0 24.8-36.85 34.02-54.57 9.21-17.72 23.39-62.36 57.4-81.5l57.4.72S577.6 5.66 585.4 25.5c0 0-15.59 46.76 22.68 64.47 0 0 31.18 27.64 41.81 41.81 10.63 14.17 18.9 22.68 41.69 28.35 22.79 5.67 39.09 20.55 39.09 20.55l44.65 235.98-21.38 24.1-382.56 15.61 8.16-214.03Z" class="cls-19"/><path d="m379.55 242.35-36.63-40.39-40.98-9.38s30.04-20.39 81.63-35.27c0 0 25.64-25.53 47.34-27.64 0 0 24.8-36.85 34.02-54.57 9.21-17.72 23.39-62.36 57.4-81.5l57.4.72S577.6 5.66 585.4 25.5c0 0-15.59 46.76 22.68 64.47 0 0 31.18 27.64 41.81 41.81 10.63 14.17 18.9 22.68 41.69 28.35 22.79 5.67 39.09 20.55 39.09 20.55l44.65 235.98-21.38 24.1-382.56 15.61 8.16-214.03Zm107.86 108.98s-.43 11.21 6.16 22.89" class="cls-11"/></g><path d="M459.63 344.41s11.89 1.64 19.48 3.99c7.59 2.34 13.64 7.76 19.84 8.1 8.36.46 10.15-3.71 10.15-3.71-5.62-2.13-14.16-7.64-17.67-10.91-3.5-3.27-18.03-6.69-18.03-6.69s11.8 1.45 20.58 2.14c8.78.69 18.23 3.86 22.68 7.93 4.45 4.06 7.8 13.51 11.48 18.88 3.57 5.2 9.45 2.27 9.45 2.27-4.2-6.95-8.34-18.36-10.42-23.4-3.71-8.99-12.12-12.77-12.12-12.77s5.82-1.93 6.57-6.66c.62-3.89-1.84-5.92-1.84-5.92s2.75-5.83-.99-12.33-11.46-12.52-23.7-16.58l-35.46 55.68Z" class="cls-27"/><path d="M459.63 344.41s11.89 1.64 19.48 3.99c7.59 2.34 13.64 7.76 19.84 8.1 8.36.46 10.15-3.71 10.15-3.71-5.62-2.13-14.16-7.64-17.67-10.91-3.5-3.27-18.03-6.69-18.03-6.69s11.8 1.45 20.58 2.14c8.78.69 18.23 3.86 22.68 7.93 4.45 4.06 7.8 13.51 11.48 18.88 3.57 5.2 9.45 2.27 9.45 2.27-4.2-6.95-8.34-18.36-10.42-23.4-3.71-8.99-12.12-12.77-12.12-12.77s5.82-1.93 6.57-6.66c.62-3.89-1.84-5.92-1.84-5.92s2.75-5.83-.99-12.33-11.46-12.52-23.7-16.58l-35.46 55.68Z" class="cls-3"/><g style="clip-path:url(#clippath-2)"><path d="M426.67 387.48s10.66-.89 18.31-10.06c7.65-9.18 9.33-19.47 9.33-19.47s9.1 7.72 3.4 19.47c-3.57 7.37-12.73 14.64-12.73 14.64l14.55 7.92s4.18-3.35 10.12-7.92c5.94-4.58 14.14-5.12 20.37 0 4.87 4 14.14 7.54 14.14 7.54s-.59 5.03-9.07 4.59c-8.49-.44-11.59-6.75-17.32-5.66-2.14.41-12.88 12.49-12.88 12.49s3.63 3.43 10.69.65c7.07-2.78 17.56 5 22.37 7.85 4.81 2.85 11.62 2.83 11.62 2.83s1.42 8.52-3.54 8.52-97.09 3.53-97.09 3.53l-10.41-9.2 28.13-37.71Z" class="cls-27"/><path d="M426.67 387.48s10.66-.89 18.31-10.06c7.65-9.18 9.33-19.47 9.33-19.47s9.1 7.72 3.4 19.47c-3.57 7.37-12.73 14.64-12.73 14.64l14.55 7.92s4.18-3.35 10.12-7.92c5.94-4.58 14.14-5.12 20.37 0 4.87 4 14.14 7.54 14.14 7.54s-.59 5.03-9.07 4.59c-8.49-.44-11.59-6.75-17.32-5.66-2.14.41-12.88 12.49-12.88 12.49s3.63 3.43 10.69.65c7.07-2.78 17.56 5 22.37 7.85 4.81 2.85 11.62 2.83 11.62 2.83s1.42 8.52-3.54 8.52-97.09 3.53-97.09 3.53l-10.41-9.2 28.13-37.71Z" class="cls-3"/></g><path d="M402.62 276.06 374.94 214 331 288.95l71.46 66.19 20.67-18.65s10.51 9.64 22.68 10.52c13.31.97 18.19 2.11 27.52-9.57s19.82-20.3 22.79-32.87c1.84-7.77.98-12.62.98-12.62s3.98-2.85 5.4-7.8c0 0 5.43-5.53 4.84-17.72l5.79-12.19.9-20.41-39.88-19.84-53.01 13.81-13.28 30.84 5.93 20.56" class="cls-27"/><path d="M402.62 276.06 374.94 214 331 288.95l71.46 66.19 20.67-18.65s10.51 9.64 22.68 10.52c13.31.97 18.19 2.11 27.52-9.57s19.82-20.3 22.79-32.87c1.84-7.77.98-12.62.98-12.62s3.98-2.85 5.4-7.8c0 0 5.43-5.53 4.84-17.72l5.79-12.19.9-20.41-39.88-19.84-53.01 13.81-13.28 30.84 5.93 20.56" class="cls-3"/><g style="clip-path:url(#clippath-3)"><path d="M-7.74 411.01s26.56-101.65 119.06-154.49 180.47-77.56 231.61-65.2c51.14 12.36 51.02 12.36 51.02 12.36s-15.47 13.33-27.52 28.74-16.91 26.46-19.09 38.1c-2.45 13.04 0 21.44 0 21.44s18.64 7.95 34.69 23.37c17.48 16.8 26.22 47.51 35.43 64.5 0 0 12.05-4.94 20.55 0 0 0-20.08 19.81-32.72 56.68l-416.57-1.42L-7.74 411Z" style="fill:#49804f"/><path d="M-7.74 411.01s26.56-101.65 119.06-154.49 180.47-77.56 231.61-65.2c51.14 12.36 51.02 12.36 51.02 12.36s-15.47 13.33-27.52 28.74-16.91 26.46-19.09 38.1c-2.45 13.04 0 21.44 0 21.44s18.64 7.95 34.69 23.37c17.48 16.8 26.22 47.51 35.43 64.5 0 0 12.05-4.94 20.55 0 0 0-20.08 19.81-32.72 56.68l-416.57-1.42L-7.74 411Zm360-105.59s-1.27 19.79 28.35 26.6c18.19 4.19 16.72 24.48 16.72 24.48M77.3 439.37s19.88-39.79 38.27-73.7c20.5-37.79 77.13-71.71 130.73-110.55M46.12 440.8s38.74-95.19 84.75-126.17c51.76-34.85 66.2-51.11 66.2-51.11M17.77 434.39s44.7-104.09 92.72-137.48c48.01-33.39 141.73-79.86 141.73-79.86m6.5 62.49s18.19 51.39 30.35 53.51c12.17 2.13 33.42.99 33.42.99s19.84 31.61 60.95 37.28m-17.01.99s-.3 18.46 16.44 22m-73.26-31.48 14.3 41.35s32.6 6.11 46.06 26.66M246.29 305.3s-54.91 51.13-27.27 126.25m27.95-72.99 10.79 13.75s-6.14 41.53-1.89 66.33M283.51 347s-14.29 39.89-2.95 90.22m-122.07-51.98s-16.71 17.97-1.83 51.27m25.01-111.05s-15.68 35.32-5.17 59.77c0 0-10.63 37.81 12.05 60.49M291.9 271.56s-11.34 11.34-5.67 27.18c5.67 15.83 10.43 19.84 22.43 19.84s18.08-2.97 22.8 1c4.73 3.97 11.23 20.75 34.02 31.83 22.79 11.08 32.31 11.36 32.05 26-.21 12.08-10.67 7.26-10.67 7.26M347.33 231s-27.09 23.94-20.59 76.53" class="cls-14"/></g><path d="M329.73 184.86s-32.34 19.07-49.9 31.3c-17.57 12.23-42.37 17.07-48.75 31.68-6.38 14.61-8.03 20.93-7.21 27.9.83 6.97.24 14.47 7.21 16.47 6.97 2 5.67 1 5.67 1s1.42 7.75 2.13 14.59 2.58 9.19 8.11.1c5.53-9.09.26-13.97 5.53-23.13 5.26-9.16 27.32-26.82 27.32-26.82s8.34-2.38 18.57-.72c8.08 1.31 11.05 3.86 11.05 3.86s-7.63 10.77-15.13 17.29c-5.56 4.83-6.27 13.61-1.74 18.43 0 0 6.28-7.12 13.49-14.1 7.2-6.97 19.56-14.85 18.54-28.45-.99-13.31-3.95-21.81-3.95-21.81s26.73-5.24 44.82-15.38" class="cls-24"/><path d="M329.73 184.86s-32.34 19.07-49.9 31.3c-17.57 12.23-42.37 17.07-48.75 31.68-6.38 14.61-8.03 20.93-7.21 27.9.83 6.97.24 14.47 7.21 16.47 6.97 2 5.67 1 5.67 1s1.42 7.75 2.13 14.59 2.58 9.19 8.11.1c5.53-9.09.26-13.97 5.53-23.13 5.26-9.16 27.32-26.82 27.32-26.82s8.34-2.38 18.57-.72c8.08 1.31 11.05 3.86 11.05 3.86s-7.63 10.77-15.13 17.29c-5.56 4.83-6.27 13.61-1.74 18.43 0 0 6.28-7.12 13.49-14.1 7.2-6.97 19.56-14.85 18.54-28.45-.99-13.31-3.95-21.81-3.95-21.81s26.73-5.24 44.82-15.38" class="cls-7"/><path d="M158.68 196.28s-.76-53.23.03-95.92c.79-42.61 7.03-69.29 41.19-69.18 31.25.1 40.68 18.16 43.82 82.05 2.69 54.71 1.52 82.08 1.52 82.08l-86.56.97Z" style="fill:#00102d"/><g style="clip-path:url(#clippath-4)"><path d="M224.7 34.89s-41.91-4.57-43.02 28.53c-1.11 33.1 0 133.29 0 133.29m89.08-33.74s4.96-72.27 29.05-92.11c24.09-19.84 50.32-.03 46.06 19.83-4.25 19.86-24.8 15.58-21.97 3.54 2.83-12.03 12.05-6.38 12.05-6.38" class="cls-12"/><path d="M751.12 409.59s-13.94-14.19-14.06-43.23c-.12-29.04-48.25-57.45-70.54-49.61l-19.46-37.54 33.19-24.04 91.53 30.41-20.67 124.02Z" style="fill:#281100"/><path d="M751.12 409.59s-13.94-14.19-14.06-43.23c-.12-29.04-48.25-57.45-70.54-49.61l-19.46-37.54 33.19-24.04 91.53 30.41-20.67 124.02Z" class="cls-11"/></g><path d="m562.03 366.36 165.59-19.69s4.21 6.03 4.21 15.83-4.21 7.44-4.21 7.44l-162.05 17.42s-10.21-7.51-3.54-21.01Z" style="fill:#e5ddd7"/><path d="m562.03 366.36 165.59-19.69s4.21 6.03 4.21 15.83-4.21 7.44-4.21 7.44l-162.05 17.42s-10.21-7.51-3.54-21.01Z" class="cls-5"/><g style="clip-path:url(#clippath-5)"><path d="M672.58 266s-16.3 22.03-26.22 31.91c-9.92 9.89-20.08 19.11-19.96 34.1.12 14.99-4.13 27.36-9.8 40.29-5.67 12.93-12.76 28.07-9.21 36.57 3.54 8.5 6.68 17.52 11.34 15.59 3.69-1.53.57-12.98-2.24-18.53 0 0 1.68-7.09 2.24-10.87l7.68-9.83s.4 11.23 2.83 18.94c5.93 18.76 17.55 30.76 23.22 26.7 4.22-3.03-9.78-17.09-11.76-34.02-.27-2.32.4-11.62.4-11.62s3.14 17.26 6.68 23.64c3.54 6.38 8.64 8.13 14.32 9.53 5.67 1.4 11.29-4.55 11.29-4.55s6.76-4.3 6.87-15.34c.12-11.04-.59-22.35-.59-22.35s-3.95-3.29-9.62 4.54l-1.13-18.2s2.24-15.22-7.68-30.49c0 0 35.43-21.62 64.49-52.81l-53.15-13.21Z" class="cls-24"/><path d="M672.58 266s-16.3 22.03-26.22 31.91c-9.92 9.89-20.08 19.11-19.96 34.1.12 14.99-4.13 27.36-9.8 40.29-5.67 12.93-12.76 28.07-9.21 36.57 3.54 8.5 6.68 17.52 11.34 15.59 3.69-1.53.57-12.98-2.24-18.53 0 0 1.68-7.09 2.24-10.87l7.68-9.83s.4 11.23 2.83 18.94c5.93 18.76 17.55 30.76 23.22 26.7 4.22-3.03-9.78-17.09-11.76-34.02-.27-2.32.4-11.62.4-11.62s3.14 17.26 6.68 23.64c3.54 6.38 8.64 8.13 14.32 9.53 5.67 1.4 11.29-4.55 11.29-4.55s6.76-4.3 6.87-15.34c.12-11.04-.59-22.35-.59-22.35s-3.95-3.29-9.62 4.54l-1.13-18.2s2.24-15.22-7.68-30.49c0 0 35.43-21.62 64.49-52.81l-53.15-13.21Z" class="cls-7"/><path d="M647.66 278.38s21.85-25.73 38.27-45.13c16.42-19.4 18.54-20.31 18.54-20.31s0-30.98 16.3-37.46c0 0-14.91-13.93-37.63-12.46 0 0-8.62-9.95-23.31-9.95l-10.75-21.98-43.64-39.69s-36.32-19.84-21.43-63.78c0 0-5.9-19.13-5.79-31.89l180.83-6.38 4.25 421.67-24.8-103.22-90.83-29.42Z" style="fill:#9f211e"/><path d="M647.66 278.38s21.85-25.73 38.27-45.13c16.42-19.4 18.54-20.31 18.54-20.31s0-30.98 16.3-37.46c0 0-14.91-13.93-37.63-12.46 0 0-8.62-9.95-23.31-9.95l-10.75-21.98-43.64-39.69s-36.32-19.84-21.43-63.78c0 0-5.9-19.13-5.79-31.89l180.83-6.38 4.25 421.67-24.8-103.22-90.83-29.42Z" class="cls-11"/><path d="M419.21 379.29s-39.43 9.36-44.27 51.56" class="cls-14"/></g><path d="M478.55 304.03s-3.4 5.28 1.33 9.43" style="stroke-linejoin:bevel;stroke:#82705a;fill:none"/><path d="M448.64 274.09s6.27-7.15 16.44-4.8c8.3 1.92 12.33 6.39 12.33 6.39m28.37 1.84c-10.38-4.68-18.87 0-18.87 0s-1.98 10.74-1.42 16.98c.57 6.24 1.71 9.81 1.13 13.61-.92 6.03-5.53 6.79-9.85 4.25-4.32-2.54-5.15-5.78-8.56-5.78m21.81-14.78h7.94" class="cls-17"/><path d="M457.95 320.34h13.71s2.79 4.36 7.91 1.45" class="cls-8"/><path d="m379.55 242.35-36.63-40.39-40.98-9.38s45.39-40.91 116.44-49.41" class="cls-19"/><path d="m379.55 242.35-36.63-40.39-40.98-9.38s45.39-40.91 116.44-49.41" class="cls-11"/><path d="M464.46 323.33s.39 5.33 8.51 5.33" class="cls-8"/><path d="M258.44 255.7s-25.93 22.43-21.54 37.98" class="cls-24"/><path d="M258.44 255.7s-25.93 22.43-21.54 37.98" class="cls-7"/><path d="M245.14 250.75s-21.8 16.54-19.3 36.54" class="cls-24"/><path d="M245.14 250.75s-21.8 16.54-19.3 36.54" class="cls-7"/><path d="m502.78 325.43 12.66 4.82" class="cls-3"/><path d="M587.54 215.06s-35.67-15.62-46.18-15.62H495.1m-103.77-36.43s18.31-16.1 37.47-12.32c19.16 3.78 28.91 13.07 28.91 13.07M543.13-8.05s-12.03 109.96-28.07 157.17m31.97 52.14-2.9 31.87 67.51-3.04s7.79 14.81 29.05 24.16m-74.76-21.81s-24.41 34.26-24.41 43.29-1 50.03-1 50.03l39.58-21.18m-23.09 0h35.05l11.66-5.76m-51.02-22.75 27.89-8.69s-.04 5.62 7.35 11.84m39.28-133.95s17.68 32.4 66.95 23.79m-79.95-13.74s28.39 33.88 74.53 25.65m-75.3-12.29s-2.67 21.1 24.66 35.42c20.28 10.63 33.33 2.71 33.33 2.71m-223.72-82.07s25.58 16.89 53.48 12.74m-66.75 43.95s12.73-19.98 55.56-7.1" class="cls-11" style="clip-path:url(#clippath-6)"/><path d="M415.02 283.57s7-1.5 3.5-11.97c0 0 15.52-5.15 6.01-20.39 0 0 10.76-.74 11.35-13.47 0 0 14.48 6.31 16.74-7.65 0 0 5.08 8.24 14.23 3.16 0 0 8.39 8.39 19.74 1.65 0 0 .8 7.79 8.49 6.38 7.68-1.42 7.68-6.01 7.68-6.01s-.16 3.53 4.56 3.53c0 0-3.07 7.76 3.66 11.34s10.98-3.19 10.98-6.73-.63-6.99-4.25-10.16c0 0 5.04-8.98-2.67-11.81 0 0 3.55-7.37-.95-14.51s-11.33-7.14-11.33-7.14.93-7.21-4.81-7.21c0 0-.28-13.85-14.6-12.24 0 0-14.52-6.51-24.96-1.13 0 0-7.99-4-12-.62 0 0 1.26-6.74-6.75-8.17-8.01-1.43-8.84 5.06-8.84 5.06s-7.68-.76-9.8 6.48c0 0-9.27-3-13.14 2.3 0 0-7.38-3.67-11.65 2.94-4.27 6.61 0 11.24 0 11.24s-9.47 1.39-9.35 8.84c0 0-7.81 4.85-5.55 13.83 2.26 8.99 6.02 12.15 6.02 12.15s-9.27-.47-10.99 6.61c-1.71 7.09-.71 16.89 4.96 25.01 0 0-5.79 6.19-1.76 14.44 0 0-6.13-6.2-9.85-.1-3.72 6.1-1.14 12 2.05 13 0 0-.02 7.5 9.45 6.61 0 0 3.78 6.47 13.23-.9l20.59-14.35Z" style="fill:#3f261e"/><g style="clip-path:url(#clippath-7)"><path d="M415.02 283.57s7-1.5 3.5-11.97c0 0 15.52-5.15 6.01-20.39 0 0 10.76-.74 11.35-13.47 0 0 14.48 6.31 16.74-7.65 0 0 5.08 8.24 14.23 3.16 0 0 8.39 8.39 19.74 1.65 0 0 .8 7.79 8.49 6.38 7.68-1.42 7.68-6.01 7.68-6.01s-.16 3.53 4.56 3.53c0 0-3.07 7.76 3.66 11.34s10.98-3.19 10.98-6.73-.63-6.99-4.25-10.16c0 0 5.04-8.98-2.67-11.81 0 0 3.55-7.37-.95-14.51s-11.33-7.14-11.33-7.14.93-7.21-4.81-7.21c0 0-.28-13.85-14.6-12.24 0 0-14.52-6.51-24.96-1.13 0 0-7.99-4-12-.62 0 0 1.26-6.74-6.75-8.17-8.01-1.43-8.84 5.06-8.84 5.06s-7.68-.76-9.8 6.48c0 0-9.27-3-13.14 2.3 0 0-7.38-3.67-11.65 2.94-4.27 6.61 0 11.24 0 11.24s-9.47 1.39-9.35 8.84c0 0-7.81 4.85-5.55 13.83 2.26 8.99 6.02 12.15 6.02 12.15s-9.27-.47-10.99 6.61c-1.71 7.09-.71 16.89 4.96 25.01 0 0-5.79 6.19-1.76 14.44 0 0-6.13-6.2-9.85-.1-3.72 6.1-1.14 12 2.05 13 0 0-.02 7.5 9.45 6.61 0 0 3.78 6.47 13.23-.9l20.59-14.35Z" class="cls-7"/><path d="M653.44-13.48s-22.68 7.81-38.27 56m-23.12-17.73s21.3-10.59 35.17-10.59m-31.89 35.39s3.06 12.05 18.89 12.05 33.55-16.76 48.43-32.6c14.88-15.84 26.69-32.6 37.44-36.14m-90.68 77.74s15.62 2.72 36.36-12.55c20.74-15.27 46.64-50.99 58.69-63.76m.73 31.35-47.97 22.49m38.03 82.22S691 44.66 742.73-5.67M705.19 156.8S715.81 15.61 754.07-2.83m-.12 17.01s-14.76 18.79-18.31 34.91c-3.54 16.12-1.3 27.46 1.42 35.96 2.72 8.5-4.24 50.18-4.24 64.08s2.09 19.61 10.61 13.9c8.52-5.71 14.18-12.09 14.18-12.09m-86.87-9.21s-4.22-4.22-4.22-19.83-2.18-23.61-20.74-32.01c-18.56-8.4-31.56-18.05-31.56-18.05M756.2 218.28s-3.7-13.18-20.55-13.18-22.56 5.81-21.97 9.63c.59 3.82 11.03 2.06 21.22 10.29 10.19 8.24 21.3 23 21.3 23m-43.56-19.85s12.52.95 19.18 5.08.97 9.16 11.61 20.47c10.64 11.3 19.03 15.57 19.03 15.57m-43.66-72.97s25.47-15.63 43.07 2.8m-49.23-42.31s7.69-62.57 14.98-76.74m-46.41 53.17s9.56-111.28 44.4-138.91M614.23 82.91s7.99 9.2 19.77 14.17c11.78 4.98 19.77 6.15 19.77 21.2s8.18 26.99 8.18 26.99" style="stroke:#c16848;stroke-width:3px;fill:none"/></g><path d="m415.02 284.86-1.22-5.65s.13-7.33-5.93-11.34-11.28-2.14-13.91 2.82c-2.63 4.96-6.52 17.95-.31 24.32 6.21 6.36 3.89 9.57 3.89 9.57" class="cls-27"/><path d="m415.02 284.86-1.22-5.65s.13-7.33-5.93-11.34-11.28-2.14-13.91 2.82c-2.63 4.96-6.52 17.95-.31 24.32 6.21 6.36 3.89 9.57 3.89 9.57" class="cls-7"/><path d="M462.73 286.33c.93.53 2.32-.27 3.25-1.88.39-.67.59-1.14.47-1.55-.11-.38-.42-.54-.7-.69 0 0-.39-.22-.38-.22-.41-.25-.92-.56-1.52-.41-.43.11-.8.44-1.12 1-.93 1.61-.93 3.22 0 3.76Z" class="cls-30"/><path d="M462.73 286.33c.93.53 2.32-.27 3.25-1.88.39-.67.59-1.14.47-1.55-.11-.38-.42-.54-.7-.69 0 0-.39-.22-.38-.22-.41-.25-.92-.56-1.52-.41-.43.11-.8.44-1.12 1-.93 1.61-.93 3.22 0 3.76Z" style="stroke-width:1px;stroke:#4e402d;fill:none"/><path d="M494.39 290.52c.98.42 2.27-.56 3-2.26l.31-.71c.28-.61.43-.95.12-1.24-.3-.29-.68-.1-.97.05-.36.19-.64.07-1.06-.14-.35-.17-.73-.37-1.15-.21-.3.11-.52.36-.7.78-.72 1.71-.53 3.31.45 3.73Z" class="cls-30"/><path d="M494.39 290.52c.98.42 2.27-.56 3-2.26l.31-.71c.28-.61.43-.95.12-1.24-.3-.29-.68-.1-.97.05-.36.19-.64.07-1.06-.14-.35-.17-.73-.37-1.15-.21-.3.11-.52.36-.7.78-.72 1.71-.53 3.31.45 3.73Z" style="stroke:#4e402d;stroke-width:1px;fill:none"/><path d="M415.02 284.01s-3.86 5.25.98 12.79" class="cls-7"/><path d="M402.58 280.35s2.32-4.73-1.54-4.73-5 9.63-2.5 13.11c2.5 3.48 7.42 3.95 5.73 0" class="cls-17"/><path d="M433.62 233.25s-6.97-16.36 6.02-19.08m11.55 10.84s-2.63-8.52 6.52-10.29c9.15-1.78 11.34 6.09 11.34 6.09m18.36 7.37s2.83-8.57-3.9-11.9-11.34-.9-11.34-.9m30.61.33s-3.14 4.36 0 7.72c3.15 3.35 8.51.68 8.51.68m-30.93-24.31s5.99 9.11 17.61 3.44m-101.75 24.94s-6.27 1.97-3.14 8.79c3.14 6.82 10.28 4.54 12.53 1.7m0-8.57s-3.69 9.58 5.35 12.35m.29-55.25s-2.65 7.77 3.76 12.05c6.41 4.27 12.95.6 12.95.6m16.3-.55s-4.42-3.04-8.96 1.88c-4.55 4.92-.94 10.56 4.34 10 5.29-.57 6.73-4.22 6.73-4.22m2.13-8.96s-6.54 7.05 1.33 14.22m16.64-2.44s-1.91-10.09 9.11-8.6m-58 19.83s-6.96 6.38 0 15.56m-14.97-32.83s2.76-5.32 8.64-3.94c5.87 1.38 5.87 6.3 5.87 6.3m64.39-22.7s-6.3 6.47.57 9.19c6.87 2.72 11.51 0 11.51 0m-27.11-3.84s.26-5.72 5.22-6.78c5.07-1.09 7.84 3.71 7.84 3.71m-63.59 24.28s6.35-9.98 17.68-3.86m-40.54 10.07s2.45 4.98 9.54 4.1c7.1-.88 7.1-6.08 7.1-9.77s-3.84-8.94-11.18-8.16m41.83-19.63s5.36-5.64 12.26-1.73c6.9 3.9.49 10.08.49 10.08m42.66 15.76s6.72-2.27 10.28 6.15m-96.82 32.84s4.8.92 5.86 5.09c1.23 4.84-1.53 7.64-4.38 7.64s-4.92-3.09-4.92-3.09m7.7-15.91s.84 6.27 6.51 7.1c5.67.84 7.41-.58 10.75-3.12m-51.2 10.23s1.94 9.89 11.65 9.89" class="cls-7"/><path d="M656.16 386.66s-.59 10.46 2.25 17.53c2.83 7.07 8.58 12.81 14.64 9.61" class="cls-24"/><path d="M656.16 386.66s-.59 10.46 2.25 17.53c2.83 7.07 8.58 12.81 14.64 9.61" class="cls-7"/><path d="M669.33 377.42s1.42 9.23 1.42 15.16v11.6" class="cls-24"/><path d="M669.33 377.42s1.42 9.23 1.42 15.16v11.6" class="cls-7"/><path d="M422.99 336.26s-2.98-2.26-7.97-9.97" class="cls-3"/><g style="clip-path:url(#clippath-8)"><path d="M444.96 262.76s8.16-6.49 19.59-6.49 19.53 8.34 19.53 8.34m8.36 1.87s7.21-3.4 14.54-.47m-51.16 67.27s3.75-1.92 8.72-.62c4.96 1.3 4.96 4.14 4.96 4.14m-37.27-57.47s-2.01 11.94 8.14 18.6" class="cls-17"/><path d="M473.41 422.36s5.28-3.39 26.82 8.52" style="fill:#a69258"/><path d="M473.41 422.36s5.28-3.39 26.82 8.52" style="stroke:#61512a;stroke-width:2px;fill:none"/></g><path d="M724.31 351.5s-1.9 11.14 3.31 18.45" style="fill:#c0c9b9"/><path d="M724.31 351.5s-1.9 11.14 3.31 18.45" class="cls-5"/><path d="M519.51 356.04s-28.29 29.36-66.88 34.68m62.84-16.65s10.29 8.52 37.34-7.01m8.39-310.37s.04 129.06 15.01 153.07m-42.2-60.93s-.34 25.24 4.67 50.55" class="cls-11"/><path d="M470.49 281.5s-12.76.14-18.45-3.74c0 0 3.69 11.19 14.44 9.8 0 0-4.55 4.92-11.57 3.04m34.27-6.45s7.79 2.89 12.5 1.42" class="cls-17"/><path d="M520.24 318.06s-6.12-5.1-15.19-7.79m14.32-3.97s-5.84-4.32-13.18-7.55m-98.32 11.64" class="cls-3"/></svg>