<svg xmlns="http://www.w3.org/2000/svg" id="_Слой_1" viewBox="0 0 749.88 428">
  <defs>
    <clipPath id="clippath">
      <path d="M0 0h749.88v428H0z" class="cls-1"/>
    </clipPath>
    <clipPath id="clippath-1">
      <path d="M0 0h749.88v428H0z" class="cls-1"/>
    </clipPath>
    <clipPath id="clippath-2">
      <path d="M0 0h749.88v428H0z" class="cls-1"/>
    </clipPath>
    <clipPath id="clippath-3">
      <path d="M0 0h749.88v428H0z" class="cls-1"/>
    </clipPath>
    <clipPath id="clippath-4">
      <path d="M0 0h749.88v428H0z" class="cls-1"/>
    </clipPath>
    <clipPath id="clippath-5">
      <path d="M0 0h749.88v428H0z" class="cls-1"/>
    </clipPath>
    <clipPath id="clippath-6">
      <path d="M0 0h749.88v428H0z" class="cls-1"/>
    </clipPath>
    <clipPath id="clippath-7">
      <path d="M0 0h749.88v428H0z" class="cls-1"/>
    </clipPath>
    <clipPath id="clippath-8">
      <path d="M0 0h749.88v428H0z" class="cls-1"/>
    </clipPath>
    <clipPath id="clippath-9">
      <path d="M0 0h749.88v428H0z" class="cls-1"/>
    </clipPath>
    <clipPath id="clippath-10">
      <path d="M0 0h749.88v428H0z" class="cls-1"/>
    </clipPath>
    <clipPath id="clippath-11">
      <path d="M0 0h749.88v428H0z" class="cls-1"/>
    </clipPath>
    <clipPath id="clippath-12">
      <path d="M0 0h749.88v428H0z" class="cls-1"/>
    </clipPath>
    <clipPath id="clippath-13">
      <path d="M0 0h749.88v428H0z" class="cls-1"/>
    </clipPath>
    <clipPath id="clippath-14">
      <path d="M0 0h749.88v428H0z" class="cls-1"/>
    </clipPath>
    <clipPath id="clippath-15">
      <path d="M0 0h749.88v428H0z" class="cls-1"/>
    </clipPath>
    <style>
      .cls-1,.cls-3,.cls-5,.cls-7,.cls-8,.cls-9{fill:none}.cls-12{fill:#693c21}.cls-13{fill:#c18f64}.cls-14{fill:#2a001b}.cls-15{fill:#7127c4}.cls-7,.cls-8,.cls-9{stroke-linecap:round}.cls-3{stroke-width:5px}.cls-3,.cls-5{stroke:#552347}.cls-7,.cls-8,.cls-9{stroke-linejoin:round}.cls-5{stroke-width:3px}.cls-31{fill:#744fbc}.cls-7{stroke-width:2.19px}.cls-7,.cls-8,.cls-9{stroke:#571a64}.cls-8{stroke-width:2.19px}.cls-9{stroke-width:1.86px}
    </style>
  </defs>
  <g clip-path="url(#clippath)">
    <path fill="#7127c3" d="M-5.29-7.99v438.36h760.93V-7.99H-5.29z"/>
    <path fill="none" stroke="#000" d="M-5.29-7.99v438.36h760.93V-7.99H-5.29z"/>
  </g>
  <path d="M292.59 82.84c8.67 0 15.7-7.03 15.7-15.7s-7.03-15.7-15.7-15.7-15.7 7.03-15.7 15.7 7.03 15.7 15.7 15.7Z" class="cls-31"/>
  <path d="M292.59 82.84c8.67 0 15.7-7.03 15.7-15.7s-7.03-15.7-15.7-15.7-15.7 7.03-15.7 15.7 7.03 15.7 15.7 15.7h0Z" class="cls-7"/>
  <path d="M278.41 43.3c9.74 0 17.64-7.9 17.64-17.64s-7.9-17.64-17.64-17.64-17.65 7.9-17.65 17.64 7.9 17.64 17.65 17.64Z" class="cls-31"/>
  <path d="M278.41 43.3c9.74 0 17.64-7.9 17.64-17.64s-7.9-17.64-17.64-17.64-17.65 7.9-17.65 17.64 7.9 17.64 17.65 17.64h0Z" class="cls-7"/>
  <g clip-path="url(#clippath-1)">
    <path d="M142.24 176.11s24.13 5.21 40.62-5.93c16.49-11.13 26.55-22.09 27.63-45.44 1.08-23.35-4.67-39.49-19.4-67.17-14.73-27.68-39.9-59.98-56.39-80.82-16.49-20.83-29.09-38.07-33.76-35.92-4.67 2.16 1.08 9.7 9.34 22.63s27.3 39.51 27.3 39.51-7.84-6.86-17.57-16.18-15.48-14.33-17.99-10.76c-2.51 3.57 2.51 6.49 15.09 22.99 12.57 16.5 26.58 33.05 26.58 33.05s-3.95-1.08-15.45-10.06c-11.49-8.98-14.04-12.19-16.52-9.34-2.48 2.85 3.59 7.9 11.49 14.01 7.43 5.74 18.35 18.14 21.42 27.07.2.57.36 1.13.49 1.66 2.15 8.98-24.07 94.81-24.07 94.81l21.19 25.88Z" class="cls-15"/>
    <path d="M142.24 176.11s24.13 5.21 40.62-5.93c16.49-11.13 26.55-22.09 27.63-45.44 1.08-23.35-4.67-39.49-19.4-67.17-14.73-27.68-39.9-59.98-56.39-80.82-16.49-20.83-29.09-38.07-33.76-35.92-4.67 2.16 1.08 9.7 9.34 22.63s27.3 39.51 27.3 39.51-7.84-6.86-17.57-16.18-15.48-14.33-17.99-10.76c-2.51 3.57 2.51 6.49 15.09 22.99 12.57 16.5 26.58 33.05 26.58 33.05s-3.95-1.08-15.45-10.06c-11.49-8.98-14.04-12.19-16.52-9.34-2.48 2.85 3.59 7.9 11.49 14.01 7.43 5.74 18.35 18.14 21.42 27.07.2.57.36 1.13.49 1.66 2.15 8.98-24.07 94.81-24.07 94.81l21.19 25.88h0Z" class="cls-7"/>
  </g>
  <path d="M291.53 78.06c6.68 0 12.09-5.41 12.09-12.09s-5.41-12.09-12.09-12.09-12.09 5.41-12.09 12.09 5.41 12.09 12.09 12.09Z" class="cls-31"/>
  <path d="M291.53 78.06c6.68 0 12.09-5.41 12.09-12.09s-5.41-12.09-12.09-12.09-12.09 5.41-12.09 12.09 5.41 12.09 12.09 12.09h0Z" class="cls-7"/>
  <path d="M278.15 37.47c6.68 0 12.09-5.41 12.09-12.09s-5.41-12.09-12.09-12.09-12.09 5.41-12.09 12.09 5.41 12.09 12.09 12.09Z" class="cls-31"/>
  <path d="M278.15 37.47c6.68 0 12.09-5.41 12.09-12.09s-5.41-12.09-12.09-12.09-12.09 5.41-12.09 12.09 5.41 12.09 12.09 12.09h0Z" class="cls-7"/>
  <path d="M137.59 164.68c32.18 0 58.26-26.09 58.26-58.26s-26.08-58.26-58.26-58.26-58.26 26.09-58.26 58.26 26.09 58.26 58.26 58.26Z" class="cls-31"/>
  <path d="M137.59 164.68c32.18 0 58.26-26.09 58.26-58.26s-26.08-58.26-58.26-58.26-58.26 26.09-58.26 58.26 26.09 58.26 58.26 58.26h0Z" class="cls-7"/>
  <g clip-path="url(#clippath-2)">
    <path d="M109.37 161s22.9 3.16 38.61 13.04c15.71 9.88 35.17 24.24 14.37 57.47-20.8 33.22-32.78 37.26-62.41 63.31-29.63 26.04-57.77 50.7-75.13 72.72-17.36 22.02-21.4 30.1-26.34 27.86-4.94-2.25-3.89-8.44 4.04-19.58 7.93-11.13 22.99-29.07 21.19-31.25-1.8-2.17-5.39 5.39-8.26 7.9-2.87 2.51-5.39 2.51-7.18 1.08-1.8-1.44 1.05-8.62 7.9-15.09 6.85-6.47 14.37-10.06 12.57-12.93-1.8-2.87-7.18 2.87-9.34 5.03-2.16 2.15-6.11-1.44-3.23-5.39 2.87-3.95 11.55-11.14 24.81-19.4 13.26-8.26 24.39-16.14 21.88-19.4-2.51-3.25-7.9 2.16-11.49 5.03s-6.76 4.67-8.59 3.23 1.41-9.72 1.41-9.72l10.42-19.02 39.06-72.11 15.71-32.8Z" class="cls-15"/>
    <path d="M109.37 161s22.9 3.16 38.61 13.04c15.71 9.88 35.17 24.24 14.37 57.47-20.8 33.22-32.78 37.26-62.41 63.31-29.63 26.04-57.77 50.7-75.13 72.72-17.36 22.02-21.4 30.1-26.34 27.86-4.94-2.25-3.89-8.44 4.04-19.58 7.93-11.13 22.99-29.07 21.19-31.25-1.8-2.17-5.39 5.39-8.26 7.9-2.87 2.51-5.39 2.51-7.18 1.08-1.8-1.44 1.05-8.62 7.9-15.09 6.85-6.47 14.37-10.06 12.57-12.93-1.8-2.87-7.18 2.87-9.34 5.03-2.16 2.15-6.11-1.44-3.23-5.39 2.87-3.95 11.55-11.14 24.81-19.4 13.26-8.26 24.39-16.14 21.88-19.4-2.51-3.25-7.9 2.16-11.49 5.03s-6.76 4.67-8.59 3.23 1.41-9.72 1.41-9.72l10.42-19.02 39.06-72.11 15.71-32.8h0Z" class="cls-7"/>
  </g>
  <path d="M184.65 196.22s5.24-7 8.98-9.34 19.9 1.93 24.39-.74c0 0-1.47 7.2-8.44 9.18" class="cls-31"/>
  <path d="M184.65 196.22s5.24-7 8.98-9.34 19.9 1.93 24.39-.74c0 0-1.47 7.2-8.44 9.18" class="cls-7"/>
  <path d="m239.58 101.74-76.33 166.14 7.63 2.68 74.83-167.01-6.13-1.81z" class="cls-31"/>
  <path d="m239.58 101.74-76.33 166.14 7.63 2.68 74.83-167.01-6.13-1.81h0z" class="cls-7"/>
  <path d="M139.18 200.89s17.03-.4 28.56-.38c11.52.02 14.73-4.65 21.37-6.45 6.65-1.8 22.99-1.26 22.81 2.15-.18 3.41-3.41 4.13-3.41 4.13s.87 4.13-3.41 6.65c0 0 2.12 4.31-3.77 5.93 0 0 .54 5.57-7.01 5.75-7.54.18-16.88-4.83-28.74-2.51-11.85 2.31-24.42 4.85-39.51 4.85l13.11-20.11Z" class="cls-31"/>
  <path d="M139.18 200.89s17.03-.4 28.56-.38c11.52.02 14.73-4.65 21.37-6.45 6.65-1.8 22.99-1.26 22.81 2.15-.18 3.41-3.41 4.13-3.41 4.13s.87 4.13-3.41 6.65c0 0 2.12 4.31-3.77 5.93 0 0 .54 5.57-7.01 5.75-7.54.18-16.88-4.83-28.74-2.51-11.85 2.31-24.42 4.85-39.51 4.85l13.11-20.11h0Z" class="cls-7"/>
  <path d="M195.22 200s10.06-.22 13.83.52" class="cls-15"/>
  <path d="M195.22 200s10.06-.22 13.83.52" class="cls-7"/>
  <path d="M195.58 206.28s5.54-.7 9.88.36" class="cls-15"/>
  <path d="M195.58 206.28s5.54-.7 9.88.36" class="cls-7"/>
  <path d="M194.14 211.29s4.67-.34 7.9 1.28" class="cls-15"/>
  <path d="M194.14 211.29s4.67-.34 7.9 1.28" class="cls-7"/>
  <path d="M139.36 198.2s10.06.92 8.08 8.8c-1.98 7.88 1.26 19.04-26.22 32.69l18.14-41.49Z" class="cls-31"/>
  <path d="M139.36 198.2s10.06.92 8.08 8.8c-1.98 7.88 1.26 19.04-26.22 32.69l18.14-41.49h0Z" class="cls-7"/>
  <path d="M112.07 178.44s9.22 12.03 34.87 20.29c0 0-10.45 16.88-17.45 32.51-7 15.63-25.32 30.35-46.87 10.42l29.27-63.94" class="cls-31"/>
  <path d="M112.07 178.44s9.22 12.03 34.87 20.29c0 0-10.45 16.88-17.45 32.51-7 15.63-25.32 30.35-46.87 10.42l29.27-63.94" class="cls-7"/>
  <path d="M116.74 172.16s8.98-15.8 12.57-19.75c0 0 9.34 1.8 12.21-.36 2.87-2.15 5.36-3.57 10.77-5.39 5.42-1.82 12.93-11.14 14.01-16.52 1.08-5.39 1.08-7.54 3.95-11.13 2.87-3.59 4.31-8.26 3.95-15.8-.36-7.54-11.49-13.29-11.49-13.29L139 85.61l-24.39 14.35-9.37 8.64 7.9 19.4-15.45 17.6 19.04 26.58Z" class="cls-31"/>
  <path d="M116.74 172.16s8.98-15.8 12.57-19.75c0 0 9.34 1.8 12.21-.36 2.87-2.15 5.36-3.57 10.77-5.39 5.42-1.82 12.93-11.14 14.01-16.52 1.08-5.39 1.08-7.54 3.95-11.13 2.87-3.59 4.31-8.26 3.95-15.8-.36-7.54-11.49-13.29-11.49-13.29L139 85.61l-24.39 14.35-9.37 8.64 7.9 19.4-15.45 17.6 19.04 26.58h0Z" class="cls-7"/>
  <g clip-path="url(#clippath-3)">
    <path d="M77.22 136.24c7.37 7.37 12.57 9.34 19.76 10.78 7.18 1.44 13.65 6.46 17.24 12.57 3.59 6.11 9.76 26.22-1.41 48.85-11.17 22.63-35.62 49.21-56.42 66.09-20.8 16.88-29.81 19.04-51.72 40.23-21.91 21.19-27.66 27.62-31.25 33.03s-8.26 6.13-5.75-1.78c2.51-7.9 6.47-15.85 16.88-28.76 10.42-12.91 16.52-16.14 20.11-22.61 3.59-6.47.42-12.04.42-12.04s-4.34 3.83-10.09 8.14c-5.75 4.31-11.88-.8-3.26-9.4 8.62-8.6 39.51-34.5 44.18-39.51 4.67-5.01.06-6.44-3.92-2.85-3.98 3.59-12.24 10.78-20.14 16.16-7.9 5.39-16.16 1.08-8.26-6.46s29.45-23.71 33.4-28.02c3.95-4.31 1.86-7.9-3.2-4.31-5.06 3.59-10.45 7.14-13.68 9.32-3.23 2.17-8.62-1.06-3.23-6.45 5.39-5.39 21.55-18.32 30.53-26.22 8.98-7.9 10.42-15.45 2.16-9.7s-15.8 11.13-18.32 7.54c-2.51-3.59 1.44-6.11 8.98-12.93 7.54-6.83 11.85-9.72 17.6-15.11 5.75-5.39 5.03-8.96-3.59-14.35-8.62-5.39-11.49-8.98-18.32-17.6-6.82-8.62-16.52-23.75-14.01-27.32 2.51-3.57 7.9 4.33 13.29 11.15 5.39 6.82 12.57 13.65 12.57 13.65s-8.98-17.24-13.65-30.53c-4.67-13.29-14.01-40.23-11.49-44.9s16.16 19.4 16.16 19.4-2.9-16.16-5.75-29.45c-2.84-13.29-6.82-27.66-3.59-31.97 3.23-4.31 3.95 1.06 5.39 6.45 1.44 5.39 8.26 26.24 8.26 26.24s3.59-14.73.36-30.17c-3.23-15.45-6.85-29.43-6.47-40.59.39-11.15 3.65-10.42 5.78-8.98 2.13 1.44 2.13 10.78 4.28 22.27C49.21-2.41 52.8 4.78 52.8 4.78s-.03-9.74-1.44-23.37-.72-28.71 1.8-36.26c2.51-7.54 7.18-10.78 6.82-3.23-.36 7.54-1.44 23.35 1.8 38.79 3.23 15.45 5.81 25.14 9.73 42.74 3.92 17.6 11.1 34.84 5.36 55.31-5.75 20.47-11.13 22.63-11.49 31.97-.36 9.34 3.95 17.6 11.85 25.5Z" class="cls-15"/>
    <path d="M77.22 136.24c7.37 7.37 12.57 9.34 19.76 10.78 7.18 1.44 13.65 6.46 17.24 12.57 3.59 6.11 9.76 26.22-1.41 48.85-11.17 22.63-35.62 49.21-56.42 66.09-20.8 16.88-29.81 19.04-51.72 40.23-21.91 21.19-27.66 27.62-31.25 33.03s-8.26 6.13-5.75-1.78c2.51-7.9 6.47-15.85 16.88-28.76 10.42-12.91 16.52-16.14 20.11-22.61 3.59-6.47.42-12.04.42-12.04s-4.34 3.83-10.09 8.14c-5.75 4.31-11.88-.8-3.26-9.4 8.62-8.6 39.51-34.5 44.18-39.51 4.67-5.01.06-6.44-3.92-2.85-3.98 3.59-12.24 10.78-20.14 16.16-7.9 5.39-16.16 1.08-8.26-6.46s29.45-23.71 33.4-28.02c3.95-4.31 1.86-7.9-3.2-4.31-5.06 3.59-10.45 7.14-13.68 9.32-3.23 2.17-8.62-1.06-3.23-6.45 5.39-5.39 21.55-18.32 30.53-26.22 8.98-7.9 10.42-15.45 2.16-9.7s-15.8 11.13-18.32 7.54c-2.51-3.59 1.44-6.11 8.98-12.93 7.54-6.83 11.85-9.72 17.6-15.11 5.75-5.39 5.03-8.96-3.59-14.35-8.62-5.39-11.49-8.98-18.32-17.6-6.82-8.62-16.52-23.75-14.01-27.32 2.51-3.57 7.9 4.33 13.29 11.15 5.39 6.82 12.57 13.65 12.57 13.65s-8.98-17.24-13.65-30.53c-4.67-13.29-14.01-40.23-11.49-44.9s16.16 19.4 16.16 19.4-2.9-16.16-5.75-29.45c-2.84-13.29-6.82-27.66-3.59-31.97 3.23-4.31 3.95 1.06 5.39 6.45 1.44 5.39 8.26 26.24 8.26 26.24s3.59-14.73.36-30.17c-3.23-15.45-6.85-29.43-6.47-40.59.39-11.15 3.65-10.42 5.78-8.98 2.13 1.44 2.13 10.78 4.28 22.27C49.21-2.41 52.8 4.78 52.8 4.78s-.03-9.74-1.44-23.37-.72-28.71 1.8-36.26c2.51-7.54 7.18-10.78 6.82-3.23-.36 7.54-1.44 23.35 1.8 38.79 3.23 15.45 5.81 25.14 9.73 42.74 3.92 17.6 11.1 34.84 5.36 55.31-5.75 20.47-11.13 22.63-11.49 31.97-.36 9.34 3.95 17.6 11.85 25.5h0Z" class="cls-7"/>
  </g>
  <path d="M85.13 138.22c-.36-4.15 2.69-6.15 5.93-5.95 0 0 2.39-4.99 7.39-6.09 5-1.1 7.51-1.44 7.51-1.44s-7-5.57-5.57-12.03c0 0-3.77-1.98-1.62-8.08 2.16-6.11 3.23-10.78 6.82-11.85 3.59-1.08 7.21.72 7.21.72s-1.83-4.31 1.41-8.26c3.23-3.95 3.56-8.98 10.06-12.57s16.58-6.82 26.25-5.75c9.67 1.08 19.01 6.78 24.4 11.47 5.39 4.69 5.03 11.51 5.03 11.51s1.44 1.1 1.8 8.26c.36 7.16.72 17.24-1.44 20.47s-5.75 2.51-5.75 2.51 2.15 7.18-2.15 10.78c-4.31 3.59-7.9 2.14-7.9 2.14s2.12-5.01 2.15-10.04c.03-5.03 5.21-6.11 6.29-9.7 1.08-3.59-.57-6.11-7-9.7-6.44-3.59-14.37-7.9-17.24-11.49-2.87-3.59-5.33-3.63-8.95-.38-3.62 3.25-6.14 5.77-9.73 7.56-3.59 1.8-7.54 3.55-6.83 6.8.72 3.25-2.33-2.39-6.06-1.3-2.44.71-4.61 3.15-4.97 8.54-.36 5.39 3.84 5.35 3.84 5.35s.36 5.03-1.08 8.98-2.51 8.98-6.46 11.13c-3.95 2.16-5.03 3.91-6.47 6.8-1.44 2.89-3.95 4.33-6.82 2.53-2.87-1.8-4.67 1.06-8.26-2.53s-1.8-8.42-1.8-8.42Z" class="cls-15"/>
  <path d="M85.13 138.22c-.36-4.15 2.69-6.15 5.93-5.95 0 0 2.39-4.99 7.39-6.09 5-1.1 7.51-1.44 7.51-1.44s-7-5.57-5.57-12.03c0 0-3.77-1.98-1.62-8.08 2.16-6.11 3.23-10.78 6.82-11.85 3.59-1.08 7.21.72 7.21.72s-1.83-4.31 1.41-8.26c3.23-3.95 3.56-8.98 10.06-12.57s16.58-6.82 26.25-5.75c9.67 1.08 19.01 6.78 24.4 11.47 5.39 4.69 5.03 11.51 5.03 11.51s1.44 1.1 1.8 8.26c.36 7.16.72 17.24-1.44 20.47s-5.75 2.51-5.75 2.51 2.15 7.18-2.15 10.78c-4.31 3.59-7.9 2.14-7.9 2.14s2.12-5.01 2.15-10.04c.03-5.03 5.21-6.11 6.29-9.7 1.08-3.59-.57-6.11-7-9.7-6.44-3.59-14.37-7.9-17.24-11.49-2.87-3.59-5.33-3.63-8.95-.38-3.62 3.25-6.14 5.77-9.73 7.56-3.59 1.8-7.54 3.55-6.83 6.8.72 3.25-2.33-2.39-6.06-1.3-2.44.71-4.61 3.15-4.97 8.54-.36 5.39 3.84 5.35 3.84 5.35s.36 5.03-1.08 8.98-2.51 8.98-6.46 11.13c-3.95 2.16-5.03 3.91-6.47 6.8-1.44 2.89-3.95 4.33-6.82 2.53-2.87-1.8-4.67 1.06-8.26-2.53s-1.8-8.42-1.8-8.42h0Zm52.44-35.02s6.11-2.52 10.06-.72 6.83 6.11 6.83 6.11m-14.2 17.59s.72 2.15 2.87 2.15 1.8 2.47 3.41 3.93c1.62 1.46 4.67 1.46 6.47-1.24 1.8-2.69 1.8-6.29 3.41-9.16 1.62-2.87 6.82-8.26 6.82-8.26s5.39 1.62 7.54 3.95m-27.14-9.78s-1.59 4.4.93 5.66c2.51 1.26 4.85-3.05 4.85-3.05m-16.52 24.06 7.54.54s1.26 3.95 7.54 5.21" class="cls-7"/>
  <path d="M138.29 140.01s.36 2.69 3.41 2.69" class="cls-15"/>
  <path d="M138.29 140.01s.36 2.69 3.41 2.69m-5.13-34.31s8.42-3.04 13.96 2.71m-12.6-1.98s1.44 6.64 9.52 7.18m11.49 2.7s6.29-1.08 7.36 4.85m-8.73-3.21s1.86 7.61 8.07 6.52" class="cls-7"/>
  <g clip-path="url(#clippath-4)">
    <path d="M4.34 283.29s44.09-32.85 59.57-56.56" class="cls-15"/>
    <path d="M4.34 283.29s44.09-32.85 59.57-56.56" class="cls-7"/>
  </g>
  <path d="M2.15 297.87s19.4-16.16 41.31-43.82" class="cls-15"/>
  <g clip-path="url(#clippath-5)">
    <path d="M2.15 297.87s19.4-16.16 41.31-43.82" class="cls-7"/>
  </g>
  <path d="M35.92 241.82s18.74-16.67 26.28-25.65" class="cls-15"/>
  <path d="M35.92 241.82s18.74-16.67 26.28-25.65" class="cls-7"/>
  <path d="M32.09 238.83s21.42-18.54 26.45-22.85" class="cls-15"/>
  <path d="M32.09 238.83s21.42-18.54 26.45-22.85" class="cls-7"/>
  <path d="M35.66 222.22s19.94-15.52 28.56-29.88" class="cls-15"/>
  <path d="M35.66 222.22s19.94-15.52 28.56-29.88" class="cls-7"/>
  <path d="M33.65 216.48s16.28-12.76 24.9-21.36" class="cls-15"/>
  <path d="M33.65 216.48s16.28-12.76 24.9-21.36" class="cls-7"/>
  <path d="M48.85 191.91s15.5-12.93 24.45-30.53" class="cls-15"/>
  <path d="M48.85 191.91s15.5-12.93 24.45-30.53" class="cls-7"/>
  <path d="M48.54 184.05s11.82-8.5 20.8-22.5" class="cls-15"/>
  <path d="M48.54 184.05s11.82-8.5 20.8-22.5" class="cls-7"/>
  <path d="M51.75 1.9s2.45 9.72 5.72 16.16" class="cls-15"/>
  <g clip-path="url(#clippath-6)">
    <path d="M51.75 1.9s2.45 9.72 5.72 16.16M46.33 301.83s17.99-7.16 28.76-21.91" class="cls-7"/>
  </g>
  <path d="M57.47 286.38s12.57-9.7 25.86-15.8" class="cls-15"/>
  <path d="M57.47 286.38s12.57-9.7 25.86-15.8" class="cls-7"/>
  <path d="M26.22 324.81s11.85-11.49 19.76-16.16" class="cls-15"/>
  <path d="M26.22 324.81s11.85-11.49 19.76-16.16m-26.94 26.94s30.95-17.22 45.29-36.64" class="cls-7"/>
  <path d="M21.22 344.57s16.13-6.83 22.96-22.27" class="cls-15"/>
  <path d="M21.22 344.57s16.13-6.83 22.96-22.27" class="cls-7"/>
  <path d="M8.62 367.54s35.92-42.36 71.12-70.02" class="cls-15"/>
  <path d="M8.62 367.54s35.92-42.36 71.12-70.02" class="cls-7"/>
  <path d="M51 112.17s-9.37-16.56-15.09-33.78c-5.72-17.22-8.62-22.97-8.62-22.97" class="cls-15"/>
  <path d="M51 112.17s-9.37-16.56-15.09-33.78c-5.72-17.22-8.62-22.97-8.62-22.97" class="cls-7"/>
  <path d="M47.02 55.77s-3.27-8.42-5.36-16.53" class="cls-15"/>
  <g clip-path="url(#clippath-7)">
    <path d="M47.02 55.77s-3.27-8.42-5.36-16.53m8.4 12.09s1.33-17.1-1.66-27.83C45.42 12.77 38.79-6 38.79-6" class="cls-7"/>
    <path d="M149.06 19.5S133.97 1.86 121.4-11.41" class="cls-15"/>
    <path d="M149.06 19.5S133.97 1.86 121.4-11.41" class="cls-7"/>
  </g>
  <path d="M71.48 227.11s14.19-1.8 16.16 4.13l-2.16-2.15s-4.34 5.93-8.26 4.31-1.8-5.75-1.8-5.75" class="cls-31"/>
  <path d="M71.48 227.11s14.19-1.8 16.16 4.13l-2.16-2.15s-4.34 5.93-8.26 4.31-1.8-5.75-1.8-5.75" class="cls-7"/>
  <path d="M79.02 222.98s12.39-2.67 12.39 5.39" class="cls-15"/>
  <path d="M79.02 222.98s12.39-2.67 12.39 5.39" class="cls-7"/>
  <path d="M70.58 232.5s3.77 11.49 12.75 6.47" class="cls-15"/>
  <path d="M70.58 232.5s3.77 11.49 12.75 6.47" class="cls-7"/>
  <path d="M66.57 195.91s10.24-3.95 14.37 4.67l-1.8-2.15s-2.33 4.67-7.36 3.05-3.41-5.57-3.41-5.57" class="cls-31"/>
  <path d="M66.57 195.91s10.24-3.95 14.37 4.67l-1.8-2.15s-2.33 4.67-7.36 3.05-3.41-5.57-3.41-5.57" class="cls-7"/>
  <path d="M87.77 278.06s7.47-8.04 14.96-2.1l-2.56-1.15s-.05 5.22-5.28 5.97-5.51-3.51-5.51-3.51" class="cls-31"/>
  <path d="M87.77 278.06s7.47-8.04 14.96-2.1l-2.56-1.15s-.05 5.22-5.28 5.97-5.51-3.51-5.51-3.51" class="cls-8"/>
  <path d="M71.78 191.24s11.67-1.8 13.29 5.39" class="cls-15"/>
  <path d="M71.78 191.24s11.67-1.8 13.29 5.39" class="cls-7"/>
  <path d="M90.41 271.58s9.71-6.73 14.31-.98" class="cls-15"/>
  <path d="M90.41 271.58s9.71-6.73 14.31-.98" class="cls-8"/>
  <path d="M65.31 199.68s.36 7.54 5.93 10.42" class="cls-15"/>
  <path d="M65.31 199.68s.36 7.54 5.93 10.42" class="cls-7"/>
  <path d="M88.3 282s3.63 6.62 9.89 6.76" class="cls-15"/>
  <path d="M88.3 282s3.63 6.62 9.89 6.76" class="cls-8"/>
  <path d="M92.57 181.04s14.88-6.29 16.85 2.87" class="cls-15"/>
  <path d="M92.57 181.04s14.88-6.29 16.85 2.87" class="cls-7"/>
  <path d="M167.16 159.53s12.02-6.64 14.5.93" class="cls-15"/>
  <path d="M167.16 159.53s12.02-6.64 14.5.93" class="cls-9"/>
  <path d="M93.33 186.27s2.87 11.15 11.49 7.72" class="cls-15"/>
  <path d="M93.33 186.27s2.87 11.15 11.49 7.72" class="cls-7"/>
  <path d="M168.27 163.88s3.42 9.17 10.4 5.51" class="cls-15"/>
  <path d="M168.27 163.88s3.42 9.17 10.4 5.51" class="cls-9"/>
  <path d="M128.98 179.88s12.57-4.11 16.16 1.98" class="cls-15"/>
  <path d="M128.98 179.88s12.57-4.11 16.16 1.98" class="cls-7"/>
  <path d="M80.79 157.94s12.57-4.11 16.16 1.97" class="cls-15"/>
  <path d="M80.79 157.94s12.57-4.11 16.16 1.97" class="cls-7"/>
  <path d="M127.15 184.55s12.21-5.75 15.8.72c0 0-2.69 3.77-6.11 3.77s-5.57-5.75-5.57-5.75" class="cls-31"/>
  <path d="M127.15 184.55s12.21-5.75 15.8.72c0 0-2.69 3.77-6.11 3.77s-5.57-5.75-5.57-5.75" class="cls-7"/>
  <path d="M78.96 162.61s12.21-5.75 15.8.72c0 0-2.69 3.77-6.11 3.77s-5.57-5.75-5.57-5.75" class="cls-31"/>
  <path d="M78.96 162.61s12.21-5.75 15.8.72c0 0-2.69 3.77-6.11 3.77s-5.57-5.75-5.57-5.75" class="cls-7"/>
  <path d="M92.61 184.83s11.73-4.67 14.94 1.44c0 0-4.16 3.41-7.93 1.8-3.77-1.62-3.59-3.95-3.59-3.95" class="cls-31"/>
  <path d="M92.61 184.83s11.73-4.67 14.94 1.44c0 0-4.16 3.41-7.93 1.8-3.77-1.62-3.59-3.95-3.59-3.95" class="cls-7"/>
  <path d="M167.53 162.73s9.5-4.99 12.75-.11c0 0-3.21 3.25-6.55 2.22-3.33-1.03-3.39-3.02-3.39-3.02" class="cls-31"/>
  <path d="M167.53 162.73s9.5-4.99 12.75-.11c0 0-3.21 3.25-6.55 2.22-3.33-1.03-3.39-3.02-3.39-3.02" class="cls-9"/>
  <path d="M117.09 252.98s9.7-4.31 10.78 3.23" class="cls-15"/>
  <path d="M117.09 252.98s9.7-4.31 10.78 3.23" class="cls-7"/>
  <path d="M55.31 250.82s9.7-5.03 11.85 1.44c0 0-1.98 1.8-5.75.9s-4.85-2.51-4.85-2.51" class="cls-31"/>
  <path d="M55.31 250.82s9.7-5.03 11.85 1.44c0 0-1.98 1.8-5.75.9s-4.85-2.51-4.85-2.51" class="cls-7"/>
  <path d="M58.94 245.79s10.75-1.44 11.82 3.23" class="cls-15"/>
  <path d="M58.94 245.79s10.75-1.44 11.82 3.23" class="cls-7"/>
  <path d="M188.93 136.24s8.98-10.78 14.73-5.75" class="cls-15"/>
  <path d="M188.93 136.24s8.98-10.78 14.73-5.75" class="cls-7"/>
  <path d="M237.9 47.62c6.68 0 12.09-5.41 12.09-12.09s-5.41-12.09-12.09-12.09-12.09 5.41-12.09 12.09 5.41 12.09 12.09 12.09Z" class="cls-31"/>
  <path d="M237.9 47.62c6.68 0 12.09-5.41 12.09-12.09s-5.41-12.09-12.09-12.09-12.09 5.41-12.09 12.09 5.41 12.09 12.09 12.09h0Z" class="cls-7"/>
  <path d="M45.62 64.04s6.82-7.18 11.13-2.51c0 0-1.08 4.49-4.49 4.49s-3.59-3.41-3.59-3.41" class="cls-31"/>
  <path d="M45.62 64.04s6.82-7.18 11.13-2.51c0 0-1.08 4.49-4.49 4.49s-3.59-3.41-3.59-3.41m-2.7-2.88s9.67-6.47 14.01 0" class="cls-7"/>
  <path d="M64.65 62.97s5.75-4.31 7.9-.36c0 0-.72 2.87-3.23 2.87s-2.16-3.23-2.16-3.23" class="cls-31"/>
  <path d="M64.65 62.97s5.75-4.31 7.9-.36c0 0-.72 2.87-3.23 2.87s-2.16-3.23-2.16-3.23" class="cls-7"/>
  <path d="M167.79 50.38s5.75-4.31 7.9-.36c0 0-.72 2.87-3.23 2.87s-2.15-3.23-2.15-3.23" class="cls-31"/>
  <path d="M167.79 50.38s5.75-4.31 7.9-.36c0 0-.72 2.87-3.23 2.87s-2.15-3.23-2.15-3.23" class="cls-7"/>
  <path d="M64.29 58.64s7.54-3.61 10.06 0" class="cls-15"/>
  <path d="M64.29 58.64s7.54-3.61 10.06 0" class="cls-7"/>
  <path d="M167.43 46.05s7.54-3.61 10.06 0" class="cls-15"/>
  <path d="M167.43 46.05s7.54-3.61 10.06 0" class="cls-7"/>
  <path d="M56.03 35.67s8.98-5.43 12.93-.38" class="cls-15"/>
  <path d="M56.03 35.67s8.98-5.43 12.93-.38" class="cls-7"/>
  <path d="M54.95 42.13s9.34-8.26 13.65-2.51c0 0-1.26 5.93-5.57 6.11-4.31.18-4.31-4.67-4.31-4.67" class="cls-31"/>
  <path d="M54.95 42.13s9.34-8.26 13.65-2.51c0 0-1.26 5.93-5.57 6.11-4.31.18-4.31-4.67-4.31-4.67" class="cls-7"/>
  <path d="M48.03 83.07s12.21-7.54 15.44-2.51" class="cls-15"/>
  <path d="M48.03 83.07s12.21-7.54 15.44-2.51" class="cls-7"/>
  <path d="M151.39 28.51s12.21-7.54 15.44-2.51" class="cls-15"/>
  <path d="M151.39 28.51s12.21-7.54 15.44-2.51" class="cls-7"/>
  <path d="M50.06 87.45s9.7-7.94 12.93-2.53l-2.33-1.42s-.36 6.11-3.05 6.11-4.31-3.23-4.31-3.23" class="cls-31"/>
  <path d="M50.06 87.45s9.7-7.94 12.93-2.53l-2.33-1.42s-.36 6.11-3.05 6.11-4.31-3.23-4.31-3.23" class="cls-7"/>
  <path d="M153.42 32.89s9.7-7.94 12.93-2.53l-2.33-1.42s-.36 6.11-3.05 6.11-4.31-3.23-4.31-3.23" class="cls-31"/>
  <path d="M153.42 32.89s9.7-7.94 12.93-2.53l-2.33-1.42s-.36 6.11-3.05 6.11-4.31-3.23-4.31-3.23" class="cls-7"/>
  <path d="M50.79 127.77s6.79-8.26 11.82-3.59" class="cls-15"/>
  <path d="M50.79 127.77s6.79-8.26 11.82-3.59" class="cls-7"/>
  <path d="M137.08 238.81s6.79-8.26 11.82-3.59" class="cls-15"/>
  <path d="M137.08 238.81s6.79-8.26 11.82-3.59" class="cls-7"/>
  <path d="M51.12 131.7s7.24-8.96 12.24-3.21l-2.19-1.26s0 6.65-3.41 6.47c-3.41-.18-3.77-3.79-3.77-3.79" class="cls-31"/>
  <path d="M51.12 131.7s7.24-8.96 12.24-3.21l-2.19-1.26s0 6.65-3.41 6.47c-3.41-.18-3.77-3.79-3.77-3.79" class="cls-7"/>
  <path d="M137.4 242.74s7.24-8.96 12.24-3.21l-2.19-1.26s0 6.65-3.41 6.47c-3.41-.18-3.77-3.79-3.77-3.79" class="cls-31"/>
  <path d="M137.4 242.74s7.24-8.96 12.24-3.21l-2.19-1.26s0 6.65-3.41 6.47c-3.41-.18-3.77-3.79-3.77-3.79" class="cls-7"/>
  <path d="M237.69 42.74c3.87 0 7-3.13 7-7s-3.13-7-7-7-7 3.13-7 7 3.13 7 7 7Z" class="cls-31"/>
  <path d="M237.69 42.74c3.87 0 7-3.13 7-7s-3.13-7-7-7-7 3.13-7 7 3.13 7 7 7h0Z" class="cls-7"/>
  <path d="M238.86 87.39s-2.15 8.26-2.15 18.68l6.82 2.51s9.34-4.71 13.29-14.03l-17.96-7.16Z" class="cls-31"/>
  <path d="M238.86 87.39s-2.15 8.26-2.15 18.68l6.82 2.51s9.34-4.71 13.29-14.03l-17.96-7.16h0Z" class="cls-7"/>
  <path d="M253.13 97.32c9.48 0 17.16-7.68 17.16-17.16S262.61 63 253.13 63s-17.16 7.68-17.16 17.16 7.68 17.16 17.16 17.16Z" class="cls-31"/>
  <path d="M253.13 97.32c9.48 0 17.16-7.68 17.16-17.16S262.61 63 253.13 63s-17.16 7.68-17.16 17.16 7.68 17.16 17.16 17.16h0Z" class="cls-7"/>
  <path d="M265.97 87.31c18.78 0 34.01-15.23 34.01-34.01s-15.22-34.01-34.01-34.01-34.01 15.23-34.01 34.01 15.22 34.01 34.01 34.01Z" class="cls-31"/>
  <path d="M265.97 87.31c18.78 0 34.01-15.23 34.01-34.01s-15.22-34.01-34.01-34.01-34.01 15.23-34.01 34.01 15.22 34.01 34.01 34.01h0Z" class="cls-7"/>
  <path d="M266.18 77.06c13.35 0 24.17-10.82 24.17-24.17s-10.82-24.17-24.17-24.17-24.17 10.82-24.17 24.17 10.82 24.17 24.17 24.17Z" class="cls-31"/>
  <path d="M266.18 77.06c13.35 0 24.17-10.82 24.17-24.17s-10.82-24.17-24.17-24.17-24.17 10.82-24.17 24.17 10.82 24.17 24.17 24.17h0Z" class="cls-7"/>
  <path d="M163.61 268.24s-1.8 2.65-1.08 5.91c0 0-1.65 4.51.36 5.41 2.01.9 4.49-3.61 4.49-3.61s1.98-1.24 3.23-5.37" class="cls-15"/>
  <path d="M163.61 268.24s-1.8 2.65-1.08 5.91c0 0-1.65 4.51.36 5.41 2.01.9 4.49-3.61 4.49-3.61s1.98-1.24 3.23-5.37m-7.51 3.95 3.74 1.8" class="cls-7"/>
  <path d="M191.98 139.1s6.64-6.83 10.78-4.31c0 0-1.11 5.93-4.85 6.29-3.74.36-3.74-3.43-3.74-3.43" class="cls-31"/>
  <path d="M191.98 139.1s6.64-6.83 10.78-4.31c0 0-1.11 5.93-4.85 6.29-3.74.36-3.74-3.43-3.74-3.43m-31.03-17.17s-1.8 3.23-.54 4.13c1.26.9 3.41-2.33 3.41-2.33m92.25-92 15.09 45.98m-30.18-15.83 46.33-14.37" class="cls-7"/>
  <path d="m249.81 64.02 12.4-3.21 5.02 11.85" class="cls-31"/>
  <path d="m249.81 64.02 12.4-3.21 5.02 11.85" class="cls-7"/>
  <path d="m277.47 68.89-4.67-10.95 10.6-3.95" class="cls-31"/>
  <path d="m277.47 68.89-4.67-10.95 10.6-3.95" class="cls-7"/>
  <path d="m266.34 34.23 3.23 11.14 11.13-2.7" class="cls-31"/>
  <path d="m266.34 34.23 3.23 11.14 11.13-2.7" class="cls-7"/>
  <path d="m253.94 38.72 4.49 10.6-12.57 3.41" class="cls-31"/>
  <path d="m253.94 38.72 4.49 10.6-12.57 3.41m-5.18 24.54s-.78 8.69 6.83 12.26c7.6 3.57 15.08-2.48 15.08-2.48" class="cls-7"/>
  <path d="M112.64 87.82s-1.24 5.59 1.86 7.45c3.1 1.86 6.8 1.24 9.93-1.55" class="cls-15"/>
  <path d="M112.64 87.82s-1.24 5.59 1.86 7.45c3.1 1.86 6.8 1.24 9.93-1.55" class="cls-7"/>
  <path d="M98.36 110.79s2.46 3.81 6.52 1.55 5.28-5.9 5.28-5.9" class="cls-15"/>
  <path d="M98.36 110.79s2.46 3.81 6.52 1.55 5.28-5.9 5.28-5.9" class="cls-7"/>
  <path d="M132.82 84.41s1.86-9 10.86-8.38" class="cls-15"/>
  <path d="M132.82 84.41s1.86-9 10.86-8.38" class="cls-7"/>
  <path d="M94.33 134.69s-2.2 5.98 3.1 7.76c5.3 1.78 9.96-2.48 9.96-2.48" class="cls-15"/>
  <path d="M94.33 134.69s-2.2 5.98 3.1 7.76c5.3 1.78 9.96-2.48 9.96-2.48" class="cls-7"/>
  <path d="M172.24 85.03s6.49 1.09 8.85 6.98" class="cls-15"/>
  <path d="M172.24 85.03s6.49 1.09 8.85 6.98" class="cls-7"/>
  <path d="M171.93 115.91s-.73 5.12 3.75 5.28" class="cls-15"/>
  <path d="M171.93 115.91s-.73 5.12 3.75 5.28m-39.06 79s-15.78 40.35-45.01 40.35m34.53-33.37s-14.1 27.55-29.62 25.99" class="cls-7"/>
  <path d="M465.38 83.94c-8.67 0-15.7-7.03-15.7-15.7s7.03-15.7 15.7-15.7 15.7 7.03 15.7 15.7-7.03 15.7-15.7 15.7Z" class="cls-31"/>
  <path d="M465.38 83.94c-8.67 0-15.7-7.03-15.7-15.7s7.03-15.7 15.7-15.7 15.7 7.03 15.7 15.7-7.03 15.7-15.7 15.7h0Z" class="cls-7"/>
  <path d="M479.56 44.4c-9.75 0-17.65-7.9-17.65-17.64s7.9-17.64 17.65-17.64 17.64 7.9 17.64 17.64-7.9 17.64-17.64 17.64Z" class="cls-31"/>
  <g clip-path="url(#clippath-8)">
    <path d="M479.56 44.4c-9.75 0-17.65-7.9-17.65-17.64s7.9-17.64 17.65-17.64 17.64 7.9 17.64 17.64-7.9 17.64-17.64 17.64h0Z" class="cls-7"/>
    <path d="M615.74 177.22s-24.13 5.21-40.62-5.93-26.55-22.09-27.63-45.44c-1.08-23.35 4.67-39.49 19.4-67.17C581.62 31 606.79-1.3 623.28-22.14c16.49-20.83 29.09-38.07 33.76-35.92 4.67 2.16-1.08 9.7-9.34 22.63S620.4 4.08 620.4 4.08s7.84-6.86 17.57-16.18 15.48-14.33 17.99-10.76c2.51 3.57-2.51 6.49-15.09 22.99-12.57 16.5-26.58 33.05-26.58 33.05s3.95-1.08 15.45-10.06c11.49-8.98 14.04-12.19 16.52-9.34 2.48 2.85-3.59 7.9-11.49 14.01-7.43 5.74-18.35 18.14-21.42 27.07-.2.57-.36 1.13-.49 1.66-2.16 8.98 24.07 94.81 24.07 94.81l-21.19 25.88Z" class="cls-15"/>
    <path d="M615.74 177.22s-24.13 5.21-40.62-5.93-26.55-22.09-27.63-45.44c-1.08-23.35 4.67-39.49 19.4-67.17C581.62 31 606.79-1.3 623.28-22.14c16.49-20.83 29.09-38.07 33.76-35.92 4.67 2.16-1.08 9.7-9.34 22.63S620.4 4.08 620.4 4.08s7.84-6.86 17.57-16.18 15.48-14.33 17.99-10.76c2.51 3.57-2.51 6.49-15.09 22.99-12.57 16.5-26.58 33.05-26.58 33.05s3.95-1.08 15.45-10.06c11.49-8.98 14.04-12.19 16.52-9.34 2.48 2.85-3.59 7.9-11.49 14.01-7.43 5.74-18.35 18.14-21.42 27.07-.2.57-.36 1.13-.49 1.66-2.16 8.98 24.07 94.81 24.07 94.81l-21.19 25.88h0Z" class="cls-7"/>
  </g>
  <path d="M466.44 79.17c-6.68 0-12.09-5.41-12.09-12.09s5.41-12.09 12.09-12.09 12.09 5.41 12.09 12.09-5.41 12.09-12.09 12.09Z" class="cls-31"/>
  <path d="M466.44 79.17c-6.68 0-12.09-5.41-12.09-12.09s5.41-12.09 12.09-12.09 12.09 5.41 12.09 12.09-5.41 12.09-12.09 12.09h0Z" class="cls-7"/>
  <path d="M479.83 38.58c-6.68 0-12.09-5.41-12.09-12.09s5.41-12.09 12.09-12.09 12.09 5.41 12.09 12.09-5.41 12.09-12.09 12.09Z" class="cls-31"/>
  <path d="M479.83 38.58c-6.68 0-12.09-5.41-12.09-12.09s5.41-12.09 12.09-12.09 12.09 5.41 12.09 12.09-5.41 12.09-12.09 12.09h0Z" class="cls-7"/>
  <path d="M620.39 165.79c-32.18 0-58.26-26.09-58.26-58.26s26.08-58.26 58.26-58.26 58.26 26.09 58.26 58.26-26.09 58.26-58.26 58.26Z" class="cls-31"/>
  <g clip-path="url(#clippath-9)">
    <path d="M620.39 165.79c-32.18 0-58.26-26.09-58.26-58.26s26.08-58.26 58.26-58.26 58.26 26.09 58.26 58.26-26.09 58.26-58.26 58.26h0Z" class="cls-7"/>
    <path d="M648.6 162.11s-22.9 3.16-38.61 13.04c-15.72 9.88-35.17 24.24-14.37 57.47 20.8 33.23 32.78 37.27 62.41 63.31 29.63 26.04 57.77 50.69 75.13 72.71 17.36 22.02 21.4 30.1 26.34 27.86 4.94-2.24 3.89-8.44-4.04-19.57s-22.99-29.07-21.19-31.25c1.8-2.17 5.39 5.39 8.26 7.9 2.87 2.52 5.39 2.52 7.18 1.08s-1.05-8.62-7.9-15.09c-6.85-6.46-14.37-10.06-12.57-12.93 1.8-2.87 7.18 2.87 9.34 5.03 2.16 2.15 6.11-1.44 3.23-5.39-2.87-3.95-11.55-11.13-24.81-19.4-13.26-8.26-24.4-16.14-21.88-19.4 2.51-3.25 7.9 2.15 11.49 5.03 3.59 2.87 6.76 4.67 8.59 3.23s-1.41-9.72-1.41-9.72L703.37 267l-39.06-72.11-15.71-32.8Z" class="cls-15"/>
    <path d="M648.6 162.11s-22.9 3.16-38.61 13.04c-15.72 9.88-35.17 24.24-14.37 57.47 20.8 33.23 32.78 37.27 62.41 63.31 29.63 26.04 57.77 50.69 75.13 72.71 17.36 22.02 21.4 30.1 26.34 27.86 4.94-2.24 3.89-8.44-4.04-19.57s-22.99-29.07-21.19-31.25c1.8-2.17 5.39 5.39 8.26 7.9 2.87 2.52 5.39 2.52 7.18 1.08s-1.05-8.62-7.9-15.09c-6.85-6.46-14.37-10.06-12.57-12.93 1.8-2.87 7.18 2.87 9.34 5.03 2.16 2.15 6.11-1.44 3.23-5.39-2.87-3.95-11.55-11.13-24.81-19.4-13.26-8.26-24.4-16.14-21.88-19.4 2.51-3.25 7.9 2.15 11.49 5.03 3.59 2.87 6.76 4.67 8.59 3.23s-1.41-9.72-1.41-9.72L703.37 267l-39.06-72.11-15.71-32.8h0Z" class="cls-7"/>
  </g>
  <path d="M573.32 197.33s-5.24-7-8.98-9.34-19.9 1.94-24.4-.74c0 0 1.47 7.2 8.44 9.18" class="cls-31"/>
  <path d="M573.32 197.33s-5.24-7-8.98-9.34-19.9 1.94-24.4-.74c0 0 1.47 7.2 8.44 9.18" class="cls-7"/>
  <path d="m518.4 102.84 76.32 166.15-7.63 2.67-74.83-167 6.14-1.82z" class="cls-31"/>
  <path d="m518.4 102.84 76.32 166.15-7.63 2.67-74.83-167 6.14-1.82h0z" class="cls-7"/>
  <path d="M618.79 202s-17.03-.4-28.56-.38c-11.52.02-14.73-4.65-21.37-6.45-6.65-1.8-22.99-1.26-22.81 2.16.18 3.41 3.41 4.13 3.41 4.13s-.87 4.13 3.41 6.65c0 0-2.12 4.31 3.77 5.93 0 0-.54 5.57 7 5.75 7.54.18 16.88-4.83 28.73-2.51 11.85 2.31 24.43 4.85 39.51 4.85l-13.11-20.12Z" class="cls-31"/>
  <path d="M618.79 202s-17.03-.4-28.56-.38c-11.52.02-14.73-4.65-21.37-6.45-6.65-1.8-22.99-1.26-22.81 2.16.18 3.41 3.41 4.13 3.41 4.13s-.87 4.13 3.41 6.65c0 0-2.12 4.31 3.77 5.93 0 0-.54 5.57 7 5.75 7.54.18 16.88-4.83 28.73-2.51 11.85 2.31 24.43 4.85 39.51 4.85l-13.11-20.12h0Z" class="cls-7"/>
  <path d="M562.76 201.1s-10.06-.22-13.83.52" class="cls-15"/>
  <path d="M562.76 201.1s-10.06-.22-13.83.52" class="cls-7"/>
  <path d="M562.4 207.39s-5.54-.7-9.88.36" class="cls-15"/>
  <path d="M562.4 207.39s-5.54-.7-9.88.36" class="cls-7"/>
  <path d="M563.84 212.4s-4.67-.34-7.9 1.28" class="cls-15"/>
  <path d="M563.84 212.4s-4.67-.34-7.9 1.28" class="cls-7"/>
  <path d="M618.61 199.31s-10.06.92-8.08 8.8c1.98 7.88-1.26 19.04 26.22 32.69l-18.14-41.49Z" class="cls-31"/>
  <path d="M618.61 199.31s-10.06.92-8.08 8.8c1.98 7.88-1.26 19.04 26.22 32.69l-18.14-41.49h0Z" class="cls-7"/>
  <path d="M645.91 179.55s-9.22 12.03-34.87 20.29c0 0 10.45 16.88 17.45 32.51 7 15.62 25.32 30.35 46.87 10.42l-29.27-63.94" class="cls-31"/>
  <path d="M645.91 179.55s-9.22 12.03-34.87 20.29c0 0 10.45 16.88 17.45 32.51 7 15.62 25.32 30.35 46.87 10.42l-29.27-63.94" class="cls-7"/>
  <path d="M641.24 173.26s-8.98-15.8-12.57-19.76c0 0-9.34 1.8-12.21-.36-2.87-2.16-5.36-3.57-10.78-5.39-5.42-1.82-12.93-11.14-14.01-16.52s-1.08-7.54-3.95-11.14c-2.87-3.59-4.31-8.26-3.95-15.8.36-7.54 11.49-13.29 11.49-13.29l23.71-4.31 24.39 14.35 9.37 8.64-7.9 19.4 15.44 17.6-19.04 26.58Z" class="cls-31"/>
  <g clip-path="url(#clippath-10)">
    <path d="M641.24 173.26s-8.98-15.8-12.57-19.76c0 0-9.34 1.8-12.21-.36-2.87-2.16-5.36-3.57-10.78-5.39-5.42-1.82-12.93-11.14-14.01-16.52s-1.08-7.54-3.95-11.14c-2.87-3.59-4.31-8.26-3.95-15.8.36-7.54 11.49-13.29 11.49-13.29l23.71-4.31 24.39 14.35 9.37 8.64-7.9 19.4 15.44 17.6-19.04 26.58h0Z" class="cls-7"/>
    <path d="M680.75 137.35c-7.37 7.37-12.57 9.34-19.76 10.77-7.18 1.44-13.65 6.46-17.24 12.57-3.59 6.11-9.76 26.22 1.41 48.85 11.16 22.63 35.62 49.21 56.42 66.09 20.8 16.88 29.81 19.04 51.72 40.23 21.91 21.19 27.66 27.62 31.25 33.02 3.59 5.41 8.26 6.13 5.75-1.78-2.52-7.9-6.47-15.84-16.88-28.75-10.42-12.91-16.52-16.14-20.11-22.61-3.59-6.46-.42-12.04-.42-12.04s4.34 3.83 10.09 8.14c5.75 4.31 11.89-.8 3.26-9.4-8.62-8.6-39.51-34.5-44.18-39.51-4.67-5.01-.06-6.45 3.92-2.85 3.98 3.59 12.24 10.78 20.14 16.16 7.9 5.39 16.16 1.08 8.26-6.47-7.9-7.54-29.45-23.71-33.4-28.02-3.95-4.31-1.86-7.9 3.2-4.31 5.06 3.59 10.45 7.14 13.68 9.32 3.23 2.17 8.62-1.06 3.23-6.45-5.39-5.39-21.55-18.32-30.53-26.22-8.98-7.9-10.42-15.45-2.15-9.7 8.26 5.75 15.8 11.14 18.32 7.54 2.51-3.59-1.44-6.11-8.98-12.93-7.54-6.82-11.85-9.72-17.6-15.11-5.75-5.39-5.03-8.96 3.59-14.35 8.62-5.39 11.49-8.98 18.32-17.6 6.83-8.62 16.52-23.75 14.01-27.32-2.51-3.57-7.9 4.33-13.29 11.15-5.39 6.83-12.57 13.65-12.57 13.65s8.98-17.24 13.65-30.53c4.67-13.29 14.01-40.23 11.49-44.9-2.51-4.67-16.16 19.4-16.16 19.4s2.9-16.16 5.75-29.45c2.84-13.29 6.82-27.66 3.59-31.97-3.23-4.31-3.95 1.06-5.39 6.45-1.44 5.39-8.26 26.24-8.26 26.24s-3.59-14.73-.36-30.17c3.23-15.45 6.86-29.43 6.47-40.59-.39-11.15-3.65-10.42-5.78-8.98-2.13 1.44-2.13 10.78-4.28 22.27-2.16 11.49-5.75 18.68-5.75 18.68s.03-9.74 1.44-23.37.72-28.72-1.8-36.26c-2.51-7.54-7.18-10.78-6.82-3.23.36 7.54 1.44 23.35-1.8 38.79-3.23 15.45-5.81 25.14-9.73 42.74-3.92 17.6-11.11 34.84-5.36 55.31 5.75 20.47 11.14 22.63 11.49 31.97.36 9.34-3.95 17.6-11.85 25.5Z" class="cls-15"/>
    <path d="M680.75 137.35c-7.37 7.37-12.57 9.34-19.76 10.77-7.18 1.44-13.65 6.46-17.24 12.57-3.59 6.11-9.76 26.22 1.41 48.85 11.16 22.63 35.62 49.21 56.42 66.09 20.8 16.88 29.81 19.04 51.72 40.23 21.91 21.19 27.66 27.62 31.25 33.02 3.59 5.41 8.26 6.13 5.75-1.78-2.52-7.9-6.47-15.84-16.88-28.75-10.42-12.91-16.52-16.14-20.11-22.61-3.59-6.46-.42-12.04-.42-12.04s4.34 3.83 10.09 8.14c5.75 4.31 11.89-.8 3.26-9.4-8.62-8.6-39.51-34.5-44.18-39.51-4.67-5.01-.06-6.45 3.92-2.85 3.98 3.59 12.24 10.78 20.14 16.16 7.9 5.39 16.16 1.08 8.26-6.47-7.9-7.54-29.45-23.71-33.4-28.02-3.95-4.31-1.86-7.9 3.2-4.31 5.06 3.59 10.45 7.14 13.68 9.32 3.23 2.17 8.62-1.06 3.23-6.45-5.39-5.39-21.55-18.32-30.53-26.22-8.98-7.9-10.42-15.45-2.15-9.7 8.26 5.75 15.8 11.14 18.32 7.54 2.51-3.59-1.44-6.11-8.98-12.93-7.54-6.82-11.85-9.72-17.6-15.11-5.75-5.39-5.03-8.96 3.59-14.35 8.62-5.39 11.49-8.98 18.32-17.6 6.83-8.62 16.52-23.75 14.01-27.32-2.51-3.57-7.9 4.33-13.29 11.15-5.39 6.83-12.57 13.65-12.57 13.65s8.98-17.24 13.65-30.53c4.67-13.29 14.01-40.23 11.49-44.9-2.51-4.67-16.16 19.4-16.16 19.4s2.9-16.16 5.75-29.45c2.84-13.29 6.82-27.66 3.59-31.97-3.23-4.31-3.95 1.06-5.39 6.45-1.44 5.39-8.26 26.24-8.26 26.24s-3.59-14.73-.36-30.17c3.23-15.45 6.86-29.43 6.47-40.59-.39-11.15-3.65-10.42-5.78-8.98-2.13 1.44-2.13 10.78-4.28 22.27-2.16 11.49-5.75 18.68-5.75 18.68s.03-9.74 1.44-23.37.72-28.72-1.8-36.26c-2.51-7.54-7.18-10.78-6.82-3.23.36 7.54 1.44 23.35-1.8 38.79-3.23 15.45-5.81 25.14-9.73 42.74-3.92 17.6-11.11 34.84-5.36 55.31 5.75 20.47 11.14 22.63 11.49 31.97.36 9.34-3.95 17.6-11.85 25.5h0Z" class="cls-7"/>
  </g>
  <path d="M672.85 139.32c.36-4.15-2.69-6.15-5.93-5.95 0 0-2.4-4.99-7.39-6.09-5-1.1-7.51-1.44-7.51-1.44s7-5.57 5.57-12.03c0 0 3.77-1.98 1.62-8.08-2.15-6.11-3.23-10.78-6.82-11.85-3.59-1.08-7.21.72-7.21.72s1.83-4.31-1.41-8.26c-3.23-3.95-3.56-8.98-10.06-12.57s-16.58-6.82-26.25-5.75c-9.67 1.08-19.01 6.78-24.39 11.47-5.39 4.69-5.03 11.51-5.03 11.51s-1.44 1.1-1.8 8.26c-.36 7.16-.72 17.24 1.44 20.47 2.16 3.23 5.75 2.52 5.75 2.52s-2.16 7.18 2.15 10.77 7.9 2.14 7.9 2.14-2.12-5.01-2.16-10.04c-.03-5.03-5.21-6.11-6.29-9.7-1.08-3.59.57-6.11 7-9.7 6.44-3.59 14.37-7.9 17.24-11.49 2.87-3.59 5.33-3.63 8.95-.38 3.62 3.25 6.14 5.77 9.73 7.56 3.59 1.8 7.54 3.55 6.83 6.8-.72 3.25 2.33-2.39 6.06-1.3 2.44.71 4.61 3.15 4.97 8.54.36 5.39-3.84 5.35-3.84 5.35s-.36 5.03 1.08 8.98 2.51 8.98 6.46 11.13c3.95 2.16 5.03 3.91 6.47 6.8 1.44 2.89 3.95 4.33 6.82 2.53 2.87-1.8 4.67 1.06 8.26-2.53s1.8-8.42 1.8-8.42Z" class="cls-15"/>
  <path d="M672.85 139.32c.36-4.15-2.69-6.15-5.93-5.95 0 0-2.4-4.99-7.39-6.09-5-1.1-7.51-1.44-7.51-1.44s7-5.57 5.57-12.03c0 0 3.77-1.98 1.62-8.08-2.15-6.11-3.23-10.78-6.82-11.85-3.59-1.08-7.21.72-7.21.72s1.83-4.31-1.41-8.26c-3.23-3.95-3.56-8.98-10.06-12.57s-16.58-6.82-26.25-5.75c-9.67 1.08-19.01 6.78-24.39 11.47-5.39 4.69-5.03 11.51-5.03 11.51s-1.44 1.1-1.8 8.26c-.36 7.16-.72 17.24 1.44 20.47 2.16 3.23 5.75 2.52 5.75 2.52s-2.16 7.18 2.15 10.77 7.9 2.14 7.9 2.14-2.12-5.01-2.16-10.04c-.03-5.03-5.21-6.11-6.29-9.7-1.08-3.59.57-6.11 7-9.7 6.44-3.59 14.37-7.9 17.24-11.49 2.87-3.59 5.33-3.63 8.95-.38 3.62 3.25 6.14 5.77 9.73 7.56 3.59 1.8 7.54 3.55 6.83 6.8-.72 3.25 2.33-2.39 6.06-1.3 2.44.71 4.61 3.15 4.97 8.54.36 5.39-3.84 5.35-3.84 5.35s-.36 5.03 1.08 8.98 2.51 8.98 6.46 11.13c3.95 2.16 5.03 3.91 6.47 6.8 1.44 2.89 3.95 4.33 6.82 2.53 2.87-1.8 4.67 1.06 8.26-2.53s1.8-8.42 1.8-8.42h0Zm-52.44-35.02s-6.11-2.51-10.06-.72c-3.95 1.8-6.82 6.11-6.82 6.11m14.18 17.6s-.72 2.15-2.87 2.15-1.8 2.48-3.41 3.93c-1.62 1.46-4.67 1.46-6.47-1.24-1.8-2.69-1.8-6.29-3.41-9.16-1.62-2.87-6.83-8.26-6.83-8.26s-5.39 1.62-7.54 3.95m26.76-10.05s1.97 4.67-.54 5.93c-2.51 1.26-4.85-3.05-4.85-3.05m16.53 24.06-7.54.54s-1.26 3.95-7.54 5.21" class="cls-7"/>
  <path d="M619.69 141.12s-.36 2.69-3.41 2.69" class="cls-15"/>
  <path d="M619.69 141.12s-.36 2.69-3.41 2.69m5.13-34.32s-8.42-3.04-13.96 2.71m12.6-1.97s-1.44 6.65-9.52 7.18" class="cls-7"/>
  <path d="M599.04 120.1s-6.29-1.08-7.36 4.85" class="cls-15"/>
  <g clip-path="url(#clippath-11)">
    <path d="M599.04 120.1s-6.29-1.08-7.36 4.85m8.73-3.2s-1.86 7.61-8.07 6.52" class="cls-7"/>
    <path d="M753.64 284.39s-44.09-32.85-59.57-56.56" class="cls-15"/>
    <path d="M753.64 284.39s-44.09-32.85-59.57-56.56" class="cls-7"/>
    <path d="M755.82 298.98s-19.4-16.16-41.31-43.82" class="cls-15"/>
    <path d="M755.82 298.98s-19.4-16.16-41.31-43.82" class="cls-7"/>
  </g>
  <path d="M722.06 242.93s-18.74-16.67-26.28-25.65" class="cls-15"/>
  <path d="M722.06 242.93s-18.74-16.67-26.28-25.65" class="cls-7"/>
  <path d="M725.88 239.94s-21.42-18.54-26.45-22.85" class="cls-15"/>
  <path d="M725.88 239.94s-21.42-18.54-26.45-22.85" class="cls-7"/>
  <path d="M722.31 223.33s-19.94-15.52-28.56-29.88" class="cls-15"/>
  <path d="M722.31 223.33s-19.94-15.52-28.56-29.88" class="cls-7"/>
  <path d="M724.33 217.59s-16.28-12.76-24.9-21.36" class="cls-15"/>
  <path d="M724.33 217.59s-16.28-12.76-24.9-21.36" class="cls-7"/>
  <path d="M709.13 193.02s-15.51-12.93-24.45-30.53" class="cls-15"/>
  <path d="M709.13 193.02s-15.51-12.93-24.45-30.53" class="cls-7"/>
  <path d="M709.43 185.15s-11.82-8.49-20.8-22.5" class="cls-15"/>
  <path d="M709.43 185.15s-11.82-8.49-20.8-22.5" class="cls-7"/>
  <path d="M706.22 3.01s-2.46 9.72-5.72 16.16" class="cls-15"/>
  <g clip-path="url(#clippath-12)">
    <path d="M706.22 3.01s-2.46 9.72-5.72 16.16m11.14 283.76s-17.99-7.16-28.77-21.91" class="cls-7"/>
  </g>
  <path d="M700.51 287.49s-12.57-9.7-25.86-15.8" class="cls-15"/>
  <path d="M700.51 287.49s-12.57-9.7-25.86-15.8" class="cls-7"/>
  <path d="M731.76 325.92s-11.85-11.49-19.76-16.16" class="cls-15"/>
  <path d="M731.76 325.92s-11.85-11.49-19.76-16.16m26.94 26.94s-30.95-17.22-45.29-36.64" class="cls-7"/>
  <path d="M736.75 345.67s-16.13-6.82-22.96-22.27" class="cls-15"/>
  <path d="M736.75 345.67s-16.13-6.82-22.96-22.27" class="cls-7"/>
  <path d="M749.35 368.64s-35.92-42.36-71.12-70.02" class="cls-15"/>
  <g clip-path="url(#clippath-13)">
    <path d="M749.35 368.64s-35.92-42.36-71.12-70.02" class="cls-7"/>
  </g>
  <path d="M706.97 113.28s9.37-16.56 15.09-33.78c5.72-17.22 8.62-22.97 8.62-22.97" class="cls-15"/>
  <path d="M706.97 113.28s9.37-16.56 15.09-33.78c5.72-17.22 8.62-22.97 8.62-22.97" class="cls-7"/>
  <path d="M711.24 56.22s3.09-8.08 5.07-15.87" class="cls-15"/>
  <g clip-path="url(#clippath-14)">
    <path d="M711.24 56.22s3.09-8.08 5.07-15.87m-8.91 12.37s-1.33-17.18 1.67-27.96c3-10.78 9.67-29.65 9.67-29.65" class="cls-7"/>
    <path d="M608.91 20.61S624 2.97 636.57-10.3" class="cls-15"/>
    <path d="M608.91 20.61S624 2.97 636.57-10.3" class="cls-7"/>
  </g>
  <path d="M686.5 228.22s-14.19-1.8-16.16 4.13l2.16-2.16s4.34 5.93 8.26 4.31 1.8-5.75 1.8-5.75" class="cls-31"/>
  <path d="M686.5 228.22s-14.19-1.8-16.16 4.13l2.16-2.16s4.34 5.93 8.26 4.31 1.8-5.75 1.8-5.75" class="cls-7"/>
  <path d="M678.95 224.09s-12.39-2.67-12.39 5.39" class="cls-15"/>
  <path d="M678.95 224.09s-12.39-2.67-12.39 5.39" class="cls-7"/>
  <path d="M687.4 233.61s-3.77 11.49-12.75 6.46" class="cls-15"/>
  <path d="M687.4 233.61s-3.77 11.49-12.75 6.46" class="cls-7"/>
  <path d="M691.41 197.01s-10.24-3.95-14.37 4.67l1.8-2.15s2.33 4.67 7.36 3.05 3.41-5.57 3.41-5.57" class="cls-31"/>
  <path d="M691.41 197.01s-10.24-3.95-14.37 4.67l1.8-2.15s2.33 4.67 7.36 3.05 3.41-5.57 3.41-5.57" class="cls-7"/>
  <path d="M670.2 279.16s-7.47-8.04-14.96-2.1l2.56-1.15s.05 5.22 5.28 5.97 5.51-3.51 5.51-3.51" class="cls-31"/>
  <path d="M670.2 279.16s-7.47-8.04-14.96-2.1l2.56-1.15s.05 5.22 5.28 5.97 5.51-3.51 5.51-3.51" class="cls-8"/>
  <path d="M686.2 192.35s-11.67-1.8-13.29 5.39" class="cls-15"/>
  <path d="M686.2 192.35s-11.67-1.8-13.29 5.39" class="cls-7"/>
  <path d="M667.57 272.68s-9.71-6.73-14.31-.98" class="cls-15"/>
  <path d="M667.57 272.68s-9.71-6.73-14.31-.98" class="cls-8"/>
  <path d="M692.66 200.79s-.36 7.54-5.93 10.42" class="cls-15"/>
  <path d="M692.66 200.79s-.36 7.54-5.93 10.42" class="cls-7"/>
  <path d="M669.68 283.1s-3.63 6.62-9.89 6.76" class="cls-15"/>
  <path d="M669.68 283.1s-3.63 6.62-9.89 6.76" class="cls-8"/>
  <path d="M665.4 182.14s-14.88-6.29-16.85 2.87" class="cls-15"/>
  <path d="M665.4 182.14s-14.88-6.29-16.85 2.87" class="cls-7"/>
  <path d="M590.81 160.63s-12.02-6.64-14.5.93" class="cls-15"/>
  <path d="M590.81 160.63s-12.02-6.64-14.5.93" class="cls-9"/>
  <path d="M664.64 187.38s-2.87 11.15-11.49 7.72" class="cls-15"/>
  <path d="M664.64 187.38s-2.87 11.15-11.49 7.72" class="cls-7"/>
  <path d="M589.71 164.99s-3.42 9.17-10.4 5.51" class="cls-15"/>
  <path d="M589.71 164.99s-3.42 9.17-10.4 5.51" class="cls-9"/>
  <path d="M629 180.99s-12.57-4.11-16.16 1.97" class="cls-15"/>
  <path d="M629 180.99s-12.57-4.11-16.16 1.97" class="cls-7"/>
  <path d="M677.19 159.05s-12.57-4.11-16.16 1.98" class="cls-15"/>
  <path d="M677.19 159.05s-12.57-4.11-16.16 1.98" class="cls-7"/>
  <path d="M630.82 185.66s-12.21-5.75-15.8.72c0 0 2.69 3.77 6.11 3.77s5.57-5.75 5.57-5.75" class="cls-31"/>
  <path d="M630.82 185.66s-12.21-5.75-15.8.72c0 0 2.69 3.77 6.11 3.77s5.57-5.75 5.57-5.75" class="cls-7"/>
  <path d="M679.01 163.72s-12.21-5.75-15.8.72c0 0 2.69 3.77 6.11 3.77s5.57-5.75 5.57-5.75" class="cls-31"/>
  <path d="M679.01 163.72s-12.21-5.75-15.8.72c0 0 2.69 3.77 6.11 3.77s5.57-5.75 5.57-5.75" class="cls-7"/>
  <path d="M665.36 185.94s-11.73-4.67-14.94 1.44c0 0 4.16 3.41 7.93 1.8 3.77-1.62 3.59-3.95 3.59-3.95" class="cls-31"/>
  <path d="M665.36 185.94s-11.73-4.67-14.94 1.44c0 0 4.16 3.41 7.93 1.8 3.77-1.62 3.59-3.95 3.59-3.95" class="cls-7"/>
  <path d="M590.44 163.84s-9.5-4.99-12.75-.11c0 0 3.21 3.26 6.54 2.22 3.33-1.03 3.39-3.02 3.39-3.02" class="cls-31"/>
  <path d="M590.44 163.84s-9.5-4.99-12.75-.11c0 0 3.21 3.26 6.54 2.22 3.33-1.03 3.39-3.02 3.39-3.02" class="cls-9"/>
  <path d="M640.88 254.08s-9.7-4.31-10.78 3.23" class="cls-15"/>
  <path d="M640.88 254.08s-9.7-4.31-10.78 3.23" class="cls-7"/>
  <path d="M702.66 251.93s-9.7-5.03-11.85 1.44c0 0 1.97 1.8 5.75.9 3.77-.9 4.85-2.51 4.85-2.51" class="cls-31"/>
  <path d="M702.66 251.93s-9.7-5.03-11.85 1.44c0 0 1.97 1.8 5.75.9 3.77-.9 4.85-2.51 4.85-2.51" class="cls-7"/>
  <path d="M699.04 246.9s-10.75-1.44-11.82 3.23" class="cls-15"/>
  <path d="M699.04 246.9s-10.75-1.44-11.82 3.23" class="cls-7"/>
  <path d="M569.04 137.35s-8.98-10.78-14.73-5.75" class="cls-15"/>
  <path d="M569.04 137.35s-8.98-10.78-14.73-5.75" class="cls-7"/>
  <path d="M520.07 48.72c-6.68 0-12.09-5.41-12.09-12.09s5.41-12.09 12.09-12.09 12.09 5.41 12.09 12.09-5.41 12.09-12.09 12.09Z" class="cls-31"/>
  <path d="M520.07 48.72c-6.68 0-12.09-5.41-12.09-12.09s5.41-12.09 12.09-12.09 12.09 5.41 12.09 12.09-5.41 12.09-12.09 12.09h0Z" class="cls-7"/>
  <path d="M712.36 65.15s-6.83-7.18-11.14-2.51c0 0 1.08 4.49 4.49 4.49s3.59-3.41 3.59-3.41" class="cls-31"/>
  <path d="M712.36 65.15s-6.83-7.18-11.14-2.51c0 0 1.08 4.49 4.49 4.49s3.59-3.41 3.59-3.41m2.7-2.88s-9.67-6.47-14.01 0" class="cls-7"/>
  <path d="M693.32 64.07s-5.75-4.31-7.9-.36c0 0 .72 2.87 3.23 2.87s2.15-3.23 2.15-3.23" class="cls-31"/>
  <path d="M693.32 64.07s-5.75-4.31-7.9-.36c0 0 .72 2.87 3.23 2.87s2.15-3.23 2.15-3.23" class="cls-7"/>
  <path d="M590.18 51.49s-5.75-4.31-7.9-.36c0 0 .72 2.87 3.23 2.87s2.16-3.23 2.16-3.23" class="cls-31"/>
  <path d="M590.18 51.49s-5.75-4.31-7.9-.36c0 0 .72 2.87 3.23 2.87s2.16-3.23 2.16-3.23" class="cls-7"/>
  <path d="M693.68 59.74s-7.54-3.61-10.06 0" class="cls-15"/>
  <path d="M693.68 59.74s-7.54-3.61-10.06 0" class="cls-7"/>
  <path d="M590.54 47.16s-7.54-3.61-10.06 0" class="cls-15"/>
  <path d="M590.54 47.16s-7.54-3.61-10.06 0" class="cls-7"/>
  <path d="M701.94 36.77s-8.98-5.43-12.93-.38" class="cls-15"/>
  <path d="M701.94 36.77s-8.98-5.43-12.93-.38" class="cls-7"/>
  <path d="M703.02 43.24s-9.34-8.26-13.65-2.51c0 0 1.26 5.93 5.57 6.11 4.31.18 4.31-4.67 4.31-4.67" class="cls-31"/>
  <path d="M703.02 43.24s-9.34-8.26-13.65-2.51c0 0 1.26 5.93 5.57 6.11 4.31.18 4.31-4.67 4.31-4.67" class="cls-7"/>
  <path d="M709.94 84.18s-12.21-7.54-15.45-2.51" class="cls-15"/>
  <path d="M709.94 84.18s-12.21-7.54-15.45-2.51" class="cls-7"/>
  <path d="M606.58 29.62s-12.21-7.54-15.45-2.51" class="cls-15"/>
  <path d="M606.58 29.62s-12.21-7.54-15.45-2.51" class="cls-7"/>
  <path d="M707.91 88.55s-9.7-7.94-12.93-2.53l2.33-1.42s.36 6.11 3.05 6.11 4.31-3.23 4.31-3.23" class="cls-31"/>
  <path d="M707.91 88.55s-9.7-7.94-12.93-2.53l2.33-1.42s.36 6.11 3.05 6.11 4.31-3.23 4.31-3.23" class="cls-7"/>
  <path d="M604.55 33.99s-9.7-7.94-12.93-2.53l2.33-1.42s.36 6.11 3.05 6.11 4.31-3.23 4.31-3.23" class="cls-31"/>
  <path d="M604.55 33.99s-9.7-7.94-12.93-2.53l2.33-1.42s.36 6.11 3.05 6.11 4.31-3.23 4.31-3.23" class="cls-7"/>
  <path d="M707.19 128.88s-6.79-8.26-11.82-3.59" class="cls-15"/>
  <path d="M707.19 128.88s-6.79-8.26-11.82-3.59" class="cls-7"/>
  <path d="M620.9 239.91s-6.79-8.26-11.82-3.59" class="cls-15"/>
  <path d="M620.9 239.91s-6.79-8.26-11.82-3.59" class="cls-7"/>
  <path d="M706.86 132.81s-7.24-8.96-12.24-3.21l2.19-1.26s0 6.65 3.41 6.47c3.41-.18 3.77-3.79 3.77-3.79" class="cls-31"/>
  <path d="M706.86 132.81s-7.24-8.96-12.24-3.21l2.19-1.26s0 6.65 3.41 6.47c3.41-.18 3.77-3.79 3.77-3.79" class="cls-7"/>
  <path d="M620.57 243.85s-7.24-8.96-12.24-3.21l2.18-1.26s0 6.65 3.41 6.46c3.41-.18 3.77-3.79 3.77-3.79" class="cls-31"/>
  <path d="M620.57 243.85s-7.24-8.96-12.24-3.21l2.18-1.26s0 6.65 3.41 6.46c3.41-.18 3.77-3.79 3.77-3.79" class="cls-7"/>
  <path d="M520.28 43.84c-3.86 0-7-3.13-7-7s3.13-7 7-7 7 3.13 7 7-3.13 7-7 7Z" class="cls-31"/>
  <path d="M520.28 43.84c-3.86 0-7-3.13-7-7s3.13-7 7-7 7 3.13 7 7-3.13 7-7 7h0Z" class="cls-7"/>
  <path d="M519.12 88.5s2.15 8.26 2.15 18.68l-6.82 2.51s-9.34-4.71-13.29-14.03l17.96-7.16Z" class="cls-31"/>
  <path d="M519.12 88.5s2.15 8.26 2.15 18.68l-6.82 2.51s-9.34-4.71-13.29-14.03l17.96-7.16h0Z" class="cls-7"/>
  <path d="M504.84 98.43c-9.48 0-17.16-7.68-17.16-17.16s7.68-17.16 17.16-17.16S522 71.79 522 81.27s-7.68 17.16-17.16 17.16Z" class="cls-31"/>
  <path d="M504.84 98.43c-9.48 0-17.16-7.68-17.16-17.16s7.68-17.16 17.16-17.16S522 71.79 522 81.27s-7.68 17.16-17.16 17.16h0Z" class="cls-7"/>
  <path d="M492.01 88.41C473.23 88.41 458 73.18 458 54.4s15.22-34.01 34.01-34.01 34.01 15.23 34.01 34.01-15.23 34.01-34.01 34.01Z" class="cls-31"/>
  <path d="M492.01 88.41C473.23 88.41 458 73.18 458 54.4s15.22-34.01 34.01-34.01 34.01 15.23 34.01 34.01-15.23 34.01-34.01 34.01h0Z" class="cls-7"/>
  <path d="M491.8 78.16c-13.35 0-24.17-10.82-24.17-24.17s10.82-24.17 24.17-24.17 24.17 10.82 24.17 24.17-10.82 24.17-24.17 24.17Z" class="cls-31"/>
  <path d="M491.8 78.16c-13.35 0-24.17-10.82-24.17-24.17s10.82-24.17 24.17-24.17 24.17 10.82 24.17 24.17-10.82 24.17-24.17 24.17h0Z" class="cls-7"/>
  <path d="M594.37 269.35s1.8 2.65 1.08 5.91c0 0 1.65 4.51-.36 5.41-2.01.9-4.49-3.61-4.49-3.61s-1.97-1.24-3.23-5.37" class="cls-15"/>
  <path d="M594.37 269.35s1.8 2.65 1.08 5.91c0 0 1.65 4.51-.36 5.41-2.01.9-4.49-3.61-4.49-3.61s-1.97-1.24-3.23-5.37m7.51 3.94-3.74 1.8" class="cls-7"/>
  <path d="M565.99 140.21s-6.65-6.83-10.78-4.31c0 0 1.11 5.93 4.85 6.29 3.74.36 3.74-3.43 3.74-3.43" class="cls-31"/>
  <path d="M565.99 140.21s-6.65-6.83-10.78-4.31c0 0 1.11 5.93 4.85 6.29 3.74.36 3.74-3.43 3.74-3.43m31.03-17.17s1.8 3.23.54 4.13c-1.26.9-3.41-2.34-3.41-2.34m-92.24-91.99-15.09 45.98m30.18-15.83-46.33-14.37" class="cls-7"/>
  <path d="m508.16 65.13-12.39-3.21-5.03 11.85" class="cls-31"/>
  <path d="m508.16 65.13-12.39-3.21-5.03 11.85" class="cls-7"/>
  <path d="m480.5 70 4.67-10.96-10.59-3.95" class="cls-31"/>
  <path d="m480.5 70 4.67-10.96-10.59-3.95" class="cls-7"/>
  <path d="m491.64 35.34-3.23 11.13-11.14-2.69" class="cls-31"/>
  <path d="m491.64 35.34-3.23 11.13-11.14-2.69" class="cls-7"/>
  <path d="m504.03 39.83-4.49 10.59 12.57 3.42" class="cls-31"/>
  <path d="m504.03 39.83-4.49 10.6 12.57 3.41m5.19 24.54s.78 8.69-6.83 12.26c-7.6 3.57-15.08-2.48-15.08-2.48" class="cls-7"/>
  <path d="M645.33 88.93s1.24 5.59-1.86 7.45-6.8 1.24-9.93-1.55" class="cls-15"/>
  <path d="M645.33 88.93s1.24 5.59-1.86 7.45-6.8 1.24-9.93-1.55" class="cls-7"/>
  <path d="M659.61 111.9s-2.46 3.81-6.52 1.55-5.28-5.9-5.28-5.9" class="cls-15"/>
  <path d="M659.61 111.9s-2.46 3.81-6.52 1.55-5.28-5.9-5.28-5.9" class="cls-7"/>
  <path d="M625.16 85.52s-1.86-9-10.86-8.38" class="cls-15"/>
  <path d="M625.16 85.52s-1.86-9-10.86-8.38" class="cls-7"/>
  <path d="M663.65 135.8s2.2 5.98-3.1 7.76c-5.3 1.78-9.96-2.48-9.96-2.48" class="cls-15"/>
  <path d="M663.65 135.8s2.2 5.98-3.1 7.76c-5.3 1.78-9.96-2.48-9.96-2.48" class="cls-7"/>
  <path d="M585.74 86.14s-6.49 1.09-8.85 6.98" class="cls-15"/>
  <path d="M585.74 86.14s-6.49 1.09-8.85 6.98" class="cls-7"/>
  <path d="M586.05 117.02s.72 5.12-3.75 5.28" class="cls-15"/>
  <g clip-path="url(#clippath-15)">
    <path d="M586.05 117.02s.72 5.12-3.75 5.28m39.06 78.99s15.78 40.35 45.01 40.35m-34.54-33.36s14.1 27.55 29.62 26" class="cls-7"/>
    <path d="M334.88 23.51v407.9h84.56V21.01h-84.56v2.5z" class="cls-12"/>
    <path d="M334.88 23.51v407.9h84.56V21.01h-84.56v2.5z" class="cls-3"/>
    <path d="M337.38 23.51v405.4h35.54V37.74l44.02-14.23h-79.56z" class="cls-14"/>
  </g>
  <path d="M111.15 236.54v81.72h532.87v-84.22H111.15v2.5z" class="cls-12"/>
  <path d="M111.15 236.54v81.72h532.87v-84.22H111.15v2.5z" class="cls-3"/>
  <path d="M276.48 98.09v73.18h199.53V95.59H276.48v2.5z" class="cls-12"/>
  <path d="M276.48 98.09v73.18h199.53V95.59H276.48v2.5z" class="cls-3"/>
  <path d="m290.63 144.26-11.65 24.51h194.53V98.09l-9.32 19.7v25.96l-173.56.51zM126.8 286.21l-13.15 29.55h527.87v-79.22l-24.19 52.25-490.53-2.58z" class="cls-14"/>
  <path d="M383.48 284.15c3.74 0 6.78-3.04 6.78-6.78s-3.04-6.78-6.78-6.78-6.78 3.04-6.78 6.78 3.04 6.78 6.78 6.78Z" class="cls-13"/>
  <path d="M383.48 284.15c3.74 0 6.78-3.04 6.78-6.78s-3.04-6.78-6.78-6.78-6.78 3.04-6.78 6.78 3.04 6.78 6.78 6.78Z" class="cls-5"/>
  <path d="M383.48 140.79c3.74 0 6.78-3.04 6.78-6.78s-3.04-6.78-6.78-6.78-6.78 3.04-6.78 6.78 3.04 6.78 6.78 6.78Z" class="cls-13"/>
  <path d="M383.48 140.79c3.74 0 6.78-3.04 6.78-6.78s-3.04-6.78-6.78-6.78-6.78 3.04-6.78 6.78 3.04 6.78 6.78 6.78Z" class="cls-5"/>
  <path fill="#725319" d="M335.9 206.23s-11.09 3.8-22.98 7.33c-11.89 3.54-21 3.84-19.71 10.61 1.29 6.76 9.43 3.54 13.61 0 0 0-15.43 11.25-19.93 33.43s-6.75 35.68-12.21 40.82c-5.47 5.14-5.68 12.86-.64 12.86s9.64-8.34 9.64-8.34-2.57 6.09 10.29 27.31 22.82 34.38 25.39 41.47c2.57 7.09 5.47 9.03 6.43 3.23.96-5.8 2.25-13.19-1.29-19.3 0 0 12.96 14.14 35.57 20.25 22.61 6.11 48.32 2.89 54.11-1.93 0 0-12.97 7.39-11.68 11.89 1.29 4.5 5.14 7.07 12.86.97 7.72-6.11 9.86-9.64 20.36-16.39s22.5-16.07 26.36-22.5c0 0-6.12 13.44.64 17.68 5.14 3.22 8.68-1.93 9-8.68.32-6.75 0-13.51 4.82-28.61 4.82-15.09 9-28.61 7.07-47.25 0 0 .75 11.57 6.32 10.29 5.57-1.29 2.79-14.44-3.75-25.7s-16.07-30.87-26.36-38.91c0 0 7.39 6.43 9.32-1.29 1.93-7.71-19.61-11.87-31.82-15.09-12.21-3.23-18.36-5.35-18.36-5.35v14.14s8.08 1.8 14.51 7.58c6.43 5.79 8.79 16.07 14.04 16.72 5.25.64-1.5-15.75-1.5-15.75s14.14 7.07 18.32 27-2.57 35.35-7.39 41.15c-4.82 5.8-5.46 9.66-2.57 10.94 2.89 1.29 6.43-.03 10.29-7.73 0 0-1.5 17.04-11.89 28.93s-14.25 11.89-20.68 11.89-8.89 1.61-8.89 4.82 7.71 8.36 21.22 2.25c0 0-10.61 12.24-30.22 15.12-19.61 2.88-36.97 2.56-36.97 2.56s9.96-1.3 11.25-8.36c1.29-7.06-2.89-6.11-7.39-3.86-4.5 2.25-23.47 8.39-36 3.23-12.54-5.16-25.61-13.19-35.14-27.66 0 0 8.25 3.21 11.57-1.61 3.32-4.82-.75-5.44-9-13.17-8.25-7.73-23.14-18.63-14.14-51.43 0 0 .21 14.8 7.18 15.43 6.96.63 7.07-3.23 4.5-8.69-2.57-5.46-5.25-24.12 6.32-35.36 11.57-11.24 18.85-12.74 18.85-12.74l.71-14.21Z"/>
  <path fill="none" stroke="#552347" stroke-linejoin="round" stroke-width="2" d="M335.9 206.23s-11.09 3.8-22.98 7.33c-11.89 3.54-21 3.84-19.71 10.61 1.29 6.76 9.43 3.54 13.61 0 0 0-15.43 11.25-19.93 33.43s-6.75 35.68-12.21 40.82c-5.47 5.14-5.68 12.86-.64 12.86s9.64-8.34 9.64-8.34-2.57 6.09 10.29 27.31 22.82 34.38 25.39 41.47c2.57 7.09 5.47 9.03 6.43 3.23.96-5.8 2.25-13.19-1.29-19.3 0 0 12.96 14.14 35.57 20.25 22.61 6.11 48.32 2.89 54.11-1.93 0 0-12.97 7.39-11.68 11.89 1.29 4.5 5.14 7.07 12.86.97 7.72-6.11 9.86-9.64 20.36-16.39s22.5-16.07 26.36-22.5c0 0-6.12 13.44.64 17.68 5.14 3.22 8.68-1.93 9-8.68.32-6.75 0-13.51 4.82-28.61 4.82-15.09 9-28.61 7.07-47.25 0 0 .75 11.57 6.32 10.29 5.57-1.29 2.79-14.44-3.75-25.7s-16.07-30.87-26.36-38.91c0 0 7.39 6.43 9.32-1.29 1.93-7.71-19.61-11.87-31.82-15.09-12.21-3.23-18.36-5.35-18.36-5.35v14.14s8.08 1.8 14.51 7.58c6.43 5.79 8.79 16.07 14.04 16.72 5.25.64-1.5-15.75-1.5-15.75s14.14 7.07 18.32 27-2.57 35.35-7.39 41.15c-4.82 5.8-5.46 9.66-2.57 10.94 2.89 1.29 6.43-.03 10.29-7.73 0 0-1.5 17.04-11.89 28.93s-14.25 11.89-20.68 11.89-8.89 1.61-8.89 4.82 7.71 8.36 21.22 2.25c0 0-10.61 12.24-30.22 15.12-19.61 2.88-36.97 2.56-36.97 2.56s9.96-1.3 11.25-8.36c1.29-7.06-2.89-6.11-7.39-3.86-4.5 2.25-23.47 8.39-36 3.23-12.54-5.16-25.61-13.19-35.14-27.66 0 0 8.25 3.21 11.57-1.61 3.32-4.82-.75-5.44-9-13.17-8.25-7.73-23.14-18.63-14.14-51.43 0 0 .21 14.8 7.18 15.43 6.96.63 7.07-3.23 4.5-8.69-2.57-5.46-5.25-24.12 6.32-35.36 11.57-11.24 18.85-12.74 18.85-12.74l.71-14.21Z"/>
  <path fill="none" stroke="#c18f64" stroke-linecap="round" d="M295.24 225.53s-1.03-2.83 7.71-5.4c8.74-2.57 18.77-7.4 18.77-7.4m-32.71 42.94s6.01-16.77 18.33-25.51c12.32-8.74 27-15.43 27-15.43m-28.3 59.66s-7.71-15.94 2.83-33.94 26.23-22.63 26.23-22.63m-61.72 88.71s.26-2.06 3.34-5.92c3.09-3.86 5.66-8.23 7.72-19.8 2.06-11.57 7.46-32.15 17.23-40.37m16.97 85.12s-8.23 2.32-18.26-12.6c-10.03-14.92-8.47-35.23-8.47-35.23m31.62 96.43s-5.91-17.74-18-32.14c-12.09-14.4-17.93-28.24-17.67-50.63m70.13 74.54s20.32 11.32 42.43 3.86m-48.6-3.84s38.1 24.14 78.97-3.36m40.35-68.65s-2.85 51.68-44.74 49.62m43.19 15.43s-3.6-6.4 2.06-23.9 10.78-46.53 2.31-65.58m-18 34.72s26.23-26.24 7.72-64.3m2.06-15.43s-14.04-10.21-48.35-15.94m29.32 31.38s-1.28-14.41-29.32-25.73"/>
  <path d="M334.87 185.01v43.16" class="cls-3"/>
  <path fill="none" stroke="#552347" stroke-linecap="round" stroke-linejoin="round" stroke-width="2" d="M304.86 238.44s-7.37 10.49-6.52 25.51m7.66-39.4s9.92-7.46 18.14-10.53m-41.67 90.75s6.24-9.64 8.5-30.9m20.13 54.71s-8.22-3.68-15.31-15.02m29.48 43.09-17.01-17.91m70.04 25.56s-13.58 4.54-32.6.28m115.64-15.59s6.8-13.32 10.2-28.63m-28.04 27.21s12.14-4.77 20.95-19.56m-.56-26.92s9.92-15.97 10.49-34.63m9.35 16.48s-.87-15.31-12.76-33.16m-24.09-21.54s-10.49-12.9-28.06-16.3m41.38 15.45s-5.1-5.95-17.58-9.92"/>
  <path d="M419.44 229.63v-47.15" class="cls-3"/>
</svg>