<svg version="1.1" id="Слой_1" xmlns="http://www.w3.org/2000/svg" xmlns:xlink="http://www.w3.org/1999/xlink" x="0" y="0" viewBox="0 0 749.9 428" xml:space="preserve"><style>.st1{clip-path:url(#SVGID_2_);fill:#964900}.st4{fill:#bd6920}.st5{fill:#964900}.st10{fill:#7b68ee}.st11,.st12{clip-path:url(#SVGID_8_);fill:#bd6920}.st12{fill:#964900}.st15{fill:#dca164}.st16{clip-path:url(#SVGID_12_);fill:#964900}.st18{fill:#c9813c}.st19{clip-path:url(#SVGID_14_);fill:#964900}.st21,.st22,.st23{clip-path:url(#SVGID_18_);fill:#c9813c}.st22,.st23{clip-path:url(#SVGID_20_)}.st23{clip-path:url(#SVGID_22_)}.st25{clip-path:url(#SVGID_24_);fill:#964900}.st26{fill:#e94c32}.st37,.st38{clip-path:url(#SVGID_40_);fill:#c9813c}.st38{clip-path:url(#SVGID_42_)}.st39,.st40,.st41{clip-path:url(#SVGID_44_);fill:#c9813c}.st40,.st41{clip-path:url(#SVGID_46_)}.st41{clip-path:url(#SVGID_48_)}</style><defs><path id="SVGID_1_" d="M0 0h749.9v428H0z"/></defs><clipPath id="SVGID_2_"><use xlink:href="#SVGID_1_" overflow="visible"/></clipPath><path clip-path="url(#SVGID_2_)" fill="#cf8d42" d="M-6.3-4.2V435h764.4V-4.2H-6.3z"/><path class="st1" d="M759.3 436.3H-7.5V-5.4h766.9v441.7zM-5 433.8h761.9V-2.9H-5v436.7z"/><path class="st1" d="M348.7-8.5v19.9H290l.6 37.5 59.4-.6 1.4 131.1-49.6 1.1 2.3 49.9s13.6-.8 27.8-1.4c14.2-.6 19.6-.9 19.6-.9s.8 79.9.8 136.6-5.1 73.1-5.1 73.1l53.3 1.7s-1.7-38.5-.6-99.5-.3-112.7-.3-112.7 25.2-1.7 38.2-.9l35.7-37.6L478 176s-11.3 0-36.9.9c-25.5.8-41.6.8-41.6.8s-.2-36.6-.4-80.2c-.3-43.7-.3-49-.3-49l59-1-.6-37.1-59.7.9V-9.4l-48.8.9z"/><path class="st1" d="M401.7 440.9l-56.3-1.8.5-1.6c.1-.2 5-17.1 5-72.8 0-52.1-.7-124.7-.8-135.3-2.4.1-8.1.4-18.3.8-14 .6-27.6 1.4-27.8 1.4l-1.3.1-2.4-52.4 49.7-1.1-1.4-128.6-59.4.6-.6-40.1h58.7V-9.7l51.4-.9v20.8l59.6-.9.6 39.6-59 1c0 3.2.1 14.1.3 47.8.2 38.9.4 72.2.4 79 4.3 0 19.1-.1 40.4-.8 25.2-.8 36.8-.9 36.9-.9h1.8l-5.2 14.7-36.3 38.2h-.6c-11.2-.7-31.7.5-36.9.8.2 8.1 1.3 56.3.2 111.5-1.1 60.2.5 99 .6 99.4l.2 1.3zm-53-4.2l50.4 1.6c-.3-7.3-1.5-44.2-.5-98.2 1.1-60.2-.2-112.1-.3-112.6v-1.2l1.2-.1c.2 0 24.7-1.7 37.8-.9l35.1-36.9 3.8-10.8c-4.1 0-15.4.2-35 .9-25.2.8-41.5.8-41.7.8h-1.2v-1.2s-.2-36.6-.4-80.2c-.3-43.7-.3-49-.3-49v-1.2l58.9-1-.5-34.8-59.7.9V-8.1l-46.4.8v19.9h-58.7l.5 35 59.4-.6 1.5 133.6-49.6 1.1 2.2 47.3c3.7-.2 15-.9 26.5-1.3 14-.6 19.5-.9 19.6-.9l1.3-.1v1.3c0 .8.8 80.6.8 136.6.1 47.7-3.5 66.9-4.7 72.1z"/><path d="M24.8 430.8s4.3-89.3 17-192.7c0 0-35.4 11.3-60.9-15.6 0 0 15.6-117.6 48.2-171.5 32.6-53.9 85-58.1 85-58.1h58.1s1.4-1.4 29.8 21.3c28.3 22.7 36.8 25.5 45.4 70.9 8.5 45.4 19.8 90.7 19.8 90.7s33.8-8.5 44.5-14.2c10.7-5.7 16.4-7.1 16.4-7.1s.6 19.8 6.3 25.5l5.7 5.7-21.8 21.3S297 236.8 246 277.9c0 0 7.1 77.9 11.3 163L24.8 430.8z" clip-path="url(#SVGID_2_)" fill="#5b1911"/><path class="st1" d="M258.6 442.1L23.5 432l.1-1.3c0-.9 4.3-89.4 16.8-191-7.7 1.9-38 7.2-60.4-16.4l-.4-.4.1-.6c.2-1.2 16-118.5 48.4-172C60.5-3.4 113.5-8.3 114-8.3h58.2c1.8.1 7.6 3.2 30.5 21.5 2.6 2 5 3.9 7.2 5.7 23 18.1 30.8 24.2 38.6 65.9 7.6 40.7 17.7 81.9 19.5 89.4 6.1-1.6 33.7-8.8 43-13.8 10.8-5.7 16.5-7.1 16.7-7.2l1.5-.4v1.6c.2 5.4 1.5 20.3 5.9 24.7l6.6 6.6-22.7 22.1c-1.4 1.9-23.1 31.2-71.9 70.6.7 7.8 7.3 82.4 11.3 162.4l.2 1.3zM26.1 429.7l229.8 9.8c-4.2-83.5-11.2-160.8-11.3-161.6l-.1-.7.5-.4c50.3-40.5 71.8-70.3 72-70.6l.1-.2 20.9-20.4-4.8-4.8c-5-5-6.3-19.8-6.6-24.7-2.3.8-7.3 2.6-14.7 6.5-10.8 5.7-43.4 13.9-44.8 14.3l-1.2.3-.3-1.2c-.1-.5-11.4-45.9-19.9-90.8-7.6-40.8-15.2-46.8-37.7-64.4-2.3-1.8-4.7-3.7-7.2-5.7-23.3-18.7-28.1-20.8-28.9-21h-58.1c-1.8.2-52.6 5.5-84 57.5C-.8 102.8-16.6 213-17.8 222.1c24.6 25.5 58.9 15 59.2 14.8l1.9-.6-.2 1.9c-11.8 95.7-16.4 180.2-17 191.5z"/><path d="M482.6 440.2l6.8-35.1s8.5-23.8 9.9-49.9c0 0 6-25.5 8.8-49.1l-17.8 135.8 270.7-4.5.6-229s-10.8-29.5-17-49.3c0 0-15.3-49.9-20.4-73.7-1.4-6.7-3.1-14-5.2-21.5-5.4-19.4-75.4 12.7-90.1-1.1C608.5 43.4 664-12.8 664-12.8l-87.9 3.4s27.2 59.2 9.1 81.1C572.5 87 516.4 42.4 509 65.9c-3.2 10.1-6.4 21.9-10.3 35.9-12.8 46.5-15.6 53.9-21.3 63.5-5.7 9.6-7.9 18.7-16.4 27.8-8.5 9.1-33.1 39.7-33.1 39.7l9.3 205.2 45.4 2.2z" clip-path="url(#SVGID_2_)" fill="#e8442f"/><path class="st1" d="M488.8 443.2l8-60.6c-2.7 12.7-5.8 21.8-6.2 22.9l-7 36.1-47.6-2.4-9.4-206.8.3-.4c.2-.3 24.8-30.8 33.2-39.8 5.5-5.9 8.3-11.8 11.3-18 1.5-3.1 3-6.3 5-9.6 5.7-9.6 8.5-17.1 21.2-63.2 3.9-14.1 7.1-25.7 10.3-35.9 1-3.1 2.8-5.3 5.4-6.6 7.8-3.8 21.3 1.4 35.6 6.9 14.8 5.7 30 11.5 35.4 5.1 17.4-21-9-79.2-9.2-79.8l-.8-1.7 92.9-3.6-2.2 2.3c-.4.4-39.7 40.4-39.3 63.6.1 4.2 1.4 7.5 4.1 10 6.5 6.2 25.8 2.4 44.5-1.2 22-4.3 42.8-8.3 46 2.9 2.2 7.8 3.8 15.3 5.2 21.6 5 23.5 20.2 73.1 20.4 73.6 6.2 19.6 16.9 49 17 49.3l.1.2v.2l-.6 230.3-273.6 4.6zM508.5 313l-16.8 127.7 268-4.5.6-227.6c-1-2.7-11.1-30.4-17-49.2-.2-.5-15.4-50.2-20.4-73.8-1.3-6.3-3-13.7-5.1-21.5-2.5-9-23.1-5-43.1-1.2-20.2 3.9-39.2 7.6-46.7.6-3.2-3-4.8-7-4.9-11.8-.4-21.3 29.4-54.2 37.8-63.1L578-8.2c4.4 10.1 25 60.3 8.1 80.7-6.5 7.8-21.9 1.9-38.2-4.4-13.2-5.1-26.8-10.3-33.7-7-2 1-3.3 2.6-4.1 5.1-3.2 10.2-6.4 21.8-10.3 35.9-12.8 46.4-15.6 53.9-21.4 63.8-1.9 3.2-3.4 6.3-4.9 9.4-3.1 6.4-6 12.4-11.8 18.6-7.9 8.4-30 35.7-32.8 39.2l9.3 203.6 43.1 2.2 6.6-34.3c.1-.2 8.5-23.9 9.8-49.5v-.2c.1-.2 4.9-21.1 7.9-42.3l.9-6.7 2.5.3c.1 2.3-.2 4.5-.5 6.8z"/><path class="st4" d="M520 112.5s-15.3-2.8-22.1-8.5l-13 43.7 35.1 17.6v-52.8z"/><path class="st5" d="M521.3 167.3l-37.9-18.9 13.9-46.5 1.5 1.2c6.5 5.4 21.4 8.2 21.5 8.2l1 .2v55.8zM486.4 147l32.4 16.2v-49.7c-3.3-.7-13.8-3.1-20.2-7.5l-12.2 41z"/><defs><path id="SVGID_3_" d="M0 0h749.9v428H0z"/></defs><clipPath id="SVGID_4_"><use xlink:href="#SVGID_3_" overflow="visible"/></clipPath><path d="M508.1 66.6s7.4 11.3 70.9 17l-2.3 129.3s-43.1-6.2-53.9-10.2c0 0-.6 16.4-4 42s-5.7 36.3-5.7 36.3 11.6 1.2 34.3 4c22.7 2.8 28.1 4.2 28.1 4.2l-1.7 52.4s-40.8-29.5-60.7-59c0 0-9.6 40.6-14.2 71.7 0 0 43.8 38.1 123.2 81.7l28.9-2s16.7-34 27.2-51.3c0 0-16.4.3-34.8-6 0 0-2.6-59.5.8-86.7l9.1-55.6 11.9 1.7 27.2 195h64.4L753 268.4s-9.6-52.1-15.3-75.7c0 0-75.9 11-94.4 12.2 0 0 1.4-77.1.3-120.8 0 0 63.5-6.8 74.8-21.8 0 0-8.2-49.6-45.9-65.5l-116.2.4s-21.5-2-48.2 69.4z" clip-path="url(#SVGID_4_)" fill="#bd6920"/><path d="M621.9 437.4l-.3-.2c-62.9-34.6-108.2-68.7-123.4-81.9l-.5-.4.1-.7c4.5-30.9 14.1-71.5 14.2-71.9l.1-.3h-.4l.3-1.4c0-.1 2.3-11 5.7-36.2 3.4-25.1 4-41.7 4-41.8l.1-1.7 1.6.6c9.4 3.5 44.7 8.8 52.2 9.9l2.2-126.7c-49.7-4.5-67.8-13.1-70.6-17.5l-.3-.5.2-.6c26-70.1 47.6-70.3 49.2-70.2l116.4-.3.2.1c37.9 16 46.6 65.9 46.7 66.4l.1.5-.3.4c-10.8 14.3-65.6 21.2-74.6 22.2 1 40.2-.1 107.9-.3 118.3 20.3-1.5 92.2-12 92.9-12.1l1.1-.2.3 1.1c5.6 23.3 15.2 75.2 15.3 75.7v.2l3.7 164h-66.7l-27.1-195-9.8-1.4-8.9 54.3c-3.1 25-1.1 78.2-.8 85.6 17.7 5.8 33.5 5.6 33.6 5.6h2.3l-1.2 1.9c-10.4 17.1-27 50.9-27.2 51.2l-.3.6-29.8 2.4zm-121.5-83.6c15.6 13.4 60.3 46.9 122.1 81l27.7-2c2.3-4.6 16.2-32.7 25.8-48.9-5.1-.2-18.5-1.1-33.1-6l-.8-.3v-.9c0-.6-2.5-59.9.8-86.9l9.3-56.8 14.1 2 27.2 194.9h62l-3.7-161.3c-.5-2.5-9.5-51.2-15-74.4-9.5 1.4-76.3 11-93.3 12l-1.4.1v-1.4c0-.8 1.4-77.6.3-120.7V83l1.1-.1c.6-.1 61.9-6.8 73.6-20.9-1-5.4-10.5-49.3-44.8-63.9l-116 .3h-.1c-.2 0-21-.5-46.6 67.9 3.8 4 22.4 11.8 69.6 16l1.2.1-2.3 131.8-1.4-.2c-1.7-.2-39.7-5.8-52.5-9.7-.2 4.8-1.1 19.7-3.9 40.4-2.7 20.3-4.7 31.4-5.4 35 3.7.4 14.9 1.6 33 3.9 22.5 2.8 28 4.2 28.2 4.3l1 .3-1.8 55.8-1.9-1.4c-.4-.3-39.1-28.4-59.4-56.9-2.4 9.5-9.8 42.1-13.6 68.1zm14.1-71.5c17.1 25.2 50 50.7 58.2 56.8l1.6-49c-2.4-.5-9.6-1.8-26.9-4-18-2.2-29.1-3.4-32.9-3.8z" clip-path="url(#SVGID_4_)" fill="#964900"/><path class="st4" d="M726.9 96.6s-3.7 4-18.1 4l-2.8 46.5s20.4-1.7 32.3-8.2l-11.4-42.3z"/><path class="st5" d="M704.6 148.5l3-49.1h1.2c13.5 0 17.2-3.6 17.2-3.6l1.5-1.5.6 2.1 11.6 43.2-.9.5c-12 6.6-32 8.3-32.8 8.4h-1.4zm5.4-46.6l-2.7 43.9c4.7-.5 19.7-2.5 29.5-7.5l-10.6-39.6c-2.2 1.3-7 3-16.2 3.2z"/><defs><path id="SVGID_5_" d="M0 0h749.9v428H0z"/></defs><clipPath id="SVGID_6_"><use xlink:href="#SVGID_5_" overflow="visible"/></clipPath><path d="M495.1 413l28.9 25.5h102.6s-51-27.2-82.2-52.2c-31.2-24.9-44.5-36.3-44.5-36.3l-4.8 63z" clip-path="url(#SVGID_6_)" fill="#5e5e9f"/><path d="M626.6 439.8H523.5l-29.7-26.2 5.1-66 1.9 1.6c.1.1 13.7 11.6 44.5 36.2 30.7 24.6 81.5 51.8 82 52l-.7 2.4zm-102.1-2.5h97.2c-13-7.2-52.4-29.4-78.1-49.9-24.4-19.5-38-30.8-42.7-34.7l-4.6 59.9 28.2 24.7z" clip-path="url(#SVGID_6_)" fill="#964900"/><path class="st10" d="M577.6 289.4s50.2 5.3 66 9.6l26.6-17.6-5.1-45.4-12.5-2.3c.1.1-34.8 22.9-75 55.7z"/><path class="st5" d="M643.8 300.4l-.5-.1c-15.6-4.2-65.4-9.5-65.9-9.6l-3-.3 2.3-1.9c39.8-32.5 74.9-55.4 75.2-55.7l.4-.3 13.9 2.5 5.3 47-27.7 18.4zm-63.1-11.9c11 1.2 48.5 5.5 62.7 9.2l25.5-16.8-4.9-43.7-11.1-2c-3.9 2.6-35.8 23.7-72.2 53.3z"/><defs><path id="SVGID_7_" d="M0 0h749.9v428H0z"/></defs><clipPath id="SVGID_8_"><use xlink:href="#SVGID_7_" overflow="visible"/></clipPath><path class="st11" d="M34.2 267.3s43.1-14.4 70.9-23.2c0 0 1.4-28.9.6-155.9 0 0-21 5.1-48.2 1.7-27.2-3.4-35.1-6.8-40.5-13.3 0 0 19-63.2 80.8-81.4 0 0 19.3 17 45.9 16.2 26.6-.9 31.7-6 39.1-12.2 0 0 42 28.9 51 44.2s11.9 35.1 11.9 35.1-10.2 4.5-31.2 5.1c-21 .6-28.9-2.8-28.9-2.8l2.8 139.5s36.9-11.6 56.1-18.1l3.4 2-52.2 105.2-4 1.7 2.3 128.4-82.8.3s.3-68.6 1.1-99.5l-84.2 32v6.8l-7.1-6.2 6.2-15.3s-.6-15.3 1.1-25.5c1.7-10.2 0-16.4 2.6-24.4 2.7-8.1 3.3-40.4 3.3-40.4z"/><path class="st12" d="M110 440.9v-1.3c0-.7.3-66.2 1.1-97.6l-81.6 31v8.7l-9.9-8.6 6.5-15.9c-.1-2.2-.4-15.9 1.2-25.5.7-4.4.8-8 .9-11.5.1-4.4.2-8.5 1.7-13.1 2.4-7.7 3-39.6 3-39.9v-.9l.8-.3c.4-.1 42.6-14.2 70-23 .2-5.7 1.3-40.6.5-153.4-5.2 1.2-24 4.4-47 1.5-28.4-3.5-35.9-7.3-41.3-13.8l-.4-.5.2-.6c0-.2 4.9-16.2 17.4-34.2C44.6 25.3 65 3.4 97.3-6l.7-.2.5.5c.2.2 19.3 16.7 45.1 15.9 25.3-.8 30.7-5.4 37.6-11.3l1.5-1.3.8.5c1.7 1.2 42.3 29.2 51.4 44.6 9.1 15.3 12 34.8 12.1 35.6l.1.9-.9.4c-.4.2-10.7 4.6-31.7 5.2-15.8.4-24.3-1.4-27.7-2.3l2.8 136c7.3-2.3 37.7-11.9 54.5-17.6l.5-.2 4.9 2.9-52.9 106.6-3.6 1.6 2.3 128.9-85.3.2zm3.7-102.6l-.1 1.9c-.8 28.2-1.1 88.7-1.1 98.2l80.2-.3-2.3-128 4.3-1.9 51.4-103.7-1.9-1.1c-19.2 6.5-55.2 17.9-55.6 18l-1.6.5-2.9-143.1 1.8.8c.1 0 8 3.3 28.4 2.7 17-.5 26.9-3.6 29.8-4.6-.7-4.1-3.9-20.7-11.6-33.7-8.2-13.8-44.1-39.2-49.9-43.3-7.2 6.2-13 11-39.1 11.9-24.7.8-42.9-13.2-46.3-16-56.6 17-76.9 73.1-79.1 79.7 4.9 5.7 12.5 9 39.3 12.3 26.6 3.3 47.5-1.6 47.7-1.7l1.5-.4v1.6c.8 125.6-.6 155.7-.6 156v.9l-.8.3c-25.3 8-63.9 20.9-70 23-.1 5.4-.8 32.4-3.1 39.7-1.4 4.3-1.5 8-1.6 12.4-.1 3.4-.2 7.2-1 11.8-1.7 10-1.1 25.1-1.1 25.3v.3l-6 14.7 4.4 3.8v-4.9l.8-.3 86.1-32.8z"/><path class="st11" d="M4.1 111.4s17.6.6 28.3 2.8l2.3 41.7-42-2.6 11.4-41.9z"/><path class="st12" d="M36 157.2l-44.9-2.7 12-44.4h1c.7 0 17.8.6 28.6 2.9l.9.2 2.4 44zm-41.6-5l39 2.4-2.1-39.3c-9.1-1.8-22.5-2.4-26.2-2.6l-10.7 39.5z"/><path class="st4" d="M252.4 108l-8.8-1.1v44.8s11 0 17.3-2.3l-8.5-41.4z"/><path class="st5" d="M243.7 152.9h-1.2v-47.5l11.1 1.4 8.9 43.3-1 .4c-6.5 2.4-17.4 2.4-17.8 2.4zm1.2-44.6v42.1c2.8-.1 9.8-.4 14.6-1.8l-8.1-39.4-6.5-.9z"/><path class="st4" d="M303.4 164.7s1.7 29.5 15.3 39.7l28.3-19.8s-9-6.8-12.7-18.1c-3.7-11.3-2.8-13.3-2.8-13.3l-2.8-2.6-25.3 14.1z"/><path class="st5" d="M318.7 205.9l-.7-.5c-13.9-10.4-15.7-39.4-15.8-40.6v-.8l26.7-15 4.2 3.8-.3.7c-.1.4-.3 3 2.8 12.5 3.5 10.8 12.2 17.5 12.3 17.5l1.4 1-30.6 21.4zm-13.9-40.5c.4 4.6 2.9 28.2 14 37.4l26.2-18.4c-2.7-2.4-8.9-8.6-11.9-17.7-2.6-8-3.1-11.6-3-13.2l-1.7-1.5-23.6 13.4z"/><defs><path id="SVGID_9_" d="M0 0h749.9v428H0z"/></defs><clipPath id="SVGID_10_"><use xlink:href="#SVGID_9_" overflow="visible"/></clipPath><path d="M245.6 276.9s41.8-33 61.4-56.5c0 0 .7 25.6 2.7 51.4 2 25.8 5.7 56.1 7.7 81.1 2 24.9 5.4 63.5 7.1 78.2h-68s-2.3-28.6-5.1-72.6c-2.9-43.9-5.8-81.6-5.8-81.6z" clip-path="url(#SVGID_10_)" fill="#bd6920"/><path d="M325.8 432.4h-70.6l-.1-1.2c0-.3-2.3-29.2-5.1-72.6-2.8-43.4-5.6-81.2-5.7-81.6v-.7l.5-.4c.4-.3 41.9-33.2 61.2-56.4l2.1-2.6.1 3.3c0 .3.7 25.9 2.7 51.4 1 13.1 2.5 27.6 3.9 41.5 1.4 13.4 2.8 27.3 3.8 39.5 2 25.3 5.4 63.6 7.1 78.2l.1 1.6zm-68.3-2.5H323c-1.7-15.6-5-52.4-6.9-76.9-1-12.2-2.4-26.1-3.7-39.5-1.4-14-2.9-28.4-3.9-41.6-1.6-20.2-2.3-40.5-2.6-48.3-18.9 21.7-54.2 50.1-58.9 53.8.4 5.2 3 40.7 5.6 81 2.4 38.6 4.5 65.7 4.9 71.5z" clip-path="url(#SVGID_10_)" fill="#964900"/><path class="st10" d="M266.6 171.5s25.2-7.9 38-7.1c0 0-7.4 21.8-20.4 54.7-13 32.9-22.7 59.5-24.9 62.4-2.3 2.8-8.5 6.8-28.9 14.7-20.4 7.9-44.2 16.4-44.2 16.4s8.5-21 27.8-55.6c19.1-34.5 28.8-55.5 52.6-85.5z"/><path class="st5" d="M183.9 314.8l1-2.6c.1-.2 8.8-21.4 27.8-55.7 3.7-6.7 7.1-12.8 10.3-18.8 13-23.9 23.3-42.7 42.5-67l.2-.3.4-.1c1-.3 25.6-8 38.4-7.1l1.6.1-.5 1.5c-.1.2-7.5 22.2-20.4 54.8-4.6 11.6-8.7 22.3-12.4 31.8-7.5 19.5-11.2 29-12.7 30.9-2.1 2.6-7.3 6.5-29.4 15.1-20.2 7.9-44 16.4-44.3 16.5l-2.5.9zm83.4-142.2c-19 24-28.7 41.8-42.1 66.4-3.2 5.9-6.6 12.1-10.3 18.8-15.2 27.2-23.7 46.2-26.6 52.8 6.8-2.5 25.3-9.2 41.5-15.5 17-6.6 25.7-11 28.4-14.4 1.3-1.7 6.2-14.3 12.4-30.3 3.6-9.4 7.8-20.2 12.4-31.8 10.9-27.5 17.9-47.4 19.8-53h-.3c-11.9 0-32.2 6.1-35.2 7z"/><path class="st15" d="M330.7 154.5s4.3-4.6 8-14.8c3.7-10.2 5.1-19.3 15.3-23.2 10.2-4 11.6-2.6 17.3-4.3s9.3-4 12.5-8.5c0 0 2.9 2.6 1.7 6.2-1.2 3.7-7.4 8.8-17 10.5-9.6 1.7-13 6.2-13 6.2s1.4 10.8-4.3 20.7v32l-9.6.3c-.1.1-10.7-11-10.9-25.1z"/><path class="st5" d="M340.9 181l-.4-.4c-.4-.5-10.8-11.6-11.1-26v-.5l.4-.4c.1-.1 4.2-4.6 7.7-14.3.6-1.5 1.1-3 1.5-4.5 2.8-8.5 5.3-15.9 14.5-19.5 6.5-2.5 9.6-2.9 12.3-3.3 1.6-.2 3-.4 5.1-1 5.6-1.7 9-3.9 11.8-8l.8-1.2 1.1.9c.1.1 3.5 3.1 2.1 7.5-1.3 4.2-8.1 9.6-18 11.4-7.4 1.3-11 4.4-12 5.4.2 2.4.6 11.7-4.3 20.6v32.9l-11.5.4zm-9-26.1c.4 11.8 8.3 21.4 10.1 23.5l7.8-.2v-31.1l.2-.3c5.4-9.4 4.1-19.8 4.1-19.9l-.1-.5.3-.4c.2-.2 3.8-5 13.8-6.7 9.5-1.7 15.1-6.6 16.1-9.6.5-1.6 0-2.9-.5-3.8-3 3.8-6.6 6-12.2 7.7-2.2.7-3.8.9-5.5 1.1-2.7.3-5.5.7-11.7 3.1-8.1 3.2-10.3 9.7-13 17.9-.5 1.5-1 3-1.6 4.6-3 8.6-6.6 13.3-7.8 14.6z"/><path class="st15" d="M401 107.1s2.8.9 2.8 5.4-2.9 7.4-2.9 7.4 2.8 0 3.7 3.1c.9 3.1-.3 5.1-3.1 8 0 0 2.6 1.1 2.3 5.1-.3 4-3.7 6.5-3.7 6.5s2.3 1.7 2.3 5.4-6.3 7.9-10.2 9.9c-3.9 2-6 4.1-7.4 1.3-1.4-2.8 1.1-6.6 1.1-6.6s-2 .3-2.8-2.3c-.9-2.6-.3-5.8 3.4-8.4 0 0-3.7 1.3-4.3-2.4-.3-2-.3-5.4 2.8-7.6 0 0-6-2-2-7.1 4.1-5.2 10-8 18-17.7z"/><defs><path id="SVGID_11_" d="M0 0h749.9v428H0z"/></defs><clipPath id="SVGID_12_"><use xlink:href="#SVGID_11_" overflow="visible"/></clipPath><path class="st16" d="M386.6 161.8c-.3 0-.6 0-.8-.1-.8-.3-1.5-.9-2-1.9-1.1-2.2-.3-4.8.4-6.4-.8-.4-1.7-1.3-2.2-2.7-.9-2.7-.3-5.4 1.5-7.6-.2-.1-.3-.1-.5-.2-.7-.4-1.6-1.3-1.9-3.1-.5-3 .2-5.6 1.9-7.5-.9-.6-1.8-1.5-2.2-2.8-.5-1.6 0-3.4 1.4-5.3 1.8-2.3 4-4.2 6.5-6.4 3.3-2.8 7-5.9 11.4-11.3l.5-.6.8.2c.2 0 3.7 1.2 3.7 6.6 0 2.9-1.1 5.2-2 6.7 1.1.6 2.3 1.6 2.8 3.5.9 3.3-.2 5.6-2.5 8.2.9.9 1.9 2.6 1.7 5.3-.2 3-2 5.3-3.2 6.5.8 1 1.7 2.7 1.7 5.3 0 5.4-9.8 10.5-10.9 11-.8.4-1.6.8-2.2 1.2-1.5.7-2.7 1.4-3.9 1.4zm1.9-10.9l-1.6 2.3c-.6.9-1.9 3.6-1.1 5.4.3.6.5.7.5.7.4.1 1.7-.6 2.8-1.2.7-.4 1.5-.8 2.3-1.3 4.6-2.3 9.5-6.2 9.5-8.8 0-3-1.7-4.3-1.8-4.3l-1.4-1 1.4-1s3-2.3 3.2-5.6c.2-3-1.5-3.8-1.6-3.9l-1.6-.8 1.2-1.3c2.8-2.8 3.4-4.4 2.8-6.8-.6-2.2-2.5-2.2-2.5-2.2h-3l2.2-2.1s2.5-2.6 2.5-6.5c0-2.2-.7-3.3-1.3-3.8-4.3 5-8 8.2-11 10.7-2.4 2.1-4.5 3.8-6.2 6-.9 1.2-1.3 2.2-1 3 .3 1.2 1.9 1.9 2.4 2.1l2.3.8-1.9 1.4c-2 1.4-2.8 3.6-2.3 6.4.1.7.3 1.1.7 1.4.6.4 1.6.1 1.9.1l1.1 2.2c-2.7 1.9-3.8 4.4-2.9 7 .5 1.6 1.5 1.4 1.5 1.4l2.9-.3zM433.5 432.6h-5c.6-116.2-7.3-161.8-7.3-162.3l4.9-.9c.1.5 2 11.6 3.9 37.4 1.8 23.7 3.8 64.8 3.5 125.8z"/><path d="M431 225.6s15.9 16.5 19 55c3.1 38.5 6 76.8 4.3 151.6h-17.8s.3-66.3-3.7-121.3-13.3-72.6-13.3-72.6l11.5-12.7z" clip-path="url(#SVGID_12_)" fill="#bd6920"/><path class="st16" d="M455.5 433.5h-20.3v-1.3c0-.7.2-66.9-3.7-121.2-3.9-53.9-13.1-71.9-13.2-72.1l-.4-.8 13.1-14.4.9 1c.7.7 16.2 17.2 19.3 55.8 2.8 34.8 6 74.3 4.3 151.8v1.2zm-17.8-2.5H453c1.7-76.5-1.5-115.7-4.3-150.3-2.6-32.4-14.4-49.1-17.8-53.2l-10.1 11.1c1.8 4 9.5 23.3 13.1 72.3 3.7 50.2 3.8 110.7 3.8 120.1z"/><path class="st15" d="M415.4 241.5s-15.6 9.1-25.5 15.3c-9.9 6.2-16.2 7.9-24.1 16.7-7.9 8.8-11.6 14.2-13.3 28.4-1.7 14.2-.6 15.6-.6 15.6s-1.6 5.4 1.3 19c0 0-.8 6.2-2 12.2-1.1 6-3.2 10.5-1.3 12.5 2 2 3.7-.6 6.5-13 2.8-12.5 6-24.4 15.9-33.2 9.9-8.8 14.5-11.1 28.9-11.9 0 0-3.1 6.8-4.5 14.5 0 0-5.1 5.1-7.9 11.6-2.8 6.5-3.4 11.1.3 13.9 0 0 1.4 2 3.1-4.2 1.7-6.3 5.4-11.4 8.8-15 3.4-3.7 8.7-11.6 12.2-19 3.4-7.4 5.4-13.9 7.9-20.4 2.6-6.5 3.7-8.5 2.8-15-.8-6.7-2-17.8-8.5-28z"/><path class="st5" d="M351.1 363c-.6 0-1.3-.2-2-1-1.9-1.9-1.1-5.1-.1-9.1.3-1.4.7-2.9 1-4.5 1-5.2 1.8-10.8 1.9-11.9-2.3-11.3-1.7-17.1-1.3-18.8h-.1c0-.1.1-.2.1-.3-.6-2.8 0-9.8.7-15.6 1.7-14.5 5.7-20.2 13.6-29 5.8-6.4 10.8-9.2 16.6-12.4 2.4-1.3 4.9-2.7 7.7-4.5 9.8-6.2 25.4-15.2 25.5-15.3l1-.6.6 1c6.3 9.9 7.7 20.8 8.6 27.2l.1 1.1c.8 6.3-.2 8.7-2.3 14.1l-.6 1.5c-.9 2.3-1.7 4.5-2.6 6.9-1.6 4.3-3.2 8.8-5.4 13.6-3.5 7.6-9 15.6-12.4 19.3-4.3 4.7-7.2 9.6-8.5 14.5-1 3.6-2 5.2-3.4 5.4-.8.1-1.4-.2-1.8-.6-4.7-3.7-2.9-9.8-.6-15.3 2.5-5.9 6.8-10.5 7.9-11.7 1-5.2 2.7-10 3.7-12.5-12.7.9-17 3.4-26.1 11.5-9.4 8.3-12.6 19.6-15.5 32.5-2.6 11.5-4.1 14-6 14.5.1-.1-.1 0-.3 0zm3.2-27.2c0 .1 0 .2.1.4v.4c0 .1-.9 6.3-2 12.3-.3 1.7-.7 3.3-1.1 4.7-.8 3.1-1.4 5.8-.5 6.7l.2.2c.5-.4 1.8-2.4 4.2-12.6 3-13.3 6.3-25 16.3-33.8 10-8.8 14.8-11.3 29.7-12.2l2.1-.1-.9 1.9c0 .1-3.1 6.8-4.4 14.2l-.1.4-.3.3s-5 5-7.7 11.2c-2.8 6.5-2.9 10.1-.3 12.2.3-.4.8-1.3 1.3-3.4 1.5-5.3 4.5-10.6 9.1-15.6 3.2-3.5 8.5-11.3 12-18.7 2.2-4.7 3.8-9.1 5.3-13.4.9-2.4 1.7-4.6 2.6-7l.6-1.5c2.1-5.3 2.9-7.2 2.1-12.9l-.1-1.1c-.8-6.4-2.1-16.1-7.5-25.2-3.7 2.1-16.1 9.4-24.4 14.7-2.9 1.8-5.4 3.2-7.8 4.6-5.9 3.3-10.5 5.8-16 11.9-5.9 6.5-9.4 11.1-11.4 19 5-8.6 11.5-14.6 11.8-15l1.7 1.8c-.1.1-10.2 9.4-14.6 21.2l-.4-.2c0 .2-.1.5-.1.7-.5 3.9-.7 6.8-.8 9 7.7-18 19.9-26.5 20.5-26.9l1.4 2.1c-.1.1-14.5 10.1-21.5 31l.1.1-.2.6s-.9 3.6.2 11.9c8.3-29.2 28.1-38 29-38.3l1 2.3c-.4.1-22.2 9.8-29.2 42.1z"/><path class="st15" d="M649 208.3s-5.7-6.2-13.3-13.9c-7.7-7.7-10.8-10.5-13.6-11.6-2.8-1.1-12.8-9.7-17.9-17.6 0 0-4 6.6 3.1 13.6 5.5 5.5 9.6 7.9 9.6 7.9l5.1 4.6-9.9 5.7s-9.9 0-14.5 2.8c0 0-7.6-3.7-13.9-4.2 0 0-8-4.6-14.8-8.2s-9.9-5.7-13.6-3.7c0 0-2.6 1.7 2.5 3.1 5.1 1.4 18.1 11.1 28.1 17.3 0 0-13.6-4.3-22.7-8.5-9.1-4.3-16.2-6.2-19-4.3 0 0-1.7 2 4.5 4s13.6 6.2 13.6 6.2 1.1 8.8 9 16.2 24.4 11.9 37.7 11.9c13.3 0 17.6-.6 37.4.8 0 0 2.6-5.1 2.8-12.5.6-7.3-.2-9.6-.2-9.6z"/><path class="st5" d="M646.7 231.7c-15.1-1.1-21.2-1-29-.9-2.5 0-5.2.1-8.4.1-12.6 0-29.9-4.2-38.6-12.3-7-6.5-8.9-14.1-9.3-16.3-1.8-1-7.8-4.2-12.9-5.8-3.3-1-5.1-2.3-5.5-3.8-.3-.9.1-1.7.4-2.1l.2-.2c3.1-2.1 9.7-.8 20.2 4.1 4 1.9 9 3.8 13.2 5.3l-1.8-1.2c-7.1-4.7-14.4-9.6-17.7-10.6-1.6-.4-3.8-1.2-4.1-3-.2-1.1.5-2 1.2-2.4 0 0 .1 0 .1-.1 4-2.2 7.3-.4 13.3 2.9l1.5.8c6.1 3.3 13.2 7.3 14.6 8.1 5.4.6 11.5 3.2 13.4 4 4.5-2.4 12.4-2.7 14.2-2.7l8.1-4.6-3.7-3.3c-.7-.4-4.6-2.9-9.8-8-4-4-4.7-7.9-4.6-10.4.1-2.8 1.2-4.7 1.3-4.8.2-.4.6-.6 1.1-.6.5 0 .8.2 1.1.6 5 7.8 14.8 16.1 17.3 17.1 3.1 1.2 6.2 4.1 14 11.9 7.6 7.6 13.3 13.9 13.4 13.9.1.1.2.3.3.4.1.3.9 2.7.6 10.1-.3 7.6-2.9 12.8-3 13-.2.5-.6.8-1.1.8zm-22.7-3.5c5.4 0 11.5.2 21.9.9.7-1.6 2.2-5.8 2.4-11.2.2-5.7-.2-8.3-.4-9-1.1-1.2-6.4-6.9-13.1-13.6-7.4-7.4-10.5-10.3-13.2-11.3-2.8-1.1-11.6-8.6-17.1-16.1-.5 2.2-.4 6 3.7 10.1 5.3 5.3 9.3 7.7 9.4 7.7.1 0 .1.1.2.1l5.1 4.6c.3.3.5.7.4 1.1s-.3.8-.6 1l-9.9 5.7c-.2.1-.4.2-.6.2-.1 0-9.6 0-13.8 2.6-.4.2-.8.3-1.2.1-.1 0-7.5-3.6-13.4-4.1-.2 0-.3-.1-.5-.2-.1 0-8-4.6-14.7-8.2l-1.5-.8c-5.9-3.2-8.2-4.3-10.8-3 .2.2.8.5 2.1.9 3.7 1 10.8 5.8 18.4 10.9 3.4 2.3 6.9 4.6 10 6.6.5.3.7 1 .5 1.6-.3.6-.9.9-1.5.7-.1 0-13.8-4.3-22.8-8.6-11.6-5.4-15.8-5.2-17.3-4.6.2.3 1 1.1 3.8 2 6.3 2 13.6 6.2 13.9 6.3.3.2.6.5.6.9 0 .1 1.2 8.5 8.7 15.4 7.2 6.7 22.7 11.6 36.9 11.6 3.2 0 5.9 0 8.4-.1 1.9-.1 3.9-.2 6-.2z"/><path class="st15" d="M106.2 176.3s6.5-1.4 15.3-9.1c8.8-7.7 11.1-10.8 20.1-16.2 9.1-5.4 17.6-12.2 20.1-16.4 2.6-4.2 3.7-5.1 4.5-2.8.9 2.3-1.1 10.2-9 15.6-8 5.4-13.3 10.5-13.3 10.5s5.4 3.4 10.8 8c0 0 16.2.3 22.4-.6 6.2-.8 14.2-3.7 20.1-7.4 6-3.7 11.1-7.9 14.2-6.5 3.1 1.4 1.4 3-1.1 4.4-2.6 1.4-19 12.3-19 12.3s10.5-4.3 17.3-7.7c6.8-3.4 10.5-5.7 12.5-3.4 2 2.3-1.9 5-5.5 6.7-3.7 1.7-8.6 6.4-8.6 6.4s-4.3 4.2-9.4 10.8c-5.1 6.5-12.8 12.2-27.2 14.5-14.5 2.3-30.9.6-43.7 2.3-12.8 1.7-15.6 2.3-15.6 2.3s-3-3.4-4.1-11.6c-1.3-8.4-.8-12.1-.8-12.1z"/><path class="st5" d="M110.5 201.2l-.5-.5c-.1-.2-3.2-3.8-4.4-12.3-1.1-8.3-.7-12.1-.7-12.2l.1-.9.9-.2c.1 0 6.4-1.5 14.8-8.8 2.4-2 4.2-3.8 5.9-5.3 4.6-4.2 7.7-7 14.4-11 9-5.4 17.3-12.1 19.7-16 2-3.3 3.2-4.8 4.7-4.6 1.3.1 1.9 1.5 2.1 2 1.1 3-1.1 11.4-9.5 17.1-5.7 3.8-10 7.5-12 9.3 1.9 1.3 5.5 3.8 9.2 6.9 2.6 0 16.3.2 21.8-.6 6.2-.8 13.9-3.7 19.6-7.2 1.2-.7 2.4-1.5 3.5-2.3 4.9-3.2 8.7-5.7 11.8-4.3.6.3 2.3 1.1 2.4 2.7.1 1.7-1.7 2.9-3.5 3.9-.9.5-3.8 2.3-7 4.4 1.4-.7 2.8-1.3 4.1-2 .8-.4 1.5-.8 2.2-1.1 5.9-3 9.4-4.7 11.8-2 .7.8 1 1.8.8 2.8-.5 2.5-4 4.5-6.7 5.8-3.4 1.6-8.2 6.1-8.3 6.2 0 0-4.3 4.2-9.3 10.6-6.4 8.2-15.3 12.9-28 14.9-7.9 1.2-16.2 1.3-24.3 1.4-7 .1-13.5.1-19.4.9-12.5 1.7-15.5 2.2-15.5 2.3l-.7.1zm-3.2-23.9c-.1 1.5 0 5 .8 10.8.8 5.9 2.6 9.2 3.4 10.4 1.5-.3 5.6-.9 14.9-2.1 6-.8 12.6-.9 19.7-.9 8-.1 16.3-.1 24-1.3 15.8-2.5 22.7-9.2 26.4-14 5.1-6.5 9.3-10.7 9.5-10.9.2-.2 5.2-4.9 9-6.6 3.4-1.6 5.1-3.2 5.3-4.1 0-.2 0-.3-.2-.6-1.1-1.2-3.6 0-8.8 2.6-.7.4-1.4.7-2.2 1.1-6.8 3.4-17.3 7.7-17.4 7.7l-1.2-2.2c.7-.4 16.5-11 19.1-12.4 1.6-.9 2-1.4 2.1-1.6-.1-.1-.3-.3-.9-.6-1.8-.8-5.5 1.6-9.4 4.1-1.1.8-2.3 1.5-3.6 2.3-6 3.7-14.1 6.7-20.6 7.5-6.3.8-21.9.6-22.6.6h-.4l-.3-.3c-5.3-4.4-10.6-7.8-10.6-7.9l-1.3-.9 1.2-1.1c.2-.2 5.6-5.2 13.5-10.6 7.7-5.2 9.2-12.6 8.6-14.1 0-.1 0-.1-.1-.2-.4.4-1 1.3-2.2 3.2-2.6 4.3-11.1 11.2-20.6 16.9-6.5 3.9-9.5 6.6-14 10.7-1.7 1.5-3.6 3.3-5.9 5.3-7.3 6.3-13 8.5-15.2 9.2z"/><path class="st18" d="M51.8 329.4c2.4 0 4.3-1.8 4.3-4.4 0-2.4-1.8-4.4-4.3-4.4s-4.3 1.9-4.3 4.4c0 2.6 1.8 4.4 4.3 4.4zM29.1 370.2c2.4 0 4.3-1.8 4.3-4.4 0-2.4-1.8-4.4-4.3-4.4-2.4 0-4.3 1.9-4.3 4.4 0 2.6 1.8 4.4 4.3 4.4zM47.5 360.3c2.4 0 4.3-1.8 4.3-4.4 0-2.4-1.8-4.4-4.3-4.4-2.4 0-4.3 1.9-4.3 4.4 0 2.6 1.9 4.4 4.3 4.4zM60 356c2.4 0 4.3-1.8 4.3-4.4 0-2.4-1.8-4.4-4.3-4.4-2.4 0-4.3 1.9-4.3 4.4 0 2.7 1.8 4.4 4.3 4.4zM81.5 348.7c2.4 0 4.3-1.8 4.3-4.4 0-2.4-1.8-4.4-4.3-4.4-2.4 0-4.3 1.9-4.3 4.4 0 2.6 1.9 4.4 4.3 4.4zM97.6 342.2c2.4 0 4.3-1.8 4.3-4.4 0-2.4-1.8-4.4-4.3-4.4-2.4 0-4.3 1.9-4.3 4.4.1 2.6 1.9 4.4 4.3 4.4zM121.2 334.8c2.4 0 4.3-1.8 4.3-4.4 0-2.4-1.8-4.4-4.3-4.4-2.4 0-4.3 1.9-4.3 4.4 0 2.6 1.9 4.4 4.3 4.4zM136.2 328.6c2.4 0 4.3-1.8 4.3-4.4 0-2.4-1.8-4.4-4.3-4.4s-4.3 1.9-4.3 4.4c.1 2.6 1.9 4.4 4.3 4.4zM155.8 322c2.4 0 4.3-1.8 4.3-4.4 0-2.4-1.8-4.4-4.3-4.4-2.4 0-4.3 1.9-4.3 4.4 0 2.7 1.8 4.4 4.3 4.4zM170.8 316.6c2.4 0 4.3-1.8 4.3-4.4 0-2.4-1.8-4.4-4.3-4.4-2.4 0-4.3 1.9-4.3 4.4 0 2.7 1.9 4.4 4.3 4.4zM41.3 324c2.4 0 4.3-1.8 4.3-4.4 0-2.4-1.8-4.4-4.3-4.4s-4.3 1.9-4.3 4.4c0 2.7 1.8 4.4 4.3 4.4z"/><path class="st18" d="M34.5 318.6c2.4 0 4.3-1.8 4.3-4.4 0-2.4-1.8-4.4-4.3-4.4-2.4 0-4.3 1.9-4.3 4.4 0 2.7 1.8 4.4 4.3 4.4zM60 317.8c2.4 0 4.3-1.8 4.3-4.4 0-2.4-1.8-4.4-4.3-4.4-2.4 0-4.3 1.9-4.3 4.4 0 2.6 1.8 4.4 4.3 4.4zM58.8 302.5c2.4 0 4.3-1.8 4.3-4.4 0-2.4-1.8-4.4-4.3-4.4-2.4 0-4.3 1.9-4.3 4.4.1 2.6 1.9 4.4 4.3 4.4zM47.8 294c2.4 0 4.3-1.8 4.3-4.4 0-2.4-1.8-4.4-4.3-4.4-2.4 0-4.3 1.9-4.3 4.4 0 2.6 1.8 4.4 4.3 4.4zM39 303.6c2.4 0 4.3-1.8 4.3-4.4 0-2.4-1.8-4.4-4.3-4.4s-4.3 1.9-4.3 4.4c0 2.6 1.9 4.4 4.3 4.4zM71 304.2c2.4 0 4.3-1.8 4.3-4.4 0-2.4-1.8-4.4-4.3-4.4s-4.3 1.9-4.3 4.4c.1 2.6 1.9 4.4 4.3 4.4zM82.1 314.7c2.4 0 4.3-1.8 4.3-4.4 0-2.4-1.8-4.4-4.3-4.4-2.4 0-4.3 1.9-4.3 4.4 0 2.6 1.8 4.4 4.3 4.4zM77 292.6c2.4 0 4.3-1.8 4.3-4.4 0-2.4-1.8-4.4-4.3-4.4-2.4 0-4.3 1.9-4.3 4.4 0 2.6 1.8 4.4 4.3 4.4zM86.6 283.7c2.4 0 4.3-1.8 4.3-4.4 0-2.4-1.8-4.4-4.3-4.4-2.4 0-4.3 1.9-4.3 4.4 0 2.7 1.9 4.4 4.3 4.4zM97.7 288.6c2.4 0 4.3-1.8 4.3-4.4 0-2.4-1.8-4.4-4.3-4.4-2.4 0-4.3 1.9-4.3 4.4 0 2.6 1.9 4.4 4.3 4.4zM106.5 298.2c2.4 0 4.3-1.8 4.3-4.4 0-2.4-1.8-4.4-4.3-4.4s-4.3 1.9-4.3 4.4c0 2.7 1.8 4.4 4.3 4.4zM96.8 313.5c2.4 0 4.3-1.8 4.3-4.4 0-2.4-1.8-4.4-4.3-4.4-2.4 0-4.3 1.9-4.3 4.4 0 2.7 1.9 4.4 4.3 4.4zM115.5 287.7c2.4 0 4.3-1.8 4.3-4.4 0-2.4-1.8-4.4-4.3-4.4-2.4 0-4.3 1.9-4.3 4.4.1 2.7 1.9 4.4 4.3 4.4zM123.5 273.8c2.4 0 4.3-1.8 4.3-4.4 0-2.4-1.8-4.4-4.3-4.4-2.4 0-4.3 1.9-4.3 4.4 0 2.7 1.8 4.4 4.3 4.4zM138.5 275.8c2.4 0 4.3-1.8 4.3-4.4 0-2.4-1.8-4.4-4.3-4.4-2.4 0-4.3 1.9-4.3 4.4 0 2.7 1.9 4.4 4.3 4.4zM151.5 283.5c2.4 0 4.3-1.8 4.3-4.4 0-2.4-1.8-4.4-4.3-4.4-2.4 0-4.3 1.9-4.3 4.4 0 2.6 1.9 4.4 4.3 4.4zM143.1 294.3c2.4 0 4.3-1.8 4.3-4.4 0-2.4-1.8-4.4-4.3-4.4-2.4 0-4.3 1.9-4.3 4.4 0 2.6 1.8 4.4 4.3 4.4zM135.4 306.4c2.4 0 4.3-1.8 4.3-4.4 0-2.4-1.8-4.4-4.3-4.4-2.4 0-4.3 1.9-4.3 4.4 0 2.7 1.8 4.4 4.3 4.4zM121.8 299.3c2.4 0 4.3-1.8 4.3-4.4 0-2.4-1.8-4.4-4.3-4.4-2.4 0-4.3 1.9-4.3 4.4 0 2.7 1.9 4.4 4.3 4.4zM163.7 289.4c2.4 0 4.3-1.8 4.3-4.4 0-2.4-1.8-4.4-4.3-4.4-2.4 0-4.3 1.9-4.3 4.4 0 2.7 1.9 4.4 4.3 4.4zM177.1 293.1c2.4 0 4.3-1.8 4.3-4.4 0-2.4-1.8-4.4-4.3-4.4-2.4 0-4.3 1.9-4.3 4.4 0 2.7 1.8 4.4 4.3 4.4zM184.7 282.3c2.4 0 4.3-1.8 4.3-4.4 0-2.4-1.8-4.4-4.3-4.4-2.4 0-4.3 1.9-4.3 4.4 0 2.7 1.9 4.4 4.3 4.4zM196.9 273.5c2.4 0 4.3-1.8 4.3-4.4 0-2.4-1.8-4.4-4.3-4.4-2.4 0-4.3 1.9-4.3 4.4 0 2.7 1.9 4.4 4.3 4.4zM200.6 259.1c2.4 0 4.3-1.8 4.3-4.4 0-2.4-1.8-4.4-4.3-4.4-2.4 0-4.3 1.9-4.3 4.4 0 2.6 1.8 4.4 4.3 4.4zM207.9 246.9c2.4 0 4.3-1.8 4.3-4.4 0-2.4-1.8-4.4-4.3-4.4-2.4 0-4.3 1.9-4.3 4.4.1 2.6 1.9 4.4 4.3 4.4zM232.3 217.4c2.4 0 4.3-1.8 4.3-4.4 0-2.4-1.8-4.4-4.3-4.4s-4.3 1.9-4.3 4.4c.1 2.7 1.9 4.4 4.3 4.4zM182.7 266.7c2.4 0 4.3-1.8 4.3-4.4 0-2.4-1.8-4.4-4.3-4.4-2.4 0-4.3 1.9-4.3 4.4 0 2.7 1.9 4.4 4.3 4.4zM168.3 257.4c2.4 0 4.3-1.8 4.3-4.4 0-2.4-1.8-4.4-4.3-4.4-2.4 0-4.3 1.9-4.3 4.4 0 2.6 1.8 4.4 4.3 4.4zM197.7 227.6c2.4 0 4.3-1.8 4.3-4.4 0-2.4-1.8-4.4-4.3-4.4-2.4 0-4.3 1.9-4.3 4.4.1 2.7 1.9 4.4 4.3 4.4zM175.7 233.9c2.4 0 4.3-1.8 4.3-4.4 0-2.4-1.8-4.4-4.3-4.4-2.4 0-4.3 1.9-4.3 4.4 0 2.6 1.8 4.4 4.3 4.4zM161.2 238.7c2.4 0 4.3-1.8 4.3-4.4 0-2.4-1.8-4.4-4.3-4.4-2.4 0-4.3 1.9-4.3 4.4 0 2.6 1.8 4.4 4.3 4.4zM141.6 244.1c2.4 0 4.3-1.8 4.3-4.4 0-2.4-1.8-4.4-4.3-4.4-2.4 0-4.3 1.9-4.3 4.4.1 2.6 1.9 4.4 4.3 4.4zM128.3 248.3c2.4 0 4.3-1.8 4.3-4.4 0-2.4-1.8-4.4-4.3-4.4s-4.3 1.9-4.3 4.4c0 2.7 1.8 4.4 4.3 4.4zM108.4 254.3c2.4 0 4.3-1.8 4.3-4.4 0-2.4-1.8-4.4-4.3-4.4-2.4 0-4.3 1.9-4.3 4.4.1 2.6 1.9 4.4 4.3 4.4zM112.4 239.8c2.4 0 4.3-1.8 4.3-4.4 0-2.4-1.8-4.4-4.3-4.4-2.4 0-4.3 1.9-4.3 4.4 0 2.7 1.9 4.4 4.3 4.4zM112.4 229.1c2.4 0 4.3-1.8 4.3-4.4 0-2.4-1.8-4.4-4.3-4.4-2.4 0-4.3 1.9-4.3 4.4 0 2.6 1.9 4.4 4.3 4.4zM131.4 235c2.4 0 4.3-1.8 4.3-4.4 0-2.4-1.8-4.4-4.3-4.4-2.4 0-4.3 1.9-4.3 4.4 0 2.6 1.9 4.4 4.3 4.4zM137.6 225.6c2.4 0 4.3-1.8 4.3-4.4 0-2.4-1.8-4.4-4.3-4.4-2.4 0-4.3 1.9-4.3 4.4.1 2.7 1.9 4.4 4.3 4.4zM150.1 216.9c2.4 0 4.3-1.8 4.3-4.4 0-2.4-1.8-4.4-4.3-4.4-2.4 0-4.3 1.9-4.3 4.4.1 2.6 1.9 4.4 4.3 4.4zM160.6 206.1c2.4 0 4.3-1.8 4.3-4.4 0-2.4-1.8-4.4-4.3-4.4-2.4 0-4.3 1.9-4.3 4.4 0 2.6 1.9 4.4 4.3 4.4zM182.7 218.8c2.4 0 4.3-1.8 4.3-4.4 0-2.4-1.8-4.4-4.3-4.4-2.4 0-4.3 1.9-4.3 4.4.1 2.7 1.9 4.4 4.3 4.4zM161.4 227.1c2.4 0 4.3-1.8 4.3-4.4 0-2.4-1.8-4.4-4.3-4.4-2.4 0-4.3 1.9-4.3 4.4 0 2.6 1.9 4.4 4.3 4.4zM139.1 213.2c2.4 0 4.3-1.8 4.3-4.4 0-2.4-1.8-4.4-4.3-4.4-2.4 0-4.3 1.9-4.3 4.4 0 2.6 1.8 4.4 4.3 4.4zM129.6 207.5c2.4 0 4.3-1.8 4.3-4.4 0-2.4-1.8-4.4-4.3-4.4-2.4 0-4.3 1.9-4.3 4.4 0 2.7 1.8 4.4 4.3 4.4zM92.3 259.7c2.4 0 4.3-1.8 4.3-4.4 0-2.4-1.8-4.4-4.3-4.4s-4.3 1.9-4.3 4.4c0 2.6 1.8 4.4 4.3 4.4zM73.3 265.9c2.4 0 4.3-1.8 4.3-4.4 0-2.4-1.8-4.4-4.3-4.4S69 259 69 261.5c0 2.6 1.9 4.4 4.3 4.4zM60 270.4c2.4 0 4.3-1.8 4.3-4.4 0-2.4-1.8-4.4-4.3-4.4-2.4 0-4.3 1.9-4.3 4.4 0 2.7 1.8 4.4 4.3 4.4zM39.6 276.7c2.4 0 4.3-1.8 4.3-4.4 0-2.4-1.8-4.4-4.3-4.4s-4.3 1.9-4.3 4.4c0 2.6 1.8 4.4 4.3 4.4zM160.3 269.3c2.4 0 4.3-1.8 4.3-4.4 0-2.4-1.8-4.4-4.3-4.4s-4.3 1.9-4.3 4.4c0 2.6 1.9 4.4 4.3 4.4z"/><path class="st4" d="M80.1 179.4s10.2-.6 18.1-2.8l7.9-2.3s-1.4 22.7 8.5 28.3l-28.9 14.7c0 .1-6.8-13.2-5.6-37.9z"/><defs><path id="SVGID_13_" d="M0 0h749.9v428H0z"/></defs><clipPath id="SVGID_14_"><use xlink:href="#SVGID_13_" overflow="visible"/></clipPath><path class="st19" d="M85.2 219.1l-.6-1.1c-.3-.6-6.9-13.9-5.8-38.6l.1-1.1 1.1-.1c.1 0 10.2-.6 17.9-2.8l9.6-2.8-.1 1.8c0 .2-1.3 22 7.9 27.2l2 1.1-32.1 16.4zm-3.9-38.5c-.7 19.4 3.6 31.5 5.1 35.1l25.9-13.2c-7.2-6.2-7.5-21.3-7.4-26.5l-6.3 1.8c-6.6 1.8-14.4 2.6-17.3 2.8zM434.2 432.1c0-.7-1.2-69.2-4-123.5-1.4-27.8-5.4-45.1-8.4-54.7-3.3-10.4-6.3-14.4-6.3-14.4l3.9-3.1c.5.7 13 16.9 15.9 72 2.8 54.4 4 123 4 123.7h-5.1zm251.3-.8c-8.4-44.4-27.2-195.9-27.4-197.4l4.6-.6c-2.4-18.5-4-30.7-4-31.2l5-.6c.2 1.9 24.7 192.5 31.7 228.3l-4.9 1c0-.1-.1-.3-.1-.4l-4.9.9zm-11.1-110.1c4.7 35 9.9 72.6 13.8 96.5-3.5-21.7-8.7-59-13.8-96.5z"/><path class="st18" d="M180.7 150.5c2.4 0 4.3-1.8 4.3-4.4 0-2.4-1.8-4.4-4.3-4.4-2.4 0-4.3 1.9-4.3 4.4.1 2.7 1.9 4.4 4.3 4.4zM210.2 224.8c2.4 0 4.3-1.8 4.3-4.4 0-2.4-1.8-4.4-4.3-4.4-2.4 0-4.3 1.9-4.3 4.4 0 2.6 1.9 4.4 4.3 4.4zM291.3 250.3c2.4 0 4.3-1.8 4.3-4.4 0-2.4-1.8-4.4-4.3-4.4-2.4 0-4.3 1.9-4.3 4.4 0 2.7 1.8 4.4 4.3 4.4zM318.8 200.8c2.4 0 4.3-1.8 4.3-4.4 0-2.4-1.8-4.4-4.3-4.4s-4.3 1.9-4.3 4.4c0 2.7 1.8 4.4 4.3 4.4zM314.1 190.8c2.4 0 4.3-1.8 4.3-4.4 0-2.4-1.8-4.4-4.3-4.4-2.4 0-4.3 1.9-4.3 4.4 0 2.6 1.9 4.4 4.3 4.4zM309.9 177c2.4 0 4.3-1.8 4.3-4.4 0-2.4-1.8-4.4-4.3-4.4s-4.3 1.9-4.3 4.4c0 2.7 1.8 4.4 4.3 4.4zM251 148.3c2.4 0 4.3-1.8 4.3-4.4 0-2.4-1.8-4.4-4.3-4.4-2.4 0-4.3 1.9-4.3 4.4.1 2.6 1.9 4.4 4.3 4.4zM89.5 208.9c2.4 0 4.3-1.8 4.3-4.4 0-2.4-1.8-4.4-4.3-4.4-2.4 0-4.3 1.9-4.3 4.4 0 2.7 1.8 4.4 4.3 4.4zM86.6 191.9c2.4 0 4.3-1.8 4.3-4.4 0-2.4-1.8-4.4-4.3-4.4-2.4 0-4.3 1.9-4.3 4.4 0 2.7 1.9 4.4 4.3 4.4zM98 188.5c2.4 0 4.3-1.8 4.3-4.4 0-2.4-1.8-4.4-4.3-4.4-2.4 0-4.3 1.9-4.3 4.4 0 2.7 1.8 4.4 4.3 4.4zM103.3 204.4c2.4 0 4.3-1.8 4.3-4.4 0-2.4-1.8-4.4-4.3-4.4-2.4 0-4.3 1.9-4.3 4.4 0 2.6 1.9 4.4 4.3 4.4z"/><path class="st18" d="M251.6 142c2.4 0 4.3-1.8 4.3-4.4 0-2.4-1.8-4.4-4.3-4.4-2.4 0-4.3 1.9-4.3 4.4 0 2.7 1.9 4.4 4.3 4.4zM248.8 129c2.4 0 4.3-1.8 4.3-4.4 0-2.4-1.8-4.4-4.3-4.4s-4.3 1.9-4.3 4.4c0 2.6 1.8 4.4 4.3 4.4zM247.9 117.1c2.4 0 4.3-1.8 4.3-4.4 0-2.4-1.8-4.4-4.3-4.4-2.4 0-4.3 1.9-4.3 4.4.1 2.6 1.9 4.4 4.3 4.4zM316 171.5c2.4 0 4.3-1.8 4.3-4.4 0-2.4-1.8-4.4-4.3-4.4-2.4 0-4.3 1.9-4.3 4.4 0 2.7 1.8 4.4 4.3 4.4zM324.7 165.8c2.4 0 4.3-1.8 4.3-4.4 0-2.4-1.8-4.4-4.3-4.4-2.4 0-4.3 1.9-4.3 4.4.1 2.7 1.9 4.4 4.3 4.4zM330.1 176.6c2.4 0 4.3-1.8 4.3-4.4 0-2.4-1.8-4.4-4.3-4.4-2.4 0-4.3 1.9-4.3 4.4 0 2.7 1.9 4.4 4.3 4.4zM336.9 187.4c2.4 0 4.3-1.8 4.3-4.4 0-2.4-1.8-4.4-4.3-4.4-2.4 0-4.3 1.9-4.3 4.4 0 2.6 1.9 4.4 4.3 4.4zM324.7 194.2c2.4 0 4.3-1.8 4.3-4.4 0-2.4-1.8-4.4-4.3-4.4-2.4 0-4.3 1.9-4.3 4.4.1 2.6 1.9 4.4 4.3 4.4z"/><path class="st18" d="M330.1 189.1c2.4 0 4.3-1.8 4.3-4.4 0-2.4-1.8-4.4-4.3-4.4-2.4 0-4.3 1.9-4.3 4.4.1 2.6 1.9 4.4 4.3 4.4zM180.7 134.7c2.4 0 4.3-1.8 4.3-4.4 0-2.4-1.8-4.4-4.3-4.4-2.4 0-4.3 1.9-4.3 4.4.1 2.6 1.9 4.4 4.3 4.4zM271.4 267.9c2.4 0 4.3-1.8 4.3-4.4 0-2.4-1.8-4.4-4.3-4.4-2.4 0-4.3 1.9-4.3 4.4.1 2.6 1.9 4.4 4.3 4.4zM296.4 261.7c2.4 0 4.3-1.8 4.3-4.4 0-2.4-1.8-4.4-4.3-4.4-2.4 0-4.3 1.9-4.3 4.4 0 2.6 1.8 4.4 4.3 4.4zM286.2 272.1c2.4 0 4.3-1.8 4.3-4.4 0-2.4-1.8-4.4-4.3-4.4-2.4 0-4.3 1.9-4.3 4.4 0 2.7 1.8 4.4 4.3 4.4zM279.1 284.9c2.4 0 4.3-1.8 4.3-4.4 0-2.4-1.8-4.4-4.3-4.4-2.4 0-4.3 1.9-4.3 4.4 0 2.6 1.9 4.4 4.3 4.4zM267.7 298.5c2.4 0 4.3-1.8 4.3-4.4 0-2.4-1.8-4.4-4.3-4.4s-4.3 1.9-4.3 4.4c0 2.6 1.9 4.4 4.3 4.4zM297.5 286.6c2.4 0 4.3-1.8 4.3-4.4 0-2.4-1.8-4.4-4.3-4.4-2.4 0-4.3 1.9-4.3 4.4 0 2.6 1.9 4.4 4.3 4.4zM298.1 300.8c2.4 0 4.3-1.8 4.3-4.4 0-2.4-1.8-4.4-4.3-4.4-2.4 0-4.3 1.9-4.3 4.4 0 2.6 1.8 4.4 4.3 4.4zM277.1 307c2.4 0 4.3-1.8 4.3-4.4 0-2.4-1.8-4.4-4.3-4.4-2.4 0-4.3 1.9-4.3 4.4 0 2.6 1.9 4.4 4.3 4.4zM290.5 311.8c2.4 0 4.3-1.8 4.3-4.4 0-2.4-1.8-4.4-4.3-4.4-2.4 0-4.3 1.9-4.3 4.4 0 2.7 1.8 4.4 4.3 4.4zM282.2 324.6c2.4 0 4.3-1.8 4.3-4.4 0-2.4-1.8-4.4-4.3-4.4-2.4 0-4.3 1.9-4.3 4.4 0 2.6 1.9 4.4 4.3 4.4zM272 333.7c2.4 0 4.3-1.8 4.3-4.4 0-2.4-1.8-4.4-4.3-4.4-2.4 0-4.3 1.9-4.3 4.4 0 2.6 1.9 4.4 4.3 4.4zM299.8 326.9c2.4 0 4.3-1.8 4.3-4.4 0-2.4-1.8-4.4-4.3-4.4-2.4 0-4.3 1.9-4.3 4.4 0 2.6 1.8 4.4 4.3 4.4zM297 341.6c2.4 0 4.3-1.8 4.3-4.4 0-2.4-1.8-4.4-4.3-4.4-2.4 0-4.3 1.9-4.3 4.4 0 2.6 1.8 4.4 4.3 4.4zM280.5 343c2.4 0 4.3-1.8 4.3-4.4 0-2.4-1.8-4.4-4.3-4.4-2.4 0-4.3 1.9-4.3 4.4 0 2.6 1.9 4.4 4.3 4.4zM288.5 352.9c2.4 0 4.3-1.8 4.3-4.4 0-2.4-1.8-4.4-4.3-4.4s-4.3 1.9-4.3 4.4c0 2.7 1.8 4.4 4.3 4.4zM303.2 359.2c2.4 0 4.3-1.8 4.3-4.4 0-2.4-1.8-4.4-4.3-4.4-2.4 0-4.3 1.9-4.3 4.4 0 2.6 1.8 4.4 4.3 4.4zM306 372.8c2.4 0 4.3-1.8 4.3-4.4 0-2.4-1.8-4.4-4.3-4.4s-4.3 1.9-4.3 4.4c0 2.6 1.9 4.4 4.3 4.4zM289 380.1c2.4 0 4.3-1.8 4.3-4.4 0-2.4-1.8-4.4-4.3-4.4-2.4 0-4.3 1.9-4.3 4.4 0 2.7 1.9 4.4 4.3 4.4zM273.7 372.8c2.4 0 4.3-1.8 4.3-4.4 0-2.4-1.8-4.4-4.3-4.4s-4.3 1.9-4.3 4.4c0 2.6 1.9 4.4 4.3 4.4zM279.9 363.7c2.4 0 4.3-1.8 4.3-4.4 0-2.4-1.8-4.4-4.3-4.4s-4.3 1.9-4.3 4.4c.1 2.6 1.9 4.4 4.3 4.4zM298.9 388.6c2.4 0 4.3-1.8 4.3-4.4 0-2.4-1.8-4.4-4.3-4.4-2.4 0-4.3 1.9-4.3 4.4 0 2.7 1.9 4.4 4.3 4.4zM310.6 397.7c2.4 0 4.3-1.8 4.3-4.4 0-2.4-1.8-4.4-4.3-4.4-2.4 0-4.3 1.9-4.3 4.4 0 2.7 1.8 4.4 4.3 4.4zM308.9 409.6c2.4 0 4.3-1.8 4.3-4.4 0-2.4-1.8-4.4-4.3-4.4s-4.3 1.9-4.3 4.4c0 2.7 1.8 4.4 4.3 4.4zM296.4 422.4c2.4 0 4.3-1.8 4.3-4.4 0-2.4-1.8-4.4-4.3-4.4-2.4 0-4.3 1.9-4.3 4.4 0 2.6 1.8 4.4 4.3 4.4zM279.9 409.6c2.4 0 4.3-1.8 4.3-4.4 0-2.4-1.8-4.4-4.3-4.4s-4.3 1.9-4.3 4.4c.1 2.7 1.9 4.4 4.3 4.4zM287.6 396c2.4 0 4.3-1.8 4.3-4.4 0-2.4-1.8-4.4-4.3-4.4-2.4 0-4.3 1.9-4.3 4.4 0 2.7 1.9 4.4 4.3 4.4zM252.7 307.6c2.4 0 4.3-1.8 4.3-4.4 0-2.4-1.8-4.4-4.3-4.4-2.4 0-4.3 1.9-4.3 4.4.1 2.6 1.9 4.4 4.3 4.4zM253.6 322.3c2.4 0 4.3-1.8 4.3-4.4 0-2.4-1.8-4.4-4.3-4.4s-4.3 1.9-4.3 4.4c0 2.7 1.9 4.4 4.3 4.4zM256.4 343.9c2.4 0 4.3-1.8 4.3-4.4 0-2.4-1.8-4.4-4.3-4.4-2.4 0-4.3 1.9-4.3 4.4 0 2.6 1.8 4.4 4.3 4.4zM257.3 360c2.4 0 4.3-1.8 4.3-4.4 0-2.4-1.8-4.4-4.3-4.4-2.4 0-4.3 1.9-4.3 4.4 0 2.6 1.8 4.4 4.3 4.4zM259.5 383c2.3 0 4-1.8 4-4.4 0-2.4-1.7-4.4-4-4.4s-4 1.9-4 4.4c.1 2.6 1.8 4.4 4 4.4zM260.4 394.3c2.3 0 4-1.8 4-4.4 0-2.4-1.7-4.4-4-4.4s-4 1.9-4 4.4c0 2.7 1.7 4.4 4 4.4zM262.4 415.9c2.3 0 4-1.8 4-4.4 0-2.4-1.7-4.4-4-4.4s-4 1.9-4 4.4c0 2.6 1.7 4.4 4 4.4z"/><defs><path id="SVGID_15_" d="M0 0h749.9v428H0z"/></defs><clipPath id="SVGID_16_"><use xlink:href="#SVGID_15_" overflow="visible"/></clipPath><path d="M263.2 430c2.3 0 4-1.8 4-4.4 0-2.4-1.7-4.4-4-4.4s-4 1.9-4 4.4c0 2.7 1.7 4.4 4 4.4z" clip-path="url(#SVGID_16_)" fill="#c9813c"/><path class="st18" d="M154.4 161.7c2.4 0 4.3-1.8 4.3-4.4 0-2.4-1.8-4.4-4.3-4.4-2.4 0-4.3 1.9-4.3 4.4 0 2.7 1.8 4.4 4.3 4.4zM128 146.6c2.4 0 4.3-1.8 4.3-4.4 0-2.4-1.8-4.4-4.3-4.4-2.4 0-4.3 1.9-4.3 4.4 0 2.6 1.9 4.4 4.3 4.4zM112.6 157.3c2.4 0 4.3-1.8 4.3-4.4 0-2.4-1.8-4.4-4.3-4.4-2.4 0-4.3 1.9-4.3 4.4 0 2.7 1.8 4.4 4.3 4.4zM112.6 140.9c2.4 0 4.3-1.8 4.3-4.4 0-2.4-1.8-4.4-4.3-4.4-2.4 0-4.3 1.9-4.3 4.4 0 2.6 1.8 4.4 4.3 4.4zM111.9 116.2c2.4 0 4.3-1.8 4.3-4.4 0-2.4-1.8-4.4-4.3-4.4-2.4 0-4.3 1.9-4.3 4.4 0 2.7 1.8 4.4 4.3 4.4zM134.6 137.5c2.4 0 4.3-1.8 4.3-4.4 0-2.4-1.8-4.4-4.3-4.4-2.4 0-4.3 1.9-4.3 4.4 0 2.6 1.8 4.4 4.3 4.4zM138.2 125.6c2.4 0 4.3-1.8 4.3-4.4 0-2.4-1.8-4.4-4.3-4.4-2.4 0-4.3 1.9-4.3 4.4 0 2.6 1.9 4.4 4.3 4.4zM153 133.2c2.4 0 4.3-1.8 4.3-4.4 0-2.4-1.8-4.4-4.3-4.4-2.4 0-4.3 1.9-4.3 4.4 0 2.7 1.8 4.4 4.3 4.4zM153.5 121.9c2.4 0 4.3-1.8 4.3-4.4 0-2.4-1.8-4.4-4.3-4.4-2.4 0-4.3 1.9-4.3 4.4 0 2.6 1.9 4.4 4.3 4.4zM164.3 113.7c2.4 0 4.3-1.8 4.3-4.4 0-2.4-1.8-4.4-4.3-4.4-2.4 0-4.3 1.9-4.3 4.4 0 2.6 1.8 4.4 4.3 4.4zM179.9 113.7c2.4 0 4.3-1.8 4.3-4.4 0-2.4-1.8-4.4-4.3-4.4-2.4 0-4.3 1.9-4.3 4.4 0 2.6 1.9 4.4 4.3 4.4zM179 99.5c2.4 0 4.3-1.8 4.3-4.4 0-2.4-1.8-4.4-4.3-4.4s-4.3 1.9-4.3 4.4c.1 2.6 1.9 4.4 4.3 4.4zM156.4 107.7c2.4 0 4.3-1.8 4.3-4.4 0-2.4-1.8-4.4-4.3-4.4-2.4 0-4.3 1.9-4.3 4.4 0 2.7 1.8 4.4 4.3 4.4zM137.6 107.7c2.4 0 4.3-1.8 4.3-4.4 0-2.4-1.8-4.4-4.3-4.4-2.4 0-4.3 1.9-4.3 4.4.1 2.7 1.9 4.4 4.3 4.4zM112 100.6c2.4 0 4.3-1.8 4.3-4.4 0-2.4-1.8-4.4-4.3-4.4-2.4 0-4.3 1.9-4.3 4.4 0 2.7 1.8 4.4 4.3 4.4zM151.8 85.3c2.4 0 4.3-1.8 4.3-4.4 0-2.4-1.8-4.4-4.3-4.4-2.4 0-4.3 1.9-4.3 4.4 0 2.7 1.9 4.4 4.3 4.4zM140.2 85.9c2.4 0 4.3-1.8 4.3-4.4 0-2.4-1.8-4.4-4.3-4.4-2.4 0-4.3 1.9-4.3 4.4 0 2.6 1.8 4.4 4.3 4.4zM119.5 82.5c2.4 0 4.3-1.8 4.3-4.4 0-2.4-1.8-4.4-4.3-4.4-2.4 0-4.3 1.9-4.3 4.4 0 2.6 1.9 4.4 4.3 4.4zM109.3 77.4c2.4 0 4.3-1.8 4.3-4.4 0-2.4-1.8-4.4-4.3-4.4-2.4 0-4.3 1.9-4.3 4.4 0 2.6 1.9 4.4 4.3 4.4zM172.8 80.8c2.4 0 4.3-1.8 4.3-4.4 0-2.4-1.8-4.4-4.3-4.4-2.4 0-4.3 1.9-4.3 4.4 0 2.6 1.9 4.4 4.3 4.4zM183.6 73.7c2.4 0 4.3-1.8 4.3-4.4 0-2.4-1.8-4.4-4.3-4.4-2.4 0-4.3 1.9-4.3 4.4 0 2.6 1.8 4.4 4.3 4.4zM203.4 74c2.4 0 4.3-1.8 4.3-4.4 0-2.4-1.8-4.4-4.3-4.4-2.4 0-4.3 1.9-4.3 4.4 0 2.6 1.9 4.4 4.3 4.4zM213.9 74c2.4 0 4.3-1.8 4.3-4.4 0-2.4-1.8-4.4-4.3-4.4-2.4 0-4.3 1.9-4.3 4.4 0 2.6 1.9 4.4 4.3 4.4zM235.7 71.1c2.4 0 4.3-1.8 4.3-4.4 0-2.4-1.8-4.4-4.3-4.4-2.4 0-4.3 1.9-4.3 4.4 0 2.7 1.9 4.4 4.3 4.4zM222.4 46.8c2.4 0 4.3-1.8 4.3-4.4 0-2.4-1.8-4.4-4.3-4.4-2.4 0-4.3 1.9-4.3 4.4 0 2.6 1.9 4.4 4.3 4.4zM206.2 46.8c2.4 0 4.3-1.8 4.3-4.4 0-2.4-1.8-4.4-4.3-4.4-2.4 0-4.3 1.9-4.3 4.4.1 2.6 1.9 4.4 4.3 4.4zM201.7 34.3c2.4 0 4.3-1.8 4.3-4.4 0-2.4-1.8-4.4-4.3-4.4-2.4 0-4.3 1.9-4.3 4.4 0 2.7 1.9 4.4 4.3 4.4zM199.7 21.3c2.4 0 4.3-1.8 4.3-4.4 0-2.4-1.8-4.4-4.3-4.4-2.4 0-4.3 1.9-4.3 4.4 0 2.6 1.8 4.4 4.3 4.4zM177.3 21.3c2.4 0 4.3-1.8 4.3-4.4 0-2.4-1.8-4.4-4.3-4.4-2.4 0-4.3 1.9-4.3 4.4.1 2.6 1.9 4.4 4.3 4.4zM179 34.9c2.4 0 4.3-1.8 4.3-4.4 0-2.4-1.8-4.4-4.3-4.4s-4.3 1.9-4.3 4.4c.1 2.6 1.9 4.4 4.3 4.4zM182.7 48.5c2.4 0 4.3-1.8 4.3-4.4 0-2.4-1.8-4.4-4.3-4.4-2.4 0-4.3 1.9-4.3 4.4.1 2.6 1.9 4.4 4.3 4.4zM164.9 52.5c2.4 0 4.3-1.8 4.3-4.4 0-2.4-1.8-4.4-4.3-4.4-2.4 0-4.3 1.9-4.3 4.4 0 2.6 1.8 4.4 4.3 4.4zM153 62.6c2.4 0 4.3-1.8 4.3-4.4 0-2.4-1.8-4.4-4.3-4.4-2.4 0-4.3 1.9-4.3 4.4 0 2.7 1.8 4.4 4.3 4.4zM138.8 58.1c2.4 0 4.3-1.8 4.3-4.4 0-2.4-1.8-4.4-4.3-4.4-2.4 0-4.3 1.9-4.3 4.4 0 2.7 1.8 4.4 4.3 4.4zM128.9 48.5c2.4 0 4.3-1.8 4.3-4.4 0-2.4-1.8-4.4-4.3-4.4-2.4 0-4.3 1.9-4.3 4.4 0 2.6 1.8 4.4 4.3 4.4zM134.8 35.4c2.4 0 4.3-1.8 4.3-4.4 0-2.4-1.8-4.4-4.3-4.4-2.4 0-4.3 1.9-4.3 4.4 0 2.7 1.9 4.4 4.3 4.4zM143.3 26.4c2.4 0 4.3-1.8 4.3-4.4 0-2.4-1.8-4.4-4.3-4.4-2.4 0-4.3 1.9-4.3 4.4 0 2.6 1.9 4.4 4.3 4.4zM155.8 28.6c2.4 0 4.3-1.8 4.3-4.4 0-2.4-1.8-4.4-4.3-4.4-2.4 0-4.3 1.9-4.3 4.4 0 2.7 1.8 4.4 4.3 4.4zM163.7 40c2.4 0 4.3-1.8 4.3-4.4 0-2.4-1.8-4.4-4.3-4.4-2.4 0-4.3 1.9-4.3 4.4 0 2.6 1.9 4.4 4.3 4.4zM120.4 23.5c2.4 0 4.3-1.8 4.3-4.4 0-2.4-1.8-4.4-4.3-4.4-2.4 0-4.3 1.9-4.3 4.4 0 2.7 1.8 4.4 4.3 4.4zM119.5 35.4c2.4 0 4.3-1.8 4.3-4.4 0-2.4-1.8-4.4-4.3-4.4-2.4 0-4.3 1.9-4.3 4.4 0 2.7 1.9 4.4 4.3 4.4zM118.9 48.5c2.4 0 4.3-1.8 4.3-4.4 0-2.4-1.8-4.4-4.3-4.4-2.4 0-4.3 1.9-4.3 4.4.1 2.6 1.9 4.4 4.3 4.4zM117.5 59.5c2.4 0 4.3-1.8 4.3-4.4 0-2.4-1.8-4.4-4.3-4.4-2.4 0-4.3 1.9-4.3 4.4 0 2.7 1.8 4.4 4.3 4.4zM91.2 55.3c2.4 0 4.3-1.8 4.3-4.4 0-2.4-1.8-4.4-4.3-4.4-2.4 0-4.3 1.9-4.3 4.4 0 2.6 1.8 4.4 4.3 4.4zM95.7 17.9c2.4 0 4.3-1.8 4.3-4.4 0-2.4-1.8-4.4-4.3-4.4-2.4 0-4.3 1.9-4.3 4.4 0 2.6 1.8 4.4 4.3 4.4zM95.1 32c2.4 0 4.3-1.8 4.3-4.4 0-2.4-1.8-4.4-4.3-4.4-2.4 0-4.3 1.9-4.3 4.4 0 2.7 1.9 4.4 4.3 4.4zM94 45.6c2.4 0 4.3-1.8 4.3-4.4 0-2.4-1.8-4.4-4.3-4.4-2.4 0-4.3 1.9-4.3 4.4 0 2.7 1.8 4.4 4.3 4.4zM79.3 17.3c2.4 0 4.3-1.8 4.3-4.4 0-2.4-1.8-4.4-4.3-4.4-2.4 0-4.3 1.9-4.3 4.4 0 2.6 1.8 4.4 4.3 4.4zM83.8 29.8c2.4 0 4.3-1.8 4.3-4.4 0-2.4-1.8-4.4-4.3-4.4-2.4 0-4.3 1.9-4.3 4.4 0 2.6 1.8 4.4 4.3 4.4zM81 42.8c2.4 0 4.3-1.8 4.3-4.4 0-2.4-1.8-4.4-4.3-4.4s-4.3 1.9-4.3 4.4c0 2.7 1.8 4.4 4.3 4.4zM67.9 51.3c2.4 0 4.3-1.8 4.3-4.4 0-2.4-1.8-4.4-4.3-4.4-2.4 0-4.3 1.9-4.3 4.4 0 2.6 1.9 4.4 4.3 4.4zM55.4 43.4c2.4 0 4.3-1.8 4.3-4.4 0-2.4-1.8-4.4-4.3-4.4s-4.3 1.9-4.3 4.4c.1 2.6 1.9 4.4 4.3 4.4zM41.6 51.3c2.4 0 4.3-1.8 4.3-4.4 0-2.4-1.8-4.4-4.3-4.4-2.4 0-4.3 1.9-4.3 4.4 0 2.6 1.8 4.4 4.3 4.4zM50.3 34.9c2.4 0 4.3-1.8 4.3-4.4 0-2.4-1.8-4.4-4.3-4.4-2.4 0-4.3 1.9-4.3 4.4.1 2.6 1.9 4.4 4.3 4.4zM88.3 80.8c2.4 0 4.3-1.8 4.3-4.4 0-2.4-1.8-4.4-4.3-4.4S84 73.9 84 76.4c0 2.6 1.9 4.4 4.3 4.4zM89.5 90.2c1.7 0 2.9-1.2 2.9-3 0-1.7-1.2-3-2.9-3s-2.9 1.3-2.9 3c0 1.8 1.2 3 2.9 3zM77.9 91c1.7 0 2.9-1.2 2.9-3 0-1.7-1.2-3-2.9-3S75 86.3 75 88c0 1.8 1.2 3 2.9 3zM67.1 90.4c1.7 0 2.9-1.2 2.9-3 0-1.7-1.2-3-2.9-3s-2.9 1.3-2.9 3c0 1.9 1.2 3 2.9 3zM56.9 89.3c1.7 0 2.9-1.2 2.9-3 0-1.7-1.2-3-2.9-3s-2.9 1.3-2.9 3c0 1.8 1.2 3 2.9 3zM45.3 87.6c1.7 0 2.9-1.2 2.9-3 0-1.7-1.2-3-2.9-3s-2.9 1.3-2.9 3c0 1.8 1.2 3 2.9 3zM27.7 120.5c1.7 0 2.9-1.2 2.9-3 0-1.7-1.2-2.9-2.9-2.9s-2.9 1.3-2.9 2.9c0 1.8 1.2 3 2.9 3zM17.8 119.9c1.7 0 2.9-1.2 2.9-3 0-1.7-1.2-2.9-2.9-2.9s-2.9 1.3-2.9 2.9c0 1.8 1.2 3 2.9 3zM8.4 119.4c1.7 0 2.9-1.2 2.9-3 0-1.7-1.2-3-2.9-3s-2.9 1.3-2.9 3c0 1.8 1.3 3 2.9 3zM9.3 152.1c1.7 0 2.9-1.2 2.9-3 0-1.7-1.2-2.9-2.9-2.9s-2.9 1.3-2.9 2.9c0 1.8 1.2 3 2.9 3zM21.7 152.9c1.7 0 2.9-1.2 2.9-3 0-1.7-1.2-3-2.9-3s-2.9 1.3-2.9 3c0 1.9 1.3 3 2.9 3zM36.2 85.3c1.7 0 2.9-1.2 2.9-3 0-1.7-1.2-3-2.9-3s-2.9 1.3-2.9 3c0 1.8 1.2 3 2.9 3zM28 83.4c1.7 0 2.9-1.2 2.9-3 0-1.7-1.2-3-2.9-3s-2.9 1.3-2.9 3c0 1.8 1.2 3 2.9 3zM20.9 79.1c1.7 0 2.9-1.2 2.9-3 0-1.7-1.2-3-2.9-3s-2.9 1.3-2.9 3c0 1.8 1.2 3 2.9 3zM99.4 89.6c1.7 0 2.9-1.2 2.9-3 0-1.7-1.2-3-2.9-3s-2.9 1.3-2.9 3c0 1.8 1.3 3 2.9 3zM109.3 88.5c1.7 0 2.9-1.2 2.9-3 0-1.7-1.2-3-2.9-3s-2.9 1.3-2.9 3c0 1.8 1.3 3 2.9 3zM117.3 92.1c1.7 0 2.9-1.2 2.9-3 0-1.7-1.2-3-2.9-3s-2.9 1.3-2.9 3c0 1.9 1.2 3 2.9 3zM126.6 95.3c1.7 0 2.9-1.2 2.9-3 0-1.7-1.2-3-2.9-3s-2.9 1.3-2.9 3c0 1.8 1.3 3 2.9 3zM136 96.7c1.7 0 2.9-1.2 2.9-3 0-1.7-1.2-3-2.9-3s-2.9 1.3-2.9 3c0 1.8 1.3 3 2.9 3zM146.5 97.2c1.7 0 2.9-1.2 2.9-3 0-1.7-1.2-3-2.9-3s-2.9 1.3-2.9 3c0 1.9 1.2 3 2.9 3zM155.8 96.4c1.7 0 2.9-1.2 2.9-3 0-1.7-1.2-3-2.9-3s-2.9 1.3-2.9 3c.1 1.8 1.3 3 2.9 3zM165.2 94.7c1.7 0 2.9-1.2 2.9-3 0-1.7-1.2-3-2.9-3s-2.9 1.3-2.9 3c0 1.8 1.2 3 2.9 3zM172.8 91.3c1.7 0 2.9-1.2 2.9-3 0-1.7-1.2-3-2.9-3s-2.9 1.3-2.9 3c0 1.8 1.3 3 2.9 3zM179.9 86.2c1.7 0 2.9-1.2 2.9-3 0-1.7-1.2-3-2.9-3s-2.9 1.3-2.9 3c0 1.8 1.3 3 2.9 3zM188.4 81.7c1.7 0 2.9-1.2 2.9-3 0-1.7-1.2-3-2.9-3s-2.9 1.3-2.9 3c0 1.8 1.3 3 2.9 3zM197.5 82.8c1.7 0 2.9-1.2 2.9-3 0-1.7-1.2-3-2.9-3s-2.9 1.3-2.9 3c0 1.8 1.2 3 2.9 3zM206.8 83.4c1.7 0 2.9-1.2 2.9-3 0-1.7-1.2-3-2.9-3s-2.9 1.3-2.9 3c.1 1.8 1.3 3 2.9 3zM217.3 82.8c1.7 0 2.9-1.2 2.9-3 0-1.7-1.2-3-2.9-3s-2.9 1.3-2.9 3c0 1.8 1.3 3 2.9 3zM228 81.7c1.7 0 2.9-1.2 2.9-3 0-1.7-1.2-3-2.9-3s-2.9 1.3-2.9 3c0 1.8 1.2 3 2.9 3zM238.1 80c1.7 0 2.9-1.2 2.9-3 0-1.7-1.2-3-2.9-3s-2.9 1.3-2.9 3c0 1.8 1.2 3 2.9 3zM77.8 79.7c2.4 0 4.3-1.8 4.3-4.4 0-2.4-1.8-4.4-4.3-4.4-2.4 0-4.3 1.9-4.3 4.4 0 2.6 1.9 4.4 4.3 4.4zM58.3 80.2c2.4 0 4.3-1.8 4.3-4.4 0-2.4-1.8-4.4-4.3-4.4-2.4 0-4.3 1.9-4.3 4.4 0 2.7 1.8 4.4 4.3 4.4zM48.1 78.5c2.4 0 4.3-1.8 4.3-4.4 0-2.4-1.8-4.4-4.3-4.4-2.4 0-4.3 1.9-4.3 4.4 0 2.7 1.8 4.4 4.3 4.4zM24.5 130.7c2.4 0 4.3-1.8 4.3-4.4 0-2.4-1.8-4.4-4.3-4.4-2.4 0-4.3 1.9-4.3 4.4.1 2.6 1.9 4.4 4.3 4.4z"/><defs><path id="SVGID_17_" d="M0 0h749.9v428H0z"/></defs><clipPath id="SVGID_18_"><use xlink:href="#SVGID_17_" overflow="visible"/></clipPath><path class="st21" d="M25.4 144.3c2.4 0 4.3-1.8 4.3-4.4 0-2.4-1.8-4.4-4.3-4.4-2.4 0-4.3 1.9-4.3 4.4 0 2.6 1.9 4.4 4.3 4.4zM4.1 143.7c2.4 0 4.3-1.8 4.3-4.4 0-2.4-1.8-4.4-4.3-4.4s-4.3 1.9-4.3 4.4c0 2.7 1.9 4.4 4.3 4.4z"/><path class="st18" d="M7.5 130.7c2.4 0 4.3-1.8 4.3-4.4 0-2.4-1.8-4.4-4.3-4.4-2.4 0-4.3 1.9-4.3 4.4.1 2.6 1.9 4.4 4.3 4.4zM34.5 72.9c2.4 0 4.3-1.8 4.3-4.4 0-2.4-1.8-4.4-4.3-4.4-2.4 0-4.3 1.9-4.3 4.4 0 2.6 1.8 4.4 4.3 4.4zM26 68.3c2.4 0 4.3-1.8 4.3-4.4 0-2.4-1.8-4.4-4.3-4.4-2.4 0-4.3 1.9-4.3 4.4 0 2.7 1.8 4.4 4.3 4.4zM129.1 115.4c2.4 0 4.3-1.8 4.3-4.4 0-2.4-1.8-4.4-4.3-4.4s-4.3 1.9-4.3 4.4c.1 2.6 1.9 4.4 4.3 4.4zM186.4 324c2.4 0 4.3-1.8 4.3-4.4 0-2.4-1.8-4.4-4.3-4.4-2.4 0-4.3 1.9-4.3 4.4 0 2.7 1.9 4.4 4.3 4.4zM159.2 333.1c2.4 0 4.3-1.8 4.3-4.4 0-2.4-1.8-4.4-4.3-4.4-2.4 0-4.3 1.9-4.3 4.4 0 2.6 1.8 4.4 4.3 4.4zM168.6 341c2.4 0 4.3-1.8 4.3-4.4 0-2.4-1.8-4.4-4.3-4.4-2.4 0-4.3 1.9-4.3 4.4 0 2.7 1.8 4.4 4.3 4.4zM136.5 341.6c2.4 0 4.3-1.8 4.3-4.4 0-2.4-1.8-4.4-4.3-4.4-2.4 0-4.3 1.9-4.3 4.4 0 2.6 1.9 4.4 4.3 4.4zM116.7 356.3c2.4 0 4.3-1.8 4.3-4.4 0-2.4-1.8-4.4-4.3-4.4s-4.3 1.9-4.3 4.4c0 2.7 1.8 4.4 4.3 4.4zM144.4 355.2c2.4 0 4.3-1.8 4.3-4.4 0-2.4-1.8-4.4-4.3-4.4-2.4 0-4.3 1.9-4.3 4.4.1 2.6 1.9 4.4 4.3 4.4zM162 353.5c2.4 0 4.3-1.8 4.3-4.4 0-2.4-1.8-4.4-4.3-4.4-2.4 0-4.3 1.9-4.3 4.4 0 2.6 1.9 4.4 4.3 4.4zM186.4 343c2.4 0 4.3-1.8 4.3-4.4 0-2.4-1.8-4.4-4.3-4.4-2.4 0-4.3 1.9-4.3 4.4 0 2.6 1.9 4.4 4.3 4.4zM186.4 360c2.4 0 4.3-1.8 4.3-4.4 0-2.4-1.8-4.4-4.3-4.4-2.4 0-4.3 1.9-4.3 4.4 0 2.6 1.9 4.4 4.3 4.4zM155.2 366.5c2.4 0 4.3-1.8 4.3-4.4 0-2.4-1.8-4.4-4.3-4.4-2.4 0-4.3 1.9-4.3 4.4 0 2.7 1.9 4.4 4.3 4.4zM143.9 374.5c2.4 0 4.3-1.8 4.3-4.4 0-2.4-1.8-4.4-4.3-4.4-2.4 0-4.3 1.9-4.3 4.4 0 2.6 1.8 4.4 4.3 4.4zM117.5 374.5c2.4 0 4.3-1.8 4.3-4.4 0-2.4-1.8-4.4-4.3-4.4-2.4 0-4.3 1.9-4.3 4.4.1 2.6 1.9 4.4 4.3 4.4zM118.9 400c2.4 0 4.3-1.8 4.3-4.4 0-2.4-1.8-4.4-4.3-4.4-2.4 0-4.3 1.9-4.3 4.4.1 2.6 1.9 4.4 4.3 4.4zM117.5 415.3c2.4 0 4.3-1.8 4.3-4.4 0-2.4-1.8-4.4-4.3-4.4-2.4 0-4.3 1.9-4.3 4.4.1 2.6 1.9 4.4 4.3 4.4zM137.6 385.5c2.4 0 4.3-1.8 4.3-4.4 0-2.4-1.8-4.4-4.3-4.4-2.4 0-4.3 1.9-4.3 4.4.1 2.7 1.9 4.4 4.3 4.4zM149 399.7c2.4 0 4.3-1.8 4.3-4.4 0-2.4-1.8-4.4-4.3-4.4-2.4 0-4.3 1.9-4.3 4.4 0 2.6 1.8 4.4 4.3 4.4z"/><defs><path id="SVGID_19_" d="M0 0h749.9v428H0z"/></defs><clipPath id="SVGID_20_"><use xlink:href="#SVGID_19_" overflow="visible"/></clipPath><path class="st22" d="M145 415.9c2.4 0 4.3-1.8 4.3-4.4 0-2.4-1.8-4.4-4.3-4.4-2.4 0-4.3 1.9-4.3 4.4 0 2.6 1.9 4.4 4.3 4.4zM138.2 428.9c2.4 0 4.3-1.8 4.3-4.4 0-2.4-1.8-4.4-4.3-4.4-2.4 0-4.3 1.9-4.3 4.4 0 2.6 1.9 4.4 4.3 4.4z"/><path class="st18" d="M160.9 413.6c2.4 0 4.3-1.8 4.3-4.4 0-2.4-1.8-4.4-4.3-4.4-2.4 0-4.3 1.9-4.3 4.4 0 2.6 1.8 4.4 4.3 4.4zM171.4 423.8c2.4 0 4.3-1.8 4.3-4.4 0-2.4-1.8-4.4-4.3-4.4-2.4 0-4.3 1.9-4.3 4.4 0 2.6 1.9 4.4 4.3 4.4zM166.6 389.8c2.4 0 4.3-1.8 4.3-4.4 0-2.4-1.8-4.4-4.3-4.4-2.4 0-4.3 1.9-4.3 4.4 0 2.6 1.8 4.4 4.3 4.4zM168.8 377.9c2.4 0 4.3-1.8 4.3-4.4 0-2.4-1.8-4.4-4.3-4.4-2.4 0-4.3 1.9-4.3 4.4 0 2.6 1.9 4.4 4.3 4.4zM187.5 384.7c2.4 0 4.3-1.8 4.3-4.4 0-2.4-1.8-4.4-4.3-4.4-2.4 0-4.3 1.9-4.3 4.4.1 2.6 1.9 4.4 4.3 4.4z"/><defs><path id="SVGID_21_" d="M0 0h749.9v428H0z"/></defs><clipPath id="SVGID_22_"><use xlink:href="#SVGID_21_" overflow="visible"/></clipPath><path class="st23" d="M187 400c2.4 0 4.3-1.8 4.3-4.4 0-2.4-1.8-4.4-4.3-4.4-2.4 0-4.3 1.9-4.3 4.4 0 2.6 1.8 4.4 4.3 4.4zM188.4 428c2.4 0 4.3-1.8 4.3-4.4 0-2.4-1.8-4.4-4.3-4.4-2.4 0-4.3 1.9-4.3 4.4 0 2.7 1.8 4.4 4.3 4.4z"/><path d="M147.1 67.2c-14.7 0-25.9-5.6-26.1-5.7l.9-1.8c.3.1 29.8 14.8 55.1-4.4l1.2 1.6c-10.4 8-21.5 10.3-31.1 10.3zM610.5 66c-13 0-24.6-.8-34.4-2-31.6-3.7-52-11.4-52.2-11.5l.7-1.9c.8.3 81 30.1 174.2-.6l.6 1.9C666.9 62.7 636.1 66 610.5 66zM87.6 61.7c-16.3 0-31.6-4.3-32.5-4.6l.5-1.9c.3.1 31.7 8.9 52.1 1.4l.7 1.9c-6.3 2.3-13.6 3.2-20.8 3.2zm122.9-5c-7.2 0-13-2-13.4-2.2l.7-1.9c.1.1 14.8 5.2 26.1-1.1l1 1.8c-4.7 2.6-9.9 3.4-14.4 3.4zM612 23.3c-34.8 0-59.7-10.9-60.1-11l.8-1.8c.6.3 57.6 25 119.4-1.1l.8 1.8c-21.6 9.1-42.6 12.1-60.9 12.1zm-1.2-15.9c-14.7 0-26.2-2.4-31.8-4.3l.7-1.9c9 3.1 33.5 7.3 61.8.7l.5 1.9c-11.3 2.7-21.9 3.6-31.2 3.6z" clip-path="url(#SVGID_22_)" fill="#cd8539"/><path class="st5" d="M604.2 73.2c-61.8 0-91.3-14.8-91.7-14.9l.9-1.8c.3.2 35.8 17.8 110.6 14.2 34.2-1.7 56.7-7.1 69.6-11.5 14-4.7 19.9-9 20-9l1.2 1.6c-1 .7-24.6 17.7-90.7 20.9-7 .4-13.6.5-19.9.5z"/><defs><path id="SVGID_23_" d="M0 0h749.9v428H0z"/></defs><clipPath id="SVGID_24_"><use xlink:href="#SVGID_23_" overflow="visible"/></clipPath><path class="st25" d="M157.1 192.3H156l.1-2.5c.3 0 25.7.6 41-10.9l1.5 2c-14.4 10.8-36.4 11.4-41.5 11.4zm3.2-7.7c-3 0-4.7-.2-5-.3l.3-2.5c.3 0 26.3 3.3 57.5-18.2l1.4 2.1c-24.1 16.8-45 18.9-54.2 18.9zm-.9-8.6c-2.2 0-3.5-.1-3.7-.1l.2-2.5c.2 0 21.6 1.3 36.1-7.2l1.3 2.2c-11.6 6.7-26.9 7.6-33.9 7.6zm226.7-21.9l-1.4-2.1c.1-.1 11.3-7.6 14.6-10.4l1.6 1.9c-3.4 2.9-14.4 10.3-14.8 10.6zm.5-11l-1.4-2.1c.1-.1 12.4-8.2 15.4-11.2l1.8 1.8c-3.2 3.1-15.3 11.1-15.8 11.5zm-1.1-10.2l-1.4-2.1c.1-.1 13.5-8.7 16.8-12.3l1.8 1.7c-3.4 3.8-16.7 12.3-17.2 12.7zM639.5 435l-.8-.4c-.8-.3-75.7-34.8-136.9-96l1.4-1.4c57.4 57.4 127.1 91.2 135.5 95.2l21.5-39.7c-2.8-.2-9.2-1-18.5-3.6-11.6-3.2-30.1-9.8-52.7-23.4-30.7-18.5-50.3-35.6-61.4-46.7-12-12.1-16.7-19.6-16.9-20l1.7-1c0 .1 4.8 7.7 16.7 19.7 11 11 30.5 28 60.9 46.3 22.3 13.4 40.6 20 52.1 23.1 12.4 3.4 19.6 3.6 19.7 3.6h1.6L639.5 435zm67.7-1c-.6-.3-.8-.4-2.5-13.3-1.5-11.3-4.4-35.5-10-86.1-10.6-96.8-20.4-131.7-20.5-132.1l1.9-.5c.1.3 9.9 35.3 20.6 132.4 10 91 11.7 97.9 11.8 98.4l-.9.3-.4.9zm-66.4-57.4c-41.4-11.8-67.9-34-68.1-34.2l1.3-1.5c.1.1 2.9 2.4 8 6 1.1-31.9 1.4-56 1.4-56.2h2c0 .2-.3 25-1.4 57.5 9.3 6.2 24.7 15.2 44.5 22.4-1.1-47.5.6-72.9.6-73.2l2 .1c0 .3-1.7 25.8-.6 73.7 3.5 1.2 7.1 2.4 10.9 3.5l-.6 1.9zm108.4-44.8l-23.8-136.2 2-.3 23.8 136.2-2 .3zm-157.3-53c-45.4-5-74.6-9.9-74.9-9.9l.3-2c.3 0 29.4 4.9 74.8 9.9l-.2 2zm-6.3-52.5l-62.4-9.3.3-2 62.4 9.3-.3 2zm3.6-30.7h-2l2.2-110.3c-7.5-.4-11.3-.9-11.4-.9l.3-2c.2 0 21.7 2.8 65.3.6l.1 2c-4.2.2-8.3.4-12.1.5l1.4 105.3h-2l-1.4-105.3c-16.9.5-29.6.3-38.2-.1l-2.2 110.2z"/><path class="st26" d="M629.3 57.5l-1.7-31.2 7-.4 1.7 31.2-7 .4zm-91-11.4l-6.5-2.7 12.5-30 6.5 2.7-12.5 30z"/><defs><path id="SVGID_25_" d="M0 0h749.9v428H0z"/></defs><clipPath id="SVGID_26_"><use xlink:href="#SVGID_25_" overflow="visible"/></clipPath><path d="M606.3 56.8l-7-.2.9-29.5 7 .2-.9 29.5zm87.2-11.6l-9.1-31.5 6.7-1.9 9.1 31.5-6.7 1.9z" clip-path="url(#SVGID_26_)" fill="#7b68ee"/><path class="st5" d="M572.8 54.5l-6.9-1.2 5.1-29.5 6.9 1.2-5.1 29.5zm90-1.5l-5.1-31.2 6.9-1.1 5.1 31.2-6.9 1.1z"/><path transform="rotate(-40.474 529.465 240.526)" class="st5" d="M524 235.5h11v10.1h-11z"/><path transform="rotate(-38.611 572.744 248.058)" class="st10" d="M567.2 242.6h11v10.9h-11z"/><path transform="rotate(-32.811 613.093 252.143)" class="st26" d="M607.6 246.4h11v11.5h-11z"/><path transform="rotate(-44.806 605.95 188.527)" class="st26" d="M600.4 182.8h11v11.5h-11z"/><path class="st10" d="M608.6 156.5l-8.1-8.1 7.8-7.8 8.1 8.1-7.8 7.8zm.6-36.8l-8.1-8.1 7.8-7.8 8.1 8.1-7.8 7.8z"/><path transform="rotate(-38.806 607.656 304.009)" class="st26" d="M602.2 298.3h11v11.5h-11z"/><path transform="rotate(-38.806 606.146 341.28)" class="st10" d="M600.6 335.6h11v11.5h-11z"/><defs><path id="SVGID_27_" d="M0 0h749.9v428H0z"/></defs><clipPath id="SVGID_28_"><use xlink:href="#SVGID_27_" overflow="visible"/></clipPath><path d="M739.6 425l-9.8-5.9 5.7-9.4 9.8 5.9-5.7 9.4zm-19.7-125.9l-9.8-5.9 5.7-9.4 9.8 5.9-5.7 9.4z" clip-path="url(#SVGID_28_)" fill="#e94c32"/><path d="M724.8 341.6l-9.8-5.9 5.7-9.4 9.8 5.9-5.7 9.4zm-13.5-86.7l-9.8-5.9 5.7-9.4 9.8 5.9-5.7 9.4zm-6.3-39.7l-9.8-5.9 5.7-9.4 9.8 5.9-5.7 9.4z" clip-path="url(#SVGID_28_)" fill="#7b68ee"/><path transform="rotate(-58.802 729.61 376.179)" clip-path="url(#SVGID_28_)" fill="#964900" d="M724.1 370.5h11V382h-11z"/><path transform="rotate(-54.808 537.856 346.552)" class="st26" d="M532.3 340.8h11v11.5h-11z"/><defs><path id="SVGID_29_" d="M0 0h749.9v428H0z"/></defs><clipPath id="SVGID_30_"><use xlink:href="#SVGID_29_" overflow="visible"/></clipPath><path transform="rotate(-54.803 591.9 386.213)" clip-path="url(#SVGID_30_)" fill="#964900" d="M586.4 380.5h11V392h-11z"/><path transform="rotate(-54.808 635.522 407.513)" clip-path="url(#SVGID_30_)" fill="#7b68ee" d="M630 401.8h11v11.5h-11z"/><path class="st10" d="M93.4 198.4l-2.8-6.2 6.4-2.9 2.8 6.2-6.4 2.9zm226.8-16.3l-2.8-6.2 6.4-2.9 2.8 6.2-6.4 2.9zm184.2-44.6l-2.8-6.2 6.4-2.9 2.8 6.2-6.4 2.9z"/><defs><path id="SVGID_31_" d="M0 0h749.9v428H0z"/></defs><clipPath id="SVGID_32_"><use xlink:href="#SVGID_31_" overflow="visible"/></clipPath><path transform="rotate(-62.446 15.82 134.326)" clip-path="url(#SVGID_32_)" fill="#7b68ee" d="M12.3 130.9h7v6.9h-7z"/><path transform="rotate(-39.441 720.06 121.49)" class="st10" d="M716.6 118.1h7v6.9h-7z"/><path transform="rotate(-44.801 146.71 40.838)" class="st26" d="M141.2 35.1h11v11.5h-11z"/><path transform="rotate(-44.806 145.294 110.005)" class="st10" d="M139.8 104.3h11v11.5h-11z"/><path transform="rotate(-62.8 86.326 295.972)" class="st10" d="M80.8 290.2h11v11.5h-11z"/><path class="st26" d="M48.9 315.5l-10.2-5.2 5-9.8 10.2 5.2-5 9.8zm83.3-24.1l-10.2-5.2 5-9.8 10.2 5.2-5 9.8z"/><path transform="rotate(-62.8 169.443 271.71)" class="st10" d="M163.9 266h11v11.5h-11z"/><path transform="rotate(-44.806 284.425 292.133)" class="st26" d="M278.9 286.4h11v11.5h-11z"/><path transform="rotate(-44.814 289.544 328.262)" class="st10" d="M284.1 322.5h11V334h-11z"/><path transform="rotate(-44.814 292.647 363.676)" class="st26" d="M287.2 358h11v11.5h-11z"/><defs><path id="SVGID_33_" d="M0 0h749.9v428H0z"/></defs><clipPath id="SVGID_34_"><use xlink:href="#SVGID_33_" overflow="visible"/></clipPath><path d="M153.9 429.2l-8.1-8.1 7.8-7.8 8.1 8.1-7.8 7.8zm142.3-17.9l-8.1-8.1 7.8-7.8 8.1 8.1-7.8 7.8zM150 346.4l-8.1-8.1 7.8-7.8 8.1 8.1-7.8 7.8zm132-82.8l-8.1-8.1 7.8-7.8 8.1 8.1-7.8 7.8z" clip-path="url(#SVGID_34_)" fill="#7b68ee"/><path transform="rotate(-44.806 152.656 379.308)" class="st26" d="M147.1 373.6h11v11.5h-11z"/><defs><path id="SVGID_35_" d="M0 0h749.9v428H0z"/></defs><clipPath id="SVGID_36_"><use xlink:href="#SVGID_35_" overflow="visible"/></clipPath><path transform="rotate(-24.804 66.48 26.67)" clip-path="url(#SVGID_36_)" fill="#e94c32" d="M61 20.9h11v11.5H61z"/><path class="st5" d="M521.6 201.9c-3.4-42.7-2.3-102.2-2.3-102.8h2.5c0 .6-1.1 60 2.3 102.5l-2.5.3zM529.8 203.7c-5.1-45.5-.6-78.2-.6-78.5l2 .3c0 .3-4.5 32.7.6 78l-2 .2zM699.2 198.2l-2.4-.6c11.7-48.6 10.5-109.1 10.5-109.7l2.5-.1c0 .7 1.3 61.5-10.6 110.4z"/><path class="st5" d="M665.3 381.1c-2.5-43.1-8.4-77.2-8.5-77.6l2-.3c.1.3 6 34.6 8.5 77.8l-2 .1zm35.4-182.3l-.9-1.8c14.1-6.8 31.2-10.8 31.4-10.9l.5 1.9c-.2.1-17.1 4.1-31 10.8zm-6.2-.8l-2-.3c6.7-38.5 5.1-65.8 5.1-66.1l2-.1c0 .3 1.6 27.8-5.1 66.5zm5.1-7.2l-.9-1.8c27-14.5 40.3-25.3 40.4-25.4l1.3 1.5c-.2.2-13.5 11.1-40.8 25.7zM603.7 223.4c-25.6-.7-39.8-13.8-40.4-14.4l1.7-1.8c.1.1 14.2 13 38.7 13.7v2.5zm-.4-7.3c-19.4-.6-41.1-13.3-42-13.8l1.3-2.2c.2.1 22.1 12.9 40.8 13.4l-.1 2.6zm-2.8-8.4c-9.9 0-16.1-2.7-16.3-2.8l1-2.3c.1 0 7.8 3.4 19.7 2.4l.2 2.5c-1.7.1-3.2.2-4.6.2z"/><defs><path id="SVGID_37_" d="M0 0h749.9v428H0z"/></defs><clipPath id="SVGID_38_"><use xlink:href="#SVGID_37_" overflow="visible"/></clipPath><path d="M107.8 51.7l-8.9-1.2 4.5-32.3 8.9 1.2-4.5 32.3zm81.8-2l-7.1-32.9 8.8-1.9 7.1 32.9-8.8 1.9z" clip-path="url(#SVGID_38_)" fill="#7b68ee"/><path class="st18" d="M500.2 129c2.4 0 4.3-1.8 4.3-4.4 0-2.4-1.8-4.4-4.3-4.4-2.4 0-4.3 1.9-4.3 4.4 0 2.6 1.9 4.4 4.3 4.4zM497.3 143.2c2.4 0 4.3-1.8 4.3-4.4 0-2.4-1.8-4.4-4.3-4.4s-4.3 1.9-4.3 4.4c.1 2.6 1.9 4.4 4.3 4.4zM510.7 147.7c2.4 0 4.3-1.8 4.3-4.4 0-2.4-1.8-4.4-4.3-4.4-2.4 0-4.3 1.9-4.3 4.4 0 2.6 1.8 4.4 4.3 4.4zM515.2 133.5c2.4 0 4.3-1.8 4.3-4.4 0-2.4-1.8-4.4-4.3-4.4-2.4 0-4.3 1.9-4.3 4.4 0 2.7 1.9 4.4 4.3 4.4zM584.7 95c2.4 0 4.3-1.8 4.3-4.4 0-2.4-1.8-4.4-4.3-4.4s-4.3 1.9-4.3 4.4c0 2.6 1.8 4.4 4.3 4.4zM584.7 109.1c2.4 0 4.3-1.8 4.3-4.4 0-2.4-1.8-4.4-4.3-4.4s-4.3 1.9-4.3 4.4c0 2.7 1.8 4.4 4.3 4.4zM583.8 131.3c2.4 0 4.3-1.8 4.3-4.4 0-2.4-1.8-4.4-4.3-4.4s-4.3 1.9-4.3 4.4c0 2.6 1.9 4.4 4.3 4.4zM584.1 148.8c2.4 0 4.3-1.8 4.3-4.4 0-2.4-1.8-4.4-4.3-4.4s-4.3 1.9-4.3 4.4c0 2.7 1.9 4.4 4.3 4.4zM583.3 174.3c2.4 0 4.3-1.8 4.3-4.4 0-2.4-1.8-4.4-4.3-4.4-2.4 0-4.3 1.9-4.3 4.4 0 2.7 1.8 4.4 4.3 4.4zM583 188.5c2.4 0 4.3-1.8 4.3-4.4 0-2.4-1.8-4.4-4.3-4.4-2.4 0-4.3 1.9-4.3 4.4 0 2.7 1.8 4.4 4.3 4.4zM596.5 108c2.4 0 4.3-1.8 4.3-4.4 0-2.4-1.8-4.4-4.3-4.4-2.4 0-4.3 1.9-4.3 4.4.1 2.7 1.9 4.4 4.3 4.4zM606.5 97.8c2.4 0 4.3-1.8 4.3-4.4 0-2.4-1.8-4.4-4.3-4.4-2.4 0-4.3 1.9-4.3 4.4 0 2.7 1.9 4.4 4.3 4.4zM619.3 100.6c2.4 0 4.3-1.8 4.3-4.4 0-2.4-1.8-4.4-4.3-4.4s-4.3 1.9-4.3 4.4c0 2.7 1.8 4.4 4.3 4.4zM623.5 117.1c2.4 0 4.3-1.8 4.3-4.4 0-2.4-1.8-4.4-4.3-4.4-2.4 0-4.3 1.9-4.3 4.4 0 2.6 1.9 4.4 4.3 4.4zM621.2 139.2c2.4 0 4.3-1.8 4.3-4.4 0-2.4-1.8-4.4-4.3-4.4-2.4 0-4.3 1.9-4.3 4.4.1 2.6 1.9 4.4 4.3 4.4zM607.9 134.1c2.4 0 4.3-1.8 4.3-4.4 0-2.4-1.8-4.4-4.3-4.4-2.4 0-4.3 1.9-4.3 4.4.1 2.6 1.9 4.4 4.3 4.4zM595.7 126.2c2.4 0 4.3-1.8 4.3-4.4 0-2.4-1.8-4.4-4.3-4.4s-4.3 1.9-4.3 4.4c0 2.6 1.9 4.4 4.3 4.4zM598 144.9c2.4 0 4.3-1.8 4.3-4.4 0-2.4-1.8-4.4-4.3-4.4-2.4 0-4.3 1.9-4.3 4.4 0 2.6 1.8 4.4 4.3 4.4zM597.4 163c2.4 0 4.3-1.8 4.3-4.4 0-2.4-1.8-4.4-4.3-4.4s-4.3 1.9-4.3 4.4c0 2.6 1.9 4.4 4.3 4.4zM597.4 178.9c2.4 0 4.3-1.8 4.3-4.4 0-2.4-1.8-4.4-4.3-4.4s-4.3 1.9-4.3 4.4c0 2.6 1.9 4.4 4.3 4.4zM597.1 197.6c2.4 0 4.3-1.8 4.3-4.4 0-2.4-1.8-4.4-4.3-4.4-2.4 0-4.3 1.9-4.3 4.4.1 2.6 1.9 4.4 4.3 4.4zM622.9 180.6c2.4 0 4.3-1.8 4.3-4.4 0-2.4-1.8-4.4-4.3-4.4-2.4 0-4.3 1.9-4.3 4.4.1 2.6 1.9 4.4 4.3 4.4zM565.7 239c2.4 0 4.3-1.8 4.3-4.4 0-2.4-1.8-4.4-4.3-4.4s-4.3 1.9-4.3 4.4c0 2.6 1.8 4.4 4.3 4.4zM550.4 244.6c2.4 0 4.3-1.8 4.3-4.4 0-2.4-1.8-4.4-4.3-4.4-2.4 0-4.3 1.9-4.3 4.4 0 2.7 1.8 4.4 4.3 4.4zM543.6 257.1c2.4 0 4.3-1.8 4.3-4.4 0-2.4-1.8-4.4-4.3-4.4-2.4 0-4.3 1.9-4.3 4.4 0 2.7 1.8 4.4 4.3 4.4zM524 257.7c2.4 0 4.3-1.8 4.3-4.4 0-2.4-1.8-4.4-4.3-4.4-2.4 0-4.3 1.9-4.3 4.4 0 2.6 1.9 4.4 4.3 4.4zM527.2 232.7c2.4 0 4.3-1.8 4.3-4.4 0-2.4-1.8-4.4-4.3-4.4s-4.3 1.9-4.3 4.4c0 2.7 1.8 4.4 4.3 4.4zM588.4 244.1c2.4 0 4.3-1.8 4.3-4.4 0-2.4-1.8-4.4-4.3-4.4-2.4 0-4.3 1.9-4.3 4.4 0 2.6 1.8 4.4 4.3 4.4zM583.8 266.5c2.4 0 4.3-1.8 4.3-4.4 0-2.4-1.8-4.4-4.3-4.4s-4.3 1.9-4.3 4.4c0 2.6 1.9 4.4 4.3 4.4zM564 262.2c2.4 0 4.3-1.8 4.3-4.4 0-2.4-1.8-4.4-4.3-4.4-2.4 0-4.3 1.9-4.3 4.4 0 2.7 1.8 4.4 4.3 4.4zM605 266.7c2.4 0 4.3-1.8 4.3-4.4 0-2.4-1.8-4.4-4.3-4.4s-4.3 1.9-4.3 4.4c.1 2.7 1.9 4.4 4.3 4.4zM603.6 245.8c2.4 0 4.3-1.8 4.3-4.4 0-2.4-1.8-4.4-4.3-4.4-2.4 0-4.3 1.9-4.3 4.4.1 2.6 1.9 4.4 4.3 4.4zM624.9 249.7c2.4 0 4.3-1.8 4.3-4.4 0-2.4-1.8-4.4-4.3-4.4-2.4 0-4.3 1.9-4.3 4.4 0 2.7 1.8 4.4 4.3 4.4zM559.7 219.7c2.4 0 4.3-1.8 4.3-4.4 0-2.4-1.8-4.4-4.3-4.4-2.4 0-4.3 1.9-4.3 4.4 0 2.6 1.8 4.4 4.3 4.4zM540.2 216.3c2.4 0 4.3-1.8 4.3-4.4 0-2.4-1.8-4.4-4.3-4.4-2.4 0-4.3 1.9-4.3 4.4 0 2.6 1.8 4.4 4.3 4.4zM526.6 212.9c2.4 0 4.3-1.8 4.3-4.4 0-2.4-1.8-4.4-4.3-4.4-2.4 0-4.3 1.9-4.3 4.4 0 2.6 1.8 4.4 4.3 4.4zM520 280.6c2.4 0 4.3-1.8 4.3-4.4 0-2.4-1.8-4.4-4.3-4.4-2.4 0-4.3 1.9-4.3 4.4 0 2.7 1.9 4.4 4.3 4.4zM515.2 297.9c2.4 0 4.3-1.8 4.3-4.4 0-2.4-1.8-4.4-4.3-4.4-2.4 0-4.3 1.9-4.3 4.4 0 2.7 1.9 4.4 4.3 4.4zM525.4 311c2.4 0 4.3-1.8 4.3-4.4 0-2.4-1.8-4.4-4.3-4.4-2.4 0-4.3 1.9-4.3 4.4 0 2.6 1.9 4.4 4.3 4.4zM537.1 322.3c2.4 0 4.3-1.8 4.3-4.4 0-2.4-1.8-4.4-4.3-4.4s-4.3 1.9-4.3 4.4c0 2.7 1.8 4.4 4.3 4.4zM548.7 333.7c2.4 0 4.3-1.8 4.3-4.4 0-2.4-1.8-4.4-4.3-4.4s-4.3 1.9-4.3 4.4c0 2.6 1.8 4.4 4.3 4.4zM562.6 343.9c2.4 0 4.3-1.8 4.3-4.4 0-2.4-1.8-4.4-4.3-4.4s-4.3 1.9-4.3 4.4c0 2.6 1.8 4.4 4.3 4.4zM574.8 353.5c2.4 0 4.3-1.8 4.3-4.4 0-2.4-1.8-4.4-4.3-4.4-2.4 0-4.3 1.9-4.3 4.4 0 2.6 1.8 4.4 4.3 4.4zM586.7 361.4c2.4 0 4.3-1.8 4.3-4.4 0-2.4-1.8-4.4-4.3-4.4-2.4 0-4.3 1.9-4.3 4.4 0 2.7 1.8 4.4 4.3 4.4zM599.4 368.8c2.4 0 4.3-1.8 4.3-4.4 0-2.4-1.8-4.4-4.3-4.4-2.4 0-4.3 1.9-4.3 4.4.1 2.6 1.9 4.4 4.3 4.4zM612.7 375.6c2.4 0 4.3-1.8 4.3-4.4 0-2.4-1.8-4.4-4.3-4.4-2.4 0-4.3 1.9-4.3 4.4.1 2.6 1.9 4.4 4.3 4.4zM626.3 380.7c2.4 0 4.3-1.8 4.3-4.4 0-2.4-1.8-4.4-4.3-4.4s-4.3 1.9-4.3 4.4c.1 2.7 1.9 4.4 4.3 4.4zM536.2 281.5c2.4 0 4.3-1.8 4.3-4.4 0-2.4-1.8-4.4-4.3-4.4-2.4 0-4.3 1.9-4.3 4.4 0 2.6 1.9 4.4 4.3 4.4zM556.9 283.7c2.4 0 4.3-1.8 4.3-4.4 0-2.4-1.8-4.4-4.3-4.4s-4.3 1.9-4.3 4.4c0 2.7 1.8 4.4 4.3 4.4zM576.7 286.3c2.4 0 4.3-1.8 4.3-4.4 0-2.4-1.8-4.4-4.3-4.4-2.4 0-4.3 1.9-4.3 4.4 0 2.6 1.9 4.4 4.3 4.4zM670.2 213.5c2.4 0 4.3-1.8 4.3-4.4 0-2.4-1.8-4.4-4.3-4.4s-4.3 1.9-4.3 4.4c.1 2.6 1.9 4.4 4.3 4.4zM690.1 209.8c2.4 0 4.3-1.8 4.3-4.4 0-2.4-1.8-4.4-4.3-4.4-2.4 0-4.3 1.9-4.3 4.4.1 2.6 1.9 4.4 4.3 4.4zM694.9 228.8c2.4 0 4.3-1.8 4.3-4.4 0-2.4-1.8-4.4-4.3-4.4-2.4 0-4.3 1.9-4.3 4.4.1 2.6 1.9 4.4 4.3 4.4zM718.4 223.1c2.4 0 4.3-1.8 4.3-4.4 0-2.4-1.8-4.4-4.3-4.4-2.4 0-4.3 1.9-4.3 4.4.1 2.6 1.9 4.4 4.3 4.4zM717.6 205.5c2.4 0 4.3-1.8 4.3-4.4 0-2.4-1.8-4.4-4.3-4.4s-4.3 1.9-4.3 4.4c0 2.7 1.9 4.4 4.3 4.4zM732.9 205.5c2.4 0 4.3-1.8 4.3-4.4 0-2.4-1.8-4.4-4.3-4.4-2.4 0-4.3 1.9-4.3 4.4 0 2.7 1.9 4.4 4.3 4.4zM738.6 231.9c2.4 0 4.3-1.8 4.3-4.4 0-2.4-1.8-4.4-4.3-4.4s-4.3 1.9-4.3 4.4c0 2.6 1.8 4.4 4.3 4.4zM741.4 244.1c2.4 0 4.3-1.8 4.3-4.4 0-2.4-1.8-4.4-4.3-4.4-2.4 0-4.3 1.9-4.3 4.4 0 2.6 1.9 4.4 4.3 4.4z"/><defs><path id="SVGID_39_" d="M0 0h749.9v428H0z"/></defs><clipPath id="SVGID_40_"><use xlink:href="#SVGID_39_" overflow="visible"/></clipPath><path class="st37" d="M744.8 266.8c2.4 0 4.3-1.8 4.3-4.4 0-2.4-1.8-4.4-4.3-4.4s-4.3 1.9-4.3 4.4c0 2.6 1.9 4.4 4.3 4.4zM748.2 282.1c2.4 0 4.3-1.8 4.3-4.4 0-2.4-1.8-4.4-4.3-4.4s-4.3 1.9-4.3 4.4c.1 2.6 1.9 4.4 4.3 4.4z"/><path class="st18" d="M719.3 241.2c2.4 0 4.3-1.8 4.3-4.4 0-2.4-1.8-4.4-4.3-4.4-2.4 0-4.3 1.9-4.3 4.4 0 2.7 1.9 4.4 4.3 4.4zM698.9 242.9c2.4 0 4.3-1.8 4.3-4.4 0-2.4-1.8-4.4-4.3-4.4-2.4 0-4.3 1.9-4.3 4.4 0 2.7 1.9 4.4 4.3 4.4zM673.8 238.4c2.4 0 4.3-1.8 4.3-4.4 0-2.4-1.8-4.4-4.3-4.4-2.4 0-4.3 1.9-4.3 4.4.1 2.7 1.9 4.4 4.3 4.4zM677.4 254.3c2.4 0 4.3-1.8 4.3-4.4 0-2.4-1.8-4.4-4.3-4.4-2.4 0-4.3 1.9-4.3 4.4 0 2.6 1.8 4.4 4.3 4.4zM619.8 305.6c2.4 0 4.3-1.8 4.3-4.4 0-2.4-1.8-4.4-4.3-4.4s-4.3 1.9-4.3 4.4c0 2.6 1.9 4.4 4.3 4.4zM636.3 308.1c2.4 0 4.3-1.8 4.3-4.4 0-2.4-1.8-4.4-4.3-4.4-2.4 0-4.3 1.9-4.3 4.4 0 2.7 1.8 4.4 4.3 4.4zM635.4 319.5c2.4 0 4.3-1.8 4.3-4.4 0-2.4-1.8-4.4-4.3-4.4-2.4 0-4.3 1.9-4.3 4.4 0 2.6 1.9 4.4 4.3 4.4zM637.1 343.3c2.4 0 4.3-1.8 4.3-4.4 0-2.4-1.8-4.4-4.3-4.4s-4.3 1.9-4.3 4.4c0 2.6 1.9 4.4 4.3 4.4zM636.3 359.2c2.4 0 4.3-1.8 4.3-4.4 0-2.4-1.8-4.4-4.3-4.4-2.4 0-4.3 1.9-4.3 4.4 0 2.6 1.8 4.4 4.3 4.4zM619.3 321.7c2.4 0 4.3-1.8 4.3-4.4 0-2.4-1.8-4.4-4.3-4.4s-4.3 1.9-4.3 4.4c0 2.7 1.8 4.4 4.3 4.4zM597.4 320.6c2.4 0 4.3-1.8 4.3-4.4 0-2.4-1.8-4.4-4.3-4.4s-4.3 1.9-4.3 4.4c0 2.6 1.9 4.4 4.3 4.4zM595.4 302.5c2.4 0 4.3-1.8 4.3-4.4 0-2.4-1.8-4.4-4.3-4.4-2.4 0-4.3 1.9-4.3 4.4.1 2.6 1.9 4.4 4.3 4.4zM595.7 337.3c2.4 0 4.3-1.8 4.3-4.4 0-2.4-1.8-4.4-4.3-4.4s-4.3 1.9-4.3 4.4c0 2.7 1.9 4.4 4.3 4.4zM618.4 337.3c2.4 0 4.3-1.8 4.3-4.4 0-2.4-1.8-4.4-4.3-4.4s-4.3 1.9-4.3 4.4c0 2.7 1.9 4.4 4.3 4.4zM616.4 358c2.4 0 4.3-1.8 4.3-4.4 0-2.4-1.8-4.4-4.3-4.4-2.4 0-4.3 1.9-4.3 4.4.1 2.7 1.9 4.4 4.3 4.4zM596.9 355.2c2.4 0 4.3-1.8 4.3-4.4 0-2.4-1.8-4.4-4.3-4.4s-4.3 1.9-4.3 4.4c0 2.6 1.8 4.4 4.3 4.4zM430.2 240.1c2.4 0 4.3-1.8 4.3-4.4 0-2.4-1.8-4.4-4.3-4.4-2.4 0-4.3 1.9-4.3 4.4 0 2.7 1.8 4.4 4.3 4.4zM435.3 252.3c2.4 0 4.3-1.8 4.3-4.4 0-2.4-1.8-4.4-4.3-4.4-2.4 0-4.3 1.9-4.3 4.4 0 2.6 1.8 4.4 4.3 4.4zM440.7 287.2c2.4 0 4.3-1.8 4.3-4.4 0-2.4-1.8-4.4-4.3-4.4-2.4 0-4.3 1.9-4.3 4.4 0 2.6 1.8 4.4 4.3 4.4zM443.5 300.8c2.4 0 4.3-1.8 4.3-4.4 0-2.4-1.8-4.4-4.3-4.4-2.4 0-4.3 1.9-4.3 4.4 0 2.6 1.8 4.4 4.3 4.4zM443.8 333.7c2.4 0 4.3-1.8 4.3-4.4 0-2.4-1.8-4.4-4.3-4.4-2.4 0-4.3 1.9-4.3 4.4 0 2.6 1.8 4.4 4.3 4.4zM445.5 351.8c2.4 0 4.3-1.8 4.3-4.4 0-2.4-1.8-4.4-4.3-4.4s-4.3 1.9-4.3 4.4c0 2.6 1.8 4.4 4.3 4.4zM447.8 383c2.4 0 4.3-1.8 4.3-4.4 0-2.4-1.8-4.4-4.3-4.4-2.4 0-4.3 1.9-4.3 4.4 0 2.6 1.8 4.4 4.3 4.4z"/><defs><path id="SVGID_41_" d="M0 0h749.9v428H0z"/></defs><clipPath id="SVGID_42_"><use xlink:href="#SVGID_41_" overflow="visible"/></clipPath><path class="st38" d="M448.3 397.1c2.4 0 4.3-1.8 4.3-4.4 0-2.4-1.8-4.4-4.3-4.4-2.4 0-4.3 1.9-4.3 4.4 0 2.7 1.9 4.4 4.3 4.4zM497.3 430c2.4 0 4.3-1.8 4.3-4.4 0-2.4-1.8-4.4-4.3-4.4s-4.3 1.9-4.3 4.4c.1 2.7 1.9 4.4 4.3 4.4z"/><path class="st18" d="M513 340.2c2.4 0 4.3-1.8 4.3-4.4 0-2.4-1.8-4.4-4.3-4.4s-4.3 1.9-4.3 4.4c0 2.6 1.8 4.4 4.3 4.4zM514.4 319.5c2.4 0 4.3-1.8 4.3-4.4 0-2.4-1.8-4.4-4.3-4.4s-4.3 1.9-4.3 4.4c0 2.6 1.9 4.4 4.3 4.4zM528.3 336.5c2.4 0 4.3-1.8 4.3-4.4 0-2.4-1.8-4.4-4.3-4.4s-4.3 1.9-4.3 4.4c0 2.6 1.8 4.4 4.3 4.4zM524.9 352.4c2.4 0 4.3-1.8 4.3-4.4 0-2.4-1.8-4.4-4.3-4.4s-4.3 1.9-4.3 4.4c0 2.6 1.8 4.4 4.3 4.4zM551.2 354.6c2.4 0 4.3-1.8 4.3-4.4 0-2.4-1.8-4.4-4.3-4.4-2.4 0-4.3 1.9-4.3 4.4 0 2.7 1.8 4.4 4.3 4.4zM550.4 370.5c2.4 0 4.3-1.8 4.3-4.4 0-2.4-1.8-4.4-4.3-4.4-2.4 0-4.3 1.9-4.3 4.4 0 2.6 1.8 4.4 4.3 4.4zM577.6 371.6c2.4 0 4.3-1.8 4.3-4.4 0-2.4-1.8-4.4-4.3-4.4s-4.3 1.9-4.3 4.4c0 2.7 1.8 4.4 4.3 4.4zM575.9 388.1c2.4 0 4.3-1.8 4.3-4.4 0-2.4-1.8-4.4-4.3-4.4s-4.3 1.9-4.3 4.4c0 2.6 1.8 4.4 4.3 4.4zM562.8 398.9c2.4 0 4.3-1.8 4.3-4.4 0-2.4-1.8-4.4-4.3-4.4-2.4 0-4.3 1.9-4.3 4.4.1 2.6 1.9 4.4 4.3 4.4zM549.2 389.2c2.4 0 4.3-1.8 4.3-4.4 0-2.4-1.8-4.4-4.3-4.4-2.4 0-4.3 1.9-4.3 4.4.1 2.7 1.9 4.4 4.3 4.4zM537.1 380.1c2.4 0 4.3-1.8 4.3-4.4 0-2.4-1.8-4.4-4.3-4.4s-4.3 1.9-4.3 4.4c0 2.7 1.8 4.4 4.3 4.4zM525.7 369.9c2.4 0 4.3-1.8 4.3-4.4 0-2.4-1.8-4.4-4.3-4.4s-4.3 1.9-4.3 4.4c.1 2.7 1.9 4.4 4.3 4.4zM512.4 360.3c2.4 0 4.3-1.8 4.3-4.4 0-2.4-1.8-4.4-4.3-4.4s-4.3 1.9-4.3 4.4c0 2.6 1.8 4.4 4.3 4.4z"/><defs><path id="SVGID_43_" d="M0 0h749.9v428H0z"/></defs><clipPath id="SVGID_44_"><use xlink:href="#SVGID_43_" overflow="visible"/></clipPath><path class="st39" d="M503.3 351.5c2.4 0 4.3-1.8 4.3-4.4 0-2.4-1.8-4.4-4.3-4.4-2.4 0-4.3 1.9-4.3 4.4 0 2.6 1.9 4.4 4.3 4.4zM631.4 429.5c2.4 0 4.3-1.8 4.3-4.4 0-2.4-1.8-4.4-4.3-4.4-2.4 0-4.3 1.9-4.3 4.4.1 2.6 1.9 4.4 4.3 4.4z"/><path class="st18" d="M606.5 409.1c2.4 0 4.3-1.8 4.3-4.4 0-2.4-1.8-4.4-4.3-4.4-2.4 0-4.3 1.9-4.3 4.4 0 2.6 1.9 4.4 4.3 4.4zM607.9 392c2.4 0 4.3-1.8 4.3-4.4 0-2.4-1.8-4.4-4.3-4.4-2.4 0-4.3 1.9-4.3 4.4.1 2.7 1.9 4.4 4.3 4.4zM625.2 401.1c2.4 0 4.3-1.8 4.3-4.4 0-2.4-1.8-4.4-4.3-4.4s-4.3 1.9-4.3 4.4c0 2.7 1.9 4.4 4.3 4.4zM647.9 404c2.4 0 4.3-1.8 4.3-4.4 0-2.4-1.8-4.4-4.3-4.4s-4.3 1.9-4.3 4.4c0 2.6 1.8 4.4 4.3 4.4z"/><defs><path id="SVGID_45_" d="M0 0h749.9v428H0z"/></defs><clipPath id="SVGID_46_"><use xlink:href="#SVGID_45_" overflow="visible"/></clipPath><path class="st40" d="M656.1 417c2.4 0 4.3-1.8 4.3-4.4 0-2.4-1.8-4.4-4.3-4.4-2.4 0-4.3 1.9-4.3 4.4 0 2.6 1.9 4.4 4.3 4.4zM649 431.7c2.4 0 4.3-1.8 4.3-4.4 0-2.4-1.8-4.4-4.3-4.4-2.4 0-4.3 1.9-4.3 4.4 0 2.7 1.9 4.4 4.3 4.4z"/><path class="st18" d="M605.9 426.1c2.4 0 4.3-1.8 4.3-4.4 0-2.4-1.8-4.4-4.3-4.4-2.4 0-4.3 1.9-4.3 4.4.1 2.6 1.9 4.4 4.3 4.4zM592.3 417.6c2.4 0 4.3-1.8 4.3-4.4 0-2.4-1.8-4.4-4.3-4.4s-4.3 1.9-4.3 4.4c0 2.6 1.9 4.4 4.3 4.4zM576.8 408.5c2.4 0 4.3-1.8 4.3-4.4 0-2.4-1.8-4.4-4.3-4.4-2.4 0-4.3 1.9-4.3 4.4 0 2.6 1.8 4.4 4.3 4.4zM578.2 340.2c2.4 0 4.3-1.8 4.3-4.4 0-2.4-1.8-4.4-4.3-4.4s-4.3 1.9-4.3 4.4c0 2.6 1.8 4.4 4.3 4.4zM578.7 314.9c2.4 0 4.3-1.8 4.3-4.4 0-2.4-1.8-4.4-4.3-4.4-2.4 0-4.3 1.9-4.3 4.4 0 2.7 1.9 4.4 4.3 4.4zM578.7 300.8c2.4 0 4.3-1.8 4.3-4.4 0-2.4-1.8-4.4-4.3-4.4-2.4 0-4.3 1.9-4.3 4.4 0 2.6 1.9 4.4 4.3 4.4zM663.2 405.4c2.4 0 4.3-1.8 4.3-4.4 0-2.4-1.8-4.4-4.3-4.4-2.4 0-4.3 1.9-4.3 4.4 0 2.6 1.8 4.4 4.3 4.4zM668.9 392c2.4 0 4.3-1.8 4.3-4.4 0-2.4-1.8-4.4-4.3-4.4s-4.3 1.9-4.3 4.4c0 2.7 1.8 4.4 4.3 4.4zM653.3 388.6c2.4 0 4.3-1.8 4.3-4.4 0-2.4-1.8-4.4-4.3-4.4-2.4 0-4.3 1.9-4.3 4.4 0 2.7 1.8 4.4 4.3 4.4zM639.4 385.8c2.4 0 4.3-1.8 4.3-4.4 0-2.4-1.8-4.4-4.3-4.4-2.4 0-4.3 1.9-4.3 4.4 0 2.6 1.8 4.4 4.3 4.4z"/><defs><path id="SVGID_47_" d="M0 0h749.9v428H0z"/></defs><clipPath id="SVGID_48_"><use xlink:href="#SVGID_47_" overflow="visible"/></clipPath><path class="st41" d="M622.4 418.7c2.4 0 4.3-1.8 4.3-4.4 0-2.4-1.8-4.4-4.3-4.4-2.4 0-4.3 1.9-4.3 4.4 0 2.6 1.8 4.4 4.3 4.4zM447.8 431.1c2.4 0 4.3-1.8 4.3-4.4 0-2.4-1.8-4.4-4.3-4.4-2.4 0-4.3 1.9-4.3 4.4 0 2.7 1.8 4.4 4.3 4.4z"/><path class="st18" d="M680.8 276.4c2.4 0 4.3-1.8 4.3-4.4 0-2.4-1.8-4.4-4.3-4.4-2.4 0-4.3 1.9-4.3 4.4 0 2.6 1.8 4.4 4.3 4.4zM704 267.9c2.4 0 4.3-1.8 4.3-4.4 0-2.4-1.8-4.4-4.3-4.4-2.4 0-4.3 1.9-4.3 4.4 0 2.6 1.9 4.4 4.3 4.4zM722.2 264.5c2.4 0 4.3-1.8 4.3-4.4 0-2.4-1.8-4.4-4.3-4.4s-4.3 1.9-4.3 4.4c0 2.6 1.8 4.4 4.3 4.4zM723.3 282.6c2.4 0 4.3-1.8 4.3-4.4 0-2.4-1.8-4.4-4.3-4.4-2.4 0-4.3 1.9-4.3 4.4 0 2.7 1.8 4.4 4.3 4.4zM707.2 285.5c2.4 0 4.3-1.8 4.3-4.4 0-2.4-1.8-4.4-4.3-4.4s-4.3 1.9-4.3 4.4c0 2.6 1.8 4.4 4.3 4.4zM711.9 310.4c2.4 0 4.3-1.8 4.3-4.4 0-2.4-1.8-4.4-4.3-4.4-2.4 0-4.3 1.9-4.3 4.4.1 2.7 1.9 4.4 4.3 4.4zM687.6 319.5c2.4 0 4.3-1.8 4.3-4.4 0-2.4-1.8-4.4-4.3-4.4-2.4 0-4.3 1.9-4.3 4.4 0 2.6 1.8 4.4 4.3 4.4zM688.1 335.9c2.4 0 4.3-1.8 4.3-4.4 0-2.4-1.8-4.4-4.3-4.4-2.4 0-4.3 1.9-4.3 4.4.1 2.7 1.9 4.4 4.3 4.4zM691.5 359.2c2.4 0 4.3-1.8 4.3-4.4 0-2.4-1.8-4.4-4.3-4.4-2.4 0-4.3 1.9-4.3 4.4 0 2.6 1.9 4.4 4.3 4.4zM693.5 374.5c2.4 0 4.3-1.8 4.3-4.4 0-2.4-1.8-4.4-4.3-4.4-2.4 0-4.3 1.9-4.3 4.4 0 2.6 1.9 4.4 4.3 4.4zM696.6 400.6c2.4 0 4.3-1.8 4.3-4.4 0-2.4-1.8-4.4-4.3-4.4-2.4 0-4.3 1.9-4.3 4.4.1 2.6 1.9 4.4 4.3 4.4zM698.9 414.7c2.4 0 4.3-1.8 4.3-4.4 0-2.4-1.8-4.4-4.3-4.4-2.4 0-4.3 1.9-4.3 4.4 0 2.7 1.9 4.4 4.3 4.4zM725.6 411.9c2.4 0 4.3-1.8 4.3-4.4 0-2.4-1.8-4.4-4.3-4.4s-4.3 1.9-4.3 4.4c0 2.6 1.8 4.4 4.3 4.4zM721.6 394.9c2.4 0 4.3-1.8 4.3-4.4 0-2.4-1.8-4.4-4.3-4.4s-4.3 1.9-4.3 4.4c0 2.6 1.8 4.4 4.3 4.4zM743.1 391.5c2.4 0 4.3-1.8 4.3-4.4 0-2.4-1.8-4.4-4.3-4.4-2.4 0-4.3 1.9-4.3 4.4 0 2.6 1.9 4.4 4.3 4.4z"/><defs><path id="SVGID_49_" d="M0 0h749.9v428H0z"/></defs><clipPath id="SVGID_50_"><use xlink:href="#SVGID_49_" overflow="visible"/></clipPath><path d="M747.1 408.5c2.4 0 4.3-1.8 4.3-4.4 0-2.4-1.8-4.4-4.3-4.4s-4.3 1.9-4.3 4.4c0 2.6 1.9 4.4 4.3 4.4z" clip-path="url(#SVGID_50_)" fill="#c9813c"/><path class="st18" d="M736.3 364.8c2.4 0 4.3-1.8 4.3-4.4 0-2.4-1.8-4.4-4.3-4.4s-4.3 1.9-4.3 4.4c0 2.7 1.9 4.4 4.3 4.4zM719.9 368.8c2.4 0 4.3-1.8 4.3-4.4 0-2.4-1.8-4.4-4.3-4.4s-4.3 1.9-4.3 4.4c0 2.6 1.8 4.4 4.3 4.4zM715.9 351.5c2.4 0 4.3-1.8 4.3-4.4 0-2.4-1.8-4.4-4.3-4.4-2.4 0-4.3 1.9-4.3 4.4 0 2.6 1.9 4.4 4.3 4.4zM736.3 347.8c2.4 0 4.3-1.8 4.3-4.4 0-2.4-1.8-4.4-4.3-4.4s-4.3 1.9-4.3 4.4c0 2.7 1.9 4.4 4.3 4.4zM729.8 309c2.4 0 4.3-1.8 4.3-4.4 0-2.4-1.8-4.4-4.3-4.4s-4.3 1.9-4.3 4.4c0 2.6 1.9 4.4 4.3 4.4zM729.8 324c2.4 0 4.3-1.8 4.3-4.4 0-2.4-1.8-4.4-4.3-4.4s-4.3 1.9-4.3 4.4c0 2.7 1.8 4.4 4.3 4.4zM711.4 325.1c2.4 0 4.3-1.8 4.3-4.4 0-2.4-1.8-4.4-4.3-4.4-2.4 0-4.3 1.9-4.3 4.4 0 2.7 1.8 4.4 4.3 4.4zM684.4 293.4c2.4 0 4.3-1.8 4.3-4.4 0-2.4-1.8-4.4-4.3-4.4-2.4 0-4.3 1.9-4.3 4.4 0 2.6 1.9 4.4 4.3 4.4zM638.2 173.2c2.4 0 4.3-1.8 4.3-4.4 0-2.4-1.8-4.4-4.3-4.4-2.4 0-4.3 1.9-4.3 4.4.1 2.7 1.9 4.4 4.3 4.4zM638.2 187.4c2.4 0 4.3-1.8 4.3-4.4 0-2.4-1.8-4.4-4.3-4.4-2.4 0-4.3 1.9-4.3 4.4.1 2.6 1.9 4.4 4.3 4.4zM637.7 148.3c2.4 0 4.3-1.8 4.3-4.4 0-2.4-1.8-4.4-4.3-4.4s-4.3 1.9-4.3 4.4c0 2.6 1.8 4.4 4.3 4.4zM637.7 131.3c2.4 0 4.3-1.8 4.3-4.4 0-2.4-1.8-4.4-4.3-4.4s-4.3 1.9-4.3 4.4c0 2.6 1.8 4.4 4.3 4.4zM637.7 106.9c2.4 0 4.3-1.8 4.3-4.4 0-2.4-1.8-4.4-4.3-4.4s-4.3 1.9-4.3 4.4c0 2.6 1.8 4.4 4.3 4.4zM637.1 95c2.4 0 4.3-1.8 4.3-4.4 0-2.4-1.8-4.4-4.3-4.4s-4.3 1.9-4.3 4.4c0 2.6 1.9 4.4 4.3 4.4zM713.6 117.7c2.4 0 4.3-1.8 4.3-4.4 0-2.4-1.8-4.4-4.3-4.4-2.4 0-4.3 1.9-4.3 4.4.1 2.6 1.9 4.4 4.3 4.4zM724.2 116.5c2.4 0 4.3-1.8 4.3-4.4 0-2.4-1.8-4.4-4.3-4.4s-4.3 1.9-4.3 4.4c0 2.7 1.8 4.4 4.3 4.4zM726.1 133.2c2.4 0 4.3-1.8 4.3-4.4 0-2.4-1.8-4.4-4.3-4.4-2.4 0-4.3 1.9-4.3 4.4 0 2.7 1.9 4.4 4.3 4.4zM713.6 134.1c2.4 0 4.3-1.8 4.3-4.4 0-2.4-1.8-4.4-4.3-4.4-2.4 0-4.3 1.9-4.3 4.4.1 2.6 1.9 4.4 4.3 4.4zM613.9 168.7c2.4 0 4.3-1.8 4.3-4.4 0-2.4-1.8-4.4-4.3-4.4-2.4 0-4.3 1.9-4.3 4.4 0 2.6 1.8 4.4 4.3 4.4zM622.9 159.6c2.4 0 4.3-1.8 4.3-4.4 0-2.4-1.8-4.4-4.3-4.4-2.4 0-4.3 1.9-4.3 4.4.1 2.6 1.9 4.4 4.3 4.4zM605.9 82.5c2.4 0 4.3-1.8 4.3-4.4 0-2.4-1.8-4.4-4.3-4.4-2.4 0-4.3 1.9-4.3 4.4.1 2.6 1.9 4.4 4.3 4.4zM620.7 83.1c2.4 0 4.3-1.8 4.3-4.4 0-2.4-1.8-4.4-4.3-4.4s-4.3 1.9-4.3 4.4c0 2.6 1.8 4.4 4.3 4.4zM643.9 81.4c2.4 0 4.3-1.8 4.3-4.4 0-2.4-1.8-4.4-4.3-4.4-2.4 0-4.3 1.9-4.3 4.4 0 2.6 1.9 4.4 4.3 4.4zM657 79.7c2.4 0 4.3-1.8 4.3-4.4 0-2.4-1.8-4.4-4.3-4.4s-4.3 1.9-4.3 4.4c0 2.6 1.8 4.4 4.3 4.4zM676.8 75.7c2.4 0 4.3-1.8 4.3-4.4 0-2.4-1.8-4.4-4.3-4.4-2.4 0-4.3 1.9-4.3 4.4 0 2.6 1.9 4.4 4.3 4.4zM690.1 72.9c2.4 0 4.3-1.8 4.3-4.4 0-2.4-1.8-4.4-4.3-4.4-2.4 0-4.3 1.9-4.3 4.4 0 2.6 1.8 4.4 4.3 4.4zM711.9 65.5c2.4 0 4.3-1.8 4.3-4.4 0-2.4-1.8-4.4-4.3-4.4-2.4 0-4.3 1.9-4.3 4.4.1 2.6 1.9 4.4 4.3 4.4zM685.9 42.8c2.4 0 4.3-1.8 4.3-4.4 0-2.4-1.8-4.4-4.3-4.4-2.4 0-4.3 1.9-4.3 4.4 0 2.6 1.8 4.4 4.3 4.4zM704.3 43.4c2.4 0 4.3-1.8 4.3-4.4 0-2.4-1.8-4.4-4.3-4.4-2.4 0-4.3 1.9-4.3 4.4 0 2.6 1.9 4.4 4.3 4.4zM675.1 45.4c2.4 0 4.3-1.8 4.3-4.4 0-2.4-1.8-4.4-4.3-4.4s-4.3 1.9-4.3 4.4c0 2.6 1.9 4.4 4.3 4.4zM656.1 51.3c2.4 0 4.3-1.8 4.3-4.4 0-2.4-1.8-4.4-4.3-4.4-2.4 0-4.3 1.9-4.3 4.4 0 2.6 1.9 4.4 4.3 4.4zM643.3 53.9c2.4 0 4.3-1.8 4.3-4.4 0-2.4-1.8-4.4-4.3-4.4S639 47 639 49.5c.1 2.6 1.9 4.4 4.3 4.4zM624.1 55.9c2.4 0 4.3-1.8 4.3-4.4 0-2.4-1.8-4.4-4.3-4.4s-4.3 1.9-4.3 4.4c0 2.6 1.8 4.4 4.3 4.4zM615 56.7c2.4 0 4.3-1.8 4.3-4.4 0-2.4-1.8-4.4-4.3-4.4-2.4 0-4.3 1.9-4.3 4.4 0 2.6 1.9 4.4 4.3 4.4zM594 54.7c2.4 0 4.3-1.8 4.3-4.4 0-2.4-1.8-4.4-4.3-4.4-2.4 0-4.3 1.9-4.3 4.4 0 2.7 1.9 4.4 4.3 4.4zM582.1 53.9c2.4 0 4.3-1.8 4.3-4.4 0-2.4-1.8-4.4-4.3-4.4-2.4 0-4.3 1.9-4.3 4.4 0 2.6 1.9 4.4 4.3 4.4zM561.7 49.6c2.4 0 4.3-1.8 4.3-4.4 0-2.4-1.8-4.4-4.3-4.4-2.4 0-4.3 1.9-4.3 4.4 0 2.7 1.9 4.4 4.3 4.4zM547.5 46.8c2.4 0 4.3-1.8 4.3-4.4 0-2.4-1.8-4.4-4.3-4.4s-4.3 1.9-4.3 4.4c.1 2.6 1.9 4.4 4.3 4.4zM527.1 41.7c2.4 0 4.3-1.8 4.3-4.4 0-2.4-1.8-4.4-4.3-4.4-2.4 0-4.3 1.9-4.3 4.4 0 2.6 1.9 4.4 4.3 4.4zM554.1 26.4c2.4 0 4.3-1.8 4.3-4.4 0-2.4-1.8-4.4-4.3-4.4s-4.3 1.9-4.3 4.4c0 2.6 1.8 4.4 4.3 4.4zM538.8 20.1c2.4 0 4.3-1.8 4.3-4.4 0-2.4-1.8-4.4-4.3-4.4-2.4 0-4.3 1.9-4.3 4.4 0 2.7 1.8 4.4 4.3 4.4zM565.4 29.8c2.4 0 4.3-1.8 4.3-4.4 0-2.4-1.8-4.4-4.3-4.4-2.4 0-4.3 1.9-4.3 4.4 0 2.6 1.9 4.4 4.3 4.4zM583.3 34.9c2.4 0 4.3-1.8 4.3-4.4 0-2.4-1.8-4.4-4.3-4.4-2.4 0-4.3 1.9-4.3 4.4 0 2.6 1.8 4.4 4.3 4.4zM594.6 36c2.4 0 4.3-1.8 4.3-4.4 0-2.4-1.8-4.4-4.3-4.4-2.4 0-4.3 1.9-4.3 4.4 0 2.7 1.8 4.4 4.3 4.4zM614.4 36c2.4 0 4.3-1.8 4.3-4.4 0-2.4-1.8-4.4-4.3-4.4-2.4 0-4.3 1.9-4.3 4.4.1 2.7 1.9 4.4 4.3 4.4zM623.5 35.4c2.4 0 4.3-1.8 4.3-4.4 0-2.4-1.8-4.4-4.3-4.4-2.4 0-4.3 1.9-4.3 4.4 0 2.7 1.9 4.4 4.3 4.4zM641.9 33.2c2.4 0 4.3-1.8 4.3-4.4 0-2.4-1.8-4.4-4.3-4.4-2.4 0-4.3 1.9-4.3 4.4 0 2.6 1.9 4.4 4.3 4.4zM653.3 31.5c2.4 0 4.3-1.8 4.3-4.4 0-2.4-1.8-4.4-4.3-4.4-2.4 0-4.3 1.9-4.3 4.4 0 2.6 1.8 4.4 4.3 4.4zM671.1 26.4c2.4 0 4.3-1.8 4.3-4.4 0-2.4-1.8-4.4-4.3-4.4-2.4 0-4.3 1.9-4.3 4.4 0 2.6 1.9 4.4 4.3 4.4zM680.2 23c2.4 0 4.3-1.8 4.3-4.4 0-2.4-1.8-4.4-4.3-4.4-2.4 0-4.3 1.9-4.3 4.4 0 2.6 1.9 4.4 4.3 4.4zM581.6 82.2c2.4 0 4.3-1.8 4.3-4.4 0-2.4-1.8-4.4-4.3-4.4s-4.3 1.9-4.3 4.4c0 2.6 1.8 4.4 4.3 4.4zM565.7 80.8c2.4 0 4.3-1.8 4.3-4.4 0-2.4-1.8-4.4-4.3-4.4s-4.3 1.9-4.3 4.4c0 2.6 1.8 4.4 4.3 4.4zM544.7 77.4c2.4 0 4.3-1.8 4.3-4.4 0-2.4-1.8-4.4-4.3-4.4-2.4 0-4.3 1.9-4.3 4.4 0 2.6 1.9 4.4 4.3 4.4zM529.1 74c2.4 0 4.3-1.8 4.3-4.4 0-2.4-1.8-4.4-4.3-4.4s-4.3 1.9-4.3 4.4c0 2.6 1.9 4.4 4.3 4.4zM514.3 69.5c2.4 0 4.3-1.8 4.3-4.4 0-2.4-1.8-4.4-4.3-4.4s-4.3 1.9-4.3 4.4c.1 2.6 1.9 4.4 4.3 4.4zM552.4 6c1.7 0 2.9-1.2 2.9-3 0-1.7-1.2-3-2.9-3s-2.9 1.3-2.9 3c0 1.8 1.2 3 2.9 3zM562.6 8.5c1.7 0 2.9-1.2 2.9-3 0-1.7-1.2-3-2.9-3s-2.9 1.3-2.9 3c0 1.8 1.2 3 2.9 3zM572.8 11.6c1.7 0 2.9-1.2 2.9-3 0-1.7-1.2-3-2.9-3s-2.9 1.3-2.9 3c0 1.8 1.2 3 2.9 3zM584.1 15c1.7 0 2.9-1.2 2.9-3 0-1.7-1.2-3-2.9-3s-2.9 1.3-2.9 3c0 1.8 1.3 3 2.9 3zM500.3 114.4c1.7 0 2.9-1.2 2.9-3 0-1.7-1.2-3-2.9-3s-2.9 1.3-2.9 3c0 1.8 1.2 3 2.9 3zM507.2 117.1c1.7 0 2.9-1.2 2.9-3 0-1.7-1.2-3-2.9-3s-2.9 1.3-2.9 3c0 1.8 1.3 3 2.9 3zM515 119.9c1.7 0 2.9-1.2 2.9-3 0-1.7-1.2-2.9-2.9-2.9s-2.9 1.3-2.9 2.9c0 1.8 1.2 3 2.9 3zM511 157.9c1.7 0 2.9-1.2 2.9-3 0-1.7-1.2-2.9-2.9-2.9s-2.9 1.3-2.9 2.9c0 1.8 1.3 3 2.9 3zM652.2 211.2c1.7 0 2.9-1.2 2.9-3 0-1.7-1.2-3-2.9-3s-2.9 1.3-2.9 3c0 1.8 1.2 3 2.9 3zM653.3 223.1c1.7 0 2.9-1.2 2.9-3 0-1.7-1.2-2.9-2.9-2.9s-2.9 1.3-2.9 2.9c0 1.8 1.3 3 2.9 3zM651 233.3c1.7 0 2.9-1.2 2.9-3 0-1.7-1.2-3-2.9-3s-2.9 1.3-2.9 3c0 1.8 1.3 3 2.9 3zM710.8 144.9c1.7 0 2.9-1.2 2.9-3 0-1.7-1.2-3-2.9-3s-2.9 1.3-2.9 3c.1 1.8 1.3 3 2.9 3zM721.4 143.4c1.7 0 2.9-1.2 2.9-3 0-1.7-1.2-3-2.9-3s-2.9 1.3-2.9 3c0 1.8 1.2 3 2.9 3zM731.8 140.3c1.7 0 2.9-1.2 2.9-3 0-1.7-1.2-3-2.9-3s-2.9 1.3-2.9 3c0 1.8 1.3 3 2.9 3zM721.4 107.2c1.7 0 2.9-1.2 2.9-3 0-1.7-1.2-3-2.9-3s-2.9 1.3-2.9 3c0 1.8 1.2 3 2.9 3zM714.3 108c1.7 0 2.9-1.2 2.9-3 0-1.7-1.2-3-2.9-3s-2.9 1.3-2.9 3c0 1.8 1.2 3 2.9 3zM499.7 152.8c1.7 0 2.9-1.2 2.9-3 0-1.7-1.2-3-2.9-3s-2.9 1.3-2.9 3c0 1.8 1.2 3 2.9 3zM490.3 149.1c1.7 0 2.9-1.2 2.9-3 0-1.7-1.2-3-2.9-3s-2.9 1.3-2.9 3c0 1.8 1.3 3 2.9 3zM596.6 15.6c1.7 0 2.9-1.2 2.9-3 0-1.7-1.2-3-2.9-3s-2.9 1.3-2.9 3c0 1.8 1.3 3 2.9 3zM607.4 16.7c1.7 0 2.9-1.2 2.9-3 0-1.7-1.2-3-2.9-3s-2.9 1.3-2.9 3c0 1.8 1.2 3 2.9 3zM621.8 15.9c1.7 0 2.9-1.2 2.9-3 0-1.7-1.2-3-2.9-3s-2.9 1.3-2.9 3c0 1.8 1.3 3 2.9 3zM634 13.9c1.7 0 2.9-1.2 2.9-3 0-1.7-1.2-3-2.9-3s-2.9 1.3-2.9 3c0 1.8 1.3 3 2.9 3zM647.9 12.2c1.7 0 2.9-1.2 2.9-3 0-1.7-1.2-3-2.9-3s-2.9 1.3-2.9 3c0 1.8 1.3 3 2.9 3zM659.8 8c1.7 0 2.9-1.2 2.9-3 0-1.7-1.2-3-2.9-3s-2.9 1.3-2.9 3c0 1.8 1.3 3 2.9 3z"/><path class="st26" d="M64.2 70.3h6.5v8h-6.5z"/><path class="st10" d="M160.6 84.5l-2-7.7 6.5-1.7 2 7.7-6.5 1.7zm-64.2-6.3l-2-7.7 6.5-1.7 2 7.7-6.5 1.7zM195 72l-5.7-1.1 1.5-7.8 5.7 1.1L195 72z"/><path class="st26" d="M131.5 84.5l-6.2-1.1 1.5-7.9 6.2 1.1-1.5 7.9zm90.2-13.1l-1.5-7.9 5.9-1.1 1.5 7.9-5.9 1.1zM699.2 70l-3.2-7.3 6.5-2.8 3.2 7.3-6.5 2.8z"/><path class="st10" d="M629.2 82.2l-.7-8 6.8-.6.7 8-6.8.6zm35.1-4.2l-.9-8 5.1-.6.9 8-5.1.6z"/><path class="st26" d="M589.7 74.3h6.8v8h-6.8z"/><path transform="rotate(-81.872 555.158 74.84)" class="st10" d="M551.2 70.8h8v8h-8z"/><path d="M610.2 45.2l-.1-2 16.2-.6.1 2-16.2.6zm-17.8-1.1l-11.6-1.7.3-2 11.6 1.7-.3 2zm47.4-2.3l-.3-2 15.3-2.3.3 2-15.3 2.3zm-27.9-1.7l-.1-2 13-.6.1 2-13 .6zm-16.8-.5l-16.2-1.7.2-2 16.2 1.7-.2 2zm-29.4-1.8l-15.3-4.5.6-1.9 15.3 4.5-.6 1.9zm72.9-.5l-.3-2 12.5-1.7.3 2-12.5 1.7zm34.1-4l-.4-2 11.3-2.3.4 2-11.3 2.3z" fill="#cd8539"/><g><defs><path id="SVGID_51_" d="M0 0h749.9v428H0z"/></defs><clipPath id="SVGID_52_"><use xlink:href="#SVGID_51_" overflow="visible"/></clipPath><path d="M180.3 432.1c-1.5-40.5-2.6-102.5-2.8-114.7-21.1 6.7-39 13.4-50.8 18V432h-2.5v-95.7c-7.8 3.1-12.3 5-12.4 5l-1-2.3c.3-.1 35.2-14.9 80.1-28.4l.7 2.4c-3.9 1.2-7.8 2.4-11.6 3.6.2 10.1 1.3 74 2.8 115.4l-2.5.1zm43.7-.6l-2.3-132.1h2.5l2.3 132.1H224zm44.8-2.4c-3.4-47.1-12.9-144.1-13-145.1l2.5-.2c.1 1 9.7 98.1 13 145.2l-2.5.1zm223.5-67.8l-2.5-.4c3.1-19.8 4.8-49.6 5.7-75.4-6.6 20.6-20.1 59.7-20.3 60.2l-2.4-.8c.2-.5 18.8-54.3 22.9-68.8.7-23.7.8-42.1.8-42.4h2.5c.2.8-.2 86.1-6.7 127.6zm-465-2.4l-.9-2.3c.9-.3 86.6-34.9 165.1-60.1l.8 2.4c-78.6 25.2-164.2 59.7-165 60zm7-74.2l-.8-2.4c1.3-.4 130.9-41.6 200.4-62.4l.7 2.4c-69.4 20.7-199 61.9-200.3 62.4zm69.4-39.1l-.7-2.4c6-1.8 11.9-3.6 17.7-5.3l.1-40h2.5l-.1 39.3c19.2-5.7 36.8-10.7 48.7-14v-28h2.5v27.3c8.1-2.3 13-3.6 13.2-3.7l.7 2.4c-.6.1-42 11.5-84.6 24.4zm-63.6-5.7l-.6-2.4c.2-.1 22.2-5.8 45.5-21.4l1.4 2.1c-23.7 15.8-46 21.6-46.3 21.7zm-6.4-15.3l-2.5-.1c.9-22.1 7.7-38 10.7-43.9-14.4-.6-27.2.9-35 4.3l-1-2.3c3.6-1.6 8.3-2.7 13.6-3.5L9.2 155.3l2.3-1L22 178.7c4.1-.5 8.6-.7 13.3-.8l-5.2-78 2.5-.2 5.2 78.2c1.8 0 3.6.1 5.4.2 0-.1.1-.1.1-.1l.3.2c1.8.1 3.6.2 5.5.4 19.4 1.7 31.3 0 31.5 0l.4 2.5c-.5.1-12.3 1.7-32 0-1.4-.1-2.8-.2-4.1-.3-2.7 4.7-10.3 21-11.2 43.8zM242.4 203l-.1-108.9h2.5l.1 108.9h-2.5zm-121.9-35.2l-.9-71.4h2.5l.9 71.4h-2.5zm50.6-2.8l-.7-71.3h2.5l.7 71.3h-2.5zm-26.4-91.4c-18.7 0-33.3-7.4-35.9-8.8-31.9 4.6-52.2 1.3-63.7-2.4-12.6-4-17.5-9.2-17.7-9.4l1.8-1.7s4.8 5 16.9 8.8c11.2 3.5 31.2 6.8 62.7 2.1l.4-.1.4.2c.4.2 40.5 23 75.7-6.1l.6-.5.7.2c.3.1 29.2 10.4 51-3.8l1.4 2.1c-21.3 13.8-47.9 5.9-52.6 4.3-14.1 11.6-28.9 15.1-41.7 15.1z" clip-path="url(#SVGID_52_)" fill="#964900"/></g><path transform="rotate(-78.744 654.5 232.297)" class="st5" d="M653.3 224.4h2.5v15.9h-2.5z"/></svg>
