<svg version="1.1" id="Слой_1" xmlns="http://www.w3.org/2000/svg" xmlns:xlink="http://www.w3.org/1999/xlink" x="0" y="0" viewBox="0 0 750 428" style="enable-background:new 0 0 750 428" xml:space="preserve"><style>.st6{fill:#744116}.st7{fill:#b3aa75}.st8{fill:#f4aa18}.st26{fill:#ffea9c}.st27{fill:#be3210}.st28{fill:#e8cf74}.st29{fill:#8e4c1a}.st30{fill:#b49c60}.st31{fill:#341f0d}.st37{fill:#e9c97c}</style><defs><path id="SVGID_1_" d="M.1 0H750v428H.1z"/></defs><clipPath id="SVGID_00000021111435588626377460000004869822625526603671_"><use xlink:href="#SVGID_1_" style="overflow:visible"/></clipPath><path style="clip-path:url(#SVGID_00000021111435588626377460000004869822625526603671_)" d="M-2.5-1.8v433.1h756.3V-1.8H-2.5"/><path style="clip-path:url(#SVGID_00000021111435588626377460000004869822625526603671_)" d="M-2.5-1.8h-1v434.1h758.3V-2.8H-3.5v1h1v1h755.3v431.1H-1.5V-1.8h-1v1-1z"/><path style="clip-path:url(#SVGID_00000021111435588626377460000004869822625526603671_);fill:#b24c18" d="M385.3 439.4 442 273.1l-2.7-59.5 47.1-74.7 5.7-25.5 49.3-73.3 17-11.8 22.5-34 20-4.2 5.7 60.9 51.8 34 19 70.9 63.2 48.7-3.7 19.3 4.8 29.8 8.2 15.6-12.1 21.2L754 377l8.3 58.1-1.8-454.5L-8.7-5.2v441.7l394 2.9"/><path style="clip-path:url(#SVGID_00000021111435588626377460000004869822625526603671_)" d="m385.3 439.4 1 .3L443 273.3l-2.7-59.5 47.1-74.5 5.6-25.5 49.1-72.9 17-11.8 22.4-33.9L600-8.7l5.6 60.3 51.9 34.1 19 70.8 63 48.5-3.6 18.9 4.8 30.1 8.1 15.3-12.1 21.1 16.3 86.8 8.4 58 1.9-.1-1.9-455.5L-9.7-6.2v443.7l395.7 2.9.3-.7-1-.3v-1l-393-2.9V-4.2l767.2-14.2 1.8 439.2-6.4-44-16.1-86.1 12.3-21.4-8.4-15.9L738 224l3.7-19.9-63.4-48.8-19-70.9-51.8-33.9-5.7-61.7-21.5 4.6-22.7 34.2-17 11.8-49.4 73.6-5.7 25.5-47.2 74.8L441 273l-56.6 166 .9.4v-1 1z"/><path style="clip-path:url(#SVGID_00000021111435588626377460000004869822625526603671_);fill:#b49c60" d="M569.8 282.4c47.3 0 85.6-38.8 85.6-86.7 0-47.9-38.3-86.7-85.6-86.7s-85.6 38.8-85.6 86.7c0 47.9 38.4 86.7 85.6 86.7z"/><path style="clip-path:url(#SVGID_00000021111435588626377460000004869822625526603671_);fill:#ffea9c" d="m549 430.9-1.1-19s-6.2 2.3-12.5 1.1c-6.2-1.2-15.6-9.4-16.2-22.4-.5-13 7.4-27.8 7.4-47.3 0-19.6.8-45.9 7.5-54.4s18.9-18.7 18.9-18.7l7.2-6.5-7.5-34.9s-16.2-20.1-18.4-31.2c-2.3-11.1.6-30.3 12.8-39.1 12.2-8.8 35.1-12.2 51.9 3.4 16.7 15.6 8.2 34 11.3 57.5 3.1 23.5 8.8 28.9 21.8 38 13 9.1 18.2 11.3 21.3 34.9 3.1 23.5 3.9 43.7 6.8 64.6 2.8 21 3 36.6 2 45.7-1 9.1-8.2 13.9-17.9 13.6l1.1 15.3-96.4-.6z"/><path style="clip-path:url(#SVGID_00000021111435588626377460000004869822625526603671_);fill:#8e4c1a" d="M543.5 224s-.6 4.3 3.4 8.8c0 0 1.7 8.8 2.8 15.9 1.1 7.1 1.1 16.4 7.9 23.2 6.8 6.8 14.7 17.3 19 16.7s7.4-7.6 11.1-13.6c3.7-6 9-13.6 8.5-24.1-.5-10.5-1.7-15-1.7-15s2.8-1.7 4.8-4.5 4.7-8.8-2.1-11.6c0 0-4.7-10.5-7.4-17.6-2.7-7.1-17.2-16.2-29.2-15.7s-24.8 4.8-23.7 15.4c1.1 10.6 1.3 15 3.7 17.7 2.4 2.7 2.9 4.4 2.9 4.4z"/><path style="clip-path:url(#SVGID_00000021111435588626377460000004869822625526603671_);fill:#744116" d="m759.9 192.8-55-41.8-16.1-76.1-60.4-37.5-6.8-41.9 141.1-6.8-2.8 204.1z"/><path class="st6" d="M553.3 265.5c1 2.3 2.4 4.5 4.4 6.4 6.8 6.8 14.7 17.3 19 16.7s7.4-7.6 11.1-13.6c2.1-3.5 4.8-7.5 6.6-12.3-8.6-8-21.2-9.2-27.6-8-10.1 2.1-14 9.8-13.5 10.8z"/><path class="st7" d="M670 20.4c-2.2-5.4-1.4-13 1.7-15 3.1-2 5.4.9 4.3 3.1-1.2 2.3 2 4.5 3.4 9.4 1.4 4.8-1.1 7.9-3.7 6.8-2.6-1.2-4.5-1.5-5.7-4.3zM715.4 90.1c.3-5.7 4.3-9.4 8.5-10.2s10.5 2.8 10.5 8.5-6.8 10.2-9.5 10.2-9.8-3.1-9.5-8.5z"/><path d="M565.2 213.1c.1-.1.9-1.1 2.3-2 1.4-1 3.5-1.9 6.1-1.9.6 0 1.2 0 1.9.2 1.2.2 2.2.7 3.1 1.4 1.3 1 2.2 2.4 2.7 3.5.3.6.5 1.1.6 1.4.1.2.1.3.1.4v.1l1.9-.5c0-.1-.5-1.8-1.7-3.8-.6-1-1.4-2-2.5-2.8-1.1-.8-2.4-1.5-4-1.8-.8-.1-1.5-.2-2.2-.2-3.2 0-5.7 1.2-7.3 2.3-1.7 1.1-2.6 2.3-2.6 2.3l1.6 1.4zM540.6 218.8l-.4-.1.4.1-.4-.1.4.1s.3-1.2 1-2.4c.4-.6.8-1.2 1.4-1.7.6-.5 1.3-.9 2.2-1.1 1-.2 2-.3 2.9-.3 1.3 0 2.3.2 3.1.3.4.1.7.2.9.2.1 0 .2.1.2.1l.1-.2-.1.2.1-.2-.1.2.7-1.9c-.1 0-2.1-.8-5-.8-1 0-2.1.1-3.3.4-1.2.3-2.3.9-3.1 1.5-1.2 1-2 2.3-2.4 3.3-.5 1-.6 1.8-.6 1.8l2 .6zM544.5 224.2l-.5-.2.5.2-.5-.2.5.2s.3-.7 1.1-1.5 2.1-1.7 4.3-2.3c1.9-.5 3.5-.6 4.7-.6h1.6l.1-1-.8.6v.1c.2.3 1.2 1.8 2.1 3.7.9 1.9 1.7 4.1 1.7 5.8v13.3c0 1.2.3 2.2 1 2.9.7.7 1.6 1.1 2.5 1.1 1 0 1.9-.3 2.8-.9 2.5-1.6 3.2-3.5 3.2-3.6l-.9-.3-.2 1h.6c.5 0 1.3-.1 2.1-.6s1.6-1.4 2-2.7l-1.9-.5c-.2.9-.6 1.3-1 1.5-.4.2-.9.3-1.2.3h-.2l-.1.6.1-.6-.1.6.1-.6-.8-.1-.3.8.3.1-.3-.1.3.1-.3-.1c0 .1-.5 1.4-2.4 2.6-.6.4-1.3.6-1.7.6-.5 0-.8-.1-1-.4-.2-.3-.5-.7-.5-1.6v-13.3c0-1.2-.3-2.5-.7-3.7-1.2-3.6-3.5-7-3.5-7l-.2-.4-.4-.1s-.7-.1-1.8-.1c-1.3 0-3.1.1-5.1.6-2.6.6-4.3 1.8-5.3 2.9-1 1.1-1.4 2-1.5 2.1l1.6.8z"/><path d="m569.1 217.7-.2-.1.2.1-.2-.1.2.1s.6-.9 1.7-1.7c1.1-.8 2.7-1.6 4.9-1.6 1 0 2 .1 3.3.5l.6-1.9c-1.4-.4-2.7-.6-3.9-.6-2.8 0-4.9 1-6.2 2.1-1.4 1-2 2.1-2 2.1l1.6 1.1zM567.1 245.2l.6 3s3.9-.5 6 .3c2 .8 2.8 3.2 4.5 3.3 1 .1 2.1-.2 2.1-.2l-.1-2s-2.1.7-4.4-.9c-2.3-1.4-4.9-3.9-8.7-3.5zM562.5 249.4l-.6-3.1s-3.2.8-3.4 4.4c-.2 2.7-3.4 4.1-3.4 4.1l.8 2s2.7-1.6 2.7-3.5c.1-2 3.9-3.9 3.9-3.9zM561.7 254.8s.5.5 1.2 1 1.8 1 3.2 1c.4 0 .9-.1 1.3-.2 1.5-.4 2.5-1 3-1.7.6-.6.8-1.1.8-1.3l-1-.3-.7.8c.1 0 .4.3 1 .6s1.5.6 2.6.6c.6 0 1.4-.1 2.1-.3l-.6-1.9c-.6.2-1.1.2-1.5.2-.8 0-1.4-.2-1.8-.4-.2-.1-.4-.2-.4-.3l-.1-.1-.2.3.3-.3-.2.3.3-.3-1.2-1-.4 1.5.6.2-.6-.2.6.2-.6-.2s-.1.3-.5.6c-.3.3-.9.7-2 1-.3.1-.5.1-.8.1-.8 0-1.5-.3-2.1-.7-.3-.2-.5-.4-.6-.5l-.2-.2-.3.3.3-.3-.3.3.3-.3-1.5 1.5z"/><path d="M564.5 256.5v.6c0 .6.1 1.5.6 2.6s1.4 2.2 3 3.1l1-1.7c-1.2-.7-1.8-1.5-2.2-2.2-.3-.7-.4-1.4-.4-1.8v-.2l-.5-.1.5.1-.5-.1.5.1-2-.4zM594.2 230c.1 0 .6-.2 1.2-.7.3-.3.6-.6.8-1.1.2-.5.4-1 .4-1.7 0-.5-.1-1.1-.3-1.7l-1 .3 1 .2 1.2-5.5-2-.4-1.3 5.8.1.3c.1.5.2.9.2 1.1 0 .4-.1.6-.2.8-.1.3-.3.4-.5.6l-.2.1.2.6-.2-.6.2.6-.2-.6.6 1.9z"/><path class="st8" d="M547.7 412.3c.3 0 2-.1 5.5-2.6s8.8-7.4 16.4-17.1c6-7.7 12-14.2 16.7-19.7 2.4-2.8 4.4-5.3 6-7.8 1.6-2.4 2.8-4.7 3.3-6.9l-1-.2.3.9c.2-.1 8.4-3.1 15.9-18.9 3.7-7.8 5.1-13.9 5.1-18.5 0-2.4-.4-4.3-1-5.9-.6-1.6-1.6-2.8-2.7-3.5-1.5-1-3.6-2-6.2-2-2.2 0-4.6.7-7.1 2.5s-5.1 4.7-7.6 9.2c-4 6.9-6.9 12-8.9 15.4-1 1.7-1.7 2.9-2.2 3.8-.5.8-.7 1.2-.7 1.2l.9.5-.3-1c-.2 0-4.9 1.6-10.2 8.9l.8.6.1-1s-.7-.1-1.8-.1c-3.7 0-12.7.9-23.5 8.2l1.1 1.7c10.5-7 19-7.8 22.4-7.8h1.6l.6.1.3-.5c2.5-3.5 4.8-5.5 6.5-6.7.8-.6 1.5-1 2-1.2.2-.1.4-.2.5-.2h.1l-.1-.2.1.2-.1-.2.1.2.4-.1.2-.3s4-6.5 11.9-20.4c2.4-4.3 4.8-6.9 7.1-8.5 2.2-1.6 4.2-2.1 6-2.1 2.1 0 3.9.8 5.1 1.6.7.5 1.5 1.4 2 2.7.5 1.3.9 3 .9 5.1 0 4.2-1.3 10-4.9 17.6-3.6 7.7-7.4 12.2-10.2 14.7-1.4 1.3-2.6 2.1-3.4 2.6-.4.2-.7.4-.9.5-.1 0-.2.1-.2.1l-.5.2-.1.5c-.5 1.9-1.5 4-3 6.3-4.6 6.9-13.5 15.6-22.6 27.4-7.4 9.6-12.7 14.3-15.9 16.7-1.6 1.2-2.8 1.7-3.5 2-.4.1-.6.2-.7.2h-.1v.6-.6.6-.6l-.5 1.8z"/><path class="st8" d="M545.4 344.8c.2 0 1-.1 2.3-.1 4.3 0 13.7.8 21.5 6.7l1.2-1.6c-8.3-6.3-18.2-7.1-22.7-7.1-1.6 0-2.5.1-2.5.1l.2 2zM581.9 375.9s6.6 8.6 17.2 16.9c5.3 4.2 13.3 9.1 21.5 13.6 8.3 4.5 16.8 8.4 23.3 10.4l.6-1.9c-6.3-1.9-14.7-5.8-22.9-10.2-8.2-4.4-16.1-9.4-21.3-13.4-5.2-4.1-9.4-8.2-12.3-11.3-1.5-1.6-2.6-2.9-3.4-3.8-.4-.5-.7-.8-.9-1.1-.1-.1-.2-.2-.2-.3l-.1-.1-1.5 1.2zM598.9 356.2c.1.1 15.9 12.1 40.4 15.8l.3-2c-12-1.8-21.9-5.7-28.8-9.1-3.4-1.7-6.1-3.3-8-4.5-.9-.6-1.6-1.1-2.1-1.4-.2-.2-.4-.3-.5-.4l-.1-.1-1.2 1.7z"/><path class="st8" d="M620.1 366.1c.1-.1 1.7-2.9 5-5.7 3.4-2.8 8.5-5.5 15.7-5.5 2 0 4.2.2 6.6.7l.4-2c-2.5-.5-4.8-.8-7-.8-7.9 0-13.5 3.1-17.2 6.1-3.6 3-5.3 6.1-5.4 6.2l1.9 1zM564.5 298.7s-.1 1.3-.1 3.5c0 4.5.2 12.6 1.7 21 .7 4.2 1.8 8.4 3.2 12.3 1.5 3.8 3.4 7.3 5.9 10l1.4-1.4c-2.3-2.4-4.1-5.6-5.5-9.3-2.1-5.5-3.3-12-4-17.9-.7-5.9-.8-11.3-.8-14.6V298.9l-1.8-.2z"/><path class="st8" d="M563.4 316.4s-.8 4.5-.8 10.6c0 3.9.3 8.4 1.4 12.8 1 4.4 2.8 8.8 5.8 12.3l1.5-1.3c-2.7-3.2-4.4-7.2-5.4-11.4s-1.3-8.6-1.3-12.3c0-3 .2-5.5.4-7.4.1-.9.2-1.6.3-2.1 0-.2.1-.4.1-.6v-.2l-2-.4zM619.1 312.8c.1.4.2 2 .2 4.7 0 7.7-1.6 24.1-13.1 41.5l1.7 1.1c11.8-17.9 13.4-34.6 13.4-42.6 0-3.1-.2-4.9-.3-4.9l-1.9.2z"/><path class="st8" d="M618.2 338.9c0 .1.3 1.5.3 3.8 0 4.2-.8 11.7-5.6 20.2l1.8 1c4.9-8.9 5.8-16.6 5.8-21.1 0-2.6-.3-4.1-.3-4.2l-2 .3zM561.9 411.2s2.9 2.7 7.8 5.3c4.9 2.6 12 5.2 20.4 5.2h2c9-.4 16.5-4 21.7-7.4 5.2-3.4 8.2-6.7 8.3-6.8l-1.5-1.3c-.3.3-3.3 3.5-8.3 6.7-5 3.2-12 6.4-20.3 6.8h-1.9c-8 0-14.8-2.5-19.5-5-2.4-1.3-4.2-2.5-5.5-3.4-.6-.5-1.1-.9-1.4-1.1-.2-.1-.3-.2-.4-.3l-.1-.1-1.3 1.4z"/><path class="st8" d="M566.8 396v-.1.1-.1.1h.1c1.5 0 16.1.5 36.7 22.2l1.4-1.4c-20.9-22-36.1-22.8-38.1-22.8h-.2l.1 2z"/><defs><path id="SVGID_00000153707005797063056200000003247885441235888300_" d="M.1 0H750v428H.1z"/></defs><clipPath id="SVGID_00000016775100271417527120000003392419989184586149_"><use xlink:href="#SVGID_00000153707005797063056200000003247885441235888300_" style="overflow:visible"/></clipPath><path style="clip-path:url(#SVGID_00000016775100271417527120000003392419989184586149_);fill:#f4aa18" d="M590 405.9s1.3.2 3.2.2c2 0 4.6-.2 7.5-1.2 2.9-1 5.9-2.7 8.5-5.7l-1.5-1.3c-2.4 2.7-5.1 4.3-7.6 5.2-2.6.9-5 1.1-6.8 1.1-.9 0-1.6-.1-2.1-.1-.2 0-.4-.1-.6-.1h-.1l-.5 1.9zM627.3 410.5c.3.4 5.2 7.7 5.2 18.1v.1h2v-.1c0-11.4-5.5-19.1-5.6-19.2l-1.6 1.1z"/><path class="st8" d="M608.3 254.2s.1 5.6.3 12.6c.3 7 .8 15.4 1.8 21l1-.2-.9-.5-2.1 3.5 1.7 1 2.3-3.8-.1-.4c-.9-5.4-1.4-13.8-1.7-20.7-.1-3.5-.2-6.6-.3-8.9v-3.7l-2 .1z"/><path class="st8" d="m607.4 280.4-5.1 9 1.7 5.6 1-.3-.8-.6s-1.4 1.6-3 4.1c-1.6 2.5-3.5 5.9-4.5 9.6l1.9.5c.9-3.4 2.7-6.7 4.2-9 .8-1.2 1.5-2.2 2-2.8.3-.3.5-.6.6-.8l.2-.2.1-.1.4-.4-1.6-5.3 4.7-8.3-1.8-1zM618.3 287.4c0 .1-2.3 6.5-2.3 14.6 0 5 .8 10.7 3.6 15.9l1.8-.9c-2.6-4.9-3.4-10.2-3.4-15 0-3.9.5-7.4 1.1-9.9.3-1.3.5-2.3.7-3 .1-.3.2-.6.2-.8l.1-.2v-.1l-1.8-.6zM595.9 321.6s.8 1.7 2.2 3.7c1.4 2 3.6 4.3 6.5 5.7 2.5 1.2 4.5 1.5 6 1.5 2 0 3.1-.6 3.2-.7l-1-1.7.3.5-.3-.5.3.5-.3-.5-.1.1c-.3.1-1 .3-2.1.3-1.2 0-2.9-.3-5.1-1.3-2.4-1.2-4.4-3.3-5.7-5.1-.7-.9-1.2-1.8-1.5-2.4-.2-.3-.3-.5-.4-.7l-.1-.2-1.9.8zM594.9 326.9c0 .1.5 1.8 1.9 3.8 1.4 2 3.7 4.4 7.2 5.7 2 .8 3.6 1 4.8 1 2.1 0 3.2-.8 3.3-1l-1.4-1.4.3.3-.3-.3.3.3-.3-.3s-.5.4-2 .4c-.9 0-2.3-.2-4.1-.9-3.1-1.2-5.1-3.2-6.3-5-.6-.9-1-1.7-1.3-2.3-.1-.3-.2-.5-.3-.7l-.1-.2-.3.1.3-.1-.3.1.3-.1-1.7.6zM581.8 348.8s1.4 2 3.8 4.3c2.4 2.2 5.7 4.7 9.6 5.5l.4-2c-3.3-.7-6.4-2.9-8.6-5-1.1-1-2-2-2.6-2.8-.3-.4-.5-.7-.7-.9-.1-.1-.1-.2-.2-.2v-.1l-1.7 1.2z"/><defs><path id="SVGID_00000096023282913223810760000006157800139364257429_" d="M.1 0H750v428H.1z"/></defs><clipPath id="SVGID_00000031897971157161940200000008543181115897023648_"><use xlink:href="#SVGID_00000096023282913223810760000006157800139364257429_" style="overflow:visible"/></clipPath><path style="clip-path:url(#SVGID_00000031897971157161940200000008543181115897023648_);fill:#f4aa18" d="M578.8 353.5s1.3 2.2 3.6 4.6c2.3 2.4 5.8 5.1 10.2 6.1l.4-1.9c-3.8-.9-7-3.3-9.2-5.6-1.1-1.1-1.9-2.2-2.5-3-.3-.4-.5-.7-.6-.9-.1-.1-.1-.2-.2-.3v-.1l-1.7 1.1z"/><path style="clip-path:url(#SVGID_00000031897971157161940200000008543181115897023648_);fill:#744116" d="m417.5 283.9 4.2-17.6-2.1-66.9 41.8-59.8 3.5-34.3 59.7-80.4 26.8-33.4-74.4-7.1-34 68.1-16.1 65.9-23.6 63.1-.5 73.5 14.7 28.9z"/><path style="clip-path:url(#SVGID_00000031897971157161940200000008543181115897023648_);fill:#462612" d="m465.6 105.3 25.6 8.1-7 33-45.8 67.6-16.7-14.2 38.9-58.8 5-35.7zM678.2 155.4l26.7-4.4 57.8 44.6-21.5 9.1-63.1-48.2"/><path style="clip-path:url(#SVGID_00000031897971157161940200000008543181115897023648_);fill:#744116" d="m377 284.5 21.5-106.7 19-57.3L433 51l48.8-81.2L207-9.2l170 293.7z"/><path style="clip-path:url(#SVGID_00000031897971157161940200000008543181115897023648_);fill:#ccd5ae" d="M270.2 16.4c-3.4-7.5 3.7-15.1 12.7-28.1 9.1-13 15.6-20.4 15.6-20.4s-.9-3.1-.9-6.8c0-3.7-11-15.6-11-15.6l5.7-1.1s6.8 5.7 13.6 13.3c6.8 7.7 9.3 15.3 2.8 23.5-6.5 8.2-20.4 21.9-25.5 28.6-5.1 6.8-11.3 10.2-13 6.6z"/><path style="clip-path:url(#SVGID_00000031897971157161940200000008543181115897023648_);fill:#49291a" d="M355.4 217s12.5-136.2-28.6-243.9-93.5-15.6-93.5-15.6L355.4 217z"/><path style="clip-path:url(#SVGID_00000031897971157161940200000008543181115897023648_);fill:#462612" d="m607.1 51.3 19-11L687.9 74 659 84.5l-51.9-33.2zM541.3 39.1l-16.7-14.2L553-3.4l29.5.6-23.9 32.3-17.3 9.6z"/><path style="clip-path:url(#SVGID_00000031897971157161940200000008543181115897023648_);fill:#e8cf74" d="M758.3 188.5 707.4 151l-17.1-77.3-59.5-36.1-7.2-56.7-61-.2-41.1 40.6-60.8 81.5-2.8 37.7-39.4 57.9-.5 75.4-61 176.9 3.8-1.4 61.8-177.9 1.5-69.7 40.1-61 3.5-34.4 58-81.7 39.2-37.9 54.4 2.8 5.1 51.6 61.5 35.7 16.9 74.6 59.1 43.4-3.6-6.3z"/><path style="clip-path:url(#SVGID_00000031897971157161940200000008543181115897023648_);fill:#e8cf74" d="M563 242.5v-2.8h-1v2.8"/><path style="clip-path:url(#SVGID_00000031897971157161940200000008543181115897023648_);fill:#aa3010" d="M417.5 436.5s-9.4-137.9-57.6-260.8C301.5 26.9 229.5-23.6 229.5-23.6l-246.7 5.2v461.1l434.7-6.2"/><path style="clip-path:url(#SVGID_00000031897971157161940200000008543181115897023648_);fill:#7d1a14" d="m417.5 436.5 2-.1s-2.4-34.6-10.8-84.5-22.8-115.2-47-176.9C303.2 25.8 231-25.1 230.7-25.2l-.5-.4-249.3 5.2v465.1l438.8-6.2-.1-2.1-2.1.1v-2l-432.6 6.1V-16.5l244.8-5.1v-2l-1.1 1.6c1.9 1.4 72.2 52.3 129.5 198.4 24 61.3 38.4 126.3 46.8 176.1 4.2 24.9 6.9 45.9 8.5 60.7.8 7.4 1.4 13.3 1.7 17.3.2 2 .3 3.5.4 4.6 0 .5.1.9.1 1.2v.4l1.9-.2v-2 2z"/><path style="clip-path:url(#SVGID_00000031897971157161940200000008543181115897023648_);fill:#c26511" d="M154.5-11.3S215.9 33 269.2 136.8C318.1 232.1 322 276 322 276v-1s20.5 60 33.1 163H-5.7L-10.6-9.9l165.1-1.4"/><path style="clip-path:url(#SVGID_00000031897971157161940200000008543181115897023648_);fill:#e8cf74" d="m154.5-11.3-2 2.8c.6.5 61 44.4 113.6 146.9 24.4 47.5 37.5 82.1 44.5 104.8 3.5 11.3 5.5 19.7 6.6 25.2.6 2.7.9 4.8 1.1 6.1.1.7.2 1.1.2 1.5v.4l1.2-.1-1.2.1 1.2-.1-1.2.1 7-.4v-1H322l-3.3 1.1c.6 1.7 20.5 61.2 32.9 162.2l3.5-.4v-3.5H-2.3L-7-6.5l161.6-1.4-.1-3.4-2 2.8 2-2.8v-3.5l-168.6 1.4 4.9 454.8H359l-.5-3.9c-12.7-103.2-33.2-163.5-33.2-163.7l-6.8 1.2v1l3.5-.1 3.5-.3c0-.5-4.1-44.9-53.2-140.5-53.6-104.4-115.4-149-115.7-149.3l-.9-.7h-1.1l-.1 3.6z"/><path style="clip-path:url(#SVGID_00000031897971157161940200000008543181115897023648_);fill:#b45210" d="M-17.1 73.7S164.2 159.6 219.7 467c22.2 122.8-240.2-14.9-240.2-14.9l3.4-378.4z"/><path style="clip-path:url(#SVGID_00000031897971157161940200000008543181115897023648_);fill:#b49c60" d="M171.9 295.7c50.1 0 90.7-41.1 90.7-91.9 0-50.8-40.6-91.9-90.7-91.9S81.2 153 81.2 203.8c0 50.8 40.6 91.9 90.7 91.9"/><path style="clip-path:url(#SVGID_00000031897971157161940200000008543181115897023648_)" d="M32.5 432.6 45 404.3s-2.4-21.6 10.2-52.8c12.5-31.2 21-51 40.5-60.9 19.5-9.9 53.9-6.4 53.9-6.4s17.8 7.8 24.7 22.7c6.9 14.9 18.2 39.5 28.5 51 10.3 11.4 15.9 39.7 28.7 48.6s24.8 15.9 26.9 26.9l-225.9-.8z"/><path style="clip-path:url(#SVGID_00000031897971157161940200000008543181115897023648_)" d="m32.5 432.6.9.4L46 404.4v-.4c0-.3-.2-1.9-.2-4.4 0-7.8 1.2-25.3 10.3-47.8 6.3-15.6 11.5-28.3 17.6-38.3 6.1-10 12.9-17.3 22.5-22.1 5.5-2.8 12.4-4.6 19.4-5.6 6.9-1 13.9-1.3 19.8-1.3 4.1 0 7.7.2 10.2.3 1.3.1 2.2.2 2.9.2.3 0 .6.1.8.1h.3l.1-1-.4.9c.5.2 4.9 2.2 10 6 5.1 3.7 10.9 9.2 14.1 16.2 3.4 7.4 8 17.4 13 26.8 5 9.5 10.4 18.5 15.7 24.4 2.5 2.7 4.7 6.6 6.9 10.9 3.2 6.5 6.3 14.2 9.7 21.2 3.4 6.9 7.3 13.1 12.3 16.6 6.4 4.4 12.6 8.4 17.4 12.6 2.4 2.1 4.4 4.2 6 6.5 1.6 2.3 2.6 4.6 3.1 7.2l1-.2v-1l-225.8-.7-.2 1.1.9.4-.9-.4v1l227 .7-.2-1.2c-.6-2.9-1.8-5.5-3.5-8-2.5-3.7-6.1-6.9-10.3-10-4.1-3.2-8.8-6.2-13.6-9.5-3-2.1-5.7-5.4-8.1-9.4-3.7-6-6.8-13.6-10-20.7s-6.4-13.9-10.4-18.3c-5-5.6-10.4-14.6-15.4-24s-9.5-19.3-12.9-26.7c-3.5-7.7-9.8-13.5-15.2-17.3-5.4-3.9-9.9-5.8-10-5.9l-.1-.1h-.2s-6-.6-14.4-.6c-5.9 0-13 .3-20.1 1.3-7.1 1-14.1 2.8-20 5.8-9.9 5.1-17.1 12.7-23.3 22.9-6.2 10.2-11.5 23-17.7 38.6-9.1 22.8-10.4 40.5-10.4 48.5 0 3 .2 4.7.2 4.7l1-.1-.9-.4-13 29.7h1.5v-1z"/><path style="clip-path:url(#SVGID_00000031897971157161940200000008543181115897023648_);fill:#ffea9c" d="m172.8 306.8-4.9 122.6 1 .1 4.9-122.6"/><path d="M70.6 400.4s-5.3-34 3.9-61.3c9.2-27.3 17.6-42.9 26.1-44.3 8.5-1.4 15.8-2.3 22.8-1 7 1.3 10 8.1 15.9 12.7 6 4.6 17 10.6 29.4 10.6v27.6s30.5-1.1 44.6 1.6c0 0 23.4-13.6 36.9-21.8 13.5-8.1 22-17 26.9-21.3 5-4.3 6.8-7.7 13.3-6.5 6.5 1.2 9.4 10 8.5 25.3-.9 15.3-1.5 33.3-1.4 41.5.1 8.1-.6 21.6-20.4 32.2-19.8 10.6-35.4 11.7-35.4 11.7s-2.1 4.6-16.7 5.7c-14.5 1.1-34.3 1-57.9 1s-54.8-9.1-54.8-9.1-28.3-.4-41.7-4.6z" style="fill:#7d1a14"/><defs><path id="SVGID_00000157298520787439354710000001834660957173490610_" d="M.1 0H750v428H.1z"/></defs><clipPath id="SVGID_00000119093645386320733700000011040329122917850764_"><use xlink:href="#SVGID_00000157298520787439354710000001834660957173490610_" style="overflow:visible"/></clipPath><path style="clip-path:url(#SVGID_00000119093645386320733700000011040329122917850764_)" d="m70.6 400.4 1-.2s0-.1-.1-.4c-.3-2-1.5-10.9-1.4-22.4 0-11.4 1.1-25.5 5.4-38 4.6-13.6 9-24.3 13.2-31.7 2.1-3.7 4.2-6.6 6.2-8.5 2-2 4-3.1 5.8-3.4 5.6-.9 10.6-1.6 15.3-1.6 2.4 0 4.8.2 7.1.6 1.6.3 3 .9 4.2 1.8 1.9 1.2 3.6 3 5.3 4.9 1.8 1.9 3.6 4 6 5.8 3.1 2.4 7.4 5.1 12.5 7.2 5.1 2.1 11.1 3.7 17.5 3.7v-1h-1v28.7h2.1c2.1-.1 6.9-.2 12.9-.2 4.9 0 10.6.1 16 .3 5.4.3 10.6.7 14.4 1.4l.4.1.3-.2s23.4-13.6 36.9-21.8c6.8-4.1 12.3-8.4 16.8-12.2 4.5-3.8 7.8-7.1 10.3-9.2 2.2-1.9 3.8-3.6 5.3-4.7.8-.6 1.5-1 2.3-1.3.8-.3 1.7-.5 2.7-.5.7 0 1.4.1 2.2.2 1.2.2 2.3.8 3.3 1.6 1.4 1.3 2.6 3.4 3.4 6.3.8 2.9 1.2 6.6 1.2 11.1 0 1.6-.1 3.4-.2 5.2-.9 14-1.4 30.3-1.4 39.2v3.5c0 4.1-.4 9.1-3 14.4-2.6 5.3-7.6 10.8-16.9 15.8-9.8 5.3-18.6 8.2-24.9 9.7-3.2.8-5.7 1.2-7.4 1.5-.9.1-1.5.2-2 .3-.2 0-.4 0-.5.1h-.7l-.2.5.6.3-.6-.3.6.3-.6-.3h.1-.1.1-.1s-.5 1-2.8 2.2c-2.2 1.2-6.2 2.4-13.1 2.9-12.9.9-29.9 1-50.2 1h-7.6c-11.7 0-25.3-2.3-36.1-4.6-5.4-1.1-10-2.3-13.3-3.1-1.6-.4-2.9-.8-3.8-1-.4-.1-.8-.2-1-.3-.2-.1-.3-.1-.3-.1h-1.4c-2.8-.1-10-.3-17.9-.9-7.9-.7-16.6-1.8-22.4-3.6l-.4.9 1-.2-1 .2-.3 1c3.5 1.1 7.8 1.9 12.4 2.6 13.7 1.9 29.7 2.1 29.7 2.1v-1l-.3 1s7.8 2.3 18.6 4.6 24.5 4.6 36.5 4.6h7.6c20.3 0 37.3-.1 50.3-1 7.4-.5 11.7-2 14.2-3.4s3.2-2.7 3.3-2.9l-.9-.4.1 1c.1 0 15.8-1.1 35.8-11.8 9.6-5.1 14.9-11 17.7-16.7 2.8-5.7 3.2-11.1 3.2-15.3v-3.5c0-8.9.6-25.2 1.4-39.1.1-1.9.2-3.7.2-5.4 0-6.1-.7-10.9-2.3-14.5-.8-1.8-1.7-3.2-3-4.4-1.2-1.1-2.7-1.8-4.3-2.1-.9-.2-1.8-.3-2.6-.3-1.3 0-2.4.2-3.4.6-1.5.6-2.8 1.5-4.1 2.6-1.3 1.1-2.5 2.4-4.1 3.7-2.5 2.2-5.9 5.4-10.3 9.2-4.4 3.7-9.8 8-16.5 12-6.7 4.1-15.9 9.5-23.5 13.9-3.8 2.2-7.1 4.2-9.5 5.6-2.4 1.4-3.9 2.3-3.9 2.3l.5.9.2-1c-4-.8-9.2-1.2-14.7-1.5-5.5-.3-11.2-.3-16.1-.3-8 0-14 .2-14 .2v1h1v-28.6h-1c-6 0-11.8-1.5-16.7-3.5-5-2-9.1-4.7-12.1-6.9-2.9-2.2-5.1-5-7.5-7.5-1.2-1.2-2.5-2.4-3.9-3.4s-3.1-1.7-5-2c-2.5-.5-4.9-.7-7.5-.7-4.9 0-10 .7-15.7 1.7-2.4.4-4.7 1.8-6.9 3.9-3.3 3.3-6.6 8.4-9.9 15.3-3.3 6.9-6.6 15.5-10.1 25.7-4.3 12.8-5.5 27-5.5 38.6 0 13.3 1.5 23.1 1.5 23.2l.1.6.6.2.7-.9z"/><path style="clip-path:url(#SVGID_00000119093645386320733700000011040329122917850764_);fill:#ccd5ae" d="M39.8 431.8s.2-.6.5-1.6c1-3 3.3-9.9 6.2-16.8 1.9-4.6 2.9-6.9 3.4-8.1.2-.6.4-.9.4-1l.1-.1c.1-.2 0-.4-.1-.6-.1-.2-.3-.3-.4-.4-.2-.1-.4 0-.6.1-.2.1-.3.3-.4.4-.1.4.1.8.5.9.4.1.8-.1.9-.5 0-.2 0-.4-.1-.6-.1-.2-.3-.3-.5-.3s-.4 0-.6.1c-.2.1-.3.3-.3.5v.2h.8l.7-.1v-.1c0-.5-.2-2.5-.2-5.9 0-7.1.9-19.9 5.8-34.1 3.8-10.9 10.1-25.8 16.9-39 3.4-6.6 6.9-12.8 10.3-17.9 3.4-5.1 6.7-9 9.5-11.2l-.9-1.2c-3 2.3-6.4 6.4-9.8 11.5-10.3 15.4-21.7 40.7-27.4 57.2-5 14.5-5.8 27.4-5.8 34.6 0 3.8.2 6.1.2 6.1l.7-.1h-.7.7l-.7-.2v.1h.7l-.7-.2.7.2-.7-.2v.1l.7.2-.7-.2.7.2-.7-.2.7.2-.7-.2.6.2-.6-.2.6.2-.6-.2s-.3.7-3.9 9.2c-3.9 9.2-6.8 18.5-6.8 18.5l1.6.5z"/><path class="st26" d="m112.3 290.8 18.4 2.3.1-1-.9.5c.1.1 5.5 9.7 19.5 17.2 6.5 3.5 12.3 4.4 16.4 4.4 3.9 0 6.3-.8 6.4-.8l-.6-1.9v.1-.1.1-.1c-.1 0-2.2.7-5.7.7-3.8 0-9.3-.8-15.5-4.1-6.8-3.7-11.5-7.8-14.5-11-1.5-1.6-2.6-3-3.3-3.9-.3-.5-.6-.9-.8-1.1-.1-.1-.1-.2-.2-.3v-.1l-.2-.4-18.9-2.4-.2 1.9z"/><path d="M68 403.9s21.1 5.3 44.2 5"/><path class="st26" d="M67.9 404.4s19.8 5 42.1 5h2.2v-1H110c-11.1 0-21.6-1.2-29.3-2.5-3.8-.6-7-1.2-9.2-1.7-1.1-.2-1.9-.4-2.5-.6-.6-.1-.9-.2-.9-.2l-.2 1z"/><path class="st27" d="m89.2 168.7 167.3 2.1v-1.5l-167.3-2.1M201.2 213.7H253l7.2 8.1 1.1-1-7.6-8.6h-52.5v1.5z"/><path class="st27" d="M201.2 220.2h49.2l8 9.3 1.2-.9-8.5-9.9h-49.9v1.5zM84.9 228.3l8.7-8.1 35.9.2v-1.5l-36.5-.2-9.1 8.5 1 1.1z"/><path class="st27" d="m83 221.3 7.3-7.6h39.4v-1.5H89.6l-7.7 8.1 1.1 1zM149.6 159.5v-44.7h-1.5v44.7M155.4 155.9v-42h-1.5v42M195.6 157.6l.6-42.8h-1.5l-.6 42.8M201.6 157.6l.3-40.8h-1.5l-.3 40.8"/><path class="st28" d="M280.2 300.2v1.2c0 3 .3 10.8 3 16.7l.7-.3-.7.1s.1.3.2 1c.7 4.4 3.4 22.5 3.4 32.6v17.8c0 2.3.1 4.5.6 6.3.2.9.6 1.6 1.1 2.2.5.6 1.3 1 2.2 1h.1c.5 0 .9-.1 1.3-.4.7-.5 1.1-1.3 1.4-2.2.4-1.5.6-3.6.8-6.5.1-2.9.2-6.6.2-11.2.1-5.3.8-16 1.4-25.4.3-4.7.6-9.1.9-12.3.2-3.2.4-5.2.4-5.2l-1.5-.1s-2.5 32.3-2.7 43c-.1 7-.2 11.9-.5 14.9-.2 1.5-.4 2.6-.8 3.2-.2.3-.3.5-.5.6-.1.1-.3.1-.5.2h-.1c-.5 0-.8-.2-1.1-.5-.5-.5-.8-1.5-1-2.8-.2-1.3-.3-3-.3-4.6v-17.8c0-5.9-.9-14.3-1.8-21.3s-1.8-12.5-1.8-12.5v-.2c-2.5-5.5-2.8-13.2-2.8-16.1v-1.1l-1.6-.3z"/><path class="st29" d="M289.1 324s-1.7-8.3-1.7-17.2c0-8.9.5-7.8.5-7.8l14.4-18.9s5-14.5 7.5-20.4c2.6-5.9 3.1-7.9 3.1-7.9s-.3-9.2 2.6-13.6c2.8-4.4 4.8-9.1 6.8-10.9 2-1.8 12.5-.7 12.5-.7s3.2-1.4 5.4-3.7c2.2-2.3 5.1 0 5.4 1.4.3 1.4-1.7 7.4-8.5 9.5l-5.7 9.8-.3 3.7s4.8-.3 5.7 4.3c.9 4.5-1.4 13.9-6.5 23.2-5.1 9.4-8.9 14.9-13.8 15.5-.1-.2-11.3 18.7-27.4 33.7z"/><path class="st6" d="m289.1 324 .5-.1s0-.1-.1-.4c-.3-1.7-1.7-9-1.7-16.7 0-3.6.1-5.5.2-6.6 0-.5.1-.8.1-.9v-.1l-.3-.1.2.2.1-.1-.3-.1.2.2-.3-.3v.5c.2 0 .3-.1.3-.1l-.3-.3v.5-.6l-.3.4c.1 0 .1.1.3.1v-.5l-.3.4.2-.4-.4.2s0 .1.2.2l.2-.4-.4.2.3.8 15-19.6v-.1l.8-2.4c1.5-4.4 4.8-13.6 6.7-18 2.6-5.9 3.1-8 3.1-8V251c0-1.1 0-3.4.4-5.8.3-2.4 1-5.1 2.1-6.8 1.4-2.2 2.6-4.5 3.7-6.5 1.1-1.9 2.1-3.6 3-4.4.3-.3 1.1-.6 2.2-.7 1.1-.2 2.4-.2 3.7-.2 1.6 0 3.1.1 4.3.2.6 0 1.1.1 1.4.1h.6l.1-.1s3.2-1.4 5.6-3.8c.6-.6 1.2-.8 1.8-.8.7 0 1.3.3 1.8.7.5.4.9 1 .9 1.3v.2c0 .4-.1 1-.4 1.7-.9 2.3-3.2 5.5-7.8 7l-.2.1-5.8 10-.3 4.4h.7c.4 0 1.5.1 2.6.6s2.1 1.4 2.4 3.3c.1.6.2 1.3.2 2.1 0 4.8-2.2 12.9-6.6 20.8-2.6 4.7-4.8 8.4-6.9 11-2.2 2.6-4.2 4-6.4 4.3h-.2l-.1.2s-.2.3-.5.8c-2.4 3.8-12.7 19.8-26.7 32.9l.4.4.5-.1-.5.1.3.4c16.2-15.1 27.4-33.9 27.4-34l-.4-.3.1.5c2.6-.3 4.9-1.9 7.1-4.6 2.2-2.7 4.5-6.4 7-11.1 4.4-8.1 6.7-16.2 6.7-21.3 0-.8-.1-1.6-.2-2.2-.4-2.2-1.7-3.4-3-4-1.3-.6-2.5-.7-3-.7h-.2v.5h.5l.3-3.6 5.6-9.7-.4-.3.1.5c3.3-1 5.5-2.9 6.9-4.8.7-1 1.2-1.9 1.5-2.7.3-.8.5-1.6.5-2.1v-.4c-.1-.7-.6-1.3-1.3-1.8-.7-.5-1.5-.9-2.5-.9-.8 0-1.7.3-2.5 1.1-1.1 1.1-2.4 2-3.4 2.6-.5.3-1 .5-1.3.7-.2.1-.3.1-.4.2l-.1.1.2.5.1-.5s-3.1-.3-6.3-.3c-1.3 0-2.7.1-3.8.2-1.2.2-2.1.4-2.7 1-1.1 1-2.1 2.7-3.2 4.6-1.1 2-2.3 4.2-3.7 6.4-1.2 1.9-1.9 4.7-2.2 7.2-.3 2.5-.4 4.8-.4 6v.7h.5l-.5-.1v.1c-.1.4-.8 2.6-3.1 7.8-2.6 6-7.5 20.5-7.5 20.5l.5.2-.4-.3-14.4 18.9.4.3.5-.2-.1-.1-.1-.1c-.1 0-.2-.1-.3-.1-.1 0-.3.1-.3.1-.1.1-.2.2-.2.3-.1.2-.1.3-.1.6-.1.9-.2 2.9-.2 7.3 0 9 1.7 17.3 1.8 17.3l.2.9.6-.6-.6-.7z"/><path d="M322.2 252.9s0-.2.1-.5c.2-1 .9-3.7 1.7-6.5.4-1.4.8-2.8 1.3-4.1.5-1.3.9-2.4 1.3-3.1 1.1-1.9 2.4-4.3 3.9-6.4 1.5-2.1 3.2-3.9 5-4.7 1.5-.7 2.7-1.5 3.7-2.2 1-.7 1.6-1.4 2-1.7.3-.2.7-.4 1.2-.4.2 0 .4 0 .5.1l.6-1.9c-.3-.1-.7-.2-1.1-.2-.8 0-1.8.2-2.5.9-.4.4-1 1-1.9 1.6-.9.7-2 1.4-3.3 2-2.3 1.1-4.2 3.1-5.8 5.3-1.6 2.2-2.9 4.7-4 6.5-.6 1.1-1.1 2.5-1.7 4-1.6 4.7-2.9 10.7-3 10.7l2 .6z"/><path class="st28" d="M171.9 295.7v1c25.3 0 48.3-10.4 64.8-27.2 16.6-16.8 26.9-40 26.9-65.7 0-25.6-10.3-48.9-26.9-65.7-16.6-16.8-39.5-27.2-64.8-27.2-25.3 0-48.3 10.4-64.8 27.2-16.6 16.8-26.9 40-26.9 65.7 0 25.6 10.3 48.9 26.9 65.7 16.6 16.8 39.5 27.2 64.8 27.2v-2c-24.8 0-47.2-10.2-63.4-26.6-16.2-16.5-26.3-39.2-26.3-64.3 0-25.1 10-47.8 26.3-64.3 16.2-16.5 38.7-26.6 63.4-26.6 24.8 0 47.2 10.2 63.4 26.6 16.2 16.5 26.3 39.2 26.3 64.3 0 25.1-10 47.8-26.3 64.3-16.2 16.5-38.7 26.6-63.4 26.6v1z"/><path class="st29" d="m170.8 310.9 5.1-17.9s5.6.6 11.9-7.9c6.3-8.5 8.8-14.7 7.7-24.4-1.1-9.6-1.1-9.9-1.1-9.9s6.8-12.5 7.9-19.9c1.1-7.3 1-11.2 1-11.2l1-4.1s3.7-2.5 3.7-11.9 4.4-18.8 4.4-18.8l-28.3-8.7-18 3.7-20.8 15.9-5 21 3.1 4s-.6 6.8 0 11.3c.6 4.5 2 7.7 4.8 6.5l-6 10.8-13.9 20.4-22.8 17.3 26.4 3.2s8.2 13.1 22.8 18.7c10.1 3.9 16.1 1.9 16.1 1.9"/><path class="st6" d="m170.8 310.9 1 .3 5.1-17.9-1-.3-.1 1h.3c.7 0 2.4-.1 4.6-1.3 2.2-1.1 5-3.2 7.9-7.1 2.7-3.6 4.7-6.9 6.1-10.2 1.4-3.3 2.1-6.7 2-10.5 0-1.4-.1-2.8-.3-4.4-.6-4.8-.8-7.3-1-8.6-.1-.6-.1-1-.1-1.1v-.1l-.8.1h.8v-.1l-.8.1h.8-1l.9.5s1.7-3.2 3.6-7.2c1.9-4.1 3.9-9.1 4.5-12.9.9-5.9 1-9.6 1-10.9v-.5h-1l1 .2 1-4.1-1-.2.6.8c.1-.1 1.2-.8 2.2-2.8 1-2 2-5.1 2-9.9 0-4.5 1.1-9.2 2.1-12.6.5-1.7 1.1-3.2 1.5-4.2.2-.5.4-.9.5-1.2.1-.1.1-.2.1-.3v-.1l.5-1-29.6-9.1-18.5 3.8-21.3 16.2-5.2 21.8 3.4 4.4.8-.6-1-.1s-.3 3-.3 6.4c0 1.7.1 3.5.3 5.1.3 2 .7 3.8 1.3 5.2.3.7.8 1.3 1.3 1.7.6.5 1.3.7 2 .7.5 0 1-.1 1.5-.3l-.4-.9-.9-.5-5.9 10.7-13.8 20.2-24.7 18.7 28.9 3.5.1-1-.8.5s2.1 3.4 6.1 7.4c3.9 4 9.8 8.8 17.2 11.7 5.1 1.9 9.2 2.4 12.1 2.4 2.9 0 4.6-.5 4.7-.5l.5-.2.1-.5-.9-.2-.3-1c-.1 0-1.5.5-4.1.5-2.7 0-6.5-.5-11.4-2.3-7.1-2.7-12.7-7.3-16.5-11.2-1.9-2-3.4-3.7-4.3-5-.5-.6-.9-1.2-1.1-1.5-.1-.2-.2-.3-.3-.4l-.1-.1-.3-.4-24.5-3 21-15.9 14-20.6 7.3-13.3-2.6 1c-.3.1-.5.2-.7.2-.3 0-.5-.1-.8-.3-.4-.3-.8-1-1.2-1.9-.3-1-.6-2.2-.8-3.6-.2-1.4-.2-3.2-.2-4.8 0-1.7.1-3.2.1-4.4 0-.6.1-1.1.1-1.4v-.9l-3-3.9 4.8-20.2 20.3-15.5 17.5-3.6 28 8.6.3-1-.9-.4s-1.1 2.4-2.2 6-2.2 8.4-2.2 13.2c0 4.6-.9 7.4-1.7 9-.4.8-.8 1.4-1.1 1.7-.1.2-.3.3-.3.3l-.1.1.3.4-.3-.4.3.4-.3-.4-.3.2-1.1 4.6v.5c0 1.2-.1 4.8-1 10.6-.5 3.5-2.5 8.4-4.3 12.4-.9 2-1.8 3.8-2.4 5.1-.3.6-.6 1.2-.8 1.5s-.3.5-.3.5l-.1.2v.4c0 .2.1 1.5 1.1 9.9.2 1.5.3 2.8.3 4.1 0 3.6-.6 6.7-1.9 9.8-1.3 3.1-3.2 6.2-5.8 9.8-2.7 3.6-5.2 5.5-7.1 6.5-1.9 1-3.3 1.1-3.7 1.1h-.1v.4-.4.4-.4l-.8-.1-5.3 18.7.9.2-.3-1 .3 1z"/><path d="M163.6 211.6c.4-.2 2-.9 4.1-1.6 2.1-.7 4.7-1.3 6.8-1.3.5 0 1 0 1.5.1 2 .3 2.9 1 3.3 1.6.5.6.5 1.2.5 1.5v.1l2 .3v-.4c0-.5-.1-1.6-.9-2.7s-2.2-2-4.6-2.4c-.6-.1-1.2-.1-1.8-.1-2.7 0-5.6.8-7.9 1.6-2.3.8-3.9 1.6-3.9 1.6l.9 1.7z"/><path class="st30" d="M193.4 215.7s-1.1 3.8 4.1 5.7l1.9-.7-1.4-6.5-4.6 1.5z"/><path class="st6" d="M149 238.8s11.8 17.7 32.7 17.1c10.5-.3 13.2-7.9 13.2-7.9v22.1l-5.7 13.7-6.8 7.5-6.8 2s-9.1-3.4-17-13.8c-7.9-10.3-15-25.5-15-25.5l5.4-15.2z"/><path d="m179.8 244.5.4.1-.4-.1.4.1-.4-.1s-.1.5-.6 1.2-1.5 1.7-3.3 2.6c-4.2 2.2-7.8 5.2-7.9 5.2l1.3 1.5.2-.1c.7-.6 3.9-3 7.4-4.8 2.2-1.1 3.4-2.4 4.1-3.4.7-1 .8-1.8.9-1.9l-2.1-.3zM207.8 211.4c0-.1-.2-1.3-1.3-2.4-1.1-1.2-3.1-2.2-6.3-2.2-3.3 0-6 1.2-7.8 2.8-.9.8-1.7 1.7-2.3 2.5-.6.9-1 1.7-1.1 2.5-.3 1.4-.6 3.4-.7 5.9-.2 2.5-.3 5.4-.3 8.7 0 2.1.2 4.1.5 6 .2 1.9.4 3.6.4 4.9 0 .8-.1 1.4-.2 1.9-.2.4-.3.7-.6.8-.2.1-.5.2-.8.2-.3 0-.7-.1-.9-.1-.1 0-.2-.1-.3-.1h-.1l-.1.2.1-.2-.1.2.1-.2-1.1-.5-1.3 7.7 1.3-.2c.2 0 1-.1 2-.1.8 0 1.7.1 2.4.2.4.1.7.2.9.3.2.1.4.2.5.3l1.5-1.3c-.3-.4-.7-.6-1.2-.8-.6-.3-1.4-.4-2.1-.5-.7-.1-1.4-.1-2.1-.1-1.3 0-2.3.1-2.3.1l.1 1 1 .2.9-5.1-1-.2-.4.9c.1 0 .9.4 2 .4.6 0 1.2-.1 1.8-.4.8-.4 1.3-1.1 1.5-1.9.3-.8.3-1.6.3-2.5 0-1.5-.2-3.3-.5-5.1-.2-1.9-.4-3.8-.4-5.7 0-3.2.1-6.1.3-8.5.2-2.4.4-4.4.7-5.6.1-.5.4-1.2.9-1.9.7-1.1 1.8-2.2 3.2-3 1.4-.8 3.2-1.4 5.3-1.4 2.8 0 4.2.9 4.9 1.6.4.4.6.8.7 1 .1.1.1.2.1.3v.1l.5-.1-.5.1.5-.1-.5.1 1.9-.7z"/><path d="M193.3 215.9c.1-.1.8-.4 1.7-.8.9-.3 2.1-.6 3.3-.6.6 0 1.1.1 1.7.2.4.1.5.3.6.4.1.1.1.3.1.5 0 .3-.1.6-.2.9 0 .1-.1.2-.1.3v.1l.2.1-.2-.1.2.1-.2-.1 1.7 1s.2-.3.3-.7c.1-.4.3-.9.3-1.6 0-.5-.1-1.1-.5-1.6-.3-.5-.9-.9-1.6-1.2-.8-.2-1.5-.3-2.3-.3-1.6 0-3.1.4-4.2.8s-1.8.8-1.8.8l1 1.8z"/><path class="st31" d="M143.6 219.8s5.7-4.7 8.5-19.7c0 0 12.5-20.4 29.6-17.3 0 0 18.2 9.1 26.1 9.9 0 0 .1 15.4.1 14.7 0-.7 6.6-5.2 5.7-15.6-.9-10.4-2.5-29.7-6.8-33.6-4.3-3.8-12.5-4.4-16.5-7.5-4-3.1-18.1-.8-24.3-.8-6.2 0-23.8 12.6-26.2 16.2-2.5 3.6-11.8 20-13.2 28.8-1.4 8.8 1.7 22.9 1.4 29.5-.3 6.5-2 13.4-.3 16.7 1.7 3.3 4 7.8 4 7.8s-3.2 4.4-4.8 10.4c-1.7 5.9-6.8 2.3-16.2 10.2-9.4 7.9-18 10.9-18 17.9 0 6.9 6.9 14 16 9.4s3.1-9.4 9.6-11.1c6.5-1.7 7.7-2.8 9.4-7.1 1.6-4.3 6.2-1.1 7.1-6 .8-4.8 4.9-4.8 6.5-9.4 1.7-4.5 2.4-.9 3.9-8.3s3.7-16.7 3.7-16.7-3.8 1.4-5.1-3.8c-.6-2.6-1-5.6-.8-9.6.1-4 .1-5 .1-5"/><path d="m103.9 302.8.1-.4-.1.4.1-.4-.1.4s3 1 6.3 6.1 6.9 14.3 7.9 30.5c1.1 16.6 1.7 29.8 4 39.7 1.2 5 2.8 9.1 5.2 12.5 2.4 3.4 5.6 5.9 9.7 7.5l.7-1.9c-3.8-1.5-6.6-3.8-8.8-6.8-3.3-4.6-5.1-11.1-6.3-19.6-1.2-8.5-1.7-19-2.5-31.5-1.1-16.8-4.8-26.3-8.4-31.8-3.6-5.4-7-6.6-7.2-6.7l-.6 2zM212.2 346.7c.4.5 6.9 10.3 6.9 22.9v.9l2 .1v-1c0-13.7-7.2-24-7.3-24.1l-1.6 1.2z"/><path d="M113.5 314s.2.1.6.2c2.9 1.1 15.3 5.8 30.8 12.6 8.9 3.9 14.6 6.5 18.2 8.1 1.8.8 3 1.4 3.8 1.7.4.2.7.3.8.4s.3.1.3.1l.9-1.8s-5.3-2.6-23.1-10.4C128 317 114.3 312 114.3 312l-.8 2zM137.3 331.8l.1.1c.7.4 4.1 2.1 8.2 4.7s9 6 12.8 9.7l1.4-1.4c-4.2-4.1-9.6-7.8-13.9-10.5-4.3-2.7-7.7-4.3-7.7-4.4l-.9 1.8z"/><path d="M169.6 343.7s-4.5.1-10.3.5c-5.7.4-12.7 1.2-17.6 2.7l.6 1.9c4.7-1.4 11.6-2.2 17.2-2.6 2.8-.2 5.4-.3 7.2-.4.9 0 1.7-.1 2.2-.1h.8l-.1-2z"/><path class="st26" d="M219.3 303c1-5 6.5-8.7 11.1-6.2 4.5 2.5 5.2 7.1 2.8 12.2-2.4 5.1-5.1 8.5-8.5 6.5-3.4-2-6.4-7.4-5.4-12.5z"/><defs><path id="SVGID_00000104690311987751158990000005445820094153601421_" d="M.1 0H750v428H.1z"/></defs><clipPath id="SVGID_00000070839811980541277950000016610062056854185109_"><use xlink:href="#SVGID_00000104690311987751158990000005445820094153601421_" style="overflow:visible"/></clipPath><path style="clip-path:url(#SVGID_00000070839811980541277950000016610062056854185109_);fill:#decc89" d="M69.6 58.7c.9-4.2 10.5-12.2 10.5-12.2s-10.8-9.9-15-15.9c-4.3-6-8.8-13.9-7.7-15.6 1.1-1.7 10.3 6.2 17.3 13.3 6.9 7.1 23.2 21.8 23 24.9-.3 3.1-7.7 6.5-12.2 8.5-4.5 2-12.2 4-14.5 2-2.2-1.9-1.9-2.5-1.4-5zM-.4 49.3s2 7.1 8.2 7.1c6.3 0 11.6-8.2 7.9-14.5-3.7-6.2-8.5-8.5-11.9-5.4-3.3 3.2-5 7.4-4.2 12.8z"/><path style="clip-path:url(#SVGID_00000070839811980541277950000016610062056854185109_);fill:#ccd5ae" d="M356.3 66.6c-3.4-7.5 3.7-15.1 12.7-28.1 9.1-13 15.6-20.4 15.6-20.4s-.9-3.1-.9-6.8c0-3.7-11-15.6-11-15.6l5.7-1.1S385.2.3 392 7.9c6.8 7.7 9.3 15.3 2.8 23.5-6.5 8.2-20.4 21.9-25.5 28.6-5.1 6.9-11.4 10.3-13 6.6z"/><path class="st30" d="M570.4 219.9s1.8-1.8 4.5-2.4c2.7-.6 4.8.2 4.8.2s-.2 3.7-3.2 4.6c-4.8 1.4-6.1-2.6-6.1-2.6"/><path d="m570.6 220.2-.2-.1.2.1-.2-.1.2.1s.6-.7 1.7-1.4 2.7-1.3 4.8-1.3c.9 0 1.8.1 2.9.4l.3-1-1 .3.6-.2-.6.2.6-.2-.6.2v.1c0 .1.1.4.1.8s-.1.9-.2 1.4c-.2.5-.5 1.1-1.1 1.6-.6.6-1.2.9-1.9 1.1-.7.2-1.3.3-1.9.3h-1l-.1.3.1-.3-.1.3.1-.3-.8-.2-1.3 3 1.8.8 1-2.3-.9-.4-.2 1s.6.1 1.4.1c.7 0 1.5-.1 2.4-.3.9-.3 1.9-.8 2.7-1.6.8-.8 1.3-1.6 1.6-2.4.3-.8.4-1.5.4-2.1 0-.8-.2-1.4-.2-1.4l-.2-.5-.5-.1c-1.2-.3-2.4-.5-3.4-.5-2.6 0-4.6.9-6 1.7-1.4.9-2.1 1.7-2.1 1.8l1.6 1.1z"/><path d="M574.8 222.1c1.1-.6 1.6-2 1-3.2-.6-1.2-2-1.6-3.1-1-1.1.6-1.6 2-1 3.2.6 1.1 2 1.6 3.1 1z"/><path class="st30" d="M547 224.6s1.7 2.9 4.8 2.7c4.4-.3 3.9-4.3 3.9-4.3s-5.4-1.7-8.7 1.6z"/><path d="M551.4 227c1.1-.6 1.6-2 1-3.2-.6-1.2-2-1.6-3.1-1-1.1.6-1.6 2-1 3.2.6 1.2 2 1.6 3.1 1z"/><path d="m547.1 224.9-.3-.3.3.3-.3-.3.3.3s.5-.5 1.3-1c.9-.5 2.1-1 3.8-1 1 0 2.2.2 3.5.6l.7-1.9c-1.5-.5-2.9-.8-4.1-.8-2.2 0-3.8.7-4.9 1.3-1.1.7-1.7 1.4-1.7 1.4l1.4 1.4zM547 227.6s.5.4 1.2.8 1.8.8 3.1.8c1.6 0 3.5-.7 5.4-2.6l-1.4-1.4c-1.5 1.6-2.9 2-3.9 2-.9 0-1.6-.3-2.1-.6-.3-.1-.5-.3-.6-.4l-.2-.1-1.5 1.5z"/><path class="st30" d="M164.8 219.6s1.5-2.2 2.3-2.9c.9-.8 5-2 5-2l3.3.2 1.5 1.4-.1 1.2s.6 1.7-.6 3.5c-.5.7-1.8 1.1-1.8 1.1l-4 .5-2.5-1.4-3.1-1.6z"/><path d="M164.6 219.4c.1-.1 1.3-1.1 2.9-2.1 1.6-1 3.8-1.9 5.8-1.9.4 0 .9 0 1.3.1 1.2.3 1.6.7 1.9 1.1.3.4.3.8.3 1v.1l2 .3v-.4c0-.5-.1-1.3-.7-2.1s-1.6-1.6-3.1-1.9c-.6-.1-1.2-.2-1.7-.2-2.7 0-5.1 1.2-7 2.3-1.8 1.1-3 2.2-3.1 2.2l1.4 1.5zM163.8 221.1c.1 0 3.4 2.1 7.6 2.1 1.9 0 4-.4 6-1.7l-1.1-1.7c-1.6 1-3.3 1.4-5 1.4-1.8 0-3.5-.4-4.7-.9-.6-.2-1.1-.5-1.4-.6-.2-.1-.3-.2-.4-.2l-.1-.1-.9 1.7"/><path d="M173.5 222.3c2 0 3.6-1.9 3.6-4.2 0-2.3-1.6-4.2-3.6-4.2s-3.6 1.9-3.6 4.2c0 2.3 1.6 4.2 3.6 4.2zM199.4 220.7c1.8 0 3.2-1.6 3.2-3.6s-1.4-3.6-3.2-3.6c-1.8 0-3.2 1.6-3.2 3.6 0 1.9 1.4 3.6 3.2 3.6z"/><path d="M192.3 219.7s.7.5 1.7 1 2.4 1 3.9 1c.9 0 1.9-.2 2.8-.7l-.5-.9-1 .1v.7c0 .7-.1 1.9-.7 2.7l1.7 1.1c.8-1.4 1-2.8 1-3.8 0-.6-.1-1-.1-1l-.2-1.5-1.3.8c-.5.3-1.1.5-1.8.5-1 0-2.2-.4-3-.8-.4-.2-.8-.4-1-.6-.1-.1-.2-.1-.3-.2h-.1l-1.1 1.6zM164 223.1s3 1.8 6.8 1.8c2.2 0 4.7-.6 7-2.5l-.6-.8c-2.1 1.7-4.3 2.2-6.3 2.2-1.7 0-3.3-.4-4.5-.8-.6-.2-1-.4-1.3-.6-.2-.1-.3-.1-.4-.2l-.1-.1-.6 1M279.6 302.4l3-2.6-1-1.2-3 2.7M179.6 257.2c.1 0 1.2.7 2.9.7 1.1 0 2.5-.3 3.9-1.2l-.6-.8-1 .2 1.1 4.7 1.9-.5-1.4-6.1-1.2.8c-1 .7-2 .9-2.8.9-.6 0-1.1-.1-1.5-.2-.2-.1-.3-.1-.4-.2h-.1l-.2.3.2-.3-.2.3.2-.3-.8 1.7zM177.4 254.1c.1 0 3.6-1.1 10.7-1.1v-2c-7.5 0-11.2 1.2-11.3 1.2l.6 1.9zM146 260.8v2.7h2v-2.7M148.8 264.2v4.1h2v-4.1M151.3 268.3v5.2h2v-5.2M154 272.9v5.1h2v-5.1M156.7 276v5.1h2V276M159.4 277.1v8h2v-8M162.1 279.6v8.5h2v-8.5M164.8 283v7.7h2V283M167.7 286.2v6.3h2v-6.3M170.6 288.8v5.2h2v-5.2M173.7 290v5.1h2V290M176.6 290v4.3h2V290M179.6 288.8v3.8h2v-3.8M182.8 287v3.2h2V287M185.9 285.2v2.4h2v-2.4"/><path d="M208.9 207.5h-.8l.7.3c.1-.1.1-.2.1-.3h-.8l.7.3-.4-.2.4.2v-.1l-.4-.2.4.2s.1-.2.3-.4c.7-.8 2.1-2.3 3.3-4.5 1.2-2.3 2.2-5.3 2.2-9.2 0-.6 0-1.3-.1-1.9-.4-5.2-1-12.6-2.1-19.3-.5-3.3-1.2-6.5-2-9.1-.4-1.3-.8-2.5-1.3-3.4-.5-1-1-1.8-1.7-2.4-2.4-2.1-5.6-3.2-8.7-4.2-3.1-1-6.1-2-7.8-3.4-1-.8-2.4-1.2-3.9-1.5-1.6-.3-3.3-.4-5.2-.4-2.8 0-5.8.2-8.6.4s-5.4.4-7.2.4c-.9 0-2 .2-3.1.6-4 1.3-9.3 4.4-14 7.7-2.3 1.6-4.5 3.3-6.2 4.7-.9.7-1.6 1.4-2.2 2-.6.6-1.1 1.1-1.4 1.6-.6.9-1.7 2.7-3 4.9-1.9 3.3-4.2 7.7-6.2 12.1-2 4.4-3.7 8.8-4.2 12.3-.3 1.7-.4 3.6-.4 5.6 0 4.1.5 8.5.9 12.6.5 4.1.9 7.9.9 10.6v.9c-.2 4.3-1 8.9-1 12.6 0 1.8.2 3.4.9 4.7 1.7 3.3 4 7.8 4 7.8l.9-.5-.8-.6c0 .1-3.3 4.5-5 10.7-.2.7-.4 1.2-.7 1.5-.4.7-1 1-1.8 1.4-1.2.5-3 .9-5.3 1.8s-5 2.3-8.2 5c-4.6 3.9-9.1 6.6-12.5 9.3-1.7 1.3-3.1 2.7-4.2 4.2-1 1.5-1.7 3.2-1.7 5.2 0 2.9 1.1 5.9 3.1 8.1 2 2.2 4.8 3.8 8.2 3.8 1.9 0 4-.5 6.2-1.6 2.4-1.2 3.8-2.5 4.8-3.8.7-1 1.1-1.9 1.3-2.7.2-.6.3-1.2.4-1.7.2-.7.4-1.3.7-1.7.4-.4 1-.8 2.2-1.1 3.3-.9 5.3-1.6 6.9-2.8.8-.6 1.4-1.3 1.9-2.1s.9-1.7 1.3-2.8c.4-.9.7-1.2 1.2-1.5.4-.2.8-.4 1.4-.5.8-.2 1.7-.4 2.6-.9.5-.3.9-.7 1.2-1.2.3-.5.6-1.2.7-1.9.2-1.1.5-1.8 1-2.5.7-1 1.6-1.7 2.7-2.7 1-1 2.1-2.2 2.8-4.1.4-1.1.7-1.6 1-1.9.2-.2.3-.4.6-.6.4-.3.9-.8 1.2-1.7.4-.9.7-2.1 1.2-4.3.7-3.7 1.7-7.8 2.4-11.1.4-1.6.7-3 .9-4 .2-1 .4-1.6.4-1.6l.4-1.8-1.8.7.2.6-.2-.6.2.6-.2-.6h-.1c-.1 0-.4.1-.7.1-.5 0-1-.1-1.5-.5s-1.1-1.2-1.5-2.7c-.5-2.2-.8-4.7-.8-7.9V225c.1-4 .1-5 .1-5l-2-.1v1c0 .7-.1 2-.1 4v1.6c0 3.3.3 6 .9 8.3.4 1.9 1.2 3.1 2.2 3.8.9.7 2 .9 2.8.9.8 0 1.4-.2 1.5-.2l-.3-.9-1-.2s-2.3 9.4-3.7 16.8c-.4 1.8-.7 2.9-.9 3.6-.2.5-.4.8-.5.9l-.4.4c-.2.2-.6.5-1 1s-.7 1.2-1.1 2.2c-.4 1-.9 1.7-1.4 2.4-.8 1-1.9 1.7-2.9 2.7-1 1-1.9 2.4-2.3 4.4-.1.5-.2.9-.4 1.2-.3.5-.5.7-1 .9-.7.3-1.7.4-2.8.8-.6.2-1.1.5-1.6 1s-1 1.1-1.3 1.9c-.4 1-.8 1.9-1.2 2.5-.6 1-1.2 1.6-2.3 2.2-1.1.6-2.8 1.2-5.2 1.8-.9.2-1.6.5-2.2.9-1 .6-1.6 1.6-1.9 2.4-.2.7-.3 1.3-.5 1.9-.2.9-.5 1.8-1.2 2.8-.7 1-1.9 2-4 3.1-1.9 1-3.7 1.4-5.2 1.4-2.8 0-5-1.2-6.7-3.1-1.6-1.9-2.6-4.4-2.6-6.8 0-1.5.5-2.8 1.3-4 1.3-1.9 3.6-3.7 6.4-5.7 2.9-2 6.3-4.3 9.9-7.4 4.6-3.9 7.9-4.8 10.6-5.7 1.3-.4 2.5-.8 3.6-1.5.5-.4 1-.8 1.4-1.4.4-.6.7-1.3.9-2.1.8-2.9 2-5.4 3-7.2.5-.9.9-1.6 1.2-2.1.2-.2.3-.4.4-.6l.1-.1.4-.5-.3-.5s-.6-1.1-1.4-2.7c-.8-1.5-1.8-3.5-2.6-5.1-.4-.8-.6-2.2-.6-3.8 0-3.4.8-8 1-12.5v-.9c0-2.9-.5-6.7-.9-10.8-.5-4.1-.9-8.5-.9-12.4 0-1.9.1-3.7.4-5.2.3-2.1 1.2-4.7 2.3-7.5 1.7-4.2 3.9-8.8 6-12.6 2.1-3.9 4-7 4.8-8.3.2-.3.7-.9 1.4-1.6 2.5-2.3 7.2-5.9 12-8.9 2.4-1.5 4.8-2.8 6.9-3.8 1.1-.5 2-.9 2.9-1.1.9-.3 1.6-.4 2.1-.4 1.9 0 4.5-.2 7.3-.4s5.8-.4 8.5-.4c1.8 0 3.5.1 4.9.3 1.4.2 2.4.6 3 1.1 2.2 1.7 5.3 2.6 8.4 3.7 3.1 1 6.1 2.1 8 3.8.4.3.8 1 1.3 1.8.7 1.5 1.4 3.6 2 6.1 1.7 7.5 2.6 18.2 3.2 25 0 .6.1 1.2.1 1.7 0 4.3-1.4 7.4-2.7 9.5-.7 1.1-1.4 1.9-1.9 2.5-.3.3-.5.5-.7.8-.1.1-.2.2-.3.4 0 .1-.1.1-.1.2s-.1.2-.1.4h1.9v-.1z"/><path d="M182.6 187.4c.1 0 .3.1.8.1.7 0 1.9-.1 3.2-.9 1.3-.7 2.5-2.1 3.4-4.3l-1.9-.8c-.8 1.9-1.7 2.8-2.6 3.3-.9.5-1.7.6-2.1.6h-.4l-.4 2z"/><path d="M187.1 189.4c.1 0 1.2-.2 2.5-1.1.9-.6 1.8-1.4 2.5-2.7.7-1.3 1.1-3 1-5.1l-2 .1c.1 1.8-.3 3.1-.8 4-.5.9-1.2 1.6-1.8 2-.5.3-.9.5-1.3.6-.2.1-.3.1-.4.1h-.1l.1.3v-.3l.1.3v-.3l.2 2.1zM193.5 192c.1 0 1.5-.3 2.9-1.5.7-.6 1.5-1.4 2-2.5.6-1.1.9-2.4 1-4.1h-2c0 1.3-.3 2.4-.7 3.2-.6 1.2-1.5 1.9-2.3 2.4-.4.2-.7.4-1 .5-.1 0-.2.1-.3.1h-.1l.1.4-.1-.4.1.4-.1-.4.5 1.9zM198.2 195.2c.1 0 1.3-.2 2.7-1.2.7-.5 1.4-1.1 1.9-2 .5-.9.9-2 .8-3.4 0-.4 0-.7-.1-1.1l-2 .2c0 .3.1.6.1.9 0 1-.2 1.8-.6 2.4-.5.9-1.3 1.5-2 1.8-.3.2-.7.3-.9.3-.1 0-.2.1-.3.1h-.1l.1.4-.1-.4.1.4-.1-.4.5 2zM205.1 195.9s.7-.5 1.3-1.4c.6-.9 1.3-2.2 1.3-3.8 0-1.2-.4-2.5-1.3-3.8l-1.7 1.1c.7 1 .9 1.9.9 2.6 0 1-.4 1.9-.9 2.6-.2.3-.5.6-.7.8l-.2.2h-.1l.2.2-.2-.2.2.2-.2-.2 1.4 1.7zM175.9 184.9c.1 0 1 .4 2.2.4.8 0 1.7-.1 2.6-.5.9-.4 1.9-1.1 2.7-2.1.9-1.1 1.3-2.2 1.3-3.3 0-1.3-.6-2.3-1.1-3-.5-.7-1-1.1-1.1-1.1l-1.2 1.6s.4.3.7.8c.3.5.6 1.1.6 1.7 0 .6-.2 1.2-.8 2-.6.8-1.3 1.3-1.9 1.5-.6.3-1.3.4-1.8.4s-.8-.1-1.1-.1c-.1 0-.2-.1-.3-.1h-.1l-.1.4.1-.4-.1.4.1-.4-.7 1.8zM165.3 184.7c.1.1 1.4 1.1 3.4 1.1.7 0 1.5-.1 2.3-.4 1.6-.6 2.5-1.5 3-2.3.5-.8.5-1.5.5-1.6h-2 .5-.5.5-.5c0 .1-.1.4-.4.8-.3.4-.8.8-1.8 1.2-.6.2-1.1.3-1.6.3-.7 0-1.3-.2-1.7-.3-.2-.1-.3-.2-.4-.2l-.1-.1-.2.3.2-.3-.2.3.2-.3-1.2 1.5zM158.5 192.1h.3c.4 0 1.2 0 2.1-.3.9-.3 1.9-.8 2.7-1.8.9-1.2 1.2-2.4 1.1-3.2 0-.7-.2-1.2-.2-1.3l-1.9.7.5-.2-.5.2.5-.2-.5.2V186.8c0 .5-.1 1.2-.7 2-.4.6-1.1.9-1.7 1.1-.6.2-1.2.2-1.5.2h-.1v.1-.1.1-.1l-.1 2zM150.6 200.5h.3c.4 0 1.4-.1 2.4-.7 1.1-.6 2.2-1.7 3-3.5.6-1.3.8-2.5.8-3.5 0-2.3-1-3.6-1.1-3.7l-1.5 1.3.3-.3-.3.3.3-.3-.3.3s.7.9.7 2.4c0 .7-.1 1.6-.6 2.7-.7 1.5-1.4 2.2-2.1 2.6-.7.4-1.3.4-1.5.4h-.1v.5l.1-.5v.5l.1-.5-.5 2zM208 197.4c-.1.1-.5.5-1.1 1.3-.5.8-1 2-1.1 3.7v.5c0 3 1.5 5.1 1.5 5.2l1.7-1.1-.2.1.2-.1-.2.1.2-.1s-1.2-1.9-1.2-4.1v-.4c.1-1.2.5-2.1.8-2.7.2-.3.4-.5.5-.6l.1-.1-.4-.4.4.5-.4-.4.4.5-1.2-1.9zM145.2 212.8s.1.4.1.9-.1 1.1-.3 1.8c-.2.7-.6 1.3-1.1 2-.6.7-1.3 1.1-1.8 1.3-.6.2-1.1.3-1.4.3h-.5l-.1.4.1-.4-.1.4.1-.4-.5 1.9c.1 0 .5.1 1.1.1.6 0 1.3-.1 2.2-.4.8-.3 1.7-.9 2.6-1.8.8-.9 1.3-1.9 1.6-2.8.3-.9.4-1.7.4-2.4 0-.8-.1-1.3-.1-1.4l-2.3.5z"/><path d="m150.7 200.6.3-.3-.3.3.3-.3-.3.3s.6.8.6 2.2c0 .5-.1 1.1-.3 1.8-.4 1.3-1.1 2-1.7 2.4-.3.2-.5.3-.7.4l-.2.1.1.3-.1-.3.1.3-.1-.3.4 2c.1 0 .8-.2 1.6-.8.9-.6 1.8-1.7 2.4-3.4.3-.9.4-1.7.4-2.4 0-2.1-.9-3.3-1-3.4l-1.5 1.1z"/><path class="st31" d="M574.3 281.4s-.1 1-.1 2.5c0 2.4.2 5.9 1.7 8.7l1.8-1c-1.2-2.2-1.5-5.6-1.5-7.7V281.6l-1.9-.2zM577.6 281.2s0 1.5.3 3.4.7 4.2 1.7 6l1.7-1c-.8-1.4-1.3-3.6-1.5-5.3-.1-.9-.2-1.7-.2-2.2V281.1l-2 .1zM581.6 277.6s-.2.8-.2 2c0 1.5.2 3.6 1.4 5.5l1.7-1.1c-.9-1.4-1.1-3.2-1.1-4.4 0-.5 0-.9.1-1.2v-.4l-1.9-.4zM584.9 275.1s-.1.8-.1 1.7c0 .7.1 1.6.3 2.4.2.8.7 1.7 1.5 2.3l1.1-1.7c-.3-.2-.6-.6-.8-1.2-.2-.6-.2-1.2-.2-1.8 0-.4 0-.8.1-1v-.4l-1.9-.3zM571.2 282.4s-.3 1.6-.3 3.5c0 1.5.1 3.2.8 4.6l1.8-.9c-.4-.8-.6-2.3-.6-3.7 0-.9.1-1.7.1-2.3 0-.3.1-.5.1-.7V282.6l-1.9-.2zM566.7 278.5c0 .1-.9 1.8-.9 4.1 0 .6.1 1.2.2 1.9l2-.4c-.1-.5-.1-1-.1-1.5 0-.9.2-1.8.3-2.4.1-.3.2-.5.2-.7l.1-.2-.3-.2.3.2-.3-.2.3.2-1.8-.8z"/><path class="st26" d="M324.8 251.1s.1-.4.3-1.1c.5-2.1 1.6-6.7 2.7-9.4.7-1.8 2.2-4.2 3.9-6.4 1.7-2.2 3.5-4.2 4.7-4.9 1.3-.8 2.7-1.7 3.7-2.5 1.1-.8 2-1.5 2.5-2.2l-.8-.6c-.4.5-1.2 1.2-2.2 1.9-1.1.8-2.4 1.6-3.7 2.4-1.4.9-3.3 2.9-5 5.2-1.7 2.3-3.2 4.8-4 6.7-1.5 3.8-3 10.6-3 10.7l.9.2zM316.6 247.5s0-.3.1-.7c.1-1.4.6-4.6 1.5-7.5l-1-.3c-1.3 4-1.6 8.5-1.6 8.5h1z"/><path d="M314 251.4v-.4c0-.9.1-3.3.4-5.8.2-1.3.4-2.5.7-3.7.3-1.2.7-2.2 1.2-2.9 2.4-3.7 5.8-9.5 5.8-9.5l-1.3-.7s-.2.4-.6 1c-1 1.8-3.4 5.7-5.2 8.5-.7 1-1.1 2.4-1.5 3.9-1 4.4-1 9.7-1 9.7h1.5v-.1zM287 295.8c0 .1-1.2 3.2-1.2 10 0 3 .2 6.8.9 11.3 2.1 14.7 2.5 19.1 2.9 27.8.1 2.9.2 7.1.2 11.5 0 4.3 0 8.8-.1 12.2 0 1.7 0 3.1-.1 4.1v1.6h2s.2-9.1.2-17.8c0-4.4 0-8.6-.2-11.6-.4-8.8-.9-13.3-3-28-.6-4.5-.9-8.1-.9-11 0-3.3.3-5.7.6-7.2.1-.8.3-1.3.4-1.6.1-.2.1-.3.1-.4v-.1l-.2-.1.2.1-.2-.1.2.1-1.8-.8z"/><defs><path id="SVGID_00000174562063410110097660000010054227813908721321_" d="M.1 0H750v428H.1z"/></defs><clipPath id="SVGID_00000122715034907098925270000006952166029824234132_"><use xlink:href="#SVGID_00000174562063410110097660000010054227813908721321_" style="overflow:visible"/></clipPath><path style="clip-path:url(#SVGID_00000122715034907098925270000006952166029824234132_);fill:#ffea9c" d="M332 260.3s0-.2.1-.5c.2-1 .7-3.3 2.1-5.4.3-.4.5-.7.7-.9.2-.2.3-.2.4-.2l.1.1c.2.1.3.7.3 1.4s-.1 1.5-.3 2.4c-.4 1.6-.8 3-1.2 3.9-.2.5-.3.9-.4 1.2-.1.3-.2.4-.2.4l.5.2s1.1-2.4 1.8-5.6c.2-.9.3-1.8.3-2.5 0-.5-.1-1-.2-1.3-.1-.2-.1-.3-.3-.4-.1-.1-.3-.2-.5-.2-.3 0-.5.1-.7.4-.2.2-.5.6-.8 1-1.9 3-2.2 6.1-2.2 6.2l.5-.2z"/><path style="clip-path:url(#SVGID_00000122715034907098925270000006952166029824234132_);fill:#939060" d="m623 24.9-3.4-27.4 6.2-3.2 3.1 30.6H623zM751.7 187.7l-48.9-36.2-12.9-56.2 5.1-1.2 12.4 56.9 45.7 33.3-1.4 3.4zM470.8 89.2l50.4-67.9 28.7-28.1 7 1.7-31.2 30.6-49 68.6-5.9-4.9z"/><path style="fill:#939060" d="m418.3 198.4 5.7 3.7 19-30-4.3-3.4-20.4 29.7z"/><path class="st37" d="M167.8 227.2c-2.6-.9-4-2.6-4.8-4.1-.7-1.6-.8-3-.8-3.5v-.2l1 .1v.1c0 .4.1 1.7.7 3.1 0 .1.1.2.2.3l-.1.1s.1.1.2.1c.7 1.2 1.9 2.3 3.9 3l-.3 1"/><path d="M164.3 223.2c-.1-.1-.2-.1-.2-.1l.1-.1c0 .1 0 .1.1.2m-.3-.1" style="fill:#cfb370"/><path class="st37" d="M161.5 225.8c-.9-1.5-1.1-3.1-1.1-4.3 0-1.1.2-1.8.2-1.8l.5.1v.1c0 .1 0 .2-.1.3 0 .3-.1.7-.1 1.2 0 1.1.2 2.6 1 4l-.4.4"/><path class="st26" d="M169.1 187.8c-.2.4-1.7 3.5-5.5 5.5l.5.9c4.4-2.3 5.9-5.9 6-6l-1-.4zM171.4 187c0 .2-.1 2-2 5.2l.9.5c2-3.4 2.1-5.3 2.1-5.7v-.1l-1 .1zM187.4 237.5l.2 2.9 1-.1-.2-2.9"/><path class="st28" d="M569.4 207.2c.4-.2 2.1-.7 4.2-.7s4.7.6 6.8 2.7l.7-.7c-2.3-2.4-5.2-3.1-7.5-3.1-2.6 0-4.5.7-4.5.8l.3 1z"/></svg>