<svg xmlns="http://www.w3.org/2000/svg" viewBox="0 0 749.88 428"><defs><clipPath id="a"><path fill="none" stroke-width="0" d="M0 0h749.88v428H0z"/></clipPath><clipPath id="b"><path fill="none" stroke-width="0" d="M0 0h749.88v428H0z"/></clipPath><clipPath id="c"><path fill="none" stroke-width="0" d="M0 0h749.88v428H0z"/></clipPath><clipPath id="d"><path fill="none" stroke-width="0" d="M0 0h749.88v428H0z"/></clipPath><clipPath id="e"><path fill="none" stroke-width="0" d="M0 0h749.88v428H0z"/></clipPath><clipPath id="f"><path fill="none" stroke-width="0" d="M0 0h749.88v428H0z"/></clipPath><clipPath id="g"><path fill="none" stroke-width="0" d="M0 0h749.88v428H0z"/></clipPath><clipPath id="h"><path fill="none" stroke-width="0" d="M0 0h749.88v428H0z"/></clipPath><clipPath id="i"><path fill="none" stroke-width="0" d="M0 0h749.88v428H0z"/></clipPath></defs><g clip-path="url(#a)"><path fill="#8f6000" d="M-5.66-8.36v444.77H754.6V-8.36H-5.66z"/><path fill="none" stroke="#aa7800" stroke-width=".5" d="M-5.66-8.36v444.77H754.6V-8.36H-5.66z"/><path d="m587.51 157.36 35.27-35.42 8.59 3.95 3.01 1.93.72.72s-16.42 15.92-38.28 36.34c-21.86 20.43-34.45 36.07-49.31 50.92-14.85 14.85-22.28 22.28-35.28 36.21s-17.18 17.64-27.39 26.93c-10.21 9.28-13.93 13-22.28 19.5-8.35 6.5-14.63 14.12-26.7 24.8-12.07 10.68-14.66 11.17-24.37 21.62-9.71 10.46-30.1 29.71-44.53 42.71s-44.05 42.76-58.03 55.76c-12.08 11.23-30.21 26-42.75 38.04-12.53 12.04-45.49 37.11-66.85 59.39-21.35 22.28-55.63 55.24-78.41 73.81-22.78 18.57-32.53 26.46-50.17 43.64s-51.06 43.64-67.31 57.56l-22.75-2.29 1.39-6.96s-6.5 0-20.43-6.96-41.78-21.84-41.78-21.84l16.71-5.57s11.61 9.28 27.39 16.25c15.78 6.96 24.14 13.49 24.14 13.49s5.53-4.67 13.46-12.56c7.93-7.89 15.78-13 15.78-13s-17.18-8.84-31.1-14.85c-13.93-6.01-26-11.14-26-11.14l6.96-8.79 7.47-1.42s12.5 5.57 24.1 10.21c11.61 4.64 35.74 13.46 35.74 13.46s2.4-4.2 9.79-12.07c7.39-7.87 13.42-14.39 13.42-14.39s-16.71-11.6-29.25-19.03c-12.53-7.43-18.1-10.68-18.1-10.68l8.36-7.43s14.85 10.68 29.71 18.57c14.85 7.89 24.14 13.46 24.14 13.46l15.82-10.68s-11.64-6.96-28.82-15.32-35.28-13.93-35.28-13.93l9.28-12.07s12.03 6.47 31.1 15.32c19.07 8.85 33.42 16.71 33.42 16.71s6.5-6.06 17.18-13.93 15.32-10.19 15.32-10.19-19.03-4.67-34.82-13.02c-15.78-8.36-32.96-19.5-32.96-19.5l12.07-6.96s24.17 10.21 42.02 17.64c17.86 7.43 25.75 11.6 25.75 11.6l13-10.65-1.86-13.02s-15.32-3.71-25.07-8.36c-9.75-4.64-29.25-13-29.25-13l12.11-10.21 62.17 26.46 23.21-25.65.49-.71-60.83-23.31-9.28-7.89 6.04-10.68s18.1 8.36 41.31 19.03c23.21 10.68 31.57 15.78 31.57 15.78l22.28-19.68s-16.71-6.32-27.85-11.42c-11.14-5.11-27.39-12.07-27.39-12.07l15.32-6.96s13 6.03 28.32 13 20.89 9.75 20.89 9.75 6.5-5.57 15.32-13.46c8.82-7.89 11.54-9.55 11.54-9.55s-8.75-3.45-18.96-9.48-22.75-11.14-30.64-16.25c-7.89-5.11-15.32-8.36-15.32-8.36l6.5-7.87s28.32 12.51 45.49 19.01c17.18 6.5 25.22 12.83 25.22 12.83l19.81-17.91s-17.18-6.52-35.28-14.42c-18.1-7.89-30.64-14.39-30.64-14.39l16.25-6.96s8.32 3.25 22.28 8.36c13.97 5.11 36.16 16.05 36.16 16.05s6.11-5.42 16.3-15.58c9.8-9.78 8.9-8.38 8.9-8.38s-13.07-5.96-27.46-13.41-30.17-15.81-30.17-15.81l12.07-6.03s11.57 8.36 29.25 14.39c17.68 6.04 26.46 11.14 26.46 11.14s6.96-7.45 16.25-14.85c9.29-7.4 11.61-10.68 11.61-10.68s-19.96-7.89-37.14-15.32c-17.18-7.43-37.6-13-37.6-13l-12.96-7.43 5.53-11.6s6.04 1.39 23.68 9.28 66.38 30.64 66.38 30.64 13.13-15.65 25.23-26.33c.72-.63-56.45-27.85-55.66-28.55 3.15-2.77 5.59-3.54 9.4-6.87.64-.56 57.18 25.5 57.83 24.94 10.87-9.49 24.48-21.22 24.48-21.22s-17.18-5.57-33.89-12.53c-16.71-6.96-34.82-14.85-34.82-14.85l11.64-10.21s15.28 8.36 32.46 14.86 34.86 13.46 34.86 13.46l14.82-13.93s-18.61-7.43-32.96-15.32c-14.35-7.89-19.96-10.21-19.96-10.21l-20.43 1.42 25.07-17.2s13 7.89 29.71 16.71 29.71 14.39 29.71 14.39l19.5-17.18s-26.46-10.68-41.32-19.5S431 219.08 431 219.08l12.07-8.36 9.75 7.89 51.99 22.28 19.5-20.89-28.32-14.83-17.18-9.77 15.82-10.21s8.74 6.5 24.1 15.32c15.36 8.82 16.25 9.31 16.25 9.31l14.19-14.12s-6.31-3.54-19.27-11.43-33.86-19.29-33.86-19.29l5.78-12.65s23.43 14.3 36.89 21.26c13.46 6.96 21.13 10.97 21.13 10.97l15.52-16.08s-17.68-9.7-28.32-14.8c-10.64-5.11-28.06-15.8-28.06-15.8l2.99-11.17-8.56-9.07s33.58 17.71 50.18 26.99c15.06 8.42 23.91 12.77 23.91 12.77Z" fill="#731933"/><path d="m587.51 157.36 35.27-35.42 8.59 3.95 3.01 1.93.72.72s-16.42 15.92-38.28 36.34c-21.86 20.43-34.45 36.07-49.31 50.92-14.85 14.85-22.28 22.28-35.28 36.21s-17.18 17.64-27.39 26.93c-10.21 9.28-13.93 13-22.28 19.5-8.35 6.5-14.63 14.12-26.7 24.8-12.07 10.68-14.66 11.17-24.37 21.62-9.71 10.46-30.1 29.71-44.53 42.71s-44.05 42.76-58.03 55.76c-12.08 11.23-30.21 26-42.75 38.04-12.53 12.04-45.49 37.11-66.85 59.39-21.35 22.28-55.63 55.24-78.41 73.81-22.78 18.57-32.53 26.46-50.17 43.64s-51.06 43.64-67.31 57.56l-22.75-2.29 1.39-6.96s-6.5 0-20.43-6.96-41.78-21.84-41.78-21.84l16.71-5.57s11.61 9.28 27.39 16.25c15.78 6.96 24.14 13.49 24.14 13.49s5.53-4.67 13.46-12.56c7.93-7.89 15.78-13 15.78-13s-17.18-8.84-31.1-14.85c-13.93-6.01-26-11.14-26-11.14l6.96-8.79 7.47-1.42s12.5 5.57 24.1 10.21c11.61 4.64 35.74 13.46 35.74 13.46s2.4-4.2 9.79-12.07c7.39-7.87 13.42-14.39 13.42-14.39s-16.71-11.6-29.25-19.03c-12.53-7.43-18.1-10.68-18.1-10.68l8.36-7.43s14.85 10.68 29.71 18.57c14.85 7.89 24.14 13.46 24.14 13.46l15.82-10.68s-11.64-6.96-28.82-15.32-35.28-13.93-35.28-13.93l9.28-12.07s12.03 6.47 31.1 15.32c19.07 8.85 33.42 16.71 33.42 16.71s6.5-6.06 17.18-13.93 15.32-10.19 15.32-10.19-19.03-4.67-34.82-13.02c-15.78-8.36-32.96-19.5-32.96-19.5l12.07-6.96s24.17 10.21 42.02 17.64c17.86 7.43 25.75 11.6 25.75 11.6l13-10.65-1.86-13.02s-15.32-3.71-25.07-8.36c-9.75-4.64-29.25-13-29.25-13l12.11-10.21 62.17 26.46 23.21-25.65.49-.71-60.83-23.31-9.28-7.89 6.04-10.68s18.1 8.36 41.31 19.03c23.21 10.68 31.57 15.78 31.57 15.78l22.28-19.68s-16.71-6.32-27.85-11.42c-11.14-5.11-27.39-12.07-27.39-12.07l15.32-6.96s13 6.03 28.32 13 20.89 9.75 20.89 9.75 6.5-5.57 15.32-13.46c8.82-7.89 11.54-9.55 11.54-9.55s-8.75-3.45-18.96-9.48-22.75-11.14-30.64-16.25c-7.89-5.11-15.32-8.36-15.32-8.36l6.5-7.87s28.32 12.51 45.49 19.01c17.18 6.5 25.22 12.83 25.22 12.83l19.81-17.91s-17.18-6.52-35.28-14.42c-18.1-7.89-30.64-14.39-30.64-14.39l16.25-6.96s8.32 3.25 22.28 8.36c13.97 5.11 36.16 16.05 36.16 16.05s6.11-5.42 16.3-15.58c9.8-9.78 8.9-8.38 8.9-8.38s-13.07-5.96-27.46-13.41-30.17-15.81-30.17-15.81l12.07-6.03s11.57 8.36 29.25 14.39c17.68 6.04 26.46 11.14 26.46 11.14s6.96-7.45 16.25-14.85c9.29-7.4 11.61-10.68 11.61-10.68s-19.96-7.89-37.14-15.32c-17.18-7.43-37.6-13-37.6-13l-12.96-7.43 5.53-11.6s6.04 1.39 23.68 9.28 66.38 30.64 66.38 30.64 13.13-15.65 25.23-26.33c.72-.63-56.45-27.85-55.66-28.55 3.15-2.77 5.59-3.54 9.4-6.87.64-.56 57.18 25.5 57.83 24.94 10.87-9.49 24.48-21.22 24.48-21.22s-17.18-5.57-33.89-12.53c-16.71-6.96-34.82-14.85-34.82-14.85l11.64-10.21s15.28 8.36 32.46 14.86 34.86 13.46 34.86 13.46l14.82-13.93s-18.61-7.43-32.96-15.32c-14.35-7.89-19.96-10.21-19.96-10.21l-20.43 1.42 25.07-17.2s13 7.89 29.71 16.71 29.71 14.39 29.71 14.39l19.5-17.18s-26.46-10.68-41.32-19.5S431 219.08 431 219.08l12.07-8.36 9.75 7.89 51.99 22.28 19.5-20.89-28.32-14.83-17.18-9.77 15.82-10.21s8.74 6.5 24.1 15.32c15.36 8.82 16.25 9.31 16.25 9.31l14.19-14.12s-6.31-3.54-19.27-11.43-33.86-19.29-33.86-19.29l5.78-12.65s23.43 14.3 36.89 21.26c13.46 6.96 21.13 10.97 21.13 10.97l15.52-16.08s-17.68-9.7-28.32-14.8c-10.64-5.11-28.06-15.8-28.06-15.8l2.99-11.17-8.56-9.07s33.58 17.71 50.18 26.99c15.06 8.42 23.91 12.77 23.91 12.77Z" fill="none" stroke="#8f6000" stroke-width=".64"/></g><path d="M507.76 48.73s1.26-2.57 1.67-5.38c.41-2.81.78-3.16.2-4.46-.57-1.3.08-2.69.08-2.69s1.41-2.6.43-4.74-6.65-4.55-6.65-4.55l-7.98-.74-3.71 6.22-2.04 13.56 7.1 5.11 7.2 3.44 3.71-2.23v-3.53Z" fill="#d6721d"/><path d="M507.76 48.73s1.26-2.57 1.67-5.38c.41-2.81.78-3.16.2-4.46-.57-1.3.08-2.69.08-2.69s1.41-2.6.43-4.74-6.65-4.55-6.65-4.55l-7.98-.74-3.71 6.22-2.04 13.56 7.1 5.11 7.2 3.44 3.71-2.23v-3.53Z" fill="none" stroke="#8f6000" stroke-width=".64"/><path d="M455.14 221.25s-2.09 5.34-3.6 7.66c0 0 .27 3.02.27 6.73v3.71s2.98 1.28 2.98 5.69c0 0-4.54-.58-8.24-8.01s-4.64-8.8-3.02-12.7c1.62-3.9 2.78-5.29 2.78-5.29l8.82 2.21Z" fill="#3c1028"/><path d="M455.14 221.25s-2.09 5.34-3.6 7.66c0 0 .27 3.02.27 6.73v3.71s2.98 1.28 2.98 5.69c0 0-4.54-.58-8.24-8.01s-4.64-8.8-3.02-12.7c1.62-3.9 2.78-5.29 2.78-5.29l8.82 2.21Z" fill="none" stroke="#8f6000" stroke-width=".64"/><path d="M501.54 190.31s9.93 4.76 14.39 10.12c0 0-7.48-1.04-13.05-3.06s-7.19-2.32-6.35-6.13c.84-3.81 5.01-.93 5.01-.93Z" fill="#3c1028"/><path d="M501.54 190.31s9.93 4.76 14.39 10.12c0 0-7.48-1.04-13.05-3.06s-7.19-2.32-6.35-6.13c.84-3.81 5.01-.93 5.01-.93Z" fill="none" stroke="#8f6000" stroke-width=".64"/><path d="m488.17 47.52-6.41 5.76 19.03 14.18s.65-4.52 4.64-8.24l-17.27-11.7Z" fill="#af601d"/><path d="m488.17 47.52-6.41 5.76 19.03 14.18s.65-4.52 4.64-8.24l-17.27-11.7Z" fill="none" stroke="#8f6000" stroke-width=".64"/><path d="M491.88 43.06c-.72-1.71 2.69-5.2 2.69-5.2s-.4-2.04-1.41-3.99c-1.01-1.95 1.13-2.16 1.13-2.16l1.67-3.25s2.6 1.23 4.92 1.7c2.32.46 1.67-1.39 3.53-1.02 1.86.37 2.97 2.97 3.81 2.32.75-.58 1.58.11 2.08 1.34.05.14.11.28.15.43.46 1.49.54-2.04-.61-3.25 0 0 .78-2.41-1.39-3.53-2.17-1.11-2.92-2.02-3.85-3.25-.93-1.23-2.6-1.54-4.18-2.16-1.58-.62-1.39.93-3.34.93s-3.79-.53-5.47 1.05c-1.68 1.58-3.65 3.16-4.06 5.29-.41 2.14-.13 4.27.24 6.31s-2.45 2.97-2.04 5.2c.41 2.23-.32 4.74.74 5.66 1.06.93 1.66 3.16.6 4.18s.33 4.18 2.1 4.64c1.76.46 3.34 1.39 4.64 3.34 1.3 1.95 2.23 2.51 4.41 3.62 2.18 1.11 3.3 1.49 4.78.46 1.49-1.02 2.51-2.23 3.9-2.79 1.39-.56 2.51-1.67 2.32-3.71-.18-2.04.54-2.69.13-4.64-.41-1.95-.78-2.97-1.99-3.34-1.21-.37-4.29-.68-5.9-.21-1.62.46-3.24 2.07-3.24 2.07s.32-1.76-2.09-3.16c-2.41-1.39-3.53-1.11-4.27-2.88Z" fill="#90551d"/><path d="M491.88 43.06c-.72-1.71 2.69-5.2 2.69-5.2s-.4-2.04-1.41-3.99c-1.01-1.95 1.13-2.16 1.13-2.16l1.67-3.25s2.6 1.23 4.92 1.7c2.32.46 1.67-1.39 3.53-1.02 1.86.37 2.97 2.97 3.81 2.32.75-.58 1.58.11 2.08 1.34.05.14.11.28.15.43.46 1.49.54-2.04-.61-3.25 0 0 .78-2.41-1.39-3.53-2.17-1.11-2.92-2.02-3.85-3.25-.93-1.23-2.6-1.54-4.18-2.16-1.58-.62-1.39.93-3.34.93s-3.79-.53-5.47 1.05c-1.68 1.58-3.65 3.16-4.06 5.29-.41 2.14-.13 4.27.24 6.31s-2.45 2.97-2.04 5.2c.41 2.23-.32 4.74.74 5.66 1.06.93 1.66 3.16.6 4.18s.33 4.18 2.1 4.64c1.76.46 3.34 1.39 4.64 3.34 1.3 1.95 2.23 2.51 4.41 3.62 2.18 1.11 3.3 1.49 4.78.46 1.49-1.02 2.51-2.23 3.9-2.79 1.39-.56 2.51-1.67 2.32-3.71-.18-2.04.54-2.69.13-4.64-.41-1.95-.78-2.97-1.99-3.34-1.21-.37-4.29-.68-5.9-.21-1.62.46-3.24 2.07-3.24 2.07s.32-1.76-2.09-3.16c-2.41-1.39-3.53-1.11-4.27-2.88Z" fill="none" stroke="#8f6000" stroke-width=".64"/><path d="M539.53 55.45s12.05 8.44 6.48 21.03c-5.57 12.59-10.73 25.81-16.16 35.22-5.43 9.4-5.2 16.6-5.2 16.6l-24.55-14.86 14.11-28.09 25.32-29.91Z" fill="#dc935b"/><path d="M539.53 55.45s12.05 8.44 6.48 21.03c-5.57 12.59-10.73 25.81-16.16 35.22-5.43 9.4-5.2 16.6-5.2 16.6l-24.55-14.86 14.11-28.09 25.32-29.91Z" fill="none" stroke="#8f6000" stroke-width=".64"/><path d="M509.11 112.05s3.33 4.41 10.02 8.59c6.69 4.18 9.01 5.83 8.09 10.68 0 0 4.25 5.11-4.14 16.48-8.39 11.37-23.98 32.96-22.09 37.6 1.9 4.64 5.57 6.27 5.57 6.27s-5.8-1.51-9.05 2.32c0 0-2.39-1.83-7.31 1.74-4.92 3.57-6.34 3.71-6.34 3.71s-3.06-3.31-7.7.2c-4.64 3.51-6.5 6.99-6.5 6.99s4.47 2.55-.18 4.87c-4.65 2.32-11.54 6.04-11.54 6.04l-2.32 5.43s-6.15-2.06-12.53 1.07c0 0-.46-2.44 3.48-7.43 0 0-.85-2.2 2.2-3.37 0 0-.93-9.05 1.39-12.3 0 0-.5-2.14 1.2-3.97l.46-8.79-.62-3.6 34.08-37.25 23.83-35.28Z" fill="#dc935b"/><path d="M509.11 112.05s3.33 4.41 10.02 8.59c6.69 4.18 9.01 5.83 8.09 10.68 0 0 4.25 5.11-4.14 16.48-8.39 11.37-23.98 32.96-22.09 37.6 1.9 4.64 5.57 6.27 5.57 6.27s-5.8-1.51-9.05 2.32c0 0-2.39-1.83-7.31 1.74-4.92 3.57-6.34 3.71-6.34 3.71s-3.06-3.31-7.7.2c-4.64 3.51-6.5 6.99-6.5 6.99s4.47 2.55-.18 4.87c-4.65 2.32-11.54 6.04-11.54 6.04l-2.32 5.43s-6.15-2.06-12.53 1.07c0 0-.46-2.44 3.48-7.43 0 0-.85-2.2 2.2-3.37 0 0-.93-9.05 1.39-12.3 0 0-.5-2.14 1.2-3.97l.46-8.79-.62-3.6 34.08-37.25 23.83-35.28Z" fill="none" stroke="#8f6000" stroke-width=".64"/><path d="m520.71 69.11 17.28-16.48s3.14 4.29 5.47 6.27l-11.38 16.02-12.3.12.93-5.92Z" fill="#dc935b"/><path d="m520.71 69.11 17.28-16.48s3.14 4.29 5.47 6.27l-11.38 16.02-12.3.12.93-5.92Z" fill="none" stroke="#8f6000" stroke-width=".64"/><path d="M538.21 53.55s.93-4.32 3.25-8.15 3.71-5.46 4.74-6.03 2.58-.09 1.71 1.46c-.87 1.55-2.64 5.43-2.64 5.43l.55 2.39s2.52.28 5.67-.21c3.16-.49 6.5-1.02 7.89-1.3 1.39-.28 2.88.26 2.14 1.58-.74 1.32-3.34 3.99-3.34 3.99s-11.88 4.87-11.88 5.08-5.2-.44-5.2-.44l-2.88-3.81Z" fill="#d6721d"/><path d="M538.21 53.55s.93-4.32 3.25-8.15 3.71-5.46 4.74-6.03 2.58-.09 1.71 1.46c-.87 1.55-2.64 5.43-2.64 5.43l.55 2.39s2.52.28 5.67-.21c3.16-.49 6.5-1.02 7.89-1.3 1.39-.28 2.88.26 2.14 1.58-.74 1.32-3.34 3.99-3.34 3.99s-11.88 4.87-11.88 5.08-5.2-.44-5.2-.44l-2.88-3.81Zm-16.3 14.27s10.32-5.5 15.84-9.65c0 0 .84 5.57 6.5 8.36 0 0-2.52 6.46-13.05 14.6-10.53 8.14-15.64 13.37-15.64 13.37l5.94-26.67h.41Z" fill="none" stroke="#8f6000" stroke-width=".64"/><path d="M537.38 59.22s.93-3.02 3.25-6.39c2.32-3.36 3.53-5.87 5.29-8.1 1.76-2.23 3.14-3.04 4.08-2.23s-2.22 4.22-3.61 6.61c-1.39 2.39-1.26 3.02-1.26 3.02s4.33.25 7.95-.62c3.62-.88 7.37-2.93 8.53-2.63 1.16.3.75 1.75.75 1.75s1.66-1.18 2.73-.59c1.08.59.43 1 .43 1s1.38-.74 1.89 0c.52.74-.41 2.79-.41 2.79s1.3 1.67-.84 2.97c-2.14 1.3-9.38 5.66-19.18 7.15l-3.57 3.5-3.81-3.22-2.42-4.18.2-.84Z" fill="#d6721d"/><path d="M537.38 59.22s.93-3.02 3.25-6.39c2.32-3.36 3.53-5.87 5.29-8.1 1.76-2.23 3.14-3.04 4.08-2.23s-2.22 4.22-3.61 6.61c-1.39 2.39-1.26 3.02-1.26 3.02s4.33.25 7.95-.62c3.62-.88 7.37-2.93 8.53-2.63 1.16.3.75 1.75.75 1.75s1.66-1.18 2.73-.59c1.08.59.43 1 .43 1s1.38-.74 1.89 0c.52.74-.41 2.79-.41 2.79s1.3 1.67-.84 2.97c-2.14 1.3-9.38 5.66-19.18 7.15l-3.57 3.5-3.81-3.22-2.42-4.18.2-.84Z" fill="none" stroke="#8f6000" stroke-width=".64"/><path d="M479.44 52.72c2-1.51 3.9-1.35 5.57-1.05 1.67.3 2.73 2.25 3.62 3.46.89 1.21.28 2.41 1.3 3.25 1.02.84 1.67-.21 3.06.72s4.19 4.3 7.11 5.23c2.92.93 6.26.93 9.97 1.58 3.71.65 10.2 1.55 12.76 1.09 0 0-.18 1.98-.55 8.85-.37 6.87-4.04 18.01-6.27 21.91 0 0 .28 10.49-9.56 28.97-9.84 18.48-19.59 27.14-25.16 30.36-5.57 3.22-7.52 9.56-14.95 16.15-7.43 6.59-18.72 15.41-18.72 15.41s3.25-4.18 4.18-8.73c.93-4.55.98-5.57 2.84-6.5 1.86-.93 1.95-1.21 1.95-1.21s.64-7.89.78-14.02c.15-6.13-.69-12.86-1.71-20.17-1.02-7.31-2.45-18.7.56-28.85 3.01-10.15 4.97-12.23 4.97-18.38s.79-10.64 3.02-16.37 3.14-10.24 8.02-15.32c4.88-5.08 7.2-6.38 7.2-6.38Z" fill="#3c1028"/><path d="M479.44 52.72c2-1.51 3.9-1.35 5.57-1.05 1.67.3 2.73 2.25 3.62 3.46.89 1.21.28 2.41 1.3 3.25 1.02.84 1.67-.21 3.06.72s4.19 4.3 7.11 5.23c2.92.93 6.26.93 9.97 1.58 3.71.65 10.2 1.55 12.76 1.09 0 0-.18 1.98-.55 8.85-.37 6.87-4.04 18.01-6.27 21.91 0 0 .28 10.49-9.56 28.97-9.84 18.48-19.59 27.14-25.16 30.36-5.57 3.22-7.52 9.56-14.95 16.15-7.43 6.59-18.72 15.41-18.72 15.41s3.25-4.18 4.18-8.73c.93-4.55.98-5.57 2.84-6.5 1.86-.93 1.95-1.21 1.95-1.21s.64-7.89.78-14.02c.15-6.13-.69-12.86-1.71-20.17-1.02-7.31-2.45-18.7.56-28.85 3.01-10.15 4.97-12.23 4.97-18.38s.79-10.64 3.02-16.37 3.14-10.24 8.02-15.32c4.88-5.08 7.2-6.38 7.2-6.38Zm-96.33 49.69L378 108.6s2.94 2.49 11.14 4.13l.54-3.47-6.58-6.85Z" fill="none" stroke="#8f6000" stroke-width=".64"/><path d="M413.71 125.74s1.16 27.85-8.82 50.37l-11.37-1.62 13.07-44.8 7.12-3.95Z" fill="#a47750"/><path d="M413.71 125.74s1.16 27.85-8.82 50.37l-11.37-1.62 13.07-44.8 7.12-3.95Z" fill="none" stroke="#8f6000" stroke-width=".64"/><path d="M393.89 75.03s-3.52 2.27-10.56 5.38c-7.04 3.11-15.09 7.78-15.2 27.97-.12 20.19-2.38 39.74-.2 64.76 2.18 25.02-33.57 143.91-33.57 143.91l7.89 1.83s10.64.96 30.64-10.65 49.21-21.35 49.21-21.35l-2.79-8.36s3.71-8.59 11.37-23.91c7.66-15.32 10.68-19.03 11.84-29.25 1.16-10.21 1.65-15.72.93-22.05-.72-6.33 2.32-7.66 2.09-14.16-.23-6.5 1.64-5.57.93-10.91-.71-5.34 1.63-4.68 1.39-9.54-.23-4.85-.23-4.39-.93-21.56-.7-17.18-2.32-33.19-2.32-33.19l-6.03-6.5-8.12-9.08-10.84-3.69-8.89-14.62-16.83-5.03Z" fill="#a47750"/><path d="M393.89 75.03s-3.52 2.27-10.56 5.38c-7.04 3.11-15.09 7.78-15.2 27.97-.12 20.19-2.38 39.74-.2 64.76 2.18 25.02-33.57 143.91-33.57 143.91l7.89 1.83s10.64.96 30.64-10.65 49.21-21.35 49.21-21.35l-2.79-8.36s3.71-8.59 11.37-23.91c7.66-15.32 10.68-19.03 11.84-29.25 1.16-10.21 1.65-15.72.93-22.05-.72-6.33 2.32-7.66 2.09-14.16-.23-6.5 1.64-5.57.93-10.91-.71-5.34 1.63-4.68 1.39-9.54-.23-4.85-.23-4.39-.93-21.56-.7-17.18-2.32-33.19-2.32-33.19l-6.03-6.5-8.12-9.08-10.84-3.69-8.89-14.62-16.83-5.03Z" fill="none" stroke="#8f6000" stroke-width=".64"/><path d="M447.07 66.93s0-3.9 1.3-7.24c1.3-3.34 1.48-4.62 2.32-6.41.83-1.79 1.21-1.58 1.95-1.21.74.37 1.26 2.6.93 4.18-.33 1.58-1.21 1.76-1.21 3.44s.19 2.02.19 2.02 3.16-.35 6.13-1.39c2.97-1.04 5.66-2.11 7.8-3.41 2.14-1.3 2.69-1.39 3.25-.93.56.46.13 1.3.13 1.3s2.35.37 1.35 2.32c0 0 1.01 1.42-.33 3.16 0 0 .23 1.98-1.86 3.25l-18.05 10.58-3.43-5.29-.46-4.36Z" fill="#d6721d"/><path d="M447.07 66.93s0-3.9 1.3-7.24c1.3-3.34 1.48-4.62 2.32-6.41.83-1.79 1.21-1.58 1.95-1.21.74.37 1.26 2.6.93 4.18-.33 1.58-1.21 1.76-1.21 3.44s.19 2.02.19 2.02 3.16-.35 6.13-1.39c2.97-1.04 5.66-2.11 7.8-3.41 2.14-1.3 2.69-1.39 3.25-.93.56.46.13 1.3.13 1.3s2.35.37 1.35 2.32c0 0 1.01 1.42-.33 3.16 0 0 .23 1.98-1.86 3.25l-18.05 10.58-3.43-5.29-.46-4.36Z" fill="none" stroke="#8f6000" stroke-width=".64"/><path d="M417.92 285.52s2.28 3.67 6.27 3.79c3.98.12 9.28 1.77 10.56 3.37 1.28 1.6.23 2.21-2.32 3.6-2.55 1.39-8.09 1.04-11.84 1.16-3.75.12-7.19.2-7.19.2v-9.4l4.53-2.72Z" fill="#3c1028"/><path d="M417.92 285.52s2.28 3.67 6.27 3.79c3.98.12 9.28 1.77 10.56 3.37 1.28 1.6.23 2.21-2.32 3.6-2.55 1.39-8.09 1.04-11.84 1.16-3.75.12-7.19.2-7.19.2v-9.4l4.53-2.72Z" fill="none" stroke="#8f6000" stroke-width=".64"/><path d="M368.75 308.67s-.54 4.96 3.44 8.15c3.98 3.18 14.39 10.91 14.39 10.91s-6.96 3.25-15.32-.7-12.53-7.03-12.53-7.03l-.12-7.36 10.14-3.97Z" fill="#3c1028"/><path d="M368.75 308.67s-.54 4.96 3.44 8.15c3.98 3.18 14.39 10.91 14.39 10.91s-6.96 3.25-15.32-.7-12.53-7.03-12.53-7.03l-.12-7.36 10.14-3.97Z" fill="none" stroke="#8f6000" stroke-width=".64"/><path d="m442.33 84.48 1.67-3.04s-.39-3.34.64-7.82 3.35-8.72 3.91-9.38c.56-.65 1.58-2.6 2.69-1.95 1.11.65.19 3.62-1.11 5.29s-1.2 3.18-.56 3.64c.64.46 5.42-.04 8.17-.95 2.76-.91 6.11-2.48 7.79-3.44 1.68-.95 2.7.28 2.7.28s.98-.74 2.04-.46c1.06.28 1.06.86 1.06.86s1.82-.46 1.54.93c-.28 1.39-2.04 3.36-2.6 4.83-.56 1.46-1.49 4.11-3.34 5.38-1.86 1.28-5.39 2.6-7.62 3.51-2.22.9-5.29 1.02-5.29 1.02l-4.64 5.39-7.06-4.09Z" fill="#d6721d"/><path d="m442.33 84.48 1.67-3.04s-.39-3.34.64-7.82 3.35-8.72 3.91-9.38c.56-.65 1.58-2.6 2.69-1.95 1.11.65.19 3.62-1.11 5.29s-1.2 3.18-.56 3.64c.64.46 5.42-.04 8.17-.95 2.76-.91 6.11-2.48 7.79-3.44 1.68-.95 2.7.28 2.7.28s.98-.74 2.04-.46c1.06.28 1.06.86 1.06.86s1.82-.46 1.54.93c-.28 1.39-2.04 3.36-2.6 4.83-.56 1.46-1.49 4.11-3.34 5.38-1.86 1.28-5.39 2.6-7.62 3.51-2.22.9-5.29 1.02-5.29 1.02l-4.64 5.39-7.06-4.09Z" fill="none" stroke="#8f6000" stroke-width=".64"/><path d="M413.09 66.28s-1.52-3.65-2.51-6.43c-.98-2.79-1.67-3.84-3.25-6.03-1.58-2.2-2.69-3.69-3.99-5.45-1.3-1.76-6.59-3.77-12.35-1.05-5.76 2.72-4.83 14.64-4.83 14.64l12.07 12.87 10.9-1.21 4.14-5.41-.19-1.92Z" fill="#d6721d"/><path d="M413.09 66.28s-1.52-3.65-2.51-6.43c-.98-2.79-1.67-3.84-3.25-6.03-1.58-2.2-2.69-3.69-3.99-5.45-1.3-1.76-6.59-3.77-12.35-1.05-5.76 2.72-4.83 14.64-4.83 14.64l12.07 12.87 10.9-1.21 4.14-5.41-.19-1.92Z" fill="none" stroke="#8f6000" stroke-width=".64"/><path d="M424.53 103.95s11.46-12.51 17.53-21.21c0 0 4.37 4.01 10.33 5.43 0 0 .77.95-.54 3.74-1.32 2.79-2.82 6.29-7.7 12.18 0 0-9.4 20.84-24.26 32.82l4.64-32.96Z" fill="#d1a82b"/><path d="M424.53 103.95s11.46-12.51 17.53-21.21c0 0 4.37 4.01 10.33 5.43 0 0 .77.95-.54 3.74-1.32 2.79-2.82 6.29-7.7 12.18 0 0-9.4 20.84-24.26 32.82l4.64-32.96Z" fill="none" stroke="#8f6000" stroke-width=".64"/><path d="M416.63 162.89s-3.36 26.96-5.68 46.46-4.64 51.53-9.29 71.02l-20.89 4.87s2.55-11.6 4.18-25.07c1.62-13.46 6.27-35.8 8.12-48.07 1.86-12.28 2.13-17.61 2.13-17.61s5.47-6.03 11.07-15.32c5.6-9.28 10.35-16.29 10.35-16.29Z" fill="#d1a82b"/><path d="M416.63 162.89s-3.36 26.96-5.68 46.46-4.64 51.53-9.29 71.02l-20.89 4.87s2.55-11.6 4.18-25.07c1.62-13.46 6.27-35.8 8.12-48.07 1.86-12.28 2.13-17.61 2.13-17.61s5.47-6.03 11.07-15.32c5.6-9.28 10.35-16.29 10.35-16.29Z" fill="none" stroke="#8f6000" stroke-width=".64"/><path d="M404.73 51.03s-2.41-3.87-5.04-3.69-6.38-.21-8.15 1.79c-1.76 2-1.21 2.48-2.14 4.06-.93 1.58-1.39 2.14-1.11 3.62.28 1.49-1.31 2.32.41 4.55 1.73 2.23 2.17 4.58 3.71 5.48 1.54.9 3.4 1.28 4.51.18 1.11-1.11 1.67-1.17 3.06-.46 1.39.72 2.64 1.02 4.03-.65 1.39-1.67 2.78-2.41 4.18-2.51 1.39-.09 1.7 1.11 3.49 1.58 1.79.46 2.41 1.02 3.99 2.51 1.58 1.49 3.06 2.66 2.04 5.11-1.02 2.44-.22 2.42.54 3.34.76.93.16 2.79.16 4.18s1.47 2.58.43 3.99c-1.04 1.41-3.58 2.27-6.42 1.41-2.84-.85-5.89 2.25-10.4 0-4.51-2.25-5.29-5.6-7.52-8.66-2.23-3.06-3.71-3.59-5.66-4.27-1.95-.68-1.63-2.6-2.95-3.71-1.32-1.11-4.42-.93-5.68-3.25-1.26-2.32-3.62-4.55-3.71-8.54-.09-3.99.36-6.01 2.45-7.43 2.1-1.42 3.21-1.92 5.62-3.88 2.41-1.97 4.92-3.45 8.17-3.36 3.25.09 6.48.51 8.49 2.11 2 1.6 3.4 4.11 3.95 5.22.56 1.11.28 1.86-.46 1.27Z" fill="#907767"/><path d="M404.73 51.03s-2.41-3.87-5.04-3.69-6.38-.21-8.15 1.79c-1.76 2-1.21 2.48-2.14 4.06-.93 1.58-1.39 2.14-1.11 3.62.28 1.49-1.31 2.32.41 4.55 1.73 2.23 2.17 4.58 3.71 5.48 1.54.9 3.4 1.28 4.51.18 1.11-1.11 1.67-1.17 3.06-.46 1.39.72 2.64 1.02 4.03-.65 1.39-1.67 2.78-2.41 4.18-2.51 1.39-.09 1.7 1.11 3.49 1.58 1.79.46 2.41 1.02 3.99 2.51 1.58 1.49 3.06 2.66 2.04 5.11-1.02 2.44-.22 2.42.54 3.34.76.93.16 2.79.16 4.18s1.47 2.58.43 3.99c-1.04 1.41-3.58 2.27-6.42 1.41-2.84-.85-5.89 2.25-10.4 0-4.51-2.25-5.29-5.6-7.52-8.66-2.23-3.06-3.71-3.59-5.66-4.27-1.95-.68-1.63-2.6-2.95-3.71-1.32-1.11-4.42-.93-5.68-3.25-1.26-2.32-3.62-4.55-3.71-8.54-.09-3.99.36-6.01 2.45-7.43 2.1-1.42 3.21-1.92 5.62-3.88 2.41-1.97 4.92-3.45 8.17-3.36 3.25.09 6.48.51 8.49 2.11 2 1.6 3.4 4.11 3.95 5.22.56 1.11.28 1.86-.46 1.27Zm55.77 11.61s6.44-2.67 9.31-5.36m-8.63 7.68s6.5-2.18 10.03-5.27m-9.47 7.15s5.66-1.17 9.19-4.01" fill="none" stroke="#8f6000" stroke-width=".64"/><path d="M456.72 73.24s8.59-2.57 11.61-6.21" fill="#d6721d"/><path d="M456.72 73.24s8.59-2.57 11.61-6.21" fill="none" stroke="#8f6000" stroke-width=".64"/><path d="M456.67 76.12s9.52-2.23 14.68-8.73" fill="#d6721d"/><path d="M456.67 76.12s9.52-2.23 14.68-8.73m-82.58-9.4s3.79-4.43 8.77-3.04m4.79-6.13s-1.02.46-2.04 1.95-.17 3.25-.17 3.25 2.58.74 4.44 2.69c1.86 1.95 1.49 2.32 2.88 3.25 1.39.93 1.58 1.86 1.02 2.51-.56.65-2.04 1.21-2.88.93-.84-.28-1.31-.3-1.31-.3s-.92.89-1.85-.9m-5.57-6.04s-2.6-1.21-4.82 2.97m8.77-5.66s.35-2.32 2.15-2.69m-6.09 6.03s-1.95.23-3.25 3.9m7.89-7.21s.53-1.46 2.77-1.46m-6.67 6.09s.43 1.49-3.21 2.65m8.4-6.3s.91.05 1.48-1.78m3.17 12.95s-.93 2.14-2.97 5.36m2.7-.46s.65-2.2 2.51-2.2m-13.8-9.03c.29 0 .52-.23.52-.52s-.23-.52-.52-.52-.52.23-.52.52.23.52.52.52Zm7.45-5.86c.29 0 .52-.23.52-.52s-.23-.52-.52-.52-.52.23-.52.52.23.52.52.52Z" fill="none" stroke="#8f6000" stroke-width=".64"/><path d="M366.07 159.33s-.04-3.34 1.3-6.41c1.34-3.06 1.66-4.92 2.73-4.92s1.22 2.18.61 4.8c-.61 2.63-1.3 4.08-1.3 4.08s2.75-.9 6.59-3.03c3.85-2.14 7.04-3.81 8.49-3.81s.83.74.41 1.48c-.41.74-7.14 5.35-7.14 5.35s6.28-3.22 8.36-4.42c2.08-1.21 2.88-1.21 3.34-.56.46.65.19 2.14-.65 2.69 0 0 .65 1.51-1.21 2.88 0 0-.21 1.58-2.7 3.34-2.5 1.76-16.52 7.61-16.52 7.61l-2.53-1.02.2-8.08Z" fill="#d6721d"/><path d="M366.07 159.33s-.04-3.34 1.3-6.41c1.34-3.06 1.66-4.92 2.73-4.92s1.22 2.18.61 4.8c-.61 2.63-1.3 4.08-1.3 4.08s2.75-.9 6.59-3.03c3.85-2.14 7.04-3.81 8.49-3.81s.83.74.41 1.48c-.41.74-7.14 5.35-7.14 5.35s6.28-3.22 8.36-4.42c2.08-1.21 2.88-1.21 3.34-.56.46.65.19 2.14-.65 2.69 0 0 .65 1.51-1.21 2.88 0 0-.21 1.58-2.7 3.34-2.5 1.76-16.52 7.61-16.52 7.61l-2.53-1.02.2-8.08Z" fill="none" stroke="#8f6000" stroke-width=".64"/><path d="M362.67 175.2s.89-2.97 1.63-8.35c.74-5.39.82-7.01.69-8.48-.13-1.46 1.45-1.6 2-.81.56.79 1.36 4.39.17 8.51 0 0 1.39-.8 4.79-2.57 3.4-1.76 3.95-1.92 5.72-3.06 1.76-1.14 3.08-1.58 4.19-1.3 1.11.28.55 1.09.55 1.09s1.38-.62 2.08.3c.7.93-.6 2.32-.6 2.32s.74 1.11-.09 2.32c0 0 .64.92-.65 2.48s-4.7 3.93-8.87 5.13c0 0-1.64 2.79-6.72 4.92l-4.88-2.51Z" fill="#d6721d"/><path d="M362.67 175.2s.89-2.97 1.63-8.35c.74-5.39.82-7.01.69-8.48-.13-1.46 1.45-1.6 2-.81.56.79 1.36 4.39.17 8.51 0 0 1.39-.8 4.79-2.57 3.4-1.76 3.95-1.92 5.72-3.06 1.76-1.14 3.08-1.58 4.19-1.3 1.11.28.55 1.09.55 1.09s1.38-.62 2.08.3c.7.93-.6 2.32-.6 2.32s.74 1.11-.09 2.32c0 0 .64.92-.65 2.48s-4.7 3.93-8.87 5.13c0 0-1.64 2.79-6.72 4.92l-4.88-2.51Z" fill="none" stroke="#8f6000" stroke-width=".64"/><path d="M328.86 160.83s-3.48 4.76-4.99 9.28c-1.51 4.53-3.99 11.14-3.44 20.43.54 9.28 6.06 12.77 8.6 19.03 2.54 6.27 12.02 42.82 12.02 42.82l21.38-20.66s-1.19-14.64 1.83-24.99c3.02-10.35 2.55-21.2 2.55-21.2l-4.38-8.12s-2.23-.05-3.28-.95c-1.04-.9-2.2 0-3.13.46-.93.46-3.17-.21-4.53.03-1.35.23-1.72-1.56-2.84-2.35-1.11-.79-2.31-2.02-2.5-4.62-.19-2.6-.19-3.83-.19-3.83l-17.1-5.34Z" fill="#513171"/><path d="M328.86 160.83s-3.48 4.76-4.99 9.28c-1.51 4.53-3.99 11.14-3.44 20.43.54 9.28 6.06 12.77 8.6 19.03 2.54 6.27 12.02 42.82 12.02 42.82l21.38-20.66s-1.19-14.64 1.83-24.99c3.02-10.35 2.55-21.2 2.55-21.2l-4.38-8.12s-2.23-.05-3.28-.95c-1.04-.9-2.2 0-3.13.46-.93.46-3.17-.21-4.53.03-1.35.23-1.72-1.56-2.84-2.35-1.11-.79-2.31-2.02-2.5-4.62-.19-2.6-.19-3.83-.19-3.83l-17.1-5.34Z" fill="none" stroke="#8f6000" stroke-width=".64"/><path d="M350.65 152.34s-2.88-4.06-5.48-5.45c-2.6-1.39-4.55-1.95-4.55-1.95s-.87-3.16-3.03-3.9c-2.15-.74-6.96-1.76-6.96-1.76s-3.01-2.63-7.28-.2c-4.27 2.43-2.88 4.45-2.88 4.45s-2.36.49-1.39 3.55c0 0-1.06 1.33-.44 3.99.62 2.67-.3 3.38.99 4.99 1.3 1.6 2.6 3.51 3.9 2.17 0 0 .93 1.7 4.08 2.01 0 0 1.05 3.5 6.91 3.71 0 0-.13 1.6 3.87 1.7 0 0 2.04 1.77 4.18 1.77s1.95 1.25 3.99.21 3.55-.55 3.9-3.27c0 0 3.16.4 3.62-2.32.46-2.72.2-3.77.2-5.5s-.44-2.32-.44-2.32-.23-3.04-3.2-1.86Z" fill="#90551d"/><path d="M350.65 152.34s-2.88-4.06-5.48-5.45c-2.6-1.39-4.55-1.95-4.55-1.95s-.87-3.16-3.03-3.9c-2.15-.74-6.96-1.76-6.96-1.76s-3.01-2.63-7.28-.2c-4.27 2.43-2.88 4.45-2.88 4.45s-2.36.49-1.39 3.55c0 0-1.06 1.33-.44 3.99.62 2.67-.3 3.38.99 4.99 1.3 1.6 2.6 3.51 3.9 2.17 0 0 .93 1.7 4.08 2.01 0 0 1.05 3.5 6.91 3.71 0 0-.13 1.6 3.87 1.7 0 0 2.04 1.77 4.18 1.77s1.95 1.25 3.99.21 3.55-.55 3.9-3.27c0 0 3.16.4 3.62-2.32.46-2.72.2-3.77.2-5.5s-.44-2.32-.44-2.32-.23-3.04-3.2-1.86Z" fill="none" stroke="#8f6000" stroke-width=".64"/><path d="M330.51 139.83s.08 2.14-1.49 3.81-2.82 2.69-2.22 4.36c.6 1.67.46 2.41.28 3.16-.19.74.31 1.88 1.5 1.88s2.94.94 3.46 2.39c.52 1.45.98 3.55 2.47 4.18 1.49.62 3.16-.1 4.18-.74 1.02-.64 3.34.37 3.34.37s-.29-.56.93-1.58c1.21-1.02 1.48-2.07 1.16-3.34-.32-1.28-.27-2.12.33-3.25.6-1.13 1.17-1.74 2.05-1.86.87-.12 1.58-.12 1.58-.12s-4.77-3.69-7.15-3.78c0 0-1.18-2.88-2.84-3.81-1.66-.93-7.56-1.67-7.56-1.67Z" fill="#d6721d"/><path d="M330.51 139.83s.08 2.14-1.49 3.81-2.82 2.69-2.22 4.36c.6 1.67.46 2.41.28 3.16-.19.74.31 1.88 1.5 1.88s2.94.94 3.46 2.39c.52 1.45.98 3.55 2.47 4.18 1.49.62 3.16-.1 4.18-.74 1.02-.64 3.34.37 3.34.37s-.29-.56.93-1.58c1.21-1.02 1.48-2.07 1.16-3.34-.32-1.28-.27-2.12.33-3.25.6-1.13 1.17-1.74 2.05-1.86.87-.12 1.58-.12 1.58-.12s-4.77-3.69-7.15-3.78c0 0-1.18-2.88-2.84-3.81-1.66-.93-7.56-1.67-7.56-1.67Z" fill="none" stroke="#8f6000" stroke-width=".64"/><path d="M352.19 187.29s5.08-3.13 7.66-7.08 3.29-6.04 3.29-6.04l7.04 1.39s-2.67 8.47-5.46 13.58c-2.79 5.11-4.76 8.73-11.02 12.42l-1.51-14.28Z" fill="#90551d"/><path d="M352.19 187.29s5.08-3.13 7.66-7.08 3.29-6.04 3.29-6.04l7.04 1.39s-2.67 8.47-5.46 13.58c-2.79 5.11-4.76 8.73-11.02 12.42l-1.51-14.28Z" fill="none" stroke="#8f6000" stroke-width=".64"/><path d="M333.71 336.5s4.64.21 8.82 2.53c4.18 2.32 4.45 5.16 2.79 5.13-1.66-.03-7.04-1.42-10.25.21s-4.87 2.87-6.5.18c-1.62-2.69-2.78-4.59-2.78-4.59l7.93-3.46Z" fill="#3c1028"/><path d="M333.71 336.5s4.64.21 8.82 2.53c4.18 2.32 4.45 5.16 2.79 5.13-1.66-.03-7.04-1.42-10.25.21s-4.87 2.87-6.5.18c-1.62-2.69-2.78-4.59-2.78-4.59l7.93-3.46Z" fill="none" stroke="#8f6000" stroke-width=".64"/><path d="M348.43 205.17s-1-3.52-.66-7.05c.33-3.53 1.78-5.03 2.34-6.88.56-1.85.65-2.79 1.58-2.6.93.19 1.15 2.6.6 4.46-.56 1.86-1.53 3.22-1.53 3.22s3.24.26 5.75-1.2 5.11-3.17 5.85-3.52c.74-.35 1.84-.16 1.99.76 0 0 .52-.28 1.26.09s.09 1.55.09 1.55 1.21-.16.84 1.33c0 0 1.11.65-.09 2.23-1.2 1.58-5.2 3.98-5.2 3.98l-10.68 5.12-2.14-1.49Z" fill="#d6721d"/><path d="M348.43 205.17s-1-3.52-.66-7.05c.33-3.53 1.78-5.03 2.34-6.88.56-1.85.65-2.79 1.58-2.6.93.19 1.15 2.6.6 4.46-.56 1.86-1.53 3.22-1.53 3.22s3.24.26 5.75-1.2 5.11-3.17 5.85-3.52c.74-.35 1.84-.16 1.99.76 0 0 .52-.28 1.26.09s.09 1.55.09 1.55 1.21-.16.84 1.33c0 0 1.11.65-.09 2.23-1.2 1.58-5.2 3.98-5.2 3.98l-10.68 5.12-2.14-1.49Z" fill="none" stroke="#8f6000" stroke-width=".64"/><path d="M348.71 217.61s-.2-4.18-.61-7.61c-.41-3.43.31-6.87.31-9.1s.58-2.23 1.23-1.86c.65.37 1.11 3.43 1.02 5.94 0 0 2.58-.24 4.64-1.86 2.06-1.61 4.04-3.57 4.55-4.3.51-.72 1.21-.34 1.3.68 0 0 1.07-.65 1.67-.19.6.46.13 1.21.13 1.21s.62-.25 1.17.19c.56.44.13 1.99.13 1.99s1.5.18.36 1.64c-1.14 1.46-4.57 3.75-6.71 6.43-2.14 2.69-3.92 6.29-6.09 8.61l-3.1-1.77Z" fill="#d6721d"/><path d="M348.71 217.61s-.2-4.18-.61-7.61c-.41-3.43.31-6.87.31-9.1s.58-2.23 1.23-1.86c.65.37 1.11 3.43 1.02 5.94 0 0 2.58-.24 4.64-1.86 2.06-1.61 4.04-3.57 4.55-4.3.51-.72 1.21-.34 1.3.68 0 0 1.07-.65 1.67-.19.6.46.13 1.21.13 1.21s.62-.25 1.17.19c.56.44.13 1.99.13 1.99s1.5.18.36 1.64c-1.14 1.46-4.57 3.75-6.71 6.43-2.14 2.69-3.92 6.29-6.09 8.61l-3.1-1.77Zm8.64-20.98s4.73-1.86 6.96-4.18m-4.88 5.2s3.95-1.24 6.45-3.65m.56 1.33s-2.06 2.23-5.58 3.62m-2.55 8.63s4.57-3.25 6.14-5.29m-6.83 3.97s3.89-3.05 5.76-5.73m-6.87 4.43s3.3-2.95 4.9-5.55" fill="none" stroke="#8f6000" stroke-width=".64"/><path d="M317.65 196.54s-7.43 3.74-10.45 7.43c-3.02 3.69-3.48 10.86-3.02 19.94.46 9.08-.36 17.9-.36 31.36s-17.98 84.02-17.98 84.02l16.94 27.62s3.25-12.07 4.18-19.73c.93-7.66 2.32-16.01 2.32-16.01s44.8-37.14 45.26-52.92c.46-15.78-.96-61.3-.96-61.3s-13.33-11.55-17.61-14.24c-4.28-2.68-18.33-6.16-18.33-6.16Z" fill="#342825"/><path d="M317.65 196.54s-7.43 3.74-10.45 7.43c-3.02 3.69-3.48 10.86-3.02 19.94.46 9.08-.36 17.9-.36 31.36s-17.98 84.02-17.98 84.02l16.94 27.62s3.25-12.07 4.18-19.73c.93-7.66 2.32-16.01 2.32-16.01s44.8-37.14 45.26-52.92c.46-15.78-.96-61.3-.96-61.3s-13.33-11.55-17.61-14.24c-4.28-2.68-18.33-6.16-18.33-6.16Z" fill="none" stroke="#8f6000" stroke-width=".64"/><path d="M340.4 257.58s-.46 22.54-12.07 38.53c-11.61 15.99-18.11 22.75-25.07 26.23l2.13 1.86s1.35 12.77 2.28 16.71c0 0 7.27 0 9.32-1.39 2.05-1.39 3.98-.93 4.76.7.78 1.62.54 1.8 3.56.9s8.59-1.83 11.14-4.85c2.55-3.02 5.34-9.34 11.6-17.2 6.27-7.87 12.3-15.52 12.53-22.49.23-6.96-2.89-8.12-5.74-12.77-2.85-4.64-4.48-7.43-7.73-11.61s-6.73-14.62-6.73-14.62Z" fill="#8b9043"/><path d="M340.4 257.58s-.46 22.54-12.07 38.53c-11.61 15.99-18.11 22.75-25.07 26.23l2.13 1.86s1.35 12.77 2.28 16.71c0 0 7.27 0 9.32-1.39 2.05-1.39 3.98-.93 4.76.7.78 1.62.54 1.8 3.56.9s8.59-1.83 11.14-4.85c2.55-3.02 5.34-9.34 11.6-17.2 6.27-7.87 12.3-15.52 12.53-22.49.23-6.96-2.89-8.12-5.74-12.77-2.85-4.64-4.48-7.43-7.73-11.61s-6.73-14.62-6.73-14.62Z" fill="none" stroke="#8f6000" stroke-width=".64"/><path d="M335.98 194.91s.82-4.76-.69-8.12c0 0-.73-2.02-.93-4.2-.19-2.18-2.67-6.41-4.29-7.43-1.62-1.02-6.85-2.18-6.85-2.18l-7.16 1.97-3.53 6.71 5.58 10.21 2.44 6.18 5.34 4.41 10.09-5.34v-2.21Z" fill="#d6721d"/><path d="M335.98 194.91s.82-4.76-.69-8.12c0 0-.73-2.02-.93-4.2-.19-2.18-2.67-6.41-4.29-7.43-1.62-1.02-6.85-2.18-6.85-2.18l-7.16 1.97-3.53 6.71 5.58 10.21 2.44 6.18 5.34 4.41 10.09-5.34v-2.21Z" fill="none" stroke="#8f6000" stroke-width=".64"/><path d="M331.44 178.06s-2.27-2.9-5.57-3.37c0 0-2.82 2.72-8.08 1.97l-2.65 3.62s1.13 1.76 1.73 4.09c.59 2.32 2.51.93 2.51 3.71s-.13 4.67 2.23 5.85c2.36 1.18 2.13 1.58 3.06 3.16.93 1.58.65 3.16 2.79 2.79 2.13-.37 3.7-2.14 5.33-2.6 1.63-.46 3.08-1.82 3.63.16.55 1.98 2.19 3.93.88 7.45q-1.31 3.53-1.58 4.83c-.28 1.3-3.08 2.41-4.33 1.86-1.25-.56-2.15-.65-3.55-2.51-1.4-1.86-2.84-1.61-4.76-3.99-1.91-2.38-2.64-4.18-4.83-5.66-2.19-1.49-2.24-3.53-2.19-5.94.05-2.41-.45-3.73-1.99-4.74-1.54-1-1.58-2.94-2.79-4.55s-1.76-3.06-.74-4.55c1.02-1.49 1.47-3.83 4.59-5.76 3.12-1.93 4.98-2.71 7.67-2.32 2.69.39 5.48.37 7.52 2.23 2.04 1.86 3.43 3.99 3.25 6.22l-2.13-1.95Z" fill="#9d302b"/><path d="M331.44 178.06s-2.27-2.9-5.57-3.37c0 0-2.82 2.72-8.08 1.97l-2.65 3.62s1.13 1.76 1.73 4.09c.59 2.32 2.51.93 2.51 3.71s-.13 4.67 2.23 5.85c2.36 1.18 2.13 1.58 3.06 3.16.93 1.58.65 3.16 2.79 2.79 2.13-.37 3.7-2.14 5.33-2.6 1.63-.46 3.08-1.82 3.63.16.55 1.98 2.19 3.93.88 7.45q-1.31 3.53-1.58 4.83c-.28 1.3-3.08 2.41-4.33 1.86-1.25-.56-2.15-.65-3.55-2.51-1.4-1.86-2.84-1.61-4.76-3.99-1.91-2.38-2.64-4.18-4.83-5.66-2.19-1.49-2.24-3.53-2.19-5.94.05-2.41-.45-3.73-1.99-4.74-1.54-1-1.58-2.94-2.79-4.55s-1.76-3.06-.74-4.55c1.02-1.49 1.47-3.83 4.59-5.76 3.12-1.93 4.98-2.71 7.67-2.32 2.69.39 5.48.37 7.52 2.23 2.04 1.86 3.43 3.99 3.25 6.22l-2.13-1.95Zm-10.58 8.45s2.97-3.06 5.94-2.32m3.06-.68s2.61-2.92 4.36-1.46m-7.38 3.21s-2-.89-3.67 1.81m3.67-1.02s-.75 1.69-2.49 1.69m6.8-3.87s1.21-1.55 2.69-.89m-4.14 1.93s.79 1.1 1.56 2.41c.77 1.3 1.83 2.21 1.83 3.13s-1.02 1.72-1.83 1.5c-.81-.22-.83-.24-1.49-.02s-1.1-.65-1.32-1.46m3.25-5.68s1.6-.11 2.22-.8" fill="none" stroke="#8f6000" stroke-width=".64"/><path d="M281.26 203.21s2.09-1.31 4.41-3.09l9.29 3.26s2.32 3.54 12.77 5.86l5.8-10.68 3.95 21.59-7.2 51.06-15.32 13.93s-15.01-44.31-17.6-50.14c-2.59-5.83-4.91-9.93-3.06-16.01 1.86-6.09 4.41-12.07 6.96-15.78Z" fill="#90551d"/><path d="M281.26 203.21s2.09-1.31 4.41-3.09l9.29 3.26s2.32 3.54 12.77 5.86l5.8-10.68 3.95 21.59-7.2 51.06-15.32 13.93s-15.01-44.31-17.6-50.14c-2.59-5.83-4.91-9.93-3.06-16.01 1.86-6.09 4.41-12.07 6.96-15.78Z" fill="none" stroke="#8f6000" stroke-width=".64"/><g clip-path="url(#b)"><path d="m639.96 418.03-.73 4.18s1.24 3.66 3.06 6.47c1.82 2.81 3.25 5.16 3.25 9.54s.21 5.57.21 5.57 2.8-2.74 3.51-6.27c.7-3.53.43-5.81-.32-7.92-.74-2.11-.09-6.8 6.41-5.11 0 0-1.95 2.5-2.23 6.6s-.76 7.63-2.47 13.11c-1.71 5.48-5.98 9.84-5.98 9.84s.54-1.54-2.84-3.09c0 0-3.28 2.72-2.8 9.87.48 7.15.63 22.19-2.62 27.76 0 0-1.02 7.71 1.21 13.93s4.27 8.54 5.66 11.61c1.39 3.06 4.07 5.48 6.91 6.68 0 0-2.17.46-5.24-1.11-3.06-1.58-4.64-2.14-6.31-2.51-1.67-.37-1.76-2.13-.65-3.34 1.11-1.21 1.86-2.6-.46-4.55-2.32-1.95-6.54-8.26-6.22-13.28.32-5.01-.61-5.6-.61-5.6l-3.38 3.18s-2.04 5.13-4.64 9.1c-2.6 3.97-3.62 4.92-3.71 7.34-.09 2.41 2.4 4.92 1.99 7.52 0 0-.78 1.16-1.15-.44-.37-1.6-.93-2.32-2.41-3.36-1.49-1.05-1.13-2.21-2.24-2.21s-1.66-1.29-.36-2.16c1.29-.86 2.03-1.76 2.45-4.08.42-2.32.85-5.2 3.67-9.19 2.82-3.99 7.15-10.49 7.15-10.49s-2.97-4.83-5.01-10.03c-2.04-5.2-2.37-9.31-2.37-9.31s-1.53-.81-3.11.21c-1.58 1.02-3.53.84-6.5-1.3 0 0 3.23 1.95 5.24.28 2-1.67 2.56-2.23 4.23-2.41 0 0-.78-3.81.74-7.15 1.52-3.34 4.27-5.94 2.6-9.1 0 0-1.76.65-4.36 1.11-2.6.46-4.46.12-7.06-.74-2.6-.86-3.06-.74-4.36-.56-1.3.19-1.67-.56-.56-2.14 1.11-1.58 2.14-3.06 3.53-6.41 1.39-3.34 3.43-8.63 5.29-10.96 1.86-2.32 2.49-3.13.88-4.27-1.62-1.14-1.86-1.21-1.86-1.21s-1.15 2.35-2.64 4.46c-1.48 2.11-3.2 2.97-2.6 1.3.6-1.67-.13-3.25-2.78.65s-4.36 6.68-5.76 10.31c-1.39 3.62-4.19 6.59-5.25 6.13-1.06-.46-.05-1.86.93-3.62.98-1.76 1.59-3.53.8-3.34-.8.19-2.92 2.97-5.11 8.08-2.19 5.11-7 12.44-9.01 11.14-2-1.3.78-2.88 3.1-6.04 2.32-3.16 3.77-7.33 3.77-7.33s-2.23.88-3.43 2.02c-1.21 1.14-1.21 2.53-2.32 2.53s-1.21-2.23 1.11-4.64c2.32-2.41 7.78-10.58 9.23-15.32 1.45-4.74 3.3-14.95 4.05-18.66.74-3.71 4.55-9.19 10.21-7.43 5.66 1.76 7.97 4.64 7.09 11.61 0 0 6.09 1.71 8.22 5.45l10.68-.25 1.21-4.36s-3.71-1.92-3.53-7.45c.19-5.53 2.14-6.75 2.14-6.75s-.09-2.41.19-5.01c.28-2.6.82-3.53 1.52-1.3.7 2.23 1.91 3.53 1.91 3.53s.19-2.32.19-4.64-.19-3.3.28-3.46c.46-.16 1.86 7.64 1.86 7.64s1.01-7.15 1.8-7.24c.8-.09.8 6.78.8 6.78s2.23 1.58 2.97 6.78c.74 5.2.93 8.79-2.51 11.58-3.43 2.78-4.51 3.27-4.51 3.27Z"/><path d="m639.96 418.03-.73 4.18s1.24 3.66 3.06 6.47c1.82 2.81 3.25 5.16 3.25 9.54s.21 5.57.21 5.57 2.8-2.74 3.51-6.27c.7-3.53.43-5.81-.32-7.92-.74-2.11-.09-6.8 6.41-5.11 0 0-1.95 2.5-2.23 6.6s-.76 7.63-2.47 13.11c-1.71 5.48-5.98 9.84-5.98 9.84s.54-1.54-2.84-3.09c0 0-3.28 2.72-2.8 9.87.48 7.15.63 22.19-2.62 27.76 0 0-1.02 7.71 1.21 13.93s4.27 8.54 5.66 11.61c1.39 3.06 4.07 5.48 6.91 6.68 0 0-2.17.46-5.24-1.11-3.06-1.58-4.64-2.14-6.31-2.51-1.67-.37-1.76-2.13-.65-3.34 1.11-1.21 1.86-2.6-.46-4.55-2.32-1.95-6.54-8.26-6.22-13.28.32-5.01-.61-5.6-.61-5.6l-3.38 3.18s-2.04 5.13-4.64 9.1c-2.6 3.97-3.62 4.92-3.71 7.34-.09 2.41 2.4 4.92 1.99 7.52 0 0-.78 1.16-1.15-.44-.37-1.6-.93-2.32-2.41-3.36-1.49-1.05-1.13-2.21-2.24-2.21s-1.66-1.29-.36-2.16c1.29-.86 2.03-1.76 2.45-4.08.42-2.32.85-5.2 3.67-9.19 2.82-3.99 7.15-10.49 7.15-10.49s-2.97-4.83-5.01-10.03c-2.04-5.2-2.37-9.31-2.37-9.31s-1.53-.81-3.11.21c-1.58 1.02-3.53.84-6.5-1.3 0 0 3.23 1.95 5.24.28 2-1.67 2.56-2.23 4.23-2.41 0 0-.78-3.81.74-7.15 1.52-3.34 4.27-5.94 2.6-9.1 0 0-1.76.65-4.36 1.11-2.6.46-4.46.12-7.06-.74-2.6-.86-3.06-.74-4.36-.56-1.3.19-1.67-.56-.56-2.14 1.11-1.58 2.14-3.06 3.53-6.41 1.39-3.34 3.43-8.63 5.29-10.96 1.86-2.32 2.49-3.13.88-4.27-1.62-1.14-1.86-1.21-1.86-1.21s-1.15 2.35-2.64 4.46c-1.48 2.11-3.2 2.97-2.6 1.3.6-1.67-.13-3.25-2.78.65s-4.36 6.68-5.76 10.31c-1.39 3.62-4.19 6.59-5.25 6.13-1.06-.46-.05-1.86.93-3.62.98-1.76 1.59-3.53.8-3.34-.8.19-2.92 2.97-5.11 8.08-2.19 5.11-7 12.44-9.01 11.14-2-1.3.78-2.88 3.1-6.04 2.32-3.16 3.77-7.33 3.77-7.33s-2.23.88-3.43 2.02c-1.21 1.14-1.21 2.53-2.32 2.53s-1.21-2.23 1.11-4.64c2.32-2.41 7.78-10.58 9.23-15.32 1.45-4.74 3.3-14.95 4.05-18.66.74-3.71 4.55-9.19 10.21-7.43 5.66 1.76 7.97 4.64 7.09 11.61 0 0 6.09 1.71 8.22 5.45l10.68-.25 1.21-4.36s-3.71-1.92-3.53-7.45c.19-5.53 2.14-6.75 2.14-6.75s-.09-2.41.19-5.01c.28-2.6.82-3.53 1.52-1.3.7 2.23 1.91 3.53 1.91 3.53s.19-2.32.19-4.64-.19-3.3.28-3.46c.46-.16 1.86 7.64 1.86 7.64s1.01-7.15 1.8-7.24c.8-.09.8 6.78.8 6.78s2.23 1.58 2.97 6.78c.74 5.2.93 8.79-2.51 11.58-3.43 2.78-4.51 3.27-4.51 3.27Z" fill="none" stroke="#8f6000" stroke-width=".64"/><path d="M668.94 435.18s-1.72-1.83-3.39-4.24c-1.67-2.41-4.29-4.08-6.09-3.9-1.8.19-4.7 2.22-8.36 4.03-3.66 1.82-8.02 2.72-8.02 2.72l-17.97 4.11s-7.47-5.26-12.02-8.17-17.64-9.38-27.85-12.16c-10.21-2.79-27.67-7.29-32.77-12.56-5.11-5.27-12.53-16.41-17.36-20.68l-2.04.46s1.95 1.49 6.04 6.87c4.08 5.39 5.07 6.41 4.46 6.78-.61.37-6.93-2.27-10.96-5.85-4.04-3.57-9.55-8.49-9.55-8.49l-2.79.69s4.73 6.31 12.72 10.58c7.98 4.27 8.36 5.57 12.91 8.82 4.55 3.25 15.23 9.56 23.4 12.16 8.17 2.6 20.24 5.01 28.69 8.45 8.45 3.43 14.1 5.85 20.19 10.21 6.09 4.36 7.58 6.19 7.58 6.19l19.22-4.9s3.73-.67 7.24-3.46c3.51-2.79 5.01-4.15 7.43-4.06 2.41.09 3.62.84 5.57 3.43 1.95 2.6 2.51 3.34 2.51 3.34l1.25-.4Z"/></g><path d="m476.7 395-.63 3.62s-2.53 1.88-3.64 4.83c-1.11 2.95-.66 4.83-.19 5.39 0 0-.83 2.16-.18 3.34 0 0 .15 1.76.93 1.86.78.09 1.86-2.23 1.86-2.23s1.54.74 2.79-2.88 3.9-6.87 3.9-6.87 2.96.62 2.6 3.87l3.81-9.5-2.78-4.68-8.45 3.25Z" fill="#d6721d"/><path d="m476.7 395-.63 3.62s-2.53 1.88-3.64 4.83c-1.11 2.95-.66 4.83-.19 5.39 0 0-.83 2.16-.18 3.34 0 0 .15 1.76.93 1.86.78.09 1.86-2.23 1.86-2.23s1.54.74 2.79-2.88 3.9-6.87 3.9-6.87 2.96.62 2.6 3.87l3.81-9.5-2.78-4.68-8.45 3.25Z" fill="none" stroke="#8f6000" stroke-width=".64"/><path d="M476.29 395.86s.19-10.38 4.45-20.1c4.25-9.72 12.38-14.48 12.38-14.48l3.87 9.84-10.36 23.82-10.34.93Z" fill="#929279"/><path d="M476.29 395.86s.19-10.38 4.45-20.1c4.25-9.72 12.38-14.48 12.38-14.48l3.87 9.84-10.36 23.82-10.34.93Z" fill="none" stroke="#8f6000" stroke-width=".64"/><path d="m501.59 379.73-2.55-12.3s-3.25 1.74-5.34 3.94c0 0-3.48-2.99-3.48-8.35 0 0-2.69 2.55-3.13 3.25 0 0-4.53-6.96-6.61-28.09-2.09-21.12-3.64-46.19 3.98-64.53l18.99-10.91s2.86.93 8.86 3.94c6 3.02 10.95 13.49 13.93 27.85 0 0 3.21 9.29 3.67 20.66 0 0 .89 1.62 4.41 15.09 3.52 13.46 7.2 26.46-1.86 32.03-9.05 5.57-23.21 9.26-23.21 9.26l-7.66 8.15Z" fill="#342825"/><path d="m501.59 379.73-2.55-12.3s-3.25 1.74-5.34 3.94c0 0-3.48-2.99-3.48-8.35 0 0-2.69 2.55-3.13 3.25 0 0-4.53-6.96-6.61-28.09-2.09-21.12-3.64-46.19 3.98-64.53l18.99-10.91s2.86.93 8.86 3.94c6 3.02 10.95 13.49 13.93 27.85 0 0 3.21 9.29 3.67 20.66 0 0 .89 1.62 4.41 15.09 3.52 13.46 7.2 26.46-1.86 32.03-9.05 5.57-23.21 9.26-23.21 9.26l-7.66 8.15Z" fill="none" stroke="#8f6000" stroke-width=".64"/><path d="M531.33 365.12s6-1.98 11.34 1.04 4.29 11 1.51 14.71c-2.78 3.71-6.55 5.63-12.91 4.32l-6.1.07-4.05-4.18 2.65-12.16 7.56-3.8Z" fill="#d6721d"/><path d="M531.33 365.12s6-1.98 11.34 1.04 4.29 11 1.51 14.71c-2.78 3.71-6.55 5.63-12.91 4.32l-6.1.07-4.05-4.18 2.65-12.16 7.56-3.8Z" fill="none" stroke="#8f6000" stroke-width=".64"/><path d="M534.66 358.38s1.93 7.2-6.73 10.79c-8.67 3.6-21.47 1.95-21.47 1.95l28.2-12.74Z" fill="#342825"/><path d="M534.66 358.38s1.93 7.2-6.73 10.79c-8.67 3.6-21.47 1.95-21.47 1.95l28.2-12.74Z" fill="none" stroke="#8f6000" stroke-width=".64"/><path d="M526.69 369.1s-.53 2.96-3.66 5.94c0 0 .09 1.44.74 3.04s2.69 4.51-.09 7.72c0 0-3.49.98-6.27-3.14-2.79-4.12-2.51-5.72 1.08-8.76 3.58-3.04 8.21-4.8 8.21-4.8Z" fill="#75775c"/><path d="M526.69 369.1s-.53 2.96-3.66 5.94c0 0 .09 1.44.74 3.04s2.69 4.51-.09 7.72c0 0-3.49.98-6.27-3.14-2.79-4.12-2.51-5.72 1.08-8.76 3.58-3.04 8.21-4.8 8.21-4.8Z" fill="none" stroke="#8f6000" stroke-width=".64"/><path d="m475.63 206 2.68-3.6s-2.14-2.44-4.35-4.87c-2.2-2.44-3.71-2.55-9.28-2.09l3.52 1.86s5.72 6.91 5.42 9.49l2.01-.79Z" fill="#3c1028"/><path d="m475.63 206 2.68-3.6s-2.14-2.44-4.35-4.87c-2.2-2.44-3.71-2.55-9.28-2.09l3.52 1.86s5.72 6.91 5.42 9.49l2.01-.79Z" fill="none" stroke="#8f6000" stroke-width=".64"/><path d="M497.18 224.91s-1.9-7.54-4.53-14.35l.62-.85s6.89 7.43 9.28 12.53l-2.94 4.29-2.44-1.63Z" fill="#3c1028"/><path d="M497.18 224.91s-1.9-7.54-4.53-14.35l.62-.85s6.89 7.43 9.28 12.53l-2.94 4.29-2.44-1.63Z" fill="none" stroke="#8f6000" stroke-width=".64"/><path d="M493.27 396.67s.89 2.35 1.24 4.88 2.15 3.74 2.7 5.45c.55 1.71.88 2.64.2 3.11-.69.46-3.55-2.41-3.94-4.85 0 0-1.28.49-2.32 3.13-1.04 2.64-1.51 3.89-1.86 5.89-.35 2-.84 2.93-1.74 2.93s-.9-2.79-.9-2.79-1.83 3.34-2.87 2.99c-1.03-.35-.07-1.9-.07-1.9s-1.16 1.21-1.53.28c-.37-.93.93-3.53.93-3.53s-1.11 1.06-1.67.39c-.56-.67.95-4.75 2.33-7.35 0 0 .9-5.62 1.6-6.8l7.89-1.83Z" fill="#d6721d"/><path d="M493.27 396.67s.89 2.35 1.24 4.88 2.15 3.74 2.7 5.45c.55 1.71.88 2.64.2 3.11-.69.46-3.55-2.41-3.94-4.85 0 0-1.28.49-2.32 3.13-1.04 2.64-1.51 3.89-1.86 5.89-.35 2-.84 2.93-1.74 2.93s-.9-2.79-.9-2.79-1.83 3.34-2.87 2.99c-1.03-.35-.07-1.9-.07-1.9s-1.16 1.21-1.53.28c-.37-.93.93-3.53.93-3.53s-1.11 1.06-1.67.39c-.56-.67.95-4.75 2.33-7.35 0 0 .9-5.62 1.6-6.8l7.89-1.83Z" fill="none" stroke="#8f6000" stroke-width=".64"/><path d="m498.8 310.33 3.25-13.02s3.95-11.35 4.41-33.63c0 0-6.3-8.82-14.16-13.46 0 0 2.86-10.2 3.75-16.82 0 0 3.31-5.46 6.96-7.55 0 0-4.93-.8-10.95-7.48 0 0 1.86-8.77-18.1-14.34l-.05 1.55h-2.96s-2.94 12.84-3.79 22.36c-.85 9.52-.2 10.68-.2 10.68s-2.27 1.36-2.97 5.2l3.17 5.47s-2.24 3.02 2.63 9.98c4.87 6.96 7.43 9.28 7.43 9.28s-.11 1.88 3.94 7.2c4.06 5.31 7.2 10.91 10.45 17.18 3.25 6.27 7.2 17.41 7.2 17.41Z" fill="#b68d6f"/><path d="m498.8 310.33 3.25-13.02s3.95-11.35 4.41-33.63c0 0-6.3-8.82-14.16-13.46 0 0 2.86-10.2 3.75-16.82 0 0 3.31-5.46 6.96-7.55 0 0-4.93-.8-10.95-7.48 0 0 1.86-8.77-18.1-14.34l-.05 1.55h-2.96s-2.94 12.84-3.79 22.36c-.85 9.52-.2 10.68-.2 10.68s-2.27 1.36-2.97 5.2l3.17 5.47s-2.24 3.02 2.63 9.98c4.87 6.96 7.43 9.28 7.43 9.28s-.11 1.88 3.94 7.2c4.06 5.31 7.2 10.91 10.45 17.18 3.25 6.27 7.2 17.41 7.2 17.41Z" fill="none" stroke="#8f6000" stroke-width=".64"/><path d="M499.03 365.34s-8.36 7.14-10.68 18.54c-2.32 11.4-4.52 13.82-4.37 15.3.15 1.48.7.6 2.84.02 2.14-.58 5.11.86 7.43-2.55 0 0-1.21-.55.93-6.66s3.62-8.17 8.96-13.97c5.34-5.8 7.2-7.66 7.2-7.66l-12.3-3.02Z" fill="#929279"/><path d="M499.03 365.34s-8.36 7.14-10.68 18.54c-2.32 11.4-4.52 13.82-4.37 15.3.15 1.48.7.6 2.84.02 2.14-.58 5.11.86 7.43-2.55 0 0-1.21-.55.93-6.66s3.62-8.17 8.96-13.97c5.34-5.8 7.2-7.66 7.2-7.66l-12.3-3.02Z" fill="none" stroke="#8f6000" stroke-width=".64"/><path d="M290.1 366.25s5.8-.11 9.05 4.47c0 0 1.63 1.74 3.25 1.31 1.62-.44 3.71.21 3.25 2.32-.46 2.12-5.72 4.67-10.64 3.28-4.92-1.39-6.31-1.39-8.63 1.16l-2.32-.72s1.47-4.15 1.2-9.26l4.83-2.55Z" fill="#3c1028"/><path d="M290.1 366.25s5.8-.11 9.05 4.47c0 0 1.63 1.74 3.25 1.31 1.62-.44 3.71.21 3.25 2.32-.46 2.12-5.72 4.67-10.64 3.28-4.92-1.39-6.31-1.39-8.63 1.16l-2.32-.72s1.47-4.15 1.2-9.26l4.83-2.55Z" fill="none" stroke="#8f6000" stroke-width=".64"/><path d="M256.63 380.96s-2.34 8.26.32 13.93c2.65 5.66 4.94 7.98 4.79 12.16 0 0-4.19.19-8.97-4.46-4.77-4.64-7.84-5.11-7.84-5.11l-1.91-3.41 1.17-8.01 12.44-5.11Z" fill="#3c1028"/><path d="M256.63 380.96s-2.34 8.26.32 13.93c2.65 5.66 4.94 7.98 4.79 12.16 0 0-4.19.19-8.97-4.46-4.77-4.64-7.84-5.11-7.84-5.11l-1.91-3.41 1.17-8.01 12.44-5.11Z" fill="none" stroke="#8f6000" stroke-width=".64"/><path d="M286.85 298.24s4.54 8.59 8.59 13 13.46 11.14 9.52 19.27c-3.95 8.12-7.43 12.3-7.43 12.3s-2.03 7.84-5.11 12.97c0 0 .77 5.13.27 10.93 0 0-3.52 1.39-8.86 4.87-5.34 3.48-10.68 5.57-10.68 5.57s-2.32-6.27-15.32 4.41c0 0-7.66 2.55-14.16 8.36 0 0-2.59-3.7-1.3-14.39 1.3-10.69 1.57-18.11 1.57-18.11l25.73-35.74 17.18-23.44Z" fill="#946060"/><path d="M286.85 298.24s4.54 8.59 8.59 13 13.46 11.14 9.52 19.27c-3.95 8.12-7.43 12.3-7.43 12.3s-2.03 7.84-5.11 12.97c0 0 .77 5.13.27 10.93 0 0-3.52 1.39-8.86 4.87-5.34 3.48-10.68 5.57-10.68 5.57s-2.32-6.27-15.32 4.41c0 0-7.66 2.55-14.16 8.36 0 0-2.59-3.7-1.3-14.39 1.3-10.69 1.57-18.11 1.57-18.11l25.73-35.74 17.18-23.44Z" fill="none" stroke="#8f6000" stroke-width=".64"/><path d="M293.78 245.86s2.17-3.9 3.08-7.24c.91-3.34 1.41-5.68 2.3-7.53.89-1.85 1.58-1.66 2.04-1.38.46.28.11 3.16.11 3.16l-1.26 4.78s1.74.09 4.87-.78 4.74-2.79 5.85-4.28c1.11-1.49 1.52-1.87 1.99-1.49.46.38.24 2.46-.78 3.51 0 0 1.19-.08 2.64-.68 1.45-.6 1.69-.42 2 0 .32.42.46 1.18-1.86 2.94l-11.57 8.68-5.05 4.45-4.54-3.76.18-.37Z" fill="#d6721d"/><path d="M293.78 245.86s2.17-3.9 3.08-7.24c.91-3.34 1.41-5.68 2.3-7.53.89-1.85 1.58-1.66 2.04-1.38.46.28.11 3.16.11 3.16l-1.26 4.78s1.74.09 4.87-.78 4.74-2.79 5.85-4.28c1.11-1.49 1.52-1.87 1.99-1.49.46.38.24 2.46-.78 3.51 0 0 1.19-.08 2.64-.68 1.45-.6 1.69-.42 2 0 .32.42.46 1.18-1.86 2.94l-11.57 8.68-5.05 4.45-4.54-3.76.18-.37Z" fill="none" stroke="#8f6000" stroke-width=".64"/><path d="M283.72 260.52s6.55-8.36 8.36-14.97c0 0 2.55-.58 5.8-.05l-4 12.94-7.38 5.82-2.79-3.73Z" fill="#b68d6f"/><path d="M283.72 260.52s6.55-8.36 8.36-14.97c0 0 2.55-.58 5.8-.05l-4 12.94-7.38 5.82-2.79-3.73Z" fill="none" stroke="#8f6000" stroke-width=".64"/><path d="M297.13 247.9s.56-4.06.83-7.06c.28-3 2.23-5.85 2.51-7.61.28-1.76.7-2.09 1.39-1.88.69.21.58 3 .06 4.67s-.3 3.49-.3 3.49 3.21-.88 5.72-2.65 4.51-3.26 5.66-4c1.15-.74 2.23-.7 2.41-.12.19.58-2.08 2.9-6.78 6.34 0 0 3.34-1.1 5.39-2.22 2.04-1.12 3.05-1.31 3.38-.47.33.84-.69 1.49-.69 1.49s.56.39-.65 1.63c0 0 .43 1.06-1.21 2.17-1.63 1.11-10.68 5.57-12.53 8.08l-5.4-1.58" fill="#d6721d"/><path d="M297.13 247.9s.56-4.06.83-7.06c.28-3 2.23-5.85 2.51-7.61.28-1.76.7-2.09 1.39-1.88.69.21.58 3 .06 4.67s-.3 3.49-.3 3.49 3.21-.88 5.72-2.65 4.51-3.26 5.66-4c1.15-.74 2.23-.7 2.41-.12.19.58-2.08 2.9-6.78 6.34 0 0 3.34-1.1 5.39-2.22 2.04-1.12 3.05-1.31 3.38-.47.33.84-.69 1.49-.69 1.49s.56.39-.65 1.63c0 0 .43 1.06-1.21 2.17-1.63 1.11-10.68 5.57-12.53 8.08l-5.4-1.58" fill="none" stroke="#8f6000" stroke-width=".64"/><path d="M285.36 262.96s9.29-12.07 11.71-16.71c0 0 3.71.46 5.34 3.95 0 0-7.21 23.44-13.7 31.8l-3.35-19.03Z" fill="#b68d6f"/><path d="M285.36 262.96s9.29-12.07 11.71-16.71c0 0 3.71.46 5.34 3.95 0 0-7.21 23.44-13.7 31.8l-3.35-19.03Z" fill="none" stroke="#8f6000" stroke-width=".64"/><path d="M249.95 262.27s.7-7.43 3.95-13 14.16-14.62 14.16-14.62l12.3 5.11s4.87 8.59 6.27 20.19l2.09-1.03s-.75 7.3.09 19.6.84 26.18-8.68 40.13c-9.52 13.95-31.8 36.93-37.14 45.52l-2.32-70.56 9.28-31.33Z" fill="#342825"/><path d="M249.95 262.27s.7-7.43 3.95-13 14.16-14.62 14.16-14.62l12.3 5.11s4.87 8.59 6.27 20.19l2.09-1.03s-.75 7.3.09 19.6.84 26.18-8.68 40.13c-9.52 13.95-31.8 36.93-37.14 45.52l-2.32-70.56 9.28-31.33Z" fill="none" stroke="#8f6000" stroke-width=".64"/><path d="M256.73 227.31s.37-1.39 2.32-1.86l-1.63-9.66 2.47-4.85 9.84-4.34s3.21 0 5.2 2.51c1.99 2.51 2.6 4.81 2.92 6.03 0 0 3.61 5.06 4.38 10.19l-.67 6.24-6.17 3.8-7.71-2.86h-4.45c-1.64 0-4.84-2.04-6.51-5.2Z" fill="#d6721d"/><path d="M256.73 227.31s.37-1.39 2.32-1.86l-1.63-9.66 2.47-4.85 9.84-4.34s3.21 0 5.2 2.51c1.99 2.51 2.6 4.81 2.92 6.03 0 0 3.61 5.06 4.38 10.19l-.67 6.24-6.17 3.8-7.71-2.86h-4.45c-1.64 0-4.84-2.04-6.51-5.2Z" fill="none" stroke="#8f6000" stroke-width=".64"/><path d="M261.83 221.74c-1.48-2.44-3.9-5.64-2.51-7.99 1.39-2.35 2.03-1.66 3.2-1.66s5.07-.85 6.55-2.8c1.49-1.95 2.04-2.51 3.43-1.58 1.39.93 1.95 2.14 3.06 2.6 0 0-.09-1.65-1.67-2.79-1.58-1.13-4.36-3.25-6.68-3.34-2.32-.09-7.22.49-9.85 3.16-2.62 2.67-2.04 4.46-2.62 7.15-.59 2.69-1.18 5.94.86 8.08 2.04 2.14 3.62 2.73 4.83 4.62 1.21 1.88 2.78 2.51 3.62 4.38.84 1.86 1.95 3.53 4.27 4.65 2.32 1.12 7.08 1.51 8.58 1.58 1.5.07 1.35 3.03 3.02 2.48 1.67-.55 1.05-2.6 2.29-4.91s2.27-5.65 1.24-7.04c-1.03-1.39-2.5-3.34-4.45-2.88-1.95.46-4.46 2.12-5.2 4.35-.74 2.24-2.72 3.53-3.53 1.76-.81-1.76-2.02-2.13-3.7-2.41-1.68-.28-2.64-1.3-3.35-3.71s-1.4-3.71-1.4-3.71Z" fill="#4c4956"/><path d="M261.83 221.74c-1.48-2.44-3.9-5.64-2.51-7.99 1.39-2.35 2.03-1.66 3.2-1.66s5.07-.85 6.55-2.8c1.49-1.95 2.04-2.51 3.43-1.58 1.39.93 1.95 2.14 3.06 2.6 0 0-.09-1.65-1.67-2.79-1.58-1.13-4.36-3.25-6.68-3.34-2.32-.09-7.22.49-9.85 3.16-2.62 2.67-2.04 4.46-2.62 7.15-.59 2.69-1.18 5.94.86 8.08 2.04 2.14 3.62 2.73 4.83 4.62 1.21 1.88 2.78 2.51 3.62 4.38.84 1.86 1.95 3.53 4.27 4.65 2.32 1.12 7.08 1.51 8.58 1.58 1.5.07 1.35 3.03 3.02 2.48 1.67-.55 1.05-2.6 2.29-4.91s2.27-5.65 1.24-7.04c-1.03-1.39-2.5-3.34-4.45-2.88-1.95.46-4.46 2.12-5.2 4.35-.74 2.24-2.72 3.53-3.53 1.76-.81-1.76-2.02-2.13-3.7-2.41-1.68-.28-2.64-1.3-3.35-3.71s-1.4-3.71-1.4-3.71Zm233.68 132.13" fill="none" stroke="#8f6000" stroke-width=".64"/><path d="m445.15 336.67 1.2-9.95s-7.1-1.74-12.28-4.64c0 0-.41 1.65 2.37 4.18 2.78 2.53 3.76 2.98 3.76 2.98v6.05l4.94 1.39Z" fill="#3c1028"/><path d="m445.15 336.67 1.2-9.95s-7.1-1.74-12.28-4.64c0 0-.41 1.65 2.37 4.18 2.78 2.53 3.76 2.98 3.76 2.98v6.05l4.94 1.39Z" fill="none" stroke="#8f6000" stroke-width=".64"/><path fill="#3c1028" d="m466.61 345.74 3.25-3.82-5.88-6.27-.73 1.28 1.39 7.42 1.97 1.39z"/><path fill="none" stroke="#8f6000" stroke-width=".64" d="m466.61 345.74 3.25-3.82-5.88-6.27-.73 1.28 1.39 7.42 1.97 1.39z"/><g clip-path="url(#c)"><path d="M466.73 478.74s-4.41-14.6-4.41-38.53c0 0-.23-3.48-8.12-26-7.89-22.51-14.85-28.68-14.16-49.62.7-20.94-.02-31.07-.02-31.07s12.55.39 28.57 11.53c0 0 1.39 9.84-4.64 25.53 0 0 3.02 15.31 10.44 19.14l6.27 16.33-1.86 94.97-12.07-22.28Z" fill="#af601d"/><path d="M466.73 478.74s-4.41-14.6-4.41-38.53c0 0-.23-3.48-8.12-26-7.89-22.51-14.85-28.68-14.16-49.62.7-20.94-.02-31.07-.02-31.07s12.55.39 28.57 11.53c0 0 1.39 9.84-4.64 25.53 0 0 3.02 15.31 10.44 19.14l6.27 16.33-1.86 94.97-12.07-22.28Z" fill="none" stroke="#8f6000" stroke-width=".64"/><path d="M485.3 503.35s-8.59-8.1-11.84-16.48-6.37-18.57-4.23-34.82c2.14-16.25 4.06-25.11 5.85-36.67 1.8-11.56 3.59-21.03 1.8-25.96-1.8-4.94-2.49-11.41-2.49-11.41l3.95-.02s7.43 5.62 9.52 18.82 2.79 13.23 2.55 27.85c-.23 14.62 3.71 21.82 6.73 29.71 3.02 7.89 4.18 14.62 4.18 14.62l1.16 11.84-1.62 12.07-10.21 9.98-5.34.46Z" fill="#513171"/><path d="M485.3 503.35s-8.59-8.1-11.84-16.48-6.37-18.57-4.23-34.82c2.14-16.25 4.06-25.11 5.85-36.67 1.8-11.56 3.59-21.03 1.8-25.96-1.8-4.94-2.49-11.41-2.49-11.41l3.95-.02s7.43 5.62 9.52 18.82 2.79 13.23 2.55 27.85c-.23 14.62 3.71 21.82 6.73 29.71 3.02 7.89 4.18 14.62 4.18 14.62l1.16 11.84-1.62 12.07-10.21 9.98-5.34.46Z" fill="none" stroke="#8f6000" stroke-width=".64"/></g><path d="M212.32 272.64s-1.66-13.44 1.59-17.64c3.25-4.2 7.43-7.38 7.43-7.38l9.55.88 9.01.7 11.14 10.84-6.73 43.7-9.52 18.57-10.21-5.8-11.14-14.62-1.12-29.25Z" fill="#be3234"/><path d="M212.32 272.64s-1.66-13.44 1.59-17.64c3.25-4.2 7.43-7.38 7.43-7.38l9.55.88 9.01.7 11.14 10.84-6.73 43.7-9.52 18.57-10.21-5.8-11.14-14.62-1.12-29.25Z" fill="none" stroke="#8f6000" stroke-width=".64"/><path d="M258.8 242.22s1.03-4.02 2.32-6.25c1.29-2.23 1.28-3.62 2.27-3.16.98.46.05 3.99-.46 5.76-.51 1.76-.51 3.65-.51 3.65s4.56-2.22 7.07-4.05c2.51-1.83 5.94-3.97 6.96-2.95 1.02 1.02.14 1.64.14 1.64s.92-.66 1.81 0 .12 1.88.12 1.88l-9.7 5.66-6.95 4.99-4.46.68 1.39-7.86Z" fill="#d6721d"/><path d="M258.8 242.22s1.03-4.02 2.32-6.25c1.29-2.23 1.28-3.62 2.27-3.16.98.46.05 3.99-.46 5.76-.51 1.76-.51 3.65-.51 3.65s4.56-2.22 7.07-4.05c2.51-1.83 5.94-3.97 6.96-2.95 1.02 1.02.14 1.64.14 1.64s.92-.66 1.81 0 .12 1.88.12 1.88l-9.7 5.66-6.95 4.99-4.46.68 1.39-7.86Z" fill="none" stroke="#8f6000" stroke-width=".64"/><path d="M255.83 254.26s.26-3.96 1.52-7.52c1.26-3.56 1.82-8.57 3.02-8.57s0 6.89 0 6.89 2.6.39 6.68-1.89c4.09-2.29 6.13-3.95 7.52-5.21 1.39-1.26 2.23-.93 2.51-.54.28.39-.19 1.77-.19 1.77s1.3-.9 1.95.21-.37 2.82-.37 2.82.54.49-.24 1.92c0 0 .61.88-1.15 2.48-1.76 1.6-4.6 3.46-9.64 4.85 0 0-2.15 2.23-5.59 3.9l-.8 3.53-5.24-4.64Z" fill="#d6721d"/><path d="M255.83 254.26s.26-3.96 1.52-7.52c1.26-3.56 1.82-8.57 3.02-8.57s0 6.89 0 6.89 2.6.39 6.68-1.89c4.09-2.29 6.13-3.95 7.52-5.21 1.39-1.26 2.23-.93 2.51-.54.28.39-.19 1.77-.19 1.77s1.3-.9 1.95.21-.37 2.82-.37 2.82.54.49-.24 1.92c0 0 .61.88-1.15 2.48-1.76 1.6-4.6 3.46-9.64 4.85 0 0-2.15 2.23-5.59 3.9l-.8 3.53-5.24-4.64Z" fill="none" stroke="#8f6000" stroke-width=".64"/><path d="M250.12 261.69s-3.91 14.84-3.91 25.31c0 0 1.63 2.23 4.11-1.14 2.47-3.37 9.96-16.92 11.87-28.55l-7.54-5.01-4.53 9.38Z" fill="#90551d"/><path d="M250.12 261.69s-3.91 14.84-3.91 25.31c0 0 1.63 2.23 4.11-1.14 2.47-3.37 9.96-16.92 11.87-28.55l-7.54-5.01-4.53 9.38Z" fill="none" stroke="#8f6000" stroke-width=".64"/><path d="M239.55 240.26s.35-4.18-2.67-8.24c-3.02-4.06-7.19-6.76-7.19-6.76l-3.25-3.46-8.47 2.9-2.32 6.84.46 5.87 10.91 8.53 9.86.16 2.67-5.85Z" fill="#d6721d"/><path d="M239.55 240.26s.35-4.18-2.67-8.24c-3.02-4.06-7.19-6.76-7.19-6.76l-3.25-3.46-8.47 2.9-2.32 6.84.46 5.87 10.91 8.53 9.86.16 2.67-5.85Z" fill="none" stroke="#8f6000" stroke-width=".64"/><path d="M235.12 237.17s1.11-1.3 2.88-1.49c1.77-.19 2.71.21 1.77 2.01v1.71s3.41-.24 4.82 2.57c1.41 2.81-.65 5.04-.65 7.73s-.05 2.3-.05 2.3-.78-5.38-2.92-3.53c-2.14 1.85 1.67 2.16 1.21 4.48-.46 2.32-2.05 2.51-2.05 2.51s-1.2 1.61-2.22.2c-1.02-1.41-1.67-2.55-1.67-2.55s-2.32.57-5.2-1.11c0 0-4.92.23-6.78-5.18l-2.65-2.04s-2.64-1.14-5.33-3.37c-2.69-2.23-2.04-4.25-2.04-4.25s-3.43-1.77-3.53-5.62 1.58-8.22 4.74-9.98c3.15-1.76 7.98-2.22 9.65-1.57 1.67.65 2.04 1.98.56 3.16-1.49 1.18-5.9 3.81-5.9 3.81s.29 2.57-2.64 5.55c0 0 1.21 1.82.37 3.89 0 0 1.95-.69 3.81 2.16s2.22 4.18 4.27 4.08c1.93-.09 4.33.38 4.62 2.23.02.12.03.24.03.37 0 2.16.6-1.26 1.28-3.83.67-2.58 1.51-3.44 3.65-4.25Z" fill="#907767"/><path d="M235.12 237.17s1.11-1.3 2.88-1.49c1.77-.19 2.71.21 1.77 2.01v1.71s3.41-.24 4.82 2.57c1.41 2.81-.65 5.04-.65 7.73s-.05 2.3-.05 2.3-.78-5.38-2.92-3.53c-2.14 1.85 1.67 2.16 1.21 4.48-.46 2.32-2.05 2.51-2.05 2.51s-1.2 1.61-2.22.2c-1.02-1.41-1.67-2.55-1.67-2.55s-2.32.57-5.2-1.11c0 0-4.92.23-6.78-5.18l-2.65-2.04s-2.64-1.14-5.33-3.37c-2.69-2.23-2.04-4.25-2.04-4.25s-3.43-1.77-3.53-5.62 1.58-8.22 4.74-9.98c3.15-1.76 7.98-2.22 9.65-1.57 1.67.65 2.04 1.98.56 3.16-1.49 1.18-5.9 3.81-5.9 3.81s.29 2.57-2.64 5.55c0 0 1.21 1.82.37 3.89 0 0 1.95-.69 3.81 2.16s2.22 4.18 4.27 4.08c1.93-.09 4.33.38 4.62 2.23.02.12.03.24.03.37 0 2.16.6-1.26 1.28-3.83.67-2.58 1.51-3.44 3.65-4.25Z" fill="none" stroke="#8f6000" stroke-width=".64"/><g clip-path="url(#d)"><path d="M192.44 418.87s-3.95 6.76-4.99 10.79c-1.04 4.04-1.16 7.14-3.13 8.68l2.32-2.06 1.92.35v6.15l-1.69 2.53-.23 8.38 1.92 3.02-3.55 3.46-.08 4.09 5.57 1.74s9.25-3.33 15.16-8.15c5.92-4.82 6.35-6.13 9.29-4.39 0 0 1.39-.23 1.62-2.9 0 0 5.34 1.04 8.59-3.25s4.06-6.37 7.89-12.65 4.02-7.4 4.41-11.14c.39-3.74 2.63-3.48 5.49-9.28 2.86-5.8 3.6-25.13 2.51-35.74-1.08-10.62-20.66-21.59-20.66-21.59l-19.5 19.27-12.88 42.71Z" fill="#90551d"/><path d="M192.44 418.87s-3.95 6.76-4.99 10.79c-1.04 4.04-1.16 7.14-3.13 8.68l2.32-2.06 1.92.35v6.15l-1.69 2.53-.23 8.38 1.92 3.02-3.55 3.46-.08 4.09 5.57 1.74s9.25-3.33 15.16-8.15c5.92-4.82 6.35-6.13 9.29-4.39 0 0 1.39-.23 1.62-2.9 0 0 5.34 1.04 8.59-3.25s4.06-6.37 7.89-12.65 4.02-7.4 4.41-11.14c.39-3.74 2.63-3.48 5.49-9.28 2.86-5.8 3.6-25.13 2.51-35.74-1.08-10.62-20.66-21.59-20.66-21.59l-19.5 19.27-12.88 42.71Z" fill="none" stroke="#8f6000" stroke-width=".64"/></g><path d="m230.89 322.59 6-12.35s3.23 1.72 5.79 3.95c2.56 2.23 1.68 9.7-1.36 15.99-3.04 6.29-9.12 11.6-17.2 14.39l6.77-21.97Z" fill="#90551d"/><path d="m230.89 322.59 6-12.35s3.23 1.72 5.79 3.95c2.56 2.23 1.68 9.7-1.36 15.99-3.04 6.29-9.12 11.6-17.2 14.39l6.77-21.97Z" fill="none" stroke="#8f6000" stroke-width=".64"/><path d="M236.14 308.66s-.15-1.46-.15-4.95 1.08-5.18 1.35-6.95c.27-1.77 0-2.68.74-2.68s1.67 1.53 1.21 3.5c-.46 1.97-.28 4.57-.28 4.57s2.51-.74 4.46-2.79c1.95-2.04 3.67-2.93 5.32-4.71 1.65-1.79 3.13-3.04 3.97-2.32.84.72.3 1.72-1.5 3.48-1.8 1.77-3.42 3.27-3.42 3.27s3.44-2.72 5.01-4.1c1.58-1.38 2.86-2.55 3.8-1.96.94.58.11 1.62.11 1.62s1.01.38.92 1.65c0 0 1.16.83.21 2.23-.95 1.39-3.33 3.43-3.33 3.43l-13.24 10.21s-4.17-.93-5.18-3.53Z" fill="#d6721d"/><path d="M236.14 308.66s-.15-1.46-.15-4.95 1.08-5.18 1.35-6.95c.27-1.77 0-2.68.74-2.68s1.67 1.53 1.21 3.5c-.46 1.97-.28 4.57-.28 4.57s2.51-.74 4.46-2.79c1.95-2.04 3.67-2.93 5.32-4.71 1.65-1.79 3.13-3.04 3.97-2.32.84.72.3 1.72-1.5 3.48-1.8 1.77-3.42 3.27-3.42 3.27s3.44-2.72 5.01-4.1c1.58-1.38 2.86-2.55 3.8-1.96.94.58.11 1.62.11 1.62s1.01.38.92 1.65c0 0 1.16.83.21 2.23-.95 1.39-3.33 3.43-3.33 3.43l-13.24 10.21s-4.17-.93-5.18-3.53Z" fill="none" stroke="#8f6000" stroke-width=".64"/><path d="M236.89 311.54s-.13 1.6 1.58 3.16c1.71 1.55 4.55.62 4.55.62l.56-.81s3.06-1.58 6.13-3.99c3.06-2.41 4.92-4.55 5.76-5.57.84-1.02-.09-1.23-.09-1.23s.46-.53.65-1.37c.19-.84-.28-1.12-.28-1.12s.74-1.21.09-1.76c-.65-.56-1.5-.4-2.65.3 0 0 .7-1.44 0-1.85-.7-.4-1.52.09-3.75 2.01-2.23 1.92-5.03 3.43-6.74 3.9-1.71.46-2.17.93-2.17.93l.28-2.69c.19-1.84-.28-2.65-.93-2.77-.65-.11-.93.82-1.49 3.32-.56 2.51-.09 4.46-.37 6.04s-1.11 2.88-1.11 2.88Z" fill="#d6721d"/><path d="M236.89 311.54s-.13 1.6 1.58 3.16c1.71 1.55 4.55.62 4.55.62l.56-.81s3.06-1.58 6.13-3.99c3.06-2.41 4.92-4.55 5.76-5.57.84-1.02-.09-1.23-.09-1.23s.46-.53.65-1.37c.19-.84-.28-1.12-.28-1.12s.74-1.21.09-1.76c-.65-.56-1.5-.4-2.65.3 0 0 .7-1.44 0-1.85-.7-.4-1.52.09-3.75 2.01-2.23 1.92-5.03 3.43-6.74 3.9-1.71.46-2.17.93-2.17.93l.28-2.69c.19-1.84-.28-2.65-.93-2.77-.65-.11-.93.82-1.49 3.32-.56 2.51-.09 4.46-.37 6.04s-1.11 2.88-1.11 2.88Z" fill="none" stroke="#8f6000" stroke-width=".64"/><g clip-path="url(#e)"><path d="M209.73 298.15s-17.18 7.92-19.5 30.43c-2.32 22.51 2.78 29.71 2.78 29.71s-6.26 10.16-3.59 27.13 3.13 25.79 2.2 31.36c-.93 5.57 3.71 11.57 7.56 5.8 3.85-5.77 3.81-8.59 3.81-8.59s.46 2.79-.23 6.96c-.7 4.18-.46 6.96 2.32 7.2 2.79.23 4.73-2.32 4.73-2.32s5.02 4.64 8.04-2.09c3.02-6.73 5.8-15.09 6.96-29.01 1.16-13.93-.46-25.05-.46-25.05l5.11-2.8 16.48 24.21s3.25-37.9 2.55-48.12c-.7-10.21-4.82-22.28-4.82-22.28s-1.68 15.11-16.31 21.35c0 0 4.96-15.78 5.84-22.98 0 0-7.93.03-7.93-13.23l-9.29-5.57-6.27-2.11Z" fill="#342825"/><path d="M209.73 298.15s-17.18 7.92-19.5 30.43c-2.32 22.51 2.78 29.71 2.78 29.71s-6.26 10.16-3.59 27.13 3.13 25.79 2.2 31.36c-.93 5.57 3.71 11.57 7.56 5.8 3.85-5.77 3.81-8.59 3.81-8.59s.46 2.79-.23 6.96c-.7 4.18-.46 6.96 2.32 7.2 2.79.23 4.73-2.32 4.73-2.32s5.02 4.64 8.04-2.09c3.02-6.73 5.8-15.09 6.96-29.01 1.16-13.93-.46-25.05-.46-25.05l5.11-2.8 16.48 24.21s3.25-37.9 2.55-48.12c-.7-10.21-4.82-22.28-4.82-22.28s-1.68 15.11-16.31 21.35c0 0 4.96-15.78 5.84-22.98 0 0-7.93.03-7.93-13.23l-9.29-5.57-6.27-2.11Z" fill="none" stroke="#8f6000" stroke-width=".64"/></g><path d="M228.76 290.98s-1.39-5.97-4.18-10.01c-2.78-4.04-2.98-5.43-3.91-7.05-.93-1.63-2.43-4.64-6.31-3.95l-10.1 5.11 3.02 13.46 9.98 8.23 9.44-1.77 2.05-4.03Z" fill="#d6721d"/><path d="M228.76 290.98s-1.39-5.97-4.18-10.01c-2.78-4.04-2.98-5.43-3.91-7.05-.93-1.63-2.43-4.64-6.31-3.95l-10.1 5.11 3.02 13.46 9.98 8.23 9.44-1.77 2.05-4.03Z" fill="none" stroke="#8f6000" stroke-width=".64"/><path d="M221.14 275.86s-.3-3.46-2.47-5.31c-2.17-1.86-7.32-3.37-10.69-1.97-3.37 1.39-7.78 3.77-8.12 10.1-.35 6.33 1.32 9.49 3.17 11.37 1.86 1.88 3.7 5.58 7.46 6.15 3.76.57 3.04 3.82 6.01 5.97 2.97 2.15 5.76 5.04 11.1 4.52 0 0 .78-.96 1.37-4.52.6-3.56 1.42-7.3.71-9.6-.71-2.29-2.7-5.18-4.29-5.18s-3.65-.53-5.18 1.47c-1.54 2-2.13 8.13-2.13 8.13s-1.86-1.4-3.19-3.23c-1.33-1.83-4.35-2.76-5.51-4.29-1.16-1.53-1.08-3.35-2.55-6.14-1.47-2.79-2.01-4.77-1.04-6.51.97-1.74 3.81-2.14 5.91-2.81 2.1-.67 2.68-1.87 3.75-3.11 1.07-1.23 3.92 1.04 5.7 4.96Z" fill="#731933"/><path d="M221.14 275.86s-.3-3.46-2.47-5.31c-2.17-1.86-7.32-3.37-10.69-1.97-3.37 1.39-7.78 3.77-8.12 10.1-.35 6.33 1.32 9.49 3.17 11.37 1.86 1.88 3.7 5.58 7.46 6.15 3.76.57 3.04 3.82 6.01 5.97 2.97 2.15 5.76 5.04 11.1 4.52 0 0 .78-.96 1.37-4.52.6-3.56 1.42-7.3.71-9.6-.71-2.29-2.7-5.18-4.29-5.18s-3.65-.53-5.18 1.47c-1.54 2-2.13 8.13-2.13 8.13s-1.86-1.4-3.19-3.23c-1.33-1.83-4.35-2.76-5.51-4.29-1.16-1.53-1.08-3.35-2.55-6.14-1.47-2.79-2.01-4.77-1.04-6.51.97-1.74 3.81-2.14 5.91-2.81 2.1-.67 2.68-1.87 3.75-3.11 1.07-1.23 3.92 1.04 5.7 4.96Z" fill="none" stroke="#8f6000" stroke-width=".64"/><path d="M158.9 343.07s1.86 2.32 4.64 5.57c2.79 3.25 4.18 4.56 4.41 7.27.23 2.71 1 4.34 1.9 5.26.89.93 1.17 6.73.66 6.73s-6.73.93-6.73.93l-6.96.2-7.43-6.93-6.27-9.05 2.32-6.76 6.04-5.08 7.43 1.86Z" fill="#d6721d"/><path d="M158.9 343.07s1.86 2.32 4.64 5.57c2.79 3.25 4.18 4.56 4.41 7.27.23 2.71 1 4.34 1.9 5.26.89.93 1.17 6.73.66 6.73s-6.73.93-6.73.93l-6.96.2-7.43-6.93-6.27-9.05 2.32-6.76 6.04-5.08 7.43 1.86Z" fill="none" stroke="#8f6000" stroke-width=".64"/><path d="M179.01 374.85s-1.95-2.62-1.02-6.5c.93-3.87.7-5.27 1.18-6.75.49-1.49.76-2.07.76-2.07s2 .58 1.76 2.9.22 4.69.22 4.69.89-.68 3.03-1.82c2.14-1.14 3.34-1.95 6.03-4.18 2.69-2.23 3.48-3.62 4.4-4.18.93-.56 2.23 0 1.17 1.67s-4.34 5.48-6.78 7.43c0 0 3.95-2.04 5.94-3.71 1.99-1.67 3.25-2.69 3.71-1.86.46.83.28 1.58-.56 2.78 0 0 .93-.09 1.3.93s-2.41 3.06-2.41 3.06 1.11-.61 1.58.16c.46.77-1.62 2.14-2.79 2.93s-6.36 4.25-6.36 4.25l-8.12 4.08-3.06-3.83Z" fill="#d6721d"/><path d="M179.01 374.85s-1.95-2.62-1.02-6.5c.93-3.87.7-5.27 1.18-6.75.49-1.49.76-2.07.76-2.07s2 .58 1.76 2.9.22 4.69.22 4.69.89-.68 3.03-1.82c2.14-1.14 3.34-1.95 6.03-4.18 2.69-2.23 3.48-3.62 4.4-4.18.93-.56 2.23 0 1.17 1.67s-4.34 5.48-6.78 7.43c0 0 3.95-2.04 5.94-3.71 1.99-1.67 3.25-2.69 3.71-1.86.46.83.28 1.58-.56 2.78 0 0 .93-.09 1.3.93s-2.41 3.06-2.41 3.06 1.11-.61 1.58.16c.46.77-1.62 2.14-2.79 2.93s-6.36 4.25-6.36 4.25l-8.12 4.08-3.06-3.83Z" fill="none" stroke="#8f6000" stroke-width=".64"/><path d="M175.57 386.01s-.46-2.51.84-6.03c1.3-3.53 2.47-6.13 3.06-7.71.6-1.58 1.67-3.03 1.67-3.03s1.21 1.2 1.02 2.47c-.19 1.27-.74 1.58-.93 3.9 0 0 2.1-.42 4.58-1.7 2.48-1.27 3.5-1.58 4.8-2.57 1.3-1 2.04-.65 2.32-.18.28.46-.41 1.48-1.58 2.51 0 0 1-.28 1.85-.83s1.78-.19 1.87.28c.09.46.26 1.16-.15 1.74 0 0 .52.38-.13 1.51 0 0 .26.74-.8 2.04s-2.73 2.7-6.26 4.27c0 0-1.78 1.37-4.42 3.38-2.64 2.01-4.64 3.68-4.64 3.68l-2.54 3.62-2.4-4.27 1.85-3.06Z" fill="#d6721d"/><path d="M175.57 386.01s-.46-2.51.84-6.03c1.3-3.53 2.47-6.13 3.06-7.71.6-1.58 1.67-3.03 1.67-3.03s1.21 1.2 1.02 2.47c-.19 1.27-.74 1.58-.93 3.9 0 0 2.1-.42 4.58-1.7 2.48-1.27 3.5-1.58 4.8-2.57 1.3-1 2.04-.65 2.32-.18.28.46-.41 1.48-1.58 2.51 0 0 1-.28 1.85-.83s1.78-.19 1.87.28c.09.46.26 1.16-.15 1.74 0 0 .52.38-.13 1.51 0 0 .26.74-.8 2.04s-2.73 2.7-6.26 4.27c0 0-1.78 1.37-4.42 3.38-2.64 2.01-4.64 3.68-4.64 3.68l-2.54 3.62-2.4-4.27 1.85-3.06Z" fill="none" stroke="#8f6000" stroke-width=".64"/><g clip-path="url(#f)"><path d="M182.55 454.72s.69 10.68-7.16 17.18c0 0-.7 13.46-2.09 18.1-1.39 4.64-1.59 4.87-.2 6.73 1.4 1.86-.27 2.09-2.12 2.09s-2.09 1.34-6.96 1.37c0 0-3.48 4.67-6.96 8.15-3.48 3.48-5.57 3.25-5.57 3.25s-.7 2.32-3.48 3.71c-2.79 1.39-2.79 4.18-5.8 4.87-3.02.7-4.64 2.09-12.3 1.39l-.23-12.53-7.66-16.71 7.2-23.21 33.65-42.86 8.36 8.49 7.66 12.09 3.68 7.89Z" fill="#75905c"/><path d="M182.55 454.72s.69 10.68-7.16 17.18c0 0-.7 13.46-2.09 18.1-1.39 4.64-1.59 4.87-.2 6.73 1.4 1.86-.27 2.09-2.12 2.09s-2.09 1.34-6.96 1.37c0 0-3.48 4.67-6.96 8.15-3.48 3.48-5.57 3.25-5.57 3.25s-.7 2.32-3.48 3.71c-2.79 1.39-2.79 4.18-5.8 4.87-3.02.7-4.64 2.09-12.3 1.39l-.23-12.53-7.66-16.71 7.2-23.21 33.65-42.86 8.36 8.49 7.66 12.09 3.68 7.89Z" fill="none" stroke="#8f6000" stroke-width=".64"/><path d="M149.62 366.98s-3.13 1.74-4.18 3.37l-1.74.11v3.26l-2.32 1.63-3.02-.7-.93 3.37s-5.11 4.76-7.19 15.73c-2.09 10.97-2.01 14.18-4.02 17.12 0 0 2.05 2.52.43 13.2-1.62 10.69-3.71 16.98-6.73 34.15-3.02 17.17-3.25 30.4-2.09 37.6 0 0 5.34 1.16 12.3-8.36 6.96-9.52 13.46-14.62 20.89-25.53 7.43-10.91 11.68-19.76 14.2-27.17 0 0 1.12 6.08 8.09 11.39 6.96 5.31 7.69 10.44 8.59 14.16.9 3.71.2 3.71.2 3.71s2.29-12.97.46-24.14c-1.82-11.17-1.41-24.75-3.21-36.67-1.8-11.92-9.98-31.33-9.98-31.33l-8.12 1.09-8.95-4.01-2.65-1.96Z" fill="#342825"/><path d="M149.62 366.98s-3.13 1.74-4.18 3.37l-1.74.11v3.26l-2.32 1.63-3.02-.7-.93 3.37s-5.11 4.76-7.19 15.73c-2.09 10.97-2.01 14.18-4.02 17.12 0 0 2.05 2.52.43 13.2-1.62 10.69-3.71 16.98-6.73 34.15-3.02 17.17-3.25 30.4-2.09 37.6 0 0 5.34 1.16 12.3-8.36 6.96-9.52 13.46-14.62 20.89-25.53 7.43-10.91 11.68-19.76 14.2-27.17 0 0 1.12 6.08 8.09 11.39 6.96 5.31 7.69 10.44 8.59 14.16.9 3.71.2 3.71.2 3.71s2.29-12.97.46-24.14c-1.82-11.17-1.41-24.75-3.21-36.67-1.8-11.92-9.98-31.33-9.98-31.33l-8.12 1.09-8.95-4.01-2.65-1.96Z" fill="none" stroke="#8f6000" stroke-width=".64"/></g><path d="M146.49 348.39c-.16-1.32 2.79-.9 3.94-2.29 1.16-1.39 1.47-1.97 3.71-1.86 2.24.12 5.65.12 5.57-2.09 0 0 1.51.41 2.79 2.06 1.28 1.65 1.78 3.71 1.78 3.71s1.08-3.42-1.55-6.05-6.42-3.91-8.2-3.79c-1.78.12-2.13.12-2.13.12l-.12-1.62s-2.44 1.34-3.25 3.46c0 0-2.86.26-5.65 3.39-2.79 3.13-5.03 7.03-2.59 11.7 2.44 4.66.58 4.61 2.67 6.73 2.09 2.11 5.11 6.12 7.54 6.76 0 0 0 1.34 3.25 4.39 3.25 3.04 5.22 3.51 4.64 4.67-.58 1.16-.46 2.58.93 3.36 1.39.79.66 1.28 1.86 1.97 1.2.7 1.74.58 1.86 1.74.12 1.16 2.09 1.97 2.09 1.97s-1.01 1.16.08 1.86c1.08.7 2.01 1.39 1.89 2.44 0 0 1.93-.46 1.78-2.55 0 0 2.63-.5 3.44 1.16 0 0 1.41-2.55.18-3.83-1.23-1.28.36-3.37-.84-4.76-1.21-1.39 1.01-2.32.08-3.71-.93-1.39-.36-2.87-1.28-4.29s1.05-3.07.93-5.6-.53-7.12-3.91-7.68c-3.38-.56-5.52-.42-7.56 1.65s-2.79 4.76-2.79 4.76.24-1.32-3.06-1.86c0 0-.37-1.39-2.41-2.32-2.04-.93-3.25-2.28-3.62-4.3-.37-2.02-1.76-3.65-2.23-4.64-.46-1 .46-2.11.16-4.64Z" fill="#907767"/><path d="M146.49 348.39c-.16-1.32 2.79-.9 3.94-2.29 1.16-1.39 1.47-1.97 3.71-1.86 2.24.12 5.65.12 5.57-2.09 0 0 1.51.41 2.79 2.06 1.28 1.65 1.78 3.71 1.78 3.71s1.08-3.42-1.55-6.05-6.42-3.91-8.2-3.79c-1.78.12-2.13.12-2.13.12l-.12-1.62s-2.44 1.34-3.25 3.46c0 0-2.86.26-5.65 3.39-2.79 3.13-5.03 7.03-2.59 11.7 2.44 4.66.58 4.61 2.67 6.73 2.09 2.11 5.11 6.12 7.54 6.76 0 0 0 1.34 3.25 4.39 3.25 3.04 5.22 3.51 4.64 4.67-.58 1.16-.46 2.58.93 3.36 1.39.79.66 1.28 1.86 1.97 1.2.7 1.74.58 1.86 1.74.12 1.16 2.09 1.97 2.09 1.97s-1.01 1.16.08 1.86c1.08.7 2.01 1.39 1.89 2.44 0 0 1.93-.46 1.78-2.55 0 0 2.63-.5 3.44 1.16 0 0 1.41-2.55.18-3.83-1.23-1.28.36-3.37-.84-4.76-1.21-1.39 1.01-2.32.08-3.71-.93-1.39-.36-2.87-1.28-4.29s1.05-3.07.93-5.6-.53-7.12-3.91-7.68c-3.38-.56-5.52-.42-7.56 1.65s-2.79 4.76-2.79 4.76.24-1.32-3.06-1.86c0 0-.37-1.39-2.41-2.32-2.04-.93-3.25-2.28-3.62-4.3-.37-2.02-1.76-3.65-2.23-4.64-.46-1 .46-2.11.16-4.64Z" fill="none" stroke="#8f6000" stroke-width=".64"/><g clip-path="url(#g)"><path d="m100.23 422.06 14.62 4.5s1.62 2.81 3.71 6.48c2.09 3.67 2.55 4.37 2.55 4.37l1.16-3.02 4.95 5.8.62 6.27 3.02 5.57-1.82 22.74s.43 2.82-5.38 15.1c-5.8 12.28-7.2 17.62-13.46 25.05 0 0 1.27 4.69 3.82 8.94.12.19.23.39.36.58l-8.36 5.34-7.66 15.32-6.27 10.68s1.39-4.93.7-13.02c-.7-8.1-.23-19.47-.23-19.47s-5.8-13.69-7.43-32.5c-1.62-18.8-3.97-35.09-2.09-46.42 1.89-11.33 5.11-12.1 9.17-16.27 4.06-4.18 8.01-6.04 8.01-6.04Z" fill="#342825"/><path d="m100.23 422.06 14.62 4.5s1.62 2.81 3.71 6.48c2.09 3.67 2.55 4.37 2.55 4.37l1.16-3.02 4.95 5.8.62 6.27 3.02 5.57-1.82 22.74s.43 2.82-5.38 15.1c-5.8 12.28-7.2 17.62-13.46 25.05 0 0 1.27 4.69 3.82 8.94.12.19.23.39.36.58l-8.36 5.34-7.66 15.32-6.27 10.68s1.39-4.93.7-13.02c-.7-8.1-.23-19.47-.23-19.47s-5.8-13.69-7.43-32.5c-1.62-18.8-3.97-35.09-2.09-46.42 1.89-11.33 5.11-12.1 9.17-16.27 4.06-4.18 8.01-6.04 8.01-6.04Z" fill="none" stroke="#8f6000" stroke-width=".64"/></g><path d="M116.2 420.97s3.06-3.62.83-8.63c-2.23-5.01-3.16-7.24-3.16-7.24s.46-3-.74-5.78c-1.21-2.79-.93-3.5-2.6-4.9-1.67-1.39-4.55-2.04-7.15-1.67-2.6.37-9.93 4.08-9.93 4.08l.19 6.87 1.3 6.31s-.97.4-1.69 1.11c-.72.72-.81 2.94.12 4.25.93 1.32 2.12 2.1 3.2 2.96 1.08.86 2.47 1.42 3.12.12.65-1.3 1.99-.74 1.99-.74l3.6 2.6 6.2 1.52 4.73-.87Z" fill="#d6721d"/><g clip-path="url(#h)"><path d="M116.2 420.97s3.06-3.62.83-8.63c-2.23-5.01-3.16-7.24-3.16-7.24s.46-3-.74-5.78c-1.21-2.79-.93-3.5-2.6-4.9-1.67-1.39-4.55-2.04-7.15-1.67-2.6.37-9.93 4.08-9.93 4.08l.19 6.87 1.3 6.31s-.97.4-1.69 1.11c-.72.72-.81 2.94.12 4.25.93 1.32 2.12 2.1 3.2 2.96 1.08.86 2.47 1.42 3.12.12.65-1.3 1.99-.74 1.99-.74l3.6 2.6 6.2 1.52 4.73-.87Z" fill="none" stroke="#8f6000" stroke-width=".64"/><path d="M99.8 416.88s-.73 1.7-.13 3.9.71 3.34 3.15 5.11c2.44 1.76 4.18 3.81 5.11 6.22.93 2.41 2.14 5.01 3.99 7.24 1.86 2.23 3.19 4.64 3.19 4.64s1.27-2.69.98-5.2c-.29-2.51-.38-3.13.25-3.9s.83-1.54.5-2.62c-.34-1.09.13-2.76-.1-4.62-.23-1.86-.1-1.95 0-3.62.1-1.67 0-2.62.75-4.27.74-1.65 1.86-3.16 1.21-4.92-.65-1.76-1.96-2.77-3.35-2.77s-4.43-.7-6.58 1.62c-2.16 2.32-2.88 4.18-2.88 4.18s0-1.18-1.39-2.11c-1.39-.93-3.57-.84-5.27-2.69-1.7-1.86-1.05-2.02-.77-3.25s.93-2.47-.09-3.79c-1.02-1.32-2.69-.58-3.81-1.78-1.11-1.21-1.14-4.11-.15-5.57.99-1.46 4.51-4.18 4.51-4.18s2.39 2.97 4.36 1.67c1.97-1.3 2.55-3.74 2.55-3.74s1.87-.09 3.02-.05c1.15.05 2.03-.95.69-1.69-1.34-.74-1.82-.93-1.86-1.95-.04-1.02-.6-2.41-1.8-1.02-1.21 1.39-1.76 1.86-1.76 1.86s-1.3-.37-1.67.74c0 0-3.53-.82-4.46 2.11 0 0-2.13.29-3.99 2.07-1.86 1.79-3.99 4.13-3.81 7.36.19 3.23.65 4.9 2.28 6.57 1.62 1.67 3.84 2.23 3.84 2.23s-.87 2.51.38 4.18 3.1 2.04 3.1 2.04Z" fill="#907767"/><path d="M99.8 416.88s-.73 1.7-.13 3.9.71 3.34 3.15 5.11c2.44 1.76 4.18 3.81 5.11 6.22.93 2.41 2.14 5.01 3.99 7.24 1.86 2.23 3.19 4.64 3.19 4.64s1.27-2.69.98-5.2c-.29-2.51-.38-3.13.25-3.9s.83-1.54.5-2.62c-.34-1.09.13-2.76-.1-4.62-.23-1.86-.1-1.95 0-3.62.1-1.67 0-2.62.75-4.27.74-1.65 1.86-3.16 1.21-4.92-.65-1.76-1.96-2.77-3.35-2.77s-4.43-.7-6.58 1.62c-2.16 2.32-2.88 4.18-2.88 4.18s0-1.18-1.39-2.11c-1.39-.93-3.57-.84-5.27-2.69-1.7-1.86-1.05-2.02-.77-3.25s.93-2.47-.09-3.79c-1.02-1.32-2.69-.58-3.81-1.78-1.11-1.21-1.14-4.11-.15-5.57.99-1.46 4.51-4.18 4.51-4.18s2.39 2.97 4.36 1.67c1.97-1.3 2.55-3.74 2.55-3.74s1.87-.09 3.02-.05c1.15.05 2.03-.95.69-1.69-1.34-.74-1.82-.93-1.86-1.95-.04-1.02-.6-2.41-1.8-1.02-1.21 1.39-1.76 1.86-1.76 1.86s-1.3-.37-1.67.74c0 0-3.53-.82-4.46 2.11 0 0-2.13.29-3.99 2.07-1.86 1.79-3.99 4.13-3.81 7.36.19 3.23.65 4.9 2.28 6.57 1.62 1.67 3.84 2.23 3.84 2.23s-.87 2.51.38 4.18 3.1 2.04 3.1 2.04Z" fill="none" stroke="#8f6000" stroke-width=".64"/><path d="M122.32 435.82s.37-3.53 1.76-6.31c1.39-2.79 2.2-3.53 3.14-5.94.94-2.41 1.22-2.41 1.22-2.41s1.21-.74 1.11 1.37c-.09 2.11-.18 1.79-.93 3.28-.74 1.49-.46 2.6-.46 2.6s1.6-.74 3.87-1.44c2.26-.7 3.28-.86 5.05-1.71 1.76-.85 3.99-2.73 4.83-1.8.84.93-.93 1.63-3.06 2.9-2.14 1.27-4.46 2.69-4.46 2.69s3.12-.65 5.85-2.09c2.73-1.44 3.99-2.65 4.83-2.55.84.09 1.02.79 1.02 1.67 0 0 .89-.14 1.21.37.32.51-1.02 1.95-1.02 1.95s.19.77-2.23 2.32c-2.41 1.55-4.27 2.04-7.06 3.9-2.79 1.86-7.43 2.76-7.43 2.76l-3.62 3.65-3.82-4.92" fill="#d6721d"/><path d="M122.32 435.82s.37-3.53 1.76-6.31c1.39-2.79 2.2-3.53 3.14-5.94.94-2.41 1.22-2.41 1.22-2.41s1.21-.74 1.11 1.37c-.09 2.11-.18 1.79-.93 3.28-.74 1.49-.46 2.6-.46 2.6s1.6-.74 3.87-1.44c2.26-.7 3.28-.86 5.05-1.71 1.76-.85 3.99-2.73 4.83-1.8.84.93-.93 1.63-3.06 2.9-2.14 1.27-4.46 2.69-4.46 2.69s3.12-.65 5.85-2.09c2.73-1.44 3.99-2.65 4.83-2.55.84.09 1.02.79 1.02 1.67 0 0 .89-.14 1.21.37.32.51-1.02 1.95-1.02 1.95s.19.77-2.23 2.32c-2.41 1.55-4.27 2.04-7.06 3.9-2.79 1.86-7.43 2.76-7.43 2.76l-3.62 3.65-3.82-4.92" fill="none" stroke="#8f6000" stroke-width=".64"/><path d="M80.96 423.94s3.42 3.36 5.13 9.05c1.72 5.69 4.39 9.63 4.39 9.63l2.32 51.99-12.07 6.5-18.45-22.05s-8.94-9.45-10.44-19.41c-1.51-9.95-1.55-17.61 1.51-23.07 3.06-5.45 6.85-8.7 12.88-11.14 6.03-2.44 14.74-1.51 14.74-1.51Z" fill="#58418c"/><path d="M80.96 423.94s3.42 3.36 5.13 9.05c1.72 5.69 4.39 9.63 4.39 9.63l2.32 51.99-12.07 6.5-18.45-22.05s-8.94-9.45-10.44-19.41c-1.51-9.95-1.55-17.61 1.51-23.07 3.06-5.45 6.85-8.7 12.88-11.14 6.03-2.44 14.74-1.51 14.74-1.51Z" fill="none" stroke="#8f6000" stroke-width=".64"/><path d="M81.93 425.45s2.4-9.84-3.17-11.72c0 0-.46-3.95-2.2-5.8 0 0 2.22-2.55-.15-6.27-2.37-3.71-3.37-6.44-6.54-6.44 0 0-1.43-.18-2.24-1.34-.81-1.16-4.41-1.02-7.31-.12-2.9.9-4.64 2.67-6.15 6.04-1.51 3.37-2 7.78-.19 10.68 1.81 2.9 3.9 3.71 3.9 3.71s-.93 1.48.58 3.98 3.6 3.22 3.6 3.22-.81 3.02 1.51 5.45c2.32 2.44 5.65 3.11 8.16 4.04 2.51.93 4.26 3.51 4.84 6.76l2.79.81s1.93-2.18 2.13-6.96c.19-4.78.46-6.03.46-6.03Z" fill="#be3234"/><path d="M81.93 425.45s2.4-9.84-3.17-11.72c0 0-.46-3.95-2.2-5.8 0 0 2.22-2.55-.15-6.27-2.37-3.71-3.37-6.44-6.54-6.44 0 0-1.43-.18-2.24-1.34-.81-1.16-4.41-1.02-7.31-.12-2.9.9-4.64 2.67-6.15 6.04-1.51 3.37-2 7.78-.19 10.68 1.81 2.9 3.9 3.71 3.9 3.71s-.93 1.48.58 3.98 3.6 3.22 3.6 3.22-.81 3.02 1.51 5.45c2.32 2.44 5.65 3.11 8.16 4.04 2.51.93 4.26 3.51 4.84 6.76l2.79.81s1.93-2.18 2.13-6.96c.19-4.78.46-6.03.46-6.03Z" fill="none" stroke="#8f6000" stroke-width=".64"/></g><path d="M69.73 395.22s.3 3.37-2.11 4.39c-2.4 1.02-5.43.41-7.51 1.55-2.08 1.14-2.58 2.33-1.99 5.6.6 3.26 2.79 3.06 2.97 5.76.19 2.69.52 4.54 2.72 5.65 2.2 1.1 3.28 2.34 3.81 2.99.53.65 2.37.74 2.7-.74.33-1.49.61-3.17 2-4.65 1.39-1.48 2.58-1.5 3.57-1.66.98-.17 3.25-.37 3.25-.37s.05-3.53-2.27-5.76c0 0 1.86-2.39.28-5.18-1.58-2.79-2.69-5.64-4.36-6.61-1.67-.98-1.77-.96-3.06-.96Z" fill="#d6721d"/><path d="M69.73 395.22s.3 3.37-2.11 4.39c-2.4 1.02-5.43.41-7.51 1.55-2.08 1.14-2.58 2.33-1.99 5.6.6 3.26 2.79 3.06 2.97 5.76.19 2.69.52 4.54 2.72 5.65 2.2 1.1 3.28 2.34 3.81 2.99.53.65 2.37.74 2.7-.74.33-1.49.61-3.17 2-4.65 1.39-1.48 2.58-1.5 3.57-1.66.98-.17 3.25-.37 3.25-.37s.05-3.53-2.27-5.76c0 0 1.86-2.39.28-5.18-1.58-2.79-2.69-5.64-4.36-6.61-1.67-.98-1.77-.96-3.06-.96Z" fill="none" stroke="#8f6000" stroke-width=".64"/><path d="M312.45 201.05s.06-4.98-1.23-7.63c-1.29-2.65-2.54-4.25-2.54-4.25s1.15-3.07-.15-4.93c-1.31-1.87-4.6-5.52-4.6-5.52s-.89-3.9-5.77-4.44c-4.88-.55-4.94 1.9-4.94 1.9s-2.2-.99-3.22 2.06c0 0-1.64.45-2.7 2.97-1.06 2.52-2.23 2.56-2.13 4.62.11 2.06.04 4.37 1.88 4.05 0 0-.25 1.92 2.12 4.03 0 0-1.21 3.45 3.4 7.06 0 0-1.05 1.22 2.13 3.65 0 0 .61 2.63 2.34 3.89 1.73 1.26.84 2.16 3.11 2.51 2.27.36 3.19 1.64 5.08-.35 0 0 2.32 2.18 4.29.25 1.97-1.93 2.38-2.93 3.4-4.33 1.02-1.41 1.01-2.14 1.01-2.14s1.6-2.59-1.49-3.38Z" fill="#4c4956"/><path d="M312.45 201.05s.06-4.98-1.23-7.63c-1.29-2.65-2.54-4.25-2.54-4.25s1.15-3.07-.15-4.93c-1.31-1.87-4.6-5.52-4.6-5.52s-.89-3.9-5.77-4.44c-4.88-.55-4.94 1.9-4.94 1.9s-2.2-.99-3.22 2.06c0 0-1.64.45-2.7 2.97-1.06 2.52-2.23 2.56-2.13 4.62.11 2.06.04 4.37 1.88 4.05 0 0-.25 1.92 2.12 4.03 0 0-1.21 3.45 3.4 7.06 0 0-1.05 1.22 2.13 3.65 0 0 .61 2.63 2.34 3.89 1.73 1.26.84 2.16 3.11 2.51 2.27.36 3.19 1.64 5.08-.35 0 0 2.32 2.18 4.29.25 1.97-1.93 2.38-2.93 3.4-4.33 1.02-1.41 1.01-2.14 1.01-2.14s1.6-2.59-1.49-3.38Z" fill="none" stroke="#8f6000" stroke-width=".64"/><path d="M303.5 179.09s-1.19 1.77-3.45 2.2-3.86.52-4.36 2.23c-.5 1.7-1.04 2.23-1.63 2.72-.59.49-.85 1.7.11 2.4s1.83 2.49 1.39 3.97c-.43 1.48-1.29 3.45-.46 4.83.84 1.38 2.61 1.77 3.82 1.85 1.2.08 2.48 2.26 2.48 2.26s.1-.62 1.68-.73c1.58-.11 2.41-.8 2.9-2.02.49-1.22 1.03-1.88 2.18-2.44 1.15-.56 1.97-.72 2.75-.3s1.35.83 1.35.83-1.69-5.79-3.56-7.26c0 0 .74-3.02-.06-4.75-.8-1.72-5.13-5.79-5.13-5.79Z" fill="#d6721d"/><path d="M303.5 179.09s-1.19 1.77-3.45 2.2-3.86.52-4.36 2.23c-.5 1.7-1.04 2.23-1.63 2.72-.59.49-.85 1.7.11 2.4s1.83 2.49 1.39 3.97c-.43 1.48-1.29 3.45-.46 4.83.84 1.38 2.61 1.77 3.82 1.85 1.2.08 2.48 2.26 2.48 2.26s.1-.62 1.68-.73c1.58-.11 2.41-.8 2.9-2.02.49-1.22 1.03-1.88 2.18-2.44 1.15-.56 1.97-.72 2.75-.3s1.35.83 1.35.83-1.69-5.79-3.56-7.26c0 0 .74-3.02-.06-4.75-.8-1.72-5.13-5.79-5.13-5.79ZM325.39 186.66c.24 0 .44-.2.44-.44s-.2-.44-.44-.44-.44.2-.44.44.2.44.44.44Zm7.31-2.55c.24 0 .44-.2.44-.44s-.2-.44-.44-.44-.44.2-.44.44.2.44.44.44ZM263.8 220.34s2.48-3.79 5.7-3.58m3.04-1.25s2.13-3.59 4.24-2.38m-7.03 4.73s-2.25-.55-3.46 2.61m3.62-1.8s-.45 1.93-2.25 2.26m6.29-5.3s.94-1.9 2.62-1.47m-3.92 2.8s1.04.99 2.09 2.2c1.05 1.2 2.33 1.94 2.51 2.9.18.96-.73 1.99-1.62 1.91-.89-.07-.91-.09-1.56.27-.64.36-1.27-.46-1.65-1.26m2.3-6.5s1.63-.42 2.13-1.3m-8.32 4.44a.478.478 0 1 0-.179-.939.478.478 0 0 0 .179.939Zm7.08-4.04a.478.478 0 1 0-.179-.939.478.478 0 0 0 .179.939ZM149.22 355.62s2.03-4.05 5.26-4.2m2.88-1.59s1.71-3.8 3.95-2.84m-6.44 5.49s-2.3-.29-3.14 2.98m3.39-2.2s-.23 1.97-1.98 2.5m5.65-5.98s.72-2 2.43-1.75m-3.58 3.23s1.14.87 2.32 1.95 2.53 1.66 2.82 2.59c.29.93-.5 2.05-1.39 2.08-.89.03-.92.01-1.52.44s-1.31-.31-1.78-1.06m1.55-6.72s1.57-.6 1.97-1.53m-7.76 5.36a.48.48 0 1 0-.28-.92c-.25.08-.39.35-.32.6.08.25.35.4.6.32Zm6.57-4.82c.25-.08.4-.35.32-.6a.485.485 0 0 0-.6-.32c-.25.08-.4.35-.32.6.08.25.35.4.6.32ZM64.7 410.08s2.24-3.4 5.17-3.21m2.79-1.18s1.92-3.2 3.82-2.12m-6.38 4.3s-2.03-.49-3.12 2.34m3.24-1.62s-.4 1.72-2.01 2.02m5.74-4.81s.84-1.68 2.35-1.29m-3.54 2.54s.93.9 1.88 1.98 2.09 1.75 2.25 2.62c.16.87-.65 1.79-1.45 1.73-.8-.07-.82-.08-1.4.24s-1.14-.41-1.48-1.14m2.07-5.93s1.46-.37 1.91-1.14m-7.55 4a.407.407 0 0 0-.14-.8.412.412 0 0 0 .14.81Zm6.44-3.68a.412.412 0 0 0-.14-.81.407.407 0 0 0 .14.8ZM222.39 232.66s2.65-2.93 6.13-2.01m3.46-4.34s-.7.32-1.41 1.36c-.7 1.04-.12 2.27-.12 2.27s1.78.52 3.06 1.88c1.28 1.36 1.02 1.62 1.98 2.27.96.65 1.09 1.29.7 1.75-.38.45-1.41.84-1.98.65-.58-.19-.9-.21-.9-.21s-.63.62-1.27-.63m-4.03-4.12s-1.78-.8-3.31 1.98m6.23-3.98s.23-1.56 1.42-1.81m-4.31 4.28s-1.32.15-2.21 2.64m5.6-5.13s.36-.9 1.88-.9m-4.82 4.25s.29 1-2.15 1.77m5.93-4.47s.59.04.96-1.14m2.25 9.19s-.61 1.49-1.94 3.73m1.92-.32s.44-1.44 1.69-1.44m-9.79-6.59c.15 0 .28-.12.28-.28s-.12-.28-.28-.28-.28.12-.28.28.12.28.28.28Zm5.28-4.16c.15 0 .28-.12.28-.28s-.12-.28-.28-.28-.28.12-.28.28.12.28.28.28Zm-22.94 53.41s2.65-2.93 6.13-2.01m3.46-4.34s-.7.32-1.41 1.36c-.7 1.04-.12 2.27-.12 2.27s1.78.52 3.06 1.88c1.28 1.36 1.02 1.62 1.98 2.27.96.65 1.09 1.29.7 1.75-.38.45-1.41.84-1.98.65-.57-.19-.9-.21-.9-.21s-.63.62-1.27-.63m-4.03-4.12s-1.78-.8-3.31 1.98m6.23-3.98s.23-1.56 1.42-1.81m-4.31 4.28s-1.32.15-2.21 2.64m5.6-5.13s.36-.9 1.88-.9m-4.83 4.25s.29 1-2.15 1.77m5.93-4.47s.59.04.96-1.14m2.25 9.19s-.61 1.49-1.94 3.73m1.92-.32s.44-1.44 1.69-1.44m-9.79-6.59c.15 0 .28-.12.28-.28s-.12-.28-.28-.28-.28.12-.28.28.12.28.28.28Zm5.28-4.16c.15 0 .28-.12.28-.28s-.12-.28-.28-.28-.28.12-.28.28.12.28.28.28ZM102.85 403.57s3.48-1.88 6.45.15m4.71-2.94s-.77.07-1.78.81-.87 2.1-.87 2.1 1.5 1.08 2.26 2.79c.75 1.71.42 1.87 1.11 2.8.69.93.59 1.58.08 1.88-.51.3-1.61.32-2.08-.05-.48-.38-.78-.5-.78-.5s-.8.37-.99-1.02m-2.42-5.23s-1.41-1.35-3.78.76m7.2-1.68s.74-1.39 1.94-1.23m-5.5 2.6s-1.3-.3-2.96 1.76m6.99-2.97s.64-.73 2.08-.22m-5.97 2.4s-.06 1.03-2.62.95m7.09-2.24s.55.23 1.28-.75m-.95 9.41s-1.07 1.2-3.07 2.87m1.91.34s.89-1.21 2.08-.79m-7.03-9.48c.14.05.3-.03.35-.17.05-.14-.02-.3-.17-.35-.14-.05-.3.02-.35.17-.05.14.03.3.17.35Zm6.37-2.15c.14.05.3-.02.35-.17.05-.15-.02-.3-.17-.35-.14-.05-.3.02-.35.17-.05.14.02.3.17.35Z" fill="none" stroke="#8f6000" stroke-width=".64"/><path d="M297.08 189.42s3.26-2.23 6.43-.52m4.38-3.42s-.76.15-1.69.99c-.93.84-.64 2.18-.64 2.18s1.61.92 2.54 2.54c.93 1.62.62 1.81 1.4 2.67.78.85.75 1.51.28 1.86-.48.35-1.56.49-2.08.17-.51-.32-.83-.42-.83-.42s-.76.45-1.09-.91m-2.96-4.95s-1.54-1.2-3.68 1.15m6.99-2.42s.59-1.46 1.8-1.43m-5.19 3.16s-1.32-.16-2.76 2.06m6.64-3.68s.56-.79 2.04-.44m-5.68 3.01s.05 1.04-2.51 1.22m6.81-2.96s.57.17 1.2-.89m.04 9.46s-.94 1.31-2.76 3.18m1.94.14s.76-1.3 1.98-1.01m-7.98-8.7c.15.04.3-.06.33-.2a.27.27 0 0 0-.21-.33c-.15-.04-.3.06-.33.2s.06.3.2.33Zm6.11-2.81c.15.04.3-.06.34-.21.03-.15-.06-.3-.21-.33a.27.27 0 0 0-.33.21c-.04.15.06.3.2.33ZM334.32 153.07s.01-3.95 3.21-5.6" fill="none" stroke="#8f6000" stroke-width=".64"/><path d="M337.2 141.93s-.31.71-.14 1.95c.17 1.24 1.43 1.76 1.43 1.76s1.67-.8 3.53-.65c1.86.15 1.84.52 2.99.36 1.15-.16 1.67.24 1.69.83.02.59-.48 1.57-1.04 1.81s-.81.45-.81.45-.06.88-1.37.38" fill="#d6721d"/><path d="M337.2 141.93s-.31.71-.14 1.95c.17 1.24 1.43 1.76 1.43 1.76s1.67-.8 3.53-.65c1.86.15 1.84.52 2.99.36 1.15-.16 1.67.24 1.69.83.02.59-.48 1.57-1.04 1.81s-.81.45-.81.45-.06.88-1.37.38m-5.75-.37s-1.86.59-1.14 3.68m1.97-7.13s-.87-1.31-.16-2.29m-.34 6.07s-.88 1 .13 3.44m.73-7.55s-.33-.91.8-1.93m-.74 6.39s.88.55-.42 2.76m1.42-7.29s.46-.37-.05-1.49m-1.3 7.33c.11-.1.12-.28.02-.39a.281.281 0 0 0-.39-.02c-.11.1-.12.28-.02.39.1.11.28.12.39.02Zm1.14-6.62c.11-.1.12-.28.02-.39a.281.281 0 0 0-.39-.02c-.11.1-.12.28-.02.39.1.11.28.12.39.02ZM494.55 37.36s3.7-2.57 6.64-1.2m3.29-.06s3.3-2.5 4.84-.63m-8.29 1.8s-1.91-1.32-4.19 1.13m4.04-.31s-1.12 1.6-2.94 1.24m7.81-2.6s1.58-1.38 2.99-.38m-4.69 1.15s.61 1.3 1.15 2.79c.54 1.49 1.47 2.64 1.28 3.59-.19.95-1.4 1.56-2.21 1.17-.8-.39-.82-.42-1.55-.32-.73.09-1.02-.89-1.08-1.77m4.51-5.16s1.69.21 2.48-.4M502.32 48.85s1.8-.91 3.72-1.1" fill="none" stroke="#8f6000" stroke-width=".64"/><path d="M503.7 46.46s-.65 2.24-3.18 3.69" fill="#d6721d"/><path d="M503.7 46.46s-.65 2.24-3.18 3.69m-1.26-11.58c.29 0 .53-.24.53-.53s-.24-.53-.53-.53-.53.24-.53.53.24.53.53.53Zm8.11-1.14c.29 0 .53-.24.53-.53s-.24-.53-.53-.53-.53.24-.53.53.24.53.53.53ZM534.91 372.83s1.49 3.68-.28 5.83m-.6 2.86s1.51 3.31-.4 4.16m.08-7.42s1.51-1.28-.16-3.73m-.47 3.42s-1.16-1.3-.52-2.7m.67 7.21s.88 1.61-.26 2.55m-.09-4.18s-1.23.21-2.62.31c-1.39.11-2.55.61-3.33.24-.78-.37-1.08-1.53-.58-2.11.49-.58.52-.59.58-1.21.06-.63.96-.64 1.73-.49m3.61 4.99s-.5 1.33-.13 2.11m.97-8.14c-.09.19 0 .42.2.51.2.09.43.02.51-.17.09-.19 0-.42-.2-.51-.2-.09-.43-.02-.51.17Zm-.62 7.1c-.09.19 0 .42.2.51.2.09.43.02.51-.17.09-.19 0-.42-.2-.51-.2-.1-.43-.02-.51.17Z" fill="none" stroke="#8f6000" stroke-width=".64"/><path d="m620.99 66.34-5.02-8.68s-4.57 4.58-14.88 7.63c-3.54 1.04-9.7 2.25-9.7 2.25s-.14-1.59 1.94-3.72c2.08-2.14 5.91-2.85 5.91-2.85s3.82-.72 9.35-4.17c5.53-3.46 15.22-11.18 22.46-17.38 7.24-6.19 12.77-13.74 12.77-13.74l-5.84.21s-.48 1.97-4.16 4.27c-3.69 2.3-6.9 2.64-6.9 2.64s-1.33 3.34-4.54 3.67c-3.21.33-4.47-3.05-4.47-3.05 3.45-1.32 5.29-2.47 7.99-4.99 2.69-2.52 9.45-6.74 9.45-6.74s9.83-6.14 16.11-8.39c6.28-2.25 9.62-1 9.62-1l12.73 16.28s-5.02 5.64-11.36 14.62c-6.35 8.98-15.53 18.89-20.2 20.98-4.68 2.09-8.4.23-8.4.23L626.2 50.8s2.46-1.54 4.57.49c2.12 2.02 7.38 10.43 7.38 10.43" fill="#aa7800"/><path d="m620.99 66.34-5.02-8.68s-4.57 4.58-14.88 7.63c-3.54 1.04-9.7 2.25-9.7 2.25s-.14-1.59 1.94-3.72c2.08-2.14 5.91-2.85 5.91-2.85s3.82-.72 9.35-4.17c5.53-3.46 15.22-11.18 22.46-17.38 7.24-6.19 12.77-13.74 12.77-13.74l-5.84.21s-.48 1.97-4.16 4.27c-3.69 2.3-6.9 2.64-6.9 2.64s-1.33 3.34-4.54 3.67c-3.21.33-4.47-3.05-4.47-3.05 3.45-1.32 5.29-2.47 7.99-4.99 2.69-2.52 9.45-6.74 9.45-6.74s9.83-6.14 16.11-8.39c6.28-2.25 9.62-1 9.62-1l12.73 16.28s-5.02 5.64-11.36 14.62c-6.35 8.98-15.53 18.89-20.2 20.98-4.68 2.09-8.4.23-8.4.23L626.2 50.8s2.46-1.54 4.57.49c2.12 2.02 7.38 10.43 7.38 10.43" fill="none" stroke="#644100" stroke-width="1.09"/><path d="M617.16 63.02s-6.08 3.8-11.86 6.72c-5.78 2.92-12.79 5.24-12.79 5.24s-.5-3.43 3.51-5.04c9.05-3.63 16.54-8.87 21.1-12.4" fill="#aa7800"/><path d="M617.16 63.02s-6.08 3.8-11.86 6.72c-5.78 2.92-12.79 5.24-12.79 5.24s-.5-3.43 3.51-5.04c9.05-3.63 16.54-8.87 21.1-12.4" fill="none" stroke="#644100" stroke-width="1.09"/><path d="M632.91 63.93s-7.69 4-12.19 1.95c-4.5-2.05-4.44-4.52-4.09-10.41.35-5.89 1.57-9.08 3.61-7.12 2.04 1.97 1.17 5.75 1.17 5.75s1.65 5.04.42 8.24c0 0 3.91-2.55 8.37-3.62" fill="#aa7800"/><path d="M632.91 63.93s-7.69 4-12.19 1.95c-4.5-2.05-4.44-4.52-4.09-10.41.35-5.89 1.57-9.08 3.61-7.12 2.04 1.97 1.17 5.75 1.17 5.75s1.65 5.04.42 8.24c0 0 3.91-2.55 8.37-3.62" fill="none" stroke="#644100" stroke-width="1.09"/><path d="M644.48 25.31s7.73 1.52 16.87-4.19" fill="#aa7800"/><path d="M644.48 25.31s7.73 1.52 16.87-4.19" fill="none" stroke="#644100" stroke-width="1.09"/><g clip-path="url(#i)"><path d="M770.9-11.35c143.98 0-186.53-48.36-146.47-2.53 37.19 42.55 88 72.91 145.62 84.28 16.41 3.24-16.51-81.75.85-81.75Z" fill="#8f6000"/><path d="M770.9-11.35c143.98 0-186.53-48.36-146.47-2.53 37.19 42.55 88 72.91 145.62 84.28 16.41 3.24-16.51-81.75.85-81.75Z" fill="none" stroke="#342825" stroke-width=".75"/><path d="M770.9-14.17c143.98 0-177.24-38.42-130.06 8.75 31.14 31.14 70.11 54.44 113.72 66.68 22.46 6.31-8.13-75.43 16.35-75.43Z" fill="#342825"/><path d="M770.9-14.17c143.98 0-177.24-38.42-130.06 8.75 31.14 31.14 70.11 54.44 113.72 66.68 22.46 6.31-8.13-75.43 16.35-75.43Z" fill="none" stroke="#342825" stroke-width=".75"/></g><path d="M528.35 367.14s2.74-2.43 6.02-3.8c3.28-1.37 8.18 1.56 9.98 4.12 1.8 2.56 3.08 7.35 1.72 10.32-1.36 2.98-5.16 4.47-5.16 4.47s-1.26-3.63-.66-6.37c.6-2.73 1.47-5.73-2.77-5.9-4.24-.18-9.39-.83-11.18.76 0 0 .7 5.07-5.35 5.33 0 0 5.09.49 5.36 5.14.27 4.66-4.85 7.11-7.67 6.78-2.82-.33-1-2.62-3.6-3.34-2.6-.72-3.4.24-4.32.06-.92-.17-1.7-1.96-1.12-3.76.58-1.79.11-3.24 2.04-4.73 1.93-1.49 4.17-2.97 5.96-3.68s1.99-1.03 3.09-2.92c1.1-1.89 3.1-.51 4.66-1.39 1.55-.88 2.99-1.1 2.99-1.1Z" fill="#75775c"/><path d="M528.35 367.14s2.74-2.43 6.02-3.8c3.28-1.37 8.18 1.56 9.98 4.12 1.8 2.56 3.08 7.35 1.72 10.32-1.36 2.98-5.16 4.47-5.16 4.47s-1.26-3.63-.66-6.37c.6-2.73 1.47-5.73-2.77-5.9-4.24-.18-9.39-.83-11.18.76 0 0 .7 5.07-5.35 5.33 0 0 5.09.49 5.36 5.14.27 4.66-4.85 7.11-7.67 6.78-2.82-.33-1-2.62-3.6-3.34-2.6-.72-3.4.24-4.32.06-.92-.17-1.7-1.96-1.12-3.76.58-1.79.11-3.24 2.04-4.73 1.93-1.49 4.17-2.97 5.96-3.68s1.99-1.03 3.09-2.92c1.1-1.89 3.1-.51 4.66-1.39 1.55-.88 2.99-1.1 2.99-1.1Z" fill="none" stroke="#8f6000" stroke-width=".64"/></svg>