<svg xmlns="http://www.w3.org/2000/svg" viewBox="0 0 749 429">
  <defs>
    <clipPath id="a">
      <path fill="none" d="M-.44.5h749.88v428H-.44z"/>
    </clipPath>
    <clipPath id="b">
      <path fill="none" d="M-.44.5h749.88v428H-.44z"/>
    </clipPath>
    <clipPath id="c">
      <path fill="none" d="M-.44.5h749.88v428H-.44z"/>
    </clipPath>
    <clipPath id="d">
      <path fill="none" d="M-.44.5h749.88v428H-.44z"/>
    </clipPath>
    <clipPath id="e">
      <path fill="none" d="M-.44.5h749.88v428H-.44z"/>
    </clipPath>
    <clipPath id="f">
      <path fill="none" d="M-.44.5h749.88v428H-.44z"/>
    </clipPath>
    <clipPath id="g">
      <path fill="none" d="M-.44.5h749.88v428H-.44z"/>
    </clipPath>
    <clipPath id="h">
      <path fill="none" d="M-.44.5h749.88v428H-.44z"/>
    </clipPath>
    <clipPath id="i">
      <path fill="none" d="M-.44.5h749.88v428H-.44z"/>
    </clipPath>
    <clipPath id="j">
      <path fill="none" d="M-.44.5h749.88v428H-.44z"/>
    </clipPath>
    <clipPath id="k">
      <path fill="none" d="M-.44.5h749.88v428H-.44z"/>
    </clipPath>
    <clipPath id="l">
      <path fill="none" d="M-.44.5h749.88v428H-.44z"/>
    </clipPath>
    <clipPath id="m">
      <path fill="none" d="M-.44.5h749.88v428H-.44z"/>
    </clipPath>
    <clipPath id="n">
      <path fill="none" d="M-.44.5h749.88v428H-.44z"/>
    </clipPath>
    <clipPath id="o">
      <path fill="none" d="M-.44.5h749.88v428H-.44z"/>
    </clipPath>
    <clipPath id="p">
      <path fill="none" d="M-.44.5h749.88v428H-.44z"/>
    </clipPath>
    <clipPath id="q">
      <path fill="none" d="M-.44.5h749.88v428H-.44z"/>
    </clipPath>
  </defs>
  <g clip-path="url(#a)">
    <path fill="#8f531d" d="M-2.07-.87v431.74h753.02V-.87H-2.07z"/>
    <path fill="none" stroke="#8f531d" d="M-2.07-.87v431.74h753.02V-.87H-2.07z"/>
    <path fill="#86a588" d="M553.02 282.13s5.12-8.2 11.94-28.32c6.82-20.12 11.91-33.08 18.05-50.14 6.14-17.06 9.55-27.65 23.2-48.12 13.65-20.47 15.69-23.52 15.69-23.52s-3.75-14.33-3.41-23.2c.34-8.87.62-21.51 4.06-24.92 3.44-3.41 12.34-9.51 24.28-8.17 0 0 5.09-.72 12.93 8.17 7.85 8.89 12.96 17.44 26.61 31.74 13.65 14.31 23.88 25.21 33.43 51.83 9.55 26.63 8.87 50.85 7.85 89.74-1.02 38.89-2.73 71.94-2.73 104.71S714 498.4 714 498.4l-105.75 7.51-38.55-1.71L589.15 335l-34.8-.34-1.34-52.53Z"/>
    <path fill="none" stroke="#73796e" stroke-width="1.2" d="M553.02 282.13s5.12-8.2 11.94-28.32c6.82-20.12 11.91-33.08 18.05-50.14 6.14-17.06 9.55-27.65 23.2-48.12 13.65-20.47 15.69-23.52 15.69-23.52s-3.75-14.33-3.41-23.2c.34-8.87.62-21.51 4.06-24.92 3.44-3.41 12.34-9.51 24.28-8.17 0 0 5.09-.72 12.93 8.17 7.85 8.89 12.96 17.44 26.61 31.74 13.65 14.31 23.88 25.21 33.43 51.83 9.55 26.63 8.87 50.85 7.85 89.74-1.02 38.89-2.73 71.94-2.73 104.71S714 498.4 714 498.4l-105.75 7.51-38.55-1.71L589.15 335l-34.8-.34-1.34-52.53Z"/>
    <path fill="#73796e" d="M649.54 80.86v-7.85s-4.01-1.4-1.71-7.87c0 0-4.47-1.35.5-6.12 4.96-4.78 9.74-11.94 20.66-12.96 10.92-1.02 17.4 11.26 19.45 16.03 2.05 4.78 2.05 7.5 2.05 7.5s3.07 3.75 4.78 7.16c1.71 3.41 3.41 6.14 3.41 6.14s4.09 2.05 8.87 7.16c4.78 5.12 7.16 6.14 13.65 13.3 6.48 7.16 8.87 9.21 8.87 9.21s-.68 1.02 1.02 3.41c1.71 2.39 2.92 4.78 1.71 7.85 0 0-1.22 1.02 1.09 3.07 0 0-1.18 5.46.4 9.21 1.58 3.75.55 6.82.55 6.82s-1.21 2.73.93 4.78c0 0 1.46 3.43-.59 8.19 0 0 .74 2.73.37 11.94-.37 9.21-.39 25.93 1.32 40.59 1.72 14.67 1.72 34.8 1.72 47.42s-.87 21.49.6 27.63c1.47 6.14 1.43 18.42.58 30.02-.84 11.6-1.19 27.97-.84 42.3.34 14.33 1.36 46.07-.68 62.77-2.05 16.7-2.39 27.97-1.71 43.32.68 15.35.71 35.14.71 35.14l-34.14 4.78 16.03-143.96-7.48-194.11-36.19-50.15-25.93-32.75Z"/>
    <path fill="none" stroke="#73796e" stroke-width="1.2" d="M649.54 80.86v-7.85s-4.01-1.4-1.71-7.87c0 0-4.47-1.35.5-6.12 4.96-4.78 9.74-11.94 20.66-12.96 10.92-1.02 17.4 11.26 19.45 16.03 2.05 4.78 2.05 7.5 2.05 7.5s3.07 3.75 4.78 7.16c1.71 3.41 3.41 6.14 3.41 6.14s4.09 2.05 8.87 7.16c4.78 5.12 7.16 6.14 13.65 13.3 6.48 7.16 8.87 9.21 8.87 9.21s-.68 1.02 1.02 3.41c1.71 2.39 2.92 4.78 1.71 7.85 0 0-1.22 1.02 1.09 3.07 0 0-1.18 5.46.4 9.21 1.58 3.75.55 6.82.55 6.82s-1.21 2.73.93 4.78c0 0 1.46 3.43-.59 8.19 0 0 .74 2.73.37 11.94-.37 9.21-.39 25.93 1.32 40.59 1.72 14.67 1.72 34.8 1.72 47.42s-.87 21.49.6 27.63c1.47 6.14 1.43 18.42.58 30.02-.84 11.6-1.19 27.97-.84 42.3.34 14.33 1.36 46.07-.68 62.77-2.05 16.7-2.39 27.97-1.71 43.32.68 15.35.71 35.14.71 35.14l-34.14 4.78 16.03-143.96-7.48-194.11-36.19-50.15-25.93-32.75Z"/>
  </g>
  <path fill="#b1d1d7" d="m622.59 110.54 2.04 31.36-4.43-31.4-3.07-3.72 14.67-22.87 16.37-6.12 4.1 4.41-.69 8.55-9.21 17.74-1.75 28.66v-32.41l-1.66-1.71 6.42-14-1.96-2.37-12.3 16.01-1.71 29.36-1.71-25.25-5.11 3.76zm34.45-38.55 15.35-19.45-8.87.35-7.05 9.24-2.16 8.15 2.73 1.71z"/>
  <path fill="#b1d1d7" d="m651.36 70.97-2.51-2.73 1.26-5.9h-3.64l10-12.18 9.7-2.73-12.55 15.69-2.26 7.85zm11.37 3.98 9.32-15.7h3.78l-8.02 17.83-5.08-2.13zm-21.38 64.24 2.07 5.12-9.63 11.26-14.95 34.79-4.78 18.42-18.76 50.15-19.11 34.11-13.98 32.75 13.64-36.5 13.31-30.36 21.15-50.83 5.11-21.15 14.36-33.77 11.57-13.99zm-13.99-4.74-5.11-2.78-23.54 36.18-11.94 26.27-8.53 36.5-16.6 49.12 20.38-49.46 8.53-36.16 12.33-24.93 7.09-8.17-7.09 20.47-19.52 84.95 22.54-81.9 20.47-43.98.99-6.11z"/>
  <g clip-path="url(#b)">
    <path fill="none" stroke="#b1d1d7" stroke-width="1.2" d="m633.19 107.47-1.39 26.95m20.12-20.13 10.23 28.66m-5.11-26.63 8.56 26.83m2.21-64.36s-.56 4.79 13.11 5.48c13.67.68 17.4 4.76 17.4 4.76m-34.67-11.95s1.42 9.23 10.03 15.71 34.59 16.72 39.68 26.27m-59.05-38.2s2.22 17.88 19.36 40.08 32.49 46.58 36.93 58.5m-57.71-34.45s-8.47 11.73-15.97 23.2c-7.51 11.47-19.07 21.47-19.07 21.47m22.77-37.16s-6.72 11.28-14.25 17.4m30.67-22.52s-9.21 10.2-18.42 25.22c-9.21 15.03-24.9 34.11-24.9 34.11m20.07-14.64s-7.11 7.51-14.62 18.42c-7.51 10.92-12.96 17.4-12.96 17.4m19.78-12.62s-14.66 13.62-27.96 36.16m17.74-16.04s-12.62 7.16-20.13 20.47m21.83-16.37s-23.88 25.93-39.23 54.92m18.08-18.42s-15.01 17.06-26.95 52.53m45.06-68.23s-6.51 6.48-15.72 23.2m11.26-2.39s-10.41 21.62-29.65 44.93"/>
    <path fill="#86869e" d="M611.67 508.62s-.68-26.63 1.71-56.29 3.88-38.19 4.54-60.7c.65-22.51.16-27.97 2.08-49.12 1.91-21.15 4.6-46.32 8.03-68.55 3.43-22.23 3.73-37.4 9.91-59.14 6.18-21.73 10.21-41.34 21.49-47.45 11.29-6.1 26.73-11.6 39.23-4.31 12.5 7.29 21.15 21.59 22.52 42.35 1.36 20.76 3.04 52.14 2.73 83.53-.31 31.38-2.08 66.52-5.46 106.09-3.38 39.57-12.62 103.34-12.62 103.34l-12.96-.66s4.15-37.16 6.85-68.57c2.7-31.4 11.45-94.78 11.45-114.62v-77.13c0-19.75-2.61-41.28-7.05-52.86-4.43-11.58-15.73-14.18-21.68-14.18s-17.3-.13-23.01 14.2c-5.71 14.33-11.75 25.12-18.81 82.32-7.06 57.2-5.73 73.24-9.16 104.28-3.43 31.04-3.1 46.76-4.09 80.17-1 33.41-1.7 53.56-1.7 53.56l-13.99 3.73Z"/>
    <path d="m620.11 513.74 2.14-72.47 8.95-122.39 12.92-95.09 9.6-39.23 20.98-17.18h20.04l11.94 15.46 8.95 34.11-1.7 138.18-9.1 81.85-5.83 63.56-78.89 13.2z"/>
    <path fill="none" stroke="#000" stroke-width="1.2" d="m620.11 513.74 2.14-72.47 8.95-122.39 12.92-95.09 9.6-39.23 20.98-17.18h20.04l11.94 15.46 8.95 34.11-1.7 138.18-9.1 81.85-5.83 63.56-78.89 13.2z"/>
    <path fill="#86869e" d="M614.74 498.75s1.63-14.33 2.73-39.57c1.1-25.24 3.07-40.24 3.75-61.06s2.39-40.6 2.73-55.6c.34-15.01 4.72-43.62 7.16-68.55 2.45-24.92 4.74-37.54 9.5-57.67s6.88-35.48 17.79-44.01c10.9-8.53 19.44-9.21 31.73-9.55 12.28-.34 26.1 19.4 26.1 31.04s2.21 13.71 2.55 26.61c.34 12.9 1.36 20.1 1.7 35.77.34 15.67.68 42.9-1.36 70.26-2.05 27.35-2.39 54.64-6.48 90.8s-7.5 70.94-7.5 70.94l-.68 10.93-7.51-.34s.05-11.29 1.71-32.77c1.65-21.47 4.78-76.25 7.51-106.76 2.73-30.51 5-75.4 5-105.42s-4.34-65.49-8.75-71.97c-4.41-6.48-13.42-13.3-27.35-9.89-13.93 3.41-23.94 21.15-29.68 53.9-5.74 32.75-7.79 77.1-10.17 106.77s-4.43 66.52-6.14 94.15c-1.71 27.63-4.09 71.62-4.09 71.62"/>
    <path fill="none" stroke="#c3c3f4" stroke-width="1.2" d="M614.74 498.75s1.63-14.33 2.73-39.57c1.1-25.24 3.07-40.24 3.75-61.06s2.39-40.6 2.73-55.6c.34-15.01 4.72-43.62 7.16-68.55 2.45-24.92 4.74-37.54 9.5-57.67s6.88-35.48 17.79-44.01c10.9-8.53 19.44-9.21 31.73-9.55 12.28-.34 26.1 19.4 26.1 31.04s2.21 13.71 2.55 26.61c.34 12.9 1.36 20.1 1.7 35.77.34 15.67.68 42.9-1.36 70.26-2.05 27.35-2.39 54.64-6.48 90.8s-7.5 70.94-7.5 70.94l-.68 10.93-7.51-.34s.05-11.29 1.71-32.77c1.65-21.47 4.78-76.25 7.51-106.76 2.73-30.51 5-75.4 5-105.42s-4.34-65.49-8.75-71.97c-4.41-6.48-13.42-13.3-27.35-9.89-13.93 3.41-23.94 21.15-29.68 53.9-5.74 32.75-7.79 77.1-10.17 106.77s-4.43 66.52-6.14 94.15c-1.71 27.63-4.09 71.62-4.09 71.62"/>
    <path fill="#996a89" d="M-1.61 292.62s6.96-58.85 37.81-71.64c0 0 16.35-34.1 28.29-44.77 11.94-10.68 37.67-48.2 60.98-80.61 23.31-32.41 28.57-49.45 36.24-57.97 7.68-8.53 36.67-25.16 36.67-25.16l4.26 5.12-14.07 43.07 28.57-5.54-9.81 35.37s5.26 17.08 18.19 26.88c12.94 9.81 20.75 15.93 33.4 34.83 12.65 18.9 16.35 21.05 34.97 49.6 18.62 28.55 43.49 77.14 51.6 98.48 8.1 21.34 25.58 65.69 25.58 65.69l-34.54 162.87-336 5.12-2.13-241.33Z"/>
  </g>
  <path fill="#4a100e" d="M352.32 377.48s1.71-21.79-3.41-36.26c-5.12-14.48-9.81-22.62-11.51-34.11-1.71-11.49-6.4-18.93-15.35-33.97-8.96-15.05-21.75-39.78-31.55-57.26-9.81-17.48-19.19-34.97-24.73-46.91-5.54-11.94-26.3-38.36-33.26-45.63 0 0 8.53 3.86 17.48 15.35 8.96 11.49 21.32 30.27 34.54 49.46 13.22 19.19 30.7 51.13 34.11 62.01 3.41 10.87 2.98 11.64 8.53 17.31 5.54 5.67 14.9 20.88 20.47 39.64 5.57 18.76 14.07 36.69 14.07 36.69s-2.99 4.69-3.84 13.22c-.85 8.53-1.7 14.92-5.54 20.47Z"/>
  <path fill="none" stroke="#4a100e" stroke-width="1.2" d="M352.32 377.48s1.71-21.79-3.41-36.26c-5.12-14.48-9.81-22.62-11.51-34.11-1.71-11.49-6.4-18.93-15.35-33.97-8.96-15.05-21.75-39.78-31.55-57.26-9.81-17.48-19.19-34.97-24.73-46.91-5.54-11.94-26.3-38.36-33.26-45.63 0 0 8.53 3.86 17.48 15.35 8.96 11.49 21.32 30.27 34.54 49.46 13.22 19.19 30.7 51.13 34.11 62.01 3.41 10.87 2.98 11.64 8.53 17.31 5.54 5.67 14.9 20.88 20.47 39.64 5.57 18.76 14.07 36.69 14.07 36.69s-2.99 4.69-3.84 13.22c-.85 8.53-1.7 14.92-5.54 20.47Z"/>
  <g clip-path="url(#c)">
    <path fill="#744d28" d="M341.52 404.77s1.99-34.54-5.83-68.23l-5.97-.14s-4.69-9.65-9.81-30.57c-5.12-20.91-27.72-65.24-27.72-65.24l-5.12 6.8s-.14-7.7-6.96-22.17c-6.82-14.48-9.24-29.87-16.06-44.35-6.82-14.48-14.64-28.55-14.64-28.55s-11.39-3.84-17.35-15.35c-5.96-11.51-13.21-24.73-13.21-24.73s17.06 13.18 21.32 17.46c4.26 4.28 17.48 21.77 17.48 21.77l24.73 41.79 32.41 60.96 15.35 30.29 14.07 32.82 10.94 47.35.59 11.94-14.23 28.14ZM26.28 522.72s-2.73-15.69 0-55.95c2.73-40.25 10.23-92.11 17.74-123.49 7.51-31.39 15.69-70.26 32.07-104.39 16.37-34.13 37.44-60.16 52.79-80.19 15.35-20.02 21.61-35.92 21.61-35.92s-13.64 21.4-34.11 46.16c-20.47 24.75-49.32 69.53-59.56 98.95-10.23 29.42-22.9 54.15-32.35 102.77-9.44 48.61-15.55 151.8-15.55 151.8l17.37.26Z"/>
    <path fill="none" stroke="#744d28" stroke-width="1.2" d="M26.28 522.72s-2.73-15.69 0-55.95c2.73-40.25 10.23-92.11 17.74-123.49 7.51-31.39 15.69-70.26 32.07-104.39 16.37-34.13 37.44-60.16 52.79-80.19 15.35-20.02 21.61-35.92 21.61-35.92s-13.64 21.4-34.11 46.16c-20.47 24.75-49.32 69.53-59.56 98.95-10.23 29.42-22.9 54.15-32.35 102.77-9.44 48.61-15.55 151.8-15.55 151.8l17.37.26Z"/>
  </g>
  <path fill="#744d28" d="M8.28 336.12s15.99-53.73 31.34-82.3 24.77-40.51 32.41-47.76c7.64-7.25 11.23-18.76 22.74-30.7 11.51-11.94 43.78-43.49 52.31-71.64 8.53-28.14 10.8-45.65 10.8-45.65l-4.69 5.56s-6.82 22.17-11.09 31.98c-4.26 9.81-6.82 19.19-23.03 40.08-16.2 20.89-36.96 42.55-53.87 60.5-16.91 17.96-54.87 92.58-63.82 122l6.9 17.91Z"/>
  <g clip-path="url(#d)">
    <path fill="none" stroke="#744d28" stroke-width="1.2" d="M8.28 336.12s15.99-53.73 31.34-82.3 24.77-40.51 32.41-47.76c7.64-7.25 11.23-18.76 22.74-30.7 11.51-11.94 43.78-43.49 52.31-71.64 8.53-28.14 10.8-45.65 10.8-45.65l-4.69 5.56s-6.82 22.17-11.09 31.98c-4.26 9.81-6.82 19.19-23.03 40.08-16.2 20.89-36.96 42.55-53.87 60.5-16.91 17.96-54.87 92.58-63.82 122l6.9 17.91Z"/>
    <path fill="#4a100e" d="m181.84 113.35 4.44-1.58s4.09 5.34 11.6 5.68c0 0 2.05 5.42 10.23 7.14 0 0 .31 3.38 10.22 8.89 0 0 4.45 6.82 11.96 17.06 7.51 10.23 9.89 12.62 9.89 12.62s7.85 12.62 9.55 29c0 0 5.77 3.75 4.43 15.35 0 0 5.34 2.37 3.07 10.9 0 0 5.17 14.04 10.95 28.33 5.77 14.29 17.37 34.8 26.92 48.78 9.55 13.99 11.66 23.51 14.02 42.46 2.36 18.94 1.34 26.79 4.75 51.69s5.12 36.16 5.12 36.16 4.09 6.14 4.43 17.4c.34 11.26 5.12 50.49 5.12 50.49l3.75-8.19s-4.09-37.18-7.16-48.44c-3.07-11.26-3.75-13.65-3.75-13.65s-2.05-19.66-5.12-31.73c0 0 .4-7.88-2.02-19.81-2.42-11.92-1.73-20.13-2.76-33.94-1.02-13.8-5.12-27.11-5.12-27.11s-11.78-18.75-19.01-33.44c-7.23-14.68-13.42-24.21-17.15-33.77-3.72-9.55-9.92-18.42-10.23-25.59-.31-7.16-6.84-38.21-17.37-56.63-10.53-18.42-24.26-29.68-24.26-29.68l-6.12-8.99s-3.41-.26-6.48-5.01c-3.07-4.76-19.1-11.06-23.88-4.42Z"/>
    <path fill="none" stroke="#000" stroke-width="1.2" d="m181.84 113.35 4.44-1.58s4.09 5.34 11.6 5.68c0 0 2.05 5.42 10.23 7.14 0 0 .31 3.38 10.22 8.89 0 0 4.45 6.82 11.96 17.06 7.51 10.23 9.89 12.62 9.89 12.62s7.85 12.62 9.55 29c0 0 5.77 3.75 4.43 15.35 0 0 5.34 2.37 3.07 10.9 0 0 5.17 14.04 10.95 28.33 5.77 14.29 17.37 34.8 26.92 48.78 9.55 13.99 11.66 23.51 14.02 42.46 2.36 18.94 1.34 26.79 4.75 51.69s5.12 36.16 5.12 36.16 4.09 6.14 4.43 17.4c.34 11.26 5.12 50.49 5.12 50.49l3.75-8.19s-4.09-37.18-7.16-48.44c-3.07-11.26-3.75-13.65-3.75-13.65s-2.05-19.66-5.12-31.73c0 0 .4-7.88-2.02-19.81-2.42-11.92-1.73-20.13-2.76-33.94-1.02-13.8-5.12-27.11-5.12-27.11s-11.78-18.75-19.01-33.44c-7.23-14.68-13.42-24.21-17.15-33.77-3.72-9.55-9.92-18.42-10.23-25.59-.31-7.16-6.84-38.21-17.37-56.63-10.53-18.42-24.26-29.68-24.26-29.68l-6.12-8.99s-3.41-.26-6.48-5.01c-3.07-4.76-19.1-11.06-23.88-4.42Zm-.34-47.41"/>
  </g>
  <path fill="#b2a1c2" d="M16.73 265.16s4.78-21.19 13.3-38.23c8.53-17.04 21.52-41.6 33.46-53.88 11.94-12.28 61.72-73.75 75.36-98.62 13.65-24.87 19.88-37.84 19.88-37.84l38.11-26.27 8.53 1.36-17.74 22.18-10.34 30.7 9.32-38.55-9.32 10.92-8.76 34.78v11.62l-2.05 5.8.34-19.1 5.12-28.66-16.35 21.83-5.83 24.56s-10.23 43.42-25.59 51.22c0 0 19.16-25.98 26.86-66.91l-2.26-1.36s-6.45 8.87-25.59 34.45c-19.13 25.58-25.29 40.25-43.53 58.33-18.24 18.08-24.32 27.25-38.34 53.2-14.02 25.95-24.59 48.46-24.59 48.46Zm136.45-140.55 18.43-41.62 11.59-17.05 20.47-9.82 17.74-3.15.11 5.12-12.39 11.6-10.57 20.79-13.81 1.04v-8.19l-10.41 6.49-21.16 34.79z"/>
  <path fill="#744d28" d="M160.86 138.68s17.22-29.16 23.89-55.86l8.52-6.82s-4.26 17.91-13.22 37.95c0 0-2.75-4.71-19.19 24.73Z"/>
  <path fill="none" stroke="#744d28" stroke-width="1.2" d="M160.86 138.68s17.22-29.16 23.89-55.86l8.52-6.82s-4.26 17.91-13.22 37.95c0 0-2.75-4.71-19.19 24.73Zm36.33-33.85s8.5-18.74 16.71-37.87m-14.32 38.11s4.22-6.39 9.55-21.06m-3.58 21.06s.97-2.98 2.56-12.87m-13.85 6.48s9.56-13.4 14.92-29m-10.1 14.13s5.21-2.92 7.42-9.38m-43.08 46.75s5.58-7.55 13.88-32.59m-6.9 27.15s4.71-8.41 10.59-29.19m-28.36 18.42s8.86-22.33 12.89-53.72m-17.45 71.53s11.94-26.49 20.13-74.59m-17.16 54.25s5.13-13.54 9.24-44.24m19.94 6.03s7.28-15.74 11.85-35.14"/>
  <g clip-path="url(#e)">
    <path fill="none" stroke="#b2a1c2" stroke-width="1.2" d="M174.36 161.37s-14.7 28.96-18.45 60.7m18.99-47.4s-11.17 18.76-9.79 57.99m-6.37-55.26s-7.6 19.1-9.3 43.32m-85.95 72.32s-11.97 44.01-17.43 75.05c-5.46 31.04-17.05 69.59-17.05 69.59m36.84-121.44s-10.43 33.09-15.01 57.99c-4.59 24.9-14.42 40.6-7.51 63.62"/>
    <path fill="#744d28" d="M191.73 121.54s9.34.31 17.96 13.29 16.75 17.44 19.56 26.63c2.81 9.19 9.52 21.11 12.28 38.19 2.76 17.07 9.89 46.07 22.52 64.49 12.62 18.42 26.92 36.5 28.31 65.84 1.39 29.34 4.09 49.46 7.51 80.51 3.41 31.04 10.23 91.42-.68 114.28l30.39-.34v-40.25l-3.78-36.5-5.8-24.22-6.14-40.6-3.41-47.08-5.46-24.22L291 287.34l-19.1-36.11-12.62-31.43-4.43-18.99-5.8-21.27-9.21-20.47-16.37-20.08s-17.91-18.05-31.73-17.45Z"/>
    <path fill="#1e3e47" d="M-7.15 419.26s13.7-17.06 36.53-19.1c22.83-2.05 33.06 2.71 34.43 26.59 1.36 23.88 4.78 74.39 4.78 74.39l-79.14 1.37 3.41-83.24Z"/>
    <path fill="none" stroke="#3b5378" stroke-width="1.2" d="M-7.15 419.26s13.7-17.06 36.53-19.1c22.83-2.05 33.06 2.71 34.43 26.59 1.36 23.88 4.78 74.39 4.78 74.39l-79.14 1.37 3.41-83.24Z"/>
    <path fill="#1e3e47" d="M255.55 438.03h9.37v-36.01s7.24 1.01 15.52-1.52c8.28-2.53 9.85 4.28 20.36 4.28s15.66 1.1 20.67 5.57c5.01 4.46 11.22 5.81 11.22 5.81l2.33 79.53-97.86 6.12-8.69-10.23 9.58-51.17 17.51-2.37Z"/>
    <path fill="#86869e" d="M574.15 496.36s3.98-17.06 8.64-28.31c0 0-1.53-19.45.56-37.18 2.09-17.74 3.4-34.11 6.16-46.73 2.76-12.62 4.09-29.32 5.68-38.55 1.59-9.23 3-16.86 3-16.86l-37.11-.11-143.51.11-51.17-2.3-37.87 78.52-.65 93.45 246.27-2.03Z"/>
    <path fill="none" stroke="#c3c3f4" stroke-width="1.2" d="M353.77 483.06s.34-11.26.68-24.56c.34-13.3 2.73-26.95 2.73-26.95s13.3-3.31 34.11-1.71 34.29-.04 53.04.32 32.64-1.36 47.28-1.36 25.9.6 34.12 2.57c0 0-4.13 7.46-4.47 24.74s-.34 21.49-.34 21.49-4.44-.04-37.18 2.03c-32.75 2.07-54.58 1.76-76.76 3.45-22.17 1.69-53.22-.02-53.22-.02Z"/>
  </g>
  <path fill="#1e3e47" d="m524.41 204.01 35.99-18.45-15.97 56.81-14.29-4.97-5.73-33.39z"/>
  <g fill="none" stroke-width="1.2" clip-path="url(#f)">
    <path stroke="#1e3e47" d="m524.41 204.01 35.99-18.45-15.97 56.81-14.29-4.97-5.73-33.39z"/>
    <path stroke="#c3c3f4" d="M341.52 497.04s-.71-9.58.65-33.45c1.36-23.86 1.79-41.45 1.79-41.45s18.42 0 43.92.12c24.31.11 37.18 1.66 66.86-1.52 29.68-3.18 51.72-2.18 85.59-2.18 0 0-2.01 8.89-3.71 27.99-1.71 19.1.65 42.64-3.41 51.17m13.3 1.03s.4-12.53-.31-28.31c-.71-15.79-.65-27.67 1.03-41.98 1.67-14.31.6-20.45.6-20.45s-10.95-.29-34.1 2.05c-23.16 2.34-43.99 1.68-62.04 4.09-18.05 2.41-61.06-1.75-83.24-1.75h-33.09s-2.45 5.9-2.45 24.57-1.3 61.78-1.3 61.78m73.02-93.81s-11.17-.17-26.77-.17c-16.47 0-43.12-.88-43.12-.88s1.71-5.67 7.68-18.56c6.37-13.74 13.61-28.56 19.96-41.25 3.58-7.17 6.1-13.04 6.1-13.04l47.03 3.16"/>
  </g>
  <path fill="none" stroke="#567293" stroke-width="1.2" d="M552.42 334.19s26.17-1.49 42.13 0c0 0-4.65 9-21.05 33.22-16.41 24.22-21.08 30.34-21.08 30.34l-53.98 3.41"/>
  <path fill="none" stroke="#567293" stroke-linecap="round" stroke-width="7" d="M551.66 188.18s-1.82 15.77-9.11 29.81m-.53-26.34s-2.24 14.49-7.78 22.12"/>
  <path fill="none" stroke="#86a09e" stroke-linecap="round" stroke-width="7" d="M557.26 174.96s.38 29.09-4.84 40.99M545.83 181s.93 15.95-5.58 30.41m-1.95-23.3s.03 12.28-6.93 23.3"/>
  <g fill="none" clip-path="url(#g)">
    <path stroke="#b1d1d7" stroke-linecap="round" stroke-width="11" d="M533.75 190.12s.83 3.62.83 8.07m6.82-14.48s1.02 3.87 1.02 10.37m7.83-18.2v12.23m8.78-16.51s1.16 2.41 0 10.4"/>
    <path stroke="#b2a1c2" stroke-width="1.2" d="M122.91 413.98s-3.41 56.31-7.25 84.86m5.12-96.82s-4.97 65.7-7.25 98.09m32.41-156.95s-3.7 34.52-5.69 94.87c-1.99 60.36-1.99 64.64-1.99 64.64m3.84-142.85s-4.12 21.34-6.39 42.2c-2.27 20.86-.43 21.79-3.84 40.1-3.41 18.31-5.12 47.26-5.12 47.26m.85-79.03s-4.09 27.35-4.09 56.06m28.99-177.46s-3.9 4.78-1.46 13.82m6.27-14.2s-2.64 7.2-1.59 10.95m4.9-10.95s-2.32 3.6-.78 11.12m4.77-11.12s-1.93 1.88-.34 8.55"/>
  </g>
  <path d="M521.29 195.57s8.21-7.58 15.67-16.4c7.47-8.81 9.1-13.06 11.19-21.73 2.1-8.67 4.95-11.49 7.91-12.8 2.97-1.31 11.07-2.33 17.43 9.9 6.36 12.23 7.92 36.24.53 56.87-7.38 20.62-13.87 30.96-13.87 30.96l-17.15.78s17.1-39.71 18.35-68.19c0 0-24.11 15.13-35.31 27.68l-4.76-7.07Z"/>
  <path fill="none" stroke="#000" stroke-width="1.2" d="M521.29 195.57s8.21-7.58 15.67-16.4c7.47-8.81 9.1-13.06 11.19-21.73 2.1-8.67 4.95-11.49 7.91-12.8 2.97-1.31 11.07-2.33 17.43 9.9 6.36 12.23 7.92 36.24.53 56.87-7.38 20.62-13.87 30.96-13.87 30.96l-17.15.78s17.1-39.71 18.35-68.19c0 0-24.11 15.13-35.31 27.68l-4.76-7.07Z"/>
  <path fill="none" stroke="#000" stroke-linecap="round" stroke-width="7" d="M533.75 190.12s.83 3.62.83 8.07m6.82-14.48s1.02 3.87 1.02 10.37m7.83-18.2v12.23m8.78-16.51s1.16 2.41 0 10.4"/>
  <g clip-path="url(#h)">
    <path fill="none" stroke="#c3c3f4" stroke-width="1.2" d="m508.68 390.93 38.76-2.42 28.75-46-23.77-.35m-136.85-.6s-18.76-1.1-43.86-1.44c0 0-13.15 26.99-24.42 55.26l57.31.18m0-11.43s-25.04.6-40.05.6l10.5-34.73 38.08 2.07m-2.73 9.2-26.24-2.05-3.12 15.69s13.24.12 23.9.12m123.84-16.45h11.94l-5.97 13.59-10.75.24m4.09-23.04h18.86c7.54 0 14.12.31 14.12.31l-19.26 29.97-20.2.04"/>
    <path fill="none" stroke="#567293" stroke-width="1.2" d="M559.85 498.39s.43-4.84 2.25-38.19c1.82-33.34 3.86-64.03 3.86-64.03l13.89-9.25s-3.97 18.88-6.39 39.94c-2.42 21.06-7.51 72.23-7.51 72.23m-13.64-2.41.11-100.52"/>
    <path fill="#af601d" d="m164.13 498.41 9.52-34.81s-3.27-6.81.58-14.65l.54-21.83 8.12-69.25 8.82-35.48 50.51-16.73 10.23 1.7-8.53 187.99.37 2.73-80.17.34Z"/>
    <path fill="none" stroke="#000" stroke-width="1.2" d="m164.13 498.41 9.52-34.81s-3.27-6.81.58-14.65l.54-21.83 8.12-69.25 8.82-35.48 50.51-16.73 10.23 1.7-8.53 187.99.37 2.73-80.17.34Zm-24.59-.02s2.73-16.01 3.07-35.12c.34-19.1 6.22-122.47 6.22-122.47l-27.71 5.78-51.89 125.7-2.32 29.2 72.63-3.09Z"/>
    <path fill="none" stroke="#744d28" stroke-width="1.2" d="M237.79 302.29s-6.14 140.43-12.96 198.17m15.69-167.49s.49 24.32-2.13 38.14c-2.62 13.83 2.15 32.71-.59 53.06-2.74 20.34-.83 39.96-.83 39.96m-1.25-157.65s-2.74 135.15-25.22 192.55m21.56-196.74s-3.83 126.64-24.29 196.73m7.53-179.75 7.83 30.1s-5.81 90.06-16.04 145.28m8.04-183.85s10.19 7.56 9.1 28.78"/>
    <path fill="#721814" d="M140.9 459.83s4.57-4.58 8.57-13.28c4.01-8.7 3.86-10.98 1.57-12.28-2.29-1.3-.36-6.89 2.85-9.14 3.21-2.25 8.85-5.62 9.15-25.88.3-20.26-.83-39.43.99-63.61 1.82-24.18 4.5-36.38 4.5-36.38l-22 6.74-7.99 97.56-2.95 58.48 5.31-2.22Z"/>
    <path fill="none" stroke="#000" stroke-width="1.2" d="M140.9 459.83s4.57-4.58 8.57-13.28c4.01-8.7 3.86-10.98 1.57-12.28-2.29-1.3-.36-6.89 2.85-9.14 3.21-2.25 8.85-5.62 9.15-25.88.3-20.26-.83-39.43.99-63.61 1.82-24.18 4.5-36.38 4.5-36.38l-22 6.74-7.99 97.56-2.95 58.48 5.31-2.22Z"/>
  </g>
  <path fill="#e0b995" d="M211.59 387.96s10.33-39.82-7.83-52.32l-11.78 15.22v5.16l9.55-12.87 1.71 3.43-4.53 7.27s2.94-5.59 9.51-1.71c6.56 3.88 3.38 35.82 3.38 35.82Z"/>
  <path fill="#d49068" d="m295.64 271.3.48 9.12s11.8.16 14.81-3.68l2.87-10.59"/>
  <path fill="none" stroke="#000" stroke-width="1.2" d="m295.64 271.3.48 9.12s11.8.16 14.81-3.68l2.87-10.59"/>
  <path fill="#e0b995" d="M191.97 396.17s12.47-12.74 15.22-20.53c2.75-7.79 5.67-12.98 0-19.61-5.67-6.62-11.58 4.14-12.12 7.61-.54 3.47-3.63 10.59 0 11.99 3.63 1.41 6.79 1.42 9.11-6.37 2.32-7.79 2.32-10.68 2.32-10.68s3.26 3.39 0 11.9-4.73 10.93-11.96 10.93l-2.56 14.75Z"/>
  <path fill="#d49068" d="M295.28 271.62s3.32-2.11 6.08-3.95c2.76-1.85 3.24-2.78 6.48-2.78s4.78.26 6.82.43c2.05.17 2.46.14 2.46.14s.66 1.94-1.08 2.76"/>
  <path fill="none" stroke="#000" stroke-width="1.2" d="M295.28 271.62s3.32-2.11 6.08-3.95c2.76-1.85 3.24-2.78 6.48-2.78s4.78.26 6.82.43c2.05.17 2.46.14 2.46.14s.66 1.94-1.08 2.76"/>
  <path fill="#e0b995" d="M206.49 410.14s3.45-23.49 3.45-37.52c0 0-.16 8.7-6.71 13.75s-8.7 18.41-8.7 18.41 2.44-11.58 9.23-8.61c6.78 2.96 2.74 13.97 2.74 13.97Z"/>
  <g clip-path="url(#i)">
    <path fill="none" stroke="#e0b995" stroke-width="1.2" d="M214.77 389.93s-5.14 27.31-14.95 50.49c-9.82 23.18-20.59 26.05-24.4 14.23l9.33-22.78m25.19-98.93s11.35 8.52 8.39 44.11c-2.96 35.59-13.97 122.73-13.97 122.73m-14.33-2.05 28.3-111.21m-17.29 34.56s4.66-15.69-2.34-14.28c-7 1.41-28.04 52.8-28.04 52.8"/>
    <path fill="#e0b995" d="M201.52 428.9s-8.87 18.71-10.47 20.47c-1.61 1.75 7.65-27.53 7.65-35.39 0 0-7.73 10.96-13.1 24.06-5.38 13.09-9.65 21.8-4.31 21.8s17.93-13.45 20.23-30.93Z"/>
  </g>
  <path fill="#af601d" d="M276.33 270.32s5.13-.99 11.01-.49c5.88.49 9.12.17 9.12.17s-.65 4.45.06 8.29c.71 3.84 2.5 5.19 2.5 5.19l-1.79 2.58s-1.28-1.37-6.22-.51c-4.95.86-19.53 2.99-19.53 2.99l-2.75-8.03 7.61-10.18Z"/>
  <path fill="none" stroke="#000" stroke-width="1.2" d="M276.33 270.32s5.13-.99 11.01-.49c5.88.49 9.12.17 9.12.17s-.65 4.45.06 8.29c.71 3.84 2.5 5.19 2.5 5.19l-1.79 2.58s-1.28-1.37-6.22-.51c-4.95.86-19.53 2.99-19.53 2.99l-2.75-8.03 7.61-10.18Z"/>
  <g clip-path="url(#j)">
    <path fill="#3b5378" d="M271.59 279.35s2.76 11.96 3.41 38.92c.65 26.96 7.82 75.87 7.82 75.87l-16.03 5.1-.18 41.51s-4.61 3.07-7.32 3.07v24.9s-8.5 9.36-14.67 10.91c0 0-.71-17.05-1.36-30.69-.65-13.64 1.08-31.76 1.05-47.78-.03-16.01-.03-33.58 1-49.96 1.02-16.38 1.71-40.53 1.02-51.68l25.27-20.17Z"/>
    <path fill="none" stroke="#000" stroke-width="2" d="M271.59 279.35s2.76 11.96 3.41 38.92c.65 26.96 7.82 75.87 7.82 75.87l-16.03 5.1-.18 41.51s-4.61 3.07-7.32 3.07v24.9s-8.5 9.36-14.67 10.91c0 0-.71-17.05-1.36-30.69-.65-13.64 1.08-31.76 1.05-47.78-.03-16.01-.03-33.58 1-49.96 1.02-16.38 1.71-40.53 1.02-51.68l25.27-20.17Z"/>
  </g>
  <path fill="#314864" d="m199.75 206.4-2.22-7.42s13.99-12.36 28.31-1.79c14.33 10.58 22.06 17.23 27.23 31.92 5.17 14.68 5.86 24.66 10.97 27.59 5.12 2.92 5.71 2.58 5.71 2.58s-1.28 4.11 2.64 5.63c3.92 1.52 4.18 1.28 4.18 1.28l2.5 5.97s-4.15 4.32-14.36 15.99c-10.2 11.67-25.75 26.19-42.47 22.63 0 0 1.89 2.33-1.02 3.56-2.92 1.23-3.29-2.52-6.47-6.44-3.18-3.92-7.58-12.14-7.58-12.14l-7.44-89.35Z"/>
  <g clip-path="url(#k)">
    <path fill="none" stroke="#314864" stroke-width="2" d="m199.75 206.4-2.22-7.42s13.99-12.36 28.31-1.79c14.33 10.58 22.06 17.23 27.23 31.92 5.17 14.68 5.86 24.66 10.97 27.59 5.12 2.92 5.71 2.58 5.71 2.58s-1.28 4.11 2.64 5.63c3.92 1.52 4.18 1.28 4.18 1.28l2.5 5.97s-4.15 4.32-14.36 15.99c-10.2 11.67-25.75 26.19-42.47 22.63 0 0 1.89 2.33-1.02 3.56-2.92 1.23-3.29-2.52-6.47-6.44-3.18-3.92-7.58-12.14-7.58-12.14l-7.44-89.35Z"/>
    <path fill="none" stroke="#8f531d" stroke-width="1.2" d="m150.22 330.32-8.5 115.23m14.46-122.91s-7.81 77.57-7.81 113"/>
    <path fill="#3b5378" d="M198.38 195.48s4.09 6.08 4.43 14.3c0 0 17.56 29.03 18.93 66.21 1.38 37.18-1.02 51.51-8.87 57.31-7.85 5.8-15.87 1.71-17.74-5.46 0 0 .32 53.02-4.09 78.27 0 0-4.41 4.09-9.89 6.82 0 0 3.34 6.07 1.54 9.95-1.8 3.89-7.33 8.48-7.33 8.48l-1.37 13.67s-3.41.17-6.31-2.23c-2.9-2.41-3.2-9.23-.38-12.64l-10.93-184.65s10.17-24.44 15.6-31.71c5.44-7.27 26.41-18.32 26.41-18.32Z"/>
    <path fill="none" stroke="#1e3e47" stroke-width="2" d="M198.38 195.48s4.09 6.08 4.43 14.3c0 0 17.56 29.03 18.93 66.21 1.38 37.18-1.02 51.51-8.87 57.31-7.85 5.8-15.87 1.71-17.74-5.46 0 0 .32 53.02-4.09 78.27 0 0-4.41 4.09-9.89 6.82 0 0 3.34 6.07 1.54 9.95-1.8 3.89-7.33 8.48-7.33 8.48l-1.37 13.67s-3.41.17-6.31-2.23c-2.9-2.41-3.2-9.23-.38-12.64l-10.93-184.65s10.17-24.44 15.6-31.71c5.44-7.27 26.41-18.32 26.41-18.32Z"/>
  </g>
  <path fill="none" stroke="#000" stroke-width="1.2" d="M186.79 222.34s-6.14-3.32-12.79-3.15c0 0-12.9 12.15-14.08 42.83"/>
  <g clip-path="url(#l)">
    <path fill="none" stroke="#567293" stroke-width="1.2" d="M180.22 210.66s4.65.51 9.02.68c4.37.17 5.39.97 5.39 3.9s-2.27 3.7-4.6 2.76c-2.33-.95-3.25-.26-.79 2.77 2.46 3.03 10.99 13.5 13.41 28.74 2.42 15.24 3.84 29.24 3.84 29.24m-9.64-75.23v4.41s3.41 0 6.83 8.36 6.84 12.71 10.75 29.22c3.91 16.51 2.73 33.84 2.73 33.84m-22.33-5.41s-4.63-20.3-11.29-34.8c-6.65-14.5-8.65-16.2-8.65-16.2s-13.66 15.91-10.51 47.95m8.81-40.29s.85 5.03-1.22 12.64-4.68 21.25-2.63 30.84m5.56-41.4s3.24 4.52 5.26 12.82c2.02 8.3 6.28 14.1 5.43 22.8m18.42-45.96s-.85 11.42-3.58 18.59m5.29-10.43s-1.11 6.71-3.48 15.01m5.7-9.76s-5.49 9.45-1.62 13.76c3.87 4.31-1.45 7.06 0 11.48m19.98-27.13s6.54 5.12 14.89 4.95c8.36-.17 9.38-4.91 8.53-9.7-.85-4.8-5.12-9.57-5.12-9.57m-10.54 6.3s6.62-1.5 10.72 3.26m-12.72 28.47s13.57.1 23.63-10.75m-29.39 17.57s22.32-3.06 36.69 0m-43.06 47.42-3.46-7.68s8.64 6.44 18.42 1.52c9.78-4.93 22.52-14.07 30.87-23.86 8.36-9.79 11.43-10.9 11.43-10.9m-76.15 37.34s-1.46 16.45 4.02 21.93m-5.82-20.4s-2.76 15.06 4.52 20.82m9.29-20.93s2.24 12.05-4.84 19.55m7.4-17.15s1.14 11.54-5.07 17.56m50.41-27.7v30.54c0 16.95 1.06 28.64 2.77 41.27s.6 22.44.6 22.44-10.47 14.63-7.75 24.91c2.72 10.28 3.78 9.7 8.7 7.74l-.87 11.26-5.11 2.75m10.59-154.25s1.34 20.31 2.36 41.05c1.02 20.74 7.56 64.72 7.56 64.72m-93.16-89.31s-7.23 28.69-8.4 53.52c-1.17 24.83-.66 48.62-3.46 57.6 0 0 5.63 5.53 1.41 9.78-4.22 4.25-6.46 4.25-7.82 9.19-1.36 4.95 1.39 7.85 4.61 6.99m19.65-137.08s-1.59 7.43-1.26 38.07c.33 30.64-1.12 40.99-6.62 51.34-5.51 10.35-5.38 15.04-5.38 15.04m43.75-258.86s1.48 1.62.17 3.75.19 3.41 1.88 4.09c1.68.68 8.64-1.79 2.73-11.94m-22.69-5.96s13.02-3.04 9.55 8.45m-16.55-4.35s-2.45 5.9 1.83 8.91"/>
  </g>
  <path fill="#996a89" d="M136.47 347.63s20.31-10.94 26.87-31.56c6.56-20.63 7.93-29.18 7.93-29.18s-20.29.7-26.95 1.72l-8.13 34.45-.59 25.09"/>
  <path fill="none" stroke="#000" stroke-width="1.2" d="M136.47 347.63s20.31-10.94 26.87-31.56c6.56-20.63 7.93-29.18 7.93-29.18s-20.29.7-26.95 1.72l-8.13 34.45-.59 25.09"/>
  <path fill="#996a89" d="m164.42 288.97 10.01-15.03s11.52-2.05 17.23-2.39l-5.28 11.62-21.97 5.81Z"/>
  <path fill="none" stroke="#000" stroke-width="1.2" d="m164.42 288.97 10.01-15.03s11.52-2.05 17.23-2.39l-5.28 11.62-21.97 5.81Z"/>
  <g clip-path="url(#m)">
    <path fill="#891814" d="m65.77 496.68-6.4-3.39s-.01-2.55 1.49-45.53c1.5-42.98 1.16-61.35 4.33-84.53 3.18-23.18 1.94-34.54 4.03-51.6 2.09-17.06 1.9-33.16 6.21-55.01 4.31-21.85 6.23-34.54 19.33-48.61 13.1-14.07 18.34-19.19 18.34-19.19s-5.26-5.97-5.26-18.25-.4-26.61 16-31.73c16.4-5.12 28.52 1.02 34.89 8.87 6.37 7.85 9.72 19.34-3.03 29.46-12.75 10.11-16.51 12.84-16.51 12.84s2.39 4.4 3.07 8.95c0 0 7.19 1.24 8.78 14.93 0 0 10.67 7.81 10.67 26.93 0 0 1.56 3.43-2.42 17.76 0 0 3 2.73 4.04 9.21 0 0 4.6-.55 12.08 5.46l-7.56 13.64-19.02 2.05s-3.84.66-6.74 29.32c-2.9 28.67-7.68 65.05-7.68 90.52H123.5c-4.22 0-6.03 3.84-6.03 3.84s-.28 6.01-2.42 14.82c-2.14 8.8-2.14 17.59-2.14 17.59s.35 2.24-7.33 5.97c-7.68 3.73-11.63 5-13.24 14.39-1.6 9.39-2.97 14.69-2.97 14.69l-6.14 3.32-1 14.67-16.49-1.38Z"/>
    <path fill="none" stroke="#721814" stroke-width="2" d="m65.77 496.68-6.4-3.39s-.01-2.55 1.49-45.53c1.5-42.98 1.16-61.35 4.33-84.53 3.18-23.18 1.94-34.54 4.03-51.6 2.09-17.06 1.9-33.16 6.21-55.01 4.31-21.85 6.23-34.54 19.33-48.61 13.1-14.07 18.34-19.19 18.34-19.19s-5.26-5.97-5.26-18.25-.4-26.61 16-31.73c16.4-5.12 28.52 1.02 34.89 8.87 6.37 7.85 9.72 19.34-3.03 29.46-12.75 10.11-16.51 12.84-16.51 12.84s2.39 4.4 3.07 8.95c0 0 7.19 1.24 8.78 14.93 0 0 10.67 7.81 10.67 26.93 0 0 1.56 3.43-2.42 17.76 0 0 3 2.73 4.04 9.21 0 0 4.6-.55 12.08 5.46l-7.56 13.64-19.02 2.05s-3.84.66-6.74 29.32c-2.9 28.67-7.68 65.05-7.68 90.52H123.5c-4.22 0-6.03 3.84-6.03 3.84s-.28 6.01-2.42 14.82c-2.14 8.8-2.14 17.59-2.14 17.59s.35 2.24-7.33 5.97c-7.68 3.73-11.63 5-13.24 14.39-1.6 9.39-2.97 14.69-2.97 14.69l-6.14 3.32-1 14.67-16.49-1.38Z"/>
  </g>
  <path fill="#721814" d="m140.62 191.91 1.95 7.31 3.68 2.27 3.97 6.18 1.34 6.13 4.16 5.05 4.9 13.91 1.5 14.94-2.58 10.81 3.77 9.26 6.03 1.32 6.08 4.12-8.07 14.17-17.13.76-6.27-2.4-4.16-14.85-1.71-21.22-1.99-22.47-3.73-16.53-4.02-9.46 12.28-9.3z"/>
  <g fill="none" stroke-width="1.2" clip-path="url(#n)">
    <path stroke="#926d43" d="M105.43 216.29s-9.89 9.46-16.72 33.21m38.21-10.36s-2.05-11.65-8.19-14.33c-6.14-2.68-10.86-1.7-10.86-1.7s-2.81 18.76 7.11 28.65c9.92 9.89 22.51 16.11 24.22 27.5m-8.53-20.67s-1.46-3.55-7.33-7.74c-5.86-4.2-9.39-21.25-9.39-21.25s11.44 3.14 14.36 12.2c2.92 9.06 2.36 16.8 2.36 16.8Zm4.33 23.54s-3.68-8.53-12.76-15.35c-9.07-6.82-19.68-14.92-14.38-28.78l-.97-3.22s-9.32 18.36-8.29 45.65c1.02 27.29 2.05 43.66 2.05 43.66s8.9-21.15 19.13-32.41c10.23-11.25 15.21-9.55 15.21-9.55Zm-44.21 44.35s-.71 9.17 4.07 9.17 7.01-3.81 14.76-18.43S127.9 290.4 135 286.26c0 0-10.88 9.62-20.02 29.8-9.14 20.19-35.32 115.14-35.32 115.14M135 291s-10.47 15.37-19.93 41.46c-9.47 26.09-17.14 61.56-17.14 61.56m44.17-108.28s-4.86-3.5-9.38 19.29c-4.52 22.79-15.51 73.31-11.34 94.1m-2.09 2.85s-4.32-1.26-6.36 10.66c0 0-1.63 4.37-7.33 7.31-5.7 2.94-4.56 5.6-4.56 8.51s.61 4.52 1.92 4.52 2.86-.71 4.9-7.04c0 0 1.6-1.03.8 2.2-.8 3.23.46 2.76-.17 5.44-.63 2.68 1.4 2.16 1.4 4.76s-3.87 4.64-6.94 6.01c-3.07 1.37-5.07 5.48-8.63 3.42-3.55-2.06 3.03-7.35 1.36-12.97m-11.4 25.03s-3.72.16-2.02-3.4c1.71-3.56 2.02-9.21 4.41-16.03s8.73-24.71 8.73-24.71m36.9-8.94s-9.14 1.06-13.04-4.88c-3.9-5.94-3.9-3.75-3.9-3.75l17.52-42.64-.58 51.28Zm-8.79-5.41 7.64-27.44m-28.11-166.14s14.33-3.41 24.22 4.09c9.89 7.5 11.29 50.15 11.29 50.15m-19.82-48.78s7.85 1.74 10.92 12.96c3.07 11.22 7.85 30.36 7.85 30.36M88.13 365.37s-2.65-28.32 0-62.78c2.65-34.45 5.81-60.04 18.76-75"/>
    <path stroke="#4a100e" d="M70.32 465.4s.99-46.45 2.7-73.92 2.83-47.22 4.78-69.59c1.95-22.36.06-53.79 6.85-78.31 6.79-24.52 13.28-30.95 13.28-30.95"/>
  </g>
  <path fill="none" stroke="#926d43" stroke-width="1.2" d="M130.33 213.22s-6.98-1.88-6.98-16.54v-14.67s-.98-1.02-3.42-1.19c-2.44-.17-3.75-1.88-1.32-5.63 2.42-3.75 5-9.21 5-9.21s-1.98-.26-4.43-.26-1.89-3.02-.56-4.62l-1.12-2.63s4.89 3.03 2.44-2.92c0 0 4.21-1.17 10.56-1.69 6.35-.51 12.64-3.41 12.64-3.41s-2.74-3.24.25-3.41c2.99-.17 3.25 2.22 5.46 2.22s3.8.51 3.8.51"/>
  <path fill="#d49068" d="m136.84 202.3-3.47 6.65-5.03-5.43-2.1-23.41-2.89-3.74s.03-3.11 3.4-7.18l4.57-9.19s15.39-7.2 26.48 1.09c0 0 1.4 4.2.36 7.09-1.04 2.9.66 5.12-2.83 12.79-3.5 7.68-3.53 10.75-8.96 12.11-5.42 1.36-8.29.51-8.29.51l-1.24 8.7Z"/>
  <path fill="none" stroke="#000" stroke-width="2" d="m136.84 202.3-3.47 6.65-5.03-5.43-2.1-23.41-2.89-3.74s.03-3.11 3.4-7.18l4.57-9.19s15.39-7.2 26.48 1.09c0 0 1.4 4.2.36 7.09-1.04 2.9.66 5.12-2.83 12.79-3.5 7.68-3.53 10.75-8.96 12.11-5.42 1.36-8.29.51-8.29.51l-1.24 8.7Z"/>
  <path fill="none" stroke="#8f531d" stroke-width="1.2" d="M139.15 219.87s6.45-.7 8.07-6.07m-9.14-9.45c.75 12.11-4.34 8.28-4.34 8.28s7.44 5.88 10.75-2.48m-2.04 35.14s2.19 6.14 8.6 3.58c6.41-2.56 8.96-7.67 8.96-7.67m-14.33-2.4s.99 2.99 6.31 2.99 6.14-7.93 4.95-12.54m1.8 28.49s-3.85 2.56-6.74 5.46c0 0 4.97 1.28 8.55.85"/>
  <path fill="none" stroke="#926d43" stroke-width="1.2" d="M114.3 367.75s-2.42 2.96-2.73 18.61c-.31 15.65-.6 18.57-.6 18.57l-3.73 10.54"/>
  <path fill="none" stroke="#000" stroke-width="2" d="M176.19 220.77s2.06 1.02 5.31 8.34c3.25 7.31 6.56 13.68 9.55 21.25 8.78 22.18 12.19 42.35 12.19 42.35"/>
  <g clip-path="url(#o)">
    <path fill="none" stroke="#000" stroke-width="1.2" d="M214.59 213.22s5.01-2.9 8.13-7.68m-4.8 13.04s1.85-3.66 7.62-3.14c5.77.51 5.09-1.7 9.69-1.7m-10.41-4.26s6.55-2.72 12.11 0m-13.13 12.81s5.46-4.8 17.4-3.16m11.88 16.94s1.75 10.82-11.8 14.28m-2.89 30.07s18.5-15.44 30.27-16.72m-26.16 29s5.7-2.74 15.08-12.27c9.38-9.54 15.3-12.06 18.76-12.06m-9.22 24.33s1.84 37.55 4.78 57.66c2.94 20.11 4.44 25.29 4.44 25.29l-9.81 20.52m-89.22-92.23s-5.34 22.49-5.34 47.09v61.04"/>
    <path fill="#d49068" d="M448.44 408.21s.35 5.3-1.88 8.35c0 0 .56 3.41-.49 9.02-1.05 5.61-3.77 9.89-2.75 12.96 1.02 3.07 2.35 5.39 3.04 7.32.68 1.93 1.98 2.92 3.21 3.07 1.23.16 2.25-.12 2.25-.12s.47 2.08 2.28 2.16c1.81.09 2.22-.8 2.22-.8s.75.65 2.05.12c1.3-.53 1.64-1.96 1.64-1.96s1.3-.48 1.71-2.46c.41-1.98.59-3.05.59-3.05s1.66-.64 1.87-2.27c.2-1.64.24-1.88.6-4.25s-1.29-2.57-2.82-4.28-3.1-5.08-4.12-8.15c-1.02-3.07-3.01-3.54-.31-7.31 2.7-3.78 5.58-11.11 5.58-11.11l-14.65 2.76Z"/>
    <path fill="none" stroke="#000" stroke-width="1.2" d="M448.44 408.21s.35 5.3-1.88 8.35c0 0 .56 3.41-.49 9.02-1.05 5.61-3.77 9.89-2.75 12.96 1.02 3.07 2.35 5.39 3.04 7.32.68 1.93 1.98 2.92 3.21 3.07 1.23.16 2.25-.12 2.25-.12s.47 2.08 2.28 2.16c1.81.09 2.22-.8 2.22-.8s.75.65 2.05.12c1.3-.53 1.64-1.96 1.64-1.96s1.3-.48 1.71-2.46c.41-1.98.59-3.05.59-3.05s1.66-.64 1.87-2.27c.2-1.64.24-1.88.6-4.25s-1.29-2.57-2.82-4.28-3.1-5.08-4.12-8.15c-1.02-3.07-3.01-3.54-.31-7.31 2.7-3.78 5.58-11.11 5.58-11.11l-14.65 2.76Z"/>
    <path fill="#d49068" d="M415.57 415.85s-1.93 6.31-3.12 10.06c-1.19 3.75-1.02 7.33 0 9.89 1.02 2.56 1.57 4.78-1.43 6.31-3 1.54-7.43-.51-10.33 2.9-2.9 3.41-5.12 8.63-8.02 9.63-2.9.99-4.78.99-4.78.99s.26 1.29-2.36 2.72c-2.62 1.43-4.54 1.75-5.62 1.14-1.09-.61-1.09-1.21-1.09-1.21s-2 1.16-3.18.07c-1.19-1.09-.37-1.73 1.13-2.72 1.5-.99 3.41-2.94 5.25-4.51 1.84-1.57 3.14-1.71 5.53-3.91s3.58-3.75 3.58-3.75.99-3.56 4.18-7.66c3.19-4.09 5.54-6.69 7.42-11.11 1.88-4.42 3.07-8.14 3.07-8.14l9.78-.71Z"/>
    <path fill="none" stroke="#000" stroke-width="1.2" d="M415.57 415.85s-1.93 6.31-3.12 10.06c-1.19 3.75-1.02 7.33 0 9.89 1.02 2.56 1.57 4.78-1.43 6.31-3 1.54-7.43-.51-10.33 2.9-2.9 3.41-5.12 8.63-8.02 9.63-2.9.99-4.78.99-4.78.99s.26 1.29-2.36 2.72c-2.62 1.43-4.54 1.75-5.62 1.14-1.09-.61-1.09-1.21-1.09-1.21s-2 1.16-3.18.07c-1.19-1.09-.37-1.73 1.13-2.72 1.5-.99 3.41-2.94 5.25-4.51 1.84-1.57 3.14-1.71 5.53-3.91s3.58-3.75 3.58-3.75.99-3.56 4.18-7.66c3.19-4.09 5.54-6.69 7.42-11.11 1.88-4.42 3.07-8.14 3.07-8.14l9.78-.71Zm-12.5 28.66s-.68-6.46 1.53-11.43c2.22-4.96 7.87-8.36 7.87-8.36m32.86 4.64s2.44.75 3.99-2.05c1.54-2.8 3.04-4.84 2.77-7.03-.27-2.18-1.8-4.68-4.37-5.48m8.71 4.33s1.97.71 3.23 3.02c1.26 2.3.48 3.91-2.25 6.65l-5.36 5.38"/>
  </g>
  <path fill="#567293" d="M525.53 312.66s4.66 14.1 5.97 20.27c1.31 6.17-.84 24-2.98 32.57 0 0 2.89 4.47.21 8.91-2.69 4.44-5.76 8.36-5.76 8.36l-1.44-1.19s-2.14 3.2-7.09 5.95c-4.95 2.75-6.17 4.13-2.56 5.48 0 0-5.63 2.05-6.65 6.31l-2.9-.68s-4.09 3.75-6.14 5.29-3.24.48-3.24.48-1.88.34-5.8 3-5.97 3.68-6.48 2.49 1.19-3.92 1.19-3.92-3.24.84-8.36 1.43c-5.12.59-6.65 2.42-11.43 3-4.78.58-6.58-1.19-6.58-1.19s-2.14 1.92-6.56 2.56c-4.43.63-11.76 4.36-17.56 2.48-5.8-1.88-.19 0-.19 0s-.19 4.35-7.49 5.37c-7.3 1.02-10.92-2.39-10.92-2.39l-2.34-.66s.12 1.23-4.31 2.54c-4.43 1.3-6.82 1.4-4.78-3.9l9.09-12.81 23.32-16.03 42.81-52.19 16.74-19.96 15.29-3.75 16.92 2.22Z"/>
  <path fill="none" stroke="#000" stroke-width="1.2" d="M525.53 312.66s4.66 14.1 5.97 20.27c1.31 6.17-.84 24-2.98 32.57 0 0 2.89 4.47.21 8.91-2.69 4.44-5.76 8.36-5.76 8.36l-1.44-1.19s-2.14 3.2-7.09 5.95c-4.95 2.75-6.17 4.13-2.56 5.48 0 0-5.63 2.05-6.65 6.31l-2.9-.68s-4.09 3.75-6.14 5.29-3.24.48-3.24.48-1.88.34-5.8 3-5.97 3.68-6.48 2.49 1.19-3.92 1.19-3.92-3.24.84-8.36 1.43c-5.12.59-6.65 2.42-11.43 3-4.78.58-6.58-1.19-6.58-1.19s-2.14 1.92-6.56 2.56c-4.43.63-11.76 4.36-17.56 2.48-5.8-1.88-.19 0-.19 0s-.19 4.35-7.49 5.37c-7.3 1.02-10.92-2.39-10.92-2.39l-2.34-.66s.12 1.23-4.31 2.54c-4.43 1.3-6.82 1.4-4.78-3.9l9.09-12.81 23.32-16.03 42.81-52.19 16.74-19.96 15.29-3.75 16.92 2.22Zm-6.31 10.06s-5.12 35.04-13.64 54.24c-8.53 19.2-9.21 22.17-9.21 22.17l-3.75.14s-4.26 3.62-12.11 6.18m16.71-72.52s-1.53 2.77-.85 9.92 2.04 9.55 2.04 9.55m-2.04 1.02s3.07 5.8 5.8 5.8 6.44-8.87 6.44-8.87m-20.26-1.02s-.51 3.28 2.05 9.72c2.56 6.44 2.87 13.42 5.44 13.96 2.57.54 6.33-2.03 10.08-10.04m-7.52 33.95s4.5-.72 7.21-5.39c2.7-4.67 4.23-8.65 7.47-19.36s3.84-13.48 5.29-22.05c1.45-8.56 2.31-10.05 2.31-17.19s1.64-12.6 1.64-12.6m5.12 10.92s3.15 10.79.14 27.59"/>
  <path fill="#d49068" d="M568.8 242.37s6.71-3.93 11.83-7.5 4.28-3.27 9.38-4.22c5.1-.94 7.33-.94 12.28-.94s7.85.29 7.85.29-.28 2.03-6.82 2.03-11.62 1.71-13.66 2.84c0 0 3.42-.27 3.93 1.13.51 1.4 2.05 1.31 2.22 3.08.17 1.77 1.06 3.69-1.26 3.75 0 0 1.03.41 3.63 1.09 2.6.68 4.11 3.13 1.21 2.54-2.9-.59-6.65 0-10.4.69s-7.55 2.05-11.28 2.39c-3.73.34-5.95-1.36-8.17-1.36l-.74-5.81Z"/>
  <path fill="none" stroke="#000" stroke-width="1.2" d="M568.8 242.37s6.71-3.93 11.83-7.5 4.28-3.27 9.38-4.22c5.1-.94 7.33-.94 12.28-.94s7.85.29 7.85.29-.28 2.03-6.82 2.03-11.62 1.71-13.66 2.84c0 0 3.42-.27 3.93 1.13.51 1.4 2.05 1.31 2.22 3.08.17 1.77 1.06 3.69-1.26 3.75 0 0 1.03.41 3.63 1.09 2.6.68 4.11 3.13 1.21 2.54-2.9-.59-6.65 0-10.4.69s-7.55 2.05-11.28 2.39c-3.73.34-5.95-1.36-8.17-1.36l-.74-5.81Z"/>
  <path fill="none" stroke="#8f531d" stroke-width="1.2" d="M564.45 154.03s29.74 25.78-10.51 100.61m6.24-97.77s14.74 5.4 0 68.03m-3.4-66.06s5.63-1.13 6.68 28.35m-9.96-24.65s.16-2 3.18 18.41m-8.97-13.23s3.21 3.61 5.3 13.3m-5.68-9.52v15.7"/>
  <path fill="none" stroke="#8f531d" stroke-width="4" d="M523.48 199.56s6.04-4.23 15.31-15.02c9.26-10.79 12.25-32.78 31.81-30.19"/>
  <path fill="none" stroke="#000" stroke-width="1.2" d="M457.51 390.52s12.42-23.72 22.41-43.57c10-19.85 14.06-26.78 23.78-30.02m-24.56 80.58s.26 4.27 6.82 2.13c6.57-2.13 9.4-5.83 12.97-14.92 3.57-9.09 8.52-22.6 8.52-22.6"/>
  <path fill="none" stroke="#c3c3f4" stroke-width="1.2" d="M521.53 357.98v-26.73m-74.29 58.68s6.39-1.4 12.28-16.24m64.47-49.6s-1.09 4.78-1.09 12.96-.16 17.46-.76 22.77m-28.33-26.18s-1.91 12.06.68 21.33c2.6 9.28 5.58 9.28 5.58 9.28m-5.75-36.75s-6.85 7.47-8.19 20.72c-1.34 13.24-3.75 17.85-3.92 28.58 0 0-1.56 3.57-6.31 5.2-4.75 1.63-10.49 5.53-10.49 5.53m16.29-34.12c0-.71-2.14 9.23-9.21 20.28-7.08 11.04-11.64 25.97-11.64 25.97l19.07-14.05m-4.36-27.03c-13.65 29.21-24.73 47.44-24.73 47.44s22.55-6.03 43.94-24.79m-12.47 16.28s7.57-1.79 13.29-13.9m-55.58 9.9s-1.93 2.33.69 5.44c2.62 3.11 3.48 2.75 5.17 1.9 0 0 .3 2.44-1.54 3.81s-5.28 3.69-8.52 4.89c-3.24 1.19-6.48 1.37-5.29-4.6s3.58-8.77 3.58-8.77m-6.13 4.67s-1.88 2.55-3.92 7.67c-2.05 5.12-3.44 5.72-7.16 5.72s-4.01-4.86-1.31-7.76"/>
  <path fill="#996a89" d="M400.51 419.26s11.45-8.97 20.31-16.03c8.86-7.06 13.63-16.52 25.68-25.24 12.05-8.72 18.48-10.84 28.72-28.79 10.23-17.95 20.37-31.59 20.37-31.59l8.3-3.07 9.53.68s3.99.68 8.71 3.41c4.72 2.73 7.35 4.01 7.35 4.01s-.03 14.48 4.24 20.03c4.26 5.55 8.24 6.21 14.18 4.28 5.94-1.93 9.35-6.01 12.08-9.38 2.73-3.37 2.47-8.64.47-14.93-2-6.28-3.88-9.98-3.88-9.98s2.05-3.9 2.56-19.96c.51-16.05-6.11-26.95-6.11-26.95l-11.63-9.6s-4.95-13.24-6.48-25.37c-1.54-12.13-3.07-25.93-11.6-35.31-8.53-9.38-19.27-16.38-27.46-18.93l-38.35 27.29s-7.02 2.86-6.85 11.41c.17 8.55 1.73 12.47 1.73 12.47s-2.42 1.19-1.9 6.48c.51 5.29-.68 8.7 1.19 13.65 1.88 4.95 1.68 6.99 5.46 9.72 3.78 2.73 4.09 3.43 5.46 5.29 1.36 1.86 1.88 2.9 1.88 2.9s-2.05 4.43-10.58 13.82c-8.53 9.38-20.13 18.95-26.78 25.07-6.65 6.12-7.79 7.51-10.55 14.33-2.76 6.82-1.7 10.06-3.41 19.27-1.71 9.21-3.27 13.27-4.81 20.08-1.53 6.81-3.75 10.33-3.92 18.66-.17 8.33-1.06 14.1-2.06 22.66-1.01 8.56-4.59 13.73-3.91 16.91.68 3.18 2.05 2.71 2.05 2.71Z"/>
  <path fill="none" stroke="#000" stroke-width="1.2" d="M400.51 419.26s11.45-8.97 20.31-16.03c8.86-7.06 13.63-16.52 25.68-25.24 12.05-8.72 18.48-10.84 28.72-28.79 10.23-17.95 20.37-31.59 20.37-31.59l8.3-3.07 9.53.68s3.99.68 8.71 3.41c4.72 2.73 7.35 4.01 7.35 4.01s-.03 14.48 4.24 20.03c4.26 5.55 8.24 6.21 14.18 4.28 5.94-1.93 9.35-6.01 12.08-9.38 2.73-3.37 2.47-8.64.47-14.93-2-6.28-3.88-9.98-3.88-9.98s2.05-3.9 2.56-19.96c.51-16.05-6.11-26.95-6.11-26.95l-11.63-9.6s-4.95-13.24-6.48-25.37c-1.54-12.13-3.07-25.93-11.6-35.31-8.53-9.38-19.27-16.38-27.46-18.93l-38.35 27.29s-7.02 2.86-6.85 11.41c.17 8.55 1.73 12.47 1.73 12.47s-2.42 1.19-1.9 6.48c.51 5.29-.68 8.7 1.19 13.65 1.88 4.95 1.68 6.99 5.46 9.72 3.78 2.73 4.09 3.43 5.46 5.29 1.36 1.86 1.88 2.9 1.88 2.9s-2.05 4.43-10.58 13.82c-8.53 9.38-20.13 18.95-26.78 25.07-6.65 6.12-7.79 7.51-10.55 14.33-2.76 6.82-1.7 10.06-3.41 19.27-1.71 9.21-3.27 13.27-4.81 20.08-1.53 6.81-3.75 10.33-3.92 18.66-.17 8.33-1.06 14.1-2.06 22.66-1.01 8.56-4.59 13.73-3.91 16.91.68 3.18 2.05 2.71 2.05 2.71Z"/>
  <g fill="none" clip-path="url(#p)">
    <path stroke="#b2a1c2" stroke-width="1.2" d="M508.02 311.81s-8.07-.85-15.49 3.75c0 0-3.58 7.31-6.91 10.24-3.32 2.92-.4 0-.4 0s.76 1.3-5.3 10.06c-6.07 8.76-5.24 8.88-6.41 12.36-1.16 3.48-3.07 2.95-7.25 8.6-4.18 5.65-4.52 8.03-11.17 12.45s-19.27 15.46-19.27 15.46m29.25-123.24s13.68 13.04 39.99-3.89c0 0-14.84 10.67-34.11 1.99m-8.33-8.16s7.45 4.26 19.07 4.26m32.66-65.16s12.2 15.01 13.74 40.08m-18.87-39.05s10.34 13.99 9.32 34.28m-6.31 58.85-5.85 18.11m-100.76 86.44s.64-14.44 2.73-20.88c2.09-6.45 2.36-9.59 6.14-23.35 3.78-13.76 3.6-30.95 12.26-35.18m-5.43 17.26s2.54-3.12 8.57-6.93c6.03-3.81 6.16-3.24 12.61-2.9 6.44.34 11.46 5.37 11.46 5.37m-33.73 12.03s1.73 4.24 6.52 8.87c4.8 4.63 9.69 5.18 7.87.43 0 0 19.1.27 29.34-11.77m-50.78 59.34s12.41-7.48 19.62-14.54m34.57-102.03s-4.3 20.5 4.38 25.57m.3-25.69s-5.07 17.19 5.38 22.13c10.45 4.94 18.06.64 20.97-5.91s8.32-16.02 7.4-24.17m-29.11 10.97s-4.15 15.66 2.56 19.42m-57.56 21.35s2.91-6.82 14.23-9.34c11.32-2.52 11.5-2.15 20.64 0s15.29 5.3 19.94 2.15m36.3-47.82s-.84 13.23 3.95 24.32 9.37 16.27 14.62 13.1m-13.68-36.62s1.02 17.37 8.36 23.34m18.38-15.93s8.46-4.69 9.76 6.89c1.3 11.58-4.44 26.55-.68 35.89 3.75 9.34 3.75 13.36 3.75 16.47s-2.26 6.61-7.01 9.53c-4.76 2.92-7.47 5.61-11.73.51"/>
    <path stroke="#e7823a" stroke-width="2" d="M541.82 463.6 495.84 38.78"/>
  </g>
  <path fill="#d49068" d="M539.69 282.13s-6.48.49-10.8 0-8.47 1.45-11.37 1.13c0 0-.98.57-.07 1.77.92 1.19 3.3 1.83 3.3 1.83s-1.5.47-2.9 1.37c-1.4.89-.77 1.36-.77 2.07s1.48 1.47 1.48 1.47-.2 1.02.31 1.98c.51.95 1.96 1.35 1.96 1.35s-.91.64 0 1.35c.91.7 2.39 1.18 2.39 1.18s-.7.76-.09 1.43c.62.67 6.35-.23 9.36-1.15 3.01-.92 9.91-.27 9.91-.27l.06-11.39 4.3-1.36-.57-3.86-6.82.63"/>
  <path fill="none" stroke="#000" stroke-width="1.2" d="M539.69 282.13s-6.48.49-10.8 0-8.47 1.45-11.37 1.13c0 0-.98.57-.07 1.77.92 1.19 3.3 1.83 3.3 1.83s-1.5.47-2.9 1.37c-1.4.89-.77 1.36-.77 2.07s1.48 1.47 1.48 1.47-.2 1.02.31 1.98c.51.95 1.96 1.35 1.96 1.35s-.91.64 0 1.35c.91.7 2.39 1.18 2.39 1.18s-.7.76-.09 1.43c.62.67 6.35-.23 9.36-1.15 3.01-.92 9.91-.27 9.91-.27l.06-11.39 4.3-1.36-.57-3.86-6.82.63"/>
  <path fill="#996a89" d="m540.91 300.21.42-14.6 2.36-1.11 2.03-.82-.61-.98-5.62 1-4.18.07-2.81-.69-2.09-2.08 14.46-3.4 5.39 4.04-.71 15.65-3.19 3.97-5.45-1.05z"/>
  <path fill="none" stroke="#4a100e" stroke-width="1.2" d="M460.89 358.94c0 .88-1.01-10.63 10.13-27.86 11.14-17.23 16.95-25.98 32.87-27.46 15.93-1.48 19.95 3.74 24.28 7.84 4.33 4.09 5.72 5.97 8.11 11.17 2.39 5.2 5.54 9.32 5.54 12.37s1.19 3.92 3.16 2.39c1.97-1.53 3.49-2.61 2.73-4.46-.76-1.85-1.96-7.65-4.73-11.4-2.77-3.75-2.6-9.72-2.6-15.01s.51-20.81.51-20.81.85-1.19 2.9-1.36c2.05-.17 3.24-1.88.17-1.54-3.07.34-7.89 1.63-11.45-.17-3.56-1.8-4.07-2.5-4.92-7.05-.85-4.55-2.39-12.91-2.39-12.91m-15.19-4.94s-.69 6.37.59 12.11c1.28 5.74-.25 9.57 2.48 16.72 2.73 7.15 8.14 18.08 13.78 18.42 5.64.34 10.95-7.1 10.95-7.1m-8.33-35.32s1.7 10.45 2.36 13.92c.66 3.47 3.41 4.32 5.63-.91 2.22-5.23 2.22-6.94 5.46-6.77 3.24.17 6.82.11 2.9-3.07-3.92-3.18-4.78-3.54-5.29-8.08m-77.45 4.91s5.63 6.76 23.22 5.06c17.59-1.71 19.96-8.7 19.96-8.7m-10.68-6.99s-20.68 7.33-30.93-6.82m-12.81-20.47s1.17 8.02 5.97 15.01 5.36 10.06 13.93 13.13c8.57 3.07 18.38 2.86 25.51.57M451.25 238s2.3 8.12 4.35 12.91c2.05 4.78 3.42 6.41 12.28 9.56 8.87 3.16 19.62 5.29 34.11-4.18m-1.02-75.48s5.97 11.09 6.65 18.59c.68 7.51 6.65 25.16 6.65 25.16m-7.44-42.04s9.83 11.28 12.73 25.41c2.9 14.14 2.05 22 2.05 22m-51.62 43.5s-3.24 18.01 1.76 23.37c5 5.35 18.53 6.96 25.34 1.09 6.81-5.87 11.04-25.55 12.66-38.02m-52.78 30.86s3.01 2.83 7.2 7.15c4.19 4.33 12.31 11.52 23.54 8.63 11.22-2.89 16.68-11.09 16.68-11.09m-59.71-.73 17.64-7.27m-34.86 20.37s14.5-8.98 26.65-9.9m-16.59 7.71s11.57-4.23 21.15 0c9.58 4.23 18.08 4.23 18.08 4.23m-52.7 8.29s11.02-6.99 22-5.97c10.98 1.02 22.22 4.8 30.45 2.05m-55.68 18.44s8.91 8.16 11.76 13.28m-28.15 47.21s9.95-3.37 20.47-11.74c10.52-8.37 17.6-14.43 24.63-23.83 7.03-9.39 31.12-46.51 38.18-48.65m-66.89 84.79s8.24-13.93 17.27-18.06m-17.68-28.87s10.55 3.24 15.01 9.89m-2.32 11.18s6.95-4.01 16.43-15.15 18.83-21.45 18.83-21.45m37.06-27.61s6.37-.9 8.47-5.74c2.1-4.84 2.27-6.83 2.27-6.83m-85.12 50.5s-2.15-2.67 2.06-2.36c4.21.31 13.76 2.3 23.46-3.69 9.7-5.99 24.16-20.48 24.16-20.48m-58.04 15.29s8.07 11 21.77 2.32m-19.35 57.88s19.86-17.91 32.89-41.32"/>
  <path fill="#567293" d="M478.63 175.88s-2.95 9.78 18.82 12.77c0 0 3.24 53.43 71.36 49.82l2.62 12.31-11.94.94s-9.53 3.55-15.35 2.71c0 0-4.78 8-18.08 9.31-13.3 1.31-46.19-16.23-54.03-22.55-7.84-6.32-16.92-17.57-17.26-30.79-.34-13.22 1.58-16.73 9.42-29.88l14.46-4.64Z"/>
  <path fill="none" stroke="#000" stroke-width="1.2" d="M478.63 175.88s-2.95 9.78 18.82 12.77c0 0 3.24 53.43 71.36 49.82l2.62 12.31-11.94.94s-9.53 3.55-15.35 2.71c0 0-4.78 8-18.08 9.31-13.3 1.31-46.19-16.23-54.03-22.55-7.84-6.32-16.92-17.57-17.26-30.79-.34-13.22 1.58-16.73 9.42-29.88l14.46-4.64Zm-9.18 8.66s-17.71 15.4 0 53.93m.54-37.87s-10.49 30.59 32.33 53.84m-22.13-51.8s-6.09 30.03 33.7 53.65l18.98-1.32 6.82-17.57"/>
  <path fill="none" stroke="#c3c3f4" stroke-width="1.2" d="M469.08 229.71s-8.87-26.65 6.48-45.62m.47 43.59s-7.44-27.77 3.22-41.76m7.91 28.9s-11.2-14.55-4.07-27.53"/>
  <path fill="none" stroke="#000" stroke-width="1.2" d="M457.14 206.7s-1.09-22.14 19.61-27.94m78.63 61.36s1.71 4.34-10.57 14.31m13.64-11.89-2.39 8.37m7.51-7.67s-3.07 3.32-2.5 8.49m-230.88-87.64"/>
  <path fill="#d49068" d="m470.38 125.81 14.35-2.44 15.78 6.87 9.17 13.31-8.67 31.42-10.36 12.04-16.14-4.33s6.95-7.72 7.19-14.49c0 0-11.7-7.85-11.7-18.42 0 0-4.82-5.12-3.28-15.69l3.66-8.27Z"/>
  <path fill="none" stroke="#000" stroke-width="1.2" d="m470.38 125.81 14.35-2.44 15.78 6.87 9.17 13.31-8.67 31.42-10.36 12.04-16.14-4.33s6.95-7.72 7.19-14.49c0 0-11.7-7.85-11.7-18.42 0 0-4.82-5.12-3.28-15.69l3.66-8.27Z"/>
  <path fill="#4a100e" d="M499.44 169.21c.99-2.39 1.01-4.09 1.01-4.09 4.76-4.43 4.11-13.99 4.11-13.99 5.8-3.75 1.82-10.57-.68-11.6-2.5-1.02-3.43-1.5-6.43-4.78-3-3.27-4.12-6.48-9.26-6.48s-5.88-1.71-9.89-1.02c-4.01.68-5.39 1-5.39 1-3.13 5.1-6.18 5.82-6.18 5.82s-4.26-5.8 0-12.28c4.26-6.48 9.47-12.96 20.1-11.6 0 0 7.8-9.25 17.06 1 0 0 .78-2.69 5.88.36s6.06 4.43 7.08 6.82c1.02 2.39 5.49 5.48 5.49 8.53s-.47 7.13.6 8.17c1.07 1.04 1.48 3.43-.6 8.21s-3.11 7.51-6.52 7.85c0 0 1.27 5.12-1.93 8.53 0 0 3.53 2.44 0 8.87 0 0 2.68 3.81.96 7.35-1.72 3.54-5.93 2.24-7.2 0 0 0-3.09 3.91-9.57 2.3-.63-3.22.37-6.58 1.36-8.97Z"/>
  <path fill="none" stroke="#000" stroke-width="2" d="M499.44 169.21c.99-2.39 1.01-4.09 1.01-4.09 4.76-4.43 4.11-13.99 4.11-13.99 5.8-3.75 1.82-10.57-.68-11.6-2.5-1.02-3.43-1.5-6.43-4.78-3-3.27-4.12-6.48-9.26-6.48s-5.88-1.71-9.89-1.02c-4.01.68-5.39 1-5.39 1-3.13 5.1-6.18 5.82-6.18 5.82s-4.26-5.8 0-12.28c4.26-6.48 9.47-12.96 20.1-11.6 0 0 7.8-9.25 17.06 1 0 0 .78-2.69 5.88.36s6.06 4.43 7.08 6.82c1.02 2.39 5.49 5.48 5.49 8.53s-.47 7.13.6 8.17c1.07 1.04 1.48 3.43-.6 8.21s-3.11 7.51-6.52 7.85c0 0 1.27 5.12-1.93 8.53 0 0 3.53 2.44 0 8.87 0 0 2.68 3.81.96 7.35-1.72 3.54-5.93 2.24-7.2 0 0 0-3.09 3.91-9.57 2.3-.63-3.22.37-6.58 1.36-8.97Z"/>
  <path fill="none" stroke="#1e3e47" stroke-linecap="round" stroke-width="7" d="M440.08 200.4s2.47-7.55 13.3-13.4m-29.99 4.2s17.34 1.1 26.58-7.11m-52.2-5.91s25.77 5.73 46.74-2.3m-59.01-11.79s30.08 7.51 49.12 0m-72.23-18.08s41.79 15.01 70.18 11.6m-98.24-36.16s64.82 30.11 90.74 25.57M313.18 99.96s72.38 34.03 99.98 34.03M293.73 71.31s40.94 36.16 88.01 41.96m-94.4-85.97s-.37 33.71 45.55 51.85"/>
  <path fill="none" stroke="#567293" stroke-linecap="round" stroke-width="7" d="M297.23 61.75s18 22.64 44.27 30.02m-19.11 5.53s18.42 13.58 59.02 19.38m-27.95 5.46s33.12 15.14 57.99 17.74m-42.64 2.59s29.45 13.1 64.45 11.39m-41.62 6.48s29.68 5.8 39.91 1.36m-24.22 11.26s20.47 4.78 32.41-2.05M415.18 187s22.1-.35 31.73-11.12m-8.17 16.58s15.12-2.16 17.78-10.91"/>
  <path fill="none" stroke="#86a09e" stroke-linecap="round" stroke-width="7" d="M326.17 91.09s16.35 9.21 30.19 11.94m.12 13.65s35.16 14.2 51.19 14.2m-28.85 7.15s28.85 8.99 45.91 7.28m-23.02 8.53s18.55 4.81 29.5 2.41m-21.15 9.53s11.91 4.11 24.56 3.09m-13.98 9.31s10.63 3.22 21.83 0m-9.55 8.82s4.85 2 18.08-1.44"/>
  <path fill="none" stroke="#b1d1d7" stroke-linecap="round" stroke-width="10" d="M402.53 135.78s9.21 4.09 19.1 4.78m-4.43 8.87s5.09 1.71 14.67 0m-5.12 11.59s5.12.5 12.62-1.97m-5.12 12.21s4.44-2.69 8.19-6.14m.41 14.06s5.07-3.85 7.59-7.4"/>
  <path d="M464.22 180.53s-5.49-5.51-10.55-11.65c-5.06-6.14-7.11-8.71-7.45-19.1-.34-10.39-3.41-26.27-11.94-32.41-8.53-6.14-26.81-14.19-44.69-20.92-17.88-6.73-32.07-13.52-41.62-19-9.55-5.48-26.61-14.01-26.61-14.01l-5.46 9.23s11.45 16 37.18 30c25.73 14.01 49.12 28.4 57.31 35.36 8.19 6.96 26.64 29.46 26.64 29.46l14.11 14.63 7.35 8.03 5.72-9.63Z"/>
  <path fill="none" stroke="#000" stroke-width="1.2" d="M464.22 180.53s-5.49-5.51-10.55-11.65c-5.06-6.14-7.11-8.71-7.45-19.1-.34-10.39-3.41-26.27-11.94-32.41-8.53-6.14-26.81-14.19-44.69-20.92-17.88-6.73-32.07-13.52-41.62-19-9.55-5.48-26.61-14.01-26.61-14.01l-5.46 9.23s11.45 16 37.18 30c25.73 14.01 49.12 28.4 57.31 35.36 8.19 6.96 26.64 29.46 26.64 29.46l14.11 14.63 7.35 8.03 5.72-9.63Z"/>
  <path fill="none" stroke="#000" stroke-linecap="round" stroke-width="7" d="M403.24 135.78s9.21 4.09 19.1 4.78m-4.43 8.87s5.09 1.71 14.67 0m-5.12 11.59s5.12.5 12.62-1.97m-5.12 12.21s4.43-2.69 8.19-6.14m.41 14.06s5.07-3.85 7.59-7.4M299.87 35.15s3.04 26.95 43.67 57.65m-21.95-37.53s3.82 11.12 22.31 24.56"/>
  <path fill="none" stroke="#8f531d" stroke-width="4" d="M457.1 180.53s-10.57-8.18-13.61-28.34c-3.04-20.16-.01-29.37-45.72-48.82-45.71-19.44-56.25-26.29-56.25-26.29"/>
  <path fill="none" stroke="#8f531d" stroke-width="1.2" d="M325.87 71.31s13.57 15.01 48.37 30.02 54.56 22.01 65.5 32.66m-77.35-28.22s26.38 8.9 45.65 15.18c19.27 6.27 29.99 14.29 29.99 14.29m-38.7-10.39s17.66 8.75 36 13.19m-16.06 4.43s13.12 3.47 20.89-.48m-12.84 8.44s7.33.56 13.12-3.45m-4.97 8.57s3.07-1.15 5.97-4.49"/>
  <path fill="none" stroke="#000" stroke-width="1.2" d="M584.38 236.74s3.38-1.54 6.31-1.87m-3.92 4.78s5.28-2.12 8.35-1.66m-8.18 5.16s5.78-1.29 8.17-.32m-70.22 46.39s-1.57.16-3.48 1.07-2.58 1.34-3.82 1.03m9.75.97s-1.77.37-3.14 1.45c-1.36 1.08-3.87 1.15-3.87 1.15m9.74.6s-3.08 2.12-6.73 2.12m-46.93-165.24s-6.99 2.39-5.12-2.22m8.36-.23s-8.19 1.6-8.02-1.14"/>
  <path fill="none" stroke="#8f531d" stroke-width="1.2" d="M506.38 135.23s6.2.28 6.03 7.24m-6.03-13.68s6.88.15 9.27 6.92m-8.54-12.72s8.36-1.84 10.57 5.2m-12.27-10.32s4.64-3.07 7.72 0m-20.86-.34s8.49-.41 11.6 4.64m-10.06-1.06s8.7.65 11.27 5.79m-11.32-2.21s7.04-.76 10.62 5.23m-14.47-18.02s6.27-2.04 8.4 0m-7.4 2.04s6.62-2.58 9.53 1.96"/>
  <path fill="none" stroke="#fff" stroke-width="1.2" d="M465.93 128.19s6.43-12.62 27.03-8.48"/>
  <path d="M490.69 133.99s-3.56-3.71-7.94-1.53c-4.38 2.18-4.05 4.2-3.52 4.78.54.58 1.83-.66 3.66-2.6s4.18-2.09 7.8-.64Z"/>
  <path fill="none" stroke="#000" stroke-width="1.2" d="M490.69 133.99s-3.56-3.71-7.94-1.53c-4.38 2.18-4.05 4.2-3.52 4.78.54.58 1.83-.66 3.66-2.6s4.18-2.09 7.8-.64Z"/>
  <path d="M466.69 142.49s.95-1.31 2.64-3.11c1.7-1.8 4.16-1.1 4.16 0s-1.56.41-3.12.88c-1.55.47-3.68 2.23-3.68 2.23Z"/>
  <path fill="none" stroke="#000" stroke-width="1.2" d="M466.69 142.49s.95-1.31 2.64-3.11c1.7-1.8 4.16-1.1 4.16 0s-1.56.41-3.12.88c-1.55.47-3.68 2.23-3.68 2.23Zm5.63-3.11s3.07.33 3.41 3.91c.34 3.58.13 7.33 1.36 8.87 1.23 1.53 2.19 2.01 3.41 1.19 1.22-.82.86-1.88 1.8-1.54.93.34 3.04-.17 1.82-1.71m-3.62 8.2s1.07.68 2.64-.43c1.58-1.11 1.58-1.96 1.58-1.96s2.26.88 3.54-.34m-5.96 5.78s2.1-.58 3.32-2.24m-2.53 3.28s2.07-1.96 4.83-2.47m-5.24 8.27s9.05 3.84 15.64-8.44"/>
  <path fill="#fff" d="M487.47 139.24c-.03-.87-1.21-1.54-2.64-1.49-1.43.05-2.56.8-2.53 1.67.03.88 1.21 1.54 2.64 1.49 1.43-.05 2.56-.8 2.53-1.67Z"/>
  <path fill="none" stroke="#fff" stroke-width="1.2" d="M487.47 139.24c-.03-.87-1.21-1.54-2.64-1.49-1.43.05-2.56.8-2.53 1.67.03.88 1.21 1.54 2.64 1.49 1.43-.05 2.56-.8 2.53-1.67Z"/>
  <path fill="#fff" d="M472.38 145.17c-.28-.83-1.27-1.24-2.19-.92-.93.32-1.45 1.25-1.16 2.08.28.83 1.27 1.24 2.2.92.93-.32 1.45-1.25 1.16-2.08Z"/>
  <path fill="none" stroke="#fff" stroke-width="1.2" d="M472.38 145.17c-.28-.83-1.27-1.24-2.19-.92-.93.32-1.45 1.25-1.16 2.08.28.83 1.27 1.24 2.2.92.93-.32 1.45-1.25 1.16-2.08Z"/>
  <path fill="none" stroke="#000" stroke-width="1.2" d="M497.13 148.83s.34-1.45-.85-3.67c-1.19-2.21.01-3.02 1.02-4.26 1.01-1.24 2.98-2.96 1.99-5.13m1.66 10.42c0 .38.55-1-.78-2.47-1.33-1.47.22-5.35 1.49-6.04m-20.9 1.7s1.88-2.76 5.35-2.23c3.47.53 3.9 1.13 5.02.57m-9.4 1.66s.3 3.13 3.63 2.03 4.36-3.32 4.36-3.32m-22.26 7.84s2.17-4.67 6.03-1.88m-4.24 4.92s2.83.08 4.24-2.12l-2.46 4.62"/>
  <path fill="#fff" d="M306.98 266.61c0-2.9-2.87-3.71-2.87-7.01s2.03-4.81 3.76-4.81 4.63 2.7 4.3 5.51c-.33 2.81-2.66 3.43-2.58 6.31.08 2.88.5 11.33 2.64 13.04 2.14 1.71 4.62 4.33 3.38 8.87-1.24 4.54-4.01 8.13-7.74 7.88-3.73-.26-7.46-6.47-7.8-9.29-.34-2.82 1.83-6.45 3.81-8.81 1.98-2.36 3.1-3.09 3.1-11.68Z"/>
  <path fill="none" stroke="#e7823a" stroke-width="1.2" d="M306.98 266.61c0-2.9-2.87-3.71-2.87-7.01s2.03-4.81 3.76-4.81 4.63 2.7 4.3 5.51c-.33 2.81-2.66 3.43-2.58 6.31.08 2.88.5 11.33 2.64 13.04 2.14 1.71 4.62 4.33 3.38 8.87-1.24 4.54-4.01 8.13-7.74 7.88-3.73-.26-7.46-6.47-7.8-9.29-.34-2.82 1.83-6.45 3.81-8.81 1.98-2.36 3.1-3.09 3.1-11.68Z"/>
  <path fill="none" stroke="#000" stroke-width="1.2" d="M301.89 274.69s4.32-1.11 6.2-4.61c0 0 2.42-.19 3.75-1.33m172.59-126.51 4.8.7m-8.97 12.97-1.59-1.56"/>
  <path fill="#d49068" d="M316.18 269.09s1.21-.16 1.42 1.23c.21 1.4-.2 1.91-.2 1.91s1.02.48.07 2.19c0 0 .58 1.73-1.16 2.8-1.75 1.07-2.93.8-4.78 1.36-1.84.56-3.1.78-3.27-.29-.18-1.07.55-2.09.55-2.09s-1.24-.75-.04-2.61c0 0-.6-1.31.72-2.39 0 0-2.66.88-2.59-1.01l-.34-1.71 5.87-1.7 3.51 1.02.24 1.29Z"/>
  <path fill="none" stroke="#000" stroke-width="1.2" d="M316.18 269.09s1.21-.16 1.42 1.23c.21 1.4-.2 1.91-.2 1.91s1.02.48.07 2.19c0 0 .58 1.73-1.16 2.8-1.75 1.07-2.93.8-4.78 1.36-1.84.56-3.1.78-3.27-.29-.18-1.07.55-2.09.55-2.09s-1.24-.75-.04-2.61c0 0-.6-1.31.72-2.39 0 0-2.66.88-2.59-1.01l-.34-1.71 5.87-1.7 3.51 1.02.24 1.29Z"/>
  <path d="M484.23 140.73c.34-.2.33-.84 0-1.43s-.89-.92-1.23-.72c-.34.2-.33.83.01 1.43.34.59.89.92 1.23.72Z"/>
  <path fill="none" stroke="#000" stroke-width="1.2" d="M484.23 140.73c.34-.2.33-.84 0-1.43s-.89-.92-1.23-.72c-.34.2-.33.83.01 1.43.34.59.89.92 1.23.72Z"/>
  <path d="M469.85 147.18c.34-.2.33-.83 0-1.43-.34-.59-.89-.92-1.23-.72-.34.19-.33.83.01 1.43.34.59.89.92 1.23.72Z"/>
  <path fill="none" stroke="#000" stroke-width="1.2" d="M469.85 147.18c.34-.2.33-.83 0-1.43-.34-.59-.89-.92-1.23-.72-.34.19-.33.83.01 1.43.34.59.89.92 1.23.72Z"/>
  <path fill="#d49068" d="M168.88 289.96s4.74-1.28 7.31-3.7c2.57-2.42 4.91-2.77 7.36-3.79 2.44-1.02 3.68-1.96 3.68-1.96s.77 1.88-.85 3.33c-1.62 1.45-7.21 2.48-7.61 4.31 0 0 2.46 2.22 8.46 3.05 6 .83 10.17.6 13.9.6s4.42.67 4.42 1.46-.06 1.59-.06 1.59 1.8.75.9 2.42c0 0 1.38 0 1.38 1.13s-.48 1.73-1.38 2.16c-.9.43-2.06.77-2.06.77s-.23 1.45-1.45 1.62c-1.23.17-9.13 1.65-14.87.87-5.74-.78-17.88-5.79-20.01-6.92l.88-6.92Z"/>
  <path fill="none" stroke="#000" stroke-width="1.2" d="M168.88 289.96s4.74-1.28 7.31-3.7c2.57-2.42 4.91-2.77 7.36-3.79 2.44-1.02 3.68-1.96 3.68-1.96s.77 1.88-.85 3.33c-1.62 1.45-7.21 2.48-7.61 4.31 0 0 2.46 2.22 8.46 3.05 6 .83 10.17.6 13.9.6s4.42.67 4.42 1.46-.06 1.59-.06 1.59 1.8.75.9 2.42c0 0 1.38 0 1.38 1.13s-.48 1.73-1.38 2.16c-.9.43-2.06.77-2.06.77s-.23 1.45-1.45 1.62c-1.23.17-9.13 1.65-14.87.87-5.74-.78-17.88-5.79-20.01-6.92l.88-6.92Zm21.23 5.3s9.32 1.5 15.38-.53m-17.63 3.66s12.3 1.96 18.53-1.13m-19.69 4.06s13.5.77 17.63 0"/>
  <path fill="#d49068" d="M205.68 292.67s7.96-3.63 10.3-5.43c2.34-1.79 8.24-5.63 8.24-5.63s.66 1.36.33 2.73c-.33 1.36-2.46 2.75-4 4.19-1.54 1.43-1.71 2.12-1.71 2.12s4.33.86 7.37 1.43c3.04.58 8.67 0 10.71 0s4.2.21 4.2 1.94-.96 1.25-.96 1.25 1.06 1.11-.14 2.54c0 0 .48 1.05-.27 1.79s-4.43 1.11-4.43 1.11-.27 1.71-4.23 2.2c-3.96.5-9.69.11-14.19-.66s-12.08-2.65-12.08-2.65l.85-6.94Z"/>
  <path fill="none" stroke="#000" stroke-width="1.2" d="M205.68 292.67s7.96-3.63 10.3-5.43c2.34-1.79 8.24-5.63 8.24-5.63s.66 1.36.33 2.73c-.33 1.36-2.46 2.75-4 4.19-1.54 1.43-1.71 2.12-1.71 2.12s4.33.86 7.37 1.43c3.04.58 8.67 0 10.71 0s4.2.21 4.2 1.94-.96 1.25-.96 1.25 1.06 1.11-.14 2.54c0 0 .48 1.05-.27 1.79s-4.43 1.11-4.43 1.11-.27 1.71-4.23 2.2c-3.96.5-9.69.11-14.19-.66s-12.08-2.65-12.08-2.65l.85-6.94Zm18.97 2.61s3.99.94 7.41.47 4.73-.47 4.73-.47 2.06.6 3.75 0m-15.01 3.36s8.36.14 9.73-.48c1.36-.62 3.48.41 4.84-.96m-16.44 3.52s4.01.44 6.69 0c2.68-.44 3.34.5 5.94-.3"/>
  <path fill="#d49068" d="M190.02 273s3.89-.98 6.23-3.53c2.34-2.55 6.32-3.84 8.37-5.44 2.05-1.6 2.92-2.73 3.76-1.6.84 1.13-.17 2.59-2.69 4.27-2.52 1.68-5.08 4.2-5.08 4.2s3.31.64 5.08 1.67c1.77 1.03 4.81 1.03 7.29 1.03s4.6.11 6.31.62 1.82 1.62 1.48 2.3c-.34.68-1.9 1.28-1.9 1.28s.6.69.68 1.49c.09.8-.6 1.48-.6 1.48s.61.9 0 1.64c-.61.75 0 2.22-1.71 2.56-1.71.34-6.15.59-10.57.59s-5.79-1.17-8.81-1.44c-3.02-.28-7.23-1.11-8.61-1.96-1.38-.85-2.94-1.39-2.94-1.39l3.71-7.74Z"/>
  <path fill="none" stroke="#000" stroke-width="1.2" d="M190.02 273s3.89-.98 6.23-3.53c2.34-2.55 6.32-3.84 8.37-5.44 2.05-1.6 2.92-2.73 3.76-1.6.84 1.13-.17 2.59-2.69 4.27-2.52 1.68-5.08 4.2-5.08 4.2s3.31.64 5.08 1.67c1.77 1.03 4.81 1.03 7.29 1.03s4.6.11 6.31.62 1.82 1.62 1.48 2.3c-.34.68-1.9 1.28-1.9 1.28s.6.69.68 1.49c.09.8-.6 1.48-.6 1.48s.61.9 0 1.64c-.61.75 0 2.22-1.71 2.56-1.71.34-6.15.59-10.57.59s-5.79-1.17-8.81-1.44c-3.02-.28-7.23-1.11-8.61-1.96-1.38-.85-2.94-1.39-2.94-1.39l3.71-7.74Zm18.35 3.16s9.09.65 10.9 1.18m-10.94 2.05s9.05.17 11.12 1.11m-11.13 1.29s9.08.34 10.79 1.02m-10.65-7.86-2.14 7.78m-.59-8.98-4.07 7.44m-9.03-5.63s9.56.77 9.04-4.26m79.61 1.62s-1.36 3.36-.34 7.82m3.75-9.53s-1.83 4.16-.74 8.05m4.69-7.26s-.88 2.54-.2 5.53m4.95-5.73s-1.03 7.77 3.84 11.86m12.81-19.68-1.43 9.07s6.47.63 9.24-1.25m-9.04 4.53s4.84.71 7.37-1.06m-7.16-4.33s3.95-.15 6.24-1.85"/>
  <path fill="#e7823a" d="M307.52 256.88c1.19-.15 1.25.63 1.48 1.16.23.53-.18 1.09-.86 1.16-.68.07-1.46-.22-1.43-1.17.03-.94.29-1.08.82-1.15Z"/>
  <path fill="none" stroke="#8f531d" stroke-width="1.2" d="M307.52 256.88c1.19-.15 1.25.63 1.48 1.16.23.53-.18 1.09-.86 1.16-.68.07-1.46-.22-1.43-1.17.03-.94.29-1.08.82-1.15Z"/>
  <path fill="#3b5378" d="m218.76 201.11 10.84-16.03 7.6-1.83v-3.13s2.62-6.3 1.61-13.97c0 0 2.1-4.78.77-9.04 0 0-.1-5.48-3.67-10.67-3.57-5.19-4.64-7.76-11.32-10.05-6.68-2.3-9.32-4.34-12.56-4.17-3.24.17-6.48 1.36-9.04 1.02-2.56-.34-7.16 1.54-8.7 4.09-1.54 2.56-4.9 4.69-7.22 11.94s-2.6 21.89-1.65 23.03c.95 1.14 2.69-.73 3.82 2.08s3 3.67 3.17 6.28c.17 2.61.84 5.97 4.43 6.82 0 0-.95 1.37 2.22 6.14 3.17 4.78 5.55 9.92 5.55 9.92l14.14-2.42Z"/>
  <path fill="none" stroke="#314864" stroke-width="2" d="m218.76 201.11 10.84-16.03 7.6-1.83v-3.13s2.62-6.3 1.61-13.97c0 0 2.1-4.78.77-9.04 0 0-.1-5.48-3.67-10.67-3.57-5.19-4.64-7.76-11.32-10.05-6.68-2.3-9.32-4.34-12.56-4.17-3.24.17-6.48 1.36-9.04 1.02-2.56-.34-7.16 1.54-8.7 4.09-1.54 2.56-4.9 4.69-7.22 11.94s-2.6 21.89-1.65 23.03c.95 1.14 2.69-.73 3.82 2.08s3 3.67 3.17 6.28c.17 2.61.84 5.97 4.43 6.82 0 0-.95 1.37 2.22 6.14 3.17 4.78 5.55 9.92 5.55 9.92l14.14-2.42Z"/>
  <path fill="#d49068" d="M203.16 207.67s6.92 7.26 17.91-5.02c0 0-.75-4.17.45-9.59s1.71-7.12 1.71-7.12 3.99-6.59 4.33-11.57c0 0 3.34.65 3.34-5.66v-.81s-3.63-.9-6.3-4.82c-2.67-3.92-6.75-9.9-18.1-6.57-11.35 3.33-15.15 8.7-14.79 11.39.37 2.69 1.25 2.65 1.92 4.56.67 1.91 1.52 9.21 3.74 11.6 2.22 2.39 3.75 3.75 4.26 4.95.51 1.19 1.27 3.17 3.07 4.43 0 0 .68 5.97-1.54 14.23Z"/>
  <path fill="none" stroke="#000" stroke-width="2" d="M203.16 207.67s6.92 7.26 17.91-5.02c0 0-.75-4.17.45-9.59s1.71-7.12 1.71-7.12 3.99-6.59 4.33-11.57c0 0 3.34.65 3.34-5.66v-.81s-3.63-.9-6.3-4.82c-2.67-3.92-6.75-9.9-18.1-6.57-11.35 3.33-15.15 8.7-14.79 11.39.37 2.69 1.25 2.65 1.92 4.56.67 1.91 1.52 9.21 3.74 11.6 2.22 2.39 3.75 3.75 4.26 4.95.51 1.19 1.27 3.17 3.07 4.43 0 0 .68 5.97-1.54 14.23Zm18.25-22.94s-5.8 11.94-16.03 9.04m-4.75-27.54s-2.84.62-4.89 2.13c-2.05 1.52-2.56 2.54-2.56 2.54"/>
  <path fill="none" stroke="#b2a1c2" stroke-width="1.2" d="M528.17 265.07s.14 4.91 1.31 9.87c1.17 4.96-.37 6.83 6.97 5.9 7.33-.93 10.78-1.62 11.7 1.46.92 3.07-.49 5.97-2.83 5.97 0 0 .17 3.14-.68 10.23-.85 7.09-1.63 11.77.34 15.18s3 3.24 3.53 7.68c.53 4.43-.05 6.14 1.93 9.89 1.98 3.75-1.18 8.16-3.49 10.31-2.31 2.14-5.08 2.97-8.64-2.97s-5.19-9.55-5.49-13.99c-.31-4.44-.91-6.31-3.92-9.38-3.02-3.07-5.91-6.48-13.42-7.33-7.51-.85-14.46-1.88-20.71 1.02-6.24 2.9-8.26 5.11-14.33 13.73-6.07 8.62-8.17 17.14-14.17 28.74-6 11.6-8.4 14.36-17.32 21.63-8.93 7.28-15.4 12.14-24.38 21.01-8.99 8.87-17.6 10.04-22.19 19.08"/>
  <path fill="none" stroke="#000" stroke-width="2" d="M206.49 164.78s4.3-3.44 7.09-3.68c2.68-.24 3.65.44 3.65.44"/>
  <path fill="none" stroke="#000" stroke-width="1.2" d="M209.05 166.4s4.09-4.01 7.76-1.54m-21.75 6.66s2.7-2.55 5.7-1.45m9.39-.88 3.84-.34s1.82.43 2.49-1.59m-19.78 7.1s1.17.73 3.13 0m7.37-9.69s-3.74 2.16-1.87 8.1c.97 3.06 2.23 6.15 1.23 7.36m3.54-5.29s.48 1.38-.89 2.64a41.446 41.446 0 0 0-2.59 2.66m-3.53-.67s1.66-.34 2.46.68m-.94 3.73s1.41.79 3.07 0c1.16-.55 1.82-1.71 1.82-1.71s1.73.79 3.49-.46m-7.3 5.07s2.05-1.37 4.42-.68m-67.3-3.44s3.1 1.4 4.39-.39c0 0 1.47 1.29 3.32-.1l1.02.49"/>
  <path fill="#fff" d="M139.96 171.17c.95 0 1.72-.62 1.72-1.38s-.77-1.38-1.72-1.38-1.72.62-1.72 1.38.77 1.38 1.72 1.38Z"/>
  <path fill="none" stroke="#fff" stroke-width="1.2" d="M139.96 171.17c.95 0 1.72-.62 1.72-1.38s-.77-1.38-1.72-1.38-1.72.62-1.72 1.38.77 1.38 1.72 1.38Z"/>
  <path fill="#fff" d="M156.18 170.53c.86 0 1.57-.62 1.57-1.38s-.7-1.38-1.57-1.38-1.56.62-1.56 1.38.7 1.38 1.56 1.38Z"/>
  <path fill="none" stroke="#fff" stroke-width="1.2" d="M156.18 170.53c.86 0 1.57-.62 1.57-1.38s-.7-1.38-1.57-1.38-1.56.62-1.56 1.38.7 1.38 1.56 1.38Z"/>
  <path fill="none" stroke="#000" stroke-width="1.2" d="m145.37 186.93 1.2-1.21s1.88.61 3.41-.07m-5.6-7.25s1.56-1.6 2.82-.8c1.27.8 2.06 1.58 3.84.89 1.78-.69 2.08-1.03 1.18-3.2-.62-1.5-1.18-2.8-1.18-5.74s.48-3.99 2.17-4.91c2.4-1.32 4.43-.71 4.43-.71"/>
  <path fill="none" stroke="#000" stroke-width="2" d="M145.13 167.3s-1.23-2.46-5.39-3.07-5.8 1.02-5.8 1.02"/>
  <path fill="none" stroke="#000" stroke-width="1.32" d="M144.01 171.25s-.45-4.05-3.53-4.05-2.4 1.43-6.83 2.41"/>
  <path fill="none" stroke="#000" stroke-width="1.2" d="M137.18 170.58s1.96 2.08 5.12.75c2.93-1.24.58.4.58.4l-4.15 2.64"/>
  <path fill="none" stroke="#000" stroke-width="2" d="M129.82 185.31s3.58 5.74 8.19 8.3"/>
  <path fill="none" stroke="#000" stroke-width="1.2" d="M192.64 153.35s1.6-4.09 2.67-8.19c1.07-4.09 1.96-5.8 4.73-6.14 2.77-.34 6.56-3.88 12.42-2.24 5.86 1.64 8.94 10.6 8.94 10.6m6.15-8.02s-.76 2.22 1.88 5.63c2.64 3.41 3.2 6.92 2.64 11.51"/>
  <path fill="none" stroke="#86869e" stroke-width="1.2" d="M194.97 154.93s7.93-.38 13.69-2.26 12.07-3.07 12.07-3.07m10.1 8.7s6.66 5.35 2.03 12.27m-4.8-.78s.61 8.54 7.04 8.12m-44.73-26.61s-.85 1.93.71 4.23c1.56 2.3-.5 3.2 0 5.57.5 2.36-4.81 4.75-4.12 9.48"/>
  <path fill="none" stroke="#926d43" stroke-width="1.2" d="M118.22 156.5s-2.73-11.34 7.33-14.92 23.28 4.85 23.28 4.85"/>
  <path fill="none" stroke="#000" stroke-width="1.2" d="M153.21 168.4s2.43-2.36 5.02-1.43m-4.17 3.6s1.94 1.38 3.58 1.38"/>
  <path d="M141.92 171.12c.49 0 .88-.61.88-1.35s-.39-1.35-.88-1.35-.88.61-.88 1.35.4 1.35.88 1.35Z"/>
  <path fill="none" stroke="#000" stroke-width="1.2" d="M141.92 171.12c.49 0 .88-.61.88-1.35s-.39-1.35-.88-1.35-.88.61-.88 1.35.4 1.35.88 1.35Z"/>
  <path d="M156.95 170.53c.49 0 .88-.61.88-1.35s-.4-1.35-.88-1.35-.88.61-.88 1.35.39 1.35.88 1.35Z"/>
  <path fill="none" stroke="#000" stroke-width="1.2" d="M156.95 170.53c.49 0 .88-.61.88-1.35s-.4-1.35-.88-1.35-.88.61-.88 1.35.39 1.35.88 1.35Z"/>
  <path fill="#fff" d="M196.48 172.64c.14.64 1.02.99 1.98.79.96-.2 1.63-.89 1.49-1.52-.13-.64-1.02-.99-1.98-.79-.96.2-1.63.88-1.49 1.52Z"/>
  <path fill="none" stroke="#fff" stroke-width="1.2" d="M196.48 172.64c.14.64 1.02.99 1.98.79.96-.2 1.63-.89 1.49-1.52-.13-.64-1.02-.99-1.98-.79-.96.2-1.63.88-1.49 1.52Z"/>
  <path fill="#fff" d="M211.85 166.85c.14.64 1.02.99 1.98.78.96-.2 1.63-.89 1.49-1.52-.14-.64-1.02-.99-1.98-.79-.96.2-1.63.89-1.49 1.52Z"/>
  <path fill="none" stroke="#fff" stroke-width="1.2" d="M211.85 166.85c.14.64 1.02.99 1.98.78.96-.2 1.63-.89 1.49-1.52-.14-.64-1.02-.99-1.98-.79-.96.2-1.63.89-1.49 1.52Z"/>
  <path d="M198.31 171.84c0 .64.5 1.15 1.11 1.15s1.11-.51 1.11-1.15-.5-1.15-1.11-1.15-1.11.52-1.11 1.15Z"/>
  <path fill="none" stroke="#000" stroke-width="1.2" d="M198.31 171.84c0 .64.5 1.15 1.11 1.15s1.11-.51 1.11-1.15-.5-1.15-1.11-1.15-1.11.52-1.11 1.15Z"/>
  <path d="M213.24 166.41c0 .73.54 1.33 1.21 1.33s1.21-.59 1.21-1.33-.54-1.33-1.21-1.33-1.21.6-1.21 1.33Z"/>
  <path fill="none" stroke="#000" stroke-width="1.2" d="M213.24 166.41c0 .73.54 1.33 1.21 1.33s1.21-.59 1.21-1.33-.54-1.33-1.21-1.33-1.21.6-1.21 1.33Z"/>
  <path fill="#e7823a" d="M495.95 40.49c.99 0 1.79-.8 1.79-1.78s-.8-1.78-1.79-1.78-1.79.8-1.79 1.78.8 1.78 1.79 1.78Z"/>
  <path fill="none" stroke="#e7823a" stroke-width="1.2" d="M495.95 40.49c.99 0 1.79-.8 1.79-1.78s-.8-1.78-1.79-1.78-1.79.8-1.79 1.78.8 1.78 1.79 1.78Z"/>
  <path fill="#e7823a" d="M495.42 35.22c.98-.1 1.71-.88 1.62-1.74-.09-.86-3.32-14.23-3.32-14.23s-.33 13.74-.24 14.6c.09.86.96 1.47 1.94 1.37Z"/>
  <path fill="none" stroke="#e7823a" stroke-width="1.2" d="M495.42 35.22c.98-.1 1.71-.88 1.62-1.74-.09-.86-3.32-14.23-3.32-14.23s-.33 13.74-.24 14.6c.09.86.96 1.47 1.94 1.37Z"/>
  <path fill="#86869e" d="m657.76 274.9 5.15-19.44-6.41-3.41s3.7-2.73 4.7-17.4c.99-14.67 3.67-20.47 5.58-28.65 1.9-8.19 7.67-10.98 14.68-10.98s10.73 5.53 10.73 15.76-3.38 26.76-3.03 35.89c.34 9.14 1.71 11.42 1.71 11.42s-6.86 3.85-9.4 6.58l-1.86 41.26-2.39-23.97s-3.9-.92-7.16-1.26c-3.27-.34-4.12-2.05-6.48-3.41-2.36-1.36-5.8-2.39-5.8-2.39Z"/>
  <path fill="none" stroke="#c3c3f4" stroke-width="1.2" d="m657.76 274.9 5.15-19.44-6.41-3.41s3.7-2.73 4.7-17.4c.99-14.67 3.67-20.47 5.58-28.65 1.9-8.19 7.67-10.98 14.68-10.98s10.73 5.53 10.73 15.76-3.38 26.76-3.03 35.89c.34 9.14 1.71 11.42 1.71 11.42s-6.86 3.85-9.4 6.58l-1.86 41.26-2.39-23.97s-3.9-.92-7.16-1.26c-3.27-.34-4.12-2.05-6.48-3.41-2.36-1.36-5.8-2.39-5.8-2.39Zm4.61-19.63 8.97 4.26-13.43 15.3m15.17-30 17.4 13.2"/>
  <path fill="#86869e" d="m681.78 263.89-15.23 8.03 13.9 3.3"/>
  <path fill="none" stroke="#c3c3f4" stroke-width="1.2" d="m681.78 263.89-15.22 8.04 13.89 3.3m-9.46-15.51s4.43-43.21 5.49-52.43c1.06-9.21 5.13-10.58 9.57-7.09"/>
  <path fill="#86869e" d="m649 365.51 4.1-8.53s-2.34-27.29 8.18-38.55l12.62 1.7s9.21-4.79 11.26-4.79 11.29 6.5 11.29 11.28-11.29 15.35-11.29 15.35 5.34 7.5 5.34 20.13c0 0-3.98 4.09-9.78 6.99 0 0 4.09 12.8 3.41 27.47l-8.19-7.16 1.37-9.89-4.56-2.39-2.6 3.07 1.65 7.51-2.64 5.46-1.71 27.29-7.87-10.92v-8.3l-4.78 3.53-1.7-7.52 2.39-22.17-2.39-4.76-4.64 4.76.54-9.53Z"/>
  <g fill="none" stroke-width="1.2" clip-path="url(#q)">
    <path stroke="#c3c3f4" d="m649 365.51 4.1-8.53s-2.34-27.29 8.18-38.55l12.62 1.7s9.21-4.79 11.26-4.79 11.29 6.5 11.29 11.28-11.29 15.35-11.29 15.35 5.34 7.5 5.34 20.13c0 0-3.98 4.09-9.78 6.99 0 0 4.09 12.8 3.41 27.47l-8.19-7.16 1.37-9.89-4.56-2.39-2.6 3.07 1.65 7.51-2.64 5.46-1.71 27.29-7.87-10.92v-8.3l-4.78 3.53-1.7-7.52 2.39-22.17-2.39-4.76-4.64 4.76.54-9.53Zm20.68 14.45 5.82-48.76m1.55 48.82 1.13-48.87m-9.1 3.21s14.69-14.42 18.76-10.31c4.06 4.11-9.06 11.42-9.06 11.42m-19.9 64.72 9.78-9.29-4.89-64.55"/>
    <path stroke="#b2a1c2" d="M122.91 413.98s-3.41 56.31-7.25 84.86m11.94-88.49s-4.09 27.35-4.09 56.06m28.99-177.46s-3.9 4.78-1.46 13.82m6.27-14.2s-2.64 7.2-1.59 10.95m4.9-10.95s-2.32 3.6-.78 11.12m4.77-11.12s-1.93 1.88-.34 8.55"/>
  </g>
  <path fill="none" stroke="#e0b995" d="M203.28 169.09s-.04 2.57 1.6 6.1c1.07 2.3.76 3.81.76 3.81m-56.48-13.58s-1.4 5.76 1.73 11.12m-19.58-4.7s2.08 3.8 8.65 4.96m75.46-1.51c.52 0 4.41-3.18 5.43-8.81"/>
  <path fill="none" stroke="#e7823a" stroke-width="2" d="m511.35 182.22 1.78 15.73m10.98 102.03 1.78 15.73"/>
  <path fill="none" stroke="#4a100e" stroke-width="2" d="M128.31 203.24s4.9 4.43 7.08 19.51c3.05 21.13.52 67.8 14.08 65.39m-51.55-75.51s32.95-6.25 41.71 59.9"/>
</svg>