<svg xmlns="http://www.w3.org/2000/svg" viewBox="0 0 750 428"><defs><clipPath id="a"><path style="fill:none" d="M0 0h750v428H0z"/></clipPath><style>.m,.q,.r,.t,.u,.y,.z{fill:none}.ab,.e{fill:#936f2f}.f{fill:#775e51;stroke:#352f30}.ab,.f,.q{stroke-linejoin:round}.f,.z{stroke-width:2px}.g{fill:#352f30;stroke:#5e3b2f}.g,.i,.m,.p,.r,.s,.t,.u,.y,.z{stroke-miterlimit:10}.ac,.i{fill:#a53f28}.i,.y,.z{stroke:#49302e}.m,.s{stroke:#000}.ab,.q,.r{stroke:#382c1d}.o{fill:#7b4e25}.p{fill:#777a6e}.p,.u{stroke:#505638}.t{stroke:#1d1d1b}</style></defs><g style="clip-path:url(#a)"><path style="fill:#66586b" d="M0 1.16h750V428H0z"/><path style="fill:#161515" d="M-.12 0H750v245.79l-221.64 78.84-368.28-110.37L-.12 0z"/><path class="e" d="M109.84 49.85a25.27 25.27 0 0 0-10.23 1.83 31.49 31.49 0 0 1-5.18 2 5.81 5.81 0 0 1-5.22-1.14c15.94-6.18 34.68-1.73 50.25-8.78-3.68-1.76-8-1.21-12.05-.75a186.91 186.91 0 0 1-28.29 1c12.31-7.47 25.32-14.31 39.49-16.84a49 49 0 0 0-30.44 5.21 93.85 93.85 0 0 1 24.63-13.13 34.87 34.87 0 0 0-11.11.46 87.09 87.09 0 0 0-46.52 24.06c15.27-16.69 35.15-28.32 54.7-39.69-5 1-9.59 3.24-14.18 5.41L88 22.6c4.25-3.73 9.2-6.57 14.11-9.38l25.24-14.46C115.56 0 104.83 8.34 93.06 7a10.84 10.84 0 0 0 2.55-4.51 8.75 8.75 0 0 0-7.22.15 26.07 26.07 0 0 0-6.14 4.16L57.66 27.13c-2.11 1.75-4.32 3.65-5.09 6.28a12.88 12.88 0 0 0 .11 6A93.73 93.73 0 0 0 58.62 59 13.82 13.82 0 0 0 62 64.25c2.58 2.2 6.28 2.38 9.67 2.25a180.4 180.4 0 0 0 22.18-2.66c3.23-.53 6.54-1.08 9.37-2.72 3-1.73 5.79-4.72 9.19-4.16 2.25.38-2.55-7.08-2.57-7.11Z"/><path class="e" d="m182.84 136.86-.58-7.27a4.87 4.87 0 0 1 .15-2.15 5 5 0 0 1 1.52-1.87 144.27 144.27 0 0 0 18.51-20.07 78.64 78.64 0 0 0-24.3 16c-1.11-2.31-.24-5.18 1.41-7.14s4-3.23 6.16-4.55A96.32 96.32 0 0 0 200.44 99c-1.87-.66-3.88.36-5.6 1.35l-20.54 11.81a3.38 3.38 0 0 1-.47-4 9.94 9.94 0 0 1 2.95-3.11l13.59-10.63-17 8.68c-1.69.87-4.35 1.4-5-.39-.54-1.51 1.12-2.84 2.54-3.59l19.52-10.32c-5.78-1.35-11 3.29-16.44 5.73a23.58 23.58 0 0 1-20-.45 61.68 61.68 0 0 1 17.69-2.85 45.51 45.51 0 0 0-22.86.24q8.16-3.19 16.09-7c.43-1-1.1-1.67-2.2-1.69a81.54 81.54 0 0 0-23.86 3c4.06-1.6 7.27-5 11.43-6.29a29.5 29.5 0 0 1 7.68-.88c9.45-.39 18.76-2.32 28-4.25L143.4 75a20 20 0 0 0-3.62-6.49c10.83-.17 21.5-2.47 32.08-4.77a111.12 111.12 0 0 1-22.4-.7q16.11-2.53 32-6.2A429 429 0 0 0 125.77 61l-.36-3.26 32.74-11c-14-1.45-31.79 2.8-45.37 6.42-2.74 10.9-.5 19.31-.12 30.54a23.28 23.28 0 0 0 1.51 8.7c2.14 4.9 7 7.94 11.26 11.12 12.42 9.19 22.47 21.82 36.44 28.4a98.94 98.94 0 0 0 10.8 4.08 20.81 20.81 0 0 0 10.17.86ZM335.88 211.76c-.51-1.07-2.14-.49-3.06.25a58.3 58.3 0 0 0-11.89 13c-2.5 3.74-4.81 8-8.87 9.93-.65-1.86.25-3.88 1.14-5.65l16.33-32.5a17 17 0 0 0-5 4.79l-15.41 19.58c6.56-11.47 13.27-23.42 14.34-36.59-7.5 13.83-15 27.67-23.43 41a130.53 130.53 0 0 1 14.24-40 6.27 6.27 0 0 0-2.66 2.73l-19.56 30.91 14.36-33.28-15.9 22.07 6.49-20.37-6.18 7.25a38.07 38.07 0 0 1 1.13-10.58c-9.55 14.47-14.6 31.35-19.52 48a49.87 49.87 0 0 1 26.1 9.43 11.85 11.85 0 0 0 3.11 1.85 9.25 9.25 0 0 0 3.36.31 48.86 48.86 0 0 0 11-1.72c7.81-2.16 10.1-6.15 10.12-13.77 0-3.25 1.27-6 3-8.75.4-.79 6.66-8.1 6.76-7.89Z"/><path class="e" d="M229.59 154.15q-1.62 1.66-3.21 3.35a20.81 20.81 0 0 0-4.1 5.31 16.18 16.18 0 0 0-1.07 8.42 33.81 33.81 0 0 0 2.32 9.49c5.89 14.58 21.35 23.94 26.16 38.91.45 1.41.86 3 2 3.9a6.12 6.12 0 0 0 2.76 1.12c3 .64 11.92 1.83 14.17-1.07 1-1.25.3-4.47.76-6.12a29.37 29.37 0 0 1 3.46-7.21l8.53-14.18a22.78 22.78 0 0 0-7.26 6.93l4.21-10.2a322.36 322.36 0 0 0-20.55 28.95c-1.16-1.73-.42-4.07.43-6 6.13-13.89 15.74-25.92 25.24-37.77-3 .16-5.32 2.74-7.21 5.12l-22 27.56C259.62 199 268 189 276.76 179.55c2.75-3 5.64-6 6.77-9.88-3.15-.85-6 2-8 4.49l-19.88 24.44c-.09-6.64-.1-13.59 3-19.46 1.72-3.26 4.29-6 6.68-8.76a101.13 101.13 0 0 0 6.85-9 65.87 65.87 0 0 0-10.94 10.23l7.28-11.42-25 23.94a21.65 21.65 0 0 1 2.71-11.36 43.06 43.06 0 0 1 5.9-7.64l16-17.8c-3 1.35-5.38 3.68-7.72 6l-18.75 18.33 1.62-7.28a12.17 12.17 0 0 1-3.67 1.2c-.38-1 .34-2.1 1-2.94a152.1 152.1 0 0 1 13.32-14.26c2.52-2.37 5.21-4.78 6.46-8-3.6-1-7 1.91-9.64 4.54l-19.47 19.48c-1.19 1.19-2.89 2.46-4.36 1.66a2.69 2.69 0 0 1-1-3.09 7.88 7.88 0 0 1 1.9-2.93l21-23.6a148.41 148.41 0 0 0-14.53 13c-1.63 1.64-3.65 5.17-6.22 4.4-2.05-.62-2.87-3.66-2.34-5.49.75-2.61 3-4.42 5-6.26a45.49 45.49 0 0 0 8.22-10l-12.18 9.29-.21-1.45c-2.18-.31-4.25.93-6.06 2.19a86.91 86.91 0 0 0-16.5 14.94l9.13-12.51a3.38 3.38 0 0 1-2.26-1.4l7.67-5.45c5.54-3.94 11.19-8 15.17-13.49a107 107 0 0 0-21.76 15.4 3.14 3.14 0 0 0-3-.19c-5.87 2-9.8 8.33-15.93 9.21-1.39-1.58.25-4 1.8-5.38l31.44-28.91a291 291 0 0 1-39 25.25c2.31-5.37 7.5-8.83 12.33-12.12a283.15 283.15 0 0 0 26.32-20.35c-2.65-.08-5.08 1.32-7.36 2.67l-22.18 13.13a41.46 41.46 0 0 0-8.6 6.16c-2.47 2.53-4.31 5.88-4.28 9.41-5 5.84-5.46 14.34-5.47 22.06 0 4.31 0 8.75 1.63 12.75s4.49 7 7.53 9.86a95.7 95.7 0 0 0 16.38 12.28L221.35 170c3.35-4.8 7.82-10 8.24-15.85ZM517.06 231.05c-2.15 1.85-5.72.9-7.53-1.28s-2.31-5.16-2.59-8l-1.19 11.92-2.53-15.52a59.94 59.94 0 0 0-4.06 19.06c-3.49-1.45-4.21-6.06-4-9.83s.79-8-1.66-10.9q-.66 8.76-.52 17.56c-1.59.59-2.89-1.35-3.49-2.94L485 219l-1 17.68c-1.51-2.32-2.11-5.1-2.69-7.8l-4.05-19.12v17.49c-1.26-.88-3.11.26-3.55 1.73s0 3 .33 4.54.44 3.23-.52 4.43c-4.81-8.3.16-19.41-3.71-28.17a242.55 242.55 0 0 1-.62 27l-3-2.87a28.74 28.74 0 0 1-2.9 10.86l-1.49-20.25c-.18-2.43-.4-5-1.8-7l-2.18 24.13-5.21-19.25a73.47 73.47 0 0 1-3.29 21.89c-4-2.66-1.19-10.86-5.7-12.53a41.83 41.83 0 0 1-1.69 11.24c-2.61 1.24-5.14-2.11-5.45-5s.12-6.21-1.93-8.25l-4.14 24-4.49-23.13-3.61 19c-2.34.31-4.31-2-4.83-4.29s-.1-4.72-.32-7.07-1.41-4.94-3.7-5.54a62.23 62.23 0 0 1-2.92 16.9c-2.57 1.24-5.33-1.53-6.26-4.22s-1.23-5.89-3.46-7.67l-.16 10.14c-3.58-.77-6.52-3.45-8.42-6.59a40.55 40.55 0 0 1-3.89-10.23 22.68 22.68 0 0 1-3.81 10.9 22.79 22.79 0 0 0-2.21-14.82q-3.29 8.4-6.13 17a79.23 79.23 0 0 1-1.6-18.69 140.19 140.19 0 0 0-3.11 15.44 16.66 16.66 0 0 0-3.66-14.5c-1.06 9-2.57 17.94-4.52 26.78a94.3 94.3 0 0 0-2.59-22.46 71 71 0 0 0-5 10.47l-6-4.74a2 2 0 0 0-.93-.5 1.78 1.78 0 0 0-.92.21 9 9 0 0 0-4.77 6.93 18 18 0 0 0 1.19 8.6 23.47 23.47 0 0 0 6.4 10c5.08 4.39 12.12 5.41 18.64 7 9.68 2.39 19.16 6.47 29.14 6.33 11.1-.15 21.35-5.48 31.47-10a252.24 252.24 0 0 1 41.62-14.48c9.33-2.35 25.12 2.37 33.82-1.74 4.91-2.32 3.91-12 9.14-10.55a15.48 15.48 0 0 0 3.24.85c2.52.13 13.14 6.94 12.78 4.44s-11.54-14.11-13.48-12.47ZM712.76 139.18c4.92 12.16 10.43 25.06 21.38 32.28-10-5.33-15.78-15.94-21-26a79.3 79.3 0 0 0 15.69 29.36Q720.14 164 711 153.47c2.17 7.12 4.52 14.55 9.82 19.77a69.94 69.94 0 0 1-15.7-15.16q3 8 5.71 16.11c-.77 1.37-2.81.07-3.69-1.23l-5.54-8.13q2.1 8 4.94 15.75a6.34 6.34 0 0 1-5.33-6.51c-3 2.05-3.32 6.23-3.36 9.85 0 3-.05 6.1 1.1 8.88s3.73 5.2 6.74 5.17 5.42-2.33 7.08-4.78 2.9-5.25 5.08-7.26c5.45-5.05 14.43-3.35 20.87-7a4.87 4.87 0 0 0 2.08-2c2.61-5.38-6.72-14.36-9.65-17.58Z"/><path class="e" d="M749.9 96.71s-7.54-7.3-10.69-11.5q4.1 14.51 8.67 28.85l-14.2-14.69a46.78 46.78 0 0 1 8.82 23.93c-8.29-6.61-8.8-19.79-17-26.46a130.5 130.5 0 0 1 7.06 15.57l-3.56-1.92a37.84 37.84 0 0 1 9.84 16.6c-1.75.52-3.33-1.14-4.41-2.62l-9.43-12.9a47.71 47.71 0 0 0 6.79 11.76l-6.25-4.46 12.67 19.36-19.74-17.72c4 9.7 14.3 15.89 17.61 25.84a27.42 27.42 0 0 1-6.5-6l6.89 12.13-13-18.56c-1.49 5.76 3.21 11 6.63 15.89a43.25 43.25 0 0 1 7.51 19.86c2.89.32 6.73.43 9.62.75.63-4.09-2.3-7.73-4.19-11.41a24.36 24.36 0 0 1-2.65-11.63c.21-8.64 6-18.63 9.42-26.57Z"/><path class="f" d="M750.23 342.09c-3 2.46-12.65 8.71-16.54 8.82-7.48.21-16.41-2.54-18.3-9.78l-.28 9.74c-5 4.77-12.89 5.59-19.36 3.21s-11.63-7.49-15.47-13.22c-1.16-1.73-2.26-3.68-2.17-5.77.14-3.18 2.91-5.53 5.43-7.48 9.73-7.58 19.25-15.9 25.34-26.63 9.7-17.08 9.47-38 7.13-57.46-1.86-15.53-6.11-31.77-8-47.29a21.28 21.28 0 0 1 10.67-20.74c5.58-3 14.42-2 15.94 4.16-2-3.43 1-8.08 4.84-9s7.85.73 11.15 2.92c-6.09-7.3-11.09-15.92-12-25.38s5.21-19.67 13.36-24.56"/><path class="f" d="M539.23 341.59a21.83 21.83 0 0 0 39.27 8.79c4.45 4.89 9.83 9.37 16.3 10.7s14.16-1.42 16.66-7.54c6.8 5.26 13.43 11 22 11.88s18.41-4.91 18.52-13.51c5.3 2.66 11 4.86 16.95 4.86s12.13-2.56 15.22-7.63 2-12.65-3.07-15.7c7.65 1.64 16.33 1.3 22.39-3.65s7.6-15.56 1.47-20.43c9.3 1.87 19.57 1.93 27.59-3.14s12.41-16.58 7.24-24.53a6.16 6.16 0 0 0 6-.74 14 14 0 0 0 4.21-4.88 36.36 36.36 0 0 0 4.54-13.21c.39-2.82.42-5.81-.81-8.38s-4-4.56-6.83-4.11c3.1-4.24 6-8.84 6.88-14s-.74-11.1-5.13-14-11.5-1.27-13.1 3.74a16.88 16.88 0 0 0-9-15.66 18.2 18.2 0 0 0-18.77 1.36c.69-5.5.83-12.25-3.85-15.2-2.22-1.4-5-1.51-7.62-1.31-10.53.8-20.32 5.85-28.8 12.15s-15.89 13.9-23.93 20.75c-9.19 7.82-19.17 14.66-28.79 22-32.64 24.65-59.34 53.8-75.54 91.39Z"/><path class="f" d="M586.73 310.12c-2 5.72 1.39 12.46 6.81 15.18s12.18 1.79 17.33-1.39 8.83-8.34 11.31-13.86c5.79 3.49 13.39 4.41 19.37 1.23s9.52-10.88 7-17.16c6.62 1.47 14.1-.14 18.81-5s5.89-13.15 1.89-18.63a156.07 156.07 0 0 0-30.64-.34c-10.1.9-20.26 4-28.11 10.37-6.31 5.14-15.52.39-23 3.58-3.83 1.63-4.65 15.13-4.8 19.28-.11 2.72 1.87 5.06 4.03 6.74Z"/><path class="f" d="M432.6 258.18c-.32-3.56 2.25-6.89 5.42-8.53s6.86-1.93 10.43-2.12c3.93-.2 8-.28 11.65 1.17s6.84 4.79 6.89 8.73c.48-8 7.35-14.87 15.24-16s16.11 3.26 20.14 10.14a11.3 11.3 0 0 1 20.83-8.3c3.32-4.94 11-4.23 16.14-1.28a28.77 28.77 0 0 1 11.74 12.76c1.37 3 2.24 6.13 3.95 8.89 2.83 4.58 7.62 7.5 11.91 10.75a74.53 74.53 0 0 1 19.53 22c1.38 2.38 2.67 5.11 2 7.78a11 11 0 0 1-2.45 4.21c-3.25 4-7 7.91-12 9.44s-11.2-.15-13.27-4.88c2.82 8.18 1.93 17.94-3.71 24.5s-16.36 8.7-23.31 3.56c.85 6.5-3.15 13.9-8.56 17.6a18.25 18.25 0 0 1-18.66.95c3.27 4.22 2.1 10.75-1.6 14.6s-9.25 5.4-14.59 5.57a19.81 19.81 0 0 1-10.7-2.23c-3.18-1.87-5.61-5.32-5.5-9 2.48 4 0 9.7-4.08 12.06s-9.2 2.17-13.85 1.29c-5.24-1-10.56-2.91-14.15-6.86-2.91-3.21-4.41-7.45-5.43-11.66-3.5-14.49-2.18-29.64-1.66-44.55.73-19.77-.54-40.77-2.35-60.59Z"/><path class="f" d="M437.39 276.17c.7-4.28 4.65-7.2 8.43-9.32 5.6-3.13 12.08-5.64 18.31-4.15s11.39 8.51 8.8 14.37a9.16 9.16 0 0 1 17.43 5c3-6.07 11.21-8.43 17.41-5.77s10.11 9.36 10.53 16.09c.35 5.5-2.54 12.08-8 12.54 9.06 3 14.07 14.17 9.32 22.47s-17.53 10.46-24.74 4.18a12.22 12.22 0 0 1-16.19 17.78c1.25 4.39-2 9.26-6.42 10.53s-9.27-.59-12.44-3.88-4.8-7.79-5.54-12.29a10.69 10.69 0 0 0-1.11-4 9.79 9.79 0 0 0-4-3.13c-9.18-4.87-18.56-11.43-21.47-21.4-3.88-13.11 7.48-25.55 9.68-39.02Z"/><path class="f" d="M470 337.84a7.19 7.19 0 0 0 5.51-8.69c2.92.89 4.77 4.29 7.81 4.54a5.78 5.78 0 0 0 4.73-2.38 8.1 8.1 0 0 0 1.43-7.84 6.4 6.4 0 0 0-6.59-4.06c3-.14 6.08-1.1 8-3.37s2.26-6 .12-8.11a7.7 7.7 0 0 0-3.19-1.7c-5.56-1.69-12.76.16-14.79 5.6a5.75 5.75 0 1 0-10.54-3.63c-1-2.39-4.09-3.37-6.56-2.63s-4.35 2.79-5.72 5a14.39 14.39 0 0 0-2.41 7.8 8.46 8.46 0 0 0 3.71 7c1.92 1.17 4.26 1.34 6.43 1.93 6.21 1.7 3.71 11.92 12.06 10.54ZM267.53 225.55c.06-3.37 4.23-5.48 7.45-4.52s5.42 4 6.8 7c-4.58-3.59-2-12 3.46-13.85s11.71 1.4 15.05 6.15 4.48 10.67 5.54 16.39c3.63-3.37 7.81-6.43 12.68-7.35s10.51.84 12.89 5.18c2.13 3.88 1.27 8.76 2.79 12.92 2.14 5.81 8.75 9.84 8.79 16a20.65 20.65 0 0 1-1.27 5.81c-3.85 13-1.11 27.06-4 40.27-1.2 5.49-3.65 11.12-8.44 14.06-5 3.06-11.32 2.53-17.15 1.9a148.45 148.45 0 0 1-2 15.72 10 10 0 0 1-2.08 5.15c-1.29 1.36-3.21 1.91-5 2.4l-20.4 5.47a52.18 52.18 0 0 1-7.4 1.6 26.07 26.07 0 0 1-29-23.92c-9.57 1-19.1-1.43-26.36-7.73s-11.11-16.76-8.38-26c2.53-8.55 10-14.88 13-23.27 2.34-6.52 1.87-13.9 4.92-20.12 1.72-3.51 4.45-6.4 7.13-9.24 8.45-8.89 18.66-19.49 30.98-20.02Z"/><path class="f" d="M288.46 260c-3.89-2.73-8.66-5.58-13.08-3.85a8.8 8.8 0 0 0-5.17 7.76 14 14 0 0 0 3.24 9.09c-1.49-1.87-4.7-1.39-6.3.4s-1.93 4.36-1.93 6.75a32 32 0 0 0 3.36 14.28c2.84 5.67 8.66 10.86 14.86 9.51 4.8-1.05 7.94-5.58 10.31-9.88a38.59 38.59 0 0 0 4.73-12.21c1.42-8.71-3.04-16.95-10.02-21.85ZM377.74 386.63a25.9 25.9 0 0 0 43-17.74A16.76 16.76 0 0 0 446 347.08a16 16 0 0 0 1.09-31.76A15.86 15.86 0 0 0 457.27 299C456 288.24 444 282 433.2 281.21c-.22-3.29 1.76-6.3 2.35-9.54 1.45-8-6.44-15.38-14.55-16.24s-16 2.92-23 7.06a16.79 16.79 0 0 0-12.32-17.57 18.53 18.53 0 0 0-20.85 8.93c-1.45-9.52-13.3-15.78-22-11.61a31.14 31.14 0 0 0-7.37 5.58c-8.72 8.1-17.61 16.43-23 27-10.53 20.55-6.42 46.37-17.4 66.68-4.05 7.49-10.24 14.72-9.61 23.21.89 12 15.72 18.69 27.47 16.07 4.42 5.44 9.59 10.55 16.08 13.18s14.55 2.32 19.84-2.27a15.42 15.42 0 0 0 16.23 10.14c6.85-.93 12.39-8.28 12.67-15.2Z"/><path class="f" d="M384.82 356.3c1.49 6 8.08 10 14.24 9.36s11.49-5.35 13.77-11.11a14 14 0 0 0 .46-10c-1.21-3.19-4.29-5.77-7.7-5.76 6.3.64 13-3.28 14.83-9.34s-2.11-13.45-8.32-14.66c4.11-4.34 8.12-10.73 5-15.85-2.87-4.79-9.71-4.72-15.25-4.06l.84-10.41a6.71 6.71 0 0 0-.43-3.78 5.8 5.8 0 0 0-2.45-2.14 20.46 20.46 0 0 0-20.13.6c-.41-6.39-6.5-11.4-12.89-11.07a12.81 12.81 0 0 0-11.7 12.76c-3.59-5.54-10.59-9.28-16.92-7.4s-10.06 10.59-5.88 15.69c-3.89-2.68-9.52-1.54-13.07 1.58s-5.36 7.78-6.43 12.38c-.91 3.93-1.27 8.41 1.11 11.67 3.28 4.49 9.86 4.46 15.4 4-6.33 2.79-13.67 7.06-13.65 14 0 4.87 4.09 9 8.67 10.61s9.61 1.35 14.47 1c-4.27 5.69-.57 14.71 5.92 17.62s14.27.95 20.3-2.84a25 25 0 0 0 15.31 9.9c1.41.28 3 .39 4.15-.49 1.36-1.07 1.44-3.08 1.39-4.81-.02-2.75-.97-4.75-1.04-7.45Z"/><path class="f" d="M372.25 334.52c1.44 4.26 6.08 7.47 10.48 6.5s7.25-6.71 4.76-10.46a16.7 16.7 0 0 0 6.7 2.18 28.84 28.84 0 0 0 2.81-13.43 7.19 7.19 0 0 0-.77-3.43c-1.12-1.9-3.54-2.58-5.74-2.78a23.79 23.79 0 0 0-16.6 4.93c-1.79 1.41-3.5 3.46-3.1 5.7.62 3.42 5.86 4 8.39 1.57s3-6.19 3.31-9.66c.17-1.8.3-3.77-.7-5.28s-2.65-2.09-4.27-2.6c-3.27-1-6.84-1.77-10.1-.7s-5.95 4.52-5.08 7.84a8.78 8.78 0 0 0-9.91 11.81l6.27.26a7.7 7.7 0 1 0 13.05 8"/><path class="e" d="M12.42 374a13 13 0 0 1-1.05-9.38 19.35 19.35 0 0 1 4.72-8.32 3.93 3.93 0 0 1 1.54-1.15 3.12 3.12 0 0 1 3.09 1.08c2 2.09 2.12 5.28 2.14 8.16a22.51 22.51 0 0 1-.79 7.46c-1.61 4.78-6.71 7.48-9.65 2.15ZM99.39 335.28a8.54 8.54 0 0 1-1.22-8.06 16.21 16.21 0 0 1 5.54-7.14 4.67 4.67 0 0 1 1.81-1 4.5 4.5 0 0 1 3.62.93c2.33 1.79 2.49 4.53 2.51 7a14.49 14.49 0 0 1-.92 6.41c-1.9 4.1-7.88 6.41-11.34 1.86ZM79.12 405.3a9 9 0 0 1-1-7.41 14.88 14.88 0 0 1 4.35-6.56 3.63 3.63 0 0 1 1.42-.92 3.2 3.2 0 0 1 2.85.86c1.83 1.65 2 4.16 2 6.44a15.46 15.46 0 0 1-.74 5.89c-1.46 3.76-6.16 5.89-8.88 1.7ZM135.44 329.22a5.71 5.71 0 0 1-1-5.8 11.81 11.81 0 0 1 4.35-5.14 3.74 3.74 0 0 1 1.42-.72 3.82 3.82 0 0 1 2.84.67c1.83 1.3 2 3.26 2 5a9.65 9.65 0 0 1-.72 4.61c-1.48 2.99-6.18 4.65-8.89 1.38ZM91 373a7.68 7.68 0 0 1-1.16-7.41 15 15 0 0 1 5.28-6.59 4.43 4.43 0 0 1 1.72-.91 4.34 4.34 0 0 1 3.43.85c2.2 1.65 2.35 4.17 2.37 6.44a13 13 0 0 1-.87 5.9C100 375.08 94.31 377.2 91 373ZM153.36 315.17c-1.74-1.16-2-2.57-1.16-3.86s2.81-2.45 5.24-3.43a6.7 6.7 0 0 1 1.71-.47 7.65 7.65 0 0 1 3.44.44 3.16 3.16 0 0 1 2.37 3.36 4 4 0 0 1-.87 3.08c-1.8 1.96-7.46 3.07-10.73.88ZM115.59 401.07a4.77 4.77 0 0 1-1-5.31 11.26 11.26 0 0 1 4.5-4.72 4 4 0 0 1 1.47-.65 4.33 4.33 0 0 1 2.94.61c1.9 1.19 2 3 2 4.62a7.92 7.92 0 0 1-.75 4.23c-1.5 2.7-6.35 4.22-9.16 1.22ZM118.88 357.15a6.67 6.67 0 0 1-.67-5.32 10.79 10.79 0 0 1 3-4.71 2.44 2.44 0 0 1 1-.65 2.12 2.12 0 0 1 2 .61c1.27 1.18 1.35 3 1.36 4.62a11.41 11.41 0 0 1-.5 4.23c-1.07 2.7-4.31 4.22-6.19 1.22ZM47.71 390.39a8.46 8.46 0 0 1-1.05-7.46 14.91 14.91 0 0 1 4.72-6.61 3.94 3.94 0 0 1 1.54-.92 3.59 3.59 0 0 1 3.09.86c2 1.66 2.12 4.19 2.14 6.48a14.64 14.64 0 0 1-.79 5.94c-1.61 3.78-6.71 5.92-9.65 1.71ZM54.84 356.22a8.47 8.47 0 0 1-1.05-7.45 15 15 0 0 1 4.72-6.62 4.1 4.1 0 0 1 1.55-.92 3.67 3.67 0 0 1 3.09.86c2 1.67 2.11 4.2 2.13 6.49a14.4 14.4 0 0 1-.78 5.93c-1.62 3.79-6.71 5.93-9.66 1.71ZM55.72 316.86a6.14 6.14 0 0 1 3.63-6.71c2.52-1.12 6-1.1 9.76-.37a7.21 7.21 0 0 1 2.37.82 7.61 7.61 0 0 1 3 3.7c1.22 3.23-.27 5.28-1.74 7.05-1.28 1.53-2.59 3.09-4.76 3.73-4.31 1.29-11.59-2.08-12.26-8.22ZM24.56 285.32a6.13 6.13 0 0 1 3.64-6.7c2.51-1.13 6-1.11 9.75-.38a7 7 0 0 1 2.37.83 7.61 7.61 0 0 1 3 3.7c1.22 3.22-.27 5.28-1.74 7-1.28 1.54-2.59 3.1-4.76 3.74-4.31 1.32-11.59-2.07-12.26-8.19ZM90.74 287.85a5.72 5.72 0 0 1 3.21-5.6 13.48 13.48 0 0 1 7.74-.8 4.82 4.82 0 0 1 1.85.55 5.16 5.16 0 0 1 2.2 2.83c.8 2.55-.48 4.29-1.73 5.78a9.55 9.55 0 0 1-4 3.27c-3.46 1.25-9.01-1.12-9.27-6.03ZM10.16 416.44a13 13 0 0 1-1-9.38 19.31 19.31 0 0 1 4.72-8.31 3.86 3.86 0 0 1 1.54-1.16 3.14 3.14 0 0 1 3.09 1.08c2 2.09 2.12 5.28 2.14 8.16a22.78 22.78 0 0 1-.79 7.46c-1.66 4.76-6.75 7.46-9.7 2.15ZM39.93 426.25a5.78 5.78 0 0 1-1.39-6.81c1-2.27 3.37-4.33 6.29-6.05a6 6 0 0 1 2.05-.83 6.36 6.36 0 0 1 4.11.78c2.64 1.52 2.82 3.83 2.85 5.93a9.46 9.46 0 0 1-1.05 5.42c-2.15 3.46-8.93 5.41-12.86 1.56Z"/><path class="g" d="M707 229.28a92.79 92.79 0 0 1 12.67 14.61 5 5 0 0 0 1.22 1.38 3.14 3.14 0 0 0 3.47-.21 5.83 5.83 0 0 0 2-3c1.31-4.17-.2-8.81-2.81-12.32s-6.2-6.13-9.65-8.81c-2.17-1.68-4.45-3.67-4.84-6.39-.23-1.59.25-3.2.29-4.81s-.55-3.47-2.06-4a5 5 0 0 0-2.72 0c-2.06.42-4.34 1-5.47 2.75a8 8 0 0 0-.81 4.56c.06 2.35-1 9.8.51 11.5.63.7 3.33 1.07 4.32 1.66a20.44 20.44 0 0 1 3.88 3.08ZM697.07 280.65c1.45 7.06-1.71 14.56.24 21.5.7 2.5 2.46 5.08 5.05 5.25a5.29 5.29 0 0 0 4.71-2.95 12.43 12.43 0 0 0 1.18-5.69c.09-4.34-.53-8.65-.8-13a83.39 83.39 0 0 1 1.31-21c.5-2.61 1.13-5.29.68-7.91s-2.33-5.23-5-5.57a7.72 7.72 0 0 0-4.39 1.08c-4.47 2.32-9.64 7.37-10.5 12.6-.49 3 1.7 4.41 3.41 6.89a24.07 24.07 0 0 1 4.11 8.8Z"/><path class="e" d="M421 420.44c3.22-2 3.92-6.86 1.83-10s-6.31-4.51-10-3.76a4.1 4.1 0 0 0-2.08.92c-.95.9-1.06 2.34-1.1 3.64-.09 2.84-.63 7.65 2 9.45 2.12 1.5 7.16 1.08 9.35-.25Z"/><path d="M353.73 203.53c-1.32-.08-19.71 18.58-26.08 24.3-7.23 6.46-59.89 67.58-65.52 73.5 0 0-.65-.38 0 .6s11.48 4.37 17.68 5.36 15.9 6.33 20.27 9 7 8.44 7 8.44 2.25-10 3-13.51 7.32-27.17 12.82-36.18 27.28-45.29 27.28-45.29c-1.78.41 1.34-16.37 5.56-15.9 2.68.31-.69-10.24-2.01-10.32Z" style="fill:#aa5d3f"/><path class="f" d="M85.75-3.48C91 2.37 94.09 11.6 91.32 18.36S81.78 29.78 74.58 31c4.56 1.11 7.85 5.47 8.71 10.09s-.36 9.39-2.29 13.67c-1.79 4-4.31 7.79-8 10.13 2.43 6 .16 13.09-4.47 17.67a17 17 0 0 1-18.08 3.53c1.3 4.16 2.62 8.4 2.52 12.75s-1.91 8.91-5.6 11.21-8.27 2-12.54 1.55a6.65 6.65 0 0 1 .23 9.88c-2.82 2.39-7 1.91-10.63 1.29V122c-3.43 4-9.88 3.12-14.57.75C6.09 120.81-1.2 116.18-4 112.9L-5.47-2s85.12-8.34 91.22-1.48Z"/><path class="f" d="M162.15 169.2c.56-8.48 1.06-17.37-2.45-25.11-3.77-8.33-11.87-14.53-14-23.43-.91-3.89-.58-8-1.46-11.89a38 38 0 0 0-7.58-15.61c.8-3.67 3.3-6.78 4.19-10.44 1.28-5.25-1-10.88-4.82-14.75s-8.8-6.24-13.86-8.14C114.43 56.91 105.6 55 98 58.23a21.35 21.35 0 0 1-5 1.91c-3.06.46-6-1.17-9-2a17.19 17.19 0 0 0-17.66 6.14c-.87 1.16-1.8 2.56-3.24 2.67a5.41 5.41 0 0 1-2.67-.87c-6.37-3.09-14.5-.06-18.82 5.55s-5.44 13.11-5 20.17c-7.7-1.1-14.81 5.81-16.33 13.44s1.24 15.47 4.87 22.35c-9.26-.1-13.76 32 10.45 35.38-18 22.52 10.14 47.86 22.53 49 1.69 13 3.38 20.27 16.89 28.15 4.82 2.81 18.22 6.25 23.12 3.6 2.81-1.51 4.75-4.21 6.58-6.82 4.24-6 8.63-12.42 9.25-19.76.52-6.16-1.63-12.82 1.25-18.29a17.77 17.77 0 0 1 5.46-5.76 44.57 44.57 0 0 1 13.38-6.65c3.47-1 7.09-1.67 10.4-3.16 3.65-1.65 6.75-4.28 9.8-6.88Z"/><path class="f" d="M78.18 175.92a15.94 15.94 0 0 1 9.51-17.67c-4.28 3.14-10.62 2.3-14.81-1s-6.48-8.47-7.47-13.69c-.87-4.53-.84-9.4 1.18-13.55s6.35-7.37 11-7.1c-4.66-1.67-7.44-7-7-11.89s3.56-9.36 7.6-12.22c10.24-7.24 26.37-3.81 32.77 7-2.23-4.42-4.1-9.86-1.57-14.11 3-5 10.15-5.21 15.76-3.72 3.83 1 7.66 2.64 10.31 5.6s3.83 7.49 2 11c1.82-6.82 10-10.75 16.86-9s11.89 8.16 13.33 15.08-.29 14.2-3.43 20.53c3.51-2.47 8.28-4.36 12-2.15a8.83 8.83 0 0 1 3.48 4.44c3.38 8.56-3 18.29-11 22.73s-17.54 5.33-26.38 7.9a70.93 70.93 0 0 0-23 11.49c-10.32 7.81-36.12 23.26-41.14.33Z"/><path class="f" d="M143.73 143.68c-.57-3.59-2.68-7.15-6.07-8.49a8 8 0 0 0-10.88 8.58c-1.78-2.16-6-22.17-20.27-11.1-5 3.88-.68 12 1.16 14a43.46 43.46 0 0 0 7.79 6.73 30.47 30.47 0 0 0-6.16-3.56 3.34 3.34 0 0 0-2.55-.32 3.13 3.13 0 0 0-1.52 2.15 11.81 11.81 0 0 0 1.62 10.26 9.62 9.62 0 0 0 9.47 3.77c2.3-.5 4.28-1.9 6.29-3.12 9.76-5.9 23.46-4.27 21.12-18.9Z"/><path class="f" d="M196.84 170.37c.25-4.18-2.43-7.92-5.11-11.14-3.9-4.69-8.2-9.24-13.63-12s-12.23-3.52-17.57-.59c-7.26 4-9.71 13.09-11 21.25a19.66 19.66 0 0 0-18-14 20.71 20.71 0 0 0-19.19 12.68 21.92 21.92 0 0 0 4.38 22.75 14.45 14.45 0 1 0-8.51 22.24c-2.07-.43-4.11.91-5.7 2.3a18.59 18.59 0 0 0-3.76 5.06c-2.72 4.75-5.21 10.28-3.64 15.52a16.76 16.76 0 0 0 4.14 6.56 19.67 19.67 0 0 0 8.29 5.59 10.47 10.47 0 0 0 9.6-1.5c-1.89-.76-3.75 1-5 2.56a18.65 18.65 0 0 0-3.31 16.66 16.93 16.93 0 0 0 12.29 11.53 15.53 15.53 0 0 0 15.6-5.91 27 27 0 0 0-4.11 11.16c-1 7.17 3.32 14.37 9.41 18.28s13.63 5 20.86 4.61a11.32 11.32 0 0 0 3.62-.61c2.68-1 4.37-3.82 4.9-6.64a25.56 25.56 0 0 0-.36-8.58 23.82 23.82 0 0 0 10.21 18.39c6.09 4 14.52 4.51 20.72.66s9.5-12.09 7.09-19c5.32.1 9.76 4 14.87 5.53 6.74 2 14.13-.47 19.84-4.56 5.47-3.91 10.07-9.89 10-16.61 0-7.86-6.1-14.22-11.77-19.67 10 1.43 20.71-4.91 24.1-14.39a22.74 22.74 0 0 0-9.33-26.27c-5.18-3.14-12.17-3.89-17.2-.52 5.29-3.45 11.11-7.75 11.72-14a15.67 15.67 0 0 0-2.09-8.6c-2.67-5.1-7.15-9.52-12.74-10.91s-12.22.92-14.79 6.08a15.91 15.91 0 0 0 5.53-20 12.8 12.8 0 0 0-3-4.06 15.94 15.94 0 0 0-6.16-3.1c-4.79-1.39-10.12-1.55-14.61.63s-7.19 7.67-6.59 12.62Z"/><path class="i" d="M353.42 203.56c-1.32-.08-19.71 18.58-26.09 24.3-7.22 6.46-59.88 67.58-65.51 73.5 0 0-.66-.38 0 .6s11.49 4.37 17.68 5.36 15.91 6.33 20.28 9 7 8.44 7 8.44 2.25-10 3-13.51 7.32-27.17 12.81-36.18 27.29-45.29 27.29-45.29c-1.78.41-3.41-2.14-5.1-1.43a3.11 3.11 0 0 0-1 .87c-1.2 1.38-2.41 2.76-3.48 4.24a66.86 66.86 0 0 0-5.62 10.11c-1.11 2.27-5.36 10.38-5.36 10.38-.73-6.06-.81-17.11 1.29-22.84a25.08 25.08 0 0 1 2.71-4.92 22.21 22.21 0 0 1 5.07-6 26.46 26.46 0 0 0 1 10.87c1.39.47 2.51-1.38 2.31-2.82s-1.09-2.76-1.11-4.21c0-1.93 1.43-3.55 3-4.67.51-.36 7.71-5.92 11.93-5.45 2.58.28-.78-10.27-2.1-10.35ZM305.2 309.1a4.29 4.29 0 0 1-1.77 2.85 2.89 2.89 0 0 1-3.09-.55 7.77 7.77 0 0 1-1.92-2.73 11.34 11.34 0 0 1-7.16-2.94c-.95-.87-1.75-1.91-2.77-2.71a4.3 4.3 0 0 0-3.58-1c-.59.14-1.12.47-1.71.64a3.5 3.5 0 0 1-4.19-2.3c-.35-1.21-.34-3-1.59-3.15s-1.76 1.36-2.72 2.07a4.29 4.29 0 0 1-4.25.24 263.84 263.84 0 0 1 19.1-22.32 27.81 27.81 0 0 0 9.15 19.37 43.79 43.79 0 0 0 6.65 5.2c1.05 2.23.53 4.91-.15 7.33Zm3.65-11.72a1.57 1.57 0 0 1-1.36 1.09 2.11 2.11 0 0 1-1.75-.3 48.67 48.67 0 0 1-11.17-17.55c-1-2.89-1.77-6.48.33-8.72a1.79 1.79 0 0 1 1.71-.69c.67.19 1 1 1.15 1.63.55 2.39.16 4.89.37 7.34.56 6.55 5.34 12 10.65 15.88a2 2 0 0 1 .07 1.32ZM322.22 267c-6.35 11.73-12.61 23.05-12.72 22.91a37.49 37.49 0 0 1-7.13-18.3 6.94 6.94 0 0 1 .12-2.65 8.27 8.27 0 0 1 1.21-2.27l9.92-14.62a3.47 3.47 0 0 1 2-1.74 2.39 2.39 0 0 1 2.39 1.57 8.94 8.94 0 0 1 .51 3c.32 3.63 1.74 8.57 4 11.44Zm5-9.17c-1.07 2-1.79 3.31-3 5.52l-.11-.23c-.41-1.36-1.62-5-2-6.4-.5-2-.41-3.68-.79-5.66-.5-2.65.27-5.4 1.09-8 .15-.47.53-1 1-.84a.89.89 0 0 1 .41.62 54.42 54.42 0 0 1 2.05 9.44 16.77 16.77 0 0 0 1.32 5.51l.15-.27Z"/><path d="M383.36 223.48s-3.74-2.37-7.53-.28a50.87 50.87 0 0 1-13.31 5.07c-3 .56-9.5 2.14-13.58 1.27a9.85 9.85 0 0 1-7.67-6.69c-.38-1.32 2.34-3.54 3.94-4.79 2.88-2.25 4.11-2.92 5.56-3.31 2.11-.56-2 1-7.11-.86-2.19-.81-3.52 5.44-6.9 4.59-4.45-1.11-3.87-5.41-2.67-7.46a72.74 72.74 0 0 1 17.81-19.78 11.22 11.22 0 0 1 5.27-2.18 12.39 12.39 0 0 1 7.47-.14 23.39 23.39 0 0 1 10.7 8l14.12 15.26a2.79 2.79 0 0 1-.12 3.54c-1.5 1.9-5.98 7.76-5.98 7.76Z" style="fill:#ccaa8f"/><path d="M157.83.28c13.52 14.64 60.54 18.8 65.32 18.58 79.27-3.63 103.46 4.92 115.44 10.14s20.18 17.63 23.07 30.38a4.54 4.54 0 0 0-1.73 3.53 10.06 10.06 0 0 0 .82 3.95c.65 1.73 1.9 3.66 3.75 3.59l2.81 1.35s2.82-20.08 14.27-28.15c14.3-10.09 31-21.5 65.32-6s26 58.09 26 58.09L467 96c45.9 3.66 35.39-48.93 34.43-53.7-1.76-8.83-3.42-18.47.76-26.44 3-5.71 8.62-9.68 11.73-15.34H636.2l4.22-.25s-10.7 14.35-13.51 16.33-8.73 13-13.8 16-8.73 11.88-12.11 17.51-7.61 12.67-10.14 16.61-8.73 9.86-15.49 13-11.26 8.72-14.92 12.95-17.17 12.1-17.17 12.1l-20.56-1s-15.3-7.69-22.34-7.51-18.95 2.35-26.09 6.39S458 112 456.85 117.22s6.57 8.63 3.75 16.14c-1.61 4.29-10.51 9.76-18.39 8.07-3.43-.73-7.51-6.38-7.51-6.38s-4.74 20.08-7 20.93-8 3.52-12 3-2.68-6.19-6.9-7-9.71 1-13.09.42-6.2-2.82-7.89-2.26-1.4 4.23-3.37 4.79-5.07.28-5.92-3.94-2.25 3.38-6.19 4.5-25.44 3.76-28 2.91c-.63-.21-2.11-1.39-3.75-4.5-6 4.5-18.31 1.45-14.08-3.76.67-.82-6 4.07-9.95 2.63-2.46-.88-5.26-2.81-4.13-9.76-10.14 9.39-14.7-3.34-14.7-3.34-8.65-4.18-13.62-13.22-19.9-20.49-6.45-7.46-14.56-13.26-22.64-18.9 0 0-18.84-14.52-30.14-18.84C206 74 163.85 38.61 159.52 34.91 142.06 20 128.83 0 128.83 0Z" style="fill:#724720;stroke-miterlimit:10;stroke:#5e3b2f"/><path d="M405.6 124c5.34 5.2 13 10.71 20.38 11.89 3.58.57 5.2-.08 8.48-1.61 2.32 3 6.55 8 11.12 7.46a25.11 25.11 0 0 0 7.32-2.11c3-1.45 10.59-5.42 8-12.25-1.15-3.07-4.41-6-3.84-9.19.18-1 .63-2 .74-3 .24-2.42-1.39-4.57-2.77-6.57-7-10.17-10-23.65-20.17-30.7a12.15 12.15 0 0 0-5.23-2.25 16.58 16.58 0 0 0-3.59.07q-8.37.82-16.69 2a13.39 13.39 0 0 0-4.69 1.26c-2.82 1.59-4.07 4.9-5.79 7.64-2 3.22-4.87 5.85-6.91 9.06-2.62 4.15-3.53 9.48-.29 13.31A204.4 204.4 0 0 0 405.6 124Z" style="fill:#ba9b86"/><path class="m" d="M436.7 132.14a12.48 12.48 0 0 1-5.83 3.7c-5.41 1.52-11.09-1.18-15.73-4.36-8.65-5.95-15.82-13.77-22.9-21.52"/><path d="M360.18 206.75s32.47-41.48 37.35-46.55 31.94-37.54 31.94-37.54a31 31 0 0 1-.21-5.44c-7.87 6.53-73.59 82.77-73.59 82.77-1.12 3.76 4.51 6.76 4.51 6.76Z" style="stroke:#382c1d;fill:#aa5d3f;stroke-linejoin:round"/><path class="o" d="M430.72 139.94a3.17 3.17 0 0 1-.69 3.27 11.6 11.6 0 0 1-1.62 1 4.32 4.32 0 0 0-1.77 4.6c.32 1.22 1.16 2.24 1.55 3.44s.09 2.83-1.12 3.19-2.13-.56-3.25-.62a2.3 2.3 0 0 0-2.05 1.11c-.5.86-.48 2.08-1.31 2.62-1.63 1.06-3.53-2-5.37-1.39-.31.82.36 1.66 1 2.28l4.6 4.59a7.55 7.55 0 0 0 3.79 2.47c1.75.29 3.45-.69 4.82-1.81a36.4 36.4 0 0 0 6.4-7.48 22.72 22.72 0 0 0 3-5.14 23.66 23.66 0 0 0 1.11-6.38 11.86 11.86 0 0 0-.37-5.31 11.92 11.92 0 0 0-3.3-4.12 3.45 3.45 0 0 0-1.56-1 3.4 3.4 0 0 0-1.74.29 35.6 35.6 0 0 0-3.94 1.45c.36 1 1.53 1.76 1.82 2.94Z"/><path class="e" d="M505.84 217.08a111.13 111.13 0 0 1 21.68 23.37c10.42 14.92 32.66 41.67 36 44.76s12.39 13.52 26.18 10.7 63.07-20.27 69.55-20.27 30.69-7.32 31-9 5.63-7 5.35-11.82 1.13-21.12 3.1-29.57.56-31.25-.29-38-2.25-23.93-.84-28.16-10.14 14.36-14.08 17.74-9 7.32-13 11.83-8.16 11-8.73 12.67-4.5-2.54-9.57-7-16.89-12.67-19.15-14.92 2-6.76 5.63-7.6a15.9 15.9 0 0 0 6.3-3.21 6.88 6.88 0 0 0-6.13-1.75 1.55 1.55 0 0 1-2.11-.65 6.7 6.7 0 0 0-5.92-2.31c-2.78-2-4.49-5.32-7.55-6.83-.84-.42-1.76-.68-2.59-1.11-4.71-2.48-5.32-9.7-10.1-12a12 12 0 0 0-5-.93c-1.95 0-4 0-5.68 1.05s-3.2 3.41-2.07 5A41.42 41.42 0 0 0 583 123.46a42.06 42.06 0 0 0-28.45-8.87c-6.68-8.53-20.85-13-31.63-11.85a48.64 48.64 0 0 0-32.87-6.81 50.46 50.46 0 0 0-29.81 16.75c2.95-1.4 6.47-.37 9.39 1.08s5.74 3.36 9 3.75c4.06.5 8-1.46 11.87-2.67 7.14-2.22 15.52-1.75 21.34 2.93 2.39 1.92 4.5 4.58 7.53 5l-50.68 75.4c2.66 5.56 8.53 9.91 14.36 11.9s12 2.66 18 4Z"/><path class="p" d="M514.57 135.85s-1.41 2-2.54 8.44-7.74 20.7-12.67 26.33-15.06 12.81-18.44 16.19-5.21 7-8.73 9a13.23 13.23 0 0 0-4.78 4.08 8 8 0 0 1-5.12 1.22c-2.82-.37-3-1.88-3-1.88-2.29 2-2.49 5.46-4 8.09a16.53 16.53 0 0 1-4.14 4.37c-8.55 6.94-18.85 12.81-29.86 12.36-5.37-.22-11.46-1.74-15.6 1.69-1.45 1.2-2.43 2.87-3.73 4.23-4.48 4.64-13 4.39-17.19-.5a6.86 6.86 0 0 1-1.8-3.92c-.27-4.5 5.38-7.05 6.85-11.32l-16-18.9c2.25-2.81 6.16-3.76 9.75-3.61s7.09 1.2 10.66 1.61a30.35 30.35 0 0 0 23.5-7.58l22.1-25.18 4.41-19.1s8.16 1.55 15.9-7.46a6.61 6.61 0 0 0 .57-6.62c-1.69-3.8-4.79-7.46-4.23-9.57s1.77-4.77 3.81-5.35c6.89-2 12.95 5.49 19.7 5.35 6.2-.13 14.5-5.35 22.95-3.8a14.57 14.57 0 0 1 8 3.09s3.23 4.09 5.49 5.21 4.6 1.3 7.86-.26 5-1.81 6.36-1c3.94 2.4-6.2 11.41-8.31 11-4.76-1-6.76 2.67-7.74 3.8"/><path class="q" d="M297.8 139.59c-8.65-4.18-13.62-13.22-19.9-20.49-6.45-7.46-14.56-13.26-22.64-18.9"/><path class="r" d="M467 96c45.9 3.66 35.39-48.93 34.43-53.7-1.76-8.83-3.42-18.47.76-26.44 3-5.71 8.62-9.68 11.73-15.34"/><path class="q" d="M157.83.28c13.52 14.64 60.54 18.8 65.32 18.58 79.27-3.63 103.46 4.92 115.44 10.14s20.18 17.63 23.07 30.38a4.54 4.54 0 0 0-1.73 3.53 10.06 10.06 0 0 0 .82 3.95c.65 1.73 1.9 3.66 3.75 3.59"/><path class="i" d="M445.11 164.22a3.56 3.56 0 0 1-.18 2.33 3.94 3.94 0 0 1-2.14 1.41 24.23 24.23 0 0 0-14.86 23.47 25.74 25.74 0 0 1-6.73-4 8.74 8.74 0 0 1-3.15-6.9 12.93 12.93 0 0 1 1.31-4.16l2.56-5.73a9.16 9.16 0 0 1 1.58-2.64 12 12 0 0 1 4.09-2.32c8.78-4 14.55-16.06 12.36-25.44 3.1 1.41 3.55 1.33 5.21 1.41 1.16 2.7-1.51 8-1.41 11.1a103.34 103.34 0 0 0 1.36 11.47Z"/><path class="o" d="M391.48 98.44a64.48 64.48 0 0 0 .83 9.39l.52 3.77a3.39 3.39 0 0 1-.69 2.47 2.31 2.31 0 0 1-2.3.93c-1.32-.31-1.88-1.81-2.4-3-1.64-3.89-4.85-7.1-5.69-11.22-1.87-9.2 1.25-18.78 4.76-27.46-.88-3.17 1.57-6.23 3.84-8.6 3.17-3.3 6.43-6.67 10.56-8.64 6.46-3.09 14.1-2.29 21-.52 3.54-1.23 5.16-.39 8.23.09s7.21 1.9 9.35 4.16c3.09 3.24 4 8.24 7.49 11 2.17 1.75 5.09.59 7 2.63 3.08 3.29 2.37 10.68 5.23 14.15.14 1.92 1 3.87-.35 6.69 3.57-.38 3.35 2.59 5.18 3.17a12.08 12.08 0 0 0 4 .2 6.37 6.37 0 0 1 3.91.79 2.59 2.59 0 0 1 .87 3.51 5.77 5.77 0 0 1-2 1.52c-2.63 1.14-4.44 3.33-6.57 5.26s-2.79 3.1-5.25 4.5-7.58 3.9-9.57 1.88c-2.47-2.49-1.3-9.06-3.2-12-1.27-2-3.6-2.93-5.58-4.2a5.28 5.28 0 0 1-2.55-3c-.31-1.3.61-2.93 1.95-2.87 1.09 0 1.83 1.07 2.63 1.82s2.27 1.16 2.84.22a1.61 1.61 0 0 0-.8-2 9 9 0 0 0-2.37-.65c-3.35-.84-5.33-4.16-7.3-7a19 19 0 0 0-6.72-6.43c-2.84-1.4-6.46-1.56-9 .27-.66.46-1.23 1-1.93 1.43-2.48 1.4-5.53.14-8.33-.38-1-.18-2.18-.17-2.71.67a2.82 2.82 0 0 0-.18 1.91 12.12 12.12 0 0 1-.15 4.84 5.08 5.08 0 0 1-3.11 3.5c-1.2.38-2.73.27-3.45 1.3a4.62 4.62 0 0 0-.53 1.76 5.83 5.83 0 0 1-7.46 4.14Z"/><path class="m" d="M396.56 110.23a3 3 0 0 1 .79-1.81 15.46 15.46 0 0 1 4.83-4.24 11.12 11.12 0 0 1 6.23-1.36M413.74 98a3.44 3.44 0 0 1 .57-1.79 14.34 14.34 0 0 1 13.09-7v-.7M418.37 101.34a7.66 7.66 0 0 1 1.37-3.12 13 13 0 0 1 2.2-2.75 5 5 0 0 1 3.18-1.35c.58 0 1.16.13 1.75.08a1.56 1.56 0 0 0 1.39-.89M422.36 101.8a6.2 6.2 0 0 0 3.55-2.68M401.29 113.27c1.12-3.75 5.42-6 8.88-6.58M404.07 114.79a5.17 5.17 0 0 0 4.17-.69 9.1 9.1 0 0 0 2.93-4"/><path class="s" d="M402.78 111.28a3 3 0 0 0 2.22.72 1.92 1.92 0 0 0 1.64-1.56 1.42 1.42 0 0 0-1.38-1.6M420.71 97.72c-.29 1 1 2.11 2.11 1.85a1.5 1.5 0 0 0 .82-2.49 1.86 1.86 0 0 0-2.82.73"/><path class="m" d="M407.46 102.75a38.41 38.41 0 0 1 5.61 5.93 8.62 8.62 0 0 1 1.57 2.76c.77 2.53-.4 5.67 1.34 7.67.93 1.07 3.87.94 5.2.17a7.66 7.66 0 0 0 3.41-4c.25-.6.42-1.39 0-1.84a1.29 1.29 0 0 0-.59-.31 3.29 3.29 0 0 0-2.82.51"/><path class="t" d="M457.83 102.21a2.8 2.8 0 0 0 .31 2.17.58.58 0 0 0 .32.28c.21 0 .39-.13.51-.3a1.88 1.88 0 0 0 .52-1.52c-.11-.54-.84-.93-1.25-.56"/><path class="m" d="M459 113.45c-2.21.91-2.95 3.81-2.39 6.14s2.06 4.29 3.19 6.4 1.9 4.67.92 6.86a8.59 8.59 0 0 1-2.37 2.83c-3.87 3.35-8.74 6-13.85 5.68a8.26 8.26 0 0 1-3.95-1.13c-2.41-1.54-3.68-4.79-6.46-5.46M375.74 204.62c-2.16.69-2.95-.14-4.49-1.81s-3-3.67-5.25-3.57M356.23 213.17c-1.67-.35-3.37.58-5.07.44-2.4-.2-4.08-2.4-5.3-4.48a16.66 16.66 0 0 1-2.54-6.56 7 7 0 0 1 2.4-6.34"/><path class="m" d="M350 215.18a17.58 17.58 0 0 1-6.49-1.88 8.09 8.09 0 0 1-1.35-13.13"/><path class="m" d="M338.35 204.45c-2 1.33-2.64 4-2.38 6.35a3.22 3.22 0 0 0 .52 1.8c1.68 1.94 3.87 2 5.2 2.29M336.9 215a8.22 8.22 0 0 1 1.59 2.15.83.83 0 0 1 .12.59.72.72 0 0 1-.32.35 3.09 3.09 0 0 1-3.6-.37 4.54 4.54 0 0 1-1.42-3.49 8.86 8.86 0 0 1 1-3.72"/><path class="u" d="M463.91 118c-.48 2.14.87 4.2 1.93 6.12a16 16 0 0 1 2.24 9.12c-.28 2.92-1.68 5.81-1 8.68"/><path class="q" d="M538.23 103.52c2.63.2 5.34.4 7.85-.42a19.2 19.2 0 0 0 3.06-1.4 25.24 25.24 0 0 0 5.74-3.89 9.72 9.72 0 0 0 3.12-6M548.13 92.46c4.1-2.18 9.34-1 13.5-3 4.85-2.37 6.91-8.44 11.58-11.13 2.55-1.46 5.59-1.76 8.27-3a13.44 13.44 0 0 0 7.52-9.42M581.58 54.08c1.32-2.82 4.6-4.17 7.68-4.58s6.9-.47 9.91-1.25a14.3 14.3 0 0 0-2.39 4.08c-.77 2.13-.95 4.43-1.68 6.56s-2.26 4.25-4.48 4.68c-1.73.33-3.47-.42-5.24-.52-2.85-.16-5.5 1.37-8 2.84M587.83 39.79c2.06-4.4 7.4-6.1 12.23-6.67s10-.55 14.05-3.22 6.16-7.4 10.11-10.08c-5.39-.93-11 .9-16.13 2.93s-10 4.61-15.27 6M600.91 46.4c1.37-1.19 2.71-2.43 4-3.7 2.15-2.1 4.36-4.8 3.81-7.75M605.32 13.68A31.6 31.6 0 0 1 620.69-.06M637.17-.31c-.15 1.65-1.36 3-2.53 4.15a115.61 115.61 0 0 1-14.18 12.05 8.24 8.24 0 0 1-4.25 1.9M506.5 12.29a23.87 23.87 0 0 0 2.39-1.42C513.2 8 517.68 5.05 520.22.56M514.91 28.64a26.89 26.89 0 0 0 9.9-6.2c.79-.79 1.59-1.88 1.19-2.92a2.68 2.68 0 0 0-1.28-1.25 11.4 11.4 0 0 0-12.54 1M519.07 45.65a14.73 14.73 0 0 0 10.62-4.24c.73-.74 1.38-2 .64-2.71a1.82 1.82 0 0 0-.8-.42A13.5 13.5 0 0 0 518 40M518.56 64.08a12.27 12.27 0 0 0 7.45-6 42.29 42.29 0 0 0-8.34-.31M512 85.91a10.06 10.06 0 0 0 8-4.42c.47-.7.82-1.69.28-2.33a1.9 1.9 0 0 0-.92-.53 8.9 8.9 0 0 0-6 .18"/><path class="q" d="M512.6 82.2a6 6 0 0 0 5-1.7M518.27 61.19l3.9-1.79M518.23 42.89a17.22 17.22 0 0 0 9-3.21M515.14 24.17a7.5 7.5 0 0 0 7-2.5M559.4 77.61c3.68-1.2 6.59-2 9.22-4.84a2.83 2.83 0 0 1 2 2.29 8.31 8.31 0 0 1-.21 3.21M559.62 81.35a8.06 8.06 0 0 0 7.38-2.79M569.85 71.09a13.22 13.22 0 0 0 2.56-6.89M563.43 71.5a10 10 0 0 0 4.57-5.9 12.69 12.69 0 0 1-6.64 3.25M561.84 64.6c1.93-.12 3.67-1.11 5.45-1.87s3.84-1.29 5.59-.49M567.83 51.72c3.24-.74 8.55-3.21 10.93-5.54.92 2.6-.1 5.57-1.88 7.68a24.19 24.19 0 0 1-6.62 4.9c-1.9 1.1-4 2.23-6.14 2.1M566.45 45.73a32.06 32.06 0 0 1 12-4.8M570 39.71c2.15.22 4.22-.83 6.13-1.85 2.69-1.43 5.47-2.94 7.27-5.4s2.3-6.16.29-8.45a27.3 27.3 0 0 1-11.17 4.66"/><path class="q" d="M571.48 36.07q4.21-3.82 8.73-7.31M571.82 24.89c3.7-2.86 9.65-7.87 11.58-12a7.7 7.7 0 0 0 0-5.85 22.66 22.66 0 0 0-3.06-5.16"/><path class="q" d="M570.62 13.14a8.26 8.26 0 0 0 4.5-.27 8.4 8.4 0 0 0 1.75-1.21c1.09-.9 2.43-2.35 3.52-3.25a36.81 36.81 0 0 1-7.76 10.51M568.13 11.23c-.59-1.38.46-2.91 1.59-3.89 2.85-2.46 5.58-1.45 9.33-1.15M588.9 3.75a9.3 9.3 0 0 0 6.1-2.44M538.21 24.62a13 13 0 0 0 11.14-6.12M535.68 18.53a14.51 14.51 0 0 0 9.78-3.7M524.2 92.75c2.15-2.74 5.65-4 9.06-4.75s6.94-1 10.15-2.35a17 17 0 0 0 8.76-8.28M533.2 92.56c1.31.31 2.32-1 3.28-2a7.13 7.13 0 0 1 7.59-1.43M535.55 102.69a48.58 48.58 0 0 0 9.26-8.51M533.72 81.07a7.36 7.36 0 0 0 6.45-2.26M555.05 63.84a12.15 12.15 0 0 1-4.24 3.93c-2.29 1-4.94.56-7.45.5s-5.43.56-6.55 2.81M544.11 78.85c.23-1.88-1.76-3.46-3.66-3.44a8.13 8.13 0 0 0-5 2.42M557.67 72.61c-4 .58-7.32-3.47-11.32-3.46M538.22 61.34a56.55 56.55 0 0 0 7-.07c2.33-.17 5.08-.81 5.92-3M540.07 56.19c1.88-1.75 4.69-1.93 7.25-1.84s5.27.31 7.54-.88a11.11 11.11 0 0 0 4.28-4.9M555.16 59.43a3.86 3.86 0 0 0-2.48-3.65 11 11 0 0 0-4.65-.61M541.86 48.3a21.44 21.44 0 0 0 7.37-.18 7.59 7.59 0 0 0 5.46-4.56M541.7 43.32a23.82 23.82 0 0 1 8.37-2.46c4-.27 7.89 1 11.68 2.19M562.55 28.49a7.57 7.57 0 0 0 3.33 4.07 100.68 100.68 0 0 0-9.22 6.1M539.35 37.17a17.94 17.94 0 0 1 14.06-3.87M558.6 19.78a24.82 24.82 0 0 1-14.77 10.56M567.5 26.93c-5.22-.44-10.84-.79-15.35 1.9M556.87 13.55a25.12 25.12 0 0 1 7.25-.26M562.7 3a4.66 4.66 0 0 0-2.45 1.77 51.93 51.93 0 0 1-12.71 10.61M534.27 9.87a8 8 0 0 0 8-4.31M530.34 5.48a10.39 10.39 0 0 0 7.8-3.85M425.17 148.86a16.41 16.41 0 0 0-9.73-7.75M405.6 140c-1.41-.54-3-.17-4.49-.21a8.29 8.29 0 0 1-7.27-5"/><path class="r" d="M391.53 134.86a18.2 18.2 0 0 0-1.85-9.5 13.29 13.29 0 0 0-7.12-6.41c-2.21-.79-4.64-.9-6.83-1.76-4.32-1.68-10.23-7.81-10.7-12.42-.77-7.42 4.78-14.4 4-21.81-.39-3.9-2.49-7.39-4.53-10.73"/><path class="q" d="M397.72 145.53a7.06 7.06 0 0 0-7.35 5.66"/><path class="r" d="M371.55 143.31a4 4 0 0 0 .24 2.26M357.17 134v3.09"/><path class="q" d="M348.78 127.15c-4-.09-8.1 3-11.85 1.53 1.86-2.15 6.6-6.26 9.44-6.24.5 0 1.12.13 1.26.61"/><path class="r" d="M338.24 107.46a7.56 7.56 0 0 0-7.65 2 12.06 12.06 0 0 1-2.07 2.15M334.68 90.87c-2.68 0-4.51 2.79-7.08 3.6"/><path class="q" d="M338.3 78.82a8.61 8.61 0 0 0-6.47.86c-1.93 1.12-3.64 3.07-5.88 3 2.89-3.33 3.77-6 8.16-6.33"/><path class="r" d="M335.49 61.13a13.68 13.68 0 0 0-12.35 4.49M330.12 46a7.66 7.66 0 0 0-8.19 3.55M148 .56s12.38 18 35.75 23.08M333.52 40s-12.39-6.76-26.18-7.61-26.19.57-44.49-5.91"/><path class="r" d="M266.79 33.78s-29.84-1.69-49-4.22-25.89-8.45-34.9-11.56-21.4-6.46-25.89-10.12"/><path class="r" d="M260 26.18a111.76 111.76 0 0 0-22.81-1.13 99.68 99.68 0 0 1-24.5-2"/><path class="q" d="M326.77 150.06s-7.61 5.35-12.11 1.69-1.13-10.13-1.13-10.13-7 7.88-11 3.1 1.69-12.39 1.69-12.39-9.29 3.09-11-1.41 1.13-11 1.13-11-8.45 1.41-9.86-.57.28-11.82 5.07-11c0 0-14.36.85-14.64-2.53s-1.13-8.73 5.63-9.85c0 0-10.7 2.25-12.39-1.41s8.45-9 8.45-9-9.86 3.09-11.26-2.54 5.06-8.72 5.06-8.72-11-2.26-11-5.35 8.17-3.66 8.17-3.66-9-2.82-9.29-6.48 3.94-5.91 3.94-5.91M387 143.59s-.28 12.39-4.79 11.82-4.78-14.35-4.78-14.35-3.66 12.1-6.48 11.82-4.5-14.64-4.5-14.64-7.32 12.67-13 9.85-1.4-19.42-1.4-19.42"/><path class="q" d="M354.92 131.48s-17.45 10.42-22.8-2.53 12.38-14.08 12.38-14.08-21.39 6.19-23.65-3.1 7.61-10.13 7.61-10.13M342 98s-10.42 4.78-14.92 2-7-5.92-6.48-9 7.89-4.51 7.89-4.51"/><path class="q" d="M343.38 85.87s-26.19 2.25-27.88-4.22 9-8.73 9-8.73M341.13 72.35s-11.55.29-18.59-2-19.71-6.75-20-9.85 33.23-2 33.23-2M321.42 56.31s-11.55-4.23-11.83-7.89 1.13-9.57 27.59-6.47M370.13 156s-18 .56-22.53-.85M355.2 151.47s-15.76.85-23.37-4.22-4.5-9.57-4.5-9.57M324.8 135.42s-13.24 3.1-16.05-5.06 10.41-9.3 10.41-9.3M312.69 121.06s-11.83-2.53-12.11-7.32 11.26-5.63 11.26-5.63M307.9 106.42s-10.42-.28-10.7-5.35 9.29-7.88 9.29-7.88M302 93.47s-14.92 1.41-14.64-5.91S302 80.8 302 80.8M293 80.52s-8.45-2.25-8.45-7.6 12.39-4.51 12.39-4.51M292.7 67.29s-13.8-5.35-13.52-8.73 13.52-2.82 13.52-2.82-11-5.63-11-8.44 5.06-5.92 16-4.79M325.48 153.06a12.1 12.1 0 0 0 15.19.45c1.55 1.88 2.07 5.18 4.5 5l11.17-.65M271.88 99.26c-8 1-16.17-1.13-23.45-4.62s-13.83-8.32-20.33-13.12M267.64 89.25s-24.22-2.25-36.32-7-27.6-12.39-34.92-18.3a105.87 105.87 0 0 1-10.4-9.33"/><path class="q" d="M262.29 80.52s-35.2-5.63-46.18-10.7-34.35-18.3-43.36-24.82-25.9-21.68-25.9-21.68"/><path class="q" d="M257.22 68.41s-29.56-3.66-43.36-8.73S183.45 51 175.57 47M266.23 54.62s-7.6-5.07-19.71-5.63-30 .61-45.61-1.69c-17.18-2.54-41.67-13.24-54.34-24.5"/><path class="q" d="M289.88 39.13s-16.89-.84-30.69-.84-28.15 3.09-39.7 1.4-36.88-5.91-43.92-8.44-23.93-7.89-32.66-22-5.35-9-5.35-9"/><path d="M146.57 22.8S134.18 9.29 129.11.28" style="stroke:#000;stroke-linejoin:round;fill:none"/><path class="q" d="M255 38.29s-16.9-2.82-31-3.66-39.14-1.41-44.77-2.82M297.18 62.94a11.35 11.35 0 0 1-6.88-.69 12.42 12.42 0 0 1 6.88-3M302 48.51a3 3 0 0 1-2.85-.42 9 9 0 0 0-2.61-1.47c-1-.24-2.25.27-2.34 1.27M302.53 76.54a6.24 6.24 0 0 0-.74-2.15 2.11 2.11 0 0 0-1.9-1 3.1 3.1 0 0 0-1.2.5l-4.95 3a.5.5 0 0 1 .84.09M316.07 104.94a4.77 4.77 0 0 1-4.08-.72c-1.06-1-.95-3.11.43-3.49M313 96.51a12.28 12.28 0 0 0-6.18 5.41M303.63 88.51a10 10 0 0 1-7.39-.72M313.53 111.08a8.47 8.47 0 0 0-6.23 3.32 36.84 36.84 0 0 0 7.3 4.28M319.73 125.87c-2.9 1.09-2.46 4.65-3.58 7.55a39.12 39.12 0 0 1 7.78-1.83c-1.6-.6-3.8-2.36-4.71-.92"/><path d="M367.59 71.23a4 4 0 0 1-.12-1.34c0-.45 0-.9.07-1.35.08-.9.19-1.8.32-2.69a51.13 51.13 0 0 1 1.16-5.3 42.2 42.2 0 0 1 4.19-10.11 27.61 27.61 0 0 1 3.33-4.44c1.31-1.36 2.61-2.58 4-3.79a61.1 61.1 0 0 1 8.94-6.41 56.48 56.48 0 0 1 20.8-7.29 64.05 64.05 0 0 1 22.05 1.07A62.93 62.93 0 0 1 452.74 38a48.69 48.69 0 0 1 8.59 7.11 39.19 39.19 0 0 1 3.58 4.33c.51.77 1 1.53 1.53 2.32s1 1.57 1.39 2.39a52.34 52.34 0 0 1 4.28 10.17A59.44 59.44 0 0 1 474.23 75a60.64 60.64 0 0 1-1.62 21.54 68.3 68.3 0 0 0-.31-21.27 55.5 55.5 0 0 0-7.15-19.63c-.43-.76-.94-1.46-1.41-2.19s-1-1.41-1.52-2.11a37.6 37.6 0 0 0-3.39-3.86 45.17 45.17 0 0 0-8.12-6.37 60.7 60.7 0 0 0-19.25-7.71 61.69 61.69 0 0 0-20.7-1.22A56 56 0 0 0 391 38.47a63.12 63.12 0 0 0-8.8 5.72 52.969 52.969 0 0 0-4 3.36 26.92 26.92 0 0 0-3.32 4 42.82 42.82 0 0 0-4.79 9.39c-.62 1.66-1.16 3.36-1.62 5.08-.23.86-.44 1.73-.61 2.61-.09.44-.16.88-.22 1.32a4 4 0 0 0-.05 1.28Z" style="fill:#382c1d"/><path d="M437.84 194.07c-1.56-2.91-4-4.66-7.32-4" style="fill:#637c51;stroke:#505638;stroke-miterlimit:10"/><path class="y" d="M543.86 128.41c-3.36-3.67-10.49-6.63-15.22-8.19 3.64-.8 8-.12 11.55.85a68 68 0 0 1 10.39 4.05M553.36 115a19.28 19.28 0 0 0-16.34-.83M552.88 122.2c8.71-8.74 28-.53 30.93 2.27"/><path class="y" d="M530.85 126.13a16.05 16.05 0 0 0 16.44 12.8c6.31-.48 11.63-4.67 17.47-7.12 7.09-3 16.2-3 21.56 2.53"/><path class="y" d="M584.65 139.54c-3.47.79-6.91-1.21-9.9-3.14l-6.27-4M584.59 147.9a25.49 25.49 0 0 0-7.71-5c-2.46-1-5.07-1.64-7.55-2.61a14.11 14.11 0 0 1-6.47-4.5M538.29 128.62a12.41 12.41 0 0 0-4.91-4.65M539 145.48a34 34 0 0 0-4.26-8.88M528.64 131.07a137.8 137.8 0 0 1 8.36 24.34 15.62 15.62 0 0 1 .62 5.63c-5.72-9.76-13.45-18-19.17-27.73M531.15 168.65c.36-3-.48-5.94-1.39-8.79q-2.16-6.8-4.89-13.41M515.06 136a60.61 60.61 0 0 0-1 14.61"/><path class="y" d="M519.6 140.87c1 5.26 2 10.79.45 15.91-1.14 3.67-3.52 6.81-5.86 9.86l-9.41 12.3c-5.14 6.72-11.13 14-19.5 15.18-2.6.38-6.89-1.68-9-3.23M523.74 171.2c-1-6.06 1.27-12.25.62-18.36"/><path class="y" d="M543.05 140.53c.54 6.37 1 13-1.24 19a33.1 33.1 0 0 1-4.72 8 144.74 144.74 0 0 1-11.66 13.09l-11.24 11.66c-2.67 2.76-5.4 5.57-8.8 7.36a18.62 18.62 0 0 1-22.45-4.64"/><path class="y" d="m512.79 185.76-4.1 4.86c-1.47 1.74-3.07 3.57-5.25 4.24a10.37 10.37 0 0 1-2.94.33 31.54 31.54 0 0 1-9.59-1.49M532.19 190.74c7.92 13.31 25.39 20.68 31.56 34.88-4.68-6.44-12.06-10.29-19.38-13.42s-15-5.84-21.2-10.79M536.44 182.9c2.37 4.65 6 8.52 9.58 12.32l9.52 10.13c4.06 4.32 8.25 8.85 10 14.52M546.44 179.08c-.73 3.31 1 6.63 2.9 9.45 7.49 11.27 17.87 20.49 24.64 32.2M598.75 184.42s-5.91-9-13-3.95c-5.33 3.84-2.53 25.34-2.53 25.34M581.86 159.92s-8.72-2.12-11.26 1.69c-6.2 9.29-3.38 20.83-3.38 20.83M615.93 204.69s-4.43-4.7-7.6-2c-5.92 5.06-3.1 27.59-3.1 27.59M613.52 180.52c2.08 4.1 6.05 6.91 8.54 10.77s3.29 8.17 3.88 12.54a113.46 113.46 0 0 1 1 16.06M637.13 214.72c-2.66-2.45-3.85-6.06-5.15-9.43a85.41 85.41 0 0 0-14.14-23.95M614.18 194c.59-3-.92-6-2.46-8.59a175.39 175.39 0 0 0-15-21.78M602.46 182.18c.25-1.86-.75-3.65-1.81-5.2-5.52-8.1-13.43-14.42-18.42-22.85"/><path class="z" d="M673.93 223s-59.69 18.86-69.26 16.61-20.84-13.23-27.32-22.24-24.77-31-28.43-42.8-5.63-25.06 2-27.31 20.83.75 29.84 4.5c6.76 2.82 35.48 17.74 39.42 23.09 6.05 8.22 25.9 32.66 25.9 32.66"/><path class="y" d="M652 229.46c-5.29.12-32.54 2.68-37.84 2.8a35.42 35.42 0 0 1-9-.57 26.93 26.93 0 0 1-9.79-5.1c-9.26-7.08-16-16.88-22.56-26.52l-12-17.67c-3.64-5.33-8.13-13.75-6.73-21.35"/><path class="y" d="M603.44 216a23.27 23.27 0 0 1-2.27-13.82M604.14 227.16a26.84 26.84 0 0 1-10-19.65M580.82 203.52a48.32 48.32 0 0 1-4.5-7.66 16.48 16.48 0 0 1-1.49-8.67M581 193.58a31.92 31.92 0 0 1-2.89-13.94 2.06 2.06 0 0 1 .61-1.73M583.64 182.43a11.72 11.72 0 0 1 2.3-9.39M565.44 177.89l-1.73-6.58c-1.22-4.69-2.45-9.69-.92-14.28M567.85 165a10.2 10.2 0 0 1 3-9.3M544.67 230.8c11.13 2.35 20.25 10 28.85 17.5M556.51 231.05c10.78 2 20.2 8.36 29.27 14.55M532.62 237.59a75.77 75.77 0 0 1 8.79 10.31M537.22 235.93a80.54 80.54 0 0 1 16.95 10.46c2.24 1.81 4.5 3.93 5.12 6.74M569.18 229.76a96.78 96.78 0 0 1 37.35 23.75M630.61 240.59a53.87 53.87 0 0 1 16.64 7.64M606.17 243.67a160.27 160.27 0 0 1 19.44 14.68M620.72 246.54a10.41 10.41 0 0 1 4.32 1.6 90.36 90.36 0 0 1 16 11.45M574.34 271a45.12 45.12 0 0 0 9.4 5 19.47 19.47 0 0 0 3.33 1c4.51.88 9.08-.79 13.37-2.44M583.87 268c3.15.95 6 3.28 9.25 3.21a12.94 12.94 0 0 0 3.81-.87l3.77-1.34M568.22 274.13c2.3 5.3 7.83 8.67 13.51 9.72s11.53.11 17.16-1.19M638.18 266.86c4.12.78 8.23-1 12-2.82a178.29 178.29 0 0 0 16.4-8.4M631 279.06c16.38-6.7 33.28-13.75 45.5-26.54"/><path class="y" d="M659.43 273.32c2.6-4.75 7.39-7.8 11.79-11 7.23-5.18 14-11.21 19-18.56s8.17-16.13 7.9-25M672.25 270a58.78 58.78 0 0 0 20.22-16.66M659.85 231c1.55.13 2.74 1.35 3.79 2.5l4.08 4.5a6.2 6.2 0 0 0 3.11 2.24M645 234.6l18.05 7.54a3.87 3.87 0 0 0 3 .38M640.33 237.3a64.88 64.88 0 0 0 8.24 4.16c2.4 1 4.86 1.87 7.34 2.63M684.94 201.91c-1.83 5.58-5.55 10.39-9.89 14.33a102.73 102.73 0 0 1-14.3 10.24M660.31 202.72c-.45 5.63-.74 11.81 2.6 16.37M666.36 198.79a27.73 27.73 0 0 0-1.36 11.54M674.22 191.18a39.08 39.08 0 0 0-3.41 15.76M678.8 187.26a47.91 47.91 0 0 0-2.06 14.33M694.71 177a11.43 11.43 0 0 0-12.77 5.63M682.38 188.08a24.19 24.19 0 0 1 3.62 14.07M677.83 221.25a26.57 26.57 0 0 0 5.9-1 33.79 33.79 0 0 1 10.18-.6M666.61 231.72h9M602.15 147.37c3.07.5 5.11 3.33 6.81 5.93l5.13 7.84M600.4 152.35q4.08 5.19 8.51 10.09M620.19 159.08a9.68 9.68 0 0 0 2.77 8.45"/><path class="z" d="M501.05 214.15c5.18 1.19 10.22 2.92 15.3 4.46a221.11 221.11 0 0 0 45.89 8.73c-7.24-2.52-15.87-7.59-22.54-11.37s-14.19-6.86-21.8-5.94"/><path class="t" d="M392.48 82.11A6.42 6.42 0 0 1 405.17 81a11.82 11.82 0 0 1 .18 2.38 10.66 10.66 0 0 1-1.3 5.74c-1.09 1.66-3.28 2.76-5.12 2a2.52 2.52 0 0 1-1.65-2.46 1.66 1.66 0 0 1 2.34-1.28M406.17 79.9a14.7 14.7 0 0 1 4.86.27c.63.14 1.26.33 1.9.41a5.27 5.27 0 0 0 4.79-2 4.56 4.56 0 0 0 .21-5.1 5.83 5.83 0 0 0-2-1.73 5 5 0 0 0-2.66-.77 2.66 2.66 0 0 0-2.27 1.39c-.59 1.25.2 2.75 1.24 3.66a3.28 3.28 0 0 0 3.47.82M420.11 74a16.5 16.5 0 0 0 3.42 2.5 7.75 7.75 0 0 0 5.17 1.15 3.85 3.85 0 0 0 3.23-3.74 4.57 4.57 0 0 0-2.65-3.36c-1.39-.74-3.33-1-4.33.2a2.26 2.26 0 0 0 .06 2.86 2.42 2.42 0 0 0 2.85.5M432.1 77.07c-.24.69.32 1.38.84 1.89l2 2a5.59 5.59 0 0 0 2.37 1.64 3.18 3.18 0 0 0 3.53-1.74 4 4 0 0 0-.52-4 5.38 5.38 0 0 0-3.65-2 1.33 1.33 0 0 0-.74.06 1.21 1.21 0 0 0-.55 1 3.15 3.15 0 0 0 1.38 2.82M438.74 84.78a3.54 3.54 0 0 0 1.38 3.59A6.3 6.3 0 0 0 444 89.5a4.24 4.24 0 0 0 2.7-.75c1.37-1.11 1.24-3.37.17-4.77-.78-1-2.31-1.72-3.35-1M397.63 92.65a5 5 0 0 1-1.86 5.26 2.64 2.64 0 0 1-1.27.53 3.11 3.11 0 0 1-2.24-.94 4.89 4.89 0 0 1-1.7-2.58 2.69 2.69 0 0 1 .95-2.8 2.13 2.13 0 0 1 3.3 2.17M390.68 105.94l.54-3.36a2.87 2.87 0 0 0-1.64-3.88 2.25 2.25 0 0 0-2-.34 2.19 2.19 0 0 0-.87 1.68c-.14.89-.12 2 .69 2.43a2.29 2.29 0 0 0 1.85-.16M454.22 81l2.22.36a8.51 8.51 0 0 0-5.11-9.16c-1.7-.67-3.62-.78-5.14-1.76-2.31-1.49-3-4.44-4.26-6.9a15.88 15.88 0 0 0-7.77-7.4M447.84 90.19c0 3.92.53 7.45-.58 11.17-.89 3 .42 6.13 2.23 8.63a9.09 9.09 0 0 0 4.21 3.51 4.2 4.2 0 0 0 4.92-1.51M445 99.86a3.58 3.58 0 0 1-3-.34 8.56 8.56 0 0 1-2.31-2.06c-.68-.78-1.36-1.79-1-2.75a2.31 2.31 0 0 1 2.4.3 6.71 6.71 0 0 1 1.63 1.99M448.67 110.48a5.36 5.36 0 0 0 .39 3.74 4.33 4.33 0 0 0 3.6 1.54 3.19 3.19 0 0 0 2.49-.81M463.23 104.08c-.94-5.45-4.75-5.32-6.79-5.57M456.17 82.39a14.27 14.27 0 0 1 3.2 5.53 8.1 8.1 0 0 1-.63 6.24c.49-.11 7.49 1.66 7.12 8.6"/><path class="t" d="M460.6 106.89a6.38 6.38 0 0 1-6.7-4.85M458.91 110.66c-1.34-.24-2.8.34-4-.22a4.73 4.73 0 0 1-1.18-.85 14.82 14.82 0 0 1-2.53-2.59 5 5 0 0 1-.91-3.43M392.65 112.71a1.76 1.76 0 0 1-.74 1.74 3.4 3.4 0 0 1-1.9.55 1.27 1.27 0 0 1-.64-.1 1.42 1.42 0 0 1-.48-.52 20 20 0 0 1-2.25-4.11 22.5 22.5 0 0 0-.77-2.13 19.92 19.92 0 0 0-1.73-2.47 11.33 11.33 0 0 1-2.07-6.09c-.12-3.36.36-8.3.39-11.66a34.65 34.65 0 0 1 .37-5.48 18.59 18.59 0 0 1 7.93-12.15"/><path class="t" d="M395.68 72.73c-.45-.17-.87.26-1.15.65-1.58 2.19-3.22 4.53-3.48 7.22M405.17 61.77a19.91 19.91 0 0 1 10.37-4.34M408.24 62.83a11.19 11.19 0 0 1 5.23.51c.59.2 1.23.53 1.37 1.13s-.38 1.31-.95 1.71a6.38 6.38 0 0 1-3.63 1.15 2.24 2.24 0 0 1-1.78-.65c-.71-.89.06-2.31 1.14-2.66a5.33 5.33 0 0 1 3.32.38M425.32 60.12a18 18 0 0 0 2.65 0 4.47 4.47 0 0 1 2.55.61 2.05 2.05 0 0 1 .89 2.3c-.38 1-1.6 1.32-2.66 1.4a3.75 3.75 0 0 1-2.82-.67 1.3 1.3 0 0 1-.47-.92.73.73 0 0 1 .62-.74"/><path class="t" d="M433.39 56.57c-1.68-.34-3.29-1-5-1.33s-4.68-.46-6.2.33a28.15 28.15 0 0 0-35.75 16.15M440 140.3c.89 3.61.75 10.14-1.86 12.48-2.77 2.48-7.77 1.18-10.08-1.73a5.7 5.7 0 0 1-1.22-4.77 3.89 3.89 0 0 1 3.63-3 6.51 6.51 0 0 1 3 1.12c1.06.61 2.26 1.47 2.21 2.69a2.41 2.41 0 0 1-1.12 1.77 4 4 0 0 1-3 .63"/><path d="M431.52 141.43a11.17 11.17 0 0 0-2.8-4.35" style="stroke:#1d1d1b;stroke-linejoin:round;fill:none"/><path class="t" d="M428.32 165.27c-.75.65-6.08.53-6.76-.18-2.1-2.16-10.14-9.21-4.13-7.14M390.94 112c-.89-.45-1.88-1.2-1.74-2.19a1.59 1.59 0 0 1 2.06-1.08 2.58 2.58 0 0 1 1.54 2 7.59 7.59 0 0 1-.15 2.64"/><path class="p" d="M530.45 120.78a3.26 3.26 0 0 0-3.22-.34 21 21 0 0 0-3 1.63c-2.49 1.36-6.19 3.3-8.39 1.5-4.58-3.74-10-7.72-15.81-6.76s-9.74 6.58-13.63 11.17a57.4 57.4 0 0 1-9 8.51 98.63 98.63 0 0 0-8.29 6.38 49 49 0 0 0-6.77 8.58q-5.59 8.36-10.78 17c-2.69 4.49-5.7 9.36-10.61 11.15l-.11-.07c-6.6 6.74-16.14 15.44-24.82 19.13-6.52 2.78-13.74 3.55-20.83 3.59-4.65 0-11.43 1.28-15.82-.24l10.42 12.39c10.33 1.29 35.56 1.59 44.7-3.4s18.8-11.84 23.57-21.09l.43.14c0 2.07.34 4.65 1.66 6.26 1.83 2.24 5.42 2.17 7.95.76s4.32-3.79 6.3-5.9c7.16-7.62 17.28-12 24.28-19.76A53 53 0 0 0 511 148.09c.57-2.42 1-5.94 1.83-8.3a16.22 16.22 0 0 1 4.08-6.34c1.42-1.56 2.36-2.6 4.35-1.9a4.17 4.17 0 0 0 1.64.51 2.18 2.18 0 0 0 1-.46 26.56 26.56 0 0 0 5.63-5.11 7.17 7.17 0 0 0 1.59-2.76 3 3 0 0 0-.67-2.95Z"/><path class="u" d="M468.9 177.64c.56-2.16-.79-4.31-2.07-6.13-2.55-3.65-5.43-7.52-9.7-8.77M465.06 192.6a4.24 4.24 0 0 0-1.15-2.69 38 38 0 0 0-6.7-7.49 12.78 12.78 0 0 0-9.36-3M479.51 184.69c.43-2.51 0-5.08.07-7.62s.6-5.29 2.52-7"/><path class="r" d="M374.85 177.85a45.36 45.36 0 0 0 .28 8.64M378 174.66a38.88 38.88 0 0 0 .39 8.62M386.88 164c0 2.5-.05 5.71-.05 8.21M390.21 160.39v8.26M398 151.61a74.19 74.19 0 0 0 .23 8M400.72 148.56c0 2.39.1 4.6.1 7.56"/><path class="p" d="M635.07 182.16c-1.71-.57-2.3-5-1.15-6.44s3.53-2.51 5.1-3.41a173.44 173.44 0 0 0 20.27-13.24c11-8.46 23.38-15.75 37.08-17.71 2.07-.3 3.86-1.67 5.82-2.39a1.85 1.85 0 0 1 1-.16c1 .21.91 1.71.5 2.67a38.85 38.85 0 0 1-4.7 8.18 12.2 12.2 0 0 0-2 3.27 20.73 20.73 0 0 0-.5 4c-.42 3.37-2.44 6.31-4.45 9.05q-6 8.09-12.58 15.65a15.74 15.74 0 0 1-3.65 3.36c-1.15.69-2.45 1.09-3.6 1.78a16.55 16.55 0 0 0-4.65 5l-6.19 8.76a2 2 0 0 1-1 .87 2 2 0 0 1-1.69-.68c-7.93-6.85-13.68-15.26-23.61-18.56Z"/><path class="t" d="M439 153a50.1 50.1 0 0 1-7.23 9.29c-1.47 1.61-3.36 3.37-5.5 3a4.88 4.88 0 0 1-2.73-1.8 9.51 9.51 0 0 1-2.19-5.25 2.72 2.72 0 0 1 .77-2.52 2.91 2.91 0 0 1 1.3-.43 6.47 6.47 0 0 1 3.47.2 2.75 2.75 0 0 1 1.8 2.73 1.77 1.77 0 0 1-2.63 1.25"/><path class="m" d="M355.2 225.8a13.1 13.1 0 0 1-10.35-7.5M358.86 222.05a10.32 10.32 0 0 1-9.19-7M361.64 218.39a11.06 11.06 0 0 1-7-5"/><path class="m" d="M341.91 220.84a4.42 4.42 0 0 0 .45 4.22c1.83 3.07 5.55 4.55 9.12 4.73s7.08-.72 10.58-1.37a31.2 31.2 0 0 0 9.37-3c4.05-2.16 5.94-3.12 11.37-2.44M361.25 216.92c3-1.37 5.23-4.08 8.36-5a16.28 16.28 0 0 1 4.12-.46c4.52-.11 10.62 2 15.12 3.08M362.32 192.21a5.58 5.58 0 0 0-6.38 2.07 6.78 6.78 0 0 0-1 2.83 9 9 0 0 0 2.18 7.17 41.23 41.23 0 0 0 3.68 3.17 1 1 0 0 1 .41.65 1 1 0 0 1-.37.65c-4.36 4.38-10-3-11.84-6.51a8.81 8.81 0 0 1-1.39-4.7 6.28 6.28 0 0 1 .88-2.61 12.17 12.17 0 0 1 6.53-5.14 24.82 24.82 0 0 1 8.36-1.18"/><path class="i" d="M292 299.09a8.42 8.42 0 0 0-5.4-3.55 4 4 0 0 0 1.46 4.64c1.51.89 3.88 0 4.1-1.72M286.13 292.8c.23-2 .41-4.12-.72-5.73-.6-.85-1.93-1.42-2.65-.67a1.9 1.9 0 0 0-.37.65 4.18 4.18 0 0 0 3.55 5.29M312.87 276.34c-1.14.4-2.52.77-3.47 0a2 2 0 0 1-.15-2.8 2.24 2.24 0 0 1 2.88-.2 2.57 2.57 0 0 1 .81 2.84M311.74 269.54a4.21 4.21 0 0 1-3 .13c-.92-.43-1.31-1.92-.43-2.43s2 .5 2.53 1.42M312.52 264.59a4.53 4.53 0 0 1-2.16-4 2.52 2.52 0 0 1 .73-1.78 1.37 1.37 0 0 1 1.8-.05 2.16 2.16 0 0 1 .46 1.42l.2 2.63c0 .62-.27 1.53-.85 1.3M332.48 240a5.05 5.05 0 0 0 1.29-2.21 2.63 2.63 0 0 0-.19-2.18 1.37 1.37 0 0 0-2-.36 10.74 10.74 0 0 0-.27 4.58 1.3 1.3 0 0 0 .34.79c.23.19.65.14.73-.14M335.79 231.72l-.07-4.15c-.57-.5-1.55 0-1.84.65a3.61 3.61 0 0 0 .05 2.25c.19.8.79 1.82 1.55 1.5"/><path class="ab" d="M258.66 317c3 1.65 6.5 2.29 9.74 3.5 12 4.5 20.22 16.5 32.46 20.41 1 .32 2.39.45 2.89-.49s-.14-1.73-.67-2.46l-8.38-11.3c-2-2.71-4.06-5.47-6.84-7.36s-6.34-2.86-9.71-3.72l-13-3.31c-3.33-.86-8.64-3.3-11.93-2.67-.11 3.21 2.84 6.01 5.44 7.4Z"/><path class="f" d="M157.24 189.73c-2-3.46-.48-8.16 2.58-10.75s7.21-3.46 11.21-3.74a30.12 30.12 0 0 1 15 2.34c4.61 2.19 8.51 6.23 9.7 11.19 2.72-4.43 9-5.72 13.85-3.89s8.42 6.12 10.85 10.69c1 1.9 1.88 4 1.49 6.16-.82 4.39-6.39 6.25-8.23 10.33 4.46.73 9.22-1.67 13.21.45a9.63 9.63 0 0 1 3.87 4.39 17.53 17.53 0 0 1-21.41 24.36c2.61 1 5.29 2 7.34 3.92s3.31 4.92 2.37 7.55a7.58 7.58 0 0 1-3.78 3.93c-6.84 3.56-16.5-1.37-17.62-9-1.84 9.82-11.32 17.63-21.31 17.56-6.18 0-12.47-3.08-15.61-8.4s-2.46-12.87 2.15-17c-2.58 2.71-5.24 5.47-8.63 7.06s-7.69 1.75-10.62-.57a11.7 11.7 0 0 1-3.23-4.57 26.05 26.05 0 0 1 4.3-27.23 11.37 11.37 0 0 1-16.72-12c1.06-5.64 6.33-9.73 11.9-11.15s11.64-2.36 17.34-1.63Z"/><path class="ac" d="M242.62 366.7a75.57 75.57 0 0 1 4-7.78 64.13 64.13 0 0 0 4.39-10.1c-.87-.57-1.86.52-2.31 1.46-3.4 7-4.64 14.37-7.31 21.53a15.1 15.1 0 0 1 1.23-5.11ZM218.61 388.82a18.89 18.89 0 0 0 1.84-2.87 3.44 3.44 0 0 0-.09-3.27 1.94 1.94 0 0 0-2.93-.35c-.19 4.33.82 11.28-1.16 15.1a13.7 13.7 0 0 1 2.34-8.61ZM219.92 335.13a51 51 0 0 0-7 29.64c-1.93-6.61-1-13.79 1.42-20.25 1.38-3.72 4.89-14.13 9-15.17-.93 2.01-2.28 3.85-3.42 5.78ZM265.28 341.58c-2.68 6.26-5 12.94-9.83 17.78q6.46-15.32 13.35-30.45c2.16-4.75 6.54-16.8 12.58-17.44 1 3.74-5.5 10.13-7.42 13.29a133 133 0 0 0-8.68 16.82ZM196 394.48c-.55 1.76-.4 3.68-.87 5.45q2.76-4.06 5.51-8.12c-1.71-1.09-4 .69-4.64 2.67ZM195 400.56c.08-.21.14-.42.2-.63l-.32.47-1.41 2.1a4.32 4.32 0 0 0 1.53-1.94Z"/><path class="ac" d="M231.49 313.07c-1-.92-2.56-.71-3.88-.43l-9.31 1.91a15.79 15.79 0 0 1 12.42-5.9l-15.22-.32a22.19 22.19 0 0 1 12.21-5.69c-5.57-.78-11.57-1.48-16.54 1.15a26.87 26.87 0 0 0-5.47 4.21c-10.44 9.61-20.89 19.23-30.62 29.56a81.84 81.84 0 0 0-10.54 13.11 47.93 47.93 0 0 0-6.68 30.24c.29 2.5 1.2 5.44 3.61 6.12a8.28 8.28 0 0 0-1.09.5 21 21 0 0 0-5.88 5.6c-7.36 9.22-14.35 20-13.51 31.8a2.79 2.79 0 0 0 1 2.35 2.91 2.91 0 0 0 1.55.25l6.75-.12c.06-4.81-2.62-9.37-2.4-14.18.31-6.7 6-11.74 11.17-16a38.88 38.88 0 0 1-2.59 6.11c-3.31 7.42-3.23 15.84-3.09 24 .2-5.58 2.28-10.9 4.32-16.1s4.1-10.37 6.14-15.56c1 3-.32 6.26-1.26 9.31-1.43 4.67-3.48 13-1.21 17.49.26-6.39.5-12.31 3.28-18.3 1.94-4.19 4.76-8.16 5.14-12.77a4.85 4.85 0 0 0-.3-2.45 3.86 3.86 0 0 0-1.36-1.53 6.29 6.29 0 0 0-3.7-1 6.15 6.15 0 0 0 2.24-5.39c-.38-3.1-2.44-5.68-3.78-8.49a14.43 14.43 0 0 1-1.33-9.25 19.51 19.51 0 0 1 2.56-5.75A62.62 62.62 0 0 1 180 340c-4.35 5.86-8.75 11.8-11.47 18.57s-3.61 14.58-.84 21.33a53.18 53.18 0 0 1 17.37-43.22c1-.84 2.47-1.64 3.34-.72a42.28 42.28 0 0 0-5.8 34c-.71-9.23 1.44-18.43 4-27.32 2.37-8.26 5.94-17.37 13.9-20.62-.75 2.56-3.16 4.21-5.24 5.9s-4.11 4.09-3.61 6.72c6.86-3.62 12.69-9.94 14.22-17.55 2.69-.52 5.87-.9 7.82 1a5.7 5.7 0 0 1 1 5.84c-.68 2-2.5 3.65-3.91 5.19-5.47 6-8.54 8.25-13.51 14.64s-10.16 15.24-10.16 23.29c0 14.64 3.76 23.28-4.5 40.92-3 6.34-3.73 13-4.11 20a26.54 26.54 0 0 1 9.87-.9 42.8 42.8 0 0 1 8.37-24.25 73.8 73.8 0 0 0-9.55 15.29c.15-5.69 3.06-10.83 6.24-15.63a2.59 2.59 0 0 1-3.29.14 35.61 35.61 0 0 0 5-16.21c.44-7.87-1.63-16.32 2-23.3a41 41 0 0 0-.3 21 70.78 70.78 0 0 1 11-42.28 76.14 76.14 0 0 0-6.75 22.86 45.4 45.4 0 0 0 4.59-9.36 51.44 51.44 0 0 0-2.55 23.67 108.86 108.86 0 0 1 8.29-38.92 25 25 0 0 0 1 8.6 73.87 73.87 0 0 1 3.17-18.54c.63-2.08 1.45-4.26 3.18-5.58 2.1-1.6 5-1.55 7.52-2.3s5.09-3.31 4-5.72c1.19.56 2.19-2.54 1.2-3.47Z"/><path class="ac" d="M174.36 392a6.9 6.9 0 0 0-.51-3.77 2.88 2.88 0 0 0-3.17-1.6c.65 6.68-.07 13.74.86 20.3 1.73-3.38 2.46-10.82 2.82-14.93ZM291.9 335c.82-2.43 1.7-5.18.5-7.44a5.66 5.66 0 0 0-6.92-2.54c-3.32 1.56-3.29 6.16-4.15 9.73-.73 3.07-2.44 5.8-4.11 8.47l-14.17 22.55c2.25-3.46 4.72-7.11 8.52-8.7l-11.48 15 7.6-9.17a5.39 5.39 0 0 1 3-2.22c1 2.11-.43 4.5-1.78 6.39l-14 19.61c1.27.66 2.64-.69 3.45-1.87L270.48 367c1.26 2.08-.15 4.68-1.41 6.75a60.65 60.65 0 0 0-8.61 27.08 26.11 26.11 0 0 0 .56 8.64c1.85 6.81 6.84 12 4.93 18.82l12-.38a14.22 14.22 0 0 0-1.92-9c-.82-1.36-2.06-2.42-3-3.7-3.41-4.57-2.61-10.92-1.65-16.55a27.56 27.56 0 0 1 4.31 9q.33-10.89 0-21.8c2.33 1.89 2.44 5.34 2.35 8.34l-.56 18.8c4.56-10.59-.38-23.87 5.46-33.81 1.2-2 2.86-4 2.87-6.36 0-2.65-2.08-4.77-3.26-7.15-2.14-4.34-1-11 3.31-13.55a38.29 38.29 0 0 1 0 9.14A140.77 140.77 0 0 1 291.9 335ZM241.67 321.62c1.82-3.47 4-7.28 7.82-8.3a13.78 13.78 0 0 0 3.22-.87c4.14-2.28-2.58-3.71-4.13-4a17.07 17.07 0 0 0-9.73.67c-2 .82-4 2.59-3.67 4.71.49 3.47 6.34 4.29 6.49 7.79Z"/><path class="ac" d="M269 313a2.78 2.78 0 0 0-2.09.25l.51-.64a80.18 80.18 0 0 0-24.73 21.67 102 102 0 0 1 9.75-8.59c-2.08 2.24-3.17 5.55-4.75 8.3-2.27 4-5.81 7-9.1 10.22.09-.29.2-.56.27-.86 1.16-4.5 2.3-10.91-2.34-12.12a46.89 46.89 0 0 1 3.86-3.15c3.42-2.48 7.2-4.46 10.35-7.27 1.08-1 7.72-8.41 2.69-8.42-1.89 0-6.72 8.58-8.8 10.1-2.28 1.66-5 2.69-7.45 4a36.32 36.32 0 0 0-15.64 16.05 37.12 37.12 0 0 1 9.87-8.17 109.87 109.87 0 0 0-14.88 26.75c4.75-9.4 9.73-19.07 16.8-26.7-.11 1.64 0 3.35 0 5-.07 5.14-1.88 10.1-2.66 15.17a42.33 42.33 0 0 0-4.55 27 51.42 51.42 0 0 0-8 42.39 85.86 85.86 0 0 1 8.79-41.91c1.53 4.69-1.17 9.55-2.84 14.19-3.78 10.54-2.52 20.86-.93 31.95l10.89.37c-.28-2.61-.78-3.28-1.69-5.74a22.92 22.92 0 0 0 8.8 5.78l.28-.57a45.48 45.48 0 0 1-9.55-6.41c-.24-.58-.49-1.16-.76-1.73a17.26 17.26 0 0 0 11.44 2.59 7.52 7.52 0 0 0-1-9.87c-1.86-1.61-4.5-2.25-6.07-4.16-1.28-1.55-1.61-3.68-1.76-5.69a48.32 48.32 0 0 1 .38-10.48 21.85 21.85 0 0 0 1.83 3.69 37.92 37.92 0 0 1 2.17 4.05 27.73 27.73 0 0 1-1.12-9.89c.05-1.12 2.12-8.61 1.78-9a1.7 1.7 0 0 0-2.32 0 3.74 3.74 0 0 0-1 1.52c.06-6.6-3-13.2-1.46-19.62 1.19-5 4.92-8.83 8.21-12.91-.45 1.48-.92 3-1.48 4.4-1.35 3.48-5.15 8.55-4.37 12.31 2.37-6.1 6.2-11.23 9.49-16.86 2.65-4.54 4.71-9.77 4.14-14.93 1.31-2.4 3.24-4.55 5.84-5.3-.45-2 1-3.45 2.35-5.08 2.53-3.11 4.41-5.71 6.57-8.53-.21.6-.38 1.22-.53 1.84-1.41 5.57-3 11.13-4.2 16.75 2-3.56 4.21-7 6.14-10.54 1.81-3.47 3.19-7.3 2.87-11.2ZM177.94 318.38c-2.62.55-5.35.55-7.9 1.35a13.44 13.44 0 0 0-9 10.1c-.25 1.3-.36 2.74-1.32 3.65-.79.75-2 .91-2.92 1.44-2.79 1.57-2.76 5.53-2.36 8.71-1.82-1-2.52-3.38-2.2-5.43a15.51 15.51 0 0 1 2.57-5.64 37.33 37.33 0 0 0-11.61 20.12c-2.63-6.05 1.12-12.84 4.74-18.36a19 19 0 0 0-7.34 11.12c-.7 3.12-.59 6.35-1 9.52a32.56 32.56 0 0 1-12.28 21.73l-2-4.22c-1.61-.86-3.49.32-5.08 1.22s-4 1.36-4.89-.25l7.89-5.25c3.17-2.11 6.44-4.33 8.35-7.62 2.51-4.33 2.21-9.68 3.52-14.51 2.39-8.78 9.94-16.55 19.7-20.3 6-2.33 7.87-8.18 14-10.4 5.52-2 12.86-3.51 18.71-2.82-.85 3.25-6.52 5.21-9.58 5.84ZM132.26 313.14c-1.54 2.58-2.37 5.52-3.49 8.32-4.08 10.27-11.94 18.49-19.61 26.44a21.94 21.94 0 0 1 2.78-5.64 16.74 16.74 0 0 1-12.85 4.35l16.6-12.76c4-3.08 8.26-6.49 9.65-11.36.89-3.09.51-6.52 1.86-9.44a14.78 14.78 0 0 1 3.84-4.68 21.44 21.44 0 0 1 8.11-4.9 9.58 9.58 0 0 1 7.07.41c-1.6 1.86-5.45 1.94-7.75 3.25a17 17 0 0 0-6.21 6.01ZM335.9 415.16a1 1 0 0 0 .55.19 5.1 5.1 0 0 1-.55-.19Z"/><path class="ac" d="M391.77 400.49c-6.15-10.5-12.57-21.6-23.07-27.74a68.8 68.8 0 0 0-11.88-5.07L320 354.6c-.8-.28-9.26-2.32-12.19-4.64a23.42 23.42 0 0 1-7.32-11.8 5.43 5.43 0 0 0-6.07 8.64c1.18 1.33 2.94 2 4.17 3.28 2.53 2.6 2.15 6.87.83 10.25s-3.41 6.53-3.87 10.12a19.62 19.62 0 0 0 .29 5.51 24.25 24.25 0 0 0 1.75 6.23c.93 2 2.29 3.81 2.95 5.92s.42 4.75-1.37 6.05a158.2 158.2 0 0 0 9 32.76 12.42 12.42 0 0 0 7.79.8 131.77 131.77 0 0 1-9.74-19.72 18.1 18.1 0 0 1 8 9c1 2.52 1.5 5.32 3.07 7.55s4.85 3.65 7.05 2c-4.18-4.57-8-9.58-10.4-15.29s-3.33-12.19-1.69-18.17a39.18 39.18 0 0 0 16.91 31.32 42 42 0 0 1-14.81-27.32 13.87 13.87 0 0 1 .43-6.41 6.1 6.1 0 0 1 4.6-4.12c1.19-.16 2.45.13 3.56-.32 2.36-1 2.24-4.61.49-6.44s-4.38-2.45-6.75-3.38a23.71 23.71 0 0 1-11.54-9.77 48 48 0 0 1 18.57 8.23c-2.42-3.09-5.93-5.08-9-7.47s-6-5.58-6.34-9.49c3-.28 5.74 1.95 7.75 4.26s3.74 4.75 6.4 6a28.71 28.71 0 0 1 1.59 5.46c.37 2.2.39 4.45.79 6.65 1 5.33 4.11 10.09 5 15.45.58 3.65.06 7.4.57 11.06.49 3.47 2.29 7.11 5.49 8.38-1.4-.94-2.54-5.06-2.54-6.08 2.76 4.18 4.74 9.23 7 13.75 1.24 2.49 3.36 5.41 6.05 4.7a71.35 71.35 0 0 1-8-20.15c6.89 3.52 3.84 16.59 11.07 19.33a82.45 82.45 0 0 1-5.54-15.27l10.87 15.31c.81 1.15 2.21 2.44 3.41 1.71 1.43-.87.38-3.06-.79-4.25-3.3-3.35-7-6.55-8.94-10.81-1.24-2.66-1.8-5.69-3.66-7.95-2.51-3.07-7-4.24-8.92-7.71 2.21-1.07 4.72.64 6.45 2.39a46.91 46.91 0 0 1 10.2 15.55c.56 1.4 1.2 3 2.61 3.52 2.07-4 .88-9.08-1.6-12.87s-6.09-6.67-9.34-9.83-6.3-6.87-7.13-11.32c5.91.24 6.88 9.85 12.5 11.67 0-5.32-6.15-8.2-9.11-12.62s-2.76-10.93-6.62-14.77c7.2-2 14.1 3.11 20.92 6.28a28.36 28.36 0 0 1 2.21 4.7c1.41 3.82 2.38 7.86 4.62 11.26 2 3.07 4.92 5.39 7.78 7.72a10.71 10.71 0 0 0-.36-1.09c-1.71-4.3-5.29-6.91-7.58-10.81-1.95-3.3-2.41-7.32-4.14-10.7 1.69.67 3.42 1.27 5.12 1.92a14.93 14.93 0 0 1 .95 1.87c.93 2.21 1.48 4.57 2.52 6.73 1.5 3.09 4 5.75 4.77 9.09a17.1 17.1 0 0 1 .29 4.29l-1.57-1.3c.48 1.75 3.07 8.86 4.71 11.46a33.12 33.12 0 0 0 .43 5.88c.45 3.12 1.18 6.33 3.16 8.79s5.52 3.9 8.38 2.58l-4.14-8.49a13.82 13.82 0 0 0 10.6 7.94 35.37 35.37 0 0 1-8-20c3 .38 4.67 3.45 6.1 6.07a63.11 63.11 0 0 0 10.3 13.81 40 40 0 0 1-6.93-14.84c2.4 4 5.12 7.82 8.76 10.69s8.34 4.65 12.92 3.95c-10.93-5.36-17.84-16.28-23.98-26.79Zm-14.29-2.11a27.61 27.61 0 0 1-1.68 5.27 106.35 106.35 0 0 0-1.29-11.19c-.39-2.45-1.94-4.55-3.44-6.53a48.24 48.24 0 0 0-4.6-5.47c.34.16.67.33 1 .51 6.29 3.41 11.23 10.36 10.01 17.41ZM428.63 394.77c3.28 1.58 6.62 3.21 9.19 5.79s4.24 6.33 3.41 9.87c-.52-1.68-2-2.85-3.41-3.87-10.39-7.52-21.55-12.07-33.07-17.31 8.11-5.04 16.4 1.91 23.88 5.52ZM439.44 414.82a45.63 45.63 0 0 0-4.23-5.81 34.92 34.92 0 0 0-7.52-5.94 74.27 74.27 0 0 0-23.35-9.39c-1.26-.28-3-.29-3.4.93-.58 1.61 1.78 2.54 3.48 2.8 10.06 1.54 17.51 9.93 23.71 18 2.63 3.43 5.34 7.49 4.5 11.73.29-1.48 12.3 1 13.42-.55 1.37-1.94-5.43-9.96-6.61-11.77ZM437.43 383.23l22 13.45c2.21 4.51.79 9.79 1.94 14.67s2.32 7.85 5.63 11.65 12.91 5.42 17.65 3.75c-3.86.2-9.06.56-11.7-2.26s-4.39-6.33-6.11-9.79a18.18 18.18 0 0 0 13.65 9.61l-10.33-9.76c-2-1.92-4.24-4.39-3.65-7.11 5.81 6.7 12.21 13.79 20.86 15.73a119.33 119.33 0 0 1-22.82-21.51c7.66.46 11.45 10 18.61 12.82-3.92-9.05-16.76-11.39-20.91-20.33l5.62 2.22a59.77 59.77 0 0 0-13-10.51 80.36 80.36 0 0 0-17.5-7.56 18.62 18.62 0 0 0-7.17-1.17 6.71 6.71 0 0 0-5.28 2.9c4.62-.66 8.46.73 12.51 3.2ZM460.74 383.57a12.24 12.24 0 0 1 2.94 2.19l3.62 3.29c-1.85.23-3.46-1.13-5-2.19s-6.07-2.06-6-3.91a7.75 7.75 0 0 1 4.44.62Z"/><path class="ac" d="M416.77 417.58a6.13 6.13 0 0 1-4.85-2.07 3.65 3.65 0 0 1 .28-4.92c1.27-1 3.15-.81 4.7-.26s3.05 1.37 4.69 1.39a1.94 1.94 0 0 0-.28-2 5.7 5.7 0 0 0-1.63-1.33 22.32 22.32 0 0 0-7.07-3.32 2 2 0 0 0-1.4.07 2.06 2.06 0 0 0-.72.8 13.66 13.66 0 0 0-2.26 8.27 8.82 8.82 0 0 0 4.42 7.1c4.81 2.51 12.72-3.66 4.12-3.73ZM448.71 417.91a1.7 1.7 0 0 1 0-1.85c.53-.59 1.55-.29 2.09.29s.82 1.37 1.36 1.94 1.58.86 2.09.25a7.34 7.34 0 0 0-.92-6.63 10.43 10.43 0 0 0-5.57-3.94 14.09 14.09 0 0 0-2.4-.53 2.38 2.38 0 0 0-1.3.09c-1.09.51-.9 2.18-.19 3.16.87 1.22 2.23 2.13 2.68 3.56a9.42 9.42 0 0 1 .09 3.05c-.07 2.64 1.1 5.48 3.46 6.69 2.08 1.06 5.41.33 6.18-2-2.71-1.43-5.84-.48-7.57-4.08Z"/><path class="ab" d="M306.21 324.07a23.15 23.15 0 0 0-3.91-5.21 46.85 46.85 0 0 0-16.91-9.52c-7.31-2.29-15.31-2.84-21.85-6.82a2.54 2.54 0 0 0-1.76-.56 2.33 2.33 0 0 0-1 .59l-7.55 6.37c7.29 3.9 15.63 5.24 23.61 7.4s13.39 4.8 18.36 11.41c1.18 1.57 9.37 13.14 9.7 11.29 1.03-5.66 2.03-13.41 1.31-14.95Z"/><path class="e" d="M9.12 326.2a16.48 16.48 0 0 0 7.49 14.8c1.34.85 4.74-7.47 4.94-8.35a16.07 16.07 0 0 0-.74-9.69 56.92 56.92 0 0 1-3-8.8c-.54-3.23-8.51 9.51-8.69 12.04ZM62.8 267.54c-.4 3.08 2.59 6.23 7.49 7.88 1.34.45 4.75-4 4.95-4.46a5 5 0 0 0-.74-5.18 22.18 22.18 0 0 1-3-4.7c-.5-1.7-8.5 5.1-8.7 6.46Z"/><path class="ac" d="M62 309.64c2.78-.69 6.08-.91 8.16 1.06a9.52 9.52 0 0 1 2.18 4.3 8.84 8.84 0 0 1 .49 5 7.5 7.5 0 0 1-2 3c-1.89 1.89-4.62 3.5-7.13 2.58a6.76 6.76 0 0 1-2.36-1.58 15.81 15.81 0 0 1-4.56-11.87 20.33 20.33 0 0 0-2 5.05 7 7 0 0 0 .82 5.25 9.73 9.73 0 0 0 3 2.55 21.55 21.55 0 0 0 6 2.85 8.69 8.69 0 0 0 6.49-.72c2.72-1.65 3.86-5 4.54-8.09a10.87 10.87 0 0 0 .32-3.8c-.43-2.91-3-5.07-5.68-6.24-2-.89-9.2-3.29-11.3-2-3.18 1.92.54 3.28 3.03 2.66ZM27 283.79a3.38 3.38 0 0 0-.65 1.07c-.38 1.3.88 2.45 1.9 3.35s1.93 2.53 1 3.5a2.14 2.14 0 0 1-2 .39 5.63 5.63 0 0 1-4-4.31 9.33 9.33 0 0 1 .94-6 14.14 14.14 0 0 1 9.78-7.54 8.28 8.28 0 0 1 3.64 0c3.41.81 5.42 4.24 7 7.34a11.62 11.62 0 0 1 1.57 4.36c.2 2.63-1.37 5.05-2.88 7.22-1.11 1.6-2.31 3.27-4.09 4.05a10.51 10.51 0 0 1-4.1.61c-2 0-4.54-.23-5.34-2.11a2.94 2.94 0 0 1 .87-3.28 3.73 3.73 0 0 1 3.43-.63 8.15 8.15 0 0 0 2.07.6c1.37 0 2.36-1.31 2.92-2.56a15.42 15.42 0 0 0 1.31-5 5.26 5.26 0 0 0-.4-2.89 5.24 5.24 0 0 0-2.97-2.18c-5.52-2.04-6.7-.19-10 4.01ZM66.59 273a5.42 5.42 0 0 1-1.4-6.81 6 6 0 0 1 6.53-2.69 2.42 2.42 0 0 1 1.15.58 3.06 3.06 0 0 1 .63 1.85l.46 4.35c.1 1 .32 2.09 1.2 2.47a1.91 1.91 0 0 0 2.24-.94 5.6 5.6 0 0 0 .54-2.57 16 16 0 0 0-.62-6.59c-.82-2.07-2.8-3.85-5-3.7-2.43.17-4.14 2.45-6.36 3.48-1.75.8-4 .93-5.07 2.52a5.67 5.67 0 0 0-.73 3 8.31 8.31 0 0 0 .87 4.94c1 1.48 2.72 2.22 4.4 2.77a46 46 0 0 0 4.91 1.29 5.15 5.15 0 0 0 3.32-.12c4.98-2.61-6.16-3.22-7.07-3.83ZM94 283v9.91c-2.29-.08-3.77-2.78-3.36-5s2.1-4 3.83-5.53M98.58 292.15a2.12 2.12 0 0 0 .89 4.14c1.57-.34 2.21-2.21 3.38-3.31a31.11 31.11 0 0 1 2.89-1.88c2.61-2 2.76-6.27.67-8.81a8.8 8.8 0 0 0-9-2.49c.34 3 5.72 2.83 6.66 5.74.49 1.54-.58 3.16-1.87 4.14s-2.83 1.62-3.93 2.8M13.32 368.33c-.13-2.46 1.14-4.77 2.43-6.88.94-1.54 2.43-3.28 4.18-2.82 1.58.42 2.14 2.38 2.16 4a15.06 15.06 0 0 1-3.28 9.46 7.32 7.32 0 0 0-1.73 2.74c-.25 1.07.4 2.43 1.49 2.44a2.63 2.63 0 0 0 1.91-1.36 32 32 0 0 0 5.35-12 6.68 6.68 0 0 0 .18-2.55 7.24 7.24 0 0 0-1.48-2.89l-5.27-7.33c-.23-.33-.55-.7-1-.66a1.17 1.17 0 0 0-.74.56c-2.91 3.76-5.69 7.82-6.63 12.48-.75 3.72-.06 10.61 4 12.09.26-2.47-1.44-4.71-1.57-7.28ZM52.77 350.32a3.59 3.59 0 0 1 .73-1l5.5-5.75a2.32 2.32 0 0 1 1.79-1 2.26 2.26 0 0 1 1.39 1.09 16.5 16.5 0 0 1 2.5 4.16 5.65 5.65 0 0 1-.19 4.71 16.45 16.45 0 0 1-2.69 2.85c-.9.95-1.59 2.34-1.07 3.54a4.52 4.52 0 0 0 6.45-1.49 15.34 15.34 0 0 0 .92-3.82c.52-2.43 1.94-4.78 1.53-7.23-.47-2.8-3.12-4.62-5.54-6.11l-2.77-1.71a3.55 3.55 0 0 0-2.21-.74 3.24 3.24 0 0 0-1.34.6 17.89 17.89 0 0 0-3 2.56 13.26 13.26 0 0 0-3.77 8.8c0 2.06 2.64 9.74 6 8.18 3.12-1.46-5.49-4.96-4.23-7.64Z"/><path class="e" d="M289.57 424.25a5.45 5.45 0 0 1-.54-4.32 8.71 8.71 0 0 1 2.43-3.84 1.87 1.87 0 0 1 .79-.53 1.71 1.71 0 0 1 1.59.5c1 1 1.08 2.43 1.09 3.76a9.51 9.51 0 0 1-.4 3.44c-.83 2.2-3.45 3.44-4.96.99Z"/><path class="ac" d="M288.51 420.83a2.37 2.37 0 0 1 .37-.56l2.84-3.35c.25-.3.56-.62.92-.57s.53.35.71.63a9.87 9.87 0 0 1 1.29 2.42 3.67 3.67 0 0 1-.1 2.73 9.09 9.09 0 0 1-1.38 1.65 1.73 1.73 0 1 0 2.76 1.19 9.53 9.53 0 0 0 .47-2.22c.27-1.41 1-2.76.79-4.19-.24-1.62-1.6-2.68-2.85-3.54l-1.42-1a1.67 1.67 0 0 0-1.13-.43 1.51 1.51 0 0 0-.69.35 9.79 9.79 0 0 0-1.54 1.48 8.18 8.18 0 0 0-2 5.09c0 1.19 1.36 5.64 3.09 4.74s-2.78-2.89-2.13-4.42ZM49.49 380.09a6.5 6.5 0 0 1 2.9-2.1 3.42 3.42 0 0 1 3.38.69 4.72 4.72 0 0 1 1.12 2.82 15.87 15.87 0 0 1-1.67 9.16 6.6 6.6 0 0 0-1 2.61c-.05.94.59 2 1.53 2a2.42 2.42 0 0 0 1.71-1.16 19.54 19.54 0 0 0 4.06-11.87 9.44 9.44 0 0 0-.61-3.73c-1.19-2.82-4.16-4.36-6.91-5.68a1.67 1.67 0 0 0-2.1.12l-4.9 3.1a4.82 4.82 0 0 0-1.9 1.79 4.74 4.74 0 0 0-.36 1.83l-.41 6.85c-.16 2.58 2.46 6.17 4.51 2.7 1.67-2.77-2.31-5.62.65-9.13Z"/><path class="e" d="M250.49 423.7a5.08 5.08 0 0 1-.69-4.69 9.31 9.31 0 0 1 3.12-4.16 2.57 2.57 0 0 1 1-.58 2.49 2.49 0 0 1 2.05.54c1.31 1.05 1.4 2.64 1.41 4.08a8.68 8.68 0 0 1-.52 3.74c-1.05 2.37-4.42 3.73-6.37 1.07Z"/><path class="ac" d="M251.67 417.22a4.29 4.29 0 0 1 1.92-1.32 2.39 2.39 0 0 1 2.24.43 2.9 2.9 0 0 1 .73 1.78 9.52 9.52 0 0 1-1.1 5.77 4.1 4.1 0 0 0-.67 1.64 1.16 1.16 0 0 0 1 1.26 1.65 1.65 0 0 0 1.13-.73 12 12 0 0 0 2.69-7.47 5.69 5.69 0 0 0-.41-2.35c-.78-1.77-2.75-2.75-4.57-3.58a1.55 1.55 0 0 0-.72-.19 1.36 1.36 0 0 0-.67.27l-3.21 1.95a3.2 3.2 0 0 0-1.26 1.12 3.09 3.09 0 0 0-.24 1.16l-.27 4.31c-.11 1.62 1.62 3.88 3 1.7 1.09-1.74-1.55-3.54.41-5.75ZM22.41 410.4a12.42 12.42 0 0 0-3.32-11.1 23.49 23.49 0 0 1-2.48-2.51 3.46 3.46 0 0 1-.61-3.31c-1 3.09-3.95 5-5.83 7.64-2.56 3.58-2.91 8.26-2.78 12.66a8.55 8.55 0 0 0 .54 3.22 3.07 3.07 0 0 0 2.43 1.92 1.92 1.92 0 0 0 2.07-1.94 4.08 4.08 0 0 0-1.14-1.87 8.14 8.14 0 0 1-.88-7.54 23.85 23.85 0 0 1 4.06-6.74 7.14 7.14 0 0 1 4.92 4.38A9.48 9.48 0 0 1 19 412c-1.05 2.56-3.24 4.58-3.92 7.23a12.34 12.34 0 0 0 7.33-8.83ZM98.85 330.68v-5.64a2.77 2.77 0 0 1 .37-1.68 2.85 2.85 0 0 1 1.15-.77l4.55-2a2.26 2.26 0 0 1 1.63-.27 2.14 2.14 0 0 1 .75.59c2.21 2.43 3.57 5.91 2.59 9s-4 5.36-4.3 8.57a22.24 22.24 0 0 0 8.58-10.34 5.09 5.09 0 0 0 .49-2.22 4.66 4.66 0 0 0-.87-2.21 64.26 64.26 0 0 0-4.18-4.89 8.26 8.26 0 0 1-2.21-5.86 20.08 20.08 0 0 1-3.7 4.21c-1.06.91-2.21 1.71-3.29 2.6a16.5 16.5 0 0 0-5.27 7.05 9.81 9.81 0 0 0 .8 8.55c.79 1.19 5.51 5.05 6.44 2.46.71-1.83-3.55-4.83-3.53-7.15ZM92.86 361.51a4.77 4.77 0 0 1 5.66-.64 6.52 6.52 0 0 1 3 5.06 8.21 8.21 0 0 1-6.09 8.49 3.22 3.22 0 0 1-1.92 0 3.42 3.42 0 0 1-1.17-.86A12 12 0 0 1 89 366c-.28-.33-.71.22-.75.65a11.08 11.08 0 0 0 5.35 10.41 4.65 4.65 0 0 0 2.81.76 5.88 5.88 0 0 0 2.78-1.45 23.41 23.41 0 0 0 5.11-4.87 7.93 7.93 0 0 0 1.4-6.7 11.77 11.77 0 0 0-3.07-4.42l-4.76-5a1.3 1.3 0 0 0-1-.55 1.27 1.27 0 0 0-.61.28c-2 1.41-5.28 3.27-6.38 5.61-1.88 4.2.69 3.17 2.98.79ZM136.3 326c.7-1.6 2.26-2.61 3.75-3.52a2.37 2.37 0 0 1 1-.41c1-.1 1.69 1.15 1.8 2.2a7.32 7.32 0 0 1-1.64 5.36c.32.69 1.35.08 1.74-.57a19.08 19.08 0 0 0 2.5-6.82 7.21 7.21 0 0 0-.19-3.72 3.27 3.27 0 0 0-2.79-2.2 4.22 4.22 0 0 0-2.1.66 12.07 12.07 0 0 0-6 9.5 4.89 4.89 0 0 0 .69 3.19 2 2 0 0 0 2.29.84c-.98-1.18-1.74-2.99-1.05-4.51ZM121.47 358.82c0-2.11-1.93-3.84-2-5.94 0-2.78 3-4.48 5.57-5.49.52 2-1.2 3.88-2.31 5.67a3.08 3.08 0 0 0-.6 2.34c.2.8 1.24 1.39 1.9.89a1.92 1.92 0 0 0 .55-.88c1.1-2.74 2.21-5.58 2.09-8.53a2.55 2.55 0 0 0-.31-1.28 2.15 2.15 0 0 0-1.16-.79c-2.67-.89-5.62 1.08-6.79 3.64s-1 5.5-.76 8.31a2.45 2.45 0 0 0 .68 1.79c.78.6 2.16.22 2.65 1.08a.89.89 0 0 0 .34-1.18M88.88 405.05a10 10 0 0 0 2.19-4.9c.71-3.47.56-7.5-2-10-1.48-1.47-3.84-2.61-3.82-4.7l-5.12 5a13.4 13.4 0 0 0-3 3.73 13.62 13.62 0 0 0-.89 5.72c0 2.18 0 4.48 1 6.38s3.58 3.19 5.5 2.14a9.86 9.86 0 0 1-2-13.26 32.3 32.3 0 0 0 2.38-3 16.8 16.8 0 0 1 4 4.09 5.64 5.64 0 0 1 .42 5.47c-.55 1-3.36 3.06-2.71 4.34.82 1.43 3.26-.17 4.05-1.01ZM49.63 416.18c-1-1.46-2.9-2.31-3.53-4a7.84 7.84 0 0 1 7.9 4.67 11.43 11.43 0 0 1 .75 3.93c.09 2-.9 8.26-4.13 6.41-2.29-1.31.82-8.43-.99-11.01ZM41.45 421.52c.61-1 1.42-1.79 2-2.76a7.87 7.87 0 0 0 .79-6.52c-1.51-.91-3.27.76-4.09 2.32-1 1.95-4 8.51-2.51 10.67 2.27 3.2 2.9-2.23 3.81-3.71ZM119.77 391.73a1 1 0 0 1 .58-.34 1.08 1.08 0 0 1 .68.28c1.7 1.25 3.6 2.94 3.29 5-.21 1.41-1.37 2.43-2.23 3.56a9.7 9.7 0 0 0-1.82 4.2 2.55 2.55 0 0 0 2.65-.25 7.47 7.47 0 0 0 1.85-2.1 19.61 19.61 0 0 0 2.66-4.85 6.69 6.69 0 0 0-.31-5.39c-1.64-2.81-5.88-3.85-6.48-7.05-.13 2.54-3.28 3.58-5 5.46a8.65 8.65 0 0 0-1.85 6 8 8 0 0 0 1 4.11c.51.82 2.4 2.58 3.52 1.83 1.85-1.24-.3-2.2-.47-3.29-.6-3.39-1.09-4.38 1.93-7.17Z"/><path class="e" d="M245.67 396.85a4 4 0 0 1-.74-4.17 8.71 8.71 0 0 1 3.31-3.69 2.64 2.64 0 0 1 3.25 0c1.39.93 1.49 2.35 1.5 3.63a6.57 6.57 0 0 1-.55 3.31c-1.14 2.07-4.71 3.27-6.77.92Z"/><path class="ac" d="M248.74 389.52a.75.75 0 0 1 .43-.26.73.73 0 0 1 .5.22c1.25 1 2.65 2.31 2.42 3.94a6.74 6.74 0 0 1-1.64 2.79 7.75 7.75 0 0 0-1.34 3.29 1.77 1.77 0 0 0 1.95-.19 5.92 5.92 0 0 0 1.36-1.65 15.56 15.56 0 0 0 2-3.8 5.53 5.53 0 0 0-.23-4.23c-1.2-2.2-4.33-3-4.77-5.52-.09 2-2.41 2.8-3.68 4.27a7.16 7.16 0 0 0-1.36 4.75 6.49 6.49 0 0 0 .71 3.21c.37.65 1.76 2 2.58 1.44 1.36-1-.22-1.72-.35-2.58-.44-2.71-.79-3.49 1.42-5.68ZM71.15 427.85c-.52-1.63 1.24-3 2-4.54a5.51 5.51 0 0 0-.43-5 15.83 15.83 0 0 0-3.47-3.84c-.39 4.39-4.2 8.33-3.09 12.6-1 .15-1.31-1.39-1.12-2.43l1.3-7.15a9.5 9.5 0 0 0-4.34 7.87 2.9 2.9 0 0 0 .74 2.21c1.23 1.09 3.33-.33 3.47-2M159.25 318a2.72 2.72 0 0 1-.25-4.69 20.73 20.73 0 0 1 2.21-.64 3.58 3.58 0 0 0 2.14-4l2.5-.05a11.05 11.05 0 0 1-6.92 9.64 16.41 16.41 0 0 1-1.46-6.58 2.39 2.39 0 0 0-2.95-2.19 3.16 3.16 0 0 0-2.12 3.31c.13 1.35 5.6 4.42 6.85 5.2ZM11.24 327.88a15.3 15.3 0 0 1 5.33-11.56c2.35 4.91 4.75 10.52 2.84 15.62-.86 2.3-2.59 4.47-2.28 6.91a24.5 24.5 0 0 0 5.89-9.5c1.06-3.61.72-7.78-1.58-10.76a15.26 15.26 0 0 1-2.2-3c-.82-1.87-.2-4 .44-6-3.54 2-6.42 4.9-9.23 7.79a12.15 12.15 0 0 0-2.45 3.3 11.9 11.9 0 0 0-.75 4.79c-.07 4.15-.14 8.35.88 12.37a3.38 3.38 0 0 0 1 2 3.68 3.68 0 0 0 1.55.57c1.75.35 3.49.89 5.13.62-.11-4.17-4.61-8.1-4.57-13.15Z"/></g></svg>
