<svg xmlns="http://www.w3.org/2000/svg" viewBox="0 0 750 428"><defs><clipPath id="clippath"><path class="cls-1" d="M0 0h750v428.07H0z"/></clipPath><clipPath id="clippath-1"><path class="cls-1" d="M0 0h750v428.07H0z"/></clipPath><clipPath id="clippath-2"><path class="cls-1" d="M0 0h750v428.07H0z"/></clipPath><clipPath id="clippath-3"><path class="cls-1" d="M0 0h750v428.07H0z"/></clipPath><clipPath id="clippath-4"><path class="cls-1" d="M0 0h750v428.07H0z"/></clipPath><style>.cls-1{fill:none}.cls-3{fill:#f89674}.cls-6{fill:#e6c19f}.cls-7{fill:#b68d6f}.cls-8{fill:#90551d}.cls-10{fill:#cf960d}.cls-11{fill:#af601d}.cls-12{fill:#be3234}.cls-13{fill:#cc9b5d}.cls-14{fill:#dcb30d}.cls-15{fill:#d6a05d}.cls-16{fill:#9d302b}.cls-17{fill:#731933}.cls-18{fill:#6ca6c2}.cls-19{fill:#3c1028}.cls-20{fill:#335056}.cls-21{fill:#58418c}.cls-22{fill:#513171}</style></defs><g style="clip-path:url(#clippath)"><path class="cls-16" d="M-5.88-5.17v442.68h765.89V-5.17H-5.88z"/><path class="cls-19" d="M760.51 438.01H-6.38V-5.67h766.89v443.68Zm-765.89-1h764.89V-4.67H-5.38v441.68Z"/><path class="cls-20" d="M22.22 435.15S1.55 18.91 355.94 18.91s382.74 410.31 382.74 410.31"/><path class="cls-8" d="M20.72 435.22c-.03-.51-2.42-52.17 9.48-118.09 6.99-38.73 17.46-74.75 31.14-107.06 17.11-40.43 39.31-75.14 65.97-103.16 56.51-59.39 133.43-89.5 228.63-89.5 81.16 0 151.88 21.67 210.2 64.4 46.64 34.17 85.47 81.81 115.41 141.58 50.93 101.67 58.56 204.69 58.63 205.72l-2.99.21c-.07-1.02-7.67-103.53-58.36-204.67-29.73-59.32-68.25-106.58-114.5-140.46C506.55 41.86 436.44 20.4 355.95 20.4c-94.33 0-170.52 29.8-226.44 88.56-26.41 27.75-48.4 62.14-65.37 102.22-13.59 32.1-24 67.9-30.96 106.4-11.84 65.6-9.47 116.97-9.45 117.49l-3 .15Z"/><path class="cls-7" d="M250.39 356.54s-5.86-49.31-13.87-69.04c-8-19.73-16.58 35.59-16.58 35.59l-32.59 57.03-5.57 20.15s12.58 16.33 37.59 27.03c25.01 10.7 69.18 12.85 88.05 12.85s58.32-1.29 58.32-1.29l-5.15-36.88-110.2-45.45Z"/><path class="cls-22" d="M307.42 440.76c-5.95 0-58.99-.36-88.29-12.89-24.87-10.64-37.71-27.06-37.83-27.22l-.18-.24 5.71-20.58 32.54-56.94c.18-1.11 1.66-10.35 3.85-19.56 4.8-20.13 8.26-20.53 9.39-20.67 1.68-.19 3.13 1.31 4.47 4.61 7.59 18.7 13.31 64.35 13.86 68.84l110.2 45.45 5.29 37.89-.67.02c-.39.01-39.68 1.29-58.34 1.29Zm-124.98-40.62c1.65 2.03 14.21 16.79 37.16 26.61 29.07 12.44 81.89 12.8 87.81 12.8 17.29 0 52.33-1.1 57.62-1.26l-5-35.87-110.21-45.46-.04-.35c-.06-.49-5.94-49.46-13.83-68.88-1.07-2.65-2.17-3.98-3.21-3.87-4.53.53-9.89 24.4-12.21 39.32l-.07.21-32.55 56.97-5.47 19.78Z"/><path class="cls-21" d="M251.72 350.05c-.04.4-4.34 40.65-1.54 88.34l.03.58h.58l27.41-.35h.65l-.06-.66c-.04-.51-4.47-50.96-3.19-77.54l.02-.41-.38-.17-22.68-10.28-.76-.35-.09.83Z"/><path class="cls-22" d="m249.65 439.58-.07-1.15c-2.83-48.08 1.49-88 1.54-88.44l.18-1.66 24.95 11.31-.04.82c-1.26 26.03 3 75.35 3.18 77.44l.12 1.32-29.87.37Zm2.68-89.47c-.04.4-4.36 40.24-1.54 88.24l27.41-.34c-.19-2.12-4.45-51.51-3.19-77.63l-22.68-10.28Z"/><path class="cls-10" d="m250.78 438.36-.15-2.88c-2.48-46.59 1.66-84.99 1.7-85.37l5.96.66c-.04.37-3.95 36.85-1.81 81.52l15.21-.19c-1.16-14.62-3.71-50.43-2.67-71.99l5.99.29c-1.11 23 1.95 62.78 2.92 74.42l.27 3.21-27.41.34Z"/></g><path class="cls-10" d="M404.17 264.28c63.85-18.31 100.58-86.26 81.89-151.47C467.36 47.6 400.2 9.44 336.35 27.75c-63.85 18.31-100.58 86.26-81.89 151.47 18.7 65.21 85.86 103.37 149.71 85.06Z"/><path class="cls-21" d="M371.65 270.37c-53.37 0-102.91-35.92-118.63-90.74-18.93-66.01 18.27-134.79 82.91-153.33 31.27-8.97 64.28-4.94 92.94 11.35 28.65 16.28 49.47 42.82 58.62 74.74 18.93 66.01-18.27 134.79-82.91 153.33a119.447 119.447 0 0 1-32.93 4.64Zm-2.66-245.73c-10.78 0-21.61 1.51-32.23 4.55-63.06 18.08-99.33 85.2-80.86 149.62s84.79 102.11 147.85 84.04l.41 1.44-.41-1.44c63.06-18.08 99.33-85.2 80.86-149.62-8.94-31.16-29.26-57.07-57.22-72.96-18.22-10.35-38.23-15.63-58.4-15.63Z"/><path class="cls-17" d="M371.52 262.43c-19.32 0-38.46-5.04-55.87-14.94-26.73-15.19-46.17-40.01-54.74-69.88-8.56-29.87-5.23-61.22 9.39-88.27 14.63-27.06 38.79-46.59 68.05-54.98 60.39-17.31 123.9 18.77 141.58 80.44 17.68 61.67-17.05 125.93-77.44 143.24-10.21 2.93-20.61 4.38-30.97 4.38Zm-2.42-229.4c-9.91 0-19.96 1.36-29.93 4.22-28.47 8.16-52 27.17-66.24 53.52-14.24 26.36-17.49 56.9-9.14 86.01 8.35 29.11 27.29 53.29 53.33 68.1 26.04 14.8 56.06 18.45 84.53 10.29 58.79-16.86 92.61-79.45 75.38-139.53-14.31-49.89-59.39-82.6-107.94-82.6Z"/><g style="clip-path:url(#clippath-1)"><path class="cls-6" d="M335.72 227.96s-18.78 14.18-41.11 38.27c-22.33 24.1-35.44 49.95-39.69 70.15-4.25 20.2-3.9 20.57-3.9 20.57l78.2 41.71-1.42 34.73 96.75-5.3-1.16-23.81 74.02-84.22s-9.9-28.32-23.25-45.33c-13.35-17.01-40-43.96-60.98-57l-77.47 10.22Z"/><path class="cls-14" d="m326.76 434.46 1.44-35.2-77.79-41.49-.11-.12c-.43-.45-.72-.75 3.64-21.47 4.76-22.63 19.32-48.38 39.94-70.63 22.13-23.89 41.05-38.25 41.24-38.39l.21-.16.26-.03 77.82-10.27.3.19c19.95 12.4 46.8 38.84 61.24 57.23 13.3 16.95 23.31 45.33 23.41 45.62l.19.55-.39.44-73.75 83.91 1.19 24.4-.99.05-97.85 5.36Zm-74.7-78.08 78.19 41.71-1.4 34.26 94.66-5.19-1.13-23.23.27-.3 73.63-83.78c-1.45-4.02-10.82-29.11-22.89-44.49-14.25-18.16-40.68-44.22-60.42-56.58l-76.85 10.14c-2.11 1.63-20.01 15.59-40.77 38-20.38 21.99-34.75 47.39-39.45 69.68-2.99 14.2-3.68 18.51-3.84 19.79Z"/></g><path class="cls-14" d="m341.46 399.5-2.5-1.66L442.73 241.7l2.5 1.66L341.47 399.5Zm-10.63-.35-2.5-1.67 2.62-3.93-78.54-44.53 1.48-2.61 78.73 44.64 3.69-5.53-81.8-50 1.56-2.56 81.9 50.06 97.94-146.72 2.5 1.67-107.59 161.18Zm97.55-5.55-2.45-1.74 63.88-89.96 2.45 1.74-63.88 89.96Zm-2.57-8.18-2.49-1.67 61.38-91.73 2.49 1.67-61.38 91.73Zm-96.63-101.63-28.33-24.1 1.94-2.29 28.33 24.1-1.94 2.29Zm0-10.79-21.85-19.28 1.98-2.25 21.85 19.28-1.98 2.25Z"/><path class="cls-21" d="M259.24 342.78s3.45-17.59 15.05-38.29c11.6-20.7 18.1-30.62 26.06-36.29l14.74 17.29s-6.26 8.21-13.61 22.11c0 0 30.34 25.23 53.02 34.59 0 0-2.65 3.21-9.62 10.76-6.8 7.37-9.05 11.06-9.05 11.06s-16.77-11.61-30.67-19.83c-13.89-8.22-17.86-11.34-17.86-11.34s-3.36 5.67-5.93 12.76c-2.58 7.09-2.84 9.07-2.84 9.07l-19.3-11.89Z"/><path class="cls-22" d="m335.99 364.72-.44-.3c-.17-.12-16.92-11.69-30.64-19.81-11.37-6.73-16.07-10.02-17.45-11.03-.85 1.51-3.51 6.4-5.61 12.19-2.51 6.9-2.81 8.95-2.81 8.97l-.1.76-20.25-12.47.07-.34c.03-.18 3.6-17.91 15.1-38.44 11.24-20.06 18.03-30.63 26.21-36.45l.37-.27 15.3 17.95-.24.32c-.06.08-6.21 8.19-13.37 21.68 3.28 2.69 31.45 25.54 52.57 34.25l.63.26-.43.52s-2.74 3.31-9.63 10.78c-6.68 7.23-8.97 10.94-8.99 10.98l-.28.45Zm-48.82-32.63.45.35s4.12 3.21 17.81 11.3c12.53 7.41 27.57 17.7 30.27 19.56.79-1.18 3.31-4.72 8.82-10.69 5.34-5.78 8.15-9.04 9.16-10.22-22.42-9.48-52.21-34.15-52.51-34.4l-.31-.26.19-.36c6.48-12.26 12.19-20.2 13.41-21.86l-14.18-16.64c-7.85 5.77-14.54 16.24-25.54 35.86-10.56 18.84-14.38 35.27-14.92 37.8l18.39 11.33c.26-1.1.94-3.58 2.71-8.44 2.56-7.05 5.94-12.78 5.97-12.84l.29-.49Z"/><path class="cls-21" d="M385.97 375.65s14.46 2.25 25.23 7.37c0 0 23.27-37.99 30.36-48.76 0 0 10.8 7.37 15.59 11.62 0 0 5.93-6.52 11.03-19.56 0 0-5.69-8.47-14.74-14.73l17.58-27.23s-.28-4.82-6.8-10.49-9.64-11.34-9.64-11.34l-17.01 32.6-10.77-6.52-6.24 26.65 3.12 4.25s-7.94 9.92-15.88 23.81c-7.94 13.89-21.83 32.32-21.83 32.32Z"/><path class="cls-22" d="m411.4 383.67-.41-.19c-10.58-5.03-24.95-7.31-25.09-7.33l-.82-.13.5-.67c.14-.18 13.96-18.56 21.8-32.27 7.11-12.44 14.3-21.81 15.68-23.58l-3.03-4.13.05-.22 6.39-27.32 10.91 6.6 17.2-32.96.45.82c.03.06 3.16 5.66 9.53 11.2 6.6 5.74 6.96 10.63 6.97 10.84v.16l-17.4 26.96c8.79 6.21 14.42 14.5 14.48 14.58l.15.22-.09.24c-5.08 12.98-11.07 19.65-11.13 19.72l-.33.37-.37-.33c-4.18-3.71-13.09-9.89-15.12-11.3-7.32 11.19-29.84 47.95-30.07 48.32l-.24.38Zm-24.53-8.37c3.17.56 14.95 2.81 24.15 7.09 2.46-4.01 23.5-38.32 30.13-48.4l.28-.43.42.29c.11.07 10.33 7.06 15.26 11.33 1.28-1.54 6.21-7.86 10.52-18.79-.95-1.35-6.39-8.8-14.46-14.38l-.4-.28 17.74-27.49c-.12-.85-.99-5.1-6.61-9.99-5.17-4.49-8.19-8.93-9.28-10.69l-16.84 32.28-10.64-6.44-6.03 25.76 3.21 4.38-.24.3c-.08.1-8.01 10.05-15.83 23.75-7.02 12.29-18.83 28.3-21.37 31.72Z"/><path class="cls-17" d="M333.83 202.43c3.13 5.08 2.22 8.22 1.11 17.58-1.11 9.36-4.21 25.8-5.36 45.08-1.16 19.28-2.29 36.29 1.68 46.78 3.97 10.49 8.51 15.59 22.68 14.18 14.18-1.42 21.59-9.07 25.26-22.11 0 0 .52 20.11 17.27 22.4 16.75 2.28 32.86-8.51 32.6-25.23-.26-16.73-3.97-39.97-7.65-56.7-3.69-16.73-4.56-24.95-7.09-34.3-2.53-9.36-3.12-11.06.28-15.31 3.4-4.25 9.05-13.33 11.62-26.65 2.58-13.32 5.08-25.23 3.12-39.12-1.96-13.89-9.59-32.62-30.31-46.21-20.72-13.59-32.06-16.73-44.82-15.59-12.76 1.13-36.86 8.79-44.79 29.49-7.94 20.7-13.89 37.14-5.1 50.46 8.79 13.33 7.91 23.25 14.46 33.45 6.55 10.21 11.91 16.73 15.05 21.83Z"/><path class="cls-19" d="M400.89 327.12c-1.49 0-2.99-.1-4.49-.3-13.36-1.82-16.66-14.83-17.45-20.38-4.16 12.41-12.15 18.82-24.96 20.1-14.43 1.45-19.13-3.75-23.2-14.5-3.91-10.34-2.93-26.7-1.79-45.63l.08-1.35c.83-13.8 2.68-26.33 4.02-35.48.55-3.74 1.03-6.96 1.34-9.63.13-1.12.26-2.15.38-3.11.88-6.95 1.24-9.82-1.42-14.15-1.4-2.27-3.28-4.88-5.45-7.89-2.66-3.69-5.98-8.29-9.59-13.93-3.05-4.75-4.5-9.43-6.04-14.38-1.82-5.86-3.71-11.93-8.41-19.06-9.15-13.88-2.57-31.04 5.05-50.92 3.52-9.17 10.72-16.89 20.82-22.34 7.37-3.97 16.49-6.76 24.4-7.46 13.82-1.23 25.63 2.87 45.14 15.67 22.98 15.07 28.99 35.64 30.53 46.56 1.89 13.42-.39 25.21-2.81 37.69l-.31 1.6c-2.81 14.53-9.14 23.63-11.72 26.87-3.15 3.94-2.73 5.49-.4 14.1l.21.77c1.37 5.08 2.25 9.8 3.37 15.76.95 5.11 2.04 10.9 3.72 18.56 3.37 15.28 7.39 39.32 7.67 56.8.11 7.2-2.82 13.82-8.26 18.64-5.37 4.76-12.77 7.4-20.42 7.4Zm-22.18-23.33.98.12c0 .2.71 19.72 16.84 21.91 8.9 1.21 17.91-1.35 24.11-6.85 5.22-4.63 8.03-10.98 7.92-17.88-.27-17.4-4.29-41.37-7.64-56.6-1.69-7.68-2.77-13.48-3.73-18.59-1.11-5.95-1.99-10.64-3.35-15.69l-.21-.77c-2.39-8.82-2.88-10.65.58-14.99 2.54-3.18 8.76-12.12 11.52-26.43l.31-1.6c2.4-12.4 4.67-24.11 2.81-37.36-1.52-10.75-7.45-31.01-30.09-45.86-21.86-14.34-32.87-16.55-44.5-15.51-11.88 1.06-36.45 8.51-44.37 29.17-7.52 19.62-14.02 36.56-5.15 50.01 4.78 7.26 6.69 13.39 8.53 19.32 1.52 4.89 2.95 9.5 5.93 14.14 3.6 5.62 6.91 10.2 9.56 13.88 2.19 3.03 4.07 5.65 5.49 7.95 2.85 4.62 2.44 7.81 1.56 14.8-.12.95-.25 1.98-.38 3.1-.32 2.68-.79 5.91-1.35 9.66-1.35 9.13-3.19 21.64-4.01 35.39l-.08 1.35c-1.13 18.82-2.11 35.08 1.73 45.22 3.97 10.49 8.29 15.24 22.16 13.86 13.32-1.33 20.98-8.04 24.82-21.75Z"/><path class="cls-15" d="M355.09 103.48s7.63 4.82 21.24 8.79c13.61 3.97 22.68 8.79 35.15 22.68 0 0-2.55 4.82-3.12 11.34-.57 6.52-4.82 10.49-4.54 19.56.28 9.07 0 13.03-5.67 19.85-5.67 6.82-9.07 11.91-8.5 19 0 0-11.34-3.4-18.43-7.09l-5.39 1.13-13.89 7.94s1.7-4.54-1.99-6.52c-3.69-1.98-7.11-5.95-11.62-9.64-4.51-3.69-10.77-9.07-12.47-17.58-1.7-8.51-.85-9.94-2.55-16.44-1.7-6.5-4.82-16.44-3.69-22.96 1.13-6.52 2.55-11.34 10.49-14.46 7.94-3.12 18.14-7.36 24.97-15.59Z"/><path class="cls-19" d="m351 207.8.48-1.29c.06-.17 1.5-4.16-1.75-5.91-2.39-1.29-4.7-3.41-7.14-5.66-1.44-1.32-2.92-2.69-4.56-4.03-5.25-4.29-10.99-9.56-12.65-17.87-.82-4.07-1.05-6.53-1.25-8.7-.22-2.33-.41-4.35-1.29-7.72-.22-.83-.46-1.71-.71-2.64-1.78-6.57-4-14.74-2.99-20.54 1.16-6.66 2.61-11.62 10.8-14.84 8.98-3.53 18.29-7.63 24.77-15.45l.28-.34.37.23c.08.05 7.74 4.83 21.11 8.73 13.38 3.9 22.53 8.5 35.39 22.83l.23.26-.16.31s-2.51 4.81-3.06 11.15c-.24 2.8-1.13 5.1-2.07 7.53-1.29 3.34-2.62 6.79-2.46 11.97.29 9.44-.11 13.35-5.79 20.18-5.98 7.19-8.92 12.05-8.39 18.64l.06.73-.7-.21c-.11-.03-11.3-3.41-18.36-7.04l-5.13 1.08-15.02 8.58Zm4.2-103.67c-6.62 7.79-15.92 11.88-24.9 15.41-7.7 3.03-9.08 7.74-10.18 14.08-.97 5.58 1.31 13.98 2.97 20.11.25.93.49 1.81.71 2.65.9 3.45 1.1 5.5 1.32 7.87.2 2.14.43 4.57 1.24 8.6 1.6 7.99 7.19 13.11 12.3 17.29 1.66 1.36 3.16 2.74 4.61 4.07 2.5 2.3 4.66 4.29 6.94 5.52 2.59 1.39 2.86 4.06 2.54 5.94l13-7.4 5.56-1.17.16.08c5.97 3.1 15.1 6.04 17.66 6.84-.3-7.22 3.58-12.51 8.66-18.62 5.45-6.56 5.84-10.35 5.56-19.51-.17-5.38 1.2-8.93 2.53-12.36.92-2.37 1.78-4.61 2.01-7.26.49-5.68 2.44-10.03 3.02-11.22-12.58-13.94-21.57-18.46-34.69-22.28-11.85-3.46-19.29-7.61-20.99-8.62Z"/><path class="cls-11" d="M351.42 156.02s-3.84-4.57-9.04-4.96c-6.54-.49-10.46 4.17-10.49 4.22l-6.26-4.98c.26-.33 6.53-8.02 17.35-7.21 8.69.65 14.42 7.6 14.66 7.89l-6.21 5.04Zm41.1-2.99s-4.18-5-10.27-5.65c-6.03-.64-10.67 3.08-10.71 3.12l-5.13-6.14c.29-.24 7.18-5.93 16.68-4.93 9.46 1 15.41 8.28 15.66 8.59l-6.24 5.01Z"/><path class="cls-17" d="M366.69 144.59s5.95-11.34 17.58-10.49c11.62.85 14.48 14.16 14.48 14.16s-7.09-8.93-15.62-9.06c-9.65-.14-16.44 5.39-16.44 5.39Z"/><path class="cls-17" d="M398.36 148.57c-.07-.09-7.05-8.75-15.23-8.87-9.34-.12-16.05 5.22-16.12 5.27l-.76-.62c.06-.12 6.27-11.61 18.06-10.76 11.86.87 14.91 14.42 14.94 14.55l-.88.42Zm-15.6-9.87h.38c6.39.09 11.89 4.87 14.46 7.52-1.36-3.71-5.08-11.02-13.37-11.63-8.1-.59-13.43 5.02-15.76 8.17 2.7-1.63 7.82-4.07 14.29-4.07ZM326.15 151.11s1.13-7.09 11.91-7.37c10.77-.28 13.59 3.97 16.73 8.22 3.14 4.25 4.82 12.19 5.1 19 .28 6.8-.28 14.18 2.55 20.13 0 0 .26-7.09 0-14.46-.26-7.37-.57-13.89-3.12-20.41-2.55-6.52-5.95-11.89-11.91-14.73-5.95-2.84-14.18-2-17.29.55-3.12 2.55-3.97 4.25-3.97 9.07Z"/><path class="cls-17" d="M361.99 191.3c-2.31-4.86-2.41-10.62-2.5-16.19-.02-1.39-.04-2.77-.1-4.13-.24-5.84-1.7-14.25-5.01-18.72l-.27-.36c-3-4.08-5.85-7.93-16.04-7.66-10.2.27-11.38 6.68-11.43 6.95l-.99-.08c0-4.87.82-6.73 4.15-9.46 3.25-2.66 11.75-3.51 17.83-.62 5.35 2.54 9.1 7.17 12.16 15 2.67 6.82 2.91 13.81 3.15 20.58.26 7.31 0 14.42 0 14.5l-.95.2Zm-22.94-48.07c9.93 0 12.95 4.1 15.88 8.08l.27.36c3.44 4.65 4.94 13 5.2 19.27.06 1.37.08 2.76.1 4.16.08 4.62.15 9.36 1.51 13.54.05-2.7.1-7.31-.06-11.99-.24-6.68-.48-13.59-3.08-20.25-2.96-7.57-6.56-12.03-11.66-14.46-5.76-2.74-13.74-1.99-16.76.49-2.27 1.85-3.31 3.18-3.65 5.99 1.42-2.19 4.54-5 11.26-5.18.34 0 .67-.01 1-.01Z"/><path class="cls-19" d="m328.59 158.59-1.47-1.35c.26-.28 6.35-6.83 14.02-7.13 7.73-.3 11.95 4.39 12.13 4.59l-1.5 1.32s-3.78-4.17-10.55-3.92c-6.83.26-12.57 6.42-12.63 6.48Zm62.73-4.59c-.12-.22-2.98-5.49-9.68-6-6.73-.51-10.69 4.92-10.73 4.97l-1.63-1.16c.19-.26 4.66-6.41 12.52-5.8 7.83.6 11.16 6.81 11.3 7.07l-1.77.93ZM342.11 172.06c-7.11 0-9.86-5.36-9.89-5.42l.9-.45c.11.22 2.77 5.37 10.01 4.83 7.2-.53 8.59-6.44 8.64-6.7l.98.21c-.02.07-1.59 6.89-9.55 7.48-.37.03-.74.04-1.09.04Zm40.13-2.2c-5.17 0-9.45-3.74-9.65-3.92l.66-.75s5 4.37 10.37 3.57c5.34-.8 7.56-4.54 7.58-4.57l.87.5c-.1.17-2.46 4.19-8.3 5.07-.52.08-1.03.11-1.53.11Z"/><path class="cls-6" d="M372.65 157.49s2.74-4.55 9.4-3.99c6.66.57 7.75 4.55 7.75 4.55s-3.28 3.58-8.36 3.28c-5.08-.3-8.79-3.84-8.79-3.84Z"/><path class="cls-19" d="M382.05 162.35c-.22 0-.44 0-.67-.02-5.38-.32-9.26-3.96-9.42-4.12l-.58-.55.41-.69c.13-.21 3.15-5.08 10.34-4.47 7.28.62 8.58 5.1 8.63 5.29l.15.53-.37.41c-.14.15-3.38 3.62-8.49 3.62Zm-8.02-5.01c1.24.96 4.04 2.79 7.47 3 3.5.2 6.1-1.66 7.11-2.53-.54-.95-2.18-2.93-6.64-3.31-4.43-.38-6.94 1.72-7.94 2.84Z"/><path class="cls-6" d="M332.53 161.33s4.54-4.69 9.5-4.55c4.96.14 8.22 3.54 8.22 3.54s-2.69 3.69-8.51 3.69-9.21-2.68-9.21-2.68Z"/><path class="cls-19" d="M341.75 165.01c-6.09 0-9.68-2.77-9.83-2.89l-.87-.68.77-.8c.2-.2 4.9-5.02 10.25-4.86 5.31.15 8.77 3.7 8.92 3.85l.58.61-.49.68c-.12.17-3.06 4.1-9.31 4.1Zm-7.57-3.83c1.35.73 3.98 1.83 7.57 1.83s6.06-1.65 7.08-2.61c-1.15-.91-3.61-2.53-6.83-2.62-3.2-.1-6.32 2.14-7.82 3.4Z"/><path class="cls-8" d="M341.63 167.47c-7.58 0-9.23-4.12-9.29-4.29l.93-.35-.47.18.47-.18c.06.15 1.59 3.79 8.74 3.65 7.15-.13 8.41-4.68 8.46-4.87l.97.24c-.06.22-1.46 5.48-9.41 5.62h-.4Zm39.91-2.66c-5.68 0-10.37-4.91-10.57-5.12l.73-.69s4.6 4.81 9.84 4.81 9.79-5.57 9.84-5.63l.78.63c-.2.24-4.92 6-10.62 6Z"/><path class="cls-11" d="M366.69 147.16s-.07.09-.17.28c-.56.97-2.24 4.43-1.53 9.91.85 6.52 1.7 8.79 1.98 16.16.28 7.37 2.84 12.76 3.4 13.61 0 0-.57-4.25 0-9.64.57-5.39 1.42-8.79-1.13-14.74-2.55-5.95-2.55-10.21-1.42-13.89l-1.13-1.69Z"/><path class="cls-8" d="M367.8 199.62c-1.33 0-1.93-.29-3.13-.95-.37-.2-.82-.45-1.4-.74-.85-.43-1.45-.64-2.09-.88-1.17-.43-2.39-.87-4.96-2.59-4.42-2.94-2.19-9.66-2.09-9.94l1.89.64c-.02.06-1.83 5.54 1.31 7.64 2.37 1.58 3.43 1.97 4.54 2.37.66.24 1.35.49 2.3.97.61.31 1.08.56 1.47.78 1.18.65 1.39.77 2.84.68 1.61-.1 2.38-.98 3.45-2.19l.41-.46c.53-.59 1.21-.99 1.94-1.42 1.25-.74 2.54-1.5 3.09-3.31.84-2.77-.35-5.72-1.95-6.64l.99-1.74c2.29 1.31 4.04 5.11 2.87 8.96-.78 2.55-2.63 3.65-3.99 4.45-.61.36-1.15.68-1.47 1.03l-.39.44c-1.17 1.33-2.38 2.71-4.83 2.86-.3.02-.56.03-.8.03Z"/><path class="cls-11" d="M367.46 210.86s-5.81 2.53-9.13 4.82l2.51 4.45c2.79-3.71 9.99-9.36 9.99-9.36s8.99 4.78 12.96 8.99l4.5-3.16c-3.09-1.98-11.53-8.49-11.53-8.49l-9.3 2.75Z"/><path d="M360.46 209.51s1.72 5.99 10.23 5.69c8.51-.3 13.02-6.54 13.02-6.54l-12.19-5.67-11.06 6.52Z" style="fill:#e7834f"/><path class="cls-16" d="M370.08 215.71c-8.26 0-10.09-6-10.11-6.06l-.11-.37 11.62-6.85 12.98 6.04-.35.49c-.19.26-4.76 6.44-13.41 6.74-.21 0-.42.01-.62.01Zm-9.01-5.98c.52 1.24 2.72 5.22 9.6 4.97 6.78-.24 10.99-4.42 12.24-5.85l-11.37-5.29-10.47 6.18Z"/><path class="cls-13" d="M413.47 161.74s-.1-2.24 2.57-6.08 5.36-5.26 6.64-2.14c1.28 3.12 3.97 11.91 1.13 18.57-2.84 6.66-8.22 14.74-9.5 16.87-1.28 2.13-.99 3.56-2.13 3.56s-1.3-2.99-.85-5.69c.45-2.69 3.4-6.21 3.83-11.32.43-5.12.85-10.08-1.7-13.77Z"/><path class="cls-11" d="M412.2 193.02c-.24 0-.59-.08-.89-.44-.82-.97-.82-3.63-.45-5.83.19-1.12.76-2.33 1.42-3.72 1.01-2.13 2.15-4.54 2.4-7.56.43-5.13.82-9.92-1.61-13.44l-.08-.12v-.14c-.01-.1-.08-2.45 2.66-6.39 1.36-1.97 3.39-4.27 5.33-4.05.65.07 1.56.48 2.18 2 .46 1.13 4.41 11.24 1.13 18.96-2.35 5.52-6.35 11.87-8.5 15.28-.45.71-.8 1.27-1.03 1.65-.49.82-.74 1.54-.94 2.11-.3.87-.59 1.69-1.61 1.69Zm1.78-31.42c2.54 3.8 2.13 8.7 1.7 13.89-.27 3.27-1.51 5.88-2.5 7.97-.63 1.32-1.17 2.47-1.34 3.46-.41 2.49-.21 4.5.23 5.02.07.08.11.08.13.08.26 0 .34-.08.67-1.02.2-.59.48-1.39 1.03-2.3.23-.38.59-.95 1.04-1.66 2.14-3.39 6.11-9.7 8.43-15.14 3.12-7.34-.69-17.1-1.14-18.18-.35-.86-.81-1.33-1.37-1.39-1.11-.11-2.74 1.24-4.4 3.63-2.17 3.12-2.44 5.13-2.48 5.65Z"/><path class="cls-13" d="M319.92 162.59s-4.82-4.96-7.8-4.68c-2.98.28-4.11 11.77-.57 17.72 3.54 5.95 6.52 8.36 8.36 12.48 1.84 4.11 5.24 9.92 7.94 9.64 2.69-.28-.28-3.84-1.28-6.66-.99-2.82-2.69-7.62-3.83-14.16-1.13-6.54-2.84-14.33-2.84-14.33Z"/><path class="cls-11" d="M327.66 198.26c-3.47 0-7.14-7.58-8.2-9.94-.96-2.14-2.26-3.84-3.76-5.81-1.36-1.78-2.9-3.8-4.57-6.61-2.98-5.01-2.68-13.5-1.02-16.77.54-1.05 1.2-1.63 1.97-1.7 3.18-.32 8 4.62 8.2 4.83l.1.1.03.14c.02.08 1.72 7.88 2.84 14.35 1.12 6.43 2.78 11.17 3.78 13.99.3.86.74 1.71 1.17 2.54.87 1.68 1.62 3.14 1.1 4.1-.24.44-.7.7-1.38.77-.08 0-.16.01-.24.01Zm-15.29-39.85h-.21c-.39.04-.81.45-1.17 1.16-1.53 3.01-1.79 11.15.98 15.81 1.64 2.76 3.17 4.76 4.51 6.52 1.54 2.02 2.87 3.77 3.88 6.01 2.09 4.66 5.3 9.55 7.43 9.35.22-.02.51-.09.6-.26.27-.5-.49-1.98-1.1-3.17-.44-.85-.89-1.74-1.19-2.58-1.04-2.94-2.72-7.73-3.85-14.24-1.04-5.97-2.57-13.09-2.8-14.17-1.34-1.35-4.87-4.44-7.08-4.44Z"/><path class="cls-18" d="M381.72 159.09c1.44 0 2.6-.93 2.6-2.08s-1.16-2.08-2.6-2.08-2.6.93-2.6 2.08 1.16 2.08 2.6 2.08Z"/><path class="cls-19" d="M381.72 160.09c-1.99 0-3.6-1.38-3.6-3.08s1.62-3.08 3.6-3.08 3.6 1.38 3.6 3.08-1.62 3.08-3.6 3.08Zm0-4.16c-.85 0-1.6.5-1.6 1.08s.75 1.08 1.6 1.08 1.6-.5 1.6-1.08-.75-1.08-1.6-1.08Z"/><path class="cls-18" d="M341.75 162.23c1.37 0 2.48-.89 2.48-1.98s-1.11-1.98-2.48-1.98-2.48.89-2.48 1.98 1.11 1.98 2.48 1.98Z"/><path class="cls-19" d="M341.75 163.24c-1.92 0-3.48-1.34-3.48-2.98s1.56-2.98 3.48-2.98 3.48 1.34 3.48 2.98-1.56 2.98-3.48 2.98Zm0-3.96c-.79 0-1.48.46-1.48.98s.69.98 1.48.98 1.48-.46 1.48-.98-.69-.98-1.48-.98Z"/><path class="cls-11" d="M416.46 311.52c-13.49-24.17-21.55-64.65-21.62-65.05l.98-.19c.08.4 8.1 40.73 21.52 64.76l-.87.49Zm-72.21-6.13-.99-.11c1.98-18.79 5.05-51.55 5.08-51.88l1 .09c-.03.33-3.09 33.09-5.08 51.89Zm73.89-2.43c-5.33-12.91-19.16-58.56-19.3-59.02l.96-.29c.14.46 13.95 46.05 19.26 58.92l-.92.38Zm4.5-5.2c-4.73-29.63-21.07-60.76-21.23-61.07l.88-.47c.17.31 16.58 31.59 21.34 61.38l-.99.16Zm-69.34-7.42-1-.03c.84-28.32 5.91-62.09 5.96-62.43l.99.15c-.05.34-5.11 34.05-5.95 62.31Zm-20.13-22.09-.99-.11c.72-6.47 3.95-16.83 7.37-27.8 1.94-6.21 3.94-12.63 5.41-18.19 3.83-14.49.41-19.09.38-19.14l.78-.62c.16.19 3.8 4.94-.19 20.02-1.47 5.57-3.48 12.01-5.42 18.23-3.25 10.44-6.62 21.23-7.33 27.61Zm9-.86-.98-.21 5.95-28.07.98.21-5.95 28.07Zm8.6-20.99-1-.1c2.84-29.01 10.74-29.76 11.08-29.78l.05 1-.03-.5.04.5c-.07 0-7.41 1-10.15 28.88Zm47.2-5.93c-2.21-16.02-14.13-23.35-14.25-23.42l.52-.86c.12.08 12.45 7.65 14.72 24.14l-.99.14Zm17-2.17-12.76-41.11.96-.3L415.93 238l-.96.3Zm-59.84-1.8-1-.1c1.28-12.94 7.28-18.52 7.53-18.75l.67.74c-.06.05-5.97 5.58-7.21 18.11Zm-7.07-.98-.99-.15c2.28-15.13 12.03-20.01 12.44-20.21l.44.9c-.1.05-9.69 4.87-11.89 19.45Zm44.5-.22c-2.76-11.05-10.38-17.1-10.45-17.16l.62-.79c.32.25 7.96 6.33 10.81 17.71l-.97.24Zm5.7-5.7c-4.68-9.77-13.13-13.49-13.21-13.52l.39-.92c.36.15 8.88 3.91 13.72 14.01l-.9.43Z"/><path class="cls-17" d="m353.62 208.97-.8-.61s3.51-4.63 4.88-8.91l.95.31c-1.43 4.44-4.89 9.01-5.04 9.21Zm3.41-1.15-.81-.58s2.82-4 4.76-9.38l.94.34c-1.98 5.51-4.77 9.45-4.88 9.62Zm31.42-.79c-5.69-5.71-6.47-8.19-6.5-8.29l.96-.29s.81 2.41 6.25 7.87l-.71.71Zm-4.12-1.28c-4.13-4.27-6.11-8.75-6.19-8.94l.92-.4s2 4.51 6 8.64l-.72.7Zm-22.61-1.2-.83-.55c2.18-3.27 2.75-6.44 2.76-6.47l.99.17c-.02.14-.61 3.4-2.91 6.85Zm18.94-.33c-4.43-4.41-5.88-8.82-5.94-9.01l.95-.31s1.44 4.37 5.69 8.6l-.71.71Zm-15.56-.77-.78-.62s1.08-1.38 1.75-4.06l.97.24c-.73 2.91-1.89 4.38-1.94 4.44Zm11.67-.17c-2.41-3.55-3.82-7.18-3.88-7.33l.93-.36s1.43 3.68 3.77 7.13l-.83.56Z"/><path class="cls-11" d="M406.52 324.59c-.05-.08-4.64-8.02-6.56-22.01-1.95-14.22-7.85-25.81-7.91-25.92l.89-.46c.06.12 6.04 11.85 8.01 26.24 1.89 13.78 6.39 21.57 6.43 21.65l-.86.51Zm3.37-7.82c-5.62-26-16.61-50.09-16.72-50.33l.91-.42c.11.24 11.14 24.43 16.78 50.54l-.98.21Z"/><path class="cls-21" d="m364.64 312.16-1-.03 2.27-89.02 1 .03-2.27 89.02Zm22.67-10.98-.98-.19c.07-.36 6.74-36.18 2.55-59.07-4.14-22.61-14.75-23.68-14.85-23.69l.08-1c.47.04 11.49 1.15 15.76 24.51 4.22 23.07-2.48 59.08-2.55 59.44Zm-16.72-.66h-1l.28-79.1h1l-.28 79.1Zm3.84-5.67-.31-64.92h1l.31 64.92h-1Zm5.51-1.63-.99-.11c3.08-27.98.87-65.89.85-66.27l1-.06c.02.38 2.23 38.37-.85 66.44Z"/><path class="cls-8" d="m383.63 297.78-.98-.19c3.35-17.31-.25-63.47-.29-63.94l1-.08c.04.46 3.65 46.76.28 64.21Z"/><path class="cls-21" d="m354.72 320.16-.99-.12c3.08-25.75 5.08-59.75 5.1-60.09l1 .06c-.02.34-2.02 34.37-5.11 60.15Z"/><path class="cls-11" d="M422.33 284.43c-4.19-28.75-17.93-50.62-18.07-50.84l.84-.54c.14.22 14 22.26 18.22 51.23l-.99.14Z"/><g style="clip-path:url(#clippath-2)"><path d="M600.19 436.55s-13.47-50.52-28.73-67.95l-31.29 10.78-13 74.19 73.01-17.01Z"/><path class="cls-19" d="m526.48 454.29 13.2-75.34 31.95-11 .25.28c15.16 17.33 28.71 67.67 28.84 68.18l.15.55-74.39 17.33Zm14.18-74.51-12.8 73.04 71.63-16.69c-1.51-5.52-14.17-50.49-28.21-66.9l-30.62 10.55Z"/></g><path class="cls-11" d="M337.87 317.69c-7.33-21.71 4.15-74.04 4.26-74.56l.98.22c-.12.52-11.53 52.58-4.29 74.03l-.95.32ZM418.57 126.97c-5.95-9.75-12.51-15.41-19.5-16.83-6.96-1.41-11.9 2.06-11.95 2.09l-1.17-1.62c.23-.16 5.66-4.01 13.47-2.44 7.57 1.52 14.59 7.49 20.85 17.75l-1.71 1.04Zm-110.52-2.57-1.23-1.57c10.79-8.46 18.51-5.94 18.83-5.83l-.65 1.89.33-.95-.32.95c-.07-.02-7.08-2.22-16.95 5.51Zm.9-6.56-1.33-1.49c10.69-9.53 29.45-7.97 30.24-7.91l-.18 1.99c-.19-.02-18.69-1.55-28.73 7.4Zm69.51-9.1-1.38-1.44c.15-.15 15.25-14.35 29.62-4.06l-1.16 1.63c-5.43-3.89-11.61-4.44-18.35-1.65-5.13 2.13-8.69 5.49-8.72 5.53Zm-63.47-2.68-.95-1.76c19.37-10.41 29.88-1.95 30.31-1.59l-1.28 1.54c-.4-.33-9.99-7.92-28.09 1.81Zm54.98-1.02-1.42-1.41c.47-.47 11.62-11.42 25.65-7.04l-.6 1.91c-12.88-4.03-23.53 6.43-23.64 6.54Zm-5.84-6.42-1.7-1.06c.07-.12 7.38-11.59 22.57-9.25l-.3 1.98c-13.85-2.13-20.3 7.9-20.57 8.33Z"/><path d="m162.88 388.11 2.83-62.07 17.01-21.28 24.38 41.39-44.22 41.96z"/><path class="cls-19" d="m162.26 389.46 2.91-63.63 17.63-22.05 25.01 42.47-45.55 43.21Zm4-63.22-2.76 60.52 42.91-40.71-23.75-40.32-16.39 20.51Z"/><path class="cls-11" d="m306.09 136.21-1.84-.78c4.2-9.95 13.19-8.57 13.28-8.55l-.33 1.97.17-.99-.16.99c-.31-.05-7.53-1.11-11.11 7.36Z"/><path class="cls-22" d="M173.72 292.47s-19.53 24.05-17.81 102.25l13.72-1.05s-1.74-8.58-1.06-29.5c.69-20.93 5.89-42.19 11.35-52.49l-6.2-19.21Z"/><path class="cls-22" d="M155.32 395.37v-.64c-1.71-77.52 17.73-102.4 17.93-102.64l.7-.87 6.63 20.52-.12.23c-5.07 9.55-10.57 30.56-11.28 52.22-.67 20.58 1.03 29.28 1.05 29.36l.14.67-15.04 1.15Zm18.2-101.56c-3.4 5.17-18.42 32.03-17.02 100.25l12.42-.95c-.39-2.39-1.53-11.2-.95-28.97.71-21.68 6.2-42.75 11.3-52.52l-5.75-17.81Z"/><path class="cls-17" d="M181.26 364.17s-9.63-44.6-10.63-79.59-1.37-47.66-1.37-47.66 3.15-4.44 14.09-6.86c10.95-2.42 23.98-1.05 23.98-1.05s12.41 22.64 15.47 33.96l-17.52 64.15-24.01 37.05Z"/><path class="cls-19" d="m180.98 365.72-.31-1.42c-.1-.45-9.66-45.05-10.65-79.7-1-34.99-1.37-47.66-1.37-47.66v-.2l.11-.17c.13-.19 3.41-4.66 14.46-7.1 10.92-2.41 24.05-1.07 24.18-1.06l.31.03.15.28c.12.23 12.48 22.83 15.52 34.09l.04.16-.04.16-17.55 64.24-24.86 38.35Zm-11.11-128.6c.05 1.83.44 15.11 1.37 47.44.89 31.04 8.68 70.13 10.32 78.04l23.16-35.74 17.46-63.9c-2.89-10.49-13.79-30.76-15.22-33.39-2.05-.19-13.69-1.1-23.48 1.07-9.42 2.08-12.95 5.71-13.61 6.48Z"/><path class="cls-14" d="M172.74 284.24c-.94 0-1.53-.01-1.71-.02l.13-6c.38 0 37.85.67 52.27-11.75l3.92 4.55c-14.44 12.43-46.72 13.22-54.61 13.22Z"/><path class="cls-19" d="M168.83 237.28s25 2.84 39.43-6.24c0 0-24.69-7.37-39.43 6.24Z"/><path class="cls-19" d="M177.76 238.18c-5.26 0-8.89-.39-8.98-.4l-.28-.86c14.78-13.64 39.66-6.42 39.91-6.35l.12.9c-8.98 5.64-22.09 6.72-30.77 6.72Zm-7.73-1.29c4.91.4 24.5 1.45 36.96-5.66-4.87-1.19-24.33-5.01-36.96 5.66Z"/><path class="cls-21" d="M220.03 253.37s16.12 27.79 19.9 39.45c0 0-5.83 31.56-23.67 63.12-17.84 31.56-29.16 51.11-29.16 51.11l-30.53-12.01s17.15-26.41 28.13-47c10.98-20.58 24.36-43.22 35.33-94.68Z"/><path class="cls-19" d="m187.36 407.81-31.7-12.47.4-.62c.17-.26 17.26-26.63 28.1-46.95.74-1.39 1.49-2.79 2.25-4.2 10.69-19.88 22.8-42.42 33.02-90.32l.33-1.54.79 1.36c.16.28 16.2 27.98 19.95 39.57l.05.15-.03.15c-.06.32-6.05 32.02-23.74 63.31-17.64 31.2-29.05 50.92-29.16 51.12l-.26.45Zm-29.88-13.05 29.36 11.55c1.8-3.11 12.73-22.06 28.9-50.66 16.96-30 23.11-60.39 23.57-62.78-3.31-10.07-15.75-32.12-19.01-37.82-10.18 47.02-22.2 69.36-32.81 89.1-.76 1.41-1.51 2.81-2.25 4.2-9.93 18.63-25.1 42.3-27.75 46.42Z"/><path class="cls-15" d="M207.53 232.32s1.24-18.77 2.27-29.06-.29-22.6-4.77-29.48c-4.49-6.88-5.92-9.26-5.92-9.26s-1.37-2.74-4.8-2.4c-3.43.34-12.66-.97-16.23-.52 0 0 .9-4.1 3.57-6.99 3.94-4.25 6.12-5.73 9.61-11.51 2.74-4.56-.04-8.08-4.15-5.34-4.12 2.74-10.29 8.58-10.29 8.58s3.09-6.54 3.43-10.29-3.77-7.51-5.49-3.75-11.66 28.09-13.04 56.93l-.66 4.46s-1.34-4.29-3.43-6.86c-2.09-2.57-4.32-5.15-4.32-5.15s.17-3.74-.69-8.21c0 0 1.37-2.59 1.72-5.85.34-3.26-1.86-5.49-3.57-5.49s-3.63 2.74-4.49 9.43c-.86 6.69-.34 15.78 2.74 20.58s5.83 5.66 8.75 11.83 4.63 10.81 8.58 17.15 9.78 12.37 9.78 12.37l.48 4.13s14.47 1.56 30.93-5.3Z"/><path class="cls-17" d="M180.35 238.37c-2.38 0-3.77-.14-3.82-.15l-.48-.05-.51-4.41c-.93-.98-6.12-6.55-9.71-12.32-2.95-4.75-4.7-8.61-6.54-12.71-.65-1.44-1.32-2.92-2.07-4.51-1.68-3.55-3.28-5.29-4.98-7.12-1.2-1.29-2.43-2.63-3.73-4.65-3.18-4.95-3.72-14.11-2.84-20.99.81-6.33 2.67-9.96 5.09-9.96.94 0 1.94.51 2.74 1.39 1.1 1.23 1.63 2.96 1.44 4.77-.3 2.86-1.35 5.2-1.68 5.88.71 3.81.69 7.01.67 7.91.54.63 2.42 2.82 4.17 4.98 1.16 1.43 2.09 3.35 2.71 4.82l.31-2.13c1.49-31.39 12.97-56.84 13.08-57.09.98-2.14 2.54-1.99 3.17-1.82 1.85.49 3.72 3.11 3.47 5.88-.21 2.31-1.4 5.58-2.33 7.85 2.18-1.96 5.61-4.93 8.26-6.7 2.36-1.57 4.22-1.16 5.18-.25 1.42 1.36 1.36 3.87-.17 6.41-2.65 4.39-4.57 6.36-7.01 8.84-.81.82-1.68 1.71-2.67 2.77-1.84 1.99-2.81 4.6-3.21 5.9 2-.1 4.96.11 7.84.32 2.92.21 5.93.43 7.51.27a5.41 5.41 0 0 1 5.4 2.73s1.47 2.44 5.88 9.2c5.03 7.71 5.77 20.91 4.87 29.87-1.02 10.16-2.25 28.85-2.27 29.04l-.02.37-.35.14c-11.42 4.76-21.99 5.49-27.41 5.49Zm-3.21-1.31c2.61.18 15.48.72 29.81-5.15.18-2.71 1.31-19.32 2.24-28.7.88-8.77.18-21.65-4.68-29.09-4.44-6.81-5.92-9.25-5.93-9.28-.07-.14-1.26-2.41-4.22-2.11-1.69.17-4.62-.04-7.72-.27-3.28-.24-6.68-.48-8.49-.25l-.85.11.18-.84c.04-.17.97-4.3 3.72-7.27.99-1.07 1.87-1.97 2.69-2.8 2.38-2.42 4.27-4.34 6.84-8.61 1.39-2.31 1.19-4.13.37-4.91-.8-.76-2.17-.62-3.67.38-4.03 2.68-10.15 8.45-10.21 8.51l-.96-.7c.03-.06 3.05-6.48 3.38-10.09.19-2.12-1.25-4.25-2.58-4.6-.73-.19-1.32.19-1.76 1.15-.11.25-11.5 25.49-12.98 56.7l-.66 4.52-1.18.09s-1.33-4.21-3.32-6.66c-2.06-2.54-4.28-5.11-4.3-5.13l-.16-.18v-.24s.17-3.72-.66-8.07l-.04-.21.1-.19s1.32-2.54 1.65-5.63c.15-1.46-.26-2.86-1.13-3.83-.56-.62-1.25-.99-1.84-.99-1.37 0-3.1 2.75-3.89 8.91-.83 6.44-.35 15.51 2.65 20.18 1.24 1.93 2.44 3.22 3.6 4.48 1.68 1.82 3.43 3.7 5.19 7.43.75 1.59 1.42 3.08 2.08 4.52 1.91 4.23 3.56 7.89 6.47 12.57 3.86 6.21 9.64 12.21 9.7 12.27l.14.15.44 3.84Z"/><g style="clip-path:url(#clippath-3)"><path class="cls-7" d="M550.47 338.27 516.63 450.2l-85.17-10.71 74.64-96.51 44.37-4.71z"/><path class="cls-19" d="m517.02 450.81-86.6-10.89 75.38-97.47.24-.02 45.21-4.8-34.23 113.18Zm-84.53-11.75 83.74 10.53 33.47-110.68-43.31 4.6-73.9 95.56Z"/></g><path class="cls-20" d="m186.9 171.93 7.59-1.7.85 6.31 3.4 6.45.07 8.15-6.66-5.39-4.18-5.31-1.42-5.39.35-3.12z"/><path class="cls-19" d="M585.54 371.18s2.24 21.68-12.59 37.36l-6.64-1.77-3.17-19.14 13.24-16.6 9.16.16Z"/><path class="cls-19" d="m573.12 409.16-7.3-1.95-3.27-19.74.15-.19 13.41-16.81 9.92.17.05.49c.02.22 2.1 22.11-12.74 37.8l-.23.24Zm-6.33-2.84 5.97 1.59c13.03-13.99 12.46-32.92 12.26-36.19l-8.38-.14-12.92 16.19 3.07 18.55Z"/><path class="cls-17" d="m188.37 208.91-1.18-.28c.1-.41 2.51-10.18 10.8-15.41 0-.49 0-.99.02-1.49-.64-.47-6.35-4.68-9.34-8.67-2.75-3.66-2.9-9.27-2.88-10.91-2.93-.06-5.42-.57-6.36-.78-1.07 1.3-2.2 2.32-3.28 3.11 1.94 3.15 2.62 7.59 2.64 7.79l-1.2.18s-.66-4.34-2.45-7.28c-1.66 1.05-3.1 1.58-3.85 1.8.88 6.28-.38 10.85-.44 11.04l-1.16-.33s1.32-4.78.33-11.06l-.09-.56.56-.12s4.65-1.06 8.23-5.61l.24-.31.38.1c.1.03 9.79 2.46 15.28-1.15l.02.03c.16-.26.35-.51.57-.76 2.69-3.02 3.73-4.41 3.74-4.42l.97.73c-.04.06-1.08 1.43-3.81 4.5-2.63 2.96.17 7.82 1.08 9.24 2.01 3.11 2.71 6.93 2.15 11.7-.66 5.64.99 11.01 1.01 11.07l-1.16.36c-.05-.16-.92-3.01-1.16-6.77-7.39 5.06-9.66 14.18-9.68 14.28Zm-1.36-36.76c-.01 1.5.13 6.85 2.63 10.19 2.41 3.21 6.81 6.69 8.47 7.96.02-.15.03-.31.05-.46.53-4.48-.12-8.04-1.97-10.9-.82-1.26-2.94-4.95-2.23-8.21-2.15 1.01-4.64 1.38-6.96 1.43Zm-23.37.85-1.1-.5c.12-.26 2.95-6.4 8.54-9.21 5.55-2.79 10.05-2.46 10.24-2.45l-.1 1.21s-4.37-.31-9.6 2.32c-5.2 2.61-7.95 8.57-7.98 8.63Zm1.06-4.21-1.17-.31c.09-.33 2.13-8.06 6.27-13.92 4.09-5.79 7.22-9.28 7.25-9.32l.9.81s-3.11 3.48-7.16 9.21c-4 5.67-6.06 13.45-6.08 13.52ZM559.44 356.23l26.07 13.3s-17.18 15.25-13.48 39.18c0 0-19.6-3.16-34.24-8.04l8.45-26.9 13.2-17.54Z"/><path class="cls-19" d="m572.7 409.38-.75-.12c-.2-.03-19.81-3.23-34.32-8.06l-.52-.17 8.7-27.59 13.48-17.91 27.21 13.88-.61.54c-.17.15-16.91 15.34-13.3 38.68l.12.76Zm-34.21-9.07c12.76 4.18 29.21 7.1 32.89 7.72-2.88-21.02 10.24-35.43 13.19-38.37l-24.96-12.73-12.86 17.09-8.26 26.29Z"/><path class="cls-14" d="M561.68 407.15c-.02-1.21-.4-29.75 16.12-42.7l3.08 3.94c-14.55 11.41-14.22 38.4-14.21 38.67l-5 .1Z"/><path class="cls-17" d="M572.03 408.71s-19.6-3.16-34.24-8.04"/><path class="cls-19" d="M571.94 409.26c-.2-.03-19.81-3.23-34.32-8.06l.35-1.05c14.43 4.81 33.95 7.99 34.15 8.02l-.18 1.1Z"/><g style="clip-path:url(#clippath-4)"><path class="cls-21" d="M568.3 355.31c-.33.28-32.97 28.19-29.71 81.5l-.5.59-25.92 2.42-.61-.54c0-.27-.64-27.57 7.56-56.56 8.22-29.06 25.31-44.62 25.48-44.77l.36-.14c.14 0 14.6-.06 23.48 16.81l-.14.68Z"/><path class="cls-22" d="m512.21 440.37-.42-.14-.61-.54-.19-.4c0-.27-.6-27.82 7.58-56.72 8.26-29.18 25.47-44.88 25.65-45.03l.17-.1.55-.18c.14-.02 14.92-.12 23.98 17.11l.05.37-.13.68-.19.32c-.33.27-32.75 28.06-29.52 81.04l-.13.4-.5.59-.37.19-25.92 2.42Zm-.11-1.34.24.22 25.46-2.38.21-.25c-3.05-51.52 27.34-79.46 29.77-81.61l.06-.3c-8.31-15.62-21.55-16.31-22.79-16.34l-.16.06c-1.22 1.13-17.35 16.54-25.25 44.44-7.73 27.31-7.59 53.39-7.55 56.15Z"/><path class="cls-10" d="m512.07 439.27.02-2.77c.08-8.37.96-30.35 7.55-53.62 8.15-28.81 25.15-44.35 25.32-44.51l3.35 3.72c-.16.14-16.15 14.93-23.85 42.15-5.79 20.47-7.06 39.93-7.31 49.54l15.69-1.46c-1.28-52.94 30.53-80.12 31.91-81.26l3.2 3.84c-1.32 1.1-32.24 27.52-30.03 79.59l.1 2.37-25.94 2.42Z"/><path class="cls-6" d="M346.08 439.41s59.14-56.18 86.32-80.96c25.46-23.21 40.28-31.92 63.88-39.23 20.97-6.5 50.28-2.48 62.49 21.29 0 0-21.27-1.61-50.35 23.29-29.07 24.9-53.38 52.08-69.27 88.94l-93.08-13.33Z"/><path class="cls-14" d="m440.09 454.38-1.14-.16-96.15-13.76 2.25-2.13c.59-.56 59.46-56.48 86.34-80.98 24.94-22.74 40-31.98 64.44-39.55 22.7-7.03 52.06-1.72 64.27 22.03l1.23 2.38-2.67-.2c-.21-.02-21.09-1.19-49.26 22.93-33.74 28.9-54.98 56.16-68.86 88.4l-.45 1.05Zm-90.72-16.02 88.88 12.72c14.09-32.22 35.47-59.54 69.21-88.44 22.93-19.64 41-23.06 48.15-23.58-3.42-3.35-16.99-15.23-36.9-15.23-48.59 0-150.98 111.24-152.01 112.37l-2.21-2.03c.26-.28 26.25-28.6 57.99-56.54 42.82-37.69 75.2-56.8 96.23-56.8 12.92 0 23.18 4.58 30.07 9.01-13.66-12.44-34.86-14.52-52.05-9.19-23.96 7.43-38.75 16.52-63.31 38.91-23.86 21.75-72.98 68.3-84.05 78.81Z"/><path class="cls-14" d="m432.28 434.64-2.42-1.78c.21-.28 21.06-28.6 46.93-54.33 35.09-34.9 62.26-48.65 80.74-40.86l-1.16 2.77c-41.52-17.48-123.27 93.08-124.09 94.2Z"/><path class="cls-21" d="m384.86 431.01 27.76-29.06-10.63-11.34 11.79-11.57 10.77 11.94 20.68-22.35 13.46 9.57-21.61 24.12 12.4 10.26-9.33 13.11-14.77-13.45-14.88 19.48-25.64-.71z"/><path class="cls-22" d="m410.74 432.22-27.02-.75 28.21-29.53-10.64-11.35 12.51-12.28 10.76 11.92 20.6-22.26 14.28 10.15-21.64 24.14 12.36 10.23-9.93 13.95-14.78-13.46-14.71 19.25ZM386 430.54l24.25.67 15.06-19.71 14.75 13.44 8.74-12.27-12.45-10.3 21.59-24.08-12.65-8.99-20.75 22.42-10.79-11.96-11.07 10.86 10.62 11.33-27.31 28.59Z"/></g><path class="cls-12" d="m661.82 306.9.23-4.73-13.17-15.19-73.36-1.55 1.38 52.75 1.45 55.49 11.9 14.57 11.25-4.61-5.17-98.11 64.23 1.73 1.26-.35z"/><path class="cls-10" d="m590.08 408.9-12.28-15.03-2.85-109.01 74.19 1.57 13.48 15.55-.26 5.35-1.72.49h-.08l-63.64-1.72 5.16 97.9-12 4.91Zm-11.18-15.44 11.52 14.1 10.51-4.3-5.19-98.32 64.75 1.74.79-.22.2-4.1-12.86-14.84-72.54-1.53 2.81 107.47Z"/><path style="fill:#e88237" d="m642.22 410.48 26.1-1.72-5.01-106.29-73.68-2.18 4.43 108.19 20.78 2.16 27.38-.16z"/><path class="cls-19" d="m614.85 411.19-21.32-2.21-4.48-109.27 74.8 2.21 5.05 107.36-26.67 1.75-27.38.16Zm-20.25-3.21 20.31 2.11 27.3-.17 25.53-1.68L662.79 303l-72.58-2.14 4.39 107.12Z"/><path class="cls-3" d="m605.19 398.85-2.47-87.44 48.18 1.03 5 88.35-50.71-1.94z"/><path class="cls-3" d="m656.49 401.37-51.84-1.99-2.5-88.54 49.27 1.05.03.51 5.04 88.97Zm-50.76-3.06 49.58 1.9-4.94-87.23-47.08-1.01 2.44 86.34Z"/><path class="cls-22" d="m636.96 393.79 12.21-.12-.85-18.33 5.88-4.58 1.7 30.03-19.65-.75.71-6.25z"/><path class="cls-22" d="m656.49 401.37-20.86-.8.83-7.34 12.12-.11-.84-18.04 6.94-5.41 1.8 31.7Zm-19.62-1.86 18.44.71-1.61-28.37-4.82 3.75.86 18.62-12.29.11-.59 5.17ZM610.14 375.18l.64 18.85 11.52-.11 4.44 5.75-21.55-.82-.8-28.44 5.75 5.22"/><path class="cls-22" d="m627.9 400.28-23.25-.89-.85-30.25 6.66 6.04h.24l.61 18.3 11.26-.1 5.33 6.91Zm-22.17-1.96 19.84.76-3.54-4.59-11.79.11-.63-18.69-4.63-4.2.75 26.61Z"/><path class="cls-15" d="M570.56 398.19s12.84 14.25 26.4 15.91c13.56 1.65 19.19-.63 19.19-.63s6.35 3.02 11.34.41c0 0 4.1 2.13 8.18-.46 0 0 2.88 2.78 8.14-2.35 5.26-5.13 6.48-7.51 7.87-8.64 0 0 .58-3-2.27-3.58-2.84-.58-5.46 2.61-7.14 5.48-1.68 2.86-3.56 3.68-3.56 3.68s.89-2.85 2.09-6.49c1.2-3.64 3.52-5.87 3.52-5.87s.42-2.87-2.57-2.96c-2.99-.09-5.17 1.52-5.17 1.52s-.65-1.42-2.7-1.39c-2.05.04-4.37 2.12-5.59 4.5 0 0-2.69-1.06-5.65.89-2.96 1.94-8.04 8.17-8.04 8.17s-6.44.9-9.73 1.74-9.66-2.19-11.89-4.99c-2.23-2.79-8.93-9.13-15.89-11.21l-.45-12.62s-3.69 7.23-4.82 11.62c-1.13 4.39-1.28 7.25-1.28 7.25Z"/><path class="cls-17" d="M622.8 415.5c-3.13 0-5.89-1.09-6.67-1.44-1.2.41-7.02 2.07-19.23.58-13.61-1.66-26.22-15.5-26.75-16.09l-.15-.17v-.23c.02-.12.17-2.96 1.3-7.36 1.14-4.4 4.71-11.44 4.86-11.74l.97-1.91.51 14.36c7.43 2.38 14.03 9.08 15.78 11.28 2.1 2.64 8.31 5.57 11.32 4.79 2.98-.77 8.41-1.56 9.57-1.72.85-1.03 5.27-6.3 8.03-8.11 2.45-1.61 4.72-1.31 5.68-1.08 1.27-2.22 3.59-4.36 5.85-4.4h.09c1.49 0 2.35.68 2.77 1.19.84-.49 2.68-1.4 5.03-1.32 1.06.03 1.88.38 2.43 1.03.88 1.05.68 2.51.67 2.57l-.03.19-.14.13s-2.24 2.18-3.37 5.64c-.65 1.99-1.22 3.74-1.59 4.92.6-.54 1.34-1.36 2.05-2.56 1.75-2.98 4.51-6.4 7.73-5.74 2.68.55 2.94 3.01 2.7 4.23l-.04.2-.16.13c-.51.41-1.01 1.03-1.78 1.96-1.15 1.41-2.88 3.54-6.06 6.64-4.6 4.49-7.58 3.26-8.57 2.62-3.62 2.1-7.15.83-8.13.4-1.53.74-3.16 1-4.7 1Zm-5.54-2.18c1.64.6 5.34 1.68 8.69.61l-.1-.1s3.96-3.98 5.7-8.71c.26-.7.5-1.4.75-2.08 1.2-3.37 2.26-6.37 3.89-8.37l-.1-.21s-.57-1.09-2.19-1.06c-1.7.03-3.89 1.84-5.1 4.2l-.05.09.41.12c-.04.13-.96 3.17-4.77 8.89-2.44 3.66-5.29 5.64-7.13 6.62Zm10.49.07c.17.09 3.58 1.78 7.15-.15l-.19-.22s2.35-2.04 3.48-5.63l.14.04c.29-.93 1.04-3.26 1.96-6.07 1.06-3.23 2.95-5.36 3.51-5.94.01-.32-.02-1.03-.44-1.53-.34-.4-.88-.61-1.6-.63-1.44-.04-2.69.34-3.56.73l.13.19c-2.25 1.56-3.57 5.29-4.98 9.23-.24.69-.49 1.39-.75 2.09-1.24 3.39-3.48 6.32-4.84 7.89Zm-56.61-15.4c1.51 1.61 13.5 14.05 25.9 15.56 10.32 1.26 16.02.2 18.05-.33l-.04-.12s4.77-1.55 8.42-7.01c3.01-4.52 4.18-7.35 4.52-8.26-.53-.16-2.67-.67-5.02.87-2.85 1.87-7.86 7.99-7.92 8.05l-.14.17-.21.03c-.06 0-6.44.9-9.67 1.73-3.49.9-10.09-2.21-12.46-5.18-2.17-2.72-8.85-9-15.61-11.03l-.38-.11-.38-10.8c-1.17 2.45-3.06 6.64-3.81 9.53-.92 3.59-1.18 6.15-1.24 6.91Zm65.03 15.12c.55.39 3 1.71 7.26-2.44 3.14-3.06 4.84-5.15 5.97-6.54.7-.86 1.23-1.51 1.77-1.98.07-.6.08-2.35-1.86-2.75-2.71-.55-5.27 3.03-6.55 5.21-1.68 2.86-3.56 3.79-3.79 3.9-.84 2.2-2.03 3.75-2.8 4.6Z"/><path class="cls-10" d="m591.48 364.34-13.99-6.37.46-1.01 13.99 6.37-.46 1.01Zm-.63-20.42-13.92-4.16.32-1.06 13.92 4.16-.32 1.06Z"/><path class="cls-22" d="m603.47 337.86-.75-26.45 20.73.44-3.39 4.67-11.9-.48.56 16.86-5.25 4.96z"/><path class="cls-22" d="m602.95 339.12-.8-28.28 22.37.48-4.19 5.77-11.6-.47.55 16.51-6.33 5.99Zm.34-27.14.7 24.63 4.17-3.94-.58-17.21 12.21.5 2.59-3.57-19.08-.41ZM627.92 311.95l22.98.49 1.51 26.69-6.04-5.67-.73-15.89-12.8-.53-4.92-5.09z"/><path class="cls-22" d="m653.04 340.49-7.21-6.78-.72-15.61-12.51-.51-6.01-6.23 24.84.53 1.62 28.6Zm-6.12-7.28 4.86 4.57-1.4-24.79-21.12-.45 3.83 3.97 13.09.53.75 16.18Z"/><path class="cls-12" d="m620.98 347.43-.13-16.36s-.72-5.34-4.37-6.85l5.19-.09s1.52-3.02 5.45-3.09c3.93-.07 6.38 3.67 6.38 3.67s2.01-.82 3.73-1.01c0 0-2.61 3.7-2.54 7.62.07 3.92.78 16.34.78 16.34s4.54.39 7.38.34c2.83-.05 4.2-3.06 4.2-3.06s.51 1.88.39 4.09c0 0 4.42.87 4.67 5.9s-3.03 6.98-3.03 6.98.34 1.25.06 3.62c0 0-.99-2.5-3.99-3.08-3-.58-8.97-.16-8.97-.16s.19 10.7.26 15.1c.08 4.4 4.4 7.32 4.4 7.32s-2.53.87-5.06.11c0 0-.88 3.77-4.65 4-3.77.22-6.99-3.65-6.99-3.65s-2.04.35-4.08.39c0 0 3.43-3.52 3.36-7.61-.07-4.09-1.1-16.19-1.1-16.19s-4.28-.36-6.46-.19c-2.17.18-5.26 3.38-5.26 3.38s-.54-2.35.05-4.56c0 0-5.38-1.6-5.46-6.5-.08-4.89 5.08-6.38 5.08-6.38s-.81-1.26-.85-3.78c0 0 3.05 3.25 5.73 3.52 2.68.27 5.83.21 5.83.21Z"/><path class="cls-16" d="M630.83 389.36c-3.33 0-6.11-2.77-6.89-3.62-.65.1-2.24.32-3.86.34l-1.34.02.94-.97s3.27-3.41 3.2-7.22c-.06-3.57-.87-13.41-1.05-15.68-1.16-.09-4.21-.28-5.9-.15-1.61.13-4.09 2.36-4.91 3.21l-.71.74-.23-1c-.02-.09-.49-2.18-.06-4.34-1.4-.56-5.29-2.52-5.37-6.84-.07-4.2 3.43-6.1 4.87-6.7-.26-.65-.61-1.8-.64-3.46l-.03-1.44.99 1.05s2.94 3.1 5.38 3.35c1.96.2 4.2.21 5.21.21l-.12-15.81s-.73-4.97-4.03-6.34l.2-1.07 4.88-.08c.52-.82 2.26-3.03 5.77-3.09h.12c3.41 0 5.72 2.57 6.47 3.55.69-.26 2.15-.75 3.47-.89l1.22-.13-.71 1s-2.51 3.61-2.44 7.29c.06 3.42.62 13.51.76 15.83 1.24.1 4.61.34 6.84.3 2.44-.04 3.69-2.71 3.7-2.74l.64-1.4.4 1.49c.02.07.46 1.75.42 3.82 1.22.41 4.44 1.89 4.65 6.28.21 4.39-2.09 6.58-2.97 7.25.09.56.2 1.73 0 3.43l-1.07.14c-.04-.09-.93-2.23-3.58-2.74-2.38-.46-6.79-.27-8.3-.18l.25 14.57c.07 4.06 4.12 6.84 4.16 6.87l.92.62-1.05.36c-.1.03-2.39.81-4.88.25-.43 1.14-1.76 3.69-4.98 3.88-.12 0-.23.01-.35.01Zm-6.45-4.82.21.25s3.05 3.65 6.53 3.46c3.32-.2 4.13-3.54 4.14-3.57l.13-.58.57.17c1.36.41 2.74.31 3.66.15-1.34-1.17-3.66-3.67-3.71-7.03l-.27-15.63.53-.04c.25-.02 6.08-.42 9.12.17 1.65.32 2.75 1.16 3.44 1.93 0-1.16-.15-1.78-.15-1.79l-.1-.4.36-.21c.12-.07 2.98-1.86 2.75-6.47-.22-4.54-4.18-5.37-4.22-5.38l-.47-.09.03-.48c.05-.96-.02-1.87-.12-2.57-.75.95-2.03 2.1-3.9 2.13-2.81.05-7.25-.33-7.43-.34l-.48-.04-.03-.48c0-.13-.72-12.48-.79-16.36-.05-2.79 1.17-5.44 1.97-6.86-1.26.3-2.38.76-2.4.76l-.42.17-.25-.38s-2.3-3.42-5.81-3.42h-.1c-3.53.06-4.91 2.67-4.97 2.78l-.15.29-3.68.07c2.48 2.19 3.03 6.06 3.06 6.25l.14 16.98h-.55c-.13.01-3.21.06-5.89-.21-1.86-.19-3.82-1.64-5-2.67.21 1.37.64 2.07.65 2.08l.39.62-.7.21c-.19.06-4.76 1.44-4.68 5.84.08 4.42 4.86 5.91 5.07 5.98l.51.15-.14.52c-.32 1.19-.28 2.44-.2 3.28 1.11-1 3.16-2.66 4.83-2.79 2.2-.18 6.37.17 6.55.18l.47.04.04.47c.01.12 1.03 12.17 1.1 16.23.05 2.98-1.61 5.63-2.67 7.01 1.49-.11 2.73-.32 2.75-.32l.32-.05Z"/><path class="cls-21" d="M628.5 358.86a3.142 3.142 0 0 0 3.09-3.2 3.142 3.142 0 0 0-3.2-3.09 3.142 3.142 0 0 0-3.09 3.2 3.142 3.142 0 0 0 3.2 3.09Z"/><path class="cls-16" d="M628.44 359.41c-.96 0-1.87-.37-2.56-1.04a3.702 3.702 0 0 1-1.13-2.6 3.69 3.69 0 0 1 3.63-3.76h.06a3.71 3.71 0 0 1 3.7 3.63c.03 2.04-1.59 3.73-3.63 3.76s-.04 0-.07 0Zm0-6.29h-.04a2.589 2.589 0 0 0-2.54 2.63 2.593 2.593 0 0 0 2.59 2.54h.05a2.589 2.589 0 0 0 2.54-2.63 2.593 2.593 0 0 0-2.59-2.54Z"/><path class="cls-14" d="m610.42 354.22 3.56-2.27 3.5 2.46-3.24 3.36-3.82-3.55z"/><path class="cls-16" d="m614.26 358.55-4.74-4.41 4.47-2.85 4.34 3.04-4.08 4.22Zm-2.93-4.25 2.89 2.69 2.42-2.5-2.67-1.87-2.64 1.68Z"/><path style="fill:#334a71" d="m639.19 354.03 2.67-2.09 3.01 2.8-2.93 3.34-2.75-4.05z"/><path class="cls-16" d="m641.88 358.98-3.44-5.07 3.45-2.7 3.76 3.49-3.76 4.28Zm-1.94-4.83 2.05 3.02 2.1-2.39-2.27-2.11-1.89 1.48Z"/><path class="cls-3" d="m626.56 377.39 3.23-3.21 3.51 2.79-3.25 3.35-3.49-2.93z"/><path class="cls-16" d="m630.09 381.07-4.35-3.65 4-3.98 4.38 3.48-4.03 4.15Zm-2.7-3.72 2.63 2.21 2.46-2.53-2.64-2.1-2.44 2.43Z"/><path class="cls-18" d="m624.03 333.07 3.72-3.39 2.76 3.28-2.64 3.8-3.84-3.69z"/><path class="cls-16" d="m627.96 337.61-4.74-4.55 4.58-4.18 3.4 4.04-3.25 4.69Zm-3.11-4.53 2.94 2.83 2.02-2.92-2.11-2.51-2.85 2.6Z"/><path class="cls-17" d="m356.04 214.94-1.9-3.52 17.11-9.22 17.3 6.56-1.42 3.74-15.59-5.91-15.5 8.35z"/><path class="cls-19" d="m361.09 212.43-.65-1.89c.07-.02 7.21-2.52 9.86-4.9l.46-.42.58.23c.1.04 9.9 3.96 11.81 4.5l-.55 1.92c-1.76-.5-9.31-3.49-11.45-4.35-3.19 2.5-9.77 4.8-10.06 4.9Z"/><path class="cls-14" transform="rotate(-.67 360.26 399.765)" d="M329.22 397.17h59.9v3h-59.9z"/><path class="cls-8" d="M319.15 180.35c-.17-.18-4.19-4.5-5.48-7.67-1.2-2.92-1.73-9.13-.89-10.38.22-.32.49-.37.64-.37 1.1 0 3.23 2.98 4.41 4.76l-.83.55c-1.21-1.84-2.81-3.86-3.45-4.25-.39 1.09-.1 6.51 1.05 9.31 1.23 3 5.25 7.32 5.29 7.36l-.73.68Zm98.81-1.53-.99-.09c0-.36 1.02-2.72 3.02-7.02 2.51-5.38 1.83-13.36.46-14.7-.18-.18-.27-.13-.35-.09-1.65.82-2.2 4.69-2.28 6.12l-1-.05c.03-.58.37-5.73 2.83-6.96.51-.25 1.05-.16 1.49.27 1.8 1.76 2.36 10.24-.25 15.84-2.68 5.75-2.92 6.6-2.94 6.68Z"/><path class="cls-13" d="M421.18 403.48c-.88 0-1.59-.71-1.59-1.59s.71-1.59 1.59-1.59 1.59.71 1.59 1.59-.71 1.59-1.59 1.59Zm0-1.78c-.1 0-.19.08-.19.19 0 .2.37.21.37 0 0-.1-.08-.19-.19-.19Zm3.54 1.63c-.88 0-1.59-.71-1.59-1.59s.71-1.59 1.59-1.59 1.59.71 1.59 1.59-.71 1.59-1.59 1.59Zm0-1.78c-.1 0-.19.08-.19.19 0 .21.38.21.38 0 0-.1-.08-.19-.19-.19Zm-3.4-1.63c-.88 0-1.59-.71-1.59-1.59s.71-1.59 1.59-1.59 1.59.71 1.59 1.59-.71 1.59-1.59 1.59Zm0-1.78c-.1 0-.19.08-.19.19 0 .21.37.21.37 0 0-.1-.08-.19-.19-.19Zm3.4 1.49c-.88 0-1.59-.71-1.59-1.59s.71-1.59 1.59-1.59 1.59.71 1.59 1.59-.71 1.59-1.59 1.59Zm0-1.77c-.1 0-.19.08-.19.19 0 .21.38.21.38 0 0-.1-.08-.19-.19-.19Zm-143.46-81.14c-.88 0-1.59-.71-1.59-1.59s.71-1.59 1.59-1.59 1.59.71 1.59 1.59-.71 1.59-1.59 1.59Zm0-1.78c-.1 0-.19.08-.19.19 0 .21.37.21.37 0 0-.1-.08-.19-.19-.19Zm3.54 1.62c-.88 0-1.59-.71-1.59-1.59s.71-1.59 1.59-1.59 1.59.71 1.59 1.59-.71 1.59-1.59 1.59Zm0-1.78c-.1 0-.19.08-.19.19 0 .2.37.21.37 0 0-.1-.08-.19-.19-.19Zm155.08-.9c-.88 0-1.59-.71-1.59-1.59s.71-1.59 1.59-1.59 1.59.71 1.59 1.59-.71 1.59-1.59 1.59Zm0-1.78c-.1 0-.19.08-.19.19 0 .21.38.21.38 0 0-.1-.08-.19-.19-.19Zm3.57 1.33c-.88 0-1.59-.71-1.59-1.59s.71-1.59 1.59-1.59 1.59.71 1.59 1.59-.71 1.59-1.59 1.59Zm0-1.78c-.1 0-.19.08-.19.19 0 .21.38.21.38 0 0-.1-.08-.19-.19-.19Zm-162.62 1.49c-.88 0-1.59-.71-1.59-1.59s.71-1.59 1.59-1.59 1.59.71 1.59 1.59-.71 1.59-1.59 1.59Zm0-1.77c-.1 0-.19.08-.19.19 0 .21.37.21.37 0 0-.1-.08-.19-.19-.19Zm3.51 1.49c-.88 0-1.59-.71-1.59-1.59s.71-1.59 1.59-1.59 1.59.71 1.59 1.59-.71 1.59-1.59 1.59Zm0-1.77c-.1 0-.19.08-.19.19 0 .21.37.2.37 0 0-.1-.08-.19-.19-.19Zm154.23-.9c-.88 0-1.59-.71-1.59-1.59s.71-1.59 1.59-1.59 1.59.71 1.59 1.59-.71 1.59-1.59 1.59Zm0-1.77c-.1 0-.19.08-.19.19 0 .21.38.21.37 0 0-.1-.08-.19-.19-.19Zm3.69 1.33c-.88 0-1.59-.71-1.59-1.59s.71-1.59 1.59-1.59 1.59.71 1.59 1.59-.71 1.59-1.59 1.59Zm0-1.78c-.1 0-.19.08-.19.19 0 .21.38.21.38 0 0-.1-.08-.19-.19-.19Z"/><path class="cls-6" d="M442.33 418.5c-.88 0-1.59-.71-1.59-1.59s.71-1.59 1.59-1.59 1.59.71 1.59 1.59-.71 1.59-1.59 1.59Zm0-1.78c-.1 0-.19.08-.19.19 0 .21.38.21.37 0 0-.1-.08-.19-.19-.19Zm-31.78-27.98c-.88 0-1.59-.71-1.59-1.59s.71-1.59 1.59-1.59 1.59.71 1.59 1.59-.71 1.59-1.59 1.59Zm0-1.78c-.1 0-.19.08-.19.19 0 .21.38.21.38 0 0-.1-.08-.19-.19-.19Zm39.12-9.01c-.88 0-1.59-.71-1.59-1.59s.71-1.59 1.59-1.59 1.59.71 1.59 1.59-.71 1.59-1.59 1.59Zm0-1.78c-.1 0-.19.08-.19.19 0 .21.38.2.38 0 0-.1-.08-.19-.19-.19Zm-45.86-1.61c-.88 0-1.59-.71-1.59-1.59s.71-1.59 1.59-1.59 1.59.71 1.59 1.59-.71 1.59-1.59 1.59Zm0-1.77c-.1 0-.19.08-.19.19 0 .21.37.21.37 0 0-.1-.08-.19-.19-.19Zm-63.55-20.57c-.88 0-1.59-.71-1.59-1.59s.71-1.59 1.59-1.59 1.59.71 1.59 1.59-.71 1.59-1.59 1.59Zm0-1.77c-.1 0-.19.08-.19.19 0 .21.37.21.38 0 0-.1-.08-.19-.19-.19Zm-70.05-4.57c-.88 0-1.59-.71-1.59-1.59s.71-1.59 1.59-1.59 1.59.71 1.59 1.59-.71 1.59-1.59 1.59Zm0-1.78c-.1 0-.19.08-.19.19 0 .21.37.21.37 0 0-.1-.08-.19-.19-.19Zm189.6-9.57c-.88 0-1.59-.71-1.59-1.59s.71-1.59 1.59-1.59 1.59.71 1.59 1.59-.71 1.59-1.59 1.59Zm0-1.78c-.1 0-.19.08-.19.19 0 .21.38.21.37 0 0-.1-.08-.19-.19-.19Zm-154.99-51.41c-.88 0-1.59-.71-1.59-1.59s.71-1.59 1.59-1.59 1.59.71 1.59 1.59-.71 1.59-1.59 1.59Zm0-1.78c-.1 0-.19.08-.19.19 0 .21.38.21.38 0 0-.1-.08-.19-.19-.19Zm154.63.36c-.88 0-1.59-.71-1.59-1.59s.71-1.59 1.59-1.59 1.59.71 1.59 1.59-.71 1.59-1.59 1.59Zm0-1.77c-.1 0-.19.08-.19.19 0 .21.37.21.37 0 0-.1-.08-.19-.19-.19Z"/><path class="cls-10" d="m161.83 397.64-5.03-3.27v-.02c.71-1.07 17.27-26.39 27.89-46.3l2.25-4.2c10.71-19.92 22.85-42.5 33.08-90.48l5.87 1.25c-10.41 48.82-22.76 71.79-33.66 92.06l-2.25 4.2c-10.74 20.14-27.45 45.68-28.15 46.76Z"/><path class="cls-22" d="M220.03 253.37s16.12 27.79 19.9 39.45"/><path class="cls-19" d="M239.35 293c-3.71-11.47-19.68-39.06-19.84-39.33l1.05-.61c.16.28 16.2 27.98 19.95 39.57l-1.15.37Z"/><path class="cls-10" d="m187.1 407.05-5.2-2.99.07-.12c2.03-3.51 12.94-22.43 29.07-50.95 17.16-30.35 24.84-68.3 24.92-68.68l5.89 1.16c-.08.39-7.86 39.11-25.58 70.47-16.13 28.54-27.07 47.49-29.09 51l-.06.1Z"/><path class="cls-20" d="M220.99 254.43s16.58 28.92 19 38.13l5.39 3.26 4.11-12.19-22.4-38.98-6.8 2.41.71 7.37Z"/><path class="cls-22" d="m187.36 407.81-31.7-12.47.4-.62c.17-.26 17.26-26.63 28.1-46.95.74-1.39 1.49-2.79 2.25-4.2 10.69-19.88 22.8-42.42 33.02-90.32l.33-1.54.79 1.36c.16.28 16.2 27.98 19.95 39.57l.05.15-.03.15c-.06.32-6.05 32.02-23.74 63.31-17.64 31.2-29.05 50.92-29.16 51.12l-.26.45Zm-29.88-13.05 29.36 11.55c1.8-3.11 12.73-22.06 28.9-50.66 16.96-30 23.11-60.39 23.57-62.78-3.31-10.07-15.75-32.12-19.01-37.82-10.18 47.02-22.2 69.36-32.81 89.1-.76 1.41-1.51 2.81-2.25 4.2-9.93 18.63-25.1 42.3-27.75 46.42Z"/><path class="cls-7" d="M263.41 424.88c-.88 0-1.59-.71-1.59-1.59s.71-1.59 1.59-1.59 1.59.71 1.59 1.59-.71 1.59-1.59 1.59Zm0-1.78c-.1 0-.19.08-.19.19 0 .21.37.21.37 0 0-.1-.08-.19-.19-.19Zm261.82-1.7c-.88 0-1.59-.71-1.59-1.59s.71-1.59 1.59-1.59 1.59.71 1.59 1.59-.71 1.59-1.59 1.59Zm0-1.77c-.1 0-.19.08-.19.19 0 .21.38.21.38 0 0-.1-.08-.19-.19-.19Zm-262.1 1.72c-.88 0-1.59-.71-1.59-1.59s.71-1.59 1.59-1.59 1.59.71 1.59 1.59-.71 1.59-1.59 1.59Zm0-1.78c-.1 0-.19.08-.19.19 0 .21.37.21.37 0 0-.1-.08-.19-.19-.19Zm3.26 1.62c-.88 0-1.59-.71-1.59-1.59s.71-1.59 1.59-1.59 1.59.71 1.59 1.59-.71 1.59-1.59 1.59Zm0-1.77c-.1 0-.19.08-.19.19 0 .21.37.21.37 0 0-.1-.08-.19-.19-.19Zm-6.66 1.63c-.88 0-1.59-.71-1.59-1.59s.71-1.59 1.59-1.59 1.59.71 1.59 1.59-.71 1.59-1.59 1.59Zm0-1.78c-.1 0-.19.08-.19.19 0 .21.37.21.37 0 0-.1-.08-.19-.19-.19Zm3.54-1.34c-.88 0-1.59-.71-1.59-1.59s.71-1.59 1.59-1.59 1.59.71 1.59 1.59-.71 1.59-1.59 1.59Zm0-1.78c-.1 0-.19.08-.19.19 0 .21.37.21.37 0 0-.1-.08-.19-.19-.19Zm263.49-4.96c-.88 0-1.59-.71-1.59-1.59s.71-1.59 1.59-1.59 1.59.71 1.59 1.59-.71 1.59-1.59 1.59Zm0-1.77c-.11 0-.19.08-.19.19 0 .21.37.21.37 0 0-.1-.08-.19-.19-.19Zm3.97-.71c-.88 0-1.59-.71-1.59-1.59s.71-1.59 1.59-1.59 1.59.71 1.59 1.59-.71 1.59-1.59 1.59Zm0-1.78c-.1 0-.19.08-.19.19 0 .21.38.2.37 0 0-.1-.08-.19-.19-.19ZM527.5 408c-.88 0-1.59-.71-1.59-1.59s.71-1.59 1.59-1.59 1.59.71 1.59 1.59-.71 1.59-1.59 1.59Zm0-1.77c-.1 0-.19.08-.19.19 0 .21.37.2.37 0 0-.1-.08-.19-.19-.19Zm-3.29 1c-.88 0-1.59-.71-1.59-1.59s.71-1.59 1.59-1.59 1.59.71 1.59 1.59-.71 1.59-1.59 1.59Zm0-1.77c-.1 0-.19.08-.19.19 0 .21.37.2.37 0 0-.1-.08-.19-.19-.19Zm-261.08 1.28c-.88 0-1.59-.71-1.59-1.59s.71-1.59 1.59-1.59 1.59.71 1.59 1.59-.71 1.59-1.59 1.59Zm0-1.77c-.1 0-.19.08-.19.19 0 .21.38.21.37 0 0-.1-.08-.19-.19-.19Zm265.01-.49c-.88 0-1.59-.71-1.59-1.59s.71-1.59 1.59-1.59 1.59.71 1.59 1.59-.71 1.59-1.59 1.59Zm0-1.78c-.1 0-.19.08-.19.19 0 .21.37.21.37 0 0-.1-.08-.19-.19-.19Zm-265.44-5.31c-.88 0-1.59-.71-1.59-1.59s.71-1.59 1.59-1.59 1.59.71 1.59 1.59-.71 1.59-1.59 1.59Zm0-1.78c-.1 0-.19.08-.19.19 0 .21.37.21.37 0 0-.1-.08-.19-.19-.19Zm-86.26-.28c-.88 0-1.59-.71-1.59-1.59s.71-1.59 1.59-1.59 1.59.71 1.59 1.59-.71 1.59-1.59 1.59Zm0-1.77c-.1 0-.19.08-.19.19 0 .21.37.21.37 0 0-.1-.08-.19-.19-.19Zm354.1 1.56c-.88 0-1.59-.71-1.59-1.59s.71-1.59 1.59-1.59 1.59.71 1.59 1.59-.71 1.59-1.59 1.59Zm0-1.77c-.11 0-.19.08-.19.19 0 .21.37.21.37 0 0-.1-.08-.19-.19-.19Zm-268.13.36c-.88 0-1.59-.71-1.59-1.59s.71-1.59 1.59-1.59 1.59.71 1.59 1.59-.71 1.59-1.59 1.59Zm0-1.77c-.1 0-.19.08-.19.19 0 .21.37.21.37 0 0-.1-.08-.19-.19-.19Zm3.4 1.63c-.88 0-1.59-.71-1.59-1.59s.71-1.59 1.59-1.59 1.59.71 1.59 1.59-.71 1.59-1.59 1.59Zm0-1.78c-.1 0-.19.08-.19.19 0 .21.37.21.37 0 0-.1-.08-.19-.19-.19Zm-6.94 1.63c-.88 0-1.59-.71-1.59-1.59s.71-1.59 1.59-1.59 1.59.71 1.59 1.59-.71 1.59-1.59 1.59Zm0-1.78c-.1 0-.19.08-.19.19 0 .21.37.21.37 0 0-.1-.08-.19-.19-.19Zm3.54-1.47c-.88 0-1.59-.71-1.59-1.59s.71-1.59 1.59-1.59 1.59.71 1.59 1.59-.71 1.59-1.59 1.59Zm0-1.78c-.1 0-.19.08-.19.19 0 .21.37.21.37 0 0-.1-.08-.19-.19-.19Zm-80.59-2.35c-.88 0-1.59-.71-1.59-1.59s.71-1.59 1.59-1.59 1.59.71 1.59 1.59-.71 1.59-1.59 1.59Zm0-1.78c-.1 0-.19.08-.19.19 0 .21.37.21.37 0 0-.1-.08-.19-.19-.19Zm351.41 1.37c-.88 0-1.59-.71-1.59-1.59s.71-1.59 1.59-1.59 1.59.71 1.59 1.59-.71 1.59-1.59 1.59Zm0-1.77c-.1 0-.19.08-.19.19 0 .21.38.21.38 0 0-.1-.08-.19-.19-.19Zm-346.45 1.21c-.88 0-1.59-.71-1.59-1.59s.71-1.59 1.59-1.59 1.59.71 1.59 1.59-.71 1.59-1.59 1.59Zm0-1.77c-.1 0-.19.08-.19.19 0 .21.37.21.37 0 0-.1-.08-.19-.19-.19Zm350.8.58c-.88 0-1.59-.71-1.59-1.59s.71-1.59 1.59-1.59 1.59.71 1.59 1.59-.71 1.59-1.59 1.59Zm0-1.78c-.1 0-.19.08-.19.19 0 .21.37.21.37 0 0-.1-.08-.19-.19-.19Zm-353.7.92c-.88 0-1.59-.71-1.59-1.59s.71-1.59 1.59-1.59 1.59.71 1.59 1.59-.71 1.59-1.59 1.59Zm0-1.77c-.1 0-.19.08-.19.19 0 .21.38.21.38 0 0-.1-.08-.19-.19-.19Zm350.63 1.04c-.88 0-1.59-.71-1.59-1.59s.71-1.59 1.59-1.59 1.59.71 1.59 1.59-.71 1.59-1.59 1.59Zm0-1.77c-.1 0-.19.08-.19.19 0 .21.37.21.37 0 0-.1-.08-.19-.19-.19Zm-353.54.59c-.88 0-1.59-.71-1.59-1.59s.71-1.59 1.59-1.59 1.59.71 1.59 1.59-.71 1.59-1.59 1.59Zm0-1.78c-.1 0-.19.08-.19.19 0 .21.37.21.37 0 0-.1-.08-.19-.19-.19Zm350.2 1.19c-.88 0-1.59-.71-1.59-1.59s.71-1.59 1.59-1.59 1.59.71 1.59 1.59-.71 1.59-1.59 1.59Zm0-1.77c-.1 0-.19.08-.19.19 0 .21.38.2.38 0 0-.1-.08-.19-.19-.19ZM185.5 380.2c-.88 0-1.59-.71-1.59-1.59s.71-1.59 1.59-1.59 1.59.71 1.59 1.59-.71 1.59-1.59 1.59Zm0-1.77c-.1 0-.19.08-.19.19 0 .21.37.2.37 0 0-.1-.08-.19-.19-.19Zm76.78 1.11c-.88 0-1.59-.71-1.59-1.59s.71-1.59 1.59-1.59 1.59.71 1.59 1.59-.71 1.59-1.59 1.59Zm0-1.77c-.1 0-.19.08-.19.19 0 .21.37.21.37 0 0-.1-.08-.19-.19-.19Zm273.42 1.37c-.88 0-1.59-.71-1.59-1.59s.71-1.59 1.59-1.59 1.59.71 1.59 1.59-.71 1.59-1.59 1.59Zm0-1.77c-.1 0-.19.08-.19.19 0 .21.37.21.37 0 0-.1-.08-.19-.19-.19Zm-344.58-7.3c-.88 0-1.59-.71-1.59-1.59s.71-1.59 1.59-1.59 1.59.71 1.59 1.59-.71 1.59-1.59 1.59Zm0-1.78c-.1 0-.19.08-.19.19 0 .21.38.21.38 0 0-.1-.08-.19-.19-.19Zm71.56.63c-.88 0-1.59-.71-1.59-1.59s.71-1.59 1.59-1.59 1.59.71 1.59 1.59-.71 1.59-1.59 1.59Zm0-1.77c-.1 0-.19.08-.19.19 0 .21.37.2.37 0 0-.1-.08-.19-.19-.19Zm278.23 1.63c-.88 0-1.59-.71-1.59-1.59s.71-1.59 1.59-1.59 1.59.71 1.59 1.59-.71 1.59-1.59 1.59Zm0-1.78c-.1 0-.19.08-.19.19 0 .21.37.21.37 0 0-.1-.08-.19-.19-.19Zm-345.14-5.53c-.88 0-1.59-.71-1.59-1.59s.71-1.59 1.59-1.59 1.59.71 1.59 1.59-.71 1.59-1.59 1.59Zm0-1.77c-.1 0-.19.08-.19.19 0 .21.37.21.37 0 0-.1-.08-.19-.19-.19Zm4.89.44c-.88 0-1.59-.71-1.59-1.59s.71-1.59 1.59-1.59 1.59.71 1.59 1.59-.71 1.59-1.59 1.59Zm0-1.78c-.1 0-.19.08-.19.19 0 .21.38.21.38 0 0-.1-.08-.19-.19-.19Zm345.92 1.26c-.88 0-1.59-.71-1.59-1.59s.71-1.59 1.59-1.59 1.59.71 1.59 1.59-.71 1.59-1.59 1.59Zm0-1.77c-.1 0-.19.08-.19.19 0 .21.38.21.37 0 0-.1-.08-.19-.19-.19Zm4.59 1.1c-.88 0-1.59-.71-1.59-1.59s.71-1.59 1.59-1.59 1.59.71 1.59 1.59-.71 1.59-1.59 1.59Zm0-1.78c-.1 0-.19.08-.19.19 0 .21.38.21.38 0 0-.1-.08-.19-.19-.19Zm-353.49 1.27c-.88 0-1.59-.71-1.59-1.59s.71-1.59 1.59-1.59 1.59.71 1.59 1.59-.71 1.59-1.59 1.59Zm0-1.78c-.1 0-.19.08-.19.19 0 .21.37.21.37 0 0-.1-.08-.19-.19-.19Zm351.06.13c-.88 0-1.59-.71-1.59-1.59s.71-1.59 1.59-1.59 1.59.71 1.59 1.59-.71 1.59-1.59 1.59Zm0-1.77c-.1 0-.19.08-.19.19 0 .21.37.2.37 0 0-.1-.08-.19-.19-.19Zm-353.94 1.66c-.88 0-1.59-.71-1.59-1.59s.71-1.59 1.59-1.59 1.59.71 1.59 1.59-.71 1.59-1.59 1.59Zm0-1.77c-.1 0-.19.08-.19.19 0 .21.38.21.38 0 0-.1-.08-.19-.19-.19Zm4.65.64c-.88 0-1.59-.71-1.59-1.59s.71-1.59 1.59-1.59 1.59.71 1.59 1.59-.71 1.59-1.59 1.59Zm0-1.77c-.1 0-.19.08-.19.19 0 .21.37.21.37 0 0-.1-.08-.19-.19-.19Zm346.61.92c-.88 0-1.59-.71-1.59-1.59s.71-1.59 1.59-1.59 1.59.71 1.59 1.59-.71 1.59-1.59 1.59Zm0-1.78c-.1 0-.19.08-.19.19 0 .2.37.21.37 0 0-.1-.08-.19-.19-.19Zm4.82 1.49c-.88 0-1.59-.71-1.59-1.59s.71-1.59 1.59-1.59 1.59.71 1.59 1.59-.71 1.59-1.59 1.59Zm0-1.78c-.1 0-.19.08-.19.19 0 .21.37.21.38 0 0-.1-.08-.19-.19-.19Zm-345.37-7.89c-.88 0-1.59-.71-1.59-1.59s.71-1.59 1.59-1.59 1.59.71 1.59 1.59-.71 1.59-1.59 1.59Zm0-1.78c-.1 0-.19.08-.19.19 0 .21.37.2.37 0 0-.1-.08-.19-.19-.19Zm4.71-7.78c-.88 0-1.59-.71-1.59-1.59s.71-1.59 1.59-1.59 1.59.71 1.59 1.59-.71 1.59-1.59 1.59Zm0-1.78c-.1 0-.19.08-.19.19 0 .21.37.21.37 0 0-.1-.08-.19-.19-.19Zm4.42.02c-.88 0-1.59-.71-1.59-1.59s.71-1.59 1.59-1.59 1.59.71 1.59 1.59-.71 1.59-1.59 1.59Zm0-1.77c-.1 0-.19.08-.19.19 0 .21.37.21.37 0 0-.1-.08-.19-.19-.19Zm-3.18.41c-.88 0-1.59-.71-1.59-1.59s.71-1.59 1.59-1.59 1.59.71 1.59 1.59-.71 1.59-1.59 1.59Zm0-1.78c-.1 0-.19.08-.19.19 0 .21.37.21.37 0 0-.1-.08-.19-.19-.19Zm-3.01.13c-.88 0-1.59-.71-1.59-1.59s.71-1.59 1.59-1.59 1.59.71 1.59 1.59-.71 1.59-1.59 1.59Zm0-1.78c-.1 0-.19.08-.19.19 0 .21.37.21.37 0 0-.1-.08-.19-.19-.19Zm4.75.3c-.88 0-1.59-.71-1.59-1.59s.71-1.59 1.59-1.59 1.59.71 1.59 1.59-.71 1.59-1.59 1.59Zm0-1.77c-.1 0-.19.08-.19.19 0 .21.37.21.37 0 0-.1-.08-.19-.19-.19Zm3.61-7.74c-.88 0-1.59-.71-1.59-1.59s.71-1.59 1.59-1.59 1.59.71 1.59 1.59-.71 1.59-1.59 1.59Zm0-1.78c-.1 0-.19.08-.19.19 0 .21.37.21.37 0 0-.1-.08-.19-.19-.19Zm3.5-7.79c-.88 0-1.59-.71-1.59-1.59s.71-1.59 1.59-1.59 1.59.71 1.59 1.59-.71 1.59-1.59 1.59Zm0-1.77c-.1 0-.19.08-.19.19 0 .21.37.21.37 0 0-.1-.08-.19-.19-.19Zm4.54-.78c-.88 0-1.59-.71-1.59-1.59s.71-1.59 1.59-1.59 1.59.71 1.59 1.59-.71 1.59-1.59 1.59Zm0-1.77c-.1 0-.19.08-.19.19 0 .21.37.21.37 0 0-.1-.08-.19-.19-.19Zm-3.57 1.07c-.88 0-1.59-.71-1.59-1.59s.71-1.59 1.59-1.59 1.59.71 1.59 1.59-.71 1.59-1.59 1.59Zm0-1.77c-.1 0-.19.08-.19.19 0 .2.38.21.38 0 0-.1-.08-.19-.19-.19Zm-3.05.02c-.88 0-1.59-.71-1.59-1.59s.71-1.59 1.59-1.59 1.59.71 1.59 1.59-.71 1.59-1.59 1.59Zm0-1.78c-.1 0-.19.08-.19.19 0 .21.37.21.37 0 0-.1-.08-.19-.19-.19Zm4.47.27c-.88 0-1.59-.71-1.59-1.59s.71-1.59 1.59-1.59 1.59.71 1.59 1.59-.71 1.59-1.59 1.59Zm0-1.78c-.1 0-.19.08-.19.19 0 .2.38.21.38 0 0-.1-.08-.19-.19-.19Zm3.69-9.99c-.88 0-1.59-.71-1.59-1.59s.71-1.59 1.59-1.59 1.59.71 1.59 1.59-.71 1.59-1.59 1.59Zm0-1.77c-.1 0-.19.08-.19.19 0 .21.37.21.37 0 0-.1-.08-.19-.19-.19Z"/><path class="cls-14" d="M173.96 246.46c-2.4 0-3.9-.08-4.14-.09l.33-5.99c.23 0 22.85 1.13 38.96-6.25l2.5 5.46c-13.31 6.1-30.01 6.88-37.65 6.88Z"/><path class="cls-10" d="M194.94 265.08c-.88 0-1.59-.71-1.59-1.59s.71-1.59 1.59-1.59 1.59.71 1.59 1.59-.71 1.59-1.59 1.59Zm0-1.77c-.1 0-.19.08-.19.19 0 .21.37.21.37 0 0-.1-.08-.19-.19-.19Zm-3.86-1.06c-.88 0-1.59-.71-1.59-1.59s.71-1.59 1.59-1.59 1.59.71 1.59 1.59-.71 1.59-1.59 1.59Zm0-1.77c-.1 0-.19.08-.19.19 0 .21.37.21.37 0 0-.1-.08-.19-.19-.19Zm3.29 1.11c-.88 0-1.59-.71-1.59-1.59s.71-1.59 1.59-1.59 1.59.71 1.59 1.59-.71 1.59-1.59 1.59Zm0-1.77c-.1 0-.19.08-.19.19 0 .21.37.2.37 0 0-.1-.08-.19-.19-.19Zm3.26 1.21c-.88 0-1.59-.71-1.59-1.59s.71-1.59 1.59-1.59 1.59.71 1.59 1.59-.71 1.59-1.59 1.59Zm0-1.77c-.1 0-.19.08-.19.19 0 .21.37.21.37 0 0-.1-.08-.19-.19-.19Zm-3.83-.9c-.88 0-1.59-.71-1.59-1.59s.71-1.59 1.59-1.59 1.59.71 1.59 1.59-.71 1.59-1.59 1.59Zm0-1.77c-.1 0-.19.08-.19.19 0 .21.37.2.37 0 0-.11-.08-.19-.19-.19Z"/></svg>