<svg xmlns="http://www.w3.org/2000/svg" viewBox="0 0 750 428">
  <defs>
    <clipPath id="a">
      <path fill="none" stroke-width="0" d="M.06 0h749.88v428H.06z"/>
    </clipPath>
    <clipPath id="b">
      <path fill="none" stroke-width="0" d="M.06 0h749.88v428H.06z"/>
    </clipPath>
    <clipPath id="c">
      <path fill="none" stroke-width="0" d="M.06 0h749.88v428H.06z"/>
    </clipPath>
    <clipPath id="d">
      <path fill="none" stroke-width="0" d="M.06 0h749.88v428H.06z"/>
    </clipPath>
    <clipPath id="e">
      <path fill="none" stroke-width="0" d="M.06 0h749.88v428H.06z"/>
    </clipPath>
    <clipPath id="f">
      <path fill="none" stroke-width="0" d="M.06 0h749.88v428H.06z"/>
    </clipPath>
    <clipPath id="g">
      <path fill="none" stroke-width="0" d="M.06 0h749.88v428H.06z"/>
    </clipPath>
    <clipPath id="h">
      <path fill="none" stroke-width="0" d="M.06 0h749.88v428H.06z"/>
    </clipPath>
    <clipPath id="i">
      <path fill="none" stroke-width="0" d="M.06 0h749.88v428H.06z"/>
    </clipPath>
    <clipPath id="j">
      <path fill="none" stroke-width="0" d="M.06 0h749.88v428H.06z"/>
    </clipPath>
  </defs>
  <g clip-path="url(#a)">
    <path fill="#36343a" d="M-7.24-9.41v444.04h767V-9.41h-767z"/>
    <path fill="none" stroke="#000" d="M-7.24-9.41v444.04h767V-9.41h-767z"/>
    <path d="m408.96 450.71-51.43-79.1 59.42-18.71-98.35-105.83-.37-41.57 89.34-42.81-7.94-37.51 49.43-.1 116.75-40.04-15.12-107.72 212.6 2.84-.83 459.21-353.5 11.34z"/>
    <path fill="none" stroke="#000" d="m408.96 450.71-51.43-79.1 59.42-18.71-98.35-105.83-.37-41.57 89.34-42.81-7.94-37.51 49.43-.1 116.75-40.04-15.12-107.72 212.6 2.84-.83 459.21-353.5 11.34z"/>
    <path fill="#cfbe85" d="M396.42 114.79s9.68 18.17 38.33 17.02c28.65-1.15 36.01 1.11 43.23 25.78 7.22 24.66 8.07 30.33 8.07 30.33l26.65 11.34s23.53 8.5 41.95-8.79c18.43-17.29 41.95-53.61 41.67-108.73-.28-55.12-12.19-89.98-12.19-89.98L471.9-12.21l4.25 106.78-39.72 17.95-40.02 2.27Z"/>
    <path fill="none" stroke="#b38f43" d="M396.42 114.79s9.68 18.17 38.33 17.02c28.65-1.15 36.01 1.11 43.23 25.78 7.22 24.66 8.07 30.33 8.07 30.33l26.65 11.34s23.53 8.5 41.95-8.79c18.43-17.29 41.95-53.61 41.67-108.73-.28-55.12-12.19-89.98-12.19-89.98L471.9-12.21l4.25 106.78-39.72 17.95-40.02 2.27Z"/>
  </g>
  <path fill="#7a6d55" d="M515.54 202.89s21.02 12.16 55.58 11.11c0 0-7.96 7.12-34.04 2 0 0 10.27 10.93 18.99 13.69l-4.09 4.88s-10.36-1.15-16.03-6.96l-7.94 28.08-1.76-41.67-6.29-4.65s2.05 42.48-6.63 77.21l-3.28 1.65s4.76-56.45 3.28-76.76h-4.74l6.95-8.56Z"/>
  <path fill="none" stroke="#b38f43" d="M557.92 73.68s1.27 64.63-25.38 90.99m40.25-1.99s-10.63 27.77-52.72 37.42"/>
  <path fill="#7a6d55" d="M440.18 177.16s25.29 2.62 43.04 13.17L467.91 216s.32-10.41-4.54-22.22h-1.75s.77 8 .39 25.16l-3.5 2.42s-1.82-33.38-18.34-44.21Z"/>
  <g clip-path="url(#b)">
    <path fill="#725450" d="M250.57 58.21s3.31 8.74 12.99 17.24c9.68 8.5 14.29 20.91 24.57 25.87 10.28 4.96 6.85 5.32 13.82 7.09 6.97 1.77 6.5 5.32 14.53 8.5 8.03 3.19 9.94 7.09 18.2 9.21 8.26 2.13 14.91 9.21 26.09 11.69 11.18 2.48 22.25 12.97 20.87 18.43l42.15 13.11s-6.17-31.54-24.16-50.67l-54.21-16.64-35.09-12.13-28.94-34.64-3.54-29.78 36.14-32.58-57.05-2.14-13.11 38.99 6.73 28.45Z"/>
    <path fill="none" stroke="#583523" d="M250.57 58.21s3.31 8.74 12.99 17.24c9.68 8.5 14.29 20.91 24.57 25.87 10.28 4.96 6.85 5.32 13.82 7.09 6.97 1.77 6.5 5.32 14.53 8.5 8.03 3.19 9.94 7.09 18.2 9.21 8.26 2.13 14.91 9.21 26.09 11.69 11.18 2.48 22.25 12.97 20.87 18.43l42.15 13.11s-6.17-31.54-24.16-50.67l-54.21-16.64-35.09-12.13-28.94-34.64-3.54-29.78 36.14-32.58-57.05-2.14-13.11 38.99 6.73 28.45Z"/>
    <path fill="#b38f43" d="M271.47 23.51s1.13 11.34.57 24.09c-.57 12.76 14.46 32.35 26.36 38.85 11.9 6.5 17.6 11.59 27.52 13.59 9.92 2 13.56 3.4 23.79 8.5 10.23 5.1 25.49 11.62 40.54 12.76s28.06.28 36.57-1.13c8.5-1.42 18.71-1.98 30.61-9.64 11.91-7.65 27.78-9.07 36.28-9.35l.02-61.51L453.75-5.4l-145.7 1.42S298.98-2 290.76 7.93c-8.22 9.92-12.76 13.04-19.28 15.59Z"/>
    <path fill="none" stroke="#725450" stroke-width="2" d="M271.47 23.51s1.13 11.34.57 24.09c-.57 12.76 14.46 32.35 26.36 38.85 11.9 6.5 17.6 11.59 27.52 13.59 9.92 2 13.56 3.4 23.79 8.5 10.23 5.1 25.49 11.62 40.54 12.76s28.06.28 36.57-1.13c8.5-1.42 18.71-1.98 30.61-9.64 11.91-7.65 27.78-9.07 36.28-9.35l.02-61.51L453.75-5.4l-145.7 1.42S298.98-2 290.76 7.93c-8.22 9.92-12.76 13.04-19.28 15.59Z"/>
    <path fill="#725450" d="M448.29-3.2S459.3 17 472.4 26.56c0 0 1.17 11.97 13.81 25.27 0 0-.94 13.19 3.54 22.27 0 0-3.59 12.21.45 30.22 0 0-3.88 17.94 4.04 30.33 0 0-7.55 10.26-3.78 30.46 0 0-4.96 3.93-8.5 23.4 0 0-6.33 6.43-10.61 22.31 0 0-11.36 1.06-20.57 17.72 0 0-27.84 15.82-30.83 55.82l-2.99 23.56 13.67 16.44 30.07 1.65s7.44-21.04 8.5-33.68c0 0 6.38-7.38 7.44-18.97 0 0 28.39-17.54 36.69-66.78 0 0 13.27-6.75 16.1-21.61 2.84-14.86 5.08-20.55 4.25-27.64 0 0 9.1-15.95 3.42-37.91 0 0 4.02-14.59.47-25.4 0 0 1.77-11.69-1.42-18.83 0 0 1.06-14.23-7.09-31.6 0 0-1.65-25.16-26.58-41.81l-7.09-8.5-47.13 3.54Z"/>
    <path fill="none" stroke="#583523" stroke-width="2" d="M448.29-3.2S459.3 17 472.4 26.56c0 0 1.17 11.97 13.81 25.27 0 0-.94 13.19 3.54 22.27 0 0-3.59 12.21.45 30.22 0 0-3.88 17.94 4.04 30.33 0 0-7.55 10.26-3.78 30.46 0 0-4.96 3.93-8.5 23.4 0 0-6.33 6.43-10.61 22.31 0 0-11.36 1.06-20.57 17.72 0 0-27.84 15.82-30.83 55.82l-2.99 23.56 13.67 16.44 30.07 1.65s7.44-21.04 8.5-33.68c0 0 6.38-7.38 7.44-18.97 0 0 28.39-17.54 36.69-66.78 0 0 13.27-6.75 16.1-21.61 2.84-14.86 5.08-20.55 4.25-27.64 0 0 9.1-15.95 3.42-37.91 0 0 4.02-14.59.47-25.4 0 0 1.77-11.69-1.42-18.83 0 0 1.06-14.23-7.09-31.6 0 0-1.65-25.16-26.58-41.81l-7.09-8.5-47.13 3.54Z"/>
    <path fill="#b38f43" d="M99.03-4.71c1.34 8.16 9.19 58.51 3.35 87.1-4.67 22.83-12.89 45.3-19.5 63.36-2.49 6.8-4.84 13.22-6.75 18.96-6.64 19.93-10.31 40.46 23.38 53.32 12.09 4.62 25.61 8.72 39.92 13.06 25.36 7.7 54.1 16.42 84.88 30.9 18.15 8.54 35.27 20.98 51.83 33 28 20.34 54.44 39.54 84.08 39.89 49.11.58 75.42-10.62 82.31-14.07 2.77-1.38 4.58-4.68 4.96-9.04.52-5.89-1.62-11.93-5.23-14.91-4.21 1.05-8.43 2.1-12.65 3.16l-2.01.5.86-1.89c.21-.47 5.09-11.46-3.51-16.14-5.86.74-11.71 1.49-17.57 2.23l-1.61.2.54-1.53c.03-.09 3.04-8.81-.71-12.94-1.38-.33-7.56-1.76-13.81-2.75l-7.18-1.13v-1.97s2.05-.58 1.86-5.71c-1.76-.13-5.7-.5-8.42-1.41-3.85-1.29-14.78-5.24-22.22-8.55-7.38-3.29-21.64-4.44-21.78-4.45l-.44-.03-.27-.35c-.23-.29-22.93-29.24-43.07-53.54-5.57-6.72-13.44-14.75-21.77-23.25-22.35-22.8-50.17-51.18-57.23-77.76-9.6-36.14-1.49-79.58 7.3-98.99-39.85 1.57-79.69 3.15-119.54 4.72Z"/>
    <path fill="none" stroke="#725450" stroke-width="2" d="M99.03-4.71c1.34 8.16 9.19 58.51 3.35 87.1-4.67 22.83-12.89 45.3-19.5 63.36-2.49 6.8-4.84 13.22-6.75 18.96-6.64 19.93-10.31 40.46 23.38 53.32 12.09 4.62 25.61 8.72 39.92 13.06 25.36 7.7 54.1 16.42 84.88 30.9 18.15 8.54 35.27 20.98 51.83 33 28 20.34 54.44 39.54 84.08 39.89 49.11.58 75.42-10.62 82.31-14.07 2.77-1.38 4.58-4.68 4.96-9.04.52-5.89-1.62-11.93-5.23-14.91-4.21 1.05-8.43 2.1-12.65 3.16l-2.01.5.86-1.89c.21-.47 5.09-11.46-3.51-16.14-5.86.74-11.71 1.49-17.57 2.23l-1.61.2.54-1.53c.03-.09 3.04-8.81-.71-12.94-1.38-.33-7.56-1.76-13.81-2.75l-7.18-1.13v-1.97s2.05-.58 1.86-5.71c-1.76-.13-5.7-.5-8.42-1.41-3.85-1.29-14.78-5.24-22.22-8.55-7.38-3.29-21.64-4.44-21.78-4.45l-.44-.03-.27-.35c-.23-.29-22.93-29.24-43.07-53.54-5.57-6.72-13.44-14.75-21.77-23.25-22.35-22.8-50.17-51.18-57.23-77.76-9.6-36.14-1.49-79.58 7.3-98.99-39.85 1.57-79.69 3.15-119.54 4.72Z"/>
  </g>
  <path fill="#725450" d="M299.47 167.58s-7.8 7.8-3.9 15.95c3.9 8.15-1.77 13.12-7.44 16.65-5.67 3.54-7.61 12.15-12.4 15.82s-12.76 8.12-25.16 6.61c-12.4-1.51-33.66-.12-38.98 14.78-5.31 14.9.35 23.59 8.86 26.22 8.5 2.63 16.3-2.24 24.09-3.69 7.8-1.46 18.09-1.46 33.43-1.46s25.81-8.25 33.21-20c7.41-11.76 19.81-20.67 37.53-14.17 17.72 6.5 55.96 14.88 55.96 14.88v-46.4l-47.18-24.09-44.92-1.43-13.11.35Z"/>
  <path fill="none" stroke="#583523" d="M299.47 167.58s-7.8 7.8-3.9 15.95c3.9 8.15-1.77 13.12-7.44 16.65-5.67 3.54-7.61 12.15-12.4 15.82s-12.76 8.12-25.16 6.61c-12.4-1.51-33.66-.12-38.98 14.78-5.31 14.9.35 23.59 8.86 26.22 8.5 2.63 16.3-2.24 24.09-3.69 7.8-1.46 18.09-1.46 33.43-1.46s25.81-8.25 33.21-20c7.41-11.76 19.81-20.67 37.53-14.17 17.72 6.5 55.96 14.88 55.96 14.88v-46.4l-47.18-24.09-44.92-1.43-13.11.35Z"/>
  <path fill="#bd9a46" d="M424.69 258.25s-23.72-.03-30.47-10.52c0 0-16.44-4.22-28.06-8.2-11.62-3.99-20.86-5.97-26.65-9.37-5.79-3.4-5.79-6.52-5.79-6.52s8.68-1.13 19.68 0c10.99 1.13 37.98 5.1 37.98 5.1s-4.09-9.07-12.82-18.42c-8.73-9.35-22.92-16.44-35.66-18.71-12.73-2.27-32.57-1.42-32.57-1.42s-7.42 1.98-16.47 0c-9.05-1.98-8.53-8.79-7.37-11.05 1.16-2.27 0-.23 0-.23l7.65-.32s13.16-1.02 26.36-1.02 35.43 1.29 50.46 8.37c15.02 7.09 17.61 10.86 19.56 9.55 1.95-1.31-2.83-5.3-10.49-9.26-7.65-3.97-24.66-10.77-34.87-11.62-10.2-.85-19.58-.28-28.63.57s-20.93 2.27-20.39-9.64c0 0 26.34-4.27 38.81-4.82 0 0-.07-5.67 9.03-7.65s20.16-6.66 34.05-.49c0 0 5.36-3.58 17.01-3.58s14.79 3.5 21.57 10.02c6.78 6.52 26.9 20.69 32.43 32.03 5.53 11.34 7.88 26.66 7.88 26.66s-4.03 3.56-6.99 9.46c-17.62 11.53-25.27 31.09-25.27 31.09Z"/>
  <path fill="none" stroke="#725450" stroke-width="2" d="M424.69 258.25s-23.72-.03-30.47-10.52c0 0-16.44-4.22-28.06-8.2-11.62-3.99-20.86-5.97-26.65-9.37-5.79-3.4-5.79-6.52-5.79-6.52s8.68-1.13 19.68 0c10.99 1.13 37.98 5.1 37.98 5.1s-4.09-9.07-12.82-18.42c-8.73-9.35-22.92-16.44-35.66-18.71-12.73-2.27-32.57-1.42-32.57-1.42s-7.42 1.98-16.47 0c-9.05-1.98-8.53-8.79-7.37-11.05 1.16-2.27 0-.23 0-.23l7.65-.32s13.16-1.02 26.36-1.02 35.43 1.29 50.46 8.37c15.02 7.09 17.61 10.86 19.56 9.55 1.95-1.31-2.83-5.3-10.49-9.26-7.65-3.97-24.66-10.77-34.87-11.62-10.2-.85-19.58-.28-28.63.57s-20.93 2.27-20.39-9.64c0 0 26.34-4.27 38.81-4.82 0 0-.07-5.67 9.03-7.65s20.16-6.66 34.05-.49c0 0 5.36-3.58 17.01-3.58s14.79 3.5 21.57 10.02c6.78 6.52 26.9 20.69 32.43 32.03 5.53 11.34 7.88 26.66 7.88 26.66s-4.03 3.56-6.99 9.46c-17.62 11.53-25.27 31.09-25.27 31.09Zm-46.32 41.14s16.54 7.43 50.08 0m-71.31-23.85s8.88 10.42 50.4 7.92m-63.07-24.82s2.64 6.36 40.3 7.09m-51.07-21.75s31.08 42.04 44.04 59.71"/>
  <g clip-path="url(#c)">
    <path fill="none" stroke="#725450" d="M429.65 298.91s-4.77 1.92-1.1 4.29 8.16 2.14 18.67 0m-28.06-20.88s-2.55 1.7-1.42 3.68c1.13 1.98 2.53 3.36 12.76.85m-37.42-19.84s-1.2 2.18 4.54 4.25c5.74 2.08 7.94 2.08 7.94 2.08s1.28-.38.71-3.03m-29.91-14.49s-.71 2.69 3.26 4.25c3.97 1.56 7.8 1.13 7.8 1.13M127.97 90.34s42.88 27.28 72.28 2.48"/>
    <path fill="#7a6d55" d="M468.13 379.84s20.32 41.07 51.02 50.3l2.83-.36-18.42-57.68-18.86 25.45-15.09-19.14-1.49 1.42Z"/>
  </g>
  <path fill="none" stroke="#725450" stroke-width="2" d="M80.7 195.86s18.4 16.44 70.87 28.35c52.46 11.9 98.65 22.46 124.16 46.1 25.51 23.64 30.05 41.26 42.52 53.68"/>
  <path fill="#725450" d="M352.85 336.91s-2.01 8.33-12.5 6.92c-10.49-1.42-27.78-21.65-56.41-19.49-28.63 2.17-32.6 29.28-17.29 51.25 15.31 21.97 28.23 31.2 38.69 21.97 10.46-9.23 18-17.17 18-17.17l97.54-35.72-6.54-20.34-61.49 12.57Z"/>
  <path fill="none" stroke="#583523" d="M352.85 336.91s-2.01 8.33-12.5 6.92c-10.49-1.42-27.78-21.65-56.41-19.49-28.63 2.17-32.6 29.28-17.29 51.25 15.31 21.97 28.23 31.2 38.69 21.97 10.46-9.23 18-17.17 18-17.17l97.54-35.72-6.54-20.34-61.49 12.57Z"/>
  <g clip-path="url(#d)">
    <path fill="#cfbe85" d="M223.29-4.55s.85 39.97 29.2 71.72c0 0 4.78-.28 2.57-5.39-2.2-5.1-1.16-12.44-5.41-22.09 0 0 3.38-3.7 2.27-16.17 0 0 2.55-.57 1.99-6.24 0 0 7.09-9.35 7.37-20.41l-37.99-1.42Z"/>
    <path fill="none" stroke="#725450" d="M223.29-4.55s.85 39.97 29.2 71.72c0 0 4.78-.28 2.57-5.39-2.2-5.1-1.16-12.44-5.41-22.09 0 0 3.38-3.7 2.27-16.17 0 0 2.55-.57 1.99-6.24 0 0 7.09-9.35 7.37-20.41l-37.99-1.42Z"/>
  </g>
  <path fill="#bd9a46" d="M482.66 313.78s-10.49 6.53-30.05 6.53-34.73-6.32-49.25-1.15c-14.53 5.17-25.87 9.34-34.37 10.2-8.5.87-9.05 1.42-9.05 1.42s-3.99-.43-9.24.35c0 0-.71 1.07-.07 3.76 0 0 .07 5.81 7.44 7.09 7.37 1.28 15.27 1.28 29.39-2.69 14.12-3.97 15.25-4.91 21.49-2.88 0 0-5.68-1.65-13.58 3.45s-23.83 15.34-47.36 14.47c-23.53-.87-33.17-4.83-41.39-6.25-8.22-1.42-15.02-1.15-12.76 6.8 0 0-4.25.14-9.07.14s-8.5 5.53-4.82 9.5c3.68 3.97 15.59 5.39 15.59 5.39s-3.71 6.8 1.98 9.35c5.69 2.55 10.49 1.98 19.56 5.67s12.47 11.34 34.58 16.73c22.11 5.38 39.97 6.92 65.76.48 25.8-6.44 41.08-13.81 54.14-21.74 13.06-7.94 24.09-13.89 41.1-16.44l-10.21-39.4-19.84-10.77Z"/>
  <path fill="none" stroke="#725450" stroke-width="2" d="M482.66 313.78s-10.49 6.53-30.05 6.53-34.73-6.32-49.25-1.15c-14.53 5.17-25.87 9.34-34.37 10.2-8.5.87-9.05 1.42-9.05 1.42s-3.99-.43-9.24.35c0 0-.71 1.07-.07 3.76 0 0 .07 5.81 7.44 7.09 7.37 1.28 15.27 1.28 29.39-2.69 14.12-3.97 15.25-4.91 21.49-2.88 0 0-5.68-1.65-13.58 3.45s-23.83 15.34-47.36 14.47c-23.53-.87-33.17-4.83-41.39-6.25-8.22-1.42-15.02-1.15-12.76 6.8 0 0-4.25.14-9.07.14s-8.5 5.53-4.82 9.5c3.68 3.97 15.59 5.39 15.59 5.39s-3.71 6.8 1.98 9.35c5.69 2.55 10.49 1.98 19.56 5.67s12.47 11.34 34.58 16.73c22.11 5.38 39.97 6.92 65.76.48 25.8-6.44 41.08-13.81 54.14-21.74 13.06-7.94 24.09-13.89 41.1-16.44l-10.21-39.4-19.84-10.77Z"/>
  <path fill="#c63a45" d="M516.39 287.42s-6.24 5.01-22.39 11.49c-16.16 6.48-23.76 12.32-20.67 15.16s8.06-1.7 16.13 7.09c8.08 8.79 14.46 18.14 12.76 32.6-1.7 14.46-1.96 14.46-1.96 14.46s4.79.5 14.72.5 29.53 5.74 40.56-.5c0 0 35.41 3.12 59.22-.85 0 0-21-26.97-40.82-46.2-19.82-19.24-40.82-36.81-57.54-33.73Z"/>
  <path fill="none" stroke="#725450" stroke-width="2" d="M293.3 354.6s5.67 3.99 20.69 6.82c15.02 2.84 38.08 7.92 54.43 6.5s22.68-2.55 22.68-2.55m-95.53 4.82s25.51 5.67 39.4 8.5c13.89 2.83 24.07 4.57 37.98 3.98 13.91-.58 23.53-.87 23.53-.87m-80.5 2.83s16.04 5.95 30 8.79c13.96 2.83 38.64 4.54 52.23 3.12"/>
  <path fill="#bd9a46" d="M350.56 334.61s5.93 1.8 8.36 1.8c0 0 1.42-1.65 1.13-5.48"/>
  <path fill="none" stroke="#725450" d="M350.56 334.61s5.93 1.8 8.36 1.8c0 0 1.42-1.65 1.13-5.48"/>
  <path fill="none" stroke="#725450" stroke-width="2" d="M334.69 160.42c9.66-.27 23.53-1.7 45.07 8.5 21.54 10.21 23.53 13.04 23.53 13.04m11.34-10.99s-21.26-14.49-36.57-18.49"/>
  <path fill="none" stroke="#725450" d="M339.93 230.02s3.12 1.27 4.68-1.84c1.56-3.12-3.26-5.1-3.26-5.1"/>
  <path fill="none" stroke="#583523" d="M350.56 51.57s-10.49-17.86 20.13-33.73c0 0 .23.58 1.28-3.66 1.05-4.25 4.11-6.12 4.11-6.12"/>
  <path fill="none" stroke="#725450" d="M354.53 53.28s6.29.85 11.34-5.67 8.66-16.72 7.37-22.68c-1.29-5.95-1.29-6.5-1.29-6.5m-19.4 37.12s19.28 7.94 28.06-9.92c8.79-17.86-7.65-28.22-7.65-28.22"/>
  <path fill="none" stroke="#583523" d="M333.88 71.42s-18.47 10.77-10.24 26.36m10.5 2.27s11.9-10.2 4.81-25.23c0 0 .85-1.12 3.4 1.72 2.55 2.83 9.64 7.92 8.79 17.84"/>
  <g clip-path="url(#e)">
    <path fill="none" stroke="#725450" d="M305.49 88.14s2.27-8.24 6.8-14.04c4.54-5.8 5.1-8.89 4.25-11.74m17.58-31.48s2.24-4.5 3.39-11.04c1.16-6.54 6.52-18.44 15.31-22.13m-31.81 61.81s1.9.96 7.85 1.83c5.95.87 8.07 1.98 15.45 7.94 7.37 5.96 24.19 20.88 32.32 24.8 8.13 3.92 12.33 2.98 13.61-.85 1.28-3.83-2.03-5.3-.43-8.74 1.61-3.44 3.83-8.26 3.83-8.26s-1.56-4.27-4.82-5.25"/>
  </g>
  <path fill="none" stroke="#f6dd8f" d="M384.77 93.54s-12.24-5.61-21.99-13.37"/>
  <path fill="none" stroke="#725450" d="M409.23 105.86c1.1-2.55.3-5.43.3-5.43s5.38-4 4.25-13.16c0 0 8.65-4.67 7.37-13.16"/>
  <path fill="none" stroke="#d4b548" d="M406.22 106.75s1.3-2.83 0-6.14c0 0 7.2-4.63 5.79-16.54 0 0 6.24-.85 7.51-8.65"/>
  <path fill="none" stroke="#f6dd8f" d="m418.31 86.89 10.77-4.69"/>
  <path fill="none" stroke="#725450" d="M425.96 104.3s.28-6.91 10.2-13.33m-52.47-7.93s-2.86-9.08 1.28-12.05"/>
  <path fill="none" stroke="#583523" d="M349.71 42.08s.53 2.27 3.31 3.69c2.78 1.42 7.18-.95 8.74-4.66 1.56-3.71 1.42-10-5.1-10M325.62 83.2s6.21-1.12 6.8 6.85c.59 7.97-4.84 7.97-4.84 7.97"/>
  <path fill="#583523" d="M357 39.63c.58-1.13.22-2.47-.8-2.99s-2.31-.02-2.89 1.11c-.58 1.13-.22 2.47.8 2.99s2.31.02 2.89-1.11Z"/>
  <path fill="none" stroke="#583523" d="M357 39.63c.58-1.13.22-2.47-.8-2.99s-2.31-.02-2.89 1.11c-.58 1.13-.22 2.47.8 2.99s2.31.02 2.89-1.11Z"/>
  <path fill="#583523" d="M328.7 90.93c-.02-1.27-.97-2.28-2.11-2.26-1.14.02-2.05 1.07-2.03 2.34.02 1.27.97 2.28 2.11 2.26 1.14-.02 2.05-1.07 2.03-2.34Z"/>
  <path fill="none" stroke="#583523" d="M328.7 90.93c-.02-1.27-.97-2.28-2.11-2.26-1.14.02-2.05 1.07-2.03 2.34.02 1.27.97 2.28 2.11 2.26 1.14-.02 2.05-1.07 2.03-2.34Z"/>
  <path fill="none" stroke="#725450" d="M457.43 110.53s17.86-18.39 13.89-45.34m-122.09-7.4s-.67-3.11-2.77-7.64c-2.1-4.54-2.98-20.14 14.17-29.48"/>
  <g fill="none" clip-path="url(#f)">
    <path stroke="#f6dd8f" d="M342.75 78.93s1.12 4.65 0 11.11m2.09-8.14s1.89 5.53 1.75 11.48m-18.43-12.19s6.29 1.42 5.96 10.63m25.49-62.93s5.54 1.71 4.12 9.74m15.16-29.45s-2.27 1.75-3.97 6.39"/>
    <path stroke="#f9eabd" d="M581.16 141.73s14.88-30.49 11.34-74.42c-3.54-43.94-13.47-83.98-13.47-83.98m7.01 139s9.26-36.92 0-85.48-18.35-63.78-18.35-63.78m-12.16 52.78s.47-8.86 5.08-3.19 16.65 19.49 15.24 11.35c-1.42-8.14-5.67-30.13-13.47-42.89m-.71 54.23s-.87-7.46 2.36-7.1c3.23.35 9.11 46.38.05 78.31m11.28-57.03s4.1 49.24-17.01 88.96"/>
  </g>
  <path fill="none" stroke="#b38f43" d="M564.29 94.56s-1.88 48.55-24.76 74.08"/>
  <path fill="none" stroke="#583523" d="M486.08 51.83s13.23 8.05 25.98 15.12c12.76 7.07 25.54 24.7 26.76 32.26m-42.61-59.53s18.8 5.74 26.71 15.59 11.13 13.67 13.87 20.07m-50.98-17.97s.93 9.17 13.84 18.17c12.91 9 24.66 14.3 29.76 34.14m-39.97-36.01s0 9.84 14.46 25.62c14.46 15.78 20.48 20.81 24.38 32.47m-39.33-34.33s-.52 8.31 15.24 25.02 21.57 42.58 21.57 42.58M490.31 13.94s28.76 1.05 39.6 28.85m-29.4 187.09s-8.22 20.29-23.81 31.88m30.65-39.81s-8.02 29.18-35.21 49.61m-15.83-27.5s-16.82 12.22-21.26 44.66m73.81-94.83s2.17 11.91-1.25 24.95m-21.8-178.02s8.79 10.07 21.53 16.52c12.74 6.46 19.77 12.71 24.84 20.77m-46.37-32.47s9.32 8.79 21.8 15.02c12.48 6.24 22.48 15.5 26.06 21.1m-39.45 55.15s4.58 14.3 14.36 29.83c9.78 15.53 5.53 36.99 5.53 36.99m-21.83-36.99s16.02 18.95 12.35 49.07m-48.03 39.88s-12.22 10.94-13.36 33.1m31.18-14.95s-11.9 11.06-35.72 14.87"/>
  <path fill="none" stroke="#f6dd8f" d="M418.88 320.31s9.54.58 15.69 1.97m-65.29 8.61s7.06-2.09 13.04-2.66m-20.98 3.14s.51 2.44-.74 5.04m35.06 35.2h4.51m2.29 16.15h4.8m-20.98-32.32h4.91m94.02-27.71s-.57 18.23 11.9 22.34"/>
  <path fill="none" stroke="#d06d51" d="M479.97 306.11s11.3 3.35 17.14 14.43m-12.41-17.35 23.13 9.28"/>
  <path fill="none" stroke="#583523" d="M274.9 250.87s14.15-.23 26.05-12.2c11.9-11.97 18.69-24.63 46.77-24.64m-69.75 39.1s15.61.28 30.35-17.01c14.74-17.29 24.02-18.13 37.09-20.11m-21.79-10.79s17.58-9.25 37.13-5.37m-38.55 9.05s17.48-7.11 28.06-5.18"/>
  <path fill="none" stroke="#f6dd8f" stroke-width="2" d="M374.94 306.41s-6.51 5.9-19.43 9.65"/>
  <path fill="none" stroke="#f6dd8f" d="M358.64 332.06s-1.84-.96-6.94 1.01m73.84-32.02s-1.48 3.52 5.81 5.64c7.29 2.13 15.97-1.31 15.97-1.31m-17.53-3.47s3.16-2.79 10.35-3.47m-15.87-14.98s4.34 2.87 2.5 11.89"/>
  <path fill="none" stroke="#725450" d="M297.84 179.42s2.13 1.98-3.54 4.39"/>
  <path fill="none" stroke="#f6dd8f" d="m299.96 182.26-4.39 3.26m-7.37-5.39 8.21 1.13m81.52 18 3.81 1.13m12.47-10.77 4.25 1.42m10.49-9.92 3.68 1.72m-70.51-.58s3.61.37 7.01 2.01m-5.95-21.58s6.24-.86 8.5 0m6.8-9.62s3.95-2.13 7.65-1.07"/>
  <g clip-path="url(#g)">
    <path fill="none" stroke="#583523" d="M339.43 346.94s-10.13-1.9-18.92-8.2-24.61-14.4-41.36-14.4m40.79 19.2s-6.8-7.3-21.26-12.17-24.09-7.45-35.43 2.53m26.65-2.53s-14.46-7.15-23.5 10.75c-9.04 17.91 10.48 32.78 18.97 37.42m-17.3-8.43s15.74 12.97 27.39 22.6"/>
    <path fill="#bdae89" d="M45.26 428.81c-.25 0-25.09-.91-25.09-27.19s13.1-41.35 35.72-57.02c18.4-12.75 23.12-18.97 24.2-20.74-2.45-3.53-4.58-10.49 1.62-16.64-.58-1.4-1.17-3.9.18-6.82 1.71-3.71 3.88-4.6 6.33-4.79.02-2.55.5-7.59 3.68-11.1 2.23-2.45 5.32-3.7 9.2-3.7 11.94 0 15.12 11.08 15.79 14.32 1.61.74 5.09 2.73 6.58 6.46 1.35 3.38.45 6.29-.31 7.87 1.58 1.4 4.54 4.35 5.47 7.58.81 2.85.48 4.87.07 6.04 1.77 1.76 6.66 6.6 13.99 13.7 9.32 9.04 12.48 11.34 31.26 20.05 18.89 8.76 28.49 23.26 27.02 40.83-1.41 16.98-12.56 22.63-22.51 22.26-6.17-.23-11.54-3.73-14.67-6.29.07 3.89-.46 10.18-3.65 16.79l-.4.83-.92.02-104.53 2.13-1.27.03-.24-1.25c-.03-.17-.54-2.95-.37-6.05-1.84 1.24-4.31 2.48-7.02 2.66h-.14Z"/>
    <path fill="none" stroke="#423e70" stroke-width="3" d="M45.26 428.81c-.25 0-25.09-.91-25.09-27.19s13.1-41.35 35.72-57.02c18.4-12.75 23.12-18.97 24.2-20.74-2.45-3.53-4.58-10.49 1.62-16.64-.58-1.4-1.17-3.9.18-6.82 1.71-3.71 3.88-4.6 6.33-4.79.02-2.55.5-7.59 3.68-11.1 2.23-2.45 5.32-3.7 9.2-3.7 11.94 0 15.12 11.08 15.79 14.32 1.61.74 5.09 2.73 6.58 6.46 1.35 3.38.45 6.29-.31 7.87 1.58 1.4 4.54 4.35 5.47 7.58.81 2.85.48 4.87.07 6.04 1.77 1.76 6.66 6.6 13.99 13.7 9.32 9.04 12.48 11.34 31.26 20.05 18.89 8.76 28.49 23.26 27.02 40.83-1.41 16.98-12.56 22.63-22.51 22.26-6.17-.23-11.54-3.73-14.67-6.29.07 3.89-.46 10.18-3.65 16.79l-.4.83-.92.02-104.53 2.13-1.27.03-.24-1.25c-.03-.17-.54-2.95-.37-6.05-1.84 1.24-4.31 2.48-7.02 2.66h-.14Z"/>
    <path fill="none" stroke="#423e70" stroke-width="2" d="M103.4 326.57s-.24 17.97-5.55 30.55c-5.31 12.58-17.72 28.73-15.94 46.45 1.77 17.72 20.67 23.74 31.42 22.32 10.75-1.42 25.63-14.14 24.92-33.29-.71-19.15-23.66-24.11-27.6-42.89-3.94-18.78-3.3-20-3.58-23.15-.28-3.14-3.97-5.41-3.66 0Zm-15.76 50.6s14.46-11.5 38.27-6.09m-29.05-42.8s.3 11.27-7.66 28.85c-7.96 17.58-18.9 20.06-18.9 36.98s17.63 22.59 17.63 22.59m26.5-88.28s-1.04 15.1 11.65 28.71c12.69 13.61 26.81 28.61 21.26 44.5-5.55 15.89-20.43 17.89-20.43 17.89m-6.5-92.99s1.9 15.91 11.28 26.02c9.39 10.1 13.99 14.4 23.56 19.49 9.57 5.08 13.46 15.24 13.46 15.24m-44.06-62.93s2.8 19.1 19.89 29.85c17.08 10.76 41.18 21.56 42.95 34.5 1.77 12.93-3.47 18.95-10.28 18.18-3.87-.44-7.09-7.3-2.13-10.03M89.57 328s-.95 15.58-13.7 32.05c-12.76 16.46-21.61 19.78-23.39 31.84m31.05-65.41s-1.64 10.71-19 25.03-31.77 24.28-31.89 42.61c-.12 18.32 14.17 16.18 14.88 9.46.71-6.72-7.8-6.98-8.5-1.95m-6.24-4.33s4.04-10.63 15.31-6.8c11.27 3.82 13.89 17.5 8.93 26.36-4.96 8.86-11.93 12.94-21.83 10.35m24.26-20.98s5.08 18.11 18.12 23.78m87.31-38.8s-4.84 7.9-7.65 20.38c-2.81 12.47-20.41 18.71-20.41 18.71M87.78 295.85s1.28 4.09 6.24 6.22c5.37 2.3 11.99 2.37 16.62.39 4.64-1.97 6.91-5.41 6.76-8.29m-38.13 11.3s4.68 7.8 22.96 8.79c11.19.61 19.7-2.69 22.54-9.21m39.97 86.67c2.26-4.46 7.37-8.89 14.74-5.77 7.37 3.12 8.91 10.1 7.37 14.49m-75.75 8.82c7.35 0 13.32-5.96 13.32-13.32s-5.96-13.32-13.32-13.32-13.32 5.96-13.32 13.32 5.96 13.32 13.32 13.32Z"/>
    <path fill="#7a6d55" d="M593.8-1.72 610.22 34l2.55-21.83-9.36-16.72-9.61 2.83z"/>
    <path fill="#9c957d" d="m665.49-1.42-50.32 182.97s13.58-19.25 33.9-31.32c20.32-12.06 32.01-15.84 33.43-12.06 1.42 3.78-26.93 16.5-37.13 24.34 0 0 23.81-13.11 59.81-10.85 0 0-11.34-2.93-17.58-2.93 0 0 5.95-3.32 3.97-12.11s-9.81-11.34-20.69-10.2c0 0-4.82-40.64-9.35-57.83l-29.48 86.74-4.25 4.3L665.78-2.28"/>
    <path fill="#7a6d55" d="m624.67-1.43 11.65 14.87-3.43 55.71-12.75 37.15 1.98-89.87-13.89-17.85 16.44-.01z"/>
    <path fill="#9c957d" d="m605.14-2.83 12.75 20.96-9.09 149.66L654.44 0l-33.45 101.18 3.4-85.84-17.86-19.32-1.39 1.15z"/>
  </g>
  <path fill="#7a6d55" d="m660 75.35 8.92-30.09s18.12 63.09 21.24 91.49l-23.81-8.64-6.34-52.76Z"/>
  <g fill="#7a6d55" clip-path="url(#h)">
    <path d="M693.01 181.84s-41.34-11.8-75 13.36-61.71 62.05-102.47 89.66c0 0 17.09-3.92 47.55 23.02 0 0 37.94-27.92 41.11-31.17 3.18-3.25 2.84-7.73-3.91-14.57s-20.82-19.81-27.03-21.58l10.73-10.89 9.55 3.09s36.16-51.23 99.47-50.94Z"/>
    <path d="M576.19 238.8s18.81 9.63 39.47 33.14c20.66 23.51 136.88 156.07 136.88 156.07l1.54-3.19s-50.2-66.72-92.24-116.3c-42.05-49.58-69.69-72.92-81.38-77.17l-7.19 6.75 2.93.69Z"/>
  </g>
  <path fill="#7a6d55" d="M648.48 186.36s30.47 3.65 48.19 14.24c0 0-23.39-6.41-65.55-5.01l17.36-9.23Z"/>
  <path fill="#7a6d55" d="m590.73 230.79 27.28 6.6s15.71-7.52 27.64-21.53c11.93-14.01 17.8-20.07 17.8-22.4s-25.24-4.96-25.24-4.96l-34 27.5-13.48 14.79Z"/>
  <path fill="#7a6d55" d="M608.44 232.43s10.87 7.14 29.29 13.49c0 0 30.33-20.88 44.76-48.91l-4.96-.23s-11.57 15.79-25.63 29.98c-14.06 14.19-15.12 14.19-15.12 14.19l-28.35-8.52Z"/>
  <path fill="#7a6d55" d="M626.87 239.51s-5.65 3.29-12.18 6.96c-6.53 3.67-5.78 5.19 3.2 8.84 8.98 3.64 39.68 6.84 39.68 6.84l-32.48-14.44 8.74-4.15-6.96-4.04Zm16.65 88.21s-58.1-13.66-80.43-25.81l9.15-9.25s24.58 17.6 71.28 35.06Z"/>
  <path fill="#9c957d" d="M660 327.72s-38.09-16.79-58.99-24.53c-20.91-7.74-25.51-11.4-22.68-16.63 2.83-5.23-1.18-9.72-6.08-3.52-4.9 6.2-7.51 11.8 5.02 17.07s49.61 19.7 82.73 27.61Z"/>
  <g fill="#7a6d55" clip-path="url(#i)">
    <path d="M572.24 310.11s35.61 13.18 65.49 19.74c0 0-39.57-15.23-49.84-22.02-10.28-6.79-20.21-9.89-20.21-9.89l-7.43 3.11 11.99 9.06Z"/>
    <path d="m569.96 300.12 103.18 119.41-1.7-31.77 7.37 15.59 4.28 31.19-119.06-131.35 5.93-3.07z"/>
  </g>
  <path d="m507.54 395.43-10.27 16.28 16.06 10.98s-5.3-13.56-5.79-27.27Z"/>
  <path fill="none" stroke="#000" d="m507.54 395.43-10.27 16.28 16.06 10.98s-5.3-13.56-5.79-27.27ZM352.36 57.38s5.32 2.04 12.12 2.04"/>
  <path fill="none" stroke="#f6dd8f" d="M342.26 74.1c.49 1.06 11.25 6.64 10.76 19.3"/>
  <g clip-path="url(#j)">
    <path fill="none" stroke="#7a6d55" d="M679.38 19.84s16.13 56.01 19.84 112.08M687.34 0s6.79 16.95 9.59 43.47"/>
    <path fill="#7a6d55" d="m671.16-2.57-13.58 68.03-2.66-24.99 11.7-44.72 4.54 1.68z"/>
    <path fill="#762e43" d="M-2.78 60.57s6.14.37 12.64-6.76c0 0 5.91 5.21 15.71-1.98 0 0 7.56 2.95 16.89 0l.15 14.06 22.64-7.98s7.8-10.88 10.28-27.3c2.48-16.42 2.48-22.97 2.48-22.97L99.15 0l-1.3-4.98-104.52.71 3.89 64.84Z"/>
    <path fill="#b38f43" d="M-1.78 25.21s9.35-.28 14.17-6.52c0 0 14.46 1.42 19.56-1.13 0 0 2.31 4.85 2.01 9.37 0 0-10.82.83-16.75-1.15 0 0-8.22 7.09-18.99 7.09v-7.65Z"/>
    <path fill="none" stroke="#b38f43" d="M-1.78 25.21s9.35-.28 14.17-6.52c0 0 14.46 1.42 19.56-1.13 0 0 2.31 4.85 2.01 9.37 0 0-10.82.83-16.75-1.15 0 0-8.22 7.09-18.99 7.09v-7.65Zm36.27 4.25s-6.74 1.12-16.12 0c0 0-7.63 5.39-19.84 6.52m-.31 3.7s15.02-1.9 20.69-6.32c0 0 8.92 1.19 15.66.92M-1.22 22.66s7.94-.23 11.62-5.78c0 0 11.34 1.04 21.26-.28m8.79 16.11s17.86 12.94 22.68 25.4M43 28.95s17.86 16.11 22.96 26.88M53.79 21.26s14.15 8.77 20.1 17.56M51.87 23.16s13.8 9.88 20.32 19.15M58.05 7.35l19.84-9.64M54.54 4.23 75.6-3.99"/>
    <path fill="none" stroke="#423e70" stroke-width="3" d="M77.99 322.03s6.6 8.1 24.6 7.51m5.06-.14s15.99.71 21.66-7.51"/>
    <path fill="none" stroke="#f6dd8f" d="M333.8 21.56s2.3-15.31 11.66-23.81m82.49 106.57s4.25-9.37 9.64-10.92m-52.32-11.65s-2.15-4.97 0-8.07"/>
  </g>
  <path fill="none" stroke="#f6dd8f" stroke-width="2" d="M382.23 11.07s11.7 9.07 16.24 20.98m-198.98 70.02s-10.45 12.05-45.06 6.02"/>
</svg>