<svg xmlns="http://www.w3.org/2000/svg" viewBox="0 0 750 428"><defs><clipPath id="a"><path class="a" d="M0 0h750v428H0z"/></clipPath><clipPath id="b"><path class="a" d="M.06 0h749.88v428H.06z"/></clipPath><style>.a,.f,.j,.q,.r,.s{fill:none}.f,.j{stroke:#5c1f48}.e{fill:#7b4cc2}.f{stroke-linejoin:bevel;stroke-width:3.29px}.h{fill:#491c41}.j,.q{stroke-width:3.29px}.k{clip-path:url(#b)}.m{fill:#835d03}.n{fill:#8e6716}.q{stroke:#cd2c23}.r{stroke-width:2.46px}.p{fill:#771f34}.r{stroke:#1c2315}.s{stroke:#a2740a;stroke-width:1.64px}</style></defs><g clip-path="url(#a)"><path fill="#7b20cc" d="M-36-7.14v476.69h828.38V-7.14H-36z"/><path stroke-width="3.18" stroke="#5c1f48" fill="none" d="M-36-7.14v476.69h828.38V-7.14H-36h0z"/><path class="e" d="M-80.61 390.45l95.17-142.22 686.19-3.01 93.16 143.28 5 120.14-862.49-2.96-17.03-115.23z"/><path class="f" d="M-80.61 390.45l95.17-142.22 686.19-3.01 93.16 143.28 5 120.14-862.49-2.96-17.03-115.23z"/><path fill="#5c1f48" d="M684.72 273.27l-658.14 4.05 2.13 188.35 660.01-2.05-4-190.35z"/><path class="f" d="M684.72 273.27l-658.14 4.05 2.13 188.35 660.01-2.05-4-190.35z"/><path class="h" d="M760.85 392.45l-76.13-119.18 3 196.36 77.26 11.97-4.13-89.15z"/><path class="f" d="M760.85 392.45l-76.13-119.18 3 196.36 77.26 11.97-4.13-89.15z"/><path class="h" d="M26.58 277.27l-73 118.19-4.14 90.14 81.14-2-4-206.33z"/><path class="f" d="M26.58 277.27l-73 118.19-4.14 90.14 81.14-2-4-206.33z"/></g><path d="M218.94 328.35l-11 15-11 20v7l-4 3.06-5 12v9l.12 6 387.61-2.06s-2.25-8.91-7.14-22-8-26.09-16-38.11-23-30.05-23-30.05l-4.88 52.08-237.37 13-68.23-45.07z" fill="#919492"/><path class="j" d="M218.94 328.35l-11 15-11 20v7l-4 3.06-5 12v9l.12 6 387.61-2.06s-2.25-8.91-7.14-22-8-26.09-16-38.11-23-30.05-23-30.05l-4.88 52.08-237.37 13-68.23-45.07z"/><g class="k"><path d="M189.83-4.11l380.66-5.07 3 46.13a207 207 0 01-6.76 49.9c-7 26-14.27 40.19-21.15 54.89 0 0-15.71 35.65-21 71.43s-8.12 49.69 1.88 86.14c3.49 12.72 19.15 50.13 19.15 50.13-21.91 18-66.1 42.06-66.1 42.06l-179.41 2s-94-40.07-81.12-62C229.83 312.83 239 290.7 239 263s-14.26-96.74-21.4-115.16-12.39-36-17.71-62.81C192.1 45.78 191 1.84 191 1.84" fill="#785102"/><path class="j" d="M189.83-4.11l380.66-5.07 3 46.13a207 207 0 01-6.76 49.9c-7 26-14.27 40.19-21.15 54.89 0 0-15.71 35.65-21 71.43s-8.12 49.69 1.88 86.14c3.49 12.72 19.15 50.13 19.15 50.13-21.91 18-66.1 42.06-66.1 42.06l-179.41 2s-94-40.07-81.12-62C229.83 312.83 239 290.7 239 263s-14.26-96.74-21.4-115.16-12.39-36-17.71-62.81C192.1 45.78 191 1.84 191 1.84"/></g><path class="m" d="M278.43 322.85s-4.4 51.32 39.82 75.84c6.45 3.58 115.67 1.38 115.67 1.38s36.57-22.35 38.79-73.32c1.14-26.19-39.09-51.54-39.09-51.54l-64.72 2-90.47 45.63z"/><path class="j" d="M278.43 322.85s-4.4 51.32 39.82 75.84c6.45 3.58 115.67 1.38 115.67 1.38s36.57-22.35 38.79-73.32c1.14-26.19-39.09-51.54-39.09-51.54l-64.72 2-90.47 45.63z"/><path class="m" d="M413.37 82c-22.6-26.46-26.17-44.1-26.17-44.1-24 9-47.07 1-47.07 1-5 14-13.65 21.43-33.06 42.07-15.16 16.12-28.52 31.94-34.18 46.73s-6.82 23.16-5.88 40.4 4.46 25.72 4.46 25.72l113.8 35.81 62.05-25.86s4.9-9.83 6.16-33.69c.65-12.17-.87-26.44-7.49-43.27-5.29-13.42-14.92-24-32.62-44.79z"/><path class="j" d="M413.37 82c-22.6-26.46-26.17-44.1-26.17-44.1-24 9-47.07 1-47.07 1-5 14-13.65 21.43-33.06 42.07-15.16 16.12-28.52 31.94-34.18 46.73s-6.82 23.16-5.88 40.4 4.46 25.72 4.46 25.72l113.8 35.81 62.05-25.86s4.9-9.83 6.16-33.69c.65-12.17-.87-26.44-7.49-43.27-5.29-13.42-14.92-24-32.62-44.79z"/><g class="k"><path class="n" d="M611.68 215.18c26.16-11 48.07-28 51.08-31s-.13-22.09-1.13-33.1-1.88-32.06-6-84.09-10.9-70.16-10.9-70.16l-75.24-1s10 69.11 16 100.16 11.14 49.13 11.14 49.13-19.28 3.9-35.18 11-23.84 11.52-58.36 26.16-97 38.61-119.78 44.6-67.59 21.9-81.64 28.26-18.67 12.3-22.06 13.63-15.17 7.34-14.32 9.32 4.28 5 9.63 5.33c4.29.26 5.64-.67 5.64-.67a40 40 0 00-7.31 12.65c-2.67 7.62-10.15 18.63-8.42 20s7.08 4 11.1 0 4.4-10.64 11.37-20.63 24.43-23.3 24.43-23.3l.61 1s-16.81 13.71-22.69 25.27c-5 9.85-8 17.66-12.72 25s-6.41 10.34-3.73 12.64 7.75 2 11.09 0c0 0 4.29 4.93 9.64 1.6s10.44-9.98 10.44-9.98 2 6.36 7.36 3.69 11.38-9.62 21.41-16 18.63-8.65 33.74-15.31 19.13-10 29.83-22.63 52.2-22 91-29.29 81-16.64 81-16.64c13.82-3.64 16.82-4.64 43-15.65z"/><path class="j" d="M611.68 215.18c26.16-11 48.07-28 51.08-31s-.13-22.09-1.13-33.1-1.88-32.06-6-84.09-10.9-70.16-10.9-70.16l-75.24-1s10 69.11 16 100.16 11.14 49.13 11.14 49.13-19.28 3.9-35.18 11-23.84 11.52-58.36 26.16-97 38.61-119.78 44.6-67.59 21.9-81.64 28.26-18.67 12.3-22.06 13.63-15.17 7.34-14.32 9.32 4.28 5 9.63 5.33c4.29.26 5.64-.67 5.64-.67a40 40 0 00-7.31 12.65c-2.67 7.62-10.15 18.63-8.42 20s7.08 4 11.1 0 4.4-10.64 11.37-20.63 24.43-23.3 24.43-23.3l.61 1s-16.81 13.71-22.69 25.27c-5 9.85-8 17.66-12.72 25s-6.41 10.34-3.73 12.64 7.75 2 11.09 0c0 0 4.29 4.93 9.64 1.6s10.44-9.98 10.44-9.98 2 6.36 7.36 3.69 11.38-9.62 21.41-16 18.63-8.65 33.74-15.31 19.13-10 29.83-22.63 52.2-22 91-29.29 81-16.64 81-16.64c13.82-3.64 16.82-4.64 43-15.65z"/></g><path class="n" d="M329.07 281.12a77.89 77.89 0 00-20.68 17.5A148.12 148.12 0 00294.76 318c-3 4.83-6.55 12.85-10.89 17.69"/><path class="j" d="M329.07 281.12a77.89 77.89 0 00-20.68 17.5A148.12 148.12 0 00294.76 318c-3 4.83-6.55 12.85-10.89 17.69"/><path class="n" d="M342.12 293.22A140.93 140.93 0 00329 301.4c-5.31 3.91-11.06 8.77-14.08 12.68s-5.26 6.87-5.26 6.87l-5.36 6.16"/><path class="j" d="M342.12 293.22A140.93 140.93 0 00329 301.4c-5.31 3.91-11.06 8.77-14.08 12.68s-5.26 6.87-5.26 6.87l-5.36 6.16"/><path class="n" d="M303.52 260s-9.13 5.15-13.83 10.73-9.93 12.44-9.93 12.44"/><path class="j" d="M303.52 260s-9.13 5.15-13.83 10.73-9.93 12.44-9.93 12.44"/><path d="M356.29 264a1.46 1.46 0 10-1.46-1.46 1.46 1.46 0 001.46 1.46z"/><path d="M356.29 264a1.46 1.46 0 10-1.46-1.46 1.46 1.46 0 001.46 1.46z" stroke-width="2.46" stroke="#cd2c23" fill="none"/><path class="p" d="M431.38 266.71a3.78 3.78 0 10-3.78-3.78 3.78 3.78 0 003.78 3.78z"/><path class="q" d="M431.38 266.71a3.78 3.78 0 10-3.78-3.78 3.78 3.78 0 003.78 3.78z"/><path class="p" d="M355.83 267.72a3.78 3.78 0 10-3.78-3.78 3.78 3.78 0 003.78 3.78z"/><path class="q" d="M355.83 267.72a3.78 3.78 0 10-3.78-3.78 3.78 3.78 0 003.78 3.78z"/><path class="r" d="M262.63 315.64c1.71 1.32 6.71 5.69 13.13 1.3 5-3.41 5.85-12.1 11.62-20.75 6.69-10 24.5-23.33 24.5-23.33"/><g class="k"><path class="r" d="M482.42 249.64l5-.91c27.14-4.86 55.8-11.25 70.83-13.7 17-2.78 36.7-8.73 59.69-19.9 21-10.22 30-15.63 46.88-29.45M263.2 278.13s2.66 7.18 14.33 6.22"/><path class="n" d="M191 1.84s-1.13 3-3 17.08S180.88 83 174.87 117s-9.27 45.37-9.27 45.37 13.4-.3 36.79 4.75c0 0 74.95 23 135.84 40.33s79.64 20.58 100.38 26.27 28.11 6.06 43.5 17.68 18.94 12.91 23.42 15.32c5.22 2.82 7.09 4.95 6.56 6.55-1.05 3.12-5.44 6.55-11.24 6.11-6.15-.47-6.7-1.33-6.7-1.33a52.39 52.39 0 016.31 12c2.8 7.47 5.62 16.41 7.08 20.29 1.62 4.3 5.89 11.68 2.68 13-5 2.06-8.09-.34-11.05-4.69-3.84-5.67-6.74-17.29-12.1-26.62s-20.35-23.67-20.35-23.67l-1.06 1s13.39 16.19 16.18 23.07c4 9.72 7.63 17.95 11 24.91s7.22 17.73 6 18.65c-2.26 1.72-6 3-10.71-.67 0 0-.6 6.39-8.7 3.34-6.24-2.37-10.7-11.33-10.7-11.33s-1 5.33-7.37 2.67-15.36-13.3-22.08-18.63-22.75-13.32-31.45-18-22.08-17.62-28.78-26.65-6.3-11-25.42-12.65-81.64-4.66-113.77-8-80-14.9-109.06-30.92-32.93-10.92-32.93-22 2.88-50.15 4.88-82.15 16-114.18 16-114.18l71.05-.94 1.19 6z"/><path class="j" d="M191 1.84s-1.13 3-3 17.08S180.88 83 174.87 117s-9.27 45.37-9.27 45.37 13.4-.3 36.79 4.75c0 0 74.95 23 135.84 40.33s79.64 20.58 100.38 26.27 28.11 6.06 43.5 17.68 18.94 12.91 23.42 15.32c5.22 2.82 7.09 4.95 6.56 6.55-1.05 3.12-5.44 6.55-11.24 6.11-6.15-.47-6.7-1.33-6.7-1.33a52.39 52.39 0 016.31 12c2.8 7.47 5.62 16.41 7.08 20.29 1.62 4.3 5.89 11.68 2.68 13-5 2.06-8.09-.34-11.05-4.69-3.84-5.67-6.74-17.29-12.1-26.62s-20.35-23.67-20.35-23.67l-1.06 1s13.39 16.19 16.18 23.07c4 9.72 7.63 17.95 11 24.91s7.22 17.73 6 18.65c-2.26 1.72-6 3-10.71-.67 0 0-.6 6.39-8.7 3.34-6.24-2.37-10.7-11.33-10.7-11.33s-1 5.33-7.37 2.67-15.36-13.3-22.08-18.63-22.75-13.32-31.45-18-22.08-17.62-28.78-26.65-6.3-11-25.42-12.65-81.64-4.66-113.77-8-80-14.9-109.06-30.92-32.93-10.92-32.93-22 2.88-50.15 4.88-82.15 16-114.18 16-114.18l71.05-.94 1.19 6z"/></g><path class="s" d="M392.92 296.48a64.72 64.72 0 00-18.56 24.6m20-20A56.76 56.76 0 00380 320.72m15.05-14.3s-5.61 4.44-9.68 13.58m-151-131.55a118.3 118.3 0 00-25.88 9.29m33.15-6.33s-17.63 3.18-29.92 9.46m36.52-6s-19.28 3.42-26.75 8m33.86-5.3s-15.07 2.91-23.07 6.32m29.52-4.17s-13.33 2.86-19.19 5.24m252.45-9.49s-5 12.26 20.32 15.43m-24.9-13s-5.52 11.69 17.36 15.6m-21.68-13.19s-6.12 10 13.05 14.54m-17.34-11.37s-3.33 8.57 9 12.73m-13.66-9.91s-2.53 6.86 7.59 11.26m37.2-31.81s7.11 2.69 11.33 4.73m-7.29-7.42s8 2.95 18.06 6.87m-13.78-9.55a176.85 176.85 0 0122.36 8.39m-17.23-11.45s11.2 4.16 24.8 8.75M395 253.26s8.72 1.73 24.44 1.73m-24.59 3a134.14 134.14 0 0020.82 1m-20.84 3.63a94.4 94.4 0 0016.55.53M295.75 202.8s5.15 9.08-9.26 13.75m14-11.11s5.44 6.37-7.24 12.92m11.91-9.9s3.22 5.13-5.64 10.14m7.87-8.48s3.39 3.56-3 8.65m6.19-7.66s2.63 3.82-2.5 7.63m166 68.41a18.34 18.34 0 00-4.93-7.73m17.52 56.51s-2.74 1-5.35-4.16m16.21 2.53s-2.44 1.8-5-4.56m17-8.6s-2.5.65-5.24-5.7m5.93-42.9s-2 1.17-7.86-.44m-36.23 55.17s-1.24 1.05-4.71-2.11M274 332.92s2.56 1.51 5.91-4.54m7.74 4.6s1.84 1.18 5.19-3.77m-26.11-15.39s2.21 2 5.53-4m-4.56-32.92s5 2.87 12.31-2.81m22 11.53s.61 1.87 6.74-2.84m-21.92 25.62s2.16 1.25 4.32-5.64m25.92-8.52s2.11.3 7.71-4m6.93 11.46s2 .08 7.23-3m34.8-154.42s12.77 12.84 24 17.17m-24-10.33a64.43 64.43 0 0022.33 15.78m-21.51-9.21a47.43 47.43 0 0019.84 13.91m-18-5.81s7.07 7.48 14.94 10.9m-13-2.9s2.57 4.38 10.05 7.57m-55-33.69s-10.53 11.43-20.8 18.39m20.52-8.89a118.87 118.87 0 01-19.71 17.5m19.72-10.24a126.81 126.81 0 01-17 15.35m19.17-41.83s-11.49 12.64-22.17 18.55M331 174.91a92.54 92.54 0 01-9.76 8.62m146 71a50.46 50.46 0 00-8.34-6.66m5.37 9.08s-5.14-5.1-8.33-7m.91 14.39a34.25 34.25 0 00-8-6.59m5.49 9s-4.22-4.54-8.06-6.62m5.76 9.42s-4.1-5.06-8.22-6.71M328.25 265a25.87 25.87 0 017.51-3.67m-4.87 6.07a31.17 31.17 0 017.05-3.11m-59.71 28.54a58.9 58.9 0 013.43-5M371 205.61s10 7.48 32.31 5.07m35.74 58a48.6 48.6 0 017.58 7.67m-10.53-5.55a36.2 36.2 0 017.29 7.33m-15.29 3.93a33.06 33.06 0 014.23 6.76m18.95 20.1s1 3.91 2.84 4.15m20 2.42s-2.32.5-4-6.3M460.54 297a15.84 15.84 0 00-3.52-6.75m30.68-14.48s-.24-2.53-4.22-7.12m-177.12 57.9s1.61 1.37 4.9-3m-19.43-48.45s.27-2.65 6.06-6.4m54.61 39a131.49 131.49 0 00-9.07 15.8M362 305a72.18 72.18 0 00-11.53 17.47M345 310.63s-4.76 8-8.53 15m1.82-11.23a89.82 89.82 0 00-5.31 9m53.11-94a42.59 42.59 0 01-17.09 8.65m11.25-9.62s-4.89 5.13-14.92 6m33-78.58s-13.5-6.55-26.75-21m97.53 117.82a47.6 47.6 0 00-8.09-6.43m-35 38.21a33.06 33.06 0 014.23 6.76m3.63-18.2a35.33 35.33 0 017 7.19m-114.57-17.15a25.71 25.71 0 017.5-3.68m13.32 36.36a25.71 25.71 0 017.5-3.68m-19.27-9.94a25.71 25.71 0 017.5-3.68m-5.55 5.63a25.87 25.87 0 017.51-3.67m195.55-105.76s11.2 4.16 24.8 8.75m-19.42-10.9s11.2 4.16 24.79 8.75m-97.9 28.15s-2.36 5.77 5.46 9.2m-9.78-6.25s-2.31 4.42 4.25 7.33m-8.12-4s-1.18 3.11 3.41 5.22m-92.63 7.35s-5.59 3.66-16 3.05m9.57-4.35s-5.1 1.23-14.51 1m7-3.46s-3.67 1.77-12.33.86m-14.82-94.84s-11.48 12.64-22.14 18.56m87.4.31s-13.5-6.55-26.74-21m24.12 182.37a27.77 27.77 0 00-6.91 9.92m-1.25-26.91a60 60 0 00-17.16 22.78m-69.93-3.22s2.78 1 5.53-4.84M317.6 314.65s1.5 1.2 5.44-1.18"/><g class="k"><path class="s" d="M486.43 309.42s-2.32.51-4-6.29m19.35-5s-2.33.5-4-6.3M226.3 186.53a118.32 118.32 0 00-25.87 9.29m19.69-11.21a118.75 118.75 0 00-25.87 9.29m19.15-11.4a118.13 118.13 0 00-25.87 9.29m186 19.13a47.39 47.39 0 0022.66 5m154.31-45.63s11.19 4.16 24.79 8.75m-19.42-10.73s11.2 4.16 24.8 8.75M124.91 66.54s13.5-11.87 21.91-16.22m-15.9-16.08s13.5-11.87 21.91-16.24m-24.91 32.3s13.49-11.87 21.91-16.23M133.93 18s13.49-11.85 21.91-16.21M126.76 58.6s13.5-11.87 21.91-16.22m-15.9-16.08s13.5-11.87 21.91-16.23m-24.91 32.31s13.5-11.87 21.91-16.23m-15.9-16.08s13.5-11.86 21.91-16.22m440.47 66.68s17.4 11 24 17m-27-27s21 13.67 28.84 20.88m-31.74-57.9s21 13.67 28.85 20.88m-28.24-3s21 13.67 28.85 20.88M590-5.57s21 13.67 28.85 20.88M595.13 41.9s21 13.67 28.84 20.88M592.26 4.94s21 13.67 28.85 20.88m-28.24-3s21 13.67 28.85 20.88M590-14.14S611-.47 618.85 6.74M341.53 26.43s23.49 6.76 43.29 0m-42.07-4.51s21.66 7.36 39.07.75m-35.48-4.8s18.62 7.21 34.25 0m16.83 9.61s12-2.1 30 1.95 54.09 3.46 54.09 3.46m-79.33-.45s11.15-1.95 26.17 1.65 42.34 4.36 42.34 4.36m-59.49-.75a90.27 90.27 0 0121.66 3c10.51 3 39 3 39 3m-69.64-25.83s14.43-2 28.25 1.8 34 3 34 3M398 11.86s9-2 29.44 1.8 46.28 3.75 46.28 3.75m-68.51 28.1s31.9 6 47.2 4.81m-43.6-.6s15.08 4.2 37.59 4.8m-127.13-24s-32.12 9.61-63.67 1.2m58.87 5.41s-24.59 7.36-49.86 1.35m44.45 4s-13.82 5.41-34.86 1.21M316.29 49a152.47 152.47 0 01-45.65 2.56m37.84 2.4s-13.17 3.91-36.34 2.56m29.73 9.46a116.55 116.55 0 01-38.74 0m46.57-48.11s-30.7 7.51-57.7-.46m61.29 5.86s-23.43 7.67-55.88-.6M231.55 39.5s12 7.21 33.06 8.41m162.28 18s9 6.61 53.46 7.81M429.89 72s5.44 4.21 40.57 5.41M261.63 84s19.25 2.1 31.55-.45m-28.55-12.8a98.94 98.94 0 0028.82.75"/><path class="e" d="M-79.5 392.48v56.57h901.86v-56.57H-79.5z"/><path stroke-width="3.29" stroke-linejoin="bevel" stroke="#5c1f48" fill="none" d="M-79.5 392.48v56.57h901.86v-56.57H-79.5h0z"/></g><path class="j" d="M440.19 290.72s6.45 7.92 11.19 13.2 8.15 11.65 11.67 15.49a31.25 31.25 0 015.79 8.61m-15.26-47.94s9.56 9.38 14.78 16.81 6.95 14.49 10 20.68 10.43 19.07 10.43 19.07m-12.34-80.37s12.67 12.34 18.25 22.57"/><path class="r" d="M270.43 334.55c2.55 4.76 9.94 4.88 13.28 2.89 0 0 4.94 4.57 10.28 1.26a47.37 47.37 0 009.75-8.57s2.75 4.43 7.67 2.35 11.69-9.57 21.7-15.89 18.25-8.27 33.32-14.89c12.67-5.56 17.86-9.11 25.41-17.46m108.57 52.93c-2 2-6.26 4-11.41.67 0 0-1.95 5.72-10.06 2.66-6.26-2.36-9.73-9.65-9.73-9.65s-3 2.82-8.39.66c-6.47-2.57-15.43-13-22.14-18.31s-22.81-13.65-31.54-18.31-22.07-17.33-28.85-26.29c-7.33-9.7-6.32-11-25.5-12.65s-81.79-5.32-114.06-8c-28.21-2.34-82.29-15.71-114.59-33.28A199.63 199.63 0 0098 202.51m414.9 120.92c-6 4.23-11 1.28-13.91-3.05-3.81-5.64-6.69-17.18-12-26.44s-21.18-24.5-21.18-24.5m48.37 3.56c-.77 2.21-3.31 7-10.36 7.25-5.85.2-6.35-1.23-6.35-1.23"/><path class="p" d="M427.8 264.44a3.78 3.78 0 10-3.78-3.78 3.78 3.78 0 003.78 3.78z"/><path class="q" d="M427.8 264.44a3.78 3.78 0 10-3.78-3.78 3.78 3.78 0 003.78 3.78z"/><path class="j" d="M362.77 42.94a571.43 571.43 0 00-9.09 100.63c0 55.28 2.83 68 2.83 68"/></svg>
