<svg xmlns="http://www.w3.org/2000/svg" viewBox="0 0 750 428">
  <defs>
    <clipPath id="a">
      <path fill="none" stroke-width="0" d="M.06 0h749.88v428H.06z"/>
    </clipPath>
    <clipPath id="b">
      <path fill="none" stroke-width="0" d="M.06 0h749.88v428H.06z"/>
    </clipPath>
    <clipPath id="c">
      <path fill="none" stroke-width="0" d="M.06 0h749.88v428H.06z"/>
    </clipPath>
    <clipPath id="d">
      <path fill="none" stroke-width="0" d="M.06 0h749.88v428H.06z"/>
    </clipPath>
    <clipPath id="e">
      <path fill="none" stroke-width="0" d="M.06 0h749.88v428H.06z"/>
    </clipPath>
    <clipPath id="f">
      <path fill="none" stroke-width="0" d="M.06 0h749.88v428H.06z"/>
    </clipPath>
  </defs>
  <g clip-path="url(#a)">
    <path fill="#b07f37" d="M-5.23-4.71V433.2h757.62V-4.71H-5.23z"/>
    <path fill="none" stroke="#000" d="M-5.23-4.71V433.2h757.62V-4.71H-5.23z"/>
    <path fill="#3c2730" d="M17.77 259.01v-90.25l297.64-3.29L317.42-.34l87.87-.16.01 162.65 313.58-.95 4.72 84.1-285.35 8.5-115.28.95-305.2 4.26z"/>
  </g>
  <path fill="#693c21" d="M41.87 195.22v-18.71l240.94-3.4 161.58-3.97H691v21.26l-243.78 2.27h-159.3l-246.05 2.55z"/>
  <path fill="#e0a949" d="M363.1 240.69c44.3 0 80.35-36.04 80.35-80.35s-36.04-80.35-80.35-80.35-80.35 36.04-80.35 80.35 36.04 80.35 80.35 80.35Z"/>
  <path fill="none" stroke="#bb3224" stroke-width="2" d="M363.1 240.69c44.3 0 80.35-36.04 80.35-80.35s-36.04-80.35-80.35-80.35-80.35 36.04-80.35 80.35 36.04 80.35 80.35 80.35Zm21.48-114.91s16.13-10.22 22.68-14.76c6.54-4.54 8.79-6.52 11.06-10.21m-19.84 42.24s7.37-4.25 19.27-9.92c11.91-5.67 13.89-6.52 18.99-7.09m-90.42-7.37-23.81-28.91m1.7 44.22L299 110.45m-15.61 67.18s7.7-.28 15.61-3.12c7.91-2.84 20.1-8.79 20.1-8.79"/>
  <path fill="#693c21" d="M328.17 184.45s-7.79-7.94-9.21-18c-1.42-10.06-1.58-22.39 2.69-28.49 4.27-6.1 11.48-17.15 27.35-19.56 15.87-2.41 31.32 2.98 36.28 7.79 4.96 4.82 4.68 11.48 4.68 11.48s7.23 1.36 8.93 7.37c1.7 6.01-.68 8.65-.68 8.65s6.19.85 8.05 4.82c1.87 3.97-.28 5.24-.28 5.24s6.8 1.97 8.79 8.22c0 0 4.37-1.98 7.37.85s1.7 8.08 1.7 8.08l-3.69 5.1-18-6.24-16.87-21.68-13.04-1.7-11.34-7.94-29.48 9.07.42 15.45 9.21 13.63-12.9-2.15Z"/>
  <path fill="none" stroke="#000" d="M328.17 184.45s-7.79-7.94-9.21-18c-1.42-10.06-1.58-22.39 2.69-28.49 4.27-6.1 11.48-17.15 27.35-19.56 15.87-2.41 31.32 2.98 36.28 7.79 4.96 4.82 4.68 11.48 4.68 11.48s7.23 1.36 8.93 7.37c1.7 6.01-.68 8.65-.68 8.65s6.19.85 8.05 4.82c1.87 3.97-.28 5.24-.28 5.24s6.8 1.97 8.79 8.22c0 0 4.37-1.98 7.37.85s1.7 8.08 1.7 8.08l-3.69 5.1-18-6.24-16.87-21.68-13.04-1.7-11.34-7.94-29.48 9.07.42 15.45 9.21 13.63-12.9-2.15Z"/>
  <g clip-path="url(#b)">
    <path fill="#f0d18a" d="M302.66 391.38s-.14-10.21.71-20.27c.85-10.06 9.07-41.53 13.18-53.43 4.11-11.9 4.96-12.9 7.8-23.24 2.83-10.35 4.96-18.99 4.96-24.38s-1.84-9.65-5.81-14.6c-3.97-4.94-6.52-14-8.93-19.12-2.41-5.12-2.98-6.5-9.07-5.67-6.09.84-29.34 5.51-42.52 9.48-13.18 3.97-30.9 9.07-41.81 12.33-10.91 3.26-19.42 5.39-38.55-1.13-19.13-6.52-34.58-11.92-44.5-17.01-9.92-5.09-19.42-10.63-24.66-10.06-5.24.57-16.72 4.11-25.09 5.81-8.36 1.7-15.73 3.97-20.83 3.97s-10.07-.11-12.02-1.53c-1.95-1.42-1.55-2.83-1.04-3.74 0 0-1.99.11-4.06-.06-2.06-.17-3.4-1.42-3.4-2.83s.85-2.16.85-2.16-1.72.07-3.08-.15c-1.36-.23-1.76-1.04-1.7-2.06.06-1.02 1.02-1.93 3.8-2.1 2.78-.17 7.42-.07 10.34-.28 2.92-.22 5.31-.53 9.73-1.59 4.42-1.06 9.51-2.89 11.53-4.14 0 0-4.46.04-10.49-.43s-13.63-1.96-16.35-2.64c-2.72-.68-5.76-1.43-5.19-3.46.57-2.02 4.17-1.76 7.69-1.42 3.52.34 9.44 2.38 15.76 1.98 6.32-.4 12.87-2.66 17.29-4.99 4.42-2.32 7.37-4.54 7.37-4.54s-1.87-3.57-4.71-5.61c-2.83-2.04-7.31-3.85-8.39-6.52-1.08-2.67-1.28-5.12-.43-6.35.85-1.23 2.7-.68 4.17.51 1.47 1.19 3.32 3.04 5.1 3.64 1.78.61 4.76 2.99 7.54 4.97 2.78 1.99 5.02 2.41 7.43 4.38 2.4 1.97 5.27 3.44 7.82 5.2 2.55 1.76 4.59 4 6.86 5.85 2.27 1.86 7 4.86 15.22 6.62 8.22 1.76 11.72 1.87 21.54 3.78 9.83 1.91 13.56 2.64 18.14 3.49 4.58.85 9.05 1.93 17.76 3.97 8.72 2.04 12.05 2.8 16.3 1.54 4.25-1.26 8.27-3.61 20.27-7.37 12-3.76 19.04-5.88 30.14-8.79 11.1-2.91 14.13-4.46 22.96-7.37 8.98-2.96 14.55-4.39 18.47-7.02 3.92-2.62 7-5.07 11.91-7 4.91-1.93 11.53-3.7 15.83-3.7s8.5.58 8.5.58-3.25-1.43-5.35-3.93c-2.1-2.49-4.48-6.34-5.1-8.79-.62-2.45-.79-6.19-.69-9.96.09-3.77-.71-8.17-.71-8.17s2.84 1.37 6.1.64c3.26-.73 6-2.48 9.85-4.54 3.85-2.05 12.26-3.99 18.35-2.91 6.09 1.08 12.33 5.24 15.52 9 0 0 3.19-1.97 7.51-1.12 4.32.85 6.35 4.39 7.37 5.87 1.02 1.48.71 2.48 2.91 4.75s5.39 5.03 7.94 7.94c2.55 2.91 4.61 5.74 9.92 7.16 5.32 1.42 7.13 1.19 10.58 1.63 3.45.44 10.3 1.35 15.92 4.61 5.62 3.26 7.61 5.87 12.14 9.21 4.54 3.35 6.61 4.25 14.08 6.31 7.46 2.05 15.02 4.52 22.32 6.73 7.3 2.21 21.05 4.89 30.26 6.8 9.21 1.91 14.17 3.19 17.36 3.76s4.61.78 8.72-.07c4.11-.85 8.36-2.48 14.24-3.05 5.88-.57 16.32-1.84 27.66-2.98 11.34-1.13 21.09-2.41 28.61-4.25 7.51-1.84 11.48-2.41 13.89-4.54s5.36-6.5 9.07-9.34c3.71-2.83 9.26-6.25 15.33-9.09s8.9-4.84 10.32-5.95c1.42-1.12 1.99-1.56 1.99-1.56s1.13 1.59 1.13 3.84-1.82 5.65-4.94 7.21c-3.12 1.56-7.37 3.4-7.09 5.53.28 2.13 4.37 3.86 8.2 4.83 3.83.98 11.2.69 15.02.41 3.83-.28 6.78-1.7 9.21-2.13 2.43-.43 4.58-.43 4.98.99.4 1.42-2.15 3.12-6.12 4.25s-13.21 2.13-17.86 2.27c-4.65.14-6.24.72-6.24.72s3.97 1.01 7.94 1.7 7.8.55 12.05.55 8.5-.14 11.2-.28c2.69-.14 6.64-.71 6.8 1.28.17 1.98-4.65 2.83-4.65 2.83s1.96.43 1.96 2.01-2.46 2.61-4.2 2.89c-1.73.28-4.42.74-4.42.74s1.81.34 1.87 2.04c.06 1.7-2.38 2.14-4.25 2.27-1.87.13-12.47 1.25-17.23 1.36-4.76.11-13.97-.47-19.5-.57-5.53-.1-11.62-1.3-15.02-.45-3.4.85-11.23 2.75-20.15 5.58-8.93 2.83-25.09 8.5-33.45 11.05-8.36 2.55-24.09 8.79-31.61 10.63-7.51 1.84-11.62 1.7-17.15.57-5.53-1.13-17.58-2.55-29.05-4.68-11.48-2.13-18.43-5.53-28.77-7.65-10.35-2.13-23.1-5.81-23.1-5.81s.85 5.56.14 13.91c-.71 8.35-1.56 10.61-2.27 15.29s-3.83 13.46-7.37 22.54c-3.54 9.07-13.18 26.22-18 37.7-4.82 11.48-15.17 29.2-14.74 41.53.43 12.33 5.1 25.94 8.64 33.59 3.54 7.65-10.63 95.97-10.63 95.97s-3.54 13.59-5.53 24.08c-1.99 10.49-83.48-1.7-83.48-1.7l-12.76-122.46Z"/>
    <path fill="none" stroke="#000" d="M302.66 391.38s-.14-10.21.71-20.27c.85-10.06 9.07-41.53 13.18-53.43 4.11-11.9 4.96-12.9 7.8-23.24 2.83-10.35 4.96-18.99 4.96-24.38s-1.84-9.65-5.81-14.6c-3.97-4.94-6.52-14-8.93-19.12-2.41-5.12-2.98-6.5-9.07-5.67-6.09.84-29.34 5.51-42.52 9.48-13.18 3.97-30.9 9.07-41.81 12.33-10.91 3.26-19.42 5.39-38.55-1.13-19.13-6.52-34.58-11.92-44.5-17.01-9.92-5.09-19.42-10.63-24.66-10.06-5.24.57-16.72 4.11-25.09 5.81-8.36 1.7-15.73 3.97-20.83 3.97s-10.07-.11-12.02-1.53c-1.95-1.42-1.55-2.83-1.04-3.74 0 0-1.99.11-4.06-.06-2.06-.17-3.4-1.42-3.4-2.83s.85-2.16.85-2.16-1.72.07-3.08-.15c-1.36-.23-1.76-1.04-1.7-2.06.06-1.02 1.02-1.93 3.8-2.1 2.78-.17 7.42-.07 10.34-.28 2.92-.22 5.31-.53 9.73-1.59 4.42-1.06 9.51-2.89 11.53-4.14 0 0-4.46.04-10.49-.43s-13.63-1.96-16.35-2.64c-2.72-.68-5.76-1.43-5.19-3.46.57-2.02 4.17-1.76 7.69-1.42 3.52.34 9.44 2.38 15.76 1.98 6.32-.4 12.87-2.66 17.29-4.99 4.42-2.32 7.37-4.54 7.37-4.54s-1.87-3.57-4.71-5.61c-2.83-2.04-7.31-3.85-8.39-6.52-1.08-2.67-1.28-5.12-.43-6.35.85-1.23 2.7-.68 4.17.51 1.47 1.19 3.32 3.04 5.1 3.64 1.78.61 4.76 2.99 7.54 4.97 2.78 1.99 5.02 2.41 7.43 4.38 2.4 1.97 5.27 3.44 7.82 5.2 2.55 1.76 4.59 4 6.86 5.85 2.27 1.86 7 4.86 15.22 6.62 8.22 1.76 11.72 1.87 21.54 3.78 9.83 1.91 13.56 2.64 18.14 3.49 4.58.85 9.05 1.93 17.76 3.97 8.72 2.04 12.05 2.8 16.3 1.54 4.25-1.26 8.27-3.61 20.27-7.37 12-3.76 19.04-5.88 30.14-8.79 11.1-2.91 14.13-4.46 22.96-7.37 8.98-2.96 14.55-4.39 18.47-7.02 3.92-2.62 7-5.07 11.91-7 4.91-1.93 11.53-3.7 15.83-3.7s8.5.58 8.5.58-3.25-1.43-5.35-3.93c-2.1-2.49-4.48-6.34-5.1-8.79-.62-2.45-.79-6.19-.69-9.96.09-3.77-.71-8.17-.71-8.17s2.84 1.37 6.1.64c3.26-.73 6-2.48 9.85-4.54 3.85-2.05 12.26-3.99 18.35-2.91 6.09 1.08 12.33 5.24 15.52 9 0 0 3.19-1.97 7.51-1.12 4.32.85 6.35 4.39 7.37 5.87 1.02 1.48.71 2.48 2.91 4.75s5.39 5.03 7.94 7.94c2.55 2.91 4.61 5.74 9.92 7.16 5.32 1.42 7.13 1.19 10.58 1.63 3.45.44 10.3 1.35 15.92 4.61 5.62 3.26 7.61 5.87 12.14 9.21 4.54 3.35 6.61 4.25 14.08 6.31 7.46 2.05 15.02 4.52 22.32 6.73 7.3 2.21 21.05 4.89 30.26 6.8 9.21 1.91 14.17 3.19 17.36 3.76s4.61.78 8.72-.07c4.11-.85 8.36-2.48 14.24-3.05 5.88-.57 16.32-1.84 27.66-2.98 11.34-1.13 21.09-2.41 28.61-4.25 7.51-1.84 11.48-2.41 13.89-4.54s5.36-6.5 9.07-9.34c3.71-2.83 9.26-6.25 15.33-9.09s8.9-4.84 10.32-5.95c1.42-1.12 1.99-1.56 1.99-1.56s1.13 1.59 1.13 3.84-1.82 5.65-4.94 7.21c-3.12 1.56-7.37 3.4-7.09 5.53.28 2.13 4.37 3.86 8.2 4.83 3.83.98 11.2.69 15.02.41 3.83-.28 6.78-1.7 9.21-2.13 2.43-.43 4.58-.43 4.98.99.4 1.42-2.15 3.12-6.12 4.25s-13.21 2.13-17.86 2.27c-4.65.14-6.24.72-6.24.72s3.97 1.01 7.94 1.7 7.8.55 12.05.55 8.5-.14 11.2-.28c2.69-.14 6.64-.71 6.8 1.28.17 1.98-4.65 2.83-4.65 2.83s1.96.43 1.96 2.01-2.46 2.61-4.2 2.89c-1.73.28-4.42.74-4.42.74s1.81.34 1.87 2.04c.06 1.7-2.38 2.14-4.25 2.27-1.87.13-12.47 1.25-17.23 1.36-4.76.11-13.97-.47-19.5-.57-5.53-.1-11.62-1.3-15.02-.45-3.4.85-11.23 2.75-20.15 5.58-8.93 2.83-25.09 8.5-33.45 11.05-8.36 2.55-24.09 8.79-31.61 10.63-7.51 1.84-11.62 1.7-17.15.57-5.53-1.13-17.58-2.55-29.05-4.68-11.48-2.13-18.43-5.53-28.77-7.65-10.35-2.13-23.1-5.81-23.1-5.81s.85 5.56.14 13.91c-.71 8.35-1.56 10.61-2.27 15.29s-3.83 13.46-7.37 22.54c-3.54 9.07-13.18 26.22-18 37.7-4.82 11.48-15.17 29.2-14.74 41.53.43 12.33 5.1 25.94 8.64 33.59 3.54 7.65-10.63 95.97-10.63 95.97s-3.54 13.59-5.53 24.08c-1.99 10.49-83.48-1.7-83.48-1.7l-12.76-122.46Z"/>
  </g>
  <path fill="none" stroke="#dfb971" stroke-width="10" d="m516.88 221.36-51.17-12.77c-2.57-.52-16.65-3.67-22.13-9.48m-75.29 40.86c2.02-1.49 3.34-5.4 3.64-10.71.67-12.1-3.89-25.89-7.18-28.93m28.79 34.55c-8.78-9.81-9.53-28.84-1.53-38.41m-179.82 32.65c32.83-9.49 88.64-26.12 93.6-30.78m-2.24-2.99c.08.18 8.3 18.49 14.91 31.7 6.28 12.57 18.42 18.93 33.3 17.46 16.24-1.61 22.06-6.81 26.75-11l2.36-2.11 3.1 1.08c.13.06 13.28 5.56 23.59 5.63 13.05.08 23.01-5.89 30.23-11.1 3.62-2.61 6.61-9.68 7.12-16.8.43-6.04-.93-11.2-3.65-13.81m-241.77 34.65c-.22-.05-22.53-5.11-42.32-8.75-7.56-1.39-13.64-2.3-18.53-3.03-8.83-1.32-13.7-2.04-17.31-4.06m411.61 9.65c1.98.79 6.57 1.18 17.24-1.49 3.57-.89 12.56-1.67 22.08-2.5 20.04-1.74 44.98-3.9 57.03-9.43m-187.68-14.65c-.23-.27-6.34-7.15-17.66-8.45-13.43-1.54-16.53-2.13-16.84-2.19"/>
  <path fill="#f0d18a" d="M373.74 208.41s-1.98 4.94-1.15 13.18c.82 8.24 4.04 10.8 8.16 10.64 4.12-.16 6.75-5.13 6.1-12.05-.66-6.92-3.39-12.76-3.39-12.76l-9.72.99Z"/>
  <path fill="none" stroke="#dba34c" stroke-width="8" d="M358.52 195.16c1.92 1.47 3.6 2.89 5.19 4.23 1.9 1.6 3.69 3.12 5.6 4.45 3.74 2.61 8.01 4.29 11.14 4.39 4.23.13 5.21-.09 5.81-.64l.03-.03-1.02-3.59 5.16-.13c.48-.03 1.23-.26 1.41-.45l.43-.47c1.32-1.43 1.77-2 1.77-3.42v-1.58c.02-2.37.02-3.38-.28-4.54l-.32-1.26.48-1.2c.3-.77 1.13-3.19 1.26-4.99.13-1.69-.84-3.64-1.37-3.97l-2.25-1.2.14-2.54c.07-1.52-.3-4.12-1.17-5.04-1.43-1.5-4.77-3.27-6.54-4.03l-1.6-.69-.59-1.64s-1.22-3.4-1.82-5.25c-.48-1.48-2.71-4.9-4.07-6.75"/>
  <path fill="#ffe6a3" d="M308.61 388.8s-1.13-19.26 7.65-43.34c8.79-24.08 13-42.25 24.59-58.68s12.64-16.16 23.36-23.81c10.73-7.65 13.84-9.92 13.84-9.92s4.3 4.54 11.65 10.49c7.35 5.95 15.05 14.17 15.59 28.63.54 14.46-.31 24.65-3.71 38.27-3.4 13.62-4.8 37.13-4.8 37.13s7.35 8.32 6.5 19.84"/>
  <path fill="none" stroke="#ca9a42" stroke-width="2" d="M308.61 388.8s-1.13-19.26 7.65-43.34c8.79-24.08 13-42.25 24.59-58.68s12.64-16.16 23.36-23.81c10.73-7.65 13.84-9.92 13.84-9.92s4.3 4.54 11.65 10.49c7.35 5.95 15.05 14.17 15.59 28.63.54 14.46-.31 24.65-3.71 38.27-3.4 13.62-4.8 37.13-4.8 37.13s7.35 8.32 6.5 19.84"/>
  <path fill="#ffe6a3" d="M311.16 388.8s-1.7-18.11 5.39-36.82 17.08-31.18 28.28-37.7c11.2-6.52 21.61-7.51 27.56-3.97 5.95 3.54 21.54 16.44 21.83 31.46.28 15.02-1.13 24.09-1.13 24.09"/>
  <path fill="none" stroke="#ca9a42" stroke-width="2" d="M311.16 388.8s-1.7-18.11 5.39-36.82 17.08-31.18 28.28-37.7c11.2-6.52 21.61-7.51 27.56-3.97 5.95 3.54 21.54 16.44 21.83 31.46.28 15.02-1.13 24.09-1.13 24.09"/>
  <path fill="#ffe6a3" d="M311.75 387.12s-.54-16.46 9.92-22.68c10.46-6.22 25.33-2.52 32.85 6.44"/>
  <path fill="none" stroke="#ca9a42" stroke-width="2" d="M311.75 387.12s-.54-16.46 9.92-22.68c10.46-6.22 25.33-2.52 32.85 6.44"/>
  <path fill="#ffe6a3" d="M360.31 370.89s3.57-7.67 12.08-10.03c8.5-2.36 18.19-.02 24.4 6.56"/>
  <path fill="none" stroke="#ca9a42" stroke-width="2" d="M360.31 370.89s3.57-7.67 12.08-10.03c8.5-2.36 18.19-.02 24.4 6.56m-18.73-114.09s-1.02 4.82-5.67 12.47-9.21 29.17-11.84 41.99m1.06.1s-4.14 6.39-6.66 19.99c-2.52 13.61-6.8 31.59-4.57 39.4"/>
  <path fill="none" stroke="#dba34c" stroke-width="8" d="M372.92 206.75c.53-.15 12.97-3.81 17.01-15.57l.61-1.78-.98-1.61c-.08-.13-8.16-13.48-8.78-23.55"/>
  <path fill="none" stroke="#dba34c" stroke-width="5" d="M360.48 194.97s-4.84-4.18-6.31-7.94c-1.99-5.11-1.63-10.77-9.28-13.89"/>
  <path fill="none" stroke="#ca9a42" d="M347.03 176.48s.67 2.09-.3 4.21c-.97 2.13-2.62 3.83-3.97 2.84-1.35-.99-1.21-1.7-1.21-1.7"/>
  <path fill="none" stroke="#b97d1b" stroke-width="3" d="M340.07 182.77c.4.16 3.94 1.62 5.55 3.55 1.25 1.5 7.1 7.54 11.38 10.82 1.89 1.45 3.53 2.84 5.1 4.16 1.95 1.64 3.78 3.19 5.78 4.59 4.18 2.91 8.85 4.72 12.49 4.83 4.48.14 6.2-.03 7.58-1.3.8-.74 1.02-1.22 1.07-1.39-.16-.55-.32-1.1-.47-1.65l1.94-.05c.58-.02 2.31-.29 3.2-1.28l.42-.46c1.36-1.48 2.43-2.65 2.43-5.11v-1.56c.02-2.27.03-3.65-.35-5.17l-.12-.47.18-.45s1.24-3.16 1.43-5.72c.18-2.44-1.12-5.53-2.68-6.36l-.84-.45.05-.96c.07-1.31-.14-5.1-1.86-6.9-2.3-2.42-7.32-4.58-7.37-4.6l-.78-.33-.12-.84c-.19-1.35-.74-3.59-1.4-4.33-2.47-2.76-6.08-4.56-6.11-4.58"/>
  <path fill="none" stroke="#000" d="M339.51 184.16s3.54 1.43 4.96 3.12c1.42 1.7 7.37 7.79 11.62 11.05 4.25 3.26 7.27 6.24 10.94 8.79 3.66 2.55 8.76 4.96 13.3 5.1 4.54.14 6.8 0 8.65-1.7 1.84-1.7 1.56-2.69 1.56-2.69s2.74-.07 4.27-1.77c1.54-1.7 3.24-3.23 3.24-6.57s.12-5.05-.4-7.1c0 0 1.32-3.33 1.54-6.16.21-2.84-1.21-6.59-3.47-7.8 0 0 .28-5.33-2.27-8.01-2.55-2.68-7.87-4.94-7.87-4.94s-.52-3.7-1.77-5.13c-3.4-3.86-8.79-6.13-8.79-6.13"/>
  <path fill="#3a302a" d="M350.92 161.06s2.2-.58 4.82-2.2c2.62-1.61 3.26-2.46 3.26-2.46s4.61-.94 6.95-1.58 3.12.72 3.12.72-1.7-.87-3.05-.23c-1.35.64-6.45 2.21-6.45 2.21s-3.5 3.95-7.94 5.44l-.71-1.91Zm-11.6 20.85s-1.16-1.29-1.16-2.99c0 0 1.42-1.77 3.19-4.32 1.77-2.55 2.91-4.25 2.91-4.25l2.2.79s-.73 1.47-2.91 4.59c-2.17 3.12-4.23 3.9-4.23 3.9v2.28Z"/>
  <path fill="none" stroke="#000" d="M365.09 177.72s1.37-.43 3.68.64c0 0-2.12 1.99-2.98 3.83-.86 1.84-3.12 4.75-5.24 4.68-2.13-.07-4.21-1.64-5.39-4.61-1.18-2.97-1.75-6.46-3.73-7.93-1.98-1.47-3.92-2.69-5.06-3.05"/>
  <path fill="none" stroke="#3a302a" d="M341.23 181.06s3.21-2.5 5.39-5.76"/>
  <path fill="none" stroke="#ca9a42" stroke-width="2" d="M370.22 164.25s-3.22 3.77-7.12 3.77-6.73-2.21-6.73-2.21"/>
  <path fill="none" stroke="#3a302a" d="M368.21 160.35s-9.17 3.71-12.26 5.41"/>
  <path fill="none" stroke="#ba8044" d="M366.79 183.22s3.76 1.1 8.36 1.1 7.13 1.48 12.12 5.66"/>
  <path fill="none" stroke="#000" d="M361.69 188.2s1.32 1.98 2.06 6.09c.73 4.11 3.12 7.37 3.12 7.37m-.78-16.3s2.98 1.18 7.87 1.18 6.17.88 8.43 1.94m-3.73-.56s-2.57.57-5.07 0c0 0-2.58 3.39-7.68 6.58 0 0-.54 2.19 0 4.82"/>
  <path fill="none" stroke="#3a302a" d="M368.39 197.5s4.71-2.33 7.54-5.95"/>
  <path fill="none" stroke="#693c21" d="M371.96 203.79s-.98-1.98-.49-4.96c0 0 3.84-2.38 4.86-4.73 0 0 4.21-.35 7.12.84"/>
  <path fill="none" stroke="#ba8044" d="M364.59 192.81s3.12-2.33 5.07-4.88"/>
  <path fill="none" stroke="#000" d="M381.81 202.52s3.47 5.3 9.14 5.24m-4.09-9.35s6.47 5.11 11.46-1.47m-8.43-5.39s5.86 3.2 9.07-3.93m-10.28-3.74s6.9 2.34 8.95-4.04m-6.76 8.09s6.87 1.73 7.84-5.45m-10.2 12.74s6.82 2.86 9.16-2.91m-15.1 7.44s4.39 3.61 8.65 3.26 6.27-2.57 6.88-4.3m-21 8.71v.28s.75 4.82 7.03 4.54m-3.75-6.99s2.85 5.69 9.26 4.35m-2.06-29.34s2.67 1.9 5.65.35c2.98-1.55 2.7-3.9 2.7-3.9m-9.17-.76c-.21 0 2.66 2.52 5.87 1.61 3.2-.91 2.35-4.25 2.35-4.25m-17.87 5.32s3.84 1.16 6.25 4.53c2.41 3.38 4.61 5.85 6.95 6.52"/>
  <g fill="none" clip-path="url(#c)">
    <path stroke="#000" d="M330.46 183.22s-5.65-5.98-7.37-12.43c-1.72-6.45-2.1-11.59-1.98-15.4.12-3.81.85-7.37.85-7.37m3.24 3.84s-4.84-4.63-6.24-7.56"/>
    <path stroke="#b97d1b" stroke-linejoin="round" stroke-width="4" d="M685.94 218.7c0-.14.08-.3.13-.35-.02.02-.48.41-2.53.56-.52.04-1.68.15-3.21.29-3.94.37-10.53.99-13.93 1.07-2.82.07-7.29-.12-11.62-.3-2.84-.12-5.61-.23-7.8-.27-1.97-.03-4.03-.22-6.03-.39-3.62-.32-7.04-.62-9.51 0l-.81.2c-3.61.9-11.13 2.77-19.47 5.42-4.01 1.27-9.47 3.11-15.03 4.99-6.79 2.29-13.81 4.66-18.4 6.06-3.55 1.08-8.31 2.79-13.34 4.59-6.83 2.44-13.89 4.97-18.16 6.02-7.34 1.8-11.09 1.61-16.27.55-2.61-.54-6.62-1.13-11.26-1.82-5.48-.81-11.7-1.73-17.83-2.87-6.03-1.12-10.85-2.61-15.52-4.06-4.08-1.27-8.31-2.58-13.21-3.59-10.15-2.08-22.82-5.74-22.95-5.77-.66-.19-1.36-.03-1.87.42-.51.45-.76 1.13-.66 1.8 0 .05.8 5.46.13 13.43-.48 5.61-1.01 8.4-1.53 11.1-.25 1.29-.49 2.55-.72 4.06-.58 3.83-3.02 11.27-7.26 22.11-1.77 4.52-5.09 11.11-8.61 18.09-3.43 6.81-6.98 13.85-9.38 19.56-1.13 2.7-2.59 5.78-4.13 9.04-5.2 10.99-11.1 23.46-10.76 33.33.42 12.18 4.84 25.74 8.83 34.36 2.39 5.17-5.35 60.9-10.79 94.81 0-.05-3.54 13.59-5.52 24.02 0 .05-1.36 4.74-40.35 1.46-17.1-1.44-34.22-3.81-39.34-4.55-4.2-40.3-8.4-80.6-12.59-120.91 0 .08-.12-10.05.71-19.89.84-9.89 8.99-41.12 13.08-52.95 1.38-4.01 2.4-6.78 3.24-9.08 1.68-4.59 2.69-7.36 4.59-14.29 3.11-11.34 5.03-19.46 5.03-24.91s-1.87-10.39-6.25-15.85c-2.53-3.15-4.51-8.3-6.27-12.84-.83-2.16-1.62-4.2-2.41-5.88-2.65-5.62-3.97-7.78-11.15-6.8-5.88.81-29.33 5.48-42.83 9.55-7.45 2.24-16.34 4.85-24.64 7.27-6.39 1.87-12.42 3.64-17.17 5.06-11.26 3.36-19.08 5.11-37.33-1.11-19.06-6.5-34.42-11.86-44.24-16.89-1.47-.75-2.93-1.52-4.37-2.27-8.77-4.59-16.35-8.55-21.42-8-3.43.37-9.15 1.83-15.21 3.37-3.48.89-7.01 1.79-10.1 2.47-.63.14-1.21.28-1.79.42-1.23.3-2.49.6-4.34.93"/>
  </g>
  <path fill="none" stroke="#000" d="M319.97 145.61s9.22-1.56 19.35-4.39c10.13-2.83 19.18-4.36 27.54-5.51 8.36-1.15 19.11-1.58 22.96 1.69m-66.45 11.62s15.81-3.37 26.88-5.94c11.08-2.57 29.33-5.41 36.01-4.13 6.68 1.28 9.23 4.07 9.94 6.52.71 2.45.33 5.79-.54 7.8m-36.45-8.36s9.35-1.13 17.86-1.99c8.5-.85 16.56-.14 19.28 4.25m-28.75.75s5.5-.76 12.31-1.44c6.8-.68 14.57.54 16.3 5.1m-23.95.18s4.82-1.33 9.85-1.75c5.03-.43 14.93 2.39 18.64 6.13 3.71 3.74 2.98 7.36 1.42 9.33m-17.15-12.01s4.39.07 9.21 1.93c4.82 1.86 9.71 6.24 9.71 6.24m-15.1-4.14s11.48 2.55 14.03 6.12m-11.62-1.6s3.68.73 8.93 2.46c5.24 1.73 12.9 4.14 13.18 10.57m-16.9-7.73s4.05.76 9.41 2.44 7.09 2.8 7.09 2.8m-11.5-.27s3.69 1.33 9.78 2.39c6.1 1.07 7.63-.17 9.78 1.66 2.15 1.83.32 4 .32 4m-99.31-32.4c.38-3.02 1.33-6.31 2.72-9.38 1.96-4.32 4.79-8.21 8.1-10.37 5.67-3.68 16.15-8.66 30.26-6.94 14.11 1.72 19.07 5.39 21.48 7.8s2.83 7.09 2.83 7.09m-62.5 2.83s8.44-1.28 19.28-3.54c10.83-2.27 20.71-2.98 27.93-3.54 7.22-.57 14.17 0 14.17 0m-59.24 2.83s16.82-4.54 27.68-6.24c10.87-1.7 24.83-1.67 29.01.16m-53.29 1.83s11.47-6.66 25.27-6.66 21.24.71 21.24.71"/>
  <path fill="none" stroke="#b97d1b" stroke-width="2" d="M216.48 221.01s-5.67 5.1-4.25 11.9c1.42 6.8 7.99 9.06 14.48 7.65 6.5-1.4 22.37-5.67 32.01-8.22 9.64-2.55 17.27-3.98 26.64-7.09 9.38-3.1 18.12-4.25 24.38 1.42 6.26 5.67 11.95 13.92 16.18 16.74 4.23 2.82 13.02 7.91 27.19 5.37 14.17-2.53 17.29-3.12 21.54-6.24s7.37-6.24 7.37-6.24 4.25 2.55 12.19 4.54c7.94 1.98 17.57 3.43 28.35-.27 10.77-3.7 17.86-10.22 26.36-13.05 8.5-2.84 15.87-.58 26.93 1.98 11.06 2.57 27.5 6.8 34.02 4.25 6.52-2.55 8.22-9.61 7.09-13.02-1.13-3.42-4.82-7.09-4.82-7.09m-210.33-17.01s6.8 11.92 22.68 11.34c15.87-.58 22.39-3.13 25.8-3.98m51.02 0s9.9 4.82 20.41.28c10.51-4.53 14.17-8.79 22.39-5.38m-70.58 44.52s5.1 3.09 10.77.84 6.52-4.54 6.52-4.54m4.56 12.76s22.37 2.3 35.13-6.8c12.29-8.77 15.9-15.59 15.9-15.59m-48.78 31.18s18.71 2.02 30.05-5.39c10.12-6.61 19.56-20.69 19.56-20.69m-45.64 34.58s20.55 1.73 30.05-6.5c8.64-7.49 15.59-21.28 15.59-21.28m-35.43 35.89s14.22-1.13 23.27-11.34c9.05-10.2 11.88-18.6 11.88-18.6m-33.14 38.27s13.16-2.94 22.65-13.61c9-10.11 8.79-15.31 8.79-15.31m-33.45 39.12s9.21-2.8 16.44-9.05c6.68-5.78 13.89-17.59 13.89-17.59m-95.24-14.17s-24.66 1.13-29.2-19.56m23.81 24.94s-15.28-1.24-22.11-14.28m28.63 19.4s-14.17 2.28-22.39-8.49m212.6-38.87s-7.37 2.27-6.24 8.79 12.47 10.8 29.76 5.97c17.29-4.84 38.27-12.06 50.46-16.6 12.19-4.54 12.9-4.39 18.28-8.35 5.39-3.95 8.42-15.19 15.17-18.14"/>
  <path fill="none" stroke="#000" d="M657.84 211.09s17.57 3.4 34.87 0m-35.72 5.67s10.49 1.42 29.48 0m-638.79 7.09s14.32.14 19.28-.85c4.96-.99 13.18-3.4 13.18-3.4m-26.08 9.21s10.35.43 16.02-.42 11.48-2.41 11.48-2.41"/>
  <path fill="none" stroke="#b97d1b" stroke-linejoin="round" stroke-width="4" d="M48.35 207.44c-.01.05-.06.11-.08.13.7-.57 4.29-.22 5.65-.09 1.03.1 2.35.37 3.88.69 3.41.71 7.65 1.59 12.2 1.3 5.81-.37 12.58-2.31 18.1-5.21 4.51-2.37 7.51-4.61 7.64-4.71.78-.59 1.03-1.66.57-2.53-.09-.16-2.13-4.02-5.31-6.31-.88-.63-1.91-1.25-2.96-1.87-1.99-1.18-4.24-2.52-4.75-3.77-.9-2.22-.89-3.71-.72-4.27.27.06.77.27 1.35.74.31.25.64.53.98.83 1.4 1.2 2.98 2.56 4.73 3.15 1.1.38 3.27 1.96 5.18 3.37.61.45 1.23.91 1.84 1.34 1.43 1.02 2.75 1.67 3.9 2.25 1.24.62 2.32 1.15 3.42 2.05 1.59 1.3 3.34 2.38 5.04 3.43.99.61 1.98 1.22 2.92 1.87 1.45 1 2.79 2.23 4.08 3.42.87.8 1.74 1.6 2.64 2.34 2.22 1.82 7.26 5.14 16.07 7.02 4.39.94 7.5 1.42 10.79 1.93 3.04.47 6.18.96 10.79 1.86 9.84 1.92 13.57 2.64 18.16 3.49 3.97.74 7.97 1.68 14.61 3.23l3.06.72c8.86 2.07 12.53 2.93 17.32 1.51 1.76-.52 3.45-1.21 5.58-2.07 3.17-1.29 7.51-3.05 14.72-5.31 12.33-3.86 19.23-5.93 30.05-8.76 7.68-2.01 11.56-3.39 16.05-4.98 2.06-.73 4.25-1.51 7.03-2.42 1.82-.6 3.51-1.14 5.06-1.64 6.35-2.03 10.54-3.37 13.9-5.61.74-.49 1.45-.98 2.15-1.46 3.01-2.07 5.6-3.85 9.38-5.34 4.37-1.72 10.95-3.56 15.09-3.56s8.19.56 8.23.56c.99.14 1.92-.48 2.2-1.43.27-.96-.2-1.97-1.11-2.38-.03-.01-2.87-1.29-4.63-3.39-2.14-2.54-4.2-6.06-4.7-7.99-.51-2.01-.74-5.35-.63-9.42.05-1.89-.11-3.89-.3-5.49 1.19.17 2.62.2 4.12-.14 2.92-.65 5.41-2.02 8.29-3.6.65-.36 1.34-.74 2.06-1.12 3.29-1.76 11.26-3.73 17.06-2.7 5.62.99 11.47 4.94 14.34 8.33.64.75 1.73.93 2.58.41.01 0 2.63-1.53 6.08-.86 3.16.62 4.83 3.13 5.83 4.62l.28.41c.25.36.38.68.56 1.13.39.96.88 2.15 2.55 3.88.84.87 1.83 1.81 2.86 2.8 1.71 1.63 3.47 3.32 5.01 5.06l.66.76c2.37 2.74 4.81 5.56 10.25 7.01 3.98 1.06 6.17 1.25 8.28 1.43.8.07 1.62.14 2.56.26 3.19.41 9.83 1.26 15.17 4.35 3.39 1.96 5.41 3.69 7.55 5.52 1.31 1.12 2.67 2.29 4.41 3.57 4.72 3.49 6.93 4.48 14.73 6.63 5.11 1.41 10.34 3.03 15.39 4.6 2.31.72 4.61 1.43 6.88 2.12 6.21 1.88 17 4.09 25.66 5.87l4.77.98c4.67.97 8.25 1.78 11.06 2.41 2.75.62 4.77 1.07 6.36 1.36 3.39.6 5.07.83 9.47-.08 1.4-.29 2.81-.67 4.29-1.06 2.93-.78 5.97-1.59 9.74-1.95 2.66-.26 6.26-.66 10.46-1.13 5.07-.57 11.01-1.23 17.21-1.85 13.26-1.33 22.17-2.65 28.88-4.3 1.41-.35 2.69-.65 3.86-.92 5.33-1.25 8.54-2 10.88-4.06 1.07-.94 2.19-2.24 3.37-3.6 1.66-1.91 3.53-4.08 5.59-5.65 3.95-3.02 9.55-6.33 14.96-8.86 5.04-2.35 7.87-4.27 9.56-5.42.38-.26.7-.48.98-.65.41-.26 1.54-.94 1.54-.94"/>
  <path fill="none" stroke="#b97d1b" stroke-width="2" d="M195.22 222.72s6.52 4.82 5.67 10.91c-.85 6.09-4.96 11.91-17.57 8.65s-41.81-12.61-51.02-20.98c-9.21-8.36-14.32-16.11-21.4-21.79"/>
  <g clip-path="url(#d)">
    <path fill="none" stroke="#000" d="M94.38 197.7s1.63-1.28 3.97-1.28m-.78 4.54s-2.55-1.39-3.12-2.89m208.21 193.31s-.14-10.21.71-20.27c.85-10.06 9.07-41.53 13.18-53.43 4.11-11.9 4.96-12.9 7.8-23.24 2.83-10.35 4.96-18.99 4.96-24.38s-1.84-9.65-5.81-14.6c-3.97-4.94-6.52-14-8.93-19.12-2.41-5.12-2.98-6.5-9.07-5.67-6.09.84-29.34 5.51-42.52 9.48-13.18 3.97-30.9 9.07-41.81 12.33-10.91 3.26-19.42 5.39-38.55-1.13-19.13-6.52-34.58-11.92-44.5-17.01-9.92-5.09-19.42-10.63-24.66-10.06-5.24.57-16.72 4.11-25.09 5.81-8.36 1.7-15.73 3.97-20.83 3.97s-10.07-.11-12.02-1.53c-1.95-1.42-1.55-2.83-1.04-3.74 0 0-1.99.11-4.06-.06-2.06-.17-3.4-1.42-3.4-2.83s.85-2.16.85-2.16-1.72.07-3.08-.15c-1.36-.23-1.76-1.04-1.7-2.06.06-1.02 1.02-1.93 3.8-2.1 2.78-.17 7.42-.07 10.34-.28 2.92-.22 5.31-.53 9.73-1.59 4.42-1.06 9.51-2.89 11.53-4.14 0 0-4.46.04-10.49-.43s-13.63-1.96-16.35-2.64c-2.72-.68-5.76-1.43-5.19-3.46.57-2.02 4.17-1.76 7.69-1.42 3.52.34 9.44 2.38 15.76 1.98 6.32-.4 12.87-2.66 17.29-4.99 4.42-2.32 7.37-4.54 7.37-4.54s-1.87-3.57-4.71-5.61c-2.83-2.04-7.31-3.85-8.39-6.52-1.08-2.67-1.28-5.12-.43-6.35.85-1.23 2.7-.68 4.17.51 1.47 1.19 3.32 3.04 5.1 3.64 1.78.61 4.76 2.99 7.54 4.97 2.78 1.99 5.02 2.41 7.43 4.38 2.4 1.97 5.27 3.44 7.82 5.2 2.55 1.76 4.59 4 6.86 5.85 2.27 1.86 7 4.86 15.22 6.62 8.22 1.76 11.72 1.87 21.54 3.78 9.83 1.91 13.56 2.64 18.14 3.49 4.58.85 9.05 1.93 17.76 3.97 8.72 2.04 12.05 2.8 16.3 1.54 4.25-1.26 8.27-3.61 20.27-7.37 12-3.76 19.04-5.88 30.14-8.79 11.1-2.91 14.13-4.46 22.96-7.37 8.98-2.96 14.55-4.39 18.47-7.02 3.92-2.62 7-5.07 11.91-7 4.91-1.93 11.53-3.7 15.83-3.7s8.5.58 8.5.58-3.25-1.43-5.35-3.93c-2.1-2.49-4.48-6.34-5.1-8.79-.62-2.45-.79-6.19-.69-9.96.09-3.77-.71-8.17-.71-8.17s2.84 1.37 6.1.64c3.26-.73 6-2.48 9.85-4.54 3.85-2.05 12.26-3.99 18.35-2.91 6.09 1.08 12.33 5.24 15.52 9 0 0 3.19-1.97 7.51-1.12 4.32.85 6.35 4.39 7.37 5.87 1.02 1.48.71 2.48 2.91 4.75s5.39 5.03 7.94 7.94c2.55 2.91 4.61 5.74 9.92 7.16 5.32 1.42 7.13 1.19 10.58 1.63 3.45.44 10.3 1.35 15.92 4.61 5.62 3.26 7.61 5.87 12.14 9.21 4.54 3.35 6.61 4.25 14.08 6.31 7.46 2.05 15.02 4.52 22.32 6.73 7.3 2.21 21.05 4.89 30.26 6.8 9.21 1.91 14.17 3.19 17.36 3.76s4.61.78 8.72-.07c4.11-.85 8.36-2.48 14.24-3.05 5.88-.57 16.32-1.84 27.66-2.98 11.34-1.13 21.09-2.41 28.61-4.25 7.51-1.84 11.48-2.41 13.89-4.54s5.36-6.5 9.07-9.34c3.71-2.83 9.26-6.25 15.33-9.09s8.9-4.84 10.32-5.95c1.42-1.12 1.99-1.56 1.99-1.56s1.13 1.59 1.13 3.84-1.82 5.65-4.94 7.21c-3.12 1.56-7.37 3.4-7.09 5.53.28 2.13 4.37 3.86 8.2 4.83 3.83.98 11.2.69 15.02.41 3.83-.28 6.78-1.7 9.21-2.13 2.43-.43 4.58-.43 4.98.99.4 1.42-2.15 3.12-6.12 4.25s-13.21 2.13-17.86 2.27c-4.65.14-6.24.72-6.24.72s3.97 1.01 7.94 1.7 7.8.55 12.05.55 8.5-.14 11.2-.28c2.69-.14 6.64-.71 6.8 1.28.17 1.98-4.65 2.83-4.65 2.83s1.96.43 1.96 2.01-2.46 2.61-4.2 2.89c-1.73.28-4.42.74-4.42.74s1.81.34 1.87 2.04c.06 1.7-2.38 2.14-4.25 2.27-1.87.13-12.47 1.25-17.23 1.36-4.76.11-13.97-.47-19.5-.57-5.53-.1-11.62-1.3-15.02-.45-3.4.85-11.23 2.75-20.15 5.58-8.93 2.83-25.09 8.5-33.45 11.05-8.36 2.55-24.09 8.79-31.61 10.63-7.51 1.84-11.62 1.7-17.15.57-5.53-1.13-17.58-2.55-29.05-4.68-11.48-2.13-18.43-5.53-28.77-7.65-10.35-2.13-23.1-5.81-23.1-5.81s.85 5.56.14 13.91c-.71 8.35-1.56 10.61-2.27 15.29s-3.83 13.46-7.37 22.54c-3.54 9.07-13.18 26.22-18 37.7-4.82 11.48-15.17 29.2-14.74 41.53.43 12.33 5.1 25.94 8.64 33.59 3.54 7.65-10.63 95.97-10.63 95.97s-3.54 13.59-5.53 24.08c-1.99 10.49-83.48-1.7-83.48-1.7l-12.76-122.46Zm0 0s-.14-10.21.71-20.27c.85-10.06 9.07-41.53 13.18-53.43 4.11-11.9 4.96-12.9 7.8-23.24 2.83-10.35 4.96-18.99 4.96-24.38s-1.84-9.65-5.81-14.6c-3.97-4.94-6.52-14-8.93-19.12-2.41-5.12-2.98-6.5-9.07-5.67-6.09.84-29.34 5.51-42.52 9.48-13.18 3.97-30.9 9.07-41.81 12.33-10.91 3.26-19.42 5.39-38.55-1.13-19.13-6.52-34.58-11.92-44.5-17.01-9.92-5.09-19.42-10.63-24.66-10.06-5.24.57-16.72 4.11-25.09 5.81-8.36 1.7-15.73 3.97-20.83 3.97s-10.07-.11-12.02-1.53c-1.95-1.42-1.55-2.83-1.04-3.74 0 0-1.99.11-4.06-.06-2.06-.17-3.4-1.42-3.4-2.83s.85-2.16.85-2.16-1.72.07-3.08-.15c-1.36-.23-1.76-1.04-1.7-2.06.06-1.02 1.02-1.93 3.8-2.1 2.78-.17 7.42-.07 10.34-.28 2.92-.22 5.31-.53 9.73-1.59 4.42-1.06 9.51-2.89 11.53-4.14 0 0-4.46.04-10.49-.43s-13.63-1.96-16.35-2.64c-2.72-.68-5.76-1.43-5.19-3.46.57-2.02 4.17-1.76 7.69-1.42 3.52.34 9.44 2.38 15.76 1.98 6.32-.4 12.87-2.66 17.29-4.99 4.42-2.32 7.37-4.54 7.37-4.54s-1.87-3.57-4.71-5.61c-2.83-2.04-7.31-3.85-8.39-6.52-1.08-2.67-1.28-5.12-.43-6.35.85-1.23 2.7-.68 4.17.51 1.47 1.19 3.32 3.04 5.1 3.64 1.78.61 4.76 2.99 7.54 4.97 2.78 1.99 5.02 2.41 7.43 4.38 2.4 1.97 5.27 3.44 7.82 5.2 2.55 1.76 4.59 4 6.86 5.85 2.27 1.86 7 4.86 15.22 6.62 8.22 1.76 11.72 1.87 21.54 3.78 9.83 1.91 13.56 2.64 18.14 3.49 4.58.85 9.05 1.93 17.76 3.97 8.72 2.04 12.05 2.8 16.3 1.54 4.25-1.26 8.27-3.61 20.27-7.37 12-3.76 19.04-5.88 30.14-8.79 11.1-2.91 14.13-4.46 22.96-7.37 8.98-2.96 14.55-4.39 18.47-7.02 3.92-2.62 7-5.07 11.91-7 4.91-1.93 11.53-3.7 15.83-3.7s8.5.58 8.5.58-3.25-1.43-5.35-3.93c-2.1-2.49-4.48-6.34-5.1-8.79-.62-2.45-.79-6.19-.69-9.96.09-3.77-.71-8.17-.71-8.17s2.84 1.37 6.1.64c3.26-.73 6-2.48 9.85-4.54 3.85-2.05 12.26-3.99 18.35-2.91 6.09 1.08 12.33 5.24 15.52 9 0 0 3.19-1.97 7.51-1.12 4.32.85 6.35 4.39 7.37 5.87 1.02 1.48.71 2.48 2.91 4.75s5.39 5.03 7.94 7.94c2.55 2.91 4.61 5.74 9.92 7.16 5.32 1.42 7.13 1.19 10.58 1.63 3.45.44 10.3 1.35 15.92 4.61 5.62 3.26 7.61 5.87 12.14 9.21 4.54 3.35 6.61 4.25 14.08 6.31 7.46 2.05 15.02 4.52 22.32 6.73 7.3 2.21 21.05 4.89 30.26 6.8 9.21 1.91 14.17 3.19 17.36 3.76s4.61.78 8.72-.07c4.11-.85 8.36-2.48 14.24-3.05 5.88-.57 16.32-1.84 27.66-2.98 11.34-1.13 21.09-2.41 28.61-4.25 7.51-1.84 11.48-2.41 13.89-4.54s5.36-6.5 9.07-9.34c3.71-2.83 9.26-6.25 15.33-9.09s8.9-4.84 10.32-5.95c1.42-1.12 1.99-1.56 1.99-1.56s1.13 1.59 1.13 3.84-1.82 5.65-4.94 7.21c-3.12 1.56-7.37 3.4-7.09 5.53.28 2.13 4.37 3.86 8.2 4.83 3.83.98 11.2.69 15.02.41 3.83-.28 6.78-1.7 9.21-2.13 2.43-.43 4.58-.43 4.98.99.4 1.42-2.15 3.12-6.12 4.25s-13.21 2.13-17.86 2.27c-4.65.14-6.24.72-6.24.72s3.97 1.01 7.94 1.7 7.8.55 12.05.55 8.5-.14 11.2-.28c2.69-.14 6.64-.71 6.8 1.28.17 1.98-4.65 2.83-4.65 2.83s1.96.43 1.96 2.01-2.46 2.61-4.2 2.89c-1.73.28-4.42.74-4.42.74s1.81.34 1.87 2.04c.06 1.7-2.38 2.14-4.25 2.27-1.87.13-12.47 1.25-17.23 1.36-4.76.11-13.97-.47-19.5-.57-5.53-.1-11.62-1.3-15.02-.45-3.4.85-11.23 2.75-20.15 5.58-8.93 2.83-25.09 8.5-33.45 11.05-8.36 2.55-24.09 8.79-31.61 10.63-7.51 1.84-11.62 1.7-17.15.57-5.53-1.13-17.58-2.55-29.05-4.68-11.48-2.13-18.43-5.53-28.77-7.65-10.35-2.13-23.1-5.81-23.1-5.81s.85 5.56.14 13.91c-.71 8.35-1.56 10.61-2.27 15.29s-3.83 13.46-7.37 22.54c-3.54 9.07-13.18 26.22-18 37.7-4.82 11.48-15.17 29.2-14.74 41.53.43 12.33 5.1 25.94 8.64 33.59 3.54 7.65-10.63 95.97-10.63 95.97s-3.54 13.59-5.53 24.08c-1.99 10.49-83.48-1.7-83.48-1.7l-12.76-122.46Z"/>
  </g>
  <path fill="#bb3224" d="M650.04 208.4s-1.13 3.4.14 7.23c1.28 3.83 2.6 6.8 1.72 12.47-.88 5.67-1.44 8.79-1.16 13.04s-.57 7.23-1.56 9.5c-.99 2.27-1.13 2.83-1.42 6.38-.28 3.54-1.13 5.39-2.27 5.53 0 0-.28-2.27-.71-4.82-.42-2.55.57-6.24 1.28-9.07.71-2.83.99-7.76.28-10.9-.71-3.13-.57-5.97.57-9.23 1.13-3.26 1.28-5.95.14-9.5-1.13-3.54-.85-7.37.71-10.2l2.27-.43Z"/>
  <path fill="#ffe7c5" d="M647.07 207.27s-2.65 2.98-2.24 7.94c.4 4.96-.45 8.38-1.3 11.21-.85 2.84-.85 5.35-.57 8.35.28 2.99 0 5.67-.85 8.93s-.57 6.38 0 9.07c0 0 .57-5.1 2.13-8.79 1.56-3.69 1.18-5.95.59-10.77-.59-4.82.26-6.38 1.25-9.07.99-2.69.47-6.09.16-9.07-.31-2.98.97-6.52 1.68-7.37l-.85-.42Z"/>
  <path d="M648.67 209.91c1.07 0 1.93-.87 1.93-1.94s-.87-1.94-1.93-1.94a1.94 1.94 0 0 0 0 3.88Z"/>
  <path fill="#ffe7c5" d="M95.87 215.63s-.85 5.81.28 9.64.99 5.67.28 7.23c-.71 1.56-1.42 2.13-1.42 2.13s3.45-1.27 4.13-3.54c.68-2.27-1.3-4.39-1.87-7.94-.57-3.54-.57-8.36-.57-8.36l-.85.85Z"/>
  <path fill="#bb3224" d="M97.85 214.35s.69 4.54 2.41 7.8c1.72 3.26 4.25 8.36 1.84 12.19s-5.53 5.1-6.09 8.65c0 0-.59-2.8 1.98-6.64s3.68-6.39 2.27-10.22c-1.42-3.83-3.54-8.8-3.4-11.34l.99-.43Zm5.96 19.28s2.41 2.27.85 4.96-5.55 3.97-6.24 8.5c0 0-1.42-2.41.43-5.67 1.84-3.26 4.25-5.1 4.96-7.79Zm-4.4 27.78s.28-4.96 2.41-9.78c2.13-4.82 7.25-4.68 5.83-10.63 0 0-4.84 1.28-6.83 5.81-1.98 4.54-4.39 12.2-1.42 14.6Z"/>
  <path fill="#bb3224" d="M104.37 249.79s1.28.98.99 2.98c-.28 2-3.54 5.53-2.41 7.51 1.13 1.98 1.84 3.26.57 4.39-1.28 1.13-1.56 1.7.28 3.97 1.84 2.27 4.54 6.66 1.84 7.65 0 0 5.24.43 4.39-2.98-.85-3.4-4.98-6.66-2.98-7.51 2.01-.85 1.28-2.41-.14-5.53s.71-2.13 1.7-5.95c.99-3.83.68-6.8-.85-6.52-1.54.28-3.4 1.98-3.4 1.98Z"/>
  <g clip-path="url(#e)">
    <path d="M95.97 216.85c1.19 0 2.15-.96 2.15-2.15s-.96-2.15-2.15-2.15-2.15.96-2.15 2.15.96 2.15 2.15 2.15Z"/>
    <path fill="#fff4d5" d="M300.96 511.85s-1.7-13.57-1.7-35.98-1.98-37.73-1.7-52.17c.28-14.44 3.9-32.03 3.9-32.03l41.17-13.32 24.95.28s4.54 0 8.22.57c3.68.57 17.29 5.37 26.08 8.5s15.31 7.09 15.31 7.09 3.97 13.04 5.95 26.08 5.39 44.22 7.09 57.83c1.7 13.61 2.01 34.3 2.01 34.3l-31.2-2.27 3.26-13.75s-10.12 1.7-20.41 2.55c-10.29.85-14.45 1.7-18.99.71-4.54-.99-7.23-.99-7.23-.99s-8.08 7.94-15.17 10.91l-41.53 1.7Z"/>
    <path fill="none" stroke="#c18f64" stroke-width="2" d="M300.96 511.85s-1.7-13.57-1.7-35.98-1.98-37.73-1.7-52.17c.28-14.44 3.9-32.03 3.9-32.03l41.17-13.32 24.95.28s4.54 0 8.22.57c3.68.57 17.29 5.37 26.08 8.5s15.31 7.09 15.31 7.09 3.97 13.04 5.95 26.08 5.39 44.22 7.09 57.83c1.7 13.61 2.01 34.3 2.01 34.3l-31.2-2.27 3.26-13.75s-10.12 1.7-20.41 2.55c-10.29.85-14.45 1.7-18.99.71-4.54-.99-7.23-.99-7.23-.99s-8.08 7.94-15.17 10.91l-41.53 1.7Z"/>
    <path fill="none" stroke="#f0d18a" stroke-width="11" d="M394.24 511.23c.09-.42 9.48-41.98 13.18-65.62 3.59-22.89.39-43.79.35-44m-98.6-4.06c-.05.41-5.11 41.39 2.59 85.6 5.22 30.03 6.78 35.24 7.13 36.12-.59-1.48-2.84-3.4-5.79-2.83-2.94.56-4.31 3.18-4.31 4.78"/>
  </g>
  <path fill="#fff4d5" d="m300.96 393.68-1.56 13.86s24.24-12.61 36-16.02l31.89-4.25s3.26-1.28 7.65.57c4.39 1.84 39.26 20.83 46.35 23.39l-3.54-14.43"/>
  <path fill="none" stroke="#c18f64" stroke-width="2" d="m300.96 393.68-1.56 13.86s24.24-12.61 36-16.02l31.89-4.25s3.26-1.28 7.65.57c4.39 1.84 39.26 20.83 46.35 23.39l-3.54-14.43"/>
  <path fill="#fff4d5" d="M342.39 396.28c-2.04-.67-4.9-1.93-6.43-4.05-2.55-3.54-2.53-8.64.85-12.05 3.39-3.4 10.2-8.64 19.84-8.79 9.64-.14 13.61 5.95 14.03 9.92.31 2.91-1.13 6.44-3.72 8.73"/>
  <g fill="none" clip-path="url(#f)">
    <path stroke="#c18f64" stroke-width="2" d="M342.39 396.28c-2.04-.67-4.9-1.93-6.43-4.05-2.55-3.54-2.53-8.64.85-12.05 3.39-3.4 10.2-8.64 19.84-8.79 9.64-.14 13.61 5.95 14.03 9.92.31 2.91-1.13 6.44-3.72 8.73m-29.3-1.36s.85-3.69 2.41-6.09c0 0 7.94 2.43 15.02-.27 7.09-2.7 9.78-6.25 9.78-6.25l2.41 5.39m-25.94 2.13s1.13 13.32 1.13 21.68.5 8.22.5 18.99-1.39 16.58 4.04 18c5.42 1.42 6.8.6 10.77 3.42 3.97 2.82 7.09 4.94 7.09 4.94m1.27-71.68s.87 15.84.87 22.65-.68 14.74.5 25.65c1.18 10.91 2.69 13.77 2.69 18.44s.18 8.91-4.28 10.47c-4.46 1.56-8.46 4.82-10.7 9.5-2.23 4.68-4.39 9.78-4.39 9.78m-5.53-89.09s3.76 18.22 7.12 17.37c3.37-.85 11.3-23.69 11.3-23.69m.47 5.69s-15.66 48.88-16.35 54.43m17.01-41.12s-5.67 34.44-9.5 40.55m-52.13-33.7s-4.84 32.61 3.09 78.24c7.94 45.62 7.94 37.12 7.94 37.12"/>
    <path stroke="#3a302a" stroke-width=".74" d="M185.69 305.77s-8.2 1.26-9.23-4.4c-1.03-5.66-4.37-11.96-13.62-11.54-9.25.42-15.75-.21-19.74-.63-3.99-.42-5.68-.63-8.18.63s-9.44.84-9.44.84 1.47 2.31 4.41 2.1c2.94-.21 7.13-1.47 7.13-1.47m-6.29 2.06s5.03.87 8.6.87 5.03.63 5.03.63m-5.24 0s.67 2.31 3.79 2.31h5.02m-2.73.42s.86 1.68 6.1 1.68 5.86-.63 5.86-.63m-9.23 1.01s.82 3.39 5.24 2.34c4.42-1.05 8.39-1.47 8.39-1.47m-6.71 1.47s1.68 1.89 4.61 1.26c2.94-.63 4.83-.63 4.83-.63m-4.83 1.26s1.68.84 4.2.42c2.52-.42 4.62-.42 4.62-.42m-4.62 1.05s.84.84 3.57.42 3.77-.45 3.77-.45m-4.4 1.08s.84.63 2.94.63 3.57-.21 3.57-.21m-4.4.84s.44 1.29 3.58 1.05c3.15-.24 4.18-.21 4.18-.21m-5.03.84s-.42 1.47 2.73 1.47 5.03 1.05 5.03 1.05"/>
    <path stroke="#c18f64" stroke-width="2" d="M414.27 408.2s1.77 28.67-5.31 61.99c-7.09 33.32-10.28 46.08-10.28 46.08m18.07-107.01s5.32 29.41 7.79 62.36c2.48 32.95 2.24 38.62 1.42 46.06"/>
  </g>
  <path fill="#b97d1b" d="m194.92 315.21 2.94-7.55s2.41 1.47 4.4-.21c1.99-1.68 4.93-5.14 5.98-7.24 1.05-2.1 2.18-4.27 2.1-5.45-.09-1.19-6.38-3.36-6.38-3.36l-5.68.84-6.28 8.5-4.42 3.88.52 4.72 6.82 6.08"/>
  <path fill="none" stroke="#000" stroke-width=".74" d="m194.92 315.21 2.94-7.55s2.41 1.47 4.4-.21c1.99-1.68 4.93-5.14 5.98-7.24 1.05-2.1 2.18-4.27 2.1-5.45-.09-1.19-6.38-3.36-6.38-3.36l-5.68.84-6.28 8.5-4.42 3.88.52 4.72 6.82 6.08"/>
  <path fill="#b97d1b" d="M209.11 321.04s4.25-2.68 11.05-4.54c0 0 2.27-6.24 6.24-8.93 0 0 2.41 7.51-1.28 12.19-3.68 4.68-4.53 1.56-4.53 1.56l-12.19 5.53.71-5.81Z"/>
  <path fill="none" stroke="#000" stroke-width=".74" d="M209.11 321.04s4.25-2.68 11.05-4.54c0 0 2.27-6.24 6.24-8.93 0 0 2.41 7.51-1.28 12.19-3.68 4.68-4.53 1.56-4.53 1.56l-12.19 5.53.71-5.81Z"/>
  <path fill="#b97d1b" d="m205.14 326.99 18.14-9.5s.83-5.67 2.84-8.22c0 0 1.84.28 2.41 4.25.57 3.97-.14 6.82-2.55 8.22-2.41 1.4-1.51 2-7.77 5.95s-10.8 4.39-10.8 4.39l-2.27-5.1Z"/>
  <path fill="none" stroke="#000" stroke-width=".74" d="m205.14 326.99 18.14-9.5s.83-5.67 2.84-8.22c0 0 1.84.28 2.41 4.25.57 3.97-.14 6.82-2.55 8.22-2.41 1.4-1.51 2-7.77 5.95s-10.8 4.39-10.8 4.39l-2.27-5.1Z"/>
  <path fill="#693c21" d="M183.48 307.65s-.54-1.47.42-2.52 2.01-.42 2.01-.42 0-1.89 2.1-3.15 1.87-.63 1.87-.63-1.57-2.31.94-3.25c0 0-1.78-1.15-1.57-3.25 0 0-1.05-3.99 1.99-5.66 0 0-.53-2.41 3.04-3.04 0 0 1.89-3.01 5.98-1.36 0 0 1.47-1.54 3.04.59 0 0 1.36-.38 2.52 1.61 1.15 1.99 4.51 3.67 5.04 5.56.52 1.89.52 5.35-1.47 5.66 0 0 .32-1.05-1.26-2.73 0 0-2.62.63-3.04-1.15 0 0-1.99 1.4-4.62-.11 0 0-.94 1.92-3.88 1.64 0 0-.23 1.61-1.78 2.55-1.56.94-1.36 2.1-.63 2.41 0 0-.63.94-1.57 2.2-.94 1.26-3.57 3.04-5.77 3.67-2.2.63-3.36 1.36-3.36 1.36Z"/>
  <path fill="none" stroke="#000" stroke-width=".74" d="M183.48 307.65s-.54-1.47.42-2.52 2.01-.42 2.01-.42 0-1.89 2.1-3.15 1.87-.63 1.87-.63-1.57-2.31.94-3.25c0 0-1.78-1.15-1.57-3.25 0 0-1.05-3.99 1.99-5.66 0 0-.53-2.41 3.04-3.04 0 0 1.89-3.01 5.98-1.36 0 0 1.47-1.54 3.04.59 0 0 1.36-.38 2.52 1.61 1.15 1.99 4.51 3.67 5.04 5.56.52 1.89.52 5.35-1.47 5.66 0 0 .32-1.05-1.26-2.73 0 0-2.62.63-3.04-1.15 0 0-1.99 1.4-4.62-.11 0 0-.94 1.92-3.88 1.64 0 0-.23 1.61-1.78 2.55-1.56.94-1.36 2.1-.63 2.41 0 0-.63.94-1.57 2.2-.94 1.26-3.57 3.04-5.77 3.67-2.2.63-3.36 1.36-3.36 1.36Z"/>
  <path fill="#f0d18a" d="M210.54 319.09s-2.41.52-5.45 2.62c0 0-1.26-2.1-1.68-4.41-.42-2.31-1.01-5.87-5.96-8.81l-6.2 4.82 10.91 13.6 7.03-1.43s.94-2.62 1.15-6.08"/>
  <path fill="none" stroke="#3a302a" stroke-width=".74" d="M210.54 319.09s-2.41.52-5.45 2.62c0 0-1.26-2.1-1.68-4.41-.42-2.31-1.01-5.87-5.96-8.81l-6.2 4.82 10.91 13.6 7.03-1.43s.94-2.62 1.15-6.08"/>
  <path fill="#f0d18a" d="M122.55 356.28s14.77-14.39 27.71-19.63l24.47-22.03s1.05-3.22 9.96-8.69c0 0 4.18-1.64 7.52 2.97 3.34 4.62 6.07 9.02 6.07 9.02s3.99 2.52 6.08 5.04c0 0 10.7.8 13-.24l-4.4 4.44.63 1.26-5.87 7.76s-4.82 2.52-10.49 2.31l-6.29 4.09s-.84 3.88-5.24 8.49c-4.4 4.62-6.71 6.71-6.71 7.97s-11.71 3.57-16.13 3.15l.61 1.43s-7.55 3.39-11.96.24c0 0-3.36 2.1-9.86-3.78 0 0-3.57.84-5.45-1.05-1.89-1.89-2.31-2.1-2.31-2.1s.21 2.03-2.73.39c-2.94-1.64-3.15-1.85-3.15-1.85s0 4.4-3.36 2.73c-3.36-1.68-2.1-1.92-2.1-1.92Z"/>
  <path fill="none" stroke="#3a302a" stroke-width=".74" d="M122.55 356.28s14.77-14.39 27.71-19.63l24.47-22.03s1.05-3.22 9.96-8.69c0 0 4.18-1.64 7.52 2.97 3.34 4.62 6.07 9.02 6.07 9.02s3.99 2.52 6.08 5.04c0 0 10.7.8 13-.24l-4.4 4.44.63 1.26-5.87 7.76s-4.82 2.52-10.49 2.31l-6.29 4.09s-.84 3.88-5.24 8.49c-4.4 4.62-6.71 6.71-6.71 7.97s-11.71 3.57-16.13 3.15l.61 1.43s-7.55 3.39-11.96.24c0 0-3.36 2.1-9.86-3.78 0 0-3.57.84-5.45-1.05-1.89-1.89-2.31-2.1-2.31-2.1s.21 2.03-2.73.39c-2.94-1.64-3.15-1.85-3.15-1.85s0 4.4-3.36 2.73c-3.36-1.68-2.1-1.92-2.1-1.92Z"/>
  <path fill="none" stroke="#fff" stroke-width=".74" d="M177.4 331.36s-3.04-.31-8.5 1.36c-5.45 1.68-7.76 1.99-7.24 3.46.52 1.47 1.99 1.36 1.99 1.36l-3.46 5.45"/>
  <path fill="#b97d1b" d="M591.34 329.77s9.16 1.74 12.88 1.61c3.43-.12 7.87-1.55 9.66-2.41.16-.07.29-.14.4-.21 1.41-.8-.7 5.33-5.23 7.35-4.53 2.01-10.57-.7-10.57-.7l-8.85-.4-1.31-2.72 3.02-2.51Z"/>
  <path fill="none" stroke="#000" stroke-width=".71" d="M591.34 329.77s9.16 1.74 12.88 1.61c3.43-.12 7.87-1.55 9.66-2.41.16-.07.29-.14.4-.21 1.41-.8-.7 5.33-5.23 7.35-4.53 2.01-10.57-.7-10.57-.7l-8.85-.4-1.31-2.72 3.02-2.51Z"/>
  <path fill="#b97d1b" d="M590.04 313.56s4.91-1.51 7.83-3.82c0 0 3-3.92 8.15-4.12 5.15-.2 5.33.1 5.33.1s-2.08 4.03-4.21 4.63c-2.13.6-3.84 1.74-5.35 3.79-1.51 2.05-3.82 2.05-3.82 2.05l-7.55 4.02-3.62-2.21 3.24-4.43Z"/>
  <path fill="none" stroke="#000" stroke-width=".71" d="M590.04 313.56s4.91-1.51 7.83-3.82c0 0 3-3.92 8.15-4.12 5.15-.2 5.33.1 5.33.1s-2.08 4.03-4.21 4.63c-2.13.6-3.84 1.74-5.35 3.79-1.51 2.05-3.82 2.05-3.82 2.05l-7.55 4.02-3.62-2.21 3.24-4.43Z"/>
  <path fill="none" stroke="#fff" stroke-width=".74" d="m157.58 339.64 4.93-2.52m5.14-1.26s-3.46 3.5-4.4 7.83m3.04-1.96s4.09-5.14 7.97-6.29c3.88-1.15 4.93-2.52 4.93-2.52s-6.4 0-9.44 3.67"/>
  <path fill="#bb3224" d="M571.61 310.95s4.73 1.61 5.74 2.31c0 0 2.62-1.11 5.33 1.21 0 0 6.84-.5 8.76-1.81l-1.81 6.64 3.12-.3-3.92 3.62s-.47 3.02-1.79 4.03l-8.47-2.01-10.16-7.65 3.22-6.04Z"/>
  <path fill="none" stroke="#000" stroke-width=".71" d="M571.61 310.95s4.73 1.61 5.74 2.31c0 0 2.62-1.11 5.33 1.21 0 0 6.84-.5 8.76-1.81l-1.81 6.64 3.12-.3-3.92 3.62s-.47 3.02-1.79 4.03l-8.47-2.01-10.16-7.65 3.22-6.04Z"/>
  <path fill="none" stroke="#3a302a" stroke-width=".71" d="M555.41 310.64s-6.26-2.01-6.44-4.93c-.18-2.92-.27-8.05-2.2-9.06-1.93-1.01-5.12-3.22-12.08-3.02-6.96.2-16.52.6-23.56-1.11-7.05-1.71-12.18-4.83-12.18-4.83s0 1.71 1.51 2.62c1.51.91 6.14 2.31 6.14 2.31"/>
  <path fill="none" stroke="#fff" stroke-width=".74" d="M170.79 343s3.78-3.25 7.66-5.87c3.88-2.62 3.88-2.83 3.88-2.83"/>
  <path fill="#b97d1b" d="M577.05 291.83s1.49 2.21 2.21 5.84c.72 3.62 1.01 6.44-.4 8.65-1.41 2.21-1.41 3.42-2.92 3.42s-1.51.4-1.51.4l-3.62 7.14-9.46-6.34 1.81-5.94 4.73-8.65 5.53-4.83 3.62.3Z"/>
  <path fill="none" stroke="#000" stroke-width=".71" d="M577.05 291.83s1.49 2.21 2.21 5.84c.72 3.62 1.01 6.44-.4 8.65-1.41 2.21-1.41 3.42-2.92 3.42s-1.51.4-1.51.4l-3.62 7.14-9.46-6.34 1.81-5.94 4.73-8.65 5.53-4.83 3.62.3Z"/>
  <path fill="none" stroke="#3a302a" stroke-width=".74" d="M169.64 324.54s3.29 3.6 7.44 6.6c1.24.9 2.56 1.74 3.89 2.42 5.77 2.94 12.27 5.38 16.15 5.14m-19.3-11.54s8.08 6.08 13.53 8.49c5.45 2.41 6.92 2.94 9.44 2.62m-16.57-10.07s6.08 4.09 10.49 6.29c4.4 2.2 7.34 3.88 10.17 3.04m-7.97-3.46s6.29 3.57 9.54 2.62m-43.95-.63s9.23-3.67 16.36-3.57m-13.63 9.13s2.52-5.14 5.87-8.08m8.81 7.13s.09-1.26 4.09-1.05c4 .21 7.97-.07 9.44-1.15m-18.14 16.05s3.36-11.22 13-14.68m-49.71 13.95s3.02-1.47 7.87-2.2c4.84-.73 15.94-3.46 15.94-3.46m-22.64 7.97s3.86-1.68 10.79-2.62c6.92-.94 12.48-1.89 19.09-4.4 6.61-2.52 7.97-2.73 10.28-2.62m-8.92-1.15s7.45-3.46 11.12-1.47m-49.82 5.56s2.52-.42 4.82 1.68c2.31 2.1 1.97 3.67 1.78 4.51-.19.84-.65 1.78-1.99 1.36m-9.02-1.71s.31-2.06 5.24-1.43c4.93.63 5.77 1.43 5.77 1.43m2.31.35s2.94-.73 5.35 2.2c2.41 2.94 2.94 4.09 4.09 4.51m4.3-6.61s-1.05 1.57-4.51 1.15c-3.46-.42-4.61.49-4.61.49m-7.12 2.87s1.56-.84 4.07-1.05c2.52-.21 2.83 2.73 5.04 2.73m1.26-2.2s3.78 1.26 6.71 1.47c2.94.21 4.61 2.2 4.61 2.2m0-6.01s0-1.22 5.87-3.53c5.87-2.31 12.79-6.5 12.79-6.5m-19.82 11.43s1.05 3.99 5.87 3.57m-1.78-3.57 13.13-7.03m3.15-2.31s3.34-3.74 7.85-4.65m-8.5 8.74s3.57-5.35 8.18-8.28m-1.05-1.89s3.15-1.01 5.35-3.81m-3.17 2.69-1.24 3.11m-52.23 4.2s18.04-14.89 24.96-17.31m-22.44 19.3s6.61-5.56 9.96-7.45m.21 1.89s-2.94 1.57-3.88 4.3c0 0 2.2-1.99 5.35-1.68m35.55-31.88s6.92-3.99 13.85 1.47m-2.62 5.66s2.62-3.57 7.45-2.31m-5.14 6.82s.63-4.82 6.08-5.35m.1 10.59s6.38-3.04 5.56-10.17m-3.46 11.85s5.03-6.57 6.61-7.97m-27.48-15.03s3.78-1.12 10.07 4.23"/>
  <path fill="none" stroke="#fff" stroke-width=".74" d="M188.31 340.8s-6.5 4.2-8.91 7.34m-20.24 8.81s-1.68.94-2.52 3.04c0 0 1.36-.32 2.62.63m-27.69-9.54s4.2-.32 5.98 2.31c0 0-5.24-1.64-8.81-.24"/>
  <path fill="#bb3224" d="M562.46 307.83s-2.42-2.21-6.84.91c-4.43 3.12-7.41 7.85-10.85 11.98-3.44 4.13-5.45 7.04-5.45 7.04s-8.05 4.73-17.41 11.87c-9.36 7.15-15.1 10.97-15.1 10.97s-2.92-1.31-4.83.5c-1.91 1.81-7.75 6.74-7.75 6.74s3.32.1 6.94-.8c3.62-.9 7.35-.8 8.65.4 1.31 1.21-1.51 3.42.2 4.73 1.71 1.31 5.03 1.51 5.03 1.51s1.69 3.32 6.64 3.32 8.94-.47 10.46-.5c1.53-.03 3.22-.2 5.23-1.51 2.01-1.31 3.62-3.82 3.62-3.82s2.11-.1 3.82-1.11 1.61-2.01 0-2.41v-1.81s1.61-.5 3.42-1.11c0 0 2.82 1.21 5.63.2 2.82-1.01 7.75-2.21 10.16-5.03 0 0 7.95-1.81 8.55-8.35h2.11s.91 2.01 5.94 2.01 9.46-4.13 11.17-7.95c0 0-3.19-2.31-.79-3.22 2.4-.91 4.41-3.42 4.41-3.42s-1.17-1.31-4.41-1.51c0 0 .29-.81-3.84-1.71-4.13-.91-6.64-1.54-6.64-1.54s-1.81-2.38-6.04-5.3-13.48-8.96-12.08-11.07Z"/>
  <path fill="none" stroke="#000" stroke-width=".71" d="M562.46 307.83s-2.42-2.21-6.84.91c-4.43 3.12-7.41 7.85-10.85 11.98-3.44 4.13-5.45 7.04-5.45 7.04s-8.05 4.73-17.41 11.87c-9.36 7.15-15.1 10.97-15.1 10.97s-2.92-1.31-4.83.5c-1.91 1.81-7.75 6.74-7.75 6.74s3.32.1 6.94-.8c3.62-.9 7.35-.8 8.65.4 1.31 1.21-1.51 3.42.2 4.73 1.71 1.31 5.03 1.51 5.03 1.51s1.69 3.32 6.64 3.32 8.94-.47 10.46-.5c1.53-.03 3.22-.2 5.23-1.51 2.01-1.31 3.62-3.82 3.62-3.82s2.11-.1 3.82-1.11 1.61-2.01 0-2.41v-1.81s1.61-.5 3.42-1.11c0 0 2.82 1.21 5.63.2 2.82-1.01 7.75-2.21 10.16-5.03 0 0 7.95-1.81 8.55-8.35h2.11s.91 2.01 5.94 2.01 9.46-4.13 11.17-7.95c0 0-3.19-2.31-.79-3.22 2.4-.91 4.41-3.42 4.41-3.42s-1.17-1.31-4.41-1.51c0 0 .29-.81-3.84-1.71-4.13-.91-6.64-1.54-6.64-1.54s-1.81-2.38-6.04-5.3-13.48-8.96-12.08-11.07Z"/>
  <path fill="none" stroke="#3a302a" stroke-width=".71" d="M501.17 291.22s0 1.11 2.92 2.21c2.92 1.11 5.45 1.31 5.45 1.31m-7.16-1.91s-.2 1.41 2.21 2.41c1.21.5 2.7.75 3.88.88 1.19.13 2.07.13 2.07.13m-3.74 0s1.01 1.51 5.74 1.41c4.73-.1 5.84-.5 5.84-.5m-6.54.7s1.21 2.01 4.43 1.61m-3.42.8s2.72 2.11 8.65 1.11m-1.9.8s.37 1.71 4.71.5 5.43-.8 5.43-.8m-8.05 1.51s1.21 1.51 4.63.4c3.42-1.11 5.43-.3 5.43-.3m-7.35 1.81s2.72 2.82 6.84.91m-4.33-1.01s3.82.1 6.24 2.52c2.42 2.42 4.03 1.91 4.03 1.91l8.75 9.66m-2.72-24.55s-9.26-3.12-23.75-3.92c-14.49-.81-15.9-.81-15.9-.81m-2.92.6s-1.91.8-5.43-2.21c0 0 .1 3.12 3.32 4.23 0 0-3.12 1.71-8.35-5.13 0 0 .2 2.32 1.51 4.73 1.31 2.41 4.33 3.12 4.33 3.12m3.52.5s.42 1.82 3.94 2.13c1.38.12 3.23.01 5.72-.52m-6.73.9s.99 2.75 7.83 2.21"/>
  <path fill="#693c21" d="M561.35 305.61s-.92 1.91.81 2.31c1.73.4 2.11-1.01 2.11-1.01s2 .91 2.82-1.21c0 0 1.61.2 1.21-3.12 0 0-1.31.6-2.11-.3 0 0 .2-1.01 1.71-2.01 0 0 .1-2.21 2.21-3.12 0 0-.2-1.21 1.01-1.91 0 0 2.4.2 2.62-2.41 0 0 1.91.6 2.21-.71 0 0 1.21.5 1.31 1.31 0 0 1.09-.5.4-1.71-.69-1.21-2.42-.7-2.42-.7s-1.61-3.32-6.24-2.82c0 0-.4-1.11-1.51-.1 0 0-2.82-.5-3.52 1.51 0 0-3.02 0-3.42 1.71 0 0-.71.5-1.81 2.41-1.11 1.91-1.71 4.43-.2 5.53 0 0-1.11 3.82 2.82 6.34Z"/>
  <path fill="none" stroke="#000" stroke-width=".71" d="M561.35 305.61s-.92 1.91.81 2.31c1.73.4 2.11-1.01 2.11-1.01s2 .91 2.82-1.21c0 0 1.61.2 1.21-3.12 0 0-1.31.6-2.11-.3 0 0 .2-1.01 1.71-2.01 0 0 .1-2.21 2.21-3.12 0 0-.2-1.21 1.01-1.91 0 0 2.4.2 2.62-2.41 0 0 1.91.6 2.21-.71 0 0 1.21.5 1.31 1.31 0 0 1.09-.5.4-1.71-.69-1.21-2.42-.7-2.42-.7s-1.61-3.32-6.24-2.82c0 0-.4-1.11-1.51-.1 0 0-2.82-.5-3.52 1.51 0 0-3.02 0-3.42 1.71 0 0-.71.5-1.81 2.41-1.11 1.91-1.71 4.43-.2 5.53 0 0-1.11 3.82 2.82 6.34Zm30.39 23.14-52.43-1.11 15.5-8.45m-35.42 25.12s19.51-15.03 35.02-20.09m1.41 1.01s12.08 15.53 16.91 16.3m-1.41-15.33s4.83-2.25 8.86-2.01m-5.84 6.88s.8-4.43 5.03-6.64m-6.24 15.5s11.87-7.71 17.71-12.71m-15.09 13.72s6.64-4.43 9.26-7.25c2.62-2.82 4.04-2.01 4.04-2.01m-8.67 7.85s6.66-4.03 8.67-6.04m-10.89 8.45s7.48-1.41 11.89-6.64m-52.14 3.99 27.17-3.79m-15.28-5.84s9.85 2.75 14.88 6.61m-24.76 7.28s.2-1.41 7.45-2.41c7.25-1.01 18.32-4.83 18.32-4.83m-11.67 10.87s.4-1.41 4.23-5.03c3.82-3.62 4.83-5.03 4.83-5.03m-37.42 25.16s29-6.44 43.27-22.74m-17.33 15.9s11.51-6.04 14.31-10.26c2.8-4.23 3.4-5.23 3.4-5.23M519 348.6s8.25-.47 17.11-3.25m-18.5 6.47s19.71-.77 32.39-9.66m-39.43 9.06s4.01 4.96 3.2 7.21c-.8 2.25-3.22 2.08-2.62 3.05.6.97 3.42-.2 5.03-1.21 1.61-1.01 4.41-.4 7.45 1.61 3.03 2.01 6.27 4.43 9.07 1.21m1.19 2.82s2.42-5.84 4.03-6.04c1.61-.2 2.41-.44 2.41-.44m-34.62-5.8s4.23-.6 4.23-4.83m50.11-26.57s3.02 8.05 6.64 12.68c3.62 4.63 6.67 3.86 8.27 2.62m-9.07-6.44s3.41 7.24 7.25 5.84M557.44 316s6.24-3.29 9.86-.84"/>
  <path fill="none" stroke="#fff" stroke-width=".71" d="M557.83 319.4s6.04-4.02 14.49-1.01c0 0-8.05-4.83-9.86-7.45m6.64 8.86s8.86 3.02 11.47 5.64l8.05 1.78s-3.04 3.25-6.84 5.47m-38.84 4.43s10.5-1.98 17.93-2.41m-5.05 11.67s4.43-3.19 8.65-8.65l2.43 1.41s-1.42 1.44-3.84 3.82m-15.9-.64 12.08-2.99-3.4 4.23m-46.51 9.26s3.22 2.42 3.02 4.83c-.2 2.41-4.02 3.79-1.21 4.8 2.82 1.01 5.82-2.18 7.65-1.78 1.83.4 8.65 5.03 8.65 5.03m-11.27-2.01s2.85 1.34 7.46 1.78c4.61.44 9.24-.37 9.24-.37"/>
  <path fill="none" stroke="#000" stroke-width=".71" d="M582.58 322.82s1.41-3.22 2.21-5.64c.8-2.41 2.01-2.62 2.01-2.62m-7.24 4.63s-1.61-1.38.2-3.22c1.81-1.84 2.82-1.61 2.82-1.61m-1.41 9.06s0-1.01 1.01-2.82c1.01-1.81 1.41-4.49 3.42-6.47m0 10.3s.99-2.01 1.21-3.62c.22-1.61 2.62-1.41 2.62-1.41m-5.84 4.8s.6-2.25 3.22-6.04"/>
  <path fill="none" stroke="#000" stroke-width=".75" d="M199.78 299.13s1.42-1.25 3.68-.17m2.83 1.42s1 0 1.17 1.42m-6.15 3.49s1.19.24 1.93.85m-.66-6.37-.51.71m4.65.99-.4.61m370.95 3.35s.68-.45 2.1-.45m-6.92-3.93s-.11-.99.96-1.91c1.08-.92 1.19-1.36 1.19-1.36m3.31-.96 1.28.62"/>
  <path fill="none" stroke="#000" d="m575.01 299.13.28 1.19m3.68-2.32.11.91"/>
</svg>