<?xml version="1.0" encoding="UTF-8"?><svg id="_Слой_1" xmlns="http://www.w3.org/2000/svg" xmlns:xlink="http://www.w3.org/1999/xlink" viewBox="0 0 750 428"><defs><clipPath id="clippath"><rect x=".06" width="749.88" height="428" fill="none" stroke-width="0"/></clipPath><clipPath id="clippath-1"><rect x=".06" width="749.88" height="428" fill="none" stroke-width="0"/></clipPath><clipPath id="clippath-2"><rect x=".06" width="749.88" height="428" fill="none" stroke-width="0"/></clipPath><clipPath id="clippath-3"><rect x=".06" width="749.88" height="428" fill="none" stroke-width="0"/></clipPath><clipPath id="clippath-4"><rect x=".06" width="749.88" height="428" fill="none" stroke-width="0"/></clipPath><clipPath id="clippath-5"><rect x=".06" width="749.88" height="428" fill="none" stroke-width="0"/></clipPath><clipPath id="clippath-6"><rect x=".06" width="749.88" height="428" fill="none" stroke-width="0"/></clipPath><clipPath id="clippath-7"><rect x=".06" width="749.88" height="428" fill="none" stroke-width="0"/></clipPath><clipPath id="clippath-8"><rect x=".06" width="749.88" height="428" fill="none" stroke-width="0"/></clipPath><clipPath id="clippath-9"><rect x=".06" width="749.88" height="428" fill="none" stroke-width="0"/></clipPath><clipPath id="clippath-10"><rect x=".06" width="749.88" height="428" fill="none" stroke-width="0"/></clipPath></defs><g clip-path="url(#clippath)"><polygon points="-5.23 -4.21 -5.23 437 757.12 437 757.12 -4.21 -5.23 -4.21 -5.23 -4.21" fill="#29262d" stroke-width="0"/><polygon points="-5.23 -4.21 -5.23 437 757.12 437 757.12 -4.21 -5.23 -4.21 -5.23 -4.21" fill="none" stroke="#2f1b17"/><path d="m23.44-14.17c.65-.09.75-.06.32.08-4,2.1-5.34,7.62-7.28,11.06-.58,1.03-1.36,1.16-1.81,2.41-.38,1.05-.18,2.47-.51,3.45-.98,2.91-2.74,4.93-3.03,8.22-.22,2.46.2,4.97.15,7.43-.06,3.08-2.27,5.81-2.22,8.58.04,2.05,1.91,3.64,2.31,5.65.44,2.22.16,3.41.95,5.62,1.87,5.24,5.09,9.93,6.98,15.25,3.33,9.38,5.58,19.21,8.73,28.67,1.82,5.46,1.32,11.7,2.27,17.3.85,5.05,3.4,10.36,8.05,12.78,2.57,1.34,5.78,1.98,8.96,2.83,6.18,1.65,11.05,4.12,16.82,6.99,5.11,2.54,9.19,4.75,13.38,8.48,3.23,2.87,7.81,5.1,11.58,7.05,3.51,1.82,9.12,3.44,13.05,4.1,4.05.68,8.24.31,11.13-2.28,3.82-3.42,5.53-4.81,10.54-5.58,3.41-.53,3.36-.11,4.75-2.86,1.17-2.31.97-5.22,1.97-7.64,2.43-5.86,5.01-6.34,10.22-4.31,11.95,4.66,13.49,20.74,24.66,25.89,1.52.7,1.16-.14,1.84,1.02,3.24-.11,8.38-1,11.47-.12,3.55,1.01,7.06,6.23,9.29,8.95,1.2,1.46,3.5,3.68,4.3,5.39.93,1.99.81,3.7,1.95,5.7,1.07,1.89,2.4,3.47,3.31,5.55,2.07,4.71,2.87,9.62,6.19,13.37,3.19,3.61,7.08,6.91,10.61,10.47,4.7,4.73,6.01,8.19,6.87,14.43,2.2,15.97,19.66-8.18,24.34-11.24,11.33-7.42,23.25,3.93,29.32,13.81,2.97,4.84,3.95,8.56,10.27,9.94,8.9,1.95,16.57,3.77,23.51,10.37,4.58,4.35,8.63,10.46,14.14,13.79,4.32,2.61,12.14,2.36,16.99,1.4,8.5-1.69,14.23-9.01,22.41-11.44,4.31-1.28,9.51-.96,13.68.61,6.8,2.56,12.21,6.55,18.41,10.34,4.74,2.9,11.85,6.82,17.44,7.85,3.25.6,5.92-.71,8.81-1.19,4.05-.67,7.46-.25,11.36-1.93,3.48-1.5,6.77-3.5,10.32-4.9,2.17-.86,5.22-2.16,7.6-2.15,2.46.02,4.69,1.42,7.15,1.66,3.78.37,8.17.14,11.95-.02,6.26-.27,10.82-2.99,16.66-4.81,1.66-.53,3.36-.71,5.09-.52,3.21-.58,5.96-2.09,9.1-2.76,2.93-.62,5.81-1.29,8.56-1.92,2.57-.59,5.66-.3,8.23-1.03,3.23-.91,5.54-3.51,8.36-5.49,2.51-1.76,5.22-3.71,8.55-2.81,1.76.47,3.16,1.83,5.01,2.34,1.29.35,2.39-.04,3.67.53,4.27,1.9,7.63,6.1,12.11,7.7,5,1.79,12.21.2,17.55.2,4.39,0,7.93-.12,12.08,1.44,4.96,1.86,8.82,3.82,14.08,4.59,4.13.61,8.51,1.41,12.48,2.53,3.55,1,6.51,2.43,10.06,3.39,5.66,1.54,9.89,5.43,15.2,7.71,8.38,3.61,15.91,7.37,22.03,14.14,5.73,6.34,8.57,15.82,14.02,22.82,1.46,1.87,2.61,3.43,3.9,5.42,1.41,2.19,3.58,4.09,4.63,6.06,2.25-.11,5.91.7,7.99,0,.28-.09,2.23-1.89,2.77-2.25,1.46-1,3.74-.24,3.41-2.88,1.76-.4,5.2-.05,5.67-2.11,1.54.08,3.64-.29,5.13.04,1.42.32,2.4,1.35,4.17,1.82,3.77.99,6.38,1.68,8.97-1.69,3.57-4.64,3.9-8,8.23-1.8,1.4,2.01,1.72,1.72,1.79,4.66.03,1.5-.62,4.39.14,5.7,1.47,2.54,7.03,2.49,9.27.99,2.69-1.8,2.25-5.83,4.99-8.06,2.99-2.43,5.32-.84,9.14-1.54,6.34-1.16,7.55-9.27,13.34-12.02-.75,3.19,1.09,5.06,2.22,7.98,5.54,14.36,6.39,29.11,6.21,44.33-.2,17.56.58,34.28,2.43,51.68,1.05,9.92.33,20.11.33,30.08,0,9.07,1.29,17.3-6.26,23.93-6.59,5.79-19.32,3.32-27.21,3.25-5.65-.05-10.92,0-16.53,1-7.73,1.39-14.89,4.79-22.73,5.58-8.77.88-17.4.12-26.21,1.43-7.25,1.08-14.42,2.2-21.73,2.9-8.29.79-16.75,1.49-25.09,1.52-8.06.02-15.6-1.67-23.54-2.88-8.22-1.25-16.49-1.64-24.72-2.79-12.44-1.73-23.83-6.44-36.18-8.36-30.45-4.72-62.8-2.05-92.94,2.77-7.99,1.28-15.83,1.25-23.89,1.55-6.19.23-12.25,1.17-18.45.93-17.75-.7-35.29-1.34-53.1-1.23-16.49.1-32.64-2.95-49.08-2.93-16.5.02-33.2,2.36-49.39-1.52-14.47-3.47-28.43-5.5-43.39-3.62-11.93,1.5-23.39,5.64-35.16,7.88-5.06.96-10.02.51-15.11.54-6.34.04-12.32,1.52-18.58,2.18-5.86.62-11.71.14-17.57.75-6.13.64-12.04,2.4-18.2,2.79-12.4.78-24.26,1.43-36.58,3.05-14.23,1.87-28.75.73-42.73,4.51-9.13,2.47-17.68,3.86-27.11,3.8-6.74-.04-14.09-.85-20.62,1.04-3.48,1.01-11.02,4.38-14.69,2.82-3.59-1.53-5.86-12.83-6.34-15.91-1.19-7.7-.4-15.77-1.24-23.54-.77-7.09-2.25-13.78-3.88-20.71-3.69-15.71-2-31.76-5.53-47.46-2.24-9.97-4.81-19.45-5.04-29.75-.23-10.06-.22-20.09-.57-30.16-.63-18.03-.4-36.19-.28-54.23.07-9.74.94-19.34,2.03-29.01,1.42-12.52,1.96-25.1,3.44-37.62,2.51-21.15,3.1-41.72,3.1-63.01,0-38.01.67-77.48,14.65-113.39,3.44-8.83,5.64-18.83,9.76-27.37,2.63-5.47,8.24-6.67,14.23-8.24,6.38-1.68,12.99-2.84,19.48-4.04,5.4-1,11.21-2.79,16.7-3.11,4.78-.27,8.58.5,13.06,2.03-.53,5.77-7.18,9.59-11.33,12.56-2.74,1.96-11.39,6.81-10.39,11.01" fill="#523e40" stroke-width="0"/><path d="m-9.44,297.64s16.84-49.06,55.56-62.1c0,0-2.83-26.65-2.83-49.89s12.47-45.09,37.42-45.92c24.95-.83,39.95,25.51,33.45,54.99-6.5,29.48-14.17,44.79-14.17,44.79,0,0,17.29,9.64,30.36,25.51l-16.75,177.18H-10l.57-144.57h0Z" fill="#7a746f" stroke-width="0"/><path d="m87.81,433.97s3.71-41.39,8.5-81.07c4.8-39.68,8.76-77.07,25.77-92.11,17.01-15.04,25.51-15.04,25.51-15.04,0,0,1.7-6.8,7.37-11.9,0,0-5.1-14.82-6.24-33.63s-1.74-56.49,35.72-57.08c34.02-.54,35.17,36.01,32.34,49.89-5.18,25.4-14.17,34.58-14.17,34.58,0,0,37.44,29.51,41.1,79.95,3.66,50.44,16.39,60.35,23.5,69.02,7.11,8.67,10.25,53.45,10.51,57.12l-189.66,1.97-.26-1.7h0Z" fill="#898279" stroke-width="0"/><path d="m392.54,269.29s7.21-24.82,39.8-36.87c0,0-7.09-21.97-7.44-43.94-.36-21.97,8.12-50.28,36.66-49.59,28.54.69,35.27,42.52,35.27,42.52,0,0-8.26,28.32.12,51.01,0,0,6.61-2.14,11.57,13.11,4.96,15.25,23.03,42.2,28.7,73.54l-5.79,120.29-90.24,4.25-48.66-174.33h0Z" fill="#7a746f" stroke-width="0"/><path d="m289.07,436.53s6.14-54.23,7.91-83.64c1.77-29.41-.71-50.32,9.92-68.39,10.63-18.07,33.19-26.56,33.19-26.56,0,0-8.74-13.09-8.38-39.68.35-26.59,0-61.28,34.01-62.36,34.02-1.08,26.81,28.35,36.73,42.52,0,0-7.09,11.71-8.5,24.1-1.42,12.39-1.18,29.73,2.95,38.96,0,0,30.12,7.44,40.39,45.35,10.28,37.91,7.8,73.35,42.52,110.55,0,0,2.01,10.28-3.66,19.84l-187.09-.69h0Z" fill="#8f8982" stroke-width="0"/><path d="m518.09,433.68s1.77-51.9,7.09-83.62c5.32-31.72,14.88-64.49,27.64-83.62,12.76-19.13,19.13-26.91,19.13-26.91,0,0-2.29-7.83.1-21.63,0,0-7.81-14.14.12-36.48,7.93-22.34,15.34-27.65,30.24-27.65s22.26,8.15,40.41,38.62c0,0-9.57,27.99-8.86,49.25,0,0,5.79-1.03,15.12,6.39,9.33,7.43,21.38,25.51,21.73,39.69.35,14.17,8.03,12.77,8.03,19.84s-4.02,21.24,4.37,24.08c8.39,2.83,6.85,5.35,9.8,17.02,2.95,11.68,9.45,13.1,8.5,20.18-.94,7.09-15.47,38.62-16.54,65.55l-166.89-.71h0Z" fill="#898279" stroke-width="0"/><path d="m60.17,365.67s-11.16,36.01-10.62,66.61l13.58,1.69s2.27-37.39,10.2-65.47l-13.17-2.83h0Z" fill="#745b24" stroke-width="0"/><path d="m155.25,433.33s-1.99-28.18,10.98-47.92l10.87-.07s-5.55,20-4.49,48.7l-17.36-.71h0Z" fill="#745b24" stroke-width="0"/><polygon points="221.04 432.62 222.93 392.02 238.32 389.39 234.62 436.53 221.04 432.62 221.04 432.62" fill="#745b24" stroke-width="0"/><polygon points="357.22 380.18 350.85 432.62 364.19 433.7 369.86 380.17 357.22 380.18 357.22 380.18" fill="#745b24" stroke-width="0"/><polygon points="409.74 391.52 406.12 435.46 420.89 435.46 420.89 389.24 409.74 391.52 409.74 391.52" fill="#745b24" stroke-width="0"/><polygon points="591.08 385.34 579.62 432.98 588.96 434.04 599.94 381.6 591.08 385.34 591.08 385.34" fill="#745b24" stroke-width="0"/><polygon points="638.21 395.43 634.31 436.87 649.07 432.28 653.33 391.17 638.21 395.43 638.21 395.43" fill="#745b24" stroke-width="0"/><path d="m659.82,431.91s6.02-20.54-3.54-40.92c0,0,30.94-9.55,42.4-20.73,0,0-21.85,39.35-25.04,60.61l-13.82,1.05h0Z" fill="none" stroke="#684f21"/><path d="m578.43,369.92s27.02,74.09,123.3-2.3c0,0-88.68,56.85-107.46-8.35l-15.84,10.64h0Z" fill="#898279" stroke-width="0"/><path d="m578.43,369.92s27.02,74.09,123.3-2.3c0,0-88.68,56.85-107.46-8.35l-15.84,10.64h0Z" fill="none" stroke="#684f21"/></g><path d="m107.44,175.01c-2.68.9-13.23,4.02-25.97,2.07-10.37-1.6-16.44-.91-20.29,2.28-3.1,2.57-4.71,6.86-4.93,13.12-.1,2.86-.3,5.81-.51,8.79-.99,14.27-2.02,29.03,8.81,36.92,13.36,9.75,23.68,7.24,31.22,3.85-.07-1.25-.39-5.79-1.36-10.06l-.04-.19.1-.17c.14-.24,14.15-24.31,12.97-56.59h0Z" fill="#99816f" stroke-width="0"/><path d="m107.44,175.01c-2.68.9-13.23,4.02-25.97,2.07-10.37-1.6-16.44-.91-20.29,2.28-3.1,2.57-4.71,6.86-4.93,13.12-.1,2.86-.3,5.81-.51,8.79-.99,14.27-2.02,29.03,8.81,36.92,13.36,9.75,23.68,7.24,31.22,3.85-.07-1.25-.39-5.79-1.36-10.06l-.04-.19.1-.17c.14-.24,14.15-24.31,12.97-56.59h0Z" fill="none" stroke="#684f21"/><path d="m211.75,196c.04-.15,4.38-15.23-4.52-23.86-7.32,5.1-22.76,7.32-40.56,5.82-3.88,13.26,1.21,48,1.78,51.78,2.59.59,20.01,4.35,27.95,0,8.52-4.68,15.04-24.61,15.33-33.62v-.07s.02-.06.02-.06h0Z" fill="#a38e74" stroke-width="0"/><path d="m211.75,196c.04-.15,4.38-15.23-4.52-23.86-7.32,5.1-22.76,7.32-40.56,5.82-3.88,13.26,1.21,48,1.78,51.78,2.59.59,20.01,4.35,27.95,0,8.52-4.68,15.04-24.61,15.33-33.62v-.07s.02-.06.02-.06h0Z" fill="none" stroke="#684f21"/><path d="m350.55,185.97c3.14.87,22.13,5.67,34.15-2.16,1.12,1.92,5.44,9.67,7.15,17.12-.81,1.75-7.78,17.42-6.35,36.91,1.19,16.27,1.45,20.95,1.5,22.21-3.79.5-31.31,3.22-38.79-21.54-8.53-28.25-.6-46.22,2.34-52.55h0Z" fill="#9e8470" stroke-width="0"/><path d="m350.55,185.97c3.14.87,22.13,5.67,34.15-2.16,1.12,1.92,5.44,9.67,7.15,17.12-.81,1.75-7.78,17.42-6.35,36.91,1.19,16.27,1.45,20.95,1.5,22.21-3.79.5-31.31,3.22-38.79-21.54-8.53-28.25-.6-46.22,2.34-52.55h0Z" fill="none" stroke="#684f21"/><path d="m435.85,183.26c1.9-.83,11.33-5.14,19.73-12.65,2.45.57,20.03,4.42,28.88-.89,1.96,3.92,3.92,7.84,5.89,11.77-.59,2.72-7.58,35.97-2.61,57.15-.91.35-3.32,1.22-6.57,2.05-8.4,2.13-20.33,3.48-29.43-2.14-11.91-7.35-12.53-15.11-14.39-38.15-.4-4.96-.86-10.62-1.49-17.14h0Z" fill="#a38e74" stroke-width="0"/><path d="m435.85,183.26c1.9-.83,11.33-5.14,19.73-12.65,2.45.57,20.03,4.42,28.88-.89,1.96,3.92,3.92,7.84,5.89,11.77-.59,2.72-7.58,35.97-2.61,57.15-.91.35-3.32,1.22-6.57,2.05-8.4,2.13-20.33,3.48-29.43-2.14-11.91-7.35-12.53-15.11-14.39-38.15-.4-4.96-.86-10.62-1.49-17.14h0Z" fill="none" stroke="#684f21"/><path d="m473.59,226.19s3.68,11.34,7.94,15.02l7.39-2.27s-3.59-25.24.04-47.06c0,0-3.46,4.25-4.31,8.5-.85,4.25.02,22.68-11.05,25.79h0Z" fill="#684f21" stroke-width="0"/><path d="m596.95,182.17c-.55,1.75-2.68,6.4-9.87,7.94-5.95,1.28-4.48,11.82-3.18,21.12.45,3.24.88,6.3,1.02,8.98.46,8.82,7.4,35.41,16.13,42.66,1.57,1.3,3.1,1.86,4.56,1.67,10.82-1.44,17.8-12.16,19.7-21.51.74-3.63,1.49-6.56,2.16-9.13,1.16-4.49,2.16-8.37,2.68-14.26.32-3.58,1-7.4,1.66-11.09,1.05-5.85,2.04-11.37,1.19-14.25-1.19-4.04-4.06-8.76-4.86-10.03-2.59.85-17.8,5.27-31.2-2.1h0Z" fill="#a69778" stroke-width="0"/><path d="m596.95,182.17c-.55,1.75-2.68,6.4-9.87,7.94-5.95,1.28-4.48,11.82-3.18,21.12.45,3.24.88,6.3,1.02,8.98.46,8.82,7.4,35.41,16.13,42.66,1.57,1.3,3.1,1.86,4.56,1.67,10.82-1.44,17.8-12.16,19.7-21.51.74-3.63,1.49-6.56,2.16-9.13,1.16-4.49,2.16-8.37,2.68-14.26.32-3.58,1-7.4,1.66-11.09,1.05-5.85,2.04-11.37,1.19-14.25-1.19-4.04-4.06-8.76-4.86-10.03-2.59.85-17.8,5.27-31.2-2.1h0Z" fill="none" stroke="#684f21"/><g clip-path="url(#clippath-1)"><path d="m54.62-8.05c-1.82.93-.4,3.95-.78,5.8-.55,2.71-2.65,6-3.9,8.46-2.76,5.45-7.71,10.4-12.94,13.7,4.44-.29,9.64.82,13.92-.36,6.18-1.71,9.84-8.16,13-13.11-1.95,3.15-1.96,8.46-1.67,12.11.2,2.52.97,4.91,2.08,7.17.83,1.69,2.84,3.45,2.82,5.28,1.22-.59-.84-7.18-.33-9.64.83-3.95,5.01-7.69,5.58-11.23-2.28,1.03-.36,8.39.43,10.32.78,1.89,1.83,3.88,2.86,5.64,1.2,2.06,2.38,2.55,3.74,4.56-.27-2.43-.08-4.89-.12-7.33-.03-1.8-.57-4.57,0-6.28.67-1.96,3-2.91,2.87-4.95-.7,4.46.6,7.02,2.21,11.02,1.78,4.39,2.75,6.42,5.92,9.63,2.37,2.4,3.6,5.43,6.7,6.74-1.22-3.51-6.04-21.38-1.2-22.44.64,2.01,2.14,3.99,3.45,5.79,2.21,3.02,2.22,9.05,5.13,10.71.94-1.86.99-6.28,1.27-8.55.61-4.95-1.46-9.12-2.5-13.43.9.04,3.04,2.94,3.67,4.02,1.94,3.34,3.63,7.3,4.52,11.07-.11-2.86.05-5.72-.02-8.58-.05-2.21-.04-4.79-1.06-6.83-.88-1.77-3.67-3.06-3.56-5,3.07-.39,7.52,5.9,8.16,8.37,1.86-7.42-1.06-14.67-6.37-19.73-2.76-2.64-5.42-4.59-8.68-6.07-4.17-1.89-8.35-3.99-12.54-5.4-1.34-.45-3.54-.29-4.98-.44-2.26-.24-3.62-1.04-5.73-1.49-2.88-.61-7.67-.35-10.58.08-3.18.46-6.9,2.16-9.17,4.38-1.54,1.51-4.4,6.2-3.03,8.39" fill="#575643" stroke-width="0"/><path d="m272.07-8.05c.13-.19.25,2.16.04,2.94-.74,2.67-3.75,4.53-5.7,5.98-6.48,4.84-12.45,8.85-20.45,10.93,1.99-.01,4.02.15,6.01.07,6.93-.27,11.09-4.37,17.33-6.2-.76,4.03-6.15,9.32-8.42,12.93-1.8,2.86-3.5,4.92-6.44,6.66-2.25,1.33-5.48,3.22-8.11,3.55,4.08.02,7.37-.86,11.14-2.73,3.05-1.51,14.93-7.42,14.55-11.22-.2,3.51,1.34,10.33-1.04,12.95,1.24-2.52,3.26-4.61,4.94-6.84,1.57-2.08,3.47-4.32,4.44-6.76,1.09-2.74.41-6.02,1.77-8.58.56,4.82,1.4,9.27,1.24,14.57,3.88-3.95,6.85-9.29,8.45-14.52,2.26-7.39,7.34-17.65.28-23.98-.06.42-.12.85-.18,1.27" fill="#575643" stroke-width="0"/><path d="m322.03-8.5c0,5.12-.05,7.02-2.56,11.45-1.98,3.49-3.57,7.99-6.57,10.83-1.45,1.37-3.65,2.33-4.94,3.63,2.11.36,3.04-.57,4.71-1.55,4.37-2.56,9.62-5.84,13.18-9.49-1.5,3.94-4.55,8.12-5.48,12.17-.97,4.24,1.36,15.79,7.2,15.98.31-2.15-.9-4.87-.84-7.36.12-4.97,1.86-9.05,4.89-12.95,1.97,3.42,1.06,10.65.69,14.51,2.42-.74,6.35-6.35,7.33-9.13,1.06-3.02.45-7.29.4-10.54.25,1.29,1.68,2.27,2.99,2.85-.76,2.28.35,5.69,2.79,6.21-.67,2.65,5.75,3.18,7.91,3.12,2.97-.08,4.11-1.36,5.89-3.59-5.89-.18-10.25-5.9-10.2-11.4.02-2.15,1.35-3.61,1.55-5.43.29-2.68.26-.5-1.26-3.37-1.22-2.31-5.86-9.86-8.93-8.33.04.31.08.63.12.94" fill="#575643" stroke-width="0"/><path d="m377.77-8.05c-.53,1.93-2.26,3.49-3.47,5.01-2.3,2.87-2.2,3.65-2.2,7.56.01,5.24.8,12.62-2.69,16.57,3.35-1.12,6.15-5.45,8.17-8.28,3.62-5.05,3.05-9.63,4.21-15.11,3.07,2.06,2.51,9.92,2.62,13.68.11,3.64.67,8.12-.69,11.59-.72,1.84-2.55,3.23-2.77,5.21,4.83-1.11,5.86-16.81,8.91-16.85,2.91,4.02,1.15,10.06-.38,14.31,3.37-.65,6.03-7.26,7.27-9.95,3.23-7.01,3.59-13.65,1.2-20.84,5.3.24,9.12,7.73,10.18,12.34.65,2.84.13,7.46,2.75,9.45,1.79,1.35,4.1.24,5.6,1.41-5.2-3.48.1-12.3.86-16.34.94-5.03,1.52-13.83-2.7-16.98-2.95-2.2-6.77-2.13-10.26-1.46-2.43.47-4.57,1.74-6.94,2.39-2.95.81-5.49.26-8.4.58-2.09.23-7.4,2.53-8.44.04" fill="#4a4a3b" stroke-width="0"/><path d="m430.81-10.88c-2.23-.29-5.79.25-5.61,3.07-3.72,1.58-2.14,4.2-2.85,7.17-.29,1.2-2.19,3.18-2.2,4.07-.03,2.07,1.84,3.38,2.18,5.66.6,4.01.04,9.23-.14,13.24-.03.66.43,2.38.23,2.97-.45,1.33-2.47,1.11-2.68,3.22,1.84-2.53,3.68-3.4,5.55-6.05,3.38-4.8,4.63-9.53,5.57-15.19.87.4,2.01,1.11,2.91,1.8-1.03,3.71,2.36,7.86,2.75,11.41.31,2.95.09,5.46.72,8.21,2.5-.27,3.31-6.38,4.6-8.4,2.2-3.44,3.14-4.8,3.17-8.97-.86,3.15,1.7,4.88,3.03,7.13,1.46,2.46.72,3.71,3.46,5.69,1.68,1.21,3.5,2,5.59,1.81-.3-2.07-1.8-3.56-2.54-5.49-1.25-3.26-1.95-7.74-2.2-11.23,1.53,1.99,2.03,4.62,3.83,6.6,1.84,2.02,9.52,5.31,12.08,3.69-3.28-2.88-7.6-8.81-8.35-13.33-.85-5.17,1.01-10.62,1.01-15.63.34,2.1,1.05,4.57,1.89,6.53,1.63,3.84,4.24,4.37,7.43,7.3,7.53,6.92,3.04,16.78,5.07,25.23,1.87-.59,2.9-4.75,3.6-6.54,1.7-4.34,2.77-8.08,1.04-12.67,6.57,5.27,5.49,17.33,5.53,24.76-.57-3.22,2.11-8.31,2.92-11.25,1.3-4.74,3.18-10.61,2.61-15.47-.39-3.35-2.46-6.9-3.76-9.96-1.14-2.69-2.56-7.34-4.76-9.26-.26-.23-3.34-1.69-3.56-1.72-2.7-.41-1.7.63-3.93,1.19-5.27,1.34-11.56-.48-17.08.58-6.07,1.16-11.31,3.45-17.59,3.57-1.46.03-2.93,0-4.39,0-.68,0-5.79,0-4.31,0" fill="#575643" stroke-width="0"/><path d="m521.4-7.1c-1.81,1.85-2.8.65-4.46,1.71-1.64,1.04-2.82,2.6-4.46,3.89-4.26,3.36-6.24,5.14-8.47,10-2.6,5.65-4.51,8.13-3.22,14.91.94,4.94,6.16,12.57,11.5,13.25-1.08-.51-2-1.38-2.05-2.28-4.57-.67-4.71-16.83-.48-18.27,1.09,1.8.05,4.58.51,6.75,1.1,5.11,3.8,6.43,8.16,7.7-4.16-1.92-3.01-12.72-2.49-16.46.74,2,1.94,3.82,2.72,5.86-.4,1.42-.05,2.56,1.05,3.4.54.92,1.9,1.43,2.45,2.6.84-4.38-1.1-7.65.3-12.28,1.53-5.06,2.81-10.78,5.33-15.46,1.33-2.46,4.47-6.78,5.05-8.15" fill="#4a4a3b" stroke-width="0"/><path d="m545.02-7.1c.77,6.29-3.74,12.42-5.59,18.1-1.36,4.17-3.13,7.81-5.41,11.81,1.41-.65,3.32-1.81,4.54-2.99,2.76-2.68,8.66-7.39,9.37-11.33-.44,4.65-.55,7.91-2.56,12.47-2.26,5.13-6.38,10.47-10.38,14.39,8.38-7.29,16.36-16.56,21.37-26.76,1.91,1.76.94,5.85.76,8.11-.46,5.71-1.9,9.32-6.58,12.68,5.28-2.82,8.36-10.55,11.84-15.15,3.71-4.9,10.01-10.26,10.96-16.74.4-2.75-.28-8.66-2.64-10.04-.24.54-.3,1.1-.18,1.67" fill="#575643" stroke-width="0"/><path d="m620.41-8.05c1.33,1.64,3.74,2.37,5.38,4.03,3.28,3.32,5.92,8.37,6.72,13.03.82,4.8.66,10.76-.72,15.33-.77,2.53-2.1,5.76-3.8,7.83-1.41,1.71-5.11,2.57-5.7,4.12,4.24-3.67,4.65-14.67,1.15-18.84-.93,3.8-.16,7.65-1.4,11.58-1.13,3.56-6.39,13.52-10.93,13.35.12-1.8,1.44-1.51,2.08-2.91.79-1.71,1.35-3.92,2-5.7.94-2.61,1.82-5.34,1.39-8.17-.45-2.9-2.94-4.99-2.78-7.92.36,2.11-1.65,2.98-2.53,4.72-.77,1.52-.22,2.5-.92,4-.67,1.43-2.43,3.66-3.32,5.12-3.12,5.09-4.66,4.83-4.53,11.03.05,2.63.08,5.32-.15,7.95.5-2.05-.63-3.73-1.29-5.59-1.39-3.95-.88-6.98-1.52-10.95-.89-.18-2.11-.08-2.92.33.39,1.58-.76,1.82-1.25,3.02-1.85,4.46-1.36,8.72-1.39,13.77-.01,3.04-.82,7.11.23,10.02,1.05,2.88,4.46,3.81,5.48,6.4.19-2.21-2.25-4.53-3.11-6.39-1.87-4.07-5.93-9.61-5.54-14.14-5.73-2.92-6.04,16.27-3.84,19.31-3.48-9.11-10.35-16.93-11.19-27.03-.56-6.71,1.28-14.42,6.33-18.88,5.28-4.66,12.23-6.46,18.97-8.69,11.91-3.93,20.02-13.4,23.36-25.38-.19.78-.34,1.56-.45,2.35" fill="#575643" stroke-width="0"/><path d="m665.02-10.88c-6.95,2.36-12.83,6.4-17.9,11.76-5.61,5.94-6.55,14.63-6.55,22.4,0,2.07-.41,4.59-.04,6.62.41,2.27,2.15,4.48,2.91,6.7,1.49,4.39.94,10.12.75,14.79,1.8-2.67,4.94-4.5,6.5-7.41,1.16-2.17,2.4-6.08,2.86-8.5.44-2.33-.42-5.04.38-7.17,3.25,1.58,2.18,8.77,2.79,11.8,5.39-3.42,6.3-16.23,1.81-20.24,2.28.16,3.7,3.3,4.76,5.1,1.45-2.99,1.28-7.83.09-10.82,3.98.61,3.27,6.29,7.32,2.67,3.09-2.77,4.94-9.66,4.85-13.51-.05-2.49-.88-5-1.04-7.51-.2-3.08,1.06-7.25-.16-10.15-1.06.51-1.23,1.69-.83,3" fill="#575643" stroke-width="0"/><path d="m721.71-11.34c.85-1.46,1.33-2.59.94-4.13-4.68,1.92-8.13,8.22-11.3,11.94-6.33,7.43-6.45,13.03-3.78,21.93,1.45,4.84,2.23,9.38.84,14.4-.82,2.99-2.4,9.04-5.49,10.23-.88-4.63,1.71-9.87.74-14.07-3.27,2.83-4.45,7.89-6.94,11.35-1.5,2.09-4.55,4.07-5.36,6.12,2.62-2.6,4.39-7.93,5.49-11.54,1.32-4.31-.48-4.94-2.33-7.81-.51,1.86.05,3.62-.49,5.55-.71,2.52-3.26,5.86-4.98,7.79-2.16,2.43-5.15,5.97-8.64,6.22,4.03-6.26,16.73-17.71,11.33-26.2-.61,5.16-8.08,15.54-14.23,14,1.22-.62,2.23-1.33,2.74-2.55,4.89-.21,8.65-16.68,10.73-20.5,3.33-6.11,9.29-12.55,16.7-12.85.78.03.73.04-.15.02" fill="#4a4a3b" stroke-width="0"/></g><path d="m64.95,58.73c.34,1.44,1.87,2.22,2.03,3.9.16,1.72-.3,4.97-1.43,6.35,2.99-.48,2.42-5.5,2.74-7.55.55.4.69.91,1.01,1.46,1.02,1.78,2.1,3.81,2.7,5.77.94-2.63-.09-5.59-.61-8.21.64.03,1.5,1.36,2.03,1.74.63.44,2.63,2.74,3.42,1.94-.9-1.25-1.64-2.85-2.09-4.37.5-.35,1.98.64,2.66.77,1.86.37,3.02.21,4.77-.31-1.35.09-2.19.02-3.46-.65-1.54-.81-5.24-2.65-5.55-4.53.1.31.19.62.3.92" fill="#575643" stroke-width="0"/><path d="m138.84,24.79c-.11.8.42.73.73,1.37.69,1.43,1.02,2.81.5,4.37-.97,2.92-2.07,6-4.57,7.78-.05,0,.48,0,.55,0,.47-1.04,2.21-1.66,3.01-2.35,1.9-1.65,3.21-3.63,4.44-5.77,1.07,1.25.51,4.03.41,5.46,1.27-.97,2.12-3.87,2.52-5.45-.25.75.24.83.48,1.38.4.94.65,1.5.56,2.54-.12-1.51.53-3.57.85-5.03.91.27,1.6,1.41,2.89,1.68.94.19,2.22.2,3.15,0,.97-.22,1.65-.81,2.7-.63-4.09-1.82-7.27-6.8-6.86-11.34.14-.13.3-.14.48-.02" fill="#575643" stroke-width="0"/><path d="m239.59,129.67c-.08.66.19,1.11.28,1.74.19,1.42.23,3.04.07,4.46-.29,2.55-1.91,3.6-3.37,5.48-.79,1.03-1.42,2.37-1.91,3.52.92.33,1.97-.64,2.58-1.14,1.27-1.04,3.53-3.37,3.76-5.07.39.53.23.95.35,1.51.38,1.75.84,4.09.28,5.85-.07-.43.19-.87.35-1.33.62-1.83,1.55-3.58,1.95-5.48.99.14,1.93,1.73,2.5,2.4.71.83,1.74,2.89,2.75,3.15-.19-2.56-.89-5.16-.74-7.74,1,1.86,7.44,3.89,8.48,1.22-5.85-.3-10.09-6.14-12.04-11.15.01.15.02.3.03.45" fill="#575643" stroke-width="0"/><path d="m175.69,91.4c-.12,1.47,1.1,2.69.73,4.34-.38,1.69-1.82,4.63-3.33,5.6,3,.47,4-4.49,4.94-6.34.4.56.38,1.07.51,1.7.42,2.01.82,4.27.79,6.32,1.7-2.21,1.64-5.34,1.96-8,.6.23,1.01,1.76,1.4,2.28.46.61,1.66,3.42,2.65,2.9-.47-1.47-.68-3.22-.64-4.8.59-.18,1.69,1.22,2.3,1.56,1.66.92,2.81,1.13,4.63,1.18-1.31-.33-2.08-.66-3.09-1.69-1.21-1.24-4.16-4.14-3.87-6.02,0,.32,0,.65,0,.97" fill="#575643" stroke-width="0"/><path d="m38.33,134.28c.63,1.89,1.58,3.28,1.42,5.37-.14,1.81-1.43,3.28-2.06,4.93-.4,1.05-.58,2.22-1.24,3.14.99-.19,2.62-1.84,3.23-2.48,1.38-1.43,2.36-3.92,2.18-5.91.03,1.22,1.01,3.41,1.41,4.52.57,1.58.51,2.25.64,3.8.66-2.62.96-5.69.77-8.41.48.91.72,1.87,1.2,2.77.73,1.38,1.56,2.32,1.81,3.87,1.15-.15.34-6.54.11-7.22.64.2,1.11.5,1.67.85,1.37.86,2.67,1.62,4.19,2.21.73.29,3.67,1.92,4.36,1.52,1.38-.8-2.37-2.71-2.61-2.89-2.48-1.88-4.25-4.07-5.81-6.75.02.1.05.2.07.3" fill="#575643" stroke-width="0"/><path d="m104.23,194.72c.25.24.29.42.1.55-.89-.84-1.72-1.63-2.66-2.4-1.33-1.08-2.14-.2-3.68-.42" fill="none" stroke="#684f21"/><path d="m101.11,192.76c.03-.22-.07-.33-.28-.34-.92.77-2.08,4.81,0,4.6,1.69-.17,1.58-3.6.28-4.26" fill="#2f1b17" stroke-width="0"/><path d="m101.11,192.76c.03-.22-.07-.33-.28-.34-.92.77-2.08,4.81,0,4.6,1.69-.17,1.58-3.6.28-4.26" fill="none" stroke="#684f21"/><path d="m384.51,356.29s12.04-10.66,15.66-12.15c3.62-1.49,15.29-4.4,19.78-5.77,0,0,2.39,2.34-.66,6.21,0,0,3.2.16,6.24-1.13,3.04-1.29,5.79-.47,4.66,3.52-1.13,3.99-1.87,7.2-3.87,11.21-1.99,4.01-3.87,7.49-8.44,9.42-4.57,1.93-14.66,6.21-23.64,4.95-8.98-1.26-15.96-2.53-15.96-2.53l6.22-13.72h0Z" fill="#9e8470" stroke-width="0"/><path d="m384.51,356.29s12.04-10.66,15.66-12.15c3.62-1.49,15.29-4.4,19.78-5.77,0,0,2.39,2.34-.66,6.21,0,0,3.2.16,6.24-1.13,3.04-1.29,5.79-.47,4.66,3.52-1.13,3.99-1.87,7.2-3.87,11.21-1.99,4.01-3.87,7.49-8.44,9.42-4.57,1.93-14.66,6.21-23.64,4.95-8.98-1.26-15.96-2.53-15.96-2.53l6.22-13.72h0Z" fill="none" stroke="#684f21" stroke-width="1"/><path d="m402.09,349.32s10.5-1.39,17.31-5.01" fill="#9e8470" stroke-width="0"/><path d="m402.09,349.32s10.5-1.39,17.31-5.01" fill="none" stroke="#684f21" stroke-width="1"/><path d="m164.35,360.83c-3.71-.33-7.51-1.51-11.14-2.31-1.99-.44-5.5-1.16-6.92-2.74.06.08.11.16.17.24" fill="none" stroke="#684f21"/><path d="m371.75,373.45s6.37,43.97,85.98,12.06" fill="#8f8982" stroke-width="0"/><g clip-path="url(#clippath-2)"><path d="m371.75,373.45s6.37,43.97,85.98,12.06m111.1-177.17c.68.46.81,1.73,1.37,2.41,1.19,1.46,3.64.86,4.88,1.83.69.55.96,1.99,1.07,2.91.43,3.56,0,7.08.58,10.65.39,2.42.63,4.83,1.11,7.25.65,3.3,1.62,6.45,2.41,9.7.54,2.21,1.27,4.02,2.06,6.12,1.15,3.05,1.52,6.33,2.6,9.4,1.75,4.99,5.29,9.76,8.25,14.09,2.33,3.41,5.19,6.65,7.91,9.76,6.62,7.57,16.06,12.26,26.09,13.25,3.12.31,6.07.48,9.21.49,3.2.02,5.87-.85,8.91-1.72,1.41-.41,2.81-.97,4.09-1.64,1.53-.81,3.93-1.42,5.23-2.62.62-.57.92-.99,1.7-1.52.55-.38.93-.87,1.57-1.23.57-.32,2.39-1.27,2.84-1.75-.1.14-1.42.94-1.44,1.12m2.48-5.5c-.9-.89-3.81.79-4.75,1.04-3.2.84-6.23,1.07-9.52,1.07-8.68,0-17.49,2.05-26.06-.48-1.87-.55-3.55-1.67-5.29-2.52-1.58-.77-2.84-1.22-4.23-2.34-1.57-1.26-2.99-3.06-4.32-4.58-1.47-1.68-2.56-3.39-3.96-5.12-1.32-1.63-2.91-2.04-3.58-3.97-.53-1.54-1.63-2.84-1.97-4.49,0,.27-.69-1.65-.69-1.38m12.76,4.65c1.21-.34,2.31,2.66,3.11,3.22,3.28,2.28,7.43,4.65,11.19,5.96,6.48,2.26,12.94,4.33,19.67,5.65,3.19.62,6.7.79,9.7,1.97.74.29,4.21,1.48,4.06,2.01m-27.19,21.81c-.07.12-.06.22.03.3.48-.03.96,0,1.44-.02,1.73-.06,3.19-.72,4.82-1.26,2.11-.71,4.47-1.3,6.41-2.34,1.53-.82,2.93-1.81,4.32-2.86,1.89-1.43,3.94-2.65,5.79-4.1.7-.55,3.36-4.52,3.46-5.35.12.77-1.3,3.7-1.69,4.37-1.22,2.09-1.87,4.5-2.98,6.65-2.23,4.31-5.03,8.17-8.35,11.6-1.72,1.78-3.76,3.7-5.89,5.06-.95.6-1.63.4-2.78.4-1.13,0-2.16.24-3.29.3-3,.18-5.82-.53-8.4-2.1-2.34-1.42-4.99-2.84-7-4.7-.64-.59-1.72-2.51-2.91-1.96m6.46-37.37c4.31-.08,6.77-3.06,9.56-6.15,2.22-2.45,4.24-5.11,6.73-7.31,1.72-1.52,4.13-2.56,6.04-3.86,1.95-1.32,3.52-2.14,5.71-2.68.36-.09.88-.48,1.18-.52.61-.09,1.09.1,1.63-.23-.26.13-.3.36-.44.52m-38.01,15.59c.77.12,1.26-.47,1.86-.85,1.88-1.21,3.82-2.26,5.55-3.73,4.34-3.7,7.82-8.36,12.52-11.67,2.24-1.58,4.79-3.31,7.44-4.09,1-.3,2.78-1.19,3.78-.88m-99.73,77.63c.85.2,1.3,1.82,1.6,2.55.92,2.22,1.82,4.19,4.51,3.91,1.39-.14,2.25.21,3.51.89,2.11,1.14,4.32,2.31,6.54,3.21,2.45,1,5.05,1.57,7.53,2.47,1.74.63,2.9,1.15,4.78,1.13,1.82-.02,3.41.62,5.21.66.85.02,1.57.53,2.27,1.08m-25.17-37.45c2.96,1.22,5.99,2.63,8.81,4.27,2.86,1.66,5.33,3.8,8.07,5.61,3.42,2.26,6.11,5.03,9.16,7.73,1.31,1.15,2.64,2.36,3.98,3.46,1.03.84,2.39,1.26,3.52,1.97,1.95,1.23,4.01,2.47,5.8,3.92-.54-.19,2.24,1.51,1.71,1.3m-28.01-9.56c1.94.08,3.2,1.1,5,1.98,2.41,1.17,4.16,1.78,6.76,2.31,2.22.46,3.99,1.7,6.15,2.24,5.02,1.25,9.47,3.75,14.73,3.95,4.77.17,9.5,1.41,14.25,1.78,2.32.18,4.12.68,6.17,1.79-.28-.24-.72-.17-1.19-.16m-59.24.85c.01-.14.07-.24.18-.31-.99.03-1.74,1.42-2.27,2.08-1.24,1.54-1.61,2.7-2.13,4.62-.89,3.28-2.2,6.41-2.83,9.76-.41,2.15-.61,4.28-.51,6.47.13,2.95-.51,5.74-.75,8.67-.35,4.23-1.22,8.34-2.26,12.45-1.79,7.09-4.2,14.09-5.55,21.29-1.07,5.73-2.09,11.48-3.28,17.19-.44,2.1-.95,4.18-1.27,6.3-.45,2.93-1.28,5.98-1.47,8.92-.11,1.62.21,2.96-.46,4.48-.09-.51-.06-1.06-.06-1.58" fill="none" stroke="#684f21"/></g><path d="m568.89,335.75c.08.02.37.27.45.28-.09.68-.63.55-.95,1.16-2.23,4.32-2.98,9.98-3.94,14.68-.58,3.08-1.22,6.14-1.92,9.2-1.14,5.22-1.83,10.46-2.8,15.71h0c-.15.83-1.18,3.37-.75,4.09.19.32,1.16.5,1.5.7.61.36,1.09.89,1.76,1.14.68.26,1.47.29,2.17.5,2.49.76,5.94,1.16,8.24-.46,1.76-1.23,1.96-3.58,3.67-4.82,1.33-.96,3.27-1.27,4.83-1.54,3.7-.63,6.88-3.55,9.49-5.94,1.27-1.16,3.42-2.12,3.69-3.96" fill="#898279" stroke-width="0"/><g clip-path="url(#clippath-3)"><path d="m568.89,335.75c.08.02.37.27.45.28-.09.68-.63.55-.95,1.16-2.23,4.32-2.98,9.98-3.94,14.68-.58,3.08-1.22,6.14-1.92,9.2-1.14,5.22-1.83,10.46-2.8,15.71h0c-.15.83-1.18,3.37-.75,4.09.19.32,1.16.5,1.5.7.61.36,1.09.89,1.76,1.14.68.26,1.47.29,2.17.5,2.49.76,5.94,1.16,8.24-.46,1.76-1.23,1.96-3.58,3.67-4.82,1.33-.96,3.27-1.27,4.83-1.54,3.7-.63,6.88-3.55,9.49-5.94,1.27-1.16,3.42-2.12,3.69-3.96m88.72-34.85c.12.5-.6,1.28-.77,1.86-.77,2.68-1.58,5.53-3.14,7.87-1.42,2.14-3.57,4.02-5.67,5.48-3,2.08-6.14,4.42-9.28,6.26-3.67,2.14-7.02,4.25-10.35,6.9-3.06,2.43-6.67,4.06-9.83,6.3-1.12.79-2.33,1.85-3.44,2.52-.54.32-1.34.44-1.41,1.15-.6.26-.69.75-1.14,1.14-.45.38-.95.4-1.35.78.35-.02.69-.02,1.04-.01m-69.31,11.92c.01,1.74.08,2.87.14,4.61.18,5.39.19,10.53-.54,15.91-.96,7.02-2.82,13.87-3.85,20.89-.88,6.01-1.54,12.11-3.77,17.79-.16-1.08-.06-2.27-.06-3.37m.14-57.94c.21.43-.21-.77-.14-.31.27,1.84.38,3.96.29,5.81-.2,3.97-1.68,7.84-2.36,11.73-.66,3.75-1.19,7.41-2.17,11.09-2.21,8.3-3.96,16.76-6.45,24.98-.62,2.04-1.2,3.96-1.64,6.03-.13.64-.18,2.2-.73,2.66.01-.31.02-.62.01-.93m-115.37-211.47c.08.02.17.03.25.05.29,1.6,1.58,3.24,2.37,4.57.92,1.55,2.19,2.75,3.29,4.16,1.74,2.23,3.15,4.64,5.02,6.8,1.41,1.63,3,2.84,4.6,4.26,1.99,1.77,3.72,3.59,5.96,5.08,1.42.95,2.93,1.89,4.45,2.67,2.5,1.29,5.15,1.7,7.77,2.61,4.13,1.44,8.75,2.11,13.1,2.78,2.49.38,5.07.23,7.58.41,2.61.19,5.3.32,7.92.38,3.84.09,7.65-1.01,11.37-1.8,2.32-.49,4.1-2.2,6.2-3.03-.33.26-.68.38-1.08.55m-41.95-11.07c.54.47,1.51.42,2.19.61,3.25.92,6.57,1.74,9.87,2.48,5.9,1.32,11.79.39,17.66-.44,4.2-.59,7.36-2.86,10.55-5.39-.02.16-.03.31-.02.47m-56.13,35.15c-.05-.17-.04-.21.05-.12,1.6,1.73,2.41,4.57,3.7,6.54,2.56,3.92,5.61,7.86,9.18,10.92,2.94,2.51,5.51,5.49,8.58,7.82,2.93,2.22,6.02,4.19,9.48,5.49,4.13,1.55,8.08,3.66,12.44,4.58,1.15.24,2.26.5,3.39.79.46.12,1.09.38,1.59.29-.39.08-.75-.03-1.04-.3m-38.01-38.27c2.31,4.28,5.79,7.63,9.1,11.15,3.16,3.36,6.3,6.21,9.98,9.01,1.2,1.01,2.48,1.91,3.84,2.69,1.72,1.05,3.22,2.41,4.93,3.46,2.89,1.78,6.14,2.98,9.39,3.96,1.11.33,2.47.44,3.44.92-.14,0-.29,0-.43,0m-55.56-16.16c.36.91.74,1.6,1.33,2.38,3.02,3.97,6.43,7.81,9.87,11.41,2.94,3.07,6.31,6,10.13,7.93,3.67,1.84,7,4.22,10.65,6.1,4.37,2.25,9.16,3.84,13.88,5.14,1.31.36,2.74.69,4.01,1.12.61.21,1.94.43,2.26.75-.17.1-.36.12-.55.07m-46.46-16.74c-.07-.28.55.39.74.6,3.42,3.83,7.36,7.28,11.63,10.14,2.24,1.5,4.54,2.36,6.96,3.49,2.27,1.06,4.34,2.37,6.73,3.17,3.69,1.23,7.41,2.51,11.14,3.61,2.74.81,5.59,1.56,8.06,2.52-.16-.01-.32-.01-.49,0m-28.91,28.91c-.42-.33-.56-.72-.77-1.18-.65-1.38-1.3-2.83-1.92-4.23-2.28-5.17-3.75-10.65-5.48-16.03-1.19-3.71-1.96-7.54-2.88-11.31-.4-1.62-.64-3.29-.93-4.93-.16-.95.05-2.42-.44-3.28,1.74,1.95,3.64,3.9,5.77,5.48,2.02,1.5,4.23,2.99,6.61,3.83,3.83,1.34,7.45,2.95,11.13,4.7,3.64,1.74,7.28,3.28,11.33,3.65,1.21.11,2.66-.21,3.83.12.79.22,1.14.63,2.01.49-.22.31-.47.62-.76.87m-5.39,37.98c.61-.02.6.27,1.04.64,2.44,2.12,4.9,3.59,7.7,5.16,2.23,1.26,3.88,2.33,6.46,2.62,2.12.23,4.07.85,6.22.6,2.14-.25,4.27-.79,6.38-1.08.88-.12,1.91-.37,2.74-.75-.16.15-.31.31-.46.48m-186.49-152.15c.45,1.29.54,2.13.84,3,.33.96.82,2.05,1.18,3.08,1.46,4.15,3.62,7.31,6.47,10.68,1.99,2.34,4.22,4.08,6.43,6.18,2.16,2.05,4.14,4.38,6.56,6.14,2.14,1.55,4.41,2.84,6.67,4.2,1.97,1.19,3.7,2.72,5.75,3.76,4.24,2.14,8.38,5.12,12.89,6.63,4.23,1.42,8.44,2.29,12.77,3.32,5,1.2,10.42,1.47,15.18,3.44.13.32.02.56-.22.8m-65.5-58.39c.48,1.91,1.19,3.4,1.88,5.26,1.05,2.83,1.62,5.94,3.05,8.64,1.44,2.72,2.8,5.4,4.63,7.89,2.36,3.21,6.27,6.15,9.67,8.19,4.03,2.42,7.99,4.87,12.23,6.91,1.8.87,3.61,1.62,5.47,2.34,2.23.86,4.55,1.34,6.78,2.2,2.8,1.08,5.47,2.49,8.25,3.63,2.33.96,4.77,1.48,7.17,2.24,2.42.77,5.93,1.56,7.87,3.18-.31.38-.69.33-1.22.27m-71.15-17.01c2.53,4.08,5.21,7.91,8.24,11.67,4.26,5.29,9.84,8.67,15.45,12.33,2.68,1.75,5.55,3.12,8.36,4.66,3.26,1.79,6.46,3.76,9.76,5.47,2.26,1.17,4.62,2.47,6.99,3.38.98.37,2.05.59,2.99,1.05-.16,0-.32-.01-.49-.01m39.12-18.42c-.64.25.16,1.8.24,2.42.36,2.66-.03,5.69-.58,8.29-1.2,5.65-3.11,11.24-4.77,16.76-.94,3.15-2.07,6.16-3.36,9.2-.42.99-.96,1.78-1.43,2.72-1,2.03-1.42,4.28-2.51,6.29-1.33,2.44-3.39,4.16-4.64,6.67.28-.46.67-.82.89-1.33m-102.05,3.68c1.03.68,2.34.58,3.56.57,2.42-.02,4.78.55,7.21.58,2.41.02,4.74.89,7.02,1.62,2.4.77,4.66,2.15,7.09,2.72,2.5.59,4.99,1.31,7.45,2.1,1.96.63,3.68,1.84,5.7,2.4h0c1.22.34,2.89.15,2.56,1.64-.36,1.58-1.27,3.22-1.8,4.78-1.05,3.07-2.52,6.18-3.18,9.35-.67,3.22-1.62,6.6-2.71,9.71-1.19,3.38-2.15,6.8-3.26,10.19-.92,2.82-1.97,5.54-3.01,8.32-1.07,2.84-1.75,5.77-3.01,8.54-1.67,3.68-2.76,7.61-4.09,11.42-1.13,3.26-2.66,6.29-3.64,9.61-1.39,4.69-3.28,9.37-4.28,14.12-.23,1.1-.38,2.89-.95,3.89-.3.53-.8.75-1.04,1.38-.01-.68.04-1.4.31-2.03m26.65-46.77c.04-.23.02-.25-.06-.06-1.59,4.41-2.01,9.46-3.06,14.04-.47,2.04-1.02,4.01-1.2,6.1-.25,2.95-.39,5.82-1.28,8.66-.39,1.23-.66,2.27-.88,3.55-.53,3.08-2.02,6.05-2.27,9.16-.17,2.09.28,4.06-.83,5.93-.06-.41.02-.8.24-1.17" fill="none" stroke="#684f21"/></g><path d="m333.98,400.27c.39-.45-.19.06.31-.08.08-.16.2-.29.35-.39.8-.19,1.56-.49,2.28-.91,1.93-1.11,3.62-2.33,5.72-3.15,1.39-.54,2.74-.98,4.09-1.63,1.6-.79,3.1-1.72,4.67-2.54.87-.46,1.78-.57,2.64-1,1.54-.77,5.48-2.27,7.04-3-.42.19-5.22-9.18-5.52-8.84" fill="#8f8982" stroke-width="0"/><g clip-path="url(#clippath-4)"><path d="m333.98,400.27c.39-.45-.19.06.31-.08.08-.16.2-.29.35-.39.8-.19,1.56-.49,2.28-.91,1.93-1.11,3.62-2.33,5.72-3.15,1.39-.54,2.74-.98,4.09-1.63,1.6-.79,3.1-1.72,4.67-2.54.87-.46,1.78-.57,2.64-1,1.54-.77,5.48-2.27,7.04-3-.42.19-5.22-9.18-5.52-8.84m-20.3-34.03c-2.6,3.63-4.18,7.99-4.86,12.43-.73,4.76-2.29,9.49-3.57,14.12-1.7,6.14-3.06,12.37-4.8,18.51-3.57,12.59-8.72,24.64-13.27,36.88-1.28,3.44-2.89,6.96-3.83,10.46-.36,1.33-.71,2.39-1.68,3.51.06-.87.94-1.69,1.42-2.37m37.99-91.53c-.04.59-.75,1.84-1.04,2.39-1.58,3-2.94,6.38-4.03,9.59-1.43,4.19-3.68,7.98-5.21,12.12-.86,2.32-1.54,4.71-2.28,7.07-1,3.2-2.33,6.26-3.44,9.42-.85,2.41-1.29,4.8-1.8,7.29-.58,2.83-1.71,5.3-2.95,7.9-2.66,5.57-5.4,11.23-7.34,17.09-.9,2.73-1.55,5.5-2.68,8.16-1.1,2.58-2,4.72-2.6,7.47-.79,3.64-2.62,7.11-3.32,10.69-.44-.1-.58-.41-.46-.85m-137.17-216c-.38.57-.95,2.14-.93,2.79.07,2.14.18,3.21.66,5.29h0c.83,3.6,3.07,6.93,5.28,9.82.81,1.06,1.8,2.05,2.9,2.81,1.55,1.07,3.46,1.39,5.12,2.23,1.83.92,3.74,1.6,5.55,2.57,1.67.89,3.49,1.16,5.29,1.68,1.73.49,3.39,1.52,5.18,1.73,3.5.41,7.15.21,10.68.28m-4.6-19c-.66-.16-1.37.38-1.99.57-1.95.59-4.06.64-6.06,1.16-1.19.3-2.31.25-3.52.24-2.25-.01-3.91.77-6,1.35-2.56.7-4.98-.89-7.45-1.27-.79-.12-1.52,0-2.29-.31-.69-.28-1.26-.82-1.93-1.16-1.58-.79-3.14-1.06-4.4-2.32-.88-.87-1.87-2.18-2.32-3.3-.36-.88-.02-2.95.97-5.08m66.18,42.11c-.27.45-.83.29-1.38.29-1.52-.03-2.96.31-4.48.3-4.88-.02-9.49-.84-14.18-1.99-1.95-.48-3.72-1.43-5.65-1.98-2-.57-4-1.44-6.01-1.89-1.64-.37-3.27-.39-4.92-.97-1.79-.62-3.54-1.37-5.18-2.3-2.98-1.69-5.82-3.18-8.97-4.44-1.28-.51-2.31-1.8-3.48-2.57-1.7-1.13-3.27-2.7-4.52-4.33-.69-.91-.89-1.9-1.45-2.83-.44-.72-1.06-1.42-1.54-2.12-1.52-2.24-3.05-4.13-4.02-6.7m-11.34,96.49c3.93-1.75,8.86-.85,13.12-.85,1.31,0,2.62.03,3.92.02,1.97-.02,3.66-.65,5.56-1.09,2.11-.49,3.97-.85,5.95-1.76,2.32-1.07,4.78-1.46,7.2-2.25,4.12-1.33,8.2-2.44,12.22-4.04,4.22-1.68,8.42-4.4,11.85-7.37,2.38-2.07,4.93-4.11,7.09-6.4,1.12-1.19,2.48-2.26,3.55-3.46.46-.52.7-1.1,1.34-1.47-.5.12-.92.48-1.22.89" fill="none" stroke="#684f21"/><path d="m128.33,333.9c.85.73,1.22,1.79,1.62,2.8,1.24,3.06,2.43,4.96,4.91,7.14,1.78,1.56,4.04,3.45,6.17,4.56,1.1.57,2.38.74,3.48,1.31,1.4.72,2.81,1.15,4.25,1.79,1.57.7,2.04,2.58.56,3.66-.95.69-2.35,1.11-3.4,1.71-1.91,1.09-3.8,2.8-5.13,4.58-.76,1.03-1.23,2.25-1.97,3.3-.89,1.26-1.43,2.37-2.04,3.79-1.6,3.72-3.7,7.16-4.74,11.12-.36,1.35-.3,2.74-.55,4.11-.28,1.61-.58,3.21-.88,4.82-.41,1.82-1.2,3.63-1.42,5.49-.23,1.97.32,3.91.2,5.91-.32,2.69-.66,5.38-1.01,8.06-.19,1.52-.7,3.53-.59,5.14.24,3.66.63,7.14.48,10.85-.1,2.46-.57,4.89.11,7.27.51,1.79.56,3.44.79,5.24.06.48.43.76.29,1.34,0-.64,0-1.28,0-1.93" fill="#898279" stroke-width="0"/><path d="m128.33,333.9c.85.73,1.22,1.79,1.62,2.8,1.24,3.06,2.43,4.96,4.91,7.14,1.78,1.56,4.04,3.45,6.17,4.56,1.1.57,2.38.74,3.48,1.31,1.4.72,2.81,1.15,4.25,1.79,1.57.7,2.04,2.58.56,3.66-.95.69-2.35,1.11-3.4,1.71-1.91,1.09-3.8,2.8-5.13,4.58-.76,1.03-1.23,2.25-1.97,3.3-.89,1.26-1.43,2.37-2.04,3.79-1.6,3.72-3.7,7.16-4.74,11.12-.36,1.35-.3,2.74-.55,4.11-.28,1.61-.58,3.21-.88,4.82-.41,1.82-1.2,3.63-1.42,5.49-.23,1.97.32,3.91.2,5.91-.32,2.69-.66,5.38-1.01,8.06-.19,1.52-.7,3.53-.59,5.14.24,3.66.63,7.14.48,10.85-.1,2.46-.57,4.89.11,7.27.51,1.79.56,3.44.79,5.24.06.48.43.76.29,1.34,0-.64,0-1.28,0-1.93" fill="none" stroke="#684f21"/></g><path d="m163.58,379.84c-.09.55,2.11,12.23,1.69,12.73-.39.46-.67,1.01-1.06,1.46-.88,1.03-2.37,1.97-3.44,2.82-.69.55-1.48.72-2.24,1.12-1.12.58-2.09,1.25-3.27,1.73-2.45,1-4.7,2.45-7.19,3.39-3.08,1.16-6.32,2.61-9.55,3.2-2.59.47-5.35.86-7.87,1.61-2.55.76.54.37-2.04.6.46-.22-.13-.15.14-.57" fill="#898279" stroke-width="0"/><g clip-path="url(#clippath-5)"><path d="m163.58,379.84c-.09.55,2.11,12.23,1.69,12.73-.39.46-.67,1.01-1.06,1.46-.88,1.03-2.37,1.97-3.44,2.82-.69.55-1.48.72-2.24,1.12-1.12.58-2.09,1.25-3.27,1.73-2.45,1-4.7,2.45-7.19,3.39-3.08,1.16-6.32,2.61-9.55,3.2-2.59.47-5.35.86-7.87,1.61-2.55.76.54.37-2.04.6.46-.22-.13-.15.14-.57m16.87-36.32c-1.36,2.78-2.54,5.38-3.62,8.32-1.5,4.1-2.56,8.58-3.11,12.9-.54,4.2-.04,8.73-.04,12.99v-.76m-2.01-58.68c.13-.09.34-.15.46-.25-1.22,2.83-3,5.14-5.07,7.39-2.88,3.13-4.39,7.46-6.44,11.12-2.45,4.39-4.23,9.16-5.98,13.86-1.47,3.95-2.61,8.33-3.36,12.49-.48,2.7-1.29,5.41-1.46,8.15-.16,2.61-.38,5.19-.94,7.76-.52,2.38-1.54,4.62-1.57,7.07-.05,2.98-1.07,5.72-1.4,8.62-.24,2.09.05,4.15-.31,6.25-.28,1.63-.66,3.07-1.21,4.64-.7,1.98-1.04,4.19-1.84,6.11-.14-.7-.05-1.5-.05-2.22" fill="none" stroke="#684f21"/></g><path d="m194.66,404.77c-.52,2.42,10.95-.24,12.1-.55,6.87-1.86,13.4-4.75,19.88-7.6,4.59-2.02,8.73-4.72,13.06-7.13,3.43-1.91,6.69-3.9,9.59-6.51,1.15-1.04,2.06-2.15,3.26-3.07.69-.52,1.29-.89,1.92-1.43.59-.5,1.47-1.09,2.02-1.7.13-.14.27-.71.46-.93.31-.36.61-.36.94-.63.99-.83,1.99-2.01,2.82-2.84.42-.42,1.13-.9,1.47-1.34" fill="#898279" stroke-width="0"/><g clip-path="url(#clippath-6)"><path d="m194.66,404.77c-.52,2.42,10.95-.24,12.1-.55,6.87-1.86,13.4-4.75,19.88-7.6,4.59-2.02,8.73-4.72,13.06-7.13,3.43-1.91,6.69-3.9,9.59-6.51,1.15-1.04,2.06-2.15,3.26-3.07.69-.52,1.29-.89,1.92-1.43.59-.5,1.47-1.09,2.02-1.7.13-.14.27-.71.46-.93.31-.36.61-.36.94-.63.99-.83,1.99-2.01,2.82-2.84.42-.42,1.13-.9,1.47-1.34m-63.83,24.97c1.47,0,8.68-.46,10.14-.65,2.98-.39,5.88-1.78,8.57-3.06,2.41-1.14,4.88-2.09,7.31-3.17,1.94-.87,3.65-2.16,5.57-3.05,1.27-.58,2.49-1.02,3.69-1.79,2.24-1.42,4.6-2.34,6.76-3.85,2.55-1.78,5.18-3.39,7.75-5.15,1.55-1.06,3.16-1.83,4.56-3,1.62-1.36,3.51-2.47,5.24-3.74-.07-.48.38-.92.7-1.28.4-.45.16-.03.54-.57m1.81,5.75c-.89,1.58-1.54,3.26-2.4,4.81-1.87,3.35-4.25,6.64-5.77,10.19-1.55,3.64-2.63,7.76-3.2,11.66-.29,2.02.03,4.1-.36,6.09-.42,2.13-.46,4.03-.46,6.21.01,3.67.02,7.35-.01,11.02-.02,2.43.45,4.65.64,7.03.13,1.72-.05,3.54-.06,5.26-.01,2.28.32,4.65.57,6.91.08.73.16,1.55.43,2.23.14.35.7.21.45.96,0-.41,0-.81,0-1.22m-2.86-59.51c.14.77-.41,1.45-.64,2.17-.92,2.84-1.25,6.19-1.73,9.12-.31,1.72-.46,3.46-.44,5.21-.14,2.15-.87,3.97-1.2,6.08-.48,3.07-.04,6.16-.18,9.24-.11,2.43-.63,4.65-.61,7.12.03,2.75-.31,5.46-.3,8.21.02,4.27,0,8.55,0,12.83v-.47m-82.89-211.28c.07.94.39,2.04.4,3.01.01,2.82.18,5.6.63,8.4.78,4.83,1.59,9.63,3.19,14.28,1.49,4.33,4.49,7.82,6.65,11.8,1.82,3.36,4.43,6.2,6.73,9.25,1.25,1.66,2.6,3.15,4.04,4.65,1.89,1.97,3.57,4.19,5.87,5.71,3.6,2.37,6.8,5.18,10.98,6.48,2.01.63,4.19,1.06,6.07,2.04m-43.59-104.6c-1.84,9.07-1.42,31.43-1.42,31.43,0,.81,0,1.62,0,2.43-.01,2.79.46,5.29.86,8.06,1.35,9.19,5.92,18.11,11.05,25.82,5.47,8.21,11.2,16.24,19.66,21.64,3.18,2.03,6.67,3.99,10.21,5.33,1.31.5,3.18,1.34,4.62,1.37M54.34,217.97c0,4.92-.24,9.77-.02,14.71.14,3.17.76,6.31,1.99,9.22.67,1.58,1.17,3.32,2.06,4.78,1.22,1.99,2.03,4.3,3.32,6.2,1.13,1.66,2.54,3.24,3.91,4.7,1.37,1.47,2.59,3.18,4.07,4.53,1.31,1.19,2.67,2.22,3.94,3.48,1.84,1.84,4.15,3.02,6.01,4.84,3.38,3.31,7.16,6.46,11.44,8.61,2.26,1.14,4.77,2.48,6.49,4.38-.29-.48-.71-.87-1.23-1.11m-56.43-28.91c1.12,1.09,2.06,2.23,3.07,3.41,2.94,3.41,6.17,6.51,9.4,9.65,3.75,3.64,7.98,7.04,12.18,10.16,2.32,1.72,4.88,3.06,7.19,4.82,1.87,1.43,3.55,2.62,5.62,3.69,3.59,1.86,7.04,3.8,10.79,5.2,1.49.55,2.69,1.5,4.17,2.08-.29-.59-1.25-1.14-1.97-1.02" fill="none" stroke="#684f21"/></g><path d="m407.12,123.38c-.28.08-.48-.02-.84-.23-.25-.14-.54-.3-.89-.36-.34-.06-.62-.1-.87-.13-.55-.07-.91-.11-1.51-.4-.98-.47-2.01-1-2.97-1.75-1.38-1.08-1.79-1.97-2.47-3.45l-.32-.68-.27-.55c-.43-.86-.49-.97.04-1.88.48-.82.66-.98,1.73-1.06l.24-.92c-.25-.22-.48-.43-.85-.55-.11-.36-.25-.65-.4-.94-.16-.33-.32-.64-.4-1.04-.04-.17-.02-.38,0-.6.03-.28.05-.59-.02-.9-.1-.44-.34-.77-.55-1.06-.19-.25-.35-.48-.41-.74-.24-1.01-.16-2.22-.07-3.39.08-1.07.16-2.18,0-3.2-.17-1.07-.31-2.19-.45-3.32-.18-1.41-.35-2.84-.59-4.21-.1-.58-.04-1.2.02-1.87.06-.65.13-1.32.04-1.97-.19-1.39-.63-2.88-1.08-4.29-.17-.51-.32-1.05-.49-1.59-.75-2.48-1.52-5.04-3.11-6.98-.3-.36-.64-.72-.99-1.09-.53-.55-1.07-1.12-1.53-1.77-.7-1-1.49-1.55-2.34-2.13-.33-.23-.68-.47-1.04-.75-.38-.3-.78-.6-1.17-.9-1.77-1.34-3.61-2.73-4.63-4.63-1.31-2.43-1.96-6.4-1.74-9.75.4,1.6,1.01,3.12,2.16,4.62l.79,1.06c.65.89,1.33,1.8,2.04,2.58.52.5,1.08.9,1.7,1.21.67.51.79.72.98,1.04.13.22.27.47.59.85.5.6,1.15.94,1.77,1.27.57.3,1.12.58,1.56,1.06.71.76,1.39,1.54,2.05,2.31,1.64,1.96,2.72,4.09,3.04,6,.39,2.38,1.01,4.14,1.86,5.21.27.35.64.64.99.93.35.28.7.57.96.9.29.38.67.72,1.04,1.05.35.31.67.6.89.9,2.69,3.67,2.55,8.76,2.42,13.26l-.04,1.92h1c0-.47.16-.82.34-1.23.13-.29.26-.58.35-.92.29-1.11.23-2.33.18-3.52-.02-.44-.04-.87-.04-1.28,0-.74.03-1.5.05-2.28.09-2.66.19-5.41-.7-7.83-.76-2.08-2.17-3.37-3.53-4.62-.81-.74-1.64-1.5-2.34-2.43-1.35-1.79-1.38-3.79-1.41-5.91-.01-.92-.03-1.85-.14-2.78-.36-2.9-.77-6.19-3.5-7.75-1.31-.75-2.74-1.29-4.13-1.81-.87-.33-1.75-.66-2.6-1.04-1.88-.85-3.78-1.82-4.59-3.53-.15-.32-.33-1-.52-1.72-.55-2.1-1.22-4.68-2.67-5.05-.05-.33-.06-.66-.03-1.01l-.48-.54c-.76-.03-1.19-.36-1.77-.81-.21-.16-.43-.33-.67-.5-.25-.17-.5-.31-.75-.45-.53-.29-.98-.55-1.37-1.06-.88-1.15-1.37-3.23-1.2-4.94.47.2.88.68,1.31,1.19.43.51.88,1.04,1.45,1.36.56.31,1.1.51,1.59.69,1.33.5,2,.75,2.05,2.65v.36c.02.82.04,1.47.45,2.26.59,1.11,1.29,1.31,1.92,1.49.26.07.5.14.75.27.28.14.48.27.65.38.51.32.85.51,1.79.58.8.06,1.66.12,2.37.21,1.61.21,1.86.63,2.52,1.74.15.26.33.56.54.88.2.31.51.65.84,1,.3.32.61.65.83.98.26.38.55.72.84,1.06.26.31.53.61.77.96,1.33,1.96,2.37,2.52,4.08,3.44.14.08.28.15.42.23.1.31.28.58.52.8.43.23.72.25.98.27.2.01.37.03.51.09,1.1.54,2.17,1.28,3.17,2.21.28.26.51.57.75.89.29.39.6.8.99,1.13l.28.12c.29.02.58.08.85.18.17.3.27.85.35,1.31.05.26.09.5.15.7l.42,1.5c.47,1.66.96,3.38,1.23,5.01.34,2-.15,4.25-.6,5.98-.7,2.66-.55,5.03-.12,7.78.28,1.75.58,2.98,1.41,4.47.07.13.15.3.25.49.39.79.69,1.37,1.05,1.64.39.29.83.43,1.21.55.28.09.55.18.74.31,1.57,1.07,2.5,3.45,3.17,5.19.8,2.06.8,3.83.79,5.88v.4h1c0-3.44.53-6.44,1.14-9.92l.15-.89c.24-1.49.43-2.66,1.32-3.98.72-1.07,1.41-2.07,1.73-3.6.55-2.61.62-6.64-.98-9.41-.68-1.19-1.47-2.28-2.23-3.34-.37-.51-.73-1.01-1.07-1.52l-.37-.53c-.69-.98-1.29-1.83-1.39-2.96-.04-.42-.05-.8-.07-1.16-.04-.98-.08-1.83-.51-2.94-.53-1.35-1.22-2.7-2-3.9-.51-.79-1.13-1.49-1.74-2.17-1.23-1.39-2.4-2.71-2.47-4.58-.02-.58.14-1.14.31-1.73.2-.7.41-1.42.31-2.2-.15-1.09-1.48-3.32-2.14-4.11-.58-.69-2.07-1.87-2.98-2.24-.43-.18-.83-.14-1.19-.1-.37.04-.6.05-.83-.08-.21-.12-.35-.31-.5-.54-.3-.44-.75-1.1-1.95-.79l.11.98c.44.01.96-.03,1.48-.07.89-.07,1.85-.14,2.52.05.32.09.35.15.46.36.12.23.29.54.77.85.37.24.78.29,1.14.33.25.03.49.06.62.15,1.23.88,1.8,2.16,2.4,3.5.28.62.56,1.24.9,1.82.31.53.67.97,1.02,1.4.51.62.98,1.21,1.29,2.08.09.26.21.55.33.85.2.49.41.99.49,1.4.11.56.17,1.09.23,1.59.16,1.27.31,2.46,1.02,3.88.44.88.98,1.7,1.49,2.49.3.46.59.91.84,1.34.19.32.45.66.71,1,.18.23.35.46.5.68.52.39.77.72.92,1.16.02.53.09,1.18.18,1.82.27.72.53,1.25.78,1.77.37.76.72,1.47.96,2.36.24.91.38,1.84.52,2.77.22,1.5.45,3.04,1.11,4.4,1.14,2.37,2.26,4.94,2.65,7.64.1.67.29,1.2.47,1.71.13.35.25.7.34,1.08.23,1.08.19,2.16.15,3.3-.03.83-.06,1.69.02,2.56l.06.63c.21,2.13.42,4.33-.01,6.43-.17.81-.41,1.56-.65,2.29-.39,1.2-.8,2.43-.83,3.89-.02.91-.33,1.66-.66,2.45-.28.66-.56,1.33-.71,2.16-.95.24-1.09,1.03-1.18,1.52-.05.29-.1.54-.24.69-.14,0-.45.12-.76.23l-.23.15c-.13.16-.28.35-.44.55-.25.32-.5.65-.73.88-1.19,1.2-2.42,1.5-4.17,1.81l-.39.33c-.03.1-.09.17-.17.23.03-.04-.19-.04-.38-.04-.25,0-.51,0-.76.05-.22.05-.43.12-.64.18-.36.12-.7.22-1.15.24-4.58.18-5,.44-4.97,1.08" fill="#874c3f" stroke-width="0"/><path d="m407.12,123.38c-.28.08-.48-.02-.84-.23-.25-.14-.54-.3-.89-.36-.34-.06-.62-.1-.87-.13-.55-.07-.91-.11-1.51-.4-.98-.47-2.01-1-2.97-1.75-1.38-1.08-1.79-1.97-2.47-3.45l-.32-.68-.27-.55c-.43-.86-.49-.97.04-1.88.48-.82.66-.98,1.73-1.06l.24-.92c-.25-.22-.48-.43-.85-.55-.11-.36-.25-.65-.4-.94-.16-.33-.32-.64-.4-1.04-.04-.17-.02-.38,0-.6.03-.28.05-.59-.02-.9-.1-.44-.34-.77-.55-1.06-.19-.25-.35-.48-.41-.74-.24-1.01-.16-2.22-.07-3.39.08-1.07.16-2.18,0-3.2-.17-1.07-.31-2.19-.45-3.32-.18-1.41-.35-2.84-.59-4.21-.1-.58-.04-1.2.02-1.87.06-.65.13-1.32.04-1.97-.19-1.39-.63-2.88-1.08-4.29-.17-.51-.32-1.05-.49-1.59-.75-2.48-1.52-5.04-3.11-6.98-.3-.36-.64-.72-.99-1.09-.53-.55-1.07-1.12-1.53-1.77-.7-1-1.49-1.55-2.34-2.13-.33-.23-.68-.47-1.04-.75-.38-.3-.78-.6-1.17-.9-1.77-1.34-3.61-2.73-4.63-4.63-1.31-2.43-1.96-6.4-1.74-9.75.4,1.6,1.01,3.12,2.16,4.62l.79,1.06c.65.89,1.33,1.8,2.04,2.58.52.5,1.08.9,1.7,1.21.67.51.79.72.98,1.04.13.22.27.47.59.85.5.6,1.15.94,1.77,1.27.57.3,1.12.58,1.56,1.06.71.76,1.39,1.54,2.05,2.31,1.64,1.96,2.72,4.09,3.04,6,.39,2.38,1.01,4.14,1.86,5.21.27.35.64.64.99.93.35.28.7.57.96.9.29.38.67.72,1.04,1.05.35.31.67.6.89.9,2.69,3.67,2.55,8.76,2.42,13.26l-.04,1.92h1c0-.47.16-.82.34-1.23.13-.29.26-.58.35-.92.29-1.11.23-2.33.18-3.52-.02-.44-.04-.87-.04-1.28,0-.74.03-1.5.05-2.28.09-2.66.19-5.41-.7-7.83-.76-2.08-2.17-3.37-3.53-4.62-.81-.74-1.64-1.5-2.34-2.43-1.35-1.79-1.38-3.79-1.41-5.91-.01-.92-.03-1.85-.14-2.78-.36-2.9-.77-6.19-3.5-7.75-1.31-.75-2.74-1.29-4.13-1.81-.87-.33-1.75-.66-2.6-1.04-1.88-.85-3.78-1.82-4.59-3.53-.15-.32-.33-1-.52-1.72-.55-2.1-1.22-4.68-2.67-5.05-.05-.33-.06-.66-.03-1.01l-.48-.54c-.76-.03-1.19-.36-1.77-.81-.21-.16-.43-.33-.67-.5-.25-.17-.5-.31-.75-.45-.53-.29-.98-.55-1.37-1.06-.88-1.15-1.37-3.23-1.2-4.94.47.2.88.68,1.31,1.19.43.51.88,1.04,1.45,1.36.56.31,1.1.51,1.59.69,1.33.5,2,.75,2.05,2.65v.36c.02.82.04,1.47.45,2.26.59,1.11,1.29,1.31,1.92,1.49.26.07.5.14.75.27.28.14.48.27.65.38.51.32.85.51,1.79.58.8.06,1.66.12,2.37.21,1.61.21,1.86.63,2.52,1.74.15.26.33.56.54.88.2.31.51.65.84,1,.3.32.61.65.83.98.26.38.55.72.84,1.06.26.31.53.61.77.96,1.33,1.96,2.37,2.52,4.08,3.44.14.08.28.15.42.23.1.31.28.58.52.8.43.23.72.25.98.27.2.01.37.03.51.09,1.1.54,2.17,1.28,3.17,2.21.28.26.51.57.75.89.29.39.6.8.99,1.13l.28.12c.29.02.58.08.85.18.17.3.27.85.35,1.31.05.26.09.5.15.7l.42,1.5c.47,1.66.96,3.38,1.23,5.01.34,2-.15,4.25-.6,5.98-.7,2.66-.55,5.03-.12,7.78.28,1.75.58,2.98,1.41,4.47.07.13.15.3.25.49.39.79.69,1.37,1.05,1.64.39.29.83.43,1.21.55.28.09.55.18.74.31,1.57,1.07,2.5,3.45,3.17,5.19.8,2.06.8,3.83.79,5.88v.4h1c0-3.44.53-6.44,1.14-9.92l.15-.89c.24-1.49.43-2.66,1.32-3.98.72-1.07,1.41-2.07,1.73-3.6.55-2.61.62-6.64-.98-9.41-.68-1.19-1.47-2.28-2.23-3.34-.37-.51-.73-1.01-1.07-1.52l-.37-.53c-.69-.98-1.29-1.83-1.39-2.96-.04-.42-.05-.8-.07-1.16-.04-.98-.08-1.83-.51-2.94-.53-1.35-1.22-2.7-2-3.9-.51-.79-1.13-1.49-1.74-2.17-1.23-1.39-2.4-2.71-2.47-4.58-.02-.58.14-1.14.31-1.73.2-.7.41-1.42.31-2.2-.15-1.09-1.48-3.32-2.14-4.11-.58-.69-2.07-1.87-2.98-2.24-.43-.18-.83-.14-1.19-.1-.37.04-.6.05-.83-.08-.21-.12-.35-.31-.5-.54-.3-.44-.75-1.1-1.95-.79l.11.98c.44.01.96-.03,1.48-.07.89-.07,1.85-.14,2.52.05.32.09.35.15.46.36.12.23.29.54.77.85.37.24.78.29,1.14.33.25.03.49.06.62.15,1.23.88,1.8,2.16,2.4,3.5.28.62.56,1.24.9,1.82.31.53.67.97,1.02,1.4.51.62.98,1.21,1.29,2.08.09.26.21.55.33.85.2.49.41.99.49,1.4.11.56.17,1.09.23,1.59.16,1.27.31,2.46,1.02,3.88.44.88.98,1.7,1.49,2.49.3.46.59.91.84,1.34.19.32.45.66.71,1,.18.23.35.46.5.68.52.39.77.72.92,1.16.02.53.09,1.18.18,1.82.27.72.53,1.25.78,1.77.37.76.72,1.47.96,2.36.24.91.38,1.84.52,2.77.22,1.5.45,3.04,1.11,4.4,1.14,2.37,2.26,4.94,2.65,7.64.1.67.29,1.2.47,1.71.13.35.25.7.34,1.08.23,1.08.19,2.16.15,3.3-.03.83-.06,1.69.02,2.56l.06.63c.21,2.13.42,4.33-.01,6.43-.17.81-.41,1.56-.65,2.29-.39,1.2-.8,2.43-.83,3.89-.02.91-.33,1.66-.66,2.45-.28.66-.56,1.33-.71,2.16-.95.24-1.09,1.03-1.18,1.52-.05.29-.1.54-.24.69-.14,0-.45.12-.76.23l-.23.15c-.13.16-.28.35-.44.55-.25.32-.5.65-.73.88-1.19,1.2-2.42,1.5-4.17,1.81l-.39.33c-.03.1-.09.17-.17.23.03-.04-.19-.04-.38-.04-.25,0-.51,0-.76.05-.22.05-.43.12-.64.18-.36.12-.7.22-1.15.24-4.58.18-5,.44-4.97,1.08" fill="none" stroke="#85412c" stroke-linejoin="bevel"/><path d="m548.49,154.99l-.03.27.74.71c1.26-.79,1.25-2.09,1.24-3.23,0-.56,0-1.1.13-1.56.44-1.52,1.14-3.12,1.86-4.29.62-.99,1.52-1.7,2.4-2.38,1.56-1.22,3.17-2.48,3.15-5.27-.02-2.95-1.91-6.18-4.94-6.25-.43,0-1.05.15-1.76.33l-.25.06c-.7.18-2.35.6-2.75.2-.17-.34-.11-2.74.03-3.25.24-.89,1.15-1.64,2.03-2.38.57-.48,1.17-.98,1.61-1.53,1.58-1.97,2.08-2.72,2.07-5.41,0-3.38-1.88-5.9-5.44-7.28-2.04-.79-4.26-.7-6.41-.61-1.09.04-2.22.09-3.29.01-1.68-.12-2.09-.42-2.54-1.91-.52-1.7-1.19-3.08-2.05-4.23-1.04-1.38-2.52-2.7-3.95-3.93-.9-.77-1.93-1.16-2.93-1.53-.6-.22-1.2-.45-1.78-.76-4.59-2.48-6.77-4.9-6.46-7.17l-1-.07c-.01,4.36,1.48,7.41,4.85,9.88l.39.28c1.02.74,2.18,1.58,2.89,2.56.52.72.81,1.76,1.09,2.76.2.72.41,1.46.7,2.08,1.49,3.15,3.69,5.21,7.59,7.12,1.66.81,3.23,1.04,4.9,1.28.81.12,1.64.24,2.49.43.71.16,1.2.68,1.47,1.53.46,1.49.06,3.6-.87,4.62-.43.47-1.01.93-1.6,1.42-1.71,1.39-3.83,3.11-3.08,5.57.74,2.42,4.71,5.39,7.16,4.75.3-.08.6-.27.92-.46.28-.18.64-.4.83-.41.54-.04.65.01.98.17.16.08.36.17.64.27.32.12.61.2.86.27.91.26,1.06.3.95,1.55-.14,1.63-1.25,2.36-2.53,3.19-1.25.82-2.67,1.75-3.18,3.68-.53,2.02.49,4.84,1.1,6.53" fill="#874c3f" stroke-width="0"/><path d="m548.49,154.99l-.03.27.74.71c1.26-.79,1.25-2.09,1.24-3.23,0-.56,0-1.1.13-1.56.44-1.52,1.14-3.12,1.86-4.29.62-.99,1.52-1.7,2.4-2.38,1.56-1.22,3.17-2.48,3.15-5.27-.02-2.95-1.91-6.18-4.94-6.25-.43,0-1.05.15-1.76.33l-.25.06c-.7.18-2.35.6-2.75.2-.17-.34-.11-2.74.03-3.25.24-.89,1.15-1.64,2.03-2.38.57-.48,1.17-.98,1.61-1.53,1.58-1.97,2.08-2.72,2.07-5.41,0-3.38-1.88-5.9-5.44-7.28-2.04-.79-4.26-.7-6.41-.61-1.09.04-2.22.09-3.29.01-1.68-.12-2.09-.42-2.54-1.91-.52-1.7-1.19-3.08-2.05-4.23-1.04-1.38-2.52-2.7-3.95-3.93-.9-.77-1.93-1.16-2.93-1.53-.6-.22-1.2-.45-1.78-.76-4.59-2.48-6.77-4.9-6.46-7.17l-1-.07c-.01,4.36,1.48,7.41,4.85,9.88l.39.28c1.02.74,2.18,1.58,2.89,2.56.52.72.81,1.76,1.09,2.76.2.72.41,1.46.7,2.08,1.49,3.15,3.69,5.21,7.59,7.12,1.66.81,3.23,1.04,4.9,1.28.81.12,1.64.24,2.49.43.71.16,1.2.68,1.47,1.53.46,1.49.06,3.6-.87,4.62-.43.47-1.01.93-1.6,1.42-1.71,1.39-3.83,3.11-3.08,5.57.74,2.42,4.71,5.39,7.16,4.75.3-.08.6-.27.92-.46.28-.18.64-.4.83-.41.54-.04.65.01.98.17.16.08.36.17.64.27.32.12.61.2.86.27.91.26,1.06.3.95,1.55-.14,1.63-1.25,2.36-2.53,3.19-1.25.82-2.67,1.75-3.18,3.68-.53,2.02.49,4.84,1.1,6.53" fill="none" stroke="#85412c" stroke-linejoin="bevel"/><path d="m537.53,189.43c-.94.22-3.53-1.04-5.04-2.04-.65-.43-1.25-1.07-1.82-1.68-.32-.34-.63-.68-.96-.98-1.12-1.05-1.42-1.34-1.79-2.65-.15-.53-.35-1.03-.55-1.54-.14-.35-.28-.7-.4-1.07-.43-1.28-.18-1.7.4-2.74l.28-.51c.44-.82.99-1.84,1.71-2.06.43-.14,1.04-.05,1.63.03.61.08,1.25.17,1.83.05,1.4-.28,2.49-1.31,2.59-2.43.04-.43-.03-1.51-1.58-2.14-.37-.15-.74-.23-1.1-.31-.46-.1-.86-.19-1.21-.42-.1-.07-.22-.22-.34-.36-.13-.17-.27-.34-.45-.49-.16-.13-.41-.24-.67-.35-.16-.07-.31-.13-.38-.18-1.01-1.07-1.58-3.42-1.76-5.26-.12-1.25.11-1.84.52-2.92.32-.85.71-1.31,1.12-1.8.26-.31.52-.63.76-1.01l-.41-.76c-.53-.02-.88-.57-1.34-1.4-.19-.34-.38-.67-.58-.94-1.02-1.31-2.06-2.08-3.17-2.36-.98-.24-2.03-.25-3.04-.26-1.01,0-2.05-.02-2.99-.26-1.9-.5-2.31-2.09-2.8-3.93-.13-.49-.26-.98-.42-1.46-.42-1.27-1.13-3.4-.59-4.74.13-.32.36-.56.6-.81.45-.47,1.01-1.05.76-2.14l-.98.16c.07.73-.02,1.53-.12,2.37-.24,2.06-.51,4.4,1.88,5.79,2.39,1.39,4.14,1.11,6.55.73l.74-.12c1.31-.2,1.8.21,2.59.89.21.18.43.36.68.55.29.22.63.32.93.41.34.1.63.18.83.41.18.21.2.37.24.64.03.26.07.58.28.95.2.37.48.53.69.64.17.1.26.14.34.31.08.15.15.7.21,1.06.06.4.11.78.18.99.12.36.28.72.43,1.08.13.3.27.6.37.91.08.24.11.57.13.89.03.49.07,1,.33,1.37l.9-.38c-.11-.55.2-1.17.52-1.82.21-.43.43-.88.54-1.33l.22-.85c.26-.97.5-1.88.49-3.06,0-.28.03-.7.08-1.18.16-1.76.23-3.15-.25-3.85-.35-.51-.9-.7-1.33-.84-.23-.08-.45-.16-.61-.27-.17-.12-.29-.27-.43-.45-.26-.32-.57-.71-1.2-.89-.6-.17-1.13-.14-1.56-.11-.67.04-1.1.07-1.65-.46-.69-.65-1.73-2.63-1.61-3.23.04-.19.16-.29.41-.47.25-.19.57-.42.73-.85.17-.46.1-.93.04-1.34-.04-.3-.09-.58-.02-.78.07-.2.19-.32.41-.5.21-.18.48-.4.62-.77.28-.7.23-1.53.18-2.25-.02-.25-.03-.49-.03-.72,0-.27.02-.57.04-.88.07-.97.15-2.07-.37-2.88-.77-1.23-2.88-1.96-4.17-1.78-.49.07-1.04.31-1.61.57-1.69.75-2.77,1.1-3.46-.39-.27-.58-.3-2.84-.1-3.45.14-.45.55-.92.94-1.37.3-.35.59-.69.8-1.03.55-.92,1.73-3.2.77-4.7-.08-.12-.38-.3-.77-.49,1.17.09,2.03.42,2.88,1.59.46.64.53,1.59.6,2.51.08,1.09.17,2.23.97,2.83.55.41,1.33.5,2.4.27,1.51-.33,1.56-.34,2.77.3,1.46.77,2.18,1.56,2.59,2.82.42,1.32-.18,2.9-.82,4.57-.46,1.2-.94,2.45-1.04,3.67-.07.93-.11,1.77.22,2.6l.56.96c.24.41.48.82.51.87l.14-.64-.06.75c.68.7,1.53.78,2.35.86.72.07,1.41.14,1.99.63,1.04.87,1.78,2.36,2.42,3.85l.34.76c.57,1.25,1.1,2.43,1.18,3.94.1,1.91-.02,3.28-.88,5.11l-.16.34c-.36.75-.71,1.49-1.05,2.26-.05.08-.16.17-.31.22l-.29.29c-.14.38-.11.74-.08,1.06.02.24.04.45-.02.59-.19.4-.52.74-.87,1.1-.48.5-1.03,1.06-1.29,1.91-.46,1.52-.27,3.63,1.22,4.67l.78-.31c.14-.71-.08-1.35-.28-1.96-.15-.43-.29-.84-.29-1.25-.03-1.91.44-3.96,1.22-5.35.76-1.35,1.83-2.65,2.87-3.91.42-.51.84-1.01,1.24-1.53.57,1.93,2.87,3.34,3.69,3.79.35.19.78.33,1.21.47.31.1.61.19.87.32.54.32,1.13.63,1.75.91.55.08.98.08,1.39.01,1.34.61,1.76,1.84,2.24,3.26.1.29.2.58.3.86.1.27.24.47.37.64.14.2.25.36.32.64.09.38.05.91,0,1.43-.02.29-.04.57-.04.82l.02.88c.03.92.05,1.88-.19,2.64-.03.08-.11.19-.2.32-.17.23-.4.54-.51,1-.08.36-.05.74,0,1.11.02.22.05.43.03.63-.07.83-.31,1.67-.54,2.5-.19.67-.37,1.33-.48,1.99-.18,1.11-.14,2.25-.1,3.35.03.89.06,1.81-.03,2.68-.2,2.09-1.39,3.57-3.12,5.15-1.42,1.3-3.48,2.29-5.98,2.85-3.06.69-5.31.73-6.35.1l-.38.91" fill="#874c3f" stroke-width="0"/><path d="m537.53,189.43c-.94.22-3.53-1.04-5.04-2.04-.65-.43-1.25-1.07-1.82-1.68-.32-.34-.63-.68-.96-.98-1.12-1.05-1.42-1.34-1.79-2.65-.15-.53-.35-1.03-.55-1.54-.14-.35-.28-.7-.4-1.07-.43-1.28-.18-1.7.4-2.74l.28-.51c.44-.82.99-1.84,1.71-2.06.43-.14,1.04-.05,1.63.03.61.08,1.25.17,1.83.05,1.4-.28,2.49-1.31,2.59-2.43.04-.43-.03-1.51-1.58-2.14-.37-.15-.74-.23-1.1-.31-.46-.1-.86-.19-1.21-.42-.1-.07-.22-.22-.34-.36-.13-.17-.27-.34-.45-.49-.16-.13-.41-.24-.67-.35-.16-.07-.31-.13-.38-.18-1.01-1.07-1.58-3.42-1.76-5.26-.12-1.25.11-1.84.52-2.92.32-.85.71-1.31,1.12-1.8.26-.31.52-.63.76-1.01l-.41-.76c-.53-.02-.88-.57-1.34-1.4-.19-.34-.38-.67-.58-.94-1.02-1.31-2.06-2.08-3.17-2.36-.98-.24-2.03-.25-3.04-.26-1.01,0-2.05-.02-2.99-.26-1.9-.5-2.31-2.09-2.8-3.93-.13-.49-.26-.98-.42-1.46-.42-1.27-1.13-3.4-.59-4.74.13-.32.36-.56.6-.81.45-.47,1.01-1.05.76-2.14l-.98.16c.07.73-.02,1.53-.12,2.37-.24,2.06-.51,4.4,1.88,5.79,2.39,1.39,4.14,1.11,6.55.73l.74-.12c1.31-.2,1.8.21,2.59.89.21.18.43.36.68.55.29.22.63.32.93.41.34.1.63.18.83.41.18.21.2.37.24.64.03.26.07.58.28.95.2.37.48.53.69.64.17.1.26.14.34.31.08.15.15.7.21,1.06.06.4.11.78.18.99.12.36.28.72.43,1.08.13.3.27.6.37.91.08.24.11.57.13.89.03.49.07,1,.33,1.37l.9-.38c-.11-.55.2-1.17.52-1.82.21-.43.43-.88.54-1.33l.22-.85c.26-.97.5-1.88.49-3.06,0-.28.03-.7.08-1.18.16-1.76.23-3.15-.25-3.85-.35-.51-.9-.7-1.33-.84-.23-.08-.45-.16-.61-.27-.17-.12-.29-.27-.43-.45-.26-.32-.57-.71-1.2-.89-.6-.17-1.13-.14-1.56-.11-.67.04-1.1.07-1.65-.46-.69-.65-1.73-2.63-1.61-3.23.04-.19.16-.29.41-.47.25-.19.57-.42.73-.85.17-.46.1-.93.04-1.34-.04-.3-.09-.58-.02-.78.07-.2.19-.32.41-.5.21-.18.48-.4.62-.77.28-.7.23-1.53.18-2.25-.02-.25-.03-.49-.03-.72,0-.27.02-.57.04-.88.07-.97.15-2.07-.37-2.88-.77-1.23-2.88-1.96-4.17-1.78-.49.07-1.04.31-1.61.57-1.69.75-2.77,1.1-3.46-.39-.27-.58-.3-2.84-.1-3.45.14-.45.55-.92.94-1.37.3-.35.59-.69.8-1.03.55-.92,1.73-3.2.77-4.7-.08-.12-.38-.3-.77-.49,1.17.09,2.03.42,2.88,1.59.46.64.53,1.59.6,2.51.08,1.09.17,2.23.97,2.83.55.41,1.33.5,2.4.27,1.51-.33,1.56-.34,2.77.3,1.46.77,2.18,1.56,2.59,2.82.42,1.32-.18,2.9-.82,4.57-.46,1.2-.94,2.45-1.04,3.67-.07.93-.11,1.77.22,2.6l.56.96c.24.41.48.82.51.87l.14-.64-.06.75c.68.7,1.53.78,2.35.86.72.07,1.41.14,1.99.63,1.04.87,1.78,2.36,2.42,3.85l.34.76c.57,1.25,1.1,2.43,1.18,3.94.1,1.91-.02,3.28-.88,5.11l-.16.34c-.36.75-.71,1.49-1.05,2.26-.05.08-.16.17-.31.22l-.29.29c-.14.38-.11.74-.08,1.06.02.24.04.45-.02.59-.19.4-.52.74-.87,1.1-.48.5-1.03,1.06-1.29,1.91-.46,1.52-.27,3.63,1.22,4.67l.78-.31c.14-.71-.08-1.35-.28-1.96-.15-.43-.29-.84-.29-1.25-.03-1.91.44-3.96,1.22-5.35.76-1.35,1.83-2.65,2.87-3.91.42-.51.84-1.01,1.24-1.53.57,1.93,2.87,3.34,3.69,3.79.35.19.78.33,1.21.47.31.1.61.19.87.32.54.32,1.13.63,1.75.91.55.08.98.08,1.39.01,1.34.61,1.76,1.84,2.24,3.26.1.29.2.58.3.86.1.27.24.47.37.64.14.2.25.36.32.64.09.38.05.91,0,1.43-.02.29-.04.57-.04.82l.02.88c.03.92.05,1.88-.19,2.64-.03.08-.11.19-.2.32-.17.23-.4.54-.51,1-.08.36-.05.74,0,1.11.02.22.05.43.03.63-.07.83-.31,1.67-.54,2.5-.19.67-.37,1.33-.48,1.99-.18,1.11-.14,2.25-.1,3.35.03.89.06,1.81-.03,2.68-.2,2.09-1.39,3.57-3.12,5.15-1.42,1.3-3.48,2.29-5.98,2.85-3.06.69-5.31.73-6.35.1l-.38.91" fill="none" stroke="#85412c" stroke-linejoin="bevel"/><path d="m277.5,214.65c.05.27-.04.35-.07.38-.26.25-1.12.3-2.05.11-1.29-.26-2.3-1.31-3.27-2.33l-.55-.56c-.39-.39-.77-.76-1.14-1.12-1.19-1.15-2.31-2.24-3.28-3.66-.93-1.36-1.52-2.8-2.12-4.53-.96-2.77-1.22-6.94.47-9.52.08-.11.31-.34.53-.56.23-.24.46-.47.57-.6.17-.22.36-.53.55-.82.12-.2.24-.39.35-.55l.29-.42c.41-.62.92-1.38,1.38-1.74l.17-.52c-.29-1.11-1.4-1.9-2.47-2.66-.6-.43-1.17-.83-1.5-1.23-1.26-1.57-2.37-4.96-1.31-6.93.92-1.69,3.49-2.59,5.44-2.57h.83c2.74.05,5.58.09,8.07-1.49,2.36-1.5,3.2-4.09,4-6.59.67-2.09,1.31-4.06,2.76-5.46.6-.57,1.32-1.04,2.03-1.5,1.31-.84,2.66-1.71,3.33-3.3.36-.85,1.49-4.35.4-5.9-.26-.37-.76-.8-1.68-.74l-.16.96c.51.21.77.82,1.05,1.46.15.34.29.67.47.94.19.3.42.58.65.87.44.55.86,1.07,1.03,1.78.21.86.09,2.61-.15,3.44-.11.38-.4.73-.71,1.1-.35.42-.74.9-.92,1.49-1.28.51-3.13,2.98-3.47,3.66-.19.39-1.16,2.42-1.05,3.72.07.78.43,1.29.78,1.77.15.21.3.42.44.67.23.43.26.72.3,1.08.03.3.06.62.19,1.02.15.47.3.83.45,1.16.23.5.4.9.45,1.61l.02.29c.03.4.07.95,0,1.25-.03.13-.14.26-.26.41-.17.19-.36.42-.43.73-.07.28-.09.57-.11.86-.04.68-.09.87-.39.98l.58.76.35-.51c.27-.4.48-.72.87-1.02l-.61-.79-.15.7c.26.41.57.25,1.33-.13.83-.42.86-.44.88-.73l-.23-.45h-.54s.46.89.46.89c.84-.44,1.76-1.14,2.5-1.71,1.19-.91,2.32-1.82,3.13-2.96.45-.63.74-1.32,1.01-1.97.12-.28.23-.56.37-.85l.17-.34c.42-.85.85-1.74.55-2.9-.12-.48-.33-.76-.5-.98-.1-.13-.17-.22-.22-.34-.05-.15-.07-.32-.09-.51-.03-.27-.06-.57-.21-.89-.24-.53-.71-1.05-1.15-1.56-.25-.29-.5-.57-.69-.83-.15-.21-.32-.43-.5-.65.5.22.97.47,1.37.78.33.25.63.52.93.8.39.35.79.71,1.24,1.03.95.68,1.02.82,1.36,1.52l.31.61c1.19,2.27,1.37,6.48-.27,8.88-.88,1.29-2.66,2.42-4.55,3.62-3.36,2.13-7.17,4.55-6.19,8.51l.44.38c1.49.14,2.47.66,3.09,1.63.95,1.49,1.47,5.32.95,7.06-.29.97-1.03,1.86-1.76,2.73-.3.35-.58.7-.83,1.03-.22.3-.36.61-.49.91-.17.38-.32.71-.62.99-.1.09-.29.15-.49.22-.31.11-.7.24-1.02.55l.37.85c2.89-.11,4.8.7,6.01,2.57.67,1.03.59,2.17.42,2.95-.34,1.51-1.42,3.05-2.67,3.82-1.13.7-2.53,1.37-3.56,1.72-.33.11-.66.17-.99.24-.45.09-.92.18-1.37.37-.34.15-.55.35-.71.52-.23.23-.37.38-.95.41-1.54.08-2.33-.5-3.53-1.38-.38-.28-.62-.44-.86-.6-.33-.22-.66-.43-.93-.68-.13-.11-.22-.25-.32-.41-.18-.29-.41-.64-.91-.88" fill="#874c3f" stroke-width="0"/><path d="m277.5,214.65c.05.27-.04.35-.07.38-.26.25-1.12.3-2.05.11-1.29-.26-2.3-1.31-3.27-2.33l-.55-.56c-.39-.39-.77-.76-1.14-1.12-1.19-1.15-2.31-2.24-3.28-3.66-.93-1.36-1.52-2.8-2.12-4.53-.96-2.77-1.22-6.94.47-9.52.08-.11.31-.34.53-.56.23-.24.46-.47.57-.6.17-.22.36-.53.55-.82.12-.2.24-.39.35-.55l.29-.42c.41-.62.92-1.38,1.38-1.74l.17-.52c-.29-1.11-1.4-1.9-2.47-2.66-.6-.43-1.17-.83-1.5-1.23-1.26-1.57-2.37-4.96-1.31-6.93.92-1.69,3.49-2.59,5.44-2.57h.83c2.74.05,5.58.09,8.07-1.49,2.36-1.5,3.2-4.09,4-6.59.67-2.09,1.31-4.06,2.76-5.46.6-.57,1.32-1.04,2.03-1.5,1.31-.84,2.66-1.71,3.33-3.3.36-.85,1.49-4.35.4-5.9-.26-.37-.76-.8-1.68-.74l-.16.96c.51.21.77.82,1.05,1.46.15.34.29.67.47.94.19.3.42.58.65.87.44.55.86,1.07,1.03,1.78.21.86.09,2.61-.15,3.44-.11.38-.4.73-.71,1.1-.35.42-.74.9-.92,1.49-1.28.51-3.13,2.98-3.47,3.66-.19.39-1.16,2.42-1.05,3.72.07.78.43,1.29.78,1.77.15.21.3.42.44.67.23.43.26.72.3,1.08.03.3.06.62.19,1.02.15.47.3.83.45,1.16.23.5.4.9.45,1.61l.02.29c.03.4.07.95,0,1.25-.03.13-.14.26-.26.41-.17.19-.36.42-.43.73-.07.28-.09.57-.11.86-.04.68-.09.87-.39.98l.58.76.35-.51c.27-.4.48-.72.87-1.02l-.61-.79-.15.7c.26.41.57.25,1.33-.13.83-.42.86-.44.88-.73l-.23-.45h-.54s.46.89.46.89c.84-.44,1.76-1.14,2.5-1.71,1.19-.91,2.32-1.82,3.13-2.96.45-.63.74-1.32,1.01-1.97.12-.28.23-.56.37-.85l.17-.34c.42-.85.85-1.74.55-2.9-.12-.48-.33-.76-.5-.98-.1-.13-.17-.22-.22-.34-.05-.15-.07-.32-.09-.51-.03-.27-.06-.57-.21-.89-.24-.53-.71-1.05-1.15-1.56-.25-.29-.5-.57-.69-.83-.15-.21-.32-.43-.5-.65.5.22.97.47,1.37.78.33.25.63.52.93.8.39.35.79.71,1.24,1.03.95.68,1.02.82,1.36,1.52l.31.61c1.19,2.27,1.37,6.48-.27,8.88-.88,1.29-2.66,2.42-4.55,3.62-3.36,2.13-7.17,4.55-6.19,8.51l.44.38c1.49.14,2.47.66,3.09,1.63.95,1.49,1.47,5.32.95,7.06-.29.97-1.03,1.86-1.76,2.73-.3.35-.58.7-.83,1.03-.22.3-.36.61-.49.91-.17.38-.32.71-.62.99-.1.09-.29.15-.49.22-.31.11-.7.24-1.02.55l.37.85c2.89-.11,4.8.7,6.01,2.57.67,1.03.59,2.17.42,2.95-.34,1.51-1.42,3.05-2.67,3.82-1.13.7-2.53,1.37-3.56,1.72-.33.11-.66.17-.99.24-.45.09-.92.18-1.37.37-.34.15-.55.35-.71.52-.23.23-.37.38-.95.41-1.54.08-2.33-.5-3.53-1.38-.38-.28-.62-.44-.86-.6-.33-.22-.66-.43-.93-.68-.13-.11-.22-.25-.32-.41-.18-.29-.41-.64-.91-.88" fill="none" stroke="#85412c" stroke-linejoin="bevel"/><path d="m127.17,209.39c-.17.15-.73.18-1.56-.07-.17-.08-.35-.25-.48-.47l-.29-.23c-.66-.19-1.34-.29-2.03-.31-.66-.32-2.1-1.59-2.61-2.44-.19-.32-.22-.59-.26-.91-.03-.29-.07-.62-.24-.98-.24-.51-.48-.93-.7-1.33-.55-.98-.95-1.69-.94-2.98v-.34c0-.83-.02-2.37.54-2.87.09-.08.25-.19.58-.15l.56-.52c-.04-.77.27-.9.94-1.18.44-.19.94-.4,1.34-.86.86-.99.88-3.28.51-4.36-.25-.74-.73-1.25-1.2-1.74-.35-.37-.68-.72-.91-1.15-.72-1.36-.7-2.49-.67-4.04v-.26c.04-1.7.63-2.75,1.44-4.2l.26-.46.33-.57c.36-.6.65-1.08.81-2,.06-.33.17-.69.27-1.05.14-.47.27-.93.31-1.3.19-1.77-.55-2.2-1.34-2.67-.23-.13-.48-.28-.75-.49-.35-.27-.63-.58-.91-.89-.56-.61-1.13-1.23-2.09-1.5-.11-.63-.41-1.06-.68-1.45-.17-.24-.33-.47-.43-.73-.27-.7-.19-1.79-.12-2.75.03-.43.06-.85.06-1.21v-6.46c0-.4.03-.84.06-1.32.1-1.59.22-3.39-.57-4.62-.4-.61-1.07-1.08-1.67-1.48-.34-.23-.66-.45-.91-.68l-.25-.23c-.38-.35-1.06-.97-1.2-1.15-.15-.26-.13-.9-.11-1.41.01-.41.02-.81-.03-1.12-.12-.79-.57-1.82-.92-2.54-.35-.73-.5-.98-.95-1.05-.05,0-.16-.02-.46-.27-.19-.16-.36-.35-.53-.53-.4-.44-.86-.93-1.62-1.13-.4-.11-.74-.17-1.03-.23-.88-.17-1.18-.22-1.93-1.28-.88-1.23-1.34-2.48-1.4-3.82.18.39.42.74.7,1.05,1.08,1.19,2.83,1.78,5.5,1.88,2.03.07,4.92.78,6.46,2.17.72.65,1.01,2.11,1.27,3.4.15.75.29,1.46.51,2.01.11.28.26.48.4.66.21.28.38.51.45,1.04l.05.44c.08.72.14,1.24.44,1.99.64,1.57,2.31,2.85,3.78,3.98.53.41,1.04.8,1.47,1.18,2.45,2.18,3.84,5.48,4.78,8.11.6,1.67,1.48,4.74.71,6.46l.95.12c-.68-3.8.34-8.5,1.15-12.27l.18-.84c.57-2.66.68-3.7-1.09-6.06-1.39-1.85-2.7-3.16-4.12-4.12-.41-.27-.77-.35-1.06-.41-.4-.08-.55-.11-.77-.66-.05-.2-.06-.45,0-.71-.08-.47-.24-.82-.39-1.16-.13-.3-.27-.6-.31-.76-.17-.7-.22-1.28-.26-1.8-.09-1.22-.18-2.27-1.67-3.66-.24-.22-.51-.44-.78-.66-.59-.47-1.2-.95-1.56-1.61-.12-.22-.28-.49-.46-.79-.37-.62-.83-1.39-.98-1.81-.17-.48-.35-1.58-.23-1.92.11-.31.31-.52.54-.76.19-.2.41-.42.57-.73.11.22.21.51.28.85.07.31.11.56.14.77.14.87.23,1.26,1.24,2.32.87.92,2.05,2.03,3.41,2.55.73.28,1.44.3,2.19.31.43.01.88.02,1.36.09,2.32.33,6.37,3.34,7.7,5.35,1.1,1.65,2.03,3.84,2.39,5.58.19.9.18,1.76.18,2.68,0,1.26,0,2.55.51,3.91.54,1.42,1.45,2.21,2.33,2.97.49.43.99.86,1.43,1.41,3.47,4.34.07,12.9-1.38,16.56-1.23,3.11-1.7,5.57-1.71,9.07,0,1.42.07,2.69.46,4.23.29,1.17.71,1.9,1.2,2.75.16.29.34.59.52.94l.17.32c1.19,2.23,2.54,4.76,1.91,7.28-.11.44-.45.9-.81,1.39-.44.59-.88,1.2-1.06,1.92-.23.97-.19,1.98-.16,2.96.01.35.03.71.03,1.05,0,.37.02.79.05,1.23.08,1.42.17,3.18-.54,4-.9,1.03-2.51,1.83-4.2,2.11-1.86.3-3.96.22-6.13.12-1.48-.07-3.38-.43-4.27-1.21l-.82.44c.03.23.05.46.05.69" fill="#874c3f" stroke-width="0"/><path d="m127.17,209.39c-.17.15-.73.18-1.56-.07-.17-.08-.35-.25-.48-.47l-.29-.23c-.66-.19-1.34-.29-2.03-.31-.66-.32-2.1-1.59-2.61-2.44-.19-.32-.22-.59-.26-.91-.03-.29-.07-.62-.24-.98-.24-.51-.48-.93-.7-1.33-.55-.98-.95-1.69-.94-2.98v-.34c0-.83-.02-2.37.54-2.87.09-.08.25-.19.58-.15l.56-.52c-.04-.77.27-.9.94-1.18.44-.19.94-.4,1.34-.86.86-.99.88-3.28.51-4.36-.25-.74-.73-1.25-1.2-1.74-.35-.37-.68-.72-.91-1.15-.72-1.36-.7-2.49-.67-4.04v-.26c.04-1.7.63-2.75,1.44-4.2l.26-.46.33-.57c.36-.6.65-1.08.81-2,.06-.33.17-.69.27-1.05.14-.47.27-.93.31-1.3.19-1.77-.55-2.2-1.34-2.67-.23-.13-.48-.28-.75-.49-.35-.27-.63-.58-.91-.89-.56-.61-1.13-1.23-2.09-1.5-.11-.63-.41-1.06-.68-1.45-.17-.24-.33-.47-.43-.73-.27-.7-.19-1.79-.12-2.75.03-.43.06-.85.06-1.21v-6.46c0-.4.03-.84.06-1.32.1-1.59.22-3.39-.57-4.62-.4-.61-1.07-1.08-1.67-1.48-.34-.23-.66-.45-.91-.68l-.25-.23c-.38-.35-1.06-.97-1.2-1.15-.15-.26-.13-.9-.11-1.41.01-.41.02-.81-.03-1.12-.12-.79-.57-1.82-.92-2.54-.35-.73-.5-.98-.95-1.05-.05,0-.16-.02-.46-.27-.19-.16-.36-.35-.53-.53-.4-.44-.86-.93-1.62-1.13-.4-.11-.74-.17-1.03-.23-.88-.17-1.18-.22-1.93-1.28-.88-1.23-1.34-2.48-1.4-3.82.18.39.42.74.7,1.05,1.08,1.19,2.83,1.78,5.5,1.88,2.03.07,4.92.78,6.46,2.17.72.65,1.01,2.11,1.27,3.4.15.75.29,1.46.51,2.01.11.28.26.48.4.66.21.28.38.51.45,1.04l.05.44c.08.72.14,1.24.44,1.99.64,1.57,2.31,2.85,3.78,3.98.53.41,1.04.8,1.47,1.18,2.45,2.18,3.84,5.48,4.78,8.11.6,1.67,1.48,4.74.71,6.46l.95.12c-.68-3.8.34-8.5,1.15-12.27l.18-.84c.57-2.66.68-3.7-1.09-6.06-1.39-1.85-2.7-3.16-4.12-4.12-.41-.27-.77-.35-1.06-.41-.4-.08-.55-.11-.77-.66-.05-.2-.06-.45,0-.71-.08-.47-.24-.82-.39-1.16-.13-.3-.27-.6-.31-.76-.17-.7-.22-1.28-.26-1.8-.09-1.22-.18-2.27-1.67-3.66-.24-.22-.51-.44-.78-.66-.59-.47-1.2-.95-1.56-1.61-.12-.22-.28-.49-.46-.79-.37-.62-.83-1.39-.98-1.81-.17-.48-.35-1.58-.23-1.92.11-.31.31-.52.54-.76.19-.2.41-.42.57-.73.11.22.21.51.28.85.07.31.11.56.14.77.14.87.23,1.26,1.24,2.32.87.92,2.05,2.03,3.41,2.55.73.28,1.44.3,2.19.31.43.01.88.02,1.36.09,2.32.33,6.37,3.34,7.7,5.35,1.1,1.65,2.03,3.84,2.39,5.58.19.9.18,1.76.18,2.68,0,1.26,0,2.55.51,3.91.54,1.42,1.45,2.21,2.33,2.97.49.43.99.86,1.43,1.41,3.47,4.34.07,12.9-1.38,16.56-1.23,3.11-1.7,5.57-1.71,9.07,0,1.42.07,2.69.46,4.23.29,1.17.71,1.9,1.2,2.75.16.29.34.59.52.94l.17.32c1.19,2.23,2.54,4.76,1.91,7.28-.11.44-.45.9-.81,1.39-.44.59-.88,1.2-1.06,1.92-.23.97-.19,1.98-.16,2.96.01.35.03.71.03,1.05,0,.37.02.79.05,1.23.08,1.42.17,3.18-.54,4-.9,1.03-2.51,1.83-4.2,2.11-1.86.3-3.96.22-6.13.12-1.48-.07-3.38-.43-4.27-1.21l-.82.44c.03.23.05.46.05.69" fill="none" stroke="#85412c" stroke-linejoin="bevel"/><path d="m698.68,179.83l-.11.3.77-.22c-.23-.17-.49-.24-.73-.31-.09-.02-.18-.05-.25-.08-.16-.06-.22-.12-.36-.26-.12-.11-.25-.24-.45-.39-.41-.3-.67-.61-.97-.96-.2-.23-.4-.47-.65-.71-.33-.32-.71-.52-1.05-.7-.41-.22-.76-.4-1.02-.78-1.68-2.43-3.16-5.26-1.41-7.88.19-.28.69-.79.99-1.01.41-.29.65-.31,1.02-.34.25-.02.54-.04.91-.15.35-.1.65-.26.93-.4.31-.16.58-.3.92-.36l.3-.05c.7-.12.99-.18,1.81-.59l.32-.16c.41-.21.77-.39,1.18-.66.64-.43.91-.82,1.19-1.23.12-.17.24-.35.41-.56.26-.32.65-.58,1.05-.85.38-.25.75-.51,1.05-.81.69-.69.95-1.48,1.2-2.24.17-.52.33-1.01.63-1.44.15-.22.34-.41.52-.61.58-.62,1.31-1.38.9-2.66-.47-1.49-1.65-1.16-2.42-.95l-.39.1c-.98.24-1.91.67-2.82,1.09-2.01.94-3.74,1.74-5.69.46-1.65-1.08-1.82-2.45-1.54-4.58.14-1.12.55-2.62,1.09-3.23.29-.32.79-.48,1.36-.66l.32-.1c.56-.18,1.37-.2,2.23-.23,1.91-.05,4.29-.11,4.82-2.25l-.34-.6c-.2-.06-.27-.18-.42-.46-.12-.22-.27-.49-.55-.72-.25-.2-.66-.35-1.12-.51-1.65-.61-3.15-1-5.1-1.33-.43-.07-.87-.11-1.33-.14-.92-.07-1.79-.14-2.45-.53-.99-.58-1.76-1.65-1.97-2.73-.34-1.75.42-4.02,1.84-5.51.39-.41.89-.76,1.38-1.1l.49-.35.23-.17c.57-.42,1.22-.9,1.89-1.12.23-.08.38-.11.5-.13.37-.08.54-.15,1.01-.56.12-.1,1.16-1.03,1.6-1.72.19-.3.29-.6.38-.88.07-.22.14-.43.25-.63.1-.17.22-.27.36-.4.22-.19.5-.43.68-.9.11-.29.1-.67.09-1.05,0-.19-.01-.37,0-.5l.11-.64c.2-1.07.43-2.28-.34-3.43-.49-.74-1.27-1.34-2.02-1.93-.29-.23-.57-.45-.82-.66-.93-.81-1.27-1.51-1.37-2.89l-.02-.26c-.12-1.58-.3-3.98.04-5.4.11-.49.36-.77.67-1.12.23-.26.47-.53.67-.9.43-.74.45-.79.58-1.55.35-2.01.57-4.13-.92-5.65-1.06-1.08-3.04-1.7-4.49-1.4-.83.17-1.53.69-2.19,1.22l.15-.21c.35-.49.63-.88,1.17-1.32,1.12-.91,2.8-1.81,4.44-.88,4.1,2.32,3.65,7.1,3.24,11.31l-.07.71c-.24,2.58-.28,5.23,1.02,7.04.4.56.9,1.01,1.37,1.45.56.52,1.09,1,1.47,1.65l.37.62c.7,1.16,1.42,2.37,1.52,3.7.14,2.02-.86,3.82-2.77,4.94-.53.31-1.09.55-1.65.79-1.75.75-3.56,1.53-3.72,4.18-.04.67-.03,2.33.98,3.21.34.29.77.37,1.12.44.15.03.29.05.42.1.55.21,1.03.55,1.53.9.38.27.77.54,1.19.77,1.06.56,2.23.5,3.37.44,1.03-.05,1.99-.11,2.82.29,1.56.75,2.59,3.3,2.4,4.91-.09.78-.56,1.2-1.1,1.68-.39.35-.79.71-1.07,1.22-.46.85-.45,1.63.02,2.39.5.81.84.88,1.59.88h.39c.78.02,1.52.03,1.78.34.17.2.23.61.15,1.22-.12,1-.45,1.63-.87,2.43-.2.38-.4.77-.61,1.24-.14.33-.21.67-.27,1-.06.3-.11.59-.22.83-.12.25-.31.44-.53.63-.35.33-.78.73-.78,1.46-.49.35-.67.94-.81,1.39-.04.13-.08.26-.13.39-.14.37-.43.76-.72,1.17-.2.28-.41.56-.59.86-1.21,2-1.87,3.74-2.01,5.29-.2,2.32.12,3.78,2.44,4.9.52.25,1.03.42,1.52.59,1.05.35,1.88.63,2.56,1.62.61.89,1.2,2.24,1.05,3.09-.4,2.24-4.03,2.99-6.43,3.49-.48.1-.92.19-1.29.28-1.38.35-2.66.42-4.14.42-.24,0-.49.01-.74.03-.46.03-.93.05-1.31-.01-.24-.04-.47-.16-.72-.29-.32-.16-.67-.35-1.11-.39l-.55.46" fill="#874c3f" stroke-width="0"/><path d="m698.68,179.83l-.11.3.77-.22c-.23-.17-.49-.24-.73-.31-.09-.02-.18-.05-.25-.08-.16-.06-.22-.12-.36-.26-.12-.11-.25-.24-.45-.39-.41-.3-.67-.61-.97-.96-.2-.23-.4-.47-.65-.71-.33-.32-.71-.52-1.05-.7-.41-.22-.76-.4-1.02-.78-1.68-2.43-3.16-5.26-1.41-7.88.19-.28.69-.79.99-1.01.41-.29.65-.31,1.02-.34.25-.02.54-.04.91-.15.35-.1.65-.26.93-.4.31-.16.58-.3.92-.36l.3-.05c.7-.12.99-.18,1.81-.59l.32-.16c.41-.21.77-.39,1.18-.66.64-.43.91-.82,1.19-1.23.12-.17.24-.35.41-.56.26-.32.65-.58,1.05-.85.38-.25.75-.51,1.05-.81.69-.69.95-1.48,1.2-2.24.17-.52.33-1.01.63-1.44.15-.22.34-.41.52-.61.58-.62,1.31-1.38.9-2.66-.47-1.49-1.65-1.16-2.42-.95l-.39.1c-.98.24-1.91.67-2.82,1.09-2.01.94-3.74,1.74-5.69.46-1.65-1.08-1.82-2.45-1.54-4.58.14-1.12.55-2.62,1.09-3.23.29-.32.79-.48,1.36-.66l.32-.1c.56-.18,1.37-.2,2.23-.23,1.91-.05,4.29-.11,4.82-2.25l-.34-.6c-.2-.06-.27-.18-.42-.46-.12-.22-.27-.49-.55-.72-.25-.2-.66-.35-1.12-.51-1.65-.61-3.15-1-5.1-1.33-.43-.07-.87-.11-1.33-.14-.92-.07-1.79-.14-2.45-.53-.99-.58-1.76-1.65-1.97-2.73-.34-1.75.42-4.02,1.84-5.51.39-.41.89-.76,1.38-1.1l.49-.35.23-.17c.57-.42,1.22-.9,1.89-1.12.23-.08.38-.11.5-.13.37-.08.54-.15,1.01-.56.12-.1,1.16-1.03,1.6-1.72.19-.3.29-.6.38-.88.07-.22.14-.43.25-.63.1-.17.22-.27.36-.4.22-.19.5-.43.68-.9.11-.29.1-.67.09-1.05,0-.19-.01-.37,0-.5l.11-.64c.2-1.07.43-2.28-.34-3.43-.49-.74-1.27-1.34-2.02-1.93-.29-.23-.57-.45-.82-.66-.93-.81-1.27-1.51-1.37-2.89l-.02-.26c-.12-1.58-.3-3.98.04-5.4.11-.49.36-.77.67-1.12.23-.26.47-.53.67-.9.43-.74.45-.79.58-1.55.35-2.01.57-4.13-.92-5.65-1.06-1.08-3.04-1.7-4.49-1.4-.83.17-1.53.69-2.19,1.22l.15-.21c.35-.49.63-.88,1.17-1.32,1.12-.91,2.8-1.81,4.44-.88,4.1,2.32,3.65,7.1,3.24,11.31l-.07.71c-.24,2.58-.28,5.23,1.02,7.04.4.56.9,1.01,1.37,1.45.56.52,1.09,1,1.47,1.65l.37.62c.7,1.16,1.42,2.37,1.52,3.7.14,2.02-.86,3.82-2.77,4.94-.53.31-1.09.55-1.65.79-1.75.75-3.56,1.53-3.72,4.18-.04.67-.03,2.33.98,3.21.34.29.77.37,1.12.44.15.03.29.05.42.1.55.21,1.03.55,1.53.9.38.27.77.54,1.19.77,1.06.56,2.23.5,3.37.44,1.03-.05,1.99-.11,2.82.29,1.56.75,2.59,3.3,2.4,4.91-.09.78-.56,1.2-1.1,1.68-.39.35-.79.71-1.07,1.22-.46.85-.45,1.63.02,2.39.5.81.84.88,1.59.88h.39c.78.02,1.52.03,1.78.34.17.2.23.61.15,1.22-.12,1-.45,1.63-.87,2.43-.2.38-.4.77-.61,1.24-.14.33-.21.67-.27,1-.06.3-.11.59-.22.83-.12.25-.31.44-.53.63-.35.33-.78.73-.78,1.46-.49.35-.67.94-.81,1.39-.04.13-.08.26-.13.39-.14.37-.43.76-.72,1.17-.2.28-.41.56-.59.86-1.21,2-1.87,3.74-2.01,5.29-.2,2.32.12,3.78,2.44,4.9.52.25,1.03.42,1.52.59,1.05.35,1.88.63,2.56,1.62.61.89,1.2,2.24,1.05,3.09-.4,2.24-4.03,2.99-6.43,3.49-.48.1-.92.19-1.29.28-1.38.35-2.66.42-4.14.42-.24,0-.49.01-.74.03-.46.03-.93.05-1.31-.01-.24-.04-.47-.16-.72-.29-.32-.16-.67-.35-1.11-.39l-.55.46" fill="none" stroke="#85412c" stroke-linejoin="bevel"/><path d="m620.59,337.43s10.77-11.08,14.39-12.58c3.62-1.5,16.56-3.97,21.05-5.34,0,0,2.39,2.34-.66,6.2,0,0,3.2.16,6.24-1.13,3.04-1.29,5.79-.47,4.66,3.52-1.13,3.99-1.87,7.2-3.87,11.21-1.99,4.01-2.14,9.13-6.71,11.06-4.57,1.93-16.39,4.57-25.37,3.31-8.98-1.26-15.96-2.53-15.96-2.53l6.22-13.72h0Z" fill="#a69778" stroke-width="0"/><path d="m620.59,337.43s10.77-11.08,14.39-12.58c3.62-1.5,16.56-3.97,21.05-5.34,0,0,2.39,2.34-.66,6.2,0,0,3.2.16,6.24-1.13,3.04-1.29,5.79-.47,4.66,3.52-1.13,3.99-1.87,7.2-3.87,11.21-1.99,4.01-2.14,9.13-6.71,11.06-4.57,1.93-16.39,4.57-25.37,3.31-8.98-1.26-15.96-2.53-15.96-2.53l6.22-13.72h0Z" fill="none" stroke="#684f21" stroke-width="1"/><g clip-path="url(#clippath-7)"><path d="m182.18,433.21l83.15-209.28s-6.33-7.39-5.2-19.01c0,0,7.09,22.99,34.02,14.76,0,0-7.94,8.49-18.99,7.92l-92.98,205.61h0Z" fill="#684f21" stroke-width="0"/><path d="m461.68,485.02l68.52-285.58s-7.41-6.3-8.11-17.96c0,0,10.6,21.6,35.91,9.25,0,0-6.51,9.63-17.52,10.79l-78.8,283.5h0Z" fill="#684f21" stroke-width="0"/><path d="m405.93,428.76l-2.6-293.68s-8.71-4.32-12.21-15.47c0,0,15.51,18.4,37.08.29,0,0-3.99,10.92-14.39,14.71l-7.88,294.14h0Z" fill="#684f21" stroke-width="0"/><path d="m26.4,498.86L114.67,218.75s-6.95-6.81-6.83-18.48c0,0,9.06,22.29,35.17,11.74,0,0-7.17,9.15-18.23,9.55L26.4,498.86h0Z" fill="#684f21" stroke-width="0"/><path d="m602.52,467.64l88.28-280.11s-6.95-6.81-6.83-18.48c0,0,9.06,22.29,35.17,11.73,0,0-7.17,9.15-18.23,9.55l-98.39,277.31h0Z" fill="#684f21" stroke-width="0"/></g><path d="m655.37,325.72s3.2.16,6.24-1.13c3.04-1.29,5.79-.47,4.66,3.52-1.13,3.99-1.87,7.2-3.87,11.21-1.99,4.01-2.14,9.13-6.71,11.06-4.57,1.93-16.39,4.57-25.37,3.31-8.98-1.26-15.96-2.53-15.96-2.53l6.22-13.72" fill="#a69778" stroke-width="0"/><path d="m655.37,325.72s3.2.16,6.24-1.13c3.04-1.29,5.79-.47,4.66,3.52-1.13,3.99-1.87,7.2-3.87,11.21-1.99,4.01-2.14,9.13-6.71,11.06-4.57,1.93-16.39,4.57-25.37,3.31-8.98-1.26-15.96-2.53-15.96-2.53l6.22-13.72m17.58-6.97s10.5-1.39,17.31-5.01" fill="none" stroke="#684f21" stroke-width="1"/><path d="m195.42,362.72s3.84-2.23,11.14-5.56c7.27-3.31,11.39-4.73,15.63-1.17,0,0,7.16-1.58,8.48,1.91,1.33,3.49-2.12,19.39-8.48,21.24-6.36,1.85-18.82,1.43-31.54.45l-1.33-12.8,6.1-4.07h0Z" fill="#a69778" stroke-width="0"/><path d="m195.42,362.72s3.84-2.23,11.14-5.56c7.27-3.31,11.39-4.73,15.63-1.17,0,0,7.16-1.58,8.48,1.91,1.33,3.49-2.12,19.39-8.48,21.24-6.36,1.85-18.82,1.43-31.54.45l-1.33-12.8,6.1-4.07h0Z" fill="none" stroke="#684f21"/><path d="m206.03,362.96s8.75-5.54,16.71-7.12" fill="#a69778" stroke-width="0"/><path d="m206.03,362.96s8.75-5.54,16.71-7.12" fill="none" stroke="#684f21"/><path d="m419.29,344.58s3.2.16,6.24-1.13c3.04-1.29,5.79-.47,4.66,3.52-1.13,3.99-1.87,7.2-3.87,11.21-1.99,4.01-3.59,7.7-8.15,9.63-4.57,1.94-14.94,6-23.92,4.74-8.98-1.26-15.96-2.53-15.96-2.53l6.22-13.72" fill="#9e8470" stroke-width="0"/><path d="m419.29,344.58s3.2.16,6.24-1.13c3.04-1.29,5.79-.47,4.66,3.52-1.13,3.99-1.87,7.2-3.87,11.21-1.99,4.01-3.59,7.7-8.15,9.63-4.57,1.94-14.94,6-23.92,4.74-8.98-1.26-15.96-2.53-15.96-2.53l6.22-13.72" fill="none" stroke="#684f21" stroke-width="1"/><path d="m402.09,349.32s10.5-1.39,17.31-5.01" fill="#9e8470" stroke-width="0"/><path d="m402.09,349.32s10.5-1.39,17.31-5.01" fill="none" stroke="#684f21" stroke-width="1"/><path d="m472.93,359.31s1.72-1.84,9.16-4.85c6.24-2.52,13.38-5.44,17.62-1.88,0,0,7.16-1.58,8.48,1.91,1.33,3.49-.66,18.12-8.98,21.1-6.24,2.23-18.32,1.57-31.05.59l-1.32-12.8,6.1-4.07h0Z" fill="#a38e74" stroke-width="0"/><path d="m472.93,359.31s1.72-1.84,9.16-4.85c6.24-2.52,13.38-5.44,17.62-1.88,0,0,7.16-1.58,8.48,1.91,1.33,3.49-.66,18.12-8.98,21.1-6.24,2.23-18.32,1.57-31.05.59l-1.32-12.8,6.1-4.07h0Z" fill="none" stroke="#684f21"/><path d="m483.55,359.55s12.66-6.48,16.7-7.12" fill="#a38e74" stroke-width="0"/><path d="m483.55,359.55s12.66-6.48,16.7-7.12" fill="none" stroke="#684f21"/><path d="m57.83,354.21s9.83-10.11,13.13-11.47c3.31-1.36,15.12-3.62,19.21-4.87,0,0,2.18,2.13-.6,5.66,0,0,2.92.15,5.7-1.03,2.78-1.18,5.29-.43,4.25,3.21-1.03,3.64-1.71,6.57-3.53,10.23-1.82,3.66-1.95,8.33-6.12,10.09-4.17,1.76-14.96,4.17-23.15,3.01-8.2-1.15-14.57-2.31-14.57-2.31l5.68-12.52h0Z" fill="#99816f" stroke-width="0"/><path d="m57.83,354.21s9.83-10.11,13.13-11.47c3.31-1.36,15.12-3.62,19.21-4.87,0,0,2.18,2.13-.6,5.66,0,0,2.92.15,5.7-1.03,2.78-1.18,5.29-.43,4.25,3.21-1.03,3.64-1.71,6.57-3.53,10.23-1.82,3.66-1.95,8.33-6.12,10.09-4.17,1.76-14.96,4.17-23.15,3.01-8.2-1.15-14.57-2.31-14.57-2.31l5.68-12.52h0Z" fill="none" stroke="#684f21" stroke-width="1"/><path d="m73.89,347.79s9.58-1.24,15.79-4.51" fill="#99816f" stroke-width="0"/><path d="m73.89,347.79s9.58-1.24,15.79-4.51" fill="none" stroke="#684f21" stroke-width="1"/><path d="m28.29,352.9l34.28-6.8s-3.99,14.44,2.83,22.68l-41.95,16.44,4.84-32.32h0Z" fill="#745b24" stroke-width="0"/><path d="m163.76,361.42s19.96.02,33.19-2.13c0,0-5.75,12.39.02,23.02l-31.08,9.57s-8.5-13.11-2.13-30.46h0Z" fill="#745b24" stroke-width="0"/><g clip-path="url(#clippath-8)"><path d="m355.69,351.83s27.28-1.76,35.32-6.01c0,0-6.73,25.5,8.03,29.75l-39.09,13.67s-11.93-10.83-4.25-37.41h0Z" fill="#745b24" stroke-width="0"/><path d="m-15.53,238.8s34.13,20.55,41.81,55.28c7.68,34.72-4.25,112.68,7.09,141.02l-51.73-3.54,2.83-192.76h0Z" fill="#898279" stroke-width="0"/></g><path d="m286,83.7c-.12,1.47,1.1,2.69.73,4.34-.38,1.69-1.82,4.63-3.33,5.6,2.99.47,4-4.49,4.94-6.34.4.56.38,1.07.51,1.7.42,2.01.82,4.27.79,6.32,1.7-2.21,1.64-5.34,1.96-8,.6.23,1.01,1.76,1.4,2.28.46.61,1.66,3.42,2.65,2.9-.47-1.47-.68-3.22-.64-4.8.59-.18,1.69,1.22,2.29,1.56,1.66.92,2.81,1.13,4.63,1.18-1.31-.33-2.09-.66-3.09-1.69-1.21-1.24-4.16-4.14-3.87-6.02,0,.32,0,.65,0,.97" fill="#575643" stroke-width="0"/><path d="m437.04,51.32c-.11.8.42.73.73,1.37.69,1.43,1.02,2.81.5,4.37-.97,2.92-2.07,6-4.57,7.78-.05,0,.48,0,.55,0,.47-1.04,2.21-1.66,3.01-2.35,1.9-1.65,3.21-3.63,4.44-5.77,1.07,1.25.51,4.03.41,5.46,1.27-.97,2.12-3.87,2.52-5.45-.25.75.24.83.48,1.38.4.94.64,1.5.56,2.54-.12-1.51.53-3.57.85-5.03.91.27,1.6,1.41,2.89,1.68.94.19,2.22.2,3.15,0,.98-.22,1.65-.81,2.7-.63-4.09-1.82-7.27-6.8-6.86-11.34.14-.13.3-.14.48-.02" fill="#575643" stroke-width="0"/><path d="m449.59,32.58c.35-9.02-13.47-8.34-18.61-5.31-4.89,2.88-5.94,6.19-5.87,11.99.06,5.16-.51,8.32,2.98,12.42,6.14,7.22,16.04,2.44,20.29-3.14,2.9-3.8,4.21-5.94,4.04-11.1-.15-4.48-2.91-6.05-4.78-9.97.1.75.05,1.54.17,2.28" fill="#8e6c57" stroke-width="0"/><path d="m68.44,63.06c-1.78,2.24-6.63,1.58-8.93.74-.89-.33-1.72-.94-2.41-1.53-.92-.78-2.01-1.37-2.77-2.3-1.53-1.87-2.42-4.7-3.01-7.02-1.3-5.14,1.06-11.66,5.76-14.26.7-.39,1.58-1.04,2.36-1.19.41.03.83.05,1.24.08.6-.09.93-.5,1.48-.66.84-.25,2.01-.19,2.9-.34,1.27-.22,2.72-.18,3.99,0,.94.13,1.71.52,2.61.73,1.35.32,2.43.15,3.63.78,2.38,1.24,4.09,3.35,5.38,5.7,1.5,2.72,1.84,5.45,1.58,8.5-.09,1.1-.41,1.24-.82,2.11-.36.74-.33,1.61-.77,2.34-1.41,2.38-3.86,2.49-6.06,3.6-.38.19-.67.57-1.08.74-.66.28-1.23.04-1.84.23-.77.24-.87.64-1.47,1.12-.34.27-.61-.07-.71.31" fill="#8e6c57" stroke-width="0"/><path d="m173.68,96.38c.12.09.25.17.37.26-.85.68-2.56.57-3.56.37-2.17-.44-5.35-1.58-6.95-3.19-1.74-1.76-3.38-3.58-4.34-5.96-.73-1.83-.77-5.04-.52-6.97.78-6.08,6.29-11.95,11.94-13.87,1.99-.67,4.61-.78,6.69-.79,2.57,0,5.51,1.29,7.4,3.09,2.11,2.01,3.73,4.17,5.19,6.65,1.05,1.78,1.36,3.01,1.37,5.05,0,2.87-1.94,5.66-4.14,7.24-1.14.82-1.53,1.69-2.4,2.79-.71.89-.82.75-1.86,1.12-.79.28-1.24.86-1.93,1.27-2.2,1.31-5.15,2.74-7.63,3.26" fill="#8e6c57" stroke-width="0"/><path d="m253.05,127.9c-.66.02-.63.41-.97.76-.82.87-1.23,1.45-2.24,2.06-1.88,1.14-3.41,2.58-5.64,2.83-1.11.13-2.24.17-3.33.32-1.32.19-2.15,1.14-3.62.8-.69-.16-.98-.62-1.63-.8-.55-.15-1.36.05-1.95-.04-1.04-.15-2.35-.36-3.31-.77-1.22-.52-2.01-1.55-3.2-2.17-.67-.35-1.54-.8-2.11-1.39-2.05-2.1-2.48-4.22-3.45-6.91-.7-1.94.18-4.1.6-6.09.56-2.63,2.03-4.94,3.24-7.42,1.04-2.11,3.36-4.62,5.56-5.58.71-.31,1.59-.37,2.26-.75.78-.44,1.45-1.03,2.36-1.34,2.37-.81,5.38-.52,7.89-.46,2.33.05,5.55,1.27,7.17,3.01.91.98,1.25,2.51,1.95,3.63.48.78,1.01,1.41,1.47,2.2.83,1.43,1.31,3.18,1.64,4.77.44,2.11.74,4.17.75,6.38,0,1.8-.32,3.43-1.22,4.91-.44.72-.36.89-1.17,1.54-.37.3-.72.37-1.04.84" fill="#8e6c57" stroke-width="0"/><path d="m292.73,86.09c-.44,2.81-5.26.86-6.63.07-1.1-.64-2.51-.84-3.54-1.53-.83-.56-1.27-1.79-1.97-2.48-.81-.8-1-.85-1.45-1.8-1.43-3.04-3.22-6.63-1.86-9.93,1.5-3.68,5.42-6.99,9.06-8.23,2.83-.97,4.79-.22,7.66.16,3.02.4,5.35,2.27,7.32,4.52,1.52,1.74,2.66,4.25,3.21,6.52.55,2.28.02,4.33-.73,6.4-1.06,2.94-2.77,4.5-5.73,5.57-1.08.39-2.04.84-3.15,1.17-1,.3-2.04.09-3.02.33.04.18.05.48.12.64" fill="#8e6c57" stroke-width="0"/><g clip-path="url(#clippath-9)"><path d="m58.52,120.81c-.26,1.85,1,3.72.94,5.67-.06,1.78-1.26,3.92-2.33,5.4-.63.87-1.71,1.81-2.62,2.41-1.01.67-2.11.58-3.16,1.12-1.43.74-2.85,1.37-4.37,2.15-4.32,2.2-8.98,1.81-13.66,2.36-2.07.24-3.65.01-5.54-.94-2.65-1.35-4.22-2.97-5.71-5.59-2.92-5.13-1.49-12.71,1.14-17.66.83-1.56,1.18-2.69,2.58-3.78,1-.79,2.27-1.54,3.39-2.12.61-.32,1.25-.42,1.84-.68.56-.25.86-.83,1.41-1.06,1.04-.43,2.44-.39,3.56-.83,2.71-1.06,5.12-.99,8.04-.97,3.09.02,5.94-.03,8.86,1.05,1.73.64,3.41,1.84,4.57,3.2.93,1.09,2.5,2.57,2.48,4.19.9.52.41,4.93.36,6.08-.09,2.26-1.28,4.26-2.23,6.26-.09-.46.03-.83.46-.93" fill="#8e6c57" stroke-width="0"/><path d="m157.26,19.12c.03.66-.81,1.45-1.23,2.04-1.06,1.46-2.38,2.58-3.84,3.54-2.9,1.9-5.52,4.02-9.06,4.35-2.47.23-5.66.31-8.12.01-1.33-.16-2.81-.61-3.87-1.33-1.07-.73-3.38-1.74-3.53-3.23-1.35-.23-2.28-2.17-2.82-3.26-.93-1.88-1.26-3.47-1.52-5.55-.14-1.12-.55-2.07-.63-3.19-.08-1.27.12-2.1.45-3.27.64-2.24,1.27-4.07,2.78-5.9,3.14-3.8,7.69-5.6,12.29-6.98,2.12-.63,3.92-.6,6.13-.61.82,0,1.65-.07,2.47.07,1.19.2,1.8.92,2.89,1.36.93.38,1.92.44,2.84.85,1.06.46,1.97,1.04,2.89,1.71,1.3.96,2.68,1.72,3.72,2.97,1.83,2.21,2.95,4.99,2.42,7.91-.29,1.57-1.11,3.14-1.87,4.43-.46.77-.83,1.49-1.2,2.29-.34.74-1.15,1.07-1.19,1.78" fill="#8e6c57" stroke-width="0"/></g><path d="m58.03,346.98s-4.56,14.74,3.4,23.24m-21.89-19.27s-5.32,18.44,4.89,25.79m149.03-16.74s-6.63,12.73.69,22.98m-15.36-21.64s-5.67,14.56,1.16,25.93m-13.7-25.93s-5.88,13.7,1.77,30.48m219.4-45.99s-5.95,22.98,6.8,31.2m-22.96-26.65s-5.1,21.26,5.95,32.6" fill="none" stroke="#898279"/><path d="m579.6,337.3s34.91-.81,42.95-5.06c0,0-6.24,15.59,3.97,23.51l-32.17,12.63s-22.42-4.5-14.74-31.08h0Z" fill="#745b24" stroke-width="0"/><path d="m358.64,351.8s-6.09,21.89,3.08,35.47m254.44-53.32s-5.65,18.43,6.52,23.52m-22.96-21.83s-4.54,19.57,5.95,26.92m-22.11-25.14s-5.57,20.05,10.21,30.96" fill="none" stroke="#898279"/><path d="m599.47,207.2c.47-.33.96-.8,1.37-1.11,1.45-1.1,3.81-1.87,5.66-2.24,2.28-.46,4.84-.34,6.9.82-.12,0-.23,0-.35-.01" fill="none" stroke="#684f21"/><path d="m608.51,203.23c.13.65-.36.55-.69.92-.51.59-.87.83-1.09,1.69-.41,1.61.46,2.67,2.15,1.72,2.05-1.14,1.11-5.71-.94-4.05" fill="#2f1b17" stroke-width="0"/><path d="m608.51,203.23c.13.65-.36.55-.69.92-.51.59-.87.83-1.09,1.69-.41,1.61.46,2.67,2.15,1.72,2.05-1.14,1.11-5.71-.94-4.05m17.03,2.27c.54-.63,2.83-.56,3.57-.56.49,0,.98-.02,1.48-.04.83.23.57.41,1.1.89.31.28.84.78.92,1.13m-19.79,28.88c.98-.11,1.61-.84,2.74-.75.59.05,1.73.15,2,.72" fill="none" stroke="#684f21"/><path d="m629.23,205.51c-1.68-.27-2.07,3.92-.89,4.28,1.88.58,1.36-3.39.87-4.28" fill="#2f1b17" stroke-width="0"/><path d="m629.23,205.51c-1.68-.27-2.07,3.92-.89,4.28,1.88.58,1.36-3.39.87-4.28m-30.15,30.21s7.38,8.45,15.13,7.27c7.75-1.18,10.36-4.23,13.37-9.69m-30.81-32.74s5.51-4.82,17.96-2.98m11.38.42s3.24-1.13,6.44,2.93m-11.83-.8s-.28,10.53.28,16.25c.57,5.72,0,6.26-2.55,6.91-2.55.65-5.3-1.76-5.3-1.76m-3.35,6.65s5.88,2.84,10.35,0m-261.67-20.3c.41-.14.58-.63.8-.96.22-.33.48-.64.76-.93.59-.62,1.29-1.16,1.99-1.66,1.35-.95,2.83-1.51,4.49-1.64h0c1.81-.14,3.61.19,5.41.2h-.09m11.89.6c1.64,0,3-.56,4.54.21,1.54.76,1.75.94,2.04,1.58m-21.32,13.8c.37.23,1.52-.72,2.29-.57,1.15.22,2.15,1.27,3.55,1.49,2.46.39,3.22-.13,4.15-2.33,1.38-3.28.98-6.45.43-9.94-.43-2.72-.5-5.33-.5-8.12v.47" fill="none" stroke="#684f21"/><path d="m366.84,203.82c-.01-.06-.03-.13-.04-.19-2.28-.77-2.69,5.51-.57,4.92,1.23-.35,1.76-3.07,1.43-4.1-.2-.62-.73-.98-1.06-1.51" fill="#2f1b17" stroke-width="0"/><path d="m366.84,203.82c-.01-.06-.03-.13-.04-.19-2.28-.77-2.69,5.51-.57,4.92,1.23-.35,1.76-3.07,1.43-4.1-.2-.62-.73-.98-1.06-1.51" fill="none" stroke="#684f21"/><path d="m387.77,204.1c-.01-.06-.02-.11-.04-.17-1.3.1-1.09,3.72.03,3.92,1.14.2,1.06-1.26,1.04-1.88,0-.43.09-.91-.13-1.32-.16-.29-.52-.47-.68-.7.07-.01.14-.03.21-.04" fill="#2f1b17" stroke-width="0"/><path d="m387.77,204.1c-.01-.06-.02-.11-.04-.17-1.3.1-1.09,3.72.03,3.92,1.14.2,1.06-1.26,1.04-1.88,0-.43.09-.91-.13-1.32-.16-.29-.52-.47-.68-.7.07-.01.14-.03.21-.04m-33.95,22.59s7.95,10.43,14.01,12.19c8.69,2.52,15.03-1.63,16.89-7.23m-16.12-35.29s-5.99,1.03-11.66,6m28.06-4.93s3.29.23,6.54,3.75m-23.71,25.21s6.4,2.62,10.93.59m-8.86,4.82s3.47-1.47,7.72,0" fill="none" stroke="#684f21"/><path d="m179.92,194.44c1.78-1.15,4.06-1.91,6.19-2.57.89-.28,1.75-.19,2.65-.32.99-.15,1.7.16,2.68.05-.31.02-.42.17-.75.29m-.83,13.62c-1.73,2.38.88,2.8,2.7,1.94.44.64,2.08.47,2.85.66.22.05.75.4,1.02.49.62.21,1.12.45,1.82.23,1.9-.61,1.77-3.45,2.01-5.1.19-1.29.14-2.6.36-3.91.13-.79.45-1.48.59-2.25.13-.75-.02-1.72-.03-2.48-.03-1.77.6-3.46.78-5.22.17-1.65.7-2.42.62-4.12.19.52.35,1.04.63,1.51.71,1.23,1.33,1.04,2.49,1.28,1.07.22,2.94.76,3.8,1.45.37.29,1.57,1.48,1.61,1.88-.02-.37-.03-.74-.02-1.12m-7.06,2.27c.24-.71,2.09-.18,2.67.06,1.22.51,2.14,1.67,2.42,2.96-.01-.15-.01-.3,0-.46" fill="none" stroke="#745b24"/><path d="m187.57,191.89c-.18-.05-.35-.04-.51.04-.24,1.12-1.59,1.98-1.2,3.39.29,1.04,1.04.98,1.93.47,1.02-.59,2.59-3.94.64-4.45" fill="#2f1b17" stroke-width="0"/><path d="m187.57,191.89c-.18-.05-.35-.04-.51.04-.24,1.12-1.59,1.98-1.2,3.39.29,1.04,1.04.98,1.93.47,1.02-.59,2.59-3.94.64-4.45" fill="none" stroke="#745b24"/><path d="m206.85,196.43c-.09.54-.84.73-1.38.52-.14-1.32-.42-3.41,1.39-3.59.71.63.48,3.26.26,3.07" fill="#2f1b17" stroke-width="0"/><path d="m206.85,196.43c-.09.54-.84.73-1.38.52-.14-1.32-.42-3.41,1.39-3.59.71.63.48,3.26.26,3.07m-18.42,24.09c-.19.06-.22.04-.11-.06,1.11-.72,4.74-1.34,5.49.06m-10.06-8.76l.94,2.24,4.34-.55s2.1,1.61,6.05,1.08l1.28,1.2m-20.69-24.88s7.09-6.22,16.44-5.27" fill="none" stroke="#745b24"/><path d="m71.35,193.31c.83-.01,1.49-.51,2.25-.78,1.4-.48,3.07-.65,4.54-.93,1.35-.25,2.85-.43,4.23-.28.5.05,1.69.32,1.99.74-.09-.06-.17-.11-.26-.17" fill="none" stroke="#684f21"/><path d="m81.55,191.61c-1.11.01-1.55.12-2.37.83-.96.83-2.54,2.98-1.25,4.22,2.24,2.15,5.4-3.94,2.8-5.04" fill="#2f1b17" stroke-width="0"/><path d="m81.55,191.61c-1.11.01-1.55.12-2.37.83-.96.83-2.54,2.98-1.25,4.22,2.24,2.15,5.4-3.94,2.8-5.04m2.24,18.42c1.27,0,2.5-.56,3.75-.07,1.15.45,1.71,1.35,3.05,1.5,1.31.14,2.09-.05,2.91-1.07.77-.96,1.35-2.38,1.57-3.53.62-3.25.26-6.72.35-10.09.04-1.36.31-2.61.31-4.02,0-.97-.41-3.18.27-3.9.04.65.04,1.32-.27,1.9m-31.91,29.14s10.76,13.08,19.22,13.91c7.12.7,10.04-2.48,10.04-2.48m-14.64-14.93l1.97,1.04,3.99-.82s2.49,1.3,5.77.82l2.57.99m-24.24-27.65s5.24-3.85,16.63-4.52m13.63-.5s4.32,1.26,8.86,6.08m-25.44,33.26s3.66-1.91,9.31,0" fill="none" stroke="#684f21"/><path d="m455.73,193.59c.25-2.14,4.06-3.43,5.65-4.02,1.92-.72,4.45-1.32,6.53-.74.03.17-.05.24-.25.22m9.61.87c3.21-1.61,7.27,1.74,8.69,4.42-.06-.06-.12-.12-.18-.17" fill="none" stroke="#745b24"/><path d="m463.95,189.62c.11-.35.02-.54-.27-.56-.87.94-2.25,5.2.05,4.79,1.51-.28,1.51-2.6,1.36-3.75-.11-.89-.39-1.16-1.14-1.61" fill="#2f1b17" stroke-width="0"/><path d="m463.95,189.62c.11-.35.02-.54-.27-.56-.87.94-2.25,5.2.05,4.79,1.51-.28,1.51-2.6,1.36-3.75-.11-.89-.39-1.16-1.14-1.61" fill="none" stroke="#745b24"/><path d="m482.37,190.19c-1.83.67-2.49,3.31-2.22,5.09,2.04.63,3.32-4.56,2.22-5.09" fill="#2f1b17" stroke-width="0"/><path d="m482.37,190.19c-1.83.67-2.49,3.31-2.22,5.09,2.04.63,3.32-4.56,2.22-5.09m-20.26,30.64c1.89-.58,5.57-2.52,7.08-.31-.08.1-.17.21-.25.31m-19.45.75s6.02,9.4,23.7,4.92m-21.13-39.53s5.16-5.4,16.35-5.26m11.98.71s5.66,1.34,7.11,4.9m-27.44,26.68s6.66,2.44,11.82.6m2.69-29.35s-.71,6.97-.14,13.63c.57,6.65-.14,9.14-2.38,9.14s-2.98-.76-4.4-.99c-1.42-.23-1.23-2.09-.8-3.06" fill="none" stroke="#745b24"/><path d="m350.14,349.95s3.76.72,6.02,2.13" fill="none" stroke="#684f21"/><path d="m448.5,359.02l24.89-2.77s-6.97,18.28,6.26,22.51l-22.22,6.34s-7.23-14.43-8.93-26.08h0Z" fill="#745b24" stroke-width="0"/><polygon points="494.22 349.41 493.2 354.46 498.36 352.82 499.21 349.98 494.22 349.41 494.22 349.41" fill="#684f21" stroke-width="0"/><polygon points="215.41 349.51 211.4 360 216.51 357.58 219.26 351.17 215.41 349.51 215.41 349.51" fill="#684f21" stroke-width="0"/><g clip-path="url(#clippath-10)"><polygon points="76.68 339.04 74.3 347.32 80.48 346.47 83.42 338.19 76.68 339.04 76.68 339.04" fill="#684f21" stroke-width="0"/><path d="m227.89-9.71c1.35-2.12,2.12-3.77,1.49-6-7.44,2.79-12.92,11.94-17.96,17.34-10.06,10.79-10.26,18.92-6.02,31.84,2.31,7.03,3.54,13.62,1.34,20.9-1.31,4.34-3.81,13.12-8.73,14.85-1.39-6.71,2.72-14.32,1.18-20.43-5.2,4.11-7.08,11.46-11.03,16.47-2.39,3.04-7.24,5.91-8.53,8.88,4.16-3.78,6.98-11.51,8.74-16.75,2.09-6.26-.76-7.17-3.71-11.34-.8,2.71.09,5.26-.77,8.05-1.12,3.65-5.18,8.51-7.93,11.32-3.44,3.53-8.18,8.67-13.74,9.03,6.41-9.09,26.61-25.71,18.02-38.04-.98,7.49-12.84,22.57-22.62,20.33,1.95-.9,3.55-1.93,4.36-3.7,7.77-.31,13.75-24.22,17.06-29.75,5.3-8.88,14.76-18.22,26.55-18.65,1.24.04,1.16.05-.24.03" fill="#575643" stroke-width="0"/><path d="m385.45,230.9s-1.02,3.4-4.13,5.95c0,0-1.09,17.19,2.15,24.04l3.52-.8-1.54-29.2h0Z" fill="#684f21" stroke-width="0"/><path d="m199.98-23.4c-2.3,2.83-6.46,4.09-9.3,6.96-5.68,5.74-10.23,14.46-11.6,22.52-1.41,8.29-1.15,18.59,1.25,26.48,1.33,4.37,3.63,9.95,6.57,13.53,2.43,2.95,8.83,4.43,9.84,7.11-7.32-6.34-8.03-25.35-1.99-32.55,1.61,6.56.28,13.22,2.42,20.01,1.95,6.16,11.03,23.36,18.89,23.07-.2-3.12-2.49-2.62-3.6-5.02-1.36-2.96-2.34-6.77-3.45-9.85-1.63-4.51-3.15-9.22-2.39-14.11.77-5.01,5.08-8.62,4.81-13.69-.63,3.64,2.85,5.14,4.37,8.15,1.32,2.63.38,4.33,1.6,6.9,1.16,2.47,4.2,6.33,5.74,8.84,5.39,8.8,8.05,8.35,7.84,19.06-.09,4.55-.14,9.2.25,13.74-.86-3.54,1.09-6.45,2.22-9.66,2.41-6.83,1.52-12.05,2.63-18.92,1.54-.3,3.65-.14,5.05.58-.67,2.73,1.31,3.14,2.16,5.21,3.19,7.71,2.36,15.07,2.39,23.79.02,5.25,1.42,12.29-.41,17.31-1.81,4.98-7.7,6.58-9.47,11.06-.33-3.83,3.89-7.82,5.37-11.05,3.24-7.03,10.24-16.6,9.58-24.42,9.91-5.05,10.44,28.11,6.64,33.37,6.02-15.74,17.88-29.26,19.33-46.71.97-11.6-2.21-24.92-10.93-32.63-9.12-8.06-21.13-11.16-32.78-15.01-20.58-6.79-34.58-23.15-40.36-43.85.32,1.34.59,2.7.78,4.07" fill="#4a4a3b" stroke-width="0"/></g><path d="m95.3,228.91s-1.84,3.01-4.82,4.25l.28,10.62,5.24-1.83-1.56-10.21.85-2.84h0Z" fill="#684f21" stroke-width="0"/><path d="m177.22,223.67s5.06,6.1,11.81,6.24c6.75.14,9.31-1.63,12.57-5.24" fill="none" stroke="#745b24"/></svg>