
<svg xmlns="http://www.w3.org/2000/svg" xmlns:xlink="http://www.w3.org/1999/xlink" viewBox="0 0 750 428"><defs><style>.a,.d,.l,.u,.v{fill:none;}.b{clip-path:url(#a);}.c{fill:#008053;}.d,.l{stroke:#79500f;}.d{stroke-width:3px;}.e{fill:#a9843d;}.f{fill:#1d6693;}.g{fill:#6c966a;}.h{fill:#2b8a58;}.i{fill:#c19f76;}.j{fill:#40874f;}.k{fill:#a68183;}.l{stroke-width:3px;}.m{fill:#c8a882;}.n{fill:#a16e17;}.o{fill:#90a2a9;}.p{fill:#7677b5;}.q{clip-path:url(#n);}.r{fill:#a18937;}.s{fill:#b1344a;}.t{fill:#e9443d;}.u,.v{stroke:#a9884d;stroke-width:2px;}.v{stroke-linejoin:bevel;}</style><clipPath id="a"><rect class="a" x="0.06" width="749.88" height="428"/></clipPath><clipPath id="n"><rect class="a" width="750" height="428"/></clipPath></defs><g class="b"><polygon class="c" points="-2.85 -5.03 -2.85 435.9 756.98 435.9 756.98 -5.03 -2.85 -5.03 -2.85 -5.03"/><polygon class="d" points="-2.85 -5.03 -2.85 435.9 756.98 435.9 756.98 -5.03 -2.85 -5.03 -2.85 -5.03"/></g><path class="e" d="M50.49,255.91S22.34,229,26,185.48s21.42-66.13,52.64-83.28,79.79-16.6,108.46,6.13,45.81,65.59,33.57,108.45c-12.54,43.88-44.08,56.89-65.51,64.85s-76.52,8.64-104.68-25.72Z"/><path class="d" d="M50.49,255.91S22.34,229,26,185.48s21.42-66.13,52.64-83.28,79.79-16.6,108.46,6.13,45.81,65.59,33.57,108.45c-12.54,43.88-44.08,56.89-65.51,64.85s-76.52,8.64-104.68-25.72Z"/><g class="b"><path class="f" d="M92.24,237.85s-26.72,4.9-52.82,24.21-42.88,51.52-49.1,83.8L68,371.31l10.67-9.24a123.08,123.08,0,0,1,23.51-32.35c16.16-16.14,34.8-31,34.8-31L92.24,237.85Z"/><path class="d" d="M92.24,237.85s-26.72,4.9-52.82,24.21-42.88,51.52-49.1,83.8L68,371.31l10.67-9.24a123.08,123.08,0,0,1,23.51-32.35c16.16-16.14,34.8-31,34.8-31L92.24,237.85Z"/></g><path class="g" d="M114.69,300.18l18.7-41.92s20.45,10.64,27.41,37.54a341.55,341.55,0,0,0,22.43,62.55c7.48,15.71,10,16.89,10,16.89L58,366.49l56.7-66.31Z"/><g class="b"><path class="d" d="M114.69,300.18l18.7-41.92s20.45,10.64,27.41,37.54a341.55,341.55,0,0,0,22.43,62.55c7.48,15.71,10,16.89,10,16.89L58,366.49l56.7-66.31ZM169.79,176l-7.55-8s0,7.29-7.54,6.63-18.87-.67-22-4.64-12-4-14.47.66-5,10.6-2.51,15.89,1.88,17.88-1.89,21.19-6.92-8.6-6.92-8.6,2.52-8.61-4.4-7.29-10.69,8.61-4.4,18.54,7.54,15.23,12,13.91,3.77-8.61,3.77-8.61L127,233.58m-2.25-31.17s9.43-13.25,27.71-2.34c0,0-5.9,15.58-17.1,13.25M169.75,198a13.33,13.33,0,0,0-11.79.7s.62,8.24,1.24,16.65-.62,11.79-4.35,11.79-6.31-2.77-8.69-2.77m-13.54,13.84s9.23-7,13.85-9.67,13.18,10.55,13.18,10.55m-17.38-40-6,8.25m31.83-7.48-5.48,7.31m-29.47,55.35s-7.86.65-11.8-3.9-9.83-5.21-7.86-15.62-9.84-6.51-5.25-16.92m29.58,17.14s8.85,19.39,18.43.92m-36.66-8s-2.43,12.1,9.2,12.1m5.26,41,17.05,35.62m3.67-38.89s16.05,43.6-4,84.78m16.14-45.23s11.21,17,5.61,44.26M145.81,311.4l-23.18,57m16-71.8s-12.29,46.89-23.13,71.25m-78.86-102,38.53,52.81-3.86,51.56-12.84-2.48V330.52l-39.16-46.6m89.8-126.32s13.77-15.78,21.35,1.05M137,173.9S139.22,159,156.17,162M80.6,190.13S83,177,92,175.11c0,0,3.16-11.76,14.55-11.1a19.65,19.65,0,0,1,12,3.26s7.6-13.71,22.78-2.61M90.15,192.74s0-13.2,11.19-11.22c0,0,1.32-11.22,11.85-11.22m18.48-9.18s5.34-16.26,22.73-11.61"/><path class="e" d="M-30.88,257.91S-59,231-55.37,187.49s21.43-66.14,52.65-83.29,79.78-16.6,108.45,6.13,45.81,65.59,33.57,108.45c-12.54,43.88-44.08,56.88-65.5,64.85s-76.52,8.64-104.68-25.72Z"/><path class="d" d="M-30.88,257.91S-59,231-55.37,187.49s21.43-66.14,52.65-83.29,79.78-16.6,108.45,6.13,45.81,65.59,33.57,108.45c-12.54,43.88-44.08,56.88-65.5,64.85s-76.52,8.64-104.68-25.72Z"/><path class="h" d="M10.87,239.85s-26.73,4.9-52.83,24.21S-84.84,315.58-91,347.86l77.68,25.45,10.67-9.24a123.08,123.08,0,0,1,23.51-32.35c16.16-16.14,34.8-31,34.8-31L10.87,239.85Z"/><path class="d" d="M10.87,239.85s-26.73,4.9-52.83,24.21S-84.84,315.58-91,347.86l77.68,25.45,10.67-9.24a123.08,123.08,0,0,1,23.51-32.35c16.16-16.14,34.8-31,34.8-31L10.87,239.85Z"/><path class="g" d="M33.32,302.18,52,260.26S72.47,270.9,79.43,297.8a340.06,340.06,0,0,0,22.43,62.55c7.47,15.71,10,16.89,10,16.89l-135.22-8.75,56.71-66.31Z"/><path class="d" d="M33.32,302.18,52,260.26S72.47,270.9,79.43,297.8a340.06,340.06,0,0,0,22.43,62.55c7.47,15.71,10,16.89,10,16.89l-135.22-8.75,56.71-66.31Z"/><path class="i" d="M15.31,229.15A48.65,48.65,0,0,1-1.94,252.56C-15.36,262.42-22.39,268-22.39,268l35.14,3.69L5.19,296.31H51.73V266.73s7.88-.61,11-2.46,8.84,1.85,15.87-4.31,8.3-13.56,8.3-22.18,0-14.65,1.92-19.65-1.28-8.08,1.92-16.09,1.27-10.47.64-16,2.55-9.86-1.92-16.64S85,156.44,77.93,154s-9.66-7.58-17.25-8.63c-9-1.23-12.15-2.53-21.73,1.24s-12.78-1.24-23,8S-3.86,171.37-1.94,187.32s2.55,21.5,8.3,30.74,9,11.09,9,11.09Z"/><path class="d" d="M15.31,229.15A48.65,48.65,0,0,1-1.94,252.56C-15.36,262.42-22.39,268-22.39,268l35.14,3.69L5.19,296.31H51.73V266.73s7.88-.61,11-2.46,8.84,1.85,15.87-4.31,8.3-13.56,8.3-22.18,0-14.65,1.92-19.65-1.28-8.08,1.92-16.09,1.27-10.47.64-16,2.55-9.86-1.92-16.64S85,156.44,77.93,154s-9.66-7.58-17.25-8.63c-9-1.23-12.15-2.53-21.73,1.24s-12.78-1.24-23,8S-3.86,171.37-1.94,187.32s2.55,21.5,8.3,30.74,9,11.09,9,11.09ZM88.41,178l-7.54-8s0,7.29-7.55,6.63-18.87-.67-22-4.64-12-4-14.47.66-5,10.6-2.51,15.89,1.88,17.88-1.89,21.19-6.92-8.6-6.92-8.6,2.52-8.61-4.4-7.29-10.69,8.61-4.4,18.54,7.55,15.23,12,13.91,3.77-8.61,3.77-8.61l13.21,17.88M43.4,204.41s9.44-13.25,27.71-2.34c0,0-5.89,15.58-17.09,13.25M88.38,200a13.36,13.36,0,0,0-11.8.7s.62,8.24,1.24,16.65-.62,11.79-4.34,11.79-6.32-2.77-8.7-2.77M51.25,240.23s9.22-7,13.84-9.66,13.18,10.54,13.18,10.54m-17.38-40-6,8.25m31.82-7.48-5.48,7.31M51.76,264.53s-7.86.65-11.8-3.9S30.13,255.42,32.1,245s-9.84-6.51-5.25-16.92m29.59,17.14s8.84,19.39,18.43.92m-36.67-8s-2.43,12.1,9.2,12.1m5.26,41,17.06,35.62m3.67-38.89s16,43.6-4,84.78m16.14-45.23s11.21,17,5.61,44.26M64.44,313.4l-23.19,57m16-71.8s-12.29,46.89-23.13,71.25M27.68,159.6S41.46,143.82,49,160.65m6.54,15.25S57.84,161,74.79,164M-.78,192.13s2.42-13.14,11.39-15c0,0,3.16-11.76,14.55-11.1a19.68,19.68,0,0,1,12,3.26s7.59-13.71,22.78-2.61M8.77,194.73s0-13.19,11.19-11.21c0,0,1.32-11.22,11.85-11.22m18.48-9.18S55.64,146.86,73,151.51"/></g><path class="e" d="M254.59,253.34s-28.16-27-24.49-70.42,21.43-66.14,52.65-83.29S362.53,83,391.2,105.76,437,171.35,424.77,214.21c-12.53,43.89-44.07,56.89-65.5,64.85s-76.52,8.64-104.68-25.72Z"/><path class="d" d="M254.59,253.34s-28.16-27-24.49-70.42,21.43-66.14,52.65-83.29S362.53,83,391.2,105.76,437,171.35,424.77,214.21c-12.53,43.89-44.07,56.89-65.5,64.85s-76.52,8.64-104.68-25.72Z"/><path class="f" d="M296.34,235.28s-26.72,4.9-52.83,24.21-42.88,51.52-49.09,83.8l77.68,25.45,10.67-9.24a123.08,123.08,0,0,1,23.51-32.35c16.16-16.14,34.8-31,34.8-31l-44.74-60.83Z"/><path class="d" d="M296.34,235.28s-26.72,4.9-52.83,24.21-42.88,51.52-49.09,83.8l77.68,25.45,10.67-9.24a123.08,123.08,0,0,1,23.51-32.35c16.16-16.14,34.8-31,34.8-31l-44.74-60.83Z"/><path class="g" d="M318.79,297.61l18.69-41.91s20.46,10.63,27.42,37.53a341.22,341.22,0,0,0,22.43,62.56c7.48,15.7,10,16.89,10,16.89l-135.22-8.76,56.71-66.31Z"/><path class="d" d="M318.79,297.61l18.69-41.91s20.46,10.63,27.42,37.53a341.22,341.22,0,0,0,22.43,62.56c7.48,15.7,10,16.89,10,16.89l-135.22-8.76,56.71-66.31Zm55.1-124.14-7.55-8s0,7.29-7.55,6.63-18.87-.67-22-4.64-11.95-4-14.46.66-5,10.6-2.52,15.89,1.89,17.88-1.89,21.19-6.92-8.6-6.92-8.6,2.52-8.61-4.4-7.29-10.69,8.61-4.4,18.54,7.55,15.23,11.95,13.91,3.77-8.61,3.77-8.61L331.12,231m-2.24-31.17s9.43-13.25,27.7-2.34c0,0-5.89,15.59-17.09,13.25m34.36-15.3a13.36,13.36,0,0,0-11.8.7s.62,8.24,1.24,16.65-.62,11.79-4.34,11.79-6.31-2.77-8.69-2.77m-13.54,13.85s9.23-7,13.84-9.67,13.18,10.54,13.18,10.54m-17.37-40-6,8.25m31.82-7.48-5.48,7.31M337.24,260s-7.87.65-11.8-3.9-9.84-5.21-7.87-15.62-9.83-6.51-5.25-16.92m29.59,17.14s8.85,19.39,18.43.92m-36.67-8s-2.43,12.1,9.2,12.1m5.26,41,17.06,35.62m3.67-38.89s16,43.6-4,84.78M371,322.88s11.21,17,5.6,44.26m-26.68-58.3-23.19,57m15.95-71.8S330.39,341,319.54,365.32m-78.85-102,38.52,52.81-3.85,51.56-12.84-2.48V328l-39.17-46.6M313.15,155s13.78-15.78,21.35,1.05M341,171.33s2.28-14.89,19.23-11.92m-75.58,28.15s2.43-13.14,11.39-15c0,0,3.17-11.76,14.56-11.1a19.66,19.66,0,0,1,12,3.26s7.59-13.71,22.78-2.61m-51.19,28.08s0-13.2,11.19-11.22c0,0,1.31-11.22,11.84-11.22m18.48-9.18s5.35-16.26,22.73-11.61"/><path class="e" d="M116.52,297.27S88.36,270.33,92,226.85s21.43-66.13,52.65-83.28,79.78-16.6,108.45,6.12,45.81,65.59,33.57,108.46C274.17,302,242.62,315,221.2,323s-76.52,8.65-104.68-25.72Z"/><path class="d" d="M116.52,297.27S88.36,270.33,92,226.85s21.43-66.13,52.65-83.28,79.78-16.6,108.45,6.12,45.81,65.59,33.57,108.46C274.17,302,242.62,315,221.2,323s-76.52,8.65-104.68-25.72Z"/><path class="f" d="M158.27,279.22s-26.73,4.89-52.83,24.21S62.56,355,56.35,387.23L134,412.68l10.67-9.24a123.08,123.08,0,0,1,23.51-32.35c16.16-16.14,34.8-31,34.8-31l-44.74-60.83Z"/><path class="d" d="M158.27,279.22s-26.73,4.89-52.83,24.21S62.56,355,56.35,387.23L134,412.68l10.67-9.24a123.08,123.08,0,0,1,23.51-32.35c16.16-16.14,34.8-31,34.8-31l-44.74-60.83Z"/><path class="g" d="M180.72,341.54l18.69-41.91s20.46,10.64,27.42,37.54a340.34,340.34,0,0,0,22.43,62.55c7.48,15.71,10,16.89,10,16.89L124,407.86l56.71-66.32Z"/><path class="d" d="M180.72,341.54l18.69-41.91s20.46,10.64,27.42,37.54a340.34,340.34,0,0,0,22.43,62.55c7.48,15.71,10,16.89,10,16.89L124,407.86l56.71-66.32Z"/><path class="i" d="M162.71,268.52a48.62,48.62,0,0,1-17.25,23.41C132,301.79,125,307.34,125,307.34L160.15,311l-7.56,24.65h46.54V306.1s7.88-.61,11-2.46,8.84,1.85,15.87-4.31,8.3-13.56,8.3-22.19,0-14.65,1.92-19.64-1.28-8.08,1.92-16.09,1.28-10.48.64-16,2.55-9.86-1.92-16.64-4.47-12.94-11.5-15.4-9.66-7.58-17.25-8.63c-9-1.23-12.14-2.53-21.73,1.24s-12.78-1.24-23,8-19.81,16.78-17.89,32.73,2.55,21.5,8.3,30.74,9,11.09,9,11.09Z"/><path class="d" d="M162.71,268.52a48.62,48.62,0,0,1-17.25,23.41C132,301.79,125,307.34,125,307.34L160.15,311l-7.56,24.65h46.54V306.1s7.88-.61,11-2.46,8.84,1.85,15.87-4.31,8.3-13.56,8.3-22.19,0-14.65,1.92-19.64-1.28-8.08,1.92-16.09,1.28-10.48.64-16,2.55-9.86-1.92-16.64-4.47-12.94-11.5-15.4-9.66-7.58-17.25-8.63c-9-1.23-12.14-2.53-21.73,1.24s-12.78-1.24-23,8-19.81,16.78-17.89,32.73,2.55,21.5,8.3,30.74,9,11.09,9,11.09Zm73.1-51.11-7.54-8s0,7.29-7.55,6.62-18.87-.66-22-4.63-12-4-14.47.66-5,10.59-2.51,15.89,1.89,17.88-1.89,21.19-6.92-8.61-6.92-8.61,2.52-8.6-4.4-7.28-10.69,8.61-4.4,18.54,7.55,15.23,11.95,13.91,3.77-8.61,3.77-8.61l13.21,17.87m-2.24-31.16s9.43-13.25,27.7-2.34c0,0-5.89,15.58-17.09,13.25m34.36-15.3a13.34,13.34,0,0,0-11.8.69s.62,8.25,1.24,16.65-.62,11.8-4.34,11.8-6.31-2.78-8.69-2.78M198.65,279.6s9.23-7,13.84-9.67,13.18,10.55,13.18,10.55m-17.38-40-6,8.25m31.82-7.48-5.48,7.31M199.17,303.9s-7.87.65-11.8-3.9-9.84-5.21-7.87-15.62-9.84-6.51-5.25-16.92m29.59,17.13s8.84,19.4,18.43.93m-36.67-8s-2.43,12.1,9.2,12.1m5.26,41,17.06,35.62m3.67-38.89s16,43.6-4,84.78m16.15-45.24s11.2,17,5.6,44.27m-26.68-58.31-23.19,57M204.6,338s-12.29,46.89-23.13,71.25m-78.85-102,38.52,52.81-3.85,51.56-12.84-2.48V371.88L85.28,325.29M175.08,199s13.78-15.78,21.35,1.05M203,215.26s2.27-14.89,19.23-11.91m-75.58,28.14s2.43-13.13,11.39-15c0,0,3.16-11.76,14.55-11.11a19.73,19.73,0,0,1,12,3.27s7.59-13.71,22.78-2.61M156.18,234.1s0-13.19,11.18-11.21c0,0,1.32-11.22,11.85-11.22m18.48-9.18s5.35-16.26,22.73-11.62"/><path class="e" d="M443.92,257.91s-28.16-27-24.49-70.42,21.43-66.14,52.65-83.29,79.78-16.6,108.45,6.13,45.81,65.59,33.57,108.45c-12.53,43.88-44.07,56.88-65.5,64.85s-76.52,8.64-104.68-25.72Z"/><path class="d" d="M443.92,257.91s-28.16-27-24.49-70.42,21.43-66.14,52.65-83.29,79.78-16.6,108.45,6.13,45.81,65.59,33.57,108.45c-12.53,43.88-44.07,56.88-65.5,64.85s-76.52,8.64-104.68-25.72Z"/><path class="f" d="M485.67,239.85s-26.72,4.9-52.83,24.21-42.88,51.52-49.09,83.8l77.68,25.45,10.67-9.24a123.08,123.08,0,0,1,23.51-32.35c16.16-16.14,34.8-31,34.8-31l-44.74-60.83Z"/><path class="d" d="M485.67,239.85s-26.72,4.9-52.83,24.21-42.88,51.52-49.09,83.8l77.68,25.45,10.67-9.24a123.08,123.08,0,0,1,23.51-32.35c16.16-16.14,34.8-31,34.8-31l-44.74-60.83Z"/><path class="g" d="M508.12,302.18l18.69-41.92s20.46,10.64,27.42,37.54a340.8,340.8,0,0,0,22.43,62.55c7.48,15.71,10,16.89,10,16.89l-135.22-8.75,56.71-66.31Z"/><path class="d" d="M508.12,302.18l18.69-41.92s20.46,10.64,27.42,37.54a340.8,340.8,0,0,0,22.43,62.55c7.48,15.71,10,16.89,10,16.89l-135.22-8.75,56.71-66.31Z"/><path class="i" d="M490.11,229.15a48.57,48.57,0,0,1-17.25,23.41C459.44,262.42,452.41,268,452.41,268l35.15,3.69L480,296.31h46.54V266.73s7.88-.61,11-2.46,8.84,1.85,15.87-4.31,8.31-13.56,8.31-22.18,0-14.65,1.91-19.65-1.27-8.08,1.92-16.09,1.28-10.47.64-16,2.56-9.86-1.92-16.64-4.47-12.94-11.5-15.4-9.66-7.58-17.25-8.63c-9-1.23-12.14-2.53-21.73,1.24s-12.78-1.24-23,8-19.81,16.77-17.89,32.72,2.55,21.5,8.31,30.74,8.94,11.09,8.94,11.09Z"/><g class="b"><path class="d" d="M490.11,229.15a48.57,48.57,0,0,1-17.25,23.41C459.44,262.42,452.41,268,452.41,268l35.15,3.69L480,296.31h46.54V266.73s7.88-.61,11-2.46,8.84,1.85,15.87-4.31,8.31-13.56,8.31-22.18,0-14.65,1.91-19.65-1.27-8.08,1.92-16.09,1.28-10.47.64-16,2.56-9.86-1.92-16.64-4.47-12.94-11.5-15.4-9.66-7.58-17.25-8.63c-9-1.23-12.14-2.53-21.73,1.24s-12.78-1.24-23,8-19.81,16.77-17.89,32.72,2.55,21.5,8.31,30.74,8.94,11.09,8.94,11.09ZM563.22,178l-7.55-8s0,7.29-7.55,6.63-18.86-.67-22-4.64-12-4-14.46.66-5,10.6-2.52,15.89,1.89,17.88-1.89,21.19-6.91-8.6-6.91-8.6,2.51-8.61-4.41-7.29-10.69,8.61-4.4,18.54,7.55,15.23,12,13.91,3.77-8.61,3.77-8.61l13.21,17.88m-2.24-31.17s9.43-13.25,27.7-2.34c0,0-5.89,15.58-17.09,13.25M563.18,200a13.36,13.36,0,0,0-11.8.7s.62,8.24,1.24,16.65-.62,11.79-4.34,11.79-6.31-2.77-8.69-2.77m-13.54,13.84s9.23-7,13.84-9.66,13.19,10.54,13.19,10.54m-17.38-40-6,8.25m31.82-7.48L556,209.18m-29.46,55.35s-7.87.65-11.8-3.9-9.84-5.21-7.87-15.62-9.83-6.51-5.25-16.92m29.59,17.14s8.85,19.39,18.43.92m-36.67-8s-2.43,12.1,9.2,12.1m5.26,41,17.06,35.62m3.67-38.89s16,43.6-4,84.78m16.14-45.23s11.21,17,5.6,44.26M539.24,313.4l-23.19,57m16-71.8s-12.28,46.89-23.12,71.25M430,267.9l38.52,52.81-3.85,51.56-12.84-2.48V332.51l-39.17-46.59m89.8-126.32s13.78-15.78,21.36,1.05m6.53,15.25S532.65,161,549.6,164M474,192.13s2.43-13.14,11.39-15c0,0,3.17-11.76,14.56-11.1a19.65,19.65,0,0,1,12,3.26s7.59-13.71,22.78-2.61m-51.19,28.07s0-13.19,11.19-11.21c0,0,1.31-11.22,11.84-11.22m18.48-9.18s5.35-16.26,22.73-11.61"/><path class="e" d="M743.38,260.16s28.16-27,24.49-70.42-21.43-66.14-52.65-83.29-79.78-16.6-108.45,6.13S561,178.17,573.2,221c12.53,43.89,44.08,56.89,65.5,64.85s76.52,8.64,104.68-25.72Z"/><path class="d" d="M743.38,260.16s28.16-27,24.49-70.42-21.43-66.14-52.65-83.29-79.78-16.6-108.45,6.13S561,178.17,573.2,221c12.53,43.89,44.08,56.89,65.5,64.85s76.52,8.64,104.68-25.72Z"/><path class="j" d="M701.63,242.1s26.73,4.9,52.83,24.21,42.88,51.52,49.09,83.8l-77.68,25.46-10.67-9.25A123.08,123.08,0,0,0,691.69,334c-16.16-16.14-34.8-31-34.8-31l44.74-60.84Z"/><path class="d" d="M701.63,242.1s26.73,4.9,52.83,24.21,42.88,51.52,49.09,83.8l-77.68,25.46-10.67-9.25A123.08,123.08,0,0,0,691.69,334c-16.16-16.14-34.8-31-34.8-31l44.74-60.84Z"/></g><path class="g" d="M679.18,304.43l-18.69-41.91S640,273.15,633.07,300.05a340.47,340.47,0,0,1-22.43,62.56c-7.48,15.71-10,16.89-10,16.89l135.22-8.76-56.71-66.31Z"/><path class="d" d="M679.18,304.43l-18.69-41.91S640,273.15,633.07,300.05a340.47,340.47,0,0,1-22.43,62.56c-7.48,15.71-10,16.89-10,16.89l135.22-8.76-56.71-66.31Z"/><path class="i" d="M697.19,231.4a48.65,48.65,0,0,0,17.25,23.41c13.42,9.86,20.45,15.41,20.45,15.41l-35.14,3.7,7.56,24.64H660.77V269s-7.88-.62-11-2.47-8.84,1.85-15.87-4.31-8.3-13.56-8.3-22.18,0-14.65-1.92-19.65,1.28-8.08-1.92-16.09-1.28-10.47-.64-16-2.55-9.86,1.92-16.63,4.47-12.94,11.5-15.41,9.66-7.58,17.25-8.62c8.95-1.24,12.14-2.54,21.73,1.23s12.78-1.23,23,8,19.81,16.77,17.89,32.72-2.55,21.5-8.3,30.74-8.95,11.09-8.95,11.09Z"/><g class="b"><path class="d" d="M697.19,231.4a48.65,48.65,0,0,0,17.25,23.41c13.42,9.86,20.45,15.41,20.45,15.41l-35.14,3.7,7.56,24.64H660.77V269s-7.88-.62-11-2.47-8.84,1.85-15.87-4.31-8.3-13.56-8.3-22.18,0-14.65-1.92-19.65,1.28-8.08-1.92-16.09-1.28-10.47-.64-16-2.55-9.86,1.92-16.63,4.47-12.94,11.5-15.41,9.66-7.58,17.25-8.62c8.95-1.24,12.14-2.54,21.73,1.23s12.78-1.23,23,8,19.81,16.77,17.89,32.72-2.55,21.5-8.3,30.74-8.95,11.09-8.95,11.09Zm-73.1-51.1,7.54-8s0,7.28,7.55,6.62,18.87-.67,22-4.64,11.95-4,14.47.66,5,10.6,2.51,15.9-1.89,17.87,1.89,21.18,6.92-8.6,6.92-8.6-2.52-8.61,4.4-7.29,10.69,8.61,4.4,18.54-7.55,15.23-11.95,13.91-3.77-8.61-3.77-8.61l-13.21,17.88m2.25-31.17s-9.44-13.25-27.71-2.34c0,0,5.89,15.59,17.09,13.25m-34.36-15.3a13.36,13.36,0,0,1,11.8.7s-.62,8.25-1.24,16.65.62,11.79,4.34,11.79,6.32-2.77,8.69-2.77m13.54,13.85s-9.23-7-13.84-9.67-13.18,10.55-13.18,10.55m17.38-40,6,8.26m-31.82-7.49,5.48,7.32m29.46,55.34s7.87.65,11.8-3.9,9.84-5.21,7.87-15.62,9.84-6.51,5.25-16.92m-29.59,17.14s-8.84,19.39-18.43.92m36.67-8s2.43,12.1-9.2,12.1m-5.26,41-17.06,35.63m-3.67-38.9s-16,43.6,4,84.78M627,329.7s-11.2,17-5.6,44.26m26.68-58.3,23.19,57m-16-71.8s12.29,46.89,23.13,71.25m78.85-102L718.76,323l3.85,51.57L735.45,372V334.77l39.17-46.6m-89.8-126.32s-13.07-11.62-23,1.69m-4.9,14.61s-2.27-14.89-19.23-11.92m75.58,28.15s-2.43-13.14-11.39-15c0,0-3.16-11.76-14.55-11.1a19.68,19.68,0,0,0-12,3.26s-7.59-13.71-22.78-2.61M703.72,197s0-13.2-11.18-11.22c0,0-1.32-11.22-11.85-11.22m-18.48-9.18s-5.35-16.26-22.73-11.61"/></g><path class="e" d="M303.61,287.94S275.45,261,279.12,217.51s21.42-66.13,52.64-83.28,79.79-16.6,108.46,6.12S486,206,473.79,248.81c-12.54,43.88-44.08,56.88-65.5,64.84s-76.53,8.65-104.68-25.71Z"/><path class="d" d="M303.61,287.94S275.45,261,279.12,217.51s21.42-66.13,52.64-83.28,79.79-16.6,108.46,6.12S486,206,473.79,248.81c-12.54,43.88-44.08,56.88-65.5,64.84s-76.53,8.65-104.68-25.71Z"/><path class="f" d="M345.35,269.88s-26.72,4.9-52.82,24.21-42.88,51.52-49.1,83.8l77.69,25.45,10.67-9.24a123.08,123.08,0,0,1,23.51-32.35c16.16-16.14,34.8-31,34.8-31l-44.75-60.83Z"/><path class="d" d="M345.35,269.88s-26.72,4.9-52.82,24.21-42.88,51.52-49.1,83.8l77.69,25.45,10.67-9.24a123.08,123.08,0,0,1,23.51-32.35c16.16-16.14,34.8-31,34.8-31l-44.75-60.83Z"/><g class="b"><path class="h" d="M336.67,325.4l49.83-35.11s20.46,10.64,27.41,37.54a341,341,0,0,0,22.44,62.55c7.47,15.71,12.29,41.32,12.29,41.32L277.73,443,336.67,325.4Z"/><path class="d" d="M336.67,325.4l49.83-35.11s20.46,10.64,27.41,37.54a341,341,0,0,0,22.44,62.55c7.47,15.71,12.29,41.32,12.29,41.32L277.73,443,336.67,325.4Z"/></g><path class="i" d="M349.8,259.18a48.68,48.68,0,0,1-17.26,23.41C319.13,292.45,312.1,298,312.1,298l35.14,3.69-7.56,24.65,48-14.53-1.48-15s7.88-.62,11-2.47,8.84,1.85,15.86-4.31,8.31-13.56,8.31-22.18,0-14.66,1.92-19.65-1.28-8.08,1.91-16.09,1.28-10.47.64-16,2.56-9.86-1.91-16.64-4.48-12.94-11.5-15.4-9.67-7.58-17.26-8.63c-8.94-1.23-12.14-2.53-21.72,1.24s-12.78-1.24-23,8-19.8,16.77-17.89,32.72,2.56,21.5,8.31,30.74,8.95,11.09,8.95,11.09Z"/><g class="b"><path class="d" d="M349.8,259.18a48.68,48.68,0,0,1-17.26,23.41C319.13,292.45,312.1,298,312.1,298l35.14,3.69-7.56,24.65,48-14.53-1.48-15s7.88-.62,11-2.47,8.84,1.85,15.86-4.31,8.31-13.56,8.31-22.18,0-14.66,1.92-19.65-1.28-8.08,1.91-16.09,1.28-10.47.64-16,2.56-9.86-1.91-16.64-4.48-12.94-11.5-15.4-9.67-7.58-17.26-8.63c-8.94-1.23-12.14-2.53-21.72,1.24s-12.78-1.24-23,8-19.8,16.77-17.89,32.72,2.56,21.5,8.31,30.74,8.95,11.09,8.95,11.09Zm28.09-24.74s9.43-13.25,27.71-2.34c0,0-5.89,15.58-17.1,13.25m34.36-15.3a13.35,13.35,0,0,0-11.79.69s.62,8.25,1.24,16.66-.62,11.79-4.35,11.79-6.31-2.77-8.69-2.77m-13.54,13.84s9.23-7,13.85-9.66,13.18,10.54,13.18,10.54m-17.38-40-6,8.25m31.83-7.48-5.48,7.31m-29.47,55.35s-7.86.65-11.8-3.9-9.83-5.21-7.87-15.62-9.83-6.51-5.24-16.92m29.58,17.13s8.85,19.4,18.43.93m-36.66-8s-2.43,12.1,9.2,12.1m5.26,41,17.7,33.13m3-36.4s16.05,43.6-4,84.78M420,357.48s11.21,17,5.61,44.26m-26.69-58.31L353.68,440.2m38-111.53s-39.92,94.85-50.77,119.2M289.7,297.93l38.53,52.81-2.9,88.05-13.8-39V362.54L272.37,316m82.16-129.16s21.41-12.94,29,3.89m-3.74,17.65S392.33,191,409.28,194m-75.57,28.14s2.42-13.13,11.39-15c0,0,3.16-11.76,14.55-11.1a19.65,19.65,0,0,1,12,3.26s7.6-13.71,22.79-2.61m-51.2,28.07s0-13.19,11.19-11.21c0,0,4.07-13.16,15.95-3.79m14.38-16.61s5.34-16.26,22.73-11.62"/></g><path class="e" d="M490.69,298.69s-28.16-26.94-24.48-70.42,21.42-66.14,52.64-83.28,79.79-16.6,108.46,6.12,45.81,65.59,33.56,108.46c-12.53,43.88-44.07,56.88-65.5,64.84s-76.52,8.64-104.68-25.72Z"/><path class="d" d="M490.69,298.69s-28.16-26.94-24.48-70.42,21.42-66.14,52.64-83.28,79.79-16.6,108.46,6.12,45.81,65.59,33.56,108.46c-12.53,43.88-44.07,56.88-65.5,64.84s-76.52,8.64-104.68-25.72Z"/><path class="f" d="M532.44,280.64s-26.72,4.89-52.82,24.21-42.88,51.52-49.1,83.8L508.2,414.1l10.67-9.24a123.28,123.28,0,0,1,23.52-32.35c16.15-16.14,34.8-31,34.8-31l-44.75-60.83Z"/><path class="d" d="M532.44,280.64s-26.72,4.89-52.82,24.21-42.88,51.52-49.1,83.8L508.2,414.1l10.67-9.24a123.28,123.28,0,0,1,23.52-32.35c16.15-16.14,34.8-31,34.8-31l-44.75-60.83Z"/><path class="j" d="M538.52,340.16l35.06-39.11S594,311.68,601,338.58a342,342,0,0,0,22.43,62.56c7.48,15.71,10,16.89,10,16.89l-135.21-8.76,40.33-69.11Z"/><path class="d" d="M538.52,340.16l35.06-39.11S594,311.68,601,338.58a342,342,0,0,0,22.43,62.56c7.48,15.71,10,16.89,10,16.89l-135.21-8.76,40.33-69.11Z"/><path class="i" d="M536.88,269.93a48.62,48.62,0,0,1-17.25,23.42c-13.42,9.86-20.45,15.4-20.45,15.4l35.15,3.7-7.56,24.65H573.3V307.52s7.88-.62,11-2.46,8.84,1.84,15.87-4.32,8.31-13.55,8.31-22.18,0-14.65,1.91-19.65-1.27-8.07,1.92-16.09,1.28-10.47.64-16,2.56-9.86-1.92-16.64-4.47-12.94-11.5-15.41-9.66-7.58-17.25-8.62c-9-1.23-12.14-2.53-21.73,1.23s-12.77-1.23-23,8-19.81,16.77-17.89,32.73,2.56,21.49,8.31,30.73,8.94,11.09,8.94,11.09Z"/><g class="b"><path class="d" d="M536.88,269.93a48.62,48.62,0,0,1-17.25,23.42c-13.42,9.86-20.45,15.4-20.45,15.4l35.15,3.7-7.56,24.65H573.3V307.52s7.88-.62,11-2.46,8.84,1.84,15.87-4.32,8.31-13.55,8.31-22.18,0-14.65,1.91-19.65-1.27-8.07,1.92-16.09,1.28-10.47.64-16,2.56-9.86-1.92-16.64-4.47-12.94-11.5-15.41-9.66-7.58-17.25-8.62c-9-1.23-12.14-2.53-21.73,1.23s-12.77-1.23-23,8-19.81,16.77-17.89,32.73,2.56,21.49,8.31,30.73,8.94,11.09,8.94,11.09ZM565,245.19s9.43-13.24,27.71-2.33c0,0-5.9,15.58-17.1,13.24M610,240.81a13.32,13.32,0,0,0-11.79.69s.62,8.25,1.24,16.65-.62,11.8-4.35,11.8-6.31-2.78-8.69-2.78M572.82,281s9.23-7,13.84-9.67,13.19,10.55,13.19,10.55m-17.38-40-6,8.25m31.83-7.49L602.8,250m-29.46,55.35s-7.87.65-11.8-3.91-9.83-5.2-7.87-15.62-9.83-6.5-5.24-16.92M578,286s8.85,19.39,18.43.92m-36.67-8S557.34,291,569,291m5.26,41,17.06,35.62M595,328.69s16,43.6-4,84.78m16.14-45.24s11.21,17,5.6,44.26M586,354.19l-23.18,57m15.95-71.81s-12.29,46.89-23.13,71.25m-78.86-102,38.52,52.8-3.85,51.57-12.84-2.49V373.3l-39.16-46.59m89.79-126.33s16-14,23.55,2.85m4.34,13.45s2.28-14.89,19.23-11.91m-75.58,28.14s2.43-13.13,11.39-15c0,0,3.17-11.75,14.56-11.1,0,0,8.76,5,14.46,8.91,0,0,5.15-19.36,20.34-8.26m-51.19,28.08s0-13.2,11.19-11.22A146.76,146.76,0,0,0,562,225.9m9.83-22s5.35-16.26,22.73-11.61"/><path class="k" d="M131.68,442.31S117.05,388,119,367.34s8.61-35.56,24.48-51.7a414.81,414.81,0,0,0,30.78-36l62,42.27-8.63,71.92-96,48.45Z"/><path class="l" d="M131.68,442.31S117.05,388,119,367.34s8.61-35.56,24.48-51.7a414.81,414.81,0,0,0,30.78-36l62,42.27-8.63,71.92-96,48.45Z"/></g><path class="f" d="M318.92,345.3s-9.35-21-26.86-32-54.74-17.39-54.74-17.39-18.08,74.75-17.08,110.56l98.68-61.17Z"/><path class="l" d="M318.92,345.3s-9.35-21-26.86-32-54.74-17.39-54.74-17.39-18.08,74.75-17.08,110.56l98.68-61.17Z"/><path class="i" d="M156.19,325.09s8.73-17.58,15.89-34.25,7.51-24.54,7.51-24.54-13.45-7.56-21-20.62-11.5-28.2-2.23-47.48,28.73-27.74,37.36-28.54,24.93,4.42,27.87,8.29,9.78,9.68,13.94,20.52,4.17,15.7,5.84,21-1.78,6.61-1.25,11.17,3,8.75,1.84,12.87.78,8.61,2.82,15.79,2.18,9.82-.18,15.43-.19,10.57-1.15,17.39-11.86,24.27-11.86,24.27l-1.78,6.6s-4.6-2.31-14.69,2.21-14.3,6.93-14.3,6.93-3.67-9.18-15.73-10.5-28.9,3.45-28.9,3.45Z"/><path class="l" d="M156.19,325.09s8.73-17.58,15.89-34.25,7.51-24.54,7.51-24.54-13.45-7.56-21-20.62-11.5-28.2-2.23-47.48,28.73-27.74,37.36-28.54,24.93,4.42,27.87,8.29,9.78,9.68,13.94,20.52,4.17,15.7,5.84,21-1.78,6.61-1.25,11.17,3,8.75,1.84,12.87.78,8.61,2.82,15.79,2.18,9.82-.18,15.43-.19,10.57-1.15,17.39-11.86,24.27-11.86,24.27l-1.78,6.6s-4.6-2.31-14.69,2.21-14.3,6.93-14.3,6.93-3.67-9.18-15.73-10.5-28.9,3.45-28.9,3.45Zm65.42-143s-5.06,5.71-14.51,1.4-18.58-4.63-26.28-.88S168,194.21,167.37,201.55c-.89,10.28,1.72,16.45,8.65,22.22s2.12,3.66,5.74,9.94,1.68,5.31,1.68,5.31-4.75-7-10.5-3.7-7.21,10.44-4,18.37m11-12.28s.62-6.74-4.46-3.81-3.45,8.38-.12,12.84,12.71,9,12.71,9m-1.24-16.92s.6,6.54,7.5,11.62,8.69,5.43,8.69,5.43l2.43,7M197,233.7s2.4-8,12.4-9.35,11.28,2.26,11.28,2.26m18.64-5a8.46,8.46,0,0,0-8.86.82c-4.47,3.3-3.85,4.38-3.45,6.29s3.8,7.82,6.28,12.11,3.18,6.74,0,8.58-6.33.08-9.6.55a6,6,0,0,1-5.05-1.38m.73-17.09s-2.62-8.3-12.38,1.11m2.17,3.14s4.67,4.23,8.23,1.4m12.14-8.57s4.8-5.84,8.68-.41m-6.81,5.17s3.82,4.21,7.09.68m-40.79,31.88s2,9.56.4,15.46-4.23,7.44-4.23,7.44m11.35-13s-5.51,6.73-1.32,22.76m8.9-17.24s.11,14.14-1.51,21.47m8.84-20.8s2.49,16.88-.61,27.83M230.21,290s.79,10.17-2.7,24.22m-8.91-36.85s11.8,10.06,17.39-1.24m0,11.92a53.74,53.74,0,0,1-4.39,26m13.69-51.86s-3-8.88-7.27-11.37-9.47.52-9.47.52-9.1-3.31-14.34,4.75a29.55,29.55,0,0,0-4.78,16.2m31,8.07a109.32,109.32,0,0,0-.68-10.92c-.73-7.35-2.48-9.16-6.12-10.6a16.19,16.19,0,0,1-5.39-3.24,20.37,20.37,0,0,0-6.18,1.45c-3.44,1.35-5,3.57-6.21,9.94A21,21,0,0,1,210,277.52m12.9-17.78s2.85,3.66,9.23.73m-16.39-30.08-1.08,4.06m21.16-6.6-.94,3.24m-34.32-10.75s9.54-4,17.32-2.66,14-3.66,15.53-4.56,4.09-.17,4.09-.17m-40.14,4.44a18.88,18.88,0,0,1,14.72-6.33c9.26.44,14.09-.91,17.78-3s5.5-.2,5.5-.2"/><path class="k" d="M200.82,406.61s-8.3-19-27.63-28.19S121,352.48,121,352.48s-3,13-2.47,22.45,3,23.47,3,23.47,33,1.27,41.69,5.37,17.91,12.78,17.91,12.78l19.64-9.94Z"/><g class="b"><path class="l" d="M200.82,406.61s-8.3-19-27.63-28.19S121,352.48,121,352.48s-3,13-2.47,22.45,3,23.47,3,23.47,33,1.27,41.69,5.37,17.91,12.78,17.91,12.78l19.64-9.94Zm-54.31-77.89S187.19,369,205.63,402m-42.07-66.49s31.54,28.92,49.64,62.83m36.23-98.79s-15.66,46.67-18.26,99m11.91-66S254,352.69,256.76,383m-4.39-77.26S273.61,332.26,286.3,363m-18.08-46.41s13.73,13.57,25.38,42.2M160.74,201.15a7.6,7.6,0,0,0-.48,9.78c3.81,5.48,6.39,4,6.39,4m-10,14.8s3.68-13.37,14.27-6.68m-8.69,19.48s.09-10.18,5.24-12a14.22,14.22,0,0,1,9.86.31m40.1-50.38s-4.43,2.36-19-4.23m-11.33,88.27s-4.82,3.77,2.3,16.09"/><path class="e" d="M22.15,335.83S-6,308.89-2.34,265.41s21.43-66.14,52.65-83.28,79.78-16.61,108.45,6.12,45.81,65.59,33.57,108.45c-12.53,43.89-44.08,56.89-65.5,64.85s-76.52,8.64-104.68-25.72Z"/><path class="d" d="M22.15,335.83S-6,308.89-2.34,265.41s21.43-66.14,52.65-83.28,79.78-16.61,108.45,6.12,45.81,65.59,33.57,108.45c-12.53,43.89-44.08,56.89-65.5,64.85s-76.52,8.64-104.68-25.72Zm83.54,33.26,17.06,35.63"/></g><path class="e" d="M205.83,352.29s-28.16-27-24.49-70.43,21.43-66.13,52.65-83.28,79.79-16.6,108.46,6.13S388.26,270.3,376,313.16C363.48,357.05,331.94,370,310.51,378S234,386.65,205.83,352.29Z"/><path class="d" d="M205.83,352.29s-28.16-27-24.49-70.43,21.43-66.13,52.65-83.28,79.79-16.6,108.46,6.13S388.26,270.3,376,313.16C363.48,357.05,331.94,370,310.51,378S234,386.65,205.83,352.29Z"/><g class="b"><path class="f" d="M247.58,334.23s-26.72,4.9-52.82,24.21-42.88,51.52-49.1,83.8l77.68,25.45L234,458.45a123.37,123.37,0,0,1,23.51-32.35c16.16-16.14,34.81-31,34.81-31l-44.75-60.83Z"/><path class="d" d="M247.58,334.23s-26.72,4.9-52.82,24.21-42.88,51.52-49.1,83.8l77.68,25.45L234,458.45a123.37,123.37,0,0,1,23.51-32.35c16.16-16.14,34.81-31,34.81-31l-44.75-60.83Z"/><path class="g" d="M270,396.56l18.69-41.92s20.46,10.64,27.42,37.54a341.83,341.83,0,0,0,22.43,62.55c7.48,15.71,10,16.89,10,16.89l-135.21-8.75L270,396.56Z"/><path class="d" d="M270,396.56l18.69-41.92s20.46,10.64,27.42,37.54a341.83,341.83,0,0,0,22.43,62.55c7.48,15.71,10,16.89,10,16.89l-135.21-8.75L270,396.56Z"/></g><path class="m" d="M252,323.53a48.57,48.57,0,0,1-17.25,23.41c-13.42,9.86-20.45,15.41-20.45,15.41l35.15,3.7-7.56,24.64h46.53V361.11s7.89-.61,11-2.46,8.84,1.85,15.87-4.31,8.31-13.56,8.31-22.18,0-14.65,1.91-19.65-1.27-8.08,1.92-16.09,1.28-10.48.64-16,2.56-9.86-1.92-16.64-4.47-12.94-11.5-15.4-9.66-7.58-17.25-8.63c-8.95-1.23-12.14-2.53-21.73,1.24s-12.77-1.24-23,8-19.81,16.77-17.89,32.72,2.56,21.5,8.31,30.74S252,323.53,252,323.53Z"/><g class="b"><path class="d" d="M252,323.53a48.57,48.57,0,0,1-17.25,23.41c-13.42,9.86-20.45,15.41-20.45,15.41l35.15,3.7-7.56,24.64h46.53V361.11s7.89-.61,11-2.46,8.84,1.85,15.87-4.31,8.31-13.56,8.31-22.18,0-14.65,1.91-19.65-1.27-8.08,1.92-16.09,1.28-10.48.64-16,2.56-9.86-1.92-16.64-4.47-12.94-11.5-15.4-9.66-7.58-17.25-8.63c-8.95-1.23-12.14-2.53-21.73,1.24s-12.77-1.24-23,8-19.81,16.77-17.89,32.72,2.56,21.5,8.31,30.74S252,323.53,252,323.53Zm73.11-51.11-7.55-8s0,7.29-7.54,6.62-17.87.24-22-4.63c-3.8-4.46-11.95-4-14.46.66s-5,10.6-2.52,15.89,1.89,17.88-1.88,21.19-6.92-8.61-6.92-8.61,2.51-8.6-4.41-7.28-10.69,8.61-4.4,18.54S261,322,265.38,320.69s3.78-8.61,3.78-8.61L282.36,330m-2.24-31.17s16-15.06,27.71-2.34m19.06-1.06s-5.81-6.52-13.59-.29c0,0,.62,8.24,1.24,16.65s-.62,11.79-4.35,11.79-6.31-2.77-8.69-2.77m-12.45,14.64S291,333.18,293,331c4.25-4.55,9-4.29,12.19-4,3.82.37,6.33,1.39,8.1,3.61a20,20,0,0,1,2.81,5.63m-16.83-38.65-.85,4.25m-9.92,57s-7.87.65-11.8-3.9-9.84-5.21-7.87-15.62-9.83-6.51-5.24-16.92m29.58,17.14s8.85,19.39,18.43.92m-36.67-8s-2.43,12.1,9.2,12.1m5.26,41,17.06,35.62m3.67-38.89s16,43.6-4,84.78m16.14-45.23s11.21,17,5.6,44.26m-26.68-58.3-23.18,57M293.91,393s-12.28,46.89-23.12,71.25"/><polyline class="n" points="191.93 362.28 230.45 415.09 226.6 466.65 213.76 464.17 213.76 426.89 174.6 380.3"/><path class="d" d="M191.93,362.28l38.52,52.81-3.85,51.56-12.84-2.48V426.89L174.6,380.3M264.39,254s14.49-15.08,22.07,1.76m5.82,14.53s2.28-14.89,19.23-11.91m-75.58,28.15s2.43-13.14,11.39-15c0,0,3.17-11.76,14.56-11.1a19.65,19.65,0,0,1,12,3.26s7.59-13.71,22.78-2.61m-51.19,28.07s0-13.19,11.19-11.21c0,0,1.31-11.22,11.84-11.22M287,257.5s5.35-16.26,22.73-11.62"/></g><path class="e" d="M392.92,343S364.76,316,368.43,272.52s21.43-66.13,52.65-83.28,79.78-16.6,108.45,6.13S575.34,261,563.1,303.82C550.57,347.7,519,360.7,497.6,368.67S421.08,377.31,392.92,343Z"/><g class="b"><path class="d" d="M392.92,343S364.76,316,368.43,272.52s21.43-66.13,52.65-83.28,79.78-16.6,108.45,6.13S575.34,261,563.1,303.82C550.57,347.7,519,360.7,497.6,368.67S421.08,377.31,392.92,343Zm116.4,69.54s11.21,17,5.6,44.26"/><path class="e" d="M580,353.7s-28.16-26.94-24.49-70.42,21.42-66.14,52.64-83.28,79.79-16.6,108.46,6.12,45.81,65.59,33.57,108.46c-12.54,43.88-44.08,56.88-65.51,64.84S608.16,388.06,580,353.7Z"/><path class="d" d="M580,353.7s-28.16-26.94-24.49-70.42,21.42-66.14,52.64-83.28,79.79-16.6,108.46,6.12,45.81,65.59,33.57,108.46c-12.54,43.88-44.08,56.88-65.51,64.84S608.16,388.06,580,353.7Zm-13.91,10,38.53,52.81-3.86,51.56-12.84-2.48V428.31l-39.16-46.59M289,300.29s6.76-6.42,14.74-1.49c0,0-1.26,7.16-9.56,6.68m3.3,24a8,8,0,0,0,6.75,3.13,10.75,10.75,0,0,0,7.58-3.13m9-28.5,1.42-4c-3.71-1.7-7.37,3.12-7.37,3.12a6.73,6.73,0,0,0,8.5,2.84"/><path class="o" d="M488.75,461,513,374.78,433.1,346a180.42,180.42,0,0,0-20.4,17.76c-9.51,9.8-20.9,17.23-34,44.87s-28.52,56.22-28.52,56.22L488.75,461Z"/><path class="d" d="M488.75,461,513,374.78,433.1,346a180.42,180.42,0,0,0-20.4,17.76c-9.51,9.8-20.9,17.23-34,44.87s-28.52,56.22-28.52,56.22L488.75,461Z"/><path class="p" d="M485,458.28s1.09-57.85,24.67-81.88L485.29,323s14.47,0,25.36,5.34,11.89,9.2,11.89,9.2,6.44-.6,14.76,6.82c0,0,27.12,7.66,38.49,14.57.48.28.93.57,1.34.86,10.4,7.12,13.67,9,13.67,9l-3.27,6.76,15.16,14.6-7.13,14.47s.49,33.52-.5,46.58-2.18,18.69-2.18,18.69L485,458.28Z"/><path class="d" d="M485,458.28s1.09-57.85,24.67-81.88L485.29,323s14.47,0,25.36,5.34,11.89,9.2,11.89,9.2,6.44-.6,14.76,6.82c0,0,27.12,7.66,38.49,14.57.48.28.93.57,1.34.86,10.4,7.12,13.67,9,13.67,9l-3.27,6.76,15.16,14.6-7.13,14.47s.49,33.52-.5,46.58-2.18,18.69-2.18,18.69L485,458.28Z"/></g><path class="m" d="M428.17,285.48a72.27,72.27,0,0,0,3-13c.6-5.92-1.19-11.26,3-17.78s14.32-17.19,20.29-19,19.61-3.55,29.86.6a53.17,53.17,0,0,1,22.19,16.59c5.27,6.52,1.09,7.71,2.88,11.86s2.39,8.3,2.39,16.59-4.18,8.9-6,17.19-5.37,10.67-9.55,15.42a47.14,47.14,0,0,1-9,7.77s4.78,7.64,10.75,11.79a59.74,59.74,0,0,1,10.75,10.07s-.6,14.82-.6,30.23c0,0-17.32,18.38-25.08,27.86,0,0-11.44,4.74-17.91-4.15s-10.75-17.78-18.51-19-22.09-5.93-22.09-5.93,7.76-10.67,12.54-14.82c0,0-3-8.17-6.57-12.38s-5.37-9.62-3-16.66-.52-11.31.6-20.16c1.79-14.22,0-23.12,0-23.12Z"/><g class="b"><path class="d" d="M428.17,285.48a72.27,72.27,0,0,0,3-13c.6-5.92-1.19-11.26,3-17.78s14.32-17.19,20.29-19,19.61-3.55,29.86.6a53.17,53.17,0,0,1,22.19,16.59c5.27,6.52,1.09,7.71,2.88,11.86s2.39,8.3,2.39,16.59-4.18,8.9-6,17.19-5.37,10.67-9.55,15.42a47.14,47.14,0,0,1-9,7.77s4.78,7.64,10.75,11.79a59.74,59.74,0,0,1,10.75,10.07s-.6,14.82-.6,30.23c0,0-17.32,18.38-25.08,27.86,0,0-11.44,4.74-17.91-4.15s-10.75-17.78-18.51-19-22.09-5.93-22.09-5.93,7.76-10.67,12.54-14.82c0,0-3-8.17-6.57-12.38s-5.37-9.62-3-16.66-.52-11.31.6-20.16c1.79-14.22,0-23.12,0-23.12Zm48.1,12.19s-8.6-11-15.44-12.24-11.3,6-11.3,6,10-6.19,19.28,5.58m-18-5.62s2.48,8.92,9.94,6.37m-5.6-6.58.73,3.85m-26.16-7.28s3.42-3.26,6.79-1.92c4.23,1.69,5.64,8.07,5.64,8.07s-5-8.07-13.05-1m3.82,3.29s4.55,4.11,9.32-3.11c0,0-1.19,2.43-3.58,7.89s-4.78,12.75-1.79,13.36,4.18.61,7.76-1.21a14.57,14.57,0,0,1,6-1.83m-15.48,14.63a13.23,13.23,0,0,0,3.51-5.07c1.21-3.17,2.41-3.17,5.43-3.17s4.83,2.54,7.24,4.44,6.63,5.7,6.63,5.7M438.62,323s4.28,3.08,8.46.24m1.07-9.65s3-.62,7.76,5,8.36,10,8.36,10,0-2.56,4.78-7.47,11.34-10.59,14.33-16.2m-45.23,9.72s-1.19-.23-3,4.19-7.73,10.69-7.73,10.69M490,294.76s3.09-4.84,8-2.42,3.7,6.66,0,10.9-12.83,12.82-12.83,12.82m-2.69-14.19s-1-2,.09-6.73a18.64,18.64,0,0,1,4.3-8s-5-.91-1.39-6.26,9.64-9,11.45-13.68,0-5.36,1.2-10.11.6-10.12-10.24-14.28-17.49-6-22.9-3.57c-3.49,1.56-4.13,3.57-2.92,6s3.53,3.57,6.54,3.57m-9-10s-5.17,2.56-2.46,7.46,8.61,5.64,8.61,5.64m-12.14-11.13a7.72,7.72,0,0,0,.62,9.26c3.81,4.94,7.53,5,7.53,5m-13.38-11s-1.92,4.08,1.85,8.69a14.86,14.86,0,0,0,7.44,4.86m-14.09-8.58a18.42,18.42,0,0,0,3,7,11.91,11.91,0,0,0,5.41,3.83m-4.18,25.47s5.16-6.36,11.26-5.91a15.87,15.87,0,0,1,9.05,3.4m-25.49,3s-1.25-4.44-9.35-7M450.65,328s5.08-.24,5.08,6.52S462,345.6,462,345.6m-25-16.37s-8.08-1.7-2.41,9.78m5.53-8.51s4-5.35,8.33-.3M483.25,310s2.24,2.33,1.85,7.14c-.53,6.54-3.71,4.29-.62,10.16s4.32,11.23.62,17.17S469.66,357,469.66,362.92m-7-14.21s-1.53,8.54,3,14.47m-16.76-28.69s2.27,8.34,9,12.8m-23-6.24a20,20,0,0,0,12.28,15.15m-8.83-1a17,17,0,0,0,7,10.1c5.7,3.63,4.43,10.69,4.43,10.69m.6-16.34s5.75,3,7.67,15.15m11.27-41.3s-4.47,4.77-1.38,12,8.19,7.84,8.19,7.84m-1.85-30.61a7.58,7.58,0,0,0-4.15,8.17m32.59-61.5s3.8,2.45,1.9,9.19a14.76,14.76,0,0,1-7.6,9.2m3.52-34.34a6.46,6.46,0,0,1,3.52,6.85c-.71,5-3.52,6.24-3.52,6.24m-60.7,68.38s.43,13.6,12.62,17.78M500,275s.32,4.36-7.4,9.27m-30.41,90.33s12.4,21.67,20.94,6.45M508,342.56s13.62,4.68,19.63,18,10.62,37.08,8.42,58.14m-14.36-81.94s19.24,22,20.16,45,0,49.34-3.06,62.06-5.39,19.82-5.39,19.82m3-119.55s16.59,17.29,14.94,43.56-14.32,72.73-14.32,72.73M509.78,377.1s4.9,33.08,13.45,55.87m-6.08-17.63s-7.86,27.19-7.86,44.64m3.06-60.66s-2.23,2.68-6.42,7.91c-1.32,1.65-2.84,3.56-4.54,5.72-7.11,9-11,23.3-11,23.3m8.25,20.55c3.16-14.72,5.67-32.53,8.06-49.38m79.59-32.33A116.54,116.54,0,0,0,580,386.65c-4.91,9.88-12.43,26.75-21.68,53-16.89,48-27.12,55.41-27.12,55.41m64.24-88.18L578.33,389.2m-61.07-27.14s8,8,8.34,26.06,7.31,40.57,6.9,49.46-7.41,27.84-7.41,27.84m-58.85-66.6s11.64,19.73,15,23.65m-71.91-46.6S416.18,380.39,420,397s19.77,67.59,19.77,67.59m-15.51-79.29,24.06,76M413.8,406.19s-.48-1.41,0,4.08c1.44,17.79,4.42,56.19,3.88,61.83"/><path class="n" d="M392.92,384.47l21.13,21.22,2.42,39.14a72.54,72.54,0,0,0-20.83-21.21c-13.58-8.9-19-12-19-12s5.44-11.42,9.06-17.33a70.73,70.73,0,0,1,7.24-9.86Z"/><path class="d" d="M392.92,384.47l21.13,21.22,2.42,39.14a72.54,72.54,0,0,0-20.83-21.21c-13.58-8.9-19-12-19-12s5.44-11.42,9.06-17.33a70.73,70.73,0,0,1,7.24-9.86Z"/><path class="p" d="M-59.93,427.83s14-52.48,25.63-68.81,24.38-25.6,45.45-31.43a399.41,399.41,0,0,0,43.12-15.23l31.47,65.32-41.95,56-103.72-5.83Z"/><path class="d" d="M-59.93,427.83s14-52.48,25.63-68.81,24.38-25.6,45.45-31.43a399.41,399.41,0,0,0,43.12-15.23l31.47,65.32-41.95,56-103.72-5.83Z"/><path class="f" d="M143.62,437.11s2.33-22.1-7-39.72-37.39-40.95-37.39-40.95S48,410.2,31.56,440.62l112.06-3.51Z"/><path class="d" d="M143.62,437.11s2.33-22.1-7-39.72-37.39-40.95-37.39-40.95S48,410.2,31.56,440.62l112.06-3.51Z"/></g><path class="m" d="M17.31,341.53s15.79-10.49,29.82-21,18.13-16.9,18.13-16.9-7.61-12.82-7.61-27.39,4-29.14,21.05-40.8,37.42-9.32,45-5.83S142.43,245.37,143,250s3.51,12.82,1.75,23.89-4.09,15.16-5.26,20.4-4.68,4.66-6.43,8.74-1.76,8.75-4.68,11.66-3.51,7.58-5.26,14.57-2.92,9.26-7.6,12.82-5.26,8.74-9.36,14-21.63,14.57-21.63,14.57l-4.68,4.66s-2.73-4.14-13.35-5.24-15.3-1.1-15.3-1.1,1.37-9.46-8.09-16.39-25.82-11.07-25.82-11.07Z"/><g class="q"><path class="d" d="M17.31,341.53s15.79-10.49,29.82-21,18.13-16.9,18.13-16.9-7.61-12.82-7.61-27.39,4-29.14,21.05-40.8,37.42-9.32,45-5.83S142.43,245.37,143,250s3.51,12.82,1.75,23.89-4.09,15.16-5.26,20.4-4.68,4.66-6.43,8.74-1.76,8.75-4.68,11.66-3.51,7.58-5.26,14.57-2.92,9.26-7.6,12.82-5.26,8.74-9.36,14-21.63,14.57-21.63,14.57l-4.68,4.66s-2.73-4.14-13.35-5.24-15.3-1.1-15.3-1.1,1.37-9.46-8.09-16.39-25.82-11.07-25.82-11.07Zm125.31-89a12.39,12.39,0,0,1-14.37-4.83c-5.83-8.17-13.3-12.84-21.56-13.42s-16.31,3.5-20.39,9.34c-5.71,8.17-6.51,14.59-3.5,22.76s0,4.08,0,11.09.16,0,.16,0a10.39,10.39,0,0,0-9.06-5.21c-6.41,0-11,6.57-9.86,15.05M77.48,283s3.75-5.33-1.87-5.33-6.86,5.33-6.24,10.66S75.61,302,75.61,302m7.19-14.73s-2.62,5.77.65,13.35S88,309.34,88,309.34l-1.31,7m8.82-31.54s5.84-5.47,14.85-1.82,8.32,7.29,8.32,7.29m18,4.92a8.13,8.13,0,0,0-7.79-3.58c-5.33.59-5.33,1.79-5.92,3.58s-.59,8.35-.59,13.12-.59,7.15-4.14,7.15-5.32-3-8.28-4.17-3.21-4.85-3.21-4.85m8.44-12.68s1.8-8.12-10.85-5m.34,3.66a7.82,7.82,0,0,0,7,5.22m13.5-1.35s6.79-2.54,7.41,3.8m-8.11,1.06s1.4,4.42,5.8,3.07m-49.85,7.9s-3,8.92-7.11,13.08-7.12,4.17-7.12,4.17M82,324.07s-7.83,3-12,18.37m15.69-10.1S79,344.19,74.08,349.53m17.37-13.09s-6,15.3-13.88,22.95M96.08,348s-4.22,8.87-13.88,18.92m10.35-35.11s5,14,15.09,7.31m-5.76,10.05a51.8,51.8,0,0,1-16.16,19.59M122.17,332s1.77-8.86-.59-13-8.16-4.14-8.16-4.14-6-7.15-14.26-2.95a28.48,28.48,0,0,0-11.8,11.22m22,21.72s1.76-3,4.7-9.45,4.86-9,2.51-11.92a56.08,56.08,0,0,0-4.38-4.91,46.91,46.91,0,0,0-6.26-1.36c-3.52-.53-6.55-.1-10.66,4.62a20.3,20.3,0,0,1-10,6m19.43-8.66s1.55,5.62,7.32,5M113.55,290,110,293.93m21.34,3.78-2.78,3.2M105,275.39a22.69,22.69,0,0,1,15.77,6.1c5.63,5.13,13.43,3.73,15.18,3.67,2.81-.09,3.5,1.83,3.5,1.83m-35.16-16.37a18.94,18.94,0,0,1,14.82,2.55c7.53,4.81,12.22,6,16.33,6s4.69,2.47,4.69,2.47"/><path class="n" d="M15.1,431.35s2.24-19.91-9.49-36.9S-25.47,347.6-25.47,347.6s-8.79,9.37-12.9,17.57-8.8,21.08-8.8,21.08,27,17,32.26,24.6,8.8,19.33,8.8,19.33l21.21,1.17Z"/><path class="d" d="M15.1,431.35s2.24-19.91-9.49-36.9S-25.47,347.6-25.47,347.6s-8.79,9.37-12.9,17.57-8.8,21.08-8.8,21.08,27,17,32.26,24.6,8.8,19.33,8.8,19.33l21.21,1.17ZM7.38,340s14.5,53.35,14,89.89m-3-76s12.32,39.45,11.09,76.59m78.1-65.16S72,396.74,44.5,439.29m41.76-49.44s-.61,22.08-12.82,48.81m33.68-66.8s4.76,32.48.68,64.38m7.34-47.6s4.72,18,.81,47.6m-35-196.18s-6.25,1.35-5.9,7.74c.27,4.91,5.43,6.54,5.43,6.54m-16.76,7.58s8.53-6.84,15.12,1.28M62.39,273a12.14,12.14,0,0,1,9.82-6.51c6.15-.47,7.63,3.8,7.63,3.8m58.95-22s-5.18,1.63-13.64-12.26M72.36,305.81s-5.8.82-5.8,14.53"/><path class="k" d="M546.58,468.09a240.06,240.06,0,0,0,6-45.75c.51-23.32-4.4-36.59,14.32-49.8S610.53,341,610.53,341l65.06,25.92,20.84,101.15Z"/><path class="d" d="M546.58,468.09a240.06,240.06,0,0,0,6-45.75c.51-23.32-4.4-36.59,14.32-49.8S610.53,341,610.53,341l65.06,25.92,20.84,101.15Z"/><path class="r" d="M690.8,474.21,672,368.28l4.58-23.49,7.65-11.21s2.55,8.15,13.76,11.72,22.93,5.72,32.61,23,29.13,57,29.13,57l-.59,7.64,11.72,25-80,16.3Z"/><path class="d" d="M690.8,474.21,672,368.28l4.58-23.49,7.65-11.21s2.55,8.15,13.76,11.72,22.93,5.72,32.61,23,29.13,57,29.13,57l-.59,7.64,11.72,25-80,16.3Z"/><path class="n" d="M583.38,459.5s2-10.7-7.68-29.05a186.6,186.6,0,0,0-23.05-33.12s-.51-13.25,7.17-19.37,10.24-7.13,10.24-7.13,17.42,19.82,25.1,44.34a286.09,286.09,0,0,1,10.24,45.35l-22-1Z"/><path class="d" d="M583.38,459.5s2-10.7-7.68-29.05a186.6,186.6,0,0,0-23.05-33.12s-.51-13.25,7.17-19.37,10.24-7.13,10.24-7.13,17.42,19.82,25.1,44.34a286.09,286.09,0,0,1,10.24,45.35l-22-1Zm-12.57-88.6s36.34,36.15,57.77,79.31M598.2,412s16.57,25.91,24.34,52.83m-24.33-93.3s37.78,50.27,55.13,80.73m-48-81.76S647,416.77,668,464.92m-3-87.14-1.65,77.86m7.08-62.19,1.14,71.34M689.74,348.3s-5.78,8.13-4.63,33m6.57,14.61,10.59-36.44s-2.65,60.23,3.18,103.25m2.4-96.66S712,383.8,719.34,418.2s8.36,51.61,8.36,51.61m-18.84-55.7s10.85,46.56,9.22,75.41"/></g><path class="m" d="M591.89,369.14a102.69,102.69,0,0,1,13.53-16.33c7.75-7.37,11.15-10.81,14.56-18.24s10.47-21.66,10.47-21.66-8.17-8.27-10.47-19-7.15-24.85,6.13-39.64a45.73,45.73,0,0,1,40.86-15c10.72,1.52,14.64,8.13,14.64,8.13a18.08,18.08,0,0,1,12.68,11c4.09,9.6,5.11,18.25,3.06,26.63s-2.29,12.2-4.85,14.74a20.72,20.72,0,0,1-3.06,2.8,21.75,21.75,0,0,1,0,9.91c-1.28,5.34-5.62,13-5.62,13a19.29,19.29,0,0,1,1.09,8.77c-.51,6.86-.68,10.41-3,12.75s-3,.79-3.39,6.13-1.36,7.88-3.91,10.16a28.52,28.52,0,0,1-5.88,3.87s-3.83,1.73-5.1-1.33c0,0-1.84,2.24-5.67,1.44-4.92-1-4.8-.67-4.8-.67l-12,10.42-13-12.91s-19.41-.56-36.26,5.09Z"/><path class="d" d="M591.89,369.14a102.69,102.69,0,0,1,13.53-16.33c7.75-7.37,11.15-10.81,14.56-18.24s10.47-21.66,10.47-21.66-8.17-8.27-10.47-19-7.15-24.85,6.13-39.64a45.73,45.73,0,0,1,40.86-15c10.72,1.52,14.64,8.13,14.64,8.13a18.08,18.08,0,0,1,12.68,11c4.09,9.6,5.11,18.25,3.06,26.63s-2.29,12.2-4.85,14.74a20.72,20.72,0,0,1-3.06,2.8,21.75,21.75,0,0,1,0,9.91c-1.28,5.34-5.62,13-5.62,13a19.29,19.29,0,0,1,1.09,8.77c-.51,6.86-.68,10.41-3,12.75s-3,.79-3.39,6.13-1.36,7.88-3.91,10.16a28.52,28.52,0,0,1-5.88,3.87s-3.83,1.73-5.1-1.33c0,0-1.84,2.24-5.67,1.44-4.92-1-4.8-.67-4.8-.67l-12,10.42-13-12.91s-19.41-.56-36.26,5.09ZM641,376.71l3.85,5.1m-6.6-89.66s-2.49-.78-3.29-2.6-4-2.6-6.13,0-2,10.85.8,14.05,5.11,6.65,7,5.93,1.41-5.67,1.41-5.67m55.89-38.66s2.91,7.54-6.11,13m-.53-15.5s2.09,9.52-6.29,14.49m-.54-15.53s3.19,10.36-9,16.06m6-10.59A24.17,24.17,0,0,1,666.11,275m5.72-14.08s-1.67,7.41-11.74,12m5.63-9.37s-3.61,6-15,7.07m31.31-23s2.53,8.37-7.4,12.56M688,250.57s2.65,7.24-5.53,11m-27.53-8s-9.18,5.12-14.21-2.58m21.7,6.27s-6.81,7.12-15.1,2.41m6.22,5.79a19.06,19.06,0,0,1-11.94,7.27M647,261.06s-7.33,10-16.21,6.27m7.89-10s-6.06,11.35-16,5.95m14.69-10.83s-5.94,6-13.18,7.63m5.68,8.17s-3.4,9.42-11.77,12M633.66,271s-2.62,10.74-12.32,15.09m22.83-9.32s3.59,9.26-3.33,14.14a118.81,118.81,0,0,1,.85,18.25s5.73,5.92,7.18,9.51S650,329.23,650,329.23s4.39-3.58,8.49-7.43,11.14-3.44,14.9-2.35m18.84-21.54a9.05,9.05,0,0,0-4.58-2.59c-3.08-.41-5.26,0-7.08,2.59s.26,6.48.26,12.45.61,10-1.46,10.17a9.74,9.74,0,0,1-7.25-2.91c-1.9-2.07-5.25-2.19-5.25-4.27M678,320.72s4.9,1.86,6,5.65m-8.11,16.34s4-11.84,1.69-13.89a19.34,19.34,0,0,1-4.54-6.94,16.87,16.87,0,0,1-8.56,2.93c-4.93.2-10.12,7.29-10.12,7.29M666,325.57s1.18,5.09,7.84,3.37m-3.67,2.36a93.53,93.53,0,0,0,2.66,12.23M668,331.12a27.47,27.47,0,0,1-7.23,5.74m9.85,7.25s4,7.13-6.59,21.22m1.49-24.76s.85,8.82-11.57,21.31m4.34-23.44A69,69,0,0,1,646.83,359m6-25.2a65.32,65.32,0,0,0-11.39,16.78m-8.22-37.82a26.63,26.63,0,0,0-2.68,10.83c0,5.67,1.11,8.16,1.11,8.16a10,10,0,0,0,2.47,6.69c2.64,2.75,1,5.16,3.07,8.17s3.33,2.86,4.86,6.12a17.22,17.22,0,0,0,3.58,5.1s-.51,1.73,4.61,3.52,8.35,5.36,13.13,4.34M652.17,293a27.85,27.85,0,0,1,13.11-2.46c7.29.5,10.37,5.25,10.37,5.25M687,282.66a30.71,30.71,0,0,1-9.06,10.21m3.82,8.19s4.17-3.3,7.18.63m-8.25,2.45s4.51,4.6,7.47,1.09m-20-2.73c-7.23,2.4-9.1-6.8-9.1-6.8s10.88-3.08,12.31,1.86m-2.08-1.62-1.91,3.81m19.6.73-1.6,3.24m-38.47,21.44s-8.44,2.24-12.55,13.28m15.59-9.21s-9.21,5.24-13.61,14.31m3.93-29.64s-5.49,5-9.31,15.61m-196-38.41,1,3.26M282.53,349.78a6.61,6.61,0,0,0,6.24,4.53c5.1.29,6.23-3.4,6.23-3.4m-1.13-102.75s10.25-2.1,15.05,5.54m-59-2.28s14.22-6.22,17.88,9.37"/><path class="s" d="M643.66,167s8.51-8.51,15.88-7.94"/><path class="d" d="M643.66,167s8.51-8.51,15.88-7.94"/><path class="t" d="M107.92,71.13a39.94,39.94,0,0,1-5.67,19.58c-5.93,9.9-9.07,13.31-8.51,21.81s-3.4,13.87-4.53,21.54,2.88,13.61,9.94,13.61,11-7.34,10.47-20.11-3.4-17.88-3.4-29.21,1.7-27.22,1.7-27.22Z"/><path class="u" d="M107.92,71.13a39.94,39.94,0,0,1-5.67,19.58c-5.93,9.9-9.07,13.31-8.51,21.81s-3.4,13.87-4.53,21.54,2.88,13.61,9.94,13.61,11-7.34,10.47-20.11-3.4-17.88-3.4-29.21,1.7-27.22,1.7-27.22Z"/><path class="t" d="M330.72,8.77s-.09,7.24-6.24,17c-3.4,5.4-7.06,11.91-6.5,16.6,1,8.46-3.41,13.87-4.54,21.54s2.88,13.61,9.95,13.61,11-7.34,10.46-20.11-3.4-17.87-3.4-29.21.27-19.44.27-19.44Z"/><path class="u" d="M330.72,8.77s-.09,7.24-6.24,17c-3.4,5.4-7.06,11.91-6.5,16.6,1,8.46-3.41,13.87-4.54,21.54s2.88,13.61,9.95,13.61,11-7.34,10.46-20.11-3.4-17.87-3.4-29.21.27-19.44.27-19.44Z"/><path class="t" d="M101.25,141.29s-7.2-1.86-3.54-13.46a61.4,61.4,0,0,0,3-20.82"/><path class="u" d="M101.25,141.29s-7.2-1.86-3.54-13.46a61.4,61.4,0,0,0,3-20.82"/><path class="t" d="M42.73,102.09C52.35,100.87,58.08,89.62,56.64,76s-4.28-32.88,2.53-45.35c0,0-11.34,7.1-15.31,24.11s-4,24.08-5.1,32-2.84,16.17,4,15.3Z"/><path class="v" d="M42.73,102.09C52.35,100.87,58.08,89.62,56.64,76s-4.28-32.88,2.53-45.35c0,0-11.34,7.1-15.31,24.11s-4,24.08-5.1,32-2.84,16.17,4,15.3Z"/><path class="t" d="M669.77,85.09c9.63-1.23,15.36-12.48,13.92-26.08s-10-26.7-3.18-39.17c0,0-5.64.91-9.6,17.92s2.23,22.6-5.11,32c-4.93,6.32-2.83,16.17,4,15.31Z"/><path class="v" d="M669.77,85.09c9.63-1.23,15.36-12.48,13.92-26.08s-10-26.7-3.18-39.17c0,0-5.64.91-9.6,17.92s2.23,22.6-5.11,32c-4.93,6.32-2.83,16.17,4,15.31Z"/><path class="t" d="M444.11,93.54s19,10.51,22.67,22.68,4,23.51,7.37,29.18,4,17-4.53,19.84-10.73-5.63-10.47-17.84,1.66-21.27-2-32.05-6.49-13.3-13-21.81Z"/><path class="u" d="M444.11,93.54s19,10.51,22.67,22.68,4,23.51,7.37,29.18,4,17-4.53,19.84-10.73-5.63-10.47-17.84,1.66-21.27-2-32.05-6.49-13.3-13-21.81Z"/><path class="t" d="M375.3,34.74s19,10.51,22.68,22.68,4,23.51,7.37,29.18,4,17-4.54,19.84-10.72-5.63-10.46-17.84,1.65-21.27-2-32-6.5-13.31-13-21.82Z"/><path class="u" d="M375.3,34.74s19,10.51,22.68,22.68,4,23.51,7.37,29.18,4,17-4.54,19.84-10.72-5.63-10.46-17.84,1.65-21.27-2-32-6.5-13.31-13-21.82Z"/><path class="t" d="M188.88,114.65c1.13,7.93,15.87,4.53,20.41-2.27s3.45-14.71,1.44-27.48-9.68-21.81-4.84-34c0,0-7.94,13.31-7.94,24.65s2.84,12.47,0,21-10.77,6.24-9.07,18.15Z"/><path class="u" d="M188.88,114.65c1.13,7.93,15.87,4.53,20.41-2.27s3.45-14.71,1.44-27.48-9.68-21.81-4.84-34c0,0-7.94,13.31-7.94,24.65s2.84,12.47,0,21-10.77,6.24-9.07,18.15Z"/><path class="t" d="M279.47,174.5c1.14,7.94,15.88,4.53,20.41-2.27s3.45-14.71,1.44-27.48-9.68-21.81-4.84-34c0,0-7.94,13.3-7.94,24.64s2.84,12.47,0,21-10.77,6.23-9.07,18.14Z"/><path class="u" d="M279.47,174.5c1.14,7.94,15.88,4.53,20.41-2.27s3.45-14.71,1.44-27.48-9.68-21.81-4.84-34c0,0-7.94,13.3-7.94,24.64s2.84,12.47,0,21-10.77,6.23-9.07,18.14Z"/><path class="t" d="M639.13,172.05c1.89,6.8,13.38,2.14,17.92-4.66s3.44-14.71,1.44-27.48-4.62-21.72-16.53-25.69c0,0,4.76,4.09,6.24,15.31s.22,20-2.84,24.94c-4.69,7.64-9.07,7.37-6.23,17.58Z"/><path class="u" d="M639.13,172.05c1.89,6.8,13.38,2.14,17.92-4.66s3.44-14.71,1.44-27.48-4.62-21.72-16.53-25.69c0,0,4.76,4.09,6.24,15.31s.22,20-2.84,24.94c-4.69,7.64-9.07,7.37-6.23,17.58Z"/><path class="t" d="M145.9,77.37c-3.66,7-12,3.87-16.56-2.93S125.89,59.73,127.9,47s5.53-26.85,4.84-34c0,0,7.94,13.31,7.94,24.65s-2.84,12.47,0,21,8.62,12.31,5.22,18.81Z"/><path class="u" d="M145.9,77.37c-3.66,7-12,3.87-16.56-2.93S125.89,59.73,127.9,47s5.53-26.85,4.84-34c0,0,7.94,13.31,7.94,24.65s-2.84,12.47,0,21,8.62,12.31,5.22,18.81Z"/><path class="t" d="M491.73,76.8c2.86,7.49,11.37,4.44,15.91-2.36S513,58.09,509.08,47c-4.31-12.19-6.58-21.18-7.41-32.52,0,0-5.37,11.81-5.37,23.15s2.83,12.47,0,21-6.84,12.31-4.57,18.24Z"/><path class="u" d="M491.73,76.8c2.86,7.49,11.37,4.44,15.91-2.36S513,58.09,509.08,47c-4.31-12.19-6.58-21.18-7.41-32.52,0,0-5.37,11.81-5.37,23.15s2.83,12.47,0,21-6.84,12.31-4.57,18.24Z"/><path class="t" d="M559.51,116.39c1.13,7.94,15.88,4.54,20.41-2.27s4.78-16.91,1.44-27.48c-3.9-12.32-9.68-21.81-4.84-34,0,0-7.94,13.3-7.94,24.64s2.84,12.48,0,21-10.77,6.23-9.07,18.14Z"/><path class="u" d="M559.51,116.39c1.13,7.94,15.88,4.54,20.41-2.27s4.78-16.91,1.44-27.48c-3.9-12.32-9.68-21.81-4.84-34,0,0-7.94,13.3-7.94,24.64s2.84,12.48,0,21-10.77,6.23-9.07,18.14Z"/><path class="t" d="M466.78,160.14s5.67-13-7.37-17.57"/><path class="u" d="M466.78,160.14s5.67-13-7.37-17.57"/><path class="t" d="M464.82,136.33s-3.14-13.61,2-19.28"/><path class="u" d="M464.82,136.33s-3.14-13.61,2-19.28"/><path class="t" d="M566,113.39s9.64-2.57,10.21-13.91S570,88.14,570,88.14"/><path class="u" d="M566,113.39s9.64-2.57,10.21-13.91S570,88.14,570,88.14"/><path class="t" d="M498,80.21s-4-8.24,1.7-11.34,7.37-6.51,5.11-10.78"/><path class="u" d="M498,80.21s-4-8.24,1.7-11.34,7.37-6.51,5.11-10.78"/><path class="t" d="M500.8,45.62s-3.4-10.2,4.53-13.6"/><path class="u" d="M500.8,45.62s-3.4-10.2,4.53-13.6"/><path class="t" d="M669.74,77.94s7.37-2.84,8.51-12.48-5.36-7.93-4.54-17,6.55-5.67,6.55-5.67"/><path class="u" d="M669.74,77.94s7.37-2.84,8.51-12.48-5.36-7.93-4.54-17,6.55-5.67,6.55-5.67"/><path class="t" d="M643.66,167s8.51-8.51,15.88-7.94"/><path class="u" d="M643.66,167s8.51-8.51,15.88-7.94"/><path class="t" d="M655,152.2s-5.67-13.6,1.7-19.84"/><path class="u" d="M655,152.2s-5.67-13.6,1.7-19.84"/><path class="t" d="M402.15,97.21s-6.23-7.37-6.23-21.54,2.83-15.31,2.83-15.31"/><path class="u" d="M402.15,97.21s-6.23-7.37-6.23-21.54,2.83-15.31,2.83-15.31"/><path class="t" d="M325.62,68.87s3.4-14.18-10.21-14.18"/><path class="u" d="M325.62,68.87s3.4-14.18-10.21-14.18"/><path class="t" d="M327.32,47.32S329,36,318.25,35.42"/><path class="u" d="M327.32,47.32S329,36,318.25,35.42"/><path class="t" d="M285.36,172.05s10.21-3.4,10.78-13,5.1-15.31,5.1-15.31"/><path class="u" d="M285.36,172.05s10.21-3.4,10.78-13,5.1-15.31,5.1-15.31"/><path class="t" d="M50.66,85.31s-9.22-14.18-6.95-29.48"/><path class="u" d="M50.66,85.31s-9.22-14.18-6.95-29.48"/><path class="t" d="M37.62,92.11a26.34,26.34,0,0,0,19-17"/><path class="u" d="M37.62,92.11a26.34,26.34,0,0,0,19-17"/><path class="t" d="M140.23,75.67s-6.8-2.8-6.8-19,6.8-26.94,6.8-26.94"/><path class="u" d="M140.23,75.67s-6.8-2.8-6.8-19,6.8-26.94,6.8-26.94"/><path class="t" d="M195.53,112.52s11-6.24,3.09-17.57"/><path class="u" d="M195.53,112.52s11-6.24,3.09-17.57"/><path class="t" d="M206.87,97.21s-6-14.74,1.39-21.54"/><path class="u" d="M206.87,97.21s-6-14.74,1.39-21.54"/></svg>
