
<svg xmlns="http://www.w3.org/2000/svg" xmlns:xlink="http://www.w3.org/1999/xlink" viewBox="0 0 750 428"><defs><style>.a,.aa,.ab,.ad,.ae,.d,.f,.l,.m,.n,.r,.t,.u,.w,.y,.z{fill:none;}.b{clip-path:url(#a);}.c{fill:#5f7c8b;}.d,.f{stroke:#79500f;}.ab,.d,.l,.n,.r,.t,.u,.y{stroke-width:4px;}.e{fill:#c07d00;}.f{stroke-width:18px;}.g{fill:#d19f41;}.h{fill:#ba8a2f;}.i{fill:#c19c4d;}.j{fill:#007e9e;}.k{fill:#ddc386;}.l,.m{stroke:#6c7847;}.aa,.ad,.m,.w,.z{stroke-width:6px;}.n{stroke:#747d5a;}.o{fill:#b38c3a;}.p{fill:#3a6a8e;}.q{fill:#3c3e24;}.r{stroke:#707366;}.s{fill:#d9a950;}.t,.w{stroke:#5f4d1e;}.ae,.u{stroke:#99742a;}.v{clip-path:url(#g);}.x{fill:#e4c18c;}.ab,.y,.z{stroke:#3c3e24;}.y{stroke-linejoin:bevel;}.aa{stroke:#deba6e;}.ac{fill:#4d4a22;}.ad{stroke:#313425;}.ae{stroke-width:4px;}</style><clipPath id="a"><rect class="a" x="0.06" width="749.88" height="428"/></clipPath><clipPath id="g"><rect class="a" width="750" height="428"/></clipPath></defs><g class="b"><polygon class="c" points="-5.24 -6.02 -5.24 431.19 757.95 431.19 757.95 -6.02 -5.24 -6.02 -5.24 -6.02"/><polygon class="d" points="-5.24 -6.02 -5.24 431.19 757.95 431.19 757.95 -6.02 -5.24 -6.02 -5.24 -6.02"/><path class="e" d="M679.42,287.83s69.06-53.88,73.2-154.72-80.11-211.33-193.38-203S418.35-38.16,368.63,13L679.42,287.83Z"/><path class="f" d="M679.42,287.83s69.06-53.88,73.2-154.72-80.11-211.33-193.38-203S418.35-38.16,368.63,13L679.42,287.83Z"/><path class="e" d="M176.82,430l198.42-30.24L508.47,58.23S431.82-22.55,317.6-21.14,114.45,26.66,72.88,146.56C23.44,289.13,130.52,409.72,176.82,430Z"/><path class="f" d="M176.82,430l198.42-30.24L508.47,58.23S431.82-22.55,317.6-21.14,114.45,26.66,72.88,146.56C23.44,289.13,130.52,409.72,176.82,430Z"/></g><path class="g" d="M319.61,360.1l-40.56-38.25-36-25.51L232,253.82l-31.18-30.35s.26-34.32,19.84-48.76,24.94-32.31,82.2-49.32,60.67-19.29,77.11-17,36.85,12.48,36.85,12.48L435,183l5.67,129.53-121,47.62Z"/><path class="d" d="M319.61,360.1l-40.56-38.25-36-25.51L232,253.82l-31.18-30.35s.26-34.32,19.84-48.76,24.94-32.31,82.2-49.32,60.67-19.29,77.11-17,36.85,12.48,36.85,12.48L435,183l5.67,129.53-121,47.62Z"/><g class="b"><path class="h" d="M265.75,377.11s-116.33,62-140,87.24H603.08L453.67,368.6l-187.92,8.51Z"/><path class="d" d="M265.75,377.11s-116.33,62-140,87.24H603.08L453.67,368.6l-187.92,8.51Zm121.89-163s12.17,5.67,21.81,4.25a24.23,24.23,0,0,0,14.74-7.95m-58.4,52.16s-9.33,11.9.59,21"/></g><path class="i" d="M248.75,348.76s-12.81,10.24-21.29-1.4-2.27-15-2.27-15-11.64,5.1-18.14-1.13A20.4,20.4,0,0,1,200.82,317s-19.28,10.51-33.45-6.5-5.67-26.93-5.67-26.93-18.1-9.09-20.67-27.8,6.5-31.18,6.5-31.18-14.74-8.5-10.78-32.31,17.58-26.08,17.58-26.08-3.38-14.44,6.54-32.87S185,112.92,185,112.92s5.12-22.11,29.76-38,40.56-22.67,65.2-27.21,44.53-.83,52.44,7.67c0,0,18.94-5.67,32.86,1.42S383.39,72.4,383.39,72.4s18.12-7.07,24.92,8.5l3.43,43.36s-12.5-.57-19.3-8.51c0,0-12.47,11.91-32.32,5.11,0,0-9.94,23.27-40.82,15.32,0,0-9.61,26.61-40.79,17.56,0,0-9.09,28.34-40.28,15.87,0,0-4.53,23.81-30,25.51,0,0,1.7,12.48-4,29.48,0,0,30.61,17.56,34,34s14.44,44.79,26.65,48.19,32.58,7.94,46.49,12.47,25.25,8.24,15.31,34a82.31,82.31,0,0,0,11.9-25.52c3.71-14.44,6.8-20.94,17-27.19s13.61-14.76,35.15-22.13,40.25-6.8,43.08,4,20.42,76.27,20.42,76.27l4.53,19"/><path class="d" d="M248.75,348.76s-12.81,10.24-21.29-1.4-2.27-15-2.27-15-11.64,5.1-18.14-1.13A20.4,20.4,0,0,1,200.82,317s-19.28,10.51-33.45-6.5-5.67-26.93-5.67-26.93-18.1-9.09-20.67-27.8,6.5-31.18,6.5-31.18-14.74-8.5-10.78-32.31,17.58-26.08,17.58-26.08-3.38-14.44,6.54-32.87S185,112.92,185,112.92s5.12-22.11,29.76-38,40.56-22.67,65.2-27.21,44.53-.83,52.44,7.67c0,0,18.94-5.67,32.86,1.42S383.39,72.4,383.39,72.4s18.12-7.07,24.92,8.5l3.43,43.36s-12.5-.57-19.3-8.51c0,0-12.47,11.91-32.32,5.11,0,0-9.94,23.27-40.82,15.32,0,0-9.61,26.61-40.79,17.56,0,0-9.09,28.34-40.28,15.87,0,0-4.53,23.81-30,25.51,0,0,1.7,12.48-4,29.48,0,0,30.61,17.56,34,34s14.44,44.79,26.65,48.19,32.58,7.94,46.49,12.47,25.25,8.24,15.31,34a82.31,82.31,0,0,0,11.9-25.52c3.71-14.44,6.8-20.94,17-27.19s13.61-14.76,35.15-22.13,40.25-6.8,43.08,4,20.42,76.27,20.42,76.27l4.53,19"/><path class="g" d="M257.66,320.93c-5.6-1.86-11.4-4.44-16-10.15-9.64-11.91-11.34-32.87-12.48-45.63s-14.13-18-22.11-18.42c-14.52-.84-24.24,7.89-21.82,24.36,2.62,17.89,7.65,25.73,19,34.58a56.12,56.12,0,0,0,19.27,9.64s6.29,11.34,15.33,11.34,12.45-6.22,12.45-6.22"/><path class="d" d="M257.66,320.93c-5.6-1.86-11.4-4.44-16-10.15-9.64-11.91-11.34-32.87-12.48-45.63s-14.13-18-22.11-18.42c-14.52-.84-24.24,7.89-21.82,24.36,2.62,17.89,7.65,25.73,19,34.58a56.12,56.12,0,0,0,19.27,9.64s6.29,11.34,15.33,11.34,12.45-6.22,12.45-6.22m21.55,24.36s7.93-10.74.56-17.27c-3.83-3.4-9.65-4.57-15.72-6.59"/><path class="h" d="M213.86,292.08s.56-13.05,8.5-16.45l.87,5.67s-4.27,6.83-2,12.2,9.09,8.51,9.09,8.51-2.6,8.77-11.93,3.66-18.14-8.5-22.68-23.24-5.69-26.09,7.37-26.65,16.45,9.64,16.45,9.64-17,5.11-11.34,25.51"/><path class="d" d="M213.86,292.08s.56-13.05,8.5-16.45l.87,5.67s-4.27,6.83-2,12.2,9.09,8.51,9.09,8.51-2.6,8.77-11.93,3.66-18.14-8.5-22.68-23.24-5.69-26.09,7.37-26.65,16.45,9.64,16.45,9.64-17,5.11-11.34,25.51"/><g class="b"><path class="j" d="M264.88,387.05s-15.31,14.44-40.82,40.51-56.69,36.79-56.69,36.79H125.42S198.24,406,257.51,380.51l7.37,6.54Z"/><path class="d" d="M264.88,387.05s-15.31,14.44-40.82,40.51-56.69,36.79-56.69,36.79H125.42S198.24,406,257.51,380.51l7.37,6.54Z"/></g><path class="k" d="M264.66,306.8c12.21,3.4,32.58,7.94,46.49,12.47s24.64,7.85,14.69,33.63l.62.39a82.33,82.33,0,0,0,11.9-25.51c3.71-14.44,6.81-20.95,17-27.2,9-5.5,12.69-12.75,28.14-19.43,2.1-.91,24.15-7,24.15-7,13.63-2,23.91.49,25.95,8.24,2.83,10.78,24.94,95.25,24.94,95.25a38.33,38.33,0,0,1-9.64,18.14c-7.93,8.24-19.27,6.82-19.27,6.82s-3.84,6.82-13.87,11.89c-8.73,4.42-24.07,6.8-35.43.56,0,0-10.15,6.41-27.8,5.11-12.49-.92-15.88-3.4-36.86-4s-40.2-12.44-54.4-32-12.75-35.45-12.75-35.45c-.78-10.32,3.47-18.82,8-21.09,7.11-3.57,15.85-4,19.84,6.52s-.85,10.24,6.71,14.47,19.13-3.29,17.12-14.17-5.67-20.33-22.67-24.11"/><g class="b"><path class="l" d="M264.66,306.8c12.21,3.4,32.58,7.94,46.49,12.47s24.64,7.85,14.69,33.63l.62.39a82.33,82.33,0,0,0,11.9-25.51c3.71-14.44,6.81-20.95,17-27.2,9-5.5,12.69-12.75,28.14-19.43,2.1-.91,24.15-7,24.15-7,13.63-2,23.91.49,25.95,8.24,2.83,10.78,24.94,95.25,24.94,95.25a38.33,38.33,0,0,1-9.64,18.14c-7.93,8.24-19.27,6.82-19.27,6.82s-3.84,6.82-13.87,11.89c-8.73,4.42-24.07,6.8-35.43.56,0,0-10.15,6.41-27.8,5.11-12.49-.92-15.88-3.4-36.86-4s-40.2-12.44-54.4-32-12.75-35.45-12.75-35.45c-.78-10.32,3.47-18.82,8-21.09,7.11-3.57,15.85-4,19.84,6.52s-.85,10.24,6.71,14.47,19.13-3.29,17.12-14.17-5.67-20.33-22.67-24.11"/></g><path class="m" d="M352.19,342.53a90,90,0,0,0,13-24.95A18.54,18.54,0,0,0,382,312.64c8.12-7.9,11.37-4.47,16.77-6.23,6.48-2.11,9-8.11,18.07-7a14.33,14.33,0,0,0,13.6-6.24l5.41,11.64"/><path class="g" d="M380.53,317s7.94-5.1,15.31-5.67,9.64-5.1,16.44-6.8,8.51-1.7,8.51-1.7,4.53,15.91-14.18,20.43S380.53,317,380.53,317Z"/><g class="b"><path class="d" d="M380.53,317s7.94-5.1,15.31-5.67,9.64-5.1,16.44-6.8,8.51-1.7,8.51-1.7,4.53,15.91-14.18,20.43S380.53,317,380.53,317Z"/><path class="l" d="M458.77,377.67a38.34,38.34,0,0,1-9.64,18.15c-7.93,8.23-19.27,6.82-19.27,6.82S426,409.45,416,414.53c-8.74,4.42-24.07,6.8-35.43.56,0,0-10.16,6.41-27.81,5.11-12.49-.93-15.87-3.41-36.85-4s-40.2-12.44-54.4-32-12.75-35.45-12.75-35.45c-.78-10.32,3.47-18.82,8-21.09,7.11-3.57,15.86-4,19.85,6.52s-.85,10.23,6.71,14.47,19.13-3.29,17.12-14.17-5.67-20.33-22.68-24.11m-69.54-.74s-5.63,12.51,6.54,20.71m-32-50.75s-9,15.3,9.37,28.34m-7.46-37.67s-20.12,20.55-2.46,41.07m-2.29-57.26s6.24-27.74,33.45-17.27m-38,23.51s-9-6.82-1.67-18.71,27.19-14.47,34.56-12.47m-35.72,40.27s-19.23-8-1.68-33.47m-1.15,40.55s-28.35-8.82-8.51-40.55m-5.67,42.52s-16.44-13.6-9.64-30,13-18.7,24.38-17m9.64-32.32s-5,8.67,6.88,15.34c8.81,5,15.25,0,15.25,0m-15.25-18.68s-4.11,4.81,2.69,8.78,13.89,0,12.56-10.21m-15.39-5.52s-9.47.68-12.9,8.79c-3.12,7.37-2.69,16.16,6.16,22.51,7.63,5.47,16.58,3.4,20.49,2.58m4.81-59.39s-6.53,14.52,6.76,20.52a14.57,14.57,0,0,0,15.56-1.7m-20.05,12.5s-10.56-14.46-23-13.05-23.31,12.77-20.48,28.36,16.72,17.45,29.76,14m-16.15,1.42c-18.29,4.25-34.87-19.42-13.54-39.56m4.61,39.56c-14,1.82-25.59-7-21.62-24.55s18.16-22.11,18.16-22.11m-25.46,32.48s-2.55-18.28,8.93-30.18c7.84-8.13,16.51-9.37,16.51-9.37M278.34,73.8s3.65-27.61,31.9-19.27M239.37,90.24s7.44-29.31,39.48-16.54M194,109.52c-1.2-12.45,6.6-32.58,38.21-26.91M197.92,119c-4.26-21,26.36-46.76,46.06-18m-37.49,23.78c-5.6-18,24.17-44,45.28-15.84m-38.41,28.63c-7.37-26.08,25.09-46.07,44.37-19.56m-37.28,26.64s-3-22.67,12.68-28.94c14.11-5.64,27.31,6.14,31.85,14.64M227.82,150.5s-4.39-27.35,16-27.92m-68,51.87s-24.33-21.85,2-46.22m-6.44,24.84s2.1-21.42,25.91-25.39m-16.94,48.17s-11.34-19.28,6.23-34,35.15-2.83,35.15,6.81m-31.93,32.9s-10.09-22.25,9.82-36.31m-30-18.7s12.47-13.61,27.78-6.81S212.72,135,212.72,135m33.45-41.95s11.13-30.72,48.55-11.46m-33.81,42.64s-8.26-22.51,8.32-29.17c12.81-5.15,20.67,4.39,19.68,16m39.47-45.24s21.24-12.29,36.85-1.13c10.56,7.55,10,12.78,10,12.78M338,75.23s9.72-9.18,25.59,2.72m-111,33.15S248.37,87,270.55,84c19.73-2.68,26.44,12.49,23.74,25.53m-22.61,14.72s-9.94-7.94-2.26-17,19.35.59,8.57,9.1m14.67-22.71s.57-19.57,14.74-23.24,29.72,1.28,34,13.34a16.07,16.07,0,0,1-.5,12.76m-28.63,1.56s-6.85-2.72-8.29,5.79,8.72,8.39,12.78,5.4c4.83-3.56,9.4-16.86-1.37-20-10.25-3-15,4.53-15,4.53s3.74-23.36,25.21-12.75m18.73,16.15s1-17.71,22-19.14,41.08,2.53,42.52,21.81M360.2,93s10.63-11.2,25.44-3.28c16.5,8.82,7.16,25.67,7.16,25.67"/></g><path class="n" d="M362.39,307.67s-7.37-2.56-14.74,16.71-12.45,24.4-12.45,24.4m26.06-36.3a278.36,278.36,0,0,1-16.65,31.06c-9.07,14.18-15.49,27.95-13.89,42.24,1.7,15.18,10.7,32.15,33.37,29.31s17.09-28.74,17.09-28.74m34.58-7.93s12.37,9.49,8.43,20-17.32,15-25.51,15-17.58-3.67-17.58-3.67M428,386.93s13.87,2.25,22-18.33M432.22,394s14.18,1.4,21.45-19.18m-37-7.2s4.26,0,6.42-7.54c0,0,4.54-17-14.74-17s-29.17,18.14-29.17,27.21,4.23,11.91,4.23,11.91m-116.2-47.62s-6.26,20.41,11.88,26.08,31.55-9.38,32.32-22.68a34.24,34.24,0,0,0-1.13-11.34m-32.32,55s13-2.83,26.08-15.3,17.57-20.95,13.6-40.24m-56.1,7.35s-7.39,18.15,4.51,27.22,27.22,6.8,27.22,6.8M254.68,338s-4.54,18.14,4.53,26.65,23.25,9.07,23.25,9.07m6,10.2s33.14-3.94,36-36.55M265,370.47c1.13,23.55,28.34,26.38,44.14,16.58,14.43-9,16.44-24.68,16.44-24.68m-35.72,35.15s30.62,11.37,39.12-24.65M300,407.15s21,5.11,31.75-15.3M378,289.49s-7.37,6.77-11.34,21.81m17.55-20.93s-6.8,6.23-10.21,19.27M391.3,288.1a66.92,66.92,0,0,0-10.77,21m8.69-11.68s10.26-.57,10.52-12.47m-4,15.5s13-3.37,10.77-16.14m4.68,12a15.06,15.06,0,0,0-.83-15.61M418,291.5s4-8.5-4-14.17m9.22,15.45s3.4-5.67,0-14.74m-73.14,67.89s-18.93,25.42-12.54,43.82c5.18,14.91,14.77,21,30.92,18.44m3-84.94S351.62,353.86,346,364.64s-5.31,25.68,4.07,32.76c7.22,5.46,20.18,6.4,26.62.57m-3.17-8.09s-8.74,5.55-15.61.27c-10.2-7.83-3.4-32.88,22.11-64.07M370.64,353s-14.44,18.68,0,26.35m34.91-16.55s-3.47,10.88,10.13,11.44,17.58-9.63,17.58-9.63c5.18-10,5.18-27.05-14.67-32.72m-5.17,32.15s-8.51-7.94-15.31,1.13,2.83,19.28,11.34,21m13.6-7.37s12.86,8.1,23.32-19.68m-31.75-4.53s-8.12-5.77-15.87-.27c0,0-26.64,16.14,3.07,36.38M379.4,346.49s13.09-14.14,16.75-21.81m22.93-8.23,16.45,11.07M414,320.42s9.64,11.37,20.41,12.77m2.27.83c-20.41-8.5-43,5.27-54,14.91-8.23,7.18-14.07,21.77-6.06,32.71s29.49,18.14,40.82-2.83M382.8,395.55s21.54,13.31,34.58-6.54M383.44,404.2s24.38,9.93,34.61-6.52"/><g class="b"><path class="l" d="M217.9,170.77s7.51,1.56,6.95-6.94-12.48-6.51-13.33,1.7c-.71,6.86.85,13.46,10.27,13.72,10.9.3,12.13-14.15,12.13-14.15m28.63-23.37s-5.61-6.7-12.41.67-5,18,5.67,19.84c12.83,2.17,18.36-11.17,18.36-11.17m-19.49-1.87s3.05,9,11.9,2.84m-27.21-8.51s-7.89,23.25,17.88,28.35m29-50.57s-13.61,13.74.56,25.23c10.88,8.81,24.87.82,24.87.82m-9.35-14.6s-.32-6.41-6.24-6.23c-5.57.16-9.84,14.07.93,15.2s18.42-5.67,16.08-19.17c-2.78-16-29-16-38-2.84-7.16,10.46-6.23,26.11,4,34.88M237.41,169s-10.82-9.63-5.41-22.67,21-20.38,38-14.44m-61.79,57.52s-19.85-9.33-8.51-29.18,30.62-7.67,30.62-7.67m82.84-31.15s-.9,13,12.62,14.6c15.16,1.84,22.39-15.58,13.95-16.9-4.61-.72-12.83-1-8.57-11,4.4-10.33,20.9-4.9,23.88,4,2.63,7.81-1.32,18.44-14.92,24.68M333,126s-12.31,0-11.44-13.9,14.84-17.29,23.55-14.17c9.13,3.27,9.76,14.44,9.76,14.44"/><path class="g" d="M416.25,174.71s1.13-8.47-2.27-22.94-6.8-27.51-7.93-49.06,1.13-51.89,25.51-76.53,49.89-49.32,93-48.19,98.65,21.54,114,59,15.5,57.31,13.6,96.38c-2.26,46.79-5.62,66.9-34.84,75.4,0,0,16.7,18.14,34.84,20.41s73.56,2.27,73.56,2.27L714.46,425.3,566.23,453.64,449.13,308.51s-7.37-6.24-15.87-34-10.16-56.69-8.77-69.16-2-15.84-4.27-19.55-4-6.53-4-11.07Z"/><path class="d" d="M416.25,174.71s1.13-8.47-2.27-22.94-6.8-27.51-7.93-49.06,1.13-51.89,25.51-76.53,49.89-49.32,93-48.19,98.65,21.54,114,59,15.5,57.31,13.6,96.38c-2.26,46.79-5.62,66.9-34.84,75.4,0,0,16.7,18.14,34.84,20.41s73.56,2.27,73.56,2.27L714.46,425.3,566.23,453.64,449.13,308.51s-7.37-6.24-15.87-34-10.16-56.69-8.77-69.16-2-15.84-4.27-19.55-4-6.53-4-11.07Z"/><polygon class="o" points="529.14 416.69 593.21 435.67 648.2 420.93 588.11 323.15 529.14 416.69 529.14 416.69"/><polygon class="d" points="529.14 416.69 593.21 435.67 648.2 420.93 588.11 323.15 529.14 416.69 529.14 416.69"/><path class="p" d="M629.42,215.53s6.8,6.24,36.28-1.13,66.4-10.31,101.84,3.85l-5.67,223.94L719.3,464.35,465.57,436.07s16.7-18.71,26.08-24.38,9.38-8.5,9.38-8.5,55.25,30.08,109.11,20.71,69.16-14.48,83.91-54.73-2.84-19.27,14.74-73.7S723,238.21,723,238.21s-43.35-1.7-60.36-4-33.18-18.71-33.18-18.71Z"/><path class="d" d="M629.42,215.53s6.8,6.24,36.28-1.13,66.4-10.31,101.84,3.85l-5.67,223.94L719.3,464.35,465.57,436.07s16.7-18.71,26.08-24.38,9.38-8.5,9.38-8.5,55.25,30.08,109.11,20.71,69.16-14.48,83.91-54.73-2.84-19.27,14.74-73.7S723,238.21,723,238.21s-43.35-1.7-60.36-4-33.18-18.71-33.18-18.71Z"/><path class="q" d="M519.43,430.4s13.61-5.67,23.25-10.2a213.53,213.53,0,0,1,22.11-8.51,55.06,55.06,0,0,1,7.11-19c5.92-9.93,12.16-17.3,13.86-26.37v17s4.54-14.14,6.81-24.64,2.52-21.84,10.77-29.21,11.95-6.21,13.91-13.31-2-13.34,4.23-21.84S635.09,279,635.65,270s2.53-31.18-5.1-37.42l5.1-.57L624.88,211.3s-2.83-2.84,7.94-2.84,21-.26,12.78-8.5c0,0,13.34-9.94,8.5-18.44,0,0,17-9.64,8.5-23.25,0,0,27.17-20.41,6.5-48.75,0,0,16.18-26.08-6.5-52.16,0,0,5.37-22.65-28.08-47.32s-63.8-36-98.65-37.72-83,10.21-114.21,65.2c0,0,31.44-32.88,61.49-45.36S529.9-18,558-12.37,611.27,6.34,600.5,28.45,586.9,57.06,588,73.23L598.8,65.3S595.66,77.2,588,85.14L600.5,77.2s-5.1,6.51.57,16.44c0,0-14.69,14.74-15,39.69s11,39.68,4.23,55.56-7.89,13-15.57,18.14-18.45,28.35-13.35,47.05,13.35,26.08,13.35,26.08l-7.68,9.64s-7.93-23.21-31.75-30.31-47.62-6.54-61.79,1.4-22.68,26.94-22.68,26.94-2.22-11.64-9.33-11.07-5.15,2.54-8.24,15.31.56,31.45,9.64,56.13,16.13,52.18,35.71,61.52,26.08,10.48,40.82,20.68Z"/><path class="r" d="M519.43,430.4s13.61-5.67,23.25-10.2a213.53,213.53,0,0,1,22.11-8.51,55.06,55.06,0,0,1,7.11-19c5.92-9.93,12.16-17.3,13.86-26.37v17s4.54-14.14,6.81-24.64,2.52-21.84,10.77-29.21,11.95-6.21,13.91-13.31-2-13.34,4.23-21.84S635.09,279,635.65,270s2.53-31.18-5.1-37.42l5.1-.57L624.88,211.3s-2.83-2.84,7.94-2.84,21-.26,12.78-8.5c0,0,13.34-9.94,8.5-18.44,0,0,17-9.64,8.5-23.25,0,0,27.17-20.41,6.5-48.75,0,0,16.18-26.08-6.5-52.16,0,0,5.37-22.65-28.08-47.32s-63.8-36-98.65-37.72-83,10.21-114.21,65.2c0,0,31.44-32.88,61.49-45.36S529.9-18,558-12.37,611.27,6.34,600.5,28.45,586.9,57.06,588,73.23L598.8,65.3S595.66,77.2,588,85.14L600.5,77.2s-5.1,6.51.57,16.44c0,0-14.69,14.74-15,39.69s11,39.68,4.23,55.56-7.89,13-15.57,18.14-18.45,28.35-13.35,47.05,13.35,26.08,13.35,26.08l-7.68,9.64s-7.93-23.21-31.75-30.31-47.62-6.54-61.79,1.4-22.68,26.94-22.68,26.94-2.22-11.64-9.33-11.07-5.15,2.54-8.24,15.31.56,31.45,9.64,56.13,16.13,52.18,35.71,61.52,26.08,10.48,40.82,20.68Z"/></g><path class="s" d="M596.53,142.4s.83-23.81,19.28-28.91,24.12,11.33,27,19.27-1.44,23.81-7.11,40.82-4.53,27.48-13.6,28.35-11.34-2.27-10.21-11.34,5.67-27.21-15.31-48.19Z"/><path class="d" d="M596.53,142.4s.83-23.81,19.28-28.91,24.12,11.33,27,19.27-1.44,23.81-7.11,40.82-4.53,27.48-13.6,28.35-11.34-2.27-10.21-11.34,5.67-27.21-15.31-48.19Z"/><path class="h" d="M605.91,140.7s.9-15.71,9.33-18.71c7.54-2.69,14.74-4.24,19.28,7.1s5.1,18.44-1.14,34-13.56,21.51-10.46,9.34.83-16.44-4.84-19.85-7.33-8.23,2-7.37,11.59,4,11.59,4,1.21-18-25.77-8.5Z"/><path class="d" d="M605.91,140.7s.9-15.71,9.33-18.71c7.54-2.69,14.74-4.24,19.28,7.1s5.1,18.44-1.14,34-13.56,21.51-10.46,9.34.83-16.44-4.84-19.85-7.33-8.23,2-7.37,11.59,4,11.59,4,1.21-18-25.77-8.5Z"/><path class="t" d="M498,152.49s11.57-18,37.09-17.46,32.57,15.87,32.57,15.87m-55.34,24.55s15.92,17.41,32.1,10.6q1.46-.62,2.82-1.29"/><path class="u" d="M520,190.59s-8.11,20.57,5.1,26.38c11,4.82,31.18,1.67,41.39-13.34m-71.13-31.75s-3.09,23.24,14.17,26.65"/><g class="v"><path class="r" d="M439,21.81s-6.88,10,4.46,19.68m.57-25s-10.77,28.35,29.48,22.68m-24.87-25s-7.14,27.32,32.55,13.71M452,10.31s3.45,24.94,37.72,6.23M456.5,6.34s2.65,13.5,19.28,9.63M562,317a46.41,46.41,0,0,0-.57,28.92c4.85,15.87,3.41,34,3.41,34m4.27-57.82s-4.27,18.14,4.23,35.15m2.83-28.92a179.17,179.17,0,0,1,2.27,26.08m5.67-43.92s-.57,16.17,4,31.18m-2.27-61.53S596,285.27,603.34,300m-33.45-48.76s.83,18.71,19.84,23.81,23.81-1.13,23.81-1.13M575,238.78s-1.13,16.44,14.17,21,23.25-2.83,23.25-2.83M550.61,334s-5.05,13.34,7.11,47.36m-10.51-2s-11.34-35.15-1.7-53.3m-10.46-17a52.33,52.33,0,0,1-.88,25.51c-4,14.17-1.44,26.64,4,36.28s2.58,17.58,2.58,17.58M530.2,406.89s4-16.74-2.27-33.75,1.71-34.28,1.71-34.28m-10.78,66a31.7,31.7,0,0,0,0-26.08A30.91,30.91,0,0,1,520,352.16m-26.08,14.18s-5.1,10.2-1.13,21.54,4,28.91,4,28.91m11.34-100.61s-7.93,7.1-2.83,22.68m-5.67-22.68s-5.1,6.53-1.14,25.51m-7.37-22.41s-4.27,9.07,0,21m-13.6-14.18s5.15-21,49.06-15.3m-53,4.53s-7.94,13-2.83,27.22,9.11,15.3,10.51,28.91m-13.92-5.1s-8.5-19.85-5.67-34.59,6.24-19.84,6.24-19.84m-11.34,17s1.7-24.11,11.91-28.35m26.08-38.25A187.72,187.72,0,0,0,537,275.06m-27.22-12.74s37.47,2,50.77,26.91m38.81-89s-23.25,7.37-17.58,41.38m19.85-37.42s-16.75,7.94-3.41,37.42m4-35.71s7.94,2.26,7.94,34.58M609,205.63s9.63,8.2,9.07,30.31M598.8,152.6s4.54,17-5.1,25.52m10.2-18.71s5.67,15.3-8.5,28.34M609,180.38s1.13,4.57-7.94,13.91M612.41,42.05s18.71,8.54,13.6,27.51-20.1,24.08-20.1,24.08m25.77-43.08s13.87,17.57-1.7,40.25m7.37-41.95s18.19,19.3,2.58,43.38M662.6,56.79s-2,14.18-15.61,34m22.11,18.44s-8.5,11.07-19.84,17m12.47,32.58s-6.24,5.1-18.14,9.07"/></g><path class="u" d="M421.66,75.23s14.81,18.3,48.19,15c37.51-3.69,63.75-39.68,63.75-39.68M422.2,92.24s15.88,16.12,46.78,14.44C502.5,104.87,526.54,80,526.54,80m-96.38,35.15s18.67,15.3,51.85,6.23,47.37-27.78,47.37-27.78M544.19,42.5s-12.92,22.55-7.75,40.37c4.33,14.91,21.28,21.54,21.28,21.54m0-72.56a100.16,100.16,0,0,0-2.83,44.79c4,22.91,16.13,32.61,16.13,32.61m-106.58,15s6.28,2.83,8.24,12.47,2,17.57,8.77,16.44,7.37-25.51,10.2-31.18"/><path class="s" d="M493.92,153.74a108.36,108.36,0,0,1-10.77,32.31s.05,16.74-2,25.25-.88,14.44,1.39,21.81,6.8,29.48.57,31.18-15.88-4.27-17-15.88-1.7-18.14,0-30,4.58-21.51,6.54-32.59,2-11.33,2-11.33l-3.4-16.18"/><path class="d" d="M493.92,153.74a108.36,108.36,0,0,1-10.77,32.31s.05,16.74-2,25.25-.88,14.44,1.39,21.81,6.8,29.48.57,31.18-15.88-4.27-17-15.88-1.7-18.14,0-30,4.58-21.51,6.54-32.59,2-11.33,2-11.33l-3.4-16.18"/><path class="u" d="M474.08,153.74s4.53,11,7.37,10.2,8.5-10.77,8.5-10.77"/><path class="w" d="M416,173.55c.25-.79,6.23-19.33,22.59-20,15.73-.61,27.69,13.52,28.19,14.12"/><path class="x" d="M324.77,227.61c3.68-3.42,10.48-5.39,10.48-5.39s-12.54-5.52-25-2.42-17.53,9.32-23.23,19.54-9.09,15.31-9.09,15.31a79.59,79.59,0,0,0,17-1.7c9.63-2,18.75-5.64,26.1-11.89s10.18-10.79,10.18-10.79"/><path class="y" d="M324.77,227.61c3.68-3.42,10.48-5.39,10.48-5.39s-12.54-5.52-25-2.42-17.53,9.32-23.23,19.54-9.09,15.31-9.09,15.31a79.59,79.59,0,0,0,17-1.7c9.63-2,18.75-5.64,26.1-11.89s10.18-10.79,10.18-10.79"/><path class="z" d="M357.43,177.28s12.79-.13,21.4-3.7c11.49-4.76,24.38-22.69,36.85-13"/><path class="aa" d="M357.43,171.35s11.74.65,20-3.7c8.86-4.67,20.23-17,32.95-16"/><path class="x" d="M382,210.43a47,47,0,0,1,17.83-2.27c10.51.57,19.84-8.5,23.24-13L418,181.53c-5.13-4.25-17.5-4.37-26.65,2.25-8.43,6.11-13.6,22.12-13.6,22.12,3.4-3.41,10.2-5.11,10.2-5.11"/><path class="ab" d="M382,210.43a47,47,0,0,1,17.83-2.27c10.51.57,19.84-8.5,23.24-13L418,181.53c-5.13-4.25-17.5-4.37-26.65,2.25-8.43,6.11-13.6,22.12-13.6,22.12,3.4-3.41,10.2-5.11,10.2-5.11M269.84,252s4.64-19.73,16.4-30.86c22.36-21.16,40.51-12.77,40.51-12.77"/><path class="x" d="M505.92,168.66s9.54-36.46,57.73-10.95c0,0-9.56,20.84-52.65,17.17"/><path class="ab" d="M505.92,168.66s9.54-36.46,57.73-10.95c0,0-9.56,20.84-52.65,17.17"/><path class="z" d="M493.92,150.34s3.62-7.49,15.52-18c11.51-10.14,25.37-19.7,44-14.61,20.5,5.61,24.94,23.52,24.94,23.52"/><path class="aa" d="M493.21,140.57s4.16-6.82,16.32-16.16,26.28-17.42,43.28-12.88c20.54,5.47,28.35,20.55,28.35,20.55"/><path class="z" d="M417.38,157.71s5.93-14.71,19.28-14.44,31.18,12.17,31.18,12.17"/><path class="aa" d="M417.6,146.39s5.65-9.48,19-9.21,29,9.65,29,9.65"/><path class="x" d="M468.48,174.88s-37.67-18.71-45.43,12.31l1.7,6.23s17.09,6.42,40.33-8.9"/><path class="ab" d="M468.48,174.88s-37.67-18.71-45.43,12.31l1.7,6.23s17.09,6.42,40.33-8.9"/><path class="d" d="M487.68,237.08s6.81-27.18,23.81-3.11"/><path class="ab" d="M486.86,262.32s.26-17,20.67-19.84"/><path class="ac" d="M525.1,153.17c10.79-3.92,15.62,2.27,15.62,6.24s-3.15,9.07-9.38,10.77-13.68.87-15.31-4.24,2.83-10.5,9.07-12.77Z"/><path class="ab" d="M525.1,153.17c10.79-3.92,15.62,2.27,15.62,6.24s-3.15,9.07-9.38,10.77-13.68.87-15.31-4.24,2.83-10.5,9.07-12.77Z"/><path class="ac" d="M437.23,174.71c5.49-2.2,11.9-.53,13,5.41s-3.41,11.6-9.64,12.17-10-.68-11.12-6.35,3.49-9.53,7.72-11.23Z"/><path class="ab" d="M437.23,174.71c5.49-2.2,11.9-.53,13,5.41s-3.41,11.6-9.64,12.17-10-.68-11.12-6.35,3.49-9.53,7.72-11.23Z"/><path class="u" d="M484.28,237.08s0-21.28,13-22.11,43.45,34.46,77.46,64.23"/><path class="g" d="M471.24,289.23S486,285.27,501,283s30.87,1.7,40.51,16.44c0,0-11.9-5.67-31.75-2.84s-30,8.24-38.55-7.37Z"/><path class="r" d="M471.24,289.23S486,285.27,501,283s30.87,1.7,40.51,16.44c0,0-11.9-5.67-31.75-2.84s-30,8.24-38.55-7.37Z"/><path class="ab" d="M512.63,288.1s-1.7,6.83-14.18,11.07m100.43,38.14s42.49,9.18,60.89-1,34-11.34,34-11.34"/><path class="u" d="M649.9,232.44S667.4,260.89,677,283a324.19,324.19,0,0,0,18.14,36"/><path class="ac" d="M304.56,225.74c7.89-3.25,12.76-2.33,14.18,4.53,1.21,5.84-1.91,9.52-7.58,12.36s-12.29,1.27-14-3,1.13-11.34,7.36-13.9Z"/><path class="ab" d="M304.56,225.74c7.89-3.25,12.76-2.33,14.18,4.53,1.21,5.84-1.91,9.52-7.58,12.36s-12.29,1.27-14-3,1.13-11.34,7.36-13.9Z"/><path class="ac" d="M393.55,197.5c-2.66-5.86,2.22-12.17,8.86-13.81s14.08,1.1,14.93,6.08-2.79,8.29-7.19,10.5-14.08,2.76-16.6-2.77Z"/><path class="ab" d="M393.55,197.5c-2.66-5.86,2.22-12.17,8.86-13.81s14.08,1.1,14.93,6.08-2.79,8.29-7.19,10.5-14.08,2.76-16.6-2.77Z"/><path class="t" d="M431.63,204.09s17,9.91,33.19-18.44"/><path class="d" d="M461.4,201.24s-11.34,18.43-7.92,48.19"/><path class="u" d="M547.2,184.76c14.27-7.06,21.39-18.82,27.79-18.82,6.8,0,11.08,18.41-.26,35.42"/><path class="ad" d="M246.79,354.4s-11.16,8.11-21.5-2.64c-6.85-7.12-6.82-12.47-6.82-12.47s-8.77.57-14.18-4c-7.14-6-7.34-11.9-7.34-11.9s-19.15,7.69-33.48-10.21C151,297.64,155,285.43,155,285.43s-15.64-9.35-18.3-28.72S142,225.84,142,225.84s-13.85-8.8-9.74-33.45S149,163.26,149,163.26s-1.84-13.89,7.49-31.91c10-19.24,25-22.56,25-22.56s4.59-21.48,30.11-37.92,42-23.48,67.51-28.17,46.1-.87,54.3,7.94c0,0,18.51-5.55,33.06,1.5A57.58,57.58,0,0,1,385.5,66.83s14.12-3.49,22.18,4.74"/><path class="ae" d="M311.3,150.08s14,14.79,19,23.16c4.43,7.45,6.88,8.18,11.66,9.34,3.93.95,5,.35,6.17-5.26,2.32-11.2-3-15.82-4.32-38.19"/><path class="l" d="M406.69,123.57a33.92,33.92,0,0,1-14.25-7.82s-12.47,11.91-32.32,5.11c0,0-9.94,23.27-40.82,15.32,0,0-9.61,26.61-40.79,17.56,0,0-9.09,28.34-40.28,15.87,0,0-4.53,23.81-30,25.51,0,0,1.7,12.48-4,29.48m203.66,49.59c13.63-2,23.9.48,25.94,8.24"/><path class="g" d="M353.4,180.55a271.93,271.93,0,0,0,10.69,27.61,94.31,94.31,0,0,1,22.68,21.55c10.77,14.19,12,18.44,17.88,26.94s7.06,13.31,3.1,18.41-10.73,9.1-20.11,7.1a80,80,0,0,0-15-2"/><path class="ab" d="M353.4,180.55a271.93,271.93,0,0,0,10.69,27.61,94.31,94.31,0,0,1,22.68,21.55c10.77,14.19,12,18.44,17.88,26.94s7.06,13.31,3.1,18.41-10.73,9.1-20.11,7.1a80,80,0,0,0-15-2"/><path class="u" d="M326.11,240.48s-3.4,13-11.91,17-15.3,5.1-32.31,7.37-13,17.55-4.54,21,30.1,10.19,40.85,6.81,17.65-10,20.38-19.28c3.48-11.73,6.24-27.78,6.24-27.78M329.3,190.19S346,207,352.21,215.55a206.62,206.62,0,0,1,15.59,24.36c4.25,7.94,11.6,14.74,11.6,14.74s-1.09,10.76,1.16,17m-50.48,43.09s8-8.24,15-26.08,14.44-43.09,21.81-38.55a118.81,118.81,0,0,0,12.47,6.8M230.32,203.63s14.15,5.1,18.69,26.64,6.34,29.54,13,31.18c7,1.73,14.53-5.36,14.53-5.36"/><path class="z" d="M253.76,244.19s.35-3.68,6.58-18.72,11.34-18.74,21.55-20.71a158.23,158.23,0,0,0,42-13.42"/><path class="aa" d="M251.49,232s.73-3.68,4.71-12.05c7-14.71,12-18,22.25-20s23.5-5.23,42.69-13.89"/><path class="ab" d="M204.22,224.6s30.61,17.56,34,34,14.44,44.79,26.65,48.19,32.58,7.94,46.49,12.47,25.25,8.24,15.31,34"/><path class="l" d="M326.68,353.3a82.31,82.31,0,0,0,11.9-25.52c3.71-14.44,6.8-20.94,17-27.19,9-5.5,12.69-12.75,28.13-19.43M236.33,76.54c4.25-9.66,20.4-23.55,40.53-5.41M287.07,78s3.44-27.79,31.77-10.22m51,55s14.74-1.41,14.74-14.17c0-9.92-12.94-14.88-19.85-6-4.81,6.23,1.71,10.49,1.71,10.49"/><path class="n" d="M316.55,415.26s11.9,4,22.67-7.07"/></svg>
