<svg xmlns="http://www.w3.org/2000/svg" viewBox="0 0 749.88 428"><defs><clipPath id="a"><path fill="none" d="M0 0h749.88v428H0z"/></clipPath><style>.b{clip-path:url(#a)}.d{fill:#311005}.e{fill:#1d2a30}.g{fill:#964927}.h{fill:#c76e6a}.i{fill:#af9c83}.j{fill:#dca164}.k{fill:#7d6d4a}.l{fill:#4169e1}</style></defs><g class="b"><path fill="#332c27" d="M-2.54-3.24v433.11H752.3V-3.24H-2.54z"/><path class="d" d="M753.8 431.37H-4V-4.74h757.8zm-754.8-3h751.8V-1.74H-1z"/><path class="e" d="M232.63 214s-46.25 130.42-59.72 219.7L547 435.81S534.33 247.1 496.77 205.5L232.63 214z"/><path class="d" d="M548.57 437.32H547l-375.79-2.12.26-1.71c7-46.21 22.85-103.56 34.95-143.54 13.11-43.3 24.72-76.11 24.84-76.44l.34-1h1L497.42 204l.46.52C513.66 222 527 266.22 537.44 336c7.77 51.84 11 99.21 11 99.68zm-373.91-5.11l370.7 2.09C544 415.91 530.73 246.71 496.11 207l-262.41 8.47c-2 5.72-12.62 36.25-24.45 75.35-11.92 39.39-27.52 95.67-34.59 141.39z"/><path d="M294.68 256.52s-20 107-25.51 179.29l178.58 5.67s-6.06-143.15-33.18-179.29l-119.89-5.67z" fill="#4f402d"/><path class="d" d="M451.93 445.62l-187.07-5.94.32-4.18c5.51-71.66 25.37-178.64 25.57-179.71l.64-3.43 125.24 5.92 1.13 1.51c27.56 36.71 33.74 175.63 34 181.52zM273.49 432l170.05 5.39c-1.26-23.66-8.46-137.87-31.1-171.25L298 260.68c-3.37 18.47-19.22 107.47-24.51 171.32z"/><path class="e" d="M339.16-3.7S338 66 384.52 103.45c0 0 17-1.7 24.94-25s25-83.9 25-83.9l-95.3 1.75z"/><path class="d" d="M384.06 105l-.48-.38C337.06 67.17 337.65-3 337.66-3.73v-1.44l98.74-1.77-.55 1.94c-.17.61-17.11 61-25 84-8.15 23.88-25.48 25.88-26.21 26zM340.67-2.23c.19 10.11 3.07 70.46 44.28 104.1 3-.54 16.31-4 23.09-23.85 7-20.6 21.4-71.33 24.38-81.89z"/><path class="g" d="M344.27-11.34s1.44 57.53 41.12 109.69c0 0 15-19 27.47-58.67s13.61-51.88 13.61-51.88 45.36-1.67 85 28.34 44 40.55 44 40.55 11 .84 23.5 9.91 11.91 16.47 22.11 24.11l-72.56 74.53L442.35 231l-67.47 21.27-76-11.07L202 159l-52.73-51.42s9.38-5.57 49.06-43.83S263.19-2 281.9-9.94l62.37-1.4z"/><path class="d" d="M375 253.82l-76.73-11.19-97.35-82.55-54.12-52.78 1.68-1c.09 0 9.92-6.16 48.78-43.62 8.29-8 15.78-15.34 23-22.47 26.69-26.2 46-45.14 61-51.53l.26-.11 64.15-1.44v1.49c0 .57 1.87 56.49 39.6 107.21 3.74-5.32 15.82-24 26.06-56.59C423.67.29 425-12.22 425-12.35l.12-1.3h1.32c.45 0 46.34-1.34 86 28.65 34 25.67 42.24 37.29 44 40.34 2.87.39 12.58 2.21 23.43 10.1 6.8 4.94 9.81 9.36 12.72 13.63 2.47 3.62 4.79 7 9.4 10.49l1.37 1-73.92 75.91-86.38 65.92-.25.08zm-75.45-14l75.21 11 66.88-21.09 85.88-65.54 71.32-73.26a43.81 43.81 0 01-8.74-10.15 45.53 45.53 0 00-12-12.9c-11.94-8.68-22.63-9.61-22.73-9.62l-.93-.07-.35-.86c0-.09-5-10.84-43.47-39.92-35.13-26.56-75.25-28-82.82-28.06-.61 4.11-3.22 18.15-13.5 50.85-12.41 39.5-27.1 58.36-27.72 59.15l-1.2 1.51-1.17-1.54C348.22 52 343.42-.37 342.84-9.81l-60.61 1.37c-14.51 6.28-33.55 25-59.83 50.79-7.26 7.13-14.76 14.5-23.05 22.49-31.26 30.14-43.75 40-47.75 43L203 157.9z"/><path class="g" d="M633.4 150.24s29.48 141.43 121.32 219.1l5.67 68.6-216 1.43s2.27-33.15-10.2-110.55S495.94 214 495.94 214L574 145.87l59.41 4.37z"/><path class="d" d="M542.79 440.88l.11-1.61c0-.33 2.1-33.94-10.19-110.21-12.27-76.06-37.71-113.84-38-114.21l-.76-1.1 79.52-69.42 61.17 4.49.23 1.11c.07.35 7.57 35.78 26.16 80.21 17.13 40.95 47.46 98.14 94.66 138.05l.48.41.05.61 5.8 70.22zm-44.88-226.6c4.3 6.83 26.55 44.73 37.76 114.3C546.53 396 546.21 430.31 546 437.86l212.8-1.41-5.48-66.37c-47.4-40.29-77.84-97.71-95-138.84a509.08 509.08 0 01-26.07-79.59l-57.67-4.24z"/><path class="g" d="M203.9 186.79l-93.21 3.4-21.93 7.37S47.24 296.47-5.79 343.83s-12.78 104-12.78 104l195-15s27.22-156.47 55-211.46l-27.53-34.58z"/><path class="d" d="M-19.3 449.43l-.49-.69a92.19 92.19 0 01-13.75-34.88c-3.2-18.7-1.15-46.23 26.75-71.15C45.38 296.12 87 198 87.37 197l.27-.63 22.78-7.65h.22l94-3.43 28.61 35.93-.43.86c-27.37 54.16-54.59 209.48-54.86 211l-.2 1.15-1.16.09zM89.87 198.77C86.21 207.3 45.68 299.88-4.79 345c-21.55 19.24-30.24 42.22-25.82 68.3a92.08 92.08 0 0012.8 33.06l193-14.88c2.54-14.31 28.34-157.09 54.5-209.87l-26.49-33.3-92.2 3.37z"/><path class="h" d="M-13 433.76l-2.37-4.4a275.24 275.24 0 0054.72-41.81C64 363.3 93.66 324.09 96.18 274.24L52 267.5l.75-4.95 48.6 7.45-.08 2.23c-1.79 52.6-32.8 93.75-58.5 119A280.27 280.27 0 01-13 433.76z"/></g><path class="i" d="M138.11 183s-10 5.66-15.51 21.51-1.75 25.32-5.54 35.49-11.9 27.91-14.87 52.64c0 0-11.12-2.08-19-7s-19.24-2.14-25.09-5-12-12.05-12-12.05 12.55-23.39 17-39 27-42.34 38.74-85.54L138.11 183z"/><path class="i" d="M103.49 294.38l-1.58-.29c-.46-.09-11.49-2.19-19.51-7.25-4.18-2.63-9.69-2.91-14.56-3.15-3.92-.2-7.61-.38-10.38-1.72-6.15-3-12.38-12.18-12.64-12.57l-.51-.75.43-.79c.12-.23 12.53-23.43 16.89-38.68 1.69-5.94 5.81-13.24 11-22.48 8.58-15.19 20.34-36 27.71-63l.7-2.6 39.43 42.29-1.65.94c-.09.05-9.58 5.63-14.84 20.7-3 8.44-3.18 15.1-3.39 21-.18 5-.35 9.7-2.15 14.55-.56 1.49-1.21 3.14-1.92 4.95-4.12 10.51-10.36 26.4-12.87 47.34zm-55.67-25.92c1.56 2.18 6.45 8.64 10.94 10.81 2.22 1.07 5.63 1.24 9.23 1.42 5.23.27 11.17.56 16 3.62 5.82 3.66 13.62 5.73 16.9 6.49 2.68-20.51 8.79-36.07 12.86-46.45.7-1.79 1.34-3.43 1.89-4.9 1.64-4.39 1.79-8.66 2-13.6.22-6.09.46-13 3.56-21.86 4.4-12.61 11.5-19 14.63-21.28L102.54 147c-7.5 26.14-18.88 46.31-27.27 61.16-5.12 9.07-9.16 16.23-10.76 21.82-4.03 14.13-14.4 34.14-16.69 38.48zM599.53 178.58s4.37 2.81 8.5 12.74 7.09 7.87 7.09 18.44 2.78 13.78 7.85 29.75S625 263 636.38 277.79c0 0 15.06.7 26-5s23.33-17.34 23.33-17.34-11-12.39-15.28-23.76-.68-28.23-12-41.11-17-50.31-17-50.31l-41.85 38.28z"/><path class="i" d="M638.09 279.33h-2.48l-.43-.55c-7.76-10.15-9-17.1-10.47-25.15a98.84 98.84 0 00-3.17-13.63c-1.5-4.75-2.83-8.42-3.9-11.38-2.59-7.19-4-11.15-4-18.83 0-6.12-1-7.55-2.75-10.15a38 38 0 01-4.22-7.71c-3.86-9.26-7.9-12-7.94-12.06l-1.6-1.06 1.4-1.3 43.94-40.19.41 2.79c.06.37 5.69 37.15 16.63 49.54 7.64 8.67 8.79 19 9.81 28.2.54 4.89 1.06 9.51 2.5 13.37 4.1 11 14.88 23.17 15 23.29l1 1.1-1.07 1c-.51.49-12.71 11.88-23.66 17.58-9.09 4.65-20.61 5.14-25 5.14zm-1-3c3 .05 15.4-.08 24.5-4.82 8.78-4.57 18.72-13.24 21.94-16.13-2.83-3.34-11-13.48-14.59-23.12-1.57-4.2-2.11-9-2.67-14.09-1-9.14-2.07-18.59-9.08-26.54-9.83-11.14-15.34-39.34-16.89-48.33l-38.56 35.26c1.74 1.69 4.76 5.32 7.63 12.21a35.67 35.67 0 003.93 7.17c2 2.89 3.27 4.79 3.27 11.84s1.28 10.72 3.84 17.81c1.08 3 2.42 6.69 3.94 11.49a104.09 104.09 0 013.27 14c1.46 7.77 2.58 13.98 9.52 23.23z"/><path class="j" d="M109 154.19s-5.69.85-31.2-.85-37.44-6.54-47.06-11.91-11.9-6-12.75-12.75c0 0-7.94-2.29-5.95-7.37s2.83-4.54 2.83-4.54-7.32-1.13-6.5-6 4.21-4.84 7.07-4c0 0-.29-6.49 5.95-6.22s11.05 1.69 22.68 4.52 23.81 5.42 32-3.1a39.56 39.56 0 00-7.37-5.12c-7.8-3.76-9.66-5.61-13-9.86s-2.64-11.4 1.7-8.57 7.37 1.58 12.76 5.2 8.48 1.4 14.45 5.66 7.94 6 10.77 6 9.12 2.82 17.89 10.49 11.59 18.14 13.86 25.23 9.07 12.2 9.07 12.2L124 167.23s-9.07-11.36-15-13z"/><path class="k" d="M124.3 170l-1.46-1.83c-2.39-3-9.47-10.94-14-12.45-1.6.16-8.87.61-31.16-.87-24.54-1.64-36.81-6-47.69-12.1l-2.58-1.43c-7.18-3.95-9.82-5.41-10.8-11.51-1.57-.59-4.6-2-5.85-4.55a5.4 5.4 0 01-.14-4.49 24.83 24.83 0 011.45-3.18 9.11 9.11 0 01-4.28-2.94 5.26 5.26 0 01-.91-4.07 6.61 6.61 0 012.83-4.83 6.32 6.32 0 014.37-.73 7.7 7.7 0 012-4 6.87 6.87 0 015.37-1.86c5.45.24 9.71 1.29 18.18 3.38l4.79 1.18c11.76 2.87 22.13 4.71 29.42-1.57a32.51 32.51 0 00-5.76-3.84C60.08 94.42 58 92.39 54.52 88c-2.66-3.35-3.26-8.4-1.26-10.6.46-.5 2.15-2 5-.15a14.32 14.32 0 005.09 1.94A20.31 20.31 0 0171 82.38a14.34 14.34 0 006.18 2.33 18.69 18.69 0 018.3 3.34l2.08 1.49c4.24 3 5.83 4.19 7.82 4.19 4.05 0 11.1 4.06 18.87 10.86 8.48 7.42 11.58 17.23 13.84 24.4l.47 1.5c2.09 6.51 8.44 11.41 8.55 11.51l1 .76zm-15.19-17.33l.31.09c4.88 1.38 11.39 8.41 14.28 11.77l10.62-21c-2-1.77-6.74-6.28-8.62-12.15l-.47-1.51c-2.16-6.83-5.11-16.18-13-23-9.13-8-14.92-10.12-16.9-10.12-3 0-5-1.49-9.57-4.75l-2.02-1.5a15.62 15.62 0 00-7.13-2.85 17.16 17.16 0 01-7.3-2.79 17.55 17.55 0 00-6.68-2.75 17 17 0 01-6.05-2.35c-.33-.21-.93-.53-1.1-.34-.7.77-.59 4.22 1.39 6.72 3.31 4.16 5 5.81 12.52 9.44a38.28 38.28 0 017.07 4.79 54.69 54.69 0 016.54 2.29 21.49 21.49 0 014 2.34l.78.63-.28 1c-.94 3.27-2.52 12.35 1.39 15 5.21 3.56 13.25 3.61 13.33 3.61v3c-.37 0-9 0-15-4.13-5.52-3.78-3.64-14-2.85-17.29a20.34 20.34 0 00-2.61-1.45 45.18 45.18 0 00-5-1.81c-9.11 8.86-22.32 5.64-33 3l-4.8-1.19c-8.28-2-12.43-3.07-17.58-3.29a4 4 0 00-3.11 1 4.7 4.7 0 00-1.27 2.6c5.61 2.14 27.43 10.3 35.35 11l-.27 3c-8-.72-28.11-8.15-35.1-10.8l-2-.6c-1.64-.5-2.89-.5-3.7 0a3.85 3.85 0 00-1.45 2.78 2.28 2.28 0 00.39 1.81c1 1.44 3.58 2.17 4.69 2.38a1.65 1.65 0 01.32.06c.21.08 19.93 7.59 31.85 11.87a8.19 8.19 0 014.53-2.77l.73 2.91a4.48 4.48 0 00-3.22 2.23l-.55 1.3-1.35-.44c-10.41-3.7-28-10.39-32.17-12a17 17 0 00-1.65 3.42 2.45 2.45 0 000 2.07c.89 1.8 3.87 3 5 3.32l.94.27v.07c5.38 1.5 26 7.46 31.87 12.11l-1.85 2.36c-5-4-22.78-9.28-29.48-11.2.87 3.37 2.83 4.45 9 7.83l2.6 1.44C42 146 53.93 150.24 77.91 151.84c24.82 1.66 30.83.87 30.89.86zM67 142.22a41 41 0 01-15.34-3.1l1.23-2.74c.16.07 16.45 7.15 28.9-1.55l1.72 2.46A28.37 28.37 0 0167 142.22z"/><path class="e" d="M226.65 218.54s-15.9 19.82-30.92 20.41-23.95-7.93-36.85-19.27-22.68-23-33.17-31.76S102 167.24 102 167.24s7.8 1.41 18.08-11.7 10.27-26.22 10.27-26.22 19.29 20.88 39.65 34.36l56.69 54.86z"/><path class="d" d="M194.25 240.47c-14.05 0-22.77-7.68-34.68-18.18l-1.68-1.48c-6.39-5.61-11.94-11.22-17.3-16.65s-10.59-10.67-15.84-15.09c-10.39-8.7-23.58-20.59-23.71-20.71l-3.9-3.52 5.17.93s7.16.92 16.63-11.16c9.8-12.51 9.95-25.17 9.95-25.3v-3.82l2.6 2.81c.19.21 19.36 20.91 39.29 34.14l.21.17 57.68 55.8-.86 1.06c-.66.83-16.5 20.37-32 21zm-88.67-72.07c4.35 3.88 13.48 12 21.1 18.37 5.38 4.51 10.56 9.74 16 15.28 5.33 5.39 10.84 11 17.15 16.51l1.68 1.48c11.82 10.41 20.35 17.93 34.12 17.41 12.23-.48 25.45-14.79 28.93-18.81L169 164.86c-16.1-10.71-31.67-26.18-37.41-32.1a49.93 49.93 0 01-10.3 23.7c-6.5 8.3-12.18 11.07-15.71 11.94z"/><path class="j" d="M626.6 117.62s5.38-2.52 17-12.74 18.15-16.74 26.4-19.29 7.93-2.55 15.59-6 22.16-11 24.4-6-2.89 9.73-11.68 13.41a95 95 0 00-15.87 8.5 66.34 66.34 0 0111.62 0c6.24.57 12.19 1.42 18.71 1.42s21.26.57 25.23.85a4 4 0 013.14 6.24 24.69 24.69 0 01-1.73 2.28s8.23-.88 7.94 4.52-4.53 6.52-8.5 6.52a10.07 10.07 0 011.13 4.53c0 2.55-1.94 7.37-15.85 6.81 0 0 7.07-.29 6.78 5.38s-9.92 5.66-13.32 4.54a103.41 103.41 0 01-17.29 1.58c-9.07 0-16.16.43-24.95.14s-18.14-1.16-18.14-1.16a65.41 65.41 0 01-20.69 5.67L624 133.78l2.56-16.16z"/><g class="b"><path class="k" d="M636 146.39l-13.57-12 2.8-17.76.72-.33s5.41-2.63 16.65-12.51c1.54-1.35 3-2.64 4.35-3.85 9.1-8.1 15.12-13.44 22.56-15.75a83.41 83.41 0 0013.32-5l2.11-.94 3.23-1.48c9-4.13 16.71-7.43 20.79-5.9a4.13 4.13 0 012.36 2.18 7 7 0 01.14 5.62c-1.4 3.52-5.63 6.79-12.58 9.7a85.93 85.93 0 00-10.77 5.37c1.79 0 3.88.06 6.08.26 1.6.14 3.18.31 4.77.47a130.85 130.85 0 0013.8.94c6.5 0 21.15.55 25.33.85a5.42 5.42 0 014.71 3 5.7 5.7 0 01-.41 5.53 8.46 8.46 0 014.89 1.94 5.12 5.12 0 011.56 4.13c-.17 3.26-1.73 7.1-7.84 7.82a11.12 11.12 0 01.47 3.15 6.55 6.55 0 01-2.11 4.83c-1.75 1.67-4.49 2.75-8.19 3.23a6.2 6.2 0 011.23 4.21 5.85 5.85 0 01-2.66 4.63c-3.29 2.26-9.14 2.24-12.25 1.37a104.49 104.49 0 01-17.2 1.54c-3.44 0-6.61.07-9.68.13-5.06.1-9.84.19-15.32 0-7.69-.26-15.89-.95-17.81-1.11a67.4 67.4 0 01-20.83 5.63zm-10.35-13.19L637 143.27a64.13 64.13 0 0019.52-5.45l.38-.19h.43c.09 0 9.41.85 18 1.15 5.4.18 10.14.09 15.16 0 3.08-.06 6.27-.13 9.74-.13a103.57 103.57 0 0017-1.55l.39-.08.37.12c2.34.77 7.52.82 10-.88a2.8 2.8 0 001.36-2.3 3.05 3.05 0 00-.79-2.43 6.1 6.1 0 00-3.59-1.35h-.17l-16.51.5c-9.12 1.13-22.09 0-22.64 0l-.51-.05-.38-.35c-12.59-11.79-26.39-9.82-26.53-9.8v-.17a80.69 80.69 0 01-14.72 3.56l-.39-3c.15 0 15-2 23.4-8 8.62-6.12 12.16-8.63 12.41-13.86l3 .14c-.32 6.69-4.76 9.84-13.61 16.12a31.54 31.54 0 01-3.61 2.2 38.48 38.48 0 0121.75 10.19c2.51.19 13.74.94 21.57 0h.14l15.88-.48v-.08a8.67 8.67 0 011.17 0c7.44.17 10.66-1.35 12-2.68a3.59 3.59 0 001.19-2.66 8.32 8.32 0 00-.5-2.77L715 120c-7.34 2-20.4.07-21 0l.44-3c.13 0 13.19 1.91 19.89 0h.34l21.74-.86-.18-.32h2.56c6 0 6.88-2.73 7-5.1a2.07 2.07 0 00-.62-1.79c-1.35-1.28-4.61-1.26-5.66-1.16h-.22c-3 .91-7.43.81-12.11.7a65.19 65.19 0 00-11.66.39c-7.77 1.34-20.56.06-21.1 0l.3-3c.13 0 12.93 1.29 20.29 0a68.31 68.31 0 0112.24-.43c4.35.1 8.85.2 11.32-.61.23-.3.63-.84 1.29-1.76a2.69 2.69 0 00.18-2.56 2.39 2.39 0 00-2.21-1.3c-3.73-.27-18.51-.85-25.12-.85a136.87 136.87 0 01-14.11-1c-1.57-.17-3.14-.33-4.74-.47a66.36 66.36 0 00-11.32 0l-.93-2.77c.51-.31 1.07-.66 1.69-1.06a88.13 88.13 0 0114.37-7.55c6.09-2.55 9.88-5.33 10.95-8a4 4 0 00-.09-3.28 1.06 1.06 0 00-.68-.6c-3.24-1.22-12.78 3.19-18.48 5.82l-3.2 1.56-2.1.93A85.79 85.79 0 01670.41 87c-6.82 2.12-12.65 7.3-21.46 15.13q-2.05 1.87-4.36 3.87c-9.39 8.26-14.78 11.57-16.63 12.59z"/></g><path class="e" d="M627.73 109s-2.79 9.85 1.44 23.36 10.47 17.88 10.47 17.88-8.51 5.93-20.41 19-33.45 23.55-33.45 23.55S573.87 204.06 554 214s-23.81 4.24-32.31-2.84-13.61-11.33-13.61-11.33l87-79.78 32.57-11z"/><path class="d" d="M536.92 220.84c-6.18 0-9.85-3.14-14.24-6.89-.62-.53-1.26-1.08-1.92-1.63-8.51-7.07-13.61-11.34-13.61-11.34l-1.32-1.1 88.55-81.15L630 106.67l-.78 2.74c0 .19-2.58 9.7 1.43 22.5s9.84 17.06 9.9 17.1l1.73 1.24-1.73 1.22c-.09.05-8.53 6-20.17 18.75-11.52 12.57-31.38 22.61-33.74 23.78-1.58 1.47-13.16 11.94-31.94 21.34-7.9 3.96-13.45 5.5-17.78 5.5zm-26.53-21.07c2 1.7 6.32 5.28 12.28 10.24.68.56 1.33 1.12 2 1.66 7.07 6.05 11.35 9.69 28.73 1a143.46 143.46 0 0031.39-21l.16-.16.21-.1c.21-.11 21.43-10.54 33-23.21a154.55 154.55 0 0119.14-18.07c-2.22-2.2-6.41-7.39-9.52-17.32a48.71 48.71 0 01-2-21.55l-29.82 10.11z"/><path class="i" d="M157.18 100.45l-32.58 16.1s3.67 16.16 29.18 36.5c27.1 21.62 56.69 60.24 99.21 90.71s119.12 45.13 161.58 28.37c46.29-18.29 95-55.06 127.55-86.36s80.6-69.22 90.15-75.17c0 0-7.94-14.92-37.71-22.73 0 0-14.65 15.66-30.59 23.43s-17.59 20.53-39.56 41.77-26.68 28.33-51.14 44.63-47.94 38.48-81.38 42.3-72.29-.54-104.18-19.63-55.15-42.14-71.57-60.91-31-19.78-59-59z"/><g class="b"><path class="i" d="M371 280.63a211.89 211.89 0 01-37.41-3.5c-31.06-5.6-60.74-17.32-81.42-32.15-25.4-18.2-46.19-39.29-64.54-57.89-12.25-12.43-23.83-24.16-34.74-32.86-25.63-20.44-29.54-36.67-29.7-37.35l-.26-1.15 34.78-17.19.74 1c17.49 24.53 29.67 34 40.43 42.3 6.31 4.9 12.27 9.52 18.44 16.57 22.21 25.38 45.51 45.21 71.22 60.6 38 22.78 81 21.95 103.23 19.43 26.19-3 46.25-17.44 65.64-31.43 4.93-3.56 10-7.24 15.07-10.6 18.8-12.52 25.69-19.4 38.21-31.9 3.63-3.63 7.74-7.73 12.73-12.56a175.08 175.08 0 0019.89-23.1c6.24-8.36 10.76-14.4 20.06-18.94 15.51-7.56 30-23 30.15-23.1l.61-.65.87.22c30 7.89 38.3 22.84 38.64 23.47l.66 1.24-1.19.74c-9.76 6.09-58 44.36-89.9 75-15 14.39-68.5 63.16-128 86.67-12.04 4.74-27.29 7.13-44.21 7.13zM126.38 117.35c2 6.13 9.81 19.76 28.33 34.53 11.06 8.82 22.69 20.61 35 33.1 18.27 18.52 39 39.51 64.15 57.56 43.05 30.86 119.38 44.29 160.14 28.19 59-23.31 112.19-71.75 127.07-86 30.85-29.61 77-66.4 89.15-74.55-3.6-5.3-14.48-15-35.19-20.59-3 3.1-16.07 16.11-30.41 23.1-8.65 4.21-13 10-19 18a177.44 177.44 0 01-20.21 23.46c-5 4.81-9.07 8.9-12.69 12.52-12.23 12.22-19.62 19.59-38.66 32.28-5 3.33-9.85 6.83-15 10.53-19.71 14.22-40.09 28.93-67.06 32-22.61 2.57-66.32 3.39-105.12-19.84-26-15.55-49.51-35.57-71.93-61.2-6-6.83-11.83-11.36-18-16.16-10.76-8.35-22.94-17.78-40.29-41.9z"/><path class="h" d="M159.74 437.63l-57.66-.8 2.92-3.93c65.32-87.71 73.73-177.88 73.81-178.78l5 .19c1 116.12-23.19 181-23.43 181.68zM111.9 432l44.37.62c3.29-9.6 19.53-61 22.19-147.24-1.74 7.63-4 16.47-7 26.26A410.11 410.11 0 01111.9 432zm-98.79 4L11 431.44c.26-.12 26.47-12.64 56.11-44 27.35-28.89 63.29-80.18 79.28-160.39l4.92.14c.15 1 3.53 25.74-2 63.64C144.12 325.78 130 378.78 92.05 433L88 430.12c37.37-53.33 51.26-105.45 56.33-139.78a282.56 282.56 0 003.11-44.85c-17.67 71.59-51 118.37-76.85 145.61C40.27 423 14.2 435.45 13.11 436zm581.07-.39l-.58-1.84c-30.08-94.79-43.31-199.24-43.44-200.29l4.74-1.37c28.58 60.7 70.57 197.38 71 198.76l.94 3.06zm-36.56-185.12c5 33.5 17.92 109.19 40.16 179.89l22.39-1.15c-5.83-18.78-37.3-119.15-62.55-178.74zm198.91 184.34l-112.48-2.94-.68-1.31a472.43 472.43 0 01-48.32-154.85c-5.21-40.49-3-67.12-3-67.39l5-.09c.13.95 12.56 96 63.12 148.58 26.33 27.4 50.46 41.15 66.07 47.86 16.9 7.26 27.73 8.07 27.83 8.08l2.32.15zM647.13 427l104.37 2.7-.09-12.2c-9.86-1.36-49.13-9.61-94.85-57.2-35.48-36.93-52.57-94-59.84-126.51.31 10.94 1.19 25 3.31 41.46A467.52 467.52 0 00647.13 427zM366.78 225.32a144.63 144.63 0 01-41.21-6.13c-35.52-10.53-58.2-30.71-59.15-31.56l3.35-3.72c.22.2 22.91 20.36 57.4 30.54a135.52 135.52 0 0060.08 4.25c24.65-3.91 48.6-15 71.2-33 53.06-42.28 77.3-75 77.53-75.34l4 3c-.24.33-24.82 33.56-78.45 76.3-23.32 18.58-48.1 30-73.65 34.08a134.8 134.8 0 01-21.1 1.58zm7.62-28.5a221.55 221.55 0 01-36.57-3c-26.66-4.45-53.36-13.75-79.34-27.64C214.3 142.5 187 113.29 186.77 113l3.68-3.4c.26.29 27.05 29 70.55 52.2 25.48 13.61 51.64 22.71 77.75 27.06a214.61 214.61 0 0096.94-6l1.42 4.8a220.38 220.38 0 01-62.71 9.16zm5.25-14a158.83 158.83 0 01-33.73-3.82c-25.92-5.66-51-17.06-74.54-33.88-14.87-10.6-34.31-29.12-42.5-57.12-4.92-16.83-3.42-29-3.36-29.51l5 .64c0 .27-1.39 11.93 3.27 27.71 4.32 14.63 14.86 35.91 40.54 54.24 48.23 34.45 97.54 40.41 125.1 35l1 4.91a109.39 109.39 0 01-20.78 1.85zm12.6-19.4a132.92 132.92 0 01-40.86-6.42c-32.36-10.44-51.86-29.48-52.68-30.28l3.52-3.56c.19.19 19.6 19.1 50.9 29.15a127.22 127.22 0 0055.73 5.17c23.38-3.06 46.75-12.73 69.46-28.75l2.88 4.09c-32.92 23.18-63.41 30.62-88.95 30.62zm8.68-21.87c-54.06-17.34-80-56.27-92.21-85.88C295.5 23.69 295-3.79 295-4.95l5-.05c0 .28.49 27.82 13.39 59 17.21 41.56 47.17 69.44 89 82.87zm-56.93-1c-32.43-16.18-52-43-62.71-62.6-11.58-21.23-15.48-38.42-15.64-39.14l4.88-1.08c.16.68 15.88 68.49 75.7 98.35zm58.85-14.88l-.72-5c74.68-10.85 164.11-46.31 165-46.66l1.87 4.67c-.92.32-90.87 36.04-166.15 46.97zM437 106.33l-2.27-4.46c48.27-24.59 91.6-35.06 107.78-37.16l.65 5c-.47.02-46.7 6.29-106.16 36.62zM412.7 102l-3.59-3.47c31.06-32.17 37.64-73.4 37.71-73.81l4.94.75c-.27 1.7-6.9 43.18-39.06 76.53zm47.88-19.53L457 78.94c25.3-26.14 59.74-34.28 61.19-34.61l1.12 4.87c-.31.08-34.48 8.17-58.73 33.22zm6.56-22.55L464 55.94l41-32.3 3.1 3.92zm-236.66-.75L228 58.8l2.48.32z"/><path class="l" d="M750.68 348.18c-11.79-16-24-40.38-15.45-65.69A54.31 54.31 0 01751 258.81l1.86 2.35A52.36 52.36 0 00738 283.6c-6.41 19-1.2 40.74 15.06 62.8zM704 286.6c-7.34-18.71-7.59-33.61-.73-44.31 9.29-14.48 28-15.69 28.82-15.74l.17 3c-.18 0-18 1.19-26.48 14.38-6.29 9.84-6 23.82 1 41.58zm10 0c-1.4-13.88.24-33 16-45.15a44.18 44.18 0 0119.77-8.59l.36 3a42 42 0 00-18.41 8.07C720 253 715.07 267.24 717 286.27zM-1 247.63a27.85 27.85 0 01-4.17-.26l.47-3c.26 0 26.23 3.7 53.25-24.61 25.87-27.09 17.17-58.74 17.07-59.06l2.89-.83c.09.33 9.3 33.59-17.79 62C28.7 244.9 7.68 247.62-1 247.63zm-3.8-16.53l-.33-3c.28 0 28.27-3.43 46-25.09 17.44-21.37 5.69-44.84 5.57-45.08l2.66-1.38c.13.26 12.81 25.43-5.9 48.35-18.53 22.66-46.8 26.1-48 26.2zm755.53-9c-10-12-20.2-30.81-12.54-52.07a51.22 51.22 0 0113.67-20.42l1.93 2.29A49.2 49.2 0 00741 171.12c-5.7 16-1.64 32.46 12.07 49zm-22.22-.42c-12.7-20.19-16.73-38.09-12-53.21 5.86-18.6 22.81-25.92 23.53-26.22l1.16 2.76c-.16.07-16.42 7.13-21.84 24.4-4.47 14.23-.55 31.28 11.65 50.67zm-732.7-9.19l-1.54-2.57c15.65-9.39 23.8-21.22 24.25-35.14a37.85 37.85 0 00-4-18.1l2.62-1.47c.2.29 18.32 33.44-21.33 57.24zm36.13-17.83l-2.74-1.24c13.05-28.71-4-42.07-4.71-42.62l1.8-2.4c.2.11 19.71 15.23 5.65 46.22zm-37.21-4l-1-2.81c.49-.19 12.13-4.86 12.13-25.31s-11.5-24.83-12-25l1-2.83c.57.2 14 5.14 14 27.83S-4.69 190.39-5.27 190.6zm638.86-94.43l-2.08-2.16a176.82 176.82 0 0125.88-19.68c14.2-8.89 35.62-19.27 57.05-18.24 16.37.79 30.55 8 42.13 21.52l-2.28 2c-11-12.84-24.47-19.73-40-20.48-39.59-1.95-80.29 36.65-80.7 37.04zm-617.32-.29l-2.94-.57c1.55-8 .48-14.09-3.19-18-6.14-6.5-17.62-5-17.74-5l-.4-3c.54-.07 13.14-1.66 20.32 6C16.69 80 18 86.9 16.27 95.94zm102.92-3.67c-.1-.08-10.25-9.1-41.55-32.63L75.51 58C43.36 33.86 25.65 20.54-7.18 18.49l.19-3c33.72 2.1 52.76 16.42 84.31 40.14l2.12 1.6C110.88 80.87 121.09 90 121.19 90zm-75.59-.35l-2.81-1.06c.07-.19 6.9-18.92-4.46-35.25C22 35-7.53 34.15-7.83 34.15l.06-3c1.27 0 31.3.83 46.56 22.75 12.29 17.65 5.12 37.19 4.81 38.02zm93.73-2.22c-.18-.16-18.44-16.51-44.72-39.54C56.44 18.47 33.15 4.33-9.21 4.32v-3c43.33 0 67 14.38 103.79 46.58 26.3 23 44.57 39.4 44.75 39.57zm20.21-2.47c-.6-.62-43-44.76-82.22-72a32.47 32.47 0 01-7.15 5.06l-1.29-2.71a28.75 28.75 0 006-4c-4.39-3-8.72-5.72-12.93-8.15a24.69 24.69 0 01-8.33 7.29L50.27 10a21.72 21.72 0 007-6.09c-9.43-5.2-18.2-8.69-25.57-9.5l.33-3c7.37.8 16.34 4.12 26.84 9.91a17.77 17.77 0 002-8.41h3a20.67 20.67 0 01-2.35 9.91q6.42 3.69 13.55 8.55c3.4-3.8 6.17-9.35 4.27-16.63l2.9-.74c2.16 8.25-.93 14.62-4.77 19A434.5 434.5 0 01112 40.13c26.2 22.54 47.53 44.81 47.74 45zm466 0l-2.19-2a204.37 204.37 0 0141.32-32.31l4-2.3-.36-.25a68.31 68.31 0 015.14-6.19c-6.1-6.12-4.74-16-4.68-16.4l3 .44c0 .18-1.15 8.72 3.78 13.77a107 107 0 0112.84-11.22 25.12 25.12 0 01-2.19-12.38l3 .34a22.08 22.08 0 001.7 10.25c2.22-1.56 4.62-3.1 7.16-4.58a16.41 16.41 0 01-.16-12.73l2.64 1.33-1.34-.67 1.35.67a12.77 12.77 0 00.08 9.91q3.47-1.87 7.28-3.56a29 29 0 01.93-15.57l2.79 1.1a25.15 25.15 0 00-1 13.31A91.88 91.88 0 01752 12l-.28 3a89.15 89.15 0 00-42.17 6 18.18 18.18 0 004.79 6.82l-2 2.23a20.84 20.84 0 01-5.51-7.89 94.618 94.618 0 00-6.84 3.37 23.45 23.45 0 004.7 5.38l-2 2.27a26.16 26.16 0 01-5.32-6.18c-2.54 1.49-4.92 3-7.13 4.59a19.94 19.94 0 005.8 6l-.14.22c18.56-5.82 40-8.16 62.07-1.76l-.83 2.95c-36.06-10.46-70.42 3.17-92.89 16.43a201.62 201.62 0 00-40.72 31.79zm64.26-53.85a102.15 102.15 0 00-15.33 14.1 155.24 155.24 0 0120.24-8.58 22.72 22.72 0 01-4.91-5.52zM28.3 85.3l-3-.37c1.21-9.75-.77-17.58-5.89-23.29C9.86 51-7.61 51.09-7.78 51.09v-3c.77 0 19-.13 29.48 11.55 5.68 6.36 7.92 15.01 6.6 25.66zm570.53-13.13L597 69.84c48.31-39.09 29-80.11 28.82-80.52l2.69-1.32c.22.45 5.31 11.06 4.21 26.83-1.83 26.24-19.44 45.67-33.89 57.34zM173 70.36c-.3-.42-30-43.13-6.24-76.91l2.46 1.73c-9.41 13.39-11.25 29.78-5.47 48.7a96.86 96.86 0 0011.7 24.75zm455.89-5.87L627.12 62c38.3-27 53-73.35 53.18-73.81l2.86.89c-.16.5-15.16 47.78-54.31 75.41zm-442.32-4.82c-.21-.3-20.87-30.24-.79-66.09l2.61 1.47c-19.12 34.15.43 62.61.63 62.89zM151 56.36c-.85-.89-20.86-22.32-12.85-60.93l2.93.61c-7.67 37 11.89 58 12.09 58.25zm433-1.11l-2.12-2.12c.14-.14 13.26-13.48 9.24-29.76-2.24-9-8.27-11.86-12.76-11.52-4 .3-6.92 2.84-7.22 6.19a14.62 14.62 0 003 10.85 11 11 0 007.52 4l-.25 3a14 14 0 01-9.57-5 17.6 17.6 0 01-3.68-13c.44-4.83 4.54-8.5 10-8.91 5.66-.44 13.21 2.92 15.9 13.79 4.41 17.83-9.47 31.89-10.06 32.48zm17.35-3.08l-2.52-1.63c9.32-14.37 12.41-27.06 9.2-37.72-3.92-13-16.18-18.49-16.31-18.55l1.2-2.75c.55.24 13.63 6 18 20.4 3.47 11.55.26 25.08-9.57 40.25zm-400.76-5.89c-.43-1-10.3-24.9 9.34-54.22l2.5 1.67c-18.7 27.9-9.18 51.13-9.08 51.37zm-70-1.25c-.63-.65-15.67-16.32-22.92-49l2.93-.65c7.05 31.75 22 47.37 22.14 47.53zm506-1.8l-2.15-2.09c27.11-27.86 17.31-48.83 16.88-49.7L654-9.9c.49.96 11.28 23.66-17.4 53.13zm33.15-15.06l-1.47-.17 1.48.22zm17.41-9.49l-1.49-.17 1.49.17zm22.48-13.83l-1.4-.55 1.4.54z"/></g><path d="M102.64 165.92L102 163c21-4.54 25-36.51 25.06-36.84l3 .36c-.19 1.39-4.38 34.42-27.42 39.4zm539.71-15.58c-.23-.11-5.62-3-10.88-14.46s-3.73-23.54-3.67-24.06l3 .39c0 .11-1.44 11.84 3.42 22.42 4.76 10.39 9.49 13 9.53 13.05z" fill="#e6d1a8"/><path class="i" d="M652.27 393.13a2.55 2.55 0 112.61-2.55 2.57 2.57 0 01-2.61 2.55zm0-3a.43.43 0 00-.39.45.42.42 0 00.39.45.45.45 0 000-.9zm-336.59 3a2.55 2.55 0 112.61-2.55 2.58 2.58 0 01-2.61 2.55zm0-3a.45.45 0 000 .9.45.45 0 000-.9zm342.53.25a2.56 2.56 0 112.61-2.55 2.58 2.58 0 01-2.61 2.55zm0-3a.45.45 0 10.4.45.43.43 0 00-.4-.45zm-336.59 3a2.56 2.56 0 112.61-2.55 2.58 2.58 0 01-2.61 2.55zm0-3a.45.45 0 10.4.45.43.43 0 00-.4-.45zm324.71 2.5a2.56 2.56 0 112.6-2.55 2.59 2.59 0 01-2.6 2.55zm0-3a.45.45 0 10.39.45.43.43 0 00-.39-.45zm-336.59 3a2.56 2.56 0 112.61-2.55 2.59 2.59 0 01-2.61 2.55zm0-3a.45.45 0 10.39.45.43.43 0 00-.39-.45zm342.65-.19a2.55 2.55 0 112.61-2.55 2.58 2.58 0 01-2.61 2.55zm0-3a.43.43 0 00-.39.45.4.4 0 10.39-.45zm-336.58 3a2.55 2.55 0 112.6-2.55 2.58 2.58 0 01-2.6 2.55zm0-3a.45.45 0 000 .9.45.45 0 000-.9zm342.4.25a2.56 2.56 0 112.61-2.55 2.58 2.58 0 01-2.61 2.55zm0-3a.45.45 0 000 .89.45.45 0 000-.89zm-336.59 3a2.56 2.56 0 112.61-2.55 2.58 2.58 0 01-2.61 2.55zm0-3a.45.45 0 10.4.45.43.43 0 00-.4-.45zm325.06 2.55a2.56 2.56 0 112.6-2.56 2.59 2.59 0 01-2.6 2.56zm0-3a.45.45 0 10.39.44.42.42 0 00-.39-.44zm-336.59 3a2.56 2.56 0 112.6-2.56 2.59 2.59 0 01-2.6 2.56zm0-3a.45.45 0 000 .89.45.45 0 000-.89zm342.46-.06a2.55 2.55 0 112.6-2.55 2.58 2.58 0 01-2.6 2.55zm0-3a.43.43 0 00-.4.45.43.43 0 00.4.45.45.45 0 000-.9zm-336.59 3a2.55 2.55 0 112.6-2.55 2.58 2.58 0 01-2.56 2.55zm0-3a.45.45 0 000 .9.42.42 0 00.39-.45.43.43 0 00-.35-.45zm186.54-98.11a2.55 2.55 0 112.6-2.55 2.58 2.58 0 01-2.6 2.55zm0-3a.45.45 0 000 .9.45.45 0 000-.9zm-379.62 3a2.55 2.55 0 112.61-2.55 2.58 2.58 0 01-2.61 2.55zm0-3a.43.43 0 00-.39.45.39.39 0 10.39-.45zm385.56.25A2.56 2.56 0 11511 274a2.59 2.59 0 01-2.56 2.57zm0-3a.45.45 0 10.39.45.42.42 0 00-.39-.45zm-379.62 3a2.56 2.56 0 112.61-2.55 2.58 2.58 0 01-2.61 2.55zm0-3a.45.45 0 000 .89.45.45 0 000-.89zm367.73 2.5a2.56 2.56 0 112.61-2.55 2.58 2.58 0 01-2.61 2.55zm0-3a.45.45 0 10.4.45.43.43 0 00-.4-.45zm-379.61 3a2.56 2.56 0 112.6-2.55 2.59 2.59 0 01-2.6 2.55zm0-3a.45.45 0 000 .89.45.45 0 000-.89zm385.68-.19a2.55 2.55 0 112.6-2.55 2.58 2.58 0 01-2.6 2.55zm0-3a.44.44 0 00-.4.45.43.43 0 00.4.45.42.42 0 00.39-.45.43.43 0 00-.39-.45zm-379.62 3a2.55 2.55 0 112.61-2.55 2.58 2.58 0 01-2.61 2.55zm0-3a.45.45 0 10.4.45.43.43 0 00-.4-.45zm385.44.25a2.56 2.56 0 112.6-2.55 2.59 2.59 0 01-2.6 2.55zm0-3a.45.45 0 10.39.45.42.42 0 00-.39-.45zm-379.62 3a2.56 2.56 0 112.61-2.55 2.58 2.58 0 01-2.61 2.55zm0-3a.45.45 0 000 .89.45.45 0 000-.89zm368.08 2.55a2.56 2.56 0 112.61-2.56 2.59 2.59 0 01-2.61 2.56zm0-3a.45.45 0 10.4.44.42.42 0 00-.4-.44zm-379.61 3a2.56 2.56 0 112.6-2.56 2.59 2.59 0 01-2.6 2.56zm0-3a.45.45 0 10.39.44.42.42 0 00-.39-.44zm385.48-.06a2.55 2.55 0 112.61-2.55 2.58 2.58 0 01-2.61 2.55zm0-3a.45.45 0 10.4.45.43.43 0 00-.4-.45zm-379.61 3a2.55 2.55 0 112.6-2.55 2.58 2.58 0 01-2.6 2.55zm0-3a.45.45 0 000 .9.45.45 0 000-.9zm158.22-129.24a2.56 2.56 0 112.61-2.56 2.59 2.59 0 01-2.61 2.56zm0-3a.45.45 0 10.39.44.42.42 0 00-.39-.44zm5.94.24a2.55 2.55 0 112.61-2.55 2.58 2.58 0 01-2.61 2.55zm0-3a.45.45 0 000 .9.45.45 0 000-.9zm-11.88 2.5a2.55 2.55 0 112.6-2.55 2.58 2.58 0 01-2.6 2.55zm0-3a.43.43 0 00-.4.45.43.43 0 00.4.45.45.45 0 000-.9zm6.06-.18a2.56 2.56 0 112.61-2.56 2.59 2.59 0 01-2.61 2.56zm0-3a.45.45 0 10.4.44.42.42 0 00-.4-.44zm5.82.24a2.55 2.55 0 112.61-2.55 2.58 2.58 0 01-2.61 2.55zm0-3a.45.45 0 000 .9.45.45 0 000-.9zm-11.53 2.55a2.56 2.56 0 112.6-2.55 2.58 2.58 0 01-2.6 2.55zm0-3a.43.43 0 00-.4.45.4.4 0 10.79 0 .43.43 0 00-.39-.45zm5.87 0a2.56 2.56 0 112.6-2.56 2.59 2.59 0 01-2.6 2.51zm0-3a.45.45 0 000 .89.45.45 0 000-.89zm-25.22-55.47a2.56 2.56 0 112.6-2.55 2.59 2.59 0 01-2.6 2.55zm0-3a.45.45 0 10.39.45.43.43 0 00-.39-.45zm5.94.25A2.56 2.56 0 11265 58a2.59 2.59 0 01-2.62 2.51zm0-3a.45.45 0 10.39.44.42.42 0 00-.39-.44zM250.49 60a2.56 2.56 0 112.61-2.55 2.58 2.58 0 01-2.61 2.55zm0-3a.45.45 0 10.4.45.43.43 0 00-.4-.45zm6.07-.19a2.56 2.56 0 112.6-2.55 2.58 2.58 0 01-2.6 2.56zm0-3a.45.45 0 000 .89.45.45 0 000-.89zm5.82.25a2.56 2.56 0 112.6-2.56 2.59 2.59 0 01-2.6 2.57zm0-3a.45.45 0 10.39.44.42.42 0 00-.39-.43zm-11.54 2.54a2.55 2.55 0 112.61-2.55 2.57 2.57 0 01-2.61 2.56zm0-3a.43.43 0 00-.39.45.42.42 0 00.39.45.43.43 0 00.4-.45.43.43 0 00-.4-.44zm5.87 0a2.55 2.55 0 112.61-2.6 2.58 2.58 0 01-2.61 2.56zm0-3a.45.45 0 000 .9.45.45 0 000-.9zM462.8 26.12a2.55 2.55 0 112.6-2.55 2.58 2.58 0 01-2.6 2.55zm0-3a.45.45 0 10.39.45.43.43 0 00-.39-.45zm5.94.25a2.56 2.56 0 112.6-2.55 2.59 2.59 0 01-2.6 2.55zm0-3a.45.45 0 000 .89.45.45 0 000-.89zm-11.88 2.5a2.56 2.56 0 112.6-2.55 2.58 2.58 0 01-2.6 2.55zm0-3a.45.45 0 10.39.45.43.43 0 00-.39-.45zm6.06-.19a2.55 2.55 0 112.61-2.55 2.57 2.57 0 01-2.61 2.55zm0-3a.45.45 0 000 .9.45.45 0 000-.9zm5.82.25a2.56 2.56 0 112.6-2.55 2.59 2.59 0 01-2.6 2.55zm0-3a.45.45 0 000 .89.45.45 0 000-.89zm-11.54 2.55a2.56 2.56 0 112.61-2.56 2.59 2.59 0 01-2.61 2.56zm0-3a.45.45 0 10.4.44.42.42 0 00-.4-.44zm5.87-.06a2.55 2.55 0 112.61-2.55 2.58 2.58 0 01-2.61 2.55zm0-3a.45.45 0 10.4.45.43.43 0 00-.4-.45z"/><g class="b"><path class="l" d="M384.28 77.55l-1.45-1.37 7.48-7.94 1.45 1.38zm-.72-3h-2V63.26h2zm-9.64-30.7l-2.83-9.16 1.91-.59 2.83 9.16zm-7.8-.3l-1.76-.94 4.39-8.22 1.76.94zm35.12-17.48l-6.64-6.66 1.4-1.36 6.64 6.66zm-4.64-9.17l-.36-2 9.5-1.75.36 2zm-36.77-1.81l-1.32-1.5 8.26-7.34 1.33 1.49zM355.45 7l-.26-2L366 3.59l.26 2z"/><path class="i" d="M380 112.16C378.31 110.8 339 78 324.23-4.33l4.92-.88c7.52 42 21.8 70.6 32.45 87.22 11.55 18 21.44 26.19 21.54 26.27zm13.13-5.74l-4.13-2.84c.34-.5 34.57-50.66 41.5-114.43l5 .54c-7.1 65.07-42.04 116.23-42.39 116.73zm26.28-27.57l-4.28-2.59c.13-.22 13.26-22.17 20.28-54.7l4.89 1.05c-7.23 33.39-20.36 55.32-20.91 56.24z"/><path class="h" d="M753.93 396.43c-40.08-13.36-68.78-40.09-85.8-60.16-18.43-21.73-27.27-40-27.64-40.81l4.51-2.16c.35.73 35.92 73.53 110.51 98.39zM-13 362.5l-1-4.9c56-11.21 86.11-60.47 86.41-61l4.28 2.57c-.26.55-31.47 51.68-89.69 63.33z"/><path class="l" d="M236.91 460.25c-.79-.82-7.23-11 9.5-114.39l3 .48c-16.25 100.38-10.43 111.56-10.17 112a.86.86 0 00-.13-.16zm-28.62-17.77l-3-.46c13.21-84.16 40.84-179.43 41.12-180.38l2.88.84c-.24.95-27.82 96.04-41 180zm19.85-5.72l-3-.45c4.67-31.16 13.24-70.5 19.61-98C250.41 314 254.94 296.19 255 296l2.91.74c-.05.18-4.56 17.93-10.19 42.22-6.37 27.47-14.92 66.73-19.58 97.8zm280.05-2.29h-3c.7-95.63-9.05-130.38-9.15-130.72l2.88-.84c.08.32 9.97 35.36 9.27 131.56zm11.93-2.83h-3c.58-64.26-6.84-93.62-6.92-93.91l2.9-.75c.08.26 7.61 30.02 7.02 94.66z"/><path class="i" d="M393.4 450.21l-4.68-1.74c30.58-82 21.14-154.32 21-155l4.95-.68c.15.69 9.78 74.21-21.27 157.42z"/></g></svg>
