<svg xmlns="http://www.w3.org/2000/svg" viewBox="0 0 749 428">
  <defs>
    <clipPath id="a">
      <path fill="none" d="M-.44 0h749.88v428H-.44z"/>
    </clipPath>
    <clipPath id="b">
      <path fill="none" d="M-.44 0h749.88v428H-.44z"/>
    </clipPath>
    <clipPath id="c">
      <path fill="none" d="M-.44 0h749.88v428H-.44z"/>
    </clipPath>
    <clipPath id="d">
      <path fill="none" d="M-.44 0h749.88v428H-.44z"/>
    </clipPath>
    <clipPath id="e">
      <path fill="none" d="M-.44 0h749.88v428H-.44z"/>
    </clipPath>
    <clipPath id="f">
      <path fill="none" d="M-.44 0h749.88v428H-.44z"/>
    </clipPath>
    <clipPath id="g">
      <path fill="none" d="M-.44 0h749.88v428H-.44z"/>
    </clipPath>
    <clipPath id="h">
      <path fill="none" d="M-.44 0h749.88v428H-.44z"/>
    </clipPath>
    <clipPath id="i">
      <path fill="none" d="M-.44 0h749.88v428H-.44z"/>
    </clipPath>
    <clipPath id="j">
      <path fill="none" d="M-.44 0h749.88v428H-.44z"/>
    </clipPath>
    <clipPath id="k">
      <path fill="none" d="M-.44 0h749.88v428H-.44z"/>
    </clipPath>
    <clipPath id="l">
      <path fill="none" d="M-.44 0h749.88v428H-.44z"/>
    </clipPath>
    <clipPath id="m">
      <path fill="none" d="M-.44 0h749.88v428H-.44z"/>
    </clipPath>
    <clipPath id="n">
      <path fill="none" d="M-.44 0h749.88v428H-.44z"/>
    </clipPath>
    <clipPath id="o">
      <path fill="none" d="M-.44 0h749.88v428H-.44z"/>
    </clipPath>
    <clipPath id="p">
      <path fill="none" d="M-.44 0h749.88v428H-.44z"/>
    </clipPath>
    <clipPath id="q">
      <path fill="none" d="M-.44 0h749.88v428H-.44z"/>
    </clipPath>
    <clipPath id="r">
      <path fill="none" d="M-.44 0h749.88v428H-.44z"/>
    </clipPath>
    <clipPath id="s">
      <path fill="none" d="M-.44 0h749.88v428H-.44z"/>
    </clipPath>
    <clipPath id="t">
      <path fill="none" d="M-.44 0h749.88v428H-.44z"/>
    </clipPath>
    <clipPath id="u">
      <path fill="none" d="M-.44 0h749.88v428H-.44z"/>
    </clipPath>
    <clipPath id="v">
      <path fill="none" d="M-.44 0h749.88v428H-.44z"/>
    </clipPath>
    <clipPath id="w">
      <path fill="none" d="M-.44 0h749.88v428H-.44z"/>
    </clipPath>
    <clipPath id="x">
      <path fill="none" d="M-.44 0h749.88v428H-.44z"/>
    </clipPath>
    <clipPath id="y">
      <path fill="none" d="M-.44 0h749.88v428H-.44z"/>
    </clipPath>
  </defs>
  <g clip-path="url(#a)">
    <path fill="#86869e" d="M-3.86-62.25v494.39h760.85V-62.25H-3.86z"/>
    <path fill="none" stroke="#000" stroke-width=".25" d="M-3.86-62.25v494.39h760.85V-62.25H-3.86z"/>
    <path fill="#d7bfa5" d="M-.61 457.31c18.81 0 34.06-27.98 34.06-62.5s-15.25-62.5-34.06-62.5-34.06 27.98-34.06 62.5 15.25 62.5 34.06 62.5Z"/>
    <path fill="none" stroke="#891814" d="M-.61 457.31c18.81 0 34.06-27.98 34.06-62.5s-15.25-62.5-34.06-62.5-34.06 27.98-34.06 62.5 15.25 62.5 34.06 62.5Z"/>
    <path fill="#28546c" d="M910.19 133.24 857.04-66h-924.8l-74.53 226.88 130.02-31.37S69.35-24.1 376.94-24.1s389.8 147.77 389.8 147.77l143.45 9.57Z"/>
    <path fill="none" stroke="#d7bfa5" stroke-width="31" d="M910.19 133.24 857.04-66h-924.8l-74.53 226.88 130.02-31.37S69.35-24.1 376.94-24.1s389.8 147.77 389.8 147.77l143.45 9.57Z"/>
    <path fill="#d69742" d="M423.22 83.89v-9.35s4.23-9.07 19.25-16.44l1.42-22.66-6.5-5.12 23.79-14.17 30.61 5.78-9.07 8.11.28 19.92 17.86-2.34.02-10.2L520.14 36v9.07l17.01-1.13v-8.79l18.14-1.12v10.76l16.75 7.65.05-9.92 16.65 5.67.04 11.34 13.57 5.95.85-11.91 17.01 7.37.05 9.07 19.23 8.79.05-11.34 19.79 7.09.04 11.34 96.62 19.01 6.8 70.57-229.61-5.1-109.96-86.46Z"/>
    <path fill="none" stroke="#e7823a" stroke-width=".5" d="M423.22 83.89v-9.35s4.23-9.07 19.25-16.44l1.42-22.66-6.5-5.12 23.79-14.17 30.61 5.78-9.07 8.11.28 19.92 17.86-2.34.02-10.2L520.14 36v9.07l17.01-1.13v-8.79l18.14-1.12v10.76l16.75 7.65.05-9.92 16.65 5.67.04 11.34 13.57 5.95.85-11.91 17.01 7.37.05 9.07 19.23 8.79.05-11.34 19.79 7.09.04 11.34 96.62 19.01 6.8 70.57-229.61-5.1-109.96-86.46Z"/>
  </g>
  <path fill="#cda37d" d="m551.35 97.64 31.72.85.59 15.73-32.32-5.09.01-11.49z"/>
  <path fill="none" stroke="#000" stroke-width=".25" d="m551.35 97.64 31.72.85.59 15.73-32.32-5.09.01-11.49z"/>
  <path fill="#d6ae62" d="M648.83 161.28v-47.34l13.61 7.65.06 43.37h-13.79l.12-3.68z"/>
  <path fill="none" stroke="#000" stroke-width=".25" d="M648.83 161.28v-47.34l13.61 7.65.06 43.37h-13.79l.12-3.68z"/>
  <path fill="#8f531d" d="M674.2 130.09v-16.37l-11.57 8.19v42.06l8.74 1.12 2.83-35z"/>
  <path fill="none" stroke="#000" stroke-width=".25" d="M674.2 130.09v-16.37l-11.57 8.19v42.06l8.74 1.12 2.83-35z"/>
  <path fill="#4a100e" d="m665.98 151.21-.7-26.79 5.24-4.1.08 14.88-4.62 16.01z"/>
  <path fill="none" stroke="#000" stroke-width=".25" d="m665.98 151.21-.7-26.79 5.24-4.1.08 14.88-4.62 16.01z"/>
  <path fill="#8f531d" d="m550.61 97.85 33.67 1.13-10.54-18.63-32.27-2.63 9.14 20.13z"/>
  <path fill="none" stroke="#000" stroke-width=".25" d="m550.61 97.85 33.66 1.13-10.54-18.64-32.27-2.62 9.14 20.13Zm.17-3.61 24.3 1.19 7.57.37m-7.59-.43-8.35-15.8m-7.14-.27 8.27 15.71M551.48 78.5l7.97 16.09m-7.84-4.9 27.78.86m-31.63-6.23 28.81.92"/>
  <path fill="#af601d" d="m552.03 111.28-.42-7.26 24.97.7.68 8.93-25.23-2.37z"/>
  <path fill="none" stroke="#000" stroke-width=".25" d="m552.03 111.28-.42-7.26 24.97.7.68 8.93-25.23-2.37z"/>
  <path fill="#cda37d" d="m512.91 111.67.27-24.52 26.95-12.08 12.47 14.08s.09 22.91.09 22.53-9.45 53.57-9.45 53.57l-20.83 4.11-6.8-9.07-7.35-24.66 3.24-18.85 1.41-5.1Z"/>
  <path fill="none" stroke="#000" stroke-width=".25" d="m512.91 111.67.27-24.52 26.95-12.08 12.47 14.08s.09 22.91.09 22.53-9.45 53.57-9.45 53.57l-20.83 4.11-6.8-9.07-7.35-24.66 3.24-18.85 1.41-5.1Z"/>
  <path fill="#8f531d" d="M666.12 151.64V138.6l13.75-17.58 37.56 1.28.71 44.79-15.02.85-34.71-1.14-2.29-15.16z"/>
  <path fill="none" stroke="#cda37d" stroke-width=".5" d="M666.12 151.64V138.6l13.75-17.58 37.56 1.28.71 44.79-15.02.85-34.71-1.14-2.29-15.16z"/>
  <path fill="#4a100e" d="m431.42 77.85 10.2-5.54.06 16.04-10.26-10.5z"/>
  <path fill="none" stroke="#000" stroke-width=".25" d="m431.42 77.85 10.2-5.54.06 16.04-10.26-10.5z"/>
  <path fill="#af601d" d="m534.88 118.29-.62-25.75 16.96-.01.26 17.15"/>
  <path fill="none" stroke="#000" stroke-width=".25" d="m534.88 118.29-.62-25.76h16.96l.26 17.15m-65.62-16.27s2.45 4.31 14.75 4.31 13.48-3.61 13.48-3.61m-25.78 3.74s2.4 3.56 11.93 3.56 13.64-3.12 13.64-3.12"/>
  <path fill="#8f531d" d="M485.98 96.42v-5.71h28.11l-.91 19.97-11.46 10.06-14.89-11.2-.85-13.12z"/>
  <path fill="none" stroke="#000" stroke-width=".25" d="M485.98 96.42v-5.71h28.11l-.91 19.97-11.46 10.06-14.89-11.2-.85-13.12z"/>
  <path fill="#e6c862" d="m463.57 84.85-.51-59.47 19.1 3.55 9.64-7.09-29.24-6.1-26.04 14.66 7.33 5.89-2.03 49.13s21.76 12.18 21.76 12.94V84.85Z"/>
  <path fill="none" stroke="#000" stroke-width=".25" d="m547.64 112.52-.15-16.1h-8.21v19.22"/>
  <path fill="#8f531d" d="M540.48 115.64V97.51h6.16v15.15l-6.16 2.98z"/>
  <path fill="none" stroke="#000" stroke-width=".25" d="M540.48 115.64V97.51h6.16v15.15l-6.16 2.98z"/>
  <path fill="#af601d" d="M517.73 152.77s8.65 3.58 11.91 7.81l-.85-64.29-11.1-3.89.05 60.36Z"/>
  <path fill="none" stroke="#000" stroke-width=".25" d="M517.73 152.77s8.65 3.58 11.91 7.81l-.85-64.29-11.1-3.89.05 60.36Zm133.09 8.65v-45.2l10.64 5.94-1.28 41.93"/>
  <path fill="#d6ae62" d="m420.39 112.24.82-34.87 1.89-2.55 17.13 7.65.05-7.81 12.4 4.69.04 8.79 8.46 6.24.07-13.32 13.25 5.66.05 15.03 6.19 4.25.07-13.61 14.39 4.03.03 16.97 6.77 4.52.07-14.18 11.84 6.24.05 16.44-7.12 21.54-79.37-4.53-9.38-10.19 2.3-20.99z"/>
  <path fill="none" stroke="#4a100e" stroke-width=".5" d="m420.39 112.24.82-34.87 1.89-2.55 17.13 7.65.05-7.81 12.4 4.69.04 8.79 8.46 6.24.07-13.32 13.25 5.66.05 15.03 6.19 4.25.07-13.61 14.39 4.03.03 16.97 6.77 4.52.07-14.18 11.84 6.24.05 16.44-7.12 21.54-79.37-4.53-9.38-10.19 2.3-20.99z"/>
  <g clip-path="url(#b)">
    <path fill="#8f531d" d="m717.72 167.65.55-18.43s.12-.2.39-.52c1.67-1.97 9.19-8.49 31.37-1.18l.59 21.83-32.91-1.7Z"/>
    <path fill="none" stroke="#000" stroke-width=".25" d="m717.72 167.65.55-18.43s.12-.2.39-.52c1.67-1.97 9.19-8.49 31.37-1.18l.59 21.83-32.91-1.7Z"/>
    <path fill="#edcea5" d="M719.28 148.95s.14 6.8 16.58 7.37c16.44.57 16.87-7.94 16.87-7.94s-4.54.57-9.35-7.65c-4.82-8.22-9.2-17.43-9.2-17.43l-8.94 21.19s-4.68.64-5.95 4.47Z"/>
    <path fill="none" stroke="#000" stroke-width=".25" d="M719.28 148.95s.14 6.8 16.58 7.37c16.44.57 16.87-7.94 16.87-7.94s-4.54.57-9.35-7.65c-4.82-8.22-9.2-17.43-9.2-17.43l-8.94 21.19s-4.68.64-5.95 4.47Zm2.55 16.44v-10.35s2.55 3.4 9.21 3.97c6.66.57 15.17.99 19.42-4.54m-86.04 9.62-.71-40.99 7.79-5.48.07 15.58"/>
  </g>
  <path fill="#8f531d" d="m521.7 145.68-1.13-46.02 4.25 1.87 1.13 44.72-4.25-.57z"/>
  <path fill="none" stroke="#000" stroke-width=".25" d="m521.7 145.68-1.13-46.02 4.25 1.87 1.13 44.72-4.25-.57z"/>
  <path fill="#af601d" d="M513.05 152.49v-26.08h-24.63v-11.06h-15.33v11.34l-15.6-.28v-11.18h-13.88v12.6l-7.09-.27 3.97 20.52 41.67 15.18 21.26 3.69 7.65.12 1.98-14.58z"/>
  <path fill="none" stroke="#e7823a" stroke-width=".75" d="M513.05 152.49v-26.08h-24.63v-11.06h-15.33v11.34l-15.6-.28v-11.18h-13.88v12.6l-7.09-.27 3.97 20.52 41.67 15.18 21.26 3.69 7.65.12 1.98-14.58z"/>
  <path fill="none" stroke="#000" stroke-width=".25" d="M658.76 163.97V124l-6.24-4.54-.07 44.51h6.31z"/>
  <g clip-path="url(#c)">
    <path fill="#d6ae62" d="m533.6 125.98-9.07-4.53 30.48-13.03 31.04 5.37-4.82 5.96v40.96l84.61 2.83.01-12.47 16.43.57.57 14.19h12.75v-11.64h15.88v11.77h17.86v-9.79l15.3-.85.01 12.47 7.08.57 3.62 264.62-204.45 16.3-17.3-323.3z"/>
    <path fill="#e6c862" d="m394.28 330.24 4.25-38.85 1.14-16.73 1.42-68.6 3.68-97.51h13.19l3.53 2.73.08 20.53 9 4.25.05-12.49 13.55 6.24.05 15.02 9.31 5.96 1.7-9.64 14.74 3.12.02 11.05 9.62 3.97.04-11.89 15.83 3.39.03 13.04 13.01.58v-11.92l13.04-.57v13.32l9.35-.56v-38.84l27.21-10.74 1.14 92.1 2.27 229.33-142.56 14.64-24.69-120.93z"/>
    <path fill="none" stroke="#000" stroke-width=".5" d="m394.28 330.24 4.25-38.85 1.14-16.73 1.42-68.6 3.68-97.51h13.19l3.53 2.73.08 20.53 9 4.25.05-12.49 13.55 6.24.05 15.02 9.31 5.96 1.7-9.64 14.74 3.12.02 11.05 9.62 3.97.04-11.89 15.83 3.39.03 13.04 13.01.58v-11.92l13.04-.57v13.32l9.35-.56v-38.84l27.21-10.74 1.14 92.1 2.27 229.33-142.56 14.64-24.69-120.93z"/>
  </g>
  <path fill="#edcea5" d="M486.27 90.58s2.6 4.38 13.77 4.38 14.18-4.38 14.18-4.38-.29-15.06-13.98-18.46c0 0-9.44.43-13.97 18.46Z"/>
  <path fill="none" stroke="#000" stroke-width=".25" d="M486.27 90.58s2.6 4.38 13.77 4.38 14.18-4.38 14.18-4.38-.29-15.06-13.98-18.46c0 0-9.44.43-13.97 18.46Z"/>
  <path fill="#cda37d" d="M500.04 69.65s-2.79.78-2.79 3.05c0 3.05 5.81 3.05 5.81 0 0-2.06-3.02-3.05-3.02-3.05Z"/>
  <path fill="none" stroke="#000" stroke-width=".25" d="M500.04 69.65s-2.79.78-2.79 3.05c0 3.05 5.81 3.05 5.81 0 0-2.06-3.02-3.05-3.02-3.05Zm-5.95 5.45s.78 2.62 6.15 2.62 6.89-2.27 6.89-2.27m-16.4 3.98s.46 2.21 9.87 2.21 9.69-2.78 9.69-2.78m-21.87 5.05s1.57 2.89 12.18 2.89 12.2-3.25 12.2-3.25m-25.97 4.89s1.63 2.83 13.68 2.83 13.25-4.36 13.25-4.36"/>
  <path fill="#4a100e" d="m512.91 87.59 19.14 3.81 8.24-16.48-20.01-2.51-7.37 15.18z"/>
  <path fill="none" stroke="#000" stroke-width=".25" d="m512.91 87.59 19.14 3.81 8.24-16.48-20.01-2.51-7.37 15.18z"/>
  <path fill="#4a100e" d="m660.46 105.72-11.88 8 13.92 8.3 11.83-8.54-13.87-7.76z"/>
  <path fill="none" stroke="#000" stroke-width=".25" d="m660.46 105.72-11.88 8 13.92 8.3 11.83-8.54-13.87-7.76z"/>
  <path fill="#edcea5" d="M520.3 209.76h15.01s-.28-4.13-1.13-8.95c-.85-4.82-3.95-8.79-6.94-8.79s-5.5 2.84-6.21 7.65c-.72 4.82-.72 10.08-.72 10.08Z"/>
  <path fill="none" stroke="#000" stroke-width=".25" d="M520.3 209.76h15.01s-.28-4.13-1.13-8.95c-.85-4.82-3.95-8.79-6.94-8.79s-5.5 2.84-6.21 7.65c-.72 4.82-.72 10.08-.72 10.08Z"/>
  <path fill="#edcea5" d="m443.89 198.55 13.63.57v-9.92c0-4.25-2.72-10.21-5.56-10.21s-5.7 3.43-6.52 8.1c-.82 4.66-1.56 11.46-1.56 11.46Z"/>
  <path fill="none" stroke="#000" stroke-width=".25" d="m443.89 198.55 13.63.57v-9.92c0-4.25-2.72-10.21-5.56-10.21s-5.7 3.43-6.52 8.1c-.82 4.66-1.56 11.46-1.56 11.46Z"/>
  <path fill="#edcea5" d="m418.12 191.18 11.6.71v-11.62c0-5.37-2.56-7.96-4.4-7.96s-4.68 1.94-5.53 7.5c-.85 5.56-1.68 11.37-1.68 11.37Z"/>
  <path fill="none" stroke="#000" stroke-width=".25" d="m418.12 191.18 11.6.71v-11.62c0-5.37-2.56-7.96-4.4-7.96s-4.68 1.94-5.53 7.5c-.85 5.56-1.68 11.37-1.68 11.37Z"/>
  <path fill="#8f531d" d="m418.8 187.07 8.5.43v-6.66c0-3.4-2.15-6.95-4.19-8.36 0 0-1.88 1.7-2.73 5.95-.85 4.25-1.58 8.65-1.58 8.65Z"/>
  <path fill="none" stroke="#000" stroke-width=".25" d="m418.8 187.07 8.5.43v-6.66c0-3.4-2.15-6.95-4.19-8.36 0 0-1.88 1.7-2.73 5.95-.85 4.25-1.58 8.65-1.58 8.65Z"/>
  <path fill="#8f531d" d="M444.76 196s5.05.28 9.61-.71c0 0 .03-2.69.03-6.52s-1.47-6.69-4.14-8.8c0 0-3.07 2.17-4.09 5.7-1.02 3.53-1.42 10.33-1.42 10.33Z"/>
  <path fill="none" stroke="#000" stroke-width=".25" d="M444.76 196s5.05.28 9.61-.71c0 0 .03-2.69.03-6.52s-1.47-6.69-4.14-8.8c0 0-3.07 2.17-4.09 5.7-1.02 3.53-1.42 10.33-1.42 10.33Z"/>
  <path fill="#8f531d" d="M520.42 206.93s7.23.27 10.21-.72c0 0-.28-.99-.57-4.39-.28-3.4-1.98-7.37-6.38-8.36 0 0-1.84 2.55-2.55 7.23s-.71 6.25-.71 6.25Z"/>
  <path fill="none" stroke="#000" stroke-width=".25" d="M520.42 206.93s7.23.27 10.21-.72c0 0-.28-.99-.57-4.39-.28-3.4-1.98-7.37-6.38-8.36 0 0-1.84 2.55-2.55 7.23s-.71 6.25-.71 6.25Z"/>
  <path fill="#8f531d" d="m394.16 330.45 5.44-58.98 4.96-163.18-3.19 227.35-7.21-5.19z"/>
  <path fill="none" stroke="#000" stroke-width=".25" d="m394.16 330.45 5.44-58.98 4.96-163.18-3.19 227.35-7.21-5.19z"/>
  <path fill="#d69742" d="M471.11 288.94c11.83 0 21.41-9.59 21.41-21.41s-9.58-21.41-21.41-21.41-21.41 9.59-21.41 21.41 9.58 21.41 21.41 21.41Z"/>
  <path fill="none" stroke="#000" stroke-width=".25" d="M471.11 288.94c11.83 0 21.41-9.59 21.41-21.41s-9.58-21.41-21.41-21.41-21.41 9.59-21.41 21.41 9.58 21.41 21.41 21.41Z"/>
  <path fill="none" stroke="#ffecd0" d="M471.25 286.17c10.35 0 18.73-8.39 18.73-18.73s-8.39-18.73-18.73-18.73-18.73 8.39-18.73 18.73 8.39 18.73 18.73 18.73Z"/>
  <path fill="#891814" d="M471.38 277.36c5.41 0 9.79-4.38 9.79-9.79s-4.38-9.79-9.79-9.79-9.79 4.38-9.79 9.79 4.38 9.79 9.79 9.79Z"/>
  <path fill="none" stroke="#000" stroke-width=".25" d="M471.38 277.36c5.41 0 9.79-4.38 9.79-9.79s-4.38-9.79-9.79-9.79-9.79 4.38-9.79 9.79 4.38 9.79 9.79 9.79Z"/>
  <path fill="#4a100e" d="M471.2 274.44c3.2 0 5.79-3.03 5.79-6.76s-2.59-6.77-5.79-6.77-5.79 3.03-5.79 6.77 2.59 6.76 5.79 6.76Z"/>
  <path fill="none" stroke="#000" stroke-width=".25" d="M471.2 274.44c3.2 0 5.79-3.03 5.79-6.76s-2.59-6.77-5.79-6.77-5.79 3.03-5.79 6.77 2.59 6.76 5.79 6.76Z"/>
  <g clip-path="url(#d)">
    <path fill="#d7bfa5" d="m252.55 430.14.71-15.23-3.19-6.74 53.15-51.37 50.55-.1 27.4-29.3 85.75 4.95-1.63 9.56-1.91 25.51 23.62 1.42-5.7 14.18-2.81 46.77-225.94.35z"/>
    <path fill="none" stroke="#4a100e" d="m252.55 430.14.71-15.23-3.19-6.74 53.15-51.37 50.55-.1 27.4-29.3 85.75 4.95-1.63 9.56-1.91 25.51 23.62 1.42-5.7 14.18-2.81 46.77-225.94.35z"/>
    <path fill="none" stroke="#000" stroke-width=".5" d="m257.09 429.15.28-8.94 36 2.15m-11.34-21.42 24.09-23.66"/>
    <path fill="none" stroke="#4a100e" d="m304.42 428.87 30.62-24.67-.29 25.52-5.07-.29 1.11-16.44-21.67 16.73-4.7-.85z"/>
  </g>
  <path fill="#4a100e" d="m298.47 420.08 5.39-5.1-53.94-6.81 3.22 5.94 45.33 5.97z"/>
  <path fill="none" stroke="#4a100e" d="m298.47 420.08 5.39-5.1-53.94-6.81 3.22 5.94 45.33 5.97z"/>
  <path fill="#4a100e" d="m279.48 400.1-7.09-.43 34.58-31.75 50.75 1.13 28.65-29.19 56.69 2.55-3.99 3.97-51.02-2.55-29.48 30.33-49.61-1.42-29.48 27.36z"/>
  <g clip-path="url(#e)">
    <path fill="none" stroke="#4a100e" d="m279.48 400.1-7.09-.43 34.58-31.75 50.74 1.13 28.65-29.2 56.69 2.55-3.99 3.97-51.02-2.55-29.48 30.33-49.61-1.42-29.48 27.36Zm130.68-19.42-1.13-4.25 53.57 2.84-4.54 4.25-47.9-2.83Z"/>
    <path fill="#4a100e" d="m432.27 423.2 54.91-54.15-6.16 14.59-48.75 46.08v-6.52z"/>
    <path fill="none" stroke="#4a100e" d="m432.27 423.2 54.91-54.15-6.16 14.59-48.75 46.08v-6.52z"/>
  </g>
  <path fill="#4a100e" d="M439.35 367.07h-7.21l34.71-35.15-1.7 10.21-25.8 24.94z"/>
  <path fill="none" stroke="#4a100e" d="M439.35 367.07h-7.21l34.71-35.15-1.7 10.21-25.8 24.94z"/>
  <g fill="none" clip-path="url(#f)">
    <path stroke="#4a100e" stroke-width="3" d="m307.26 402.5 1.7-29.48m47.9 55.85 1.7-54.99"/>
    <path stroke="#000" stroke-width=".5" d="m312.36 402.51 1.13-26.22 39.4.9-1.13 53.1m10.77-1.99.57-51.11 21.54-24.01"/>
  </g>
  <path fill="#d7bfa5" d="m390.6 408.02 1.41-58.65h42.81"/>
  <path fill="none" stroke="#4a100e" d="m390.6 408.02 1.41-58.65h42.81"/>
  <path fill="none" stroke="#4a100e" stroke-width="5" d="m386.24 414.89.71-72.25"/>
  <path fill="none" stroke="#000" stroke-width=".25" d="m412.64 384.93 42.3.85m-10.77-19.56 21.12-20.13M420.64 89.14s37.23 17.14 55.27 29.05"/>
  <path fill="none" stroke="#8f531d" d="M480.74 70.28s24.14-5.39 58.7-6.8c0 0 55.82 18.43 64.32 23.24m34.87 12.4s7.65-.49 17.86 2.06c10.2 2.55 25.23 4.76 25.23 4.76s6.24 3.69 24.38 7.54c18.14 3.86 32.6 9.5 32.6 9.5"/>
  <g clip-path="url(#g)">
    <path fill="none" stroke="#af601d" d="m408.17 111.28.57 35.25 11.91 6.8 23.99 16.15 30.14 10.32 28.08 5.13h33.76l1.11-54.28 3.55-.57 13.76-4.82-1.16 84.61m-144.86-8.97 45.51 22.17 49.17 8.22 43.09-2.55m-136.63-18.85 50.46 21.53 47.52 7.81m169.32-51.59s51.59 4.82 72.57-.85m-47.34 49.9s32.58 1.1 48.76-2.28m-46.21 10.49s39.4-1.7 46.2-4.82"/>
  </g>
  <path fill="#edcea5" d="M694.61 217.97s8.37.28 9.5-1.28c1.13-1.56.63-4.82.1-8.36-.53-3.54-3.65-8.65-5.49-8.79-1.84-.14-4.53 2.54-5.37 6.38-.84 3.84-.8 10.2-.12 11.2s1.38.85 1.38.85Z"/>
  <path fill="none" stroke="#000" stroke-width=".25" d="M694.61 217.97s8.37.28 9.5-1.28c1.13-1.56.63-4.82.1-8.36-.53-3.54-3.65-8.65-5.49-8.79-1.84-.14-4.53 2.54-5.37 6.38-.84 3.84-.8 10.2-.12 11.2s1.38.85 1.38.85Z"/>
  <path fill="#8f531d" d="M693.48 215.98s5.39-.14 8.22-1.7c0 0-.14-1.7-.57-6.09-.42-4.39-1.13-6.8-4.25-8.08 0 0-3.4 2.56-3.4 7.94v7.93Z"/>
  <path fill="none" stroke="#000" stroke-width=".25" d="M693.48 215.98s5.39-.14 8.22-1.7c0 0-.14-1.7-.57-6.09-.42-4.39-1.13-6.8-4.25-8.08 0 0-3.4 2.56-3.4 7.94v7.93Z"/>
  <path fill="#edcea5" d="M731.6 218.11s-.04-.71-.08-1.85c-.1-2.65-.22-7.58.08-11.05.43-4.96 2.41-6.38 5.39-7.65 0 0 4.68 1.7 7.09 7.23s2.27 11.05 1.42 12.19c-.85 1.14-13.89 1.14-13.89 1.14Z"/>
  <path fill="none" stroke="#000" stroke-width=".25" d="M731.6 218.11s-.04-.71-.08-1.85c-.1-2.65-.22-7.58.08-11.05.43-4.96 2.41-6.38 5.39-7.65 0 0 4.68 1.7 7.09 7.23s2.27 11.05 1.42 12.19c-.85 1.14-13.89 1.14-13.89 1.14Z"/>
  <path fill="#8f531d" d="M731.89 215.56h11.2s-.75-5.96-2.55-11.06c-1.8-5.09-3.69-7.08-3.69-7.08s-4.36 1.2-4.96 5.8c-.6 4.6 0 12.33 0 12.33Z"/>
  <path fill="none" stroke="#000" stroke-width=".25" d="M731.89 215.56h11.2s-.75-5.96-2.55-11.06c-1.8-5.09-3.69-7.08-3.69-7.08s-4.36 1.2-4.96 5.8c-.6 4.6 0 12.33 0 12.33Z"/>
  <path fill="none" stroke="#000" stroke-width=".5" d="m666 139.73 8.56-.32 6.02-7.04 15.73-.55-7.64 8.04 12.6.09 14.03-16.08m-26.07 40.22-.55-24.03m13.3 13.99-.28-14.32m-25.79 10.35-.4-12.05m5.21 13.22-.14-18.74"/>
  <path fill="none" stroke="#000" stroke-width=".25" d="m691.21 164.53-.51-22.87 9.44-.01v1.48"/>
  <path fill="none" stroke="#cda37d" stroke-width=".5" d="m676.03 127.83-8.91 10.63 7.21.08 4.98-8.02 19.98-.85-7.16 8.36h8.14l7.1-7.08"/>
  <path fill="#8f531d" d="m703.97 153.03-1-12.59 11.49-11.46.08 30.03"/>
  <path fill="none" stroke="#cda37d" stroke-width=".5" d="m703.97 153.03-1-12.59 11.49-11.46.08 30.03"/>
  <path fill="none" stroke="#000" stroke-width=".25" d="m534.46 89.56 6.03-13.1 10.74 12.69-16.76.42Zm-5.89 1.27 9.21-16.35m-14.12 15.21 8.6-15.86m-13.32 14.88 8.43-15.45m-11.55 15.09 7.34-15.66m-8.33 10.85 19.3 3.76m-17.25-7.87 19.44 4m-17.49-7.97 19.39 3.39m28.49.72-30.06 8.78 4.2-9.9 7.7 9.55-11.9.35Zm-14.51 22.89 25.91.85v11.06m-25.92-15.88 30.46 1.42v14.46"/>
  <path fill="#8f531d" d="M565.92 182.82v-55.26l3.83 1.12.03 49.46-3.86 4.68z"/>
  <path fill="none" stroke="#000" stroke-width=".25" d="M565.92 182.82v-55.26l3.83 1.12.03 49.46-3.86 4.68Zm-6.52-62.93 15.31 4.82.57 49.89m-15.92 24.66-1.1-84.16 20.98 4.67.99 53.69-20.87 25.79ZM488.31 92.41s6.04-12.09 11.14-17.49m14.43 13.43s-7.01-9.82-11.88-13.52m7.09 19.28s-4.39-10.89-8.01-19.2m-5.88 19.74s2.41-10.4 4.96-19.58m.45 19.94V75.03"/>
  <path fill="#8f531d" d="M521.35 72.78c.71 0 1.29-1.1 1.29-2.45s-.58-2.45-1.29-2.45-1.29 1.1-1.29 2.45.58 2.45 1.29 2.45Z"/>
  <path fill="none" stroke="#000" stroke-width=".25" d="M521.35 72.78c.71 0 1.29-1.1 1.29-2.45s-.58-2.45-1.29-2.45-1.29 1.1-1.29 2.45.58 2.45 1.29 2.45Z"/>
  <path fill="#8f531d" d="M530.47 73.59c.71 0 1.29-1.1 1.29-2.45s-.58-2.45-1.29-2.45-1.29 1.1-1.29 2.45.58 2.45 1.29 2.45Z"/>
  <path fill="none" stroke="#000" stroke-width=".25" d="M530.47 73.59c.71 0 1.29-1.1 1.29-2.45s-.58-2.45-1.29-2.45-1.29 1.1-1.29 2.45.58 2.45 1.29 2.45Z"/>
  <path fill="#8f531d" d="M540.48 75.09c.71 0 1.29-1.1 1.29-2.45s-.58-2.45-1.29-2.45-1.29 1.1-1.29 2.45.58 2.45 1.29 2.45Z"/>
  <g clip-path="url(#h)">
    <path fill="none" stroke="#000" stroke-width=".25" d="M540.48 75.09c.71 0 1.29-1.1 1.29-2.45s-.58-2.45-1.29-2.45-1.29 1.1-1.29 2.45.58 2.45 1.29 2.45Zm-27.3 64.22h-39.1m256.7-8.07s1.25.67 3.8.67 3.69-.78 3.69-.78m-8.93 3.64s.98 1.54 5.19 1.42c4.21-.13 5.44-1.48 5.44-1.48m-12.48 4.45s2.32 1.56 7.82 1.42c5.5-.14 6.21-2.98 6.21-2.98m-15.44 4.98s1.42 2.36 9.07 1.9c7.65-.46 9.35-1.96 9.35-1.96m-19.7 2.14s-1.43 2.44 3.97 3.15 16.02 1.33 17.29-3.21m-24.8 5.07s1.77.14 3.97-5.19m-1.28 3.2s.08 3.84 11.39 3.54c11.31-.3 11.99-4.69 11.99-5.4m-24.94 3.13s-.14 4.66 13.25 4.68c13.39.02 12.9-5.67 12.9-5.67"/>
  </g>
  <path fill="#d7c33b" d="M97.72 215.31c35.16 0 63.66-28.5 63.66-63.66s-28.5-63.66-63.66-63.66-63.66 28.5-63.66 63.66 28.5 63.66 63.66 63.66Z"/>
  <path fill="none" stroke="#000" stroke-width=".25" d="M97.72 215.31c35.16 0 63.66-28.5 63.66-63.66s-28.5-63.66-63.66-63.66-63.66 28.5-63.66 63.66 28.5 63.66 63.66 63.66Z"/>
  <path fill="none" stroke="#891814" stroke-width="2" d="M97.36 211.76c33.2 0 60.12-26.92 60.12-60.12s-26.92-60.12-60.12-60.12-60.12 26.92-60.12 60.12 26.92 60.12 60.12 60.12Z"/>
  <g clip-path="url(#i)">
    <path fill="none" stroke="#891814" stroke-width=".5" d="m79.64 130.09-29.48-6.52-3.12-4.82m24.38 30.62-28.63-3.97-5.67 5.39M70 152.77l-27.21-4.25-2.83 5.1m60.09-34.93V97.8l-6.24-5.67m26.93 32.32.57-20.44 3.97-3.12m-3.41 27.79 1.11-4.22.12-19.1 4.15-2.76m.08 36h21.47l4.25-1.98m-25.72 19.84 21.76 2.27 4.02 3.68m-25.78-2.99 19.77 1.86 4.82 5.67M49.6 132.02c.88 0 1.59-.71 1.59-1.59s-.71-1.59-1.59-1.59-1.59.71-1.59 1.59.71 1.59 1.59 1.59Zm17.57 4.14c.88 0 1.59-.71 1.59-1.59s-.71-1.59-1.59-1.59-1.59.71-1.59 1.59.71 1.59 1.59 1.59Zm-9.2 3.04c.88 0 1.59-.71 1.59-1.59s-.71-1.59-1.59-1.59-1.59.71-1.59 1.59.71 1.59 1.59 1.59Zm47.05-24.22c.88 0 1.59-.71 1.59-1.59s-.71-1.59-1.59-1.59-1.59.71-1.59 1.59.71 1.59 1.59 1.59Zm5.37-5.25c.88 0 1.59-.71 1.59-1.59s-.71-1.59-1.59-1.59-1.59.71-1.59 1.59.71 1.59 1.59 1.59Zm4.7 7.46c.88 0 1.59-.71 1.59-1.59s-.71-1.59-1.59-1.59-1.59.71-1.59 1.59.71 1.59 1.59 1.59Zm18.7 28.83c.88 0 1.59-.71 1.59-1.59s-.71-1.59-1.59-1.59-1.59.71-1.59 1.59.71 1.59 1.59 1.59Zm0 8.93c.88 0 1.59-.71 1.59-1.59s-.71-1.59-1.59-1.59-1.59.71-1.59 1.59.71 1.59 1.59 1.59Zm6.88-4.42c.88 0 1.59-.71 1.59-1.59s-.71-1.59-1.59-1.59-1.59.71-1.59 1.59.71 1.59 1.59 1.59Zm8.57-4.94c.88 0 1.59-.71 1.59-1.59s-.71-1.59-1.59-1.59-1.59.71-1.59 1.59.71 1.59 1.59 1.59Zm-1.27 9.91c.88 0 1.59-.71 1.59-1.59s-.71-1.59-1.59-1.59-1.59.71-1.59 1.59.71 1.59 1.59 1.59Zm-31.87-51.69c.88 0 1.59-.71 1.59-1.59s-.71-1.59-1.59-1.59-1.59.71-1.59 1.59.71 1.59 1.59 1.59Zm-10.23-4.08c.88 0 1.59-.71 1.59-1.59s-.71-1.59-1.59-1.59-1.59.71-1.59 1.59.71 1.59 1.59 1.59Z"/>
    <path fill="#b7916c" d="m390.31 431.45 3.72-11.06 39.77-1.41-.12 13.04-43.37-.57z"/>
    <path fill="none" stroke="#4a100e" d="m390.31 431.45 3.72-11.06 39.77-1.41-.12 13.04-43.37-.57z"/>
  </g>
  <path fill="none" stroke="#891814" stroke-width=".5" d="M65.05 145.14c.88 0 1.59-.71 1.59-1.59s-.71-1.59-1.59-1.59-1.59.71-1.59 1.59.71 1.59 1.59 1.59Zm-17.11-3.43c.88 0 1.59-.71 1.59-1.59s-.71-1.59-1.59-1.59-1.59.71-1.59 1.59.71 1.59 1.59 1.59Z"/>
  <path fill="#4a100e" d="M61.21 195.29s-1.31-6.52 2.12-10.35 5.56-4.11 5.56-4.11-.87-5.67 3.38-8.5.07-.1.07-.1-5.56-5.04-5.16-12.81c.4-7.77 2.85-8.76 2.85-8.76s-1.08-7.93 4.28-16.09 11.01-16.59 28.01-16.59 26.36 16.96 26.65 26.45c.28 9.48-1.65 16.85-1.65 16.85l-47.65 30.61-18.45 3.4Z"/>
  <path fill="none" stroke="#000" stroke-width=".25" d="M61.21 195.29s-1.31-6.52 2.12-10.35 5.56-4.11 5.56-4.11-.87-5.67 3.38-8.5.07-.1.07-.1-5.56-5.04-5.16-12.81c.4-7.77 2.85-8.76 2.85-8.76s-1.08-7.93 4.28-16.09 11.01-16.59 28.01-16.59 26.36 16.96 26.65 26.45c.28 9.48-1.65 16.85-1.65 16.85l-47.65 30.61-18.45 3.4Z"/>
  <g clip-path="url(#j)">
    <path fill="#415490" d="m9.9 430.28 7.65-23.51s-8.46-16.71 1.72-29.76c0 0-16.03-3.98-18.94-26.38-2.91-22.39-5.18-66.06 10.98-100.63 16.16-34.57 22.29-37.7 32.6-42.24 10.31-4.54 64.91-9.34 64.91-9.34s12.21 8.49 20.28 24.65c8.07 16.16 17.99 53.31 17.99 53.31s10.49 6.22 16.16 5.94c5.67-.28 9.5 2.13 9.5 2.13s5.79-.71 9.78 2.98c0 0 3.97-3.12 12.05-1.56 0 0 2.69-2.55 7.37-1.42s6.38 7.09 6.38 7.09 6.24 15.8 10.06 22.78c3.83 6.98 14.03 19.35 14.6 32.93.57 13.59-5.36 27.76-5.36 27.76s16.98 22.68 9.9 46.77V430h-12.76s-4.25-1.46-5.1-15.89c0 0-7.37-5.66-9.92-9.91l-1.96 1.13s2.53 5.95 1.11 13.89c-1.42 7.94-3.12 12.47-3.12 12.47L9.91 430.27Z"/>
    <path fill="none" stroke="#000" stroke-width="2" d="m9.9 430.28 7.65-23.51s-8.46-16.71 1.72-29.76c0 0-16.03-3.98-18.94-26.38-2.91-22.39-5.18-66.06 10.98-100.63 16.16-34.57 22.29-37.7 32.6-42.24 10.31-4.54 64.91-9.34 64.91-9.34s12.21 8.49 20.28 24.65c8.07 16.16 17.99 53.31 17.99 53.31s10.49 6.22 16.16 5.94c5.67-.28 9.5 2.13 9.5 2.13s5.79-.71 9.78 2.98c0 0 3.97-3.12 12.05-1.56 0 0 2.69-2.55 7.37-1.42s6.38 7.09 6.38 7.09 6.24 15.8 10.06 22.78c3.83 6.98 14.03 19.35 14.6 32.93.57 13.59-5.36 27.76-5.36 27.76s16.98 22.68 9.9 46.77V430h-12.76s-4.25-1.46-5.1-15.89c0 0-7.37-5.66-9.92-9.91l-1.96 1.13s2.53 5.95 1.11 13.89c-1.42 7.94-3.12 12.47-3.12 12.47L9.91 430.27Z"/>
  </g>
  <path d="M25.5 285.73s-2.83 44.52 3.97 64.64c0 0 6.93-9.42 48.24-9.42L25.5 285.73Z"/>
  <path fill="none" stroke="#000" stroke-width=".5" d="M25.5 285.73s-2.83 44.52 3.97 64.64c0 0 6.93-9.42 48.24-9.42L25.5 285.73Z"/>
  <path fill="#b2869e" d="M82.76 182.53s-20.98 5.67-36 20.41-28.63 27.14-24.38 66.9c4.25 39.76 20.69 61.23 28.63 65.2 7.94 3.97 28.35 8.82 49.61 6.54 21.26-2.28 22.11 2.84 33.17.71 11.05-2.13.85.65.85.65s-3.97-14.7-5.67-21.79c-1.7-7.09-4.8-27.21-4.8-27.21s1.11-6.24-3.14-7.37-12.76 1.42-12.76 1.42-5.39-14.17-5.67-28.06c-.28-13.89 4.82-32.03 4.82-32.03l-5.95-22.38-18.71-22.98Z"/>
  <path fill="none" stroke="#000" d="M82.76 182.53s-20.98 5.67-36 20.41-28.63 27.14-24.38 66.9c4.25 39.76 20.69 61.23 28.63 65.2 7.94 3.97 28.35 8.82 49.61 6.54 21.26-2.28 22.11 2.84 33.17.71 11.05-2.13.85.65.85.65s-3.97-14.7-5.67-21.79c-1.7-7.09-4.8-27.21-4.8-27.21s1.11-6.24-3.14-7.37-12.76 1.42-12.76 1.42-5.39-14.17-5.67-28.06c-.28-13.89 4.82-32.03 4.82-32.03l-5.95-22.38-18.71-22.98Z"/>
  <path fill="#8f531d" d="M115.21 300.44s2.13 1.7 2.13 13.62-.3 14.74 4.04 18.43c4.34 3.68 8.03 6.8 8.03 6.8s3.85-.87.08-5.67-3.83-9.69-5.06-16.44c-1.23-6.75-3.05-9.35-3.05-9.35l-6.17-7.38Z"/>
  <path fill="none" stroke="#000" stroke-width=".5" d="M115.21 300.44s2.13 1.7 2.13 13.62-.3 14.74 4.04 18.43c4.34 3.68 8.03 6.8 8.03 6.8s3.85-.87.08-5.67-3.83-9.69-5.06-16.44c-1.23-6.75-3.05-9.35-3.05-9.35l-6.17-7.38Z"/>
  <path fill="#edcea5" d="M151.94 281.94s2.53-6.08 5.42-7.33c2.89-1.26 1.83.74 1.83.74l-3.53 6.92-3.73-.32Z"/>
  <path fill="none" stroke="#000" stroke-width=".25" d="M151.94 281.94s2.53-6.08 5.42-7.33c2.89-1.26 1.83.74 1.83.74l-3.53 6.92-3.73-.32Z"/>
  <path fill="#edcea5" d="M190.75 312.08s6.52 2.43 10.63 1.56c4.11-.87 13.18-3.26 13.75-10.2.57-6.95-2.69-9.47-2.69-9.47l-21.73 6.63.04 11.48Z"/>
  <path fill="none" stroke="#000" stroke-width=".25" d="M190.75 312.08s6.52 2.43 10.63 1.56c4.11-.87 13.18-3.26 13.75-10.2.57-6.95-2.69-9.47-2.69-9.47l-21.73 6.63.04 11.48Z"/>
  <g clip-path="url(#k)">
    <path fill="none" stroke="#000" stroke-width="2" d="M205.21 332.49s1.7 5.26 1.7 16.16 1.26 23.24 1.26 23.24m.01-49.61s2.42 8.22 2.99 24.95c.57 16.73-.44 32.31 2.47 39.97 2.91 7.65 4.78 10.49 10 17.29 5.22 6.8 8.22 15.02 7.94 25.23"/>
  </g>
  <path fill="#edcea5" d="M155.55 281.69s.42-2.35 1.87-5.03c1.46-2.68 3.51-3.44 4.93-3.12 1.42.33-.4 2.84-.4 2.84l-2.21 2.83-4.2 2.48Z"/>
  <path fill="none" stroke="#000" stroke-width=".25" d="M155.55 281.69s.42-2.35 1.87-5.03c1.46-2.68 3.51-3.44 4.93-3.12 1.42.33-.4 2.84-.4 2.84l-2.21 2.83-4.2 2.48Z"/>
  <path fill="#ffecd0" d="m187.92 352.9 15.87-53.58s5.76-1.81 8.64.94c2.89 2.75-.71 10.95-2.97 19.75-2.27 8.8-10.49 37.7-10.49 37.7l-11.06-4.82Z"/>
  <path fill="none" stroke="#000" stroke-width=".25" d="m187.92 352.9 15.87-53.58s5.76-1.81 8.64.94c2.89 2.75-.71 10.95-2.97 19.75-2.27 8.8-10.49 37.7-10.49 37.7l-11.06-4.82Z"/>
  <g clip-path="url(#l)">
    <path fill="#415490" d="M160.71 354.91s6.8-1.72 23.24-2.55c16.44-.83 23.61 9.89 26.65 21.81 3.04 11.92-2.81 29.78-2.81 29.78s5.36 3.97-2.01 26.08"/>
    <path fill="none" stroke="#000" stroke-width="2" d="M160.71 354.91s6.8-1.72 23.24-2.55c16.44-.83 23.61 9.89 26.65 21.81 3.04 11.92-2.81 29.78-2.81 29.78s5.36 3.97-2.01 26.08"/>
  </g>
  <path fill="#415490" d="M125.84 307.54s6.8 52.16 32.6 51.87c25.79-.28 34.3-51.89 34.3-51.89s2.53-13.89 7.37-17.56"/>
  <g clip-path="url(#m)">
    <path fill="none" stroke="#000" stroke-width=".5" d="M125.84 307.54s6.8 52.16 32.6 51.87c25.79-.28 34.3-51.89 34.3-51.89s2.53-13.89 7.37-17.56m-84.9-78.07 7.8 23.37m6.1 51.6s2.24-16.64 1.26-37.71c-.97-21.07-8.79-39.97-18.28-48.76m22 102.62s1.72 9.78 4.25 15.87c2.53 6.09 10.56 34.33 20.86 34.03 10.3-.3 21.66-31.76 21.66-31.76m-4.56 18.5s4.54-10.89 5.67-24.59.46-26.74 14.83-29.93m-6.21 8.84s4.45-4.96 10.12-4.96m-31.21 23.34s12.42-23.14 21.09-25.14m-31.08 59.45s3.72-49.88 22.46-59.45m-28.98 55.89s11.19-29.59 16.4-38.39m-22.86 25.23s8.66-10.86 16.42-24.66c7.76-13.81 11.23-16.65 18.02-18.4m-37.27 32.28s-.69 3.72 5.27.72c5.96-3 9.21-5.93 9.21-5.93m-1.61-21.76s6.63-6.47 16.04-7.18m48.76 46.06-3.11-18.72m10.48 43.38s-4.91-11.7-10.61-18.71c-5.69-7.01-8.67-11.59-8.39-18.14m16.73 98.36s-10.8-5.95-16.87-12.76l-6.07-6.8m32.01 9.78s-5.27-8.37-11.34-15.16c-6.07-6.79-10.25-12.76-9.23-29.2 1.01-16.43-2.67-35.36-2.67-35.36m10.49 15.47s-7.5 33.48-2.9 42.85m11.83 37.42s2.06-15.56-1.56-23.8m-33.74 29.75s15.75-30.03 15.75-45.92m-31.2 37.99s-7.6.27-21.59-20.56c0 0-1.8-8.53 12.66-23.75s18.71-10.97 18.71-10.97m6.81 38.83s-12.38 12.43-31.75 2.47"/>
  </g>
  <path d="M176.86 365.55s-20.58 6.35-29.2 28.04l-1.23 2.97 8.03 8.42s-1.98-13.93 7.12-26.2c9.11-12.27 15.27-13.22 15.27-13.22Z"/>
  <path fill="none" stroke="#000" stroke-width=".5" d="M176.86 365.55s-20.58 6.35-29.2 28.04l-1.23 2.97 8.03 8.42s-1.98-13.93 7.12-26.2c9.11-12.27 15.27-13.22 15.27-13.22Zm-51.14 3.5s8.59 5.24 29.89-.71 39.26-13.23 49.49-2.8m-66.05 21.66s6.61 2.95 8.62-1.08c2.01-4.02 4.23-11.08-11.05-14.22"/>
  <path d="M127.59 373.02s4.77 3.89 12.14 4.82l4.82 5.67-13.29-3.44-3.67-7.05Z"/>
  <g fill="none" stroke="#000" clip-path="url(#n)">
    <path stroke-width=".5" d="M127.59 373.02s4.77 3.89 12.14 4.82l4.82 5.67-13.29-3.44-3.67-7.05Zm-.11 35.22s10.79 1.49 14.87-2.91l12.68 2.19m-8.5 21.91 1.42-13.89s5.67-1.73 9.21-8.09m.15 22.41-6.24-16.16m20.41 17.17s-10.91-10.36-17.29-31.9m36.65 21.53-8.45 9.35m25.67-39.11s-1 16.73-19.85 39.4m-75.12-41.38s19.42 25.79 26.64 41.81m-6.24-22.33 12.05 20.62m-38.63-16.15s-13.38 6.24-18.77 17.57m9.35-23.78s-6.52 14.71-12.75 23.22m-41.95-32.16s4.84 18.53 11.93 33.01"/>
    <path stroke-width="2" d="M53.27 376.71s1.18 34.85 7.11 53.01"/>
  </g>
  <path fill="none" stroke="#000" stroke-width=".5" d="M48.75 405.33s0-16.3 3.39-27.01c3.4-10.71 6.7-16.91 6.7-16.91M27.2 421.78s-.13-6.73 9.64-24.22c9.76-17.49 12.19-27.88 24.38-36.2m-18.55 11.57s6.68-8.4 20.55-12.77c13.87-4.37 23.79-3.57 23.79-3.57m-22.22-4.41s46.39 4.74 58.4 27.9m-8.51 10.65s-1.59-22.82-15.48-29.48m21.82 32.33s-.19-16.36-14.12-28.88m-74.6-8.92s43.9-20.86 71.43 4.37m18.85 41.79s3.82-3.26 2.27-11.2c0 0 5.04-2 3.83-12.41s-11.86-35.37-35.69-26.28m9.91-2.08s-5.95-10.06-34.87-8.41c-28.93 1.65-40.24 6.55-45.91 17.02-5.67 10.47-5.15 11.87-8.24 10.19m-1.14-27.52s-1.54 1.81 1.07 6.31c2.61 4.49 7.65 11.99 7.65 11.99"/>
  <path fill="none" stroke="#000" stroke-width="2" d="M24.64 284.88s-3.43 35.77 3.4 65.51c0 0-5.26-6.54-8.22-25.69"/>
  <path fill="none" stroke="#000" stroke-width=".5" d="M18.41 391.52s4.42-10.21 15.09-19.74"/>
  <g fill="none" stroke="#000" clip-path="url(#o)">
    <path stroke-width="2" d="M17.56 406.45s5.67-18.2 11.91-24.82c0 0 3.91-25.02 27.35-32.7"/>
    <path stroke-width=".5" d="m45.62 429.43-2.96-30.51m46.29 4.31s-4.07 14.06-18.1 11.71c-14.03-2.35-18.34-20.4-17.7-31.21m42.93 17.37s-10.17 24.65-25.06 24.93c-14.89.28-16.19-18.64-16.19-18.64m13.2-47.78s12.22-4.24 27.77 1.53c15.55 5.77 17.18 29.6 17.18 29.6s12.86 14.6 23.91 38.41M95.8 352.18s12.74-3.12 22.96 6.52 8.7 27.81 8.7 27.81m30.8 16.72s12.93 17.6 20.58 20.27m-21.42-26.95s5.27-19.29 24.28-28.93m-45.51 42.86 8.71 14.7m12.37-14.77s3.21 10.8 8.14 17.32m-16.19-10.38s2.68 5.28 2.98 12.08m-123.02-7.96s1.09-13.39 10.77-26.62m4.19-20.98s2.15-3.66 9.64-7.78m-29.84 6.84s3.8-3.25 10.62-11.57c6.82-8.32 9.48-8.32 9.48-8.32m31.41 66.05s10.87 1.24 18.59-17.06m-11.28 27.69s8.71-10.79 16.39-30.19m-7.32 29.9s6.05-10.77 16.5-14.8m-19.38 11.53s6.96-9.21 14.86-13.57m5.59-21.02s7.01 13.33-1.03 33.68m-9.23-82.84s6.39 2.16 16.12 7.56c9.73 5.4 18.87 7.74 20.82 5.4m5.18-5.4-22.5 1.6m-3.55-64.5s-2.69-2.2-2.98-32.25c-.28-30.05 3.05-39.39 3.05-39.39"/>
  </g>
  <path fill="#edcea5" d="M63.33 202.52s14.42-15.87 16.92-19.28c2.5-3.4 3.89-10.91 8.31-13.18 0 0-4.54-.42-4.39-6.38.14-5.95 5.53-6.24 5.53-6.24s.57-3.07 2.55-4.82c1.98-1.75.34-4.75 2.73-6.91 2.38-2.16 3.98-5.47 7.93-6.39 3.94-.92 9.9-2.34 11.6-4.76 0 0 1.28 1.23 4.26 2.34 2.99 1.11 6.17 4.72 7.36 7.52 1.19 2.8 1.83 7.91 2.41 10.06.58 2.16-.57 5.39-.57 5.39s1.87 3.24 1.15 7.78c-.72 4.53-2 8.22-2.56 11.2-.57 2.98-1.7 10.35-1.7 10.35l-5.53 4.13-9.5 2.11s.71 3.14.99 7.17c.28 4.03.14 5.44.14 5.44l3.68 3.84s-5.24 4.95-7.37 16c0 0-3.4-1.7-8.36-2.41 0 0-3.83-9.46-10.63-14.3-6.8-4.83-24.95-8.66-24.95-8.66Z"/>
  <path fill="none" stroke="#000" stroke-width=".75" d="M63.33 202.52s14.42-15.87 16.92-19.28c2.5-3.4 3.89-10.91 8.31-13.18 0 0-4.54-.42-4.39-6.38.14-5.95 5.53-6.24 5.53-6.24s.57-3.07 2.55-4.82c1.98-1.75.34-4.75 2.73-6.91 2.38-2.16 3.98-5.47 7.93-6.39 3.94-.92 9.9-2.34 11.6-4.76 0 0 1.28 1.23 4.26 2.34 2.99 1.11 6.17 4.72 7.36 7.52 1.19 2.8 1.83 7.91 2.41 10.06.58 2.16-.57 5.39-.57 5.39s1.87 3.24 1.15 7.78c-.72 4.53-2 8.22-2.56 11.2-.57 2.98-1.7 10.35-1.7 10.35l-5.53 4.13-9.5 2.11s.71 3.14.99 7.17c.28 4.03.14 5.44.14 5.44l3.68 3.84s-5.24 4.95-7.37 16c0 0-3.4-1.7-8.36-2.41 0 0-3.83-9.46-10.63-14.3-6.8-4.83-24.95-8.66-24.95-8.66Z"/>
  <path fill="#edcea5" d="M117.34 312.5s.28-8.22-1.99-12.33c0 0 3.41-5.95 3.41-9.5l6.37-2.96s1.13-.58 6.66-7.39c5.53-6.8 5.53-8.93 10.91-9.07 5.39-.14 15.31.55 17.15-.71 0 0 .65.86.07 2.35-.58 1.49-2.75 3.39-8.83 2.15 0 0-2.58 1.3-6.15 1.76 0 0 .67 4.22 4.56 4.15 3.9-.07 8.43-.71 9.35-1.7.92-.99 2.62-2.55 4.25-5.03 1.63-2.48 3.76-4.69 5.53-3.68 1.77 1.01-.02 4.28-1.84 6.39-1.82 2.11-5.95 6.8-5.95 6.8s-.09 1.4-2.1 3.46c0 0 1.23.44.61 2.66-.61 2.23-2.98 4.28-2.98 4.28s1.8-.26 4.18-2.27 3.83-2.31 4.75-1.61c.92.69.26 2.8-3.45 5.79s-6.92 4.66-9.64 6.24c-2.72 1.57-5.98 1.45-10.23 1.29-4.25-.16-7.04-1.54-11.03 0-3.99 1.54-13.63 8.91-13.63 8.91Z"/>
  <path fill="none" stroke="#000" stroke-width=".75" d="M117.34 312.5s.28-8.22-1.99-12.33c0 0 3.41-5.95 3.41-9.5l6.37-2.96s1.13-.58 6.66-7.39c5.53-6.8 5.53-8.93 10.91-9.07 5.39-.14 15.31.55 17.15-.71 0 0 .65.86.07 2.35-.58 1.49-2.75 3.39-8.83 2.15 0 0-2.58 1.3-6.15 1.76 0 0 .67 4.22 4.56 4.15 3.9-.07 8.43-.71 9.35-1.7.92-.99 2.62-2.55 4.25-5.03 1.63-2.48 3.76-4.69 5.53-3.68 1.77 1.01-.02 4.28-1.84 6.39-1.82 2.11-5.95 6.8-5.95 6.8s-.09 1.4-2.1 3.46c0 0 1.23.44.61 2.66-.61 2.23-2.98 4.28-2.98 4.28s1.8-.26 4.18-2.27 3.83-2.31 4.75-1.61c.92.69.26 2.8-3.45 5.79s-6.92 4.66-9.64 6.24c-2.72 1.57-5.98 1.45-10.23 1.29-4.25-.16-7.04-1.54-11.03 0-3.99 1.54-13.63 8.91-13.63 8.91Zm31.63-25.76s7.37-.11 11.85-3.06m-11.39 8.95s4 .75 9.35-5.48m-9.38 10.58s3.87-.06 7.08-3.68"/>
  <path fill="#edcea5" d="M195.01 299.07c2.81-8.16 5.24-9.14 5.24-9.14s1.13-.79 5.81-.79 11.2 4.83 11.48 6.78c.28 1.95 1.1 4.4.12 8.09-.97 3.68-4.04 10.5-4.21 11.06-.17.56-2.29-.22-2.43-2.84-.14-2.62 1.98-3.97 2.55-6.66.57-2.69.28-3.81-1.84-7.7"/>
  <path fill="none" stroke="#000" stroke-width=".75" d="M195.01 299.07c2.81-8.16 5.24-9.14 5.24-9.14s1.13-.79 5.81-.79 11.2 4.83 11.48 6.78c.28 1.95 1.1 4.4.12 8.09-.97 3.68-4.04 10.5-4.21 11.06-.17.56-2.29-.22-2.43-2.84-.14-2.62 1.98-3.97 2.55-6.66.57-2.69.28-3.81-1.84-7.7"/>
  <path fill="#edcea5" d="M201.1 293.37s1.42 1.84 5.81 1.84 5.24.19 5.39 1.42c.14 1.23-.68 4.39-5.59 4.25-4.9-.14-5.18.13-5.18.13s.28 3.62-4.68 6.11"/>
  <path fill="none" stroke="#000" stroke-width=".75" d="M201.1 293.37s1.42 1.84 5.81 1.84 5.24.19 5.39 1.42c.14 1.23-.68 4.39-5.59 4.25-4.9-.14-5.18.13-5.18.13s.28 3.62-4.68 6.11"/>
  <path fill="none" stroke="#4a100e" d="M60.84 219.67s5.47 2.84 8.31 18.14c2.83 15.31 11.11 45.76 11.11 45.76m-21.6-73.25s10.77 7.09 17.29 28.06c6.52 20.98 14.74 46.84 14.74 46.84"/>
  <path fill="none" stroke="#4a100e" stroke-width=".5" d="M68.58 215.43s10.82 15.14 17.31 41.65c6.5 26.52 10.35 29.77 10.35 29.77m-18.3-78.52s9.9 22.68 15.31 44.5c5.41 21.83 10.77 34.33 10.77 34.33m-58.4-31.49 33.45 25.94m-30.61-1.56 2.01-.85s22.24-.23 31.94 6.02c0 0-4.58-2.83-13.92 0-9.33 2.83-13.58 12.64-13.58 12.64m-7.87-5.07s6.03-11.32 21.44-12.17m-21.55 38.54s-1.31-10.11 2.66-21.3c3.97-11.19 13.5-14.94 13.5-16.15m-11.21 41.71s-4.56-11.3-.31-25.56c4.25-14.26 12.76-15.47 12.76-15.47m26.48 28s5.83-16.98 17.46-21.9m-11.34 39.18s-1.77-2.26-.6-12.61 5.36-22.54 10.52-25.19"/>
  <path fill="none" stroke="#4a100e" d="M109.97 312.76s1.69-6.8 5.24-13.36c3.56-6.56 3.56-9.48 3.56-9.48m-8.92 5.99s5.66-5.6 13.28-7.42"/>
  <path fill="none" stroke="#4a100e" stroke-width=".5" d="M63.09 310.43s-1.28 7.6 1.26 11.28c2.53 3.68 5.48 9.07 21.24 11.9 15.77 2.83 25.72 3.96 29.62 5.8"/>
  <path fill="none" stroke="#4a100e" d="M108.31 339.43s-15.89 1-30.49-3.25c-14.6-4.25-21.55-12.12-20.83-25.76.72-13.64 5.35-25.16 26.9-25.16m.28 55.45s-27.43-1.1-37.24-12.46c-9.81-11.35-18.31-49.59-9.81-102.9"/>
  <path fill="none" stroke="#d7bfa5" stroke-width=".5" d="M81.76 172.33s-4.68 2.2-5.39 8.89m4.01-10.02s-1.86.7-3.41 3.12c-1.55 2.41-1.67 4.68-2.26 6.38-.59 1.7-.31 2.55-3.27 3.83-2.95 1.27-2.95 3.83-2.95 3.83m17.35-32.03s-4.51 1.12-4.51 5.37 1.6 4.11 1.6 4.11m8.9-14.78s-.76 2.17-5.39 2.88c-4.62.71-7.28 4.72-7.94 8.59-.65 3.88 1.5 5.47 4.43 7.86m7.05-20.71s-2.06 1.05-5.81 2.54c-3.75 1.49-5.91 5.82-5.91 5.82m11.78-11.19s-1.05 1.61-4.94 2.72c-3.89 1.11-8.26 4.22-8.85 9.75m12.5-13.15s-2.08 1.07-5.21 1.93c-3.12.87-7.51 3.68-8.33 8.14m35.18-20.59s-9.36.26-15.87 8.8m10.5-8.92s-7.71.31-11.3 8.5m15.54-10.36s-10.91-2.53-16.72 5.53"/>
  <path fill="none" stroke="#8f531d" stroke-width=".5" d="M77.82 170.49s-3.87.85-5.13 7.65m-1.26 2.13s-.22 1.13-2.95 3.12c-2.73 1.98-2.73 3.54-2.73 3.54m22.98-30.29s-5.5.77-5.67 8.17m6.07-22.1s-8.31-1.64-13 5.36m-2.73 7.01s-3.1 3.02-1.97 8.08m.84-10.13s-2.26 4.07-2.26 6.06m35.86-27.86s-11.07-1.27-15.32 6.38m7.61-8.9s-4.81.95-8.12 4.93m5.78-6.08s-3.91.53-7.82 5.29m27.49-8.4s9.07 5.5 11.05 13.16m-40.7-.57s-5.02-1.54-9.71 2.96m8.97-6.28c0 .63-3.31-1.21-8.02 3.32"/>
  <path fill="none" stroke="#000" stroke-width=".25" d="M88.81 161.07s-1.94.63-2.08 3.75c-.14 3.11 1.18 2.97 1.18 2.97"/>
  <path fill="#4a100e" d="M97.72 153.36s3.75-3.86 9.56-3.28c5.81.58 5.81.91 5.81.91l-.26 3.62s-.96-2.97-7.8-2.97-7.31 2.16-7.31 2.16"/>
  <path fill="none" stroke="#000" stroke-width=".25" d="M97.72 153.36s3.75-3.86 9.56-3.28c5.81.58 5.81.91 5.81.91l-.26 3.62s-.96-2.97-7.8-2.97-7.31 2.16-7.31 2.16"/>
  <path fill="none" stroke="#000" stroke-width=".5" d="M102.74 155.62s.58.34 1.87-.55c1.28-.89 2.44-1.8 4.68-1.27 2.24.52 3.26 2.71 3.26 2.71"/>
  <path fill="none" stroke="#4a100e" d="M127.32 153.03s-3.32-2.01-4.45-1.38c-1.13.63-3.54 1.93-3.83 5-.28 3.07 1.56 5.31 2.55 9.29.99 3.98 1.28 6.71-.14 7.54-1.42.83-2.27.66-3.4.11s-1.98.59-3.12.59-2.47-1.14-1.72-2.7c.75-1.56 2.22-1.68 2.22-1.68"/>
  <path fill="none" stroke="#000" stroke-width=".25" d="M113.79 157.59s5.22 8.93 3.97 13.18"/>
  <path fill="none" stroke="#000" stroke-width=".5" d="m99.32 156.21 3.36.12s.91 2.14 4.32 2.41 4.7-1.21 4.7-1.21m9 1.29s1.86 1.78 3.97 1.78 3.12-1.36 3.12-1.36m-6.74-1.75s1.08-2.33 4.08-1.87c3 .46 2.65 3.27 2.65 3.27"/>
  <path fill="none" stroke="#000" stroke-width=".25" d="M95.65 193.73s-12.95-14.41-3.71-25.81"/>
  <path fill="none" stroke="#000" stroke-width=".5" d="M99.31 154.26s2.91.31 4.16-.73 2.55-2.34 6.52-1.25"/>
  <path fill="none" stroke="#4a100e" d="M120.12 156.09s2.49-3.79 6.55-2.72"/>
  <path fill="none" stroke="#000" stroke-width=".25" d="M113.21 174.26s-5.08.42-7.81 9.99"/>
  <path fill="#4a100e" d="M114.9 174.74c-7.4.6-8.48 11.05-8.48 11.05s2.91-6.26 8.25-6.94c5.34-.69 9.43-.28 8.68 5.44 2.06-8.62-1.06-10.14-8.46-9.55Z"/>
  <path fill="none" stroke="#000" stroke-width=".25" d="M114.9 174.74c-7.4.6-8.48 11.05-8.48 11.05s2.91-6.26 8.25-6.94c5.34-.69 9.43-.28 8.68 5.44 2.06-8.62-1.06-10.14-8.46-9.55Z"/>
  <path fill="none" stroke="#000" d="M111.79 183.59s2.08-1.19 3.39-3.47c0 0 .39 1.76 2.16 1.76s2.79-1.63 2.79-1.63.05 1.98 1.25 3.34"/>
  <path fill="#edcea5" d="M115.88 175.16s-.23 2.27 2.2 2.27 2.85-2.28 2.85-2.28"/>
  <path fill="none" stroke="#000" stroke-width=".25" d="M115.88 175.16s-.23 2.27 2.2 2.27 2.85-2.28 2.85-2.28m-18.25-15.73s2.29 2.74 8.17 1.31"/>
  <path fill="#b7916c" d="m463.22 367.39 2.16-24.78-26.17 24.78h24.01z"/>
  <path fill="none" stroke="#000" stroke-width=".25" d="M122.75 163.56s3.09 1.39 4.25-1.38"/>
  <path fill="#4a100e" d="M128.42 171.08s-1.04 1.19.29 3.42c1.32 2.23.17 10.73-1.46 13.85-1.63 3.12-3.02 1.9-3.75 3.68-.73 1.78-.01 2.13-.96 3.4s-3.76 3.6-5.82 2.86c-2.07-.74-2.64-2.59-3.44-1.16-.8 1.43-3.7 1.9-7.25-.71-3.56-2.61-4.89-3.97-5.58-2.13 0 0-3.19-1.98-3.19-4.68 0 0-3.1.23-5.15-4.84-2.04-5.07-1.68-13.44 1.38-16.42 0 0 14.15 3.02 12.54 9.8-1.61 6.78-2.94 10.18-2.94 10.18s4.31-4.82 8.26-3.4c3.96 1.42 7.56-.9 9.17 0 1.61.9 2.26 2.55 2.26 2.55s1.52-14.17 5.65-16.42Z"/>
  <path fill="none" stroke="#000" stroke-width=".25" d="M128.42 171.08s-1.04 1.19.29 3.42c1.32 2.23.17 10.73-1.46 13.85-1.63 3.12-3.02 1.9-3.75 3.68-.73 1.78-.01 2.13-.96 3.4s-3.76 3.6-5.82 2.86c-2.07-.74-2.64-2.59-3.44-1.16-.8 1.43-3.7 1.9-7.25-.71-3.56-2.61-4.89-3.97-5.58-2.13 0 0-3.19-1.98-3.19-4.68 0 0-3.1.23-5.15-4.84-2.04-5.07-1.68-13.44 1.38-16.42 0 0 14.15 3.02 12.54 9.8-1.61 6.78-2.94 10.18-2.94 10.18s4.31-4.82 8.26-3.4c3.96 1.42 7.56-.9 9.17 0 1.61.9 2.26 2.55 2.26 2.55s1.52-14.17 5.65-16.42Zm-40.7 23.36s8.19 20.27 14.86 20.27 6.67-7.37 6.67-7.37m-37.69-11.9s4.36 7.37 10.26 5.81c5.9-1.56 5.52-7.79 4.77-12.05-.74-4.25-3.03-11.62.54-15.87"/>
  <path d="M108.7 157.21c1.13 0 2.05-.71 2.05-1.59s-.92-1.59-2.05-1.59-2.04.71-2.04 1.59.91 1.59 2.04 1.59Z"/>
  <path fill="none" stroke="#000" stroke-width=".25" d="M108.7 157.21c1.13 0 2.05-.71 2.05-1.59s-.92-1.59-2.05-1.59-2.04.71-2.04 1.59.91 1.59 2.04 1.59Z"/>
  <path d="M125.47 159.21c1.13 0 2.05-.71 2.05-1.59s-.92-1.59-2.05-1.59-2.05.71-2.05 1.59.92 1.59 2.05 1.59Z"/>
  <path fill="none" stroke="#000" stroke-width=".25" d="M125.47 159.21c1.13 0 2.05-.71 2.05-1.59s-.92-1.59-2.05-1.59-2.05.71-2.05 1.59.92 1.59 2.05 1.59Zm-10.38-22.55s8.5 3.15 10.26 12.28"/>
  <path fill="#edcea5" d="M589.59 172.61s2.81-4.5 8.22-8.08l3.68-7.26s-.99-1.25-3.26-4.79c-2.27-3.54-7.41-10.06-8.08-16.02-.67-5.95.31-9.08.31-9.08s-1.58-.74-1.58-3.62l-.12-14.93 8.79-10.48 23.5 6.08 14.03 23.3-.43 27.53 12.38 17.8-29.39 13.14-17.86-.85-10.2-12.76Z"/>
  <path fill="none" stroke="#000" d="M589.59 172.61s2.81-4.5 8.22-8.08l3.68-7.26s-.99-1.25-3.26-4.79c-2.27-3.54-7.41-10.06-8.08-16.02-.67-5.95.31-9.08.31-9.08s-1.58-.74-1.58-3.62l-.12-14.93 8.79-10.48 23.5 6.08 14.03 23.3-.43 27.53 12.38 17.8-29.39 13.14-17.86-.85-10.2-12.76Z"/>
  <g clip-path="url(#p)">
    <path fill="#891814" d="M538.49 277.49s-15.95 87.46 7.44 155.49l183.97-2.11s-7.28.32-16.13-20.11c-8.86-20.44-26.95-48.69-30.92-92.44-3.97-43.75-.57-68.6-.57-68.6l-23.4-34.03-106.06 26.81-14.32 34.99Z"/>
    <path fill="none" stroke="#000" stroke-width=".25" d="M538.49 277.49s-15.95 87.46 7.44 155.49l183.97-2.11s-7.28.32-16.13-20.11c-8.86-20.44-26.95-48.69-30.92-92.44-3.97-43.75-.57-68.6-.57-68.6l-23.4-34.03-106.06 26.81-14.32 34.99Z"/>
    <path fill="none" stroke="#4a100e" d="M551.25 430.5s-1.77-24.96-4.46-41.44c-2.68-16.48-3.94-82.46 8.23-111.57 0 0-15.35 36.11-14.05 59.84m173.06 93.24s-32.26-35.05-40.68-106.25c-8.42-71.19-8.42-102.11-8.42-102.11m31.83 210.07s-18.02-51.43-28.57-111.46c-10.55-60.03-6.48-98.61-6.48-98.61M686.25 430l-12.9-63.69m3.57 65.39s-11.72-75.37-13.91-117.05c-2.19-41.68-5.37-82.9-5.37-82.9"/>
    <path fill="#879b90" d="M551.6 429.45s-1.3-4.94-.83-21.26c.47-16.32-1.41-47.51-.23-67.69s4.24-23.02 6.02-38.61c1.77-15.59 6.38-29.07 6.38-29.07s-7.52 10.63-19.84 10.35c-12.32-.28-25.51-10.49-31.46-25.51-5.95-15.02-6.8-23.53-6.8-23.53l15.46-9.56s12.03 8.71 19.68 9.85c0 0 6.24-4.82 11.62-15.59 5.39-10.77 6.67-22.64 11.46-29.15 4.79-6.51 26.81-20.18 26.81-20.18s4.51 7.23 12.47 11.34c7.96 4.11 26.67.29 37.51-7.65 10.84-7.94 26.27.88 32.51 7.93 6.24 7.05 14.56 14.46 18.34 29.2 0 0 9.15 11.96 14.54 26.67 5.39 14.71 10.54 24.07 5.11 45.89-5.43 21.83-11.59 31.18-11.59 31.18l-18.17-5.67s-1.42-3.81-1.42-8.99-1.42-6.82-2.27-13.68c-.85-6.87-1.13-16.74 1.7-25.8 0 0-.57-9.01-7.65-19.96-7.09-10.94-9.35-13.21-9.35-13.21s-1.7 9.64-5.1 20.98c-3.4 11.34-10.49 21.26-10.49 21.26s11.95 10.47 12.5 32.9c0 0 3.95 5.07 1.96 8.2 0 0 5.1 24.93-1.42 64.35-6.52 39.42-9.07 63.78-9.07 63.78l-98.36-8.77Z"/>
    <path fill="none" stroke="#000" stroke-width=".5" d="M551.6 429.45s-1.3-4.94-.83-21.26c.47-16.32-1.41-47.51-.23-67.69s4.24-23.02 6.02-38.61c1.77-15.59 6.38-29.07 6.38-29.07s-7.52 10.63-19.84 10.35c-12.32-.28-25.51-10.49-31.46-25.51-5.95-15.02-6.8-23.53-6.8-23.53l15.46-9.56s12.03 8.71 19.68 9.85c0 0 6.24-4.82 11.62-15.59 5.39-10.77 6.67-22.64 11.46-29.15 4.79-6.51 26.81-20.18 26.81-20.18s4.51 7.23 12.47 11.34c7.96 4.11 26.67.29 37.51-7.65 10.84-7.94 26.27.88 32.51 7.93 6.24 7.05 14.56 14.46 18.34 29.2 0 0 9.15 11.96 14.54 26.67 5.39 14.71 10.54 24.07 5.11 45.89-5.43 21.83-11.59 31.18-11.59 31.18l-18.17-5.67s-1.42-3.81-1.42-8.99-1.42-6.82-2.27-13.68c-.85-6.87-1.13-16.74 1.7-25.8 0 0-.57-9.01-7.65-19.96-7.09-10.94-9.35-13.21-9.35-13.21s-1.7 9.64-5.1 20.98c-3.4 11.34-10.49 21.26-10.49 21.26s11.95 10.47 12.5 32.9c0 0 3.95 5.07 1.96 8.2 0 0 5.1 24.93-1.42 64.35-6.52 39.42-9.07 63.78-9.07 63.78l-98.36-8.77Zm11.91-159.89s14.46 10.54 18.71 15.02 16.16 6.52 16.16 6.52 11.68 5.95 22.39-5.95c0 0 11.34.64 24.38-15.69m-40.81 12.91s21.31-5.14 33.83-60.16m-41.61 55.22s2.52 4.03 17.15-2.86m-23.94-21.44s10.13 26.23 25.93 21.24m-6.84 18.24s19.99-6.8 35.01-64.16m-64.32-19.6s-18.92 59.68 18.57 80.22m-30.27-43.08s.17 23.49 11.7 35.06m-17.42-69.32 1.31-7.46s2.1-.37 5.81 3.56c0 0-2.74 16.44.66 32.14m7.49-31.93s-7.74 23.67-3.72 44.3c4.03 20.63 9.95 27.53 9.95 27.53m-5.57-52.33s2.17 43.04 20.82 56.75m49.5-59.73s-3.38-12.02 1.14-17.49m-87.87 28.53s-2.58 24.72 4.36 35.8m1.72-1.24s4.74 2.49 6.93 7.31"/>
  </g>
  <path fill="#e1e6d0" d="M602.69 235.64s17.99-15.3 24.71-26.83l2.23-.77s-7.06 14.65-26.95 27.6Z"/>
  <path fill="#d69742" d="M544.38 228.74s9.68.71 17.28 5.95c0 0-.94-11.05 4.14-21.4 0 0-2.43-4.19-9.65-6.2 0 0-2.79 2.59-5.36 10.03-2.58 7.45-6.4 11.62-6.4 11.62Z"/>
  <path fill="none" stroke="#000" stroke-width=".25" d="M544.38 228.74s9.68.71 17.28 5.95c0 0-.94-11.05 4.14-21.4 0 0-2.43-4.19-9.65-6.2 0 0-2.79 2.59-5.36 10.03-2.58 7.45-6.4 11.62-6.4 11.62Z"/>
  <path fill="#d69742" d="m676.76 330.65 1.7-24.5s14.46 2.17 21.4 7.21c0 0-1.56 10.91-6.95 22.11 0 0-8.79-5.23-16.16-4.82Z"/>
  <path fill="none" stroke="#000" stroke-width=".25" d="m676.76 330.65 1.7-24.5s14.46 2.17 21.4 7.21c0 0-1.56 10.91-6.95 22.11 0 0-8.79-5.23-16.16-4.82Z"/>
  <g clip-path="url(#q)">
    <path fill="none" stroke="#000" stroke-width=".5" d="M589.87 178.28s12.91 19.99 40.96 4.88"/>
    <path fill="#e1e6d0" d="M619.64 429.45s-12.05-34.24-7.79-73.29c4.25-39.05 14.17-57.83 14.17-57.83s13.94 41.83 19.72 131.12h-26.1Z"/>
  </g>
  <path fill="#e1e6d0" d="M643.74 379.97s-10.6-84.81-13.98-93.67l7 19.7 1.42-5.53-1.42-18.09s5.48 33.69 6.99 60.14v37.44Zm2.13-40.24s.16-36.17-5.24-50.67c0 0 9.59 2.01 16.88 56.94 7.29 54.93 7.29 56.85 7.29 56.85l-16.47-32.46-2.47-30.67Zm-66.2-57.36s15.05 37.88 15.05 62.01c0 0 6.7-40 16.09-51.66 0 0-8.18 1.16-12.43-1.33s-8.22-1.44-11.91-3.2c-3.69-1.76-6.8-5.82-6.8-5.82Zm69.85-77.16s7.83-3.37 12.98 3.55 5.91 14.87 5.91 14.87l-3.12 1.7s-4.8-1.41-9.69-7.23-6.08-12.9-6.08-12.9Zm20.01 18.43s2.1-12.03-4.23-18.13c0 0 9.77 5.24 12.16 12.6l-7.93 5.52Zm-79.88-22.74s-4.21 20.53 4.47 41.6c0 0-2.75-9.36-2.75-21.55 0 0 1.28 6.6 6.81 6.6s14.54-4.77 26.55-19.51l-35.09-7.14Zm89.09 89.65s-4.25-15.47 6.95-26.45c11.2-10.98.09-.09.09-.09s5.06 4.76 2.97 12.57l-2.09 7.81s-3.93 1.79-7.91 6.15Zm8.74-52.47-5.76 18.73s6.07-10.05 15.93-8.43l1.07-2.39-6.8-10.35-4.44 2.44Zm-13.42 6.94 10.25-6.01s-1.39 9.58-5.13 18.65c0 0-2.14-10.21-5.13-12.64Z"/>
  <path fill="#891814" d="M588.63 198.55s-6.3-2.69-13.23-3.97c-6.93-1.27-14.18-3.39-13.02-5.81 1.16-2.43 2.48-4.82 5-6.38 0 0-.18-3.4 6.76-7.79 6.95-4.39 7.79-4.09 11.76-6.81 3.97-2.71 8.79-6.08 12.47-4.39l-.83 1.68s-4.45 2-6.68 7.1c0 0 1.96 12.9 4.82 18.43 0 0 10.06-.99 13.46 6.66 0 0 14.22-9.35 29.5-22.68 0 0 .68-3.69 3.09-7.51l23.4 13.66s-1.26 4.63-14.46 15.96c-13.2 11.33-26.61 16.58-46.06 15.31 0 0-.02 2.41-.31 5.1-.28 2.69-1.98 5.1-5.53 4.96-3.54-.14-7.51-6.66-7.79-11.2-.28-4.54-2.38-8.93-2.38-8.93v-3.4Z"/>
  <path fill="none" stroke="#000" stroke-width=".25" d="M588.63 198.55s-6.3-2.69-13.23-3.97c-6.93-1.27-14.18-3.39-13.02-5.81 1.16-2.43 2.48-4.82 5-6.38 0 0-.18-3.4 6.76-7.79 6.95-4.39 7.79-4.09 11.76-6.81 3.97-2.71 8.79-6.08 12.47-4.39l-.83 1.68s-4.45 2-6.68 7.1c0 0 1.96 12.9 4.82 18.43 0 0 10.06-.99 13.46 6.66 0 0 14.22-9.35 29.5-22.68 0 0 .68-3.69 3.09-7.51l23.4 13.66s-1.26 4.63-14.46 15.96c-13.2 11.33-26.61 16.58-46.06 15.31 0 0-.02 2.41-.31 5.1-.28 2.69-1.98 5.1-5.53 4.96-3.54-.14-7.51-6.66-7.79-11.2-.28-4.54-2.38-8.93-2.38-8.93v-3.4Z"/>
  <path fill="#891814" d="M676.85 331.5s-1.07-.28-.23-4.82c0 0-1.03-1.13-.09-4.11 0 0-2.09-4.11-.08-6.66s5.27-4.22 11.86-2.68c6.59 1.54 14.5 5.51 19.49 16.71 4.99 11.2 8.08 18.71 7.23 34.16-.85 15.45-2.98 20.69-7.51 21.12-4.54.42-5.53-1.99-5.53-1.99s-.43 1.99-5.39-3.68-10.65-16.02-10.91-28.7c-.26-12.68-2.41-18.21-2.41-18.21l-6.43-1.13Z"/>
  <path fill="none" stroke="#000" stroke-width=".25" d="M676.85 331.5s-1.07-.28-.23-4.82c0 0-1.03-1.13-.09-4.11 0 0-2.09-4.11-.08-6.66s5.27-4.22 11.86-2.68c6.59 1.54 14.5 5.51 19.49 16.71 4.99 11.2 8.08 18.71 7.23 34.16-.85 15.45-2.98 20.69-7.51 21.12-4.54.42-5.53-1.99-5.53-1.99s-.43 1.99-5.39-3.68-10.65-16.02-10.91-28.7c-.26-12.68-2.41-18.21-2.41-18.21l-6.43-1.13Z"/>
  <path fill="#d6e2f4" d="M678.88 390.33s-.31.98-1.84.98-2.25-1.84-.47-3.68 6.81-7.81 4.3-16.72c0 0 .83-2.17 1.7-4.25.87-2.09.71-3.24-.71-4.95-1.42-1.7-13.98-13.76-19.11-15.32s-9.8-2.28-13.91-2.13c0 0-1.98 2.11-1.42 4.7.57 2.58 1.28 2.58 2.69 2.58s1.13-2.58 4.25-2.58 8.79 1.38 13.89 4.8c5.1 3.42 9.21 12.33 9.21 12.33l-.89 4.32s2.07 3.33 1.04 7.72c-1.04 4.39-5.38 6.25-5.67 9.78-.28 3.53.61 7.09 3.51 6.8 2.9-.28 3.72-2.98 3.43-4.38Z"/>
  <path fill="none" stroke="#000" stroke-width=".5" d="M678.88 390.33s-.31.98-1.84.98-2.25-1.84-.47-3.68 6.81-7.81 4.3-16.72c0 0 .83-2.17 1.7-4.25.87-2.09.71-3.24-.71-4.95-1.42-1.7-13.98-13.76-19.11-15.32s-9.8-2.28-13.91-2.13c0 0-1.98 2.11-1.42 4.7.57 2.58 1.28 2.58 2.69 2.58s1.13-2.58 4.25-2.58 8.79 1.38 13.89 4.8c5.1 3.42 9.21 12.33 9.21 12.33l-.89 4.32s2.07 3.33 1.04 7.72c-1.04 4.39-5.38 6.25-5.67 9.78-.28 3.53.61 7.09 3.51 6.8 2.9-.28 3.72-2.98 3.43-4.38Z"/>
  <path fill="#edcea5" d="M678.34 330.62s-.31 3.85-6.26 9.24c-5.95 5.39-9.5 6.38-10.49 12.19-.99 5.81-.85 8.22-.71 10.91.14 2.69 1.84 2.68 2.41 2.69.57.02 1.56-1.13 1.56-4.96s2.84-7.09 2.84-7.09-.57 3.68-.99 6.8c-.42 3.12-.71 3.79-.57 5.37.14 1.57.71 2.71 1.56 2.85.85.14 1.88-.42 1.88-.42s-.32 1.42.96 1.84c1.28.42 2.55.12 2.55.12s-.72 1.44 1.42 2.15c2.13.71 2.84-1.28 5.53-5.24 2.69-3.97 4.25-6.44 5.67-11.06 1.42-4.61 4.25-8.65 4.39-16.02 0 0 1.79-2.07 2.27-4.82 0 0-6.21-3.96-14.01-4.56Z"/>
  <path fill="none" stroke="#000" stroke-width=".75" d="M678.34 330.62s-.31 3.85-6.26 9.24c-5.95 5.39-9.5 6.38-10.49 12.19-.99 5.81-.85 8.22-.71 10.91.14 2.69 1.84 2.68 2.41 2.69.57.02 1.56-1.13 1.56-4.96s2.84-7.09 2.84-7.09-.57 3.68-.99 6.8c-.42 3.12-.71 3.79-.57 5.37.14 1.57.71 2.71 1.56 2.85.85.14 1.88-.42 1.88-.42s-.32 1.42.96 1.84c1.28.42 2.55.12 2.55.12s-.72 1.44 1.42 2.15c2.13.71 2.84-1.28 5.53-5.24 2.69-3.97 4.25-6.44 5.67-11.06 1.42-4.61 4.25-8.65 4.39-16.02 0 0 1.79-2.07 2.27-4.82 0 0-6.21-3.96-14.01-4.56Z"/>
  <path fill="none" stroke="#000" d="M673.23 356.31s-2.93 6.36-3.28 8.35c-.36 1.99-.57 3.84-.57 3.84m8.86-9.72s-3.35 6.05-3.87 8.02c-.52 1.97-1.58 2.25-1.58 3.6"/>
  <path fill="#edcea5" d="m510.3 210.46-1.08-2.46s1.62-2.02 1.08-8.75-4.08-9.23-4.48-12.9c-.4-3.67-1.84-7.07-1.84-9.91s-.28-2.82-1.84-1.84c-1.56.98-3.54 5.1-1.13 9.35 0 0-.28 2.82 1.42 5.39 0 0-2.55-.02-4.82 1.27-2.27 1.29-11.2-.45-13.04.73 0 0-1.84-1.21-4.54-2.28-2.69-1.07-4.11-1.15-6.09-2.27-1.98-1.12-5.53-2.69-6.38-1.56-.85 1.13.28 2.56 3.12 3.83 2.83 1.27 9.38 5.96 10.93 6.53l-1.86.13s-2.69-2.02-5.67-3.2c-2.98-1.18-8.67-4.17-9.21-2.61-.54 1.56 0 2.27 1.56 3.83 0 0-.99 2.13.28 3.12 1.27.99 1.56 1.28 1.56 1.28s-.57.88.43 2.07c.99 1.19 2.83 2.71 4.68 4.73 1.84 2.02 1.84 2.99 6.24 3.92 4.39.93 11.91 1.47 14.74 3.31 0 0 .14 1.78 3.26 3.94 0 0 5.67-1.25 12.7-5.64Z"/>
  <g clip-path="url(#r)">
    <path fill="none" stroke="#000" stroke-width=".75" d="m510.3 210.46-1.08-2.46s1.62-2.02 1.08-8.75-4.08-9.23-4.48-12.9c-.4-3.67-1.84-7.07-1.84-9.91s-.28-2.82-1.84-1.84c-1.56.98-3.54 5.1-1.13 9.35 0 0-.28 2.82 1.42 5.39 0 0-2.55-.02-4.82 1.27-2.27 1.29-11.2-.45-13.04.73 0 0-1.84-1.21-4.54-2.28-2.69-1.07-4.11-1.15-6.09-2.27-1.98-1.12-5.53-2.69-6.38-1.56-.85 1.13.28 2.56 3.12 3.83 2.83 1.27 9.38 5.96 10.93 6.53l-1.86.13s-2.69-2.02-5.67-3.2c-2.98-1.18-8.67-4.17-9.21-2.61-.54 1.56 0 2.27 1.56 3.83 0 0-.99 2.13.28 3.12 1.27.99 1.56 1.28 1.56 1.28s-.57.88.43 2.07c.99 1.19 2.83 2.71 4.68 4.73 1.84 2.02 1.84 2.99 6.24 3.92 4.39.93 11.91 1.47 14.74 3.31 0 0 .14 1.78 3.26 3.94 0 0 5.67-1.25 12.7-5.64Z"/>
    <path fill="#d6e2f4" d="M639.85 347.09s2.88 17.11 2.18 25.49c0 0-14.27 9.51-11.88 26.52 2.39 17.01 17.04 19.7 17.04 19.7s2.4 6.66-.03 13.04c0 0 10.66 2.55 18.43-2.83 7.77-5.39 9.92-8.06 9.92-8.06s-5.06 1.12-8.39-1.86c-3.33-2.98-4.82-3.83-4.82-3.83s14.61-8.15 10.36-26.5c-4.24-18.35-21.25-20.24-21.25-20.24s-2.15-17.57-2.29-22.83l-9.26 1.4Z"/>
    <path fill="none" stroke="#000" stroke-width=".75" d="M639.85 347.09s2.88 17.11 2.18 25.49c0 0-14.27 9.51-11.88 26.52 2.39 17.01 17.04 19.7 17.04 19.7s2.4 6.66-.03 13.04c0 0 10.66 2.55 18.43-2.83 7.77-5.39 9.92-8.06 9.92-8.06s-5.06 1.12-8.39-1.86c-3.33-2.98-4.82-3.83-4.82-3.83s14.61-8.15 10.36-26.5c-4.24-18.35-21.25-20.24-21.25-20.24s-2.15-17.57-2.29-22.83l-9.26 1.4Z"/>
  </g>
  <path fill="#d6e2f4" d="M643.45 339.29c4.54-.43 6.52 1.4 6.66 3.97.14 2.57-1.58 5.95-5.1 6.24-3.52.28-6.24-.99-6.66-4.25-.43-3.26 2.12-5.67 5.1-5.95Z"/>
  <path fill="none" stroke="#000" stroke-width=".75" d="M643.45 339.29c4.54-.43 6.52 1.4 6.66 3.97.14 2.57-1.58 5.95-5.1 6.24-3.52.28-6.24-.99-6.66-4.25-.43-3.26 2.12-5.67 5.1-5.95Z"/>
  <path d="M643.59 342.69c2.15-.29 3.12.87 3.12.87s-.63 1.67-2.5 1.97c-1.87.3-3.45-1.46-3.45-1.15s.71-1.4 2.84-1.69Z"/>
  <g clip-path="url(#s)">
    <path fill="none" stroke="#000" stroke-width=".25" d="M643.59 342.69c2.15-.29 3.12.87 3.12.87s-.63 1.67-2.5 1.97c-1.87.3-3.45-1.46-3.45-1.15s.71-1.4 2.84-1.69Zm6.8 82.49s10.35-3.97 14.46-7.37m-12.33 10.21s9.35-2.69 15.59-8.22"/>
  </g>
  <path fill="#d69742" d="M496.76 216.1s10.06-2.95 13.89-7.06l13.2 16.87s-9.64 8.5-19.15 10.49l-7.95-20.29Z"/>
  <path fill="none" stroke="#000" stroke-width=".25" d="M496.76 216.1s10.06-2.95 13.89-7.06l13.2 16.87s-9.64 8.5-19.15 10.49l-7.95-20.29Z"/>
  <path fill="#d69742" d="M661.87 226.47s7.94-3.99 13.04-8.23c5.1-4.24 13.37-8.21 16.18-8.21 0 0 9.33 12.47 13.02 21.83 0 0-5.17-1.39-11.51 2.43-6.35 3.82-20.23 10.74-20.23 10.74s-6.52-9.38-10.49-18.55Z"/>
  <path fill="none" stroke="#000" stroke-width=".25" d="M661.87 226.47s7.94-3.99 13.04-8.23c5.1-4.24 13.37-8.21 16.18-8.21 0 0 9.33 12.47 13.02 21.83 0 0-5.17-1.39-11.51 2.43-6.35 3.82-20.23 10.74-20.23 10.74s-6.52-9.38-10.49-18.55Z"/>
  <path fill="none" stroke="#000" stroke-width=".5" d="M686.74 238.11s-2.22 8.21-6.73 20.39l1.7.04s10.78-11.66 15.87-8.83m-10.84 7.94s5.85-6.52 15.94-3.69c10.09 2.84 10.09 8.22 10.09 8.22"/>
  <path fill="none" stroke="#000" stroke-width=".75" d="M599.65 161.84s-1.7 9.23.42 11.48c2.13 2.25 9.69 8.5 20.55 3.12 10.86-5.39 15.45-11.21 15.45-11.21"/>
  <path fill="#4a100e" d="M588.63 123.72s-.46-7.8 1.24-11.34c1.7-3.53 4.54-6.83 8.79-10.05 0 0 4.54-.48 8.65 1.56s7.09 1.67 7.09 1.67 2.03 4.05 7.25 5.71c0 0-.45.82 2.39 3.09 2.83 2.26.99 8.36 4.25 11.19s3.89 6.24 1.99 9.21c-1.9 2.98-2.27 3.05-1.84 5.28.42 2.23 1.13 2.94.85 9.6-.28 6.66-1.52 12.74 2.69 15.57 4.21 2.84 5.67 2.5 5.81 4.09.14 1.59-5.95 3.44-5.67 6.7.28 3.26 4.07 4.39 4.07 4.39s-2.08-1.02-1.94-4.83c.14-3.81 5.39-2.61 5.1-6.26-.28-3.65-1.84-3.79-1.84-3.79s3.26.46 3.54 2.13c.28 1.67-.57 6.94 2.41 9.21 2.98 2.27 5.62.69 7.24 1.83 1.63 1.15.48 4.85 2.96 6.25 2.48 1.4 5.92 1.59 7.93.11s4.02-.81 2.01 1.15-3.13 3.84-1.09 5.54c2.05 1.7 3.7 1.44 5.15.77 1.45-.67 2.99 1.5 1.17 2.49-1.82.99-4.82 3.26-3.26 4.96 1.56 1.7 3.69 2.29 5.39.08 0 0-1.65 1.46-3.3-.08s.04-2.12 1.31-2.41c1.27-.28 3.54-.9 4.11-4.39.57-3.49-.24-4.99-4.66-4.99 0 0 2.53-2.23 2.39-6.34s-1.93-6.52-5.51-6.94c-3.58-.43-1.87-2.43-2.79-4.62-.92-2.2-4.3-1.91-6.36-1.76-2.06.16-1.92-1.25-2.2-3.97-.28-2.72-2.86-5.67-6.24-5.95-3.38-.28-5.81.71-6.52-2.69s1.56-4.79-.28-8.49-4.13-4.51-2.28-6.25c1.85-1.74 5.96-9.68 5.53-16.72-.42-7.04.85-13.3-.57-18.49-1.42-5.18-2.41-6.88-6.24-10.92s-3.97-7.44-12.47-10.42c-8.5-2.98-16.3-3.69-24.8 3.75-8.5 7.44-9.93 11.16-11.63 16.53-1.69 5.37-1.55 16.85.18 18.83Z"/>
  <path fill="none" stroke="#000" stroke-width=".25" d="M588.63 123.72s-.46-7.8 1.24-11.34c1.7-3.53 4.54-6.83 8.79-10.05 0 0 4.54-.48 8.65 1.56s7.09 1.67 7.09 1.67 2.03 4.05 7.25 5.71c0 0-.45.82 2.39 3.09 2.83 2.26.99 8.36 4.25 11.19s3.89 6.24 1.99 9.21c-1.9 2.98-2.27 3.05-1.84 5.28.42 2.23 1.13 2.94.85 9.6-.28 6.66-1.52 12.74 2.69 15.57 4.21 2.84 5.67 2.5 5.81 4.09.14 1.59-5.95 3.44-5.67 6.7.28 3.26 4.07 4.39 4.07 4.39s-2.08-1.02-1.94-4.83c.14-3.81 5.39-2.61 5.1-6.26-.28-3.65-1.84-3.79-1.84-3.79s3.26.46 3.54 2.13c.28 1.67-.57 6.94 2.41 9.21 2.98 2.27 5.62.69 7.24 1.83 1.63 1.15.48 4.85 2.96 6.25 2.48 1.4 5.92 1.59 7.93.11s4.02-.81 2.01 1.15-3.13 3.84-1.09 5.54c2.05 1.7 3.7 1.44 5.15.77 1.45-.67 2.99 1.5 1.17 2.49-1.82.99-4.82 3.26-3.26 4.96 1.56 1.7 3.69 2.29 5.39.08 0 0-1.65 1.46-3.3-.08s.04-2.12 1.31-2.41c1.27-.28 3.54-.9 4.11-4.39.57-3.49-.24-4.99-4.66-4.99 0 0 2.53-2.23 2.39-6.34s-1.93-6.52-5.51-6.94c-3.58-.43-1.87-2.43-2.79-4.62-.92-2.2-4.3-1.91-6.36-1.76-2.06.16-1.92-1.25-2.2-3.97-.28-2.72-2.86-5.67-6.24-5.95-3.38-.28-5.81.71-6.52-2.69s1.56-4.79-.28-8.49-4.13-4.51-2.28-6.25c1.85-1.74 5.96-9.68 5.53-16.72-.42-7.04.85-13.3-.57-18.49-1.42-5.18-2.41-6.88-6.24-10.92s-3.97-7.44-12.47-10.42c-8.5-2.98-16.3-3.69-24.8 3.75-8.5 7.44-9.93 11.16-11.63 16.53-1.69 5.37-1.55 16.85.18 18.83Z"/>
  <path fill="none" stroke="#be9673" stroke-width=".5" d="M603.2 101.32s5.14.42 9.67-.57 9.8 1.54 11.83 4.25m-1.38 2.28s-.57-3.28-7.09-4.11c-6.52-.83-7.51.2-11.34-1.27m19.8 6.92s6.97-.83 8.96 3.86m-8.86-2.71s6.04.16 8.86 4.98m-13.73-5.9s1.33.66 4.77 2.02c3.45 1.36 6.37 2.42 9.08 5.56m-4.55 2.59s1.14 2.56 5.27 3.88c4.12 1.32 6.2 5.51 4.81 10.54m-6.65-8.65s7.08 1.84 3.84 12.19m-5.94-12.31s6.03 2.52 4.06 9.19c-1.97 6.68-2.49 7.08-.98 10.42 1.5 3.33 2.48 3.76 1.99 7.58-.49 3.83.64 7.82 4.24 8.79m-5.37-9.6s-1.12 4.5 0 7.76 3.53 5.08 7.09 5.08 4.39-.09 4.27 2.57c-.12 2.66.57 4.39.57 4.39m-2.97-5.82s.99.94 1.13 4.09c.14 3.15.97 5.28 3.54 5.42 2.57.14 6-1.83 7.47-.85 1.48.98.75 3.24 2.59 5.39 1.84 2.14 6.52 1.56 6.52 1.56m-32.31-28.35s-3.22 5.83.28 9.78c3.5 3.94 4.56 2.82 4.56 2.82"/>
  <path fill="none" stroke="#891814" stroke-width=".5" d="M603.82 95.43s5.47-4.75 10.99-4.75 10.49 5.12 10.49 5.12m-24.23 1.71s3.4-.03 6.94-1.72c3.54-1.68 13.08-3.45 17.38 3.16m-24.32.53s3.4.92 8.22-.53c4.82-1.45 12.33-.23 15.31 3.38m2.83-2.71s5.1-1.16 9.21 2.79c4.11 3.95 4.82 8.14 4.82 8.14M627.4 97.51s6.17-2.13 12.45 5.24m-13.27 1.14s4.4-1.28 8.22 2.04c3.82 3.32 3.82 5.09 3.82 5.09m-12.07-5.08s3.09-1.36 6.1.91 3.72 5.81 3.72 5.81m-8.97-5.95s5.65-.15 7.09 4.32m1.16 7.16s8.28 2.2 7.1 11.34m-15.35-15.16s1.19 3.59 4.71 5.69c3.51 2.11 6.56 1.69 7.75 6.78m21.3 52.72s3.24-1.47 5.24 0c2.01 1.47 1.24 4.02 1.24 4.02m-11.5-6.71s-1.35 2.71 1.06 4.33 6.39.1 6.39.1m-8.66-4.49s-1.84 3.03 0 5.58c1.84 2.55 4.71 1.18 4.71 1.18m-17.47-17.33s-1.31 6.7 1.19 9.34c2.49 2.64 7.33 2 7.33 2m12.94 10.59s-1.75 1.11-.04 2.73c1.71 1.62 4.61-.99 6.36.57 1.76 1.56-1.54 4.25-1.54 4.25m-32.79-55.67s-1.7 2.09 0 4c1.71 1.91 3.18 4.56 2.44 8.98m3.12 7.94s5.24-.3 7.09 3.12m-8.07-11.66s-1.22 3.04.97 5.45 6.53 1.56 6.53 1.56m-43.37-68.32s4.82-3.41 10.77-2.77c5.95.64 9.69 3.9 9.69 3.9m-29.67 4.32s-1.98 3.01-4.53 5.76"/>
  <path fill="#4a100e" d="M623.06 122.16s-2.55-5.53-8.5-6.53c-5.95-.99-9.54 2.28-9.31 2.9.24.63 1.82-.09 3.92-.78 2.1-.69 6.42-1.81 9.47.3 3.05 2.11 4.42 4.1 4.42 4.1Z"/>
  <path fill="none" stroke="#4a100e" stroke-width=".25" d="M623.06 122.16s-2.55-5.53-8.5-6.53c-5.95-.99-9.54 2.28-9.31 2.9.24.63 1.82-.09 3.92-.78 2.1-.69 6.42-1.81 9.47.3 3.05 2.11 4.42 4.1 4.42 4.1Z"/>
  <path fill="#4a100e" d="M589.23 119.77s1.84-2.93 5.53-2.79c3.68.14 4.16 2.1 3.92 2.85-.24.76-1.51-.28-2.93-.67-1.42-.39-3.54-1.1-6.52.6Z"/>
  <path fill="none" stroke="#4a100e" stroke-width=".25" d="M589.23 119.77s1.84-2.93 5.53-2.79c3.68.14 4.16 2.1 3.92 2.85-.24.76-1.51-.28-2.93-.67-1.42-.39-3.54-1.1-6.52.6Z"/>
  <path fill="none" stroke="#000" stroke-width=".5" d="M605.89 121.32s1.29-2.54 4.13-2.54 6.85 2.88 6.85 2.88m-10.13 2.15s.43-.88 1.28-2.04c.85-1.17 2.86-1.64 5.27-.31 2.41 1.33 3.43 2.06 5.01 1.98m-10.26.42s1.02 2.56 3.97 2.56 3.97-2.26 3.97-2.26m-6.48 2.26s.82 2.75 3.36 2.61c2.54-.14 2.83-1.26 2.83-1.26m-26.56-2.59s1.62-.74 2.75-2.08 4.44-.25 5.5.76m-8.3-1.21s4.16-4.31 8.39-.89m-7.74 4.15s.91 1.86 3.54 1.86 4.75-3.02 4.75-3.02m-6.66 3.02s.96 2.15 3.86 1.77"/>
  <path fill="none" stroke="#000" stroke-width=".75" d="M598.12 119.77s1.9.79 1.32 5.8c-.58 5.02-.58 9.13-.58 9.13s-1.49 1.56-.73 3.19.94 2.87 2.83 2.71c1.89-.16 1.65-.62 3.24-.62s3.73-.23 3.73-2.21"/>
  <path fill="none" stroke="#000" d="m600.01 146.51 2.08-1.1s1.87.96 5.57-.51c0 0 .92 1.18 3.7.8"/>
  <path fill="none" stroke="#000" stroke-width=".75" d="M602.49 147.74s.79 1.45 3.18 1.36c2.38-.09 3.27-1.13 3.27-1.13m-7.59 3.25s1.02-1.85 3-2.2m5.03 1.5s-.83-1.19-2.22-1.63m-4.78-8.57s-.25 1.41 2 2.55"/>
  <path fill="none" stroke="#000" stroke-width=".25" d="M604.07 121.53s-1.37 9.24-1.26 12.46m.53 3.69s-.61-2.41.86-2.41 2.93 2.83 2.93 2.83"/>
  <path fill="none" stroke="#000" d="M601.64 157.28s1.61 2.84 6.29 2.43c4.68-.41 8.88-2.51 13.56-9.62 4.68-7.11 4.05-11.08 4.54-17.44.48-6.36 1.27-8.84 1.27-8.84"/>
  <path fill="none" stroke="#000" stroke-width=".25" d="M627.72 130.2s-.41 3.05 1.4 2.75c1.81-.3-.05-4.71-2.56-5.55"/>
  <path fill="#4a100e" d="M610.39 124c.99.14 1.86-.21 1.94-.79.08-.57-.66-1.15-1.65-1.29-.99-.14-1.86.21-1.94.79-.08.57.66 1.15 1.65 1.29Z"/>
  <path fill="none" stroke="#000" stroke-width=".25" d="M610.39 124c.99.14 1.86-.21 1.94-.79.08-.57-.66-1.15-1.65-1.29-.99-.14-1.86.21-1.94.79-.08.57.66 1.15 1.65 1.29Z"/>
  <path fill="#4a100e" d="M592.63 125.72c.99.14 1.86-.21 1.94-.79.08-.57-.66-1.15-1.65-1.29-.99-.14-1.86.21-1.94.79-.08.57.66 1.15 1.65 1.29Z"/>
  <path fill="none" stroke="#000" stroke-width=".25" d="M592.63 125.72c.99.14 1.86-.21 1.94-.79.08-.57-.66-1.15-1.65-1.29-.99-.14-1.86.21-1.94.79-.08.57.66 1.15 1.65 1.29Z"/>
  <g clip-path="url(#t)">
    <path fill="none" stroke="#000" stroke-width=".5" d="M654.72 339.73s.51-39.18-14.86-65.16c0 0 4.39 1.1 7.44 7.8 3.05 6.7 6.19 11.68 7.55 10.35 1.36-1.33.09-8.42.09-8.42s3.58 11.62.67 11.91c-2.92.28-5.35-3.49-5.35-3.49s10.97 23.65 8.8 54.53h-4.25l-.07-7.51Z"/>
    <path fill="#aabca4" d="M586.21 428.3s-15.86-61.76-16.31-142c0 0-16.88 87.87-7.25 144.57l15.52.34s-8.27-45.25-8.27-79.67c0 0 1.31 32.22 12.05 77.92l4.25-1.15Z"/>
    <path fill="none" stroke="#000" stroke-width=".25" d="M586.21 428.3s-15.86-61.76-16.31-142c0 0-16.88 87.87-7.25 144.57l15.52.34s-8.27-45.25-8.27-79.67c0 0 1.31 32.22 12.05 77.92l4.25-1.15Z"/>
    <path fill="#aabca4" d="M592.35 429.79s-11.43-33.66-15.24-73.52c0 0 9.92 50.49 18.43 72.82l-3.19.71Z"/>
    <path fill="none" stroke="#000" stroke-width=".25" d="M592.35 429.79s-11.43-33.66-15.24-73.52c0 0 9.92 50.49 18.43 72.82l-3.19.71Zm57.17-222.7s1.04 14.5 14.07 17.48"/>
  </g>
  <path fill="none" stroke="#000" stroke-width=".5" d="M678.85 292.73s2.82-5.03 7.8-7.01"/>
  <path fill="none" stroke="#aabca4" stroke-width=".5" d="M687.39 286.28s-1.79 1.61-4.67 3.97c-2.88 2.36-2.88 3.69-2.88 3.69s9.06-1.15 15.53 4.82"/>
  <path fill="none" stroke="#000" stroke-width=".5" d="M685.17 299.89s10.5 5.25 14.82 10.99"/>
  <path fill="none" stroke="#aabca4" stroke-width=".5" d="M687.58 263.56s4.69-5.82 11.17 0c6.48 5.82 1.34 29.23 1.34 29.23s-4.96-4.17-12.61-3.9"/>
  <path fill="none" stroke="#000" stroke-width=".25" d="m625.59 392.59-9.62 12.46.83 2.27 10.21-4.41m-10.21 8.11s17.04-.35 29.07 14.27m30.7-107.26s4.18-3.97 12.89 0c8.72 3.97 17.22 13.24 17.22 13.24m-29.64-7.52s4.01-5.27 12.42 0c8.41 5.28 18.61 20.77 19.46 44.77m-14.1-33.49s12.38 17.3 9.86 38.56c0 0-2.62-4.93-3.68-14.79s-6.17-23.77-6.17-23.77Zm-18.2-8.6s1.53-2.18 6.61-1.31c5.08.87 13.61 5.65 17.76 18.14 4.15 12.49 7.16 26.36 4.15 33.45 0 0-2.21-.28-5.99-11.76-3.78-11.48-4.2-26.43-7.52-29.3m-15.06-13.51s4.55-3.35 9.8-1.32c5.26 2.03 10.69 3.81 13.72 8.98 3.03 5.16 7.53 13.91 8.96 23.95 1.43 10.05 4.41 24.77-2.28 28.21m-9.89-59.25s11.2 10.94 13.04 22.83c1.84 11.89 1.99 30.32 1.99 30.32m-24.95-25.04s3.05.62 4.54 7.18c1.5 6.56 4.63 20.21 8.49 24.06m-9.63-44.19s1.95.97 3.15 8.79c1.19 7.82 4.06 21.36 7.48 27.34 3.42 5.98 7.34 6.63 8.06.06m-32.01-46.8s5.2-4.94 14.59 4.47m-47.42 40.85s6.47-2.23 9.16-1.12c2.69 1.12 12.95 4.25 16.46 15.02 3.52 10.77 2.15 20.83-9.5 28.63"/>
  <path fill="#edcea5" d="M672.08 243.62s-2.83-11.54-2.69-19.02l-5.75 2.94s3.65 8.71 8.44 16.08Z"/>
  <path fill="#b7916c" d="m306.3 401.8 1.24-27.04-28.34 25.22 27.1 1.82z"/>
  <path fill="#edcea5" d="M675.2 241.5s-2.2-2.26-3-10.77c-.8-8.51-.8-9.92-.8-9.92l2.44 1.41 2.49-4.1-1.7 4.96.99 1.61s1.77-5.39 4.22-7.71c2.45-2.32-1.94 2.82-2.79 8.5l.41 4.26s1.92-5.95 5.56-11.62c0 0-3.56 7.29-5.19 13.63l1.03 2.54s2.3-7.55 5.47-13.48c0 0-1.99 7.19-2.72 10.93l5.05-9.52s-.46 10.19-3.64 14.78-5.19 4.59-7.82 4.51Z"/>
  <path fill="none" stroke="#edcea5" stroke-width=".5" d="M686.53 224.49s.85 8.38-2.83 14.46m3.78-16.77s.83 3.84 0 10.81c0 0 3.33-5.5 3.33-13.31m5.08 2.52s-4 8.09-9.15 14.79c0 0 4.9-4.53 10.85-6.55"/>
  <path fill="none" stroke="#000" stroke-width=".5" d="M510.54 209.89s-2.45 4.04-13.22 6.35m15.86-4.22s-4.47 5.14-13.42 7.67m20.41 3s-4.56 3.64-9.53 5.2c-4.96 1.56-6.68 3.53-6.68 3.53m17.32-7.78s-5.1 3.67-10.21 5.53c-5.1 1.86-6.09 3.12-6.09 3.12m16.72-7.73s-6.3 6.03-14.77 7.8"/>
  <path fill="none" stroke="#e1e6d0" stroke-width=".5" d="M530.78 232.48s-9.02 11.71-16.44 15.11m15.3-16.17s-7.79 11.21-15.02 13.2c-7.23 1.98-6.46-2.83-6.46-2.83m23.18-7.95s-7.09 9.5-14.6 14.74m11.62 7.39s2.27-11.89 5.95-17.69m1.13 19.37s-2.28-8.39 0-18.85m-2.38-3.2s-4.41 7.3-14.19 13.83"/>
  <g clip-path="url(#u)">
    <path fill="none" stroke="#000" stroke-width=".5" d="M524.24 228.42s-7.5 9.19-17.14 10.38c0 0 1.89 4.93 8.61 3.74 0 0 .44-1.91-1.38-2.55m19.97-4.39s3.41 3.48 7.38 6.94c3.97 3.46 7.79 13.33 5.11 21.03m-30.12-1.81s9.99 17.22 25.72 9.78m-29.12-20.41s7.41 10.06 14.53 15.02c7.13 4.96 12.18 6.09 17-2.05m-.69-22.18s15.61 13.46 10.91 24.8m-6.11-3.16s7.28-6.32 1.87-14.03m5.25 20.64s-.88 9.77-13.58 9.77m11.14-11.52s-.93 6.73-9.48 10.3m.8-37.93s6.29 4.8 10.25 12.3m-10.25-14.88s10.82 7.01 13.78 14.93c0 0 1.69 5.69-.42 10.96m-16.59-27.56s13.7 2.82 19.02 7.43m35.98 68.54s5.02-13.65 14.13-19.79m11.66 0s-22.96 35.8-20.13 137.28m-28.91-152.51s9.4 76.74 23.13 115.06c0 0 2.7-65.97 12.18-92.08m-38.71-23.03s8.5 98.7 27.21 151.99m49.95-89.01s2.33-16.23 2.33-23.53c0 0 4.41 15.76 4.41 28.79m-30.04-37.29 3.17 41.27m-.66-38.78s1.62 4.66 3.35 18.15c1.73 13.49 4.9 30.67 4.9 30.67m-18.41-67.18s-7.5 11.06-7.5 32.27m15.02-32.34s7.72.66 7.72-10.16m-144.65-90.38s3.71 1.17 7.09 4.26"/>
  </g>
  <path fill="none" stroke="#000" d="M466.28 194.02s1.56-1.11 3.83.56c2.27 1.67 7.23 3.62 9.07 6.2 0 0 6.06-.3 8.36.88m-19.42-3.53s.85-1.56 2.98 0 5.95 5.24 7.94 5.81c1.99.57 8.36.57 9.21 2.41"/>
  <path fill="none" stroke="#4a100e" stroke-width=".75" d="M567.85 183.17s13.62 7.4 24.29 8.77m-7.35-22.62s-1.07 3.16-1.07 8.45c0 0 5.05 9.3 9.28 12.99m5.88 3.11s7.55 1.35 8.35 7.74c.81 6.39-2.81 8.84-2.81 8.84m5.07-13.17s4.66 9.91-5.05 14.46m-15.81-13.76s.15-1.33 4.38-4.23c4.23-2.9 8.24-2.9 8.24-2.9m-9.09 8.13s3.09-1.92 9.09 0c5.99 1.92 3.92 9.83 3.92 9.83m-1.83-7.91s.85 7.92.97 10.95m-2.78-12.24s-1.03 4.07-1.03 9.23-.76 7.44-2.72 7.44-3.01-3.2-.97-7.47 3.13-7.2 3.13-7.2-3.98 1.98-6.25 5.47c0 0-.11-4.42 7.83-7.47Zm15.27 2.55s12.58-10.01 19.76-20.09m-27.07 29.78s6.18-.21 9.44-4.9 4.82-6.98 4.82-6.98m2.76 2.19s9.11-3.42 9.11-15.49m-4.13 7.69s5.05-5.74 5.97-14.92m-19.93 32.41s26.93-6.03 29.51-35.1M629.11 208s11.54-3.31 19.47-12.19c7.93-8.88 14.14-12.65 14.14-12.65"/>
  <g fill="none" clip-path="url(#v)">
    <path stroke="#000" stroke-width=".25" d="m447.31 37.4 15.57-6.8.05 38.67m-13.09-27.33 9.07-4.25.05 30.06m-15.07-32.9 19.17-9.34 20.23 2.83"/>
    <path stroke="#891814" stroke-width="11" d="M-9.99 117.64S71.03-31.18 376.34-31.18s386.93 143.17 386.93 143.17"/>
  </g>
  <path fill="#4a100e" d="M90.04 157.17s-1.31 8.1 3.57 11.22c4.88 3.11-1.18 2.41-1.18 2.41s-5.21-4.87-2.39-13.63Z"/>
  <path fill="none" stroke="#000" stroke-width=".25" d="M90.04 157.17s-1.31 8.1 3.57 11.22c4.88 3.11-1.18 2.41-1.18 2.41s-5.21-4.87-2.39-13.63Z"/>
  <path fill="#b7916c" d="m390.1 406.79 20.34-20.62v21.86l-20.34-1.24z"/>
  <g clip-path="url(#w)">
    <path fill="#b7916c" d="m362.82 430.32 21.33-60.67-.41 44.98-14.69 15.4-6.23.29z"/>
  </g>
  <path fill="none" stroke="#4a100e" stroke-width=".5" d="M127.54 343.1s-12.05-4.95-13.79-7.49c-1.74-2.53-10.61-11.05-11.44-19.27-.83-8.22-1.98-29.66 12.9-29.26m-5.45 1.29s-18.86-1.71-24.74-3.24c-5.88-1.52-7.2-2.04-7.2-2.04"/>
  <g clip-path="url(#x)">
    <path fill="none" stroke="#4a100e" d="m272.84 399.64 62.5 4.31m-31.75 11.06-18.15 15.31"/>
  </g>
  <path fill="#b7916c" d="m410.01 380.66-.96-4.5 53.55 2.61-1.28 5.48-30.9 29.34-19.81 1.56-.5-7.02v-27.47"/>
  <path fill="none" stroke="#4a100e" d="m410.01 380.66-.96-4.5 53.55 2.61-1.28 5.48-30.9 29.34-19.81 1.56-.5-7.02v-27.47"/>
  <g clip-path="url(#y)">
    <path fill="#d7bfa5" d="m463.22 378.66-31.5 29.37-41.62-.68-19.86 19.78 21.55.57 4.76-5 35.86.28 36.99-36.28"/>
    <path fill="none" stroke="#4a100e" d="m463.22 378.66-31.5 29.37-41.62-.68-19.85 19.78 21.54.57 4.76-5 35.86.28 36.99-36.28m-37.68-19.31h33.65m-22.31-25.23-34.64 33.48m49.64 7.34-47.6-2.31"/>
  </g>
  <path fill="none" stroke="#000" d="M481.03 195.5s4.28-.48 6.29.51"/>
</svg>