<svg xmlns="http://www.w3.org/2000/svg" viewBox="0 0 749.88 427.62"><defs><clipPath id="a"><path fill="none" d="M0-.38h749.88v428H0z"/></clipPath><style>.ab,.ac,.ah,.k,.s,.u{fill:none}.b{clip-path:url(#a)}.ab,.k,.u{stroke-width:2px}.e{fill:#a2c4ce}.g{fill:#89b4c8}.i{fill:#556561}.ah,.k{stroke:#311005}.l{fill:#61512b}.o{fill:#dca164}.r{fill:#3b3e3f}.ac,.s,.u{stroke:#19150d}.ah,.s{stroke-width:3px}.t{fill:#311005}.x{fill:#6283c1}.ac{stroke-width:4px}.aa{fill:#ba974d}.ab{stroke:#415cc8}</style></defs><g class="b"><path fill="#828a8e" d="M-3.96-3.64v434.53H752.9V-3.64H-3.96z"/><path stroke-width="2" stroke="#7d706b" fill="none" d="M-3.96-3.64v434.53H752.9V-3.64H-3.96h0z"/><path class="e" d="M621.49 41.42s32.37-36.85 98.39-46.77l36.85 1.42.83 82.93-136.07-37.58zM550.63 14.49s25.51-12.76 66.61-17.72l-110-4.25 43.35 22z"/><path d="M489.68-10.31s4.25 0 72.29 24.09 94.72 36.85 106.89 35.44 87.28 21.25 87.28 21.25l5.67 99.23L391.89-11.71l97.79 1.4z" fill="#9fd2f7"/><path class="g" d="M457.08-14.07S493.93 3 543.54 22.8s85 39.68 107.72 56.69 72 39.67 109.72 53.84L764.64 285-12 161.68-14.88-16.9l472 2.83z"/><path d="M313.11-9.07s17.83 1.62 61.77 31.84 63.29 50.57 86 67.58S583 206 620.67 220.17V290L-156 166.68l-2.85-178.58 472 2.83z" fill="#bbd7da"/><path class="i" d="M128.27-18.82S175-4 240.23 79.32l-22.67.62-51-39.23S129.68 5.26 48.9-8.9L128.27-23"/><path class="g" d="M-14.88 43.55S139.6 37.14 196.3 79.32l.59 76.19-253.7 8.49 41.93-120.45z"/></g><path fill="#b78337" d="M162.99 147.72l5.67-111.97 63.78-29.76 84.33 14.88 29.05 17.01 5.67 133.47-51.73.05-64.49-17.7-72.28-5.98z"/><path class="k" d="M162.99 147.72l5.67-111.97 63.78-29.76 84.33 14.88 29.05 17.01 5.67 133.47-51.73.05-64.49-17.7-72.28-5.98z"/><path class="l" d="M193.46 153.7l.71-125.25-25.51 7.3-6.72 111.97 31.52 5.98z"/><path class="k" d="M193.46 153.7l.71-125.25-25.51 7.3-6.72 111.97 31.52 5.98z"/><g class="b"><path d="M156.61 42.2l33.31-8.56s52.56-3.34 94.25-1S343 37 343 37l.11-8.54s-34.84-16.1-45.47-33.1h-73.71S168 28.45 156.61 42.2z" fill="#8ea6a4"/><path class="k" d="M156.61 42.2l33.31-8.56s52.56-3.34 94.25-1S343 37 343 37l.11-8.54s-34.84-16.1-45.47-33.1h-73.71S168 28.45 156.61 42.2z"/></g><path fill="#19150d" d="M297.52 73.11l.47 78.51-.24 6.75-18.66-2.03-4.25-87.27 22.68 4.04z"/><path class="k" d="M297.52 73.11l.47 78.51-.24 6.75-18.66-2.03-4.25-87.27 22.68 4.04z"/><path class="o" d="M276.73 73.11a12.11 12.11 0 015 10.83c-.71 7.07-4 9.92-4 9.92l3 4.25a92.9 92.9 0 00.35 23l-1.52 9.93s3.29 5.29 3.29 10.63-4.25 9.26-4.25 10.63-14.88 3.74-32.6 0c0 0-1.77-3.19-1.77-11.7s1.06-9.92 1.06-9.92-2.57-1.77-2.95-12.75-2.27-19.8 2.25-23.37c0 0-3-2.53-2.63-12.42s4.63-10.61 11.72-10.25 18.19 1.19 23.15 1.19z"/><path class="k" d="M276.73 73.11a12.11 12.11 0 015 10.83c-.71 7.07-4 9.92-4 9.92l3 4.25a92.9 92.9 0 00.35 23l-1.52 9.93s3.29 5.29 3.29 10.63-4.25 9.26-4.25 10.63-14.88 3.74-32.6 0c0 0-1.77-3.19-1.77-11.7s1.06-9.92 1.06-9.92-2.57-1.77-2.95-12.75-2.27-19.8 2.25-23.37c0 0-3-2.53-2.63-12.42s4.63-10.61 11.72-10.25 18.19 1.19 23.15 1.19zm-13.23 30.53v16.44m-6.26-8.22h12.05"/><path d="M238.82 71.92s21.61-.08 40.39 1.19 41 4.13 43.82 3 7-4.28 5.67-9.94-4-9.18-21.14-8.49-69.33 2.1-74.41 1.76-14.41-3.54-15 2.84.82 14 6.14 12.41 8.86-2.79 14.53-2.82z" fill="#9e6b00"/><path class="k" d="M238.82 71.92s21.61-.08 40.39 1.19 41 4.13 43.82 3 7-4.28 5.67-9.94-4-9.18-21.14-8.49-69.33 2.1-74.41 1.76-14.41-3.54-15 2.84.82 14 6.14 12.41 8.86-2.79 14.53-2.82zM316.06 147s-.23-56.7-2.95-70.87m-34.73 17.7h-33.89m0 36.5h35.08M178 36.81l5.15 106.37"/><path d="M213.9 39.31s-5.56-2.79-5.56 4.62 3.19 8.12 8.68 8.12S238.63 51 249 51s31.92 2.06 50 2.06 24-1.71 24-1.71l9.68-14.57h-42.13c-11 0-32.49 1.8-46.06 2.17S220 40 213.9 39.31z" fill="#a48f66"/><path class="k" d="M213.9 39.31s-5.56-2.79-5.56 4.62 3.19 8.12 8.68 8.12S238.63 51 249 51s31.92 2.06 50 2.06 24-1.71 24-1.71l9.68-14.57h-42.13c-11 0-32.49 1.8-46.06 2.17S220 40 213.9 39.31z"/><path class="o" d="M202.56 144.88s4.78.27 4.78-10.84V81c0-19.69 2.49-41.66-4.84-42s-9.39.24-9.39 6-1 21.68-1 31.06-2.53 48.94-1 58.07 5.19 11.84 11.45 10.84z"/><path class="k" d="M202.56 144.88s4.78.27 4.78-10.84V81c0-19.69 2.49-41.66-4.84-42s-9.39.24-9.39 6-1 21.68-1 31.06-2.53 48.94-1 58.07 5.19 11.84 11.45 10.84z"/><path class="i" d="M249.33 154.84s33.1.7 40.64-2.85 42.12-11 52.34-1.49a24.77 24.77 0 018.15 21.19l-36.81.17-64.32-17z"/><path class="r" d="M379.72 178.9s10 4 17.13-8.63l7.08-12.63s9.69 5.9 12.64 10.75 1.66 8.38 5.08 14.76 8.44 4.25 8.44 4.25l7.86 6.38 7 6.38-70-18.43 4.84-2.83z"/><path class="s" d="M379.72 178.9s10 4 17.13-8.63l7.08-12.63s9.69 5.9 12.64 10.75 1.66 8.38 5.08 14.76 8.44 4.25 8.44 4.25l7.86 6.38 7 6.38-70-18.43 4.84-2.83z"/><g class="b"><path class="i" d="M-13.47 118.66s134.65-15.42 184.26 20.64l.58 13.4H-13.47v-34z"/><path class="t" d="M102 148.07s8.86-9.56 8.86-23.38 2.37-25.67 2.37-38.62 3.48-17.69 2.24-26.92-3.66-12.42-3.66-12.42l4.93-4.53.67-23.06-1.35-6.76 1.42-16.67 22.52.36v26.22l-1.19 2.83s-.69 17.72 2.19 28.35c0 0-1.37 17.7-1 37.54s-.71 56-.71 56L102 148.07z"/><path class="u" d="M102 148.07s8.86-9.56 8.86-23.38 2.37-25.67 2.37-38.62 3.48-17.69 2.24-26.92-3.66-12.42-3.66-12.42l4.93-4.53.67-23.06-1.35-6.76 1.42-16.67 22.52.36v26.22l-1.19 2.83s-.69 17.72 2.19 28.35c0 0-1.37 17.7-1 37.54s-.71 56-.71 56L102 148.07z"/><path class="r" d="M238-6.06l2.83-2.13s.8 18.86-4.83 99.19-1 62.69-1 62.69l-13.17-5.27s7.79-7.1 8.5-28.35 1-26.22 1-26.22 2.66-11.22 4.67-39 1-35.74 1-35.74 2.55-6.78 1.13-23.78"/><path class="k" d="M238-6.06l2.83-2.13s.8 18.86-4.83 99.19-1 62.69-1 62.69l-13.17-5.27s7.79-7.1 8.5-28.35 1-26.22 1-26.22 2.66-11.22 4.67-39 1-35.74 1-35.74 2.55-6.78 1.13-23.78"/><path class="t" d="M88.23 147.36s-2.13-9.92 3.19-17a67.46 67.46 0 0111.92-12.05s-3.65-7.46-3.65-21.26a11 11 0 01-4-8.38c0-5.44-6.77-5.42-7.84-5.42 0 0-7.44-11.36-14.17-18.09 0 0-2.48-17-5.32-31.54s-4.7-35.78-4.7-35.78L41-3.58a78.56 78.56 0 014 22.72c.23 12.36-.36 29 2.48 34.33 0 0 .35 20.58 5 32.61S58 99.18 58 99.18l.12 18.42s-11.69 10.7-9.39 30l39.51-.21z"/><path class="u" d="M88.23 147.36s-2.13-9.92 3.19-17a67.46 67.46 0 0111.92-12.05s-3.65-7.46-3.65-21.26a11 11 0 01-4-8.38c0-5.44-6.77-5.42-7.84-5.42 0 0-7.44-11.36-14.17-18.09 0 0-2.48-17-5.32-31.54s-4.7-35.78-4.7-35.78L41-3.58a78.56 78.56 0 014 22.72c.23 12.36-.36 29 2.48 34.33 0 0 .35 20.58 5 32.61S58 99.18 58 99.18l.12 18.42s-11.69 10.7-9.39 30l39.51-.21z"/><path class="r" d="M646.18 246.91s-2.83-25.68 0-43.66-.26-54.11 3.12-73.25 1-28.92 1-39 6.41-21.05 7.24-37.54 1-21.26 1-21.26l-3-3.76s6.14-20.34 7.68-38l10-1.42s2.4 28.3-1.28 38.15-1.13 16.42-4 24.35 0 16-.85 22.4-.85 8.22 2 11.05S671.36 92.05 668 96s-3.4 2.25-4 9.34-2.26 9.36-2 26.65-1.42 27.78-1.13 48.75 1.13 39.69 1.13 39.69 4-15.31 4.82-27.78 3.38-21 4.82-26.93-1.07-21.09 1.13-26.42 4.51-13.83 4.54-26.59 3.73-24.38 4.27-37.13-2.15-27.22-.58-31.18-.36-10.46 1.66-13.59.85-6 .85-17.31-.81-15.88-.81-15.88l40.82-.56v18.55c0 5.26 3.94 7.3 3.68 14.33S721 43.29 721 49.23a87.56 87.56 0 01-2 20.68 140.39 140.39 0 00-3.38 30.34c0 11.89 0 15.56-.88 19.83s-2.55 12.47-3.11 29.2-.52 21.26-1.68 45.35-1.4 34.92-2.84 43.66S706 258.13 710 261s18.28 3.7 18.28 3.7a43.07 43.07 0 0023.65-35.73l1.07 43.9-106.84-26z"/><path class="s" d="M646.18 246.91s-2.83-25.68 0-43.66-.26-54.11 3.12-73.25 1-28.92 1-39 6.41-21.05 7.24-37.54 1-21.26 1-21.26l-3-3.76s6.14-20.34 7.68-38l10-1.42s2.4 28.3-1.28 38.15-1.13 16.42-4 24.35 0 16-.85 22.4-.85 8.22 2 11.05S671.36 92.05 668 96s-3.4 2.25-4 9.34-2.26 9.36-2 26.65-1.42 27.78-1.13 48.75 1.13 39.69 1.13 39.69 4-15.31 4.82-27.78 3.38-21 4.82-26.93-1.07-21.09 1.13-26.42 4.51-13.83 4.54-26.59 3.73-24.38 4.27-37.13-2.15-27.22-.58-31.18-.36-10.46 1.66-13.59.85-6 .85-17.31-.81-15.88-.81-15.88l40.82-.56v18.55c0 5.26 3.94 7.3 3.68 14.33S721 43.29 721 49.23a87.56 87.56 0 01-2 20.68 140.39 140.39 0 00-3.38 30.34c0 11.89 0 15.56-.88 19.83s-2.55 12.47-3.11 29.2-.52 21.26-1.68 45.35-1.4 34.92-2.84 43.66S706 258.13 710 261s18.28 3.7 18.28 3.7a43.07 43.07 0 0023.65-35.73l1.07 43.9-106.84-26z"/><path d="M-22 148.43s57.92-4.25 138.9-4.25 118.82 1.16 149.41 14.17 66.85 4.75 93 13 37.44 15.35 156.5 42.27 240.33 55.28 240.33 55.28l4.25 168.66-776.69 4.27-5.7-293.4z" fill="#7da0c6"/><path d="M-22 148.43s57.92-4.25 138.9-4.25 118.82 1.16 149.41 14.17 66.85 4.75 93 13 37.44 15.35 156.5 42.27 240.33 55.28 240.33 55.28l4.25 168.66-776.69 4.27-5.7-293.4z" stroke="#556561" stroke-width="2" fill="none"/><path class="x" d="M-10.63 171.14s29.87.59 80.63-7.14 89.53-7.4 101.33-7.69 32.75-3.64 32.75-3.64-77.86-5.64-228.92 0l14.17 18.43z"/><path class="t" d="M-1.06 244.1s4.72-1.42 11.33 1.77 10.4 3.84 16.3-1.09S36.49 231 36.49 231A183.42 183.42 0 0033 206.18c-2.83-13.11-8.86-23.38-11-46.06s-.34-36.94-3.89-54.2-6.63-31.55-6-46.77 3.66-15 1.41-30.7S10.63 7.81 12.75 5L8.38-2.16-3.9-2.52l2.84 246.62z"/><path class="u" d="M-1.06 244.1s4.72-1.42 11.33 1.77 10.4 3.84 16.3-1.09S36.49 231 36.49 231A183.42 183.42 0 0033 206.18c-2.83-13.11-8.86-23.38-11-46.06s-.34-36.94-3.89-54.2-6.63-31.55-6-46.77 3.66-15 1.41-30.7S10.63 7.81 12.75 5L8.38-2.16-3.9-2.52l2.84 246.62z"/><path class="x" d="M191.25 364.61l22.05-12.48s15.64-18.7-7.24-18.7-29.15-19.57-46.61-10.28-122.66 42.33-137.87 42.33-18-3-32.21 14l7.79 28a297.79 297.79 0 0124.81-22c7.47-5.71 13.3-7.47 18.18-7.48a25 25 0 018 1.46c6.37 2.13 12.4 2.85 20.55 4.27S90 389 95.67 387.25s18.07-8.86 24.8-8.51 19.84-9.92 29.06-14.52 33.3-3.21 41.45-.9"/></g><path d="M41.45 380.16s-8.14-14.5-11-24.79-1-12.41-1-12.41-4.71-7.41-9-20.19-4.13-24.09 2-41.1 11.34-28 18.42-34.38 9.33-11 10.75-16.3 9.49-12.4 27.25-20.91 22.71-7.79 28-9.92 11.92-1.43 13.34-3.9 4-8.5 6.14-8.15 5 4.61 5.32 8.15 1.06 5.35 3.19 7.46 7.44 8.12 8.15 10.07 3.54 4.44 5 9.4 3.51 8.51 8.15 13.82 7.14 10.55 4.63 12.36-9.59 5.37-13.49 4-11.69-2.15-13.47-.73-6.26-2.48-9.21-.35-8.5 12-5 16.65 3.19 2 4.25 8.5 2.13 8.75 6 11.34 6.37 4.64 12.4 12.77 8.86 17 9.92 27.27 7.09 32.25 30.47 35.44l-38.38 14.17L95 393.64l-53.55-13.48z" fill="#503222"/><path d="M41.45 380.16s-8.14-14.5-11-24.79-1-12.41-1-12.41-4.71-7.41-9-20.19-4.13-24.09 2-41.1 11.34-28 18.42-34.38 9.33-11 10.75-16.3 9.49-12.4 27.25-20.91 22.71-7.79 28-9.92 11.92-1.43 13.34-3.9 4-8.5 6.14-8.15 5 4.61 5.32 8.15 1.06 5.35 3.19 7.46 7.44 8.12 8.15 10.07 3.54 4.44 5 9.4 3.51 8.51 8.15 13.82 7.14 10.55 4.63 12.36-9.59 5.37-13.49 4-11.69-2.15-13.47-.73-6.26-2.48-9.21-.35-8.5 12-5 16.65 3.19 2 4.25 8.5 2.13 8.75 6 11.34 6.37 4.64 12.4 12.77 8.86 17 9.92 27.27 7.09 32.25 30.47 35.44l-38.38 14.17L95 393.64l-53.55-13.48z" stroke-width="4" stroke="#311005" fill="none"/><path class="r" d="M616.96 286.19l11.9 26.65 11.91.41.03-20.24 1-7.23-24.84.41z"/><path class="k" d="M616.96 286.19l11.9 26.65 11.91.41.03-20.24 1-7.23-24.84.41z"/><path class="r" d="M568.77 288.46s6.38 8.24 7 11.64-1.14 7.63-1.14 7.63l17.15 3s-1.28-5.95.85-10.35 7.8-7.35 7.8-7.35l-28.07-7.39-3.54 2.84z"/><path class="k" d="M568.77 288.46s6.38 8.24 7 11.64-1.14 7.63-1.14 7.63l17.15 3s-1.28-5.95.85-10.35 7.8-7.35 7.8-7.35l-28.07-7.39-3.54 2.84z"/><path class="r" d="M494.78 144.74a53.62 53.62 0 019.08 11.06l2.55-1.14-.57 4.54 2.49.12s2.31 1.3 4.88 5.27 6 8.22 11.08 9.63l.27-5.67s2.29-2.23 1-7.35a40.27 40.27 0 01-1.29-6s2.55-3.64 7.37 3.14l2-27.8a52.57 52.57 0 01-16.92-6.36c-.68-.4-1.38-.83-2.07-1.28-9.64-6.25-13-8.8-20.41-8S484 116.11 484 116.11s-2 20.73 9.92 30.92l2.84-.87s12.76-5.39 19.84-21.81"/><path class="u" d="M494.78 144.74a53.62 53.62 0 019.08 11.06l2.55-1.14-.57 4.54 2.49.12s2.31 1.3 4.88 5.27 6 8.22 11.08 9.63l.27-5.67s2.29-2.23 1-7.35a40.27 40.27 0 01-1.29-6s2.55-3.64 7.37 3.14l2-27.8a52.57 52.57 0 01-16.92-6.36c-.68-.4-1.38-.83-2.07-1.28-9.64-6.25-13-8.8-20.41-8S484 116.11 484 116.11s-2 20.73 9.92 30.92l2.84-.87s12.76-5.39 19.84-21.81"/><path class="l" d="M546.66 227.05l-13.32-3.5-18.43-7.66-23.53-16.15-4.82 5.78 26.7 17.46 21.42 6.8 10.56 5.96 1.42-8.69z"/><path class="u" d="M546.66 227.05l-13.32-3.5-18.43-7.66-23.53-16.15-4.82 5.78 26.7 17.46 21.42 6.8 10.56 5.96 1.42-8.69z"/><path class="aa" d="M524 221.28s10.81-1.1 14.48 3.7c0 0 1.26 4-3.78 7.92 0 0-11.55-1-14.38-6.8l3.68-4.82z"/><path class="ab" d="M524 221.28s10.81-1.1 14.48 3.7c0 0 1.26 4-3.78 7.92 0 0-11.55-1-14.38-6.8l3.68-4.82z"/><path class="aa" d="M524.83 211.07s-12.25-.59-16 1.17l4.47 3.09a37.91 37.91 0 00-2.88 5.1s4.74 7.37 10.75 9.07c0 0 2 1.42 2-6.24l7.1-4.53-5.39-7.66z"/><path class="ab" d="M524.83 211.07s-12.25-.59-16 1.17l4.47 3.09a37.91 37.91 0 00-2.88 5.1s4.74 7.37 10.75 9.07c0 0 2 1.42 2-6.24l7.1-4.53-5.39-7.66z"/><path class="aa" d="M531.07 206.55s-6.12.52-8.79 3.11a33.7 33.7 0 004.09 7.37l3 4.25 11-4.25-9.35-10.48z"/><path class="ab" d="M531.07 206.55s-6.12.52-8.79 3.11a33.7 33.7 0 004.09 7.37l3 4.25 11-4.25-9.35-10.48z"/><path class="r" d="M579.56 203.25s-8.56 53.46-11.36 84.64a52.06 52.06 0 0024.39 7.37c14.16.58 27.75-5.64 30-6.5s4.53-.52 11.34 2.58 20.71 5 20.71 5-5-16.34-11.73-46.11-11.25-49-18.62-67.75-15.88-24.07-15.88-24.07 3.45-4.69-4.79-9.94-11.07-5.22-21-9.13S559.18 127.44 547 128s-22.42 1.13-22.42 1.13 2.83 7.34 2.83 14 2.27 10.4 2.84 15.19 2.83 8.2 5.67 16.14 5.67 11.93 5.67 17.87-1.68 8.5-1.68 8.5 21.62-12.2 29.46-7.1 10.22 9.47 10.22 9.47z"/><path class="ac" d="M579.56 203.25s-8.56 53.46-11.36 84.64a52.06 52.06 0 0024.39 7.37c14.16.58 27.75-5.64 30-6.5s4.53-.52 11.34 2.58 20.71 5 20.71 5-5-16.34-11.73-46.11-11.25-49-18.62-67.75-15.88-24.07-15.88-24.07 3.45-4.69-4.79-9.94-11.07-5.22-21-9.13S559.18 127.44 547 128s-22.42 1.13-22.42 1.13 2.83 7.34 2.83 14 2.27 10.4 2.84 15.19 2.83 8.2 5.67 16.14 5.67 11.93 5.67 17.87-1.68 8.5-1.68 8.5 21.62-12.2 29.46-7.1 10.22 9.47 10.22 9.47z"/><path class="r" d="M552.63 151.26c2.82 8.09 4.26 21.14 2.53 29.55s.31 8.44-9.07 15.24a75.43 75.43 0 01-17.57 9.64s3.4 7.07 11.9 15.3c0 0 6.24-5.61 10.21-5.78s5.1 0 10.2-3.67 6.24-4.72 6.24-11.52-.57-10.79 3.4-19.21a164.63 164.63 0 006.71-16.81"/><path class="u" d="M552.63 151.26c2.82 8.09 4.26 21.14 2.53 29.55s.31 8.44-9.07 15.24a75.43 75.43 0 01-17.57 9.64s3.4 7.07 11.9 15.3c0 0 6.24-5.61 10.21-5.78s5.1 0 10.2-3.67 6.24-4.72 6.24-11.52-.57-10.79 3.4-19.21a164.63 164.63 0 006.71-16.81m-73-18.15a9 9 0 004.65-5.11"/><path class="r" d="M493.65 202l-15-15.35-3.4 1.75s-2 4.49-1.7 13 .85 14.5.56 18.73-.28 5.64-.28 5.64 13 .49 21.26-1.41l-5.67-8.22s-13 .22-7.37-10.66l7.09 2.15 4.53-5.67z"/><path class="k" d="M493.65 202l-15-15.35-3.4 1.75s-2 4.49-1.7 13 .85 14.5.56 18.73-.28 5.64-.28 5.64 13 .49 21.26-1.41l-5.67-8.22s-13 .22-7.37-10.66l7.09 2.15 4.53-5.67z"/><g class="b"><path d="M624.33 294.13s10.11 8.36 16.18 8.36m-1.44-6.66s-5.34 1-11.32 7.66m-49.77-4s6.52 4.55 12.76 6m36.26-1.33l11.49.74m-10.06 2l10.13.85" stroke="#b78337" stroke-width="2" fill="none"/><path d="M752.31 336.93s-11.9-1-32.17-5.24-28.91-8.79-34.87-11.34-13-2.27-18.42-5.25-9.94-3.1-21.85-3.1-21.82 1-33.87 0-17.29-2.66-24.66-4.64-17.86-1-25.37-6.24-11.04-7.12-16.43-8.12-7.79-6.55-10.63-3.28-3.24 10.49-7.08 11.2-13.75 0-26.93-1.7-21.21-2.13-26.76-4.68-6.41-1.77-12.92-6.84-7.09-7.19-10.64-8.46-5.1-2-6.66 2.83a51.12 51.12 0 01-3.26 7.94 96 96 0 01-16.13-1.56c-8-1.56-14.76-5.24-20.58-9.21s-11.62-5.67-14.45-12.48-2.55-14.86-2.55-14.86-5 1.12-4.68 8.49-.87 13.3 5.81 18a149.35 149.35 0 00-26.5-3.69c-14.74-.71-33.17-5.38-46.92-9.35s-35.71-10.76-46.91-12.35-41.24-6.26-48.9-9.36c0 0-2.55-.14-3.4 6a16.79 16.79 0 00-8.93 4.82 23.67 23.67 0 01-9.07 5.67s6.38-.11 10.21 1.72 6.66 2.53 13.32 3.24 14.45 4.54 30.75 8.22 24.81 7.8 49.33 16.16 25.79 10.91 45.07 14.17 43.65 14.32 43.65 14.32a34.76 34.76 0 0119.7-6.5c11.77-.16 20.32 3.81 25 7.92s5.67 5.1 5.67 5.1 5.93 0 6.92 5.81a142.7 142.7 0 0028.18 2.83c15.62 0 23.81-1.7 38.29 1.56s30.1 8.08 45.66 10.92 20.67 1.41 32 1.56 20.22 5.24 38 10.2 23.76 9.21 30.42 8.79 12 4.42 21.68 4.83a81.75 81.75 0 0127.5 5.8c9.5 3.68 13.75 5.81 25.37 5.81s19.28.71 19.28.71l-.29-46.35z" fill="#8b744a"/><path d="M752.31 336.93s-11.9-1-32.17-5.24-28.91-8.79-34.87-11.34-13-2.27-18.42-5.25-9.94-3.1-21.85-3.1-21.82 1-33.87 0-17.29-2.66-24.66-4.64-17.86-1-25.37-6.24-11.04-7.12-16.43-8.12-7.79-6.55-10.63-3.28-3.24 10.49-7.08 11.2-13.75 0-26.93-1.7-21.21-2.13-26.76-4.68-6.41-1.77-12.92-6.84-7.09-7.19-10.64-8.46-5.1-2-6.66 2.83a51.12 51.12 0 01-3.26 7.94 96 96 0 01-16.13-1.56c-8-1.56-14.76-5.24-20.58-9.21s-11.62-5.67-14.45-12.48-2.55-14.86-2.55-14.86-5 1.12-4.68 8.49-.87 13.3 5.81 18a149.35 149.35 0 00-26.5-3.69c-14.74-.71-33.17-5.38-46.92-9.35s-35.71-10.76-46.91-12.35-41.24-6.26-48.9-9.36c0 0-2.55-.14-3.4 6a16.79 16.79 0 00-8.93 4.82 23.67 23.67 0 01-9.07 5.67s6.38-.11 10.21 1.72 6.66 2.53 13.32 3.24 14.45 4.54 30.75 8.22 24.81 7.8 49.33 16.16 25.79 10.91 45.07 14.17 43.65 14.32 43.65 14.32a34.76 34.76 0 0119.7-6.5c11.77-.16 20.32 3.81 25 7.92s5.67 5.1 5.67 5.1 5.93 0 6.92 5.81a142.7 142.7 0 0028.18 2.83c15.62 0 23.81-1.7 38.29 1.56s30.1 8.08 45.66 10.92 20.67 1.41 32 1.56 20.22 5.24 38 10.2 23.76 9.21 30.42 8.79 12 4.42 21.68 4.83a81.75 81.75 0 0127.5 5.8c9.5 3.68 13.75 5.81 25.37 5.81s19.28.71 19.28.71l-.29-46.35z" stroke="#4f402d" stroke-width="4" fill="none"/></g><path d="M95.1 304.35s8.79-7.4 14.74-9.37 1.13-6.24 11.06-6 8.5 1.86 8.5 1.86m-11.62 18.83s7.41 1.82 16.75-5.67m-15.34 11.1s4.41-.37 11.28-4.19m-8.7 11.28s7.63-2.88 11.88-8.67M22.56 316.1s3.94 16.87 13 30.47m-3.4.55s-1.16 10.5 11.35 27.51m78.8-174.33a22.11 22.11 0 0113 6.24M122.27 217s3.44-5.93 7.7-6.22m7.39 21l5.67-3.41M64.77 274s7.09-8.78 21.83-10.77m-14.74-19.56s11.9-10.19 24.09-11m6.52-5.11s3.44-3.08 11.62-2.53m-42.88 40s10-9 20.77-4.52 17.51 14.94 19 28.9m-7.37 63.21l7.37 2m-7.63 2.83l9.12 5.67m-11.69-1.89s2 2.74 7.13 3.31m-8-.57a10.14 10.14 0 006.54 4.27m-60.38 3.95s21.44.57 39.69 7.65" stroke="#8b744a" stroke-width="2" fill="none"/><path class="x" d="M726.09 313.52a66.13 66.13 0 01-22.39-7.08c-12.19-6.24-23.25-1.51-30.33-11.59 0 0-.85-14.32 28.06-20.7s31.75-2.13 35.15 2.12-.57 27.67-3.4 32.46-7.09 4.79-7.09 4.79z"/><g class="b"><path class="i" d="M700.86 282.79c-8.78 2-13.32 5-13.89 8.55s-10.66 6.49-7.17 8.86 12.84 2.23 17.66 4 19 8.61 23.84 9.36 8.19 0 8.19-7.63 1.14-24.08-7.65-24.08-21 1-21 1z"/><path class="x" d="M231 434.73s-.88-22 16.3-26.58 32.25-10.91 32.25-24 13.56-22.42 30.7-18.74 20.44 9.09 26.93 15.25 11.58 9.5 27.05 14 12.05 8.87 17 19.5a51.88 51.88 0 015 19.84l-155.2.71zM143.15 431.18s.68-14.55 9.21-23 6.92-12.36 16.3-18.07 22.59-9 22.59-19 3.93-15.61 10.72-17.57 13.3-5.87 18-1.95 8.94 4.93 16.73 4.93 15.76.15 20.55 7.37.13 10.71 6 11.36-3.9 6.28-9.57 8.94a34.61 34.61 0 01-23.68 2.63c-10-2.44-11.7.41-21.26 7.86s-23.69 13.86-25.57 24.47-1.88 15.58-1.88 15.58l-38.15-3.55z"/></g><path class="x" d="M329.94 193.22s-7-2.95-15.35-12.41-13.82-8.41-28.2-8.41-14.55 3.44-23.12-1.05-9.69-6.27-21-6.27-13.59-2.05-25.22 0-10.21 3.76-10.21 3.76-2.62 7.65 1.94 9.81 9.09-2 18.16 3.23 14.22 7.93 23.84 8.5 24.08 12.87 33 12.87S310.27 214 310.27 214l19.67-20.78z"/><g class="b"><path class="x" d="M366.94 203.25a31 31 0 0018.14-4.86c8.82-5.74 12.48-9.42 26.08-.83s12.48 11.65 14.18 14.68 1 3 8.24 3 6.53 2.58 13.9 7.08 12.9 4.91 25 8.24 24.34 5.67 29.37 12.07 11.69 18 6.24 21.41-6.89-2.4-11.38-11.9-6.2-9.51-17-9.51-18.31 2.1-28.61 0-26.95-20.31-26.95-20.31-.25 20.31-7.63 20.31-14.48.11-13.91 4.24c0 0-10.36-4.94-19.28-6.07s-18.71-10.24-18.71-10.24l2.27-27.35z"/><path class="r" d="M269.29 222.13s42.28-5.64 50.9-21.25 14.18-43.32 14.18-52.45 1-22.1 1-44.79 5.74-21.81 3.37-36-7.25-22-2.84-23.73 4.41-9.21 4.41-24.79-1.57-23.07-1.57-23.07l43.93-1.42v8.92s10-1.13 14.85-8.21h29.05s-7 4.37-12.75 8.21-22 2.75-27.64 7.39-9.88 7.8-9.18 22.68-3.11 24.81 5.66 26.93c0 0-2.29 7.32 8.78 9.94V81s-18-.81-18 15 3.27 17.09 10.62 12.37a151.36 151.36 0 01-6.38 20.22c-4.24 10.71-4.24 18.42-4.24 39.68s-7.8 72.28-7.8 72.28-27.88-3.54-42.64 5c0 0-11.93-24.09-53.74-23.38z"/><path class="ah" d="M269.29 222.13s42.28-5.64 50.9-21.25 14.18-43.32 14.18-52.45 1-22.1 1-44.79 5.74-21.81 3.37-36-7.25-22-2.84-23.73 4.41-9.21 4.41-24.79-1.57-23.07-1.57-23.07l43.93-1.42v8.92s10-1.13 14.85-8.21h29.05s-7 4.37-12.75 8.21-22 2.75-27.64 7.39-9.88 7.8-9.18 22.68-3.11 24.81 5.66 26.93c0 0-2.29 7.32 8.78 9.94V81s-18-.81-18 15 3.27 17.09 10.62 12.37a151.36 151.36 0 01-6.38 20.22c-4.24 10.71-4.24 18.42-4.24 39.68s-7.8 72.28-7.8 72.28-27.88-3.54-42.64 5c0 0-11.93-24.09-53.74-23.38z"/><path class="x" d="M752.45 393.64s-5.1 6-10.77 6-5.67 8.41-5.67 8.41-11.34-4.53-17-2.27-13.3 17.61-13.3 24.68 45 4.24 45 4.24l1.7-41.09z"/></g><path class="x" d="M632.1 393.34c1.4-9 2-14.14-5.15-21s-22.5-8.77-32.1-8.77-12 3.68-14.74 5.94-14.13.81-21.81-1.72-7.09-4.5-16.17-8.21-11-6.53-17-11.07-12.48-3.41-21.55 1.7-9 6.81-21.8 5.67-21.68-6.23-26.15-6.8-12.45-.12-22.91-2.27-18.14-4.3-23.25-2.14-5.1 4.41-5.1 4.41-4.8-6-17.14-9.07-34.45-9-46.92-17-17.54-12.13-30-12.13a47.39 47.39 0 00-21.56 5.19L323.86 337l167.24 43.88 28.35-7.95 25.55 7.94 17.6 1.43 44.15 5.7 25.35 5.37z"/><path class="i" d="M617.83 392.35l-4.84-8-14.17-.52-7.82-4.1s-15.13-2.37-19.36 1.14S591 394.54 591 394.54l26.87-2.19zM541.53 378s-6.21-4.15-11.31-7-5.69-7.35-13.61-7.35-18.71-4-18.71-4-.56 10 3.4 14.18c0 0-4.53 5.3-11.9 0 0 0-4.83 3.1-9.64 2s-2.73-2.38-.23-7.27 4.22-6.34-4.58-6.91-20.12-.49-23.8 2a37.87 37.87 0 00-13.76-5.39c-8.09-1.43-20-4-20-4l-.21 4-25.3-6c-14.18-3.35-44.77-18.12-44.77-18.12l-11.36.84s-15.87-16.77-23.24-19.88-16.42-1.55-16.42-1.55l45.35 33.33 18.69 7.94-2.27 2.83 30.62 21.16s34.48 14 67.13 22.5l32.65 8.5s6.23-4.63 8.5-7.37 3.81-.14 9.09-5.1 6.26-4.67 7.09-10.56 4.77-10.43 10.17-11 18.42 2.22 18.42 2.22z"/><path d="M534.19 293s-1.7 3.94 7.08 6.22m-68.77 7.21s-14.57.11-24.49-6.24m2.84-7.59s-6.55-2.09-9.07-8.08m-122.46-4.28s-6.52-1.68-8.22-4.25m165.26 47.61s-22.68 1.86-41.1-7.65M680.2 325s39.09 16.72 72.82 16.72m-205.23-17.61s17.42 5 29.62 7.17 21.83 5.66 46.28 13.31 54.38 12.2 54.38 12.2m-119.51-36.88s4 2 4 8.53" stroke-width="6" stroke="#42637c" fill="none"/><path d="M514.63 139.3a21.37 21.37 0 0013.89 7.51m-14.69-11.71a29.88 29.88 0 0017.24 5.3m-16.16-8.7s8.79 4.38 18.14 2.62m-25.22 23.18l1-2.27 7.25-.39 2.84 3m-14.17-10.08l6.8 2.05m-4.61-3.05s2.62-.29 3.76-4.62m.71 15.47a38.39 38.39 0 015.77 7.35 12.8 12.8 0 006.69 5.64m-24.08-24.54a43.89 43.89 0 015.38 7" stroke="#7d9f92" stroke-width="2" fill="none"/><path class="ac" d="M578.13 201.13h13.5l6.54-42M617.83 290L609 265.06s4.85-41.49 0-63.93"/><path class="ah" d="M240.23 28.44S208 22.53 206.06 11.55m34.17 10.33s19 6.56 20.7-7.39m-20.88 8.85s16.89 3.9 27.95-4.8m-28.18 6.67L199.7 9.85"/><path d="M332.36 44.25s12.51 19.15 4 47.8c-1.24 4.14 0 21.77-2.21 47-2.19 24.9-4.26 30.66-4.26 30.66" stroke="#826179" stroke-width="6" fill="none"/><path class="ah" d="M220 57s2.58-1.06 14.09 0 27.09 1 47.64 1 36.15-2.47 40.75-.74"/><path class="t" d="M168.31 47.48l26.57-7.45 6.38-.96 3.54.61 2.13 4.61 2.83-4.61.85-1.62 5.53 1.62 30.83-.71 43.93-2.1 32.07-1-43.05-3.63-60.53-1-29.59 2.42-21.76 5.68.27 8.14zM260.78 57.3a19.22 19.22 0 0114.53-14.69s14.18 2.51 17 14.85l-31.54-.16z"/><path d="M274 55.48c-.55-.41-3-4.64 1.56-5.45 3.68-.64 4.47 4 2.26 5.45" stroke="#dca164" stroke-width="3" fill="none"/><path d="M265.32 55.06s2.13-6.69 8.51-9.21m4.81.28a14.66 14.66 0 019.87 11.32" stroke="#89b4c8" stroke-width="3" fill="none"/><path d="M516.7 124.21c-.68-.4-1.38-.83-2.07-1.28-9.64-6.25-13-8.8-20.41-8S484 116.11 484 116.11s-2 20.73 9.92 30.92l2.84-.87s12.76-5.39 19.84-21.81" fill="#4f402d"/><path class="u" d="M516.7 124.21c-.68-.4-1.38-.83-2.07-1.28-9.64-6.25-13-8.8-20.41-8S484 116.11 484 116.11s-2 20.73 9.92 30.92l2.84-.87s12.76-5.39 19.84-21.81"/><path d="M216.14 64.82s.12-7.39 8.15-5.28m4.25 0h5.51M257.24 61s15.49-.73 26.88-.73 39.36-3.55 42.92 2.66" stroke-width="5" stroke="#89b4c8" fill="none"/></svg>
