<svg xmlns="http://www.w3.org/2000/svg" viewBox="0 0 750 428"><defs><clipPath id="clippath"><path class="cls-1" d="M0-.03h750v428.07H0z"/></clipPath><clipPath id="clippath-1"><path class="cls-1" d="M0-.03h750v428.07H0z"/></clipPath><clipPath id="clippath-2"><path class="cls-1" d="M0-.03h750v428.07H0z"/></clipPath><clipPath id="clippath-3"><path class="cls-1" d="M0-.03h750v428.07H0z"/></clipPath><clipPath id="clippath-4"><path class="cls-1" d="M0-.03h750v428.07H0z"/></clipPath><clipPath id="clippath-5"><path class="cls-1" d="M0-.03h750v428.07H0z"/></clipPath><clipPath id="clippath-6"><path class="cls-1" d="M0-.03h750v428.07H0z"/></clipPath><clipPath id="clippath-7"><path class="cls-1" d="M0-.03h750v428.07H0z"/></clipPath><clipPath id="clippath-8"><path class="cls-1" d="M0-.03h750v428.07H0z"/></clipPath><clipPath id="clippath-9"><path class="cls-1" d="M0-.03h750v428.07H0z"/></clipPath><clipPath id="clippath-10"><path class="cls-1" d="M0-.03h750v428.07H0z"/></clipPath><clipPath id="clippath-11"><path class="cls-1" d="M0-.03h750v428.07H0z"/></clipPath><clipPath id="clippath-12"><path class="cls-1" d="M0-.03h750v428.07H0z"/></clipPath><style>.cls-1,.cls-13,.cls-17,.cls-18,.cls-2,.cls-20,.cls-21,.cls-22,.cls-23,.cls-24,.cls-25,.cls-26,.cls-27,.cls-3,.cls-37,.cls-38,.cls-39,.cls-40,.cls-41,.cls-43,.cls-44,.cls-45,.cls-46,.cls-5,.cls-52,.cls-53,.cls-54{fill:none}.cls-2,.cls-3{stroke-width:.85px}.cls-18,.cls-2,.cls-20,.cls-23,.cls-40,.cls-46,.cls-54{stroke:#3c1028}.cls-3,.cls-41{stroke:#90551d}.cls-21,.cls-24{stroke:#be3234}.cls-21{stroke-width:5.4px;stroke-linecap:round;stroke-linejoin:round}.cls-5{stroke-width:4.54px}.cls-13,.cls-22,.cls-37,.cls-5{stroke:#58418c}.cls-56{fill:#ebb682}.cls-57{fill:#b68d6f}.cls-58{fill:#90551d}.cls-59{fill:#af601d}.cls-60{fill:#be3234}.cls-61{fill:#8a1923}.cls-62{fill:#3c1028}.cls-63{fill:#58418c}.cls-64{fill:#513171}.cls-13{stroke-width:1px}.cls-17,.cls-25,.cls-44,.cls-45{stroke:#ebb682}.cls-17,.cls-18{stroke-width:.46px}.cls-38{stroke:#8a1923}.cls-20{stroke-width:1.19px}.cls-22{stroke-width:.59px}.cls-23,.cls-24,.cls-25,.cls-26,.cls-27{stroke-width:1.13px}.cls-26{stroke:#b68d6f}.cls-27{stroke:#000}.cls-39,.cls-53{stroke:#513171}.cls-43,.cls-52{stroke:#e88237}.cls-45,.cls-46{stroke-width:.75px}.cls-52,.cls-53,.cls-54{stroke-width:1.08px}</style></defs><g style="clip-path:url(#clippath)"><path class="cls-57" d="M-10.13-10.89v444.11H758.6V-10.89H-10.13z"/><path class="cls-43" d="M-10.13-10.89v444.11H758.6V-10.89H-10.13z"/></g><path class="cls-64" d="M261.82 204.93s-6.52.28-10.49-5.39c-3.97-5.67-5.69-16.73-13.04-16.44-7.35.28-15.85 10.08-17.27 22.33-1.42 12.26-4.87 35.5 2.53 61.87 7.4 26.37 9.69 37.71 8.81 42.53-.87 4.82-2.43 6.52-1.58 6.95.85.43 2.13.28 3.12-3.26.99-3.54 1.7-6.95.99-10.77 0 0 1.28 8.22 2.27 18.29.99 10.06.99 12.76.14 14.6-.85 1.84-1.13 2.87-.28 3.13.85.27 2.6-.87 3.14-3.56s.71-6.95.71-6.95 1.11 8.22 1.25 14.6c.14 6.38-1.42 10.63-2.55 12.76-1.13 2.13-1.3 2.72-.71 2.99.59.27 1.98-.73 3.54-3.7 1.56-2.98 2.41-8.51 2.27-14.74-.14-6.24 17.15-135.23 17.15-135.23Z"/><path class="cls-40" d="M261.82 204.93s-6.52.28-10.49-5.39c-3.97-5.67-5.69-16.73-13.04-16.44-7.35.28-15.85 10.08-17.27 22.33-1.42 12.26-4.87 35.5 2.53 61.87 7.4 26.37 9.69 37.71 8.81 42.53-.87 4.82-2.43 6.52-1.58 6.95.85.43 2.13.28 3.12-3.26.99-3.54 1.7-6.95.99-10.77 0 0 1.28 8.22 2.27 18.29.99 10.06.99 12.76.14 14.6-.85 1.84-1.13 2.87-.28 3.13.85.27 2.6-.87 3.14-3.56s.71-6.95.71-6.95 1.11 8.22 1.25 14.6c.14 6.38-1.42 10.63-2.55 12.76-1.13 2.13-1.3 2.72-.71 2.99.59.27 1.98-.73 3.54-3.7 1.56-2.98 2.41-8.51 2.27-14.74-.14-6.24 17.15-135.23 17.15-135.23Z"/><path class="cls-64" d="M480.97 194.72s11.62-2.83 16.73-9.92c5.1-7.09 6.52-15.88 13.33-15.59 6.8.28 13.35 11.06 13.35 11.06l-15.05 36.86-22.4-15.59-5.95-6.81Z"/><path class="cls-40" d="M480.97 194.72s11.62-2.83 16.73-9.92c5.1-7.09 6.52-15.88 13.33-15.59 6.8.28 13.35 11.06 13.35 11.06l-15.05 36.86-22.4-15.59-5.95-6.81Z"/><g style="clip-path:url(#clippath-1)"><path class="cls-60" d="M271.03 201.1s-9.07 1.99-15.17 5.67c-6.1 3.69-13.86 11.48-15.43 31.61-1.58 20.13-8.62 56.99 4.68 66.91 0 0-5.69 37.71 2.24 38.56 0 0-1.98 13.33-3.69 27.78-1.7 14.46-4.82 42.87.28 46.26 5.1 3.39 17.58 3.4 23.25.42 0 0 13.59 7.22 25.52 1.55 0 0 10.77 5.7 24.95.87 0 0 15.59 4.24 24.1-.58 0 0 14.18 5.39 27.78.28 0 0 16.16 5.1 27.22-.57 0 0 13.89 5.39 27.78.57 0 0 17.29 4.25 27.78 0 0 0 15.59 3.97 24.1-.57 0 0 11.06 4.82 19.85-.85 0 0 22.11 9.62 23.25-9.07 1.13-18.7-11.62-67.77-10.21-86.5 1.42-18.73-1.96-40.44-1.96-47.26s1.39-65.57-7.4-71.24c-8.79-5.67-14.74-11.06-21.83-12.47-7.09-1.42-207.1 8.65-207.1 8.65Z"/><path class="cls-38" d="M271.03 201.1s-9.07 1.99-15.17 5.67c-6.1 3.69-13.86 11.48-15.43 31.61-1.58 20.13-8.62 56.99 4.68 66.91 0 0-5.69 37.71 2.24 38.56 0 0-1.98 13.33-3.69 27.78-1.7 14.46-4.82 42.87.28 46.26 5.1 3.39 17.58 3.4 23.25.42 0 0 13.59 7.22 25.52 1.55 0 0 10.77 5.7 24.95.87 0 0 15.59 4.24 24.1-.58 0 0 14.18 5.39 27.78.28 0 0 16.16 5.1 27.22-.57 0 0 13.89 5.39 27.78.57 0 0 17.29 4.25 27.78 0 0 0 15.59 3.97 24.1-.57 0 0 11.06 4.82 19.85-.85 0 0 22.11 9.62 23.25-9.07 1.13-18.7-11.62-67.77-10.21-86.5 1.42-18.73-1.96-40.44-1.96-47.26s1.39-65.57-7.4-71.24c-8.79-5.67-14.74-11.06-21.83-12.47-7.09-1.42-207.1 8.65-207.1 8.65Z"/></g><path class="cls-60" d="M281.67 175.44s-5.94-8.22-19.27-13.04c0 0-.72-1.7-.72-7.37s0-8.93-1.13-11.62c0 0-2.98-.57-4.39-2.69 0 0-.28-5.95.28-13.75.57-7.8.28-13.75.28-13.75s-3.83-.28-5.53-2.27c0 0 .99-8.08 3.4-19.28 2.41-11.2 5.53-26.93 6.8-35.86 1.28-8.93 2.41-14.46 2.41-14.46s-6.66 1.84-12.19-2.27c-5.53-4.11-7.66-10.76-7.66-10.76s-.71 5.23-6.66 4.8c-5.95-.43-6.97-8.08-6.66-11.34.31-3.26 2.98-9.5 7.09-11.06 4.11-1.56 7.8-2.41 8.79-1.13 0 0 1.84-2.13 4.68-2.84 0 0 3.26-3.69 8.79-3.69s5.24 2.98 5.24 2.98 1.13.13 2.69-.85 3.12-.57 3.12-.57 1.84-1.29 4.39-.14c0 0 2.55-.87 3.97.85 0 0 1.52.14 2.67-.28 1.15-.43 2.01.43 2.01.43s6.07-2.38 11.2-1.26c0 0 4.68-1.58 7.8.55 0 0 1.42-.28 3.69-.71 2.27-.43 7.94 0 7.94 0s1.98-1.98 5.95.14c0 0 5.79-.71 11.2-.43 5.41.28 137.5 1.42 137.5 1.42s10.49-1.56 18.85 3.54l3.54.43s.85-1.7 1.7-1.7 4.96 1.13 6.24 2.69c1.28 1.56 2.84 2.13 2.84 2.13l1.13-.85 3.83 2.55s2.39-1.01 3.26 1.7c0 0 2.27.17 2.55 2.71 0 0 2.13-.72 2.69 6.65 0 0 2.62 2.27 1.56 8.65-1.06 6.38-2.41 7.65-7.09 7.94-4.68.28-6.52-3.12-6.52-3.12s-2.41 6.22-14.03 10.06c0 0-.99 3.54 2.41 21.26 3.4 17.72 3.97 22.54 3.97 22.54l-1.98 2.84s1.13 10.67 2.41 24.81c.73 8.08-25.09 18.57-25.09 18.57s4.54 7.1.85 10.22c-3.69 3.12-17.86 8.21-17.86 8.21s-3.97 1.86-8.22 5.97c-4.25 4.11 23.18 37.19 23.18 37.19l-187.9-24.74Z"/><path class="cls-38" d="M281.67 175.44s-5.94-8.22-19.27-13.04c0 0-.72-1.7-.72-7.37s0-8.93-1.13-11.62c0 0-2.98-.57-4.39-2.69 0 0-.28-5.95.28-13.75.57-7.8.28-13.75.28-13.75s-3.83-.28-5.53-2.27c0 0 .99-8.08 3.4-19.28 2.41-11.2 5.53-26.93 6.8-35.86 1.28-8.93 2.41-14.46 2.41-14.46s-6.66 1.84-12.19-2.27c-5.53-4.11-7.66-10.76-7.66-10.76s-.71 5.23-6.66 4.8c-5.95-.43-6.97-8.08-6.66-11.34.31-3.26 2.98-9.5 7.09-11.06 4.11-1.56 7.8-2.41 8.79-1.13 0 0 1.84-2.13 4.68-2.84 0 0 3.26-3.69 8.79-3.69s5.24 2.98 5.24 2.98 1.13.13 2.69-.85 3.12-.57 3.12-.57 1.84-1.29 4.39-.14c0 0 2.55-.87 3.97.85 0 0 1.52.14 2.67-.28 1.15-.43 2.01.43 2.01.43s6.07-2.38 11.2-1.26c0 0 4.68-1.58 7.8.55 0 0 1.42-.28 3.69-.71 2.27-.43 7.94 0 7.94 0s1.98-1.98 5.95.14c0 0 5.79-.71 11.2-.43 5.41.28 137.5 1.42 137.5 1.42s10.49-1.56 18.85 3.54l3.54.43s.85-1.7 1.7-1.7 4.96 1.13 6.24 2.69c1.28 1.56 2.84 2.13 2.84 2.13l1.13-.85 3.83 2.55s2.39-1.01 3.26 1.7c0 0 2.27.17 2.55 2.71 0 0 2.13-.72 2.69 6.65 0 0 2.62 2.27 1.56 8.65-1.06 6.38-2.41 7.65-7.09 7.94-4.68.28-6.52-3.12-6.52-3.12s-2.41 6.22-14.03 10.06c0 0-.99 3.54 2.41 21.26 3.4 17.72 3.97 22.54 3.97 22.54l-1.98 2.84s1.13 10.67 2.41 24.81c.73 8.08-25.09 18.57-25.09 18.57s4.54 7.1.85 10.22c-3.69 3.12-17.86 8.21-17.86 8.21s-3.97 1.86-8.22 5.97c-4.25 4.11 23.18 37.19 23.18 37.19l-187.9-24.74Z"/><path class="cls-44" d="M493.51 90.98s-2.15 2.93-6.84 6.06c-4.69 3.13-11.92 12.52-16.22 15.06m2.67.48s.2 2.33 5.51 3.53c5.32 1.2 8.11 4.32 8.11 4.32m-15.71-6.14s1.21 2.16 7.86 4.91 8.41 5.49 8.41 5.49m-.18 2.04s-.98 2.54-6.09 3.91c-5.11 1.37-9.83 8.22-9.83 8.22"/><path class="cls-60" d="M482.39 167.5s4.51-5.95 4.82-18.14c.31-12.19-.14-17.86-7.16-18.71-7.02-.85-12.97-.85-17.51 1.7-4.54 2.55-3.69 34.3-3.69 34.3l23.53.85Z"/><path class="cls-38" d="M482.39 167.5s4.51-5.95 4.82-18.14c.31-12.19-.14-17.86-7.16-18.71-7.02-.85-12.97-.85-17.51 1.7-4.54 2.55-3.69 34.3-3.69 34.3l23.53.85Z"/><path class="cls-60" d="M260.4 174.02s-1.42-6.24-3.69-15.88-3.98-15.04.85-19.28c4.83-4.24 10.77-4.54 15.59-4.25 4.82.28 9.33 3.67 10.49 9.64 1.16 5.97 3.12 31.19 3.12 31.19l-26.37-1.42Z"/><path class="cls-38" d="M260.4 174.02s-1.42-6.24-3.69-15.88-3.98-15.04.85-19.28c4.83-4.24 10.77-4.54 15.59-4.25 4.82.28 9.33 3.67 10.49 9.64 1.16 5.97 3.12 31.19 3.12 31.19l-26.37-1.42Z"/><path class="cls-58" d="M273.02 197.56s.11 2.55-1.13 4.68-1.84 2.55-1.84 2.55 1.57 5.53 3.48 7.37c1.91 1.84 3.32 4.1 6.87 4.39 3.54.3 6.24 0 6.24 0l.06-34.59s-7.99-10.63-11.68-11.34c-3.69-.71-12.05 2.13-12.05 2.13s-2.13 4.96-1.84 6.52c.28 1.56 1.28 2.98 3.26 4.25 0 0 1.28 1.02 1.84 3.56.57 2.54.39 3.83 2.41 6.51 2.02 2.68 4.39 3.96 4.39 3.96Z"/><path class="cls-43" d="M273.02 197.56s.11 2.55-1.13 4.68-1.84 2.55-1.84 2.55 1.57 5.53 3.48 7.37c1.91 1.84 3.32 4.1 6.87 4.39 3.54.3 6.24 0 6.24 0l.06-34.59s-7.99-10.63-11.68-11.34c-3.69-.71-12.05 2.13-12.05 2.13s-2.13 4.96-1.84 6.52c.28 1.56 1.28 2.98 3.26 4.25 0 0 1.28 1.02 1.84 3.56.57 2.54.39 3.83 2.41 6.51 2.02 2.68 4.39 3.96 4.39 3.96Z"/><path class="cls-58" d="M462.4 203.37s5.67.14 9.21-2.98c3.54-3.12 6.24-7.66 6.24-7.66s-1.84-.99-2.27-3.26c0 0 2.1-2.83 2.96-5.39.86-2.55.44-4.13 1.5-6.24s1.91-3.97 2.05-6.24c.14-2.27-3.26-7.51-3.26-7.51l-7.37-2.13-10.77 3.54 1.7 37.85Z"/><path class="cls-40" d="M462.4 203.37s5.67.14 9.21-2.98c3.54-3.12 6.24-7.66 6.24-7.66s-1.84-.99-2.27-3.26c0 0 2.1-2.83 2.96-5.39.86-2.55.44-4.13 1.5-6.24s1.91-3.97 2.05-6.24c.14-2.27-3.26-7.51-3.26-7.51l-7.37-2.13-10.77 3.54 1.7 37.85Z"/><path class="cls-62" d="M462.26 169.06s3.9.43 6.52-3.83c0 0 2.83.89 5.39-.26 0 0 3.33 4.01 5.88 3.04 0 0 .09 3.46 2.56 3.89 0 0 .91-1.23.91-3.52s-2.13-3.28-2.13-3.28-.28-3.03-4.11-3.64c0 0-1.48-1.86-3.69-1.18 0 0-2.41-1.98-4.96.28 0 0-4.41-1.56-6.43 2.27l.05 6.24Z"/><path class="cls-40" d="M462.26 169.06s3.9.43 6.52-3.83c0 0 2.83.89 5.39-.26 0 0 3.33 4.01 5.88 3.04 0 0 .09 3.46 2.56 3.89 0 0 .91-1.23.91-3.52s-2.13-3.28-2.13-3.28-.28-3.03-4.11-3.64c0 0-1.48-1.86-3.69-1.18 0 0-2.41-1.98-4.96.28 0 0-4.41-1.56-6.43 2.27l.05 6.24Z"/><path class="cls-56" d="M270.04 238.81s-5.76-10.06-6.5-16.59l1.54-13.61s.14 7.94 3.83 17.01 5.53 11.62 5.53 11.62l-4.39 1.56Z"/><path class="cls-40" d="M270.04 238.81s-5.76-10.06-6.5-16.59l1.54-13.61s.14 7.94 3.83 17.01 5.53 11.62 5.53 11.62l-4.39 1.56Z"/><path class="cls-56" d="M264.09 203.65s-3.69 15.73-2.83 35.58h3.4s-1.13-4.22-.28-16.71c.85-12.49 3.26-20.15 3.26-20.15l-3.54 1.28Z"/><path class="cls-40" d="M264.09 203.65s-3.69 15.73-2.83 35.58h3.4s-1.13-4.22-.28-16.71c.85-12.49 3.26-20.15 3.26-20.15l-3.54 1.28Z"/><path class="cls-56" d="M460.98 237.56s15.78-9.5 22.28-24.66l-.31 4.96s-7.32 13.33-16.7 20.41l-5.27-.71Z"/><path class="cls-40" d="M460.98 237.56s15.78-9.5 22.28-24.66l-.31 4.96s-7.32 13.33-16.7 20.41l-5.27-.71Z"/><path class="cls-56" d="M483.38 194.19s.57 20.98-3.83 38.56l4.25.57s3.69-22.11 3.69-36.57l-4.11-2.55Z"/><path class="cls-40" d="M483.38 194.19s.57 20.98-3.83 38.56l4.25.57s3.69-22.11 3.69-36.57l-4.11-2.55Z"/><path class="cls-62" d="M282.47 176.78s-3.9.43-6.52-3.83c0 0-2.84.89-5.39-.26 0 0-3.33 4.01-5.89 3.04 0 0-.08 3.46-2.56 3.88 0 0-.91-1.23-.91-3.52s2.13-3.28 2.13-3.28.28-3.03 4.11-3.64c0 0 1.48-1.86 3.69-1.18 0 0 2.41-1.98 4.96.28 0 0 4.41-1.56 6.43 2.27l-.05 6.24Z"/><path class="cls-40" d="M282.47 176.78s-3.9.43-6.52-3.83c0 0-2.84.89-5.39-.26 0 0-3.33 4.01-5.89 3.04 0 0-.08 3.46-2.56 3.88 0 0-.91-1.23-.91-3.52s2.13-3.28 2.13-3.28.28-3.03 4.11-3.64c0 0 1.48-1.86 3.69-1.18 0 0 2.41-1.98 4.96.28 0 0 4.41-1.56 6.43 2.27l-.05 6.24Z"/><path class="cls-56" d="m283.39 234.55-1.3-219 180.03-3.21 1.77 224.34h11.84v6.22h4.96v4.11h5.81v7.37h4.96v5.1h-19.42l-21.12-1.84s-10.35 6.95-21.26-2.41c0 0-10.49 9.2-27.36.28 0 0-14.88 9.21-30.48-.43 0 0-11.62 9.07-26.79 0 0 0-14.74 6.24-26.93-1.98 0 0-10.77 8.08-25.23 1.42l-19.85 2.98-20.27.71-.02-5.39h6.96v-6.81h7.09v-6.66h6.95v-4.54l9.66-.28Z"/><path class="cls-43" d="m283.39 234.55-1.3-219 180.03-3.21 1.77 224.34h11.84v6.22h4.96v4.11h5.81v7.37h4.96v5.1h-19.42l-21.12-1.84s-10.35 6.95-21.26-2.41c0 0-10.49 9.2-27.36.28 0 0-14.88 9.21-30.48-.43 0 0-11.62 9.07-26.79 0 0 0-14.74 6.24-26.93-1.98 0 0-10.77 8.08-25.23 1.42l-19.85 2.98-20.27.71-.02-5.39h6.96v-6.81h7.09v-6.66h6.95v-4.54l9.66-.28Z"/><path class="cls-60" d="m466.49 11.18-186.85 2.79.32 8.8s9.4 7.92 26.11 0c0 0 7.35 7.09 26.06.57 0 0 18.54 5.04 31.19-1.17 0 0 14.46 7.69 30.34-1.38 0 0 12.76 5.95 27.22-.43 0 0 16.77 7.72 28.37-.46 0 0 10.16 6.55 20.67 1.46l-3.42-10.17Z"/><path class="cls-43" d="M307.75 51.12v-9.78s2.55.99 3.54 3.26v5.67"/><path class="cls-64" d="M260.4 303.87s5.1-.85 8.22-7.94c3.12-7.09 8.36-21.55 7.8-30.62l-4.25-7.09s-2.7-1.28-6.24.57c0 0-1.28 2.13-3.26 11.06-1.98 8.93-3.12 15.59-3.12 21.26s.85 12.76.85 12.76Z"/><path class="cls-39" d="M260.4 303.87s5.1-.85 8.22-7.94c3.12-7.09 8.36-21.55 7.8-30.62l-4.25-7.09s-2.7-1.28-6.24.57c0 0-1.28 2.13-3.26 11.06-1.98 8.93-3.12 15.59-3.12 21.26s.85 12.76.85 12.76Z"/><path class="cls-40" d="M465.78 171.87s4.48-1.46 7.09.57m3.97.67s1.82-1.07 3.8-.28m-4.05 1.81s.76-.65 2.12-.61c1.36.04 1.36.99 1.36.99m-13.14-.75s1.98-2.52 5.1 0"/><path class="cls-45" d="M475.42 174.04s-.34 1.22.11 4.01.49 3.83-.12 3.93c-.62.1-2.26-.87-2.54.49"/><path class="cls-46" d="m470.79 185.95 1.17-.7s2.07.85 3.57 0l.73.28"/><path class="cls-45" d="M470.53 187.65s2.7.85 4.37 0"/><path class="cls-40" d="M466.57 189.34s1.19-.19 3.23.91c2.04 1.09 4.42 1.02 5.9-.91"/><path class="cls-62" d="M292.15 236.96s0-6.24 1.42-12.19c0 0 5.41-20.17 9.66-31.18 4.25-11 6.78-25.24 11.88-39.98 5.1-14.74 9.64-22.68 18.71-29.2s16.44-10.17 17.58-15.29c1.13-5.12 0-8.8-2.55-14.76-2.55-5.95-5.06-12.47-3.09-21.83 1.96-9.36 9.91-18.71 18.12-20.7 8.21-1.98 20.98-1.72 26.37 3.69 5.39 5.4 10.49 13.89 8.79 24.38-1.7 10.49-3.99 15.03-7.37 20.13s-2.55 12.76.28 16.44c2.83 3.69 5.39 6.52 11.62 9.36l22.4 49.2s7.09 2.44 10.77 7.63 8.25 16.31 11.08 31.34c2.84 15.03 2.84 22.96 2.84 22.96s-92.45.55-114.28.85c-21.83.3-44.23-.85-44.23-.85Z"/><path d="M292.15 236.96s0-6.24 1.42-12.19c0 0 5.41-20.17 9.66-31.18 4.25-11 6.78-25.24 11.88-39.98 5.1-14.74 9.64-22.68 18.71-29.2s16.44-10.17 17.58-15.29c1.13-5.12 0-8.8-2.55-14.76-2.55-5.95-5.06-12.47-3.09-21.83 1.96-9.36 9.91-18.71 18.12-20.7 8.21-1.98 20.98-1.72 26.37 3.69 5.39 5.4 10.49 13.89 8.79 24.38-1.7 10.49-3.99 15.03-7.37 20.13s-2.55 12.76.28 16.44c2.83 3.69 5.39 6.52 11.62 9.36l22.4 49.2s7.09 2.44 10.77 7.63 8.25 16.31 11.08 31.34c2.84 15.03 2.84 22.96 2.84 22.96s-92.45.55-114.28.85c-21.83.3-44.23-.85-44.23-.85Z" style="stroke:#000;fill:none"/><path class="cls-59" d="M387.7 118.32s-2.69-4.25-3.26-8.22c-.57-3.97-.38-6 1.02-8.39 1.39-2.38 4.8-8.62 4.94-12.17.14-3.54 1.98-7.8.85-10.92s-7.5-5.95-13.33-5.67c-5.82.28-14.34 4.25-15.45 8.65-1.11 4.39-1.7 7.51-1.7 7.51l-1.99 3.26s.71 2.27 2.98 1.56c0 0 2.1 5.24 2.98 10.06.87 4.82.99 13.04.99 13.04s4.61 6.1 10.24 5.53c5.63-.57 5.92-4.11 8.9-3.97 2.98.14 2.84-.28 2.84-.28Z"/><path class="cls-41" d="M387.7 118.32s-2.69-4.25-3.26-8.22c-.57-3.97-.38-6 1.02-8.39 1.39-2.38 4.8-8.62 4.94-12.17.14-3.54 1.98-7.8.85-10.92s-7.5-5.95-13.33-5.67c-5.82.28-14.34 4.25-15.45 8.65-1.11 4.39-1.7 7.51-1.7 7.51l-1.99 3.26s.71 2.27 2.98 1.56c0 0 2.1 5.24 2.98 10.06.87 4.82.99 13.04.99 13.04s4.61 6.1 10.24 5.53c5.63-.57 5.92-4.11 8.9-3.97 2.98.14 2.84-.28 2.84-.28Z"/><path class="cls-59" d="M338.3 189.26s1.21-.5 1.28-3.69c.07-3.19 1.25-5.9 2.79-9.71 1.54-3.81 2.36-4.95 2.03-8.06-.33-3.12-.34-3.91.57-4.2.92-.28 2.12 1.38 2.26 4.2.14 2.82-.99 6.91-.5 9.41 0 0 6.45-.57 8.86-2.2 2.41-1.63 4.61-3.47 6.24-5.32 1.63-1.84 2.69-3.4 3.61-3.9.92-.5 1.51-.34 1.9 0 .39.34.33.72.33.72s.69-.6 1.43-.16c.74.44.19 1.42-.09 1.93 0 0 .77-.68 1.34 0 .57.68-.34 2.06-.34 2.06s.65-.3 1.03.1c.37.4-.35 1.76-1.88 4.03-1.53 2.27-1.76 5.95-7.65 10.21-5.9 4.25-13.21 9.56-16.56 11.19 0 0-2.83-.83-4.25-2.68-1.42-1.86-1.64-1.86-2.4-3.93Z"/><path class="cls-41" d="M338.3 189.26s1.21-.5 1.28-3.69c.07-3.19 1.25-5.9 2.79-9.71 1.54-3.81 2.36-4.95 2.03-8.06-.33-3.12-.34-3.91.57-4.2.92-.28 2.12 1.38 2.26 4.2.14 2.82-.99 6.91-.5 9.41 0 0 6.45-.57 8.86-2.2 2.41-1.63 4.61-3.47 6.24-5.32 1.63-1.84 2.69-3.4 3.61-3.9.92-.5 1.51-.34 1.9 0 .39.34.33.72.33.72s.69-.6 1.43-.16c.74.44.19 1.42-.09 1.93 0 0 .77-.68 1.34 0 .57.68-.34 2.06-.34 2.06s.65-.3 1.03.1c.37.4-.35 1.76-1.88 4.03-1.53 2.27-1.76 5.95-7.65 10.21-5.9 4.25-13.21 9.56-16.56 11.19 0 0-2.83-.83-4.25-2.68-1.42-1.86-1.64-1.86-2.4-3.93Z"/><path class="cls-43" d="M353.05 180.32s.54-.4 4.42-3.29 8.45-7.62 10.21-10.64m-11.57 15.69s4.37-2.81 6.75-5.73c2.38-2.92 5.02-6.58 6.58-8.73m-10.55 16.1s4.14-3.18 6.29-6.46c2.15-3.29 3.99-5.81 5.1-7.19"/><path class="cls-64" d="m623.54 154.5 15.77-15.46 27.67-.41 14.48 16.28-20.59 76.82-19.95-5.85-17.38-71.38z"/><path class="cls-23" d="m623.54 154.5 15.77-15.46 27.67-.41 14.48 16.28-20.59 76.82-19.95-5.85-17.38-71.38z"/><path class="cls-60" d="M349.16 235.12s1.9 2.87 6.68.73c4.78-2.14 7.2-2.55 11.01-2.84 3.82-.28 5.24-.13 5.24-3.97 0 0 .6-1.17 4.57-1.57 3.97-.41 5.62-1.13 8.06-6.52 0 0 1.56-.39 2.55 2.14 0 0 6.4-.16 9.52-1.72 0 0 9.36.23 14.46-4.96l6.64-7.5-3.71-21.14s3.87-6.06 4.7-6.36c.83-.3 5.21 2.2 9.92-1.54 3.26-2.59 2.86-8.25 2.86-8.25l1.42-1.28s-.26-3.1-1.13-5.37c0 0 .59-2.68 0-6.24 0 0-1.02-13.48-2.86-19.72-1.84-6.24-5.95-12.11-15.17-15.91l-11.34 1.16s-6.66.41-11.91 5.39c-5.24 4.98-17.41 16.44-17.41 16.44s-3.33 0-5.98 2.69c-2.65 2.69-6.85 3.4-6.85 3.4s2.9 4.68 5.29 7.51 2.9 3.37 5.68 3.37c0 0 2.26 1.3 12.04 1.45l4.82-.57s-1.28.69-1.7 4.54c0 0-5.36 4.19-6.21 4.93-.85.74-1.02 1.48-1.02 1.48s-4.2 2.97-5.95 3.67c-1.75.69-1.29 2.54-1.29 2.54s-5.67 4.11-7.46 6.66 0 2.55 0 2.55-2.76 1.64-3.16 6.08c0 0-1.58-.85-1.42 2 .17 2.85-1.42 6.79-1.98 8.65-.57 1.86 1.02 1.84 1.02 1.84s-.45 4.82.4 9.5c0 0-3.07 2.27-.97 3.26 2.1.99.8 2-.02 2.85-.83.85-3.5 3.98-4.8 6.8-1.3 2.82-4.54 3.81-4.54 3.81Z"/><path class="cls-44" d="M349.16 235.12s1.9 2.87 6.68.73c4.78-2.14 7.2-2.55 11.01-2.84 3.82-.28 5.24-.13 5.24-3.97 0 0 .6-1.17 4.57-1.57 3.97-.41 5.62-1.13 8.06-6.52 0 0 1.56-.39 2.55 2.14 0 0 6.4-.16 9.52-1.72 0 0 9.36.23 14.46-4.96l6.64-7.5-3.71-21.14s3.87-6.06 4.7-6.36c.83-.3 5.21 2.2 9.92-1.54 3.26-2.59 2.86-8.25 2.86-8.25l1.42-1.28s-.26-3.1-1.13-5.37c0 0 .59-2.68 0-6.24 0 0-1.02-13.48-2.86-19.72-1.84-6.24-5.95-12.11-15.17-15.91l-11.34 1.16s-6.66.41-11.91 5.39c-5.24 4.98-17.41 16.44-17.41 16.44s-3.33 0-5.98 2.69c-2.65 2.69-6.85 3.4-6.85 3.4s2.9 4.68 5.29 7.51 2.9 3.37 5.68 3.37c0 0 2.26 1.3 12.04 1.45l4.82-.57s-1.28.69-1.7 4.54c0 0-5.36 4.19-6.21 4.93-.85.74-1.02 1.48-1.02 1.48s-4.2 2.97-5.95 3.67c-1.75.69-1.29 2.54-1.29 2.54s-5.67 4.11-7.46 6.66 0 2.55 0 2.55-2.76 1.64-3.16 6.08c0 0-1.58-.85-1.42 2 .17 2.85-1.42 6.79-1.98 8.65-.57 1.86 1.02 1.84 1.02 1.84s-.45 4.82.4 9.5c0 0-3.07 2.27-.97 3.26 2.1.99.8 2-.02 2.85-.83.85-3.5 3.98-4.8 6.8-1.3 2.82-4.54 3.81-4.54 3.81Z"/><path class="cls-59" d="M394.15 130.86s1.89-2.55 4.82-4.68c2.93-2.13 4.04-2.52 3.97-4.59-.07-2.07-1.42-.94-2.69-3.56-1.28-2.62-.64-4.95-2.06-6.65-1.42-1.7-2.06-2.57-1.35-3.63s-.38-3.05.24-5.03c.61-1.98 1.7-2.48 2.55-4.04.85-1.56 3.02-3.77 5.72-4.04 2.69-.27 3.4-1.01 5.53-.92 2.13.09 5.53 1.62 6.66 2.84 1.13 1.21 1.42 3.32 2.69 3.54 1.28.23 1.56 2.06 1.63 3.61.07 1.56.54 3.54-1.06 5.24-1.61 1.7-2.27 3.1-3.19 5.17-.92 2.07-1.56 2.98-2.91 4.25-1.35 1.28-1.47 1.63-1.47 2.92s.19 2.52 1.18 4.09a22.82 22.82 0 0 0 2.13 2.84s-1.49 3.33-4.96 4.89c-3.47 1.56-9.57 1.28-9.57 1.28s-1.91-4.68-7.87-3.54Z"/><path class="cls-41" d="M394.15 130.86s1.89-2.55 4.82-4.68c2.93-2.13 4.04-2.52 3.97-4.59-.07-2.07-1.42-.94-2.69-3.56-1.28-2.62-.64-4.95-2.06-6.65-1.42-1.7-2.06-2.57-1.35-3.63s-.38-3.05.24-5.03c.61-1.98 1.7-2.48 2.55-4.04.85-1.56 3.02-3.77 5.72-4.04 2.69-.27 3.4-1.01 5.53-.92 2.13.09 5.53 1.62 6.66 2.84 1.13 1.21 1.42 3.32 2.69 3.54 1.28.23 1.56 2.06 1.63 3.61.07 1.56.54 3.54-1.06 5.24-1.61 1.7-2.27 3.1-3.19 5.17-.92 2.07-1.56 2.98-2.91 4.25-1.35 1.28-1.47 1.63-1.47 2.92s.19 2.52 1.18 4.09a22.82 22.82 0 0 0 2.13 2.84s-1.49 3.33-4.96 4.89c-3.47 1.56-9.57 1.28-9.57 1.28s-1.91-4.68-7.87-3.54Z"/><path class="cls-59" d="M415.22 189.11s-2.58 3.69-3.6 6.29c-1.02 2.61-.74 3.04-2.61 5.44-1.87 2.4-3 3.52-2.44 4.2.57.68 1.92-.34 3.06-1.87 1.14-1.53 2.72-3.37 3.46-5.31.74-1.94 1.52-3.39 2.53-3.12 1.01.27.73 2.76-.83 5.71s-6.1 7.53-9.22 9.98c-3.12 2.45-3.6 3.46-3.31 4.08.28.62 1.13.79 1.13.79s-1.79.96-1.22 1.87c.57.91 1.73.27 1.73.27s-.17 1.14 1.53.72c1.7-.42 2.89-1.31 2.89-1.31s.96.58 3.8-.57c2.83-1.15 7.23-3.19 9.41-5.12 2.18-1.93 4.45-3.81 4.73-7.38.28-3.57-3.05-9.07-4.5-10.99-1.45-1.93-5.84-4.93-6.55-3.69Z"/><path class="cls-43" d="M415.22 189.11s-2.58 3.69-3.6 6.29c-1.02 2.61-.74 3.04-2.61 5.44-1.87 2.4-3 3.52-2.44 4.2.57.68 1.92-.34 3.06-1.87 1.14-1.53 2.72-3.37 3.46-5.31.74-1.94 1.52-3.39 2.53-3.12 1.01.27.73 2.76-.83 5.71s-6.1 7.53-9.22 9.98c-3.12 2.45-3.6 3.46-3.31 4.08.28.62 1.13.79 1.13.79s-1.79.96-1.22 1.87c.57.91 1.73.27 1.73.27s-.17 1.14 1.53.72c1.7-.42 2.89-1.31 2.89-1.31s.96.58 3.8-.57c2.83-1.15 7.23-3.19 9.41-5.12 2.18-1.93 4.45-3.81 4.73-7.38.28-3.57-3.05-9.07-4.5-10.99-1.45-1.93-5.84-4.93-6.55-3.69Zm4.12 15.71s-7.26 8.17-15.71 12.64m16.69-9.53s-7.65 6.92-12.04 9.02m-71.33-27.03s.85 3.1 3.54 5.37 4.11 1.84 4.11 1.84"/><path class="cls-44" d="M335.67 190.75s-.11 1.87 2.41 4.84c2.52 2.96 4.84 2.96 4.84 2.96"/><path class="cls-45" d="M381.32 122.6s-1.61-.03-4.37 1.67c0 0-3-1.67-8.1-1.67 0 0-2.69-2.86-4.96-6.55s-2.98-5.39-3.83-9.07c-.85-3.69-1.3-5.1-4.25-7.51s-4.11-3.26-4.11-3.26 3.97-7.51 4.96-17.58c0 0 6.95-4.82 9.5-8.93 0 0 7.7 2.02 19.3-.26l9.92 8.2s-.65 2.84-.17 6.8c.48 3.97.85 7.09-2.69 11.48-3.54 4.39-5.53 8.54-4.82 14.62s.71 9.2.71 9.2m-37.92-24.95s4.3-10.7 4.47-17.01c0 0 7.73-6.21 10.42-9.77 0 0 10.47 2.23 20.93-.3l8.79 7.96m20.39 112.19s3.45-.36 6.83 3.97c3.38 4.32 5.93 8.86 5.93 22.18s-.14 20.84-.14 20.84m-101.07-38.43s-2.86.58-1.98 9.09c.87 8.51-2.04 10.76-.67 16.44 1.38 5.68-1.57 11.13-.88 15.2"/><g style="clip-path:url(#clippath-2)"><path class="cls-44" d="M422.48 139.44s1.56 12.37-5.84 20.13-15.07 13.04-15.07 13.04 5.57-1.87 9.09.41c3.52 2.28 3.97 6.68 8.5 8.38m-27.06-47.63s-5.44 7.94-2.28 21.4m12.33 24.57s-2.69-.16-6.52.98c-3.83 1.14-5.21 2.23-5.21 5.21 0 0-7.27 10.54-9.96 17.6-2.69 7.06-3.12 7.63-3.12 7.63l-3.83 6.24s-6.23 5.53-1.89 11.34m7.28-53.83s25.78 2.09 33.29 7.9m4.98-52.73s-7.37 5.91-8.65 20.98c0 0-6.7-1.28-12.85 1.84-6.15 3.12-9.12 4.82-9.12 4.82l1.77-3.83m-1.49 5.53s2.49 2.58 6.14.72c3.64-1.86 5.23-1.21 5.23-1.21m-3.71 2.39s4.82 5.3 11.62 0m12.19-27.84s-6.52 8.41-7.94 29.07m-50.75 58.11s5.39 1.28 9.36 6.66m1.69-78.5s8.7 13.69 17.02 13.73m-93.84 95.11s11.91 5.98 23.81-1.69c0 0 12.02 9.96 26.93 1.99 0 0 15.05 10.07 26.8.49 0 0 15.77 9.14 29.9.77 0 0 16.7 7.96 28.07.08 0 0 12.76 7.72 23.53 1.34m-173.22 17.29s8.22 1.42 12.9-3.54c0 0 11.2 6.3 24.38-.34 0 0 16.73 9.6 26.51 2.06 0 0 16.28 8.71 28.63.38 0 0 15.32 9.86 27.65.55 0 0 15.88 8.87 28.21-.65 0 0 11.62 7.78 26.65 1.12 0 0 6.66 3.12 14.03 1.56m-191.68 1.13s6.96 3.54 14.69-1.84c0 0 17.39 6.49 24.31-1.56 0 0 16.59 8.69 27.08 2.36 0 0 17.42 9.12 29.05.76 0 0 14.61 9.36 27.79.57 0 0 15.73 8.79 27.5-.85 0 0 14.46 7.81 27.08.83m-14.75 30.52c3.4 0 6.15-2.78 6.15-6.21s-2.76-6.21-6.15-6.21-6.16 2.78-6.16 6.21 2.76 6.21 6.16 6.21Zm0-5.08c.62 0 1.12-.5 1.12-1.13s-.5-1.12-1.12-1.12-1.13.5-1.13 1.12.5 1.13 1.13 1.13Zm-66.32 4.27c3.4 0 6.16-2.78 6.16-6.21s-2.76-6.21-6.16-6.21-6.15 2.78-6.15 6.21 2.76 6.21 6.15 6.21Zm0-5.08c.62 0 1.13-.5 1.13-1.13s-.5-1.13-1.13-1.13-1.12.5-1.12 1.13.5 1.13 1.12 1.13Z"/><path class="cls-64" d="M584.56 433.8h69.91s2.87-3.55 2.87-14.49l-4.41-88.87-21.34-59.79-52.97 8.04 3.74 69.18-3.51 61.78 5.71 24.14Z"/><path class="cls-23" d="M584.56 433.8h69.91s2.87-3.55 2.87-14.49l-4.41-88.87-21.34-59.79-52.97 8.04 3.74 69.18-3.51 61.78 5.71 24.14Z"/></g><path class="cls-57" d="m596.54 293.81 1.58 119.72s4.56 4.16 11.29-.66c0 0 4.16 2.88 7.7.97s5.17-6.44 5.17-6.44l-1.96-116.49-23.78 2.9Z"/><path class="cls-26" d="m596.54 293.81 1.58 119.72s4.56 4.16 11.29-.66c0 0 4.16 2.88 7.7.97s5.17-6.44 5.17-6.44l-1.96-116.49-23.78 2.9Z"/><path class="cls-25" d="m616.14 294.48 1.61 113.25s-2.9 5.47-9.33.97l-7.05 2.25-.99-115.2m13.84 4.18s-7.4 7.08-9.33 15.77c-1.93 8.69-.97 15.12 1.93 16.41 2.9 1.29 5.79 0 4.83-2.9-.97-2.9-2.23-1.93-2.23-1.93m-7.43 1.93s1.29 4.18 5.15 11.58c3.86 7.4 7.08 14.16 4.83 20.59-2.25 6.44-6.76 6.76-8.37 4.18-1.61-2.57.97-3.86 1.93-3.22.97.64 1.29 1.93 0 2.25m8.69-5.77s-.32 7.06-6.43 18.32c-6.11 11.26-7.4 22.85.32 25.42 7.72 2.57 4.8 5.47 3.86 5.15-.94-.32-1.93-2.25-1.93-2.25m6.44-9.65s-1.29-4.51-4.83-6.11c-3.54-1.61-4.18-4.79-2.57-8.35 1.61-3.56 5.15-1.3 3.86.3M602 359.77s.32-1.29 2.57-3.22c2.25-1.93 3.86-4.79 2.57-7.38s-2.9-2.59-3.86-.98c-.97 1.61 1.61 1.93 1.61 1.93"/><path class="cls-62" d="M594.1 146.6s-6.64 2.4-10.78 7.56c-4.14 5.17-9.17 11.58-9.17 11.58l7.9 114.76s6.71 11.93 13.64 15.72c6.93 3.78 13.67 4.96 20.45 0 6.77-4.96 13.84-14.31 13.84-14.31s-.32 1.29 3.86 28.8 5.15 38.94 6.44 40.08c1.29 1.14 5.02 8.38 12.65 9.65l6.02-12.25.51-104.74s-8.01-34.35-12.03-49.07c-4.03-14.72-8.11-33.86-13.74-38.94-5.63-5.08-14.75-10.98-17.83-12.39l-12.74 10.78-9.01-7.24Z"/><path class="cls-23" d="M594.1 146.6s-6.64 2.4-10.78 7.56c-4.14 5.17-9.17 11.58-9.17 11.58l7.9 114.76s6.71 11.93 13.64 15.72c6.93 3.78 13.67 4.96 20.45 0 6.77-4.96 13.84-14.31 13.84-14.31s-.32 1.29 3.86 28.8 5.15 38.94 6.44 40.08c1.29 1.14 5.02 8.38 12.65 9.65l6.02-12.25.51-104.74s-8.01-34.35-12.03-49.07c-4.03-14.72-8.11-33.86-13.74-38.94-5.63-5.08-14.75-10.98-17.83-12.39l-12.74 10.78-9.01-7.24Z"/><g style="clip-path:url(#clippath-3)"><path class="cls-44" d="M304.05 310.17c3.4 0 6.15-2.78 6.15-6.21s-2.76-6.21-6.15-6.21-6.15 2.78-6.15 6.21 2.76 6.21 6.15 6.21Zm0-5.08c.62 0 1.13-.5 1.13-1.13s-.5-1.13-1.13-1.13-1.13.5-1.13 1.13.5 1.13 1.13 1.13Z"/><path class="cls-57" d="M534.42 146.46s-9.99 4-15.46 13.39c-5.47 9.39-8.69 21.03-14.8 36.47-6.11 15.45-12.58 39.29-5.15 49.89 7.43 10.6 11.26 13.82 11.26 13.82s-.64 19.95-1.93 48.27c-1.29 28.32-2.28 60.82-2.9 80.45-.62 19.63-2.57 29.93-2.57 29.93l8.37.11s-1.29 5.08-.8 15.68c0 0 60.33.03 76.58.03 0 0-2.41-5.67-2.41-16.94 0 0 5.63 1.61 10.46.81 0 0-1.29-10.3-2.09-21.56-.8-11.26-4.5-81.41-5.63-96.86-1.13-15.45-3.38-30.57-3.38-30.57s4.18-15.67 4.83-42.15c.64-26.48-3.22-54.61-6.11-57.98-2.9-3.36-11.26-13.23-16.09-17.55-4.83-4.33-11.26-9.42-11.26-9.42l-20.9 4.2Z"/><path class="cls-23" d="M534.42 146.46s-9.99 4-15.46 13.39c-5.47 9.39-8.69 21.03-14.8 36.47-6.11 15.45-12.58 39.29-5.15 49.89 7.43 10.6 11.26 13.82 11.26 13.82s-.64 19.95-1.93 48.27c-1.29 28.32-2.28 60.82-2.9 80.45-.62 19.63-2.57 29.93-2.57 29.93l8.37.11s-1.29 5.08-.8 15.68c0 0 60.33.03 76.58.03 0 0-2.41-5.67-2.41-16.94 0 0 5.63 1.61 10.46.81 0 0-1.29-10.3-2.09-21.56-.8-11.26-4.5-81.41-5.63-96.86-1.13-15.45-3.38-30.57-3.38-30.57s4.18-15.67 4.83-42.15c.64-26.48-3.22-54.61-6.11-57.98-2.9-3.36-11.26-13.23-16.09-17.55-4.83-4.33-11.26-9.42-11.26-9.42l-20.9 4.2Z"/><path d="m523.63 284.82.84-27.21m51.15 85.43v26.23m-12.74-13.11 24-1.69m-8.05-15.12h9.47l.8 12.55m-17.22-13.12-10.94 1.21m1.89-22.69.68 12.87 8.43.03m7.82-.33 8.71-.66.04-13.82m-12.91-13.21v26.71m-11.26-15.11 21.69-.82M573 300.57l-10.18.48-.03 11.34m16.92-11.18h7.93v9.49m-61.62-13.35h9.17M522 300l-.16 26.79m-11.42-15.28 23.49.88m-14.48 16.5h-9.03m14.06 0 9.47-.57m-8.71 9.89h8.74v13.72m-12.69-10.17v25.26m-10.88-13.12h21.42m-24.94-1.97-.16-13.72 10.46-.57m1.29 31.63h-10.3v-13.11m17.05 13.68h9.31v-11.01m-16.87 18.65h-11.51v13.03m2.18 1.61h24.62m-11.67-11.1v11.67m50.67-11.67h-11.07m14.73 2.69-.42 11.14m-11.84-1.45 22.71 1.47m-6.34-13.86 11.31.57.03 12.56m-12.23-22.13h10.84l-.57-13.18m-17.14 13.74h-9.71m-37.01 5.56h11.26m-16.89-81.35h-11.56m13.24-9.73h-11.02v-13.68m16.41 12.87h8.53m36.75 5.95h-11v-13.52m16.57 14.08 8.55-1.05v-14m-13.03 11.58v-21.72m-10.8 8.85 22.17-1.13m-72.22-4.09h23.01m40.54-6.37 6.29-.64-.82-10.78m2.09-2.9h5.31m-11.17.57h-6.85m6.85-7.97-6.85.64m12.05-1.21h5.97m-8.18-1.53-1.27-26.06m-9.37 11.26 18.82-1.61m-61.94 21.72h8.53m-8.53 8.69h8.53m-24.46-5.79h-11.26l.64-12.7m1.77-3.22h6.14m-9.15-1.61v-11.12h10.81m0-8.19h-8.32v-2.25m11.78.14.81-26.71m-12.07 13.35 23.13.48m1.86-1.13v-12.73h-9.06m49.23 2.75h20.59m-7.85 14.39-1.64-25.97m4.49 29.12h7.9m-13.19 0h-10.3m-50.52 9.11c.16-.57 10.35-1.23 10.35-1.23m49.67.41h-6.81m12.9-.57h7.9" style="stroke-width:4.54px;stroke:#3c1028;fill:none"/><path class="cls-56" d="m533.28 429.22-1.1-236.76-20.92-17.7s7.03-19.63 16.38-24.45l28.67-7.06s12.5 6.08 23.14 24.76l-15.77 28.64-3.54 46.36.63 187.93-27.5-1.7Z"/><path class="cls-23" d="m533.28 429.22-1.1-236.76-20.92-17.7s7.03-19.63 16.38-24.45l28.67-7.06s12.5 6.08 23.14 24.76l-15.77 28.64-3.54 46.36.63 187.93-27.5-1.7Z"/></g><path class="cls-60" d="m545.4 230.26-1.66-37.97s22.36-.97 24.62-.97 2.25 3.86 2.25 3.86v35.1l-25.2-.02Z"/><path class="cls-24" d="m545.4 230.26-1.66-37.97s22.36-.97 24.62-.97 2.25 3.86 2.25 3.86v35.1l-25.2-.02Z"/><path class="cls-60" d="M516 266.46s-8.1-11.13-9.56-25.39c-1.46-14.26-.05-15.16 1.61-17 1.66-1.85 3.41-3.78 8.41-4.74 5.01-.97 7.9 7.4 7.25 19.31-.65 11.91-2.42 22.69-7.71 27.83Z"/><path class="cls-24" d="M516 266.46s-8.1-11.13-9.56-25.39c-1.46-14.26-.05-15.16 1.61-17 1.66-1.85 3.41-3.78 8.41-4.74 5.01-.97 7.9 7.4 7.25 19.31-.65 11.91-2.42 22.69-7.71 27.83Z"/><path class="cls-60" d="M569.76 271.79s-4.81-4.35-8.32-20.68c-3.51-16.33.58-23.09 4.07-23.09s6.55 2.58 7.54 18.91c.99 16.33.99 20.67-3.29 24.87Z"/><path class="cls-24" d="M569.76 271.79s-4.81-4.35-8.32-20.68c-3.51-16.33.58-23.09 4.07-23.09s6.55 2.58 7.54 18.91c.99 16.33.99 20.67-3.29 24.87Z"/><path class="cls-64" d="M513.47 246.35s16.43-13.47 19.81-33.36l-7.24-2.66s-6.89 6.64-13.84 15.11c0 0-4.67 5.42 1.27 20.92Z"/><path class="cls-5" d="m549.53 163.05 21.64 14.92m-1.42-21.24-17.33 31m-33.79-27 19.63 18.92m-16.8 0 9.48-12.26m15.04 73.67.32 35.94"/><path class="cls-58" d="M528.46 128.9s-1.29 6.11.32 11.91c0 0-2.77 7.44.55 15.3 0 0-3.34 9.15 6.37 17.52 0 0 1.23 5.47 5.47 5.47s5.47-10.62 5.47-10.62 4.67-1.45 4.34-7.24c0 0 5.31-3.75 3.38-12.09 0 0 7.24-3.42 3.86-12.47v-3.59s5.15-.97 5.79-9.01c0 0 6.27-13.19-3.86-21.72 0 0-3.77-6.44-14.75-5.47-10.98.97-16.9 5.63-18.28 14.64-1.38 9.01 1.33 17.38 1.33 17.38Z"/><path class="cls-3" d="M528.46 128.9s-1.29 6.11.32 11.91c0 0-2.77 7.44.55 15.3 0 0-3.34 9.15 6.37 17.52 0 0 1.23 5.47 5.47 5.47s5.47-10.62 5.47-10.62 4.67-1.45 4.34-7.24c0 0 5.31-3.75 3.38-12.09 0 0 7.24-3.42 3.86-12.47v-3.59s5.15-.97 5.79-9.01c0 0 6.27-13.19-3.86-21.72 0 0-3.77-6.44-14.75-5.47-10.98.97-16.9 5.63-18.28 14.64-1.38 9.01 1.33 17.38 1.33 17.38Z"/><path class="cls-5" d="M535.21 257.6h23.33"/><path class="cls-44" d="M273.44 325.42s22.11 12.27 44.23-1.7c0 0 26.08 12.47 52.73-1.42 0 0 23.16 13.01 46.24-.44 0 0 10.75 11.23 34.56 2.73 0 0 7.09 4.16 13.89 2.82m-191.65 1.74s22.11 12.27 44.23-1.7c0 0 26.08 12.47 52.73-1.42 0 0 23.16 13.01 46.24-.44 0 0 10.75 11.23 34.56 2.73 0 0 7.09 4.16 13.89 2.82m-188.56 18.97s16.73 7.95 42.26-1.42c0 0 21.4 12.84 50.39 2.3 0 0 25.87 13 44.87-1.46 0 0 23.73 12.76 40.64 0 0 0 6.91 3.83 14.04 3.33m-192.2-6.45s16.73 7.95 42.26-1.42c0 0 21.4 12.84 50.39 2.3 0 0 25.87 13 44.87-1.46 0 0 23.73 12.76 40.64 0 0 0 6.91 3.83 14.04 3.33"/><path class="cls-63" d="m163.68 83.3 1.62-4.93 2.38 4.81.3 1.78-3.6-.13-.7-1.53z"/><path style="stroke-width:1.08px;stroke:#58418c;fill:none" d="m163.68 83.3 1.62-4.93 2.38 4.81.3 1.78-3.6-.13-.7-1.53z"/><path class="cls-63" d="m143.6 87.77-.62-5.15 4.19 3.35 1.02 1.49-3.32 1.4-1.27-1.09z"/><path class="cls-37" d="m143.6 87.77-.62-5.15 4.19 3.35 1.02 1.49-3.32 1.4-1.27-1.09z"/><path class="cls-63" d="m153.86 84.73.92-5.11 3.02 4.43.54 1.72-3.58.37-.9-1.41z"/><path class="cls-13" d="m153.86 84.73.92-5.11 3.02 4.43.54 1.72-3.58.37-.9-1.41z"/><path class="cls-63" d="m182.6 86.33 3.62-3.72.03 5.37-.52 1.73-3.18-1.7.05-1.68z"/><path style="stroke-width:1px;stroke:#58418c;fill:none" d="m182.6 86.33 3.62-3.72.03 5.37-.52 1.73-3.18-1.7.05-1.68z"/><path class="cls-63" d="m173.82 83.4 2.99-4.24.88 5.29-.24 1.79-3.41-1.17-.22-1.67z"/><path class="cls-13" d="m173.82 83.4 2.99-4.24.88 5.29-.24 1.79-3.41-1.17-.22-1.67z"/><path class="cls-44" d="M269.76 399.13s8.79 8.22 23.81 1.13c0 0 14.44 6.8 25.52 1.98 0 0 11.62 4.41 22.11-.63 0 0 14.57 7.43 27.99-1.64 0 0 13.96 7.49 26.72-1.22 0 0 15.31 6.73 28.92-.41 0 0 15.31 6.16 24.66-2.62 0 0 10.47 6.27 20.7 1.15m-200.44 5.44s8.79 8.22 23.81 1.13c0 0 14.44 6.8 25.52 1.98 0 0 11.62 4.41 22.11-.63 0 0 14.57 7.43 27.99-1.64 0 0 13.96 7.49 26.72-1.22 0 0 15.31 6.73 28.92-.41 0 0 15.31 6.16 24.66-2.62 0 0 10.47 6.27 20.7 1.15"/><path class="cls-61" d="M135.64 161.11s-16.23 16.88-18.37 62.46c-2.14 45.59-.31 64.61 2.45 99.82 2.76 35.21 2.45 78.08 1.53 88.8l54.2 9.19 21.74-12.55s1.22-16.52 2.76-35.82l.54-7.35s9.57-26.94 11.1-55.11c1.53-28.17-.92-73.79-5.51-104.1l-4.59 5.83s.61-19.55-6.74-35.53c-7.35-15.99-15.31-17.15-15.31-17.15l-43.79 1.53Z"/><path class="cls-54" d="M135.64 161.11s-16.23 16.88-18.37 62.46c-2.14 45.59-.31 64.61 2.45 99.82 2.76 35.21 2.45 78.08 1.53 88.8l54.2 9.19 21.74-12.55s1.22-16.52 2.76-35.82l.54-7.35s9.57-26.94 11.1-55.11c1.53-28.17-.92-73.79-5.51-104.1l-4.59 5.83s.61-19.55-6.74-35.53c-7.35-15.99-15.31-17.15-15.31-17.15l-43.79 1.53Z"/><path class="cls-56" d="M149.42 172.97s1.84 2.52 5.51 36.51c3.67 33.99 4.29 51.75 5.51 84.51 1.22 32.76.59 34.6-1.53 65.83-2.12 31.23-3.62 54.52-3.62 54.52l21.99-1.55s3.37-1.84 4.29-16.53c.92-14.7 2.76-23.58 3.06-38.89.31-15.31.54-28.17.54-41.64s-1.46-45.26-2.38-57.38c-.92-12.12-4.59-42.74-5.82-57.75-1.22-15-2.01-22.22-5.82-27.95l-21.74.32Z"/><path class="cls-54" d="M149.42 172.97s1.84 2.52 5.51 36.51c3.67 33.99 4.29 51.75 5.51 84.51 1.22 32.76.59 34.6-1.53 65.83-2.12 31.23-3.62 54.52-3.62 54.52l21.99-1.55s3.37-1.84 4.29-16.53c.92-14.7 2.76-23.58 3.06-38.89.31-15.31.54-28.17.54-41.64s-1.46-45.26-2.38-57.38c-.92-12.12-4.59-42.74-5.82-57.75-1.22-15-2.01-22.22-5.82-27.95l-21.74.32Z"/><path class="cls-57" d="M152.33 215.91s35.06-.61 45.93 3.06l-23.73 33.68s-16.69-.31-32.3 1.99l5.66-38.89 4.44.15Z"/><path class="cls-54" d="M152.33 215.91s35.06-.61 45.93 3.06l-23.73 33.68s-16.69-.31-32.3 1.99l5.66-38.89 4.44.15Z"/><path class="cls-56" d="M142.82 251.5s13.17-1.8 24.8-1.82c11.64-.02 14.7.91 14.7.91"/><path class="cls-54" d="M142.82 251.5s13.17-1.8 24.8-1.82c11.64-.02 14.7.91 14.7.91"/><path class="cls-56" d="M154.91 216.59s35.06-.61 45.93 3.06l-23.73 33.68s-16.69-.31-32.3 1.99l5.66-38.89 4.44.15Z"/><path class="cls-56" d="M201.7 222.72s-14.88-3.67-28.76-2.91c-13.89.77-28.76-.64-28.76-.64"/><path class="cls-40" d="M201.7 222.72s-14.88-3.67-28.76-2.91c-13.89.77-28.76-.64-28.76-.64"/><path class="cls-57" d="M153.15 173.92s2.11 7.04 3.02 16.99c.92 9.95 2.76 19.29 2.76 19.29"/><path class="cls-40" d="M153.15 173.92s2.11 7.04 3.02 16.99c.92 9.95 2.76 19.29 2.76 19.29"/><path class="cls-57" d="M169.49 175.29s2.14 6.12 3.06 16.08c.92 9.95 1.22 16.99 1.22 16.99"/><path class="cls-40" d="M169.49 175.29s2.14 6.12 3.06 16.08c.92 9.95 1.22 16.99 1.22 16.99"/><path class="cls-54" d="M160.98 252.61s2.54 22.96 2.54 35.52 1.81 25.72.68 46.39c-1.14 20.67-2.39 28.15-3.75 45.32-1.37 17.16-2.9 32.46-2.9 32.46m18.22-1.53s2.45-11.63 3.52-25.87c1.07-14.24 2.6-29.55 2.6-44.55s1.39-26.49.54-43.02c-.85-16.53-2.47-36.17-3.19-44.76"/><path d="M161.51 180.24s2.4 12.77 4.95 34.24" style="stroke-dasharray:0 0 7.32 6.32;stroke-width:5.4px;stroke:#be3234;fill:none"/><path class="cls-56" d="M130.13 167.54s7.09-8.88 15.95-15.62c8.85-6.74 9.43-15.43 9.43-15.43l17.72.99s1.3 7.43 5.28 12.91c3.98 5.47 9.8 9.25 12.86 17.48 0 0-10.41 7.62-28.78 8.54-18.37.92-32.46-8.88-32.46-8.88Z"/><path class="cls-54" d="M130.13 167.54s7.09-8.88 15.95-15.62c8.85-6.74 9.43-15.43 9.43-15.43l17.72.99s1.3 7.43 5.28 12.91c3.98 5.47 9.8 9.25 12.86 17.48 0 0-10.41 7.62-28.78 8.54-18.37.92-32.46-8.88-32.46-8.88Z"/><path class="cls-61" d="M153.73 110.43s-9.06 8.27-8.6 20.67c.46 12.4 10.58 10.39 15.55 3.67h9.71l2.3 3.06s2.6.6 5.36.77c2.76.17 5.71-.46 6.3-9.49.59-9.03-.64-14.58-10.13-19.08l-17.15-1.75-3.34 2.14Z"/><path class="cls-54" d="M153.73 110.43s-9.06 8.27-8.6 20.67c.46 12.4 10.58 10.39 15.55 3.67h9.71l2.3 3.06s2.6.6 5.36.77c2.76.17 5.71-.46 6.3-9.49.59-9.03-.64-14.58-10.13-19.08l-17.15-1.75-3.34 2.14Z"/><path class="cls-58" d="M165.49 115.18c6.43-.1 12.09 1.84 12.25 6.12s1.07 9.65-1.38 13.78-5.08 9.34-10.88 9.19-6.67-3.69-8.69-7.66c-2.02-3.96-3.7-6.43-2.93-11.33s1.84-9.95 11.63-10.1Z"/><path class="cls-52" d="M165.49 115.18c6.43-.1 12.09 1.84 12.25 6.12s1.07 9.65-1.38 13.78-5.08 9.34-10.88 9.19-6.67-3.69-8.69-7.66c-2.02-3.96-3.7-6.43-2.93-11.33s1.84-9.95 11.63-10.1Z"/><path class="cls-56" d="M150.49 112.74s4.85-1.85 15.36-1.85 14.64 1.53 14.64 1.53.13-3.83 2.32-11.63c2.19-7.81 3.96-13.17 3.96-13.17s-6.02-5.36-20.92-4.75c-14.9.61-22.56 4.75-22.56 4.75s2.76 3.96 4.75 11.48c1.99 7.52 2.45 13.64 2.45 13.64Z"/><path class="cls-54" d="M150.49 112.74s4.85-1.85 15.36-1.85 14.64 1.53 14.64 1.53.13-3.83 2.32-11.63c2.19-7.81 3.96-13.17 3.96-13.17s-6.02-5.36-20.92-4.75c-14.9.61-22.56 4.75-22.56 4.75s2.76 3.96 4.75 11.48c1.99 7.52 2.45 13.64 2.45 13.64Zm-5.2-22.52s7.15-4.44 20.57-4.75c13.42-.31 19.16 5.2 19.16 5.2"/><g style="clip-path:url(#clippath-4)"><path class="cls-52" d="M148.5 102.32s5.62-1.99 17.35-2.14c11.74-.15 15.56 1.32 16.63 2.65m-32.46 7.15s6.57-1.38 14.92-1.38 14.85-.34 16 1.91m-20.28-24.56s2.06 5.58 1.75 13.69m11.94-13.38s.31 3.36-.61 13.93m-16.97 19.29s4.74-2.6 8.79 0m9.38 1.22s-.59-4.13-7.17-1.84c0 0 .31 5.36.46 8.73.15 3.37.33 4.44-1.02 4.44s-1.65-1.38-1.65-1.38c-1.34 1.13-2.26-.44-2.26-.44m5.14-3.67s1.42.82 1.81 2.55c.39 1.73-.16 2.08-.59 2.14-.43.06-1.5-.37-1.5-.37m.64-9.43s3.06-1.84 4.65.61m-15.47 0s2.9-2.55 5.82-.41m-2.71.54c.18 0 .33-.14.33-.3s-.15-.3-.33-.3-.33.14-.33.3.15.3.33.3Zm-6.17 18.5s3.7 6.82 10 6.21c6.29-.61 9.42-3.67 9.42-3.67m-24.45 5.37s4.84 5.8 12.93 5.34c8.1-.46 15.19-4.12 15.19-4.12m-29.68.44s5.69 6.43 14.83 5.97c9.14-.46 16.07-4.59 16.07-4.59m-45.62 11.94s12.33 10.39 28.63 9.64c16.3-.75 28.2-7.48 28.2-7.48m-23.43 87.71s1.2-.15 9.94-10.41 27.28-34.75 27.28-34.75 1.35.19-.79 8.59-7.81 28.71-9.49 31.61-10.26 5.55-16.53 6.19c-6.28.64-8.57.64-10.39-1.22Zm-5.53-13.47.15-12.55h13.01l-.92 12.56h-12.25Z"/><path class="cls-56" d="M119.68 430.54s-.73-12.95 1.87-23.1c0 0 16.07 2.6 43.54 2.3 18.21-.2 30.56-.77 32.85-4.9 0 0 .18 3.53.18 10.17s-1.29 15.71-4.04 16.48c-2.76.77-28.73 1.57-41.79 1.36-18.68-.31-32.61-2.31-32.61-2.31Z"/><path class="cls-54" d="M119.68 430.54s-.73-12.95 1.87-23.1c0 0 16.07 2.6 43.54 2.3 18.21-.2 30.56-.77 32.85-4.9 0 0 .18 3.53.18 10.17s-1.29 15.71-4.04 16.48c-2.76.77-28.73 1.57-41.79 1.36-18.68-.31-32.61-2.31-32.61-2.31Z"/><path class="cls-62" d="M655.08 224.15s-1.94 33.63-3.38 69.18c-1.44 35.55-3.67 53.25-3.67 53.25l6.09 3.54s-.34 4.81-2.58 8.68-2.72 9.66-1.28 13.2c0 0-.38 9.76-1.61 13.52s0 1.77 0 1.77 4.28 3.05 4.28 8.84.35 14.48 1.54 21.56c1.18 7.08 3.51 12.22 6.73 14.16l13.19.49 7.4-55.51 2.1-107.8-3.07-35.07-25.74-9.81Z"/><path class="cls-27" d="M655.08 224.15s-1.94 33.63-3.38 69.18c-1.44 35.55-3.67 53.25-3.67 53.25l6.09 3.54s-.34 4.81-2.58 8.68-2.72 9.66-1.28 13.2c0 0-.38 9.76-1.61 13.52s0 1.77 0 1.77 4.28 3.05 4.28 8.84.35 14.48 1.54 21.56c1.18 7.08 3.51 12.22 6.73 14.16l13.19.49 7.4-55.51 2.1-107.8-3.07-35.07-25.74-9.81Z"/><path class="cls-61" d="m658.94 205.32-6.44 9.65s-1.26 5.47 1.96 13.84c3.22 8.37 5.09 11.78 12.2 12.57 7.11.79 12.23-3.4 12.23-3.4l.36 5.01s-3.36 5.77-2.26 13.34c1.1 7.56-2.92 9.17-2.6 16.41.32 7.24 1.61 8.87 1.61 8.87s-1.45 8.35-1.77 37.95c-.32 29.6 1.13 40.54 1.13 40.54s-1.29 24.78-2.57 39.26c-1.29 14.48-3.16 16.73-.62 17.7 0 0-2.92 2.9-.35 4.83 0 0-6.76 6.15-.97 9.65 5.79 3.51 87.52.49 87.52.49l-5.63-78.52-41.97-64.19-1.48-96.29-27.21-18.3-23.15 30.6Z"/><path class="cls-23" d="m658.94 205.32-6.44 9.65s-1.26 5.47 1.96 13.84c3.22 8.37 5.09 11.78 12.2 12.57 7.11.79 12.23-3.4 12.23-3.4l.36 5.01s-3.36 5.77-2.26 13.34c1.1 7.56-2.92 9.17-2.6 16.41.32 7.24 1.61 8.87 1.61 8.87s-1.45 8.35-1.77 37.95c-.32 29.6 1.13 40.54 1.13 40.54s-1.29 24.78-2.57 39.26c-1.29 14.48-3.16 16.73-.62 17.7 0 0-2.92 2.9-.35 4.83 0 0-6.76 6.15-.97 9.65 5.79 3.51 87.52.49 87.52.49l-5.63-78.52-41.97-64.19-1.48-96.29-27.21-18.3-23.15 30.6Z"/></g><path class="cls-64" d="M122.78 380.03s7.12-48.62 12.25-93.19c5.13-44.58 8.18-74.25 17.58-77.94l2.01 7.63s3.67-10.98-10.41 63.09c-14.08 74.07-21.97 115.42-21.97 115.42l.53-15Z"/><path class="cls-53" d="M122.78 380.03s7.12-48.62 12.25-93.19c5.13-44.58 8.18-74.25 17.58-77.94l2.01 7.63s3.67-10.98-10.41 63.09c-14.08 74.07-21.97 115.42-21.97 115.42l.53-15Z"/><path class="cls-62" d="M678.57 238.47s5.84.97 12.9.97v5.47s-9.39-.34-13.54-1.93c0 0-.64-1.93.64-4.51Z"/><path class="cls-23" d="M678.57 238.47s5.84.97 12.9.97v5.47s-9.39-.34-13.54-1.93c0 0-.64-1.93.64-4.51Z"/><path class="cls-58" d="M150.8 213.79s1.79-5.22 4.8-8.59 5.4-5.17 6.43-6.72c0 0 1.71.75.45 2.43-1.26 1.68-3.43 4.11-4.94 7.26 0 0 3.37.72 7.66.72s7.11-1.87 10.07-3.01c2.97-1.14 3.4-.69 3.71 0s-.43 1.31-.43 1.31.94.35 0 1.71c0 0 .74 1.05-.18 2.27 0 0 .92 1.38-.92 2.45-1.84 1.07-5.66 4.17-10.39 5.07-4.74.9-13.44 2.11-17.9 2.28 0 0-.02-2.28 1.66-7.18Z"/><path class="cls-54" d="M150.8 213.79s1.79-5.22 4.8-8.59 5.4-5.17 6.43-6.72c0 0 1.71.75.45 2.43-1.26 1.68-3.43 4.11-4.94 7.26 0 0 3.37.72 7.66.72s7.11-1.87 10.07-3.01c2.97-1.14 3.4-.69 3.71 0s-.43 1.31-.43 1.31.94.35 0 1.71c0 0 .74 1.05-.18 2.27 0 0 .92 1.38-.92 2.45-1.84 1.07-5.66 4.17-10.39 5.07-4.74.9-13.44 2.11-17.9 2.28 0 0-.02-2.28 1.66-7.18Z"/><path class="cls-59" d="M206.83 209.66s-.46-6.58 1.07-11.19c1.53-4.61 5.05-9.05 5.36-12.72s.92-3.04 1.53-3.04 1.38 1.5 1.38 3.04c0 0 1.23.46.54 3.98 0 0 1.43.86.75 3.52-.68 2.66-1.75 3.67-1.75 3.67s1.53-.34 1.68 1.55-2.6 8.4-9.95 15.29l-.61-4.11Z"/><path class="cls-54" d="M206.83 209.66s-.46-6.58 1.07-11.19c1.53-4.61 5.05-9.05 5.36-12.72s.92-3.04 1.53-3.04 1.38 1.5 1.38 3.04c0 0 1.23.46.54 3.98 0 0 1.43.86.75 3.52-.68 2.66-1.75 3.67-1.75 3.67s1.53-.34 1.68 1.55-2.6 8.4-9.95 15.29l-.61-4.11Zm5.37-131.67-1.52 349" style="clip-path:url(#clippath-5)"/><path class="cls-44" d="M276.33 334.49s7.77 13.33 21.07 11.62c13.31-1.7 11.51-11.87 27.1-11.87s10.1 13.89 27.76 13.89 8.79-12.32 25.8-13.36c17.01-1.04 17.29 12.71 32.32 10.04 15.03-2.67 21.31-12.35 31.78-12.35s15 9.28 24.64 10.81"/><path class="cls-58" d="M638.99 128.26s-4.34 6.02-.32 13.39c0 0-.16 13.19 2.74 24.12 2.9 10.92 4.67 15.43 7.88 23.95 3.22 8.53 5.47 12.23 5.47 12.23s.8-1.77 1.45-4.83c.64-3.06 3.54-8.69 4.18-14.8.64-6.11 1.13-12.31 2.9-16.78 1.77-4.46 1.61-10.41 1.61-10.41s1.45-7.65 1.29-13.48c-.16-5.83 1.32-5.33.58-9.53 0 0 1.63-1.38 1.44-3.6-.02-.19-.05-.39-.09-.6-.57-2.56 4.67-3.33 3.7-10.43-.97-7.1-2.25-11.44-5.31-14.5-3.06-3.06-6.09-4.5-12.06-4.83-5.96-.32-10.15 2.9-12.4 5.31-2.25 2.41-7.54 8.21-6.6 13.84.94 5.63.97 9.33 3.54 10.94Z"/><path class="cls-3" d="M638.99 128.26s-4.34 6.02-.32 13.39c0 0-.16 13.19 2.74 24.12 2.9 10.92 4.67 15.43 7.88 23.95 3.22 8.53 5.47 12.23 5.47 12.23s.8-1.77 1.45-4.83c.64-3.06 3.54-8.69 4.18-14.8.64-6.11 1.13-12.31 2.9-16.78 1.77-4.46 1.61-10.41 1.61-10.41s1.45-7.65 1.29-13.48c-.16-5.83 1.32-5.33.58-9.53 0 0 1.63-1.38 1.44-3.6-.02-.19-.05-.39-.09-.6-.57-2.56 4.67-3.33 3.7-10.43-.97-7.1-2.25-11.44-5.31-14.5-3.06-3.06-6.09-4.5-12.06-4.83-5.96-.32-10.15 2.9-12.4 5.31-2.25 2.41-7.54 8.21-6.6 13.84.94 5.63.97 9.33 3.54 10.94Z"/><g style="clip-path:url(#clippath-6)"><path class="cls-62" d="M687.74 130.19s-9.98 4.65-4.02 16.09c0 0-6.19 4.33-11.22 20.76s-14.82 36.84-14.82 36.84l-4.05.25s1.44 6.02 6.11 3.29c4.67-2.73 9.65-4.41 14.8-9.33s14.32-16.23 14.32-16.23-1.72 14.14.44 35.22 1.49 43.76 1.33 62.59c-.16 18.82-.47 54.38.16 57.6 0 0 3.54.86 5.79.11 0 0 8.1 2.46 17.4-2.04l1.58 27.67s2.41 2.32 9.57.03l34.09-8.1 14.74-21.55-23.81-168.4s-18.58-24.75-26.87-31.1c-8.28-6.34-17.96-5.79-17.96-5.79l-17.6 2.09Z"/><path class="cls-27" d="M687.74 130.19s-9.98 4.65-4.02 16.09c0 0-6.19 4.33-11.22 20.76s-14.82 36.84-14.82 36.84l-4.05.25s1.44 6.02 6.11 3.29c4.67-2.73 9.65-4.41 14.8-9.33s14.32-16.23 14.32-16.23-1.72 14.14.44 35.22 1.49 43.76 1.33 62.59c-.16 18.82-.47 54.38.16 57.6 0 0 3.54.86 5.79.11 0 0 8.1 2.46 17.4-2.04l1.58 27.67s2.41 2.32 9.57.03l34.09-8.1 14.74-21.55-23.81-168.4s-18.58-24.75-26.87-31.1c-8.28-6.34-17.96-5.79-17.96-5.79l-17.6 2.09Z"/></g><path class="cls-58" d="M686.29 125.54s-.97.3-1.45-4.04-.3-9.81 1.62-13.19c0 0-.81-2.41 1.44-4.18 2.25-1.77 2.74-.45 2.74-.45s.32-2.77 4.02-3.25c0 0 .48-2.23 2.9-2.23s4.02 1.11 4.02 1.11.16-2.09 4.18-1.29c4.02.8 4.83 2.9 4.83 2.9s2.31-1.45 3.41.8.51 3.22.51 3.22 1.23 0 3.32.97l.99 19.47s-.78 2.57-3.22 3.86c0 0-.19 2.9-2.76 5.15 0 0 1.1 2.41-1.29 4.18 0 0 1.93 4.5-1.77 6.76 0 0 2.41 2.53-.48 5.06 0 0 .92 5.24-3.96 6.69 0 0 1.87 3.86-2.63 6.11 0 0 1.61 4.02-2.25 6.28 0 0 1.61 3.06-1.93 5.31 0 0 .8-2.25-.48-3.86-1.29-1.61-.64-3.7-.64-3.7s-5.66-2.57-4.18-8.37c0 0-3.97-.5-3.35-4.02 0 0-4.85-3.06-1.48-7.4 0 0-2.23-4.83-.64-8.69 0 0 .32-2.57-.8-6.44-1.13-3.86-.64-6.74-.64-6.74Z"/><path class="cls-3" d="M686.29 125.54s-.97.3-1.45-4.04-.3-9.81 1.62-13.19c0 0-.81-2.41 1.44-4.18 2.25-1.77 2.74-.45 2.74-.45s.32-2.77 4.02-3.25c0 0 .48-2.23 2.9-2.23s4.02 1.11 4.02 1.11.16-2.09 4.18-1.29c4.02.8 4.83 2.9 4.83 2.9s2.31-1.45 3.41.8.51 3.22.51 3.22 1.23 0 3.32.97l.99 19.47s-.78 2.57-3.22 3.86c0 0-.19 2.9-2.76 5.15 0 0 1.1 2.41-1.29 4.18 0 0 1.93 4.5-1.77 6.76 0 0 2.41 2.53-.48 5.06 0 0 .92 5.24-3.96 6.69 0 0 1.87 3.86-2.63 6.11 0 0 1.61 4.02-2.25 6.28 0 0 1.61 3.06-1.93 5.31 0 0 .8-2.25-.48-3.86-1.29-1.61-.64-3.7-.64-3.7s-5.66-2.57-4.18-8.37c0 0-3.97-.5-3.35-4.02 0 0-4.85-3.06-1.48-7.4 0 0-2.23-4.83-.64-8.69 0 0 .32-2.57-.8-6.44-1.13-3.86-.64-6.74-.64-6.74Z"/><path class="cls-59" d="M702.54 218.2s-1.29-4.02-4.51-6.27c-3.22-2.25-3.86-2.78-4.83-4.33-.97-1.55-1.45-1.79-1.85-1.47-.4.32-1.23 1.4.43 3.4 1.66 1.99 5.36 3.99 7.13 6.66 0 0-2.73 2.33-7.72 1.77s-7.08-1.65-9.9-2.96c-2.82-1.31-3.67-1.27-3.99-.97-.32.3-.39 1.11-.39 1.11s-.6-.16-1.33-.4c-.72-.24-1.23.16-1.21 1.13.03.97 2.33 2.33 2.33 2.33s-.72.64-.81 1.53c-.08.88.48.72 1.77 1.13 1.29.4 1.93 1.69 1.93 1.69s-.39 1.32 1.05 2.11c1.43.79 3.73 2.54 6.19 2.88 2.47.34 4.4.72 6.27 1.29 1.88.56 6.03 1.57 10.62.54l-1.21-11.16Z"/><path class="cls-2" d="M702.54 218.2s-1.29-4.02-4.51-6.27c-3.22-2.25-3.86-2.78-4.83-4.33-.97-1.55-1.45-1.79-1.85-1.47-.4.32-1.23 1.4.43 3.4 1.66 1.99 5.36 3.99 7.13 6.66 0 0-2.73 2.33-7.72 1.77s-7.08-1.65-9.9-2.96c-2.82-1.31-3.67-1.27-3.99-.97-.32.3-.39 1.11-.39 1.11s-.6-.16-1.33-.4c-.72-.24-1.23.16-1.21 1.13.03.97 2.33 2.33 2.33 2.33s-.72.64-.81 1.53c-.08.88.48.72 1.77 1.13 1.29.4 1.93 1.69 1.93 1.69s-.39 1.32 1.05 2.11c1.43.79 3.73 2.54 6.19 2.88 2.47.34 4.4.72 6.27 1.29 1.88.56 6.03 1.57 10.62.54l-1.21-11.16Z"/><path class="cls-40" d="M692 220.61s-3.89.13-7.29-1.29c-3.41-1.42-7.67-4.1-7.67-4.1m14.56 7.88s-4.32-.31-8.18-1.92c-3.86-1.62-7.03-3.22-7.03-3.22m15.63 8.2s-4.7-.53-7.31-1.51c-2.62-.98-5.42-2.57-5.42-2.57"/><path class="cls-60" d="m608.9 237.34-2.71-40.54 27.01-.48 2.89 35.23-18.18 7.4-9.01-1.61z"/><path class="cls-24" d="m608.9 237.34-2.71-40.54 27.01-.48 2.89 35.23-18.18 7.4-9.01-1.61z"/><path class="cls-59" d="M655.43 205.44s-3.11-2.09-6.44-3.31c-3.32-1.23-5.68-2.11-7.03-3.32-1.34-1.21-1.93-.76-2.41-.42-.48.34.05 1.55 2.04 2.92 1.98 1.37 5.26 2.4 6.49 2.9 1.23.5 1.77 1.24 1.77 1.24s-1.93 1-5.23 1.09c-3.3.1-7.07.06-9.85-.72-2.78-.79-5.76-2.74-6-1.37-.24 1.37.88 1.32 3.22 2.19 2.33.87 5.15 2.19 8.45 2.25 0 0-4.05.3-6.44-.18-2.39-.48-4.66-1.21-5.83-1.37-1.17-.16-1.62 1.01-.85 1.61.77.6 3.11.97 5.9 1.61 2.79.64 6.33 1.13 6.33 1.13s-3.97.64-5.68.16c-1.72-.48-5.18-1.45-5.42-.56-.24.89.13.93 1.56 1.31s3.16 1.34 5.47 1.51c2.31.16 4 .57 4 .57s-1.77.55-3.78.55-5.31-1.68-5.31-.96.56 1.39 2.09 2.03c1.53.64 3.86 1.17 6.22 1.17h6.57c3.08 0 8.1-.53 10.81-.85 2.71-.32 3.67-.26 3.67-.26l-1.37-9.72-2.95-1.19Z"/><path d="M655.43 205.44s-3.11-2.09-6.44-3.31c-3.32-1.23-5.68-2.11-7.03-3.32-1.34-1.21-1.93-.76-2.41-.42-.48.34.05 1.55 2.04 2.92 1.98 1.37 5.26 2.4 6.49 2.9 1.23.5 1.77 1.24 1.77 1.24s-1.93 1-5.23 1.09c-3.3.1-7.07.06-9.85-.72-2.78-.79-5.76-2.74-6-1.37-.24 1.37.88 1.32 3.22 2.19 2.33.87 5.15 2.19 8.45 2.25 0 0-4.05.3-6.44-.18-2.39-.48-4.66-1.21-5.83-1.37-1.17-.16-1.62 1.01-.85 1.61.77.6 3.11.97 5.9 1.61 2.79.64 6.33 1.13 6.33 1.13s-3.97.64-5.68.16c-1.72-.48-5.18-1.45-5.42-.56-.24.89.13.93 1.56 1.31s3.16 1.34 5.47 1.51c2.31.16 4 .57 4 .57s-1.77.55-3.78.55-5.31-1.68-5.31-.96.56 1.39 2.09 2.03c1.53.64 3.86 1.17 6.22 1.17h6.57c3.08 0 8.1-.53 10.81-.85 2.71-.32 3.67-.26 3.67-.26l-1.37-9.72-2.95-1.19Z" style="stroke-linejoin:bevel;stroke:#3c1028;stroke-width:.85px;fill:none"/><path class="cls-58" d="M591.52 136.69s-5.15-2.83-5.31-9.17c0 0-5.02-7.95-.57-14.55 0 0 1.05-8.17 7-9.96 0 0 3.51-4.84 11.74-4.36 8.23.48 12.4 4.5 12.4 4.5s5.14 2.09 4.82 9.98c0 0 1.3.14 1.3 5.47s-.99 7.21-3.56 8.91c0 0 2.27 4.6-2.57 7.98l-.81 4.18s1.72 6.49 1.13 14.84c-.64 9.01-7.72 14.39-9.33 24.78 0 0-3.22-4.83-4.42-16.71 0 0-1.06 4.79-2.66 17.03 0 0-2.81-6.44-6.11-12.55-3.31-6.11-6.76-14.16-2.57-26.74l-.48-3.63Z"/><path class="cls-3" d="M591.52 136.69s-5.15-2.83-5.31-9.17c0 0-5.02-7.95-.57-14.55 0 0 1.05-8.17 7-9.96 0 0 3.51-4.84 11.74-4.36 8.23.48 12.4 4.5 12.4 4.5s5.14 2.09 4.82 9.98c0 0 1.3.14 1.3 5.47s-.99 7.21-3.56 8.91c0 0 2.27 4.6-2.57 7.98l-.81 4.18s1.72 6.49 1.13 14.84c-.64 9.01-7.72 14.39-9.33 24.78 0 0-3.22-4.83-4.42-16.71 0 0-1.06 4.79-2.66 17.03 0 0-2.81-6.44-6.11-12.55-3.31-6.11-6.76-14.16-2.57-26.74l-.48-3.63Z"/><path class="cls-61" d="M104.71 411.38s.61-22.79.31-35.94c-.31-13.15 3.98-53.89 3.98-53.89s7.04-11.01-1.23-19.9c0 0-.31-22.36-6.74-32.46l-18.98 2.14-23.24-2.72s-7.68 8.23-11.05 23.85c-3.37 15.62-2.14 22.35 1.22 24.8 3.37 2.45 5.23 1.53 5.23 1.53l1.2 26.03s-1.84 2.45-3.67 24.8c-1.84 22.35-.92 49.91-.92 49.91l31.54.02 22.35-8.17Z"/><path class="cls-52" d="M104.71 411.38s.61-22.79.31-35.94c-.31-13.15 3.98-53.89 3.98-53.89s7.04-11.01-1.23-19.9c0 0-.31-22.36-6.74-32.46l-18.98 2.14-23.24-2.72s-7.68 8.23-11.05 23.85c-3.37 15.62-2.14 22.35 1.22 24.8 3.37 2.45 5.23 1.53 5.23 1.53l1.2 26.03s-1.84 2.45-3.67 24.8c-1.84 22.35-.92 49.91-.92 49.91l31.54.02 22.35-8.17Z"/><path class="cls-62" d="M67.36 227.09s-4.29 4.13-1.99 9.03c0 0-2.14-.92-2.45 1.84-.31 2.76 1.38 3.06 1.38 3.06s-2.5 4.59.74 5.66c0 0-.43 2.14 1.56 3.37s3.06.46 3.06.46 2.2 2.3 5.66.31l12.71-1.22s.61 1.53 2.6 1.38c1.99-.15 3.22-2.76 2.76-4.44 0 0 3.67 1.07 5.05-1.99s-.15-3.83-.15-3.83 1.84-3.03-.92-3.96c0 0 1.99-4-.92-5.53 0 0 1.38-1.68 0-4.13s-8.27-4.75-8.27-4.75l-16.99 1.68-3.83 3.06Z"/><path class="cls-54" d="M67.36 227.09s-4.29 4.13-1.99 9.03c0 0-2.14-.92-2.45 1.84-.31 2.76 1.38 3.06 1.38 3.06s-2.5 4.59.74 5.66c0 0-.43 2.14 1.56 3.37s3.06.46 3.06.46 2.2 2.3 5.66.31l12.71-1.22s.61 1.53 2.6 1.38c1.99-.15 3.22-2.76 2.76-4.44 0 0 3.67 1.07 5.05-1.99s-.15-3.83-.15-3.83 1.84-3.03-.92-3.96c0 0 1.99-4-.92-5.53 0 0 1.38-1.68 0-4.13s-8.27-4.75-8.27-4.75l-16.99 1.68-3.83 3.06Z"/><path class="cls-58" d="M70.27 259.09s4.29-1.84 4.75-9.64c0 0-.31-1.38-.77-4.29 0 0-3.06.77-3.52-2.45-.46-3.22 2.08-4.13 2.08-4.13s-.12-2.14 1.31-4.13c1.44-1.99.89-3.52 2.42-3.98 1.53-.46 1.84-2.76 4.75-2.6 2.91.15 6.12 1.22 7.96 2.91 1.84 1.68 2.76 3.37 3.06 5.2.31 1.84.53 3.06.53 3.06s2.38-.31 1.46 2.3c-.93 2.6-3.22 4.9-3.22 4.9l-2.6 3.22s-1.07 6.28 3.52 9.49l-2.45 6.12-11.48.78-7.35-2.93-.46-3.83Z"/><path class="cls-54" d="M70.27 259.09s4.29-1.84 4.75-9.64c0 0-.31-1.38-.77-4.29 0 0-3.06.77-3.52-2.45-.46-3.22 2.08-4.13 2.08-4.13s-.12-2.14 1.31-4.13c1.44-1.99.89-3.52 2.42-3.98 1.53-.46 1.84-2.76 4.75-2.6 2.91.15 6.12 1.22 7.96 2.91 1.84 1.68 2.76 3.37 3.06 5.2.31 1.84.53 3.06.53 3.06s2.38-.31 1.46 2.3c-.93 2.6-3.22 4.9-3.22 4.9l-2.6 3.22s-1.07 6.28 3.52 9.49l-2.45 6.12-11.48.78-7.35-2.93-.46-3.83Z"/><path class="cls-57" d="M65.68 228.16s18.19-4.61 30.93 0c0 0 1.68-3.52 1.22-8.57-.46-5.05-1.94-13.63-14.21-15.16-12.27-1.53-19.95 6.46-19.93 13.03.03 6.57.77 8.71 1.99 10.7Z"/><path class="cls-54" d="M65.68 228.16s18.19-4.61 30.93 0c0 0 1.68-3.52 1.22-8.57-.46-5.05-1.94-13.63-14.21-15.16-12.27-1.53-19.95 6.46-19.93 13.03.03 6.57.77 8.71 1.99 10.7Z"/><path class="cls-59" d="M589.14 219.97s.46-8.53 3.03-14.16c2.57-5.63 4.83-7.58 6.76-9.49 1.93-1.91 3.56-3.24 4.43-2.41.88.82-1.06 3.55-1.06 3.55s3.43-2.27 4.21-1.13c.78 1.13-2.6 3.08-5.01 4.45-2.41 1.36-4.18 4.4-4.83 7.62 0 0 2.9 0 6.11-.32 3.22-.33 3.86-.29 3.86.82s-.64 1.27-.64 1.27 1.62.32 1.21 1.45c-.41 1.14-2.11 2.41-2.98 5.15-.88 2.74-2.02 6.11-4.02 9.33-2 3.22-10.86 3.07-10.86 3.07l-.21-9.19Z"/><path class="cls-2" d="M589.14 219.97s.46-8.53 3.03-14.16c2.57-5.63 4.83-7.58 6.76-9.49 1.93-1.91 3.56-3.24 4.43-2.41.88.82-1.06 3.55-1.06 3.55s3.43-2.27 4.21-1.13c.78 1.13-2.6 3.08-5.01 4.45-2.41 1.36-4.18 4.4-4.83 7.62 0 0 2.9 0 6.11-.32 3.22-.33 3.86-.29 3.86.82s-.64 1.27-.64 1.27 1.62.32 1.21 1.45c-.41 1.14-2.11 2.41-2.98 5.15-.88 2.74-2.02 6.11-4.02 9.33-2 3.22-10.86 3.07-10.86 3.07l-.21-9.19Z"/><path class="cls-59" d="M627.08 237.66s-2.57-1.85-3.7-3.54c-1.13-1.69-4.61-3.7-7.54-3.86-2.92-.16-5.34-.64-7.11-1.13-1.77-.48-3.02-.13-1.58.97 1.43 1.09 4.28 2.34 6.67 2.34h2.87l-1.96 2.68s-2.57.58-4.05.58-3.6-.71-3.67.26c-.06.97.08 1.33.85 1.61 0 0-1.08 1.16 0 2.25 0 0-.59.77-.53 1.74.06.97 1.34 1.59 3.05 2 0 0 .04 1.35 1.33 1.93 1.29.58 4.01 1.78 9.44 1.42 5.43-.37 6.67-.84 6.67-.84l-.72-8.4Z"/><path class="cls-2" d="M627.08 237.66s-2.57-1.85-3.7-3.54c-1.13-1.69-4.61-3.7-7.54-3.86-2.92-.16-5.34-.64-7.11-1.13-1.77-.48-3.02-.13-1.58.97 1.43 1.09 4.28 2.34 6.67 2.34h2.87l-1.96 2.68s-2.57.58-4.05.58-3.6-.71-3.67.26c-.06.97.08 1.33.85 1.61 0 0-1.08 1.16 0 2.25 0 0-.59.77-.53 1.74.06.97 1.34 1.59 3.05 2 0 0 .04 1.35 1.33 1.93 1.29.58 4.01 1.78 9.44 1.42 5.43-.37 6.67-.84 6.67-.84l-.72-8.4Z"/><path class="cls-59" d="M562.65 231.55s1.18 2.17.75 5.23c-.43 3.06-2.04 5.22-2.04 5.22s-3.73.82-5.68 1.14-2.92 1.14-5.58 0c-2.65-1.14-4.45-1.56-5.87-2.07-1.42-.51-1.07-.86-1.07-1.44s1.04-1.03 1.04-1.03-2.5-1.4-.64-3.33c0 0-1.29-1.56.13-3.11 0 0-.91-.91-.87-1.67.04-.76.66-1.68 2.6-1.22 1.94.46 4.45 1.07 8.25 1.18 0 0-.59-1.08-2.8-1.61-2.22-.53-4.29-1.4-4.34-3.4 0 0 2.87.81 5.54 1.19 2.67.39 4.41.64 6.6 2.54 2.18 1.9 4.01 2.38 4.01 2.38Z"/><path class="cls-2" d="M562.65 231.55s1.18 2.17.75 5.23c-.43 3.06-2.04 5.22-2.04 5.22s-3.73.82-5.68 1.14-2.92 1.14-5.58 0c-2.65-1.14-4.45-1.56-5.87-2.07-1.42-.51-1.07-.86-1.07-1.44s1.04-1.03 1.04-1.03-2.5-1.4-.64-3.33c0 0-1.29-1.56.13-3.11 0 0-.91-.91-.87-1.67.04-.76.66-1.68 2.6-1.22 1.94.46 4.45 1.07 8.25 1.18 0 0-.59-1.08-2.8-1.61-2.22-.53-4.29-1.4-4.34-3.4 0 0 2.87.81 5.54 1.19 2.67.39 4.41.64 6.6 2.54 2.18 1.9 4.01 2.38 4.01 2.38Z"/><path class="cls-59" d="M524.47 209.2s0-3.68.85-6.76c.85-3.07 1.61-4.37 4.42-6.05 2.82-1.69 5.39-2.41 6.76-3.78 1.37-1.37 2.16-1.93 2.16-.72v2.09s.7-.37 1.02.53c.32.9.13 2.14.13 2.14s.32.54.32 1.35-.13 1.92-.13 1.92.7.09.7 1.23-.57 2.15-.57 2.15.77.54.52 1.63c-.26 1.09-1.22 2.95-2.96 4.74-1.74 1.78-4.44 3.23-6.05 3.47-1.61.24-6.59-.98-7.17-3.94Z"/><path class="cls-2" d="M524.47 209.2s0-3.68.85-6.76c.85-3.07 1.61-4.37 4.42-6.05 2.82-1.69 5.39-2.41 6.76-3.78 1.37-1.37 2.16-1.93 2.16-.72v2.09s.7-.37 1.02.53c.32.9.13 2.14.13 2.14s.32.54.32 1.35-.13 1.92-.13 1.92.7.09.7 1.23-.57 2.15-.57 2.15.77.54.52 1.63c-.26 1.09-1.22 2.95-2.96 4.74-1.74 1.78-4.44 3.23-6.05 3.47-1.61.24-6.59-.98-7.17-3.94Z"/><path class="cls-64" d="M482.48 302.76s-5.1-.85-8.22-7.94c-3.12-7.09-8.36-21.55-7.8-30.62l4.25-7.09s2.7-1.28 6.24.57c0 0 1.28 2.13 3.26 11.06 1.98 8.93 3.12 15.59 3.12 21.26s-.85 12.76-.85 12.76Z"/><path class="cls-39" d="M482.48 302.76s-5.1-.85-8.22-7.94c-3.12-7.09-8.36-21.55-7.8-30.62l4.25-7.09s2.7-1.28 6.24.57c0 0 1.28 2.13 3.26 11.06 1.98 8.93 3.12 15.59 3.12 21.26s-.85 12.76-.85 12.76Z"/><path class="cls-40" d="M469.4 174.35c.09 0 .16-.07.16-.16s-.07-.16-.16-.16-.16.07-.16.16.07.16.16.16Zm9.01.66c.09 0 .16-.07.16-.16s-.07-.16-.16-.16-.16.07-.16.16.07.16.16.16Z"/><path class="cls-38" d="M315.54 50.7v-9.07s-2.69.71-3.75 2.98m8.01 6.1v-9.72s1.42-.65 2.98 0 1.66 2.92.19 3.48c-1.47.57-2.89 0-2.89 0m-12.33 6.66v-9.78s2.55.99 3.54 3.26v5.67"/><path class="cls-40" d="M475.42 174.04s-.34 1.22.11 4.01.49 3.83-.12 3.93c-.62.1-2.26-.87-2.54.49"/><path class="cls-41" d="M415.22 189.11s-2.58 3.69-3.6 6.29c-1.02 2.61-.74 3.04-2.61 5.44-1.87 2.4-3 3.52-2.44 4.2.57.68 1.92-.34 3.06-1.87 1.14-1.53 2.72-3.37 3.46-5.31.74-1.94 1.52-3.39 2.53-3.12 1.01.27.73 2.76-.83 5.71s-6.1 7.53-9.22 9.98c-3.12 2.45-3.6 3.46-3.31 4.08.28.62 1.13.79 1.13.79s-1.79.96-1.22 1.87c.57.91 1.73.27 1.73.27s-.17 1.14 1.53.72c1.7-.42 2.89-1.31 2.89-1.31s.96.58 3.8-.57c2.83-1.15 7.23-3.19 9.41-5.12 2.18-1.93 4.45-3.81 4.73-7.38.28-3.57-3.05-9.07-4.5-10.99-1.45-1.93-5.84-4.93-6.55-3.69Zm2.41 12.7s-1.78 3.29-5.22 6.35c-3.44 3.06-7.36 6.18-9.11 6.92m-50.26-34.76s.54-.4 4.42-3.29 8.45-7.62 10.21-10.64m-11.57 15.69s4.37-2.81 6.75-5.73c2.38-2.92 5.02-6.58 6.58-8.73m-10.55 16.1s4.14-3.18 6.29-6.46c2.15-3.29 3.99-5.81 5.1-7.19m49.05 34.74s-7.26 8.17-15.71 12.64m16.69-9.53s-7.65 6.92-12.04 9.02"/><path class="cls-44" d="M336.95 189.92s.85 3.1 3.54 5.37 4.11 1.84 4.11 1.84"/><path class="cls-37" d="M535.21 257.6h23.33"/><path d="M165.49 115.18c6.43-.1 12.09 1.84 12.25 6.12s1.07 9.65-1.38 13.78-5.08 9.34-10.88 9.19-6.67-3.69-8.69-7.66c-2.02-3.96-3.7-6.43-2.93-11.33s1.84-9.95 11.63-10.1Z" style="stroke-width:1.08px;stroke:#90551d;fill:none"/><path class="cls-54" d="M149.26 104.61s5.31-2.3 16.59-2.3 16.02 2.3 16.02 2.3"/><path class="cls-40" d="M148.5 102.32s5.62-1.99 17.35-2.14c11.74-.15 15.56 1.32 16.63 2.65m-32.46 7.15s6.57-1.38 14.92-1.38 14.85-.34 16 1.91m-20.28-24.56s2.06 5.58 1.75 13.69m11.94-13.38s.31 3.36-.61 13.93"/><path class="cls-54" d="M164.16 135.81s4.31-1.04 5.84 0m-5.97 3.61s3.08-2.51 6.27 0m1.34-17.27c.09 0 .15-.08.15-.17s-.07-.17-.15-.17-.15.08-.15.17.07.17.15.17Zm-14.85-2.7s4.74-2.6 8.79 0m9.38 1.22s-.59-4.13-7.17-1.84c0 0 .31 5.36.46 8.73.15 3.37.33 4.44-1.02 4.44s-1.65-1.38-1.65-1.38c-1.34 1.13-2.26-.44-2.26-.44m5.14-3.67s1.42.82 1.81 2.55c.39 1.73-.16 2.08-.59 2.14-.43.06-1.5-.37-1.5-.37m.64-9.43s3.06-1.84 4.65.61m-15.47 0s2.9-2.55 5.82-.41m-2.71.54c.18 0 .33-.14.33-.3s-.15-.3-.33-.3-.33.14-.33.3.15.3.33.3Z"/><g style="clip-path:url(#clippath-7)"><path class="cls-40" d="M154.96 140.66s3.7 6.82 10 6.21c6.29-.61 9.42-3.67 9.42-3.67m-24.45 5.37s4.84 5.8 12.93 5.34c8.1-.46 15.19-4.12 15.19-4.12m-29.68.44s5.69 6.43 14.83 5.97c9.14-.46 16.07-4.59 16.07-4.59m-45.62 11.94s12.33 10.39 28.63 9.64c16.3-.75 28.2-7.48 28.2-7.48m-28.96 74.23.15-12.55h13.01l-.92 12.56h-12.25Zm-56.8 171.42s.61-22.79.31-35.94c-.31-13.15 3.98-53.89 3.98-53.89s7.04-11.01-1.23-19.9c0 0-.31-22.36-6.74-32.46l-18.98 2.14-23.24-2.72s-7.68 8.23-11.05 23.85c-3.37 15.62-2.14 22.35 1.22 24.8 3.37 2.45 5.23 1.53 5.23 1.53l1.2 26.03s-1.84 2.45-3.67 24.8c-1.84 22.35-.92 49.91-.92 49.91l31.54.02 22.35-8.17Z"/><path class="cls-39" d="m212.2 78-1.52 349"/><path class="cls-56" d="M105.61 408.24s.74 4.56.28 9.92c-.46 5.36-1.13 11.06-1.13 11.06s-36.35 2.56-54.72.57c0 0-1.14-10.56-.44-17.45 0 0 14.9.72 24.82-.41 0 0 1.82-9.5 2.43-23.6.61-14.1-.31-48.99-.31-48.99s-15.8 2.15-21.74 4.74c0 0-1.22-2.33-1.38-11.95-.15-9.63.79-12.86.79-12.86s3.5-.78 8.55-1.07c5.05-.29 10.87-.54 13.63-.54 0 0 .31-9.11.15-18.6-.15-9.49-1.53-21.43-1.53-21.43s-11.25-2.37-16.76-8.88c0 0 .92-2.68 4.75-6.2s6.79-4.44 8.19-4.52c0 0 .55 3.04 3.85 4.36 3.3 1.32 7.96 2.76 11.94.69 3.98-2.07 4.95-5.05 4.95-5.05s1.74.14 4.24 3.06c2.5 2.93 4.39 6.58 5.26 8.65 0 0-5.46 5.13-11.79 7.27l.69 32.61s5.05.15 10.26.46c5.2.31 6.19 0 7.23 3.37s5.48 18.22 7.17 26.18c1.68 7.96 2.76 14.09 2.76 14.09s-2.14 4.29-8.27 7.35c-6.12 3.06-7.96 3.52-7.96 3.52s-3.06-12.86-4.13-23.42c-1.07-10.56-5.21-24.8-6.43-26.64-1.22-1.84-.92 7.5-.92 7.5s2.04 13.81 2.48 32.63c.43 18.81-.33 35.81-1.1 44.53-.77 8.73-1.22 11.33-1.22 11.33s5.23-.56 15.44-2.26Z"/><path class="cls-40" d="M105.61 408.24s.74 4.56.28 9.92c-.46 5.36-1.13 11.06-1.13 11.06s-36.35 2.56-54.72.57c0 0-1.14-10.56-.44-17.45 0 0 14.9.72 24.82-.41 0 0 1.82-9.5 2.43-23.6.61-14.1-.31-48.99-.31-48.99s-15.8 2.15-21.74 4.74c0 0-1.22-2.33-1.38-11.95-.15-9.63.79-12.86.79-12.86s3.5-.78 8.55-1.07c5.05-.29 10.87-.54 13.63-.54 0 0 .31-9.11.15-18.6-.15-9.49-1.53-21.43-1.53-21.43s-11.25-2.37-16.76-8.88c0 0 .92-2.68 4.75-6.2s6.79-4.44 8.19-4.52c0 0 .55 3.04 3.85 4.36 3.3 1.32 7.96 2.76 11.94.69 3.98-2.07 4.95-5.05 4.95-5.05s1.74.14 4.24 3.06c2.5 2.93 4.39 6.58 5.26 8.65 0 0-5.46 5.13-11.79 7.27l.69 32.61s5.05.15 10.26.46c5.2.31 6.19 0 7.23 3.37s5.48 18.22 7.17 26.18c1.68 7.96 2.76 14.09 2.76 14.09s-2.14 4.29-8.27 7.35c-6.12 3.06-7.96 3.52-7.96 3.52s-3.06-12.86-4.13-23.42c-1.07-10.56-5.21-24.8-6.43-26.64-1.22-1.84-.92 7.5-.92 7.5s2.04 13.81 2.48 32.63c.43 18.81-.33 35.81-1.1 44.53-.77 8.73-1.22 11.33-1.22 11.33s5.23-.56 15.44-2.26Z"/></g><path class="cls-56" d="M65.68 228.16s18.19-4.61 30.93 0c0 0 1.68-3.52 1.22-8.57-.46-5.05-1.94-13.63-14.21-15.16-12.27-1.53-19.95 6.46-19.93 13.03.03 6.57.77 8.71 1.99 10.7Z"/><g style="clip-path:url(#clippath-8)"><path class="cls-25" d="m636.76 341.12-13.86-6.11 16.41 47.96m-18.34-27.69 26.06 63.07-10.62-2.9-1.26 3.54 11.56 2.57-4.5 4.18m-9.98-23.49s-.03 19.63-.97 30.89"/><path d="M121.91 415.68s36.91 7.35 71.23 0" style="stroke-dasharray:0 0 6.97 5.97;stroke-width:5.4px;stroke:#be3234;fill:none"/></g><path class="cls-59" d="M374.51 225.55s-1.06.99-1.91-.14c-.85-1.13-.43-3.26.43-4.54.85-1.28 3.02-2.73 5.74-2.04s3.83 3.03 3.05 4.87c-.78 1.84-2.06 2.61-3.12 1.98 0 0-1.28 1.02-2.2-.05 0 0-.92 1.13-1.98-.09Z"/><path class="cls-41" d="M374.51 225.55s-1.06.99-1.91-.14c-.85-1.13-.43-3.26.43-4.54.85-1.28 3.02-2.73 5.74-2.04s3.83 3.03 3.05 4.87c-.78 1.84-2.06 2.61-3.12 1.98 0 0-1.28 1.02-2.2-.05 0 0-.92 1.13-1.98-.09Zm.85-3.83s-1.16 1.91-1.06 3.97m2.98-3.69s-.64 1.84-.71 3.83m2.98-3.76s-.85 1.63-.85 3.76"/><path class="cls-59" d="M371.47 229.1s.71 3.29-5.1 3.06c-5.81-.23-5.76 2.18-9.54 1.54 0 0-1.98 2.91-6.52 1.63 0 0-1.61.85-2.36-.85-.76-1.7 1.42-2.61 1.42-2.61s.28-1.45 2.2-1.58c1.91-.13 3.76-1.26 5.95-2.68 2.2-1.42 6.45-2.27 6.45-2.27s1.56 2.61 7.51 3.74Z"/><path class="cls-41" d="M371.47 229.1s.71 3.29-5.1 3.06c-5.81-.23-5.76 2.18-9.54 1.54 0 0-1.98 2.91-6.52 1.63 0 0-1.61.85-2.36-.85-.76-1.7 1.42-2.61 1.42-2.61s.28-1.45 2.2-1.58c1.91-.13 3.76-1.26 5.95-2.68 2.2-1.42 6.45-2.27 6.45-2.27s1.56 2.61 7.51 3.74Zm-18.33 3.35s-1.37 1.05-2.65 1.47c-1.28.43.09 1.42.09 1.42"/><path class="cls-44" d="M392.11 133.77s-5.44 7.94-2.28 21.4m-10.92 19.74s25.78 2.09 33.29 7.9m4.98-52.73s-7.37 5.91-8.65 20.98c0 0-6.7-1.28-12.85 1.84-6.15 3.12-9.12 4.82-9.12 4.82l1.77-3.83m-1.49 5.53s2.49 2.58 6.14.72c3.64-1.86 5.23-1.21 5.23-1.21m-3.71 2.39s4.82 5.3 11.62 0m-46.5 59.34s5.39 1.28 9.36 6.66m33.03-42.38s-4.54 10.91-20.13 15.59c0 0 14.18-3.54 14.74-1.13.57 2.41-4.68 1.42-4.68 1.42m11.34-15.45-5.81 16.02m6.66-14.88s4.11 6.52-4.96 21.41m-19.42 1.7 3.4-8.08 5.1-.43 6.95 9.5m-13.33-18.57c-5.81-4.68-12.9-5.53-12.9-5.53l17.88-.57m-8.95-9.64s14.6-.58 22.26 2.98m-32.89 9.07s7.8 3.26 12.62 7.66m33.17-62.66-10.49 4.96.57 11.91m3.4-.14s-2.43-5.1-3.26-12.05m12.47-7.23s-5.53 7.94-6.95 17.15m8.22-15.45s-6.09 4.68-6.38 24.1m13.47-24.79s-5.84 5.51-8.08 7.64-1.98 4.68-.14 2.83c1.84-1.84 4.25-4.11 4.25-4.11s-2.69 12.9-5.53 19.7m-18.71-13.04 2.55-12.76s-9.5-1.56-8.93 19.14m7.94-.43 2.69-18.29.99 17.01m-19.7 4.39-10.77-6.38s5.24 8.93 12.19 12.47m-20.41-7.37s11.34 2.69 12.62 4.11m16.87-27.36s-5.41 3.97-5.24 14.6m-12.33 1.13s4.39 2.98 8.51 6.38m-5.81 51.88s-4.94 7.5-11.74 14.18m-4.54-9.07s3.24-1.13 7.06 2.55m3.69-20.56.57 10.06m1.7-8.65.85 9.21m51.46-28.63c-3.12-6.38-14.32-5.67-14.32-5.67s7.23 1.13 10.35 6.24m-12.59-5.1s6.07.57 6.5 6.66m12.33-26.65-7.49 6.54 8.62-2.99m-37.28 32.18s4.54-3.4 14.03-2.69c0 0 6.24 4.68 7.37 2.41 1.13-2.27-4.39-3.54-4.39-3.54m-23.67-44.65s-1.02 3.97-.57 8.36m-2.27-5.81.14 5.39"/><path class="cls-59" d="m361.19 153.06-4.39-.02s-1.72-1.13-6.38-.99c-4.65.14-4.96.27-6.88 1.49-1.91 1.22-1.84 1.49-1.63 1.98.21.5.99.06 2.34-.64 1.35-.69 2.76-.98 2.76-.98s-2.58.68-3.61 1.76c-1.04 1.08-1.32 1.56-.76 1.98.57.43 1.02-.34 1.7-.91.69-.57 2.1-1.15 2.39-1.22 0 0-1.09.74-.97 1.5 0 0-.47.06-.57.76-.1.71.24 1.05 1.54 1.28 0 0-.99.48-1.49 1.49s.57 1.21 1.13.71c.57-.5 1.13-1.06 2.34-1.28 1.2-.21 3.54-.32 5.39-.41 1.84-.09 3.4-1.42 3.4-1.42l11.79-.44s-1.72-2.13-3.78-3.05-4.32-1.61-4.32-1.61Z"/><path class="cls-41" d="m361.19 153.06-4.39-.02s-1.72-1.13-6.38-.99c-4.65.14-4.96.27-6.88 1.49-1.91 1.22-1.84 1.49-1.63 1.98.21.5.99.06 2.34-.64 1.35-.69 2.76-.98 2.76-.98s-2.58.68-3.61 1.76c-1.04 1.08-1.32 1.56-.76 1.98.57.43 1.02-.34 1.7-.91.69-.57 2.1-1.15 2.39-1.22 0 0-1.09.74-.97 1.5 0 0-.47.06-.57.76-.1.71.24 1.05 1.54 1.28 0 0-.99.48-1.49 1.49s.57 1.21 1.13.71c.57-.5 1.13-1.06 2.34-1.28 1.2-.21 3.54-.32 5.39-.41 1.84-.09 3.4-1.42 3.4-1.42l11.79-.44s-1.72-2.13-3.78-3.05-4.32-1.61-4.32-1.61Zm-11.6-.7s-.79.91-1.47 1.87c-.68.96-1.53 1.38-1.53 1.38m-.74 1.52s1.08.74 2.55-.62c1.47-1.36 2.32-1.93 2.32-1.93m-4.08 4.37s1.7.06 2.33 0c.62-.06 1.24-.74.76-1.3-.48-.57-1.89-.45-1.89-.45m1.53-1.53s1.02 1.19 4.54.68"/><path class="cls-43" d="M269.62 201.81s-2.41 4.11.14 8.65c2.55 4.54 6.09 9.78 13.32 8.22"/><path class="cls-53" d="m75.7 298.38-34.06-113.7"/><path class="cls-44" d="M354.53 348.38s3.97-.57 5.95-4.54c1.99-3.97-.28-7.94-3.12-8.51-2.83-.57-6.24.27-6.24 3.97s6.52 5.67 8.22.85m-27.5 2.27s-1.42-2-3.69-2.83c-2.27-.84-4.84.57-4.25 3.12.59 2.55 4.51 5.13 8.22 3.13 3.71-2 2.27-7.4.28-9.37m3.97-1.7s1.7 1.42 3.12 4.54c1.42 3.12 8.22 5.1 9.92-.28m37.71-2.55s7.65 3.97 6.52 9.92c-1.13 5.95-9.07 5.1-12.76-.28-3.69-5.39-5.67-7.09-8.51-5.95-2.84 1.13-1.44 5.1.85 6.24 2.29 1.13 5.67.57 5.67.57m12.48-1.98s-1.7.03-3.4-1.97-3.95-.3-3.95 1.97 1.73 5.1 4.25 5.67m28.35-12.47s-3.14 2.84-5.41-.85-.28-7.65 3.4-7.37c3.69.28 5.93 4.82 5.39 7.66-.54 2.83-1.16 6.52-6.52 7.09m11.91-1.13s-1.65.28-1.68 1.42c-.02 1.13 1.39 2.27 3.94 0s5.67-4.54 10.77-1.42 13.89 5.39 12.76-2.83c-1.13-8.22-10.21-5.67-10.21-5.67m-140.6 10.79s4.51-3.13 3.95-7.1c-.57-3.97-3.95-.57-3.95.85s1.96.28 1.96.28m-1.7-3.69s-3.12.32-6.24 2.57-11.91 2.25-11.91-2 4.87-3.09 6.54-2.25c1.68.84 4.8.84 4.8.84m28.07 9.09s-1.13-4.27-5.95-3.42c-4.82.85-3.12 3.67-5.39 4.25"/><path class="cls-54" d="M75.47 235.51s4.95-2.91 7.83-.15m1.96-.61s4.13-2.45 5.21 1.53m-13.01.46s1.84-1.53 3.67.46m4.9-.15s1.38-1.53 3.06.15m-8.73 9.19 1.53-.54s1.2 1.13 3.24 0m-3.62 1.99s2.04 1.13 3.75.08m-.38-12.32s.77 3.67.92 7.81c0 0-1.17.61-2.81.31"/><path d="M68.83 258.81s-.31 3.9 5.1 6.14c5.41 2.25 11.28 2.25 15.3.15 4.02-2.1 5.72-4.8 5.72-4.8" style="stroke-width:1.06px;stroke:#3c1028;fill:none"/><path class="cls-54" d="M60.47 264.75s-.77 3.67 4.75 6.74c5.51 3.06 11.94 4.44 20.06 3.37 8.11-1.07 13.01-4.29 15.31-7.2m-13.78 9.8s.66 5.22 1.1 17.47c.43 12.25.28 16.36.28 16.36m-10.72-33.83s.91 20.67 1.07 27.86"/><path class="cls-64" d="m101.5 364.57 8.88-4.13 1.84 11.02s-7.65 1.84-10.72-6.89Z"/><path class="cls-53" d="m101.5 364.57 8.88-4.13 1.84 11.02s-7.65 1.84-10.72-6.89Z"/><path class="cls-44" d="M240.7 186.92s-.85 6.8-3.4 17.29c-2.55 10.49-3.26 17.58-3.26 17.58m3.26-6.36s2.67-19.29 3.12-25.67m1.28.85s.28 10.65-.71 19.15m2.27-20.15s1.7 6.69-.14 15.89m-5.24-16.6-6.8 33.74m-2.95-14.18s5.91-18.57 10.75-22.54c0 0-5.08 2.13-7.91 6.38m18.26 7.94s.57 4.82 0 8.65m-2.83-16.16s.99 4.99-.43 12.77m-17.01 23.66s.71 14.02 2.41 22.11m-.99-22.54s.54 10.77 1.98 16.59m1.7-9.92s.14 1.84 1.84 1.13c1.7-.71 1.84-2.27 1.42-5.67-.43-3.4-.28-7.51-.28-7.51m-7.49 43.11s3.52 15.15 4.65 21.11a300.31 300.31 0 0 1 1.98 11.91l2.13 8.65m196.61 68.04 6.38-6.38s-.54-.28-.54-1.84 1.25-2.55 1.96-2.55 2.13.71 2.13 2.55-.71 2.13-.71 2.13l8.79 6.1s.57-.85 2.13-.85 2.13 1.7 1.98 2.84c-.14 1.13-.95 1.98-2.1 1.98s-2.29-.85-2.29-.85l-6.09 5.81s1.13.71 1.13 2.13-1.3 2.27-2.69 2.27-1.84-1.28-1.99-2.27c-.14-.99 1.13-2.69 1.13-2.69l-9.05-4.66s-1.02.69-2.29.84c-1.28.14-2.13-.85-2.27-2.41-.14-1.56 1.13-2.55 2.27-2.55s2.13.43 2.13.43Zm1.13 1.7 6.52-6.38 7.8 6.09-5.67 4.96-8.65-4.68Zm7.87 1.06c.7 0 1.27-.57 1.27-1.27s-.57-1.27-1.27-1.27-1.27.57-1.27 1.27.57 1.27 1.27 1.27Zm6.17-11.82s.71-1.58 1.84-.73c1.13.85-1.42 5.67-1.42 5.67m1.42.99s3.26-2.41 6.09-1.84m-5.24-.71 4.11-4.11m-21.12.85s-1.58-.57-1.84.57c-.26 1.13 3.26 4.11 3.26 4.11m-8.08 1.28s.57-1.84 1.84-1.7c1.28.14 4.68 1.42 4.68 1.42m-5.67-5.53 4.25 3.54m-2.55 12.33s-.57 1.28.28 1.84c.85.57 3.69-.14 4.82-1.13m2.41 5.24s-1.28.43-1.84-.71c-.57-1.13 1.28-2.96 1.28-2.96m-3.26.41-3.12 3.97m19.7 1.13s2.13-1.42-.57-5.1m8.51-1.98s-.57 1.56-2.84 1.28-4.39-1.99-4.39-1.99m5.24 5.95-5.39-4.25m-71.9-3.96-6.38 6.38s.54.28.54 1.84-1.25 2.55-1.96 2.55-2.13-.71-2.13-2.55.71-2.13.71-2.13l-8.79-6.1s-.57.85-2.13.85-2.13-1.7-1.98-2.83c.14-1.13.95-1.98 2.1-1.98s2.29.85 2.29.85l6.09-5.81s-1.13-.71-1.13-2.13 1.3-2.27 2.69-2.27 1.84 1.28 1.99 2.27c.14.99-1.13 2.69-1.13 2.69l9.05 4.66s1.02-.69 2.29-.83c1.28-.14 2.13.85 2.27 2.41.14 1.56-1.13 2.55-2.27 2.55s-2.13-.43-2.13-.43Zm-1.13-1.7-6.52 6.38-7.8-6.09 5.67-4.96 8.65 4.68Zm-7.87-1.06c-.7 0-1.27.57-1.27 1.27s.57 1.27 1.27 1.27 1.27-.57 1.27-1.27-.57-1.27-1.27-1.27Zm-6.17 11.82s-.71 1.58-1.84.73c-1.13-.85 1.42-5.67 1.42-5.67m-1.42-.99s-3.26 2.41-6.09 1.84m5.24.71-4.11 4.11m21.12-.85s1.58.57 1.84-.57c.26-1.13-3.26-4.11-3.26-4.11m8.08-1.28s-.57 1.84-1.84 1.7c-1.28-.14-4.68-1.42-4.68-1.42m5.67 5.53-4.25-3.54m2.55-12.33s.57-1.28-.28-1.84c-.85-.57-3.69.14-4.82 1.13m-2.41-5.24s1.28-.43 1.84.71-1.28 2.96-1.28 2.96m3.26-.41 3.12-3.97m-19.7-1.13s-2.13 1.42.57 5.1m-8.51 1.98s.57-1.56 2.84-1.28 4.39 1.98 4.39 1.98m-5.24-5.95 5.39 4.25m-71.91 1.91 6.38-6.38s-.54-.28-.54-1.84 1.25-2.55 1.96-2.55 2.13.71 2.13 2.55-.71 2.13-.71 2.13l8.79 6.1s.57-.85 2.13-.85 2.13 1.7 1.98 2.84c-.14 1.13-.95 1.98-2.1 1.98s-2.29-.85-2.29-.85l-6.09 5.81s1.13.71 1.13 2.13-1.3 2.27-2.69 2.27-1.84-1.28-1.98-2.27c-.14-.99 1.13-2.69 1.13-2.69l-9.05-4.66s-1.02.69-2.29.84c-1.28.14-2.13-.85-2.27-2.41-.14-1.56 1.13-2.55 2.27-2.55s2.13.43 2.13.43Zm1.13 1.7 6.52-6.38 7.8 6.1-5.67 4.96-8.65-4.68Zm7.87 1.06c.7 0 1.27-.57 1.27-1.27s-.57-1.27-1.27-1.27-1.27.57-1.27 1.27.57 1.27 1.27 1.27Zm6.17-11.82s.71-1.57 1.84-.72c1.13.85-1.42 5.67-1.42 5.67m1.42.99s3.26-2.41 6.09-1.84m-5.24-.71 4.11-4.11m-21.12.85s-1.58-.57-1.84.57c-.26 1.13 3.26 4.11 3.26 4.11m-8.08 1.28s.57-1.84 1.84-1.7c1.28.14 4.68 1.42 4.68 1.42m-5.67-5.53 4.25 3.54m-2.55 12.33s-.57 1.28.28 1.84c.85.57 3.69-.14 4.82-1.13m2.41 5.24s-1.28.43-1.84-.71c-.57-1.13 1.28-2.96 1.28-2.96m-3.26.41-3.12 3.97m19.7 1.13s2.13-1.42-.57-5.1m8.51-1.98s-.57 1.56-2.84 1.28-4.39-1.98-4.39-1.98m5.24 5.95-5.39-4.25m127.22-88.67s2.81-1.81 3.83 1.15c0 0 .69-2.99 3.69-1.72m5.83 6.82s1.54.13 1.82 1.69-2.83 2.28-2.83 2.28 3.4.41 3.69 3.95m-17.58 5.4s2.13 2.55 4.82-.57c0 0 2.6 3.65 4.42 2.25m-13.21-16.73s-.73.71-.85 2.69 2.69 2.55 2.69 2.55-3.54.85-3.69 2.69c-.14 1.84 2.69 1.56 2.69 1.56m8.1-16.8c.19 0 .34-.15.34-.34s-.15-.34-.34-.34-.34.15-.34.34.15.34.34.34Zm14.19 13.45c.19 0 .34-.15.34-.34s-.15-.34-.34-.34-.34.15-.34.34.15.34.34.34Zm-26.38-.69c.19 0 .34-.15.34-.34s-.15-.34-.34-.34-.34.15-.34.34.15.34.34.34Zm11.88 12.77c.19 0 .34-.15.34-.34s-.15-.34-.34-.34-.34.15-.34.34.15.34.34.34Zm8.26-5.84c.19 0 .34-.15.34-.34s-.15-.34-.34-.34-.34.15-.34.34.15.34.34.34Zm-1.43-14.3c.19 0 .34-.15.34-.34s-.15-.34-.34-.34-.34.15-.34.34.15.34.34.34Zm-12.21-.16c.19 0 .34-.15.34-.34s-.15-.34-.34-.34-.34.15-.34.34.15.34.34.34Zm-.26 14.62c.19 0 .34-.15.34-.34s-.15-.34-.34-.34-.34.15-.34.34.15.34.34.34Zm-63.97-17.49s2.81-1.81 3.83 1.15c0 0 .69-2.99 3.69-1.72m5.83 6.82s1.54.13 1.82 1.69-2.83 2.28-2.83 2.28 3.4.41 3.69 3.95m-17.58 5.4s2.13 2.55 4.82-.57c0 0 2.6 3.65 4.42 2.25m-13.21-16.73s-.73.71-.85 2.69c-.12 1.99 2.69 2.55 2.69 2.55s-3.54.85-3.69 2.69c-.14 1.84 2.69 1.56 2.69 1.56m8.1-16.8c.19 0 .34-.15.34-.34s-.15-.34-.34-.34-.34.15-.34.34.15.34.34.34Zm14.19 13.45c.19 0 .34-.15.34-.34s-.15-.34-.34-.34-.34.15-.34.34.15.34.34.34Zm-26.38-.69c.19 0 .34-.15.34-.34s-.15-.34-.34-.34-.34.15-.34.34.15.34.34.34Zm11.88 12.77c.19 0 .34-.15.34-.34s-.15-.34-.34-.34-.34.15-.34.34.15.34.34.34Zm8.26-5.84c.19 0 .34-.15.34-.34s-.15-.34-.34-.34-.34.15-.34.34.15.34.34.34Zm-1.43-14.3c.19 0 .34-.15.34-.34s-.15-.34-.34-.34-.34.15-.34.34.15.34.34.34Zm-12.21-.16c.19 0 .34-.15.34-.34s-.15-.34-.34-.34-.34.15-.34.34.15.34.34.34Zm-.26 14.62c.19 0 .34-.15.34-.34s-.15-.34-.34-.34-.34.15-.34.34.15.34.34.34Zm-67.35-17.09s2.81-1.81 3.83 1.15c0 0 .69-2.99 3.69-1.72m5.83 6.82s1.54.13 1.82 1.69-2.83 2.28-2.83 2.28 3.4.41 3.69 3.95m-17.58 5.4s2.13 2.55 4.82-.57c0 0 2.6 3.65 4.42 2.25M294 298.3s-.73.71-.85 2.69 2.69 2.55 2.69 2.55-3.54.85-3.69 2.69c-.14 1.84 2.69 1.56 2.69 1.56m8.1-16.8c.19 0 .34-.15.34-.34s-.15-.34-.34-.34-.34.15-.34.34.15.34.34.34Zm14.19 13.45c.19 0 .34-.15.34-.34s-.15-.34-.34-.34-.34.15-.34.34.15.34.34.34Zm-26.38-.69c.19 0 .34-.15.34-.34s-.15-.34-.34-.34-.34.15-.34.34.15.34.34.34Zm11.88 12.77c.19 0 .34-.15.34-.34s-.15-.34-.34-.34-.34.15-.34.34.15.34.34.34Zm8.26-5.84c.19 0 .34-.15.34-.34s-.15-.34-.34-.34-.34.15-.34.34.15.34.34.34Zm-1.43-14.3c.19 0 .34-.15.34-.34s-.15-.34-.34-.34-.34.15-.34.34.15.34.34.34Zm-12.21-.16c.19 0 .34-.15.34-.34s-.15-.34-.34-.34-.34.15-.34.34.15.34.34.34Zm-.26 14.62c.19 0 .34-.15.34-.34s-.15-.34-.34-.34-.34.15-.34.34.15.34.34.34Z"/><path class="cls-23" d="M535.86 124.23s2.9-1.13 5.47-.97c2.57.16 4.18 1.29 4.67 2.9m-13.81-1.45s-1.64-.77-4.53-.79m8.37 2.72s1.93.48 3.54 0 2.41-1.93 4.83-.32m-13.19-.64s-1.77.32-3.54.16m11.02 2.09s2.57 1.45 4.99.08m-5.23 1.39s1.05 2.67 3.14 2.57 2.74-2.35 2.74-2.35m-12.76-2.09s-.91 2.25-3.16 2.74m4.67-4.99s-.56 4.62-1.13 8.3c-.56 3.68-.27 4 1.29 4s1.69-1.43 3.94-1.11"/><path class="cls-25" d="M532.64 138.71s-3.57.63-4.26 6.27m8.69-7.22s4.99 1.31 6.44 7.72"/><path class="cls-23" d="M532.72 140.65s.81 1.29 3.94.08"/><path class="cls-25" d="M535.86 139.52s4.56 2.05 5.34 9.19"/><path class="cls-23" d="m533.36 143.3 2.68-.24"/><path class="cls-25" d="M531.75 142.17s-2.33 2.41-1.61 8.85m21.48-22.61s1.48 5.77-5.93 10.78m8.04-5.93s-.03 5.11-6.46 9.15"/><path class="cls-23" d="M562.89 112.97s.64 2.25-3.22 4.67c-3.86 2.41-6.62 4.99-7.72 7.4m4.69 2.35s.74 2.32-.97 2.45c-1.7.13-1.76-2.45-.86-3.6.9-1.16 3.41-1.31 3.8 1.09.39 2.4-.13 5.53-2.77 7.79"/><path class="cls-25" d="M542.94 153.52s.8 6.11-4.99 10.62m-6.44-8.69s-.35 3.7 4.18 6.6m4.67-8.53s.97 2.9-2.41 6.11m14.96-12.71s-1.93 4.97-5.79 7.08m3.7 2.9s-1.45 6.44-8.04 10.78m64.29-40.38c.17 0 .3-.13.3-.3s-.13-.3-.3-.3-.3.13-.3.3.13.3.3.3Z"/><path class="cls-23" d="M604.91 122.55s2.47.81 4.96 1.29c2.49.48 3.22 1.53 3.22 1.53m-12.36-3.36s-1.72 1.59-4.45 2.64c-2.74 1.05-3.7 2.01-3.7 2.01m12.01-.4s2.87-1.61 5.85.64m-9.65-.81s-2.52-1.77-5.95.48m6.36 0s-.08 3.33-.64 6.7c-.56 3.36-.48 4.89.88 4.89s1.77.08 1.77-1.85-.16-6.64.16-9.15m-9.06.22s.7 2.01 2.31 3.22m14.48-3.54s-.4 1.77-1.93 3.38"/><path class="cls-25" d="M612.12 127.21s-.32 2.98-2.25 5.87m-16.89-5.23s.94 3.06 2.6 4.59m4.56 6.68s-2.84 1.83-4.34 7.48m7.4-7.54s3.86 3.68 5.39 8.19"/><path class="cls-23" d="M598.85 143.38s3.06.32 5.15-.4m-4.1 3.62s2.23-1.09 3.73.18m13.17-16.41s.16-4.2 2.74-3.56"/><path class="cls-25" d="M613.73 135.66s-.48 5.47-2.09 12.23m2.9-5.79s1.13 3.38-1.13 9.01m1.61.18s-.51 6.26-3.86 12.85m7.24-19.15s1.61 15.45-3.54 25.9m5.63-23.17s1.93 8.04-1.77 19.15m-30.22-16.89s-.83 10.14 4.96 17.22m-7.24-14.8s0 9.49 2.9 14.48m4.02-21.4s-2.57 9.65 2.25 19.95"/><path class="cls-23" d="M600.7 108.47s-.97 2.09-3.86 4.02"/><path class="cls-25" d="M597.5 127.15c.17 0 .3-.13.3-.3s-.13-.3-.3-.3-.3.13-.3.3.13.3.3.3Zm70.28-16.75s2.09 4.83-.97 8.69"/><path class="cls-23" d="M663.93 130.19s.94 0 1.47-1.69c.54-1.69 1.64-1.85 2.25-.88.62.97.27 3.7-1.64 3.94"/><path class="cls-25" d="M648.72 140.02s-1.93 3.2-2.65 6.34c-.72 3.14-1.13 13.43 1.13 26.63m4.02-32.82s5.31 4.34 4.34 19.63"/><path class="cls-23" d="M643.2 123.61s.62-1.95 2.35-1.88 3.8 2.53 3.8 2.53m4.15-.1s1.9-2.41 3.92-2.25 2.84.97 2.84.97m-6.11 3.06s2.63-.89 5.6.08m-16.17-.08s2.95-1.13 5.42.08m5.96 4.54s1.48.97 3.22 0m-12.94.26s.83.71 2.47-.07"/><path class="cls-25" d="M657.61 127.13a.29.29 0 1 0 0-.58.29.29 0 0 0 0 .58Zm-10.8-.11a.29.29 0 1 0 0-.58.29.29 0 0 0 0 .58Z"/><path class="cls-23" d="M645.26 105.09s4.51 1.93 13.68.97"/><path class="cls-25" d="M662.8 104.62s4.8 2.72 3.06 7.38m-4.18 24.62s3.7 2.57 2.73 9.01m-4.5-3.54s4.34 2.73 2.74 7.72c-1.61 4.99-5.47 3.54-5.47 3.54m6.95-4.83s1.74 3.54-.67 6.6c-2.41 3.06-5.31 1.61-5.31 1.61m-14.8-18.32s-3.65 5.93-3.35 10.44"/><path class="cls-23" d="M650.49 126.89s.48 2.41-.48 6.11c-.97 3.7-1.56 5.41-.7 6.05.86.64 1.58.3 2.31-.26.72-.56 1.69-.24 1.69-.24"/><path class="cls-25" d="M651.86 149.01c-.16-3.54-1.77-5.31-1.77-5.31s-3.06 4.02-2.41 11.91"/><path class="cls-23" d="M693.93 120.86s1.4.82 3.33 1.14c1.93.32 4.08 1.67 4.4 3.44m-9.55-4.67s-.19 1.45-2.6 2.25-3.46 1.35-3.14 2.57m8.53-2.01s1.53.4 3.14.48c1.61.08 2.76 1.13 2.76 1.13m-10.48-1.53s-.89.81-2.25 1.13c-1.37.32-1.61 1.13-1.61 1.13m24.54 3.54s-1.23.48-1.18-2.17c.05-2.65 1.29-2.57 1.93-2.57s2.06.79 2.06 3.86-1.61 5.07-2.57 5.07-1.85-1.99-1.85-1.99m-12.77-3.4s.7 1.14 2.47 1.14 2.68-3.07 2.68-3.07m-15.12 1.69s.67 2.01 2.57 2.01"/><path class="cls-25" d="M703.05 125.6s.22 1.99-2.04 4.18"/><path class="cls-23" d="M692.43 123.59s.05 3.46-.43 7.32c-.48 3.86.16 5.25.16 5.25m-2.41.32s.24.61 1.21.3c0 0 .56.47 2.17.08 0 0 1.58.32 2.2-.08"/><path class="cls-25" d="M691.52 138.15s-2.01 1.13-2.41 4.91m4.75-4.83s3.51 1.91 3.73 4.42"/><path class="cls-23" d="M691.12 141.13s1.42.12 2.82-.14"/><g style="clip-path:url(#clippath-9)"><path class="cls-25" d="M698.35 125.43c.1 0 .18-.08.18-.18s-.08-.18-.18-.18-.18.08-.18.18.08.18.18.18Zm-9.64.79c.1 0 .18-.08.18-.18s-.08-.18-.18-.18-.18.08-.18.18.08.18.18.18Zm4.36-16.47s4.16 1.29 7.37 0m-7.56 5.95s3.11 1.61 6.62.32m-8.55-.32s-1.45.8-3.86.97m19.95 15.93s.97 2.09-4.02 7.24c-4.99 5.15-5.63 9.01-5.63 9.01m11.26-12.07s1.42 6.45-5.47 9.67m3.54.3s-.32 3.22-6.6 5.95m7.08-2.25s-.99 3.38-6.76 5.47"/><path class="cls-23" d="M671.49 417.14s6.43 6.03 17.7 8.85"/></g><path class="cls-20" d="M54.01 340.76s14.74-4.39 29.49-5.24"/><path class="cls-23" d="M694.01 421.97s-10.86-2.01-20.92-4.83m55.37-4.42s-11.13 6.47-21.59 15.3" style="clip-path:url(#clippath-10)"/><path d="M83.07 294.67c1.43 24 4.21 80.38.69 106.29" style="stroke-dasharray:0 0 0 11.2;stroke-linecap:round;stroke-linejoin:round;stroke-width:5.4px;stroke:#be3234;fill:none"/><path class="cls-21" d="M82.36 283.49h0m.45 122.99h0"/><g style="clip-path:url(#clippath-11)"><path class="cls-23" d="M673.1 204.38s-1.93 25.4 3.54 35.06m-12.23-32.82s5.79 27.71 9.65 33.16m3.54-42.17s1.93 12.87 5.47 18.34m-6.44 58.89 6.44-30.25m4.5 39.42s-11.53 26.95-12.2 63.15m8.98-102.17s-7.91 54.7-8.98 89.29m35.4 2.82s3.89 55.95-1.61 87.7m-7.51-85.27s-3.62 52.67 0 84.45m2.68-84.45s-.54 59.51.54 89.28m-22.12-91.71s9.79 45.49 16.49 90.92"/><path class="cls-26" d="m658.94 242.33-2.9 101.04m35.42-178.59s-10.32 23.81-29.95 38.29m32.5 43.52s-2.28 43.84-1.61 88.89l6.84-2.4m-.4-156.08s16.89 122.68 18.5 183.42M663.12 244.6l2.6 114.23m-8.04-2.91s-1.34 11.57 4.16 25.74m-7.72-.97 7.08 31.54m-6.43-.3s5.79 10.28 8.37 15.11"/></g><path class="cls-57" d="M504.83 394.23s65.97-1.27 86.88 1.61l3.51 22.53s-14.28-1.38-29.91-1.91c-16.73-.57-30.33-1.42-45.71.3-14.85 1.66-16.38 2.88-16.38 2.88l1.61-25.4Z"/><path class="cls-23" d="M504.83 394.23s65.97-1.27 86.88 1.61l3.51 22.53s-14.28-1.38-29.91-1.91c-16.73-.57-30.33-1.42-45.71.3-14.85 1.66-16.38 2.88-16.38 2.88l1.61-25.4Z"/><path class="cls-25" d="M505.77 397.45s12.55-1.97 37.33-.98c24.78.98 48.91 2.59 48.91 2.59"/><path class="cls-64" d="M91.12 316.95s-3.83 15.46-13.01 21.28c0 0 9.49 2.76 17.3-3.52 0 0-.59-8.88-4.29-17.76Z"/><path class="cls-53" d="M91.12 316.95s-3.83 15.46-13.01 21.28c0 0 9.49 2.76 17.3-3.52 0 0-.59-8.88-4.29-17.76Z"/><path class="cls-25" d="M503.22 415.45s21.49-4.17 44.66-3.53c23.17.64 47.02 3.85 47.02 3.85m-27.03-186.96s3.86 6.44 4.18 19.31c.32 12.87.97 15.45 0 21.56m-6.44-40.54s3.54 7.76 4.18 20.29c.64 12.53-.32 21.22-.32 21.22m-58.89-46.34s-2.52 7.4.67 19.31c3.19 11.91 6.09 19.63 6.09 19.63m-9.65-36.68s-2.9 6.76 1.29 19.95c4.18 13.19 6.76 17.7 6.76 17.7"/><path class="cls-26" d="m550.02 225.92-.97-30.09 18.83-1.45m-14.8 31.05-.8-26.55 14.16-1.77m-13.03 18.18 7.4 9.49m-7.88-14.8 10.14 14m-10.46-19.31 13.52 18.99m-14-24.46 13.68 20.76m-10.14-21.56 10.62 16.25m-6.6-16.57 6.92 11.42m47.14 19.31-1.61-31.37 13.03-1.11m6.44 4.17-15.93.32 1.29 27.99"/><path class="cls-62" d="m620 227.37 3.38-4.35 3.86 4.35H620z"/><path class="cls-26" d="m620 227.37 3.38-4.35 3.86 4.35H620z"/><path class="cls-62" d="m623.38 211.92 2.58-5.31-7.24.48 4.66 4.83z"/><path class="cls-26" d="m623.38 211.92 2.58-5.31-7.24.48 4.66 4.83z"/><path class="cls-61" d="M620.97 219.48v-4.18l4.34-.32.19 4.66-4.53-.16z"/><path class="cls-26" d="M620.97 219.48v-4.18l4.34-.32.19 4.66-4.53-.16z"/><path d="M170.21 253.89c5.92 48.01 3.96 95.08-3.17 150.94" style="stroke-dasharray:0 0 7.06 6.06;stroke-width:5.4px;stroke:#be3234;fill:none"/><path d="M175.16 123.02s-.36 2.3-1.71 4.29m-16-3.21s.74 1.82 1.17 2.74" style="stroke-width:1.08px;stroke:#ebb682;fill:none"/><path class="cls-40" d="M281.96 178.47s-4.48-1.46-7.09.57m-3.97.67s-1.82-1.07-3.8-.28m4.05 1.81s-.76-.65-2.12-.61c-1.36.04-1.36.99-1.36.99m13.14-.75s-1.98-2.52-5.1 0"/><path class="cls-46" d="m276.95 192.54-1.17-.7s-2.07.85-3.57 0l-.73.28"/><path class="cls-45" d="M277.21 194.25s-2.7.85-4.37 0"/><path class="cls-40" d="M278.34 180.95c-.09 0-.16-.07-.16-.16s.07-.16.16-.16.16.07.16.16-.07.16-.16.16Zm-9.01.66c-.09 0-.16-.07-.16-.16s.07-.16.16-.16.16.07.16.16-.07.16-.16.16Z"/><path class="cls-45" d="M272.32 180.64s.34 1.22-.11 4.01-.49 3.83.12 3.93c.62.1 2.26-.87 2.54.49"/><path class="cls-25" d="M541.9 126.98c.08 0 .14-.06.14-.14s-.06-.14-.14-.14-.14.06-.14.14.06.14.14.14Z"/><path class="cls-23" d="M541.16 126.98c.08 0 .14-.06.14-.14s-.06-.14-.14-.14-.14.06-.14.14.06.14.14.14Z"/><path class="cls-25" d="M529.76 126.99c.08 0 .14-.06.14-.14s-.06-.14-.14-.14-.14.06-.14.14.06.14.14.14Z"/><path class="cls-23" d="M529.11 126.99c.08 0 .14-.06.14-.14s-.06-.14-.14-.14-.14.06-.14.14.06.14.14.14Z"/><path class="cls-60" d="M495.73 234.66c.21 4.57 1.21 8.58 3.28 11.55 7.43 10.6 11.26 13.82 11.26 13.82s-.64 19.95-1.93 48.27c-1.29 28.32-2.28 60.82-2.9 80.45-.62 19.63-2.57 29.93-2.57 29.93"/><path class="cls-23" d="M495.73 234.66c.21 4.57 1.21 8.58 3.28 11.55 7.43 10.6 11.26 13.82 11.26 13.82s-.64 19.95-1.93 48.27c-1.29 28.32-2.28 60.82-2.9 80.45-.62 19.63-2.57 29.93-2.57 29.93"/><path d="M79.54 237.31s.05-.02.05-.05-.02-.05-.05-.05-.05.02-.05.05.02.05.05.05Zm8.22.21s.05-.02.05-.05-.02-.05-.05-.05-.05.02-.05.05.02.05.05.05Z" style="stroke-width:1.3px;stroke:#3c1028;fill:none"/><path d="M374.8 83.62c1.25 0 2.26-.25 2.26-.55s-1.01-.55-2.26-.55-2.26.25-2.26.55 1.01.55 2.26.55ZM386.47 84.44c1.05.13 1.94-.01 1.98-.31.04-.3-.79-.65-1.84-.78-1.06-.13-1.94.01-1.98.31-.04.3.79.65 1.84.78Z" style="stroke-width:1.1px;stroke:#ebb682;fill:none"/><path class="cls-40" d="M379.77 80.11s-4.59-3.48-11.09 1.86m14.84-1.59s4.57-2.12 6.98 2.5m-21.59 1s2.04-.49 3.82-1.34c1.78-.85 5.01-.73 5.24 1.09m5.93.05s3.21-2.07 5.6.97"/><path d="M380.11 80.98s.87 1.41.54 6.28c-.33 4.87-.54 5-.33 6.15" style="stroke:#ebb682;stroke-width:.5px;fill:none"/><path class="cls-40" d="M378.43 90.36s-.76 1.01-.76 1.76.25 1.26 1.13 1.51c.88.25.78.08 1.16.58.38.5 1.24.52 1.66-.15.22-.35 1.99-.25 1.84-2.82"/><path class="cls-44" d="M368.45 84.84s.47 2.27 1.18 3.82m8.22 14.6s1.95-.57 2.47.19"/><path class="cls-40" d="M368.16 104.35s5.74 2.69 9.06 2.58c3.32-.11 5.15-1.13 6.15-2.47"/><path class="cls-38" d="M375.45 98.11s.36.1 1.3-.03c.93-.14 1.6.2 3.34.14 1.74-.06 2.05-.03 2.36.07"/><path d="M375.07 83.34c.37 0 .66-.06.66-.13s-.3-.13-.66-.13-.66.06-.66.13.3.13.66.13ZM386.6 84.33c.36.04.66.01.67-.06 0-.07-.28-.16-.64-.19-.36-.04-.66-.01-.67.06 0 .07.28.16.65.19Z" style="stroke-width:1.1px;stroke:#3c1028;fill:none"/><path class="cls-17" d="M403.5 102.98s.97 2.25 5.05 2.25 4.6-2.71 4.6-2.71"/><path class="cls-18" d="M402.17 109.73s2.35-2.23 4.96-.07m2.37-.24s3.1-1.82 5.25.63m-12.26.97s.85-.98 2.41-.92c1.57.05 2.42.78 2.42.78m2.54-.14s1.74-1.36 4.19.23"/><path class="cls-17" d="m414.61 111.7-2.05 1.45m-10.15-1.41s.68 1.1 1.69 1.69"/><path class="cls-18" d="M405.86 114.96s.71-.45 1.23.2 1.23.99 1.95.22c.71-.77 1.36-.65 1.36-.65"/><path d="m405.75 117.19.71.42s1.29-.36 2.45.06l.84-.42" style="stroke:#8a1923;stroke-width:.46px;fill:none"/><path class="cls-17" d="M407.28 119.67s.86-.36 1.61.24m-3.67 3.46 2.61 1.27m-2.93.3 2.93 1.19m.31-12.8s-.76.05-.83.75"/><path class="cls-62" d="M404.77 111.36c.46 0 .83-.29.83-.64s-.37-.64-.83-.64-.83.29-.83.64.37.64.83.64ZM411.83 111.52c.46 0 .83-.29.83-.64s-.37-.64-.83-.64-.83.29-.83.64.37.64.83.64Z"/><path class="cls-58" d="M398.52 110.88s.69-1.01 1.71.51c0 0 .72-.79.05-1.81-.67-1.02-.14-1.81-.14-1.81s-.21-2.43.32-3.56c0 0 .1-4.42 4.76-5.67 0 0 4.08-2.68 8.13.61 0 0 4.23 2.15 4.11 6.52 0 0-.71 4.11.03 5 0 0 1.15-1.03 1.03.78-.12 1.81-.29 1.7-.29 1.7s-.4.5-.3.27c.77-1.69 1.45-2.96 2.87-4.46 1.61-1.7 1.13-3.69 1.06-5.24-.07-1.56-.35-3.39-1.63-3.61-1.28-.23-1.56-2.33-2.69-3.54s-4.54-2.75-6.66-2.84c-2.13-.09-2.84.65-5.53.92-2.69.27-4.87 2.48-5.72 4.04-.85 1.56-1.94 2.06-2.55 4.04-.61 1.98.47 3.97-.24 5.03s-.07 1.93 1.35 3.63c1.42 1.7.33-.51.33-.51Z"/><path d="M398.52 110.88s.69-1.01 1.71.51c0 0 .72-.79.05-1.81-.67-1.02-.14-1.81-.14-1.81s-.21-2.43.32-3.56c0 0 .1-4.42 4.76-5.67 0 0 4.08-2.68 8.13.61 0 0 4.23 2.15 4.11 6.52 0 0-.71 4.11.03 5 0 0 1.15-1.03 1.03.78-.12 1.81-.29 1.7-.29 1.7s-.4.5-.3.27c.77-1.69 1.45-2.96 2.87-4.46 1.61-1.7 1.13-3.69 1.06-5.24-.07-1.56-.35-3.39-1.63-3.61-1.28-.23-1.56-2.33-2.69-3.54s-4.54-2.75-6.66-2.84c-2.13-.09-2.84.65-5.53.92-2.69.27-4.87 2.48-5.72 4.04-.85 1.56-1.94 2.06-2.55 4.04-.61 1.98.47 3.97-.24 5.03s-.07 1.93 1.35 3.63c1.42 1.7.33-.51.33-.51Z" style="stroke-width:.5px;stroke:#90551d;fill:none"/><path class="cls-44" d="M260.82 24.5s9.64 2.3 17.58-3.1c0 0 13.35 6.54 27.52-1.42 0 0 9.92 8.49 26.93 1.12 0 0 17.6 6.24 28.35-.57 0 0 18.12 5.67 33.43-1.13 0 0 13.66 6.24 26.11-1.7 0 0 11.88 10.21 31.16 0m-173.51.5s13.35 6.54 27.52-1.42c0 0 9.92 8.49 26.93 1.12 0 0 17.6 6.24 28.35-.57 0 0 18.12 5.67 33.43-1.13 0 0 13.66 6.24 26.11-1.7 0 0 11.88 10.21 31.16 0 0 0 9.07 6.24 28.35 1.7"/><path class="cls-40" d="M593.38 208.65s1.7-8.08 9.07-11.48m-4.23 11.14s-4.84.59-5.3.61m-2.31 2.36 15.69-1.22m-13.71 3.97s4.46-.55 7.53-.95c3.06-.4 5.73-.75 6.52-2.17"/><path class="cls-62" d="m599.45 213.46-1.7 6.22s2.44-.48 3.63-2.65 1.25-3.15 2.1-4.44"/><path class="cls-40" d="m599.45 213.46-1.7 6.22s2.44-.48 3.63-2.65 1.25-3.15 2.1-4.44m4.31 24.96s3.27.54 7.2.27m-7.09 2.06s3.4.96 6.97.4m-7.29 1.99s3.49 1.3 7.23 1.08m-61.95-9.82s-6.81-.45-9.27-1.46m8.84 4.54s-5.28-.45-8.79-1.36m.23 3.3s3.77 1.48 8.16 1.46m-24.1-40.83s.68-.34 2.27-.45c0 0 7.94-4.42 8.39-4.88m-5.95 6.8 7.09-4.37m-5.78 7.48 6.07-4.08m-4.93 7.37 5.1-3.86m-375 8.05s2.41.11 6.86-1.87c4.45-1.99 6.46-2.33 6.46-2.33m-12.87 6.58s3.61-.68 6.81-2.27c3.2-1.59 5.16-2.3 5.95-2.45m-12.53 7.1s2.98-.21 6.52-2.1c3.54-1.89 4.76-2.49 6.01-2.72"/><path class="cls-60" d="M265.36 278.22s8.36-8.93 10.49-11.62c0 0-2.27-1.99-3.54-3.97-1.28-1.98-1.54-3.69-1.54-3.69l-2.15 1.7s-3.26 12.19-3.26 17.57Z"/><path class="cls-41" d="M265.36 278.22s8.36-8.93 10.49-11.62c0 0-2.27-1.99-3.54-3.97-1.28-1.98-1.54-3.69-1.54-3.69l-2.15 1.7s-3.26 12.19-3.26 17.57Z"/><path class="cls-59" d="M276 266.02s3.26-2.69 4.96-3.83c1.7-1.13 2.84-.29 5.81-1.56 2.98-1.26 4.37-2.92 5.27-3.94.91-1.02 1.19-1.76 1.02-2.1-.17-.34-.6-.32-.6-.32s1.51-1.26 1.96-1.66.39-.95.08-1.13c-.31-.18-.82-.11-.82-.11s.57-.57 1.53-1.71c.96-1.13 1.53-2.38.91-2.89-.62-.51-2.1.62-2.1.62s.34-.51 0-.88-1.18-.34-3.57 1.66c-2.39 2-5.79 4.1-7.35 4.15-1.55.06-3.48-.76-4.67-.61 0 0 .4-1.13 1.59-2.27 1.19-1.13 2.15-3.47 1.13-4.67 0 0-.41 1.08-2.3 2.89s-3.79 3.95-5.3 6.97c-1.51 3.02-2.86 4.93-2.86 4.93l1.61 4.61 1.72 2.76.37.28 1.59-1.22Z"/><path class="cls-41" d="M276 266.02s3.26-2.69 4.96-3.83c1.7-1.13 2.84-.29 5.81-1.56 2.98-1.26 4.37-2.92 5.27-3.94.91-1.02 1.19-1.76 1.02-2.1-.17-.34-.6-.32-.6-.32s1.51-1.26 1.96-1.66.39-.95.08-1.13c-.31-.18-.82-.11-.82-.11s.57-.57 1.53-1.71c.96-1.13 1.53-2.38.91-2.89-.62-.51-2.1.62-2.1.62s.34-.51 0-.88-1.18-.34-3.57 1.66c-2.39 2-5.79 4.1-7.35 4.15-1.55.06-3.48-.76-4.67-.61 0 0 .4-1.13 1.59-2.27 1.19-1.13 2.15-3.47 1.13-4.67 0 0-.41 1.08-2.3 2.89s-3.79 3.95-5.3 6.97c-1.51 3.02-2.86 4.93-2.86 4.93l1.61 4.61 1.72 2.76.37.28 1.59-1.22Z"/><path class="cls-60" d="M477.52 277.1s-8.36-8.93-10.49-11.62c0 0 2.27-1.99 3.54-3.97 1.28-1.98 1.54-3.69 1.54-3.69l2.15 1.7s3.26 12.19 3.26 17.57Z"/><path class="cls-41" d="M477.52 277.1s-8.36-8.93-10.49-11.62c0 0 2.27-1.99 3.54-3.97 1.28-1.98 1.54-3.69 1.54-3.69l2.15 1.7s3.26 12.19 3.26 17.57Z"/><path class="cls-59" d="M466.88 264.91s-3.26-2.69-4.96-3.83c-1.7-1.13-2.84-.29-5.81-1.56-2.98-1.26-4.37-2.92-5.27-3.94-.91-1.02-1.19-1.76-1.02-2.1.17-.34.6-.33.6-.33s-1.51-1.26-1.96-1.66c-.45-.4-.39-.95-.08-1.13.31-.18.82-.11.82-.11s-.57-.57-1.53-1.71c-.96-1.13-1.53-2.38-.91-2.89.62-.51 2.1.62 2.1.62s-.34-.51 0-.88 1.18-.34 3.57 1.66c2.39 2 5.79 4.09 7.35 4.15 1.55.06 3.48-.76 4.67-.61 0 0-.4-1.13-1.59-2.27-1.19-1.13-2.16-3.47-1.13-4.67 0 0 .41 1.08 2.3 2.89 1.89 1.82 3.79 3.95 5.3 6.98 1.51 3.02 2.85 4.93 2.85 4.93l-1.61 4.61-1.73 2.76-.37.28-1.59-1.22Z"/><path class="cls-41" d="M466.88 264.91s-3.26-2.69-4.96-3.83c-1.7-1.13-2.84-.29-5.81-1.56-2.98-1.26-4.37-2.92-5.27-3.94-.91-1.02-1.19-1.76-1.02-2.1.17-.34.6-.33.6-.33s-1.51-1.26-1.96-1.66c-.45-.4-.39-.95-.08-1.13.31-.18.82-.11.82-.11s-.57-.57-1.53-1.71c-.96-1.13-1.53-2.38-.91-2.89.62-.51 2.1.62 2.1.62s-.34-.51 0-.88 1.18-.34 3.57 1.66c2.39 2 5.79 4.09 7.35 4.15 1.55.06 3.48-.76 4.67-.61 0 0-.4-1.13-1.59-2.27-1.19-1.13-2.16-3.47-1.13-4.67 0 0 .41 1.08 2.3 2.89 1.89 1.82 3.79 3.95 5.3 6.98 1.51 3.02 2.85 4.93 2.85 4.93l-1.61 4.61-1.73 2.76-.37.28-1.59-1.22Z"/><path class="cls-44" d="M280.96 92.28s-3.22 5.09-14.15 6.04c0 0-4.5 3.18-12.87 6.52m26.63-8.54s-1.97 3-12.7 4.11c0 0-3.43 3.65-10.94 5.88m-3.1 2.42 18.18 1.11 8.54 5.09m-20.27 14.91s6.09-3.04 11.64-8.14l7.06-2.23m-19.33 14.2s5.16-2.23 11.61-7.64l7.13-2.53"/><path class="cls-58" d="M67.79 302.59c-1.77-1.53-1.89-4.56-1.26-7.24.63-2.68 3.3-5.35 4.88-6.61 1.57-1.26 3.15-2.05 3.93-1.26.79.79 0 1.73 0 1.73s1.73.03 1.48 1.59c0 0 1.76.86 1.13 2.25 0 0 1.36.73.88 2.16-.48 1.43-3.21 3.82-5.1 5.33-1.89 1.51-4.82 3.02-5.95 2.05Z"/><path d="M67.79 302.59c-1.77-1.53-1.89-4.56-1.26-7.24.63-2.68 3.3-5.35 4.88-6.61 1.57-1.26 3.15-2.05 3.93-1.26.79.79 0 1.73 0 1.73s1.73.03 1.48 1.59c0 0 1.76.86 1.13 2.25 0 0 1.36.73.88 2.16-.48 1.43-3.21 3.82-5.1 5.33-1.89 1.51-4.82 3.02-5.95 2.05Z" style="stroke-width:1.11px;stroke:#3c1028;fill:none"/><path class="cls-40" d="m71.89 291.81 3.89-2.96m-2.55 4.49 3.77-2.49m-2.52 4.65 3.52-2.4"/><path class="cls-56" d="M78.61 316.8s-5.83-4.93-7.76-6.68c-1.93-1.75-2.56-2.99-1.69-4.25.88-1.26 2.97-2.86 4.32-3.29 1.35-.42 2.63.79 5.4 3.35 2.77 2.56 9.31 8.03 9.31 8.03l-2.29 3.64-7.29-.81Z"/><path class="cls-20" d="M78.61 316.8s-5.83-4.93-7.76-6.68c-1.93-1.75-2.56-2.99-1.69-4.25.88-1.26 2.97-2.86 4.32-3.29 1.35-.42 2.63.79 5.4 3.35 2.77 2.56 9.31 8.03 9.31 8.03l-2.29 3.64-7.29-.81Z"/><path class="cls-58" d="M89.27 311.27s-2.33-.61-4.49-.14c0 0 3.67.34 2.36 2.29-1.31 1.96-3.99 2.29-6.52 2.55-2.53.25-4.05-.72-4.55-.57-.51.15-1.06.97.12 1.67 1.18.69 2.7 1.15 2.7 1.15s-.67 1.33.54 1.96c1.21.63 1.98.47 1.98.47s.24 1.01 1.86.88c0 0 1.08 1.08 3.24.47 2.16-.61 4.72-1.62 5.94-3.64 0 0-.34-3.58-3.17-7.09Z"/><path class="cls-20" d="M89.27 311.27s-2.33-.61-4.49-.14c0 0 3.67.34 2.36 2.29-1.31 1.96-3.99 2.29-6.52 2.55-2.53.25-4.05-.72-4.55-.57-.51.15-1.06.97.12 1.67 1.18.69 2.7 1.15 2.7 1.15s-.67 1.33.54 1.96c1.21.63 1.98.47 1.98.47s.24 1.01 1.86.88c0 0 1.08 1.08 3.24.47 2.16-.61 4.72-1.62 5.94-3.64 0 0-.34-3.58-3.17-7.09Zm-11.24 6.55s2.78.81 6.79-.95m-5.44 3.37s3.12.4 6.11-1.69m-2.5 2.77s1.52-.1 3.51-1.2"/><path class="cls-40" d="M73.14 277.11s9.21 2.38 17.86-.72"/><path class="cls-41" d="M284.9 254.01s5.67-2.5 9.3-6.69m-8.9 8.9s5.16-2.44 8.79-5.16m-8.99 7.66s4.51-2.33 7.29-4.25M457.85 253s-4.76-2.16-9.13-6.86m8.62 9.07s-5.51-2.5-8.09-4.93m8.22 7.41s-4.5-2.37-7-4.41"/><path class="cls-23" d="M607.8 127.37c.17 0 .3-.13.3-.3s-.13-.3-.3-.3-.3.13-.3.3.13.3.3.3Zm-9.56-.22c.16 0 .3-.13.3-.3s-.13-.3-.3-.3-.3.13-.3.3.13.3.3.3Zm58.66-.02a.29.29 0 1 0 0-.58.29.29 0 0 0 0 .58Zm-10.77-.11a.29.29 0 1 0 0-.58.29.29 0 0 0 0 .58Zm41.99-.66c.1 0 .18-.08.18-.18s-.08-.18-.18-.18-.18.08-.18.18.08.18.18.18Zm9.58-.94c.1 0 .18-.08.18-.18s-.08-.18-.18-.18-.18.08-.18.18.08.18.18.18Z"/><path d="M144.23 159.1s15.83 13.82 37.09-.35" style="stroke-dasharray:0 0 6.11 5.11;stroke-width:5.4px;stroke:#be3234;fill:none"/><path class="cls-60" d="M165 230.47v6.1h5.81v-6.1H165z"/><path class="cls-59" d="M207.81 201.98s-2.56-4.55.45-9.04c2.59-3.86 2.81-6.76 2.67-8.32-.14-1.56-.04-2.05.95-1.75.99.3 1.75 2 1.58 4.83-.17 2.84-1.02 5.1-1.02 5.1"/><path class="cls-40" d="M207.81 201.98s-2.56-4.55.45-9.04c2.59-3.86 2.81-6.76 2.67-8.32-.14-1.56-.04-2.05.95-1.75.99.3 1.75 2 1.58 4.83-.17 2.84-1.02 5.1-1.02 5.1m2.87 4.2s-1.31.75-2.53 2.17c-1.21 1.42 0 2.01 1.28 1.23 1.27-.78 1.59-1.23 1.59-1.23m1.3-9.24s-1.22-.58-2.55.84c-1.34 1.42-2.04 2.79-2.15 3.81-.11 1.02.73 1.39 1.38.72.66-.66 1.61-1.6 2.27-2.84m-2.52-3.44s.73-2.89 2.8-3.18"/><path d="M102.28 323.9c1.64 6.18 3.66 15.08 5.4 26.52" style="stroke-dasharray:0 0 0 10.83;stroke-linecap:round;stroke-linejoin:round;stroke-width:5.4px;stroke:#be3234;fill:none"/><g style="clip-path:url(#clippath-12)"><path class="cls-21" d="M99.11 313.54h0m9.33 42.23h0"/><path d="M66.76 420.1c7.73-.11 18.43-.71 29.61-2.74" style="stroke-dasharray:0 0 0 11.91;stroke-linecap:round;stroke-linejoin:round;stroke-width:5.4px;stroke:#be3234;fill:none"/><path class="cls-21" d="M54.86 419.86h0m47.35-3.69h0"/></g><path d="M66.67 327.75c1.33-.36 2.78-.71 4.34-1.02" style="stroke-linecap:round;stroke-linejoin:round;stroke-width:5.4px;stroke:#be3234;stroke-dasharray:0 0 0 8.92;fill:none"/><path class="cls-21" d="M58.26 330.7h0m17.15-4.69h0"/><path d="M80.37 270.88c-2.81-.13-5.14-.64-7.02-1.29" style="stroke-dasharray:0 0 0 14.32;stroke-linecap:round;stroke-linejoin:round;stroke-width:5.4px;stroke:#be3234;fill:none"/><path d="M93.56 267.47s-2.01 1.86-6.28 2.84" style="stroke-dasharray:0 0 0 13.9;stroke-linecap:round;stroke-linejoin:round;stroke-width:5.4px;stroke:#be3234;fill:none"/><path class="cls-21" d="M67.19 266.06h0m13.18 4.82h0m13.18-3.4h0"/><path class="cls-20" d="M53.72 322.9s15.51-2.28 27.56-2"/><path class="cls-56" d="M74.16 411.91s8.6-.27 16.31-1.46"/><path class="cls-40" d="M74.16 411.91s8.6-.27 16.31-1.46"/><path class="cls-37" d="M212.16 53.22v22.91"/><path class="cls-63" d="M212.16 54.24c.56 0 1.02-.46 1.02-1.02s-.46-1.02-1.02-1.02-1.02.46-1.02 1.02.46 1.02 1.02 1.02ZM212.16 77.15c.56 0 1.02-.46 1.02-1.02s-.46-1.02-1.02-1.02-1.02.46-1.02 1.02.46 1.02 1.02 1.02Z"/><path class="cls-37" d="M223.6 64.1h-22.91"/><path class="cls-63" d="M222.58 64.1c0 .56.46 1.02 1.02 1.02s1.02-.46 1.02-1.02-.46-1.02-1.02-1.02-1.02.46-1.02 1.02ZM199.67 64.1c0 .56.46 1.02 1.02 1.02s1.02-.46 1.02-1.02-.46-1.02-1.02-1.02-1.02.46-1.02 1.02Z"/><path class="cls-40" d="M63.79 218s16.44-3.97 33.74-.57m-22.96-12.19s.14 3.69.71 10.91m9.64-11.48s1.13 1.13 1.7 11.2"/><path class="cls-60" d="M80.83 213.96c1.51 0 2.73-1.22 2.73-2.73s-1.22-2.73-2.73-2.73-2.73 1.22-2.73 2.73 1.22 2.73 2.73 2.73ZM168.46 96.15c1.51 0 2.73-1.22 2.73-2.73s-1.22-2.73-2.73-2.73-2.73 1.22-2.73 2.73 1.22 2.73 2.73 2.73ZM69.92 225.02c1.51 0 2.73-1.22 2.73-2.73s-1.22-2.73-2.73-2.73-2.73 1.22-2.73 2.73 1.22 2.73 2.73 2.73Z"/><path class="cls-63" d="M81.54 223.94c1.51 0 2.73-1.22 2.73-2.73s-1.22-2.73-2.73-2.73-2.73 1.22-2.73 2.73 1.22 2.73 2.73 2.73ZM70.63 214.81c1.51 0 2.73-1.22 2.73-2.73s-1.22-2.73-2.73-2.73-2.73 1.22-2.73 2.73 1.22 2.73 2.73 2.73ZM90.76 214.67c1.51 0 2.73-1.22 2.73-2.73s-1.22-2.73-2.73-2.73-2.73 1.22-2.73 2.73 1.22 2.73 2.73 2.73ZM179.8 96.84c1.51 0 2.73-1.22 2.73-2.73s-1.22-2.73-2.73-2.73-2.73 1.22-2.73 2.73 1.22 2.73 2.73 2.73ZM154.29 96.49c1.51 0 2.73-1.22 2.73-2.73s-1.22-2.73-2.73-2.73-2.73 1.22-2.73 2.73 1.22 2.73 2.73 2.73Z"/><path class="cls-60" d="M93.03 224.74c1.51 0 2.73-1.22 2.73-2.73s-1.22-2.73-2.73-2.73-2.73 1.22-2.73 2.73 1.22 2.73 2.73 2.73Z"/><path class="cls-22" d="m37.06 170.38 4.18 12.85"/><path class="cls-63" d="M37.24 170.95c.32-.1.49-.44.39-.76a.602.602 0 0 0-.76-.39c-.32.1-.49.44-.39.76s.44.49.76.39ZM41.42 183.8c.32-.1.49-.44.39-.76a.602.602 0 0 0-.76-.39c-.32.1-.49.44-.39.76.1.32.44.49.76.39Z"/><path class="cls-22" d="m45.46 174.39-12.85 4.18"/><path class="cls-63" d="M44.89 174.58c.1.32.44.49.76.39.32-.1.49-.44.39-.76a.602.602 0 0 0-.76-.39c-.32.1-.49.44-.39.76ZM32.03 178.76c.1.32.44.49.76.39.32-.1.49-.44.39-.76a.602.602 0 0 0-.76-.39c-.32.1-.49.44-.39.76Z"/><path class="cls-39" d="M534.14 172.51v22.91"/><path class="cls-64" d="M534.14 173.53c.56 0 1.02-.46 1.02-1.02s-.46-1.02-1.02-1.02-1.02.46-1.02 1.02.46 1.02 1.02 1.02ZM534.14 196.44c.56 0 1.02-.46 1.02-1.02s-.46-1.02-1.02-1.02-1.02.46-1.02 1.02.46 1.02 1.02 1.02Z"/><path class="cls-39" d="M545.59 183.39h-22.91"/><path class="cls-64" d="M544.57 183.39c0 .56.46 1.02 1.02 1.02s1.02-.46 1.02-1.02-.46-1.02-1.02-1.02-1.02.46-1.02 1.02ZM521.66 183.39c0 .56.46 1.02 1.02 1.02s1.02-.46 1.02-1.02-.46-1.02-1.02-1.02-1.02.46-1.02 1.02Z"/><path class="cls-44" d="m508.07 397.04 21.26 15.03m.83-16.02s17.29 11.34 22.26 15.59m3.26-14.46s15.17 10.77 22.26 16.44m10.35-15.33s-19.14 10.51-25.66 14.33m1.56-15.31s-24.24 10.92-29.06 14.18m-8.22-15.31s-18.1 13.18-21.66 18.57m38.96-18.71s-15.59 9.64-22.68 16.58m54.43-14.88s-16.44 8.08-25.8 14.03m29.48 2.13 12.76-8.08m-20.53-8.22s13.21 9.51 21.26 17.86m-45.81-19.14s13.89 12.21 18 16.3m-46.92-16.87s15.17 9.64 22.82 16.16m-35.58-7.09s5.67 2.98 12.62 8.36"/><path class="cls-40" d="M78.96 338.76s2.84 49.36-2.27 72.88m12.76-72.88s3.12 44.26-2.27 71.74m-37.68 3.97s31.45 1.98 56.39-4.54m15.03 0s43.94 7.37 77.11-1.13M91.08 309.9s2.88 1.39 5.98 15.01c3.1 13.62 3.95 29.78 7.91 37.72m-1.63-52.23s1.7.55 5.67 15.59c3.97 15.04 7.37 29.5 7.37 29.5m33.17-101.21s19.7-1.84 20.13-1.84m-19.54-1.56s14.72-1.7 21.38-.85"/><path class="cls-64" d="M167.04 253.42s1.2-.15 9.94-10.41 27.28-34.75 27.28-34.75 1.35.19-.79 8.59-7.81 28.71-9.49 31.61-10.26 5.55-16.53 6.19c-6.28.64-8.57.64-10.39-1.22Z"/><path class="cls-39" d="M167.04 253.42s1.2-.15 9.94-10.41 27.28-34.75 27.28-34.75 1.35.19-.79 8.59-7.81 28.71-9.49 31.61-10.26 5.55-16.53 6.19c-6.28.64-8.57.64-10.39-1.22Z"/><path class="cls-64" d="M501.24 201.95c.57-8.78-1.78-15.9-1.78-15.9s3.48 3.97 4.9 8.25"/><path class="cls-44" d="M501.24 201.95c.57-8.78-1.78-15.9-1.78-15.9s3.48 3.97 4.9 8.25"/><path class="cls-64" d="M502.38 180.4s.45 2.27 3.57 8.79"/><path class="cls-44" d="M502.38 180.4s.45 2.27 3.57 8.79"/><path class="cls-64" d="M503.23 178.14s2.43 2.27 4.13 7.37"/><path class="cls-44" d="M503.23 178.14s2.43 2.27 4.13 7.37"/></svg>