<?xml version="1.0" encoding="utf-8"?>
<svg version="1.1" id="Слой_1" xmlns="http://www.w3.org/2000/svg" xmlns:xlink="http://www.w3.org/1999/xlink" x="0px" y="0px"
	 viewBox="0 0 750 428" style="enable-background:new 0 0 750 428;" xml:space="preserve">
<style type="text/css">
	.st0{clip-path:url(#SVGID_2_);fill:#485D94;}
	.st1{clip-path:url(#SVGID_2_);fill:#57679B;}
	.st2{clip-path:url(#SVGID_2_);fill:#373BBC;}
	.st3{clip-path:url(#SVGID_2_);fill:#6071A9;}
	.st4{clip-path:url(#SVGID_2_);fill:#6E7DB4;}
	.st5{fill:#6E7DB4;}
	.st6{fill:#373BBC;}
	.st7{fill:#82705A;}
	.st8{fill:none;stroke:#82705A;stroke-width:2;}
	.st9{clip-path:url(#SVGID_4_);fill:#6F2429;}
	.st10{fill:#832D2C;}
	.st11{clip-path:url(#SVGID_6_);fill:#1E2551;}
	.st12{clip-path:url(#SVGID_6_);fill:#82705A;}
	.st13{clip-path:url(#SVGID_6_);fill:#263796;}
	.st14{fill:#B6B0AC;}
	.st15{clip-path:url(#SVGID_8_);fill:#82705A;}
	.st16{fill:#C6A889;}
	.st17{clip-path:url(#SVGID_10_);fill:#82705A;}
	.st18{clip-path:url(#SVGID_12_);fill:#82705A;}
	.st19{clip-path:url(#SVGID_14_);fill:#82705A;}
	.st20{clip-path:url(#SVGID_16_);fill:#82705A;}
	.st21{clip-path:url(#SVGID_16_);fill:#373BBC;}
</style>
<g>
	<g>
		<defs>
			<rect id="SVGID_1_" x="0.1" width="749.9" height="428"/>
		</defs>
		<clipPath id="SVGID_2_">
			<use xlink:href="#SVGID_1_"  style="overflow:visible;"/>
		</clipPath>
		<polygon class="st0" points="-0.1,0 -0.1,428 749.9,428 749.9,0 -0.1,0 		"/>
		<path class="st1" d="M776.6,175.8l-130.8,12.9c0,0-51.1-25.7-51.9-81.9C593.2,50.7,623.8,10.8,655.6,0
			c31.7-10.8,93.5-28.3,116.2,25.2L776.6,175.8L776.6,175.8z"/>
		<path class="st2" d="M645.7,189.7l-0.3-0.1c-0.1-0.1-13.1-6.7-25.9-20.1c-11.9-12.4-26.1-33.3-26.5-62.7
			c-0.4-26.3,6.1-50.9,18.7-71c11.4-18.1,26.8-31.2,43.5-36.8c17.3-5.9,40-12.5,61.9-11.6c26.9,1.2,45.6,13.7,55.5,37.3l0.1,0.2
			l0,0.2l4.9,151.6L645.7,189.7z M712.9-10.6c-20.2,0-40.9,6.1-57,11.6c-16.3,5.5-31.4,18.3-42.5,36C601,56.7,594.6,80.9,595,106.8
			c0.8,52.9,47.2,78.8,51.1,80.9l129.5-12.8l-4.9-149.5C761.1,2.7,743-9.4,717-10.5C715.7-10.6,714.3-10.6,712.9-10.6z"/>
		<path class="st1" d="M57.6,224.2c0,0,54.4-2.3,69.2-56.1c14.7-53.9-4.5-108.5-53.3-125.3c-46.6-16-113.3-8.1-123,78.8
			c-7.4,65.8,50.9,96.7,50.9,96.7"/>
		<path class="st2" d="M57.6,225.2l-0.1-2c0.1,0,13.6-0.7,28.7-7.8c13.9-6.6,32-20.2,39.5-47.6c7.3-26.5,6.3-53.5-2.8-75.9
			c-9.5-23.6-26.7-40.2-49.9-48.2C42.9,33.3,11.8,35.3-10,49.1c-21.7,13.7-34.7,38.2-38.6,72.6c-3.8,33.6,10.1,57.8,22.4,72.2
			c13.4,15.6,27.8,23.4,28,23.5l-0.9,1.8c-0.1-0.1-14.9-8-28.5-23.9c-12.6-14.7-26.8-39.4-22.9-73.8c3.9-35.1,17.2-60,39.5-74.1
			c22.3-14.1,54-16.2,84.9-5.6C97.5,50,115.2,67,124.9,91.1c9.2,22.8,10.2,50.3,2.8,77.2c-7.7,28.2-26.4,42.2-40.6,48.9
			C71.6,224.5,58.2,225.2,57.6,225.2z"/>
		<polygon class="st3" points="-30.4,452.7 92.9,452.2 134,202.3 124.7,207 118.1,212.6 116.2,216.1 110.5,219.7 101.7,228.2 
			91.5,229.6 80.1,232 68.8,232.5 60.9,231 55.8,225.7 58,209.3 65.1,208.3 71.1,202.5 73.6,200.8 75.1,205.9 76.2,208.1 
			79.3,208.7 80.7,203.6 80.7,192.3 84.1,197.4 85.8,199.6 88.6,199.1 90.6,196.2 90.6,189.9 89.8,183.2 92.1,185.7 94.3,187.1 
			97.1,186 97.7,182.1 96.3,176.4 93.2,169.6 96.6,171.5 99.2,170.1 99.2,165.8 97.1,159.4 91.5,154.5 94.3,150.3 97.7,144.6 
			104.8,127.6 105.1,112.9 100.6,102 92.6,95.3 90.9,84 84.1,76.5 75.6,73.7 66.5,65.3 58.1,63.8 50.1,64.1 44.4,68.7 35.4,64.7 
			24.6,64.7 13.2,68.1 8.4,75.1 5.6,79.4 -4.3,82.9 -14,92.1 -17.1,102.7 -16.8,110.6 -20.8,115.2 -24.2,122 -24.2,133.2 
			-19.9,139.5 -17.1,146 -19.6,150.2 -19.1,160.5 -14,167.3 -7.1,169.6 -7.7,176.4 -3.2,184.3 3,186 9.8,183.8 -1.5,232 -6.6,246.6 
			-12.3,254.6 -26.4,270.5 -30.4,452.7 		"/>
		<polygon class="st3" points="663.2,170.1 656.1,165.1 648.2,148.8 642,133.9 639.7,116.2 632.9,105.5 632.3,92.1 629.5,85 
			625,73.8 626.7,59 633.5,51 630.6,48.2 631.2,41.1 635.7,35.4 647.1,33.5 650.5,34 659,29 664.1,25.5 669.2,19.8 683.9,16 
			700.4,15.4 713.4,20.5 722.5,22.7 731.3,24.5 738.9,31.2 742.6,35.8 745.1,45.4 753.1,51.7 756.8,57.9 759.6,72.3 761,82.9 
			761.6,89.7 759.9,95.9 759.9,102.1 758.8,110.1 751.1,119.1 744.6,125.4 741.2,138.4 737.2,145.2 729.8,152 724.7,154.5 
			721.9,161.6 720.2,163.4 712.3,192.8 776,199.9 776.9,450.8 618.7,450.8 632.3,201.9 642,197.4 654.4,193.4 661.2,184.9 
			663.2,170.1 		"/>
		<polygon class="st4" points="759.9,334.6 729.8,310.2 726.4,306.1 727.6,300.6 754.2,268.2 757.6,116.9 745.5,123.7 741.7,137.3 
			734.9,147.4 725.6,153.7 720.8,162.8 713.4,188.9 698.7,252.4 691.9,283.5 683.9,282.4 677.4,282.4 675.4,284.7 683.3,286.9 
			693.6,291.5 691.3,290.6 689.6,297.7 667.5,296.6 660.7,297.1 663.2,301.1 683.1,303.4 662.4,304 659.5,304.5 663.2,309.1 
			680.3,311.8 693.6,316.4 667.5,316.4 661.2,318.7 666.9,321 683.9,323.2 668.9,326.6 652.7,335.7 650.5,345.3 666.9,341.9 
			682.2,339.1 678.8,349.9 637.7,434.3 653.9,436 660.4,423.6 687.3,361.2 695.3,343.1 703.8,361.8 718.5,371.3 724.7,368.5 
			717.9,365.7 709.4,345.3 704.9,334.6 713.4,344.2 719.9,351.5 729.3,375.4 731.5,386.2 727,417.9 723.6,437.7 758.2,435.5 
			759.9,334.6 		"/>
		<path class="st2" d="M622.5,433.9l-2-0.3c0.1-0.6,9-56.4,11.8-97.3c2.8-40.7,2.9-95.9,1.1-114.4c-0.6-6.4-1.2-9.9-1.7-12.3
			c-0.7-4.1-0.7-4.4,1.5-7.8l0.3-0.4c2.2-3.4,5.7-4.2,9.6-5.2c3.3-0.8,7-1.7,11.1-4.2c1.5-0.9,2.7-2.2,3.6-3.7
			c-4.8,0.5-19.8,2.3-34.5,7.2c-5.8,1.9-13.8,6.6-21.8,12.1c0.6,0.4,6.1,4.9,11.6,19.2l0.1,0c0,0.1,0,0.3,0,0.4
			c1.4,3.8,2.9,8.3,4.2,13.5c4.5,17.8,8.8,40.1,4.5,45.7c-0.7,0.9-1.7,1.4-2.9,1.4v-2c0.5,0,0.9-0.2,1.3-0.7
			c2.9-3.8,1.1-20.2-4.8-44c-0.6-2.4-1.2-4.7-1.9-6.7c1.9,48.1-2.6,141.6-2.7,142.6l-2-0.1c0.1-1,5-104.1,2.3-149.3
			c-2.3-6.1-4.7-10.4-6.6-13.2l-1.7,150.2l-2,0l1.7-152.5l0.3,0c-1.6-2.1-2.7-2.9-2.7-2.9l1.1-1.5c-16.3,11.1-33.1,25.4-33.3,25.6
			l-1.3-1.5c1.5-1.3,37.8-32.2,55.9-38.2c16.9-5.6,34-7.2,36.3-7.4c2.8-6,2.8-13.8,2.7-16c-2-1.1-8.9-5.3-12.2-15.4
			c-1.2-3.8-2.7-6.9-4.1-9.9c-2.8-5.9-5.4-11.4-5.8-21.2c-0.3-8.3-2.9-11.3-5-13.8c-1.5-1.8-2.9-3.4-2.9-6.4c0-2.4-0.3-5.9-0.6-9.7
			c-0.2-1.7-0.3-3.5-0.4-5.3c-5.3-6.2-7.4-13.2-6.6-22c0.7-7.7,5.4-13.2,7.6-15.3c-0.7-0.5-1.5-1.4-2-2.7c-1-2.6-0.4-5.9,1.6-9.8
			c4.1-7.8,13.8-7.3,18.9-5.8c2.5-3,9.2-5.3,11.1-5.9c7-11.7,21.5-12.1,34.4-12.4c7.8-0.2,12.1,1.9,15.8,3.7
			c3.1,1.5,5.9,2.9,10.3,2.9c10.3,0,21.3,8.6,22,17c0.2,2.6,1,4.4,2.3,5.9c0.9,0.4,1.9,0.9,2.9,1.6l-0.5,0.8
			c0.4,0.4,0.9,0.7,1.4,1.1c1.5,1.2,3.3,2.7,5,4.5c3.4,3.8,4.3,10.8,5.2,18.1c0.4,3.3,0.8,6.7,1.5,9.8c0.1,0.2,0.2,0.5,0.3,0.7
			l-0.1,0.1c0.1,0.6,0.3,1.2,0.4,1.8c1.7,6,0.3,9.4-0.8,12.2c-0.4,1-0.7,1.8-0.9,2.6c0,0,0,0,0,0l-0.1,0.1c-0.2,1-0.2,2,0.3,3.1
			c2.6,6.4-3.7,15.9-11.2,20.7c-4.9,3.1-5.5,7.3-6.1,11.7c-0.3,1.9-0.6,3.8-1.2,5.7c-2.1,6.5-9,12.4-14.9,15.3
			c-2.2,1.1-2.9,3.1-3.6,5.2c-0.7,2-1.4,4.1-3.4,5.5l0.1,0c-9.5,31.9-29.8,131.9-30,132.9l-2-0.4c0.1-0.5,5.9-29.1,12.7-60.5
			c-3.7,1.9-13.3,9.6-25.6,39.2l-1.8-0.8c14-33.7,24.7-39.8,28-40.9c0.8-3.7,1.6-7.4,2.5-11.2c-2.7,1.9-8.3,6.4-15.3,14.7
			c-8.9,10.6-21.8,29.8-32.6,60.7l-1.9-0.7c8.3-23.8,17.7-40.8,26.2-52.7l-22.7-3.7l-20.9,15.9l-0.4-0.5c0.1,24.1-0.6,54.5-2.3,79.5
			C631.6,377.5,622.6,433.4,622.5,433.9z M660.2,166.8c1.8,1.4,3.1,2,3.1,2l0.6,0.2l0,0.6c0,0.7,1.1,18.2-8.4,24.2
			c-4.3,2.7-8.4,3.7-11.7,4.5c-3.9,0.9-6.6,1.6-8.4,4.3l-0.3,0.4c-1.9,2.8-1.9,2.8-1.2,6.3c0.4,2.2,1.1,6,1.7,12.4
			c0.7,6.9,1.1,19,1.2,33.5l20.8-15.8l24.5,4c12.1-16.5,21.9-22.5,22.9-23.1c4.8-21.5,9.7-42.3,13.2-54.6c-0.4,0.1-0.8,0.2-1.3,0.3
			c-3.2,0.5-5.8-0.1-7.7-1.8c-2.3-2-3.6-5.3-4.1-10.2c-3.8,7.9-13.3,25.4-23.4,27l-0.3-2c11.3-1.8,22.6-27.3,23.5-29.5
			c0.2-9.2,4.7-11.1,5.7-11.5c1.9-1.2,2.5-3.6,2.8-5.4c0.3-2.4,0-5-0.8-7.5c-0.1,3.5-0.7,7.3-2.7,8.8c-0.7,0.5-2,1-3.8,0.3l0.8-1.8
			c1,0.4,1.5,0.2,1.8,0c1.9-1.4,2.1-7.7,1.8-12.1c-0.7-1.2-1.5-2.3-2.5-3.2c-3.6-3.6-4.2-6.2-4.7-8.5c-0.4-1.7-0.7-3.2-2.4-5.1
			c-2.1-2.3-2.4-4.2-2.7-6.1c-0.3-2.2-0.6-4.2-3.8-7.2c-1.5-1.4-3-3.1-4.6-4.9c-5.4-6.1-12.1-13.8-23.4-17.2
			c-10.7-3.2-16.6-8.2-19.3-10.9c-0.3,7,6,11.7,19.2,14.6c13.4,2.9,17,12.7,17.2,13.1l-1.9,0.7c-0.1-0.4-3.4-9.2-15.7-11.8
			c-13.8-3-20.8-8.4-20.8-16.1c-4.4,5.6-11.8,15.5-12.6,19.3c-0.5,2.4-0.3,6.5,0,10.9c0,0,0.1,0.1,0.1,0.1l-0.1,0.1
			c0.1,1.9,0.3,3.8,0.5,5.7c0.3,3.8,0.7,7.4,0.7,9.8c0,2.3,1,3.5,2.5,5.2c2.2,2.5,5.1,6,5.5,15c0.4,9.3,2.9,14.7,5.6,20.4
			c1.5,3.1,3,6.2,4.2,10.2c1,3.1,2.4,5.6,3.8,7.6l0.2-0.2c9.3,9.9,33.2-0.1,33.5-0.2l0.8,1.8C689.1,163.7,671.8,170.9,660.2,166.8z
			 M707.4,146.1c-0.2,1.2-0.4,2.6-0.4,4.4c0,6.2,1.2,10.4,3.5,12.4c1.5,1.3,3.5,1.7,6.1,1.4c3.6-0.5,4.4-2.7,5.3-5.5
			c0.8-2.3,1.7-4.9,4.6-6.4c5.6-2.8,12-8.2,13.9-14.2c0.6-1.7,0.8-3.6,1.1-5.3c0.7-4.7,1.4-9.5,7-13.1c7.5-4.9,12.3-13.4,10.4-18.3
			c-0.5-1.2-0.6-2.2-0.6-3.2c-3.2-2.8-6.1-3.7-8.6-3c-5.5,1.8-7.6,11.5-7.6,11.6l-2-0.4c0.1-0.4,2.4-11,9-13.1
			c2.9-0.9,6.2-0.1,9.7,2.6c0.2-0.6,0.5-1.3,0.7-1.9c1-2.6,2.2-5.6,0.8-10.9c-0.2-0.8-0.4-1.6-0.6-2.4c-1.7-3.6-3.8-5.7-6.3-6.3
			c-4.2-1-8.4,2.4-8.5,2.4l-1.3-1.5c0.2-0.2,5-4.1,10.2-2.8c1.9,0.5,3.5,1.5,5,3.1c-0.2-1.7-0.5-3.4-0.7-5c-0.9-7.1-1.7-13.7-4.7-17
			c-1.6-1.7-3.2-3-4.7-4.3c-1.4-1.1-2.6-2.1-3.7-3.3c-7-2.8-10.3,1.5-10.4,1.6l-1.6-1.2c0-0.1,3.5-4.5,10.1-3
			c-0.7-1.3-1.1-2.9-1.2-4.8c-0.5-6.7-10-15.2-20-15.2c-1.5,0-2.8-0.1-3.9-0.4l0,0.2c-20.3-0.8-28.7,8.4-30.1,10.2
			c5.5,4.2,10.7,11,14.1,21.8l-0.4,0.1c2.4,1.1,5,2.7,7.2,5.1c4.8,5.2,7,12.7,6.3,22.2c1.7,1.6,8.7,8.7,11.8,15.9l-1.8,0.8
			c-3.3-7.6-11.6-15.5-11.7-15.5l-0.4-0.3l0-0.5c0.7-9.2-1.2-16.3-5.7-21.2c-6.1-6.6-15.1-6.7-15.4-6.7c0,0,0,0,0,0l-0.6,0l-0.3-0.5
			c-13.6-21.8-39.7-13.3-40-13.2l-0.6-1.9c0.3-0.1,27.5-8.9,42,13.6c1.2,0.1,3.9,0.3,7.2,1.4c-4.4-13.1-12-21.3-22.5-24.6
			c-6.6-2-12.4-1.4-14.3-1.1l-0.4,0.1c-2.5,0.8-9.3,3.3-10.8,5.8l-0.4,0.7l-0.8-0.3c-0.5-0.2-12.6-4.1-17.2,4.6
			c-1.8,3.4-2.3,6.2-1.5,8.2c0.7,1.7,2.1,2.3,2.1,2.3l1.6,0.6L634,52c-0.1,0.1-7.1,6-7.9,14.9c-0.6,7.2,0.8,13.1,4.4,18.3
			c-0.2-3.4-0.2-6.5,0.2-8.6c1.2-5.8,14.4-21.9,15-22.6l0.8-1l0.7,1.1c0.1,0.1,5.4,7.7,19.9,12.1c11.8,3.6,18.8,11.5,24.3,17.8
			c1.6,1.8,3,3.5,4.4,4.8c3.7,3.5,4,6.1,4.4,8.4c0.2,1.7,0.5,3.2,2.2,5c2.1,2.2,2.5,4.2,2.9,6c0.5,2.1,0.9,4.3,4.2,7.5
			c0.9,0.9,1.8,2,2.5,3.2l0.4,0c0,0.1,0,0.4,0.1,0.8c2.3,4,3.4,9,2.9,13.3c-0.1,0.7-0.2,1.4-0.4,2c1.9-0.9,4.6-1.8,7.2-1.2
			c1.9,0.4,3.4,1.5,4.5,3.3c1.8,3,2,6.3,0.3,9.1c-1.8,3.2-5.4,5.2-9.1,5.2C713,151.5,709.1,148,707.4,146.1z M708,143.8
			c0.7,0.9,4.7,5.7,9.8,5.7c3,0,6-1.7,7.4-4.2c1.2-2.2,1.1-4.7-0.3-7.1c-0.8-1.3-1.8-2.1-3.2-2.4c-3.4-0.7-7.5,1.9-8.2,2.4
			c-0.5,0.7-1.2,1.3-2,1.8l-0.1,0.1l-0.2,0C711.2,140.1,709.3,140.7,708,143.8z M667.2,26.6c4.8,0,12,1,19,5.7
			c1.4-1.9,8.8-10.2,26.5-11c-0.6-0.3-1.3-0.6-1.9-0.9c-3.7-1.8-7.6-3.7-14.9-3.5c-12.3,0.3-25,0.6-31.7,9.9
			C664.9,26.6,666,26.6,667.2,26.6z M656.4,433.8l-1.8-0.8l38.5-87.4c-2.7-2.4-5.8-3.6-10.2-3.8l-40.6,88.6l-1.8-0.8l40.2-87.8
			c-4.1,0.1-9.1,0.8-15.7,1.9c-2.9,0.5-5.4,1-7.7,1.4c-13.2,2.5-16.3,3.1-22-8.2l1.6-1.1c0.3,0.3,6.6,6.6,12.3,2.4
			c0.9-0.6,1.8-1.4,3-2.3c7.2-5.7,19.2-15.3,35.4-13.4c14,1.6,19.1,12.2,23.9,24.9c0.7,1.9,1.4,3.8,2,5.6
			c3.7,10.4,5.7,15.4,11.6,14.2l2.5-0.5l-1.4,2.1c0,0.1-4.6,6.3-13.2,2c-6.6-3.3-10.2-9.8-13.3-15.6c-0.8-1.5-1.6-2.9-2.4-4.3
			c-0.9-1.4-1.7-2.6-2.6-3.7L656.4,433.8z M681.4,339.7c8.1,0,13,2.6,17.5,10c0.8,1.4,1.6,2.8,2.5,4.3c3.2,5.8,6.4,11.7,12.5,14.7
			c4.1,2,6.9,1.3,8.6,0.3c-5.5-0.6-7.8-7.1-10.9-15.7c-0.6-1.8-1.3-3.6-2-5.5c-4.7-12.5-9.3-22.1-22.2-23.6c-15.4-1.8-27,7.5-34,13
			c-1.1,0.9-2.1,1.7-3,2.4c-3.8,2.8-8,1.9-11.1,0.2c3.7,5.8,6.8,5.2,17.7,3.1c2.2-0.4,4.8-0.9,7.7-1.4
			C671.5,340.5,676.9,339.7,681.4,339.7z M726.2,432.9l-2-0.2c0-0.3,3.5-34.8,11.4-69.9c7.7-34.4-4.2-49.5-4.3-49.6l1.3-1.5
			c22.7,13.6,36.7,48.3,37.3,49.8l-1.9,0.7c-0.1-0.3-12.7-31.7-32.7-46.4c3.3,6.6,8.1,21.7,2.3,47.3
			C729.7,398.2,726.3,432.6,726.2,432.9z M44.8,432.9c-0.2-0.5-6.2-13-21.9-12.9c-1.7,0.4-3.2,0.7-4.6,1c-1.8,0.3-3.3,0.6-4.6,1.1
			c-4.8,1.7-4.5,4.8-4.4,4.9l-2,0.3c0-0.2-0.6-4.8,5.8-7.1c1.4-0.5,3-0.8,4.9-1.2c1.4-0.3,2.9-0.6,4.7-1v0c0,0,0,0,0,0
			c2.3-0.6,4.8-1.4,7.8-2.6c-13.5,2.5-43.6,6.7-71.1,1l0.4-2c36.2,7.5,77.1-2.4,77.5-2.5l0,0.1c2.7-1.6,5.7-3.5,9-5.9
			c0.9-0.7,1.8-1.3,2.7-1.9c-15.3,2.8-59.3,9.5-92.4,1.2l0.5-1.9c37.3,9.3,88.7-0.6,96.1-2.1c9-5.9,16.1-9,20.3-10.7
			c-1.5,0.1-2.3,0.3-2.4,0.3l-0.7-1.9l31.2-16.7c3.1-8.6,2.6-17.3,2.6-17.4l2-0.1c0,0.4,0.5,9.4-2.9,18.6l-0.1,0.4l-27.3,14.6
			c4.7-0.1,11.7,0.5,18.2,4.7c7,4.5,11.7,12,13.9,22.3l-2,0.4c-2.1-9.8-6.4-16.9-13-21.1c-5.1-3.3-10.8-4.2-15-4.4l0.2,0.7
			c-0.1,0-9.7,2.6-23.7,11.7l0,0.2c0,0-0.2,0-0.5,0.1c-2.1,1.4-4.2,2.8-6.4,4.5c-7.9,5.8-14.2,8.9-19.3,10.7
			c13.1,2.3,18.4,13.5,18.4,13.6L44.8,432.9z M40.5,397.4l-0.9-1.8c6.5-3.3,12.3-6.5,17.3-9.5c-13.5-1.5-65.6-6.7-103.4,0.1l-0.4-2
			c41.2-7.4,99.2-0.7,106.5,0.2c1.7-1.1,3.3-2.1,4.8-3c-4.8-3.4-29.1-19.7-66.3-23l-0.3,0.3l0-0.3c-11.6-1-24.4-0.7-38.2,1.7l-0.3-2
			c14.1-2.4,27.1-2.7,38.8-1.7l0-0.3c4.6-34.3,2.5-53.5,0-63.6c-2.8-10.9-6.6-13.7-6.7-13.7l1.1-1.7c0.7,0.4,16.2,11.6,7.9,76.4
			c4.3-4.3,15.2-15.9,27.3-36.4c15.4-26.2,17.3-37.7,16-40.4c-0.2-0.5-0.5-0.6-0.8-0.6c-2.4-0.3-4-0.3-5-0.2c-2.2,2.4-3.4,4-3.4,4
			l-0.4,0.5l-0.7-0.2c-0.1,0-8.5-2.5-19.6-2.5c-2.3,0-4.3,0-6.1,0.1c-7.1,0.2-11.1,0.3-15-3.2c-2.4-2.1-4.1-3.8-5.3-5
			c-0.4,2.2-0.6,4.3-0.9,6.4c-0.8,6.1-1.6,11.8-4.1,19.2c-2,5.7-5.4,13.9-9,22.6c-4.5,10.8-9.2,22-10.8,27.8
			c-2.8,10.4-6.6,18.2-6.6,18.3l-1.8-0.9c0-0.1,3.7-7.7,6.5-18c1.6-5.9,6.3-17.2,10.9-28.1c3.6-8.6,7-16.8,9-22.4
			c2.5-7.3,3.3-12.9,4-18.8c0.6-4.6,1.2-9.4,2.7-15.1c1.5-5.6,3.1-9.7,4.7-14c2.3-5.8,4.6-11.9,7.2-22.8c2.9-12.2,6.2-28.3,8.2-38.3
			c-2.8,1.4-8.8,3.2-13.4-2.8c-4.4-5.7-3.5-10.2-2.7-12.3c-3-0.7-9.8-3.1-11.9-11.9c-1.9-8.1,0.6-11.4,2.3-12.7
			c-2.3-2.3-7.6-8.5-7.8-18.1c-0.2-10.5,6.2-15.5,8.3-16.9c-0.8-3.1-2.9-14.8,6.1-23.5c8.3-8,14.5-8.8,16.7-8.8c0,0,0,0,0,0
			c1-2.9,5.5-12.7,17.8-14.7c12-2,18.8,1.8,20.9,3.1c2.2-1.5,9.9-6.2,19-3.7c9,2.5,12.5,7.9,13.4,9.7c2.3,0.4,10.7,2.1,14.4,8.9
			c3.2,6,3.2,11,3,12.9c2.5,1.1,10.4,5.6,12.4,18.1c2.3,14.4-6,29.5-6.3,30.1l-0.1,0.1l-4.8,6.5l-0.2-0.2c-0.3,2.1-0.9,3.8-1.7,5.2
			l0.3-0.4c0.3,0.3,8.4,6.7,6.6,15.2c-0.4,1.8-1.2,2.9-2.5,3.1c-0.8,0.1-1.6-0.1-2.5-0.6c2.9,5.4,5.2,11.6,2.8,14.6
			c-1.2,1.5-2.6,1.7-3.5,1.6c-1.3-0.1-2.7-1-3.9-2.1c1.5,4.7,2.4,10.2-0.2,13.3c-1.4,1.6-2.7,1.7-3.6,1.6c-1.9-0.4-3.6-2.7-4.9-5.1
			c0.3,4.8,0.2,10.8-1.6,13c-0.5,0.6-1.2,1-1.9,1c-1.1,0.1-2-0.3-2.8-1c-1.4-1.3-2-3.7-2.3-5.7c-0.7,0.9-1.4,1.8-2.2,2.5
			c-3.2,3-7.1,4.5-12.1,4.6c0.1,3,0.2,9.2-0.9,16.1l4.5,4.3c2.9,0.6,14.2,2.5,22.7-0.2c8.9-2.8,14.7-3.7,16.2-4
			c1.4-1.6,8.6-9.3,14-11.2c0,0,0-0.1,0.1-0.1l-0.1-0.6c0.1,0,0.2,0,0.5-0.1c1.4-2.3,4.9-7.1,11.4-9.4c0.9-1.9,5.2-10.5,15.2-23.6
			c7.6-9.9,18.9-15.9,28.1-15c6.3,0.7,11.3,4.6,14.4,11.2c8.5,18.2,6.7,43.9,6.6,45l-2-0.2c0-0.3,1.9-26.3-6.4-44
			c-2.8-6-7.2-9.4-12.8-10c-8.5-0.9-19.1,4.8-26.3,14.2c-8.7,11.2-13,19.2-14.5,22.3c3.5-0.6,11.3-0.3,22.1,10.4l-1.4,1.4
			c-13.4-13.4-21.7-9.5-21.8-9.5l-0.2-0.5c-5.1,1.7-8.2,5.2-9.9,7.4c4.7-0.1,14.1,0.9,21.2,9.1l-1.5,1.3c-7.2-8.3-17.3-8.5-20.9-8.3
			c0,0.1-0.1,0.1-0.1,0.1l-0.2,0.4l-0.4,0.1c-2.1,0.6-4.6,2.4-6.9,4.4c5.3,0.3,17.2,1.6,22.7,7.6l-1.5,1.4c-5.8-6.3-20.6-7-23.3-7
			c-2.1,2-3.8,3.8-4.4,4.5c5.8,1.8,17.4,7.2,27.1,24.1l-1.7,1c-12.6-21.9-29-23.8-29.1-23.9l0-0.1c-2.5,0.5-6.5,1.4-11.6,2.9
			c10.2,2.5,27.8,11.4,40.2,32.5l-1.7,1c-13.7-23.4-33.8-31.3-42.5-32.2l0-0.2c-6.7,1.5-14.1,0.8-18.5,0.1l2.3,2.2
			c3.5-1.8,6.8,0.2,13,5c2.3,1.7,6.2,4.1,10.6,6.9c8.6,5.4,20.5,12.8,29.1,20.3c13.3,11.5,12,33.9,11.9,34.8l-2-0.1
			c0-0.2,1.3-22.3-11.3-33.2c-8.5-7.4-20.3-14.8-28.9-20.1c-4.5-2.8-8.4-5.3-10.8-7c-5.9-4.4-8.2-5.7-10.3-5l10,9.6l-1.3,0.6
			c-0.1,0.1-14.5,6.9-25.6,15.8c-5.1,4.1-9.1,8-12.1,11c0.9,0,2,0.1,3.3,0.3c1,0.1,1.8,0.7,2.3,1.7c2.5,5-3.6,21.3-16,42.3
			c-14.2,24.1-26.7,36.1-29.2,38.4c9,0.9,17.2,2.5,24.5,4.5l-0.3-0.2c13.3-14.1,29.8-44.3,31.5-47.4l-1.3-21.8l17.8-38.3l1.8,0.8
			l-17.6,37.8l1.3,21.8l-0.1,0.2c-0.2,0.3-17.3,32.2-31.3,47.4c7.2,2.1,13.5,4.5,18.9,6.9c2.7-9.2,15.9-54.5,21.9-73.2
			c6.7-20.8,17.2-43.5,17.3-43.8l1.8,0.8c-0.1,0.2-8.2,17.9-14.7,36.2c9.1-7.1,37.5-13.5,41.1-14.4l0.4,2
			c-15.6,3.5-40.8,10.9-42.3,16.3l-0.5-0.1c-0.4,1.2-0.8,2.4-1.2,3.6c-6.1,18.9-19.5,64.9-22,73.4c10.9,5,17.5,9.8,19,10.9
			c6.2-4.1,9.8-6.8,9.8-6.8l0.1,0.1l15-62.8l1.9,0.5L75.3,386l-1.9-0.5l2.2-9.2c-2.6,1.9-7.9,5.6-15.4,10.1l0,0c0,0,0,0-0.1,0
			C54.6,389.8,48,393.6,40.5,397.4z M13.9,275.9c9.7,0,17.3,1.8,19.5,2.4c0.5-0.7,1.6-1.9,3-3.5l-0.2-0.5c0.1,0,0.3-0.1,0.7-0.2
			c3-3.3,7.6-7.9,13.7-12.7c9.3-7.5,20.8-13.5,24.7-15.4l-14-13.4c-0.1,0-0.2,0-0.2,0l0-0.1l-3.8-3.6c-1,5.6-2.8,11.5-5.8,16.3
			l-1.7-1.1c6.9-11.1,6.9-28.4,6.7-33.8c-1.2-0.1-2.5-0.2-3.8-0.4c-7.9-1.2-17.7-7.3-22-13.5l1.7-1.1c3.9,5.8,13.2,11.5,20.6,12.6
			c7.2,1.1,12.2,0,16.2-3.7c1.2-1.1,2.2-2.6,3.2-4.3c0-0.3,0-0.5,0-0.6l0.4,0c0.8-1.4,1.6-2.9,2.4-4.5c1.7-3.4,3.7-7.2,6.3-10.9
			c4.7-6.6,4.5-13,4.4-17.7c0-0.7,0-1.4,0-2.1c0-5,1.3-6.3,3.9-8.8l0.4-0.4c2.1-2.1,2.9-5.8,2.5-11.5c-0.1-2,0.4-4.5,1.1-7.3
			c0.8-3.4,1.8-7.7,1.8-12.6c0-8.3-7-15.3-7.1-15.4l1.4-1.4c0.3,0.3,7.7,7.7,7.7,16.8c0,5.1-1,9.5-1.8,13c-0.6,2.7-1.1,5-1,6.8
			c0.1,1,0.1,2,0.1,3l3.2-4.3c0.6-1,8.2-15.5,6.1-28.8c-2.1-13.4-11.4-16.7-11.8-16.8l-0.8-0.3l0.2-0.9c0-0.1,1-5.4-2.7-12.4
			c-3.7-6.8-13.3-8-13.4-8L75,74.9l-0.2-0.5c0-0.1-2.8-6.4-12.4-9.1c-9.6-2.7-17.7,3.7-17.8,3.8L44,69.6L43.4,69
			c-0.1-0.1-6.7-5.3-19.9-3.2C10.4,68,7.1,79.4,7,79.9l-0.2,0.9l-0.9-0.1c-0.1,0-6.5-0.9-15.9,8.2c-9.4,9.1-5.5,22.1-5.4,22.2
			l0.2,0.8l-0.7,0.4c-0.3,0.2-8.2,4.4-8,15.5c0.2,11.3,8,17.6,8.1,17.6l1.6,1.2l-1.9,0.5c-0.2,0.1-4.7,1.5-2.4,11
			c2.4,9.9,11.2,10.5,11.6,10.6l1.8,0.1l-1.1,1.5c-0.1,0.2-3.2,4.6,1.9,11.3c5,6.5,12,1.7,12.3,1.5l0.1,0.1c0.5-2.6,0.9-4.6,1.2-5.8
			c-2.1-1.3-3.9-3.6-5-4.9c-2.8,2.8-4.7,4.6-5,4.9l-1.4-1.5c0.3-0.2,25.5-23.9,31.1-39.3c5.7-15.9,10.5-19.5,26.7-25
			c4.6-1.6,7.7-4.1,9.2-7.3c2.1-4.9-0.1-10-0.1-10l1.8-0.8c0.1,0.2,2.6,5.9,0.1,11.6c-1.7,3.8-5.1,6.7-10.4,8.4
			c-15.4,5.3-19.9,8.3-25.5,23.8c-3.9,11-17.1,25.6-25.1,33.8c2.2,2.9,5.6,6.2,7.3,5.4c3.2-1.6,4.8-3.3,4.8-3.3l1.5,1.4
			c-0.1,0.1-1.9,2-5.4,3.8c-0.9,0.4-1.8,0.4-2.8,0.1c-1.3,6.4-5.9,29.7-9.7,46.1c-2.6,11.1-5.1,17.4-7.3,23.1
			c-1.7,4.3-3.2,8.3-4.7,13.8c-0.6,2.1-1,4.1-1.3,6c0.9,1,3,3.3,6.1,6c3.3,2.9,6.6,2.8,13.6,2.7C9.6,276,11.6,275.9,13.9,275.9z
			 M74.7,200.4c0.1,2.1,0.5,5.7,2,7c0.4,0.4,0.8,0.5,1.3,0.5c0.1,0,0.3-0.1,0.5-0.3c1.6-2,1.4-10,0.8-15.8c-0.7,1.4-1.4,2.7-2.1,4
			C76.3,197.4,75.5,198.9,74.7,200.4z M80.9,188.9c1.1,3.6,3.7,9.6,5.9,10c0.2,0,0.8,0.2,1.7-0.9c3.1-3.6-0.2-12.6-2.6-17.5
			c-0.7,1.5-1.5,3-2.6,4.5C82.5,186.3,81.6,187.6,80.9,188.9L80.9,188.9z M87,178.1c1.8,3.2,5.1,7.8,7.5,8c0.4,0,1,0,1.7-0.9
			c2.4-2.9-2.4-12.2-7.1-19c-0.4-0.5-0.7-1-1.1-1.4c0,0.4,0,0.9,0,1.3c0.1,3.1,0.2,7.3-1.2,11.9C86.9,178.1,86.9,178.1,87,178.1z
			 M90.6,164.8c2.5,3.3,5.3,5.9,6.5,5.7c0.5-0.1,0.8-1,0.9-1.5c1.5-6.9-5.2-12.6-5.8-13.1c-0.1,0.2-0.3,0.3-0.4,0.5l-0.4,0.4
			c-2,2-2.9,2.9-3.2,5.3l0.3-0.2C88.8,162.2,89.6,163.3,90.6,164.8z M704.5,279.5l-1.5-1.3c0.1-0.2,13.3-15.8,27.5-24.8
			c13.9-8.9,25.8-19.2,26-19.3l1.3,1.5c-0.1,0.1-12.1,10.5-26.2,19.5C717.6,263.9,704.7,279.3,704.5,279.5z M660.9,268.9l-1.8-0.9
			c6.5-12.5,17.1-22.8,17.2-22.9l1.4,1.4C677.7,246.5,667.3,256.7,660.9,268.9z M706.9,264.1l-1.4-1.4c0.7-0.7,18.4-18.3,32.8-25.7
			c14.1-7.2,22-13.7,22.1-13.8l1.3,1.5c-0.1,0.1-8.1,6.7-22.5,14C725.1,246,707.1,264,706.9,264.1z M17.4,259.2v-2
			c2.1,0,2.7-0.9,4.1-2.7c1.7-2.3,4.2-5.8,11.3-9.6c12.3-6.5,17.9-19.5,17.9-19.7l1.8,0.8c-0.2,0.6-5.9,13.8-18.9,20.7
			c-6.7,3.6-9,6.7-10.7,9C21.6,257.6,20.5,259.2,17.4,259.2z M709.1,249.6l-1.4-1.4c0.1-0.1,13.3-12.7,31.4-22.8
			c17.7-10,25.1-20.9,25.2-21l1.7,1.1c-0.3,0.5-7.7,11.4-25.9,21.6C722.3,237.1,709.2,249.5,709.1,249.6z M713.1,236.5l-1.5-1.3
			c0.1-0.1,12.9-14.9,28-22.3c12.6-6.2,19.9-12.4,21.8-14.1c-4,0-8.7,0.9-14.1,3.1c-15.7,6.6-23.8,12.5-30.8,22.6l-1.6-1.1
			c7.3-10.4,15.6-16.5,31.7-23.3c19.5-8.2,31.1,1.2,31.6,1.6l-1.3,1.5l0.6-0.8l-0.6,0.8c-0.1-0.1-5.3-4.3-14.5-4.5l0.9,1
			c-0.3,0.3-7.8,7.6-22.8,15C725.8,221.9,713.3,236.4,713.1,236.5z M662.9,219.1c-1,0-2-0.4-2.9-1.3l1.3-1.5
			c0.7,0.6,1.3,0.8,1.9,0.7c0.7-0.2,1.9-1,3.4-4c1.9-4.1,5.3-6.3,19.2-12.4c13.7-6,21.6-18.8,21.7-18.9l1.7,1
			c-0.3,0.5-8.3,13.4-22.6,19.7c-14.1,6.2-16.7,8.1-18.2,11.4c-1.5,3.1-3,4.8-4.8,5.2C663.3,219,663.1,219.1,662.9,219.1z
			 M142.6,218.7c-8.6-6.5-16.3-6.4-16.4-6.4l-0.1-2c0.3,0,8.4-0.2,17.6,6.8L142.6,218.7z M716.5,214.4l-1.6-1.2
			c8.8-11.2,19.2-18,35.2-26.5c16.8-8.9,29.8-7.9,30.3-7.9l-0.2,2c-0.1,0-13-1-29.2,7.7C734.9,197,725.1,203.4,716.5,214.4z
			 M170.6,207.8c-0.4-14.2-2.6-23.5-4.2-28.2c-0.5,4.8-1.2,13.5-1.2,24.8h-2c0-17.4,1.7-28.9,1.7-29.1l0.5-3.1l1.4,2.8
			c0.2,0.4,5.2,10.7,5.8,32.7L170.6,207.8z M158.9,207.2h-2c0-18.6,2.3-30.7,2.3-30.8l2,0.4C161.2,176.9,158.9,188.8,158.9,207.2z
			 M85.9,206.6l-1-1.8c0.3-0.2,30.8-17.5,36.3-53.9c3.9-25.5,5.9-86.8-58.5-104.9l0.5-1.9c26.4,7.4,44.6,22.8,54.2,45.7
			c9.2,22,8.2,45.6,5.8,61.5C117.5,188.7,86.2,206.4,85.9,206.6z M153.8,204.9l-2-0.1c0.6-15.2,2.2-22.6,2.3-22.9l1.9,0.4
			C156.1,182.5,154.4,189.9,153.8,204.9z M718.5,202.7l-1.5-1.4c0.2-0.2,16.7-17.9,35.4-27.1c15.7-7.7,17.3-14.9,17.3-14.9l2,0.4
			c-0.1,0.3-1.6,8.1-18.4,16.4C734.9,185,718.7,202.5,718.5,202.7z M63.2,196.2c-1.5,0-3.3-0.2-5.3-0.9l0.6-1.9
			c5.2,1.8,8.8,0.1,8.9,0l0.9,1.8C68.1,195.3,66.2,196.2,63.2,196.2z M564.8,196.1c-4.2-2.7-5.9-4.7-5.2-6.6
			c1.9-5.2,25.8-2.5,33.1-1.5l-0.3,2c-14.2-1.9-30-2.3-30.9,0.2c0,0-0.4,1.2,4.4,4.2L564.8,196.1z M57.4,191.9l-1.9-0.7
			c0.1-0.1,1.4-3.5,4.3-3.5h11.3v2H59.9C58.3,189.7,57.4,191.9,57.4,191.9z M721.5,191.3l-1.4-1.4c0.1-0.1,10.9-11.1,27.3-21.5
			c17.6-11.1,20.8-19.3,20.8-19.3l1.9,0.7c-0.1,0.4-3.3,8.8-21.6,20.4C732.2,180.3,721.6,191.2,721.5,191.3z M613.4,182.5
			c-0.1,0-8-4.1-16.5-1.4l-0.6-1.9c9.4-2.9,17.7,1.4,18,1.5L613.4,182.5z M580.5,182.1c-1.4-0.3-8.7-1.7-9.1-5.1
			c-0.2-1.6,1.1-2.9,2.6-3.9l-23.6-4.6l0.4-2l29.4,5.7l-2.8,1.3c-3.1,1.4-4.1,2.6-4,3.2c0.2,1.4,4.5,2.8,7.5,3.4L580.5,182.1z
			 M723.8,181.1l-1.4-1.4c0.2-0.2,19.3-19.8,35.3-29.6c13.9-8.5,15.4-10,15.5-10.1c-0.2,0.2-0.3,0.7,0,1.1l1.7-1.1l0.1,0.8
			c-0.1,0.5-0.3,1.2-16.3,11C742.9,161.4,723.9,180.9,723.8,181.1z M71.2,179.6c-1.2,0-2.1-0.3-3-0.5c-0.9-0.2-1.7-0.5-2.6-0.5
			c-1.9,0-3.8-1.1-4.6-2.7c-0.7-1.3-0.5-2.8,0.4-4l1.6,1.2c-0.6,0.7-0.4,1.4-0.2,1.9c0.5,0.9,1.6,1.6,2.8,1.6c1.2,0,2.2,0.3,3.1,0.5
			c1.4,0.4,2.6,0.7,4.5,0.1c1.4-1.2,0.5-14-1.2-25.3l2-0.3c0,0.1,1,6.4,1.6,12.8c1.1,12-0.2,14.2-1.7,14.7
			C72.8,179.5,72,179.6,71.2,179.6z M126.3,173l-1.7-1.1l28.6-45.3l15.8,4.8l-0.6,1.9l-14.3-4.3L126.3,173z M725.6,171.9l-1.7-1.1
			c0.2-0.2,4.3-6.2,20-18.8c16.8-13.5,27.1-20.4,27.2-20.4l1.1,1.7c-0.1,0.1-10.3,6.9-27.1,20.3
			C729.8,165.9,725.6,171.8,725.6,171.9z M726.6,162.9l-1.5-1.3c0.1-0.1,3-3.5,21-19c18-15.5,26.7-21.2,26.8-21.3l1.1,1.7
			c-0.1,0.1-8.7,5.7-26.5,21.1C729.7,159.4,726.7,162.7,726.6,162.9z M561,159.9c-2.1-0.8-6.9-3-6.5-5.6c0.1-0.9,0.8-1.5,2-2
			l-16.7-2.3l0.3-2l22.9,3.2l-0.1,2c-5.9,0.4-6.4,1.5-6.4,1.5c0,0.6,2.4,2.2,5.3,3.4L561,159.9z M129.3,159.7l-1.9-0.6l15.5-52.6
			l1.9,0.6L129.3,159.7z M668.9,152l-4.7-1.1c-1.1,0.5-4.3,1.8-8.4,0.5l0.6-1.9c4,1.3,7-0.4,7.1-0.5l0.3-0.2l5.5,1.2L668.9,152z
			 M90.8,151.9c-4.2-2.8-14.2-7.2-14.3-7.3l0.8-1.8c0.4,0.2,10.3,4.6,14.6,7.5L90.8,151.9z M45.2,149.7l-1.4-1.5
			c0.2-0.2,5.4-5,13-5.9c7.4-0.9,11.9-0.2,12-0.2l-0.3,2c0,0-4.4-0.7-11.5,0.2C50.2,145.2,45.3,149.7,45.2,149.7z M652.4,147.5
			l-0.6-1.9l3.8-1.3l0.4,0.2c3.5,1.8,8.4-0.6,8.4-0.6l0.3-0.2l5.8,1.5l-0.5,1.9l-5.1-1.3c-1.3,0.5-5.8,2.2-9.5,0.6L652.4,147.5z
			 M658,142.3c-2,0-3.8-1.1-5.5-3.1l1.5-1.3c1.3,1.6,2.7,2.4,4.1,2.4c2.3-0.1,4-2.3,4-2.4l1.6,1.2c-0.1,0.1-2.3,3.1-5.5,3.2
			C658.1,142.3,658.1,142.3,658,142.3z M651.9,133.4c-0.6,0-1.1-0.2-1.5-0.5c-1.6-1.4-1.6-5.1-1.6-10.7c0-5.7,1.4-16.3,1.7-18.3
			l-3.1-5.8c-1.6-0.5-7.9-1.8-11.5,3.4l-1.6-1.1c4.9-7.1,14.1-4,14.2-4l0.4,0.1l3.7,7.1l0,0.3c0,0.1-1.7,12.2-1.7,18.3
			c0,4.1,0,8.4,0.9,9.2c0,0,0.1,0.1,0.2,0c0.6-0.1,1.7-0.1,3-0.1c6.7,0,8.1-0.7,8.1-1.2h2c0,3.1-5.6,3.1-10.1,3.2
			c-1.1,0-2.2,0-2.7,0.1C652.1,133.3,652,133.4,651.9,133.4z M576.2,132.7c-0.1-0.1-5.4-5.7-16.4-7.3l0.3-2
			c11.8,1.7,17.4,7.7,17.6,7.9L576.2,132.7l0.7-0.7L576.2,132.7z M581.6,131.8c-0.1-0.1-6.2-7.7-15.3-9.9l0.5-1.9
			c9.9,2.3,16.2,10.2,16.4,10.6L581.6,131.8z M6.1,131.1l-0.2-2c19.4-1.8,21.9-15.6,22-16.2l2,0.3C29,118.7,22.9,129.5,6.1,131.1z
			 M720.9,126.8c-2.1-17-11.2-17.8-11.5-17.8l0.1-2c0.5,0,11.1,0.8,13.4,19.6L720.9,126.8z M59.7,121.4l-0.8-1.8
			c5.2-2.1,8.7-5.4,10.3-9.7c2.6-6.9-0.3-14.7-1.1-16.5c-16.9-3.2-30.2,5.4-30.3,5.5l-1.1-1.7c0.2-0.1,21.8-14,45.3-0.8l-1,1.7
			c-1.3-0.7-2.5-1.3-3.8-1.9c2.1,4.8,5.4,15.4-3.6,22.4l-1.2-1.6c9.7-7.5,3.4-19.7,2.1-22c-1.3-0.5-2.6-0.9-3.9-1.2
			c1.2,3.2,3.1,10.1,0.6,16.7C69.2,115.4,65.4,119,59.7,121.4z M77.4,121.3l-1-1.7c13.2-7.4,7.2-20.3,7-20.8l1.8-0.9
			C87.6,103.1,89.2,114.7,77.4,121.3z M692.4,115.6c-6-7-9.5-6.7-9.6-6.7l-0.3-2c0.5-0.1,4.7-0.5,11.4,7.4L692.4,115.6z M22.6,115.3
			l-1.8-0.9c0.7-1.4,1.5-2.7,2.4-3.8l-0.1,0c1-3,2.1-5.8,3.5-8.5c-3.6-1-12-2.2-19.6,4.8l-1.4-1.5c8.5-7.8,18.1-6.2,21.9-5.1
			c0.9-1.6,1.9-3.1,2.9-4.6c-4.1-1.6-14.9-4.5-22.7,5l-1.5-1.3c8.8-10.8,21.4-7,25.4-5.4c1.2-1.5,2.5-3,3.9-4.3
			c-3.8-1.7-15.1-5.7-23.9,2l-1.3-1.5c10.3-9,23.7-3.4,26.8-1.9c1.5-1.3,3.1-2.5,4.8-3.6c-3-1.8-17.9-9.6-33.2,1.5l-1.2-1.6
			c17.9-13,35.8-1.3,36-1.2l-0.3,0.5c5.6-3.4,12.1-5.6,19.2-6.3c17.1-1.7,25,9.6,25.3,10.1l-1.7,1.1c-0.3-0.4-7.5-10.8-23.4-9.2
			c-16.5,1.7-29.4,11.4-36,27c8-7.5,17.5-7.6,17.6-7.6l0,2C44.3,100.9,30.2,101.1,22.6,115.3z M726.2,112.7
			c-3.5-13.5-16.6-19.1-16.7-19.2l0.8-1.8c0.6,0.2,14.1,6,17.8,20.5L726.2,112.7z M33.5,110.6l-0.5-1.9
			c13.6-3.3,21.5-13.1,21.6-13.2l1.6,1.2C55.8,97.1,47.8,107.2,33.5,110.6z M668.4,109.6c-2.8,0-5.1-0.6-5.3-0.7l0.6-1.9
			c0.1,0,7.9,2.2,12.3-2.1c-3.4-1.4-9.9-3.6-13-2.3c-0.7,0.3-1.2,0.8-1.5,1.4l-1.9-0.7c0.5-1.2,1.3-2.1,2.6-2.6
			c5.1-2.1,15.4,2.7,15.8,2.9l1.1,0.5l-0.7,1C675.8,108.8,671.7,109.6,668.4,109.6z M645.7,107.2c-0.2-0.2-4.6-5.1-10-0.7l-1.3-1.5
			c5.5-4.5,10.7-1.4,12.7,0.9L645.7,107.2z M683.3,102.6c-9.9-6.6-21.4-8.9-21.5-8.9l0.4-2c0.5,0.1,12,2.4,22.2,9.2L683.3,102.6z
			 M684.7,98.8c0-0.1-4.5-9.2-15.8-11.9c-12.1-2.9-16-6.9-16.1-7.1l1.5-1.4c0,0,3.7,3.8,15.1,6.5c12.2,2.9,16.9,12.6,17.1,13
			L684.7,98.8z M82.8,93.2C82.8,93.2,82.8,93.2,82.8,93.2l0.8-0.5L82.8,93.2z M82.8,93.2c-0.4-0.6-10.1-15-32.2-4.7l-0.8-1.8
			c19-8.8,31-0.3,34.7,5.5L82.8,93.2z M731.4,86.1c-7.2,0-11.2-4.2-11.4-4.4l1.5-1.4l-0.7,0.7l0.7-0.7c0.2,0.2,4.9,5,13.3,3.4l0.4,2
			C733.8,85.9,732.5,86.1,731.4,86.1z M681.8,85.6C681.8,85.6,681.8,85.6,681.8,85.6l0.9-0.3L681.8,85.6z M120.6,80.4l-1.9-0.5
			l19.6-82.2l1.9,0.5L120.6,80.4z M690.4,76.7c0-0.1-3.7-6.4-14.6-11.8c-11.4-5.7-16.3-12.7-16.5-13l1.7-1.1
			c0,0.1,4.8,6.9,15.8,12.4c11.5,5.7,15.3,12.4,15.5,12.6L690.4,76.7z M706.5,74.4c-6.8-13-18.1-15.1-18.3-15.1l0.3-2
			c0.5,0.1,12.4,2.3,19.7,16.2L706.5,74.4z M722.6,73.5c-1.6-13.1-9.5-14.2-9.9-14.2l0.2-2c0.4,0,9.9,1.1,11.7,15.9L722.6,73.5z
			 M114.1,71.3l-1.9-0.5L130-3.4l1.9,0.5L114.1,71.3z M731.9,70.5h-2c0-5.6-1.7-9.9-5-12.8c-6.1-5.2-15.9-3.8-16-3.8l-0.3-2
			c0.4-0.1,10.8-1.6,17.6,4.3C730,59.5,731.9,64.3,731.9,70.5z M680.7,53.4c-5.6-10.3-19.9-10.2-20.1-10.2l0-2
			c0.6,0,15.7-0.1,21.9,11.3L680.7,53.4z M717.8,50.6c-4.9-8.2-14-4.8-14.3-4.7l-0.7-1.9c0.1,0,11-4.2,16.8,5.5L717.8,50.6z
			 M726,47.3c-1.5-4.9-4-8-7.6-9.4c-7.8-2.9-18,3.4-18.1,3.5l-1.1-1.7c0.5-0.3,11.2-6.9,19.9-3.7c4.2,1.6,7.2,5.2,8.8,10.7L726,47.3
			z M20.5,37.6l-1.7-1l26.1-44l1.7,1L20.5,37.6z M696.6,35.1l-1.2-1.6c0.3-0.2,7-4.8,19.1-4.5l-0.1,2
			C703.1,30.7,696.7,35,696.6,35.1z"/>
	</g>
	<path class="st5" d="M732.7,313.2c0,0-7.4-8.5-9.1-14.8c-1.7-6.2-4-7.4-4.8-13c-0.8-5.7-5.7-6.3-5.7-0.3s4.3,19,4.3,19
		s-8.8-11.9-19.3-17.6c-10.5-5.7-22.9-6.1-22.1-2.3c0.6,2.8,11.1,2.4,17,6.4c5.9,4,12,10.7,12,10.7s-11.9-3.6-17.9-4.2
		c-5.9-0.6-9.6-0.6-17.9-0.7c-7.4-0.1-10.7,1.2-9.1,3.2c3.2,3.7,15.3,1.7,23.8,4c8.5,2.3,14.7,5.1,14.7,5.1s-13.2-3.9-23.8-3.9
		c-10.5,0-16.5-1.7-14.2,2.2c2.3,4,13.6,2.8,21.2,5.1c7.7,2.3,13.4,4.6,13.4,4.6s-19-1.4-26.4-0.6s-8.5,3.5-4.2,4.3
		c5.4,1,18.3,2.1,25.4,3.1c13.1,1.7,18.4,18.7,24.9,22.1c6.5,3.4,16.4,38,16.4,38"/>
	<path class="st6" d="M730.5,383.8c-2.7-9.5-10.9-34.7-15.9-37.4c-2.6-1.4-4.9-4.5-7.5-8.2c-4.3-6-9.3-12.8-17.1-13.9
		c-2.8-0.4-6.4-0.8-10.2-1.2c-5.9-0.6-12-1.3-15.3-1.9c-2.9-0.5-3.3-1.8-3.3-2.6c0.1-1.8,2.8-3.1,7.6-3.7c4.6-0.5,13.4-0.2,19.7,0.1
		c-2-0.7-4.3-1.4-6.9-2.2c-2.9-0.8-6.3-1.2-9.6-1.6c-5.7-0.6-10.6-1.1-12.3-4c-0.2-0.4-1-1.8-0.3-2.9c0.9-1.5,3.3-1.3,8-1.1
		c2.1,0.1,4.6,0.2,7.4,0.2c2.5,0,5.1,0.2,7.6,0.5c-3.2-0.7-6.8-0.9-10.3-1c-5.7-0.3-10.7-0.5-12.8-3c-0.9-1.1-0.7-2-0.5-2.4
		c0.8-1.7,4.3-2.5,10.3-2.4l3,0.1c6.3,0.1,9.8,0.2,15,0.7c4,0.4,10.4,2,14.5,3.2c-2.3-2.3-5.8-5.5-9.2-7.8
		c-2.8-1.9-6.9-2.8-10.2-3.5c-4-0.9-6.8-1.5-7.2-3.5c-0.2-1,0.2-1.9,1-2.6c3.7-2.7,15.1-0.2,22.5,3.8c6.8,3.7,12.9,9.8,16.4,13.9
		c-1.3-4.4-2.8-10.7-2.8-14.5c0-3.7,1.6-5.1,3.2-5.2c1.8-0.1,4,1.7,4.5,5.4c0.4,2.9,1.3,4.5,2.2,6.4c0.8,1.7,1.8,3.5,2.6,6.5
		c1.6,5.9,8.8,14.3,8.9,14.4l-1.5,1.3c-0.3-0.4-7.6-8.8-9.3-15.2c-0.8-2.8-1.6-4.5-2.4-6.1c-1-2-1.9-3.8-2.4-7.1
		c-0.4-2.6-1.6-3.7-2.4-3.7c-0.6,0-1.3,1.1-1.3,3.2c0,5.8,4.2,18.6,4.2,18.7l-1.8,0.9c-0.1-0.1-8.8-11.8-18.9-17.3
		c-8.6-4.7-18.2-5.6-20.4-3.9c-0.3,0.2-0.3,0.4-0.3,0.6c0.2,0.8,3.5,1.5,5.7,2c3.5,0.8,7.7,1.7,10.9,3.8c6,4,11.9,10.5,12.1,10.8
		l-1,1.6c-0.1,0-11.9-3.6-17.7-4.1c-5.1-0.5-8.6-0.6-14.8-0.7l-3-0.1c-6.4-0.1-8.3,0.9-8.5,1.3l0,0c0,0,0.1,0.1,0.2,0.3
		c1.5,1.8,6.3,2,11.4,2.3c4.1,0.2,8.2,0.4,11.9,1.4c8.5,2.3,14.8,5.1,14.9,5.2l-0.7,1.9c-0.1,0-13.2-3.9-23.5-3.9
		c-2.9,0-5.4-0.1-7.5-0.2c-2.7-0.1-5.7-0.3-6.2,0.2c0,0,0,0.3,0.4,0.8c1.1,2,6,2.5,10.7,3c3.4,0.4,6.9,0.7,9.9,1.6
		c7.6,2.3,13.4,4.6,13.5,4.6l-0.4,1.9c-0.2,0-19-1.3-26.2-0.6c-4,0.4-5.4,1.3-5.8,1.7c0.2,0.1,0.6,0.4,1.6,0.6
		c3.2,0.6,9.3,1.2,15.2,1.9c3.8,0.4,7.4,0.8,10.2,1.2c8.7,1.1,14.1,8.6,18.5,14.7c2.5,3.4,4.6,6.4,6.8,7.6
		c6.7,3.5,15.9,35,16.9,38.6L730.5,383.8z"/>
	<path class="st6" d="M59.8,377.6l-1-1.7c7.1-4,16.4-42.4,19.4-56.9l2,0.4C79.7,321.5,69.2,372.3,59.8,377.6z M48.4,371.8l-0.9-1.8
		c14.1-7,17-24.5,17-24.6l2,0.3C66.4,346.4,63.4,364.3,48.4,371.8z M5.7,359l-0.1-2c7-0.3,24.6-13.1,24.8-13.2l1.2,1.6
		C30.8,346,13.2,358.7,5.7,359z M80.6,157.2l-2-0.2l0.3-3.1c-0.7,0-1.5,0.1-2.4,0.3l-0.4-2c9.1-1.9,12.3,3.7,12.4,3.9l-1.8,1
		l0.9-0.5l-0.9,0.5c-0.1-0.1-1.6-2.8-5.9-3.2L80.6,157.2z M55.8,156.1h-2v-4.4c-1.8,0.5-3.5,1.5-5,3.4l-1.6-1.2
		c6.1-7.9,16.4-2.9,16.5-2.9l-0.9,1.8c-0.2-0.1-3.4-1.6-7.1-1.4V156.1z M638.5,108.8l-1.8-4.1l1.8-0.8l1.8,4.1L638.5,108.8z
		 M665.3,106.3l-1.7-4.8l1.9-0.7l1.7,4.8L665.3,106.3z"/>
	<path class="st7" d="M480,113.8c0,0,99.4,23.7,123.1,32.1"/>
	<path class="st6" d="M602.8,146.9c-23.4-8.3-122-31.9-123-32.1l0.5-1.9c1,0.2,99.7,23.8,123.2,32.1L602.8,146.9z"/>
	<path class="st7" d="M483.4,127.2c0,0,116,34.4,134.5,40"/>
	<path class="st6" d="M617.6,168.2c-18.3-5.6-133.3-39.7-134.5-40l0.6-1.9c1.2,0.3,116.2,34.5,134.5,40L617.6,168.2z"/>
	<path class="st7" d="M474.8,82.4c0,0,70.8,20.7,115.5,33.8"/>
	<path class="st6" d="M590.1,117.2c-44.7-13.1-115.5-33.8-115.5-33.8l0.6-1.9c0,0,70.8,20.7,115.5,33.8L590.1,117.2z"/>
	<path class="st7" d="M471,58.6c0,0,104.1,26,125,33.5"/>
	<path class="st6" d="M595.7,93.1c-20.6-7.4-123.9-33.2-124.9-33.5l0.5-1.9c1,0.3,104.4,26.1,125.1,33.5L595.7,93.1z"/>
	<path class="st7" d="M471,25.3c0,0,114.8,33.8,127.8,38.5"/>
	<path class="st6" d="M598.5,64.7c-12.8-4.6-126.6-38.1-127.8-38.5l0.6-1.9c1.1,0.3,115,33.9,127.9,38.5L598.5,64.7z"/>
	<path class="st7" d="M586.9,53"/>
	<path class="st8" d="M586.9,53"/>
	<path class="st7" d="M615.4,186.3l-11.8-23.6c0,0,16.6-11.3,16-36.8c-0.6-25.5-13.7-42.9-35.8-47.2c-21.4-4.1-39.6,2.8-50.9,18.9
		c-9.9,14-9.4,42,3.8,54.8c13.2,12.7,22.2,14.6,22.2,14.6l41.4,22.2L615.4,186.3L615.4,186.3z"/>
	<path class="st7" d="M600.1,190.2l-41.6-22.3c-1.3-0.3-10-2.8-22.5-14.9c-13.9-13.4-13.8-42-3.9-56c11.7-16.6,30.2-23.5,51.9-19.3
		c22.4,4.3,36.1,22.3,36.6,48.2c0.3,13.4-4.2,22.9-8,28.5c-3.2,4.7-6.4,7.5-7.8,8.6l12,24L600.1,190.2z M571.9,78.5
		c-15.8,0-29.1,6.8-38.2,19.6c-11.3,16-7.4,42.8,3.6,53.5C550.1,164,558.9,166,559,166l0.3,0.1l41.1,22l13.5-2.5l-11.6-23.2l0.7-0.5
		c0.2-0.1,16.1-11.4,15.6-36c-0.5-25.2-13.3-42.1-35-46.2C579.6,78.9,575.7,78.5,571.9,78.5z"/>
	<g>
		<defs>
			<rect id="SVGID_3_" x="0.1" width="749.9" height="428"/>
		</defs>
		<clipPath id="SVGID_4_">
			<use xlink:href="#SVGID_3_"  style="overflow:visible;"/>
		</clipPath>
		<polygon class="st9" points="223.3,-2.1 222.5,94.6 248.1,227.4 352.8,304.3 459.6,200.9 431.6,-2.8 223.3,-2.1 		"/>
	</g>
	<path class="st10" d="M358.7,279.5c0,0-42.2-15.8-60.4-53.1C285.1,199.6,236,71,270,53.9c34-17.1,88.5,90.1,103.9,111.9
		c10.9,15.5,24,34.1,24,34.1l40.2,6.6L358.7,279.5L358.7,279.5z"/>
	<path class="st7" d="M359,280.7l-0.6-0.2c-0.4-0.2-42.8-16.4-61-53.6c-7.4-15.1-22.7-54.2-31.9-90.1c-12.4-48-11-76.2,4-83.7
		c12.6-6.3,28.7,2.5,49,27.1c16.7,20.2,32.5,46.5,44.1,65.6c5.2,8.6,9.3,15.4,12.1,19.4c10,14.2,21.9,31.2,23.8,33.8l41.8,6.9
		L359,280.7z M277.8,53.1c-2.6,0-5,0.6-7.4,1.7c-17.5,8.8-11.3,49.1-3,81.4c10.1,39.2,26,78,31.8,89.7
		c16.7,34.1,54.3,50.3,59.3,52.4l77.4-71.2l-38.6-6.4l-0.2-0.3c-0.1-0.2-13.2-18.8-24-34.1c-2.9-4-7-10.9-12.2-19.5
		C340.6,113.2,304.4,53.1,277.8,53.1z"/>
	<g>
		<defs>
			<rect id="SVGID_5_" x="0.1" width="749.9" height="428"/>
		</defs>
		<clipPath id="SVGID_6_">
			<use xlink:href="#SVGID_5_"  style="overflow:visible;"/>
		</clipPath>
		<path class="st11" d="M144.2,139.2c0,0,50.7-118.7,69.7-146.2l17.8,2.9c0,0-1.8,61.9,1,96.1c2.9,34.2,17.5,78.8,28.9,111.1
			c11.4,32.3,16.3,43.7,32.9,57c16.6,13.3,48.5,33.2,48.5,33.2s7.2-24.7,25.7-44.6c18.5-19.9,39.8-28.5,52.7-35.1
			c12.9-6.6,12.9-6.6,12.9-6.6s5.3-44.6,3.8-76c-1.5-31.3-2.9-57.9-8.6-72.2c-5.7-14.2-32-62.8-32-62.8l48.8,1.4
			c0,0,38.3,43.4,45.9,83.3c7.6,39.9,15.2,73.1,15.2,100.6c0,0,18.1,0,40.9,4.8c22.8,4.7,39.8-7.4,54.5-3.6
			c14.7,3.8,38.7,18.8,43.4,36.8c4.8,18-1.2,28.4-1.2,28.4s12.6,7.7,9.7,41.9c-2.9,34.2-11.4,48.4-11.4,48.4L454.3,453.5l-368.2,0.2
			c0,0,11.3-89.2,24.1-184.2c3-22.5,22.7-76.6,22.7-76.6l-5.7-2.8l24.7-51H144.2L144.2,139.2z"/>
		<path class="st12" d="M85,454.8l0.1-1.1c0.1-0.9,11.5-90.3,24.1-184.2c2.8-20.8,19.9-69,22.4-76l-5.8-2.8l24.4-50.5h-7.6l0.6-1.4
			c0.5-1.2,51-119.1,69.8-146.4l0.4-0.5L232.8-5l0,0.9c0,0.6-1.8,62.2,1,95.9c2.9,34.2,17.8,79.6,28.9,110.8
			c11.1,31.5,15.8,43.1,32.6,56.5c14.6,11.7,41.6,28.9,47.3,32.5c1.8-5.3,9.5-26.4,25.5-43.8c15.9-17.1,33.7-25.9,46.7-32.2
			c2.2-1.1,4.3-2.1,6.2-3.1l12.4-6.4c0.6-5.1,5.1-46.2,3.7-75.3c-1.4-29.6-2.8-57.5-8.5-71.8C423,45,397-3.2,396.7-3.7l-0.8-1.5
			l50.9,1.5l0.3,0.3c0.4,0.4,38.6,44,46.1,83.7c1.3,6.7,2.5,13.1,3.8,19.4c6.1,30.9,11.3,57.6,11.4,80.4c4.1,0.1,20.4,0.7,40.1,4.8
			c12.1,2.5,22.7,0.2,32.1-1.9c8-1.8,15.5-3.5,22.5-1.7c15.4,4,39.3,19.3,44.1,37.5c4.1,15.6,0.4,25.6-0.9,28.4
			c2.8,2.3,12,12.3,9.5,42.2c-2.8,34-11.2,48.3-11.5,48.9l-0.1,0.2l-189.6,116h-0.3L85,454.8z M128.6,189.8l5.6,2.7l-0.3,0.8
			c-0.2,0.5-19.7,54.3-22.6,76.4c-11.8,88.2-22.6,172.4-23.9,183l366.8-0.2l188.7-115.5c1-1.9,8.5-16.5,11.2-47.8
			c2.2-26.4-5.1-38.3-9.3-40.9l-0.8-0.5l0.5-0.8c0.1-0.1,5.7-10.3,1.1-27.6c-2.9-11-19.8-30.1-42.7-36.1c-6.5-1.7-13.5-0.1-21.5,1.7
			c-9.5,2.1-20.3,4.5-32.9,1.9c-22.5-4.7-40.5-4.7-40.7-4.7l-1,0v-1c0-22.8-5.3-49.8-11.4-81c-1.2-6.3-2.5-12.8-3.8-19.4
			c-7.1-37.4-41.9-78.4-45.4-82.5l-46.6-1.4c4.5,8.4,26.1,48.7,31.2,61.4c5.8,14.6,7.1,41.4,8.6,72.5c1.5,31.1-3.8,75.7-3.8,76.1
			l-0.1,0.5l-13.4,6.9c-1.9,1-4,2-6.2,3.1c-12.9,6.3-30.5,15-46.2,31.8c-18.1,19.5-25.4,44-25.4,44.2l-0.4,1.3l-1.1-0.7
			c-0.3-0.2-32.2-20.1-48.6-33.3c-16.6-13.4-21.7-25-33.2-57.4c-11.1-31.3-26.1-76.9-29-111.3c-2.6-31.6-1.2-87.6-1-95.3l-16.3-2.6
			c-17.9,26.4-63,130.8-68.7,144.1h7.8L128.6,189.8z"/>
		<path class="st13" d="M368.2,452.3c0,0-40.3-136.3-23.8-168.5c16.5-32.2,37.6-55.9,93.1-77.7c62.9-24.7,64.4-34.1,109.6-22.7
			c45.2,11.4,44.2-14.2,70.8,2.9c26.6,17,35.1,33.1,28.5,60.6c0,0,46.4,14.1-23.9,204L368.2,452.3L368.2,452.3z"/>
		<path class="st12" d="M367.4,453.3l-0.2-0.7c-1.7-5.6-40.3-137-23.7-169.2c16.4-32,37.8-56.2,93.6-78.1
			c13.8-5.4,24.8-10.2,33.7-14c32.3-13.9,40.9-17.7,76.5-8.7c22.4,5.6,33.2,2.1,41.9-0.7c8.7-2.8,15.5-5.1,29.2,3.7
			c27.4,17.6,35.4,34.1,29.1,60.9c1.7,0.8,5.5,3.4,8.8,10.1c4.1,8.3,8.2,24.7,4.7,56.1c-4,35.3-16.6,82-37.6,138.8l-0.2,0.6
			L367.4,453.3z M516.7,179.7c-14.1,0-24.9,4.7-45.1,13.4c-8.9,3.8-19.9,8.6-33.8,14c-55.2,21.7-76.3,45.6-92.5,77.2
			c-15.6,30.3,20.5,156.3,23.7,167l252.8-1.4c20.6-55.7,51.9-154.1,32.7-192.6c-4-8-8.4-9.4-8.5-9.4l-0.9-0.3l0.2-0.9
			c6.3-26.2-1.3-42.4-28.1-59.5c-12.9-8.2-19-6.2-27.5-3.5c-8.9,2.9-20.1,6.5-43,0.8C534,181.2,524.8,179.7,516.7,179.7z
			 M402.8,393.3c-6,0-13.2-2.1-18.9-5.3c-14.1-8-23.1,2.2-23.4,2.6l-1.5-1.3c0.1-0.1,10.4-11.9,25.9-3.1c9.9,5.6,22.1,6.8,26.2,2.5
			c2.8-2.9,1.9-8.2-2.6-15.3c-11.9-19-24.9-36.2-28.6-41.1l0,0c0,0,0-0.1-0.1-0.1c-0.6-0.8-1-1.2-1-1.3l-0.2-0.3l0-0.7
			c-1.6-3-4.4-8.4-7.2-14.7H371v-0.7c-3.7-8.3-7.5-17.8-8.6-24.9c-0.5-3.3,0.1-6.4,1.6-9.3c-3.5-13.6,5.1-24,14-32.4
			c5-4.7,15.8-10.4,29.5-17.5c14.1-7.3,31.6-16.5,49.4-28c22-14.3,40.9-16.1,52.9-15.1c13.1,1.1,20.8,5.6,21.1,5.8l-1,1.7
			c-0.3-0.2-30.9-17.5-72,9.2c-17.9,11.6-35.4,20.8-49.6,28.1c-13.5,7-24.2,12.6-29,17.2c-8,7.6-15.8,16.8-13.8,28.5
			c6.8-9.6,23.2-17.3,40.7-24.3c3.6-1.4,7.1-2.8,10.5-4c16.6-6.2,32.2-12.1,53.7-30.8c31-27,59.7-15.8,60-15.7l-0.7,1.9
			c-0.3-0.1-27.9-10.8-58,15.4c-21.8,19-37.6,24.9-54.3,31.2c-3.4,1.3-6.9,2.6-10.5,4c-22.3,8.9-44.8,20-42.5,34
			c0.9,5.7,3.6,13.1,6.6,20.2v-9.5h2v14.1c2,4.5,4,8.5,5.6,11.6l0.6-36.2l2,0l-0.6,39.9c0.4,0.8,0.7,1.3,0.9,1.6
			c3,3.9,11.8,15.5,21.2,29.6c-2.1-12.6-2.9-25.3-3-37l-0.1,0c0-0.2,0.1-0.5,0.1-0.7c-0.1-27,3.5-48.1,3.5-48.5l0.1-0.5l0.5-0.2
			c0.6-0.3,14.1-6.7,36.6-7.7l0.4,1.9c-0.3,0.1-30.9,10.7-39,55.1c0.1,13.1,1.1,27.6,3.8,41.7c1.6,2.4,3.2,4.9,4.7,7.4
			c6.3,10.1,4.8,15.2,2.3,17.7C410.3,392.4,406.8,393.3,402.8,393.3z M405,275.6c-0.5,3-2.8,18.3-3.3,38.4
			c7.8-28.2,24.9-40.7,33.4-45.3C418.3,270.1,407.4,274.5,405,275.6z M388.1,336.4l-0.9-56.2l2,0l0.9,56.2L388.1,336.4z
			 M438.7,335.4l-2-0.1c0.1-2,2-48.6,8.5-60.9c2.8-5.3,8.3-8.6,15.9-9.4c5.6-0.6,10.3,0.3,10.5,0.4l-0.4,2c-0.2,0-18.1-3.5-24.2,8
			C440.7,287.3,438.7,334.9,438.7,335.4z M445.7,334.6l-1.9-0.6c18-53.5,35.2-69,35.9-69.7l1.3,1.5
			C475.1,271.1,459.9,292.3,445.7,334.6z M316.6,333c-54.5-23.3-94.6-58-95-58.4l1.3-1.5c0.4,0.3,40.3,34.9,94.5,58L316.6,333z
			 M326.2,328.3c-60.2-23.3-105.1-68.5-105.6-69l1.4-1.4c0.4,0.5,45.1,45.3,104.9,68.5L326.2,328.3z M308.9,304.4
			c-46.9-23.3-81.3-61.9-81.6-62.3l1.5-1.3c0.3,0.4,34.5,38.7,81,61.9L308.9,304.4z"/>
	</g>
	<path class="st14" d="M498.9,260.7c0,0,4.6-10.4,10.7-15.1c6.2-4.7,6.2-4.7,6.2-4.7s0.9-8.5,7.5-13.3c6.6-4.7,6.6-4.7,6.6-4.7
		s0.9-14,0.9-23.5c0-10.8,5.6-20.1,10.4-24.8c4.7-4.7,8.5-7.6,8.5-7.6l-3.8-21.8l-5.3-11.7c0,0-2.5-12.7,5.3-19.5
		c8.7-7.7,17.9-11.9,32.4-6.3c14.5,5.7,21.3,23.3,14.7,38.4c-6.6,15.1-7.5,15.1-7.5,15.1s8.9-1,13.6,9.4c4.7,10.4,6.3,16.2,5.3,25.7
		c-1.1,9.6,0,22.7-1.9,34.1c-1.9,11.4-5.6,19.9-20.7,27.5c-15.1,7.6-25.8,15.1-30.1,17c-4.3,1.9-8.1,2.8-8.1,2.8s-11.9-11-23.9-14.2
		C512.1,261.5,498.9,260.7,498.9,260.7L498.9,260.7z"/>
	<g>
		<defs>
			<rect id="SVGID_7_" x="0.1" width="749.9" height="428"/>
		</defs>
		<clipPath id="SVGID_8_">
			<use xlink:href="#SVGID_7_"  style="overflow:visible;"/>
		</clipPath>
		<path class="st15" d="M116.9,458.1l-2-0.2l19-163.1l0-0.1l25.5-82.1l1.1,2.6c7.1,17.3,15.4,32.9,24.7,46.4
			c9.8,14.2,17.1,20.9,17.2,21l0.8,0.7l-36,33.9l-22,20.9l-5.6,21l-1.9-0.5l5.7-21.5l22.4-21.3l34.4-32.4
			c-2.2-2.1-8.5-8.7-16.7-20.6c-8.9-13-16.9-27.8-23.8-44.2l-23.8,76.7L116.9,458.1z M306.3,448.4
			c-36.3-103.3-76.1-139.2-76.5-139.6l1.3-1.5c0.4,0.4,40.6,36.5,77.1,140.4L306.3,448.4z M330,299.7
			c-53.6-19.4-71.1-75.4-86.6-124.8c-1.1-3.7-2.3-7.3-3.4-10.8c-10.1-31.8-14.2-62.5-15.8-80.7c-0.5,7.3-1.1,13.2-1.7,16.9
			c-2.5,15.7-0.8,47,21.6,106.4c19,50.4,45.5,70.2,45.8,70.4l-1.2,1.6c-0.2-0.2-23.4-17.4-42.2-60.6l-0.7,0.5
			c-18.6-25.3-35-63.3-43-89.6C195.3,103.8,213.6-4,214.4-8.6l2,0.3c-0.2,1.1-19,111.9-11.6,136.6c7.5,24.8,22.4,59.8,39.7,84.7
			c-0.8-1.9-1.5-3.8-2.2-5.7c-14.7-39-20.6-66-22.1-84.5l-0.5,1.5c-18.1-5.9-10-50.6-9.7-52.5l2,0.4c-0.1,0.4-8.1,44.6,8.2,50.2
			c-0.8-9.7-0.4-17.1,0.5-22.5c1-5.9,1.9-18,2.7-32.1c0-0.9,0-1.4,0-1.4l0.1,0c1.9-33.8,3.3-78.5,3.3-79.1l2,0.1
			c0,0.7-1.4,46.5-3.4,80.5c0.3,8.3,2.4,50.9,16.7,95.6c1.1,3.6,2.3,7.2,3.4,10.8c15.3,48.9,32.7,104.4,85.4,123.5L330,299.7z
			 M543.3,278.8l-0.4-0.4c-0.1-0.1-11.8-10.9-23.5-14c-7.3-2-20.4-2.8-20.5-2.8l-1.4-0.1l0.6-1.3c0.2-0.4,4.7-10.7,11.1-15.5
			l5.9-4.5c0.3-1.9,1.8-9.2,7.9-13.5l6.2-4.5c0.2-2.5,0.9-14.6,0.9-22.9c0-10.9,5.5-20.3,10.6-25.5c3.8-3.8,6.9-6.4,8.1-7.3
			l-3.6-21.1l-5.3-11.8c-0.1-0.5-2.5-13.3,5.6-20.4c8-7,17.5-12.7,33.4-6.4c7,2.7,12.5,8.2,15.5,15.4c3.2,7.7,3.1,16.6-0.3,24.3
			c-3.4,7.8-5.4,11.8-6.5,13.8c3.7,0.4,9.3,2.7,12.5,10c4.6,10.1,6.4,16.3,5.4,26.2c0,0.1,0,0.1,0,0.2l0,0c0,0,0,0.1,0,0.2
			c-0.4,3.9-0.5,8.4-0.5,13.1c-0.1,6.9-0.2,14-1.3,20.6c-2,12.1-6.1,20.6-21.3,28.2c-8.9,4.5-16.4,9-21.8,12.3
			c-3.8,2.3-6.6,4-8.4,4.8c-4.3,1.9-8.1,2.9-8.2,2.9L543.3,278.8z M500.4,259.8c3.7,0.3,13.3,1.1,19.4,2.8
			c11,2.9,21.7,12.1,23.9,14.1c1.2-0.3,4.1-1.2,7.4-2.7c1.7-0.7,4.5-2.5,8.1-4.6c5.5-3.3,12.9-7.8,22-12.4
			c14.4-7.2,18.3-15.3,20.2-26.7c1.1-6.5,1.2-13.5,1.3-20.3c0-1.6,0-3.3,0.1-4.8c-1.7,4.2-4.3,9.1-8.4,12.2c-9,7-15.8,4.8-24.4-1.5
			c-7-5-11.7-10.1-11.9-10.4l1.5-1.4c0,0.1,4.8,5.2,11.6,10.1c8,5.8,13.9,7.8,22,1.5c7-5.5,9.7-17.4,10.1-19.2c0-0.1,0-0.2,0-0.3
			c1-9.5-0.7-15.2-5.2-25.1c-4.1-9.1-11.4-8.9-12.4-8.8c-0.1,0-0.1,0-0.2,0l-0.1-2c0,0,0,0,0,0c-0.3,0-0.5,0.2-0.5,0.2
			c0.1-0.1,1.5-1.7,7.2-14.8c3.2-7.3,3.3-15.6,0.3-22.8c-2.8-6.7-7.9-11.8-14.4-14.3c-14.1-5.5-22.7-1.5-31.4,6.1
			c-6.8,6-5.2,17.2-5,18.4L547,145l3.9,22.4l-0.5,0.4c0,0-3.8,2.8-8.4,7.5c-4.6,4.7-10.1,13.8-10.1,24.1c0,9.4-0.9,23.4-0.9,23.5
			l0,0.5l-7,5c-6.1,4.4-7.1,12.5-7.1,12.6l0,0.4l-6.5,5c-1.7,1.3-3.2,3-4.6,4.8c3.4,1.2,12.9,3.9,19.7,0.3c0.6-0.3,1.2-0.7,1.9-1
			c5.3-2.9,10.4-5.6,17.3-3.5c1.6-1.2,6.8-4.2,14.8-0.6l-0.8,1.8c-8.2-3.7-12.9,0.5-13.1,0.7l-0.4,0.4l-0.6-0.2
			c-6.4-2.2-11,0.3-16.3,3.2c-0.6,0.3-1.2,0.7-1.9,1c-8,4.2-18.8,0.8-21.8-0.3C502.6,255.5,501.2,258.2,500.4,259.8z M341.5,248.3
			v-2c0.2,0,19.3,0,31-3.3l0.5,1.9C361.1,248.2,342.3,248.3,341.5,248.3z M524.1,246.2c-3.2,0-5.8-0.7-6-0.7l0.5-1.9
			c0.1,0,8.7,2.2,12.7-1.4c3.4-3,5.4-2.9,7.7-2.9c1.5,0,3.1,0.1,5.6-0.7c8-2.3,13-1.6,19.7,2.6l-1.1,1.7c-6.3-3.9-10.7-4.5-18.1-2.4
			c-2.7,0.8-4.6,0.8-6.2,0.7c-2.2,0-3.5-0.1-6.3,2.4C530.3,245.7,527,246.2,524.1,246.2z M187.8,243.2l-23-47l-4.4-8.4l1.8-0.9
			l4.4,8.5l23,47L187.8,243.2z M359.9,235.9c-15.7,0-28.8-1.5-29-1.6l0.2-2c0.3,0,31.1,3.7,55-0.3l0.3,2
			C377.9,235.4,368.5,235.9,359.9,235.9z M572.9,235.7c-13-11-27.4-3.3-27.5-3.2l-0.4,0.2l-0.4-0.1c0,0-4-1.3-8.8-1.6
			c-7.5-0.5-11.8,3.8-11.8,3.9l-1.4-1.4c0.2-0.2,4.9-5,13.4-4.5c4.2,0.3,7.7,1.2,8.9,1.6c2.5-1.2,16.5-7.2,29.4,3.6L572.9,235.7z
			 M368.6,228.2c-24.3,0-46-4.6-46.3-4.7l0.4-2c0.4,0.1,43.4,9.3,76.1,1.6l0.5,1.9C389.5,227.4,378.8,228.2,368.6,228.2z M379,221.7
			c-33.8,0-69.7-9-70.1-9.1l0.5-1.9c0.5,0.1,52.6,13.2,90,7.7l0.3,2C393.1,221.3,386.1,221.7,379,221.7z M206.6,214.8
			c-21.3-23.4-38.8-59.4-39-59.7l1.8-0.9c0.2,0.4,17.5,36,38.6,59.2L206.6,214.8z M425,212.1l-115.5-21.4l0.4-2l62.9,11.7
			c-21.1-13.4-44.9-16.8-45.1-16.8l0.3-2c0.3,0,27,3.8,49.2,19.3l-0.2,0.3l48.5,9L425,212.1z M231.2,211.4c-0.1-0.2-5.3-8.5-12-20.1
			l-0.1,0.1L191,167.2l28.5,41.1l-1.6,1.1l-33-47.5l1.6-1.1l0.4,0.6l0.1-0.2l29.3,25.2c-6.3-11.1-13.4-24.2-18.8-36.1l-0.2,0.2
			c-9-10.7-30.5-11.8-30.7-11.8l0.1-2c0.4,0,4.7,0.2,10.2,1.4l-6.7-15.7l1.8-0.8l7.3,17c2.8,0.7,5.8,1.6,8.7,2.9l-13.6-33.3l1.9-0.8
			l14.5,35.4c1.7,0.9,3.4,2,4.9,3.2c-4.7-11.6-5.8-29.6-3-53.3c2.1-18.1,5.7-33.1,5.8-33.2l1.9,0.5c-0.1,0.6-14.3,59.3-2.5,86.2
			c11.9,27.2,34.7,63.6,34.9,64L231.2,211.4z M372.9,209.8c-33.4,0-74-10.4-74.5-10.5l0.5-1.9c0.4,0.1,44,11.3,77.7,10.4l0.1,2
			C375.5,209.7,374.2,209.8,372.9,209.8z M446.7,203.3l-1.6-1.1c0.2-0.3,18.2-26.9,22.2-68.2l0.1,0c-0.9-6.5-2-13.6-3.2-21.6
			c-0.9-5.5-1.8-11.5-2.7-18C454.5,48.4,436.5-9,436.3-9.6l1.9-0.6c0.2,0.6,18.2,58.1,25,104.2c1,6.5,1.9,12.4,2.7,18
			c5.2,33.7,8.1,52.3,1.8,81.1l-2-0.4c4.2-19.1,4.4-33.2,2.4-50.8C462.9,179.3,446.8,203,446.7,203.3z M380.6,197.7
			c-22.9-16.6-102.3-49.7-103.1-50l0.8-1.8c0.8,0.3,80.3,33.5,103.5,50.2L380.6,197.7z M482.6,186.3c0-0.2-0.2-19.9-6-64.5
			c-5.8-44.6-11.7-64.8-11.8-65l1.9-0.6c0.1,0.2,6,20.6,11.9,65.3c5.8,44.7,6,64.6,6,64.8L482.6,186.3z M490.5,183
			c0-0.3-0.9-33.1-3.7-63.2C484,89.9,449.5-2.9,449.1-3.8l1.9-0.7c0.3,0.9,35,93.9,37.8,124.2c2.8,30.1,3.7,63,3.7,63.3L490.5,183z
			 M371.4,177.2c-24.6-26.7-98.8-48.2-99.5-48.4l0.6-1.9c3.1,0.9,75.4,21.9,100.5,49L371.4,177.2z M437.1,171
			C380.9,116.6,294.2-5.2,293.3-6.4l1.6-1.2c0.9,1.2,87.5,122.8,143.6,177.2L437.1,171z M415.5,130.9c-11.9-17-42.9-61.5-66.2-95
			l-0.6-0.5l0.1-0.1c-15.6-22.5-27.7-39.9-28-40.3l1.6-1.1c0.3,0.4,12.6,18.1,28.4,40.8l39.2,35.6c-8.1-24.8-20.8-64.4-24.6-81.3
			l2-0.4c5.8,25.2,31.4,101.8,31.6,102.6l-1.9,0.6c0,0-0.1-0.3-0.3-0.8l-22.7-22.7c17.5,25.2,34.8,49.9,42.9,61.6L415.5,130.9z
			 M367.7,58.8l27.8,27.8c-1.1-3.5-2.8-8.5-4.8-14.5l-0.7,0.7L356,41.9C359.8,47.4,363.7,53.1,367.7,58.8L367.7,58.8z M270.5,112.6
			l-2-0.1c0.1-2,3.7-49.7,12.7-59.8l1.5,1.3C274.2,63.5,270.6,112.1,270.5,112.6z M411.5,108.8c0-0.1-2.1-14.9-7.2-33.9
			c-0.7-2.7-1.5-5.5-2.3-8.1l1.9-0.6c0.5,1.7,1,3.4,1.5,5.2l16.9,14.4l-1.3,1.5l-14.7-12.5c0.7,2.6,1.3,5.1,1.9,7.4l13.6,11.6
			l-1.3,1.5L409,85.4c3.1,13.5,4.4,23,4.5,23.1L411.5,108.8z M280.6,103l-2-0.2c0.1-1.5,3.3-37.3,11.3-45.5l1.4,1.4
			C283.8,66.5,280.6,102.7,280.6,103z M291.1,102.6l-2-0.2c0.3-3.1,3.2-30.7,8-35.5l1.4,1.4C294.9,71.9,291.9,94.3,291.1,102.6z
			 M264.4,88.7l-2-0.1c0.1-1,1.3-24.6,10.1-37l1.6,1.2C265.7,64.7,264.4,88.5,264.4,88.7z"/>
		<path class="st15" d="M158.4,453.8l25.5,1.4c0,0-11.3-90.7,24.3-150.5l-19.6,37.2c0,0-20.3,38.2-27.4,111.9"/>
		<path class="st15" d="M185,456.2l-26.7-1.5l0.1-2l1.9,0.1c7.1-72.6,27.2-111.1,27.4-111.5l13-24.8c2-4.3,4.2-8.4,6.6-12.5l1.7,1
			l-6.4,12.1c-8.4,18.1-16.9,45.6-19,85.1c-1.6,29.7,1.2,52.4,1.2,52.7L185,456.2z M162.3,453l20.5,1.1c-0.5-5.1-2.5-25.8-1.1-51.8
			c1-19.3,4.1-44.3,12.1-68.2l-4.4,8.3C189.3,342.7,169.4,380.9,162.3,453z M587.4,449.7c-0.2-1.1-16.1-107.8-63-168.1l1.6-1.2
			c47.3,60.7,63.3,168,63.4,169L587.4,449.7z M478.2,335.4l-2-0.2c0.5-5.9,5.3-57.5,17.4-58.5l0.2,2c-2.4,0.2-7.2,4.1-11.7,28.3
			C479.5,321.2,478.3,335.3,478.2,335.4z M594.8,312.5c-9.2,0-18.7-5-28.2-14.8c-16.5-2-27.8-15.1-28.3-15.6l1.5-1.3
			c0.1,0.1,12.7,14.5,29.8,15.2c10.1,0.4,19.9-4,29-13l1.4,1.4c-9.5,9.4-19.7,14-30.3,13.6c8.7,8.5,17.3,12.7,25.6,12.6
			c10.1-0.2,16.3-7.1,16.3-7.1l0.1-0.1c0.1-0.1,11.4-10.2,30-42.5l1.7,1c-18.3,31.9-29.4,42.1-30.3,42.9c-0.6,0.7-7.1,7.5-17.7,7.8
			C595.2,312.5,595,312.5,594.8,312.5z M378.7,269.1l-1.2-1.6c20.7-16.1,37.9-41,38-41.2l1.7,1.1C417,227.7,399.7,252.8,378.7,269.1
			z M397.7,259.1l-1.2-1.6c26.3-20.3,42.6-44.2,42.8-44.4l1.7,1.1C440.7,214.5,424.2,238.6,397.7,259.1z M427.8,247.2l-1.4-1.4
			c17.8-17.1,33-44.6,33.1-44.9l1.8,1C461.1,202.1,445.8,229.9,427.8,247.2z M442.2,240l-1.6-1.2l33.5-45l1.6,1.2L442.2,240z"/>
	</g>
	<path class="st16" d="M543.6,147.7c0.2-2.8-2.4-5.2-2-9.9s2.7-10.6,11-11.5c9.5-1.1,13.5,2.8,15.6,6.5c2.1,3.7,3.9,7,4.1,11.7
		c0.3,6.5-1.7,10.8-5.3,14.7c-4.1,4.4-10.5,7.2-14.1,4.4C548.9,160.3,543,155,543.6,147.7L543.6,147.7z"/>
	<g>
		<defs>
			<rect id="SVGID_9_" x="0.1" width="749.9" height="428"/>
		</defs>
		<clipPath id="SVGID_10_">
			<use xlink:href="#SVGID_9_"  style="overflow:visible;"/>
		</clipPath>
		<path class="st17" d="M605.3,455.4c-24.4-106.3-65.7-172-66.1-172.6l1.7-1.1c0.1,0.2,2.5,4,6.4,11.1l0.1-0.2
			c0.2,0.2,22.8,18.7,34.5,43.1c11.6,24.1,44.8,85.8,45.1,86.4l-1.8,0.9c-0.3-0.6-33.5-62.3-45.1-86.5c-8.7-18.1-23.5-33-30.4-39.2
			c13.6,25.5,40,81.1,57.5,157.6L605.3,455.4z M574.1,446.9c-0.4-1.4-36.7-138.4-49.3-154l1.6-1.2c12.8,16,48.1,149.1,49.6,154.8
			L574.1,446.9z M554.3,415.8c-0.3-1.1-28.3-104.2-38.7-122.3l-7.5,1.5c6.8,9.5,16.9,37.8,17.3,39l-1.9,0.7
			c-0.1-0.3-11-30.9-17.6-39.2l-7.1,1.4c5.8,9.7,15.3,36,15.7,37.1l-1.9,0.7c-0.1-0.3-10-27.8-15.7-37.1l0.9-0.6l-7,1.4
			c9.7,12.9,14,34.8,14.2,35.8l-2,0.4c0-0.2-4.5-23-14.2-35.4l0.6-0.4l-1.6,0.3l7.6,33.7l-2,0.4l-7.6-33.7l-3.1,0.7l-0.5-1.9
			l3.4-0.8l44.5-8.9l0.4,2l-12.9,2.6c10.8,20,37.4,117.9,38.6,122.2L554.3,415.8z M593.5,336.5c-6.3-17.4-22.4-34.7-22.6-34.9
			l1.5-1.4c0.2,0.2,16.6,17.8,23,35.6L593.5,336.5z M417.2,335.5l-2-0.1l1.1-20.1c-1,2-2,4.1-2.9,6.5l-1.9-0.7
			c4-10.4,9.6-16.9,13.5-20.5c0,0,0.1-0.1,0.1-0.1l0-0.3l0.3,0c1.7-1.5,2.9-2.3,2.9-2.3l1.1,1.7c0,0-0.9,0.6-2.4,1.8l-0.7,32.2l-2,0
			l0.7-30.2c-2,2-4.3,4.7-6.5,8.2L417.2,335.5z M602.1,334.7c-7-13.3-12.8-22.2-12.9-22.3l1.7-1.1c0.1,0.1,5.9,9.1,13,22.5
			L602.1,334.7z M622.6,333.8l-10.5-18.6l1.7-1l10.5,18.6L622.6,333.8z M610.6,333.2c-3.9-11.1-10.4-20.7-10.5-20.8l1.6-1.1
			c0.1,0.1,6.8,9.9,10.7,21.3L610.6,333.2z M439.1,327.5l-1.9-0.6c12.8-42.7,26.4-59.7,26.9-60.4l1.6,1.3
			C465.6,267.9,451.8,285.2,439.1,327.5z M562.1,274.4c-4,0-6.7-0.4-6.9-0.4l0.3-2c0.5,0.1,4.9,0.7,10.8,0.3l0-0.3
			c0,0,0.7,0.1,1.9,0.2c9.6-1,22.4-4.9,30.2-17.7c-14.2,12.7-33.2,13.8-34.1,13.9l-0.1-2c0.2,0,23.5-1.4,37.2-17.9
			c0.5-1.3,1-2.7,1.5-4.2c8.8-29.6,6.2-44.7,6.2-44.9l2-0.4c0.1,0.6,2.8,15.7-6.2,45.8c-0.5,1.6-1,3.1-1.6,4.5l0,0
			c0,0,0,0.1-0.1,0.1c-5.1,12.3-14,18.5-22.2,21.6c6.4-1.3,13.8-4.3,20.2-10.4c12.6-12.1,17.5-32.8,14.5-61.4l2-0.2
			c3,29.3-2.1,50.5-15.2,63.1c-12.9,12.4-29.5,12.4-34.8,12C565.7,274.4,563.8,274.4,562.1,274.4z M530.5,230.5l-1-1.7
			c0.2-0.1,21.6-11.9,48.2-0.9l-0.8,1.8C551.3,219.1,530.7,230.3,530.5,230.5z M539.2,215c-0.2,0-0.5,0-0.7,0
			c-7.8-0.5-8.4-11.7-8.4-12.1l2-0.1c0,0.1,0.6,9.9,6.6,10.3c6.5,0.4,15-6.2,21.2-11l0.2-0.1c0.4-0.3,0.9-0.7,1.4-1.1
			c3.8-3.1,9.6-7.8,16-4.8l-0.8,1.8c-5.3-2.5-10.3,1.6-13.9,4.6c-0.5,0.4-1,0.8-1.5,1.2l-0.2,0.1C554.8,208.4,546.4,215,539.2,215z
			 M442.5,205l-2-0.3c0-0.3,3.5-26,2.2-54.5l1.9-0.4c0,0.1,4,10.3,6.7,24.8c1.9-4.2,5-12.5,3-18.9c-3.5-11.2-12.2-26.3-12.3-26.4
			l-0.2-0.3l0-0.3c0-0.1,0-0.5,0.1-1.2c-0.2-7.1-3-91-17-131.3l1.9-0.7c10.9,31.4,15,89,16.4,116.6c2.1-24.9,5.3-71.6,2.4-94.8
			l2-0.2c3.8,30.2-2.7,99.9-3.7,110.4c0,0.2,0,0.3,0,0.4l0,0c0,0.3,0,0.5-0.1,0.6c0.5,1,2.4,4.2,4.6,8.5c1.4-9.2,7.2-49,5.4-79.7
			l2-0.1c2,34.9-5.7,81.6-5.8,82.1l-0.6-0.1c1.6,3.3,3.3,6.9,4.7,10.5c1.6-10.4,7.3-49.1,4.9-66.5l2-0.3c2.8,20.4-5,67.7-5.3,69.7
			l-0.5-0.1c0.3,0.8,0.6,1.7,0.8,2.5c3,9.8-4.2,22.6-4.5,23.2l-1.4,2.5l-0.5-2.8c-1.4-8.8-3.4-16.2-4.9-21.1
			C445.5,182.8,442.5,204.7,442.5,205z M585.8,200.1l-1.8-0.8c0.6-1.4,1-3.4,1.2-5.6l-0.2,0.1c-3.9-5.9-9.3-7.4-20.1-5.6
			c-10,1.6-24.6,8.7-24.7,8.7l-0.9-1.8c0.6-0.3,14.9-7.2,25.3-8.9c8.8-1.4,15.8-1.1,20.8,4.8c0.4-6.1-0.1-12.5-0.1-12.6l2-0.2
			C587.3,179,588.4,193.9,585.8,200.1z M555.5,184.9l-1-1.7c0.3-0.2,7.8-4.5,14-5c5.6-0.4,9.1-4,9.1-4.1l1.5,1.4
			c-0.2,0.2-4.1,4.2-10.4,4.7C562.9,180.6,555.6,184.8,555.5,184.9z M556.6,165.7c-1.5,0-3-0.4-4.2-1.4c-4.9-3.9-10.4-9.2-9.8-16.7
			l0,0c0.1-1-0.3-2-0.8-3.2c-0.7-1.7-1.5-3.8-1.2-6.7c0.4-4,2.3-10.8,10.9-12.3l-0.1-0.2c0.6-0.3,14.1-6.6,23.8-5.8
			c-6.6-8-17.3-7.9-17.4-7.9l-0.1-2c0.2,0,15.6-0.3,21.9,13.2l-1.8,0.8c-0.3-0.7-0.7-1.3-1-1.9c-5.9-1.3-14.7,1.5-19.9,3.5
			c1.3,0.1,2.6,0.2,3.8,0.5c2.4-0.1,17.8-0.1,23.3,10.4l-1.8,0.9c-3.4-6.5-11.5-8.5-16.8-9.1c1.5,1.1,2.7,2.6,3.8,4.4
			c2.3,4,4,7.4,4.2,12.1c0.3,6.2-1.4,11-5.6,15.4C564.7,163.2,560.3,165.7,556.6,165.7z M544.6,147.8L544.6,147.8
			c-0.5,6.6,4.6,11.5,9,15c3.1,2.4,9-0.3,12.7-4.3c3.8-4,5.3-8.2,5-13.9c-0.2-4.3-1.8-7.4-4-11.3c-1.8-3.1-5.2-7.1-14.6-6
			c-7.7,0.9-9.8,6.2-10.2,10.6c-0.2,2.4,0.4,4.1,1.1,5.8C544.2,145.1,544.7,146.3,544.6,147.8z"/>
	</g>
	<path class="st7" d="M551.5,151.2c-0.8,0-1.7-0.2-2.3-0.8c-1.1-1-0.6-3.4,0.5-7.6l0.2-0.8c0.6-2.2,1-4-1.1-5.7
		c-1.5-1.1-2.8-1.6-3.9-1.4c-1.1,0.2-1.6,1-1.6,1l-1.5-0.9c0-0.1,0.9-1.5,2.8-1.9c1.6-0.3,3.4,0.3,5.4,1.8c3.1,2.3,2.3,5.2,1.7,7.5
		l-0.2,0.8c-0.5,2.1-1.4,5.3-1,5.9c0.6,0.5,1.9,0.3,2.4,0c0.5-0.3,2-0.9,3.1-0.4c0.6,0.2,1,0.7,1.2,1.4l-1.7,0.6
		c-0.1-0.2-0.2-0.3-0.2-0.3c-0.3-0.1-1,0-1.6,0.3C553,151,552.3,151.2,551.5,151.2z"/>
	<path class="st7" d="M558.9,156.4l-1.3-0.6l-2.9,0.1c-2.2,0.8-3.7,0.1-4.4-0.3l-0.9,0.2l-0.4-1.5l1.7-0.4l0.3,0.3
		c0,0,1.3,1.1,3.2,0.3l0.1-0.1l3.6-0.1l1.6,0.8L558.9,156.4z"/>
	<path class="st7" d="M553.3,159.2c-0.2,0-0.4,0-0.5,0c-0.5-0.1-1-0.2-1.6-0.4l0.5-1.7c0.5,0.2,1,0.3,1.4,0.3c0.3,0.1,0.5,0,0.9-0.1
		c0.2-0.1,0.5-0.1,0.7-0.2l0.3,1.8c-0.2,0-0.3,0.1-0.5,0.1C554.2,159,553.8,159.2,553.3,159.2z M563.8,140.5c-2.5-3.5-6-1.8-6.1-1.7
		l-0.8-1.6c1.7-0.9,5.7-1.6,8.4,2.2L563.8,140.5z M550.5,140.4c-2.9-3.7-6.1-1.8-6.2-1.7l-1-1.5c1.6-1,5.5-1.9,8.6,2.1L550.5,140.4z
		 M565.4,138.8c0,0-1.4-2-3.5-3.3c-2.6-1.6-5.5-0.3-5.5-0.3l-0.7-1.6c0.2-0.1,3.8-1.7,7.2,0.4c2.5,1.5,4,3.8,4.1,3.9L565.4,138.8z"
		/>
	<path class="st7" d="M546,137.2c0,0-0.9,1.7-0.5,2.2c0.9,1,1.3-2,1.3-2.1"/>
	<path class="st7" d="M545.8,140.1c-0.2,0-0.5-0.1-0.7-0.4c-0.5-0.6,0-2,0.4-2.7l0.7,0.4c0,0,0-0.1,0-0.1l1,0.1c0,0-0.2,2.4-1.2,2.8
		C546,140.1,545.9,140.1,545.8,140.1z M546.1,138.2c-0.1,0.2-0.2,0.5-0.2,0.6C546,138.6,546,138.4,546.1,138.2z"/>
	<path class="st7" d="M558.7,137.8c0,0-0.5,1.8,0.2,2.1c0.5,0.2,1-2.2,1-2.2"/>
	<path class="st7" d="M559,140.4c-0.1,0-0.2,0-0.2,0c-1.1-0.4-0.6-2.2-0.5-2.7l1,0.3c-0.1,0.4-0.2,0.7-0.2,1
		c0.1-0.4,0.3-0.9,0.4-1.4l1,0.2c-0.2,1-0.6,2.3-1.1,2.6C559.2,140.4,559.1,140.4,559,140.4z"/>
	<path class="st7" d="M560.7,143.7c-1.5,0-2.6-0.5-2.7-0.5l0.7-1.7l-0.3,0.8l0.3-0.8c0.1,0.1,3.1,1.2,4.8-0.8l1.4,1.1
		C563.6,143.3,562.1,143.7,560.7,143.7z"/>
	<path class="st7" d="M547.2,143.3c-1.7,0-3-0.8-3-0.8l1-1.5c0.1,0,1.8,1.1,3.7,0.2l0.8,1.6C548.8,143.1,547.9,143.3,547.2,143.3z"
		/>
	<path class="st7" d="M274.8,52.4c14.3-2.2,35,2,52.6,31.3c21.3,35.4,37.4,68.5,37.4,68.5L277.6,52"/>
	<path class="st7" d="M136.4,315.6l-1.4-1.4l49.1-50.5l1.4,1.4L136.4,315.6z M144.9,278.8l-1.4-1.5l30.8-28.9l1.4,1.5L144.9,278.8z
		 M364.1,152.9l-86.9-99.7c-0.8,0.1-1.5,0.2-2.3,0.3l-0.3-2c27.5-4.2,45.4,18.1,53.6,31.7c21.1,35.1,37.3,68.2,37.5,68.6
		L364.1,152.9z M279.8,52.9l80.7,92.7c-5.9-11.6-18.6-36-33.9-61.4C310.9,58.1,293.2,52.4,279.8,52.9z"/>
	<polygon class="st7" points="403.9,274.5 435.4,268.4 419.1,281.6 402.9,281.6 403.9,274.5 	"/>
	<path class="st7" d="M419.4,282.6h-17.6l1.2-8.9l32.3-6.2l0.8,1.8L419.4,282.6z M404.1,280.6h14.6l12.9-10.4l-26.9,5.1L404.1,280.6
		z"/>
	<path class="st7" d="M444,280.7l26.9-3.7l10.4-12.5l-27.8,1.6C453.4,266.1,446.7,270,444,280.7L444,280.7z"/>
	<path class="st7" d="M442.6,281.9l0.4-1.4c2.8-11,9.6-15,9.9-15.2l0.2-0.1l30.4-1.7l-12.1,14.5L442.6,281.9z M453.8,267.1
		c-1,0.7-5.9,4.3-8.4,12.4l25-3.5l8.7-10.4L453.8,267.1z"/>
	<path class="st7" d="M486.1,289.6c0,0,23.6-9.5,51.3,8.8L523,276.1l-29.5,1.7L486.1,289.6L486.1,289.6z"/>
	<g>
		<defs>
			<rect id="SVGID_11_" x="0.1" width="749.9" height="428"/>
		</defs>
		<clipPath id="SVGID_12_">
			<use xlink:href="#SVGID_11_"  style="overflow:visible;"/>
		</clipPath>
		<path class="st18" d="M402.8,393.5c-0.2-0.2-21.3-23.9-35.5-46.4c-14.3-22.7-14.5-31.4-14.5-31.7h2h-1l1,0
			c0,0.1,0.3,8.7,14.2,30.7c14.1,22.4,35.1,45.9,35.3,46.1L402.8,393.5z M536.8,299.2c-26.9-17.8-50.1-8.8-50.3-8.7l-2.8,1.1
			l9.3-14.9l30.6-1.7l14.7,22.8L536.8,299.2z M501.9,286.2c8.6,0,20,1.9,32.2,9l-11.7-18.1l-28.4,1.6l-5.7,9.2
			C491.1,287.2,495.9,286.2,501.9,286.2z M568.9,290.7c-11.5,0-25.5-11.5-26.2-12.1l1.3-1.5c0.2,0.2,18.5,15.2,29.3,10.8l0.7,1.9
			C572.4,290.4,570.7,290.7,568.9,290.7z M615.6,285.3L614,284c9.8-12.8,21.3-32.4,20.8-53.6c-0.3-12.6-4.9-19.9-4.9-20l1.7-1.1
			c0.2,0.3,4.9,7.7,5.2,20.8C637.1,242.3,633.7,261.6,615.6,285.3z M499.1,261.5c-0.2,0-16.2-0.5-25.3-0.5v-2
			c9.1,0,25.2,0.5,25.3,0.5L499.1,261.5z M592,208.5c-9.2-9.8-14.8-10.8-14.9-10.8l0.3-2c0.3,0,6.3,1,16.1,11.4L592,208.5z
			 M432.6,76.8c-13-7.8-28.4-23.5-46-46.6c-13-17.2-22.4-32.2-22.5-32.4l1.7-1.1c0.1,0.1,9.4,15.2,22.4,32.3
			c17.1,22.6,32.8,38.5,45.4,46.1L432.6,76.8z"/>
	</g>
	<polygon class="st7" points="363.2,220 409.9,218.7 395.2,224.4 363.2,220 	"/>
	<path class="st7" d="M395.4,225.4l-0.3,0l-32-4.4l0.1-2l46.7-1.3l0.4,1.9L395.4,225.4z M375.4,220.7l19.7,2.7l9-3.5L375.4,220.7z"
		/>
	<polygon class="st7" points="397.8,199.9 373.3,200.7 345.7,177 397.8,199.9 	"/>
	<path class="st7" d="M372.9,201.7l-27.8-24l1.1-1.7l52.1,22.9l-0.4,1.9L372.9,201.7z M351.4,180.6l22.2,19.1l19.8-0.7L351.4,180.6z
		"/>
	<path class="st7" d="M679.4,67.2"/>
	<g>
		<defs>
			<rect id="SVGID_13_" x="0.1" width="749.9" height="428"/>
		</defs>
		<clipPath id="SVGID_14_">
			<use xlink:href="#SVGID_13_"  style="overflow:visible;"/>
		</clipPath>
		<path class="st19" d="M578.6,460.1c-49-57.3-91.6-91.7-92-92l1.2-1.6c0.4,0.3,43.2,34.8,92.3,92.3L578.6,460.1z M557.3,458.6
			c-25.1-34.9-63.2-64.7-63.6-65l1.2-1.6c0.4,0.3,38.7,30.2,64,65.4L557.3,458.6z M459.9,458.1c-0.9-21.7-1.3-39.4-1.4-53.7
			l-0.5,0.2c-10.5-21.2-12.3-49.7-12.3-50l2-0.1c0,0.3,1.6,26,10.8,46.4c0-37.8,2.2-50.6,2.3-50.8l2,0.4c0,0.2-4.4,25-0.8,107.5
			L459.9,458.1z M523.3,457.2c-22.3-27.9-50.4-42.1-50.7-42.2l0.9-1.8c0.3,0.1,28.8,14.6,51.4,42.8L523.3,457.2z M425.9,456.6h-2
			c0-5.7,0.1-11.2,0.2-16.4c-1.4-1.1-10.8-8.4-24.9-11c-15.6-2.9-28.2-11.1-28.7-11.5l1.1-1.7c0.1,0.1,12.8,8.4,28,11.2
			c12.5,2.3,21.3,8,24.6,10.5c0.4-15.7,1.3-28.9,2.3-39.8c-0.1-0.4-0.2-0.6-0.2-0.6l0.2-0.1c2.2-23.7,5.1-35.7,5.1-35.9l1.9,0.5
			c0,0.2-2.9,12.1-5.1,35.9c1.9,6.1,13.2,40.1,28.4,55.3l-1.4,1.4c-7.1-7.1-14.2-18.9-21-35c-2.8-6.6-5-12.6-6.3-16.6
			C426.8,417,425.9,435,425.9,456.6z M538.9,454.4c-28-30.7-56.3-52.1-56.6-52.3l1.2-1.6c0.3,0.2,28.7,21.7,56.8,52.6L538.9,454.4z
			 M588.5,454.4c-0.1-0.2-13.7-17.6-32.7-38.7c-17.6-19.5-43.6-46.3-67.7-63.1l1.1-1.6c24.2,16.9,50.4,43.8,68,63.4
			c19.1,21.2,32.7,38.7,32.8,38.8L588.5,454.4z M455.2,430.2c-18.9-31.1-20-62.5-20-62.9l2-0.1c0,0.3,1,31.3,19.7,61.9L455.2,430.2z
			 M382.7,415l-0.6-1.9c0.7-0.2,17.2-5.7,31-1.4l-0.6,1.9C399.3,409.5,382.8,415,382.7,415z"/>
		<polygon class="st19" points="565.8,459.4 550.1,407.9 600.6,467.9 565.8,459.4 		"/>
		<path class="st19" d="M603.3,469.6l-38.4-9.4l-15.8-52l1.7-0.9L603.3,469.6z M566.6,458.6l31.3,7.6l-45.4-53.9L566.6,458.6z
			 M281.5,458.6c-24.4-31.9-44.6-36.4-44.8-36.5l0.4-2c0.8,0.2,21.1,4.7,45.9,37.2L281.5,458.6z M302.1,458.5
			c-13.9-23.6-48.4-47.6-48.7-47.9l1.1-1.6c0.4,0.2,35.2,24.5,49.3,48.5L302.1,458.5z M310.6,457c-12.5-27.8-47.5-53.2-47.9-53.4
			l1.2-1.6c0.4,0.3,35.8,26,48.5,54.2L310.6,457z M360.1,455.3c-5.6-34.9-21-73.1-21.2-73.5l1.9-0.8c0.2,0.4,15.7,38.8,21.3,73.9
			L360.1,455.3z M266.8,454.4c-17.6-19.8-33.2-25.1-38.9-25.2l0-2c0.7,0,17.7,0.3,40.4,25.8L266.8,454.4z M147.2,453.9l-2-0.2
			c2.1-21.8,4.8-41.3,7.7-58.3c-18.3,22.3-33.2,54.2-33.3,54.5l-1.8-0.8c0.2-0.4,16.4-35,35.8-57.6c1.3-7.4,2.6-14.3,3.9-20.6
			c-18.9,18.8-36.3,51.8-36.5,52.1l-1.8-0.9c0.2-0.4,19-36.1,38.9-54.7c1.8-8.4,3.4-15.8,4.9-21.8c-21.6,22.2-39.4,52.9-39.6,53.2
			l-1.7-1c0.2-0.3,19-32.8,41.5-55.3l0.4,0.4c2.9-11.7,5-18.2,5-18.3l1.9,0.6c-0.1,0.3-4.9,15.6-10.5,42.5l0.3,0.4
			c-0.2,0.1-0.3,0.3-0.5,0.4c-1.5,7.1-3,14.9-4.4,23.4l0.2,0.2c-0.1,0.1-0.2,0.2-0.3,0.3C152.4,410,149.5,430.7,147.2,453.9z
			 M105.5,453.9l-2-0.2l19-187.2l0-0.1l19.3-65.2l1.9,0.6l-19.2,65.1L105.5,453.9z M315.4,452.8c-17.5-37.6-46.7-57.5-47-57.7
			l1.1-1.7c0.3,0.2,30,20.4,47.7,58.5L315.4,452.8z M343.7,452.6c-11.2-47.5-42.7-104.1-43-104.6l1.7-1c0.3,0.6,32,57.4,43.2,105.1
			L343.7,452.6z M111.2,451l-2-0.2l18.4-181.4l0-0.1l19.8-62.5l1.9,0.6l-19.8,62.4L111.2,451z M321.9,449.8
			c-28-79.7-68.3-135.3-68.7-135.8l1.6-1.2c0.4,0.6,40.9,56.3,69,136.3L321.9,449.8z M332.4,449.8C316.2,388.3,278.4,333,278,332.4
			l1.6-1.1c0.4,0.6,38.3,56.1,54.6,118L332.4,449.8z M351.6,449.7c-9-46.1-30.3-87.2-30.5-87.6l1.8-0.9c0.2,0.4,21.7,41.8,30.7,88.1
			L351.6,449.7z M615.8,446.3c-9.8-25.1-29-56.8-29.1-57.1l1.7-1c0.2,0.3,19.5,32.1,29.3,57.4L615.8,446.3z M180.9,443.2l-1.3-1.5
			c53.9-44,73.2-49,79.9-48c2.2,0.3,3,1.3,3.1,1.5l-0.8,0.6l-0.8,0.6C261,396.2,250.8,386.1,180.9,443.2z M177.6,430.3l-1.5-1.4
			c33.8-36.6,77-56.7,77.4-56.9l0.8,1.8C253.9,374.1,211,394.1,177.6,430.3z M616.7,425.9c-37.8-76.9-55-100.2-55.2-100.5l1.6-1.2
			c0.2,0.2,17.5,23.6,55.4,100.8L616.7,425.9z M181,410.4l-1.6-1.2c24.5-32.4,63.1-52.5,63.5-52.7l0.9,1.8
			C243.5,358.5,205.3,378.4,181,410.4z M179.1,396.2l-1.7-1.1c20.6-31,56.7-52.5,57-52.7l1,1.7C235.1,344.3,199.4,365.6,179.1,396.2
			z M392.3,391.8c-17-11.3-42.4-57.5-43.4-59.4l1.8-1c0.3,0.5,26.2,47.6,42.8,58.7L392.3,391.8z M364.5,386.3l-8.5-14.2l1.7-1
			l8.5,14.2L364.5,386.3z M372.2,384.8l-19-29.8l1.7-1.1l19,29.8L372.2,384.8z M176.1,382.2l-1.4-1.4l51-52.4l1.4,1.4L176.1,382.2z
			 M184.7,359.4l-1.5-1.3l34-39.7l1.5,1.3L184.7,359.4z M141.3,329.7l-1.5-1.3l51-56.7l1.5,1.3L141.3,329.7z M141.2,294.3l-1.4-1.5
			l39.7-36.9l1.4,1.5L141.2,294.3z M149.2,261.7l-1.4-1.4L169,239l1.4,1.4L149.2,261.7z M150.5,246.6l-1.3-1.5l17-14.5l1.3,1.5
			L150.5,246.6z M461.7,228.4l-1.4-1.4c0.2-0.2,20.6-20.7,31.7-38.8l1.7,1C482.5,207.5,461.9,228.2,461.7,228.4z"/>
	</g>
	<polygon class="st7" points="182.5,261 155.6,312 193,275.2 182.5,261 	"/>
	<g>
		<defs>
			<rect id="SVGID_15_" x="0.1" width="749.9" height="428"/>
		</defs>
		<clipPath id="SVGID_16_">
			<use xlink:href="#SVGID_15_"  style="overflow:visible;"/>
		</clipPath>
		<path class="st20" d="M156.3,312.8l-1.6-1.2l27.7-52.4l11.9,16.2L156.3,312.8z M182.6,262.9l-23.2,43.9l32.2-31.7L182.6,262.9z"/>
		<path class="st21" d="M726.2,304l-1.5-1.3c0.2-0.2,19.9-22.8,33-43.3l1.7,1.1C746.3,281.1,726.4,303.7,726.2,304z"/>
	</g>
</g>
</svg>
