<svg version="1.1" xmlns="http://www.w3.org/2000/svg" xmlns:xlink="http://www.w3.org/1999/xlink" x="0" y="0" viewBox="0 0 749.9 428" xml:space="preserve"><style>.st9{fill:#cd381f}.st10{fill:#804700}.st12{fill:#b1b7b7}.st13{fill:#1d252f}.st14{fill:#1a1a17}.st15{clip-path:url(#SVGID_6_);fill:#b1b7b7}.st20{fill:#e6d570}.st21{fill:#c07855}.st22{fill:#82562b}.st24{clip-path:url(#SVGID_8_);fill:#e6d570}.st29{fill:#573a21}.st30{fill:#534539}.st31{fill:#6d5a4e}.st33{fill:#837b75}.st34{fill:#9c6b23}.st35{fill:#6b4518}.st43{fill:#c19078}</style><defs><path id="SVGID_1_" d="M0 0h749.9v428H0z"/></defs><clipPath id="SVGID_2_"><use xlink:href="#SVGID_1_" overflow="visible"/></clipPath><path clip-path="url(#SVGID_2_)" fill="#cebc1a" d="M455.7-29.8l91.1 131.9 134.5 153.2 76.3 21.1-9.4-290.6-292.5-15.6z"/><path d="M758.1 277L681 255.7 546.4 102.5 454.7-30.3l294 15.7 9.4 291.6zm-76.5-22.1l75.5 20.8-9.3-289.4-291.1-15.5 90.5 131.1 134.4 153z" clip-path="url(#SVGID_2_)" fill="#bf9d66"/><path d="M485.4-5.7s19.1 7.8 43.2 43.2c24.1 35.4 16.3 43.2 46.8 76.5 30.5 33.3 53.9 56 90 92.9 36.1 36.9 42.5 41.1 72.3 53.1l.7 182.1-771.7-2.1 2-447.2 516.7 1.5z" clip-path="url(#SVGID_2_)" fill="#796448"/><path clip-path="url(#SVGID_2_)" fill="#d6d4ca" d="M674.5-54.3V361H775V-54.3H674.5z"/><path d="M700.2 348.7h-1V-5.7h1v354.4zm-17.4-5.7h-1V-4.7h1V343z" clip-path="url(#SVGID_2_)" fill="#748285"/><path clip-path="url(#SVGID_2_)" fill="#51637f" d="M707-21.2v384.5h48.2V-21.2H707z"/><path d="M755.7 363.8h-49.1V-21.7h49.1v385.5zm-48.2-1h47.1V-20.7h-47.1v383.5z" clip-path="url(#SVGID_2_)" fill="#1a1a17"/><path d="M754.7 357.2l-51.9-13.5-80.7-31.9-12.7-12.8-17.1-9.9-13.3-.4-22-14.4-31.2-6.4-.1-5-18.3-34.7-39.8 2.8-19.8-13.5-13.3-3.6-63.1 18.4-28.3 7.8-34.1-3.5-28.3-31.9-99.1-25.5-49.6 24.1L88.6 253s-28.9 2.1-56 15.2l-81.5 34.4 1.4 152.4 802.9 4.3-.7-102.1z" clip-path="url(#SVGID_2_)" fill="#6fb36e"/><path d="M755.9 459.7h-.5L-48 455.4v-.5l-1.4-152.7.3-.1 81.5-34.4c25.6-12.4 53.3-15 55.9-15.2l43.2-49.5h.1l49.8-24.2h.2l99.2 25.5.1.1 28.2 31.7 33.8 3.5 28.3-7.8 63.2-18.5L448 217l19.7 13.4 40-2.8 18.5 35.1.1 4.7 30.9 6.3 21.9 14.4 13.3.4 17.3 10.1 12.7 12.7 80.6 31.9 52.2 13.6v.4l.7 102.5zM-47 454.4l801.9 4.3-.7-101.2-51.5-13.4-80.8-31.9-12.8-12.8-17-9.8-13.4-.4-22-14.5-31.5-6.4-.1-5.2-18.1-34.3-39.7 2.8-19.8-13.6-13.1-3.5-62.9 18.4-28.4 7.8-34.4-3.6-.1-.1-28.2-31.8-98.8-25.4-49.3 24L89 253.5h-.2c-.3 0-29.2 2.2-55.8 15.2L-48.2 303l1.2 151.4z" clip-path="url(#SVGID_2_)" fill="#6a8340"/><path class="st9" d="M643.9 380.1s.4 3.3-1 6.5-5.5 9.1-7 13.9c-1.5 4.8-2.1 5.2-2.5 8.1-.4 2.8-1.4 4.7-3.1 7.7-1.7 3-3.1 2-4.7 2s-4.8-1-3.1-4c1.8-3 4.5-6.2 4.5-6.2s-.4-1 1.1-8.4c1.6-7.4 1.6-11.9 2.1-15.3.6-3.5 1.5-5.8 3.1-6 1.7-.1 6.1-.5 6.1-.5l4.5 2.2z"/><path class="st10" d="M627.4 418.9c-.3 0-.6 0-.9-.1-.3 0-.6-.1-.9-.1-1 0-3-.4-3.8-1.8-.3-.6-.6-1.6.3-3 1.5-2.6 3.8-5.4 4.4-6.1-.1-.7 0-2.8 1.2-8.3 1-4.8 1.4-8.4 1.6-11.3.1-1.5.3-2.8.5-4 .5-2.9 1.3-6.2 3.6-6.4 1.7-.1 6.1-.5 6.1-.5h.1l4.7 2.4v.3c0 .1.4 3.5-1 6.7-.5 1.2-1.4 2.6-2.3 4.3-1.7 2.9-3.7 6.5-4.6 9.5-.6 2-1.1 3.2-1.4 4.2-.5 1.4-.8 2.2-1.1 3.8-.4 2.9-1.5 4.9-3.2 7.8-1.1 2.2-2.3 2.6-3.3 2.6zm12-40.5c-.8.1-4.4.4-5.9.5-1.2.1-2.1 1.9-2.7 5.5-.2 1.2-.3 2.5-.5 4-.3 2.9-.6 6.5-1.7 11.4-1.4 6.8-1.2 8.1-1.1 8.1l.1.3-.2.2s-2.7 3.2-4.4 6.1c-.5.8-.6 1.5-.3 2 .5.9 2.1 1.2 2.9 1.2.3 0 .7 0 1 .1 1.2.1 2 .2 3.2-1.8 1.7-2.9 2.6-4.7 3.1-7.5.3-1.7.6-2.6 1.1-4 .4-1 .8-2.2 1.4-4.1 1-3.2 3.1-6.8 4.7-9.7 1-1.7 1.8-3.1 2.3-4.3 1.1-2.5 1-5.1 1-5.9l-4-2.1z"/><path class="st9" d="M657.6 382.5s-1.7 3.4-.5 5.5c1.1 2.1 1.5 3.3 1.5 3.3s-.1 1.7 1 7.1c1.1 5.4 1.3 10.5.5 14.3-.8 3.8-1.7 6.6-.3 8.4 0 0 4.8 1.5 5.8-.6 2.1-4.4 1.5-7.4 1.3-10.7-.2-3.5-.1-8 .4-13 .4-4.4.4-5.2 1.6-6.2 1.1-1 3.2-5.2.3-7.7-2.9-2.4-6.3-.9-6.3-.9l-5.3.5z"/><path class="st10" d="M663 422.1c-1.5 0-3.1-.5-3.4-.6h-.2l-.1-.1c-1.3-1.7-.8-4-.1-7 .1-.6.3-1.2.4-1.8.8-3.9.6-8.9-.5-14.1-1-4.7-1-6.6-1-7.1-.1-.3-.6-1.4-1.5-3.1-1.2-2.3.5-5.8.5-6l.1-.3 5.4-.4c.6-.2 3.9-1.4 6.7 1 1.1.9 1.6 2.1 1.6 3.5 0 2.1-1.2 4.2-2 4.9-.9.8-1 1.4-1.4 5.6v.3c-.4 5.1-.6 9.6-.4 13 0 .4.1.8.1 1.3.2 2.8.4 5.7-1.5 9.6-.2 1-1.4 1.3-2.7 1.3zm-2.9-1.4c1.3.4 4.4 1 5.1-.4 1.8-3.7 1.6-6.4 1.4-9.1 0-.4-.1-.9-.1-1.3-.2-3.4-.1-8 .4-13.1v-.3c.4-4.3.4-5.2 1.7-6.3.6-.5 1.6-2.2 1.6-4.1 0-1.1-.4-2.1-1.3-2.8-2.6-2.2-5.7-.8-5.8-.8h-.2l-4.9.5c-.3.8-1.3 3.3-.4 4.8 1.1 2.1 1.5 3.3 1.6 3.3v.2s-.1 1.7 1 6.9c1.1 5.3 1.3 10.5.5 14.5-.1.6-.3 1.3-.4 1.9-.7 2.8-1.1 4.7-.2 6.1z"/><defs><path id="SVGID_3_" d="M0 0h749.9v428H0z"/></defs><clipPath id="SVGID_4_"><use xlink:href="#SVGID_3_" overflow="visible"/></clipPath><path d="M74.3 428.3l-.5-.4s-4.7-3.3-21.7-6.6c-17.2-3.4-44.8 0-45.1 0l-.2-2c.3 0 28.2-3.4 45.7 0 14.6 2.9 20.3 5.7 22 6.6 3.9-1.8 30.3-13.8 50.2-18.5l.5 1.9c-21.2 5-50 18.5-50.3 18.6l-.6.4zm332.5-.7l-.3-.1c-.3-.1-28.1-9.9-54.3-12.2-2-.2-4-.3-6.1-.3l-.6.7v-.7c-26.1-.3-61.4 8.5-61.7 8.6l-.4.1-.3-.2c-19.3-10.8-69.1-8.2-69.6-8.1l-.1-2c2.1-.1 50.4-2.7 70.3 8.2 3.9-1 37.1-8.8 61.9-8.5v-.1c.1-2.9-.8-5.3-2.8-7.3-7.8-7.5-28.8-5.9-29-5.9l-.2-2c.9-.1 22.1-1.8 30.5 6.4 1.9 1.8 3 4 3.3 6.5 3.9-3.5 14.8-11.7 35.3-16.9 25.8-6.5 38.2-5.2 38.7-5.1l-.2 2c-.1 0-12.6-1.3-38 5.1-22 5.5-32.9 14.9-35.4 17.3 1.5.1 3 .1 4.4.3 25 2.2 51.4 11.1 54.5 12.2 3.5-.9 35.9-9.3 60.1-3.3l-.5 1.9c-25-6.1-59.1 3.3-59.4 3.4h-.1zm-88.7-41.8l-1.4-1.4.7.7-.7-.7c.4-.4 1.1-1.4.8-1.9-.2-.4-1.7-2.1-12.5-.6l-.3-2c8.7-1.2 13.4-.6 14.6 1.7.9 2-1 4-1.2 4.2zm74.1-35.8l-.4-.3c-8.3-7.8-27.3-4.4-27.5-4.4l-.4-2c.8-.1 19.7-3.5 28.8 4.5l45.4-7.8.3 2-46.2 8zm-28.7-8.7l-.4-1c-3.2-8.7-21.3-6.6-21.5-6.6l-.2-2c.8-.1 18.7-2.1 23.2 6.9l17.9-7.6.8 1.8-19.8 8.5zm-326.4-6.6l-.3-2c.3 0 31-4.1 40.1-6.3 8.3-2 16.3-3.6 32.3-6.8l6.9-1.4c7.8-1.6 14.7-3.4 21.5-5.2 11.2-3 20.9-5.6 30.3-5.6 11.7 0 32.3-2.4 50.5-4.6 4.5-.5 8.9-1 12.9-1.5 19.6-2.2 40.3-6.2 53.9-10.3 13.8-4.2 31.4-22.6 41.9-33.6 12.6-13.2 31-14.7 31.8-14.7l.1 2c-.2 0-18.5 1.5-30.5 14.1C314.1 274 299 289 285.8 293c-13.7 4.2-34.5 8.2-54.2 10.4-4 .5-8.4 1-12.9 1.5-18.2 2.1-38.8 4.6-50.7 4.6-9.1 0-18.7 2.5-29.8 5.5-6.8 1.8-13.7 3.6-21.6 5.2l-6.9 1.4c-16 3.2-24 4.8-32.2 6.8-9.3 2.2-39.1 6.1-40.4 6.3zm428.1-.3c-2-7.8-19.7-5.7-19.9-5.6l-.3-2c.8-.1 19.7-2.4 22.1 7.1l-1.9.5zm-283.3-29l-1.4-1.4 12.3-16.1 1.6 1.2-9.4 12.4c5.7-2.5 17.1-5.7 34.8-2.4l-.4 2c-20.2-3.8-33.4 1.1-37.5 4.3zm299.6-7.7l-.6-1.9c.8-.3 18.9-6.3 27.9-8l8.9-1.7c2-1.3 18.7-12.3 30.4-14.8l.4 2c-11.8 2.5-29.7 14.5-29.9 14.6l-.2.1-9.3 1.7c-8.9 1.8-27.4 8-27.6 8zm-159.1-5.2l-1.1-1.6c.2-.1 5.2-3.5 16.8-3.1l-.1 2c-10.8-.4-15.5 2.7-15.6 2.7zm-21.9-3l-1.3-1.5c18-15.8 25.3-9.2 25.6-8.9l-1.4 1.4.7-.7-.7.7c-.1-.1-6.5-5.5-22.9 9zm-127.5-.1l-.6-.5s-4.5-3.5-16.9-3.5c-12.4 0-16.3 3.1-16.4 3.2l-1.3-1.5c.2-.1 4.4-3.6 17.7-3.6 10.6 0 15.8 2.5 17.5 3.5l23.8-19.2 1.3 1.6-25.1 20zm298.9-15.1l-1.2-1.6c.5-.4 13-9.5 28.4-9.8 2-1.2 15.4-9 21.4-9.6l.2 2c-6 .7-20.7 9.4-20.9 9.5l-.2.1h-.3c-14.8.3-27.3 9.4-27.4 9.4zm-89.5-22.8l-.9-1.8c.2-.1 5.9-2.9 17.8-6 11.7-3.1 39.5-16.5 39.7-16.6l.9 1.8c-1.1.6-28.3 13.7-40.1 16.8-11.6 2.9-17.3 5.7-17.4 5.8zm75.3-6.3l-.5-.3c-6.2-3.3-17.6-3.8-17.8-3.9l.1-2c.5 0 11.4.6 18.1 3.8 1.7-.9 7.8-4 17-6.6 10.7-3.1 31.8-8.7 32.1-8.8l.5 1.9c-.2.1-21.4 5.7-32 8.8-10.5 3-17 6.7-17.1 6.7l-.4.4z" clip-path="url(#SVGID_4_)" fill="#6a8340"/><path class="st12" d="M227.5 129.5s1.9 15.7-6.5 26.4c-8.4 10.6-15.1 15.6-15.1 15.6s27.8 23 43.5 36.9c15.7 13.8 28.5 26.2 30.2 46.4 0 0-9.2.7-20.9-3.2-11.7-3.9-12.8-4.9-12.8-4.9v-8.5l5.3-9.9s-.5-8.9-13.2-16.7c-12.8-7.8-28.9-21.1-39.6-26.9s-16.2-6-19.5-8.2c-3.3-2.1-4.3-5 1.1-14.2 5.3-9.2 6.7-15.9-2.8-25.5-9.6-9.6-12.8-12.4-12.8-12.4l7.3-16.7 15.4 2.5 40.4 19.3z"/><path class="st13" d="M652.8 354.4s-2.6 13.7 0 16.5c2.6 2.8 2.5 6.4 3.6 10 1.1 3.6 2.5 6.3 4.8 7 2.3.7 2.3.5 4.8-.4s3.6-1.7 3.6-5.4 1.3-9.9 1.3-9.9l-3.4-10.2-14.7-7.6z"/><path class="st14" d="M663.2 388.8c-.5 0-1.2-.1-2.1-.4-2.2-.7-3.9-3-5.2-7.3-.3-1-.5-2.1-.7-3.1-.5-2.5-1-4.8-2.7-6.7-2.7-2.9-.4-15.5-.1-16.9l.1-.7 15.5 8 3.5 10.5v.1c0 .1-1.3 6.2-1.3 9.8 0 3.8-1.2 4.9-4 5.9-.3.1-.6.2-.8.3-1 .3-1.6.5-2.2.5zm-10-33.6c-.7 4.1-1.9 13.3 0 15.4 1.9 2.1 2.4 4.6 3 7.2.2 1 .4 2 .7 3 1.2 4 2.6 6.1 4.5 6.7 1.9.6 2 .5 3.6-.1.3-.1.5-.2.9-.3 2.4-.9 3.3-1.5 3.3-4.9 0-3.4 1.1-8.9 1.3-9.9l-3.3-9.9-14-7.2z"/><path class="st12" d="M122.6 157.3s11 6.4 8.1 17.7c-2.8 11.3-5.9 13-16.7 16.4-10.7 3.4-10.6 15.8-7.1 22.6 0 0-.6 7.8 6.4 15.6 0 0 2.8-7.8 11.7-14.2 8.9-6.4 26.6-15.2 25.5-32.9-1.1-17.7-5.5-22.7-14.2-32.2l-13.7 7z"/><defs><path id="SVGID_5_" d="M0 0h749.9v428H0z"/></defs><clipPath id="SVGID_6_"><use xlink:href="#SVGID_5_" overflow="visible"/></clipPath><path class="st15" d="M401.8 178.7s4.6 2.7 19 7.2 19.8 15.3 19.8 15.3-8.2 42-9.9 46.8c-1.7 4.8-12.8 12.5-12.8 12.5l5.9 4.3s-2.3 4.8-4.8 6.5c-2.6 1.7-4.8-.3-6.5 2.6-1.7 2.8-3.4 5.9-2.6 12.8.9 6.8 4.5 10.8 4.5 10.8s5.7-4 9.6-9.6l-.5-.9s7.1-9.1 12.8-21.5c5.6-12.5 4.5-13.3 7.3-24.1s4.5-25.8 8.2-31.7c3.7-6 6.8-11.1 2-16.7-4.8-5.7-7.1-13.6-13.3-19.8-6.2-6.3-10.2-9.7-19.3-14.5l-17.3 13-2.1 7z"/><path class="st15" d="M406.6-2.8s38.3 7.3 66 43.4c27.8 36 54.7 65.8 75.1 94.1 20.4 28.3 37.4 51.6 37.4 51.6l19.3.3s-8.5 8.8-22.1 11c0 0 10.3 4 23.3 2.3 0 0-9.7 8.2-26.7 11.9l-15 38.6s1.1 5.9-3.7 9.6c-4.8 3.7-8.2 5.7-11.3 3.7-3.1-2-5.7-5.4-3.7-9.9 2-4.6 3.1-10.2 3.1-10.2s-2.6-1.4-3.4 2.6c-.8 4-3.7 11.1-6.5 10.2-2.8-.8-6-7.4-2.6-13 3.4-5.7 5.1-9.1 4-14.7-1.2-5.7-5.4-8.8-7.1-15.6-1.7-6.8-1.7-8.2-3.4-10.5-1.7-2.3-12.8-13-21-17.9-8.2-4.8-23.3-11.6-37.7-16.7-14.4-5.1-22.4-5.1-34.6-7.1 0 0-3.1 1.4-14.5 1.4 0 0-5.9 6-15.1 9.9 0 0-6.4 16.4-15.8 32.6-9.4 16.2-16.2 25-16.2 25s-.9 5.9-3.1 11.9c-2.3 6-.3 9.6-4 17.6-3.7 7.9-7.4 12.5-7.4 12.5s-2 5-7.1 26.4c-5.1 21.3-6.5 31.7-7.6 37.4-1.1 5.7-1.1 10.2 1.1 12.5 2.3 2.3.8 5.7 2.3 7.9 1.4 2.3 3 4.3 3.8 7.7.7 3.4 1.1 4.8 2.5 8.8 1.4 4 .6 10.5.3 13.9 0 0-4.8.6-10.2-4-5.4-4.5-11.1-9.9-9.1-18.7 2-8.8.6-12.7 1.2-16.1.5-3.4-3.3-6-2.1-13.9 1.2-7.9 2.9-17.8 6-34.3 3.1-16.5 4.5-33.5 6.8-35.2 2.3-1.7 3.1-3.4 2.3-5.4-.9-2 6-20.7 4-35.7-2-15-3.1-20.7-5.7-29.2s-2.6-8.8-12.2-13.3-62.7-23.2-90.4-35.7c-27.8-12.5-34-21-50.2-26.6-16.2-5.7-19.3-8.5-24.9 4-5.7 12.5-14.5 25.5-25.5 30.6-11.1 5.1-17.6 7.4-25.5 11.9-7.9 4.5-14.2 6.2-24.7 8.8-10.5 2.6-16.4 3.7-20.1 14.2-3.7 10.5-14.2 34.3-19.3 59.5-5.1 25.2-9.1 40.8-4.8 45.9 4.3 5.1 4 8.2 4.3 11.1.3 2.8 1.4 3.9 5.1 9.6 3.7 5.7 10.2 18.7 7.1 19.6-3.1.8-12.9-.6-18.8-5.4-5.9-4.8-8.2-14.5-6.5-17.3 1.7-2.8 1.6-10.8-1.1-13.3-2.6-2.6-6-7.9-2.6-17s5.1-23.8 8.2-50.2c3.1-26.4 6.5-40.5 7.9-42 1.4-1.4-2.3-3.6 0-9.2s-1.4-7.5 4.3-10.7c5.7-3.1 10.2-4 19-20.4s8.8-23.8 11.6-31.2c0 0-7.2-12-16.4-37.1-9.1-24.8-6.8-45 0-63.8 3.6-9.8 11.6-19 11.6-19L216-15.3 406.6-2.8z"/><path d="M487.6 84.2L474 76.9l.5-.9 13.6 7.3-.5.9zm-3.4-5.4c-9.2-4.9-15.3-6.3-15.3-6.4l.2-1c.1 0 6.2 1.5 15.6 6.4l-.5 1zm-1.4-4.8c-7.5-4.6-20-6.1-20.1-6.1l.1-1c.5.1 12.8 1.5 20.5 6.2l-.5.9zm-.3-6.2s-4-.8-10.6-2.6c-6.5-1.7-14.6-1.7-14.7-1.7v-1c.1 0 8.2 0 14.9 1.8 6.6 1.7 10.5 2.5 10.6 2.6l-.2.9zm-3.6-4.4s-4.1-1.5-11-2.6-16.1-2.9-16.2-3l.2-1c.1 0 9.3 1.9 16.1 2.9 6.9 1.1 11 2.6 11.1 2.6l-.2 1.1zm-5-4.9c-.1 0-5.4-1.5-12.3-2.2-7-.6-14.6-2.4-14.7-2.4l.2-1c.1 0 7.6 1.7 14.5 2.4 7 .6 12.5 2.2 12.5 2.2l-.2 1zm-6.4-6.3c-.1 0-10.4-1.5-15.1-1.7-4.9-.2-13-2.7-13.3-2.8l.3-1c.1 0 8.3 2.6 13.1 2.8 4.8.2 15.1 1.7 15.2 1.7l-.2 1zm-11.1-4.3c-.1 0-5.5-1.1-11.1-2-5.6-.9-10.2-2.5-10.2-2.5l.3-.9s4.6 1.6 10.1 2.5c5.6.9 11 2 11.1 2l-.2.9zm-6.6-5.3s-2.5-.8-6.9-2c-4.3-1.1-11.2-1.4-11.3-1.4v-1c.3 0 7.1.2 11.5 1.4s6.9 2 6.9 2l-.2 1zm-4.9-5.2s-2.2-.3-9.6-.4c-7.6-.1-11.1-2.6-11.2-2.7l.6-.8s3.4 2.4 10.6 2.5c7.4.1 9.6.4 9.7.4l-.1 1zm-3.2-3.9s-4-1.2-8-1.6c-4.1-.3-12.7-1.8-12.8-1.9l.2-1c.1 0 8.7 1.5 12.7 1.8 4.1.3 8.1 1.6 8.2 1.6l-.3 1.1zm-6.6-5.2s-1.9-.4-6.7-1.1c-4.9-.8-12.2-2.8-12.3-2.8l.3-1c.1 0 7.4 2 12.2 2.8 4.9.8 6.7 1.1 6.7 1.2l-.2.9zm-6.2-5.1c-.7 0-1.5 0-2.3-.1-5.6-.4-12.2-3.7-12.5-3.9l.5-.9c.1 0 6.7 3.4 12.1 3.8 4.4.3 5-.3 5.1-.3 0 0-.1.1-.1.2h1c0 .1 0 .3-.2.5-.5.5-1.7.7-3.6.7zm-9.1-7.2s-4.4-.7-10.4-1.7c-6.2-1-9.8-4.5-9.9-4.6l.7-.7s3.6 3.4 9.4 4.3c6.1 1 10.4 1.7 10.4 1.7l-.2 1zm-5.2-3.2s-2.6-.9-6.2-1.2c-3.9-.3-8-4.7-8.2-4.8l.7-.7s4 4.3 7.5 4.5c3.7.3 6.3 1.2 6.4 1.3l-.2.9zm-5.7-5.9c-.8 0-2.9-.3-6.7-2.7C397.6 1.3 394 1 394 1l.1-1c.2 0 3.9.3 8.7 3.3 4.5 2.8 6.3 2.5 6.4 2.5l.2 1c-.2.1-.3.1-.5.1z" clip-path="url(#SVGID_6_)" fill="#837b75"/><path d="M185.8-2.6s-6.2 10.2-9.9 15.6-3.7 5.7-3.7 5.7l3.1 4.5 32 .3 3.7 28.1 11.4 2.3L238 73.7l-7.4 37.4s7.9-.6 11.1-7.1l4.8-.3s3.1-6 8.8-6.8 8.2-.8 9.1-3.4l28.3 25.8 11.3.4v5l4.2 4.3 19.6-6.5 22.4-13.3 11.6-17.9 15.9-5.4 16.4-32 1.7-21 21.3-24.4 21.5 1.4-5.1-18.1-238.7-4.5-9 10.1z" clip-path="url(#SVGID_6_)" fill="#cd381f"/><path d="M308.1 129.5l-4.6-4.6v-4.7l-11-.4-.1-.1-27.8-25.3c-1 1.9-3.1 2.2-7 2.7l-2.1.3c-5.4.8-8.4 6.5-8.4 6.5l-.1.3-4.8.3c-3.3 6.5-11 7.1-11.3 7.1h-.7l7.5-37.8-15.3-19.5-11.8-2.3-3.7-28-31.9-.3-3.4-4.9v-.2c0-.2 0-.4 3.8-6 3.6-5.3 9.8-15.5 9.9-15.6l.1-.1 9.2-10.4L434-8.7l5.4 19.2-22-1.4-21 24.1-1.7 21-16.5 32.2-15.9 5.4-11.6 17.8-22.7 13.3-19.9 6.6zm-3.6-5l3.9 3.9 19.2-6.4 22.2-13.2 11.7-17.9 15.8-5.4 16.3-31.7 1.7-21.1L416.9 8 438 9.4l-4.8-17.1-238.1-4.5-8.9 10c-.4.7-6.4 10.4-9.9 15.6-2.5 3.6-3.3 4.9-3.5 5.3l2.8 4.1 32.2.3 3.7 28.1 11.2 2.2 15.8 20.2-7.3 36.9c1.9-.3 7.5-1.6 10-6.7l.1-.3 4.8-.3c.7-1.2 3.8-6 9-6.8.8-.1 1.5-.2 2.2-.3 4-.6 5.9-.8 6.5-2.7l.2-.7 28.8 26.2 11.6.4.1 5.2z" clip-path="url(#SVGID_6_)" fill="#a83530"/><path d="M306.6 321.5s4.5 2.3 7.9 10.5c3.4 8.2 3.5 11.3 3.5 11.3l-9.5-3.8-4.1-10.3 2.2-7.7z" fill="#ad885f"/><path class="st20" d="M318.6 344l-10.4-4.2-4.3-10.7 2.3-8.4.5.3c.2.1 4.7 2.5 8.2 10.7 3.4 8.2 3.6 11.4 3.6 11.5l.1.8zm-9.7-4.9l8.5 3.4c-.2-1.4-1-4.6-3.4-10.4-2.6-6.3-5.9-9-7.2-9.9l-1.9 6.8 4 10.1z"/><path class="st21" d="M346.5 105.7s2.1 7.9 6.7 11.1c0 0 9.8 1.6 12.3 3s1.7 1.8 1.7 1.8 2.2.6 3.1 2.3c.9 1.7.4 1.7.4 1.7s2.3 1.1.6 4c-1.2 2-3.3 4.2-8.1 3.1-4.8-1-3.3.5-8.8-.6-5.4-1.1-12.2-5.1-12.2-5.1l-4.5-19.8 8.8-1.5z"/><path class="st22" d="M365.6 133.5c-.8 0-1.6-.1-2.4-.3-2.3-.5-3.1-.4-3.9-.3-1 .1-2 .3-4.9-.3-5.5-1.1-12.1-5-12.3-5.2l-.2-.1-4.7-20.6 9.8-1.6.1.4c0 .1 2.1 7.7 6.4 10.7 1.1.2 9.9 1.7 12.3 3 1.4.8 2 1.4 2.1 1.9.8.3 2.2 1 2.9 2.4.5.9.6 1.4.6 1.7.3.2.8.7 1 1.4.3.9.1 1.9-.6 3.1-1.4 2.6-3.5 3.8-6.2 3.8zm-5.2-1.7c.7 0 1.6.1 3 .4 4.7 1 6.6-1.2 7.6-2.9.5-.9.7-1.6.5-2.2-.2-.7-.9-1-.9-1l.2-1c-.3 0-.4.2-.4.3 0 0 0-.3-.5-1.3-.8-1.5-2.8-2-2.8-2l-1.3-.3 1-.5c-.1-.2-.5-.5-1.5-1.1-2.4-1.4-12-2.9-12.1-2.9l-.2-.1c-4.1-2.8-6.3-9.2-6.8-10.9l-7.8 1.3 4.4 19.1c1.1.6 7 3.9 11.9 4.9 2.7.6 3.6.4 4.5.3.3 0 .7-.1 1.2-.1z"/><path class="st21" d="M345.7 108s0 6 .9 15.9c.8 9.9 4.2 21.8-.4 28.9-4.7 7.1-7.2 14.2-13.2 10.5-6-3.7-15.3-11.1-11.1-23.8 4.2-12.8 9.1-23.4 7.9-36 0 0 8.8-4 15.9 4.5z"/><path class="st22" d="M336 164.8c-1 0-2.1-.4-3.3-1.1-10.7-6.6-14.5-14.8-11.3-24.4.7-2.1 1.4-4.2 2.1-6.2 3.6-10.3 6.7-19.2 5.8-29.6v-.4l.3-.1c.1 0 9.2-4 16.5 4.7l.1.1v.2c0 .1 0 6 .8 15.8.2 2.3.5 4.8.9 7.2 1.1 8.1 2.3 16.4-1.4 22-.8 1.3-1.6 2.5-2.3 3.7-2.3 3.9-4.4 7.2-7.2 7.9-.3.1-.6.2-1 .2zm-5.7-61c.8 10.5-2.4 19.8-5.9 29.6-.7 2-1.4 4.1-2.1 6.2-3.1 9.2.5 16.8 10.9 23.2 1.3.8 2.5 1.1 3.6.8 2.4-.6 4.3-3.7 6.5-7.4.7-1.2 1.5-2.5 2.3-3.8 3.5-5.3 2.3-13.4 1.2-21.3-.3-2.4-.7-4.9-.9-7.3-.8-8.9-.8-14.7-.9-15.7-5.9-7.1-13-4.9-14.7-4.3z"/><defs><path id="SVGID_7_" d="M0 0h749.9v428H0z"/></defs><clipPath id="SVGID_8_"><use xlink:href="#SVGID_7_" overflow="visible"/></clipPath><path d="M107 341.9s-4.3-.7-2.1 9.6c2.1 10.3 5.5 13.4 2.2 18.8-3.3 5.3-3.3 13.5-.7 16.3 0 0-4.9 10.2 0 18.4 4.9 8.1 10.6 11.7 10.6 11.7s-2.1 9.2 9.2 15.6l15.6 4.6 108.1-64.5 33-23.4-10.9-15.6-142.3 17-22.7-8.5z" clip-path="url(#SVGID_8_)" fill="#ad885f"/><path class="st24" d="M141.8 437.4l-15.9-4.7c-10.3-5.8-9.8-14-9.5-15.8-1.2-.8-6.1-4.4-10.4-11.7-4.6-7.6-.9-16.8-.2-18.6-2.4-3.1-2.6-11.2.9-16.7 2.1-3.4 1.3-5.9-.1-10.3-.7-2.1-1.5-4.7-2.2-8.1-1-4.8-.8-7.9.6-9.4.9-1 2-.8 2.1-.8h.1l22.6 8.5 142.5-17 11.2 16.2-33.4 23.7-108.3 64.7zm-15.5-5.6l15.3 4.5 107.9-64.4 32.5-23.1-10.3-14.9-142.1 17-22.7-8.5c-.1 0-.7 0-1.2.5-.6.7-1.5 2.7-.4 8.5.7 3.3 1.5 5.9 2.2 8 1.5 4.6 2.3 7.3 0 11.1-3.2 5.2-3.1 13.2-.8 15.7l.2.2-.1.3c0 .1-4.7 10.1 0 17.9 4.8 7.9 10.3 11.5 10.4 11.5l.3.2-.1.3s-.5 2.3.4 5.2c1.1 4.1 4.1 7.5 8.5 10z"/><path d="M189.2 434.4s60.9-22.3 91.8-41.5c30.8-19.1 40.7-24.1 36.9-51 0 0-6.7-2.4-9.6-8.8-2.8-6.4-.4-10.6-.4-10.6s-18-12.8-43.9-12c-26 .7-75.4 12.4-159.8 30.8 0 0 3 5 8.1 8.1 5.2 3.2 8.5 4.3 8.5 4.3s2.1 6.1 5.3 10.6c3.2 4.6 5.6 8.1 5.6 8.1s15.8-4.6 43.3-10.6c27.5-6 93-25.2 102.8-17.4 0 0-33.7 7.8-70.5 19.8-36.9 12-69.4 28-69.4 28l3.2 11.3s-8.5 6.8-8.5 11.7c0 4.9-1.8 17-1.8 17l58.4 2.2z" clip-path="url(#SVGID_8_)" fill="#cd381f"/><path d="M189.3 434.9l-59.1-2.1.1-.6c0-.1 1.8-12.1 1.8-16.9 0-4.7 7-10.7 8.4-11.9l-3.2-11.4.4-.2c.3-.2 33.1-16.1 69.5-28 32.6-10.7 63.1-18.1 69.4-19.6-9.6-4.5-49.3 5.3-78.5 12.6-8.6 2.1-16.7 4.2-22.8 5.5-27.2 5.9-43.2 10.5-43.3 10.6l-.4.1-.2-.3s-2.4-3.6-5.5-8.1c-2.9-4.1-4.9-9.4-5.3-10.5-.9-.3-3.9-1.5-8.4-4.2-5.2-3.2-8.2-8.1-8.3-8.3l-.4-.6.7-.1c12.1-2.6 23.5-5.2 34.3-7.5 64.4-14.2 103.3-22.7 125.6-23.3 25.8-.7 44.1 12 44.2 12.1l.4.3-.2.4s-2.3 4.1.4 10.2c2.7 6.1 9.2 8.6 9.3 8.6l.3.1v.3c3.8 26.2-5.6 32-33.6 49.4l-3.5 2.2c-30.7 18.6-91.4 40.9-92.1 41.2zm-58-3.1l57.8 2.1c2.7-1 61.7-22.8 91.6-41.4l3.5-2.2c28.2-17.5 36.8-22.8 33.2-48.1-1.3-.6-7-3.2-9.6-9-2.4-5.5-1.1-9.4-.5-10.7-2.6-1.7-19.7-12.4-43.3-11.7-22.2.6-61.1 9.1-125.4 23.3-10.5 2.3-21.7 4.8-33.6 7.4.9 1.4 3.6 4.9 7.6 7.4 5.1 3.1 8.4 4.2 8.4 4.2l.2.1.1.2c0 .1 2.1 6 5.3 10.5 2.6 3.8 4.7 6.9 5.4 7.8 2.5-.7 18-5 43-10.5 6.1-1.3 14.2-3.3 22.8-5.5 32.3-8 72.6-18 80.4-11.8l.8.6-1 .2c-.3.1-34.1 7.9-70.5 19.8-34.3 11.2-65.3 26-69 27.8l3.2 11.3-.3.2c-.1.1-8.3 6.7-8.3 11.3-.1 4.6-1.4 14.2-1.8 16.7z" clip-path="url(#SVGID_8_)" fill="#a83530"/><path class="st24" d="M286.4 345.4l-1.4-3.6c-4.5 1.4-7.6 2.5-7.7 2.5l-.3-.9c.1 0 3.2-1 7.7-2.5l-1.6-3.9.9-.4 1.6 4c1.2-.4 2.4-.8 3.7-1.2l-1.7-3.6.9-.4 1.8 3.7c1.4-.4 2.8-.9 4.3-1.3l-1.6-3.9.9-.4 1.7 4 3-.9-1.4-3.8.9-.3 1.4 3.9c.8-.2 1.6-.5 2.4-.7l-1.2-3.3.9-.3 1.3 3.4c2-.6 4-1.1 5.9-1.6l.3 1c-1.8.5-3.8 1-5.8 1.6l1.3 3.6-.9.3-1.4-3.7c-.8.2-1.6.5-2.4.7l1.3 3.6-.9.3-1.3-3.7c-1 .3-2 .6-2.9.9l1.8 4.1-.9.4-1.8-4.2c-1.5.4-2.9.9-4.3 1.3l1.6 3.4-.9.4-1.7-3.5c-1.3.4-2.6.8-3.8 1.2l1.4 3.5-1.1.3z"/><path d="M452.8 432s-6.5-2.3-16.4-9.1c-9.9-6.8-10.5-2.8-13.1-13.3 0 0-7.7-11-14.2-17l-2.3-.4s8.3-2.2 22.2-9c13.8-6.8 34.3-15.9 56.9-28.3 22.7-12.5 45.1-26.9 68.9-28.9 23.8-2 36.7-2 44.5 9.9 7.9 11.9 12.1 19.9-3.1 41.1-15.3 21.2-34.9 24.1-57 36.6-22 12.4-36.2 23.2-36.2 23.2l-50.2-4.8z" clip-path="url(#SVGID_8_)" fill="#33270a"/><path d="M503.2 437.3l-50.5-4.9c-.1 0-6.7-2.4-16.5-9.1-3.1-2.1-5.3-3.2-6.9-4-3.7-1.8-4.6-2.5-6.3-9.5-.7-1-7.8-11.1-13.9-16.8l-2.1-.3v-1c.1 0 8.4-2.3 22.1-9 3.7-1.8 8-3.9 12.5-6 12.4-5.9 27.8-13.2 44.4-22.3 3.2-1.7 6.3-3.5 9.4-5.3 19.2-10.8 39-22 59.6-23.7 24.7-2.1 37.1-1.7 45 10.2 8.2 12.4 12.1 20.5-3.2 41.7-10.9 15.1-23.6 20.8-38.3 27.5-6.1 2.7-12.3 5.6-18.8 9.2-21.8 12.3-36.1 23.1-36.2 23.2l-.3.1zm-50.3-5.8l49.9 4.8c1.6-1.2 15.5-11.5 36.2-23.2 6.5-3.7 12.8-6.5 18.9-9.3 14.6-6.6 27.2-12.3 37.9-27.1 15.6-21.7 10.4-29.6 3.1-40.5-7.6-11.4-19.8-11.7-44.1-9.7-20.4 1.7-40.1 12.8-59.2 23.6-3.1 1.8-6.3 3.5-9.4 5.3-16.6 9.1-32.1 16.5-44.5 22.4-4.5 2.1-8.8 4.2-12.5 6-9.8 4.8-16.9 7.3-20.2 8.4h.3l.1.1c6.5 6 14.2 17 14.2 17.1l.1.2c1.7 7 2.4 7.3 5.8 9 1.6.8 3.9 1.9 7 4.1 9.5 6.2 15.8 8.6 16.4 8.8z" clip-path="url(#SVGID_8_)" fill="#25211e"/><path class="st29" d="M588.3 339.3s-105.7 39.4-156.8 56.1c0 0 5.9 1.4 5.4 7.1-.5 5.7-2.6 4-2.6 4s1.7.3 7.7-2.5c5.9-2.8 39.1-16.2 67-29.5 28-13.4 79.3-35.2 79.3-35.2z"/><path class="st30" d="M548.2 241l-1.9-.6 13.8-42.8 1 .4c13.2 5.3 18.5 13 18.7 13.3l-1.7 1.1c0-.1-4.9-7.1-16.8-12.1L548.2 241z"/><path class="st12" d="M558.7 216.4s6.8-1 10.2 5.1"/><path class="st31" d="M568.5 221.8c-3.2-5.7-9.4-4.9-9.7-4.9l-.1-1c.1 0 7.2-1 10.7 5.4l-.9.5z"/><path class="st12" d="M558.6 220.1s3.5 3.1 8.9 3.9"/><path class="st31" d="M567.4 224.6c-5.5-.9-9-3.9-9.1-4l.7-.7s3.4 3 8.6 3.8l-.2.9z"/><path class="st12" d="M559.1 210.9s8.1-.9 10.9 5"/><path class="st31" d="M569.6 216.1c-2.6-5.5-10.3-4.7-10.4-4.7l-.1-1c.3 0 8.5-.9 11.4 5.2l-.9.5z"/><defs><path id="SVGID_9_" d="M0 0h749.9v428H0z"/></defs><clipPath id="SVGID_10_"><use xlink:href="#SVGID_9_" overflow="visible"/></clipPath><path d="M528.6 249.4l-.4-1c-.1-.1-5.4-12.9-10.3-30.2-1.4-1.5-2.7-3-3.9-4.4-1.5-1.7-3-3.3-4.6-5.1-8-8.8-17-18.8-23.3-34.4l1.9-.7c6.1 15.2 15 25.1 22.9 33.8 1.6 1.8 3.1 3.4 4.6 5.1.4.4.7.8 1.1 1.3-5.1-18.2-12.1-39.5-20.8-63.5-9.7-26.7-19.1-50.5-28.9-72.8-2.1-4.7-4.7-10.6-7.5-16.8-14.1-31.4-25.8-57.9-25.1-63.3l2 .2c-.6 5.4 14.8 39.6 25 62.3 2.8 6.2 5.5 12.1 7.5 16.9 9.8 22.3 19.3 46.2 28.9 72.9 9.1 25.2 16.4 47.5 21.6 66.2.1.5.3 1 .4 1.4 8 8.9 18 19.4 19.4 20.9 1.5.6 10.2 3.9 14.4 5.1 4.7 1.4 11.6 3.5 11.6 3.5l-.6 1.9s-6.9-2.1-11.6-3.5c-1.9-.6-4.5-1.5-7.1-2.4l.1.4c-.1 0-8.9 2.2-16.4 5.8l-.9.4zm-7.6-27.8c3.7 12.5 7.5 22.1 8.7 25 5.2-2.4 10.7-4.1 13.6-4.9-2.8-1-5-1.9-5.2-1.9l-.2-.1-.2-.2c-.1 0-8.8-9.1-16.7-17.9zm8.7-18.6l-1.3-1.5c.1-.1 3.7-3.1 12.4-4.8 8.5-1.6 15.2-1.7 15.5-1.7v2c-.1 0-6.8 0-15.1 1.6-8.1 1.6-11.4 4.4-11.5 4.4zm51.7-4.8c-3.9 0-11.6-.3-17.7-2.4l.6-1.9c8.1 2.7 19.5 2.2 19.6 2.2l.1 2c-.1 0-1.1.1-2.6.1zm-17.7-4.1l-1.5-1.4c10.8-11.6 19.2-12.2 19.6-12.2l.1 2c-.1 0-8.1.6-18.2 11.6z" clip-path="url(#SVGID_10_)" fill="#534539"/><path class="st33" d="M562.4 185.6c-.2 0-3.7-1.1-7.9-4.9-3.8-3.6-5.7-3.7-5.8-3.7v-1c.2 0 2.3.1 6.4 4 4 3.7 7.5 4.7 7.5 4.7l-.2.9zm-5.7-7.3s-3.2-5-6.5-5.9c-3.6-1-6-2.4-6.1-2.5l.5-.9s2.4 1.4 5.8 2.4c3.7 1 7 6.1 7.1 6.3l-.8.6zm1.5-2.7s-2.9-4-8.4-6.1c-5.8-2.1-9.9-3.7-9.9-3.7l.4-.9s4.1 1.6 9.9 3.7c5.9 2.2 8.8 6.3 8.9 6.4l-.9.6zm-15.3-12.5c-.1 0-5.9-4.6-11.2-6-4.3-1.1-5-.7-5-.7s.1-.1.1-.2l-1-.2c0-.1.1-.3.3-.5.7-.5 2.6-.3 5.8.5 5.4 1.4 11.3 6 11.5 6.2l-.5.9zm2-4.8c-.1 0-6.8-3.4-11.4-5.1-4.6-1.7-6.4-2.4-6.4-2.4l.4-.9s1.8.7 6.4 2.4c4.7 1.7 11.5 5.1 11.5 5.1l-.5.9zm-3.5-6.5c-.1 0-8.2-3.1-12.1-4.2-4-1.1-7.6-3.1-7.8-3.2l.5-.9s3.7 2 7.6 3.1c3.9 1.1 12.1 4.2 12.2 4.3l-.4.9zm-2.8-4.9s-2.9-3-9.9-4.5c-7.3-1.5-9.3-2.3-9.4-2.3l.3-.9s2.1.7 9.3 2.2c7.4 1.6 10.3 4.7 10.5 4.8l-.8.7zm-5.9-6.1c-.3-.1-6.9-1.6-11-3.6s-6.4-3.3-6.4-3.3l.5-.9s2.3 1.3 6.3 3.2c4 1.9 10.8 3.5 10.8 3.5l-.2 1.1zm-2.9-4.7s-4.2-2.4-9.4-4.4c-5.3-2-10.5-4.1-10.5-4.1l.4-.9c.1 0 5.2 2.1 10.5 4.1 5.3 2 9.5 4.4 9.6 4.4l-.6.9zm-3-5.1c-.1 0-7.7-4.1-12.3-5.2-4.7-1.1-14.5-4.5-14.6-4.5l.3-.9c.1 0 9.9 3.4 14.6 4.5 4.7 1.1 12.2 5.1 12.5 5.3l-.5.8zm-6.4-7.5c-.1 0-7.1-3.2-13.8-5.1-6.8-2-11.8-4.5-11.9-4.6l.5-.9s5 2.5 11.7 4.5c6.8 2 13.9 5.1 14 5.2l-.5.9zm-4-4.8c-.1 0-8.8-3.6-15.3-6-6.6-2.4-10.3-4.6-10.4-4.7l.5-.9s3.8 2.3 10.3 4.6c6.5 2.4 15.2 6 15.3 6l-.4 1zm-4.1-6.5c-.1 0-8.1-1.6-14.3-4.6-6.2-2.9-9.9-4.5-9.9-4.5l.4-.9s3.8 1.6 9.9 4.5c6.1 2.9 14 4.5 14.1 4.5l-.2 1zm-4.7-5.4c-.6-.2-15-6.2-21.6-12.3l.7-.7c6.5 6 21.2 12 21.3 12.1l-.4.9zm-5.2-5.7c-.1 0-11.3-4.8-19.5-11.4l.6-.8c8.1 6.5 19.2 11.2 19.3 11.3l-.4.9zm-4.4-5.4l-20.5-12.2.5-.9 20.5 12.2-.5.9z"/><path class="st29" d="M591.6 339.5s-2.1-6.2 1.6-9.3c0 0 5 2.6 10.7 14.5 0 0-7.5 2.9-12.3-5.2z"/><path class="st34" d="M646.2 281.5s1.4-5.2-2.1-7.1c-3.5-1.8-6.8-4-5.7-5.8 1.1-1.8 1.1-2.3 1.1-2.3l-1-1.5 1.6-1.5s-3-2.4-.6-3c1.4-.3 4.3.6 5.3-1.5s2.8-5 2.8-5l6.5-1.4 5.8 3.6 4.5 6.1.4 6.8s-3.7 1.7-4.8 3.6c-1.1 1.8-1.3 2.9 0 6.4l-3.7 2.7-10.1-.1z"/><path class="st35" d="M656.5 282.1l-11-.1.2-.6s1.2-4.8-1.9-6.5c-3.8-2-5.7-3.5-6.1-5-.2-.6-.1-1.1.2-1.6.7-1.1.9-1.7 1-1.9l-1.2-1.6 1.6-1.4c-.6-.6-1.4-1.6-1.2-2.4.1-.4.4-.8 1.3-1.1.5-.1 1-.1 1.6-.1 1.6 0 2.8-.1 3.4-1.2 1-2.1 2.8-4.9 2.9-5l.1-.2 6.9-1.5 6.1 3.9 4.6 6.3.4 7.3-.3.1s-3.6 1.7-4.6 3.4c-1 1.6-1.2 2.6 0 5.9l.1.4-4.1 2.9zm-9.7-1.1l9.4.1 3.2-2.4c-1.2-3.3-1-4.5.2-6.4 1-1.7 3.8-3.1 4.7-3.6l-.4-6.3-4.4-6-5.6-3.5-6.1 1.3c-.4.6-1.9 3-2.7 4.7-.8 1.8-2.8 1.8-4.3 1.8-.5 0-1 0-1.4.1-.3.1-.5.2-.5.3-.1.4.6 1.2 1.3 1.8l.4.4-1.7 1.6.9 1.2v.2c0 .4-.4 1.3-1.2 2.5-.2.3-.2.5-.1.8.5 1.7 4.3 3.7 5.6 4.3 3.3 1.7 2.9 5.6 2.7 7.1z"/><path class="st13" d="M652.8 361.8l-7.2 11.2s-.3 8.5-2.8 9.9c-2.6 1.4-5.8 1.7-8.8.4-3-1.3-1.6-4.4-1.3-7s-1-5 0-9.9 2.2-7 2.2-7l6.4-3.8 8.4-2.8 6.1.8-3 8.2z"/><path class="st14" d="M637.9 384.7c-1.4 0-2.8-.3-4.1-.9-2.7-1.2-2.2-3.8-1.8-5.9.1-.5.2-1.1.3-1.6.1-.9 0-1.8-.1-2.9-.2-1.8-.5-3.9.1-7.1 1-5 2.2-7.1 2.3-7.2l.1-.1 6.6-3.9 8.5-2.9 6.8.8-3.3 8.9-7.1 11.1c-.1 1.4-.5 8.8-3.1 10.2-1.7 1.1-3.4 1.5-5.2 1.5zm-2.6-24.8c-.3.5-1.3 2.6-2.1 6.7-.6 3-.4 5-.1 6.8.1 1.1.3 2.1.1 3.1-.1.5-.2 1.1-.3 1.6-.5 2.4-.6 4 1.2 4.8 2.7 1.2 5.8 1 8.3-.4 1.9-1 2.5-7.2 2.6-9.5v-.1l.1-.1 7.2-11.1 2.8-7.5-5.4-.7-8.2 2.8-6.2 3.6z"/><path class="st20" d="M131.2 373.5l-.4-.9c.1 0 7.3-3.1 7.5-8.4.2-5.3-.8-6.8-.8-6.8l-.6-.8h1c.2 0 16.2.6 41.9-2.8 6.9-.9 16.9-2.7 27.5-4.6 38-6.8 67.3-11.5 70.1-5.1l-.9.4c-2.6-6.2-41 .7-69 5.7-10.6 1.9-20.6 3.7-27.6 4.6-22.5 3-37.7 2.9-41.2 2.8.3 1 .7 2.9.6 6.6-.3 6-7.8 9.2-8.1 9.3z"/><path class="st34" d="M598.2 341s-1.5 2.6-2.1 3.6c-.6 1 .3 1.8 1.3 1.2 3.9-2.2 4.8-5.7 4.8-5.7s5.7-3.8 10.1-7.1c4.3-3.2 8.1-6.6 8.1-6.6s10.9-4.1 15.2-13.2l-9.6-3.4s-8.3 10.5-15.3 17c-6.9 6.5-9.2 8.2-11.3 8.2l-1.2 6z"/><path class="st35" d="M596.8 346.5c-.4 0-.7-.1-1-.4-.4-.4-.5-1.1-.1-1.8.5-.9 1.8-3.1 2.1-3.5l1.2-6.3h.4c1.9 0 4.1-1.7 11-8.1 6.8-6.4 15.2-16.9 15.2-17l.2-.3 10.5 3.7-.2.5c-4.1 8.8-14.2 13-15.4 13.4-.5.5-4.1 3.6-8.1 6.6-4 3-9.1 6.4-10 7-.3.8-1.5 3.8-5 5.8-.2.3-.5.4-.8.4zm3-11l-1.1 5.7s-1.5 2.6-2.1 3.6c-.1.2-.2.4 0 .6.1.1.3.2.6 0 3.6-2 4.6-5.3 4.6-5.4v-.2l.2-.1c.1 0 5.8-3.8 10.1-7.1 4.2-3.2 8.1-6.6 8.1-6.6l.2-.1c.1 0 10.4-4 14.6-12.4l-8.8-3.1c-1.4 1.7-8.9 10.9-15.1 16.8-6.8 6.4-9.2 8.1-11.3 8.3z"/><path class="st20" d="M617.8 311c0-.1-.6-11.9-1.1-16.1-.5-4.2-.5-4.8-.5-4.9v-.1s.9-1.8 2.1-8.1c1-5.6 2-10.5 2.3-11.6-9.2-3.9-16.5-13.1-16.6-13.2l.4-.3c.1.1 7.3 9.1 16.4 13l3.3-8.7-3.9-3.7.1-6.6-.9-2.2c-9-1.7-14.6-6.1-17.6-9.6-3.3-3.8-4.5-7.1-4.5-7.2l.5-.2c0 .1 4.6 13.1 21.4 16.4l-5.5-13.5 5.9-8.2c-8.4-4-12.4-15.6-12.5-15.7l.5-.2c0 .1 4 11.6 12.2 15.4l-.2.4 1.2-1.6-.9-5.8 6.3-4.6c-5.5-7.7-5.4-17.9-5.4-18h.5c0 .1-.1 10.1 5.3 17.7l4.8-7 .4.3-4.9 7.1-6.4 4.7.8 5.7-.1.1-7 9.7 4.5 11.1c8.8-6.9 12.9-22.1 12.9-22.2l.5.1c0 .2-4.2 15.6-13.2 22.6l1.8 4.5-.1 6.4 4 3.7-3.5 9.2s-.1.7-.4 1.9c8.2-4 18-15.5 18.1-15.6l.4.3c-.1.1-10.1 11.8-18.5 15.8l-.1-.2c-.4 2.2-1.1 5.7-1.9 9.7-1.1 5.9-2 7.9-2.1 8.2 0 .2 0 1.1.5 4.7.5 4.2 1.1 16 1.1 16.2l-.4.2zm3.2-54.5l-.2-.5c16.5-7.5 24.2-20.7 24.3-20.9l.4.2c-.1.2-7.9 13.6-24.5 21.2z"/><path class="st34" d="M628.6 308.1s-2.6-.6-4.1-1.8c-1.5-1.2-5-2.5-7.9-2.2-3 .3-2.6 4.7-2.1 6.6.5 1.8 4.3 2.6 9.3 2.6h3.3l2.4-2.6-.9-2.6z"/><path class="st35" d="M623.1 313.8c-3.4 0-8.4-.4-9.1-2.9-.4-1.3-.8-4.3.4-6 .5-.7 1.2-1.1 2.1-1.2 3-.3 6.7 1 8.3 2.3 1.4 1.1 3.9 1.7 3.9 1.7l.3.1 1.1 3.1-2.8 3h-3.5c-.2-.1-.5-.1-.7-.1zm-5.7-9.2h-.8c-.6.1-1 .3-1.3.8-.9 1.3-.6 3.9-.3 5.2.4 1.4 3.8 2.3 8.8 2.2h3.1l2.1-2.3-.7-2c-.7-.2-2.8-.8-4-1.8-1.3-.9-4.2-2.1-6.9-2.1z"/><path class="st34" d="M615.3 304.7s-.4 1.3.9 1.7c1.2.4 3.5.8 4.5.7"/><path class="st35" d="M620.4 307.6c-1.2 0-3.2-.3-4.4-.7-1.3-.5-1.3-1.7-1.2-2.3l1 .3-.5-.1.5.1c0 .1-.2.8.5 1.1 1.2.4 3.4.8 4.3.7l.1 1c-.1-.1-.2-.1-.3-.1z"/><path class="st34" d="M614.3 307.6s1.3 1.1 3.2 1.3c1.8.3 3.3.3 3.3.3"/><path class="st35" d="M620.7 309.7c-.1 0-1.5 0-3.3-.3-2-.3-3.4-1.4-3.4-1.5l.6-.8s1.3 1 2.9 1.2c1.8.3 3.2.3 3.2.3v1.1z"/><path class="st34" d="M614.3 309.9s1.8 1.2 4.8 1.6"/><path class="st35" d="M619.1 312c-3-.5-4.9-1.6-5-1.7l.5-.8s1.8 1.1 4.6 1.5l-.1 1z"/><path d="M644.6 257.7s-2.3-2.7 0-4.5c2.3-1.8 1.7-3.4 4.3-3.5 2.6-.1 2.3-1.2 4.3-.9 2 .4.6 1.2 3.4 1 2.8-.1 3 1 3.8 2.2.8 1.2 1.8.1 3 1.5 1.1 1.4 1.6 1.2 2.1 3.3.5 2.1 1.9 1.4 2.5 4.5.6 3.1.9 5.2-.3 5.8-1.1.6 1.1 2.6-.6 4.4-1.6 1.8-1.8 3-3.8 3-2 0-4.4-1.8-4.4-1.8s3-1.6 2.4-4.4c-.6-2.8-3.4-3.9-3.3-6.6.1-2.7.7-2.6-1.1-4.3-1.8-1.7-1.7-2.5-4.4-1.8s-3.6-.6-5.1.7c-1.7 1.1-2.8 1.4-2.8 1.4z" fill="#4f2b08"/><path d="M663.2 274.9c-2.2 0-4.6-1.9-4.7-2l-.6-.5.7-.4c.1-.1 2.6-1.5 2.2-3.9-.2-1.2-.9-2.1-1.6-2.9-.9-1.1-1.7-2.2-1.7-3.8 0-.6.1-1.1.1-1.5.1-1.2.1-1.3-1.1-2.4l-1-1c-.9-1-1.1-1.2-3-.7-1.3.3-2.2.2-2.9.1-.8-.1-1.3-.1-2 .4-1.6 1.4-2.8 1.7-2.9 1.7l-.3.1-.2-.2c-.1-.1-1.3-1.5-1.1-3.2.1-.8.5-1.5 1.2-2.1.8-.7 1.2-1.3 1.6-1.9.6-.9 1.1-1.7 2.9-1.8 1.1-.1 1.6-.3 2.1-.5.6-.3 1.1-.5 2.3-.3.9.2 1.3.4 1.5.7.2.2.3.3 1.7.3 2.7-.2 3.3.9 4 1.9.1.2.2.3.3.5.3.4.5.4.9.5.5.1 1.3.1 2 1 .3.4.6.7.8.9.6.6 1 1 1.4 2.6.2.8.5 1.1.9 1.5.6.5 1.2 1.2 1.6 3.1.6 3.3.9 5.6-.5 6.3-.1.1-.1.2.1.9.2.9.6 2.2-.5 3.4-.4.5-.7.9-1 1.3-.9 1.1-1.5 1.9-3.2 1.9zm-3.5-2.3c.8.5 2.3 1.3 3.5 1.3 1.2 0 1.6-.5 2.4-1.5.3-.4.6-.8 1.1-1.3.7-.8.5-1.7.3-2.5-.2-.7-.4-1.6.4-2 .8-.4.5-2.6 0-5.3-.3-1.6-.8-2-1.3-2.5-.4-.4-.9-.9-1.2-2-.3-1.4-.6-1.6-1.1-2.1-.2-.2-.5-.5-.9-1-.5-.6-.8-.6-1.3-.7-.5-.1-1.1-.1-1.6-.9-.1-.2-.2-.4-.4-.5-.6-.9-1-1.5-3.1-1.4-1.7.1-2.1-.2-2.5-.6-.2-.2-.3-.3-1-.5-.9-.2-1.2 0-1.6.2-.5.3-1.1.6-2.5.6-1.3.1-1.6.5-2.1 1.3-.4.6-.9 1.3-1.8 2.1-.5.4-.8.9-.8 1.4-.1.9.4 1.7.7 2.1.4-.2 1.2-.6 2.2-1.4 1-.9 1.9-.8 2.7-.7.7.1 1.4.2 2.6-.1 2.3-.6 2.9-.1 3.9 1 .3.3.5.6.9.9 1.5 1.4 1.6 1.7 1.4 3.3 0 .4-.1.8-.1 1.4-.1 1.3.6 2.1 1.4 3.2.7.9 1.5 1.9 1.8 3.3.4 2.6-1.1 4.2-2 4.9z" fill="#25211e"/><defs><path id="SVGID_11_" d="M0 0h749.9v428H0z"/></defs><clipPath id="SVGID_12_"><use xlink:href="#SVGID_11_" overflow="visible"/></clipPath><path d="M284.8 96.3l-10.4-11.8.8-.7 8.3 9.5-3.9-44.7 1-.1 4.2 47.8zm-34.2-1.5l-1-.3c.1-.6 14.8-56.6 19-77.4l1 .2c-4.1 20.8-18.8 76.9-19 77.5zm-2.2-12.5l-1-.2L265 13.8l1 .2-17.6 68.3zm-10-9.1l-1-.3 13.3-49 1 .3-13.3 49zm9.4-6.5l-1-.3L261 12.6l1 .3-14.2 53.8zm135.5-12.9l-.9-.3 4.3-21.8c4.2-21.7 15.9-33.6 16-33.7l.7.7c-.1.1-11.6 11.8-15.7 33.2L384 50.3c3.7-7 13.1-24.2 19-30.3 7.2-7.6 12.1-11.6 12.2-11.7l.6.8s-4.9 4.1-12.1 11.6c-7.2 7.5-20.3 32.8-20.4 33.1zm-171.6-2.2l-.8-.6 11.7-16.9-13.5-13.2-33.7-2.1L208-1.6l.5.8L178.6 18l30.9 1.9 14.3 14-12.1 17.7z" clip-path="url(#SVGID_12_)" fill="#e3b395"/><path class="st34" d="M654.9 269.4s2.6 2 4.4 0c1.8-2 2-3.3 2-3.3"/><path class="st35" d="M657.4 270.8c-1.1 0-2.1-.5-2.7-1l.6-.8c.1.1 2.2 1.7 3.7.1 1.7-1.8 1.9-3 1.9-3l1 .1c0 .1-.2 1.5-2.1 3.5-.8.8-1.6 1.1-2.4 1.1z"/><path class="st9" d="M293.5 114.2s5.6.9 12 1.7c6.3.9 9.8-1.1 16.6-6 6.8-4.8 17.2-6.5 24.9-2.8l-1.4-17"/><path d="M308.2 116.6c-.9 0-1.8-.1-2.8-.2-6.3-.8-11.9-1.7-12-1.7l.1-1c.1 0 5.7.9 12 1.7 6.1.8 9.5-1.1 16.3-5.9 7.2-5.1 17.2-6.4 24.7-3.2l-1.3-16.2 1-.1 1.5 17.9-.8-.4c-7.1-3.4-17.4-2.2-24.4 2.8-6 4.3-9.4 6.3-14.3 6.3z" fill="#a83530"/><path class="st12" d="M560 251.9l-.9-3.7s-8.3 2.2-10.3 11.2"/><path class="st31" d="M549.3 259.5l-1-.2c2.1-9.2 10.6-11.6 10.6-11.6l.5-.1 1 4.2-1 .2-.8-3.1c-1.6.6-7.7 3.3-9.3 10.6z"/><defs><path id="SVGID_13_" d="M0 0h749.9v428H0z"/></defs><clipPath id="SVGID_14_"><use xlink:href="#SVGID_13_" overflow="visible"/></clipPath><path d="M234-2.6s-1.1 20.1 1.2 23-1.5 6.5 2.8 8.8c4.3 2.3 11.4 4.3 11.4.4 0-3.8 5.1-4.1 7.1-8.4 2-4.3 2.2-6.4 2.2-6.4s4.8-.7 9.9 7.5c5.1 8.2 9.3 19 34 40.3 24.7 21.3 30.5 28.9 41.4 34.9 10.9 6 15.4 8.5 18.7-8.8 3.4-17.3 6.5-27.6 9.9-33.2 3.4-5.6 2.3-6.5 6.5-20.7 4.3-14.2 8.5-30.3 14.2-36L234-2.6z" clip-path="url(#SVGID_14_)" fill="#2c4162"/><path d="M354.9 102.5c-2.8 0-6.3-1.9-11-4.5l-.1-.1c-6.9-3.8-11.9-8.3-20.8-16.5-5.2-4.8-11.7-10.7-20.7-18.5-21.3-18.3-27.5-29-32-36.7-.7-1.3-1.4-2.5-2.2-3.6-4.1-6.5-7.9-7.3-9.1-7.3-.2.8-.7 2.9-2.2 6.1-1 2.1-2.6 3.3-4.1 4.3-1.6 1.1-2.9 2-2.9 3.8 0 1-.4 1.7-1.1 2.2-2.4 1.4-7.9-.5-11-2.2-2.7-1.5-2.5-3.5-2.4-5.3.1-1.3.2-2.5-.6-3.6-2.3-2.9-1.4-21.2-1.3-23.3v-.5l161 1.4-.8.8c-4.9 4.9-8.8 18.1-12.6 30.8-.5 1.7-1 3.3-1.5 4.9-1.7 5.6-2.5 9.1-3.1 11.7-.9 3.9-1.4 5.7-3.5 9.1-3.4 5.6-6.5 16.1-9.8 33-1.6 8-3.4 11.9-6.1 13.2-.6.6-1.3.8-2.1.8zM259 14.3c1.3 0 5.6.6 10.1 7.8.7 1.2 1.4 2.4 2.2 3.7 4.5 7.7 10.6 18.3 31.7 36.5 9.1 7.8 15.5 13.7 20.7 18.5 8.8 8.1 13.7 12.6 20.6 16.3l.2.1c5.8 3.2 9.6 5.2 12.3 4 2.4-1.1 4.1-5 5.6-12.5 3.3-17.1 6.5-27.6 10-33.3 2-3.3 2.4-4.9 3.3-8.9.6-2.6 1.5-6.1 3.1-11.7.5-1.6 1-3.3 1.5-4.9 3.6-12.2 7.3-24.8 12.1-30.4L234.5-2.1c-.3 5.9-.6 20 1.1 22.1 1.1 1.4.9 2.9.8 4.3-.2 1.8-.3 3.2 1.8 4.4 3.6 1.9 8.3 3.2 10 2.2.4-.3.6-.7.6-1.3 0-2.3 1.6-3.5 3.3-4.7 1.4-1 2.9-2 3.8-3.9 1.9-4.1 2.2-6.3 2.2-6.3l.1-.4.4-.1c0 .1.1.1.4.1z" clip-path="url(#SVGID_14_)" fill="#253b53"/><path d="M621.5 314.1s8.9-12.8 10.3-17 2.9-8.5 7.6-13c4.7-4.5 7.6-4.8 11-4.5 3.4.3 8.2-.5 9-3.1.9-2.6 1.1-1.4 4.8.8 3.7 2.3 9.9 7.2 10.8 17 .8 9.9 0 13.6 3.1 16.7l-2.6 3.1s3.2 2.6 3.2 5.1c0 2.5 1.3.4 4.7 5.3 3.4 4.9 5.6 21.9 5.4 34.6l-5.4 1.7.6 15.3s-4.5-6.5-9.1-6.2c-4.5.3-.9 11-.9 11s-4.8-3.1-5.1-7.9c-.3-4.8-.3-5.4-.3-5.4s-5.1-8.5-11.6-10.2c-6.5-1.7-10.1-2-17.7.8s-9.5 5.4-9.5 5.4 3.1-9.2 6.3-17c3.2-7.8 9-20.4 9-20.4s.7-3.9-2.6-7c-3-3.1-6.6-6-21-5.1z" fill="#e3b395"/><path class="st43" d="M675.2 382.1l-1.2-.8c-.2-.1-5.1-3.3-5.3-8.3-.2-3.7-.3-4.9-.3-5.3-.6-1-5.4-8.4-11.3-9.9-6.2-1.6-9.8-2-17.4.8-7.3 2.7-9.2 5.2-9.3 5.2l-.9-.5c0-.1 3.1-9.3 6.3-17 3.1-7.5 8.6-19.4 9-20.4.1-.5.4-3.7-2.4-6.5s-6.1-5.9-20.9-5l-1 .1.6-.8c.1-.1 8.9-12.8 10.3-16.9 1.5-4.6 3.1-8.8 7.8-13.2 5-4.8 8.1-5 11.3-4.7 3.5.3 7.8-.7 8.5-2.8.3-1 .6-1.6 1.2-1.8.6-.2 1.2.2 2.3 1 .5.4 1.2.8 2 1.3 6.7 4.1 10.4 10 11 17.4.2 2.6.3 4.7.4 6.5.3 5.1.4 7.7 2.6 9.9l.3.3-2.5 3.1c.9.8 3 3 3 5.2 0 .9.1.9.7 1.2.8.4 2.1 1.1 3.9 3.7 3.5 5.1 5.7 22.5 5.5 34.9v.4l-5.4 1.7.6 16.6-1-1.4c0-.1-4.5-6.3-8.6-6-.6 0-1 .3-1.3.7-1.3 2 .2 7.6.8 9.6l.7 1.7zm-5.9-14.6c0 .1 0 .7.3 5.5.2 3 2.3 5.3 3.7 6.6-.7-2.4-1.7-6.9-.3-9 .5-.7 1.1-1.1 2-1.1 3.5-.2 6.9 3.3 8.5 5.2l-.5-14.1 5.4-1.7c.2-12.3-1.9-29.1-5.3-34-1.7-2.5-2.9-3.1-3.6-3.4-.8-.4-1.2-.7-1.2-2.1 0-2.2-3-4.7-3-4.7l-.4-.3 2.6-3.2c-2.1-2.4-2.3-5.1-2.5-10.2-.1-1.9-.2-3.9-.4-6.5-.6-7.1-4.2-12.7-10.5-16.7-.9-.5-1.5-1-2.1-1.4-.6-.4-1.3-.9-1.5-.9-.1 0-.2.2-.5 1.1-1 3-6.4 3.7-9.6 3.4-3.1-.3-5.9-.1-10.6 4.4-4.5 4.3-6 8.4-7.5 12.8-1.2 3.7-7.8 13.4-9.8 16.3 13.3-.7 17.1 1.9 20.6 5.3 3.4 3.3 2.7 7.3 2.7 7.5v.1c-.1.1-5.9 12.7-9 20.4-2.3 5.6-4.6 12.1-5.6 15.1 1.4-1 3.9-2.6 8.2-4.2 8-2.9 11.6-2.5 18-.9 5.6 1.4 10 7.5 11.4 9.7 1.1-1.4 4.7-6.2 7.2-12.2l.9.4c-2.8 6.8-6.9 12-7.6 12.8zm-7.2-10l-.7-.7s2.4-2.3 3.4-11.5-4.4-12.4-4.6-12.6l.5-.9c.3.1 6.2 3.7 5.1 13.5-1 9.7-3.5 12.1-3.7 12.2zm6.3-.3c-.7-2.5-.5-4.1-.2-6.4.3-2.4.8-5.7.2-11.9-1.1-11.4-10.2-16.1-10.3-16.1l-.6-.3.4-.5c5.2-5.7 4.8-15.1 4.8-15.2l1-.1c0 .4.4 9.4-4.6 15.5 2.1 1.3 9.3 6.4 10.3 16.6.6 6.3.2 9.7-.2 12.2-.3 2.2-.5 3.7.2 6l-1 .2zm-32.6-.1l-.9-.4c0-.1 4.7-10.1 10.4-18.1 5.6-7.9 6.6-9.4 6.6-9.4l.8.6s-1 1.5-6.7 9.5c-5.5 7.7-10.1 17.7-10.2 17.8zm37.1-22c-1.4-9.2-7.7-12.9-7.8-12.9l.5-.9c.3.2 6.8 4 8.3 13.7l-1 .1zm-20.2-14.3c-6 0-6.1-9.4-6.2-9.8h1c0 .1.2 8.9 5.2 8.9 5.1 0 6.9-6.4 6.9-6.4l1 .3c-.1-.1-2.1 7-7.9 7zm-14.9-9.4l-.6-.8c7.3-5.7 8.8-20.5 8.8-20.7l1 .1c-.1.6-1.6 15.4-9.2 21.4z"/><path d="M659.8 384.4l-3.6-12.1c-3.7-3.5-2.7-12.4-2.6-12.8l1 .1c0 .1-1 9 2.4 12l.1.1 3.7 12.3-1 .4zm-24.4-4.3h-1c0-.1 0-2.4.7-4.3.1-.3.2-.5.3-.7.4-1.1.6-1.5-.2-4.5-.9-3.8 1.3-8 1.4-8.2l.9.5s-2.1 4-1.3 7.4c.8 3.1.6 3.7.1 5.1-.1.2-.2.4-.2.7-.7 1.8-.7 4-.7 4z" fill="#bf9d66"/><path class="st33" d="M116 223.2c-4.5-11.8-.8-16.8 9.2-23.6 10.2-6.9 10.5-16 10.6-16h1c0 .4-.4 9.7-11 16.8-10.8 7.3-12.7 12.1-8.8 22.4l-1 .4zm1.4-4.7h-1c.2-7.4 5.5-10.2 11.6-13.5 5.2-2.8 11.1-5.9 14.8-12.5 8-14-1.3-26-1.4-26.1l.8-.6c.1.1 9.8 12.6 1.5 27.2-3.9 6.9-9.9 10.1-15.2 12.9-6.1 3.3-10.9 5.8-11.1 12.6zm-9.2-.8c-2-9.8 2.2-17.5 13.3-24.2 11.7-7.1 11.1-14.6 11.1-14.6l1-.1c0 .3.8 8.1-11.6 15.6-10.7 6.4-14.7 13.8-12.8 23.1l-1 .2z"/><defs><path id="SVGID_15_" d="M0 0h749.9v428H0z"/></defs><clipPath id="SVGID_16_"><use xlink:href="#SVGID_15_" overflow="visible"/></clipPath><path d="M260.6 223.4l-1-.2c0-.1-.4-3.2-17.4-17.6-17.9-15.1-39.5-33.5-39.7-33.7l.6-.8c.2.2 21.7 18.6 39.7 33.7 17.5 14.8 17.9 18 17.8 18.6z" clip-path="url(#SVGID_16_)" fill="#d6d4ca"/><path d="M130 431.2c-5.4-4.1-7.2-8.7-7.7-11.8-.5-2.7-.1-4.8 0-5.6-2.5-1.4-8.7-5.1-12.1-12.5-3.3-7.1.4-13.5 1.2-14.8-.6-1.4-3.4-8.5-1.7-11.8.4-.7.7-1.3 1.1-1.9 1.5-2.6 2.8-4.8 2.2-8.5-.8-4.7-2.8-13.2-2.8-13.3l1-.2c0 .1 2 8.6 2.8 13.4.7 4-.7 6.5-2.3 9.2-.4.6-.7 1.2-1.1 1.9-1.6 3.2 1.8 11.1 1.8 11.1l.1.3-.2.2c0 .1-4.6 6.7-1.2 14 3.4 7.4 9.8 11 11.9 12.2l.3.2v.4c-.1.4-2.6 9.4 7.2 16.8l-.5.7z" clip-path="url(#SVGID_16_)" fill="#e6d570"/><path class="st31" d="M563.7 222.1c1.2 0 2.2-1 2.2-2.2 0-1.2-1-2.2-2.2-2.2-1.2 0-2.2 1-2.2 2.2 0 1.2 1 2.2 2.2 2.2z"/><path class="st31" d="M563.7 222.6c-1.5 0-2.7-1.2-2.7-2.7 0-1.5 1.2-2.7 2.7-2.7 1.5 0 2.7 1.2 2.7 2.7 0 1.5-1.2 2.7-2.7 2.7zm0-4.4c-.9 0-1.7.8-1.7 1.7s.8 1.7 1.7 1.7 1.7-.8 1.7-1.7-.8-1.7-1.7-1.7z"/><path class="st21" d="M332.5 163.1s-1.3-2 0-4.4c1.3-2.4 2.3-4 3.8-6.8"/><path class="st22" d="M332.1 163.4c-.1-.1-1.4-2.3 0-4.9.7-1.3 1.3-2.4 2-3.6.5-.9 1.1-2 1.8-3.2l.9.5c-.7 1.3-1.3 2.3-1.8 3.2-.7 1.1-1.3 2.2-2 3.5-1.1 2.1-.1 3.8 0 3.9l-.9.6z"/><path class="st21" d="M327.6 159.2s-.7-1.7.6-3.7c1.3-2 3.5-5.9 3.5-5.9"/><path class="st22" d="M327.1 159.4c0-.1-.8-2 .6-4.1 1.3-2 3.5-5.8 3.5-5.8l.9.5s-2.2 3.9-3.5 5.9c-1.1 1.7-.5 3.2-.5 3.2l-1 .3z"/><path class="st21" d="M324.7 156.3s-.7-2.3.7-4.7c1.4-2.4 2.1-4.4 2.1-4.4"/><path class="st22" d="M324.2 156.4c0-.1-.8-2.5.8-5.1 1.4-2.3 2.1-4.3 2.1-4.3l.9.3c0 .1-.7 2.1-2.2 4.5-1.3 2.2-.7 4.2-.7 4.3l-.9.3z"/><path class="st21" d="M321.7 150.5s1.1-2.2 2.3-6"/><path class="st22" d="M322.2 150.8l-.9-.5s1.1-2.2 2.2-5.9l1 .3c-1.2 3.8-2.3 6-2.3 6.1z"/><path class="st21" d="M371.5 125.9s-1-.6-4.7 0-5.4-.1-5.4-.1"/><path class="st22" d="M364.1 126.6c-1.9 0-2.8-.4-2.9-.4l.4-.9s1.7.6 5.1.1c3.7-.6 4.8 0 5 .1l-.5.9.2-.4-.2.4s-1-.5-4.4.1c-1 0-1.9.1-2.7.1z"/><path class="st21" d="M369.3 123s-3.1.6-7.7.3"/><path class="st22" d="M364.4 123.9c-.9 0-1.9 0-2.9-.1l.1-1c4.5.3 7.6-.2 7.6-.3l.2 1c-.1.1-2 .4-5 .4z"/><path class="st21" d="M367.3 121.3s-2.3.3-5.1-.4"/><path class="st22" d="M366.1 121.9c-1 0-2.4-.1-4-.5l.2-1c2.7.7 4.9.4 4.9.4l.1 1s-.5.1-1.2.1z"/><path d="M343.6 335.5l-1-.2 12.5-64.4 1 .2-12.5 64.4zM47.3 271l-1-.2c.1-.7 14.2-72.1 17-85.4 2.9-13.6 24.2-22.2 25.1-22.5l.4.9c-.2.1-21.8 8.8-24.5 21.8-2.8 13.4-16.9 84.7-17 85.4z" fill="#d6d4ca"/><path class="st20" d="M609.7 248.5c.8 0 1.4-.6 1.4-1.4 0-.8-.6-1.4-1.4-1.4-.8 0-1.4.6-1.4 1.4 0 .8.6 1.4 1.4 1.4z"/><path class="st20" d="M609.7 248.9c-1 0-1.8-.8-1.8-1.8s.8-1.8 1.8-1.8 1.8.8 1.8 1.8-.9 1.8-1.8 1.8zm0-2.8c-.6 0-1 .5-1 1 0 .6.5 1 1 1 .6 0 1-.5 1-1s-.5-1-1-1zM624.1 238.7c.8 0 1.4-.6 1.4-1.4s-.6-1.4-1.4-1.4c-.8 0-1.4.6-1.4 1.4s.7 1.4 1.4 1.4z"/><path class="st20" d="M624.1 239.1c-1 0-1.8-.8-1.8-1.8s.8-1.8 1.8-1.8 1.8.8 1.8 1.8-.8 1.8-1.8 1.8zm0-2.8c-.6 0-1 .5-1 1 0 .6.5 1 1 1 .6 0 1-.5 1-1s-.4-1-1-1zM632 229.2c.8 0 1.4-.6 1.4-1.4 0-.8-.6-1.4-1.4-1.4-.8 0-1.4.6-1.4 1.4.1.8.7 1.4 1.4 1.4z"/><path class="st20" d="M632 229.6c-1 0-1.8-.8-1.8-1.8s.8-1.8 1.8-1.8 1.8.8 1.8 1.8-.8 1.8-1.8 1.8zm0-2.8c-.6 0-1 .5-1 1s.5 1 1 1 1-.5 1-1-.4-1-1-1zM638.4 242.7c.8 0 1.4-.6 1.4-1.4 0-.8-.6-1.4-1.4-1.4-.8 0-1.4.6-1.4 1.4 0 .8.7 1.4 1.4 1.4z"/><path class="st20" d="M638.4 243.1c-1 0-1.8-.8-1.8-1.8s.8-1.8 1.8-1.8 1.8.8 1.8 1.8-.8 1.8-1.8 1.8zm0-2.8c-.6 0-1 .5-1 1s.5 1 1 1c.6 0 1-.5 1-1s-.4-1-1-1zM635.2 250.8c.8 0 1.4-.6 1.4-1.4 0-.8-.6-1.4-1.4-1.4-.8 0-1.4.6-1.4 1.4 0 .8.6 1.4 1.4 1.4z"/><path class="st20" d="M635.2 251.2c-1 0-1.8-.8-1.8-1.8s.8-1.8 1.8-1.8 1.8.8 1.8 1.8-.8 1.8-1.8 1.8zm0-2.8c-.6 0-1 .5-1 1 0 .6.5 1 1 1 .6 0 1-.5 1-1 0-.6-.5-1-1-1zM645.6 236.6c.8 0 1.4-.6 1.4-1.4 0-.8-.6-1.4-1.4-1.4-.8 0-1.4.6-1.4 1.4 0 .8.7 1.4 1.4 1.4z"/><path class="st20" d="M645.6 237c-1 0-1.8-.8-1.8-1.8s.8-1.8 1.8-1.8 1.8.8 1.8 1.8-.8 1.8-1.8 1.8zm0-2.8c-.6 0-1 .5-1 1s.5 1 1 1 1-.5 1-1-.4-1-1-1zM631.3 263.8c.8 0 1.4-.6 1.4-1.4 0-.8-.6-1.4-1.4-1.4-.8 0-1.4.6-1.4 1.4 0 .8.7 1.4 1.4 1.4z"/><path class="st20" d="M631.3 264.2c-1 0-1.8-.8-1.8-1.8s.8-1.8 1.8-1.8 1.8.8 1.8 1.8-.8 1.8-1.8 1.8zm0-2.8c-.6 0-1 .5-1 1 0 .6.5 1 1 1s1-.5 1-1-.4-1-1-1zM613.4 232.8c.8 0 1.4-.6 1.4-1.4s-.6-1.4-1.4-1.4-1.4.6-1.4 1.4.6 1.4 1.4 1.4z"/><path class="st20" d="M613.4 233.1c-1 0-1.8-.8-1.8-1.8s.8-1.8 1.8-1.8 1.8.8 1.8 1.8-.9 1.8-1.8 1.8zm0-2.7c-.6 0-1 .5-1 1s.5 1 1 1 1-.5 1-1-.5-1-1-1zM614.1 220.4c.8 0 1.4-.6 1.4-1.4 0-.8-.6-1.4-1.4-1.4-.8 0-1.4.6-1.4 1.4 0 .8.6 1.4 1.4 1.4z"/><path class="st20" d="M614.1 220.8c-1 0-1.8-.8-1.8-1.8s.8-1.8 1.8-1.8 1.8.8 1.8 1.8c-.1 1-.8 1.8-1.8 1.8zm0-2.8c-.6 0-1 .5-1 1s.5 1 1 1 1-.5 1-1-.5-1-1-1zM630.6 212.4c.8 0 1.4-.6 1.4-1.4 0-.8-.6-1.4-1.4-1.4-.8 0-1.4.6-1.4 1.4 0 .7.7 1.4 1.4 1.4z"/><path class="st20" d="M630.6 212.7c-1 0-1.8-.8-1.8-1.8s.8-1.8 1.8-1.8 1.8.8 1.8 1.8-.8 1.8-1.8 1.8zm0-2.7c-.6 0-1 .5-1 1 0 .6.5 1 1 1s1-.5 1-1c0-.6-.4-1-1-1zM619.9 205c.8 0 1.4-.6 1.4-1.4 0-.8-.6-1.4-1.4-1.4s-1.4.6-1.4 1.4c0 .8.6 1.4 1.4 1.4z"/><path class="st20" d="M619.9 205.4c-1 0-1.8-.8-1.8-1.8s.8-1.8 1.8-1.8 1.8.8 1.8 1.8-.8 1.8-1.8 1.8zm0-2.8c-.6 0-1 .5-1 1 0 .6.5 1 1 1 .6 0 1-.5 1-1 0-.6-.4-1-1-1zM601.2 236.6c.8 0 1.4-.6 1.4-1.4 0-.8-.6-1.4-1.4-1.4s-1.4.6-1.4 1.4c0 .8.6 1.4 1.4 1.4z"/><path class="st20" d="M601.2 237c-1 0-1.8-.8-1.8-1.8s.8-1.8 1.8-1.8 1.8.8 1.8 1.8-.8 1.8-1.8 1.8zm0-2.8c-.6 0-1 .5-1 1s.5 1 1 1c.6 0 1-.5 1-1s-.4-1-1-1zM610.6 262c.8 0 1.4-.6 1.4-1.4 0-.8-.6-1.4-1.4-1.4-.8 0-1.4.6-1.4 1.4 0 .8.6 1.4 1.4 1.4z"/><path class="st20" d="M610.6 262.4c-1 0-1.8-.8-1.8-1.8s.8-1.8 1.8-1.8 1.8.8 1.8 1.8c-.1 1-.9 1.8-1.8 1.8zm0-2.8c-.6 0-1 .5-1 1s.5 1 1 1c.6 0 1-.5 1-1s-.5-1-1-1z"/><path class="st30" d="M557.6 199c-1.7 0-3.1-1.4-3.1-3.1s1.4-3.1 3.1-3.1c.7 0 1.3.2 1.8.5.6-.8 1.5-1.4 2.6-1.4 1.7 0 3.1 1.4 3.1 3.1s-1.4 3.1-3.1 3.1c-.7 0-1.3-.2-1.8-.5-.6.9-1.5 1.4-2.6 1.4zm0-4.2c-.6 0-1.1.5-1.1 1.1s.5 1.1 1.1 1.1 1.1-.5 1.1-1.1-.5-1.1-1.1-1.1zm4.4-.9c-.6 0-1.1.5-1.1 1.1s.5 1.1 1.1 1.1 1.1-.5 1.1-1.1-.5-1.1-1.1-1.1z"/><path class="st12" d="M547.2 243.9c1.2 0 2.1-.9 2.1-2.1 0-1.2-1-2.1-2.1-2.1s-2.1 1-2.1 2.1c0 1.2 1 2.1 2.1 2.1z"/><path class="st30" d="M547.2 244.9c-1.7 0-3.1-1.4-3.1-3.1 0-1.7 1.4-3.1 3.1-3.1 1.7 0 3.1 1.4 3.1 3.1.1 1.7-1.3 3.1-3.1 3.1zm0-4.2c-.6 0-1.1.5-1.1 1.1 0 .6.5 1.1 1.1 1.1.6 0 1.1-.5 1.1-1.1.1-.6-.5-1.1-1.1-1.1z"/><path class="st34" d="M646.9 259.7s3.9 0 3.7 4.1"/><path class="st35" d="M651.1 263.8h-1c0-1.1-.2-2-.8-2.6-.9-1-2.4-1-2.4-1v-1c.1 0 1.9 0 3.1 1.3.8.8 1.1 1.9 1.1 3.3z"/><path class="st35" d="M648 262.3c.4 0 .7-.3.7-.7 0-.4-.3-.7-.7-.7-.4 0-.7.3-.7.7 0 .4.4.7.7.7z"/><path class="st35" d="M648 262.8c-.7 0-1.2-.5-1.2-1.2s.5-1.2 1.2-1.2 1.2.5 1.2 1.2-.5 1.2-1.2 1.2zm0-1.3c-.1 0-.2.1-.2.2 0 .2.4.2.4 0 .1-.1 0-.2-.2-.2z"/><g><defs><path id="SVGID_17_" d="M0 0h749.9v428H0z"/></defs><clipPath id="SVGID_18_"><use xlink:href="#SVGID_17_" overflow="visible"/></clipPath><path d="M443.9 430.7c0-.1-3.2-6.6-12.5-10-8.9-3.3-8.5-9.4-8.3-10.6-9.6-13.7-16.5-17-16.6-17l.2-1c8.1 0 15.2 6.2 18.7 11.6 1.6 2.5 5.3 4 8 3.4 1.9-.5 3-1.9 3.3-4.2.2-1.9-.2-3.5-1.1-4.6-1.7-2.1-4.8-2.3-4.9-2.3l.1-1c.1 0 3.6.2 5.6 2.6 1.2 1.4 1.6 3.2 1.4 5.4-.3 2.7-1.8 4.5-4 5-3.1.7-7.1-1-9-3.8-3.1-4.7-9-10.1-15.9-11 2.7 1.8 8.2 6.4 15.3 16.5l.1.2-.1.2c-.1.3-1.4 6.4 7.6 9.7 9.6 3.6 12.9 10.2 13 10.5l-.9.4zm207-234.4c-25.8-26.6-81.1-83.1-81.6-83.6l.7-.7c.6.6 55.8 57 81.6 83.6l-.7.7zM529.5 47.7C513.3 15.6 481.9-5.8 481.6-6l.6-.8c.3.2 32 21.7 48.2 54l-.9.5z" clip-path="url(#SVGID_18_)" fill="#e6d570"/></g><path class="st9" d="M658.2 390.2s.6 1.6 5.1 1.6 5.5-1.1 5.5-1.1"/><path class="st10" d="M663.2 392.3c-4.7 0-5.5-1.7-5.5-1.9l.9-.4s.7 1.3 4.6 1.3h.1c4.1 0 5.2-1 5.2-1l.7.7c-.1.1-1.3 1.2-6 1.3.1 0 .1 0 0 0z"/><path class="st9" d="M630.3 384.9s3.1 5.8 12.2 2.6"/><path class="st10" d="M637.4 389c-5.4 0-7.5-3.8-7.5-3.8l.9-.5c.1.2 3 5.4 11.6 2.3l.3.9c-2.1.8-3.8 1.1-5.3 1.1z"/><path class="st43" d="M682.8 360.9c0-.2-.4-22.4-7.9-32.6-3.8-3.9-7.9-5.5-9.1-5.9-.7 1.2-1.7 1.9-2.7 2-2.2.2-4.3-2.2-4.4-2.3l.8-.6s1.8 2.1 3.5 1.9c.8-.1 1.6-.7 2.2-1.9 2.5-4.7 3.1-17.2 3.1-17.4h1c0 .5-.6 12.1-2.9 17.3 1.3.5 4.9 2 8.5 5.3l.1-.1c.3.3.5.6.8 1 2.2 2.3 4.4 5.3 6 9.2l-.9.4c-.5-1.4-1.2-2.6-1.8-3.8 4.7 11.1 4.9 26.6 4.9 27.4l-1.2.1zm-.1-27.3c-3.4-7.2-11-12.2-12.9-13.4l-.6.3c-1.2.3-2.2-.6-2.2-.6l.7-.7s.6.6 1.2.4c.7-.2 1.4-1.4 1.9-3.3 1.4-5.4.3-9.1.3-9.1l1-.3c0 .2 1.2 3.9-.3 9.6v.1c.5-.3 1.7-1.1 2.8-2.8 1.6-2.4 1.9-4.9 1.9-4.9l1 .1c0 .1-.3 2.7-2.1 5.3-1.8 2.7-3.6 3.3-3.7 3.3l-.2-.5c-.3.9-.6 1.7-1 2.2 2.3 1.4 9.7 6.4 13.1 13.7l-.9.6z"/></svg>
