<svg xmlns="http://www.w3.org/2000/svg" viewBox="0 0 749.66 428"><defs><clipPath id="a"><path fill="none" d="M0 0h749.88v428H0z"/></clipPath><style>.b{clip-path:url(#a)}.d{fill:#3c2a1b}.e{fill:#7d7174}.h{fill:#964900}.i{fill:#452342}.j{fill:#9a8391}.l{fill:#a96c27}.m{fill:#b2a7b6}.n{fill:#7f3600}.o{fill:#90533a}.q{fill:#ae9e9c}.t{fill:#b89052}.u{fill:#b79387}.v{fill:#1e2048}.w{fill:#00001b}.y{fill:#c39e57}.z{fill:#ae9580}.ac{fill:#e6d1a8}</style></defs><g class="b"><path fill="#886474" d="M-6.8-4.67v438.8h761.23V-4.67H-6.8z"/><path class="d" d="M755.43 435.13H-7.8V-5.67h763.23zm-761.23-2h759.23V-3.67H-5.8z"/><path class="e" d="M223.7 433.7l-24.57-100.64-215.43-17.01 4.84 118.11 235.16-.46z"/><path class="d" d="M-12.42 435.16L-17.35 315l217.28 17.15L225 434.7h-1.3zm-2.84-118l4.76 116 232.93-.46-24.1-98.7z"/><path fill="#845d45" d="M541.93 246.28l149.6-124.15 91.54 325.74-269.29 5.69 28.15-207.28z"/><path d="M512.63 454.58L541 245.76l.3-.25 150.78-125.13.42 1.48 91.88 327zm30.24-207.78l-27.94 205.73 266.83-5.63L691 123.88z" fill="#415cc8"/></g><path class="h" d="M576.14 230.62l-9.45 144.44-54.06-82.58 63.51-61.86z"/><g class="b"><path class="i" d="M231.651-5.205l7-.045 2.853 441.75-7 .046z"/><path class="j" d="M243.812-7.107l7-.034 2.161 442.205-7 .034z"/><path fill="#66495d" d="M259.6-8.05l1.66 442.92 39.09 4.52-3.42-462.07L259.6-8.05z"/><path class="i" d="M303.88 443.32L257.77 438 256.1-10.43l44.29-17.36zm-39.13-11.57l32.07 3.7-3.36-453-30.35 11.89z"/><path class="d" d="M437.67 131.85l-2.48-143.14 6-.1 2.48 143.13zm25.86-9.94l-.94-134.66h6l.94 134.66z"/><path class="j" d="M443.353-12.441l11-.22 2.863 143.16-11 .22z"/><path class="d" d="M385.206-11.265l6-.104 2.473 143.139-6 .103z"/><path class="d" d="M467 445.14h-1.49l-177.67-4.28-3.21-453 1.33-.16c1.14-.14 28.44-3.18 65.92 11.24a209.15 209.15 0 0162 37.9c23.94 20.83 45.31 47.9 63.51 80.44l.21.37v.42zm-176.18-7.23l173.28 4.16 10.5-323.75C433.87 45.6 384.83 14.75 350.84 1.67c-32.2-12.39-57.23-11.59-63.15-11.18z"/><path class="l" d="M464.59 108.17s-51-103-173.81-120.94l2.84 444.09 228.66 22.95"/><path class="m" d="M522 456.75l-230.9-23.16-2.83-449.26 2.88.42c64.12 9.38 108.46 42.11 134.36 67.91 28.07 28 40.79 53.34 41.32 54.4l-4.48 2.22c-.13-.25-13-25.82-40.5-53.21-25-24.83-67.4-56.22-128.55-65.93l2.81 438.92 226.42 22.72z"/><path class="n" d="M453.42 443.64l-145.86-11.37L306.14 9s105.59 22.15 139.61 105.79l7.67 328.85z"/><path class="m" d="M456 446.34l-150.94-11.76-1.43-428.7 3 .63a253 253 0 0157.69 21.78c28.34 14.8 65.87 41.65 83.72 85.56l.17.42zM310.05 430l140.81 11-7.6-325.62c-17.34-42.21-53.65-68.17-81.11-82.52a255.18 255.18 0 00-53.5-20.66z"/></g><path class="o" d="M320.19 30.22l1.3 217.8h101.58l10.63-121.89S407.85 56 320.19 30.22z"/><path d="M424.9 250H319.51l-1.33-222.46 2.58.76c45.76 13.44 74.52 39.09 90.59 58.24 17.44 20.79 24 38.17 24.23 38.89l.15.42v.45zm-101.42-4h97.76l10.43-119.6c-1.09-2.73-7.89-18.88-23.5-37.44-15.4-18.32-42.73-42.74-86-56.06z" fill="#b67537"/><path class="l" d="M418.7 121.9s-32.48-58.84-86.34-73.72l1.15 188.5h58.38L418.7 121.9z"/><path class="n" d="M393.08 238.18H332l-1.17-192 1.91.53c53.84 14.87 86.92 73.84 87.25 74.43l.28.51-.13.56zm-58.08-3h55.7l26.4-113c-3.25-5.63-34.31-57.34-83.23-71.95z"/><path class="q" d="M342.116 67.816l6-.036.935 157.557-6 .036z"/><path class="d" d="M313.7 264.02h67.14v2H313.7z"/><g class="b"><path class="l" d="M443.62 296.21v140.33H314.41V292.43h68.15l61.06 3.78z"/></g><path fill="#af9c83" d="M313.7 282.09h65.02v7H313.7z"/><path class="m" d="M313.7 267.19h66.77v7H313.7z"/><g class="b"><path d="M755.67 14.17l-81.14 135.58s.82 212.63 6.49 272.61c0 0 36.73 11.31 63.31 15.58l18.9-.95-7.56-422.82z" fill="#b6a4b1"/><path class="d" d="M744.27 438.94h-.1c-26.34-4.23-63.07-15.49-63.44-15.6l-.64-.2-.06-.66c-5.61-59.35-6.5-270.58-6.5-272.71v-.28l.14-.24L756.6 10.66l7.64 427.28zM682 421.6c5 1.52 38.14 11.42 62.42 15.33l17.83-.89-7.52-418.35L675.53 150c.04 8.83.97 212.45 6.47 271.6z"/><path class="t" d="M730.55 76.694l5.989-.375 17.645 282.039-5.988.374z"/><path class="u" d="M367.51 436.58l-11-.09.75-84.82 50.8-.04.01 11-39.9.03-.66 73.92z"/><path class="v" d="M610.16-5.67s-10.4 14.79-26.46 36.85-15.12 22.07-15.12 22.07l-21.73 20.88s-20.55-.94-42.4 28.37L557.31 264S625.16 225.36 681 149.75s72.9-111.5 72.9-111.5V-2.83L610.16-5.67z"/><path class="w" d="M556.45 266.24l-53.67-164 .46-.62c20.15-27 39.17-28.89 43-29l21.1-20.28c.88-2 4.25-7.09 15.14-22C598.36 8.5 608.83-6.38 608.93-6.53l.46-.66h.8L755.4-4.31v42.9l-.15.3c-.17.36-17.71 36.88-73 111.75s-123.5 114.3-124.18 114.69zm-50.33-163.46l52 159c10.54-6.36 71.34-44.81 121.67-112.92 52.47-71 70.8-107.34 72.58-111V-1.36L610.92-4.15c-2.18 3.1-12 17-26 36.21-8.67 11.92-12.3 17.28-13.82 19.69h1.22l-24.9 23.91h-.64c-.17-.03-19.78-.47-40.66 27.12z"/></g><path class="m" d="M193.46 204.09s14.41-24.76 16.18-45.35-8-52.46-8-52.46l-47.86-42.52S141.73 59 135.94 74.13L115 86.44l-11.23 78L115 195.59l78.42 8.5z"/><path class="d" d="M194 205.16l-79.69-8.64-11.52-32 11.33-78.69 21-12.37c2-5.14 5-8.59 8.82-10.27a14.19 14.19 0 0110.19-.35l.16.07 48.18 42.82.09.27c.4 1.31 9.83 32.29 8.06 52.84s-16.17 45.52-16.31 45.77zm-78.23-10.5l77.15 8.34c2.12-3.79 14.14-25.95 15.73-44.38 1.65-19.17-7-48.69-7.91-51.81l-47.48-42.2a12.41 12.41 0 00-8.52.38c-3.39 1.5-6 4.69-7.86 9.47l-.13.33L116 87.06l-11.12 77.25z"/><g class="b"><path d="M136.77-3.39s-5.73 68.29-27.68 144l-22-43.37L91.42-8.49l45.35 5.1z" fill="#644f51"/><path class="d" d="M109.34 143.33L86.13 97.46v-.26L90.46-9.6l47.39 5.33-.08 1a839.57 839.57 0 01-27.72 144.19zM88.15 97l20.68 40.87A842.84 842.84 0 00135.69-2.5L92.37-7.37z"/><path class="n" d="M396.34 441.08L364 433.89v-74.6h46.43zM368 430.68l25.09 5.59 12.59-73H368z"/><path class="e" d="M210.86 274.53S229 269 227 242.35s-15.54-50.08-42.85-60.48-66.26-26-66.26-26L97.08 90.71s18.19-58.62 4.85-95.92l-75.71-9L40.39 220l170.47 54.52z"/><path class="d" d="M210.85 275.58l-.3-.1-171.12-54.73v-.68L25.15-15.31l77.51 9.18.21.58c12.81 35.8-3.35 91.61-4.74 96.25l20.55 64.45c4.38 1.75 40.37 16.11 65.81 25.79 25.8 9.82 41.25 31.6 43.49 61.33 2.05 27.17-16.64 33.16-16.83 33.22zm-169.5-56.32l169.5 54.22c2.32-.84 17-7.05 15.14-31.06-2.18-28.91-17.17-50.08-42.21-59.61-27-10.28-65.89-25.82-66.28-26l-.44-.17L96 90.71l.09-.3c.18-.58 17.75-58.11 5.06-94.7L27.29-13z"/><path class="m" d="M223.92 295.1s8.52-21.46-17.11-29.08-44.53-13.28-44.53-13.28-35.9-30.91-76.53-47.58c0 0-1.66-29.82-20.67-50.69 0 0-2.72-37.64-17-69.43l-.91-23S52.68 17.46 39.45-8H-7.8l2 388.35s13 16.05 34.84 16.05 35 1 35 1 28.38 19.81 60.59 9.41c0 0 53 15.17 62.37-59.53s23.89-55.81 23.89-55.81l13.06 3.68z"/><path class="d" d="M105.37 410.75c-22.15 0-39.48-11-41.69-12.42-2-.14-14.73-1-34.63-1-22.05.02-35.48-16.24-35.62-16.4l-.22-.27v-.36L-8.8-9h48.85l.28.54c6.93 13.3 8.67 31.82 8.93 45.01a205.12 205.12 0 01-1.1 25.54l.9 22.72c13.4 29.93 16.66 65.36 17 69.24 17.29 19.19 20.26 46 20.65 50.42 38.69 16 73.39 45.1 76.07 47.37 2.09.63 20.23 6.07 44.32 13.23 8.49 2.52 14.26 6.81 17.14 12.74 4.15 8.54.77 17.29.62 17.66l-.33.84-14.25-4-.2-.26c-.08-.1-1.85-2.31-4.39-1.61-4.1 1.14-11.87 10.05-17.72 56.92-3.3 26.39-12.35 44.64-26.91 54.26-16.36 10.82-33.84 6.86-36.42 6.19a63.37 63.37 0 01-19.27 2.94zM-4.79 379.93c1.79 2 14.26 15.42 33.84 15.42 21.64 0 34.91 1 35 1h.27l.23.16c.28.19 28.35 19.4 59.71 9.27l.29-.09.29.08c.18.06 18.53 5.1 35.09-5.86 14-9.29 22.79-27.06 26-52.83 4.58-36.66 11-56.38 19.21-58.6a6.31 6.31 0 016.24 2l11.86 3.34c.69-2.31 2.21-8.93-.86-15.22-2.63-5.39-8-9.32-15.9-11.68C180.89 259.37 162 253.7 162 253.7l-.21-.06-.16-.14c-.36-.31-36.26-31-76.26-47.42l-.59-.24v-.63c0-.29-1.87-29.71-20.41-50.06l-.24-.26v-.35c0-.37-2.87-37.83-16.92-69.09l-.08-.18L46.15 62v-.08c.06-.44 5.25-43.95-7.33-69H-6.79z"/></g><path class="y" d="M427.56 33.33c3.83 0 6.93-3.52 6.93-7.86s-3.1-7.86-6.93-7.86-6.92 3.52-6.92 7.86 3.1 7.86 6.92 7.86z"/><path class="z" d="M427.56 34.33c-4.36 0-7.92-4-7.92-8.86s3.56-8.86 7.92-8.86 7.93 4 7.93 8.86-3.56 8.86-7.93 8.86zm0-15.72c-3.26 0-5.92 3.07-5.92 6.86s2.66 6.86 5.92 6.86 5.93-3.08 5.93-6.86-2.66-6.86-5.93-6.86z"/><path class="y" d="M404.65 16.71c3.83 0 6.93-3.52 6.93-7.86S408.48 1 404.65 1s-6.92 3.52-6.92 7.87 3.1 7.86 6.92 7.86z"/><g class="b"><path class="z" d="M404.65 17.71c-4.36 0-7.92-4-7.92-8.86S400.29 0 404.65 0s7.93 4 7.93 8.87-3.58 8.84-7.93 8.84zm0-15.73c-3.26 0-5.92 3.08-5.92 6.87s2.66 6.86 5.92 6.86 5.93-3.08 5.93-6.86S407.92 2 404.65 2z"/></g><path class="y" d="M448.42 53c3.82 0 6.92-3.52 6.92-7.86s-3.1-7.86-6.92-7.86-6.93 3.52-6.93 7.86 3.1 7.86 6.93 7.86z"/><path class="z" d="M448.42 54c-4.37 0-7.93-4-7.93-8.86s3.56-8.86 7.93-8.86 7.92 4 7.92 8.86-3.55 8.86-7.92 8.86zm0-15.72c-3.27 0-5.93 3.08-5.93 6.86s2.66 6.86 5.93 6.86 5.92-3.08 5.92-6.86-2.66-6.86-5.92-6.86z"/><path class="y" d="M465.39 75.53c3.82 0 6.93-3.52 6.93-7.87s-3.11-7.86-6.93-7.86-6.92 3.52-6.92 7.86 3.1 7.87 6.92 7.87z"/><path class="z" d="M465.39 76.53c-4.37 0-7.92-4-7.92-8.87s3.55-8.86 7.92-8.86 7.93 4 7.93 8.86-3.56 8.87-7.93 8.87zm0-15.73c-3.27 0-5.92 3.08-5.92 6.86s2.65 6.87 5.92 6.87 5.93-3.08 5.93-6.87-2.66-6.86-5.93-6.86z"/><path class="y" d="M478 99.63c3.82 0 6.92-3.52 6.92-7.87s-3.1-7.86-6.92-7.86-6.93 3.52-6.93 7.86 3.1 7.87 6.93 7.87z"/><path class="z" d="M478 100.63c-4.37 0-7.92-4-7.92-8.87s3.55-8.86 7.92-8.86 7.92 4 7.92 8.86-3.51 8.87-7.92 8.87zm0-15.73c-3.27 0-5.92 3.08-5.92 6.86s2.65 6.87 5.92 6.87 6-3.08 6-6.87-2.69-6.86-6-6.86z"/><path class="q" d="M476.15 307a107.48 107.48 0 10-107.47-107.48A107.48 107.48 0 00476.15 307z"/><path class="d" d="M476.16 308a108.48 108.48 0 11108.47-108.48A108.61 108.61 0 01476.16 308zm0-215a106.48 106.48 0 10106.47 106.52A106.61 106.61 0 00476.16 93z"/><path d="M475.57 300.1c54.92 0 99.45-44.88 99.45-100.24S530.49 99.63 475.57 99.63s-99.45 44.88-99.45 100.23 44.52 100.24 99.45 100.24z" fill="#5b1911"/><path class="d" d="M475.57 301.1c-55.39 0-100.45-45.42-100.45-101.23S420.18 98.63 475.57 98.63 576 144.05 576 199.87 531 301.1 475.57 301.1zm0-200.47c-54.29 0-98.45 44.52-98.45 99.24s44.16 99.23 98.45 99.23S574 254.58 574 199.87s-44.14-99.24-98.43-99.24z"/><path class="l" d="M475.08 294.67c51.11 0 92.54-42.6 92.54-95.15s-41.43-95.14-92.54-95.14-92.55 42.6-92.55 95.14 41.43 95.15 92.55 95.15z"/><path class="d" d="M475.08 295.67c-51.58 0-93.55-43.13-93.55-96.15s42-96.14 93.55-96.14 93.54 43.13 93.54 96.14-41.96 96.15-93.54 96.15zm0-190.29c-50.48 0-91.55 42.23-91.55 94.14s41.07 94.15 91.55 94.15 91.54-42.24 91.54-94.15-41.07-94.14-91.54-94.14z"/><path class="u" d="M519.73 261.62l1.73-17.29s9.33-3.65 13.29-10.47 4.54-11 5.67-17.53.72-18.2-4.82-27.56-5.37-16.44-6.8-19.84-5.67-10.21-13.89-11.06-25.79 11.06-25.79 11.06l-16.86 20.12-11.49 40.69 6.23 25.65 19 23.82 21.26.63 12.45-18.22z"/><path d="M507.8 280.85l-22.27-.65-19.44-24.36-.06-.22-6.29-25.89.07-.26 11.55-40.89 17.2-20.48c.73-.49 18-12.11 26.45-11.22 7.56.78 12.56 6.54 14.71 11.66a23.91 23.91 0 011.15 4.38 46 46 0 005.59 15.34c5.25 8.88 6.27 20.58 4.95 28.24l-.16.94c-1 6-1.77 10.28-5.63 16.92-3.57 6.13-11.08 9.73-13.23 10.66l-1.69 17zm-21.29-2.62l20.25.59 12-17.55 1.76-17.65.57-.22c.09 0 9.06-3.61 12.8-10s4.36-10.28 5.39-16.26l.16-.94c1.26-7.3.29-18.44-4.7-26.88a47.56 47.56 0 01-5.83-16 23.35 23.35 0 00-1-4c-.67-1.59-4.44-9.56-13.07-10.45-7.45-.77-23.5 9.8-25 10.81l-16.62 19.85-11.42 40.23 6.13 25.17z"/><g class="b"><path d="M377.15 430.87a369.84 369.84 0 0018.71-67.77c6.8-38.55 14.16-64.41 29.22-80.64s15.06-17 15.06-17v-17.64s-17.63-9-22.31-36.65c-4.09-24.08.25-41.77 19.36-57.83 22.55-19 59-11.82 68.08-6.24s17 11.34 19.85 15.31c0 0-10.12-6.5-21.79 2.13s-27.8 18.27-31.07 35.29c-1.67 8.67-4.09 15.92-5.44 22.55-5.34 4.64-3.22 14.31 3.3 16 4.73 12.2 14.48 36.12 14.48 36.12s14.61 11.41 28.89-5.39c6.2-7.29 7.42-16.76 7.42-16.76s5.91-2.37 7 13.86a46.72 46.72 0 016.8 17.22s12 7.34 20.72 34.86 9.9 32.31 9.9 32.31 9.64-11.34 24.38-25.51 31.17-31.17 60.09-14.18c23.69 13.93 19 45.67 19 67.78s0 24.38 8.76 52.15z" fill="#2d0027"/><path d="M679 431.87H375.66l.56-1.38a371.06 371.06 0 0018.65-67.56c6.65-37.65 13.89-64.36 29.47-81.15 11.94-12.86 14.33-15.9 14.8-16.56V248.4a38.53 38.53 0 01-9.15-7.88c-4.64-5.3-10.69-14.67-13.15-29.18-4.39-25.88 1.5-43.46 19.7-58.77C460 132.82 497.2 141 505.8 146.25c6 3.69 16.59 10.62 20.13 15.58l-1.35 1.42c-.39-.25-9.71-6-20.65 2.1q-2.07 1.53-4.28 3.1c-11.06 7.94-23.59 16.94-26.41 31.57-.93 4.83-2.07 9.14-3.17 13.3-.86 3.26-1.67 6.33-2.27 9.26l-.07.33-.25.23a8.41 8.41 0 00-2.44 8.34 7.78 7.78 0 005.34 6l.49.13.19.48c4.4 11.38 13.3 33.22 14.36 35.84 1.84 1.32 14.58 9.58 27.31-5.39 5.94-7 7.17-16.15 7.19-16.25l.07-.58.55-.22a3.9 3.9 0 013.41.49c2.75 1.72 4.42 6.41 5 14a47.73 47.73 0 016.74 17c2.18 1.54 12.75 10 20.75 35.14 6.13 19.25 8.53 27.37 9.42 30.55 3.07-3.49 11.6-13 23.21-24.16l1.12-1.08c14.69-14.15 31.34-30.19 60.18-13.24 21 12.32 20.25 38.28 19.68 59.14-.09 3.34-.17 6.5-.17 9.5 0 21.94 0 24.23 8.71 51.85zm-300.36-2h297.62c-8.4-26.69-8.4-29.29-8.4-51.15 0-3 .08-6.2.17-9.55.56-20.34 1.25-45.64-18.7-57.36-27.53-16.19-43.6-.71-57.77 12.95l-1.12 1.08c-14.53 14-24.21 25.32-24.31 25.44l-1.28 1.5-.45-1.92c0-.05-1.26-5.18-9.88-32.24-8.52-26.74-20.18-34.23-20.29-34.3l-.38-.24-.08-.45a46.18 46.18 0 00-6.64-16.82l-.16-.23v-.27c-.63-9.12-2.78-11.83-4-12.64a2.38 2.38 0 00-1.17-.41 36.62 36.62 0 01-7.52 16.53c-14.73 17.33-30.12 5.65-30.27 5.53l-.21-.17-.1-.24c-.1-.24-9.57-23.48-14.31-35.68a9.85 9.85 0 01-6.27-7.3 10.43 10.43 0 012.81-10.07c.6-2.89 1.39-5.89 2.23-9.05 1.09-4.13 2.22-8.4 3.14-13.17 3-15.41 15.84-24.65 27.2-32.81 1.46-1.05 2.89-2.08 4.26-3.09 6.3-4.66 12.18-5 16-4.49a19.37 19.37 0 012.59.53c-3.5-3.22-9.19-7.28-16.58-11.83-8.3-5.1-44.2-12.95-66.92 6.15-17.82 15-23.33 31.48-19 56.91 4.54 26.77 21.61 35.83 21.78 35.92l.54.27v18.3c0 .42 0 1.13-15.33 17.65s-22.39 42.83-29 80.13a380.64 380.64 0 01-18.22 66.59z"/></g><path class="z" d="M418.53 290s19.85 6.21 17 30.58c-1.94 16.72-3.68 25-3.68 25s-10.45 1.1-9.62-14.77-1.72-22.79-4.84-24.65c0 0-5.67 1.86-10.77 12.49-4.52 9.4-12.44 47.72-15.31 58.11-1.21 4.41-7.93 5.94-7.84-3.43a175.63 175.63 0 012.33-29.45c.64-3.85 1.33-7.37 1.33-7.37-.22-1.65-2.48-2.32-4.67-6.27-3.75-6.8-2.66-11.86-2.66-17.26s-6.26-7.77-3.51-25.79a298 298 0 017.1-33.19c13.32 23.79 35.14 36 35.14 36z"/><path class="d" d="M387.3 381.22a5.46 5.46 0 01-.56 0c-1-.14-4.33-1.14-4.27-7.88a176.74 176.74 0 012.35-29.61c.56-3.3 1.15-6.41 1.3-7.2a4.25 4.25 0 00-1.15-1.43 18 18 0 01-3.37-4.36c-3.2-5.79-3-10.39-2.87-14.82 0-1 .08-1.94.08-2.92a10.78 10.78 0 00-1.35-4.47c-1.71-3.78-4.06-8.95-2.15-21.47a305.56 305.56 0 017.11-33.3l.66-2.3 1.18 2.09c12.63 22.57 33.27 34.76 34.69 35.57 1.65.58 20.37 7.69 17.58 31.62-1.92 16.57-3.68 25-3.7 25.06l-.15.72-.72.07A9.34 9.34 0 01425 344c-2.82-2.68-4.1-7.15-3.78-13.28.89-17.11-2.19-22-3.95-23.46-1.36.68-5.74 3.4-9.76 11.78-3.1 6.46-7.94 27.2-11.47 42.34-1.56 6.67-2.9 12.43-3.77 15.61a5.5 5.5 0 01-4.97 4.23zm-3.58-124.64a305.83 305.83 0 00-6.43 30.74c-1.83 11.93.38 16.79 2 20.34a12.38 12.38 0 011.53 5.3c0 1 0 2-.08 3-.16 4.36-.31 8.47 2.62 13.79a16.14 16.14 0 003 3.91 4.84 4.84 0 011.74 2.71v.32s-.69 3.56-1.33 7.34a176 176 0 00-2.32 29.3c0 3.45.92 5.65 2.55 5.88 1.36.2 2.87-1 3.34-2.73.86-3.13 2.2-8.87 3.75-15.52 3.56-15.24 8.42-36.1 11.62-42.75 5.22-10.89 11.11-12.93 11.36-13l.43-.14.39.23c2.95 1.76 6.27 7.62 5.33 25.56-.29 5.52.78 9.47 3.16 11.73a7.38 7.38 0 004.63 2c.47-2.43 1.93-10.49 3.52-24.09 2.7-23.23-15.54-29.27-16.32-29.52l-.18-.08c-.2-.15-20.92-11.9-34.31-34.32z"/><path class="ac" d="M497.22 284.14a26.27 26.27 0 01-3.36-.18l.14-1c.13 0 13 1.74 21.16-6.08 5.45-5.2 7.68-13.41 6.62-24.41l1-.1c1.08 11.33-1.25 19.82-6.94 25.24-5.91 5.65-14.09 6.53-18.62 6.53z"/><path class="d" d="M388.14 336.57l-2-.16a114.59 114.59 0 016.09-27l1.87.7a112.16 112.16 0 00-5.96 26.46zm-7.33-24.46h-2a46 46 0 012.82-15.71l1.85.74a45.41 45.41 0 00-2.67 14.97zm105.58-113.7l-1.92-.57c3.79-12.61 12.83-14.78 13.21-14.86l.44 2-.22-1 .23 1c-.34.02-8.31 2.02-11.74 13.43zm29.68-23.33l-1.75-1c0-.08 4.38-7.83 12.65-4.09l-.83 1.83c-6.56-2.93-9.93 3.01-10.07 3.26z"/><path d="M486.37 201.33l-.7-1.87 4.75-1.78c.71-3.42 3.4-9 9.37-9v2c-6.18 0-7.45 7.56-7.5 7.88l-.09.57zm33.26-20.7l-1.92-.55c.06-.22 1.58-5.47 5.24-6.85a6 6 0 015.52.88l-1.08 1.68a4.08 4.08 0 00-3.73-.7c-2.66 1.03-4.02 5.49-4.03 5.54z"/><path class="d" d="M524.13 184.35a18.49 18.49 0 01-5.9-1.15l.73-1.86c1.45.56 5.7 1.73 7.87.42a3.06 3.06 0 001.4-2.48l2 .22a5 5 0 01-2.36 4 7.15 7.15 0 01-3.74.85z"/><g class="b"><path d="M678.77 377.51c.65 14.76 1.4 35.8 2.25 44.85 0 0 36.73 11.31 63.31 15.58l18.9-.95-.65-34" fill="#d6bf88"/><path class="d" d="M744.27 438.94h-.1c-26.34-4.23-63.07-15.49-63.44-15.6l-.64-.2-.06-.66c-.68-7.17-1.29-21.88-1.83-34.85-.15-3.52-.29-6.93-.43-10.05l2-.09c.14 3.13.28 6.53.43 10 .52 12.56 1.11 26.75 1.76 34.08 5 1.52 38.14 11.42 62.42 15.33l17.83-.89-.63-33.01h2l.66 35zM518.61 212.25a4.42 4.42 0 01-2.67-1.1l1.23-1.58a2.31 2.31 0 001.57.67 2.39 2.39 0 001.37-1.07 13.42 13.42 0 014-3.12 20.17 20.17 0 003.14-2.15 4.84 4.84 0 001.43-3.9 3.78 3.78 0 00-1.84-3 13.53 13.53 0 01-3.69-3.66 19.71 19.71 0 00-5.41-5.17c-5.51-3.51-6.6-7.43-6.64-7.59l1.93-.51-1 .25 1-.26s1 3.36 5.79 6.42a21.48 21.48 0 015.91 5.64 11.88 11.88 0 003.15 3.17 5.73 5.73 0 012.79 4.5 6.83 6.83 0 01-2.09 5.57 21.44 21.44 0 01-3.44 2.37 12.5 12.5 0 00-3.44 2.6 4.09 4.09 0 01-2.7 1.86 2.69 2.69 0 01-.39.06z"/></g><path d="M518.7 223a5.34 5.34 0 01-1.24-.12l.42-1.95c.11 0 2.58.51 3.79-1.4 2.05-3.27 4.22-3.19 5.39-3.15h.31c.15 0 .37-.4.69-1a15.05 15.05 0 01.75-1.34 3.57 3.57 0 012.53-1.62 4.18 4.18 0 013.21.82l-1.3 1.52a2.15 2.15 0 00-1.61-.36 1.58 1.58 0 00-1.14.7c-.27.43-.47.83-.66 1.19-.51 1-1.08 2.12-2.47 2.12H527c-1 0-2.19-.08-3.63 2.22a5.29 5.29 0 01-4.67 2.37z"/><g class="b"><path class="d" d="M752.25 399.8c-30.89-6.48-73.08-21.51-73.51-21.66l.68-1.88c.42.15 42.48 15.13 73.24 21.58zM525.74 224.34h-.82l.21-2s3.5.32 5.63-1.64a6.1 6.1 0 001.72-4.82h2a8 8 0 01-2.37 6.33 9.63 9.63 0 01-6.37 2.13zM732.74 431.88c-.28-.11-28.39-10.67-35.73-11.84a130.26 130.26 0 01-16.51-4l.76-2.39a129.42 129.42 0 0016.14 3.93c7.59 1.21 35.05 11.53 36.22 12zm19.67-22.47c-.07 0-6.92-3.83-23-8.41-7.52-2.14-12.89-3.42-17.2-4.44a88.61 88.61 0 01-12.63-3.56c-7-2.76-20.87-8.91-21-9l1-2.28c.13.06 13.95 6.19 20.91 8.92a86.27 86.27 0 0012.31 3.51c4.34 1 9.74 2.31 17.31 4.47 16.39 4.67 23.23 8.47 23.51 8.63z"/></g><path d="M499.41 196.72a2.41 2.41 0 01-2.15-1.21c-.67-1.16-.59-3.4.38-4s2 .11 2.85 1.64.88 2.77 0 3.28a2.24 2.24 0 01-1.08.29zM526.82 180.36a1.52 1.52 0 01-.55-.1 2.91 2.91 0 01-1.56-1.52 3.28 3.28 0 01-.35-1.57 1.69 1.69 0 01.89-1.52c.94-.45 2.13.18 2.76 1.48s.4 2.62-.54 3.08a1.44 1.44 0 01-.65.15z"/><g class="b"><path d="M423.28 434.08C412 406.19 410 365.4 410 365l2-.09c0 .4 2 40.85 13.12 68.42zm155-1.22l-2-.05c1-36.44 6.84-63.72 12-81-39.58 16.76-66.83 35.71-67.11 35.9l-.38.27-.45-.12c-12-3.32-26.35-2.84-26.49-2.84l-.07-2c.14 0 14.39-.48 26.64 2.79A412.13 412.13 0 01589 349.34c.08-.24.15-.48.22-.71 5.82-18.47 11.33-27.62 11.56-28l1.71 1c-.21.37-22.29 37.58-24.22 111.23zm13.61-1.12l-2-.08c.08-2.18 2-53.63 7.41-72.8s18.66-21.32 30.38-23.18l1.29-.21c2.94-.48 6.15.59 9.55 3.15 13.94 10.51 24 38.75 26.65 61.21l-2 .24c-3.49-29.12-15.65-52.15-25.86-59.85-2.95-2.22-5.66-3.16-8-2.78l-1.29.21c-11.66 1.85-23.72 3.77-28.77 21.75-5.35 18.94-7.35 71.81-7.37 72.34zm-97.52-.45l-2-.32c.07-.4 1.71-10 11-22.12 15-19.7 38.43-30.71 55.9-36.55 7.55-5.51 16.18-11.22 26-17l1 1.72c-9.52 5.61-17.89 11.15-25.24 16.51l.09.28-.86.28c-42.78 31.43-50.56 56.79-50.64 57.08l-1.93-.55c.34-1.18 7.42-24.42 46.14-54.25-16.26 6.15-35.87 16.6-48.92 33.72-8.91 11.72-10.54 21.11-10.55 21.2zm-90.13-.42C404 348.14 409 316.92 409 316.62l2 .32c0 .31-5 31.41-4.79 113.92zm-9.37-.76c-4.5-39.38 5.58-91.62 5.68-92.15l2 .39c-.1.52-10.13 52.46-5.66 91.54zM532 377.2c-29.12-56.81-89.52-86.6-90.12-86.9l.87-1.8c.61.3 61.6 30.37 91 87.79zM658.49 365c-4.58-30.8-29.78-53-30-53.25l1.31-1.51c.26.23 26 22.92 30.7 54.47z"/><path class="d" d="M109.24 400.48l-.3-2c.2 0 20.2-3.28 34.78-18.41 12.38-12.85 15.37-31.59 19.15-55.3.72-4.51 1.46-9.18 2.3-14 2.21-12.65 10.77-24.36 24.75-33.88a97.07 97.07 0 0120.61-10.64l.65 1.89A95.27 95.27 0 00191 278.57c-9.42 6.42-21.21 17.27-23.87 32.55-.84 4.82-1.58 9.48-2.3 14-3.83 24.07-6.86 43.07-19.68 56.38-15.06 15.61-35.06 18.85-35.91 18.98zm-59.12-3.13l-.18-2c.28 0 28.41-2.78 58.63-21.14s36.33-24.87 40.87-36.61l1.87.73c-4.73 12.22-11.1 19-41.7 37.58s-59.2 21.41-59.49 21.44zm28.94-27.28l-1.37-1.46c.19-.17 7.28-6.92 17.74-18.24C48.58 367-5.64 343.29-6.2 343l.82-1.83c.56.25 57 24.92 103.83 5.87 17.17-18.86 41.7-48.32 60.41-81-8.36 1.73-13.78 3.24-13.88 3.27l-.54-1.93a267.2 267.2 0 0143.27-7.67l.17 2a251.87 251.87 0 00-26.42 3.82c-19 33.52-44.22 63.83-61.75 83.07v.05h-.11c-11.98 13.28-20.33 21.22-20.54 21.42zm52.05-28.31l-1.67-1.09a274.93 274.93 0 0018.32-34.1c8.34-18.9 26.33-40.27 51.81-43.54l.26 2c-24.66 3.16-42.12 24-50.24 42.36a275.58 275.58 0 01-18.48 34.37zm-14-81l-.3-2 45.92-7 .3 2z"/></g><path class="z" d="M251.57 310.94s7.09-6.64 24.1-6.64 34.07 1.25 38.74 7.37 17.9 21 24.75 23.65 5.6 6.29-.35 7.4c-6.6 1.24-15.95-3-20.62-7.4s-9.33-9.6-9.33-9.6-.31 9.21 0 16.91 7.08 16.53 11.63 22.27c3.75 4.72 11.68 8.67 19.81 15.89s11.06 12.93 6.26 15.56c-3 1.65-5.7-2.24-12.19-6.6-8.24-5.53-17.13-7.42-24.8-16.46s-13.21-15.19-13.21-15.19 9.78 17 22.25 26.29a151.47 151.47 0 0118.85 16.8s9.92 12.26 6.55 16.65c-2.15 2.8-5.84 1.56-8.67-.71 0 0-8.27-2.33-20.93-6.35s-16.35-1.77-32.79-11.93-24.51-33.27-47.46-49.63l-3.28-20.87 20.69-17.41z"/><path class="d" d="M340.75 420.46a10.3 10.3 0 01-5.88-2.42c-1.31-.37-9.28-2.66-20.76-6.31a94.5 94.5 0 00-9.77-2.47c-6.31-1.32-11.77-2.46-23.25-9.56-8-4.94-14.11-13-20.59-21.47-7.05-9.25-15-19.72-26.92-28.2l-.35-.24L229.8 328l21.11-17.75c.54-.5 7.86-6.91 24.76-6.91 22.93 0 35.49 2.47 39.53 7.78 5.4 7.08 18.15 20.94 24.32 23.32 4.59 1.77 5.4 3.81 5.28 5.2-.18 2-2.3 3.46-5.81 4.12-6.92 1.29-16.55-3-21.49-7.66-2.95-2.8-5.92-5.92-7.71-7.84-.07 3.26-.14 9.2.06 14.38.31 7.67 7.54 16.79 11.43 21.69 2 2.47 5.22 4.8 9 7.5A121.86 121.86 0 01341 380c6.27 5.56 9.26 10.06 8.88 13.35a4.91 4.91 0 01-2.8 3.84c-2.67 1.46-5-.4-8.3-3-1.4-1.1-3-2.35-4.93-3.66a79.4 79.4 0 00-8.41-4.72 59.31 59.31 0 01-12.39-7.7 57.38 57.38 0 006.2 5.43 154.74 154.74 0 0119 16.92c1.11 1.37 10.35 13.06 6.6 17.94a5 5 0 01-3.37 2c-.28.04-.48.06-.73.06zm-105.67-71.81c11.94 8.6 19.94 19.1 27 28.37 6.64 8.71 12.38 16.23 20.06 21 11.18 6.91 16.22 8 22.6 9.31a94 94 0 0110 2.51c12.5 4 20.82 6.33 20.9 6.35l.19.06.16.12c1.87 1.5 3.78 2.25 5.23 2.08a2.88 2.88 0 002-1.2c2.11-2.74-2.88-10.91-6.52-15.41a151.69 151.69 0 00-18.7-16.65c-12.49-9.35-22.11-25.89-22.52-26.59l1.61-1.17c.06.07 5.63 6.27 13.23 15.21 4.95 5.83 10.3 8.56 16 11.44a79.54 79.54 0 018.62 4.84c2 1.35 3.63 2.63 5.05 3.76 3.19 2.51 4.65 3.59 6.1 2.79a3 3 0 001.78-2.3c.16-1.47-.69-4.94-8.23-11.64a121.51 121.51 0 00-10.5-8.12c-3.91-2.79-7.29-5.2-9.42-7.88-4-5.08-11.52-14.53-11.85-22.86-.31-7.64 0-16.89 0-17l.08-2.47 1.66 1.84c0 .05 4.69 5.2 9.28 9.55s13.64 8.28 19.74 7.14c2.79-.52 4.11-1.55 4.18-2.33s-.94-2-4-3.15c-7.39-2.85-21.24-18.8-25.19-24-5.32-7-29.87-7-37.94-7-16.34 0-23.35 6.32-23.41 6.39l-20.26 17zm-77.27 35.55l-2-.32c0-.28 4.56-28.82 6.17-52.88l2 .14c-1.6 24.14-6.12 52.77-6.17 53.06z"/><path d="M236.57 352.41l-11.6.49-3.73 1.61-15.31-5.73-19-.67s4.22-34.87 9.89-47.91 10.82-12.47 16.44-8.78c5 3.3 9.22 3.1 13.68 4.79s1.84 5.67 12 7.37a31.39 31.39 0 015.46 1.42 47.59 47.59 0 019.39 4.28s-7.37 4.05-13.43 20.94c-4.11 11.44-3.84 14.53-3.84 22.19z" fill="#b2a48e"/><g class="b"><path class="d" d="M221.27 355.59l-15.53-5.81-19.9-.71.16-1.07c.18-1.43 4.31-35.16 10-48.18 2.93-6.74 5.88-10.36 9.3-11.38 3.24-1 6.3.65 8.6 2.16a20.52 20.52 0 006 2.66 4.78 4.78 0 01.56-.24l.12.42c.65.17 1.3.32 2 .47a37.3 37.3 0 014.86 1.38 7 7 0 013.55 3c1.15 1.63 2.34 3.32 8.26 4.31a32.41 32.41 0 015.64 1.47 49.19 49.19 0 019.61 4.38l1.37.92-1.45.79c-.06 0-7.14 4.18-13 20.41-3.8 10.59-3.79 13.9-3.78 20.5v2.31l-12.37.52zm-17.51-7.88l2.37.08 15.08 5.65 2.75-1.19c-.09-1.54-.53-12.85 5.42-28.81 4.35-11.7 9.8-16.31 12.94-18.08a31.53 31.53 0 00-3.49-.8c-6.75-1.12-8.32-3.35-9.58-5.13a5.09 5.09 0 00-2.62-2.28 33.85 33.85 0 00-4.6-1.3c-.63-.15-1.26-.29-1.9-.46-2.08 1.37-7.66 6.36-13.25 22.73-6.06 17.77-3.88 27.15-3.12 29.59zm41.34-41.41c-1.13.34-8.36 3.09-13.85 17.84s-5.39 25.55-5.3 27.72l9.62-.41v-.38c0-6.84 0-10.27 3.9-21.19 4.64-12.93 10.05-18.5 12.53-20.52a57.73 57.73 0 00-6.9-3.06zm-57 40.85l13.54.48c-1-3.55-2.46-13.13 3.35-30.15 4.87-14.27 9.82-20.3 12.75-22.79a21.63 21.63 0 01-5-2.43c-2.89-1.89-5-2.48-6.94-1.91-2.77.83-5.4 4.18-8 10.25-5.01 11.48-8.94 40.57-9.7 46.55zm12.16-96c-6.4 0-14.91-2.95-20.23-5.08-11-4.38-22.14-10.74-29.16-16.58-7.19-6-15.15-20.36-23.67-42.73-6.31-16.58-10.6-31.62-10.64-31.77l1.92-.55c.17.6 17.09 59.71 33.67 73.51 14.34 11.94 44.53 24.69 52.65 20.32 1.48-.8 2.07-2.12 1.84-4.15-1.64-14.73-24.26-34.51-24.49-34.7l1.32-1.52c.95.83 23.44 20.5 25.16 36 .4 3.57-1.35 5.31-2.88 6.14a11.8 11.8 0 01-5.49 1.15zm-54.49-1.4c-.39-.32-39.84-32.43-72.42-40.12l.46-1.94c17.28 4.12 36.28 14.92 49.19 23.31a295.65 295.65 0 0124 17.24zM-3 247.46l-1.64-1.15a150.21 150.21 0 0121.27-23.51c16.61-14.6 32.2-19.8 45.08-15l-.71 1.84C31.48 198.73-2.67 247-3 247.46zm-2-14.14l-1.58-1.23c.1-.12 10-12.81 17.81-24 8-11.47 13.5-13.22 35.4-16.36A59.13 59.13 0 0185.48 200l-1.12 1.65c-.16-.11-16.48-10.95-37.45-7.94-21.52 3.08-26.4 4.64-34 15.52C5 220.47-4.9 233.2-5 233.32zm123.47-10.82c-.22-.31-21.9-32-33.93-66a204.82 204.82 0 01-7.85-29.76h-.16v-1.08c-2.89-15.1-4.53-30.32-5.99-44.44-1-9.93-2-19.31-3.36-27.82a471.79 471.79 0 00-13-56.81L56.09-4a472.73 472.73 0 0113.07 57.09c1.33 8.56 2.32 18 3.37 27.92 1 9.17 2 18.82 3.37 28.59L71.71-4.23l2-.07 4.77 129.76a206.69 206.69 0 007.94 30.38c12 33.77 33.48 65.22 33.69 65.53zM-5.44 210.78l-1.31-1.5s4.59-4.07 13.48-15.18c6.76-8.45 11.54-9.62 18.15-11.24a84 84 0 008.68-2.5c12.5-4.44 16.49-3.09 28.34.9h.13a857.55 857.55 0 0121.4 7.53l-.69 1.87c-.1 0-9.72-3.58-21.34-7.5h-.13c-11.68-3.94-15.2-5.12-27-.91a86 86 0 01-8.87 2.55c-6.46 1.58-10.73 2.63-17.07 10.55-9.06 11.28-13.58 15.27-13.77 15.43zM187 203.4c-1.51-3.14-18.63-5.9-29.95-7.73-7.93-1.28-14.77-2.39-17.53-3.53-7.46-3.11-10.71-24.86-11.06-27.32l-.21-1.55 59.94 18-.58 1.92-56.93-17.12c1.18 7.25 4.57 22.1 9.61 24.2 2.54 1.06 9.6 2.2 17.07 3.4 17.27 2.79 29.62 5.05 31.44 8.84zM86.42 88.48l-1.88-.68c.13-.35 12.68-36 12.68-92.63h2c0 57.04-12.67 92.95-12.8 93.31z"/></g><path class="n" d="M516.48 207.77h-2a5.49 5.49 0 013.43-4.89l.76 1.85a3.49 3.49 0 00-2.19 3.04z"/><path class="d" d="M91.88 174.51c-7.74-7.13-16.6-29.17-26.35-65.5-7.23-27-12.28-52.17-12.33-52.42l2-.39c.2 1 20.2 100.36 38.08 116.84zm44.3-10.9c-10-27.31-9.71-50.3-7.75-64.78C130.55 83.11 135 74 135.16 73.6l1.8.88c-.18.36-17.65 37 1.1 88.45z"/><path class="z" d="M144.56 121.52s-.59-6.73 1.3-23S146 74 150.23 69.43s33-36.49 37.21-46.06l1.34 9.92s7.52 16.9 7.52 18.43a9.82 9.82 0 001.13 3.63l13.43-2.1h11.66s2.83 5.65 2.48 8.8-4.25 6.51-2.48 12.08-4.61 12.32-2.84 17.1a20.1 20.1 0 01-2.48 18c-4.25 6.38-16.65 15.29-27.28 18.76s-18.27 20.13-23 17.45-22.71-24.12-22.71-24.12l.32.18z"/><path class="d" d="M168.06 146.77a3.14 3.14 0 01-1.6-.44c-4.8-2.74-22.25-23.47-23-24.35l.33-.39h-.23c0-.28-.58-7 1.3-23.24.65-5.62.87-10.35 1-14.14.34-7.35.57-12.2 3.59-15.48 6.38-6.91 33-36.78 37-45.79l1.55-3.2L189.75 33c2.32 5.21 7.55 17.14 7.55 18.7a7.34 7.34 0 00.71 2.53l12.85-2h12.28l.27.55c.12.24 3 6 2.58 9.36a11.93 11.93 0 01-1.31 3.67c-1.11 2.3-2.26 4.69-1.21 8s-.27 6.49-1.51 9.69c-1.07 2.76-2.08 5.37-1.34 7.36a21.11 21.11 0 01-2.62 18.95c-4.66 7-17.4 15.75-27.81 19.15-5.14 1.67-9.74 6.81-13.44 10.93-3.33 3.77-6.13 6.88-8.69 6.88zm-22.5-25.42c6.36 7.54 18.4 21.25 21.89 23.24 1.61.93 4.64-2.46 7.85-6 3.86-4.31 8.66-9.66 14.31-11.5 10.93-3.57 22.88-12.54 26.76-18.36a19.11 19.11 0 002.38-17.12c-1-2.7.19-5.79 1.35-8.78s2.26-5.86 1.46-8.36c-1.29-4.07.16-7.07 1.32-9.48a10.3 10.3 0 001.12-3c.24-2.1-1.26-5.86-2.11-7.69h-10.95l-14.05 2.2-.34-.63a10.37 10.37 0 01-1.25-4.1c-.12-1.11-3.92-10.12-7.43-18l-.08-.27-.93-6.9C179 39.35 151.27 69.79 151 70.11c-2.53 2.74-2.73 7.06-3.06 14.21-.17 3.83-.39 8.59-1 14.28-1.82 15.03-1.44 21.93-1.38 22.75z"/><g class="b"><path class="h" d="M194.17 180.69s-2.36 5-12.87 4.61-13.3-2.64-13.3-7.7 4-39.56 4.84-53.95 2.25-20.19 3-28.69 2.83-22.58 2.83-32.91 1.54-13.52 4.25-16 2.48-5.29 2.13-13.45.71-35.43.71-35.43l12 .33v33.68c0 14.51 4.93 60.05 4.93 60.05a14.66 14.66 0 01-4.37 8c-3.77 3.53-6.26 9.55-4.84 14.87s1.07 7.08 1.07 17.36-.36 49.25-.36 49.25z"/><path class="d" d="M182.35 186.32h-1.09C170.83 186 167 183.59 167 177.6c0-2.45.91-11.5 2-22 1.15-11.49 2.45-24.51 2.88-32 .52-8.93 1.26-14.58 1.91-19.56.4-3 .78-5.92 1.05-9.15.23-2.71.6-6 1-9.48.86-7.66 1.84-16.34 1.84-23.35 0-10.56 1.61-14 4.58-16.74 2.26-2.07 2.16-4.51 1.84-11.75v-.92c-.35-8.11.66-34.4.71-35.51v-1l14 .39v34.68c0 14.29 4.88 59.49 4.93 59.94v.24a15.65 15.65 0 01-4.74 8.55c-3.19 3-6 8.59-4.56 13.88 1.18 4.44 1.17 6.5 1.12 12.63v5c0 10.16-.36 48.87-.36 49.26v.22l-.1.2c-.1.21-2.62 5.19-12.75 5.19zm4.28-188.13c-.19 5-1 27.21-.67 34.37v.91c.33 7.51.46 10.62-2.49 13.32-2.55 2.32-3.93 5.44-3.93 15.26 0 7.12-1 15.86-1.85 23.57-.39 3.47-.76 6.75-1 9.42-.27 3.28-.65 6.18-1.05 9.25-.65 4.95-1.39 10.56-1.9 19.41-.43 7.57-1.74 20.61-2.89 32.12-1.05 10.42-2 19.43-2 21.78 0 4.17 1.92 6.35 12.38 6.7 8.52.28 11.31-3.1 11.84-3.89 0-3.47.36-39.26.36-49v-5c0-6.08.06-7.91-1.05-12.09-1.63-6.09 1.52-12.49 5.12-15.86a13.76 13.76 0 004-7.28c-.3-2.73-4.93-46-4.93-60v-32.7z"/></g><path class="z" d="M221.45 56.21s-20.93-3-32.67-3-22.39-3.21-21.78 3c.48 5.84 31 16.66 31 16.66"/><path class="d" d="M197.66 73.81C192.47 72 166.51 62.47 166 56.3a4 4 0 011-3.3c2-2 6.44-1.71 12.53-1.23 2.83.22 6 .48 9.28.48 11.67 0 32.6 2.94 32.82 3l-.29 2c-.2 0-21-3-32.53-3-3.32 0-6.57-.26-9.44-.48-4.92-.39-9.57-.76-10.94.64a1.91 1.91 0 00-.45 1.7c.32 3.6 18 11.41 30.38 15.81z"/><path class="z" d="M223 74.84a75 75 0 00-16.2-7.48c-9.1-2.89-16.18-5.31-24-5.31s-11.18 1-15.88 0-3.88 3.72-1.23 6.25c3.93 3.76 19.6 7.42 38 15"/><path class="d" d="M203.3 84.17c-7.62-3.12-14.64-5.53-20.83-7.66-8.7-3-15-5.14-17.44-7.48-1.83-1.75-3.11-4.7-2.09-6.62.39-.75 1.47-1.92 4.22-1.34a29 29 0 008.33.25c2-.13 4.35-.27 7.34-.27 7.47 0 14.15 2.13 22.61 4.82l1.67.54A75.69 75.69 0 01223.56 74l-1.09 1.68a75.23 75.23 0 00-16-7.37l-1.68-.53c-8.29-2.64-14.84-4.73-22-4.73-2.93 0-5.21.14-7.22.27a30.82 30.82 0 01-8.87-.29c-.62-.14-1.72-.27-2 .32-.42.79.24 2.82 1.71 4.23 2.13 2 8.56 4.25 16.71 7 6.21 2.14 13.27 4.55 20.94 7.7z"/><path class="z" d="M217.2 88.48s-7.55-4.36-13.52-8.06-11.51-4.78-18.36-6.29-10.87-1-13.83-1-5 5 0 7.54 6.87 2.37 11.48 3.47c4 1 5.53-.38 11.91 4.31s9.13 5.76 16 14.26"/><path class="d" d="M151.41 116.2l-1.64-1.14c.15-.22 14.8-21.46 17.77-37.75a4.75 4.75 0 01.07-1.85 4.11 4.11 0 013.88-3.3h1.78a44.53 44.53 0 0112.26 1l1.13.24c6.32 1.39 11.77 2.58 17.55 6.17s13.42 8 13.49 8l-1 1.74c-.07 0-7.63-4.42-13.54-8.08-5.49-3.41-10.54-4.51-16.92-5.91l-1.14-.25a42.85 42.85 0 00-11.77-1h-1.84a2.14 2.14 0 00-1.93 1.77 2.63 2.63 0 00-.07.92h.16c0 .14-.05.27-.07.41a4.29 4.29 0 002.42 2.64 25.39 25.39 0 008 2.71c.95.19 2 .39 3.19.68a18.92 18.92 0 002.7.41c2.41.24 4.68.47 9.56 4.06 1.22.9 2.3 1.66 3.31 2.37 4.36 3.06 7.24 5.09 12.86 12.07l-1.56 1.26c-5.45-6.77-8.23-8.73-12.45-11.7-1-.71-2.11-1.48-3.34-2.39-4.44-3.26-6.36-3.46-8.58-3.68a21.11 21.11 0 01-3-.45c-1.18-.29-2.18-.48-3.11-.66A27.71 27.71 0 01171 81.6a8 8 0 01-2-1.48c-3.9 16.23-17 35.23-17.59 36.08z"/><g class="b"><path class="z" d="M223.13 55s-3.51-9.67-5.43-16-5.13-18.38-9-24.8-7.63-13.11-11.33-11-3.12 6.82-.5 11.7 6 9 6.82 14.23c.8 4.85 3.13 8.62 3.34 12.72a38.4 38.4 0 001.89 11.77"/><path class="d" d="M217.43 353.71c-.14-.67-3.33-16.54 9.83-40.38l1.76 1c-12.77 23.14-9.67 38.84-9.63 39zm-9.7-4.2c-.15-.49-3.58-12.27 7.91-39l1.84.79c-11.14 25.88-7.87 37.47-7.84 37.58zM-5.09 173.26l-1.4-1.43a111.83 111.83 0 0015.43-19.46l1.72 1a115 115 0 01-15.75 19.89zm146.19-27.59c-.19-.9-1.79-8.84.09-12.52 1.66-3.25 2.28-11.62 2.29-11.7l2 .14c0 .36-.65 8.86-2.5 12.47-1.32 2.58-.38 9 .09 11.19zM23.9 125c-1-.08-25.08-1.87-32.68-8l1.26-1.55C-.41 121.19 23.8 123 24.05 123zm198.29-69.65c0-.1-3.54-9.77-5.44-16.1-.26-.85-.54-1.8-.84-2.83-1.9-6.48-4.78-16.29-8.08-21.74l-.65-1.08c-3.28-5.45-6.68-11.08-9.32-9.6-3.78 2.17-1.7 7.42-.12 10.35.7 1.3 1.47 2.57 2.21 3.79 2.08 3.46 4.06 6.73 4.72 10.76a34.68 34.68 0 001.68 6 25.12 25.12 0 011.65 6.87V42a37.29 37.29 0 001.83 11.32l-1.83.58a39 39 0 01-2-11.84v-.19a23.35 23.35 0 00-1.57-6.3 38.08 38.08 0 01-1.75-6.31c-.6-3.65-2.48-6.76-4.47-10-.75-1.24-1.53-2.53-2.25-3.87-3.27-6.08-2.95-10.83.88-13 4.35-2.5 8.26 4 12 10.26l.65 1.07c3.44 5.68 6.36 15.63 8.29 22.22l.83 2.81c1.89 6.28 5.38 15.9 5.41 16z"/></g><path class="n" d="M312.816 293.89l3.196-2.405 51.612 68.591-3.196 2.405z"/><path class="d" d="M337.54 419.56c-1.36-.76-2.73-2.26-4.8-4.52-1.71-1.86-3.83-4.18-6.74-7a73.14 73.14 0 00-11.85-8.93 74.78 74.78 0 01-13.4-10.36c-8.95-9-16.17-22.84-16.47-23.42l1.78-.92c.07.14 7.38 14.16 16.11 22.92a72.4 72.4 0 0013.07 10.1 75.18 75.18 0 0112.14 9.16c3 2.83 5.11 5.17 6.83 7.06a23.6 23.6 0 004.31 4.13zm-22-7.34c-13.5-6.1-24-13.55-31.13-22.16A130.33 130.33 0 01272.13 372l1.75-1a129.42 129.42 0 0012.06 17.77c6.86 8.26 17.38 15.73 30.41 21.62z"/><path class="u" d="M522.51 243.79s-12.39 4.54-22.75-2.26"/><path d="M513.07 246.3a25 25 0 01-13.86-3.94l1.1-1.67c9.83 6.46 21.74 2.21 21.86 2.17l.69 1.87a30.77 30.77 0 01-9.79 1.57z"/><path d="M471.51 238a8.69 8.69 0 01-5.95-6c-1.57-5.84 2.27-8.6 2.44-8.72l1.15 1.64c-.12.08-2.85 2.12-1.66 6.56A6.66 6.66 0 00472 236z" fill="#edc45f"/><path d="M526.26 221.54v-2a4.09 4.09 0 003.76-2.88l1.91.56a6 6 0 01-5.67 4.32z" fill="#cb6d58"/><g class="b"><path class="w" d="M585.58 218.48l-2.12-2.13c.25-.24 24.7-24.61 54.38-59 26.45-30.69 62.41-75.67 85.9-118.2-35.34 23.6-87 39.53-87.59 39.69l-.88-2.86c.58-.18 57.47-17.71 92.23-43.11A103.37 103.37 0 00685 20.48l.08-3c.54 0 54.88 1.84 76 46.38l-2.71 1.29a71.62 71.62 0 00-28-30.67l-2 1.43.41.21c-23.53 44.05-61.21 91.29-88.69 123.17-29.75 34.51-54.27 58.95-54.51 59.19zm34-65.34l-3-.14c0-.36 1.45-36.91-17-61.12-18.19-23.91-49-19.58-49.34-19.53l-.46-3c.33 0 32.9-4.67 52.19 20.69 19.13 25.12 17.69 61.56 17.62 63.1zM555.7 66.91l-.79-2.91c.49-.14 49.59-13.59 80.82-12.27l-.13 3c-30.78-1.27-79.41 12.05-79.9 12.18zm28.59-18.73l-.95-2.85c.46-.15 46.77-15.41 84-7.73l-.61 2.94C630.3 33 584.75 48 584.29 48.18z"/></g><path class="z" d="M720.14 178.85a57.07 57.07 0 01-34.58-4.54c-18.15-8.5-18.71-10.74-32.89-7.07s-23.81 5.42-28.34 5.42-14.27-.7-10.75 4.1c2.83 3.87 7.35 8.1 22.09 6.06s22.11-4.29 22.11 1.54S661.18 203.2 647 214s-24.91 17.57-36.29 21.54c-14.74 5.15-18.14 11.07-16.44 13.91s11.91.11 24.38-5.26 23.77-10.06 38.75-22.06c0 0-17.33 14-32.64 23.08s-26.2 14.35-23.12 20.29c2.55 4.91 7.94 1.69 11.34-.46 0 0-1.39 6.76 10.51 3.45s15.62-2.79 25-3.45c7.85-.55 22.31-7.07 32.51-15s35.09-26.36 46.43-26.36S740 214 740 214l-9.63-39.69-10.21 4.54z"/><g class="b"><path class="d" d="M617.92 270.4a6.55 6.55 0 01-4.62-1.4 4.24 4.24 0 01-1.23-2.17c-2.6 1.53-5.42 2.79-7.92 2.11a5.39 5.39 0 01-3.39-2.93c-3.14-6.06 5.32-11 18.13-18.46 1.71-1 3.51-2 5.37-3.15 2.82-1.67 5.71-3.51 8.56-5.4-4.25 2.07-8.41 3.85-12.64 5.67l-1.13.49c-18.74 8.07-24.28 7.09-25.63 4.85a4.27 4.27 0 01-.21-3.77c.86-2.39 4.25-7.07 17.18-11.59 10.54-3.68 20.63-9.68 36-21.4 11.72-8.93 11-19.53 10.53-25.87-.08-1.13-.15-2.11-.15-3a2.34 2.34 0 00-.68-2c-1.64-1.41-6.71-.63-13.74.45-2 .31-4.18.64-6.56 1-14.59 2-19.69-1.91-23-6.46-1-1.32-1.19-2.48-.68-3.47 1.13-2.2 5.32-2.31 10.66-2.24h1.58c4.7 0 14.68-1.91 28.09-5.38 12.32-3.19 14.72-2 26.25 3.61 2.09 1 4.49 2.2 7.31 3.52a56.79 56.79 0 0033.84 4.49l11.21-5 10 41v.18c0 .11-1.43 10.55-13.52 10.55-11 0-35.71 18.29-45.81 26.15s-24.83 14.67-33.14 15.22c-2 .13-3.65.22-5.23.3a72.28 72.28 0 00-16 2.18c-1.18.45-1.87.68-1.9.69l-.07-.19-1.6.44a22.33 22.33 0 01-5.86.98zm-4-4.69a2.45 2.45 0 00.74 1.79c.76.69 2.87 1.61 8.55 0 1.26-.35 2.43-.66 3.52-.93a116.82 116.82 0 0023.11-11.82l.14-.1h.15A47.11 47.11 0 00669.51 242l1.49 1.3a48.49 48.49 0 01-20.12 13.21 107.22 107.22 0 01-14.94 8.37c2.49-.29 4.75-.41 7.32-.54 1.57-.08 3.26-.16 5.18-.3 7.85-.55 22.19-7.19 32-14.8 12.76-9.92 35.83-26.57 47-26.57 9.61 0 11.3-7.37 11.51-8.63l-9.3-38.32-9.29 4.1a57.47 57.47 0 01-35.24-4.6c-2.83-1.33-5.24-2.51-7.34-3.53-11.23-5.49-13.26-6.48-24.86-3.48-13.58 3.52-23.73 5.45-28.6 5.45h-1.61c-2.45 0-8.2-.12-8.85 1.15-.13.25.07.76.52 1.38 2 2.72 5.71 7.8 21.14 5.66 2.37-.33 4.54-.66 6.53-1 8.11-1.24 13-2 15.34 0a4.39 4.39 0 011.38 3.49c0 .79.06 1.74.14 2.83.48 6.74 1.28 18-11.31 27.6-15.56 11.86-25.81 17.94-36.56 21.7-13 4.53-15.49 9.09-16 10.39a2.42 2.42 0 000 2.05c.71 1.19 6.45 1.52 23.12-5.66l1.13-.48c11.81-5.08 23-9.88 37.4-21.44l1.25 1.56c-.17.14-17.56 14.16-32.76 23.16-1.86 1.11-3.67 2.16-5.39 3.16-11.81 6.89-19.62 11.44-17.35 15.81a3.47 3.47 0 002.13 1.92c2.38.65 5.9-1.57 7.79-2.77l2-1.25v.08l5.35-3.41c.12 0 12.17-3.88 18.22-10.26l.16-.17.22-.08a83.36 83.36 0 0025.79-17.24l1.39 1.44a84.81 84.81 0 01-26.27 17.6c-6.17 6.36-17.37 10.12-18.78 10.58z"/><path class="o" d="M751.89 147.4l-23.25 24.65-3.09 6.8 9.33 42.52 6.23.21 12.79-1.34-2.01-72.84z"/><path class="d" d="M741.15 222.59l-7.08-.25-9.57-43.6 3.3-7.26.12-.12 24.9-26.4 2.1 76.17zm-5.46-2.19l5.39.18 11.79-1.24-1.87-69.49-21.47 22.76-2.93 6.39z"/></g><path class="q" d="M716.17 179.16s8.33 15.62 8.33 45.64l15.21-2.21s.56-16.5-2.85-30.67-6.8-21.32-6.8-21.32l-13.89 8.56z"/><path class="d" d="M723.5 226v-1.2c0-29.37-8.13-45-8.21-45.17l-.44-.82 15.63-9.64.48 1c.14.3 3.49 7.41 6.88 21.52s2.88 30.76 2.87 30.93v.84zm-6-46.42c1.7 3.6 7.85 18.41 8 44.1l13.23-1.92c0-3.52.06-17.49-2.84-29.57a131.68 131.68 0 00-6.28-20.09z"/><path d="M500.46 206l-1.4-1.42c5.23-5.14 2.42-9.12 2.29-9.29l1.6-1.2c.05.09 4.05 5.54-2.49 11.91z" fill="#82705a"/><g class="b"><path class="d" d="M23.82 439.6l-9.9-45.6 1.95-.42 9.91 45.56zm-5.67 0l-8.48-47 2-.36 8.48 47zm134.64-2.85l-5-30.83 2-.32 5 30.83zm-54.72-2.85l-2-.29 3.53-24 2 .29zm-8.5 0l-2-.26 3.3-25.28 2 .26zm28.35-1.44l-2-.23 2.8-24.14 2 .23zm376.16-230.68a17.14 17.14 0 01-2-.11l.26-2c.05 0 5.39.67 7.7-1.66a4.2 4.2 0 001-3.77l2-.28a6.13 6.13 0 01-1.54 5.46c-2.01 2-5.3 2.36-7.42 2.36z"/></g><path class="ac" d="M437.48 166.45a1 1 0 00.86-1.85 1 1 0 00-1.35.49 1 1 0 00.49 1.36zM442.59 164.73a1 1 0 001.35-.5 1 1 0 10-1.84-.86 1 1 0 00.49 1.36zM444.43 169.69a1 1 0 001.35-.5 1 1 0 00-.49-1.35 1 1 0 00-1.36.49 1 1 0 00.5 1.36zM439.37 171.62a1 1 0 10-.49-1.35 1 1 0 00.49 1.35zM441.86 308.94a1 1 0 10-.82-1.18 1 1 0 00.82 1.18zM446.36 306a1 1 0 001.17-.83 1 1 0 10-1.17.83zM449.41 310.27a1 1 0 001.18-.82 1 1 0 10-2-.35 1 1 0 00.82 1.17zM445 313.46a1 1 0 00.36-2 1 1 0 00-1.18.83 1 1 0 00.82 1.18zM409.31 413.83a1 1 0 101.31-1.56 1 1 0 00-1.31 1.56zM414.69 413.49a1 1 0 001.44-.13 1 1 0 00-1.56-1.31 1 1 0 00.12 1.44zM415.19 418.76a1 1 0 10-.13-1.44 1 1 0 00.13 1.44zM409.8 419.32a1 1 0 10-.12-1.43 1 1 0 00.12 1.43zM504.61 361.35a1 1 0 101-1 1 1 0 00-1 1zM508.33 365.25a1 1 0 101-1 1 1 0 00-1 1zM504.61 369a1 1 0 101-1 1 1 0 00-1 1zM500.71 365.25a1 1 0 101-1 1 1 0 00-1 1zM568.63 412.71a1 1 0 101-1 1 1 0 00-1 1zM572.35 416.61a1 1 0 101-1 1 1 0 00-1 1zM568.63 420.37a1 1 0 101-1 1 1 0 00-1 1zM564.74 416.61a1 1 0 101-1 1 1 0 00-1 1zM627.43 343.44a1 1 0 001.31.61 1 1 0 00.6-1.3 1 1 0 00-1.91.69zM632.26 345.84a1 1 0 10.61-1.3 1 1 0 00-.61 1.3zM630.05 350.65a1 1 0 10.61-1.31 1 1 0 00-.61 1.31zM625.11 348.44a1 1 0 10.61-1.3 1 1 0 00-.61 1.3zM561.66 351.94a1 1 0 00.13 1.44 1 1 0 001.31-1.56 1 1 0 00-1.44.12zM562 357.32a1 1 0 00.13 1.44 1 1 0 001.31-1.56 1 1 0 00-1.44.12zM556.74 357.81a1 1 0 00.12 1.44 1 1 0 10-.12-1.44zM556.17 352.43a1 1 0 101.43-.13 1 1 0 00-1.43.13z"/><path class="d" d="M733.32 224.07h-2v-3.68h2zm-2.22-8l-.48-6.52 2-.15.49 6.52zm-.77-11.51l-.71-5.67 2-.25.71 5.67zm-1.92-11.14l-1.58-5.67 1.93-.53 1.58 5.66zm-2.58-9.42c-.53-2.42-3.45-8.59-3.48-8.65l1.81-.85c.13.26 3 6.43 3.62 9.06z"/><path class="t" d="M717.59 362.12l-3-.46c11.55-74.37 10.72-132.3 10.71-132.88l3-.05c.04.58.87 58.76-10.71 133.39z"/><g class="b"><path class="d" d="M733.82 425.88l-1.68-4-4.21 2-.84-1.81 6.08-2.83 2.49 5.9zm7.6-2.93a4.4 4.4 0 114.24-4.4 4.33 4.33 0 01-4.24 4.45zm0-6.79a2.4 2.4 0 102.24 2.39 2.32 2.32 0 00-2.24-2.39zm-23.5 4.39l-2.25-4.55-4.24 2.45-1-1.74 6.08-3.5 3.2 6.44zm7.33-2.95a4.4 4.4 0 114.24-4.39 4.32 4.32 0 01-4.24 4.39zm0-6.79a2.4 2.4 0 102.24 2.4 2.33 2.33 0 00-2.24-2.4zm-24.14 4.91l-2.11-4.37-4.09 2.65-1.08-1.68 6-3.89 3 6.42zm7.14-3.12a4.4 4.4 0 114.24-4.39 4.32 4.32 0 01-4.24 4.39zm0-6.79a2.4 2.4 0 102.24 2.4 2.33 2.33 0 00-2.24-2.4zm27.44 6.39l-3-6.1 1.79-.89 2.18 4.39 4.39-1.93.8 1.83zm-44.19-3.62a4.39 4.39 0 114.24-4.39 4.32 4.32 0 01-4.24 4.39zm0-6.78a2.4 2.4 0 102.24 2.39 2.32 2.32 0 00-2.24-2.39zm25.68 6.08l-3.44-6.58 1.77-.93 2.49 4.75 4.91-2.78 1 1.74zm-16.75-4.67l-3.16-6.52 1.8-.87 2.23 4.59 4.45-2.57 1 1.74zm-16.21-5.5l-2.85-7 1.85-.75 2 4.83 4-2.36 1 1.72z"/></g><path class="v" d="M491.69 173.21l6.43-4.68 4.66-3.25 4.62-3.26 6.92-1.85h6.59l2.5.57-5.7-5.24-6.6-4.54-5.41-3.4-8.12 3.12-13.71 7.51-13.18 10.83-8.5 8.45-5.11 7.93-1.09 3.83-1.88 16.09-1.14 11.26-.42 15.45.99 9.36 1.42 5.67 2.83 6.09 4.54 6.22 6.26 6.87 9.47 9.3 1.28 1.28 5.38-2.13-7.05-16.58-7.55-19.13-3.26-1.99-2.69-4.39-.28-6.49 2.97-4.28 3.83-14.06 3.4-14.57 4.68-7.8 6.71-7.11 6.21-5.08z"/><path class="ac" d="M531.42 372.78c-1.62-18.91-10.68-40.28-28.5-67.23-8.36-12.63-18.42-22.64-27.3-31.48-9.4-9.35-17.52-17.42-20.82-25.9-5.37-13.75-1.8-39.42.11-53.22.37-2.64.68-4.92.85-6.51.91-8.61 14-20.05 24.84-28.13 13.55-10.12 25.56-13.36 25.68-13.39l.26 1c-.12 0-12 3.23-25.34 13.22-10.68 8-23.58 19.19-24.45 27.43-.17 1.61-.48 3.9-.85 6.55-1.9 13.7-5.44 39.21-.17 52.72 3.23 8.27 11.27 16.28 20.6 25.55 8.91 8.87 19 18.92 27.42 31.64 17.92 27.1 27 48.61 28.67 67.7z"/><path d="M483.68 274.91c-.1-.24-9.57-23.48-14.31-35.68a9.85 9.85 0 01-6.27-7.3 10.43 10.43 0 012.81-10.07c.6-2.89 1.39-5.89 2.23-9.05 1.09-4.13 2.22-8.4 3.14-13.17 3-15.41 15.84-24.65 27.2-32.81 1.46-1.05 2.89-2.08 4.26-3.09 6.3-4.66 12.18-5 16-4.49a19.37 19.37 0 012.59.53c-3.5-3.22-9.19-7.28-16.58-11.83-8.3-5.1-44.2-12.95-66.92 6.15l-1.29-1.53C460 132.82 497.2 141 505.8 146.25c6 3.69 16.59 10.62 20.13 15.58l-1.35 1.42c-.39-.25-9.71-6-20.65 2.1q-2.07 1.53-4.28 3.1c-11.06 7.94-23.59 16.94-26.41 31.57-.93 4.83-2.07 9.14-3.17 13.3-.86 3.26-1.67 6.33-2.27 9.26l-.07.33-.25.23a8.41 8.41 0 00-2.44 8.34 7.78 7.78 0 005.34 6l.49.13.19.48c4.67 12 14.37 35.86 14.47 36.1z"/></svg>
